%TF.GenerationSoftware,KiCad,Pcbnew,(5.1.9)-1*%
%TF.CreationDate,2021-07-13T18:02:15-04:00*%
%TF.ProjectId,detector_support,64657465-6374-46f7-925f-737570706f72,rev?*%
%TF.SameCoordinates,Original*%
%TF.FileFunction,Copper,L4,Bot*%
%TF.FilePolarity,Positive*%
%FSLAX46Y46*%
G04 Gerber Fmt 4.6, Leading zero omitted, Abs format (unit mm)*
G04 Created by KiCad (PCBNEW (5.1.9)-1) date 2021-07-13 18:02:15*
%MOMM*%
%LPD*%
G01*
G04 APERTURE LIST*
%TA.AperFunction,ComponentPad*%
%ADD10R,1.700000X1.700000*%
%TD*%
%TA.AperFunction,ComponentPad*%
%ADD11C,7.000000*%
%TD*%
%TA.AperFunction,ComponentPad*%
%ADD12O,1.700000X1.700000*%
%TD*%
%TA.AperFunction,ComponentPad*%
%ADD13C,1.200000*%
%TD*%
%TA.AperFunction,ComponentPad*%
%ADD14R,1.200000X1.200000*%
%TD*%
%TA.AperFunction,ComponentPad*%
%ADD15C,1.500000*%
%TD*%
%TA.AperFunction,ComponentPad*%
%ADD16O,1.200000X1.750000*%
%TD*%
%TA.AperFunction,ViaPad*%
%ADD17C,0.800000*%
%TD*%
%TA.AperFunction,Conductor*%
%ADD18C,1.000000*%
%TD*%
%TA.AperFunction,Conductor*%
%ADD19C,0.420000*%
%TD*%
%TA.AperFunction,Conductor*%
%ADD20C,2.500000*%
%TD*%
%TA.AperFunction,Conductor*%
%ADD21C,0.254000*%
%TD*%
%TA.AperFunction,Conductor*%
%ADD22C,0.100000*%
%TD*%
G04 APERTURE END LIST*
D10*
%TO.P,TP2,1*%
%TO.N,/INTERUPT_OUT*%
X105791000Y-86233000D03*
%TD*%
D11*
%TO.P,REF\u002A\u002A,1*%
%TO.N,N/C*%
X146431000Y-140970000D03*
%TD*%
D12*
%TO.P,J11,4*%
%TO.N,/SIPM_OUT_DET*%
X104013000Y-98679000D03*
%TO.P,J11,3*%
%TO.N,/DET_ADC*%
X106553000Y-98679000D03*
%TO.P,J11,2*%
%TO.N,/AMP_OUT*%
X109093000Y-98679000D03*
D10*
%TO.P,J11,1*%
%TO.N,GND*%
X111633000Y-98679000D03*
%TD*%
D12*
%TO.P,J2,2*%
%TO.N,+4.7V*%
X144653000Y-110871000D03*
D10*
%TO.P,J2,1*%
%TO.N,GND*%
X144653000Y-108331000D03*
%TD*%
D11*
%TO.P,REF\u002A\u002A,1*%
%TO.N,N/C*%
X90170000Y-54610000D03*
%TD*%
%TO.P,REF\u002A\u002A,1*%
%TO.N,N/C*%
X171450000Y-54610000D03*
%TD*%
%TO.P,REF\u002A\u002A,1*%
%TO.N,N/C*%
X171450000Y-140970000D03*
%TD*%
%TO.P,REF\u002A\u002A,1*%
%TO.N,N/C*%
X146431000Y-99695000D03*
%TD*%
%TO.P,C13,2*%
%TO.N,GND*%
%TA.AperFunction,SMDPad,CuDef*%
G36*
G01*
X107790400Y-68344201D02*
X107790400Y-67444199D01*
G75*
G02*
X108040399Y-67194200I249999J0D01*
G01*
X108690401Y-67194200D01*
G75*
G02*
X108940400Y-67444199I0J-249999D01*
G01*
X108940400Y-68344201D01*
G75*
G02*
X108690401Y-68594200I-249999J0D01*
G01*
X108040399Y-68594200D01*
G75*
G02*
X107790400Y-68344201I0J249999D01*
G01*
G37*
%TD.AperFunction*%
%TO.P,C13,1*%
%TO.N,+5V*%
%TA.AperFunction,SMDPad,CuDef*%
G36*
G01*
X105740400Y-68344201D02*
X105740400Y-67444199D01*
G75*
G02*
X105990399Y-67194200I249999J0D01*
G01*
X106640401Y-67194200D01*
G75*
G02*
X106890400Y-67444199I0J-249999D01*
G01*
X106890400Y-68344201D01*
G75*
G02*
X106640401Y-68594200I-249999J0D01*
G01*
X105990399Y-68594200D01*
G75*
G02*
X105740400Y-68344201I0J249999D01*
G01*
G37*
%TD.AperFunction*%
%TD*%
%TO.P,U10,8*%
%TO.N,GND*%
%TA.AperFunction,SMDPad,CuDef*%
G36*
G01*
X109497000Y-59206000D02*
X109197000Y-59206000D01*
G75*
G02*
X109047000Y-59056000I0J150000D01*
G01*
X109047000Y-57406000D01*
G75*
G02*
X109197000Y-57256000I150000J0D01*
G01*
X109497000Y-57256000D01*
G75*
G02*
X109647000Y-57406000I0J-150000D01*
G01*
X109647000Y-59056000D01*
G75*
G02*
X109497000Y-59206000I-150000J0D01*
G01*
G37*
%TD.AperFunction*%
%TO.P,U10,7*%
%TO.N,/Microcontroller [DO NOT PLACE]/CANH*%
%TA.AperFunction,SMDPad,CuDef*%
G36*
G01*
X108227000Y-59206000D02*
X107927000Y-59206000D01*
G75*
G02*
X107777000Y-59056000I0J150000D01*
G01*
X107777000Y-57406000D01*
G75*
G02*
X107927000Y-57256000I150000J0D01*
G01*
X108227000Y-57256000D01*
G75*
G02*
X108377000Y-57406000I0J-150000D01*
G01*
X108377000Y-59056000D01*
G75*
G02*
X108227000Y-59206000I-150000J0D01*
G01*
G37*
%TD.AperFunction*%
%TO.P,U10,6*%
%TO.N,/Microcontroller [DO NOT PLACE]/CANL*%
%TA.AperFunction,SMDPad,CuDef*%
G36*
G01*
X106957000Y-59206000D02*
X106657000Y-59206000D01*
G75*
G02*
X106507000Y-59056000I0J150000D01*
G01*
X106507000Y-57406000D01*
G75*
G02*
X106657000Y-57256000I150000J0D01*
G01*
X106957000Y-57256000D01*
G75*
G02*
X107107000Y-57406000I0J-150000D01*
G01*
X107107000Y-59056000D01*
G75*
G02*
X106957000Y-59206000I-150000J0D01*
G01*
G37*
%TD.AperFunction*%
%TO.P,U10,5*%
%TO.N,+5V*%
%TA.AperFunction,SMDPad,CuDef*%
G36*
G01*
X105687000Y-59206000D02*
X105387000Y-59206000D01*
G75*
G02*
X105237000Y-59056000I0J150000D01*
G01*
X105237000Y-57406000D01*
G75*
G02*
X105387000Y-57256000I150000J0D01*
G01*
X105687000Y-57256000D01*
G75*
G02*
X105837000Y-57406000I0J-150000D01*
G01*
X105837000Y-59056000D01*
G75*
G02*
X105687000Y-59206000I-150000J0D01*
G01*
G37*
%TD.AperFunction*%
%TO.P,U10,4*%
%TO.N,/Microcontroller [DO NOT PLACE]/PIC_RX*%
%TA.AperFunction,SMDPad,CuDef*%
G36*
G01*
X105687000Y-64156000D02*
X105387000Y-64156000D01*
G75*
G02*
X105237000Y-64006000I0J150000D01*
G01*
X105237000Y-62356000D01*
G75*
G02*
X105387000Y-62206000I150000J0D01*
G01*
X105687000Y-62206000D01*
G75*
G02*
X105837000Y-62356000I0J-150000D01*
G01*
X105837000Y-64006000D01*
G75*
G02*
X105687000Y-64156000I-150000J0D01*
G01*
G37*
%TD.AperFunction*%
%TO.P,U10,3*%
%TO.N,+5V*%
%TA.AperFunction,SMDPad,CuDef*%
G36*
G01*
X106957000Y-64156000D02*
X106657000Y-64156000D01*
G75*
G02*
X106507000Y-64006000I0J150000D01*
G01*
X106507000Y-62356000D01*
G75*
G02*
X106657000Y-62206000I150000J0D01*
G01*
X106957000Y-62206000D01*
G75*
G02*
X107107000Y-62356000I0J-150000D01*
G01*
X107107000Y-64006000D01*
G75*
G02*
X106957000Y-64156000I-150000J0D01*
G01*
G37*
%TD.AperFunction*%
%TO.P,U10,2*%
%TO.N,GND*%
%TA.AperFunction,SMDPad,CuDef*%
G36*
G01*
X108227000Y-64156000D02*
X107927000Y-64156000D01*
G75*
G02*
X107777000Y-64006000I0J150000D01*
G01*
X107777000Y-62356000D01*
G75*
G02*
X107927000Y-62206000I150000J0D01*
G01*
X108227000Y-62206000D01*
G75*
G02*
X108377000Y-62356000I0J-150000D01*
G01*
X108377000Y-64006000D01*
G75*
G02*
X108227000Y-64156000I-150000J0D01*
G01*
G37*
%TD.AperFunction*%
%TO.P,U10,1*%
%TO.N,/Microcontroller [DO NOT PLACE]/PIC_TX*%
%TA.AperFunction,SMDPad,CuDef*%
G36*
G01*
X109497000Y-64156000D02*
X109197000Y-64156000D01*
G75*
G02*
X109047000Y-64006000I0J150000D01*
G01*
X109047000Y-62356000D01*
G75*
G02*
X109197000Y-62206000I150000J0D01*
G01*
X109497000Y-62206000D01*
G75*
G02*
X109647000Y-62356000I0J-150000D01*
G01*
X109647000Y-64006000D01*
G75*
G02*
X109497000Y-64156000I-150000J0D01*
G01*
G37*
%TD.AperFunction*%
%TD*%
D13*
%TO.P,J10,4*%
%TO.N,/Microcontroller [DO NOT PLACE]/CANH*%
X108045000Y-51419000D03*
%TO.P,J10,5*%
%TO.N,/Microcontroller [DO NOT PLACE]/CANL*%
X106045000Y-51419000D03*
%TO.P,J10,6*%
%TO.N,Net-(J10-Pad6)*%
X104045000Y-51419000D03*
%TO.P,J10,3*%
%TO.N,GND*%
X104045000Y-49419000D03*
D14*
%TO.P,J10,1*%
%TO.N,Net-(J10-Pad1)*%
X108045000Y-49419000D03*
D13*
%TO.P,J10,2*%
%TO.N,Net-(J10-Pad2)*%
X106045000Y-49419000D03*
%TD*%
D15*
%TO.P,Y1,2*%
%TO.N,/Microcontroller [DO NOT PLACE]/OSC2*%
X114246000Y-63373000D03*
%TO.P,Y1,1*%
%TO.N,/Microcontroller [DO NOT PLACE]/OSC1*%
X119126000Y-63373000D03*
%TD*%
D10*
%TO.P,J1,1*%
%TO.N,/Microcontroller [DO NOT PLACE]/MCLR*%
X126619000Y-52070000D03*
D12*
%TO.P,J1,2*%
%TO.N,+5V*%
X124079000Y-52070000D03*
%TO.P,J1,3*%
%TO.N,GND*%
X121539000Y-52070000D03*
%TO.P,J1,4*%
%TO.N,/Microcontroller [DO NOT PLACE]/ICSPDAT*%
X118999000Y-52070000D03*
%TO.P,J1,5*%
%TO.N,/Microcontroller [DO NOT PLACE]/ICSPCLK*%
X116459000Y-52070000D03*
%TD*%
D16*
%TO.P,J6,2*%
%TO.N,Net-(F6-Pad2)*%
X162338000Y-57023000D03*
%TO.P,J6,1*%
%TO.N,GND*%
%TA.AperFunction,ComponentPad*%
G36*
G01*
X164938000Y-56397999D02*
X164938000Y-57648001D01*
G75*
G02*
X164688001Y-57898000I-249999J0D01*
G01*
X163987999Y-57898000D01*
G75*
G02*
X163738000Y-57648001I0J249999D01*
G01*
X163738000Y-56397999D01*
G75*
G02*
X163987999Y-56148000I249999J0D01*
G01*
X164688001Y-56148000D01*
G75*
G02*
X164938000Y-56397999I0J-249999D01*
G01*
G37*
%TD.AperFunction*%
%TD*%
%TO.P,J5,2*%
%TO.N,Net-(F5-Pad2)*%
X153448000Y-57023000D03*
%TO.P,J5,1*%
%TO.N,Net-(F6-Pad1)*%
%TA.AperFunction,ComponentPad*%
G36*
G01*
X156048000Y-56397999D02*
X156048000Y-57648001D01*
G75*
G02*
X155798001Y-57898000I-249999J0D01*
G01*
X155097999Y-57898000D01*
G75*
G02*
X154848000Y-57648001I0J249999D01*
G01*
X154848000Y-56397999D01*
G75*
G02*
X155097999Y-56148000I249999J0D01*
G01*
X155798001Y-56148000D01*
G75*
G02*
X156048000Y-56397999I0J-249999D01*
G01*
G37*
%TD.AperFunction*%
%TD*%
%TO.P,J4,2*%
%TO.N,Net-(F4-Pad2)*%
X144050000Y-57023000D03*
%TO.P,J4,1*%
%TO.N,Net-(F5-Pad1)*%
%TA.AperFunction,ComponentPad*%
G36*
G01*
X146650000Y-56397999D02*
X146650000Y-57648001D01*
G75*
G02*
X146400001Y-57898000I-249999J0D01*
G01*
X145699999Y-57898000D01*
G75*
G02*
X145450000Y-57648001I0J249999D01*
G01*
X145450000Y-56397999D01*
G75*
G02*
X145699999Y-56148000I249999J0D01*
G01*
X146400001Y-56148000D01*
G75*
G02*
X146650000Y-56397999I0J-249999D01*
G01*
G37*
%TD.AperFunction*%
%TD*%
%TO.P,J3,2*%
%TO.N,+BATT*%
X134398000Y-57023000D03*
%TO.P,J3,1*%
%TO.N,Net-(F4-Pad1)*%
%TA.AperFunction,ComponentPad*%
G36*
G01*
X136998000Y-56397999D02*
X136998000Y-57648001D01*
G75*
G02*
X136748001Y-57898000I-249999J0D01*
G01*
X136047999Y-57898000D01*
G75*
G02*
X135798000Y-57648001I0J249999D01*
G01*
X135798000Y-56397999D01*
G75*
G02*
X136047999Y-56148000I249999J0D01*
G01*
X136748001Y-56148000D01*
G75*
G02*
X136998000Y-56397999I0J-249999D01*
G01*
G37*
%TD.AperFunction*%
%TD*%
D12*
%TO.P,J9,2*%
%TO.N,+36V*%
X144653000Y-117983000D03*
D10*
%TO.P,J9,1*%
%TO.N,/SIPM_OUT*%
X144653000Y-120523000D03*
%TD*%
D12*
%TO.P,JP2,3*%
%TO.N,+12V*%
X137033000Y-70485000D03*
%TO.P,JP2,2*%
%TO.N,Net-(C7-Pad1)*%
X137033000Y-67945000D03*
D10*
%TO.P,JP2,1*%
%TO.N,+BATT*%
X137033000Y-65405000D03*
%TD*%
D12*
%TO.P,J7,3*%
%TO.N,Net-(F3-Pad2)*%
X137160000Y-80645000D03*
%TO.P,J7,2*%
%TO.N,Net-(F1-Pad2)*%
X137160000Y-78105000D03*
D10*
%TO.P,J7,1*%
%TO.N,GND*%
X137160000Y-75565000D03*
%TD*%
%TO.P,TP17,1*%
%TO.N,Net-(R28-Pad2)*%
X113157000Y-85471000D03*
%TD*%
%TO.P,R10,2*%
%TO.N,/Microcontroller [DO NOT PLACE]/MCLR*%
%TA.AperFunction,SMDPad,CuDef*%
G36*
G01*
X128021500Y-64140501D02*
X128021500Y-63240499D01*
G75*
G02*
X128271499Y-62990500I249999J0D01*
G01*
X128921501Y-62990500D01*
G75*
G02*
X129171500Y-63240499I0J-249999D01*
G01*
X129171500Y-64140501D01*
G75*
G02*
X128921501Y-64390500I-249999J0D01*
G01*
X128271499Y-64390500D01*
G75*
G02*
X128021500Y-64140501I0J249999D01*
G01*
G37*
%TD.AperFunction*%
%TO.P,R10,1*%
%TO.N,+5V*%
%TA.AperFunction,SMDPad,CuDef*%
G36*
G01*
X125971500Y-64140501D02*
X125971500Y-63240499D01*
G75*
G02*
X126221499Y-62990500I249999J0D01*
G01*
X126871501Y-62990500D01*
G75*
G02*
X127121500Y-63240499I0J-249999D01*
G01*
X127121500Y-64140501D01*
G75*
G02*
X126871501Y-64390500I-249999J0D01*
G01*
X126221499Y-64390500D01*
G75*
G02*
X125971500Y-64140501I0J249999D01*
G01*
G37*
%TD.AperFunction*%
%TD*%
%TO.P,R6,2*%
%TO.N,/Microcontroller [DO NOT PLACE]/MCLR*%
%TA.AperFunction,SMDPad,CuDef*%
G36*
G01*
X128212000Y-56330001D02*
X128212000Y-55429999D01*
G75*
G02*
X128461999Y-55180000I249999J0D01*
G01*
X129112001Y-55180000D01*
G75*
G02*
X129362000Y-55429999I0J-249999D01*
G01*
X129362000Y-56330001D01*
G75*
G02*
X129112001Y-56580000I-249999J0D01*
G01*
X128461999Y-56580000D01*
G75*
G02*
X128212000Y-56330001I0J249999D01*
G01*
G37*
%TD.AperFunction*%
%TO.P,R6,1*%
%TO.N,Net-(R6-Pad1)*%
%TA.AperFunction,SMDPad,CuDef*%
G36*
G01*
X126162000Y-56330001D02*
X126162000Y-55429999D01*
G75*
G02*
X126411999Y-55180000I249999J0D01*
G01*
X127062001Y-55180000D01*
G75*
G02*
X127312000Y-55429999I0J-249999D01*
G01*
X127312000Y-56330001D01*
G75*
G02*
X127062001Y-56580000I-249999J0D01*
G01*
X126411999Y-56580000D01*
G75*
G02*
X126162000Y-56330001I0J249999D01*
G01*
G37*
%TD.AperFunction*%
%TD*%
%TO.P,C14,2*%
%TO.N,GND*%
%TA.AperFunction,SMDPad,CuDef*%
G36*
G01*
X103955001Y-56582000D02*
X103054999Y-56582000D01*
G75*
G02*
X102805000Y-56332001I0J249999D01*
G01*
X102805000Y-55681999D01*
G75*
G02*
X103054999Y-55432000I249999J0D01*
G01*
X103955001Y-55432000D01*
G75*
G02*
X104205000Y-55681999I0J-249999D01*
G01*
X104205000Y-56332001D01*
G75*
G02*
X103955001Y-56582000I-249999J0D01*
G01*
G37*
%TD.AperFunction*%
%TO.P,C14,1*%
%TO.N,+5V*%
%TA.AperFunction,SMDPad,CuDef*%
G36*
G01*
X103955001Y-58632000D02*
X103054999Y-58632000D01*
G75*
G02*
X102805000Y-58382001I0J249999D01*
G01*
X102805000Y-57731999D01*
G75*
G02*
X103054999Y-57482000I249999J0D01*
G01*
X103955001Y-57482000D01*
G75*
G02*
X104205000Y-57731999I0J-249999D01*
G01*
X104205000Y-58382001D01*
G75*
G02*
X103955001Y-58632000I-249999J0D01*
G01*
G37*
%TD.AperFunction*%
%TD*%
%TO.P,C3,2*%
%TO.N,GND*%
%TA.AperFunction,SMDPad,CuDef*%
G36*
G01*
X127257500Y-59430499D02*
X127257500Y-60330501D01*
G75*
G02*
X127007501Y-60580500I-249999J0D01*
G01*
X126357499Y-60580500D01*
G75*
G02*
X126107500Y-60330501I0J249999D01*
G01*
X126107500Y-59430499D01*
G75*
G02*
X126357499Y-59180500I249999J0D01*
G01*
X127007501Y-59180500D01*
G75*
G02*
X127257500Y-59430499I0J-249999D01*
G01*
G37*
%TD.AperFunction*%
%TO.P,C3,1*%
%TO.N,/Microcontroller [DO NOT PLACE]/MCLR*%
%TA.AperFunction,SMDPad,CuDef*%
G36*
G01*
X129307500Y-59430499D02*
X129307500Y-60330501D01*
G75*
G02*
X129057501Y-60580500I-249999J0D01*
G01*
X128407499Y-60580500D01*
G75*
G02*
X128157500Y-60330501I0J249999D01*
G01*
X128157500Y-59430499D01*
G75*
G02*
X128407499Y-59180500I249999J0D01*
G01*
X129057501Y-59180500D01*
G75*
G02*
X129307500Y-59430499I0J-249999D01*
G01*
G37*
%TD.AperFunction*%
%TD*%
D17*
%TO.N,GND*%
X120904000Y-93599000D03*
X149098000Y-89027000D03*
X159385000Y-67691000D03*
X164338000Y-85471000D03*
X171323000Y-85471000D03*
X173863000Y-85471000D03*
X164973000Y-86741000D03*
X172593000Y-86741000D03*
X166243000Y-88011000D03*
X171323000Y-88011000D03*
X173863000Y-88011000D03*
X164973000Y-89281000D03*
X172593000Y-89281000D03*
X166243000Y-90551000D03*
X168783000Y-90551000D03*
X171323000Y-90551000D03*
X173863000Y-90551000D03*
X164973000Y-91821000D03*
X167513000Y-91821000D03*
X170053000Y-91821000D03*
X172593000Y-91821000D03*
X166243000Y-93091000D03*
X168783000Y-93091000D03*
X171323000Y-93091000D03*
X173863000Y-93091000D03*
X153035000Y-90424000D03*
X155575000Y-90424000D03*
X158115000Y-90424000D03*
X151765000Y-91694000D03*
X154305000Y-91694000D03*
X156845000Y-91694000D03*
X170053000Y-89281000D03*
X167513000Y-89281000D03*
X167513000Y-86741000D03*
X168783000Y-88011000D03*
X168783000Y-85471000D03*
X170053000Y-86741000D03*
X110109000Y-86487000D03*
X113284000Y-93599000D03*
X120904000Y-97155000D03*
X100203000Y-57531000D03*
X164338000Y-59817000D03*
X162306000Y-125222000D03*
X148463000Y-125095000D03*
X153035000Y-118999000D03*
X98298000Y-95631000D03*
X100965000Y-80391000D03*
X101854000Y-75057000D03*
X86868000Y-75565000D03*
X86868000Y-89408000D03*
X110553500Y-59372500D03*
X151765000Y-86614000D03*
X150495000Y-87884000D03*
X151765000Y-84074000D03*
X153035000Y-82804000D03*
X155575000Y-82804000D03*
X154305000Y-84074000D03*
X151765000Y-81534000D03*
X149225000Y-84074000D03*
X156845000Y-81534000D03*
X154305000Y-81534000D03*
X150495000Y-82804000D03*
X149225000Y-81534000D03*
X150495000Y-85344000D03*
X153035000Y-85344000D03*
X156845000Y-86614000D03*
X154305000Y-89154000D03*
X158115000Y-85344000D03*
X149225000Y-86614000D03*
X156845000Y-84074000D03*
X155575000Y-87884000D03*
X150495000Y-90424000D03*
X153035000Y-87884000D03*
X151765000Y-89154000D03*
X156845000Y-89154000D03*
X155575000Y-85344000D03*
X158115000Y-87884000D03*
X154305000Y-86614000D03*
X158115000Y-82804000D03*
X116205000Y-67056000D03*
X124650500Y-59880500D03*
X112395000Y-83693000D03*
X159004000Y-104140000D03*
X157734000Y-104775000D03*
X160274000Y-104140000D03*
X160812023Y-108808977D03*
X163449000Y-106934000D03*
X161544000Y-103505000D03*
X161544000Y-104775000D03*
X157734000Y-103505000D03*
X87249000Y-82296000D03*
X165989000Y-124968000D03*
X175768000Y-120904000D03*
X164211000Y-111633000D03*
X170561000Y-125095000D03*
X168656000Y-128778000D03*
X156210000Y-101219000D03*
X153788000Y-101210000D03*
X95168000Y-79629000D03*
X95168000Y-93771000D03*
X155448000Y-114808000D03*
X151892000Y-114681000D03*
X172729000Y-101609000D03*
X122174000Y-57467500D03*
X109093000Y-65659000D03*
X146177000Y-83947000D03*
X100203000Y-65786000D03*
X85788500Y-99504500D03*
X103505000Y-54483000D03*
X111760000Y-93345000D03*
X137922000Y-90424000D03*
X137922000Y-95504000D03*
X137922000Y-85344000D03*
X153797000Y-71247000D03*
%TO.N,+5V*%
X96647000Y-70231000D03*
X98171000Y-57531000D03*
X141859000Y-84074000D03*
X153035000Y-122301000D03*
X124079000Y-49911000D03*
X117221000Y-82423000D03*
X167259000Y-124333000D03*
X172255000Y-123274000D03*
X151384000Y-62992000D03*
X156718000Y-62738000D03*
X168021000Y-62738000D03*
X104724200Y-67894200D03*
X102489000Y-60071000D03*
X126365000Y-66167000D03*
X121539000Y-85344000D03*
X113284000Y-88011000D03*
X117475000Y-85344000D03*
%TO.N,+36V*%
X157226000Y-125222000D03*
%TO.N,+3V3*%
X85598000Y-95504000D03*
X100965000Y-86233000D03*
X95885000Y-63754000D03*
X92583000Y-73406000D03*
%TO.N,/Microcontroller [DO NOT PLACE]/ICSPCLK*%
X117475000Y-57658000D03*
X126111000Y-82042000D03*
%TO.N,/Microcontroller [DO NOT PLACE]/ICSPDAT*%
X126111000Y-80391000D03*
X117475000Y-56388000D03*
%TO.N,Net-(R6-Pad1)*%
X124333000Y-56007000D03*
%TO.N,/Microcontroller [DO NOT PLACE]/CS*%
X96012000Y-100012500D03*
X117602000Y-67056000D03*
%TO.N,/DET_ADC*%
X111125000Y-81915000D03*
%TO.N,/Microcontroller [DO NOT PLACE]/PIC_RX*%
X105537000Y-65659000D03*
%TO.N,/Microcontroller [DO NOT PLACE]/PIC_TX*%
X111633000Y-67183000D03*
%TO.N,+4.7V*%
X165989000Y-118999000D03*
%TD*%
D18*
%TO.N,GND*%
X124650500Y-59880500D02*
X126682500Y-59880500D01*
D19*
X108077000Y-64643000D02*
X109093000Y-65659000D01*
X108077000Y-63181000D02*
X108077000Y-64643000D01*
D18*
X109093000Y-67166600D02*
X108365400Y-67894200D01*
X109093000Y-65659000D02*
X109093000Y-67166600D01*
X103505000Y-56007000D02*
X103505000Y-54483000D01*
X103505000Y-54483000D02*
X103505000Y-54483000D01*
%TO.N,+5V*%
X106315400Y-67894200D02*
X105232200Y-67894200D01*
X105232200Y-67894200D02*
X104724200Y-67894200D01*
X104724200Y-67894200D02*
X104724200Y-67894200D01*
D19*
X106807000Y-67402600D02*
X106315400Y-67894200D01*
X106807000Y-63181000D02*
X106807000Y-67402600D01*
X105363000Y-58057000D02*
X105537000Y-58231000D01*
X103505000Y-58057000D02*
X105363000Y-58057000D01*
D18*
X103505000Y-58057000D02*
X103505000Y-59055000D01*
X103505000Y-59055000D02*
X102489000Y-60071000D01*
X102489000Y-60071000D02*
X102489000Y-60071000D01*
X126546500Y-63690500D02*
X126546500Y-65985500D01*
X126546500Y-65985500D02*
X126365000Y-66167000D01*
X126365000Y-66167000D02*
X126365000Y-66167000D01*
D19*
%TO.N,/Microcontroller [DO NOT PLACE]/MCLR*%
X126619000Y-52070000D02*
X127000000Y-52070000D01*
X127000000Y-52070000D02*
X129921000Y-54991000D01*
X129921000Y-62366000D02*
X128596500Y-63690500D01*
X129095500Y-59880500D02*
X129921000Y-59055000D01*
X128732500Y-59880500D02*
X129095500Y-59880500D01*
X129921000Y-59055000D02*
X129921000Y-62366000D01*
X129921000Y-54991000D02*
X129921000Y-59055000D01*
X129032000Y-55880000D02*
X129921000Y-54991000D01*
X128787000Y-55880000D02*
X129032000Y-55880000D01*
%TO.N,/Microcontroller [DO NOT PLACE]/ICSPCLK*%
X123952000Y-79883000D02*
X126111000Y-82042000D01*
X123825000Y-64008000D02*
X117475000Y-57658000D01*
X123825000Y-79756000D02*
X123952000Y-79883000D01*
X123825000Y-64008000D02*
X123825000Y-79756000D01*
%TO.N,/Microcontroller [DO NOT PLACE]/ICSPDAT*%
X117475000Y-56459198D02*
X117475000Y-56388000D01*
X125222000Y-64206198D02*
X117475000Y-56459198D01*
X125222000Y-79502000D02*
X125222000Y-64206198D01*
X126111000Y-80391000D02*
X125222000Y-79502000D01*
%TO.N,/Microcontroller [DO NOT PLACE]/CANL*%
X106807000Y-52181000D02*
X106045000Y-51419000D01*
X106807000Y-58231000D02*
X106807000Y-52181000D01*
%TO.N,/Microcontroller [DO NOT PLACE]/CANH*%
X108077000Y-51451000D02*
X108045000Y-51419000D01*
X108077000Y-58231000D02*
X108077000Y-51451000D01*
%TO.N,Net-(R6-Pad1)*%
X124460000Y-55880000D02*
X124333000Y-56007000D01*
X126737000Y-55880000D02*
X124460000Y-55880000D01*
%TO.N,/Microcontroller [DO NOT PLACE]/CS*%
X101775001Y-82882999D02*
X117602000Y-67056000D01*
X101775001Y-94249499D02*
X101775001Y-82882999D01*
X96012000Y-100012500D02*
X101775001Y-94249499D01*
D20*
%TO.N,/DET_ADC*%
X106553000Y-97814998D02*
X106553000Y-98679000D01*
X108258999Y-96108999D02*
X106553000Y-97814998D01*
X108258999Y-84781001D02*
X108258999Y-96108999D01*
X111125000Y-81915000D02*
X108258999Y-84781001D01*
D19*
%TO.N,/Microcontroller [DO NOT PLACE]/PIC_RX*%
X105537000Y-63181000D02*
X105537000Y-65659000D01*
%TO.N,/Microcontroller [DO NOT PLACE]/PIC_TX*%
X111633000Y-65467000D02*
X111633000Y-67183000D01*
X109347000Y-63181000D02*
X111633000Y-65467000D01*
%TD*%
D21*
%TO.N,GND*%
X103890302Y-48445467D02*
X103703347Y-48494353D01*
X103529522Y-48578773D01*
X103465997Y-48621220D01*
X103415677Y-48788970D01*
X104045000Y-49418293D01*
X104674323Y-48788970D01*
X104624003Y-48621220D01*
X104457239Y-48523591D01*
X104274632Y-48460372D01*
X104105029Y-48437000D01*
X171443051Y-48437000D01*
X172415585Y-48513540D01*
X173357388Y-48739647D01*
X174252239Y-49110307D01*
X175078075Y-49616379D01*
X175814583Y-50245417D01*
X176443620Y-50981925D01*
X176949694Y-51807764D01*
X177320353Y-52702612D01*
X177546460Y-53644420D01*
X177623000Y-54616950D01*
X177623001Y-140963037D01*
X177546460Y-141935580D01*
X177320353Y-142877388D01*
X176949694Y-143772236D01*
X176443620Y-144598075D01*
X175814583Y-145334583D01*
X175078075Y-145963621D01*
X174252239Y-146469693D01*
X173357388Y-146840353D01*
X172598104Y-147022641D01*
X145282900Y-147022641D01*
X144523612Y-146840353D01*
X143628764Y-146469694D01*
X142802925Y-145963620D01*
X142066417Y-145334583D01*
X141437379Y-144598075D01*
X140931307Y-143772239D01*
X140560647Y-142877388D01*
X140334540Y-141935585D01*
X140258000Y-140963051D01*
X140258000Y-140593073D01*
X142604000Y-140593073D01*
X142604000Y-141346927D01*
X142751070Y-142086295D01*
X143039557Y-142782764D01*
X143458375Y-143409570D01*
X143991430Y-143942625D01*
X144618236Y-144361443D01*
X145314705Y-144649930D01*
X146054073Y-144797000D01*
X146807927Y-144797000D01*
X147547295Y-144649930D01*
X148243764Y-144361443D01*
X148870570Y-143942625D01*
X149403625Y-143409570D01*
X149822443Y-142782764D01*
X150110930Y-142086295D01*
X150258000Y-141346927D01*
X150258000Y-140593073D01*
X167623000Y-140593073D01*
X167623000Y-141346927D01*
X167770070Y-142086295D01*
X168058557Y-142782764D01*
X168477375Y-143409570D01*
X169010430Y-143942625D01*
X169637236Y-144361443D01*
X170333705Y-144649930D01*
X171073073Y-144797000D01*
X171826927Y-144797000D01*
X172566295Y-144649930D01*
X173262764Y-144361443D01*
X173889570Y-143942625D01*
X174422625Y-143409570D01*
X174841443Y-142782764D01*
X175129930Y-142086295D01*
X175277000Y-141346927D01*
X175277000Y-140593073D01*
X175129930Y-139853705D01*
X174841443Y-139157236D01*
X174422625Y-138530430D01*
X173889570Y-137997375D01*
X173262764Y-137578557D01*
X172566295Y-137290070D01*
X171826927Y-137143000D01*
X171073073Y-137143000D01*
X170333705Y-137290070D01*
X169637236Y-137578557D01*
X169010430Y-137997375D01*
X168477375Y-138530430D01*
X168058557Y-139157236D01*
X167770070Y-139853705D01*
X167623000Y-140593073D01*
X150258000Y-140593073D01*
X150110930Y-139853705D01*
X149822443Y-139157236D01*
X149403625Y-138530430D01*
X148870570Y-137997375D01*
X148243764Y-137578557D01*
X147547295Y-137290070D01*
X146807927Y-137143000D01*
X146054073Y-137143000D01*
X145314705Y-137290070D01*
X144618236Y-137578557D01*
X143991430Y-137997375D01*
X143458375Y-138530430D01*
X143039557Y-139157236D01*
X142751070Y-139853705D01*
X142604000Y-140593073D01*
X140258000Y-140593073D01*
X140258000Y-125150397D01*
X156499000Y-125150397D01*
X156499000Y-125293603D01*
X156526938Y-125434058D01*
X156581741Y-125566364D01*
X156661302Y-125685436D01*
X156762564Y-125786698D01*
X156881636Y-125866259D01*
X157013942Y-125921062D01*
X157154397Y-125949000D01*
X157297603Y-125949000D01*
X157438058Y-125921062D01*
X157570364Y-125866259D01*
X157689436Y-125786698D01*
X157790698Y-125685436D01*
X157870259Y-125566364D01*
X157925062Y-125434058D01*
X157953000Y-125293603D01*
X157953000Y-125150397D01*
X157925062Y-125009942D01*
X157870259Y-124877636D01*
X157790698Y-124758564D01*
X157689436Y-124657302D01*
X157570364Y-124577741D01*
X157438058Y-124522938D01*
X157297603Y-124495000D01*
X157154397Y-124495000D01*
X157013942Y-124522938D01*
X156881636Y-124577741D01*
X156762564Y-124657302D01*
X156661302Y-124758564D01*
X156581741Y-124877636D01*
X156526938Y-125009942D01*
X156499000Y-125150397D01*
X140258000Y-125150397D01*
X140258000Y-124261397D01*
X166532000Y-124261397D01*
X166532000Y-124404603D01*
X166559938Y-124545058D01*
X166614741Y-124677364D01*
X166694302Y-124796436D01*
X166795564Y-124897698D01*
X166914636Y-124977259D01*
X167046942Y-125032062D01*
X167187397Y-125060000D01*
X167330603Y-125060000D01*
X167471058Y-125032062D01*
X167603364Y-124977259D01*
X167722436Y-124897698D01*
X167823698Y-124796436D01*
X167903259Y-124677364D01*
X167958062Y-124545058D01*
X167986000Y-124404603D01*
X167986000Y-124261397D01*
X167958062Y-124120942D01*
X167903259Y-123988636D01*
X167823698Y-123869564D01*
X167722436Y-123768302D01*
X167603364Y-123688741D01*
X167471058Y-123633938D01*
X167330603Y-123606000D01*
X167187397Y-123606000D01*
X167046942Y-123633938D01*
X166914636Y-123688741D01*
X166795564Y-123768302D01*
X166694302Y-123869564D01*
X166614741Y-123988636D01*
X166559938Y-124120942D01*
X166532000Y-124261397D01*
X140258000Y-124261397D01*
X140258000Y-123202397D01*
X171528000Y-123202397D01*
X171528000Y-123345603D01*
X171555938Y-123486058D01*
X171610741Y-123618364D01*
X171690302Y-123737436D01*
X171791564Y-123838698D01*
X171910636Y-123918259D01*
X172042942Y-123973062D01*
X172183397Y-124001000D01*
X172326603Y-124001000D01*
X172467058Y-123973062D01*
X172599364Y-123918259D01*
X172718436Y-123838698D01*
X172819698Y-123737436D01*
X172899259Y-123618364D01*
X172954062Y-123486058D01*
X172982000Y-123345603D01*
X172982000Y-123202397D01*
X172954062Y-123061942D01*
X172899259Y-122929636D01*
X172819698Y-122810564D01*
X172718436Y-122709302D01*
X172599364Y-122629741D01*
X172467058Y-122574938D01*
X172326603Y-122547000D01*
X172183397Y-122547000D01*
X172042942Y-122574938D01*
X171910636Y-122629741D01*
X171791564Y-122709302D01*
X171690302Y-122810564D01*
X171610741Y-122929636D01*
X171555938Y-123061942D01*
X171528000Y-123202397D01*
X140258000Y-123202397D01*
X140258000Y-122229397D01*
X152308000Y-122229397D01*
X152308000Y-122372603D01*
X152335938Y-122513058D01*
X152390741Y-122645364D01*
X152470302Y-122764436D01*
X152571564Y-122865698D01*
X152690636Y-122945259D01*
X152822942Y-123000062D01*
X152963397Y-123028000D01*
X153106603Y-123028000D01*
X153247058Y-123000062D01*
X153379364Y-122945259D01*
X153498436Y-122865698D01*
X153599698Y-122764436D01*
X153679259Y-122645364D01*
X153734062Y-122513058D01*
X153762000Y-122372603D01*
X153762000Y-122229397D01*
X153734062Y-122088942D01*
X153679259Y-121956636D01*
X153599698Y-121837564D01*
X153498436Y-121736302D01*
X153379364Y-121656741D01*
X153247058Y-121601938D01*
X153106603Y-121574000D01*
X152963397Y-121574000D01*
X152822942Y-121601938D01*
X152690636Y-121656741D01*
X152571564Y-121736302D01*
X152470302Y-121837564D01*
X152390741Y-121956636D01*
X152335938Y-122088942D01*
X152308000Y-122229397D01*
X140258000Y-122229397D01*
X140258000Y-119673000D01*
X143474418Y-119673000D01*
X143474418Y-121373000D01*
X143480732Y-121437103D01*
X143499430Y-121498743D01*
X143529794Y-121555550D01*
X143570657Y-121605343D01*
X143620450Y-121646206D01*
X143677257Y-121676570D01*
X143738897Y-121695268D01*
X143803000Y-121701582D01*
X145503000Y-121701582D01*
X145567103Y-121695268D01*
X145628743Y-121676570D01*
X145685550Y-121646206D01*
X145735343Y-121605343D01*
X145776206Y-121555550D01*
X145806570Y-121498743D01*
X145825268Y-121437103D01*
X145831582Y-121373000D01*
X145831582Y-119673000D01*
X145825268Y-119608897D01*
X145806570Y-119547257D01*
X145776206Y-119490450D01*
X145735343Y-119440657D01*
X145685550Y-119399794D01*
X145628743Y-119369430D01*
X145567103Y-119350732D01*
X145503000Y-119344418D01*
X143803000Y-119344418D01*
X143738897Y-119350732D01*
X143677257Y-119369430D01*
X143620450Y-119399794D01*
X143570657Y-119440657D01*
X143529794Y-119490450D01*
X143499430Y-119547257D01*
X143480732Y-119608897D01*
X143474418Y-119673000D01*
X140258000Y-119673000D01*
X140258000Y-117867076D01*
X143476000Y-117867076D01*
X143476000Y-118098924D01*
X143521231Y-118326318D01*
X143609956Y-118540519D01*
X143738764Y-118733294D01*
X143902706Y-118897236D01*
X144095481Y-119026044D01*
X144309682Y-119114769D01*
X144537076Y-119160000D01*
X144768924Y-119160000D01*
X144996318Y-119114769D01*
X145210519Y-119026044D01*
X145358154Y-118927397D01*
X165262000Y-118927397D01*
X165262000Y-119070603D01*
X165289938Y-119211058D01*
X165344741Y-119343364D01*
X165424302Y-119462436D01*
X165525564Y-119563698D01*
X165644636Y-119643259D01*
X165776942Y-119698062D01*
X165917397Y-119726000D01*
X166060603Y-119726000D01*
X166201058Y-119698062D01*
X166333364Y-119643259D01*
X166452436Y-119563698D01*
X166553698Y-119462436D01*
X166633259Y-119343364D01*
X166688062Y-119211058D01*
X166716000Y-119070603D01*
X166716000Y-118927397D01*
X166688062Y-118786942D01*
X166633259Y-118654636D01*
X166553698Y-118535564D01*
X166452436Y-118434302D01*
X166333364Y-118354741D01*
X166201058Y-118299938D01*
X166060603Y-118272000D01*
X165917397Y-118272000D01*
X165776942Y-118299938D01*
X165644636Y-118354741D01*
X165525564Y-118434302D01*
X165424302Y-118535564D01*
X165344741Y-118654636D01*
X165289938Y-118786942D01*
X165262000Y-118927397D01*
X145358154Y-118927397D01*
X145403294Y-118897236D01*
X145567236Y-118733294D01*
X145696044Y-118540519D01*
X145784769Y-118326318D01*
X145830000Y-118098924D01*
X145830000Y-117867076D01*
X145784769Y-117639682D01*
X145696044Y-117425481D01*
X145567236Y-117232706D01*
X145403294Y-117068764D01*
X145210519Y-116939956D01*
X144996318Y-116851231D01*
X144768924Y-116806000D01*
X144537076Y-116806000D01*
X144309682Y-116851231D01*
X144095481Y-116939956D01*
X143902706Y-117068764D01*
X143738764Y-117232706D01*
X143609956Y-117425481D01*
X143521231Y-117639682D01*
X143476000Y-117867076D01*
X140258000Y-117867076D01*
X140258000Y-110755076D01*
X143476000Y-110755076D01*
X143476000Y-110986924D01*
X143521231Y-111214318D01*
X143609956Y-111428519D01*
X143738764Y-111621294D01*
X143902706Y-111785236D01*
X144095481Y-111914044D01*
X144309682Y-112002769D01*
X144537076Y-112048000D01*
X144768924Y-112048000D01*
X144996318Y-112002769D01*
X145210519Y-111914044D01*
X145403294Y-111785236D01*
X145567236Y-111621294D01*
X145696044Y-111428519D01*
X145784769Y-111214318D01*
X145830000Y-110986924D01*
X145830000Y-110755076D01*
X145784769Y-110527682D01*
X145696044Y-110313481D01*
X145567236Y-110120706D01*
X145403294Y-109956764D01*
X145210519Y-109827956D01*
X144996318Y-109739231D01*
X144768924Y-109694000D01*
X144537076Y-109694000D01*
X144309682Y-109739231D01*
X144095481Y-109827956D01*
X143902706Y-109956764D01*
X143738764Y-110120706D01*
X143609956Y-110313481D01*
X143521231Y-110527682D01*
X143476000Y-110755076D01*
X140258000Y-110755076D01*
X140258000Y-109592308D01*
X140257317Y-109585373D01*
X140225493Y-109181000D01*
X143420157Y-109181000D01*
X143427513Y-109255689D01*
X143449299Y-109327508D01*
X143484678Y-109393696D01*
X143532289Y-109451711D01*
X143590304Y-109499322D01*
X143656492Y-109534701D01*
X143728311Y-109556487D01*
X143803000Y-109563843D01*
X144557250Y-109562000D01*
X144652500Y-109466750D01*
X144652500Y-108331500D01*
X144653500Y-108331500D01*
X144653500Y-109466750D01*
X144748750Y-109562000D01*
X145503000Y-109563843D01*
X145577689Y-109556487D01*
X145649508Y-109534701D01*
X145715696Y-109499322D01*
X145773711Y-109451711D01*
X145821322Y-109393696D01*
X145856701Y-109327508D01*
X145878487Y-109255689D01*
X145885843Y-109181000D01*
X145884000Y-108426750D01*
X145788750Y-108331500D01*
X144653500Y-108331500D01*
X144652500Y-108331500D01*
X143517250Y-108331500D01*
X143422000Y-108426750D01*
X143420157Y-109181000D01*
X140225493Y-109181000D01*
X140179275Y-108593754D01*
X140174931Y-108566321D01*
X140174927Y-108566309D01*
X139942321Y-107597434D01*
X139942319Y-107597422D01*
X139933736Y-107571007D01*
X139896454Y-107481000D01*
X143420157Y-107481000D01*
X143422000Y-108235250D01*
X143517250Y-108330500D01*
X144652500Y-108330500D01*
X144652500Y-107195250D01*
X144653500Y-107195250D01*
X144653500Y-108330500D01*
X145788750Y-108330500D01*
X145884000Y-108235250D01*
X145885843Y-107481000D01*
X145878487Y-107406311D01*
X145856701Y-107334492D01*
X145821322Y-107268304D01*
X145773711Y-107210289D01*
X145715696Y-107162678D01*
X145649508Y-107127299D01*
X145577689Y-107105513D01*
X145503000Y-107098157D01*
X144748750Y-107100000D01*
X144653500Y-107195250D01*
X144652500Y-107195250D01*
X144557250Y-107100000D01*
X143803000Y-107098157D01*
X143728311Y-107105513D01*
X143656492Y-107127299D01*
X143590304Y-107162678D01*
X143532289Y-107210289D01*
X143484678Y-107268304D01*
X143449299Y-107334492D01*
X143427513Y-107406311D01*
X143420157Y-107481000D01*
X139896454Y-107481000D01*
X139552418Y-106650425D01*
X139539808Y-106625678D01*
X139019181Y-105776092D01*
X139019176Y-105776082D01*
X139002850Y-105753612D01*
X138355720Y-104995920D01*
X138336080Y-104976280D01*
X137578395Y-104329156D01*
X137578389Y-104329150D01*
X137555919Y-104312825D01*
X137555918Y-104312824D01*
X137555914Y-104312822D01*
X136706328Y-103792196D01*
X136706323Y-103792192D01*
X136681575Y-103779582D01*
X135760993Y-103398264D01*
X135734578Y-103389681D01*
X135734575Y-103389681D01*
X134765691Y-103157073D01*
X134765679Y-103157069D01*
X134750783Y-103154710D01*
X134738246Y-103152724D01*
X134738234Y-103152724D01*
X133746627Y-103074683D01*
X133739692Y-103074000D01*
X90176950Y-103074000D01*
X89204420Y-102997460D01*
X88262612Y-102771353D01*
X87367764Y-102400694D01*
X86541925Y-101894620D01*
X85805417Y-101265583D01*
X85176379Y-100529075D01*
X84815944Y-99940897D01*
X95285000Y-99940897D01*
X95285000Y-100084103D01*
X95312938Y-100224558D01*
X95367741Y-100356864D01*
X95447302Y-100475936D01*
X95548564Y-100577198D01*
X95667636Y-100656759D01*
X95799942Y-100711562D01*
X95940397Y-100739500D01*
X96083603Y-100739500D01*
X96224058Y-100711562D01*
X96356364Y-100656759D01*
X96475436Y-100577198D01*
X96576698Y-100475936D01*
X96656259Y-100356864D01*
X96711062Y-100224558D01*
X96739000Y-100084103D01*
X96739000Y-100044932D01*
X98220856Y-98563076D01*
X102836000Y-98563076D01*
X102836000Y-98794924D01*
X102881231Y-99022318D01*
X102969956Y-99236519D01*
X103098764Y-99429294D01*
X103262706Y-99593236D01*
X103455481Y-99722044D01*
X103669682Y-99810769D01*
X103897076Y-99856000D01*
X104128924Y-99856000D01*
X104356318Y-99810769D01*
X104570519Y-99722044D01*
X104763294Y-99593236D01*
X104927236Y-99429294D01*
X105056044Y-99236519D01*
X105066502Y-99211270D01*
X105088993Y-99285412D01*
X105235428Y-99559373D01*
X105432498Y-99799503D01*
X105672628Y-99996572D01*
X105946589Y-100143007D01*
X106243855Y-100233182D01*
X106553000Y-100263630D01*
X106862146Y-100233182D01*
X107159412Y-100143007D01*
X107433373Y-99996572D01*
X107673503Y-99799503D01*
X107870572Y-99559373D01*
X108017007Y-99285412D01*
X108039498Y-99211270D01*
X108049956Y-99236519D01*
X108178764Y-99429294D01*
X108342706Y-99593236D01*
X108535481Y-99722044D01*
X108749682Y-99810769D01*
X108977076Y-99856000D01*
X109208924Y-99856000D01*
X109436318Y-99810769D01*
X109650519Y-99722044D01*
X109843294Y-99593236D01*
X109907530Y-99529000D01*
X110400157Y-99529000D01*
X110407513Y-99603689D01*
X110429299Y-99675508D01*
X110464678Y-99741696D01*
X110512289Y-99799711D01*
X110570304Y-99847322D01*
X110636492Y-99882701D01*
X110708311Y-99904487D01*
X110783000Y-99911843D01*
X111537250Y-99910000D01*
X111632500Y-99814750D01*
X111632500Y-98679500D01*
X111633500Y-98679500D01*
X111633500Y-99814750D01*
X111728750Y-99910000D01*
X112483000Y-99911843D01*
X112557689Y-99904487D01*
X112629508Y-99882701D01*
X112695696Y-99847322D01*
X112753711Y-99799711D01*
X112801322Y-99741696D01*
X112836701Y-99675508D01*
X112858487Y-99603689D01*
X112865843Y-99529000D01*
X112865328Y-99318073D01*
X142604000Y-99318073D01*
X142604000Y-100071927D01*
X142751070Y-100811295D01*
X143039557Y-101507764D01*
X143458375Y-102134570D01*
X143991430Y-102667625D01*
X144618236Y-103086443D01*
X145314705Y-103374930D01*
X146054073Y-103522000D01*
X146807927Y-103522000D01*
X147547295Y-103374930D01*
X148243764Y-103086443D01*
X148870570Y-102667625D01*
X149403625Y-102134570D01*
X149822443Y-101507764D01*
X150110930Y-100811295D01*
X150258000Y-100071927D01*
X150258000Y-99318073D01*
X150110930Y-98578705D01*
X149822443Y-97882236D01*
X149403625Y-97255430D01*
X148870570Y-96722375D01*
X148243764Y-96303557D01*
X147547295Y-96015070D01*
X146807927Y-95868000D01*
X146054073Y-95868000D01*
X145314705Y-96015070D01*
X144618236Y-96303557D01*
X143991430Y-96722375D01*
X143458375Y-97255430D01*
X143039557Y-97882236D01*
X142751070Y-98578705D01*
X142604000Y-99318073D01*
X112865328Y-99318073D01*
X112864000Y-98774750D01*
X112768750Y-98679500D01*
X111633500Y-98679500D01*
X111632500Y-98679500D01*
X110497250Y-98679500D01*
X110402000Y-98774750D01*
X110400157Y-99529000D01*
X109907530Y-99529000D01*
X110007236Y-99429294D01*
X110136044Y-99236519D01*
X110224769Y-99022318D01*
X110270000Y-98794924D01*
X110270000Y-98563076D01*
X110224769Y-98335682D01*
X110136044Y-98121481D01*
X110007236Y-97928706D01*
X109907530Y-97829000D01*
X110400157Y-97829000D01*
X110402000Y-98583250D01*
X110497250Y-98678500D01*
X111632500Y-98678500D01*
X111632500Y-97543250D01*
X111633500Y-97543250D01*
X111633500Y-98678500D01*
X112768750Y-98678500D01*
X112864000Y-98583250D01*
X112865843Y-97829000D01*
X112858487Y-97754311D01*
X112836701Y-97682492D01*
X112801322Y-97616304D01*
X112753711Y-97558289D01*
X112695696Y-97510678D01*
X112629508Y-97475299D01*
X112557689Y-97453513D01*
X112483000Y-97446157D01*
X111728750Y-97448000D01*
X111633500Y-97543250D01*
X111632500Y-97543250D01*
X111537250Y-97448000D01*
X110783000Y-97446157D01*
X110708311Y-97453513D01*
X110636492Y-97475299D01*
X110570304Y-97510678D01*
X110512289Y-97558289D01*
X110464678Y-97616304D01*
X110429299Y-97682492D01*
X110407513Y-97754311D01*
X110400157Y-97829000D01*
X109907530Y-97829000D01*
X109843294Y-97764764D01*
X109650519Y-97635956D01*
X109436318Y-97547231D01*
X109208924Y-97502000D01*
X109096213Y-97502000D01*
X109319326Y-97278887D01*
X109379502Y-97229502D01*
X109576571Y-96989372D01*
X109723006Y-96715411D01*
X109813181Y-96418145D01*
X109835999Y-96186468D01*
X109835999Y-96186466D01*
X109843629Y-96108999D01*
X109835999Y-96031532D01*
X109835999Y-87939397D01*
X112557000Y-87939397D01*
X112557000Y-88082603D01*
X112584938Y-88223058D01*
X112639741Y-88355364D01*
X112719302Y-88474436D01*
X112820564Y-88575698D01*
X112939636Y-88655259D01*
X113071942Y-88710062D01*
X113212397Y-88738000D01*
X113355603Y-88738000D01*
X113496058Y-88710062D01*
X113628364Y-88655259D01*
X113747436Y-88575698D01*
X113848698Y-88474436D01*
X113928259Y-88355364D01*
X113983062Y-88223058D01*
X114011000Y-88082603D01*
X114011000Y-87939397D01*
X113983062Y-87798942D01*
X113928259Y-87666636D01*
X113848698Y-87547564D01*
X113747436Y-87446302D01*
X113628364Y-87366741D01*
X113496058Y-87311938D01*
X113355603Y-87284000D01*
X113212397Y-87284000D01*
X113071942Y-87311938D01*
X112939636Y-87366741D01*
X112820564Y-87446302D01*
X112719302Y-87547564D01*
X112639741Y-87666636D01*
X112584938Y-87798942D01*
X112557000Y-87939397D01*
X109835999Y-87939397D01*
X109835999Y-85434215D01*
X110649214Y-84621000D01*
X111978418Y-84621000D01*
X111978418Y-86321000D01*
X111984732Y-86385103D01*
X112003430Y-86446743D01*
X112033794Y-86503550D01*
X112074657Y-86553343D01*
X112124450Y-86594206D01*
X112181257Y-86624570D01*
X112242897Y-86643268D01*
X112307000Y-86649582D01*
X114007000Y-86649582D01*
X114071103Y-86643268D01*
X114132743Y-86624570D01*
X114189550Y-86594206D01*
X114239343Y-86553343D01*
X114280206Y-86503550D01*
X114310570Y-86446743D01*
X114329268Y-86385103D01*
X114335582Y-86321000D01*
X114335582Y-85272397D01*
X116748000Y-85272397D01*
X116748000Y-85415603D01*
X116775938Y-85556058D01*
X116830741Y-85688364D01*
X116910302Y-85807436D01*
X117011564Y-85908698D01*
X117130636Y-85988259D01*
X117262942Y-86043062D01*
X117403397Y-86071000D01*
X117546603Y-86071000D01*
X117687058Y-86043062D01*
X117819364Y-85988259D01*
X117938436Y-85908698D01*
X118039698Y-85807436D01*
X118119259Y-85688364D01*
X118174062Y-85556058D01*
X118202000Y-85415603D01*
X118202000Y-85272397D01*
X120812000Y-85272397D01*
X120812000Y-85415603D01*
X120839938Y-85556058D01*
X120894741Y-85688364D01*
X120974302Y-85807436D01*
X121075564Y-85908698D01*
X121194636Y-85988259D01*
X121326942Y-86043062D01*
X121467397Y-86071000D01*
X121610603Y-86071000D01*
X121751058Y-86043062D01*
X121883364Y-85988259D01*
X122002436Y-85908698D01*
X122103698Y-85807436D01*
X122183259Y-85688364D01*
X122238062Y-85556058D01*
X122266000Y-85415603D01*
X122266000Y-85272397D01*
X122238062Y-85131942D01*
X122183259Y-84999636D01*
X122103698Y-84880564D01*
X122002436Y-84779302D01*
X121883364Y-84699741D01*
X121751058Y-84644938D01*
X121610603Y-84617000D01*
X121467397Y-84617000D01*
X121326942Y-84644938D01*
X121194636Y-84699741D01*
X121075564Y-84779302D01*
X120974302Y-84880564D01*
X120894741Y-84999636D01*
X120839938Y-85131942D01*
X120812000Y-85272397D01*
X118202000Y-85272397D01*
X118174062Y-85131942D01*
X118119259Y-84999636D01*
X118039698Y-84880564D01*
X117938436Y-84779302D01*
X117819364Y-84699741D01*
X117687058Y-84644938D01*
X117546603Y-84617000D01*
X117403397Y-84617000D01*
X117262942Y-84644938D01*
X117130636Y-84699741D01*
X117011564Y-84779302D01*
X116910302Y-84880564D01*
X116830741Y-84999636D01*
X116775938Y-85131942D01*
X116748000Y-85272397D01*
X114335582Y-85272397D01*
X114335582Y-84621000D01*
X114329268Y-84556897D01*
X114310570Y-84495257D01*
X114280206Y-84438450D01*
X114239343Y-84388657D01*
X114189550Y-84347794D01*
X114132743Y-84317430D01*
X114071103Y-84298732D01*
X114007000Y-84292418D01*
X112307000Y-84292418D01*
X112242897Y-84298732D01*
X112181257Y-84317430D01*
X112124450Y-84347794D01*
X112074657Y-84388657D01*
X112033794Y-84438450D01*
X112003430Y-84495257D01*
X111984732Y-84556897D01*
X111978418Y-84621000D01*
X110649214Y-84621000D01*
X111267817Y-84002397D01*
X141132000Y-84002397D01*
X141132000Y-84145603D01*
X141159938Y-84286058D01*
X141214741Y-84418364D01*
X141294302Y-84537436D01*
X141395564Y-84638698D01*
X141514636Y-84718259D01*
X141646942Y-84773062D01*
X141787397Y-84801000D01*
X141930603Y-84801000D01*
X142071058Y-84773062D01*
X142203364Y-84718259D01*
X142322436Y-84638698D01*
X142423698Y-84537436D01*
X142503259Y-84418364D01*
X142558062Y-84286058D01*
X142586000Y-84145603D01*
X142586000Y-84002397D01*
X142558062Y-83861942D01*
X142503259Y-83729636D01*
X142423698Y-83610564D01*
X142322436Y-83509302D01*
X142203364Y-83429741D01*
X142071058Y-83374938D01*
X141930603Y-83347000D01*
X141787397Y-83347000D01*
X141646942Y-83374938D01*
X141514636Y-83429741D01*
X141395564Y-83509302D01*
X141294302Y-83610564D01*
X141214741Y-83729636D01*
X141159938Y-83861942D01*
X141132000Y-84002397D01*
X111267817Y-84002397D01*
X112294885Y-82975329D01*
X112442571Y-82795374D01*
X112589006Y-82521412D01*
X112640579Y-82351397D01*
X116494000Y-82351397D01*
X116494000Y-82494603D01*
X116521938Y-82635058D01*
X116576741Y-82767364D01*
X116656302Y-82886436D01*
X116757564Y-82987698D01*
X116876636Y-83067259D01*
X117008942Y-83122062D01*
X117149397Y-83150000D01*
X117292603Y-83150000D01*
X117433058Y-83122062D01*
X117565364Y-83067259D01*
X117684436Y-82987698D01*
X117785698Y-82886436D01*
X117865259Y-82767364D01*
X117920062Y-82635058D01*
X117948000Y-82494603D01*
X117948000Y-82351397D01*
X117920062Y-82210942D01*
X117865259Y-82078636D01*
X117785698Y-81959564D01*
X117684436Y-81858302D01*
X117565364Y-81778741D01*
X117433058Y-81723938D01*
X117292603Y-81696000D01*
X117149397Y-81696000D01*
X117008942Y-81723938D01*
X116876636Y-81778741D01*
X116757564Y-81858302D01*
X116656302Y-81959564D01*
X116576741Y-82078636D01*
X116521938Y-82210942D01*
X116494000Y-82351397D01*
X112640579Y-82351397D01*
X112679181Y-82224147D01*
X112709630Y-81915001D01*
X112679181Y-81605854D01*
X112589006Y-81308590D01*
X112442571Y-81034627D01*
X112245502Y-80794498D01*
X112005373Y-80597429D01*
X111731410Y-80450994D01*
X111434146Y-80360819D01*
X111124999Y-80330370D01*
X110815853Y-80360819D01*
X110518588Y-80450994D01*
X110244626Y-80597429D01*
X110064671Y-80745115D01*
X107198678Y-83611108D01*
X107138496Y-83660498D01*
X106941427Y-83900629D01*
X106794992Y-84174590D01*
X106704817Y-84471856D01*
X106681999Y-84703532D01*
X106674369Y-84781001D01*
X106681999Y-84858468D01*
X106681999Y-85058456D01*
X106641000Y-85054418D01*
X104941000Y-85054418D01*
X104876897Y-85060732D01*
X104815257Y-85079430D01*
X104758450Y-85109794D01*
X104708657Y-85150657D01*
X104667794Y-85200450D01*
X104637430Y-85257257D01*
X104618732Y-85318897D01*
X104612418Y-85383000D01*
X104612418Y-87083000D01*
X104618732Y-87147103D01*
X104637430Y-87208743D01*
X104667794Y-87265550D01*
X104708657Y-87315343D01*
X104758450Y-87356206D01*
X104815257Y-87386570D01*
X104876897Y-87405268D01*
X104941000Y-87411582D01*
X106641000Y-87411582D01*
X106681999Y-87407544D01*
X106682000Y-95455783D01*
X105492678Y-96645106D01*
X105432497Y-96694495D01*
X105235428Y-96934626D01*
X105088993Y-97208587D01*
X104998818Y-97505853D01*
X104983323Y-97663181D01*
X104968370Y-97814998D01*
X104976000Y-97892465D01*
X104976000Y-98001687D01*
X104927236Y-97928706D01*
X104763294Y-97764764D01*
X104570519Y-97635956D01*
X104356318Y-97547231D01*
X104128924Y-97502000D01*
X103897076Y-97502000D01*
X103669682Y-97547231D01*
X103455481Y-97635956D01*
X103262706Y-97764764D01*
X103098764Y-97928706D01*
X102969956Y-98121481D01*
X102881231Y-98335682D01*
X102836000Y-98563076D01*
X98220856Y-98563076D01*
X102136070Y-94647863D01*
X102156554Y-94631052D01*
X102173365Y-94610568D01*
X102173369Y-94610564D01*
X102223660Y-94549285D01*
X102273524Y-94455995D01*
X102273525Y-94455994D01*
X102304231Y-94354769D01*
X102312001Y-94275877D01*
X102312001Y-94275868D01*
X102314598Y-94249500D01*
X102312001Y-94223132D01*
X102312001Y-83105431D01*
X117634433Y-67783000D01*
X117673603Y-67783000D01*
X117814058Y-67755062D01*
X117946364Y-67700259D01*
X118065436Y-67620698D01*
X118166698Y-67519436D01*
X118246259Y-67400364D01*
X118301062Y-67268058D01*
X118329000Y-67127603D01*
X118329000Y-66984397D01*
X118301062Y-66843942D01*
X118246259Y-66711636D01*
X118166698Y-66592564D01*
X118065436Y-66491302D01*
X117946364Y-66411741D01*
X117814058Y-66356938D01*
X117673603Y-66329000D01*
X117530397Y-66329000D01*
X117389942Y-66356938D01*
X117257636Y-66411741D01*
X117138564Y-66491302D01*
X117037302Y-66592564D01*
X116957741Y-66711636D01*
X116902938Y-66843942D01*
X116875000Y-66984397D01*
X116875000Y-67023567D01*
X101413933Y-82484635D01*
X101393449Y-82501446D01*
X101376638Y-82521930D01*
X101376633Y-82521935D01*
X101326342Y-82583215D01*
X101276478Y-82676504D01*
X101245772Y-82777730D01*
X101235404Y-82882999D01*
X101238002Y-82909377D01*
X101238002Y-85559182D01*
X101177058Y-85533938D01*
X101036603Y-85506000D01*
X100893397Y-85506000D01*
X100752942Y-85533938D01*
X100620636Y-85588741D01*
X100501564Y-85668302D01*
X100400302Y-85769564D01*
X100320741Y-85888636D01*
X100265938Y-86020942D01*
X100238000Y-86161397D01*
X100238000Y-86304603D01*
X100265938Y-86445058D01*
X100320741Y-86577364D01*
X100400302Y-86696436D01*
X100501564Y-86797698D01*
X100620636Y-86877259D01*
X100752942Y-86932062D01*
X100893397Y-86960000D01*
X101036603Y-86960000D01*
X101177058Y-86932062D01*
X101238002Y-86906818D01*
X101238001Y-94027066D01*
X95979568Y-99285500D01*
X95940397Y-99285500D01*
X95799942Y-99313438D01*
X95667636Y-99368241D01*
X95548564Y-99447802D01*
X95447302Y-99549064D01*
X95367741Y-99668136D01*
X95312938Y-99800442D01*
X95285000Y-99940897D01*
X84815944Y-99940897D01*
X84670307Y-99703239D01*
X84299647Y-98808388D01*
X84073540Y-97866585D01*
X84010500Y-97065585D01*
X84010500Y-95432397D01*
X84871000Y-95432397D01*
X84871000Y-95575603D01*
X84898938Y-95716058D01*
X84953741Y-95848364D01*
X85033302Y-95967436D01*
X85134564Y-96068698D01*
X85253636Y-96148259D01*
X85385942Y-96203062D01*
X85526397Y-96231000D01*
X85669603Y-96231000D01*
X85810058Y-96203062D01*
X85942364Y-96148259D01*
X86061436Y-96068698D01*
X86162698Y-95967436D01*
X86242259Y-95848364D01*
X86297062Y-95716058D01*
X86325000Y-95575603D01*
X86325000Y-95432397D01*
X86297062Y-95291942D01*
X86242259Y-95159636D01*
X86162698Y-95040564D01*
X86061436Y-94939302D01*
X85942364Y-94859741D01*
X85810058Y-94804938D01*
X85669603Y-94777000D01*
X85526397Y-94777000D01*
X85385942Y-94804938D01*
X85253636Y-94859741D01*
X85134564Y-94939302D01*
X85033302Y-95040564D01*
X84953741Y-95159636D01*
X84898938Y-95291942D01*
X84871000Y-95432397D01*
X84010500Y-95432397D01*
X84010500Y-73334397D01*
X91856000Y-73334397D01*
X91856000Y-73477603D01*
X91883938Y-73618058D01*
X91938741Y-73750364D01*
X92018302Y-73869436D01*
X92119564Y-73970698D01*
X92238636Y-74050259D01*
X92370942Y-74105062D01*
X92511397Y-74133000D01*
X92654603Y-74133000D01*
X92795058Y-74105062D01*
X92927364Y-74050259D01*
X93046436Y-73970698D01*
X93147698Y-73869436D01*
X93227259Y-73750364D01*
X93282062Y-73618058D01*
X93310000Y-73477603D01*
X93310000Y-73334397D01*
X93282062Y-73193942D01*
X93227259Y-73061636D01*
X93147698Y-72942564D01*
X93046436Y-72841302D01*
X92927364Y-72761741D01*
X92795058Y-72706938D01*
X92654603Y-72679000D01*
X92511397Y-72679000D01*
X92370942Y-72706938D01*
X92238636Y-72761741D01*
X92119564Y-72841302D01*
X92018302Y-72942564D01*
X91938741Y-73061636D01*
X91883938Y-73193942D01*
X91856000Y-73334397D01*
X84010500Y-73334397D01*
X84010500Y-70159397D01*
X95920000Y-70159397D01*
X95920000Y-70302603D01*
X95947938Y-70443058D01*
X96002741Y-70575364D01*
X96082302Y-70694436D01*
X96183564Y-70795698D01*
X96302636Y-70875259D01*
X96434942Y-70930062D01*
X96575397Y-70958000D01*
X96718603Y-70958000D01*
X96859058Y-70930062D01*
X96991364Y-70875259D01*
X97110436Y-70795698D01*
X97211698Y-70694436D01*
X97291259Y-70575364D01*
X97346062Y-70443058D01*
X97374000Y-70302603D01*
X97374000Y-70159397D01*
X97346062Y-70018942D01*
X97291259Y-69886636D01*
X97211698Y-69767564D01*
X97110436Y-69666302D01*
X96991364Y-69586741D01*
X96859058Y-69531938D01*
X96718603Y-69504000D01*
X96575397Y-69504000D01*
X96434942Y-69531938D01*
X96302636Y-69586741D01*
X96183564Y-69666302D01*
X96082302Y-69767564D01*
X96002741Y-69886636D01*
X95947938Y-70018942D01*
X95920000Y-70159397D01*
X84010500Y-70159397D01*
X84010500Y-67894200D01*
X103893199Y-67894200D01*
X103909166Y-68056320D01*
X103956455Y-68212210D01*
X104033248Y-68355879D01*
X104136594Y-68481806D01*
X104262521Y-68585152D01*
X104406190Y-68661945D01*
X104562080Y-68709234D01*
X104683576Y-68721200D01*
X105554920Y-68721200D01*
X105581280Y-68753320D01*
X105668957Y-68825274D01*
X105768986Y-68878740D01*
X105877523Y-68911665D01*
X105990399Y-68922782D01*
X106640401Y-68922782D01*
X106753277Y-68911665D01*
X106861814Y-68878740D01*
X106961843Y-68825274D01*
X107049520Y-68753320D01*
X107121474Y-68665643D01*
X107159660Y-68594200D01*
X107407557Y-68594200D01*
X107414913Y-68668889D01*
X107436699Y-68740708D01*
X107472078Y-68806896D01*
X107519689Y-68864911D01*
X107577704Y-68912522D01*
X107643892Y-68947901D01*
X107715711Y-68969687D01*
X107790400Y-68977043D01*
X108269650Y-68975200D01*
X108364900Y-68879950D01*
X108364900Y-67894700D01*
X108365900Y-67894700D01*
X108365900Y-68879950D01*
X108461150Y-68975200D01*
X108940400Y-68977043D01*
X109015089Y-68969687D01*
X109086908Y-68947901D01*
X109153096Y-68912522D01*
X109211111Y-68864911D01*
X109258722Y-68806896D01*
X109294101Y-68740708D01*
X109315887Y-68668889D01*
X109323243Y-68594200D01*
X109321400Y-67989950D01*
X109226150Y-67894700D01*
X108365900Y-67894700D01*
X108364900Y-67894700D01*
X107504650Y-67894700D01*
X107409400Y-67989950D01*
X107407557Y-68594200D01*
X107159660Y-68594200D01*
X107174940Y-68565614D01*
X107207865Y-68457077D01*
X107218982Y-68344201D01*
X107218982Y-67747076D01*
X107255658Y-67702386D01*
X107256795Y-67700259D01*
X107305524Y-67609095D01*
X107336230Y-67507870D01*
X107344000Y-67428978D01*
X107344000Y-67428969D01*
X107346597Y-67402601D01*
X107344000Y-67376233D01*
X107344000Y-67194200D01*
X107407557Y-67194200D01*
X107409400Y-67798450D01*
X107504650Y-67893700D01*
X108364900Y-67893700D01*
X108364900Y-66908450D01*
X108365900Y-66908450D01*
X108365900Y-67893700D01*
X109226150Y-67893700D01*
X109321400Y-67798450D01*
X109323243Y-67194200D01*
X109315887Y-67119511D01*
X109294101Y-67047692D01*
X109258722Y-66981504D01*
X109211111Y-66923489D01*
X109153096Y-66875878D01*
X109086908Y-66840499D01*
X109015089Y-66818713D01*
X108940400Y-66811357D01*
X108461150Y-66813200D01*
X108365900Y-66908450D01*
X108364900Y-66908450D01*
X108269650Y-66813200D01*
X107790400Y-66811357D01*
X107715711Y-66818713D01*
X107643892Y-66840499D01*
X107577704Y-66875878D01*
X107519689Y-66923489D01*
X107472078Y-66981504D01*
X107436699Y-67047692D01*
X107414913Y-67119511D01*
X107407557Y-67194200D01*
X107344000Y-67194200D01*
X107344000Y-64285200D01*
X107354926Y-64271886D01*
X107397691Y-64191879D01*
X107401513Y-64230689D01*
X107423299Y-64302508D01*
X107458678Y-64368696D01*
X107506289Y-64426711D01*
X107564304Y-64474322D01*
X107630492Y-64509701D01*
X107702311Y-64531487D01*
X107777000Y-64538843D01*
X107981250Y-64537000D01*
X108076500Y-64441750D01*
X108076500Y-63181500D01*
X108056500Y-63181500D01*
X108056500Y-63180500D01*
X108076500Y-63180500D01*
X108076500Y-61920250D01*
X108077500Y-61920250D01*
X108077500Y-63180500D01*
X108097500Y-63180500D01*
X108097500Y-63181500D01*
X108077500Y-63181500D01*
X108077500Y-64441750D01*
X108172750Y-64537000D01*
X108377000Y-64538843D01*
X108451689Y-64531487D01*
X108523508Y-64509701D01*
X108589696Y-64474322D01*
X108647711Y-64426711D01*
X108695322Y-64368696D01*
X108730701Y-64302508D01*
X108752487Y-64230689D01*
X108756309Y-64191879D01*
X108799074Y-64271886D01*
X108858591Y-64344409D01*
X108931114Y-64403926D01*
X109013855Y-64448152D01*
X109103633Y-64475386D01*
X109197000Y-64484582D01*
X109497000Y-64484582D01*
X109590367Y-64475386D01*
X109680145Y-64448152D01*
X109762886Y-64403926D01*
X109789035Y-64382467D01*
X111096000Y-65689433D01*
X111096001Y-66691865D01*
X111068302Y-66719564D01*
X110988741Y-66838636D01*
X110933938Y-66970942D01*
X110906000Y-67111397D01*
X110906000Y-67254603D01*
X110933938Y-67395058D01*
X110988741Y-67527364D01*
X111068302Y-67646436D01*
X111169564Y-67747698D01*
X111288636Y-67827259D01*
X111420942Y-67882062D01*
X111561397Y-67910000D01*
X111704603Y-67910000D01*
X111845058Y-67882062D01*
X111977364Y-67827259D01*
X112096436Y-67747698D01*
X112197698Y-67646436D01*
X112277259Y-67527364D01*
X112332062Y-67395058D01*
X112360000Y-67254603D01*
X112360000Y-67111397D01*
X112332062Y-66970942D01*
X112277259Y-66838636D01*
X112197698Y-66719564D01*
X112170000Y-66691866D01*
X112170000Y-65493367D01*
X112172597Y-65466999D01*
X112170000Y-65440631D01*
X112170000Y-65440622D01*
X112162230Y-65361730D01*
X112131524Y-65260505D01*
X112096812Y-65195564D01*
X112081659Y-65167214D01*
X112031368Y-65105935D01*
X112031364Y-65105931D01*
X112014553Y-65085447D01*
X111994069Y-65068636D01*
X110192358Y-63266925D01*
X113169000Y-63266925D01*
X113169000Y-63479075D01*
X113210389Y-63687149D01*
X113291575Y-63883151D01*
X113409440Y-64059547D01*
X113559453Y-64209560D01*
X113735849Y-64327425D01*
X113931851Y-64408611D01*
X114139925Y-64450000D01*
X114352075Y-64450000D01*
X114560149Y-64408611D01*
X114756151Y-64327425D01*
X114932547Y-64209560D01*
X115082560Y-64059547D01*
X115200425Y-63883151D01*
X115281611Y-63687149D01*
X115323000Y-63479075D01*
X115323000Y-63266925D01*
X118049000Y-63266925D01*
X118049000Y-63479075D01*
X118090389Y-63687149D01*
X118171575Y-63883151D01*
X118289440Y-64059547D01*
X118439453Y-64209560D01*
X118615849Y-64327425D01*
X118811851Y-64408611D01*
X119019925Y-64450000D01*
X119232075Y-64450000D01*
X119440149Y-64408611D01*
X119636151Y-64327425D01*
X119812547Y-64209560D01*
X119962560Y-64059547D01*
X120080425Y-63883151D01*
X120161611Y-63687149D01*
X120203000Y-63479075D01*
X120203000Y-63266925D01*
X120161611Y-63058851D01*
X120080425Y-62862849D01*
X119962560Y-62686453D01*
X119812547Y-62536440D01*
X119636151Y-62418575D01*
X119440149Y-62337389D01*
X119232075Y-62296000D01*
X119019925Y-62296000D01*
X118811851Y-62337389D01*
X118615849Y-62418575D01*
X118439453Y-62536440D01*
X118289440Y-62686453D01*
X118171575Y-62862849D01*
X118090389Y-63058851D01*
X118049000Y-63266925D01*
X115323000Y-63266925D01*
X115281611Y-63058851D01*
X115200425Y-62862849D01*
X115082560Y-62686453D01*
X114932547Y-62536440D01*
X114756151Y-62418575D01*
X114560149Y-62337389D01*
X114352075Y-62296000D01*
X114139925Y-62296000D01*
X113931851Y-62337389D01*
X113735849Y-62418575D01*
X113559453Y-62536440D01*
X113409440Y-62686453D01*
X113291575Y-62862849D01*
X113210389Y-63058851D01*
X113169000Y-63266925D01*
X110192358Y-63266925D01*
X109975582Y-63050150D01*
X109975582Y-62356000D01*
X109966386Y-62262633D01*
X109939152Y-62172855D01*
X109894926Y-62090114D01*
X109835409Y-62017591D01*
X109762886Y-61958074D01*
X109680145Y-61913848D01*
X109590367Y-61886614D01*
X109497000Y-61877418D01*
X109197000Y-61877418D01*
X109103633Y-61886614D01*
X109013855Y-61913848D01*
X108931114Y-61958074D01*
X108858591Y-62017591D01*
X108799074Y-62090114D01*
X108756309Y-62170121D01*
X108752487Y-62131311D01*
X108730701Y-62059492D01*
X108695322Y-61993304D01*
X108647711Y-61935289D01*
X108589696Y-61887678D01*
X108523508Y-61852299D01*
X108451689Y-61830513D01*
X108377000Y-61823157D01*
X108172750Y-61825000D01*
X108077500Y-61920250D01*
X108076500Y-61920250D01*
X107981250Y-61825000D01*
X107777000Y-61823157D01*
X107702311Y-61830513D01*
X107630492Y-61852299D01*
X107564304Y-61887678D01*
X107506289Y-61935289D01*
X107458678Y-61993304D01*
X107423299Y-62059492D01*
X107401513Y-62131311D01*
X107397691Y-62170121D01*
X107354926Y-62090114D01*
X107295409Y-62017591D01*
X107222886Y-61958074D01*
X107140145Y-61913848D01*
X107050367Y-61886614D01*
X106957000Y-61877418D01*
X106657000Y-61877418D01*
X106563633Y-61886614D01*
X106473855Y-61913848D01*
X106391114Y-61958074D01*
X106318591Y-62017591D01*
X106259074Y-62090114D01*
X106214848Y-62172855D01*
X106187614Y-62262633D01*
X106178418Y-62356000D01*
X106178418Y-64006000D01*
X106187614Y-64099367D01*
X106214848Y-64189145D01*
X106259074Y-64271886D01*
X106270000Y-64285200D01*
X106270001Y-66865618D01*
X105990399Y-66865618D01*
X105877523Y-66876735D01*
X105768986Y-66909660D01*
X105668957Y-66963126D01*
X105581280Y-67035080D01*
X105554920Y-67067200D01*
X104683576Y-67067200D01*
X104562080Y-67079166D01*
X104406190Y-67126455D01*
X104262521Y-67203248D01*
X104136594Y-67306594D01*
X104033248Y-67432521D01*
X103956455Y-67576190D01*
X103909166Y-67732080D01*
X103893199Y-67894200D01*
X84010500Y-67894200D01*
X84010500Y-65587397D01*
X104810000Y-65587397D01*
X104810000Y-65730603D01*
X104837938Y-65871058D01*
X104892741Y-66003364D01*
X104972302Y-66122436D01*
X105073564Y-66223698D01*
X105192636Y-66303259D01*
X105324942Y-66358062D01*
X105465397Y-66386000D01*
X105608603Y-66386000D01*
X105749058Y-66358062D01*
X105881364Y-66303259D01*
X106000436Y-66223698D01*
X106101698Y-66122436D01*
X106181259Y-66003364D01*
X106236062Y-65871058D01*
X106264000Y-65730603D01*
X106264000Y-65587397D01*
X106236062Y-65446942D01*
X106181259Y-65314636D01*
X106101698Y-65195564D01*
X106074000Y-65167866D01*
X106074000Y-64285200D01*
X106084926Y-64271886D01*
X106129152Y-64189145D01*
X106156386Y-64099367D01*
X106165582Y-64006000D01*
X106165582Y-62356000D01*
X106156386Y-62262633D01*
X106129152Y-62172855D01*
X106084926Y-62090114D01*
X106025409Y-62017591D01*
X105952886Y-61958074D01*
X105870145Y-61913848D01*
X105780367Y-61886614D01*
X105687000Y-61877418D01*
X105387000Y-61877418D01*
X105293633Y-61886614D01*
X105203855Y-61913848D01*
X105121114Y-61958074D01*
X105048591Y-62017591D01*
X104989074Y-62090114D01*
X104944848Y-62172855D01*
X104917614Y-62262633D01*
X104908418Y-62356000D01*
X104908418Y-64006000D01*
X104917614Y-64099367D01*
X104944848Y-64189145D01*
X104989074Y-64271886D01*
X105000000Y-64285200D01*
X105000001Y-65167865D01*
X104972302Y-65195564D01*
X104892741Y-65314636D01*
X104837938Y-65446942D01*
X104810000Y-65587397D01*
X84010500Y-65587397D01*
X84010500Y-63682397D01*
X95158000Y-63682397D01*
X95158000Y-63825603D01*
X95185938Y-63966058D01*
X95240741Y-64098364D01*
X95320302Y-64217436D01*
X95421564Y-64318698D01*
X95540636Y-64398259D01*
X95672942Y-64453062D01*
X95813397Y-64481000D01*
X95956603Y-64481000D01*
X96097058Y-64453062D01*
X96229364Y-64398259D01*
X96348436Y-64318698D01*
X96449698Y-64217436D01*
X96529259Y-64098364D01*
X96584062Y-63966058D01*
X96612000Y-63825603D01*
X96612000Y-63682397D01*
X96584062Y-63541942D01*
X96529259Y-63409636D01*
X96449698Y-63290564D01*
X96348436Y-63189302D01*
X96229364Y-63109741D01*
X96097058Y-63054938D01*
X95956603Y-63027000D01*
X95813397Y-63027000D01*
X95672942Y-63054938D01*
X95540636Y-63109741D01*
X95421564Y-63189302D01*
X95320302Y-63290564D01*
X95240741Y-63409636D01*
X95185938Y-63541942D01*
X95158000Y-63682397D01*
X84010500Y-63682397D01*
X84010500Y-60071000D01*
X101657999Y-60071000D01*
X101673966Y-60233120D01*
X101721255Y-60389010D01*
X101798048Y-60532679D01*
X101901394Y-60658606D01*
X102027321Y-60761952D01*
X102170990Y-60838745D01*
X102326880Y-60886034D01*
X102448376Y-60898000D01*
X102448386Y-60898000D01*
X102489000Y-60902000D01*
X102529614Y-60898000D01*
X102529624Y-60898000D01*
X102651120Y-60886034D01*
X102807010Y-60838745D01*
X102950679Y-60761952D01*
X103076606Y-60658606D01*
X103102505Y-60627048D01*
X104061053Y-59668501D01*
X104092606Y-59642606D01*
X104118502Y-59611052D01*
X104195952Y-59516680D01*
X104248325Y-59418696D01*
X104272745Y-59373010D01*
X104320034Y-59217120D01*
X104332000Y-59095624D01*
X104332000Y-59095614D01*
X104336000Y-59055000D01*
X104332000Y-59014386D01*
X104332000Y-58817480D01*
X104364120Y-58791120D01*
X104436074Y-58703443D01*
X104489540Y-58603414D01*
X104492396Y-58594000D01*
X104908418Y-58594000D01*
X104908418Y-59056000D01*
X104917614Y-59149367D01*
X104944848Y-59239145D01*
X104989074Y-59321886D01*
X105048591Y-59394409D01*
X105121114Y-59453926D01*
X105203855Y-59498152D01*
X105293633Y-59525386D01*
X105387000Y-59534582D01*
X105687000Y-59534582D01*
X105780367Y-59525386D01*
X105870145Y-59498152D01*
X105952886Y-59453926D01*
X106025409Y-59394409D01*
X106084926Y-59321886D01*
X106129152Y-59239145D01*
X106156386Y-59149367D01*
X106165582Y-59056000D01*
X106165582Y-57406000D01*
X106156386Y-57312633D01*
X106129152Y-57222855D01*
X106084926Y-57140114D01*
X106025409Y-57067591D01*
X105952886Y-57008074D01*
X105870145Y-56963848D01*
X105780367Y-56936614D01*
X105687000Y-56927418D01*
X105387000Y-56927418D01*
X105293633Y-56936614D01*
X105203855Y-56963848D01*
X105121114Y-57008074D01*
X105048591Y-57067591D01*
X104989074Y-57140114D01*
X104944848Y-57222855D01*
X104917614Y-57312633D01*
X104908418Y-57406000D01*
X104908418Y-57520000D01*
X104492396Y-57520000D01*
X104489540Y-57510586D01*
X104436074Y-57410557D01*
X104364120Y-57322880D01*
X104276443Y-57250926D01*
X104176414Y-57197460D01*
X104067877Y-57164535D01*
X103955001Y-57153418D01*
X103054999Y-57153418D01*
X102942123Y-57164535D01*
X102833586Y-57197460D01*
X102733557Y-57250926D01*
X102645880Y-57322880D01*
X102573926Y-57410557D01*
X102520460Y-57510586D01*
X102487535Y-57619123D01*
X102476418Y-57731999D01*
X102476418Y-58382001D01*
X102487535Y-58494877D01*
X102520460Y-58603414D01*
X102573926Y-58703443D01*
X102624896Y-58765550D01*
X101932952Y-59457495D01*
X101901394Y-59483394D01*
X101798048Y-59609321D01*
X101721255Y-59752990D01*
X101673966Y-59908880D01*
X101657999Y-60071000D01*
X84010500Y-60071000D01*
X84010500Y-54445415D01*
X84027211Y-54233073D01*
X86343000Y-54233073D01*
X86343000Y-54986927D01*
X86490070Y-55726295D01*
X86778557Y-56422764D01*
X87197375Y-57049570D01*
X87730430Y-57582625D01*
X88357236Y-58001443D01*
X89053705Y-58289930D01*
X89793073Y-58437000D01*
X90546927Y-58437000D01*
X91286295Y-58289930D01*
X91982764Y-58001443D01*
X92609570Y-57582625D01*
X92732798Y-57459397D01*
X97444000Y-57459397D01*
X97444000Y-57602603D01*
X97471938Y-57743058D01*
X97526741Y-57875364D01*
X97606302Y-57994436D01*
X97707564Y-58095698D01*
X97826636Y-58175259D01*
X97958942Y-58230062D01*
X98099397Y-58258000D01*
X98242603Y-58258000D01*
X98383058Y-58230062D01*
X98515364Y-58175259D01*
X98634436Y-58095698D01*
X98735698Y-57994436D01*
X98815259Y-57875364D01*
X98870062Y-57743058D01*
X98898000Y-57602603D01*
X98898000Y-57459397D01*
X98870062Y-57318942D01*
X98815259Y-57186636D01*
X98735698Y-57067564D01*
X98634436Y-56966302D01*
X98515364Y-56886741D01*
X98383058Y-56831938D01*
X98242603Y-56804000D01*
X98099397Y-56804000D01*
X97958942Y-56831938D01*
X97826636Y-56886741D01*
X97707564Y-56966302D01*
X97606302Y-57067564D01*
X97526741Y-57186636D01*
X97471938Y-57318942D01*
X97444000Y-57459397D01*
X92732798Y-57459397D01*
X93142625Y-57049570D01*
X93455045Y-56582000D01*
X102422157Y-56582000D01*
X102429513Y-56656689D01*
X102451299Y-56728508D01*
X102486678Y-56794696D01*
X102534289Y-56852711D01*
X102592304Y-56900322D01*
X102658492Y-56935701D01*
X102730311Y-56957487D01*
X102805000Y-56964843D01*
X103409250Y-56963000D01*
X103504500Y-56867750D01*
X103504500Y-56007500D01*
X103505500Y-56007500D01*
X103505500Y-56867750D01*
X103600750Y-56963000D01*
X104205000Y-56964843D01*
X104279689Y-56957487D01*
X104351508Y-56935701D01*
X104417696Y-56900322D01*
X104475711Y-56852711D01*
X104523322Y-56794696D01*
X104558701Y-56728508D01*
X104580487Y-56656689D01*
X104587843Y-56582000D01*
X104586000Y-56102750D01*
X104490750Y-56007500D01*
X103505500Y-56007500D01*
X103504500Y-56007500D01*
X102519250Y-56007500D01*
X102424000Y-56102750D01*
X102422157Y-56582000D01*
X93455045Y-56582000D01*
X93561443Y-56422764D01*
X93849930Y-55726295D01*
X93908469Y-55432000D01*
X102422157Y-55432000D01*
X102424000Y-55911250D01*
X102519250Y-56006500D01*
X103504500Y-56006500D01*
X103504500Y-55146250D01*
X103505500Y-55146250D01*
X103505500Y-56006500D01*
X104490750Y-56006500D01*
X104586000Y-55911250D01*
X104587843Y-55432000D01*
X104580487Y-55357311D01*
X104558701Y-55285492D01*
X104523322Y-55219304D01*
X104475711Y-55161289D01*
X104417696Y-55113678D01*
X104351508Y-55078299D01*
X104279689Y-55056513D01*
X104205000Y-55049157D01*
X103600750Y-55051000D01*
X103505500Y-55146250D01*
X103504500Y-55146250D01*
X103409250Y-55051000D01*
X102805000Y-55049157D01*
X102730311Y-55056513D01*
X102658492Y-55078299D01*
X102592304Y-55113678D01*
X102534289Y-55161289D01*
X102486678Y-55219304D01*
X102451299Y-55285492D01*
X102429513Y-55357311D01*
X102422157Y-55432000D01*
X93908469Y-55432000D01*
X93997000Y-54986927D01*
X93997000Y-54233073D01*
X93849930Y-53493705D01*
X93561443Y-52797236D01*
X93142625Y-52170430D01*
X92609570Y-51637375D01*
X91982764Y-51218557D01*
X91286295Y-50930070D01*
X90546927Y-50783000D01*
X89793073Y-50783000D01*
X89053705Y-50930070D01*
X88357236Y-51218557D01*
X87730430Y-51637375D01*
X87197375Y-52170430D01*
X86778557Y-52797236D01*
X86490070Y-53493705D01*
X86343000Y-54233073D01*
X84027211Y-54233073D01*
X84073540Y-53644415D01*
X84299647Y-52702612D01*
X84670307Y-51807761D01*
X85176379Y-50981925D01*
X85777201Y-50278453D01*
X99118000Y-50278453D01*
X99118000Y-50559547D01*
X99172838Y-50835241D01*
X99280409Y-51094938D01*
X99436576Y-51328660D01*
X99635340Y-51527424D01*
X99869062Y-51683591D01*
X100128759Y-51791162D01*
X100404453Y-51846000D01*
X100685547Y-51846000D01*
X100961241Y-51791162D01*
X101220938Y-51683591D01*
X101454660Y-51527424D01*
X101653424Y-51328660D01*
X101654066Y-51327699D01*
X103118000Y-51327699D01*
X103118000Y-51510301D01*
X103153624Y-51689396D01*
X103223504Y-51858099D01*
X103324952Y-52009928D01*
X103454072Y-52139048D01*
X103605901Y-52240496D01*
X103774604Y-52310376D01*
X103953699Y-52346000D01*
X104136301Y-52346000D01*
X104315396Y-52310376D01*
X104484099Y-52240496D01*
X104635928Y-52139048D01*
X104765048Y-52009928D01*
X104866496Y-51858099D01*
X104936376Y-51689396D01*
X104972000Y-51510301D01*
X104972000Y-51327699D01*
X105118000Y-51327699D01*
X105118000Y-51510301D01*
X105153624Y-51689396D01*
X105223504Y-51858099D01*
X105324952Y-52009928D01*
X105454072Y-52139048D01*
X105605901Y-52240496D01*
X105774604Y-52310376D01*
X105953699Y-52346000D01*
X106136301Y-52346000D01*
X106199914Y-52333347D01*
X106270001Y-52403434D01*
X106270000Y-57126800D01*
X106259074Y-57140114D01*
X106214848Y-57222855D01*
X106187614Y-57312633D01*
X106178418Y-57406000D01*
X106178418Y-59056000D01*
X106187614Y-59149367D01*
X106214848Y-59239145D01*
X106259074Y-59321886D01*
X106318591Y-59394409D01*
X106391114Y-59453926D01*
X106473855Y-59498152D01*
X106563633Y-59525386D01*
X106657000Y-59534582D01*
X106957000Y-59534582D01*
X107050367Y-59525386D01*
X107140145Y-59498152D01*
X107222886Y-59453926D01*
X107295409Y-59394409D01*
X107354926Y-59321886D01*
X107399152Y-59239145D01*
X107426386Y-59149367D01*
X107435582Y-59056000D01*
X107435582Y-57406000D01*
X107426386Y-57312633D01*
X107399152Y-57222855D01*
X107354926Y-57140114D01*
X107344000Y-57126800D01*
X107344000Y-52207371D01*
X107346597Y-52181000D01*
X107344000Y-52154629D01*
X107344000Y-52154622D01*
X107336230Y-52075730D01*
X107309050Y-51986129D01*
X107324952Y-52009928D01*
X107454072Y-52139048D01*
X107540001Y-52196463D01*
X107540000Y-57126800D01*
X107529074Y-57140114D01*
X107484848Y-57222855D01*
X107457614Y-57312633D01*
X107448418Y-57406000D01*
X107448418Y-59056000D01*
X107457614Y-59149367D01*
X107484848Y-59239145D01*
X107529074Y-59321886D01*
X107588591Y-59394409D01*
X107661114Y-59453926D01*
X107743855Y-59498152D01*
X107833633Y-59525386D01*
X107927000Y-59534582D01*
X108227000Y-59534582D01*
X108320367Y-59525386D01*
X108410145Y-59498152D01*
X108492886Y-59453926D01*
X108565409Y-59394409D01*
X108624926Y-59321886D01*
X108667691Y-59241879D01*
X108671513Y-59280689D01*
X108693299Y-59352508D01*
X108728678Y-59418696D01*
X108776289Y-59476711D01*
X108834304Y-59524322D01*
X108900492Y-59559701D01*
X108972311Y-59581487D01*
X109047000Y-59588843D01*
X109251250Y-59587000D01*
X109346500Y-59491750D01*
X109346500Y-58231500D01*
X109347500Y-58231500D01*
X109347500Y-59491750D01*
X109442750Y-59587000D01*
X109647000Y-59588843D01*
X109721689Y-59581487D01*
X109793508Y-59559701D01*
X109859696Y-59524322D01*
X109917711Y-59476711D01*
X109965322Y-59418696D01*
X110000701Y-59352508D01*
X110022487Y-59280689D01*
X110029843Y-59206000D01*
X110028000Y-58326750D01*
X109932750Y-58231500D01*
X109347500Y-58231500D01*
X109346500Y-58231500D01*
X109326500Y-58231500D01*
X109326500Y-58230500D01*
X109346500Y-58230500D01*
X109346500Y-56970250D01*
X109347500Y-56970250D01*
X109347500Y-58230500D01*
X109932750Y-58230500D01*
X110028000Y-58135250D01*
X110029843Y-57256000D01*
X110022487Y-57181311D01*
X110000701Y-57109492D01*
X109965322Y-57043304D01*
X109917711Y-56985289D01*
X109859696Y-56937678D01*
X109793508Y-56902299D01*
X109721689Y-56880513D01*
X109647000Y-56873157D01*
X109442750Y-56875000D01*
X109347500Y-56970250D01*
X109346500Y-56970250D01*
X109251250Y-56875000D01*
X109047000Y-56873157D01*
X108972311Y-56880513D01*
X108900492Y-56902299D01*
X108834304Y-56937678D01*
X108776289Y-56985289D01*
X108728678Y-57043304D01*
X108693299Y-57109492D01*
X108671513Y-57181311D01*
X108667691Y-57220121D01*
X108624926Y-57140114D01*
X108614000Y-57126800D01*
X108614000Y-56316397D01*
X116748000Y-56316397D01*
X116748000Y-56459603D01*
X116775938Y-56600058D01*
X116830741Y-56732364D01*
X116910302Y-56851436D01*
X117011564Y-56952698D01*
X117116779Y-57023000D01*
X117011564Y-57093302D01*
X116910302Y-57194564D01*
X116830741Y-57313636D01*
X116775938Y-57445942D01*
X116748000Y-57586397D01*
X116748000Y-57729603D01*
X116775938Y-57870058D01*
X116830741Y-58002364D01*
X116910302Y-58121436D01*
X117011564Y-58222698D01*
X117130636Y-58302259D01*
X117262942Y-58357062D01*
X117403397Y-58385000D01*
X117442568Y-58385000D01*
X123288000Y-64230433D01*
X123288001Y-79729622D01*
X123285403Y-79756000D01*
X123288001Y-79782378D01*
X123295771Y-79861270D01*
X123305914Y-79894706D01*
X123326477Y-79962495D01*
X123376341Y-80055784D01*
X123426632Y-80117064D01*
X123426637Y-80117069D01*
X123443448Y-80137553D01*
X123463932Y-80154364D01*
X123553632Y-80244064D01*
X125384000Y-82074433D01*
X125384000Y-82113603D01*
X125411938Y-82254058D01*
X125466741Y-82386364D01*
X125546302Y-82505436D01*
X125647564Y-82606698D01*
X125766636Y-82686259D01*
X125898942Y-82741062D01*
X126039397Y-82769000D01*
X126182603Y-82769000D01*
X126323058Y-82741062D01*
X126455364Y-82686259D01*
X126574436Y-82606698D01*
X126675698Y-82505436D01*
X126755259Y-82386364D01*
X126810062Y-82254058D01*
X126838000Y-82113603D01*
X126838000Y-81970397D01*
X126810062Y-81829942D01*
X126755259Y-81697636D01*
X126675698Y-81578564D01*
X126574436Y-81477302D01*
X126455364Y-81397741D01*
X126323058Y-81342938D01*
X126182603Y-81315000D01*
X126143433Y-81315000D01*
X125923350Y-81094917D01*
X126039397Y-81118000D01*
X126182603Y-81118000D01*
X126323058Y-81090062D01*
X126455364Y-81035259D01*
X126574436Y-80955698D01*
X126675698Y-80854436D01*
X126755259Y-80735364D01*
X126810062Y-80603058D01*
X126824777Y-80529076D01*
X135983000Y-80529076D01*
X135983000Y-80760924D01*
X136028231Y-80988318D01*
X136116956Y-81202519D01*
X136245764Y-81395294D01*
X136409706Y-81559236D01*
X136602481Y-81688044D01*
X136816682Y-81776769D01*
X137044076Y-81822000D01*
X137275924Y-81822000D01*
X137503318Y-81776769D01*
X137717519Y-81688044D01*
X137910294Y-81559236D01*
X138074236Y-81395294D01*
X138203044Y-81202519D01*
X138291769Y-80988318D01*
X138337000Y-80760924D01*
X138337000Y-80529076D01*
X138291769Y-80301682D01*
X138203044Y-80087481D01*
X138074236Y-79894706D01*
X137910294Y-79730764D01*
X137717519Y-79601956D01*
X137503318Y-79513231D01*
X137275924Y-79468000D01*
X137044076Y-79468000D01*
X136816682Y-79513231D01*
X136602481Y-79601956D01*
X136409706Y-79730764D01*
X136245764Y-79894706D01*
X136116956Y-80087481D01*
X136028231Y-80301682D01*
X135983000Y-80529076D01*
X126824777Y-80529076D01*
X126838000Y-80462603D01*
X126838000Y-80319397D01*
X126810062Y-80178942D01*
X126755259Y-80046636D01*
X126675698Y-79927564D01*
X126574436Y-79826302D01*
X126455364Y-79746741D01*
X126323058Y-79691938D01*
X126182603Y-79664000D01*
X126143433Y-79664000D01*
X125759000Y-79279568D01*
X125759000Y-77989076D01*
X135983000Y-77989076D01*
X135983000Y-78220924D01*
X136028231Y-78448318D01*
X136116956Y-78662519D01*
X136245764Y-78855294D01*
X136409706Y-79019236D01*
X136602481Y-79148044D01*
X136816682Y-79236769D01*
X137044076Y-79282000D01*
X137275924Y-79282000D01*
X137503318Y-79236769D01*
X137717519Y-79148044D01*
X137910294Y-79019236D01*
X138074236Y-78855294D01*
X138203044Y-78662519D01*
X138291769Y-78448318D01*
X138337000Y-78220924D01*
X138337000Y-77989076D01*
X138291769Y-77761682D01*
X138203044Y-77547481D01*
X138074236Y-77354706D01*
X137910294Y-77190764D01*
X137717519Y-77061956D01*
X137503318Y-76973231D01*
X137275924Y-76928000D01*
X137044076Y-76928000D01*
X136816682Y-76973231D01*
X136602481Y-77061956D01*
X136409706Y-77190764D01*
X136245764Y-77354706D01*
X136116956Y-77547481D01*
X136028231Y-77761682D01*
X135983000Y-77989076D01*
X125759000Y-77989076D01*
X125759000Y-76415000D01*
X135927157Y-76415000D01*
X135934513Y-76489689D01*
X135956299Y-76561508D01*
X135991678Y-76627696D01*
X136039289Y-76685711D01*
X136097304Y-76733322D01*
X136163492Y-76768701D01*
X136235311Y-76790487D01*
X136310000Y-76797843D01*
X137064250Y-76796000D01*
X137159500Y-76700750D01*
X137159500Y-75565500D01*
X137160500Y-75565500D01*
X137160500Y-76700750D01*
X137255750Y-76796000D01*
X138010000Y-76797843D01*
X138084689Y-76790487D01*
X138156508Y-76768701D01*
X138222696Y-76733322D01*
X138280711Y-76685711D01*
X138328322Y-76627696D01*
X138363701Y-76561508D01*
X138385487Y-76489689D01*
X138392843Y-76415000D01*
X138391000Y-75660750D01*
X138295750Y-75565500D01*
X137160500Y-75565500D01*
X137159500Y-75565500D01*
X136024250Y-75565500D01*
X135929000Y-75660750D01*
X135927157Y-76415000D01*
X125759000Y-76415000D01*
X125759000Y-74715000D01*
X135927157Y-74715000D01*
X135929000Y-75469250D01*
X136024250Y-75564500D01*
X137159500Y-75564500D01*
X137159500Y-74429250D01*
X137160500Y-74429250D01*
X137160500Y-75564500D01*
X138295750Y-75564500D01*
X138391000Y-75469250D01*
X138392843Y-74715000D01*
X138385487Y-74640311D01*
X138363701Y-74568492D01*
X138328322Y-74502304D01*
X138280711Y-74444289D01*
X138222696Y-74396678D01*
X138156508Y-74361299D01*
X138084689Y-74339513D01*
X138010000Y-74332157D01*
X137255750Y-74334000D01*
X137160500Y-74429250D01*
X137159500Y-74429250D01*
X137064250Y-74334000D01*
X136310000Y-74332157D01*
X136235311Y-74339513D01*
X136163492Y-74361299D01*
X136097304Y-74396678D01*
X136039289Y-74444289D01*
X135991678Y-74502304D01*
X135956299Y-74568492D01*
X135934513Y-74640311D01*
X135927157Y-74715000D01*
X125759000Y-74715000D01*
X125759000Y-70369076D01*
X135856000Y-70369076D01*
X135856000Y-70600924D01*
X135901231Y-70828318D01*
X135989956Y-71042519D01*
X136118764Y-71235294D01*
X136282706Y-71399236D01*
X136475481Y-71528044D01*
X136689682Y-71616769D01*
X136917076Y-71662000D01*
X137148924Y-71662000D01*
X137376318Y-71616769D01*
X137590519Y-71528044D01*
X137783294Y-71399236D01*
X137947236Y-71235294D01*
X138076044Y-71042519D01*
X138164769Y-70828318D01*
X138210000Y-70600924D01*
X138210000Y-70369076D01*
X138164769Y-70141682D01*
X138076044Y-69927481D01*
X137947236Y-69734706D01*
X137783294Y-69570764D01*
X137590519Y-69441956D01*
X137376318Y-69353231D01*
X137148924Y-69308000D01*
X136917076Y-69308000D01*
X136689682Y-69353231D01*
X136475481Y-69441956D01*
X136282706Y-69570764D01*
X136118764Y-69734706D01*
X135989956Y-69927481D01*
X135901231Y-70141682D01*
X135856000Y-70369076D01*
X125759000Y-70369076D01*
X125759000Y-67829076D01*
X135856000Y-67829076D01*
X135856000Y-68060924D01*
X135901231Y-68288318D01*
X135989956Y-68502519D01*
X136118764Y-68695294D01*
X136282706Y-68859236D01*
X136475481Y-68988044D01*
X136689682Y-69076769D01*
X136917076Y-69122000D01*
X137148924Y-69122000D01*
X137376318Y-69076769D01*
X137590519Y-68988044D01*
X137783294Y-68859236D01*
X137947236Y-68695294D01*
X138076044Y-68502519D01*
X138164769Y-68288318D01*
X138210000Y-68060924D01*
X138210000Y-67829076D01*
X138164769Y-67601682D01*
X138076044Y-67387481D01*
X137947236Y-67194706D01*
X137783294Y-67030764D01*
X137590519Y-66901956D01*
X137376318Y-66813231D01*
X137148924Y-66768000D01*
X136917076Y-66768000D01*
X136689682Y-66813231D01*
X136475481Y-66901956D01*
X136282706Y-67030764D01*
X136118764Y-67194706D01*
X135989956Y-67387481D01*
X135901231Y-67601682D01*
X135856000Y-67829076D01*
X125759000Y-67829076D01*
X125759000Y-66732193D01*
X125777394Y-66754606D01*
X125903321Y-66857952D01*
X126046990Y-66934745D01*
X126202880Y-66982034D01*
X126324376Y-66994000D01*
X126324386Y-66994000D01*
X126365000Y-66998000D01*
X126405614Y-66994000D01*
X126405624Y-66994000D01*
X126527120Y-66982034D01*
X126683010Y-66934745D01*
X126826679Y-66857952D01*
X126952606Y-66754606D01*
X126978505Y-66723048D01*
X127102548Y-66599005D01*
X127134106Y-66573106D01*
X127237452Y-66447179D01*
X127314245Y-66303510D01*
X127361534Y-66147620D01*
X127373500Y-66026124D01*
X127373500Y-66026114D01*
X127377500Y-65985500D01*
X127373500Y-65944886D01*
X127373500Y-64422793D01*
X127406040Y-64361914D01*
X127438965Y-64253377D01*
X127450082Y-64140501D01*
X127450082Y-63240499D01*
X127438965Y-63127623D01*
X127406040Y-63019086D01*
X127352574Y-62919057D01*
X127280620Y-62831380D01*
X127192943Y-62759426D01*
X127092914Y-62705960D01*
X126984377Y-62673035D01*
X126871501Y-62661918D01*
X126221499Y-62661918D01*
X126108623Y-62673035D01*
X126000086Y-62705960D01*
X125900057Y-62759426D01*
X125812380Y-62831380D01*
X125740426Y-62919057D01*
X125686960Y-63019086D01*
X125654035Y-63127623D01*
X125642918Y-63240499D01*
X125642918Y-63872610D01*
X125620368Y-63845133D01*
X125620364Y-63845129D01*
X125603553Y-63824645D01*
X125583069Y-63807834D01*
X122355735Y-60580500D01*
X125724657Y-60580500D01*
X125732013Y-60655189D01*
X125753799Y-60727008D01*
X125789178Y-60793196D01*
X125836789Y-60851211D01*
X125894804Y-60898822D01*
X125960992Y-60934201D01*
X126032811Y-60955987D01*
X126107500Y-60963343D01*
X126586750Y-60961500D01*
X126682000Y-60866250D01*
X126682000Y-59881000D01*
X126683000Y-59881000D01*
X126683000Y-60866250D01*
X126778250Y-60961500D01*
X127257500Y-60963343D01*
X127332189Y-60955987D01*
X127404008Y-60934201D01*
X127470196Y-60898822D01*
X127528211Y-60851211D01*
X127575822Y-60793196D01*
X127611201Y-60727008D01*
X127632987Y-60655189D01*
X127640343Y-60580500D01*
X127638500Y-59976250D01*
X127543250Y-59881000D01*
X126683000Y-59881000D01*
X126682000Y-59881000D01*
X125821750Y-59881000D01*
X125726500Y-59976250D01*
X125724657Y-60580500D01*
X122355735Y-60580500D01*
X120955735Y-59180500D01*
X125724657Y-59180500D01*
X125726500Y-59784750D01*
X125821750Y-59880000D01*
X126682000Y-59880000D01*
X126682000Y-58894750D01*
X126683000Y-58894750D01*
X126683000Y-59880000D01*
X127543250Y-59880000D01*
X127638500Y-59784750D01*
X127640343Y-59180500D01*
X127632987Y-59105811D01*
X127611201Y-59033992D01*
X127575822Y-58967804D01*
X127528211Y-58909789D01*
X127470196Y-58862178D01*
X127404008Y-58826799D01*
X127332189Y-58805013D01*
X127257500Y-58797657D01*
X126778250Y-58799500D01*
X126683000Y-58894750D01*
X126682000Y-58894750D01*
X126586750Y-58799500D01*
X126107500Y-58797657D01*
X126032811Y-58805013D01*
X125960992Y-58826799D01*
X125894804Y-58862178D01*
X125836789Y-58909789D01*
X125789178Y-58967804D01*
X125753799Y-59033992D01*
X125732013Y-59105811D01*
X125724657Y-59180500D01*
X120955735Y-59180500D01*
X118202000Y-56426766D01*
X118202000Y-56316397D01*
X118174062Y-56175942D01*
X118119259Y-56043636D01*
X118046937Y-55935397D01*
X123606000Y-55935397D01*
X123606000Y-56078603D01*
X123633938Y-56219058D01*
X123688741Y-56351364D01*
X123768302Y-56470436D01*
X123869564Y-56571698D01*
X123988636Y-56651259D01*
X124120942Y-56706062D01*
X124261397Y-56734000D01*
X124404603Y-56734000D01*
X124545058Y-56706062D01*
X124677364Y-56651259D01*
X124796436Y-56571698D01*
X124897698Y-56470436D01*
X124933403Y-56417000D01*
X125841986Y-56417000D01*
X125844535Y-56442877D01*
X125877460Y-56551414D01*
X125930926Y-56651443D01*
X126002880Y-56739120D01*
X126090557Y-56811074D01*
X126190586Y-56864540D01*
X126299123Y-56897465D01*
X126411999Y-56908582D01*
X127062001Y-56908582D01*
X127174877Y-56897465D01*
X127283414Y-56864540D01*
X127383443Y-56811074D01*
X127471120Y-56739120D01*
X127543074Y-56651443D01*
X127596540Y-56551414D01*
X127629465Y-56442877D01*
X127640582Y-56330001D01*
X127640582Y-55429999D01*
X127629465Y-55317123D01*
X127596540Y-55208586D01*
X127543074Y-55108557D01*
X127471120Y-55020880D01*
X127383443Y-54948926D01*
X127283414Y-54895460D01*
X127174877Y-54862535D01*
X127062001Y-54851418D01*
X126411999Y-54851418D01*
X126299123Y-54862535D01*
X126190586Y-54895460D01*
X126090557Y-54948926D01*
X126002880Y-55020880D01*
X125930926Y-55108557D01*
X125877460Y-55208586D01*
X125844535Y-55317123D01*
X125841986Y-55343000D01*
X124629705Y-55343000D01*
X124545058Y-55307938D01*
X124404603Y-55280000D01*
X124261397Y-55280000D01*
X124120942Y-55307938D01*
X123988636Y-55362741D01*
X123869564Y-55442302D01*
X123768302Y-55543564D01*
X123688741Y-55662636D01*
X123633938Y-55794942D01*
X123606000Y-55935397D01*
X118046937Y-55935397D01*
X118039698Y-55924564D01*
X117938436Y-55823302D01*
X117819364Y-55743741D01*
X117687058Y-55688938D01*
X117546603Y-55661000D01*
X117403397Y-55661000D01*
X117262942Y-55688938D01*
X117130636Y-55743741D01*
X117011564Y-55823302D01*
X116910302Y-55924564D01*
X116830741Y-56043636D01*
X116775938Y-56175942D01*
X116748000Y-56316397D01*
X108614000Y-56316397D01*
X108614000Y-52153700D01*
X108635928Y-52139048D01*
X108765048Y-52009928D01*
X108802366Y-51954076D01*
X115282000Y-51954076D01*
X115282000Y-52185924D01*
X115327231Y-52413318D01*
X115415956Y-52627519D01*
X115544764Y-52820294D01*
X115708706Y-52984236D01*
X115901481Y-53113044D01*
X116115682Y-53201769D01*
X116343076Y-53247000D01*
X116574924Y-53247000D01*
X116802318Y-53201769D01*
X117016519Y-53113044D01*
X117209294Y-52984236D01*
X117373236Y-52820294D01*
X117502044Y-52627519D01*
X117590769Y-52413318D01*
X117636000Y-52185924D01*
X117636000Y-51954076D01*
X117822000Y-51954076D01*
X117822000Y-52185924D01*
X117867231Y-52413318D01*
X117955956Y-52627519D01*
X118084764Y-52820294D01*
X118248706Y-52984236D01*
X118441481Y-53113044D01*
X118655682Y-53201769D01*
X118883076Y-53247000D01*
X119114924Y-53247000D01*
X119342318Y-53201769D01*
X119556519Y-53113044D01*
X119749294Y-52984236D01*
X119913236Y-52820294D01*
X120042044Y-52627519D01*
X120130769Y-52413318D01*
X120160655Y-52263065D01*
X120323234Y-52263065D01*
X120384260Y-52496539D01*
X120489662Y-52713622D01*
X120635389Y-52905971D01*
X120815841Y-53066194D01*
X121024084Y-53188134D01*
X121252115Y-53267104D01*
X121345935Y-53285766D01*
X121538500Y-53205750D01*
X121538500Y-52070500D01*
X121539500Y-52070500D01*
X121539500Y-53205750D01*
X121732065Y-53285766D01*
X121825885Y-53267104D01*
X122053916Y-53188134D01*
X122262159Y-53066194D01*
X122442611Y-52905971D01*
X122588338Y-52713622D01*
X122693740Y-52496539D01*
X122754766Y-52263065D01*
X122674750Y-52070500D01*
X121539500Y-52070500D01*
X121538500Y-52070500D01*
X120403250Y-52070500D01*
X120323234Y-52263065D01*
X120160655Y-52263065D01*
X120176000Y-52185924D01*
X120176000Y-51954076D01*
X120160656Y-51876935D01*
X120323234Y-51876935D01*
X120403250Y-52069500D01*
X121538500Y-52069500D01*
X121538500Y-50934250D01*
X121539500Y-50934250D01*
X121539500Y-52069500D01*
X122674750Y-52069500D01*
X122722711Y-51954076D01*
X122902000Y-51954076D01*
X122902000Y-52185924D01*
X122947231Y-52413318D01*
X123035956Y-52627519D01*
X123164764Y-52820294D01*
X123328706Y-52984236D01*
X123521481Y-53113044D01*
X123735682Y-53201769D01*
X123963076Y-53247000D01*
X124194924Y-53247000D01*
X124422318Y-53201769D01*
X124636519Y-53113044D01*
X124829294Y-52984236D01*
X124993236Y-52820294D01*
X125122044Y-52627519D01*
X125210769Y-52413318D01*
X125256000Y-52185924D01*
X125256000Y-51954076D01*
X125210769Y-51726682D01*
X125122044Y-51512481D01*
X124993236Y-51319706D01*
X124893530Y-51220000D01*
X125440418Y-51220000D01*
X125440418Y-52920000D01*
X125446732Y-52984103D01*
X125465430Y-53045743D01*
X125495794Y-53102550D01*
X125536657Y-53152343D01*
X125586450Y-53193206D01*
X125643257Y-53223570D01*
X125704897Y-53242268D01*
X125769000Y-53248582D01*
X127419150Y-53248582D01*
X129021985Y-54851418D01*
X128461999Y-54851418D01*
X128349123Y-54862535D01*
X128240586Y-54895460D01*
X128140557Y-54948926D01*
X128052880Y-55020880D01*
X127980926Y-55108557D01*
X127927460Y-55208586D01*
X127894535Y-55317123D01*
X127883418Y-55429999D01*
X127883418Y-56330001D01*
X127894535Y-56442877D01*
X127927460Y-56551414D01*
X127980926Y-56651443D01*
X128052880Y-56739120D01*
X128140557Y-56811074D01*
X128240586Y-56864540D01*
X128349123Y-56897465D01*
X128461999Y-56908582D01*
X129112001Y-56908582D01*
X129224877Y-56897465D01*
X129333414Y-56864540D01*
X129384000Y-56837501D01*
X129384001Y-58832566D01*
X129306085Y-58910483D01*
X129278914Y-58895960D01*
X129170377Y-58863035D01*
X129057501Y-58851918D01*
X128407499Y-58851918D01*
X128294623Y-58863035D01*
X128186086Y-58895960D01*
X128086057Y-58949426D01*
X127998380Y-59021380D01*
X127926426Y-59109057D01*
X127872960Y-59209086D01*
X127840035Y-59317623D01*
X127828918Y-59430499D01*
X127828918Y-60330501D01*
X127840035Y-60443377D01*
X127872960Y-60551914D01*
X127926426Y-60651943D01*
X127998380Y-60739620D01*
X128086057Y-60811574D01*
X128186086Y-60865040D01*
X128294623Y-60897965D01*
X128407499Y-60909082D01*
X129057501Y-60909082D01*
X129170377Y-60897965D01*
X129278914Y-60865040D01*
X129378943Y-60811574D01*
X129384001Y-60807423D01*
X129384001Y-62143566D01*
X128865650Y-62661918D01*
X128271499Y-62661918D01*
X128158623Y-62673035D01*
X128050086Y-62705960D01*
X127950057Y-62759426D01*
X127862380Y-62831380D01*
X127790426Y-62919057D01*
X127736960Y-63019086D01*
X127704035Y-63127623D01*
X127692918Y-63240499D01*
X127692918Y-64140501D01*
X127704035Y-64253377D01*
X127736960Y-64361914D01*
X127790426Y-64461943D01*
X127862380Y-64549620D01*
X127950057Y-64621574D01*
X128050086Y-64675040D01*
X128158623Y-64707965D01*
X128271499Y-64719082D01*
X128921501Y-64719082D01*
X129034377Y-64707965D01*
X129142914Y-64675040D01*
X129242943Y-64621574D01*
X129324064Y-64555000D01*
X135854418Y-64555000D01*
X135854418Y-66255000D01*
X135860732Y-66319103D01*
X135879430Y-66380743D01*
X135909794Y-66437550D01*
X135950657Y-66487343D01*
X136000450Y-66528206D01*
X136057257Y-66558570D01*
X136118897Y-66577268D01*
X136183000Y-66583582D01*
X137883000Y-66583582D01*
X137947103Y-66577268D01*
X138008743Y-66558570D01*
X138065550Y-66528206D01*
X138115343Y-66487343D01*
X138156206Y-66437550D01*
X138186570Y-66380743D01*
X138205268Y-66319103D01*
X138211582Y-66255000D01*
X138211582Y-64555000D01*
X138205268Y-64490897D01*
X138186570Y-64429257D01*
X138156206Y-64372450D01*
X138115343Y-64322657D01*
X138065550Y-64281794D01*
X138008743Y-64251430D01*
X137947103Y-64232732D01*
X137883000Y-64226418D01*
X136183000Y-64226418D01*
X136118897Y-64232732D01*
X136057257Y-64251430D01*
X136000450Y-64281794D01*
X135950657Y-64322657D01*
X135909794Y-64372450D01*
X135879430Y-64429257D01*
X135860732Y-64490897D01*
X135854418Y-64555000D01*
X129324064Y-64555000D01*
X129330620Y-64549620D01*
X129402574Y-64461943D01*
X129456040Y-64361914D01*
X129488965Y-64253377D01*
X129500082Y-64140501D01*
X129500082Y-63546350D01*
X130126035Y-62920397D01*
X150657000Y-62920397D01*
X150657000Y-63063603D01*
X150684938Y-63204058D01*
X150739741Y-63336364D01*
X150819302Y-63455436D01*
X150920564Y-63556698D01*
X151039636Y-63636259D01*
X151171942Y-63691062D01*
X151312397Y-63719000D01*
X151455603Y-63719000D01*
X151596058Y-63691062D01*
X151728364Y-63636259D01*
X151847436Y-63556698D01*
X151948698Y-63455436D01*
X152028259Y-63336364D01*
X152083062Y-63204058D01*
X152111000Y-63063603D01*
X152111000Y-62920397D01*
X152083062Y-62779942D01*
X152036031Y-62666397D01*
X155991000Y-62666397D01*
X155991000Y-62809603D01*
X156018938Y-62950058D01*
X156073741Y-63082364D01*
X156153302Y-63201436D01*
X156254564Y-63302698D01*
X156373636Y-63382259D01*
X156505942Y-63437062D01*
X156646397Y-63465000D01*
X156789603Y-63465000D01*
X156930058Y-63437062D01*
X157062364Y-63382259D01*
X157181436Y-63302698D01*
X157282698Y-63201436D01*
X157362259Y-63082364D01*
X157417062Y-62950058D01*
X157445000Y-62809603D01*
X157445000Y-62666397D01*
X167294000Y-62666397D01*
X167294000Y-62809603D01*
X167321938Y-62950058D01*
X167376741Y-63082364D01*
X167456302Y-63201436D01*
X167557564Y-63302698D01*
X167676636Y-63382259D01*
X167808942Y-63437062D01*
X167949397Y-63465000D01*
X168092603Y-63465000D01*
X168233058Y-63437062D01*
X168365364Y-63382259D01*
X168484436Y-63302698D01*
X168585698Y-63201436D01*
X168665259Y-63082364D01*
X168720062Y-62950058D01*
X168748000Y-62809603D01*
X168748000Y-62666397D01*
X168720062Y-62525942D01*
X168665259Y-62393636D01*
X168585698Y-62274564D01*
X168484436Y-62173302D01*
X168365364Y-62093741D01*
X168233058Y-62038938D01*
X168092603Y-62011000D01*
X167949397Y-62011000D01*
X167808942Y-62038938D01*
X167676636Y-62093741D01*
X167557564Y-62173302D01*
X167456302Y-62274564D01*
X167376741Y-62393636D01*
X167321938Y-62525942D01*
X167294000Y-62666397D01*
X157445000Y-62666397D01*
X157417062Y-62525942D01*
X157362259Y-62393636D01*
X157282698Y-62274564D01*
X157181436Y-62173302D01*
X157062364Y-62093741D01*
X156930058Y-62038938D01*
X156789603Y-62011000D01*
X156646397Y-62011000D01*
X156505942Y-62038938D01*
X156373636Y-62093741D01*
X156254564Y-62173302D01*
X156153302Y-62274564D01*
X156073741Y-62393636D01*
X156018938Y-62525942D01*
X155991000Y-62666397D01*
X152036031Y-62666397D01*
X152028259Y-62647636D01*
X151948698Y-62528564D01*
X151847436Y-62427302D01*
X151728364Y-62347741D01*
X151596058Y-62292938D01*
X151455603Y-62265000D01*
X151312397Y-62265000D01*
X151171942Y-62292938D01*
X151039636Y-62347741D01*
X150920564Y-62427302D01*
X150819302Y-62528564D01*
X150739741Y-62647636D01*
X150684938Y-62779942D01*
X150657000Y-62920397D01*
X130126035Y-62920397D01*
X130282069Y-62764364D01*
X130302553Y-62747553D01*
X130319364Y-62727069D01*
X130319368Y-62727065D01*
X130369659Y-62665785D01*
X130379360Y-62647636D01*
X130419524Y-62572495D01*
X130450230Y-62471270D01*
X130458000Y-62392378D01*
X130458000Y-62392368D01*
X130460597Y-62366000D01*
X130458000Y-62339632D01*
X130458000Y-59081369D01*
X130460597Y-59055001D01*
X130458000Y-59028633D01*
X130458000Y-56702462D01*
X133471000Y-56702462D01*
X133471000Y-57343537D01*
X133484413Y-57479723D01*
X133537420Y-57654463D01*
X133623499Y-57815504D01*
X133739341Y-57956659D01*
X133880495Y-58072501D01*
X134041536Y-58158580D01*
X134216276Y-58211587D01*
X134398000Y-58229485D01*
X134579723Y-58211587D01*
X134754463Y-58158580D01*
X134915504Y-58072501D01*
X135056659Y-57956659D01*
X135172501Y-57815505D01*
X135258580Y-57654464D01*
X135311587Y-57479724D01*
X135325000Y-57343538D01*
X135325000Y-56702462D01*
X135311587Y-56566276D01*
X135260541Y-56397999D01*
X135469418Y-56397999D01*
X135469418Y-57648001D01*
X135480535Y-57760877D01*
X135513460Y-57869414D01*
X135566926Y-57969443D01*
X135638880Y-58057120D01*
X135726557Y-58129074D01*
X135826586Y-58182540D01*
X135935123Y-58215465D01*
X136047999Y-58226582D01*
X136748001Y-58226582D01*
X136860877Y-58215465D01*
X136969414Y-58182540D01*
X137069443Y-58129074D01*
X137157120Y-58057120D01*
X137229074Y-57969443D01*
X137282540Y-57869414D01*
X137315465Y-57760877D01*
X137326582Y-57648001D01*
X137326582Y-56702462D01*
X143123000Y-56702462D01*
X143123000Y-57343537D01*
X143136413Y-57479723D01*
X143189420Y-57654463D01*
X143275499Y-57815504D01*
X143391341Y-57956659D01*
X143532495Y-58072501D01*
X143693536Y-58158580D01*
X143868276Y-58211587D01*
X144050000Y-58229485D01*
X144231723Y-58211587D01*
X144406463Y-58158580D01*
X144567504Y-58072501D01*
X144708659Y-57956659D01*
X144824501Y-57815505D01*
X144910580Y-57654464D01*
X144963587Y-57479724D01*
X144977000Y-57343538D01*
X144977000Y-56702462D01*
X144963587Y-56566276D01*
X144912541Y-56397999D01*
X145121418Y-56397999D01*
X145121418Y-57648001D01*
X145132535Y-57760877D01*
X145165460Y-57869414D01*
X145218926Y-57969443D01*
X145290880Y-58057120D01*
X145378557Y-58129074D01*
X145478586Y-58182540D01*
X145587123Y-58215465D01*
X145699999Y-58226582D01*
X146400001Y-58226582D01*
X146512877Y-58215465D01*
X146621414Y-58182540D01*
X146721443Y-58129074D01*
X146809120Y-58057120D01*
X146881074Y-57969443D01*
X146934540Y-57869414D01*
X146967465Y-57760877D01*
X146978582Y-57648001D01*
X146978582Y-56702462D01*
X152521000Y-56702462D01*
X152521000Y-57343537D01*
X152534413Y-57479723D01*
X152587420Y-57654463D01*
X152673499Y-57815504D01*
X152789341Y-57956659D01*
X152930495Y-58072501D01*
X153091536Y-58158580D01*
X153266276Y-58211587D01*
X153448000Y-58229485D01*
X153629723Y-58211587D01*
X153804463Y-58158580D01*
X153965504Y-58072501D01*
X154106659Y-57956659D01*
X154222501Y-57815505D01*
X154308580Y-57654464D01*
X154361587Y-57479724D01*
X154375000Y-57343538D01*
X154375000Y-56702462D01*
X154361587Y-56566276D01*
X154310541Y-56397999D01*
X154519418Y-56397999D01*
X154519418Y-57648001D01*
X154530535Y-57760877D01*
X154563460Y-57869414D01*
X154616926Y-57969443D01*
X154688880Y-58057120D01*
X154776557Y-58129074D01*
X154876586Y-58182540D01*
X154985123Y-58215465D01*
X155097999Y-58226582D01*
X155798001Y-58226582D01*
X155910877Y-58215465D01*
X156019414Y-58182540D01*
X156119443Y-58129074D01*
X156207120Y-58057120D01*
X156279074Y-57969443D01*
X156332540Y-57869414D01*
X156365465Y-57760877D01*
X156376582Y-57648001D01*
X156376582Y-56702462D01*
X161411000Y-56702462D01*
X161411000Y-57343537D01*
X161424413Y-57479723D01*
X161477420Y-57654463D01*
X161563499Y-57815504D01*
X161679341Y-57956659D01*
X161820495Y-58072501D01*
X161981536Y-58158580D01*
X162156276Y-58211587D01*
X162338000Y-58229485D01*
X162519723Y-58211587D01*
X162694463Y-58158580D01*
X162855504Y-58072501D01*
X162996659Y-57956659D01*
X163044799Y-57898000D01*
X163355157Y-57898000D01*
X163362513Y-57972689D01*
X163384299Y-58044508D01*
X163419678Y-58110696D01*
X163467289Y-58168711D01*
X163525304Y-58216322D01*
X163591492Y-58251701D01*
X163663311Y-58273487D01*
X163738000Y-58280843D01*
X164242250Y-58279000D01*
X164337500Y-58183750D01*
X164337500Y-57023500D01*
X164338500Y-57023500D01*
X164338500Y-58183750D01*
X164433750Y-58279000D01*
X164938000Y-58280843D01*
X165012689Y-58273487D01*
X165084508Y-58251701D01*
X165150696Y-58216322D01*
X165208711Y-58168711D01*
X165256322Y-58110696D01*
X165291701Y-58044508D01*
X165313487Y-57972689D01*
X165320843Y-57898000D01*
X165319000Y-57118750D01*
X165223750Y-57023500D01*
X164338500Y-57023500D01*
X164337500Y-57023500D01*
X163452250Y-57023500D01*
X163357000Y-57118750D01*
X163355157Y-57898000D01*
X163044799Y-57898000D01*
X163112501Y-57815505D01*
X163198580Y-57654464D01*
X163251587Y-57479724D01*
X163265000Y-57343538D01*
X163265000Y-56702462D01*
X163251587Y-56566276D01*
X163198580Y-56391536D01*
X163112501Y-56230495D01*
X163044800Y-56148000D01*
X163355157Y-56148000D01*
X163357000Y-56927250D01*
X163452250Y-57022500D01*
X164337500Y-57022500D01*
X164337500Y-55862250D01*
X164338500Y-55862250D01*
X164338500Y-57022500D01*
X165223750Y-57022500D01*
X165319000Y-56927250D01*
X165320843Y-56148000D01*
X165313487Y-56073311D01*
X165291701Y-56001492D01*
X165256322Y-55935304D01*
X165208711Y-55877289D01*
X165150696Y-55829678D01*
X165084508Y-55794299D01*
X165012689Y-55772513D01*
X164938000Y-55765157D01*
X164433750Y-55767000D01*
X164338500Y-55862250D01*
X164337500Y-55862250D01*
X164242250Y-55767000D01*
X163738000Y-55765157D01*
X163663311Y-55772513D01*
X163591492Y-55794299D01*
X163525304Y-55829678D01*
X163467289Y-55877289D01*
X163419678Y-55935304D01*
X163384299Y-56001492D01*
X163362513Y-56073311D01*
X163355157Y-56148000D01*
X163044800Y-56148000D01*
X162996659Y-56089341D01*
X162855505Y-55973499D01*
X162694464Y-55887420D01*
X162519724Y-55834413D01*
X162338000Y-55816515D01*
X162156277Y-55834413D01*
X161981537Y-55887420D01*
X161820496Y-55973499D01*
X161679342Y-56089341D01*
X161563500Y-56230495D01*
X161477420Y-56391536D01*
X161424413Y-56566276D01*
X161411000Y-56702462D01*
X156376582Y-56702462D01*
X156376582Y-56397999D01*
X156365465Y-56285123D01*
X156332540Y-56176586D01*
X156279074Y-56076557D01*
X156207120Y-55988880D01*
X156119443Y-55916926D01*
X156019414Y-55863460D01*
X155910877Y-55830535D01*
X155798001Y-55819418D01*
X155097999Y-55819418D01*
X154985123Y-55830535D01*
X154876586Y-55863460D01*
X154776557Y-55916926D01*
X154688880Y-55988880D01*
X154616926Y-56076557D01*
X154563460Y-56176586D01*
X154530535Y-56285123D01*
X154519418Y-56397999D01*
X154310541Y-56397999D01*
X154308580Y-56391536D01*
X154222501Y-56230495D01*
X154106659Y-56089341D01*
X153965505Y-55973499D01*
X153804464Y-55887420D01*
X153629724Y-55834413D01*
X153448000Y-55816515D01*
X153266277Y-55834413D01*
X153091537Y-55887420D01*
X152930496Y-55973499D01*
X152789342Y-56089341D01*
X152673500Y-56230495D01*
X152587420Y-56391536D01*
X152534413Y-56566276D01*
X152521000Y-56702462D01*
X146978582Y-56702462D01*
X146978582Y-56397999D01*
X146967465Y-56285123D01*
X146934540Y-56176586D01*
X146881074Y-56076557D01*
X146809120Y-55988880D01*
X146721443Y-55916926D01*
X146621414Y-55863460D01*
X146512877Y-55830535D01*
X146400001Y-55819418D01*
X145699999Y-55819418D01*
X145587123Y-55830535D01*
X145478586Y-55863460D01*
X145378557Y-55916926D01*
X145290880Y-55988880D01*
X145218926Y-56076557D01*
X145165460Y-56176586D01*
X145132535Y-56285123D01*
X145121418Y-56397999D01*
X144912541Y-56397999D01*
X144910580Y-56391536D01*
X144824501Y-56230495D01*
X144708659Y-56089341D01*
X144567505Y-55973499D01*
X144406464Y-55887420D01*
X144231724Y-55834413D01*
X144050000Y-55816515D01*
X143868277Y-55834413D01*
X143693537Y-55887420D01*
X143532496Y-55973499D01*
X143391342Y-56089341D01*
X143275500Y-56230495D01*
X143189420Y-56391536D01*
X143136413Y-56566276D01*
X143123000Y-56702462D01*
X137326582Y-56702462D01*
X137326582Y-56397999D01*
X137315465Y-56285123D01*
X137282540Y-56176586D01*
X137229074Y-56076557D01*
X137157120Y-55988880D01*
X137069443Y-55916926D01*
X136969414Y-55863460D01*
X136860877Y-55830535D01*
X136748001Y-55819418D01*
X136047999Y-55819418D01*
X135935123Y-55830535D01*
X135826586Y-55863460D01*
X135726557Y-55916926D01*
X135638880Y-55988880D01*
X135566926Y-56076557D01*
X135513460Y-56176586D01*
X135480535Y-56285123D01*
X135469418Y-56397999D01*
X135260541Y-56397999D01*
X135258580Y-56391536D01*
X135172501Y-56230495D01*
X135056659Y-56089341D01*
X134915505Y-55973499D01*
X134754464Y-55887420D01*
X134579724Y-55834413D01*
X134398000Y-55816515D01*
X134216277Y-55834413D01*
X134041537Y-55887420D01*
X133880496Y-55973499D01*
X133739342Y-56089341D01*
X133623500Y-56230495D01*
X133537420Y-56391536D01*
X133484413Y-56566276D01*
X133471000Y-56702462D01*
X130458000Y-56702462D01*
X130458000Y-55017368D01*
X130460597Y-54991000D01*
X130458000Y-54964632D01*
X130458000Y-54964622D01*
X130450230Y-54885730D01*
X130419524Y-54784505D01*
X130369659Y-54691215D01*
X130336918Y-54651320D01*
X130319368Y-54629935D01*
X130319364Y-54629931D01*
X130302553Y-54609447D01*
X130282069Y-54592636D01*
X129922506Y-54233073D01*
X167623000Y-54233073D01*
X167623000Y-54986927D01*
X167770070Y-55726295D01*
X168058557Y-56422764D01*
X168477375Y-57049570D01*
X169010430Y-57582625D01*
X169637236Y-58001443D01*
X170333705Y-58289930D01*
X171073073Y-58437000D01*
X171826927Y-58437000D01*
X172566295Y-58289930D01*
X173262764Y-58001443D01*
X173889570Y-57582625D01*
X174422625Y-57049570D01*
X174841443Y-56422764D01*
X175129930Y-55726295D01*
X175277000Y-54986927D01*
X175277000Y-54233073D01*
X175129930Y-53493705D01*
X174841443Y-52797236D01*
X174422625Y-52170430D01*
X173889570Y-51637375D01*
X173262764Y-51218557D01*
X172566295Y-50930070D01*
X171826927Y-50783000D01*
X171073073Y-50783000D01*
X170333705Y-50930070D01*
X169637236Y-51218557D01*
X169010430Y-51637375D01*
X168477375Y-52170430D01*
X168058557Y-52797236D01*
X167770070Y-53493705D01*
X167623000Y-54233073D01*
X129922506Y-54233073D01*
X127797582Y-52108150D01*
X127797582Y-51220000D01*
X127791268Y-51155897D01*
X127772570Y-51094257D01*
X127742206Y-51037450D01*
X127701343Y-50987657D01*
X127651550Y-50946794D01*
X127594743Y-50916430D01*
X127533103Y-50897732D01*
X127469000Y-50891418D01*
X125769000Y-50891418D01*
X125704897Y-50897732D01*
X125643257Y-50916430D01*
X125586450Y-50946794D01*
X125536657Y-50987657D01*
X125495794Y-51037450D01*
X125465430Y-51094257D01*
X125446732Y-51155897D01*
X125440418Y-51220000D01*
X124893530Y-51220000D01*
X124829294Y-51155764D01*
X124636519Y-51026956D01*
X124422318Y-50938231D01*
X124194924Y-50893000D01*
X123963076Y-50893000D01*
X123735682Y-50938231D01*
X123521481Y-51026956D01*
X123328706Y-51155764D01*
X123164764Y-51319706D01*
X123035956Y-51512481D01*
X122947231Y-51726682D01*
X122902000Y-51954076D01*
X122722711Y-51954076D01*
X122754766Y-51876935D01*
X122693740Y-51643461D01*
X122588338Y-51426378D01*
X122442611Y-51234029D01*
X122262159Y-51073806D01*
X122053916Y-50951866D01*
X121825885Y-50872896D01*
X121732065Y-50854234D01*
X121539500Y-50934250D01*
X121538500Y-50934250D01*
X121345935Y-50854234D01*
X121252115Y-50872896D01*
X121024084Y-50951866D01*
X120815841Y-51073806D01*
X120635389Y-51234029D01*
X120489662Y-51426378D01*
X120384260Y-51643461D01*
X120323234Y-51876935D01*
X120160656Y-51876935D01*
X120130769Y-51726682D01*
X120042044Y-51512481D01*
X119913236Y-51319706D01*
X119749294Y-51155764D01*
X119556519Y-51026956D01*
X119342318Y-50938231D01*
X119114924Y-50893000D01*
X118883076Y-50893000D01*
X118655682Y-50938231D01*
X118441481Y-51026956D01*
X118248706Y-51155764D01*
X118084764Y-51319706D01*
X117955956Y-51512481D01*
X117867231Y-51726682D01*
X117822000Y-51954076D01*
X117636000Y-51954076D01*
X117590769Y-51726682D01*
X117502044Y-51512481D01*
X117373236Y-51319706D01*
X117209294Y-51155764D01*
X117016519Y-51026956D01*
X116802318Y-50938231D01*
X116574924Y-50893000D01*
X116343076Y-50893000D01*
X116115682Y-50938231D01*
X115901481Y-51026956D01*
X115708706Y-51155764D01*
X115544764Y-51319706D01*
X115415956Y-51512481D01*
X115327231Y-51726682D01*
X115282000Y-51954076D01*
X108802366Y-51954076D01*
X108866496Y-51858099D01*
X108936376Y-51689396D01*
X108972000Y-51510301D01*
X108972000Y-51327699D01*
X108936376Y-51148604D01*
X108866496Y-50979901D01*
X108765048Y-50828072D01*
X108635928Y-50698952D01*
X108484099Y-50597504D01*
X108315396Y-50527624D01*
X108136301Y-50492000D01*
X107953699Y-50492000D01*
X107774604Y-50527624D01*
X107605901Y-50597504D01*
X107454072Y-50698952D01*
X107324952Y-50828072D01*
X107223504Y-50979901D01*
X107153624Y-51148604D01*
X107118000Y-51327699D01*
X107118000Y-51510301D01*
X107153624Y-51689396D01*
X107210068Y-51825662D01*
X107205368Y-51819935D01*
X107205364Y-51819931D01*
X107188553Y-51799447D01*
X107168069Y-51782636D01*
X106959347Y-51573914D01*
X106972000Y-51510301D01*
X106972000Y-51327699D01*
X106936376Y-51148604D01*
X106866496Y-50979901D01*
X106765048Y-50828072D01*
X106635928Y-50698952D01*
X106484099Y-50597504D01*
X106315396Y-50527624D01*
X106136301Y-50492000D01*
X105953699Y-50492000D01*
X105774604Y-50527624D01*
X105605901Y-50597504D01*
X105454072Y-50698952D01*
X105324952Y-50828072D01*
X105223504Y-50979901D01*
X105153624Y-51148604D01*
X105118000Y-51327699D01*
X104972000Y-51327699D01*
X104936376Y-51148604D01*
X104866496Y-50979901D01*
X104765048Y-50828072D01*
X104635928Y-50698952D01*
X104484099Y-50597504D01*
X104315396Y-50527624D01*
X104136301Y-50492000D01*
X103953699Y-50492000D01*
X103774604Y-50527624D01*
X103605901Y-50597504D01*
X103454072Y-50698952D01*
X103324952Y-50828072D01*
X103223504Y-50979901D01*
X103153624Y-51148604D01*
X103118000Y-51327699D01*
X101654066Y-51327699D01*
X101809591Y-51094938D01*
X101917162Y-50835241D01*
X101972000Y-50559547D01*
X101972000Y-50278453D01*
X101926366Y-50049030D01*
X103415677Y-50049030D01*
X103465997Y-50216780D01*
X103632761Y-50314409D01*
X103815368Y-50377628D01*
X104006799Y-50404008D01*
X104199698Y-50392533D01*
X104386653Y-50343647D01*
X104560478Y-50259227D01*
X104624003Y-50216780D01*
X104674323Y-50049030D01*
X104045000Y-49419707D01*
X103415677Y-50049030D01*
X101926366Y-50049030D01*
X101917162Y-50002759D01*
X101809591Y-49743062D01*
X101653424Y-49509340D01*
X101524883Y-49380799D01*
X103059992Y-49380799D01*
X103071467Y-49573698D01*
X103120353Y-49760653D01*
X103204773Y-49934478D01*
X103247220Y-49998003D01*
X103414970Y-50048323D01*
X104044293Y-49419000D01*
X104045707Y-49419000D01*
X104675030Y-50048323D01*
X104842780Y-49998003D01*
X104940409Y-49831239D01*
X105003628Y-49648632D01*
X105030008Y-49457201D01*
X105022305Y-49327699D01*
X105118000Y-49327699D01*
X105118000Y-49510301D01*
X105153624Y-49689396D01*
X105223504Y-49858099D01*
X105324952Y-50009928D01*
X105454072Y-50139048D01*
X105605901Y-50240496D01*
X105774604Y-50310376D01*
X105953699Y-50346000D01*
X106136301Y-50346000D01*
X106315396Y-50310376D01*
X106484099Y-50240496D01*
X106635928Y-50139048D01*
X106765048Y-50009928D01*
X106866496Y-49858099D01*
X106936376Y-49689396D01*
X106972000Y-49510301D01*
X106972000Y-49327699D01*
X106936376Y-49148604D01*
X106866496Y-48979901D01*
X106765048Y-48828072D01*
X106755976Y-48819000D01*
X107116418Y-48819000D01*
X107116418Y-50019000D01*
X107122732Y-50083103D01*
X107141430Y-50144743D01*
X107171794Y-50201550D01*
X107212657Y-50251343D01*
X107262450Y-50292206D01*
X107319257Y-50322570D01*
X107380897Y-50341268D01*
X107445000Y-50347582D01*
X108645000Y-50347582D01*
X108709103Y-50341268D01*
X108770743Y-50322570D01*
X108827550Y-50292206D01*
X108844308Y-50278453D01*
X110118000Y-50278453D01*
X110118000Y-50559547D01*
X110172838Y-50835241D01*
X110280409Y-51094938D01*
X110436576Y-51328660D01*
X110635340Y-51527424D01*
X110869062Y-51683591D01*
X111128759Y-51791162D01*
X111404453Y-51846000D01*
X111685547Y-51846000D01*
X111961241Y-51791162D01*
X112220938Y-51683591D01*
X112454660Y-51527424D01*
X112653424Y-51328660D01*
X112809591Y-51094938D01*
X112917162Y-50835241D01*
X112972000Y-50559547D01*
X112972000Y-50278453D01*
X112917162Y-50002759D01*
X112849495Y-49839397D01*
X123352000Y-49839397D01*
X123352000Y-49982603D01*
X123379938Y-50123058D01*
X123434741Y-50255364D01*
X123514302Y-50374436D01*
X123615564Y-50475698D01*
X123734636Y-50555259D01*
X123866942Y-50610062D01*
X124007397Y-50638000D01*
X124150603Y-50638000D01*
X124291058Y-50610062D01*
X124423364Y-50555259D01*
X124542436Y-50475698D01*
X124643698Y-50374436D01*
X124723259Y-50255364D01*
X124778062Y-50123058D01*
X124806000Y-49982603D01*
X124806000Y-49839397D01*
X124778062Y-49698942D01*
X124723259Y-49566636D01*
X124643698Y-49447564D01*
X124542436Y-49346302D01*
X124423364Y-49266741D01*
X124291058Y-49211938D01*
X124150603Y-49184000D01*
X124007397Y-49184000D01*
X123866942Y-49211938D01*
X123734636Y-49266741D01*
X123615564Y-49346302D01*
X123514302Y-49447564D01*
X123434741Y-49566636D01*
X123379938Y-49698942D01*
X123352000Y-49839397D01*
X112849495Y-49839397D01*
X112809591Y-49743062D01*
X112653424Y-49509340D01*
X112454660Y-49310576D01*
X112220938Y-49154409D01*
X111961241Y-49046838D01*
X111685547Y-48992000D01*
X111404453Y-48992000D01*
X111128759Y-49046838D01*
X110869062Y-49154409D01*
X110635340Y-49310576D01*
X110436576Y-49509340D01*
X110280409Y-49743062D01*
X110172838Y-50002759D01*
X110118000Y-50278453D01*
X108844308Y-50278453D01*
X108877343Y-50251343D01*
X108918206Y-50201550D01*
X108948570Y-50144743D01*
X108967268Y-50083103D01*
X108973582Y-50019000D01*
X108973582Y-48819000D01*
X108967268Y-48754897D01*
X108948570Y-48693257D01*
X108918206Y-48636450D01*
X108877343Y-48586657D01*
X108827550Y-48545794D01*
X108770743Y-48515430D01*
X108709103Y-48496732D01*
X108645000Y-48490418D01*
X107445000Y-48490418D01*
X107380897Y-48496732D01*
X107319257Y-48515430D01*
X107262450Y-48545794D01*
X107212657Y-48586657D01*
X107171794Y-48636450D01*
X107141430Y-48693257D01*
X107122732Y-48754897D01*
X107116418Y-48819000D01*
X106755976Y-48819000D01*
X106635928Y-48698952D01*
X106484099Y-48597504D01*
X106315396Y-48527624D01*
X106136301Y-48492000D01*
X105953699Y-48492000D01*
X105774604Y-48527624D01*
X105605901Y-48597504D01*
X105454072Y-48698952D01*
X105324952Y-48828072D01*
X105223504Y-48979901D01*
X105153624Y-49148604D01*
X105118000Y-49327699D01*
X105022305Y-49327699D01*
X105018533Y-49264302D01*
X104969647Y-49077347D01*
X104885227Y-48903522D01*
X104842780Y-48839997D01*
X104675030Y-48789677D01*
X104045707Y-49419000D01*
X104044293Y-49419000D01*
X103414970Y-48789677D01*
X103247220Y-48839997D01*
X103149591Y-49006761D01*
X103086372Y-49189368D01*
X103059992Y-49380799D01*
X101524883Y-49380799D01*
X101454660Y-49310576D01*
X101220938Y-49154409D01*
X100961241Y-49046838D01*
X100685547Y-48992000D01*
X100404453Y-48992000D01*
X100128759Y-49046838D01*
X99869062Y-49154409D01*
X99635340Y-49310576D01*
X99436576Y-49509340D01*
X99280409Y-49743062D01*
X99172838Y-50002759D01*
X99118000Y-50278453D01*
X85777201Y-50278453D01*
X85805417Y-50245417D01*
X86541925Y-49616380D01*
X87367764Y-49110306D01*
X88262612Y-48739647D01*
X89204420Y-48513540D01*
X90176950Y-48437000D01*
X104032635Y-48437000D01*
X103890302Y-48445467D01*
%TA.AperFunction,Conductor*%
D22*
G36*
X103890302Y-48445467D02*
G01*
X103703347Y-48494353D01*
X103529522Y-48578773D01*
X103465997Y-48621220D01*
X103415677Y-48788970D01*
X104045000Y-49418293D01*
X104674323Y-48788970D01*
X104624003Y-48621220D01*
X104457239Y-48523591D01*
X104274632Y-48460372D01*
X104105029Y-48437000D01*
X171443051Y-48437000D01*
X172415585Y-48513540D01*
X173357388Y-48739647D01*
X174252239Y-49110307D01*
X175078075Y-49616379D01*
X175814583Y-50245417D01*
X176443620Y-50981925D01*
X176949694Y-51807764D01*
X177320353Y-52702612D01*
X177546460Y-53644420D01*
X177623000Y-54616950D01*
X177623001Y-140963037D01*
X177546460Y-141935580D01*
X177320353Y-142877388D01*
X176949694Y-143772236D01*
X176443620Y-144598075D01*
X175814583Y-145334583D01*
X175078075Y-145963621D01*
X174252239Y-146469693D01*
X173357388Y-146840353D01*
X172598104Y-147022641D01*
X145282900Y-147022641D01*
X144523612Y-146840353D01*
X143628764Y-146469694D01*
X142802925Y-145963620D01*
X142066417Y-145334583D01*
X141437379Y-144598075D01*
X140931307Y-143772239D01*
X140560647Y-142877388D01*
X140334540Y-141935585D01*
X140258000Y-140963051D01*
X140258000Y-140593073D01*
X142604000Y-140593073D01*
X142604000Y-141346927D01*
X142751070Y-142086295D01*
X143039557Y-142782764D01*
X143458375Y-143409570D01*
X143991430Y-143942625D01*
X144618236Y-144361443D01*
X145314705Y-144649930D01*
X146054073Y-144797000D01*
X146807927Y-144797000D01*
X147547295Y-144649930D01*
X148243764Y-144361443D01*
X148870570Y-143942625D01*
X149403625Y-143409570D01*
X149822443Y-142782764D01*
X150110930Y-142086295D01*
X150258000Y-141346927D01*
X150258000Y-140593073D01*
X167623000Y-140593073D01*
X167623000Y-141346927D01*
X167770070Y-142086295D01*
X168058557Y-142782764D01*
X168477375Y-143409570D01*
X169010430Y-143942625D01*
X169637236Y-144361443D01*
X170333705Y-144649930D01*
X171073073Y-144797000D01*
X171826927Y-144797000D01*
X172566295Y-144649930D01*
X173262764Y-144361443D01*
X173889570Y-143942625D01*
X174422625Y-143409570D01*
X174841443Y-142782764D01*
X175129930Y-142086295D01*
X175277000Y-141346927D01*
X175277000Y-140593073D01*
X175129930Y-139853705D01*
X174841443Y-139157236D01*
X174422625Y-138530430D01*
X173889570Y-137997375D01*
X173262764Y-137578557D01*
X172566295Y-137290070D01*
X171826927Y-137143000D01*
X171073073Y-137143000D01*
X170333705Y-137290070D01*
X169637236Y-137578557D01*
X169010430Y-137997375D01*
X168477375Y-138530430D01*
X168058557Y-139157236D01*
X167770070Y-139853705D01*
X167623000Y-140593073D01*
X150258000Y-140593073D01*
X150110930Y-139853705D01*
X149822443Y-139157236D01*
X149403625Y-138530430D01*
X148870570Y-137997375D01*
X148243764Y-137578557D01*
X147547295Y-137290070D01*
X146807927Y-137143000D01*
X146054073Y-137143000D01*
X145314705Y-137290070D01*
X144618236Y-137578557D01*
X143991430Y-137997375D01*
X143458375Y-138530430D01*
X143039557Y-139157236D01*
X142751070Y-139853705D01*
X142604000Y-140593073D01*
X140258000Y-140593073D01*
X140258000Y-125150397D01*
X156499000Y-125150397D01*
X156499000Y-125293603D01*
X156526938Y-125434058D01*
X156581741Y-125566364D01*
X156661302Y-125685436D01*
X156762564Y-125786698D01*
X156881636Y-125866259D01*
X157013942Y-125921062D01*
X157154397Y-125949000D01*
X157297603Y-125949000D01*
X157438058Y-125921062D01*
X157570364Y-125866259D01*
X157689436Y-125786698D01*
X157790698Y-125685436D01*
X157870259Y-125566364D01*
X157925062Y-125434058D01*
X157953000Y-125293603D01*
X157953000Y-125150397D01*
X157925062Y-125009942D01*
X157870259Y-124877636D01*
X157790698Y-124758564D01*
X157689436Y-124657302D01*
X157570364Y-124577741D01*
X157438058Y-124522938D01*
X157297603Y-124495000D01*
X157154397Y-124495000D01*
X157013942Y-124522938D01*
X156881636Y-124577741D01*
X156762564Y-124657302D01*
X156661302Y-124758564D01*
X156581741Y-124877636D01*
X156526938Y-125009942D01*
X156499000Y-125150397D01*
X140258000Y-125150397D01*
X140258000Y-124261397D01*
X166532000Y-124261397D01*
X166532000Y-124404603D01*
X166559938Y-124545058D01*
X166614741Y-124677364D01*
X166694302Y-124796436D01*
X166795564Y-124897698D01*
X166914636Y-124977259D01*
X167046942Y-125032062D01*
X167187397Y-125060000D01*
X167330603Y-125060000D01*
X167471058Y-125032062D01*
X167603364Y-124977259D01*
X167722436Y-124897698D01*
X167823698Y-124796436D01*
X167903259Y-124677364D01*
X167958062Y-124545058D01*
X167986000Y-124404603D01*
X167986000Y-124261397D01*
X167958062Y-124120942D01*
X167903259Y-123988636D01*
X167823698Y-123869564D01*
X167722436Y-123768302D01*
X167603364Y-123688741D01*
X167471058Y-123633938D01*
X167330603Y-123606000D01*
X167187397Y-123606000D01*
X167046942Y-123633938D01*
X166914636Y-123688741D01*
X166795564Y-123768302D01*
X166694302Y-123869564D01*
X166614741Y-123988636D01*
X166559938Y-124120942D01*
X166532000Y-124261397D01*
X140258000Y-124261397D01*
X140258000Y-123202397D01*
X171528000Y-123202397D01*
X171528000Y-123345603D01*
X171555938Y-123486058D01*
X171610741Y-123618364D01*
X171690302Y-123737436D01*
X171791564Y-123838698D01*
X171910636Y-123918259D01*
X172042942Y-123973062D01*
X172183397Y-124001000D01*
X172326603Y-124001000D01*
X172467058Y-123973062D01*
X172599364Y-123918259D01*
X172718436Y-123838698D01*
X172819698Y-123737436D01*
X172899259Y-123618364D01*
X172954062Y-123486058D01*
X172982000Y-123345603D01*
X172982000Y-123202397D01*
X172954062Y-123061942D01*
X172899259Y-122929636D01*
X172819698Y-122810564D01*
X172718436Y-122709302D01*
X172599364Y-122629741D01*
X172467058Y-122574938D01*
X172326603Y-122547000D01*
X172183397Y-122547000D01*
X172042942Y-122574938D01*
X171910636Y-122629741D01*
X171791564Y-122709302D01*
X171690302Y-122810564D01*
X171610741Y-122929636D01*
X171555938Y-123061942D01*
X171528000Y-123202397D01*
X140258000Y-123202397D01*
X140258000Y-122229397D01*
X152308000Y-122229397D01*
X152308000Y-122372603D01*
X152335938Y-122513058D01*
X152390741Y-122645364D01*
X152470302Y-122764436D01*
X152571564Y-122865698D01*
X152690636Y-122945259D01*
X152822942Y-123000062D01*
X152963397Y-123028000D01*
X153106603Y-123028000D01*
X153247058Y-123000062D01*
X153379364Y-122945259D01*
X153498436Y-122865698D01*
X153599698Y-122764436D01*
X153679259Y-122645364D01*
X153734062Y-122513058D01*
X153762000Y-122372603D01*
X153762000Y-122229397D01*
X153734062Y-122088942D01*
X153679259Y-121956636D01*
X153599698Y-121837564D01*
X153498436Y-121736302D01*
X153379364Y-121656741D01*
X153247058Y-121601938D01*
X153106603Y-121574000D01*
X152963397Y-121574000D01*
X152822942Y-121601938D01*
X152690636Y-121656741D01*
X152571564Y-121736302D01*
X152470302Y-121837564D01*
X152390741Y-121956636D01*
X152335938Y-122088942D01*
X152308000Y-122229397D01*
X140258000Y-122229397D01*
X140258000Y-119673000D01*
X143474418Y-119673000D01*
X143474418Y-121373000D01*
X143480732Y-121437103D01*
X143499430Y-121498743D01*
X143529794Y-121555550D01*
X143570657Y-121605343D01*
X143620450Y-121646206D01*
X143677257Y-121676570D01*
X143738897Y-121695268D01*
X143803000Y-121701582D01*
X145503000Y-121701582D01*
X145567103Y-121695268D01*
X145628743Y-121676570D01*
X145685550Y-121646206D01*
X145735343Y-121605343D01*
X145776206Y-121555550D01*
X145806570Y-121498743D01*
X145825268Y-121437103D01*
X145831582Y-121373000D01*
X145831582Y-119673000D01*
X145825268Y-119608897D01*
X145806570Y-119547257D01*
X145776206Y-119490450D01*
X145735343Y-119440657D01*
X145685550Y-119399794D01*
X145628743Y-119369430D01*
X145567103Y-119350732D01*
X145503000Y-119344418D01*
X143803000Y-119344418D01*
X143738897Y-119350732D01*
X143677257Y-119369430D01*
X143620450Y-119399794D01*
X143570657Y-119440657D01*
X143529794Y-119490450D01*
X143499430Y-119547257D01*
X143480732Y-119608897D01*
X143474418Y-119673000D01*
X140258000Y-119673000D01*
X140258000Y-117867076D01*
X143476000Y-117867076D01*
X143476000Y-118098924D01*
X143521231Y-118326318D01*
X143609956Y-118540519D01*
X143738764Y-118733294D01*
X143902706Y-118897236D01*
X144095481Y-119026044D01*
X144309682Y-119114769D01*
X144537076Y-119160000D01*
X144768924Y-119160000D01*
X144996318Y-119114769D01*
X145210519Y-119026044D01*
X145358154Y-118927397D01*
X165262000Y-118927397D01*
X165262000Y-119070603D01*
X165289938Y-119211058D01*
X165344741Y-119343364D01*
X165424302Y-119462436D01*
X165525564Y-119563698D01*
X165644636Y-119643259D01*
X165776942Y-119698062D01*
X165917397Y-119726000D01*
X166060603Y-119726000D01*
X166201058Y-119698062D01*
X166333364Y-119643259D01*
X166452436Y-119563698D01*
X166553698Y-119462436D01*
X166633259Y-119343364D01*
X166688062Y-119211058D01*
X166716000Y-119070603D01*
X166716000Y-118927397D01*
X166688062Y-118786942D01*
X166633259Y-118654636D01*
X166553698Y-118535564D01*
X166452436Y-118434302D01*
X166333364Y-118354741D01*
X166201058Y-118299938D01*
X166060603Y-118272000D01*
X165917397Y-118272000D01*
X165776942Y-118299938D01*
X165644636Y-118354741D01*
X165525564Y-118434302D01*
X165424302Y-118535564D01*
X165344741Y-118654636D01*
X165289938Y-118786942D01*
X165262000Y-118927397D01*
X145358154Y-118927397D01*
X145403294Y-118897236D01*
X145567236Y-118733294D01*
X145696044Y-118540519D01*
X145784769Y-118326318D01*
X145830000Y-118098924D01*
X145830000Y-117867076D01*
X145784769Y-117639682D01*
X145696044Y-117425481D01*
X145567236Y-117232706D01*
X145403294Y-117068764D01*
X145210519Y-116939956D01*
X144996318Y-116851231D01*
X144768924Y-116806000D01*
X144537076Y-116806000D01*
X144309682Y-116851231D01*
X144095481Y-116939956D01*
X143902706Y-117068764D01*
X143738764Y-117232706D01*
X143609956Y-117425481D01*
X143521231Y-117639682D01*
X143476000Y-117867076D01*
X140258000Y-117867076D01*
X140258000Y-110755076D01*
X143476000Y-110755076D01*
X143476000Y-110986924D01*
X143521231Y-111214318D01*
X143609956Y-111428519D01*
X143738764Y-111621294D01*
X143902706Y-111785236D01*
X144095481Y-111914044D01*
X144309682Y-112002769D01*
X144537076Y-112048000D01*
X144768924Y-112048000D01*
X144996318Y-112002769D01*
X145210519Y-111914044D01*
X145403294Y-111785236D01*
X145567236Y-111621294D01*
X145696044Y-111428519D01*
X145784769Y-111214318D01*
X145830000Y-110986924D01*
X145830000Y-110755076D01*
X145784769Y-110527682D01*
X145696044Y-110313481D01*
X145567236Y-110120706D01*
X145403294Y-109956764D01*
X145210519Y-109827956D01*
X144996318Y-109739231D01*
X144768924Y-109694000D01*
X144537076Y-109694000D01*
X144309682Y-109739231D01*
X144095481Y-109827956D01*
X143902706Y-109956764D01*
X143738764Y-110120706D01*
X143609956Y-110313481D01*
X143521231Y-110527682D01*
X143476000Y-110755076D01*
X140258000Y-110755076D01*
X140258000Y-109592308D01*
X140257317Y-109585373D01*
X140225493Y-109181000D01*
X143420157Y-109181000D01*
X143427513Y-109255689D01*
X143449299Y-109327508D01*
X143484678Y-109393696D01*
X143532289Y-109451711D01*
X143590304Y-109499322D01*
X143656492Y-109534701D01*
X143728311Y-109556487D01*
X143803000Y-109563843D01*
X144557250Y-109562000D01*
X144652500Y-109466750D01*
X144652500Y-108331500D01*
X144653500Y-108331500D01*
X144653500Y-109466750D01*
X144748750Y-109562000D01*
X145503000Y-109563843D01*
X145577689Y-109556487D01*
X145649508Y-109534701D01*
X145715696Y-109499322D01*
X145773711Y-109451711D01*
X145821322Y-109393696D01*
X145856701Y-109327508D01*
X145878487Y-109255689D01*
X145885843Y-109181000D01*
X145884000Y-108426750D01*
X145788750Y-108331500D01*
X144653500Y-108331500D01*
X144652500Y-108331500D01*
X143517250Y-108331500D01*
X143422000Y-108426750D01*
X143420157Y-109181000D01*
X140225493Y-109181000D01*
X140179275Y-108593754D01*
X140174931Y-108566321D01*
X140174927Y-108566309D01*
X139942321Y-107597434D01*
X139942319Y-107597422D01*
X139933736Y-107571007D01*
X139896454Y-107481000D01*
X143420157Y-107481000D01*
X143422000Y-108235250D01*
X143517250Y-108330500D01*
X144652500Y-108330500D01*
X144652500Y-107195250D01*
X144653500Y-107195250D01*
X144653500Y-108330500D01*
X145788750Y-108330500D01*
X145884000Y-108235250D01*
X145885843Y-107481000D01*
X145878487Y-107406311D01*
X145856701Y-107334492D01*
X145821322Y-107268304D01*
X145773711Y-107210289D01*
X145715696Y-107162678D01*
X145649508Y-107127299D01*
X145577689Y-107105513D01*
X145503000Y-107098157D01*
X144748750Y-107100000D01*
X144653500Y-107195250D01*
X144652500Y-107195250D01*
X144557250Y-107100000D01*
X143803000Y-107098157D01*
X143728311Y-107105513D01*
X143656492Y-107127299D01*
X143590304Y-107162678D01*
X143532289Y-107210289D01*
X143484678Y-107268304D01*
X143449299Y-107334492D01*
X143427513Y-107406311D01*
X143420157Y-107481000D01*
X139896454Y-107481000D01*
X139552418Y-106650425D01*
X139539808Y-106625678D01*
X139019181Y-105776092D01*
X139019176Y-105776082D01*
X139002850Y-105753612D01*
X138355720Y-104995920D01*
X138336080Y-104976280D01*
X137578395Y-104329156D01*
X137578389Y-104329150D01*
X137555919Y-104312825D01*
X137555918Y-104312824D01*
X137555914Y-104312822D01*
X136706328Y-103792196D01*
X136706323Y-103792192D01*
X136681575Y-103779582D01*
X135760993Y-103398264D01*
X135734578Y-103389681D01*
X135734575Y-103389681D01*
X134765691Y-103157073D01*
X134765679Y-103157069D01*
X134750783Y-103154710D01*
X134738246Y-103152724D01*
X134738234Y-103152724D01*
X133746627Y-103074683D01*
X133739692Y-103074000D01*
X90176950Y-103074000D01*
X89204420Y-102997460D01*
X88262612Y-102771353D01*
X87367764Y-102400694D01*
X86541925Y-101894620D01*
X85805417Y-101265583D01*
X85176379Y-100529075D01*
X84815944Y-99940897D01*
X95285000Y-99940897D01*
X95285000Y-100084103D01*
X95312938Y-100224558D01*
X95367741Y-100356864D01*
X95447302Y-100475936D01*
X95548564Y-100577198D01*
X95667636Y-100656759D01*
X95799942Y-100711562D01*
X95940397Y-100739500D01*
X96083603Y-100739500D01*
X96224058Y-100711562D01*
X96356364Y-100656759D01*
X96475436Y-100577198D01*
X96576698Y-100475936D01*
X96656259Y-100356864D01*
X96711062Y-100224558D01*
X96739000Y-100084103D01*
X96739000Y-100044932D01*
X98220856Y-98563076D01*
X102836000Y-98563076D01*
X102836000Y-98794924D01*
X102881231Y-99022318D01*
X102969956Y-99236519D01*
X103098764Y-99429294D01*
X103262706Y-99593236D01*
X103455481Y-99722044D01*
X103669682Y-99810769D01*
X103897076Y-99856000D01*
X104128924Y-99856000D01*
X104356318Y-99810769D01*
X104570519Y-99722044D01*
X104763294Y-99593236D01*
X104927236Y-99429294D01*
X105056044Y-99236519D01*
X105066502Y-99211270D01*
X105088993Y-99285412D01*
X105235428Y-99559373D01*
X105432498Y-99799503D01*
X105672628Y-99996572D01*
X105946589Y-100143007D01*
X106243855Y-100233182D01*
X106553000Y-100263630D01*
X106862146Y-100233182D01*
X107159412Y-100143007D01*
X107433373Y-99996572D01*
X107673503Y-99799503D01*
X107870572Y-99559373D01*
X108017007Y-99285412D01*
X108039498Y-99211270D01*
X108049956Y-99236519D01*
X108178764Y-99429294D01*
X108342706Y-99593236D01*
X108535481Y-99722044D01*
X108749682Y-99810769D01*
X108977076Y-99856000D01*
X109208924Y-99856000D01*
X109436318Y-99810769D01*
X109650519Y-99722044D01*
X109843294Y-99593236D01*
X109907530Y-99529000D01*
X110400157Y-99529000D01*
X110407513Y-99603689D01*
X110429299Y-99675508D01*
X110464678Y-99741696D01*
X110512289Y-99799711D01*
X110570304Y-99847322D01*
X110636492Y-99882701D01*
X110708311Y-99904487D01*
X110783000Y-99911843D01*
X111537250Y-99910000D01*
X111632500Y-99814750D01*
X111632500Y-98679500D01*
X111633500Y-98679500D01*
X111633500Y-99814750D01*
X111728750Y-99910000D01*
X112483000Y-99911843D01*
X112557689Y-99904487D01*
X112629508Y-99882701D01*
X112695696Y-99847322D01*
X112753711Y-99799711D01*
X112801322Y-99741696D01*
X112836701Y-99675508D01*
X112858487Y-99603689D01*
X112865843Y-99529000D01*
X112865328Y-99318073D01*
X142604000Y-99318073D01*
X142604000Y-100071927D01*
X142751070Y-100811295D01*
X143039557Y-101507764D01*
X143458375Y-102134570D01*
X143991430Y-102667625D01*
X144618236Y-103086443D01*
X145314705Y-103374930D01*
X146054073Y-103522000D01*
X146807927Y-103522000D01*
X147547295Y-103374930D01*
X148243764Y-103086443D01*
X148870570Y-102667625D01*
X149403625Y-102134570D01*
X149822443Y-101507764D01*
X150110930Y-100811295D01*
X150258000Y-100071927D01*
X150258000Y-99318073D01*
X150110930Y-98578705D01*
X149822443Y-97882236D01*
X149403625Y-97255430D01*
X148870570Y-96722375D01*
X148243764Y-96303557D01*
X147547295Y-96015070D01*
X146807927Y-95868000D01*
X146054073Y-95868000D01*
X145314705Y-96015070D01*
X144618236Y-96303557D01*
X143991430Y-96722375D01*
X143458375Y-97255430D01*
X143039557Y-97882236D01*
X142751070Y-98578705D01*
X142604000Y-99318073D01*
X112865328Y-99318073D01*
X112864000Y-98774750D01*
X112768750Y-98679500D01*
X111633500Y-98679500D01*
X111632500Y-98679500D01*
X110497250Y-98679500D01*
X110402000Y-98774750D01*
X110400157Y-99529000D01*
X109907530Y-99529000D01*
X110007236Y-99429294D01*
X110136044Y-99236519D01*
X110224769Y-99022318D01*
X110270000Y-98794924D01*
X110270000Y-98563076D01*
X110224769Y-98335682D01*
X110136044Y-98121481D01*
X110007236Y-97928706D01*
X109907530Y-97829000D01*
X110400157Y-97829000D01*
X110402000Y-98583250D01*
X110497250Y-98678500D01*
X111632500Y-98678500D01*
X111632500Y-97543250D01*
X111633500Y-97543250D01*
X111633500Y-98678500D01*
X112768750Y-98678500D01*
X112864000Y-98583250D01*
X112865843Y-97829000D01*
X112858487Y-97754311D01*
X112836701Y-97682492D01*
X112801322Y-97616304D01*
X112753711Y-97558289D01*
X112695696Y-97510678D01*
X112629508Y-97475299D01*
X112557689Y-97453513D01*
X112483000Y-97446157D01*
X111728750Y-97448000D01*
X111633500Y-97543250D01*
X111632500Y-97543250D01*
X111537250Y-97448000D01*
X110783000Y-97446157D01*
X110708311Y-97453513D01*
X110636492Y-97475299D01*
X110570304Y-97510678D01*
X110512289Y-97558289D01*
X110464678Y-97616304D01*
X110429299Y-97682492D01*
X110407513Y-97754311D01*
X110400157Y-97829000D01*
X109907530Y-97829000D01*
X109843294Y-97764764D01*
X109650519Y-97635956D01*
X109436318Y-97547231D01*
X109208924Y-97502000D01*
X109096213Y-97502000D01*
X109319326Y-97278887D01*
X109379502Y-97229502D01*
X109576571Y-96989372D01*
X109723006Y-96715411D01*
X109813181Y-96418145D01*
X109835999Y-96186468D01*
X109835999Y-96186466D01*
X109843629Y-96108999D01*
X109835999Y-96031532D01*
X109835999Y-87939397D01*
X112557000Y-87939397D01*
X112557000Y-88082603D01*
X112584938Y-88223058D01*
X112639741Y-88355364D01*
X112719302Y-88474436D01*
X112820564Y-88575698D01*
X112939636Y-88655259D01*
X113071942Y-88710062D01*
X113212397Y-88738000D01*
X113355603Y-88738000D01*
X113496058Y-88710062D01*
X113628364Y-88655259D01*
X113747436Y-88575698D01*
X113848698Y-88474436D01*
X113928259Y-88355364D01*
X113983062Y-88223058D01*
X114011000Y-88082603D01*
X114011000Y-87939397D01*
X113983062Y-87798942D01*
X113928259Y-87666636D01*
X113848698Y-87547564D01*
X113747436Y-87446302D01*
X113628364Y-87366741D01*
X113496058Y-87311938D01*
X113355603Y-87284000D01*
X113212397Y-87284000D01*
X113071942Y-87311938D01*
X112939636Y-87366741D01*
X112820564Y-87446302D01*
X112719302Y-87547564D01*
X112639741Y-87666636D01*
X112584938Y-87798942D01*
X112557000Y-87939397D01*
X109835999Y-87939397D01*
X109835999Y-85434215D01*
X110649214Y-84621000D01*
X111978418Y-84621000D01*
X111978418Y-86321000D01*
X111984732Y-86385103D01*
X112003430Y-86446743D01*
X112033794Y-86503550D01*
X112074657Y-86553343D01*
X112124450Y-86594206D01*
X112181257Y-86624570D01*
X112242897Y-86643268D01*
X112307000Y-86649582D01*
X114007000Y-86649582D01*
X114071103Y-86643268D01*
X114132743Y-86624570D01*
X114189550Y-86594206D01*
X114239343Y-86553343D01*
X114280206Y-86503550D01*
X114310570Y-86446743D01*
X114329268Y-86385103D01*
X114335582Y-86321000D01*
X114335582Y-85272397D01*
X116748000Y-85272397D01*
X116748000Y-85415603D01*
X116775938Y-85556058D01*
X116830741Y-85688364D01*
X116910302Y-85807436D01*
X117011564Y-85908698D01*
X117130636Y-85988259D01*
X117262942Y-86043062D01*
X117403397Y-86071000D01*
X117546603Y-86071000D01*
X117687058Y-86043062D01*
X117819364Y-85988259D01*
X117938436Y-85908698D01*
X118039698Y-85807436D01*
X118119259Y-85688364D01*
X118174062Y-85556058D01*
X118202000Y-85415603D01*
X118202000Y-85272397D01*
X120812000Y-85272397D01*
X120812000Y-85415603D01*
X120839938Y-85556058D01*
X120894741Y-85688364D01*
X120974302Y-85807436D01*
X121075564Y-85908698D01*
X121194636Y-85988259D01*
X121326942Y-86043062D01*
X121467397Y-86071000D01*
X121610603Y-86071000D01*
X121751058Y-86043062D01*
X121883364Y-85988259D01*
X122002436Y-85908698D01*
X122103698Y-85807436D01*
X122183259Y-85688364D01*
X122238062Y-85556058D01*
X122266000Y-85415603D01*
X122266000Y-85272397D01*
X122238062Y-85131942D01*
X122183259Y-84999636D01*
X122103698Y-84880564D01*
X122002436Y-84779302D01*
X121883364Y-84699741D01*
X121751058Y-84644938D01*
X121610603Y-84617000D01*
X121467397Y-84617000D01*
X121326942Y-84644938D01*
X121194636Y-84699741D01*
X121075564Y-84779302D01*
X120974302Y-84880564D01*
X120894741Y-84999636D01*
X120839938Y-85131942D01*
X120812000Y-85272397D01*
X118202000Y-85272397D01*
X118174062Y-85131942D01*
X118119259Y-84999636D01*
X118039698Y-84880564D01*
X117938436Y-84779302D01*
X117819364Y-84699741D01*
X117687058Y-84644938D01*
X117546603Y-84617000D01*
X117403397Y-84617000D01*
X117262942Y-84644938D01*
X117130636Y-84699741D01*
X117011564Y-84779302D01*
X116910302Y-84880564D01*
X116830741Y-84999636D01*
X116775938Y-85131942D01*
X116748000Y-85272397D01*
X114335582Y-85272397D01*
X114335582Y-84621000D01*
X114329268Y-84556897D01*
X114310570Y-84495257D01*
X114280206Y-84438450D01*
X114239343Y-84388657D01*
X114189550Y-84347794D01*
X114132743Y-84317430D01*
X114071103Y-84298732D01*
X114007000Y-84292418D01*
X112307000Y-84292418D01*
X112242897Y-84298732D01*
X112181257Y-84317430D01*
X112124450Y-84347794D01*
X112074657Y-84388657D01*
X112033794Y-84438450D01*
X112003430Y-84495257D01*
X111984732Y-84556897D01*
X111978418Y-84621000D01*
X110649214Y-84621000D01*
X111267817Y-84002397D01*
X141132000Y-84002397D01*
X141132000Y-84145603D01*
X141159938Y-84286058D01*
X141214741Y-84418364D01*
X141294302Y-84537436D01*
X141395564Y-84638698D01*
X141514636Y-84718259D01*
X141646942Y-84773062D01*
X141787397Y-84801000D01*
X141930603Y-84801000D01*
X142071058Y-84773062D01*
X142203364Y-84718259D01*
X142322436Y-84638698D01*
X142423698Y-84537436D01*
X142503259Y-84418364D01*
X142558062Y-84286058D01*
X142586000Y-84145603D01*
X142586000Y-84002397D01*
X142558062Y-83861942D01*
X142503259Y-83729636D01*
X142423698Y-83610564D01*
X142322436Y-83509302D01*
X142203364Y-83429741D01*
X142071058Y-83374938D01*
X141930603Y-83347000D01*
X141787397Y-83347000D01*
X141646942Y-83374938D01*
X141514636Y-83429741D01*
X141395564Y-83509302D01*
X141294302Y-83610564D01*
X141214741Y-83729636D01*
X141159938Y-83861942D01*
X141132000Y-84002397D01*
X111267817Y-84002397D01*
X112294885Y-82975329D01*
X112442571Y-82795374D01*
X112589006Y-82521412D01*
X112640579Y-82351397D01*
X116494000Y-82351397D01*
X116494000Y-82494603D01*
X116521938Y-82635058D01*
X116576741Y-82767364D01*
X116656302Y-82886436D01*
X116757564Y-82987698D01*
X116876636Y-83067259D01*
X117008942Y-83122062D01*
X117149397Y-83150000D01*
X117292603Y-83150000D01*
X117433058Y-83122062D01*
X117565364Y-83067259D01*
X117684436Y-82987698D01*
X117785698Y-82886436D01*
X117865259Y-82767364D01*
X117920062Y-82635058D01*
X117948000Y-82494603D01*
X117948000Y-82351397D01*
X117920062Y-82210942D01*
X117865259Y-82078636D01*
X117785698Y-81959564D01*
X117684436Y-81858302D01*
X117565364Y-81778741D01*
X117433058Y-81723938D01*
X117292603Y-81696000D01*
X117149397Y-81696000D01*
X117008942Y-81723938D01*
X116876636Y-81778741D01*
X116757564Y-81858302D01*
X116656302Y-81959564D01*
X116576741Y-82078636D01*
X116521938Y-82210942D01*
X116494000Y-82351397D01*
X112640579Y-82351397D01*
X112679181Y-82224147D01*
X112709630Y-81915001D01*
X112679181Y-81605854D01*
X112589006Y-81308590D01*
X112442571Y-81034627D01*
X112245502Y-80794498D01*
X112005373Y-80597429D01*
X111731410Y-80450994D01*
X111434146Y-80360819D01*
X111124999Y-80330370D01*
X110815853Y-80360819D01*
X110518588Y-80450994D01*
X110244626Y-80597429D01*
X110064671Y-80745115D01*
X107198678Y-83611108D01*
X107138496Y-83660498D01*
X106941427Y-83900629D01*
X106794992Y-84174590D01*
X106704817Y-84471856D01*
X106681999Y-84703532D01*
X106674369Y-84781001D01*
X106681999Y-84858468D01*
X106681999Y-85058456D01*
X106641000Y-85054418D01*
X104941000Y-85054418D01*
X104876897Y-85060732D01*
X104815257Y-85079430D01*
X104758450Y-85109794D01*
X104708657Y-85150657D01*
X104667794Y-85200450D01*
X104637430Y-85257257D01*
X104618732Y-85318897D01*
X104612418Y-85383000D01*
X104612418Y-87083000D01*
X104618732Y-87147103D01*
X104637430Y-87208743D01*
X104667794Y-87265550D01*
X104708657Y-87315343D01*
X104758450Y-87356206D01*
X104815257Y-87386570D01*
X104876897Y-87405268D01*
X104941000Y-87411582D01*
X106641000Y-87411582D01*
X106681999Y-87407544D01*
X106682000Y-95455783D01*
X105492678Y-96645106D01*
X105432497Y-96694495D01*
X105235428Y-96934626D01*
X105088993Y-97208587D01*
X104998818Y-97505853D01*
X104983323Y-97663181D01*
X104968370Y-97814998D01*
X104976000Y-97892465D01*
X104976000Y-98001687D01*
X104927236Y-97928706D01*
X104763294Y-97764764D01*
X104570519Y-97635956D01*
X104356318Y-97547231D01*
X104128924Y-97502000D01*
X103897076Y-97502000D01*
X103669682Y-97547231D01*
X103455481Y-97635956D01*
X103262706Y-97764764D01*
X103098764Y-97928706D01*
X102969956Y-98121481D01*
X102881231Y-98335682D01*
X102836000Y-98563076D01*
X98220856Y-98563076D01*
X102136070Y-94647863D01*
X102156554Y-94631052D01*
X102173365Y-94610568D01*
X102173369Y-94610564D01*
X102223660Y-94549285D01*
X102273524Y-94455995D01*
X102273525Y-94455994D01*
X102304231Y-94354769D01*
X102312001Y-94275877D01*
X102312001Y-94275868D01*
X102314598Y-94249500D01*
X102312001Y-94223132D01*
X102312001Y-83105431D01*
X117634433Y-67783000D01*
X117673603Y-67783000D01*
X117814058Y-67755062D01*
X117946364Y-67700259D01*
X118065436Y-67620698D01*
X118166698Y-67519436D01*
X118246259Y-67400364D01*
X118301062Y-67268058D01*
X118329000Y-67127603D01*
X118329000Y-66984397D01*
X118301062Y-66843942D01*
X118246259Y-66711636D01*
X118166698Y-66592564D01*
X118065436Y-66491302D01*
X117946364Y-66411741D01*
X117814058Y-66356938D01*
X117673603Y-66329000D01*
X117530397Y-66329000D01*
X117389942Y-66356938D01*
X117257636Y-66411741D01*
X117138564Y-66491302D01*
X117037302Y-66592564D01*
X116957741Y-66711636D01*
X116902938Y-66843942D01*
X116875000Y-66984397D01*
X116875000Y-67023567D01*
X101413933Y-82484635D01*
X101393449Y-82501446D01*
X101376638Y-82521930D01*
X101376633Y-82521935D01*
X101326342Y-82583215D01*
X101276478Y-82676504D01*
X101245772Y-82777730D01*
X101235404Y-82882999D01*
X101238002Y-82909377D01*
X101238002Y-85559182D01*
X101177058Y-85533938D01*
X101036603Y-85506000D01*
X100893397Y-85506000D01*
X100752942Y-85533938D01*
X100620636Y-85588741D01*
X100501564Y-85668302D01*
X100400302Y-85769564D01*
X100320741Y-85888636D01*
X100265938Y-86020942D01*
X100238000Y-86161397D01*
X100238000Y-86304603D01*
X100265938Y-86445058D01*
X100320741Y-86577364D01*
X100400302Y-86696436D01*
X100501564Y-86797698D01*
X100620636Y-86877259D01*
X100752942Y-86932062D01*
X100893397Y-86960000D01*
X101036603Y-86960000D01*
X101177058Y-86932062D01*
X101238002Y-86906818D01*
X101238001Y-94027066D01*
X95979568Y-99285500D01*
X95940397Y-99285500D01*
X95799942Y-99313438D01*
X95667636Y-99368241D01*
X95548564Y-99447802D01*
X95447302Y-99549064D01*
X95367741Y-99668136D01*
X95312938Y-99800442D01*
X95285000Y-99940897D01*
X84815944Y-99940897D01*
X84670307Y-99703239D01*
X84299647Y-98808388D01*
X84073540Y-97866585D01*
X84010500Y-97065585D01*
X84010500Y-95432397D01*
X84871000Y-95432397D01*
X84871000Y-95575603D01*
X84898938Y-95716058D01*
X84953741Y-95848364D01*
X85033302Y-95967436D01*
X85134564Y-96068698D01*
X85253636Y-96148259D01*
X85385942Y-96203062D01*
X85526397Y-96231000D01*
X85669603Y-96231000D01*
X85810058Y-96203062D01*
X85942364Y-96148259D01*
X86061436Y-96068698D01*
X86162698Y-95967436D01*
X86242259Y-95848364D01*
X86297062Y-95716058D01*
X86325000Y-95575603D01*
X86325000Y-95432397D01*
X86297062Y-95291942D01*
X86242259Y-95159636D01*
X86162698Y-95040564D01*
X86061436Y-94939302D01*
X85942364Y-94859741D01*
X85810058Y-94804938D01*
X85669603Y-94777000D01*
X85526397Y-94777000D01*
X85385942Y-94804938D01*
X85253636Y-94859741D01*
X85134564Y-94939302D01*
X85033302Y-95040564D01*
X84953741Y-95159636D01*
X84898938Y-95291942D01*
X84871000Y-95432397D01*
X84010500Y-95432397D01*
X84010500Y-73334397D01*
X91856000Y-73334397D01*
X91856000Y-73477603D01*
X91883938Y-73618058D01*
X91938741Y-73750364D01*
X92018302Y-73869436D01*
X92119564Y-73970698D01*
X92238636Y-74050259D01*
X92370942Y-74105062D01*
X92511397Y-74133000D01*
X92654603Y-74133000D01*
X92795058Y-74105062D01*
X92927364Y-74050259D01*
X93046436Y-73970698D01*
X93147698Y-73869436D01*
X93227259Y-73750364D01*
X93282062Y-73618058D01*
X93310000Y-73477603D01*
X93310000Y-73334397D01*
X93282062Y-73193942D01*
X93227259Y-73061636D01*
X93147698Y-72942564D01*
X93046436Y-72841302D01*
X92927364Y-72761741D01*
X92795058Y-72706938D01*
X92654603Y-72679000D01*
X92511397Y-72679000D01*
X92370942Y-72706938D01*
X92238636Y-72761741D01*
X92119564Y-72841302D01*
X92018302Y-72942564D01*
X91938741Y-73061636D01*
X91883938Y-73193942D01*
X91856000Y-73334397D01*
X84010500Y-73334397D01*
X84010500Y-70159397D01*
X95920000Y-70159397D01*
X95920000Y-70302603D01*
X95947938Y-70443058D01*
X96002741Y-70575364D01*
X96082302Y-70694436D01*
X96183564Y-70795698D01*
X96302636Y-70875259D01*
X96434942Y-70930062D01*
X96575397Y-70958000D01*
X96718603Y-70958000D01*
X96859058Y-70930062D01*
X96991364Y-70875259D01*
X97110436Y-70795698D01*
X97211698Y-70694436D01*
X97291259Y-70575364D01*
X97346062Y-70443058D01*
X97374000Y-70302603D01*
X97374000Y-70159397D01*
X97346062Y-70018942D01*
X97291259Y-69886636D01*
X97211698Y-69767564D01*
X97110436Y-69666302D01*
X96991364Y-69586741D01*
X96859058Y-69531938D01*
X96718603Y-69504000D01*
X96575397Y-69504000D01*
X96434942Y-69531938D01*
X96302636Y-69586741D01*
X96183564Y-69666302D01*
X96082302Y-69767564D01*
X96002741Y-69886636D01*
X95947938Y-70018942D01*
X95920000Y-70159397D01*
X84010500Y-70159397D01*
X84010500Y-67894200D01*
X103893199Y-67894200D01*
X103909166Y-68056320D01*
X103956455Y-68212210D01*
X104033248Y-68355879D01*
X104136594Y-68481806D01*
X104262521Y-68585152D01*
X104406190Y-68661945D01*
X104562080Y-68709234D01*
X104683576Y-68721200D01*
X105554920Y-68721200D01*
X105581280Y-68753320D01*
X105668957Y-68825274D01*
X105768986Y-68878740D01*
X105877523Y-68911665D01*
X105990399Y-68922782D01*
X106640401Y-68922782D01*
X106753277Y-68911665D01*
X106861814Y-68878740D01*
X106961843Y-68825274D01*
X107049520Y-68753320D01*
X107121474Y-68665643D01*
X107159660Y-68594200D01*
X107407557Y-68594200D01*
X107414913Y-68668889D01*
X107436699Y-68740708D01*
X107472078Y-68806896D01*
X107519689Y-68864911D01*
X107577704Y-68912522D01*
X107643892Y-68947901D01*
X107715711Y-68969687D01*
X107790400Y-68977043D01*
X108269650Y-68975200D01*
X108364900Y-68879950D01*
X108364900Y-67894700D01*
X108365900Y-67894700D01*
X108365900Y-68879950D01*
X108461150Y-68975200D01*
X108940400Y-68977043D01*
X109015089Y-68969687D01*
X109086908Y-68947901D01*
X109153096Y-68912522D01*
X109211111Y-68864911D01*
X109258722Y-68806896D01*
X109294101Y-68740708D01*
X109315887Y-68668889D01*
X109323243Y-68594200D01*
X109321400Y-67989950D01*
X109226150Y-67894700D01*
X108365900Y-67894700D01*
X108364900Y-67894700D01*
X107504650Y-67894700D01*
X107409400Y-67989950D01*
X107407557Y-68594200D01*
X107159660Y-68594200D01*
X107174940Y-68565614D01*
X107207865Y-68457077D01*
X107218982Y-68344201D01*
X107218982Y-67747076D01*
X107255658Y-67702386D01*
X107256795Y-67700259D01*
X107305524Y-67609095D01*
X107336230Y-67507870D01*
X107344000Y-67428978D01*
X107344000Y-67428969D01*
X107346597Y-67402601D01*
X107344000Y-67376233D01*
X107344000Y-67194200D01*
X107407557Y-67194200D01*
X107409400Y-67798450D01*
X107504650Y-67893700D01*
X108364900Y-67893700D01*
X108364900Y-66908450D01*
X108365900Y-66908450D01*
X108365900Y-67893700D01*
X109226150Y-67893700D01*
X109321400Y-67798450D01*
X109323243Y-67194200D01*
X109315887Y-67119511D01*
X109294101Y-67047692D01*
X109258722Y-66981504D01*
X109211111Y-66923489D01*
X109153096Y-66875878D01*
X109086908Y-66840499D01*
X109015089Y-66818713D01*
X108940400Y-66811357D01*
X108461150Y-66813200D01*
X108365900Y-66908450D01*
X108364900Y-66908450D01*
X108269650Y-66813200D01*
X107790400Y-66811357D01*
X107715711Y-66818713D01*
X107643892Y-66840499D01*
X107577704Y-66875878D01*
X107519689Y-66923489D01*
X107472078Y-66981504D01*
X107436699Y-67047692D01*
X107414913Y-67119511D01*
X107407557Y-67194200D01*
X107344000Y-67194200D01*
X107344000Y-64285200D01*
X107354926Y-64271886D01*
X107397691Y-64191879D01*
X107401513Y-64230689D01*
X107423299Y-64302508D01*
X107458678Y-64368696D01*
X107506289Y-64426711D01*
X107564304Y-64474322D01*
X107630492Y-64509701D01*
X107702311Y-64531487D01*
X107777000Y-64538843D01*
X107981250Y-64537000D01*
X108076500Y-64441750D01*
X108076500Y-63181500D01*
X108056500Y-63181500D01*
X108056500Y-63180500D01*
X108076500Y-63180500D01*
X108076500Y-61920250D01*
X108077500Y-61920250D01*
X108077500Y-63180500D01*
X108097500Y-63180500D01*
X108097500Y-63181500D01*
X108077500Y-63181500D01*
X108077500Y-64441750D01*
X108172750Y-64537000D01*
X108377000Y-64538843D01*
X108451689Y-64531487D01*
X108523508Y-64509701D01*
X108589696Y-64474322D01*
X108647711Y-64426711D01*
X108695322Y-64368696D01*
X108730701Y-64302508D01*
X108752487Y-64230689D01*
X108756309Y-64191879D01*
X108799074Y-64271886D01*
X108858591Y-64344409D01*
X108931114Y-64403926D01*
X109013855Y-64448152D01*
X109103633Y-64475386D01*
X109197000Y-64484582D01*
X109497000Y-64484582D01*
X109590367Y-64475386D01*
X109680145Y-64448152D01*
X109762886Y-64403926D01*
X109789035Y-64382467D01*
X111096000Y-65689433D01*
X111096001Y-66691865D01*
X111068302Y-66719564D01*
X110988741Y-66838636D01*
X110933938Y-66970942D01*
X110906000Y-67111397D01*
X110906000Y-67254603D01*
X110933938Y-67395058D01*
X110988741Y-67527364D01*
X111068302Y-67646436D01*
X111169564Y-67747698D01*
X111288636Y-67827259D01*
X111420942Y-67882062D01*
X111561397Y-67910000D01*
X111704603Y-67910000D01*
X111845058Y-67882062D01*
X111977364Y-67827259D01*
X112096436Y-67747698D01*
X112197698Y-67646436D01*
X112277259Y-67527364D01*
X112332062Y-67395058D01*
X112360000Y-67254603D01*
X112360000Y-67111397D01*
X112332062Y-66970942D01*
X112277259Y-66838636D01*
X112197698Y-66719564D01*
X112170000Y-66691866D01*
X112170000Y-65493367D01*
X112172597Y-65466999D01*
X112170000Y-65440631D01*
X112170000Y-65440622D01*
X112162230Y-65361730D01*
X112131524Y-65260505D01*
X112096812Y-65195564D01*
X112081659Y-65167214D01*
X112031368Y-65105935D01*
X112031364Y-65105931D01*
X112014553Y-65085447D01*
X111994069Y-65068636D01*
X110192358Y-63266925D01*
X113169000Y-63266925D01*
X113169000Y-63479075D01*
X113210389Y-63687149D01*
X113291575Y-63883151D01*
X113409440Y-64059547D01*
X113559453Y-64209560D01*
X113735849Y-64327425D01*
X113931851Y-64408611D01*
X114139925Y-64450000D01*
X114352075Y-64450000D01*
X114560149Y-64408611D01*
X114756151Y-64327425D01*
X114932547Y-64209560D01*
X115082560Y-64059547D01*
X115200425Y-63883151D01*
X115281611Y-63687149D01*
X115323000Y-63479075D01*
X115323000Y-63266925D01*
X118049000Y-63266925D01*
X118049000Y-63479075D01*
X118090389Y-63687149D01*
X118171575Y-63883151D01*
X118289440Y-64059547D01*
X118439453Y-64209560D01*
X118615849Y-64327425D01*
X118811851Y-64408611D01*
X119019925Y-64450000D01*
X119232075Y-64450000D01*
X119440149Y-64408611D01*
X119636151Y-64327425D01*
X119812547Y-64209560D01*
X119962560Y-64059547D01*
X120080425Y-63883151D01*
X120161611Y-63687149D01*
X120203000Y-63479075D01*
X120203000Y-63266925D01*
X120161611Y-63058851D01*
X120080425Y-62862849D01*
X119962560Y-62686453D01*
X119812547Y-62536440D01*
X119636151Y-62418575D01*
X119440149Y-62337389D01*
X119232075Y-62296000D01*
X119019925Y-62296000D01*
X118811851Y-62337389D01*
X118615849Y-62418575D01*
X118439453Y-62536440D01*
X118289440Y-62686453D01*
X118171575Y-62862849D01*
X118090389Y-63058851D01*
X118049000Y-63266925D01*
X115323000Y-63266925D01*
X115281611Y-63058851D01*
X115200425Y-62862849D01*
X115082560Y-62686453D01*
X114932547Y-62536440D01*
X114756151Y-62418575D01*
X114560149Y-62337389D01*
X114352075Y-62296000D01*
X114139925Y-62296000D01*
X113931851Y-62337389D01*
X113735849Y-62418575D01*
X113559453Y-62536440D01*
X113409440Y-62686453D01*
X113291575Y-62862849D01*
X113210389Y-63058851D01*
X113169000Y-63266925D01*
X110192358Y-63266925D01*
X109975582Y-63050150D01*
X109975582Y-62356000D01*
X109966386Y-62262633D01*
X109939152Y-62172855D01*
X109894926Y-62090114D01*
X109835409Y-62017591D01*
X109762886Y-61958074D01*
X109680145Y-61913848D01*
X109590367Y-61886614D01*
X109497000Y-61877418D01*
X109197000Y-61877418D01*
X109103633Y-61886614D01*
X109013855Y-61913848D01*
X108931114Y-61958074D01*
X108858591Y-62017591D01*
X108799074Y-62090114D01*
X108756309Y-62170121D01*
X108752487Y-62131311D01*
X108730701Y-62059492D01*
X108695322Y-61993304D01*
X108647711Y-61935289D01*
X108589696Y-61887678D01*
X108523508Y-61852299D01*
X108451689Y-61830513D01*
X108377000Y-61823157D01*
X108172750Y-61825000D01*
X108077500Y-61920250D01*
X108076500Y-61920250D01*
X107981250Y-61825000D01*
X107777000Y-61823157D01*
X107702311Y-61830513D01*
X107630492Y-61852299D01*
X107564304Y-61887678D01*
X107506289Y-61935289D01*
X107458678Y-61993304D01*
X107423299Y-62059492D01*
X107401513Y-62131311D01*
X107397691Y-62170121D01*
X107354926Y-62090114D01*
X107295409Y-62017591D01*
X107222886Y-61958074D01*
X107140145Y-61913848D01*
X107050367Y-61886614D01*
X106957000Y-61877418D01*
X106657000Y-61877418D01*
X106563633Y-61886614D01*
X106473855Y-61913848D01*
X106391114Y-61958074D01*
X106318591Y-62017591D01*
X106259074Y-62090114D01*
X106214848Y-62172855D01*
X106187614Y-62262633D01*
X106178418Y-62356000D01*
X106178418Y-64006000D01*
X106187614Y-64099367D01*
X106214848Y-64189145D01*
X106259074Y-64271886D01*
X106270000Y-64285200D01*
X106270001Y-66865618D01*
X105990399Y-66865618D01*
X105877523Y-66876735D01*
X105768986Y-66909660D01*
X105668957Y-66963126D01*
X105581280Y-67035080D01*
X105554920Y-67067200D01*
X104683576Y-67067200D01*
X104562080Y-67079166D01*
X104406190Y-67126455D01*
X104262521Y-67203248D01*
X104136594Y-67306594D01*
X104033248Y-67432521D01*
X103956455Y-67576190D01*
X103909166Y-67732080D01*
X103893199Y-67894200D01*
X84010500Y-67894200D01*
X84010500Y-65587397D01*
X104810000Y-65587397D01*
X104810000Y-65730603D01*
X104837938Y-65871058D01*
X104892741Y-66003364D01*
X104972302Y-66122436D01*
X105073564Y-66223698D01*
X105192636Y-66303259D01*
X105324942Y-66358062D01*
X105465397Y-66386000D01*
X105608603Y-66386000D01*
X105749058Y-66358062D01*
X105881364Y-66303259D01*
X106000436Y-66223698D01*
X106101698Y-66122436D01*
X106181259Y-66003364D01*
X106236062Y-65871058D01*
X106264000Y-65730603D01*
X106264000Y-65587397D01*
X106236062Y-65446942D01*
X106181259Y-65314636D01*
X106101698Y-65195564D01*
X106074000Y-65167866D01*
X106074000Y-64285200D01*
X106084926Y-64271886D01*
X106129152Y-64189145D01*
X106156386Y-64099367D01*
X106165582Y-64006000D01*
X106165582Y-62356000D01*
X106156386Y-62262633D01*
X106129152Y-62172855D01*
X106084926Y-62090114D01*
X106025409Y-62017591D01*
X105952886Y-61958074D01*
X105870145Y-61913848D01*
X105780367Y-61886614D01*
X105687000Y-61877418D01*
X105387000Y-61877418D01*
X105293633Y-61886614D01*
X105203855Y-61913848D01*
X105121114Y-61958074D01*
X105048591Y-62017591D01*
X104989074Y-62090114D01*
X104944848Y-62172855D01*
X104917614Y-62262633D01*
X104908418Y-62356000D01*
X104908418Y-64006000D01*
X104917614Y-64099367D01*
X104944848Y-64189145D01*
X104989074Y-64271886D01*
X105000000Y-64285200D01*
X105000001Y-65167865D01*
X104972302Y-65195564D01*
X104892741Y-65314636D01*
X104837938Y-65446942D01*
X104810000Y-65587397D01*
X84010500Y-65587397D01*
X84010500Y-63682397D01*
X95158000Y-63682397D01*
X95158000Y-63825603D01*
X95185938Y-63966058D01*
X95240741Y-64098364D01*
X95320302Y-64217436D01*
X95421564Y-64318698D01*
X95540636Y-64398259D01*
X95672942Y-64453062D01*
X95813397Y-64481000D01*
X95956603Y-64481000D01*
X96097058Y-64453062D01*
X96229364Y-64398259D01*
X96348436Y-64318698D01*
X96449698Y-64217436D01*
X96529259Y-64098364D01*
X96584062Y-63966058D01*
X96612000Y-63825603D01*
X96612000Y-63682397D01*
X96584062Y-63541942D01*
X96529259Y-63409636D01*
X96449698Y-63290564D01*
X96348436Y-63189302D01*
X96229364Y-63109741D01*
X96097058Y-63054938D01*
X95956603Y-63027000D01*
X95813397Y-63027000D01*
X95672942Y-63054938D01*
X95540636Y-63109741D01*
X95421564Y-63189302D01*
X95320302Y-63290564D01*
X95240741Y-63409636D01*
X95185938Y-63541942D01*
X95158000Y-63682397D01*
X84010500Y-63682397D01*
X84010500Y-60071000D01*
X101657999Y-60071000D01*
X101673966Y-60233120D01*
X101721255Y-60389010D01*
X101798048Y-60532679D01*
X101901394Y-60658606D01*
X102027321Y-60761952D01*
X102170990Y-60838745D01*
X102326880Y-60886034D01*
X102448376Y-60898000D01*
X102448386Y-60898000D01*
X102489000Y-60902000D01*
X102529614Y-60898000D01*
X102529624Y-60898000D01*
X102651120Y-60886034D01*
X102807010Y-60838745D01*
X102950679Y-60761952D01*
X103076606Y-60658606D01*
X103102505Y-60627048D01*
X104061053Y-59668501D01*
X104092606Y-59642606D01*
X104118502Y-59611052D01*
X104195952Y-59516680D01*
X104248325Y-59418696D01*
X104272745Y-59373010D01*
X104320034Y-59217120D01*
X104332000Y-59095624D01*
X104332000Y-59095614D01*
X104336000Y-59055000D01*
X104332000Y-59014386D01*
X104332000Y-58817480D01*
X104364120Y-58791120D01*
X104436074Y-58703443D01*
X104489540Y-58603414D01*
X104492396Y-58594000D01*
X104908418Y-58594000D01*
X104908418Y-59056000D01*
X104917614Y-59149367D01*
X104944848Y-59239145D01*
X104989074Y-59321886D01*
X105048591Y-59394409D01*
X105121114Y-59453926D01*
X105203855Y-59498152D01*
X105293633Y-59525386D01*
X105387000Y-59534582D01*
X105687000Y-59534582D01*
X105780367Y-59525386D01*
X105870145Y-59498152D01*
X105952886Y-59453926D01*
X106025409Y-59394409D01*
X106084926Y-59321886D01*
X106129152Y-59239145D01*
X106156386Y-59149367D01*
X106165582Y-59056000D01*
X106165582Y-57406000D01*
X106156386Y-57312633D01*
X106129152Y-57222855D01*
X106084926Y-57140114D01*
X106025409Y-57067591D01*
X105952886Y-57008074D01*
X105870145Y-56963848D01*
X105780367Y-56936614D01*
X105687000Y-56927418D01*
X105387000Y-56927418D01*
X105293633Y-56936614D01*
X105203855Y-56963848D01*
X105121114Y-57008074D01*
X105048591Y-57067591D01*
X104989074Y-57140114D01*
X104944848Y-57222855D01*
X104917614Y-57312633D01*
X104908418Y-57406000D01*
X104908418Y-57520000D01*
X104492396Y-57520000D01*
X104489540Y-57510586D01*
X104436074Y-57410557D01*
X104364120Y-57322880D01*
X104276443Y-57250926D01*
X104176414Y-57197460D01*
X104067877Y-57164535D01*
X103955001Y-57153418D01*
X103054999Y-57153418D01*
X102942123Y-57164535D01*
X102833586Y-57197460D01*
X102733557Y-57250926D01*
X102645880Y-57322880D01*
X102573926Y-57410557D01*
X102520460Y-57510586D01*
X102487535Y-57619123D01*
X102476418Y-57731999D01*
X102476418Y-58382001D01*
X102487535Y-58494877D01*
X102520460Y-58603414D01*
X102573926Y-58703443D01*
X102624896Y-58765550D01*
X101932952Y-59457495D01*
X101901394Y-59483394D01*
X101798048Y-59609321D01*
X101721255Y-59752990D01*
X101673966Y-59908880D01*
X101657999Y-60071000D01*
X84010500Y-60071000D01*
X84010500Y-54445415D01*
X84027211Y-54233073D01*
X86343000Y-54233073D01*
X86343000Y-54986927D01*
X86490070Y-55726295D01*
X86778557Y-56422764D01*
X87197375Y-57049570D01*
X87730430Y-57582625D01*
X88357236Y-58001443D01*
X89053705Y-58289930D01*
X89793073Y-58437000D01*
X90546927Y-58437000D01*
X91286295Y-58289930D01*
X91982764Y-58001443D01*
X92609570Y-57582625D01*
X92732798Y-57459397D01*
X97444000Y-57459397D01*
X97444000Y-57602603D01*
X97471938Y-57743058D01*
X97526741Y-57875364D01*
X97606302Y-57994436D01*
X97707564Y-58095698D01*
X97826636Y-58175259D01*
X97958942Y-58230062D01*
X98099397Y-58258000D01*
X98242603Y-58258000D01*
X98383058Y-58230062D01*
X98515364Y-58175259D01*
X98634436Y-58095698D01*
X98735698Y-57994436D01*
X98815259Y-57875364D01*
X98870062Y-57743058D01*
X98898000Y-57602603D01*
X98898000Y-57459397D01*
X98870062Y-57318942D01*
X98815259Y-57186636D01*
X98735698Y-57067564D01*
X98634436Y-56966302D01*
X98515364Y-56886741D01*
X98383058Y-56831938D01*
X98242603Y-56804000D01*
X98099397Y-56804000D01*
X97958942Y-56831938D01*
X97826636Y-56886741D01*
X97707564Y-56966302D01*
X97606302Y-57067564D01*
X97526741Y-57186636D01*
X97471938Y-57318942D01*
X97444000Y-57459397D01*
X92732798Y-57459397D01*
X93142625Y-57049570D01*
X93455045Y-56582000D01*
X102422157Y-56582000D01*
X102429513Y-56656689D01*
X102451299Y-56728508D01*
X102486678Y-56794696D01*
X102534289Y-56852711D01*
X102592304Y-56900322D01*
X102658492Y-56935701D01*
X102730311Y-56957487D01*
X102805000Y-56964843D01*
X103409250Y-56963000D01*
X103504500Y-56867750D01*
X103504500Y-56007500D01*
X103505500Y-56007500D01*
X103505500Y-56867750D01*
X103600750Y-56963000D01*
X104205000Y-56964843D01*
X104279689Y-56957487D01*
X104351508Y-56935701D01*
X104417696Y-56900322D01*
X104475711Y-56852711D01*
X104523322Y-56794696D01*
X104558701Y-56728508D01*
X104580487Y-56656689D01*
X104587843Y-56582000D01*
X104586000Y-56102750D01*
X104490750Y-56007500D01*
X103505500Y-56007500D01*
X103504500Y-56007500D01*
X102519250Y-56007500D01*
X102424000Y-56102750D01*
X102422157Y-56582000D01*
X93455045Y-56582000D01*
X93561443Y-56422764D01*
X93849930Y-55726295D01*
X93908469Y-55432000D01*
X102422157Y-55432000D01*
X102424000Y-55911250D01*
X102519250Y-56006500D01*
X103504500Y-56006500D01*
X103504500Y-55146250D01*
X103505500Y-55146250D01*
X103505500Y-56006500D01*
X104490750Y-56006500D01*
X104586000Y-55911250D01*
X104587843Y-55432000D01*
X104580487Y-55357311D01*
X104558701Y-55285492D01*
X104523322Y-55219304D01*
X104475711Y-55161289D01*
X104417696Y-55113678D01*
X104351508Y-55078299D01*
X104279689Y-55056513D01*
X104205000Y-55049157D01*
X103600750Y-55051000D01*
X103505500Y-55146250D01*
X103504500Y-55146250D01*
X103409250Y-55051000D01*
X102805000Y-55049157D01*
X102730311Y-55056513D01*
X102658492Y-55078299D01*
X102592304Y-55113678D01*
X102534289Y-55161289D01*
X102486678Y-55219304D01*
X102451299Y-55285492D01*
X102429513Y-55357311D01*
X102422157Y-55432000D01*
X93908469Y-55432000D01*
X93997000Y-54986927D01*
X93997000Y-54233073D01*
X93849930Y-53493705D01*
X93561443Y-52797236D01*
X93142625Y-52170430D01*
X92609570Y-51637375D01*
X91982764Y-51218557D01*
X91286295Y-50930070D01*
X90546927Y-50783000D01*
X89793073Y-50783000D01*
X89053705Y-50930070D01*
X88357236Y-51218557D01*
X87730430Y-51637375D01*
X87197375Y-52170430D01*
X86778557Y-52797236D01*
X86490070Y-53493705D01*
X86343000Y-54233073D01*
X84027211Y-54233073D01*
X84073540Y-53644415D01*
X84299647Y-52702612D01*
X84670307Y-51807761D01*
X85176379Y-50981925D01*
X85777201Y-50278453D01*
X99118000Y-50278453D01*
X99118000Y-50559547D01*
X99172838Y-50835241D01*
X99280409Y-51094938D01*
X99436576Y-51328660D01*
X99635340Y-51527424D01*
X99869062Y-51683591D01*
X100128759Y-51791162D01*
X100404453Y-51846000D01*
X100685547Y-51846000D01*
X100961241Y-51791162D01*
X101220938Y-51683591D01*
X101454660Y-51527424D01*
X101653424Y-51328660D01*
X101654066Y-51327699D01*
X103118000Y-51327699D01*
X103118000Y-51510301D01*
X103153624Y-51689396D01*
X103223504Y-51858099D01*
X103324952Y-52009928D01*
X103454072Y-52139048D01*
X103605901Y-52240496D01*
X103774604Y-52310376D01*
X103953699Y-52346000D01*
X104136301Y-52346000D01*
X104315396Y-52310376D01*
X104484099Y-52240496D01*
X104635928Y-52139048D01*
X104765048Y-52009928D01*
X104866496Y-51858099D01*
X104936376Y-51689396D01*
X104972000Y-51510301D01*
X104972000Y-51327699D01*
X105118000Y-51327699D01*
X105118000Y-51510301D01*
X105153624Y-51689396D01*
X105223504Y-51858099D01*
X105324952Y-52009928D01*
X105454072Y-52139048D01*
X105605901Y-52240496D01*
X105774604Y-52310376D01*
X105953699Y-52346000D01*
X106136301Y-52346000D01*
X106199914Y-52333347D01*
X106270001Y-52403434D01*
X106270000Y-57126800D01*
X106259074Y-57140114D01*
X106214848Y-57222855D01*
X106187614Y-57312633D01*
X106178418Y-57406000D01*
X106178418Y-59056000D01*
X106187614Y-59149367D01*
X106214848Y-59239145D01*
X106259074Y-59321886D01*
X106318591Y-59394409D01*
X106391114Y-59453926D01*
X106473855Y-59498152D01*
X106563633Y-59525386D01*
X106657000Y-59534582D01*
X106957000Y-59534582D01*
X107050367Y-59525386D01*
X107140145Y-59498152D01*
X107222886Y-59453926D01*
X107295409Y-59394409D01*
X107354926Y-59321886D01*
X107399152Y-59239145D01*
X107426386Y-59149367D01*
X107435582Y-59056000D01*
X107435582Y-57406000D01*
X107426386Y-57312633D01*
X107399152Y-57222855D01*
X107354926Y-57140114D01*
X107344000Y-57126800D01*
X107344000Y-52207371D01*
X107346597Y-52181000D01*
X107344000Y-52154629D01*
X107344000Y-52154622D01*
X107336230Y-52075730D01*
X107309050Y-51986129D01*
X107324952Y-52009928D01*
X107454072Y-52139048D01*
X107540001Y-52196463D01*
X107540000Y-57126800D01*
X107529074Y-57140114D01*
X107484848Y-57222855D01*
X107457614Y-57312633D01*
X107448418Y-57406000D01*
X107448418Y-59056000D01*
X107457614Y-59149367D01*
X107484848Y-59239145D01*
X107529074Y-59321886D01*
X107588591Y-59394409D01*
X107661114Y-59453926D01*
X107743855Y-59498152D01*
X107833633Y-59525386D01*
X107927000Y-59534582D01*
X108227000Y-59534582D01*
X108320367Y-59525386D01*
X108410145Y-59498152D01*
X108492886Y-59453926D01*
X108565409Y-59394409D01*
X108624926Y-59321886D01*
X108667691Y-59241879D01*
X108671513Y-59280689D01*
X108693299Y-59352508D01*
X108728678Y-59418696D01*
X108776289Y-59476711D01*
X108834304Y-59524322D01*
X108900492Y-59559701D01*
X108972311Y-59581487D01*
X109047000Y-59588843D01*
X109251250Y-59587000D01*
X109346500Y-59491750D01*
X109346500Y-58231500D01*
X109347500Y-58231500D01*
X109347500Y-59491750D01*
X109442750Y-59587000D01*
X109647000Y-59588843D01*
X109721689Y-59581487D01*
X109793508Y-59559701D01*
X109859696Y-59524322D01*
X109917711Y-59476711D01*
X109965322Y-59418696D01*
X110000701Y-59352508D01*
X110022487Y-59280689D01*
X110029843Y-59206000D01*
X110028000Y-58326750D01*
X109932750Y-58231500D01*
X109347500Y-58231500D01*
X109346500Y-58231500D01*
X109326500Y-58231500D01*
X109326500Y-58230500D01*
X109346500Y-58230500D01*
X109346500Y-56970250D01*
X109347500Y-56970250D01*
X109347500Y-58230500D01*
X109932750Y-58230500D01*
X110028000Y-58135250D01*
X110029843Y-57256000D01*
X110022487Y-57181311D01*
X110000701Y-57109492D01*
X109965322Y-57043304D01*
X109917711Y-56985289D01*
X109859696Y-56937678D01*
X109793508Y-56902299D01*
X109721689Y-56880513D01*
X109647000Y-56873157D01*
X109442750Y-56875000D01*
X109347500Y-56970250D01*
X109346500Y-56970250D01*
X109251250Y-56875000D01*
X109047000Y-56873157D01*
X108972311Y-56880513D01*
X108900492Y-56902299D01*
X108834304Y-56937678D01*
X108776289Y-56985289D01*
X108728678Y-57043304D01*
X108693299Y-57109492D01*
X108671513Y-57181311D01*
X108667691Y-57220121D01*
X108624926Y-57140114D01*
X108614000Y-57126800D01*
X108614000Y-56316397D01*
X116748000Y-56316397D01*
X116748000Y-56459603D01*
X116775938Y-56600058D01*
X116830741Y-56732364D01*
X116910302Y-56851436D01*
X117011564Y-56952698D01*
X117116779Y-57023000D01*
X117011564Y-57093302D01*
X116910302Y-57194564D01*
X116830741Y-57313636D01*
X116775938Y-57445942D01*
X116748000Y-57586397D01*
X116748000Y-57729603D01*
X116775938Y-57870058D01*
X116830741Y-58002364D01*
X116910302Y-58121436D01*
X117011564Y-58222698D01*
X117130636Y-58302259D01*
X117262942Y-58357062D01*
X117403397Y-58385000D01*
X117442568Y-58385000D01*
X123288000Y-64230433D01*
X123288001Y-79729622D01*
X123285403Y-79756000D01*
X123288001Y-79782378D01*
X123295771Y-79861270D01*
X123305914Y-79894706D01*
X123326477Y-79962495D01*
X123376341Y-80055784D01*
X123426632Y-80117064D01*
X123426637Y-80117069D01*
X123443448Y-80137553D01*
X123463932Y-80154364D01*
X123553632Y-80244064D01*
X125384000Y-82074433D01*
X125384000Y-82113603D01*
X125411938Y-82254058D01*
X125466741Y-82386364D01*
X125546302Y-82505436D01*
X125647564Y-82606698D01*
X125766636Y-82686259D01*
X125898942Y-82741062D01*
X126039397Y-82769000D01*
X126182603Y-82769000D01*
X126323058Y-82741062D01*
X126455364Y-82686259D01*
X126574436Y-82606698D01*
X126675698Y-82505436D01*
X126755259Y-82386364D01*
X126810062Y-82254058D01*
X126838000Y-82113603D01*
X126838000Y-81970397D01*
X126810062Y-81829942D01*
X126755259Y-81697636D01*
X126675698Y-81578564D01*
X126574436Y-81477302D01*
X126455364Y-81397741D01*
X126323058Y-81342938D01*
X126182603Y-81315000D01*
X126143433Y-81315000D01*
X125923350Y-81094917D01*
X126039397Y-81118000D01*
X126182603Y-81118000D01*
X126323058Y-81090062D01*
X126455364Y-81035259D01*
X126574436Y-80955698D01*
X126675698Y-80854436D01*
X126755259Y-80735364D01*
X126810062Y-80603058D01*
X126824777Y-80529076D01*
X135983000Y-80529076D01*
X135983000Y-80760924D01*
X136028231Y-80988318D01*
X136116956Y-81202519D01*
X136245764Y-81395294D01*
X136409706Y-81559236D01*
X136602481Y-81688044D01*
X136816682Y-81776769D01*
X137044076Y-81822000D01*
X137275924Y-81822000D01*
X137503318Y-81776769D01*
X137717519Y-81688044D01*
X137910294Y-81559236D01*
X138074236Y-81395294D01*
X138203044Y-81202519D01*
X138291769Y-80988318D01*
X138337000Y-80760924D01*
X138337000Y-80529076D01*
X138291769Y-80301682D01*
X138203044Y-80087481D01*
X138074236Y-79894706D01*
X137910294Y-79730764D01*
X137717519Y-79601956D01*
X137503318Y-79513231D01*
X137275924Y-79468000D01*
X137044076Y-79468000D01*
X136816682Y-79513231D01*
X136602481Y-79601956D01*
X136409706Y-79730764D01*
X136245764Y-79894706D01*
X136116956Y-80087481D01*
X136028231Y-80301682D01*
X135983000Y-80529076D01*
X126824777Y-80529076D01*
X126838000Y-80462603D01*
X126838000Y-80319397D01*
X126810062Y-80178942D01*
X126755259Y-80046636D01*
X126675698Y-79927564D01*
X126574436Y-79826302D01*
X126455364Y-79746741D01*
X126323058Y-79691938D01*
X126182603Y-79664000D01*
X126143433Y-79664000D01*
X125759000Y-79279568D01*
X125759000Y-77989076D01*
X135983000Y-77989076D01*
X135983000Y-78220924D01*
X136028231Y-78448318D01*
X136116956Y-78662519D01*
X136245764Y-78855294D01*
X136409706Y-79019236D01*
X136602481Y-79148044D01*
X136816682Y-79236769D01*
X137044076Y-79282000D01*
X137275924Y-79282000D01*
X137503318Y-79236769D01*
X137717519Y-79148044D01*
X137910294Y-79019236D01*
X138074236Y-78855294D01*
X138203044Y-78662519D01*
X138291769Y-78448318D01*
X138337000Y-78220924D01*
X138337000Y-77989076D01*
X138291769Y-77761682D01*
X138203044Y-77547481D01*
X138074236Y-77354706D01*
X137910294Y-77190764D01*
X137717519Y-77061956D01*
X137503318Y-76973231D01*
X137275924Y-76928000D01*
X137044076Y-76928000D01*
X136816682Y-76973231D01*
X136602481Y-77061956D01*
X136409706Y-77190764D01*
X136245764Y-77354706D01*
X136116956Y-77547481D01*
X136028231Y-77761682D01*
X135983000Y-77989076D01*
X125759000Y-77989076D01*
X125759000Y-76415000D01*
X135927157Y-76415000D01*
X135934513Y-76489689D01*
X135956299Y-76561508D01*
X135991678Y-76627696D01*
X136039289Y-76685711D01*
X136097304Y-76733322D01*
X136163492Y-76768701D01*
X136235311Y-76790487D01*
X136310000Y-76797843D01*
X137064250Y-76796000D01*
X137159500Y-76700750D01*
X137159500Y-75565500D01*
X137160500Y-75565500D01*
X137160500Y-76700750D01*
X137255750Y-76796000D01*
X138010000Y-76797843D01*
X138084689Y-76790487D01*
X138156508Y-76768701D01*
X138222696Y-76733322D01*
X138280711Y-76685711D01*
X138328322Y-76627696D01*
X138363701Y-76561508D01*
X138385487Y-76489689D01*
X138392843Y-76415000D01*
X138391000Y-75660750D01*
X138295750Y-75565500D01*
X137160500Y-75565500D01*
X137159500Y-75565500D01*
X136024250Y-75565500D01*
X135929000Y-75660750D01*
X135927157Y-76415000D01*
X125759000Y-76415000D01*
X125759000Y-74715000D01*
X135927157Y-74715000D01*
X135929000Y-75469250D01*
X136024250Y-75564500D01*
X137159500Y-75564500D01*
X137159500Y-74429250D01*
X137160500Y-74429250D01*
X137160500Y-75564500D01*
X138295750Y-75564500D01*
X138391000Y-75469250D01*
X138392843Y-74715000D01*
X138385487Y-74640311D01*
X138363701Y-74568492D01*
X138328322Y-74502304D01*
X138280711Y-74444289D01*
X138222696Y-74396678D01*
X138156508Y-74361299D01*
X138084689Y-74339513D01*
X138010000Y-74332157D01*
X137255750Y-74334000D01*
X137160500Y-74429250D01*
X137159500Y-74429250D01*
X137064250Y-74334000D01*
X136310000Y-74332157D01*
X136235311Y-74339513D01*
X136163492Y-74361299D01*
X136097304Y-74396678D01*
X136039289Y-74444289D01*
X135991678Y-74502304D01*
X135956299Y-74568492D01*
X135934513Y-74640311D01*
X135927157Y-74715000D01*
X125759000Y-74715000D01*
X125759000Y-70369076D01*
X135856000Y-70369076D01*
X135856000Y-70600924D01*
X135901231Y-70828318D01*
X135989956Y-71042519D01*
X136118764Y-71235294D01*
X136282706Y-71399236D01*
X136475481Y-71528044D01*
X136689682Y-71616769D01*
X136917076Y-71662000D01*
X137148924Y-71662000D01*
X137376318Y-71616769D01*
X137590519Y-71528044D01*
X137783294Y-71399236D01*
X137947236Y-71235294D01*
X138076044Y-71042519D01*
X138164769Y-70828318D01*
X138210000Y-70600924D01*
X138210000Y-70369076D01*
X138164769Y-70141682D01*
X138076044Y-69927481D01*
X137947236Y-69734706D01*
X137783294Y-69570764D01*
X137590519Y-69441956D01*
X137376318Y-69353231D01*
X137148924Y-69308000D01*
X136917076Y-69308000D01*
X136689682Y-69353231D01*
X136475481Y-69441956D01*
X136282706Y-69570764D01*
X136118764Y-69734706D01*
X135989956Y-69927481D01*
X135901231Y-70141682D01*
X135856000Y-70369076D01*
X125759000Y-70369076D01*
X125759000Y-67829076D01*
X135856000Y-67829076D01*
X135856000Y-68060924D01*
X135901231Y-68288318D01*
X135989956Y-68502519D01*
X136118764Y-68695294D01*
X136282706Y-68859236D01*
X136475481Y-68988044D01*
X136689682Y-69076769D01*
X136917076Y-69122000D01*
X137148924Y-69122000D01*
X137376318Y-69076769D01*
X137590519Y-68988044D01*
X137783294Y-68859236D01*
X137947236Y-68695294D01*
X138076044Y-68502519D01*
X138164769Y-68288318D01*
X138210000Y-68060924D01*
X138210000Y-67829076D01*
X138164769Y-67601682D01*
X138076044Y-67387481D01*
X137947236Y-67194706D01*
X137783294Y-67030764D01*
X137590519Y-66901956D01*
X137376318Y-66813231D01*
X137148924Y-66768000D01*
X136917076Y-66768000D01*
X136689682Y-66813231D01*
X136475481Y-66901956D01*
X136282706Y-67030764D01*
X136118764Y-67194706D01*
X135989956Y-67387481D01*
X135901231Y-67601682D01*
X135856000Y-67829076D01*
X125759000Y-67829076D01*
X125759000Y-66732193D01*
X125777394Y-66754606D01*
X125903321Y-66857952D01*
X126046990Y-66934745D01*
X126202880Y-66982034D01*
X126324376Y-66994000D01*
X126324386Y-66994000D01*
X126365000Y-66998000D01*
X126405614Y-66994000D01*
X126405624Y-66994000D01*
X126527120Y-66982034D01*
X126683010Y-66934745D01*
X126826679Y-66857952D01*
X126952606Y-66754606D01*
X126978505Y-66723048D01*
X127102548Y-66599005D01*
X127134106Y-66573106D01*
X127237452Y-66447179D01*
X127314245Y-66303510D01*
X127361534Y-66147620D01*
X127373500Y-66026124D01*
X127373500Y-66026114D01*
X127377500Y-65985500D01*
X127373500Y-65944886D01*
X127373500Y-64422793D01*
X127406040Y-64361914D01*
X127438965Y-64253377D01*
X127450082Y-64140501D01*
X127450082Y-63240499D01*
X127438965Y-63127623D01*
X127406040Y-63019086D01*
X127352574Y-62919057D01*
X127280620Y-62831380D01*
X127192943Y-62759426D01*
X127092914Y-62705960D01*
X126984377Y-62673035D01*
X126871501Y-62661918D01*
X126221499Y-62661918D01*
X126108623Y-62673035D01*
X126000086Y-62705960D01*
X125900057Y-62759426D01*
X125812380Y-62831380D01*
X125740426Y-62919057D01*
X125686960Y-63019086D01*
X125654035Y-63127623D01*
X125642918Y-63240499D01*
X125642918Y-63872610D01*
X125620368Y-63845133D01*
X125620364Y-63845129D01*
X125603553Y-63824645D01*
X125583069Y-63807834D01*
X122355735Y-60580500D01*
X125724657Y-60580500D01*
X125732013Y-60655189D01*
X125753799Y-60727008D01*
X125789178Y-60793196D01*
X125836789Y-60851211D01*
X125894804Y-60898822D01*
X125960992Y-60934201D01*
X126032811Y-60955987D01*
X126107500Y-60963343D01*
X126586750Y-60961500D01*
X126682000Y-60866250D01*
X126682000Y-59881000D01*
X126683000Y-59881000D01*
X126683000Y-60866250D01*
X126778250Y-60961500D01*
X127257500Y-60963343D01*
X127332189Y-60955987D01*
X127404008Y-60934201D01*
X127470196Y-60898822D01*
X127528211Y-60851211D01*
X127575822Y-60793196D01*
X127611201Y-60727008D01*
X127632987Y-60655189D01*
X127640343Y-60580500D01*
X127638500Y-59976250D01*
X127543250Y-59881000D01*
X126683000Y-59881000D01*
X126682000Y-59881000D01*
X125821750Y-59881000D01*
X125726500Y-59976250D01*
X125724657Y-60580500D01*
X122355735Y-60580500D01*
X120955735Y-59180500D01*
X125724657Y-59180500D01*
X125726500Y-59784750D01*
X125821750Y-59880000D01*
X126682000Y-59880000D01*
X126682000Y-58894750D01*
X126683000Y-58894750D01*
X126683000Y-59880000D01*
X127543250Y-59880000D01*
X127638500Y-59784750D01*
X127640343Y-59180500D01*
X127632987Y-59105811D01*
X127611201Y-59033992D01*
X127575822Y-58967804D01*
X127528211Y-58909789D01*
X127470196Y-58862178D01*
X127404008Y-58826799D01*
X127332189Y-58805013D01*
X127257500Y-58797657D01*
X126778250Y-58799500D01*
X126683000Y-58894750D01*
X126682000Y-58894750D01*
X126586750Y-58799500D01*
X126107500Y-58797657D01*
X126032811Y-58805013D01*
X125960992Y-58826799D01*
X125894804Y-58862178D01*
X125836789Y-58909789D01*
X125789178Y-58967804D01*
X125753799Y-59033992D01*
X125732013Y-59105811D01*
X125724657Y-59180500D01*
X120955735Y-59180500D01*
X118202000Y-56426766D01*
X118202000Y-56316397D01*
X118174062Y-56175942D01*
X118119259Y-56043636D01*
X118046937Y-55935397D01*
X123606000Y-55935397D01*
X123606000Y-56078603D01*
X123633938Y-56219058D01*
X123688741Y-56351364D01*
X123768302Y-56470436D01*
X123869564Y-56571698D01*
X123988636Y-56651259D01*
X124120942Y-56706062D01*
X124261397Y-56734000D01*
X124404603Y-56734000D01*
X124545058Y-56706062D01*
X124677364Y-56651259D01*
X124796436Y-56571698D01*
X124897698Y-56470436D01*
X124933403Y-56417000D01*
X125841986Y-56417000D01*
X125844535Y-56442877D01*
X125877460Y-56551414D01*
X125930926Y-56651443D01*
X126002880Y-56739120D01*
X126090557Y-56811074D01*
X126190586Y-56864540D01*
X126299123Y-56897465D01*
X126411999Y-56908582D01*
X127062001Y-56908582D01*
X127174877Y-56897465D01*
X127283414Y-56864540D01*
X127383443Y-56811074D01*
X127471120Y-56739120D01*
X127543074Y-56651443D01*
X127596540Y-56551414D01*
X127629465Y-56442877D01*
X127640582Y-56330001D01*
X127640582Y-55429999D01*
X127629465Y-55317123D01*
X127596540Y-55208586D01*
X127543074Y-55108557D01*
X127471120Y-55020880D01*
X127383443Y-54948926D01*
X127283414Y-54895460D01*
X127174877Y-54862535D01*
X127062001Y-54851418D01*
X126411999Y-54851418D01*
X126299123Y-54862535D01*
X126190586Y-54895460D01*
X126090557Y-54948926D01*
X126002880Y-55020880D01*
X125930926Y-55108557D01*
X125877460Y-55208586D01*
X125844535Y-55317123D01*
X125841986Y-55343000D01*
X124629705Y-55343000D01*
X124545058Y-55307938D01*
X124404603Y-55280000D01*
X124261397Y-55280000D01*
X124120942Y-55307938D01*
X123988636Y-55362741D01*
X123869564Y-55442302D01*
X123768302Y-55543564D01*
X123688741Y-55662636D01*
X123633938Y-55794942D01*
X123606000Y-55935397D01*
X118046937Y-55935397D01*
X118039698Y-55924564D01*
X117938436Y-55823302D01*
X117819364Y-55743741D01*
X117687058Y-55688938D01*
X117546603Y-55661000D01*
X117403397Y-55661000D01*
X117262942Y-55688938D01*
X117130636Y-55743741D01*
X117011564Y-55823302D01*
X116910302Y-55924564D01*
X116830741Y-56043636D01*
X116775938Y-56175942D01*
X116748000Y-56316397D01*
X108614000Y-56316397D01*
X108614000Y-52153700D01*
X108635928Y-52139048D01*
X108765048Y-52009928D01*
X108802366Y-51954076D01*
X115282000Y-51954076D01*
X115282000Y-52185924D01*
X115327231Y-52413318D01*
X115415956Y-52627519D01*
X115544764Y-52820294D01*
X115708706Y-52984236D01*
X115901481Y-53113044D01*
X116115682Y-53201769D01*
X116343076Y-53247000D01*
X116574924Y-53247000D01*
X116802318Y-53201769D01*
X117016519Y-53113044D01*
X117209294Y-52984236D01*
X117373236Y-52820294D01*
X117502044Y-52627519D01*
X117590769Y-52413318D01*
X117636000Y-52185924D01*
X117636000Y-51954076D01*
X117822000Y-51954076D01*
X117822000Y-52185924D01*
X117867231Y-52413318D01*
X117955956Y-52627519D01*
X118084764Y-52820294D01*
X118248706Y-52984236D01*
X118441481Y-53113044D01*
X118655682Y-53201769D01*
X118883076Y-53247000D01*
X119114924Y-53247000D01*
X119342318Y-53201769D01*
X119556519Y-53113044D01*
X119749294Y-52984236D01*
X119913236Y-52820294D01*
X120042044Y-52627519D01*
X120130769Y-52413318D01*
X120160655Y-52263065D01*
X120323234Y-52263065D01*
X120384260Y-52496539D01*
X120489662Y-52713622D01*
X120635389Y-52905971D01*
X120815841Y-53066194D01*
X121024084Y-53188134D01*
X121252115Y-53267104D01*
X121345935Y-53285766D01*
X121538500Y-53205750D01*
X121538500Y-52070500D01*
X121539500Y-52070500D01*
X121539500Y-53205750D01*
X121732065Y-53285766D01*
X121825885Y-53267104D01*
X122053916Y-53188134D01*
X122262159Y-53066194D01*
X122442611Y-52905971D01*
X122588338Y-52713622D01*
X122693740Y-52496539D01*
X122754766Y-52263065D01*
X122674750Y-52070500D01*
X121539500Y-52070500D01*
X121538500Y-52070500D01*
X120403250Y-52070500D01*
X120323234Y-52263065D01*
X120160655Y-52263065D01*
X120176000Y-52185924D01*
X120176000Y-51954076D01*
X120160656Y-51876935D01*
X120323234Y-51876935D01*
X120403250Y-52069500D01*
X121538500Y-52069500D01*
X121538500Y-50934250D01*
X121539500Y-50934250D01*
X121539500Y-52069500D01*
X122674750Y-52069500D01*
X122722711Y-51954076D01*
X122902000Y-51954076D01*
X122902000Y-52185924D01*
X122947231Y-52413318D01*
X123035956Y-52627519D01*
X123164764Y-52820294D01*
X123328706Y-52984236D01*
X123521481Y-53113044D01*
X123735682Y-53201769D01*
X123963076Y-53247000D01*
X124194924Y-53247000D01*
X124422318Y-53201769D01*
X124636519Y-53113044D01*
X124829294Y-52984236D01*
X124993236Y-52820294D01*
X125122044Y-52627519D01*
X125210769Y-52413318D01*
X125256000Y-52185924D01*
X125256000Y-51954076D01*
X125210769Y-51726682D01*
X125122044Y-51512481D01*
X124993236Y-51319706D01*
X124893530Y-51220000D01*
X125440418Y-51220000D01*
X125440418Y-52920000D01*
X125446732Y-52984103D01*
X125465430Y-53045743D01*
X125495794Y-53102550D01*
X125536657Y-53152343D01*
X125586450Y-53193206D01*
X125643257Y-53223570D01*
X125704897Y-53242268D01*
X125769000Y-53248582D01*
X127419150Y-53248582D01*
X129021985Y-54851418D01*
X128461999Y-54851418D01*
X128349123Y-54862535D01*
X128240586Y-54895460D01*
X128140557Y-54948926D01*
X128052880Y-55020880D01*
X127980926Y-55108557D01*
X127927460Y-55208586D01*
X127894535Y-55317123D01*
X127883418Y-55429999D01*
X127883418Y-56330001D01*
X127894535Y-56442877D01*
X127927460Y-56551414D01*
X127980926Y-56651443D01*
X128052880Y-56739120D01*
X128140557Y-56811074D01*
X128240586Y-56864540D01*
X128349123Y-56897465D01*
X128461999Y-56908582D01*
X129112001Y-56908582D01*
X129224877Y-56897465D01*
X129333414Y-56864540D01*
X129384000Y-56837501D01*
X129384001Y-58832566D01*
X129306085Y-58910483D01*
X129278914Y-58895960D01*
X129170377Y-58863035D01*
X129057501Y-58851918D01*
X128407499Y-58851918D01*
X128294623Y-58863035D01*
X128186086Y-58895960D01*
X128086057Y-58949426D01*
X127998380Y-59021380D01*
X127926426Y-59109057D01*
X127872960Y-59209086D01*
X127840035Y-59317623D01*
X127828918Y-59430499D01*
X127828918Y-60330501D01*
X127840035Y-60443377D01*
X127872960Y-60551914D01*
X127926426Y-60651943D01*
X127998380Y-60739620D01*
X128086057Y-60811574D01*
X128186086Y-60865040D01*
X128294623Y-60897965D01*
X128407499Y-60909082D01*
X129057501Y-60909082D01*
X129170377Y-60897965D01*
X129278914Y-60865040D01*
X129378943Y-60811574D01*
X129384001Y-60807423D01*
X129384001Y-62143566D01*
X128865650Y-62661918D01*
X128271499Y-62661918D01*
X128158623Y-62673035D01*
X128050086Y-62705960D01*
X127950057Y-62759426D01*
X127862380Y-62831380D01*
X127790426Y-62919057D01*
X127736960Y-63019086D01*
X127704035Y-63127623D01*
X127692918Y-63240499D01*
X127692918Y-64140501D01*
X127704035Y-64253377D01*
X127736960Y-64361914D01*
X127790426Y-64461943D01*
X127862380Y-64549620D01*
X127950057Y-64621574D01*
X128050086Y-64675040D01*
X128158623Y-64707965D01*
X128271499Y-64719082D01*
X128921501Y-64719082D01*
X129034377Y-64707965D01*
X129142914Y-64675040D01*
X129242943Y-64621574D01*
X129324064Y-64555000D01*
X135854418Y-64555000D01*
X135854418Y-66255000D01*
X135860732Y-66319103D01*
X135879430Y-66380743D01*
X135909794Y-66437550D01*
X135950657Y-66487343D01*
X136000450Y-66528206D01*
X136057257Y-66558570D01*
X136118897Y-66577268D01*
X136183000Y-66583582D01*
X137883000Y-66583582D01*
X137947103Y-66577268D01*
X138008743Y-66558570D01*
X138065550Y-66528206D01*
X138115343Y-66487343D01*
X138156206Y-66437550D01*
X138186570Y-66380743D01*
X138205268Y-66319103D01*
X138211582Y-66255000D01*
X138211582Y-64555000D01*
X138205268Y-64490897D01*
X138186570Y-64429257D01*
X138156206Y-64372450D01*
X138115343Y-64322657D01*
X138065550Y-64281794D01*
X138008743Y-64251430D01*
X137947103Y-64232732D01*
X137883000Y-64226418D01*
X136183000Y-64226418D01*
X136118897Y-64232732D01*
X136057257Y-64251430D01*
X136000450Y-64281794D01*
X135950657Y-64322657D01*
X135909794Y-64372450D01*
X135879430Y-64429257D01*
X135860732Y-64490897D01*
X135854418Y-64555000D01*
X129324064Y-64555000D01*
X129330620Y-64549620D01*
X129402574Y-64461943D01*
X129456040Y-64361914D01*
X129488965Y-64253377D01*
X129500082Y-64140501D01*
X129500082Y-63546350D01*
X130126035Y-62920397D01*
X150657000Y-62920397D01*
X150657000Y-63063603D01*
X150684938Y-63204058D01*
X150739741Y-63336364D01*
X150819302Y-63455436D01*
X150920564Y-63556698D01*
X151039636Y-63636259D01*
X151171942Y-63691062D01*
X151312397Y-63719000D01*
X151455603Y-63719000D01*
X151596058Y-63691062D01*
X151728364Y-63636259D01*
X151847436Y-63556698D01*
X151948698Y-63455436D01*
X152028259Y-63336364D01*
X152083062Y-63204058D01*
X152111000Y-63063603D01*
X152111000Y-62920397D01*
X152083062Y-62779942D01*
X152036031Y-62666397D01*
X155991000Y-62666397D01*
X155991000Y-62809603D01*
X156018938Y-62950058D01*
X156073741Y-63082364D01*
X156153302Y-63201436D01*
X156254564Y-63302698D01*
X156373636Y-63382259D01*
X156505942Y-63437062D01*
X156646397Y-63465000D01*
X156789603Y-63465000D01*
X156930058Y-63437062D01*
X157062364Y-63382259D01*
X157181436Y-63302698D01*
X157282698Y-63201436D01*
X157362259Y-63082364D01*
X157417062Y-62950058D01*
X157445000Y-62809603D01*
X157445000Y-62666397D01*
X167294000Y-62666397D01*
X167294000Y-62809603D01*
X167321938Y-62950058D01*
X167376741Y-63082364D01*
X167456302Y-63201436D01*
X167557564Y-63302698D01*
X167676636Y-63382259D01*
X167808942Y-63437062D01*
X167949397Y-63465000D01*
X168092603Y-63465000D01*
X168233058Y-63437062D01*
X168365364Y-63382259D01*
X168484436Y-63302698D01*
X168585698Y-63201436D01*
X168665259Y-63082364D01*
X168720062Y-62950058D01*
X168748000Y-62809603D01*
X168748000Y-62666397D01*
X168720062Y-62525942D01*
X168665259Y-62393636D01*
X168585698Y-62274564D01*
X168484436Y-62173302D01*
X168365364Y-62093741D01*
X168233058Y-62038938D01*
X168092603Y-62011000D01*
X167949397Y-62011000D01*
X167808942Y-62038938D01*
X167676636Y-62093741D01*
X167557564Y-62173302D01*
X167456302Y-62274564D01*
X167376741Y-62393636D01*
X167321938Y-62525942D01*
X167294000Y-62666397D01*
X157445000Y-62666397D01*
X157417062Y-62525942D01*
X157362259Y-62393636D01*
X157282698Y-62274564D01*
X157181436Y-62173302D01*
X157062364Y-62093741D01*
X156930058Y-62038938D01*
X156789603Y-62011000D01*
X156646397Y-62011000D01*
X156505942Y-62038938D01*
X156373636Y-62093741D01*
X156254564Y-62173302D01*
X156153302Y-62274564D01*
X156073741Y-62393636D01*
X156018938Y-62525942D01*
X155991000Y-62666397D01*
X152036031Y-62666397D01*
X152028259Y-62647636D01*
X151948698Y-62528564D01*
X151847436Y-62427302D01*
X151728364Y-62347741D01*
X151596058Y-62292938D01*
X151455603Y-62265000D01*
X151312397Y-62265000D01*
X151171942Y-62292938D01*
X151039636Y-62347741D01*
X150920564Y-62427302D01*
X150819302Y-62528564D01*
X150739741Y-62647636D01*
X150684938Y-62779942D01*
X150657000Y-62920397D01*
X130126035Y-62920397D01*
X130282069Y-62764364D01*
X130302553Y-62747553D01*
X130319364Y-62727069D01*
X130319368Y-62727065D01*
X130369659Y-62665785D01*
X130379360Y-62647636D01*
X130419524Y-62572495D01*
X130450230Y-62471270D01*
X130458000Y-62392378D01*
X130458000Y-62392368D01*
X130460597Y-62366000D01*
X130458000Y-62339632D01*
X130458000Y-59081369D01*
X130460597Y-59055001D01*
X130458000Y-59028633D01*
X130458000Y-56702462D01*
X133471000Y-56702462D01*
X133471000Y-57343537D01*
X133484413Y-57479723D01*
X133537420Y-57654463D01*
X133623499Y-57815504D01*
X133739341Y-57956659D01*
X133880495Y-58072501D01*
X134041536Y-58158580D01*
X134216276Y-58211587D01*
X134398000Y-58229485D01*
X134579723Y-58211587D01*
X134754463Y-58158580D01*
X134915504Y-58072501D01*
X135056659Y-57956659D01*
X135172501Y-57815505D01*
X135258580Y-57654464D01*
X135311587Y-57479724D01*
X135325000Y-57343538D01*
X135325000Y-56702462D01*
X135311587Y-56566276D01*
X135260541Y-56397999D01*
X135469418Y-56397999D01*
X135469418Y-57648001D01*
X135480535Y-57760877D01*
X135513460Y-57869414D01*
X135566926Y-57969443D01*
X135638880Y-58057120D01*
X135726557Y-58129074D01*
X135826586Y-58182540D01*
X135935123Y-58215465D01*
X136047999Y-58226582D01*
X136748001Y-58226582D01*
X136860877Y-58215465D01*
X136969414Y-58182540D01*
X137069443Y-58129074D01*
X137157120Y-58057120D01*
X137229074Y-57969443D01*
X137282540Y-57869414D01*
X137315465Y-57760877D01*
X137326582Y-57648001D01*
X137326582Y-56702462D01*
X143123000Y-56702462D01*
X143123000Y-57343537D01*
X143136413Y-57479723D01*
X143189420Y-57654463D01*
X143275499Y-57815504D01*
X143391341Y-57956659D01*
X143532495Y-58072501D01*
X143693536Y-58158580D01*
X143868276Y-58211587D01*
X144050000Y-58229485D01*
X144231723Y-58211587D01*
X144406463Y-58158580D01*
X144567504Y-58072501D01*
X144708659Y-57956659D01*
X144824501Y-57815505D01*
X144910580Y-57654464D01*
X144963587Y-57479724D01*
X144977000Y-57343538D01*
X144977000Y-56702462D01*
X144963587Y-56566276D01*
X144912541Y-56397999D01*
X145121418Y-56397999D01*
X145121418Y-57648001D01*
X145132535Y-57760877D01*
X145165460Y-57869414D01*
X145218926Y-57969443D01*
X145290880Y-58057120D01*
X145378557Y-58129074D01*
X145478586Y-58182540D01*
X145587123Y-58215465D01*
X145699999Y-58226582D01*
X146400001Y-58226582D01*
X146512877Y-58215465D01*
X146621414Y-58182540D01*
X146721443Y-58129074D01*
X146809120Y-58057120D01*
X146881074Y-57969443D01*
X146934540Y-57869414D01*
X146967465Y-57760877D01*
X146978582Y-57648001D01*
X146978582Y-56702462D01*
X152521000Y-56702462D01*
X152521000Y-57343537D01*
X152534413Y-57479723D01*
X152587420Y-57654463D01*
X152673499Y-57815504D01*
X152789341Y-57956659D01*
X152930495Y-58072501D01*
X153091536Y-58158580D01*
X153266276Y-58211587D01*
X153448000Y-58229485D01*
X153629723Y-58211587D01*
X153804463Y-58158580D01*
X153965504Y-58072501D01*
X154106659Y-57956659D01*
X154222501Y-57815505D01*
X154308580Y-57654464D01*
X154361587Y-57479724D01*
X154375000Y-57343538D01*
X154375000Y-56702462D01*
X154361587Y-56566276D01*
X154310541Y-56397999D01*
X154519418Y-56397999D01*
X154519418Y-57648001D01*
X154530535Y-57760877D01*
X154563460Y-57869414D01*
X154616926Y-57969443D01*
X154688880Y-58057120D01*
X154776557Y-58129074D01*
X154876586Y-58182540D01*
X154985123Y-58215465D01*
X155097999Y-58226582D01*
X155798001Y-58226582D01*
X155910877Y-58215465D01*
X156019414Y-58182540D01*
X156119443Y-58129074D01*
X156207120Y-58057120D01*
X156279074Y-57969443D01*
X156332540Y-57869414D01*
X156365465Y-57760877D01*
X156376582Y-57648001D01*
X156376582Y-56702462D01*
X161411000Y-56702462D01*
X161411000Y-57343537D01*
X161424413Y-57479723D01*
X161477420Y-57654463D01*
X161563499Y-57815504D01*
X161679341Y-57956659D01*
X161820495Y-58072501D01*
X161981536Y-58158580D01*
X162156276Y-58211587D01*
X162338000Y-58229485D01*
X162519723Y-58211587D01*
X162694463Y-58158580D01*
X162855504Y-58072501D01*
X162996659Y-57956659D01*
X163044799Y-57898000D01*
X163355157Y-57898000D01*
X163362513Y-57972689D01*
X163384299Y-58044508D01*
X163419678Y-58110696D01*
X163467289Y-58168711D01*
X163525304Y-58216322D01*
X163591492Y-58251701D01*
X163663311Y-58273487D01*
X163738000Y-58280843D01*
X164242250Y-58279000D01*
X164337500Y-58183750D01*
X164337500Y-57023500D01*
X164338500Y-57023500D01*
X164338500Y-58183750D01*
X164433750Y-58279000D01*
X164938000Y-58280843D01*
X165012689Y-58273487D01*
X165084508Y-58251701D01*
X165150696Y-58216322D01*
X165208711Y-58168711D01*
X165256322Y-58110696D01*
X165291701Y-58044508D01*
X165313487Y-57972689D01*
X165320843Y-57898000D01*
X165319000Y-57118750D01*
X165223750Y-57023500D01*
X164338500Y-57023500D01*
X164337500Y-57023500D01*
X163452250Y-57023500D01*
X163357000Y-57118750D01*
X163355157Y-57898000D01*
X163044799Y-57898000D01*
X163112501Y-57815505D01*
X163198580Y-57654464D01*
X163251587Y-57479724D01*
X163265000Y-57343538D01*
X163265000Y-56702462D01*
X163251587Y-56566276D01*
X163198580Y-56391536D01*
X163112501Y-56230495D01*
X163044800Y-56148000D01*
X163355157Y-56148000D01*
X163357000Y-56927250D01*
X163452250Y-57022500D01*
X164337500Y-57022500D01*
X164337500Y-55862250D01*
X164338500Y-55862250D01*
X164338500Y-57022500D01*
X165223750Y-57022500D01*
X165319000Y-56927250D01*
X165320843Y-56148000D01*
X165313487Y-56073311D01*
X165291701Y-56001492D01*
X165256322Y-55935304D01*
X165208711Y-55877289D01*
X165150696Y-55829678D01*
X165084508Y-55794299D01*
X165012689Y-55772513D01*
X164938000Y-55765157D01*
X164433750Y-55767000D01*
X164338500Y-55862250D01*
X164337500Y-55862250D01*
X164242250Y-55767000D01*
X163738000Y-55765157D01*
X163663311Y-55772513D01*
X163591492Y-55794299D01*
X163525304Y-55829678D01*
X163467289Y-55877289D01*
X163419678Y-55935304D01*
X163384299Y-56001492D01*
X163362513Y-56073311D01*
X163355157Y-56148000D01*
X163044800Y-56148000D01*
X162996659Y-56089341D01*
X162855505Y-55973499D01*
X162694464Y-55887420D01*
X162519724Y-55834413D01*
X162338000Y-55816515D01*
X162156277Y-55834413D01*
X161981537Y-55887420D01*
X161820496Y-55973499D01*
X161679342Y-56089341D01*
X161563500Y-56230495D01*
X161477420Y-56391536D01*
X161424413Y-56566276D01*
X161411000Y-56702462D01*
X156376582Y-56702462D01*
X156376582Y-56397999D01*
X156365465Y-56285123D01*
X156332540Y-56176586D01*
X156279074Y-56076557D01*
X156207120Y-55988880D01*
X156119443Y-55916926D01*
X156019414Y-55863460D01*
X155910877Y-55830535D01*
X155798001Y-55819418D01*
X155097999Y-55819418D01*
X154985123Y-55830535D01*
X154876586Y-55863460D01*
X154776557Y-55916926D01*
X154688880Y-55988880D01*
X154616926Y-56076557D01*
X154563460Y-56176586D01*
X154530535Y-56285123D01*
X154519418Y-56397999D01*
X154310541Y-56397999D01*
X154308580Y-56391536D01*
X154222501Y-56230495D01*
X154106659Y-56089341D01*
X153965505Y-55973499D01*
X153804464Y-55887420D01*
X153629724Y-55834413D01*
X153448000Y-55816515D01*
X153266277Y-55834413D01*
X153091537Y-55887420D01*
X152930496Y-55973499D01*
X152789342Y-56089341D01*
X152673500Y-56230495D01*
X152587420Y-56391536D01*
X152534413Y-56566276D01*
X152521000Y-56702462D01*
X146978582Y-56702462D01*
X146978582Y-56397999D01*
X146967465Y-56285123D01*
X146934540Y-56176586D01*
X146881074Y-56076557D01*
X146809120Y-55988880D01*
X146721443Y-55916926D01*
X146621414Y-55863460D01*
X146512877Y-55830535D01*
X146400001Y-55819418D01*
X145699999Y-55819418D01*
X145587123Y-55830535D01*
X145478586Y-55863460D01*
X145378557Y-55916926D01*
X145290880Y-55988880D01*
X145218926Y-56076557D01*
X145165460Y-56176586D01*
X145132535Y-56285123D01*
X145121418Y-56397999D01*
X144912541Y-56397999D01*
X144910580Y-56391536D01*
X144824501Y-56230495D01*
X144708659Y-56089341D01*
X144567505Y-55973499D01*
X144406464Y-55887420D01*
X144231724Y-55834413D01*
X144050000Y-55816515D01*
X143868277Y-55834413D01*
X143693537Y-55887420D01*
X143532496Y-55973499D01*
X143391342Y-56089341D01*
X143275500Y-56230495D01*
X143189420Y-56391536D01*
X143136413Y-56566276D01*
X143123000Y-56702462D01*
X137326582Y-56702462D01*
X137326582Y-56397999D01*
X137315465Y-56285123D01*
X137282540Y-56176586D01*
X137229074Y-56076557D01*
X137157120Y-55988880D01*
X137069443Y-55916926D01*
X136969414Y-55863460D01*
X136860877Y-55830535D01*
X136748001Y-55819418D01*
X136047999Y-55819418D01*
X135935123Y-55830535D01*
X135826586Y-55863460D01*
X135726557Y-55916926D01*
X135638880Y-55988880D01*
X135566926Y-56076557D01*
X135513460Y-56176586D01*
X135480535Y-56285123D01*
X135469418Y-56397999D01*
X135260541Y-56397999D01*
X135258580Y-56391536D01*
X135172501Y-56230495D01*
X135056659Y-56089341D01*
X134915505Y-55973499D01*
X134754464Y-55887420D01*
X134579724Y-55834413D01*
X134398000Y-55816515D01*
X134216277Y-55834413D01*
X134041537Y-55887420D01*
X133880496Y-55973499D01*
X133739342Y-56089341D01*
X133623500Y-56230495D01*
X133537420Y-56391536D01*
X133484413Y-56566276D01*
X133471000Y-56702462D01*
X130458000Y-56702462D01*
X130458000Y-55017368D01*
X130460597Y-54991000D01*
X130458000Y-54964632D01*
X130458000Y-54964622D01*
X130450230Y-54885730D01*
X130419524Y-54784505D01*
X130369659Y-54691215D01*
X130336918Y-54651320D01*
X130319368Y-54629935D01*
X130319364Y-54629931D01*
X130302553Y-54609447D01*
X130282069Y-54592636D01*
X129922506Y-54233073D01*
X167623000Y-54233073D01*
X167623000Y-54986927D01*
X167770070Y-55726295D01*
X168058557Y-56422764D01*
X168477375Y-57049570D01*
X169010430Y-57582625D01*
X169637236Y-58001443D01*
X170333705Y-58289930D01*
X171073073Y-58437000D01*
X171826927Y-58437000D01*
X172566295Y-58289930D01*
X173262764Y-58001443D01*
X173889570Y-57582625D01*
X174422625Y-57049570D01*
X174841443Y-56422764D01*
X175129930Y-55726295D01*
X175277000Y-54986927D01*
X175277000Y-54233073D01*
X175129930Y-53493705D01*
X174841443Y-52797236D01*
X174422625Y-52170430D01*
X173889570Y-51637375D01*
X173262764Y-51218557D01*
X172566295Y-50930070D01*
X171826927Y-50783000D01*
X171073073Y-50783000D01*
X170333705Y-50930070D01*
X169637236Y-51218557D01*
X169010430Y-51637375D01*
X168477375Y-52170430D01*
X168058557Y-52797236D01*
X167770070Y-53493705D01*
X167623000Y-54233073D01*
X129922506Y-54233073D01*
X127797582Y-52108150D01*
X127797582Y-51220000D01*
X127791268Y-51155897D01*
X127772570Y-51094257D01*
X127742206Y-51037450D01*
X127701343Y-50987657D01*
X127651550Y-50946794D01*
X127594743Y-50916430D01*
X127533103Y-50897732D01*
X127469000Y-50891418D01*
X125769000Y-50891418D01*
X125704897Y-50897732D01*
X125643257Y-50916430D01*
X125586450Y-50946794D01*
X125536657Y-50987657D01*
X125495794Y-51037450D01*
X125465430Y-51094257D01*
X125446732Y-51155897D01*
X125440418Y-51220000D01*
X124893530Y-51220000D01*
X124829294Y-51155764D01*
X124636519Y-51026956D01*
X124422318Y-50938231D01*
X124194924Y-50893000D01*
X123963076Y-50893000D01*
X123735682Y-50938231D01*
X123521481Y-51026956D01*
X123328706Y-51155764D01*
X123164764Y-51319706D01*
X123035956Y-51512481D01*
X122947231Y-51726682D01*
X122902000Y-51954076D01*
X122722711Y-51954076D01*
X122754766Y-51876935D01*
X122693740Y-51643461D01*
X122588338Y-51426378D01*
X122442611Y-51234029D01*
X122262159Y-51073806D01*
X122053916Y-50951866D01*
X121825885Y-50872896D01*
X121732065Y-50854234D01*
X121539500Y-50934250D01*
X121538500Y-50934250D01*
X121345935Y-50854234D01*
X121252115Y-50872896D01*
X121024084Y-50951866D01*
X120815841Y-51073806D01*
X120635389Y-51234029D01*
X120489662Y-51426378D01*
X120384260Y-51643461D01*
X120323234Y-51876935D01*
X120160656Y-51876935D01*
X120130769Y-51726682D01*
X120042044Y-51512481D01*
X119913236Y-51319706D01*
X119749294Y-51155764D01*
X119556519Y-51026956D01*
X119342318Y-50938231D01*
X119114924Y-50893000D01*
X118883076Y-50893000D01*
X118655682Y-50938231D01*
X118441481Y-51026956D01*
X118248706Y-51155764D01*
X118084764Y-51319706D01*
X117955956Y-51512481D01*
X117867231Y-51726682D01*
X117822000Y-51954076D01*
X117636000Y-51954076D01*
X117590769Y-51726682D01*
X117502044Y-51512481D01*
X117373236Y-51319706D01*
X117209294Y-51155764D01*
X117016519Y-51026956D01*
X116802318Y-50938231D01*
X116574924Y-50893000D01*
X116343076Y-50893000D01*
X116115682Y-50938231D01*
X115901481Y-51026956D01*
X115708706Y-51155764D01*
X115544764Y-51319706D01*
X115415956Y-51512481D01*
X115327231Y-51726682D01*
X115282000Y-51954076D01*
X108802366Y-51954076D01*
X108866496Y-51858099D01*
X108936376Y-51689396D01*
X108972000Y-51510301D01*
X108972000Y-51327699D01*
X108936376Y-51148604D01*
X108866496Y-50979901D01*
X108765048Y-50828072D01*
X108635928Y-50698952D01*
X108484099Y-50597504D01*
X108315396Y-50527624D01*
X108136301Y-50492000D01*
X107953699Y-50492000D01*
X107774604Y-50527624D01*
X107605901Y-50597504D01*
X107454072Y-50698952D01*
X107324952Y-50828072D01*
X107223504Y-50979901D01*
X107153624Y-51148604D01*
X107118000Y-51327699D01*
X107118000Y-51510301D01*
X107153624Y-51689396D01*
X107210068Y-51825662D01*
X107205368Y-51819935D01*
X107205364Y-51819931D01*
X107188553Y-51799447D01*
X107168069Y-51782636D01*
X106959347Y-51573914D01*
X106972000Y-51510301D01*
X106972000Y-51327699D01*
X106936376Y-51148604D01*
X106866496Y-50979901D01*
X106765048Y-50828072D01*
X106635928Y-50698952D01*
X106484099Y-50597504D01*
X106315396Y-50527624D01*
X106136301Y-50492000D01*
X105953699Y-50492000D01*
X105774604Y-50527624D01*
X105605901Y-50597504D01*
X105454072Y-50698952D01*
X105324952Y-50828072D01*
X105223504Y-50979901D01*
X105153624Y-51148604D01*
X105118000Y-51327699D01*
X104972000Y-51327699D01*
X104936376Y-51148604D01*
X104866496Y-50979901D01*
X104765048Y-50828072D01*
X104635928Y-50698952D01*
X104484099Y-50597504D01*
X104315396Y-50527624D01*
X104136301Y-50492000D01*
X103953699Y-50492000D01*
X103774604Y-50527624D01*
X103605901Y-50597504D01*
X103454072Y-50698952D01*
X103324952Y-50828072D01*
X103223504Y-50979901D01*
X103153624Y-51148604D01*
X103118000Y-51327699D01*
X101654066Y-51327699D01*
X101809591Y-51094938D01*
X101917162Y-50835241D01*
X101972000Y-50559547D01*
X101972000Y-50278453D01*
X101926366Y-50049030D01*
X103415677Y-50049030D01*
X103465997Y-50216780D01*
X103632761Y-50314409D01*
X103815368Y-50377628D01*
X104006799Y-50404008D01*
X104199698Y-50392533D01*
X104386653Y-50343647D01*
X104560478Y-50259227D01*
X104624003Y-50216780D01*
X104674323Y-50049030D01*
X104045000Y-49419707D01*
X103415677Y-50049030D01*
X101926366Y-50049030D01*
X101917162Y-50002759D01*
X101809591Y-49743062D01*
X101653424Y-49509340D01*
X101524883Y-49380799D01*
X103059992Y-49380799D01*
X103071467Y-49573698D01*
X103120353Y-49760653D01*
X103204773Y-49934478D01*
X103247220Y-49998003D01*
X103414970Y-50048323D01*
X104044293Y-49419000D01*
X104045707Y-49419000D01*
X104675030Y-50048323D01*
X104842780Y-49998003D01*
X104940409Y-49831239D01*
X105003628Y-49648632D01*
X105030008Y-49457201D01*
X105022305Y-49327699D01*
X105118000Y-49327699D01*
X105118000Y-49510301D01*
X105153624Y-49689396D01*
X105223504Y-49858099D01*
X105324952Y-50009928D01*
X105454072Y-50139048D01*
X105605901Y-50240496D01*
X105774604Y-50310376D01*
X105953699Y-50346000D01*
X106136301Y-50346000D01*
X106315396Y-50310376D01*
X106484099Y-50240496D01*
X106635928Y-50139048D01*
X106765048Y-50009928D01*
X106866496Y-49858099D01*
X106936376Y-49689396D01*
X106972000Y-49510301D01*
X106972000Y-49327699D01*
X106936376Y-49148604D01*
X106866496Y-48979901D01*
X106765048Y-48828072D01*
X106755976Y-48819000D01*
X107116418Y-48819000D01*
X107116418Y-50019000D01*
X107122732Y-50083103D01*
X107141430Y-50144743D01*
X107171794Y-50201550D01*
X107212657Y-50251343D01*
X107262450Y-50292206D01*
X107319257Y-50322570D01*
X107380897Y-50341268D01*
X107445000Y-50347582D01*
X108645000Y-50347582D01*
X108709103Y-50341268D01*
X108770743Y-50322570D01*
X108827550Y-50292206D01*
X108844308Y-50278453D01*
X110118000Y-50278453D01*
X110118000Y-50559547D01*
X110172838Y-50835241D01*
X110280409Y-51094938D01*
X110436576Y-51328660D01*
X110635340Y-51527424D01*
X110869062Y-51683591D01*
X111128759Y-51791162D01*
X111404453Y-51846000D01*
X111685547Y-51846000D01*
X111961241Y-51791162D01*
X112220938Y-51683591D01*
X112454660Y-51527424D01*
X112653424Y-51328660D01*
X112809591Y-51094938D01*
X112917162Y-50835241D01*
X112972000Y-50559547D01*
X112972000Y-50278453D01*
X112917162Y-50002759D01*
X112849495Y-49839397D01*
X123352000Y-49839397D01*
X123352000Y-49982603D01*
X123379938Y-50123058D01*
X123434741Y-50255364D01*
X123514302Y-50374436D01*
X123615564Y-50475698D01*
X123734636Y-50555259D01*
X123866942Y-50610062D01*
X124007397Y-50638000D01*
X124150603Y-50638000D01*
X124291058Y-50610062D01*
X124423364Y-50555259D01*
X124542436Y-50475698D01*
X124643698Y-50374436D01*
X124723259Y-50255364D01*
X124778062Y-50123058D01*
X124806000Y-49982603D01*
X124806000Y-49839397D01*
X124778062Y-49698942D01*
X124723259Y-49566636D01*
X124643698Y-49447564D01*
X124542436Y-49346302D01*
X124423364Y-49266741D01*
X124291058Y-49211938D01*
X124150603Y-49184000D01*
X124007397Y-49184000D01*
X123866942Y-49211938D01*
X123734636Y-49266741D01*
X123615564Y-49346302D01*
X123514302Y-49447564D01*
X123434741Y-49566636D01*
X123379938Y-49698942D01*
X123352000Y-49839397D01*
X112849495Y-49839397D01*
X112809591Y-49743062D01*
X112653424Y-49509340D01*
X112454660Y-49310576D01*
X112220938Y-49154409D01*
X111961241Y-49046838D01*
X111685547Y-48992000D01*
X111404453Y-48992000D01*
X111128759Y-49046838D01*
X110869062Y-49154409D01*
X110635340Y-49310576D01*
X110436576Y-49509340D01*
X110280409Y-49743062D01*
X110172838Y-50002759D01*
X110118000Y-50278453D01*
X108844308Y-50278453D01*
X108877343Y-50251343D01*
X108918206Y-50201550D01*
X108948570Y-50144743D01*
X108967268Y-50083103D01*
X108973582Y-50019000D01*
X108973582Y-48819000D01*
X108967268Y-48754897D01*
X108948570Y-48693257D01*
X108918206Y-48636450D01*
X108877343Y-48586657D01*
X108827550Y-48545794D01*
X108770743Y-48515430D01*
X108709103Y-48496732D01*
X108645000Y-48490418D01*
X107445000Y-48490418D01*
X107380897Y-48496732D01*
X107319257Y-48515430D01*
X107262450Y-48545794D01*
X107212657Y-48586657D01*
X107171794Y-48636450D01*
X107141430Y-48693257D01*
X107122732Y-48754897D01*
X107116418Y-48819000D01*
X106755976Y-48819000D01*
X106635928Y-48698952D01*
X106484099Y-48597504D01*
X106315396Y-48527624D01*
X106136301Y-48492000D01*
X105953699Y-48492000D01*
X105774604Y-48527624D01*
X105605901Y-48597504D01*
X105454072Y-48698952D01*
X105324952Y-48828072D01*
X105223504Y-48979901D01*
X105153624Y-49148604D01*
X105118000Y-49327699D01*
X105022305Y-49327699D01*
X105018533Y-49264302D01*
X104969647Y-49077347D01*
X104885227Y-48903522D01*
X104842780Y-48839997D01*
X104675030Y-48789677D01*
X104045707Y-49419000D01*
X104044293Y-49419000D01*
X103414970Y-48789677D01*
X103247220Y-48839997D01*
X103149591Y-49006761D01*
X103086372Y-49189368D01*
X103059992Y-49380799D01*
X101524883Y-49380799D01*
X101454660Y-49310576D01*
X101220938Y-49154409D01*
X100961241Y-49046838D01*
X100685547Y-48992000D01*
X100404453Y-48992000D01*
X100128759Y-49046838D01*
X99869062Y-49154409D01*
X99635340Y-49310576D01*
X99436576Y-49509340D01*
X99280409Y-49743062D01*
X99172838Y-50002759D01*
X99118000Y-50278453D01*
X85777201Y-50278453D01*
X85805417Y-50245417D01*
X86541925Y-49616380D01*
X87367764Y-49110306D01*
X88262612Y-48739647D01*
X89204420Y-48513540D01*
X90176950Y-48437000D01*
X104032635Y-48437000D01*
X103890302Y-48445467D01*
G37*
%TD.AperFunction*%
%TD*%
M02*
