M48
; DRILL file {KiCad (5.1.9)-1} date 07/15/21 19:21:04
; FORMAT={-:-/ absolute / inch / decimal}
; #@! TF.CreationDate,2021-07-15T19:21:04-04:00
; #@! TF.GenerationSoftware,Kicad,Pcbnew,(5.1.9)-1
; #@! TF.FileFunction,Plated,1,4,PTH
FMAT,2
INCH
T1C0.0157
T2C0.0268
T3C0.0295
T4C0.0315
T5C0.0394
T6C0.1378
%
G90
G05
T1
X3.37Y-3.76
X3.3775Y-3.9175
X3.42Y-2.975
X3.42Y-3.52
X3.435Y-3.24
X3.645Y-2.89
X3.7468Y-3.135
X3.7468Y-3.6918
X3.775Y-2.51
X3.78Y-3.9375
X3.805Y-2.765
X3.865Y-2.265
X3.87Y-3.765
X3.945Y-2.265
X3.945Y-2.59
X3.975Y-3.165
X3.975Y-3.395
X4.01Y-2.955
X4.035Y-2.365
X4.075Y-2.145
X4.123Y-2.673
X4.155Y-2.585
X4.295Y-2.585
X4.335Y-3.405
X4.3525Y-2.3375
X4.375Y-3.225
X4.395Y-2.645
X4.4Y-3.675
X4.425Y-3.295
X4.46Y-3.465
X4.46Y-3.685
X4.575Y-2.64
X4.615Y-3.245
X4.625Y-2.22
X4.625Y-2.27
X4.625Y-3.36
X4.63Y-2.64
X4.76Y-3.685
X4.76Y-3.825
X4.785Y-3.36
X4.81Y-2.2625
X4.885Y-1.965
X4.895Y-2.205
X4.9075Y-2.3575
X4.965Y-3.165
X4.965Y-3.23
X4.975Y-2.605
X5.43Y-3.36
X5.43Y-3.56
X5.43Y-3.76
X5.585Y-3.31
X5.755Y-3.305
X5.845Y-4.925
X5.87Y-3.505
X5.875Y-3.21
X5.875Y-3.31
X5.875Y-3.41
X5.925Y-3.26
X5.925Y-3.36
X5.925Y-3.46
X5.925Y-3.56
X5.96Y-2.48
X5.975Y-3.21
X5.975Y-3.31
X5.975Y-3.41
X5.975Y-3.51
X5.975Y-3.61
X5.98Y-4.515
X6.025Y-3.26
X6.025Y-3.36
X6.025Y-3.46
X6.025Y-3.56
X6.025Y-4.685
X6.025Y-4.815
X6.0546Y-3.9846
X6.055Y-2.805
X6.075Y-3.21
X6.075Y-3.31
X6.075Y-3.41
X6.075Y-3.51
X6.075Y-3.61
X6.12Y-4.52
X6.125Y-3.26
X6.125Y-3.36
X6.125Y-3.46
X6.125Y-3.56
X6.15Y-3.985
X6.17Y-2.47
X6.175Y-3.21
X6.175Y-3.31
X6.175Y-3.41
X6.175Y-3.51
X6.175Y-3.61
X6.19Y-4.93
X6.21Y-4.075
X6.21Y-4.125
X6.225Y-3.26
X6.225Y-3.36
X6.225Y-3.46
X6.225Y-3.56
X6.26Y-4.1
X6.275Y-2.665
X6.31Y-4.1
X6.3312Y-4.2838
X6.36Y-4.075
X6.36Y-4.125
X6.39Y-4.93
X6.435Y-4.21
X6.465Y-4.395
X6.47Y-2.355
X6.47Y-3.365
X6.495Y-3.415
X6.495Y-3.515
X6.495Y-3.615
X6.535Y-4.685
X6.535Y-4.92
X6.545Y-3.465
X6.545Y-3.565
X6.545Y-3.665
X6.585Y-4.895
X6.595Y-3.415
X6.595Y-3.515
X6.595Y-3.615
X6.615Y-2.47
X6.64Y-5.07
X6.645Y-3.365
X6.645Y-3.465
X6.645Y-3.565
X6.645Y-3.665
X6.695Y-3.415
X6.695Y-3.515
X6.695Y-3.615
X6.715Y-4.925
X6.745Y-3.365
X6.745Y-3.465
X6.745Y-3.565
X6.745Y-3.665
X6.7817Y-4.8533
X6.795Y-3.415
X6.795Y-3.515
X6.795Y-3.615
X6.8004Y-4.0004
X6.845Y-3.365
X6.845Y-3.465
X6.845Y-3.565
X6.845Y-3.665
X6.92Y-4.76
T2
X4.0963Y-1.9456
X4.0963Y-2.0244
X4.175Y-1.9456
X4.175Y-2.0244
X4.2537Y-1.9456
X4.2537Y-2.0244
T3
X5.2913Y-2.245
X5.37Y-2.245
X5.6713Y-2.245
X5.75Y-2.245
X6.0413Y-2.245
X6.12Y-2.245
X6.3913Y-2.245
X6.47Y-2.245
T4
X4.4979Y-2.495
X4.69Y-2.495
T5
X4.095Y-3.885
X4.165Y-3.395
X4.195Y-3.885
X4.295Y-3.885
X4.395Y-3.365
X4.395Y-3.885
X4.585Y-2.05
X4.685Y-2.05
X4.785Y-2.05
X4.885Y-2.05
X4.985Y-2.05
X5.395Y-2.575
X5.395Y-2.675
X5.395Y-2.775
X5.4Y-2.975
X5.4Y-3.075
X5.4Y-3.175
X5.695Y-4.265
X5.695Y-4.365
X5.695Y-4.645
X5.695Y-4.745
T6
X3.55Y-2.15
X5.765Y-3.925
X5.765Y-5.55
X6.75Y-2.15
X6.75Y-5.55
T0
M30
