%TF.GenerationSoftware,KiCad,Pcbnew,(5.1.9)-1*%
%TF.CreationDate,2021-07-12T23:28:21-04:00*%
%TF.ProjectId,detector_support,64657465-6374-46f7-925f-737570706f72,rev?*%
%TF.SameCoordinates,Original*%
%TF.FileFunction,Paste,Top*%
%TF.FilePolarity,Positive*%
%FSLAX46Y46*%
G04 Gerber Fmt 4.6, Leading zero omitted, Abs format (unit mm)*
G04 Created by KiCad (PCBNEW (5.1.9)-1) date 2021-07-12 23:28:21*
%MOMM*%
%LPD*%
G01*
G04 APERTURE LIST*
%ADD10R,2.000000X1.450000*%
%ADD11R,1.500000X0.800000*%
%ADD12R,0.650000X2.000000*%
%ADD13R,5.250000X4.550000*%
%ADD14R,0.800000X4.600000*%
%ADD15R,5.000000X4.500000*%
%ADD16R,1.800000X3.500000*%
%ADD17R,0.355600X1.473200*%
%ADD18R,2.460000X2.310000*%
%ADD19R,2.000000X3.800000*%
%ADD20R,2.000000X1.500000*%
%ADD21R,0.650000X1.060000*%
%ADD22R,1.100000X1.100000*%
%ADD23R,0.450000X1.450000*%
%ADD24R,0.900000X0.800000*%
G04 APERTURE END LIST*
D10*
%TO.C,J8*%
X87185500Y-77660500D03*
X87185500Y-91410500D03*
X95485500Y-91410500D03*
X95485500Y-77660500D03*
D11*
X89785500Y-80040500D03*
X89785500Y-81140500D03*
X89785500Y-82240500D03*
X89795500Y-83340500D03*
X89785500Y-84440500D03*
X89785500Y-85530500D03*
X89785500Y-86640500D03*
X89785500Y-87740500D03*
%TD*%
%TO.C,C1*%
G36*
G01*
X155633000Y-118548999D02*
X155633000Y-119449001D01*
G75*
G02*
X155383001Y-119699000I-249999J0D01*
G01*
X154732999Y-119699000D01*
G75*
G02*
X154483000Y-119449001I0J249999D01*
G01*
X154483000Y-118548999D01*
G75*
G02*
X154732999Y-118299000I249999J0D01*
G01*
X155383001Y-118299000D01*
G75*
G02*
X155633000Y-118548999I0J-249999D01*
G01*
G37*
G36*
G01*
X157683000Y-118548999D02*
X157683000Y-119449001D01*
G75*
G02*
X157433001Y-119699000I-249999J0D01*
G01*
X156782999Y-119699000D01*
G75*
G02*
X156533000Y-119449001I0J249999D01*
G01*
X156533000Y-118548999D01*
G75*
G02*
X156782999Y-118299000I249999J0D01*
G01*
X157433001Y-118299000D01*
G75*
G02*
X157683000Y-118548999I0J-249999D01*
G01*
G37*
%TD*%
%TO.C,C26*%
G36*
G01*
X155643000Y-67159500D02*
X157793000Y-67159500D01*
G75*
G02*
X158043000Y-67409500I0J-250000D01*
G01*
X158043000Y-68334500D01*
G75*
G02*
X157793000Y-68584500I-250000J0D01*
G01*
X155643000Y-68584500D01*
G75*
G02*
X155393000Y-68334500I0J250000D01*
G01*
X155393000Y-67409500D01*
G75*
G02*
X155643000Y-67159500I250000J0D01*
G01*
G37*
G36*
G01*
X155643000Y-64184500D02*
X157793000Y-64184500D01*
G75*
G02*
X158043000Y-64434500I0J-250000D01*
G01*
X158043000Y-65359500D01*
G75*
G02*
X157793000Y-65609500I-250000J0D01*
G01*
X155643000Y-65609500D01*
G75*
G02*
X155393000Y-65359500I0J250000D01*
G01*
X155393000Y-64434500D01*
G75*
G02*
X155643000Y-64184500I250000J0D01*
G01*
G37*
%TD*%
%TO.C,C22*%
G36*
G01*
X145552000Y-81674000D02*
X146802000Y-81674000D01*
G75*
G02*
X147052000Y-81924000I0J-250000D01*
G01*
X147052000Y-82849000D01*
G75*
G02*
X146802000Y-83099000I-250000J0D01*
G01*
X145552000Y-83099000D01*
G75*
G02*
X145302000Y-82849000I0J250000D01*
G01*
X145302000Y-81924000D01*
G75*
G02*
X145552000Y-81674000I250000J0D01*
G01*
G37*
G36*
G01*
X145552000Y-78699000D02*
X146802000Y-78699000D01*
G75*
G02*
X147052000Y-78949000I0J-250000D01*
G01*
X147052000Y-79874000D01*
G75*
G02*
X146802000Y-80124000I-250000J0D01*
G01*
X145552000Y-80124000D01*
G75*
G02*
X145302000Y-79874000I0J250000D01*
G01*
X145302000Y-78949000D01*
G75*
G02*
X145552000Y-78699000I250000J0D01*
G01*
G37*
%TD*%
%TO.C,C16*%
G36*
G01*
X165722000Y-109230000D02*
X165722000Y-110480000D01*
G75*
G02*
X165472000Y-110730000I-250000J0D01*
G01*
X164547000Y-110730000D01*
G75*
G02*
X164297000Y-110480000I0J250000D01*
G01*
X164297000Y-109230000D01*
G75*
G02*
X164547000Y-108980000I250000J0D01*
G01*
X165472000Y-108980000D01*
G75*
G02*
X165722000Y-109230000I0J-250000D01*
G01*
G37*
G36*
G01*
X168697000Y-109230000D02*
X168697000Y-110480000D01*
G75*
G02*
X168447000Y-110730000I-250000J0D01*
G01*
X167522000Y-110730000D01*
G75*
G02*
X167272000Y-110480000I0J250000D01*
G01*
X167272000Y-109230000D01*
G75*
G02*
X167522000Y-108980000I250000J0D01*
G01*
X168447000Y-108980000D01*
G75*
G02*
X168697000Y-109230000I0J-250000D01*
G01*
G37*
%TD*%
%TO.C,C15*%
G36*
G01*
X165214000Y-106309000D02*
X165214000Y-107559000D01*
G75*
G02*
X164964000Y-107809000I-250000J0D01*
G01*
X164039000Y-107809000D01*
G75*
G02*
X163789000Y-107559000I0J250000D01*
G01*
X163789000Y-106309000D01*
G75*
G02*
X164039000Y-106059000I250000J0D01*
G01*
X164964000Y-106059000D01*
G75*
G02*
X165214000Y-106309000I0J-250000D01*
G01*
G37*
G36*
G01*
X168189000Y-106309000D02*
X168189000Y-107559000D01*
G75*
G02*
X167939000Y-107809000I-250000J0D01*
G01*
X167014000Y-107809000D01*
G75*
G02*
X166764000Y-107559000I0J250000D01*
G01*
X166764000Y-106309000D01*
G75*
G02*
X167014000Y-106059000I250000J0D01*
G01*
X167939000Y-106059000D01*
G75*
G02*
X168189000Y-106309000I0J-250000D01*
G01*
G37*
%TD*%
D12*
%TO.C,U3*%
X156017000Y-125408000D03*
X154117000Y-125408000D03*
X154117000Y-121988000D03*
X155067000Y-121988000D03*
X156017000Y-121988000D03*
%TD*%
D13*
%TO.C,U1*%
X151022000Y-83236500D03*
X156572000Y-88086500D03*
X156572000Y-83236500D03*
X151022000Y-88086500D03*
D14*
X149987000Y-76511500D03*
X151257000Y-76511500D03*
X152527000Y-76511500D03*
X153797000Y-76511500D03*
X155067000Y-76511500D03*
X156337000Y-76511500D03*
X157607000Y-76511500D03*
%TD*%
%TO.C,C4*%
G36*
G01*
X173678000Y-121354001D02*
X173678000Y-120453999D01*
G75*
G02*
X173927999Y-120204000I249999J0D01*
G01*
X174578001Y-120204000D01*
G75*
G02*
X174828000Y-120453999I0J-249999D01*
G01*
X174828000Y-121354001D01*
G75*
G02*
X174578001Y-121604000I-249999J0D01*
G01*
X173927999Y-121604000D01*
G75*
G02*
X173678000Y-121354001I0J249999D01*
G01*
G37*
G36*
G01*
X171628000Y-121354001D02*
X171628000Y-120453999D01*
G75*
G02*
X171877999Y-120204000I249999J0D01*
G01*
X172528001Y-120204000D01*
G75*
G02*
X172778000Y-120453999I0J-249999D01*
G01*
X172778000Y-121354001D01*
G75*
G02*
X172528001Y-121604000I-249999J0D01*
G01*
X171877999Y-121604000D01*
G75*
G02*
X171628000Y-121354001I0J249999D01*
G01*
G37*
%TD*%
%TO.C,R19*%
G36*
G01*
X102431000Y-89604001D02*
X102431000Y-88703999D01*
G75*
G02*
X102680999Y-88454000I249999J0D01*
G01*
X103331001Y-88454000D01*
G75*
G02*
X103581000Y-88703999I0J-249999D01*
G01*
X103581000Y-89604001D01*
G75*
G02*
X103331001Y-89854000I-249999J0D01*
G01*
X102680999Y-89854000D01*
G75*
G02*
X102431000Y-89604001I0J249999D01*
G01*
G37*
G36*
G01*
X100381000Y-89604001D02*
X100381000Y-88703999D01*
G75*
G02*
X100630999Y-88454000I249999J0D01*
G01*
X101281001Y-88454000D01*
G75*
G02*
X101531000Y-88703999I0J-249999D01*
G01*
X101531000Y-89604001D01*
G75*
G02*
X101281001Y-89854000I-249999J0D01*
G01*
X100630999Y-89854000D01*
G75*
G02*
X100381000Y-89604001I0J249999D01*
G01*
G37*
%TD*%
D15*
%TO.C,L2*%
X168021000Y-65636500D03*
X168021000Y-76136500D03*
%TD*%
%TO.C,R2*%
G36*
G01*
X150933999Y-66172500D02*
X151834001Y-66172500D01*
G75*
G02*
X152084000Y-66422499I0J-249999D01*
G01*
X152084000Y-67072501D01*
G75*
G02*
X151834001Y-67322500I-249999J0D01*
G01*
X150933999Y-67322500D01*
G75*
G02*
X150684000Y-67072501I0J249999D01*
G01*
X150684000Y-66422499D01*
G75*
G02*
X150933999Y-66172500I249999J0D01*
G01*
G37*
G36*
G01*
X150933999Y-64122500D02*
X151834001Y-64122500D01*
G75*
G02*
X152084000Y-64372499I0J-249999D01*
G01*
X152084000Y-65022501D01*
G75*
G02*
X151834001Y-65272500I-249999J0D01*
G01*
X150933999Y-65272500D01*
G75*
G02*
X150684000Y-65022501I0J249999D01*
G01*
X150684000Y-64372499D01*
G75*
G02*
X150933999Y-64122500I249999J0D01*
G01*
G37*
%TD*%
D16*
%TO.C,D7*%
X169037000Y-86764500D03*
X169037000Y-81764500D03*
%TD*%
D17*
%TO.C,U6*%
X161462034Y-101219000D03*
X160812023Y-101219000D03*
X160162011Y-101219000D03*
X159512000Y-101219000D03*
X158861989Y-101219000D03*
X158211977Y-101219000D03*
X157561966Y-101219000D03*
X157561966Y-107061000D03*
X158211977Y-107061000D03*
X158861989Y-107061000D03*
X159512000Y-107061000D03*
X160162011Y-107061000D03*
X160812023Y-107061000D03*
X161462034Y-107061000D03*
D18*
X159512000Y-104140000D03*
%TD*%
%TO.C,R41*%
G36*
G01*
X151707000Y-71697001D02*
X151707000Y-70796999D01*
G75*
G02*
X151956999Y-70547000I249999J0D01*
G01*
X152607001Y-70547000D01*
G75*
G02*
X152857000Y-70796999I0J-249999D01*
G01*
X152857000Y-71697001D01*
G75*
G02*
X152607001Y-71947000I-249999J0D01*
G01*
X151956999Y-71947000D01*
G75*
G02*
X151707000Y-71697001I0J249999D01*
G01*
G37*
G36*
G01*
X149657000Y-71697001D02*
X149657000Y-70796999D01*
G75*
G02*
X149906999Y-70547000I249999J0D01*
G01*
X150557001Y-70547000D01*
G75*
G02*
X150807000Y-70796999I0J-249999D01*
G01*
X150807000Y-71697001D01*
G75*
G02*
X150557001Y-71947000I-249999J0D01*
G01*
X149906999Y-71947000D01*
G75*
G02*
X149657000Y-71697001I0J249999D01*
G01*
G37*
%TD*%
%TO.C,L1*%
G36*
G01*
X166302000Y-99809000D02*
X164152000Y-99809000D01*
G75*
G02*
X163902000Y-99559000I0J250000D01*
G01*
X163902000Y-98809000D01*
G75*
G02*
X164152000Y-98559000I250000J0D01*
G01*
X166302000Y-98559000D01*
G75*
G02*
X166552000Y-98809000I0J-250000D01*
G01*
X166552000Y-99559000D01*
G75*
G02*
X166302000Y-99809000I-250000J0D01*
G01*
G37*
G36*
G01*
X166302000Y-102609000D02*
X164152000Y-102609000D01*
G75*
G02*
X163902000Y-102359000I0J250000D01*
G01*
X163902000Y-101609000D01*
G75*
G02*
X164152000Y-101359000I250000J0D01*
G01*
X166302000Y-101359000D01*
G75*
G02*
X166552000Y-101609000I0J-250000D01*
G01*
X166552000Y-102359000D01*
G75*
G02*
X166302000Y-102609000I-250000J0D01*
G01*
G37*
%TD*%
%TO.C,C25*%
G36*
G01*
X155832500Y-70796999D02*
X155832500Y-71697001D01*
G75*
G02*
X155582501Y-71947000I-249999J0D01*
G01*
X154932499Y-71947000D01*
G75*
G02*
X154682500Y-71697001I0J249999D01*
G01*
X154682500Y-70796999D01*
G75*
G02*
X154932499Y-70547000I249999J0D01*
G01*
X155582501Y-70547000D01*
G75*
G02*
X155832500Y-70796999I0J-249999D01*
G01*
G37*
G36*
G01*
X157882500Y-70796999D02*
X157882500Y-71697001D01*
G75*
G02*
X157632501Y-71947000I-249999J0D01*
G01*
X156982499Y-71947000D01*
G75*
G02*
X156732500Y-71697001I0J249999D01*
G01*
X156732500Y-70796999D01*
G75*
G02*
X156982499Y-70547000I249999J0D01*
G01*
X157632501Y-70547000D01*
G75*
G02*
X157882500Y-70796999I0J-249999D01*
G01*
G37*
%TD*%
%TO.C,C24*%
G36*
G01*
X163760999Y-83308500D02*
X164661001Y-83308500D01*
G75*
G02*
X164911000Y-83558499I0J-249999D01*
G01*
X164911000Y-84208501D01*
G75*
G02*
X164661001Y-84458500I-249999J0D01*
G01*
X163760999Y-84458500D01*
G75*
G02*
X163511000Y-84208501I0J249999D01*
G01*
X163511000Y-83558499D01*
G75*
G02*
X163760999Y-83308500I249999J0D01*
G01*
G37*
G36*
G01*
X163760999Y-81258500D02*
X164661001Y-81258500D01*
G75*
G02*
X164911000Y-81508499I0J-249999D01*
G01*
X164911000Y-82158501D01*
G75*
G02*
X164661001Y-82408500I-249999J0D01*
G01*
X163760999Y-82408500D01*
G75*
G02*
X163511000Y-82158501I0J249999D01*
G01*
X163511000Y-81508499D01*
G75*
G02*
X163760999Y-81258500I249999J0D01*
G01*
G37*
%TD*%
%TO.C,U5*%
G36*
G01*
X124945000Y-77814000D02*
X125245000Y-77814000D01*
G75*
G02*
X125395000Y-77964000I0J-150000D01*
G01*
X125395000Y-79464000D01*
G75*
G02*
X125245000Y-79614000I-150000J0D01*
G01*
X124945000Y-79614000D01*
G75*
G02*
X124795000Y-79464000I0J150000D01*
G01*
X124795000Y-77964000D01*
G75*
G02*
X124945000Y-77814000I150000J0D01*
G01*
G37*
G36*
G01*
X123675000Y-77814000D02*
X123975000Y-77814000D01*
G75*
G02*
X124125000Y-77964000I0J-150000D01*
G01*
X124125000Y-79464000D01*
G75*
G02*
X123975000Y-79614000I-150000J0D01*
G01*
X123675000Y-79614000D01*
G75*
G02*
X123525000Y-79464000I0J150000D01*
G01*
X123525000Y-77964000D01*
G75*
G02*
X123675000Y-77814000I150000J0D01*
G01*
G37*
G36*
G01*
X122405000Y-77814000D02*
X122705000Y-77814000D01*
G75*
G02*
X122855000Y-77964000I0J-150000D01*
G01*
X122855000Y-79464000D01*
G75*
G02*
X122705000Y-79614000I-150000J0D01*
G01*
X122405000Y-79614000D01*
G75*
G02*
X122255000Y-79464000I0J150000D01*
G01*
X122255000Y-77964000D01*
G75*
G02*
X122405000Y-77814000I150000J0D01*
G01*
G37*
G36*
G01*
X121135000Y-77814000D02*
X121435000Y-77814000D01*
G75*
G02*
X121585000Y-77964000I0J-150000D01*
G01*
X121585000Y-79464000D01*
G75*
G02*
X121435000Y-79614000I-150000J0D01*
G01*
X121135000Y-79614000D01*
G75*
G02*
X120985000Y-79464000I0J150000D01*
G01*
X120985000Y-77964000D01*
G75*
G02*
X121135000Y-77814000I150000J0D01*
G01*
G37*
G36*
G01*
X119865000Y-77814000D02*
X120165000Y-77814000D01*
G75*
G02*
X120315000Y-77964000I0J-150000D01*
G01*
X120315000Y-79464000D01*
G75*
G02*
X120165000Y-79614000I-150000J0D01*
G01*
X119865000Y-79614000D01*
G75*
G02*
X119715000Y-79464000I0J150000D01*
G01*
X119715000Y-77964000D01*
G75*
G02*
X119865000Y-77814000I150000J0D01*
G01*
G37*
G36*
G01*
X118595000Y-77814000D02*
X118895000Y-77814000D01*
G75*
G02*
X119045000Y-77964000I0J-150000D01*
G01*
X119045000Y-79464000D01*
G75*
G02*
X118895000Y-79614000I-150000J0D01*
G01*
X118595000Y-79614000D01*
G75*
G02*
X118445000Y-79464000I0J150000D01*
G01*
X118445000Y-77964000D01*
G75*
G02*
X118595000Y-77814000I150000J0D01*
G01*
G37*
G36*
G01*
X117325000Y-77814000D02*
X117625000Y-77814000D01*
G75*
G02*
X117775000Y-77964000I0J-150000D01*
G01*
X117775000Y-79464000D01*
G75*
G02*
X117625000Y-79614000I-150000J0D01*
G01*
X117325000Y-79614000D01*
G75*
G02*
X117175000Y-79464000I0J150000D01*
G01*
X117175000Y-77964000D01*
G75*
G02*
X117325000Y-77814000I150000J0D01*
G01*
G37*
G36*
G01*
X116055000Y-77814000D02*
X116355000Y-77814000D01*
G75*
G02*
X116505000Y-77964000I0J-150000D01*
G01*
X116505000Y-79464000D01*
G75*
G02*
X116355000Y-79614000I-150000J0D01*
G01*
X116055000Y-79614000D01*
G75*
G02*
X115905000Y-79464000I0J150000D01*
G01*
X115905000Y-77964000D01*
G75*
G02*
X116055000Y-77814000I150000J0D01*
G01*
G37*
G36*
G01*
X114785000Y-77814000D02*
X115085000Y-77814000D01*
G75*
G02*
X115235000Y-77964000I0J-150000D01*
G01*
X115235000Y-79464000D01*
G75*
G02*
X115085000Y-79614000I-150000J0D01*
G01*
X114785000Y-79614000D01*
G75*
G02*
X114635000Y-79464000I0J150000D01*
G01*
X114635000Y-77964000D01*
G75*
G02*
X114785000Y-77814000I150000J0D01*
G01*
G37*
G36*
G01*
X113515000Y-77814000D02*
X113815000Y-77814000D01*
G75*
G02*
X113965000Y-77964000I0J-150000D01*
G01*
X113965000Y-79464000D01*
G75*
G02*
X113815000Y-79614000I-150000J0D01*
G01*
X113515000Y-79614000D01*
G75*
G02*
X113365000Y-79464000I0J150000D01*
G01*
X113365000Y-77964000D01*
G75*
G02*
X113515000Y-77814000I150000J0D01*
G01*
G37*
G36*
G01*
X112245000Y-77814000D02*
X112545000Y-77814000D01*
G75*
G02*
X112695000Y-77964000I0J-150000D01*
G01*
X112695000Y-79464000D01*
G75*
G02*
X112545000Y-79614000I-150000J0D01*
G01*
X112245000Y-79614000D01*
G75*
G02*
X112095000Y-79464000I0J150000D01*
G01*
X112095000Y-77964000D01*
G75*
G02*
X112245000Y-77814000I150000J0D01*
G01*
G37*
G36*
G01*
X110975000Y-77814000D02*
X111275000Y-77814000D01*
G75*
G02*
X111425000Y-77964000I0J-150000D01*
G01*
X111425000Y-79464000D01*
G75*
G02*
X111275000Y-79614000I-150000J0D01*
G01*
X110975000Y-79614000D01*
G75*
G02*
X110825000Y-79464000I0J150000D01*
G01*
X110825000Y-77964000D01*
G75*
G02*
X110975000Y-77814000I150000J0D01*
G01*
G37*
G36*
G01*
X109705000Y-77814000D02*
X110005000Y-77814000D01*
G75*
G02*
X110155000Y-77964000I0J-150000D01*
G01*
X110155000Y-79464000D01*
G75*
G02*
X110005000Y-79614000I-150000J0D01*
G01*
X109705000Y-79614000D01*
G75*
G02*
X109555000Y-79464000I0J150000D01*
G01*
X109555000Y-77964000D01*
G75*
G02*
X109705000Y-77814000I150000J0D01*
G01*
G37*
G36*
G01*
X108435000Y-77814000D02*
X108735000Y-77814000D01*
G75*
G02*
X108885000Y-77964000I0J-150000D01*
G01*
X108885000Y-79464000D01*
G75*
G02*
X108735000Y-79614000I-150000J0D01*
G01*
X108435000Y-79614000D01*
G75*
G02*
X108285000Y-79464000I0J150000D01*
G01*
X108285000Y-77964000D01*
G75*
G02*
X108435000Y-77814000I150000J0D01*
G01*
G37*
G36*
G01*
X108435000Y-68214000D02*
X108735000Y-68214000D01*
G75*
G02*
X108885000Y-68364000I0J-150000D01*
G01*
X108885000Y-69864000D01*
G75*
G02*
X108735000Y-70014000I-150000J0D01*
G01*
X108435000Y-70014000D01*
G75*
G02*
X108285000Y-69864000I0J150000D01*
G01*
X108285000Y-68364000D01*
G75*
G02*
X108435000Y-68214000I150000J0D01*
G01*
G37*
G36*
G01*
X109705000Y-68214000D02*
X110005000Y-68214000D01*
G75*
G02*
X110155000Y-68364000I0J-150000D01*
G01*
X110155000Y-69864000D01*
G75*
G02*
X110005000Y-70014000I-150000J0D01*
G01*
X109705000Y-70014000D01*
G75*
G02*
X109555000Y-69864000I0J150000D01*
G01*
X109555000Y-68364000D01*
G75*
G02*
X109705000Y-68214000I150000J0D01*
G01*
G37*
G36*
G01*
X110975000Y-68214000D02*
X111275000Y-68214000D01*
G75*
G02*
X111425000Y-68364000I0J-150000D01*
G01*
X111425000Y-69864000D01*
G75*
G02*
X111275000Y-70014000I-150000J0D01*
G01*
X110975000Y-70014000D01*
G75*
G02*
X110825000Y-69864000I0J150000D01*
G01*
X110825000Y-68364000D01*
G75*
G02*
X110975000Y-68214000I150000J0D01*
G01*
G37*
G36*
G01*
X112245000Y-68214000D02*
X112545000Y-68214000D01*
G75*
G02*
X112695000Y-68364000I0J-150000D01*
G01*
X112695000Y-69864000D01*
G75*
G02*
X112545000Y-70014000I-150000J0D01*
G01*
X112245000Y-70014000D01*
G75*
G02*
X112095000Y-69864000I0J150000D01*
G01*
X112095000Y-68364000D01*
G75*
G02*
X112245000Y-68214000I150000J0D01*
G01*
G37*
G36*
G01*
X113515000Y-68214000D02*
X113815000Y-68214000D01*
G75*
G02*
X113965000Y-68364000I0J-150000D01*
G01*
X113965000Y-69864000D01*
G75*
G02*
X113815000Y-70014000I-150000J0D01*
G01*
X113515000Y-70014000D01*
G75*
G02*
X113365000Y-69864000I0J150000D01*
G01*
X113365000Y-68364000D01*
G75*
G02*
X113515000Y-68214000I150000J0D01*
G01*
G37*
G36*
G01*
X114785000Y-68214000D02*
X115085000Y-68214000D01*
G75*
G02*
X115235000Y-68364000I0J-150000D01*
G01*
X115235000Y-69864000D01*
G75*
G02*
X115085000Y-70014000I-150000J0D01*
G01*
X114785000Y-70014000D01*
G75*
G02*
X114635000Y-69864000I0J150000D01*
G01*
X114635000Y-68364000D01*
G75*
G02*
X114785000Y-68214000I150000J0D01*
G01*
G37*
G36*
G01*
X116055000Y-68214000D02*
X116355000Y-68214000D01*
G75*
G02*
X116505000Y-68364000I0J-150000D01*
G01*
X116505000Y-69864000D01*
G75*
G02*
X116355000Y-70014000I-150000J0D01*
G01*
X116055000Y-70014000D01*
G75*
G02*
X115905000Y-69864000I0J150000D01*
G01*
X115905000Y-68364000D01*
G75*
G02*
X116055000Y-68214000I150000J0D01*
G01*
G37*
G36*
G01*
X117325000Y-68214000D02*
X117625000Y-68214000D01*
G75*
G02*
X117775000Y-68364000I0J-150000D01*
G01*
X117775000Y-69864000D01*
G75*
G02*
X117625000Y-70014000I-150000J0D01*
G01*
X117325000Y-70014000D01*
G75*
G02*
X117175000Y-69864000I0J150000D01*
G01*
X117175000Y-68364000D01*
G75*
G02*
X117325000Y-68214000I150000J0D01*
G01*
G37*
G36*
G01*
X118595000Y-68214000D02*
X118895000Y-68214000D01*
G75*
G02*
X119045000Y-68364000I0J-150000D01*
G01*
X119045000Y-69864000D01*
G75*
G02*
X118895000Y-70014000I-150000J0D01*
G01*
X118595000Y-70014000D01*
G75*
G02*
X118445000Y-69864000I0J150000D01*
G01*
X118445000Y-68364000D01*
G75*
G02*
X118595000Y-68214000I150000J0D01*
G01*
G37*
G36*
G01*
X119865000Y-68214000D02*
X120165000Y-68214000D01*
G75*
G02*
X120315000Y-68364000I0J-150000D01*
G01*
X120315000Y-69864000D01*
G75*
G02*
X120165000Y-70014000I-150000J0D01*
G01*
X119865000Y-70014000D01*
G75*
G02*
X119715000Y-69864000I0J150000D01*
G01*
X119715000Y-68364000D01*
G75*
G02*
X119865000Y-68214000I150000J0D01*
G01*
G37*
G36*
G01*
X121135000Y-68214000D02*
X121435000Y-68214000D01*
G75*
G02*
X121585000Y-68364000I0J-150000D01*
G01*
X121585000Y-69864000D01*
G75*
G02*
X121435000Y-70014000I-150000J0D01*
G01*
X121135000Y-70014000D01*
G75*
G02*
X120985000Y-69864000I0J150000D01*
G01*
X120985000Y-68364000D01*
G75*
G02*
X121135000Y-68214000I150000J0D01*
G01*
G37*
G36*
G01*
X122405000Y-68214000D02*
X122705000Y-68214000D01*
G75*
G02*
X122855000Y-68364000I0J-150000D01*
G01*
X122855000Y-69864000D01*
G75*
G02*
X122705000Y-70014000I-150000J0D01*
G01*
X122405000Y-70014000D01*
G75*
G02*
X122255000Y-69864000I0J150000D01*
G01*
X122255000Y-68364000D01*
G75*
G02*
X122405000Y-68214000I150000J0D01*
G01*
G37*
G36*
G01*
X123675000Y-68214000D02*
X123975000Y-68214000D01*
G75*
G02*
X124125000Y-68364000I0J-150000D01*
G01*
X124125000Y-69864000D01*
G75*
G02*
X123975000Y-70014000I-150000J0D01*
G01*
X123675000Y-70014000D01*
G75*
G02*
X123525000Y-69864000I0J150000D01*
G01*
X123525000Y-68364000D01*
G75*
G02*
X123675000Y-68214000I150000J0D01*
G01*
G37*
G36*
G01*
X124945000Y-68214000D02*
X125245000Y-68214000D01*
G75*
G02*
X125395000Y-68364000I0J-150000D01*
G01*
X125395000Y-69864000D01*
G75*
G02*
X125245000Y-70014000I-150000J0D01*
G01*
X124945000Y-70014000D01*
G75*
G02*
X124795000Y-69864000I0J150000D01*
G01*
X124795000Y-68364000D01*
G75*
G02*
X124945000Y-68214000I150000J0D01*
G01*
G37*
%TD*%
D19*
%TO.C,U4*%
X87782000Y-62484000D03*
D20*
X94082000Y-62484000D03*
X94082000Y-60184000D03*
X94082000Y-64784000D03*
%TD*%
D21*
%TO.C,U2*%
X168595000Y-121074000D03*
X170495000Y-121074000D03*
X170495000Y-123274000D03*
X169545000Y-123274000D03*
X168595000Y-123274000D03*
%TD*%
%TO.C,D5*%
G36*
G01*
X131432000Y-94879000D02*
X131432000Y-96129000D01*
G75*
G02*
X131182000Y-96379000I-250000J0D01*
G01*
X130257000Y-96379000D01*
G75*
G02*
X130007000Y-96129000I0J250000D01*
G01*
X130007000Y-94879000D01*
G75*
G02*
X130257000Y-94629000I250000J0D01*
G01*
X131182000Y-94629000D01*
G75*
G02*
X131432000Y-94879000I0J-250000D01*
G01*
G37*
G36*
G01*
X134407000Y-94879000D02*
X134407000Y-96129000D01*
G75*
G02*
X134157000Y-96379000I-250000J0D01*
G01*
X133232000Y-96379000D01*
G75*
G02*
X132982000Y-96129000I0J250000D01*
G01*
X132982000Y-94879000D01*
G75*
G02*
X133232000Y-94629000I250000J0D01*
G01*
X134157000Y-94629000D01*
G75*
G02*
X134407000Y-94879000I0J-250000D01*
G01*
G37*
%TD*%
%TO.C,D4*%
G36*
G01*
X131432000Y-84719000D02*
X131432000Y-85969000D01*
G75*
G02*
X131182000Y-86219000I-250000J0D01*
G01*
X130257000Y-86219000D01*
G75*
G02*
X130007000Y-85969000I0J250000D01*
G01*
X130007000Y-84719000D01*
G75*
G02*
X130257000Y-84469000I250000J0D01*
G01*
X131182000Y-84469000D01*
G75*
G02*
X131432000Y-84719000I0J-250000D01*
G01*
G37*
G36*
G01*
X134407000Y-84719000D02*
X134407000Y-85969000D01*
G75*
G02*
X134157000Y-86219000I-250000J0D01*
G01*
X133232000Y-86219000D01*
G75*
G02*
X132982000Y-85969000I0J250000D01*
G01*
X132982000Y-84719000D01*
G75*
G02*
X133232000Y-84469000I250000J0D01*
G01*
X134157000Y-84469000D01*
G75*
G02*
X134407000Y-84719000I0J-250000D01*
G01*
G37*
%TD*%
%TO.C,D3*%
G36*
G01*
X131432000Y-89799000D02*
X131432000Y-91049000D01*
G75*
G02*
X131182000Y-91299000I-250000J0D01*
G01*
X130257000Y-91299000D01*
G75*
G02*
X130007000Y-91049000I0J250000D01*
G01*
X130007000Y-89799000D01*
G75*
G02*
X130257000Y-89549000I250000J0D01*
G01*
X131182000Y-89549000D01*
G75*
G02*
X131432000Y-89799000I0J-250000D01*
G01*
G37*
G36*
G01*
X134407000Y-89799000D02*
X134407000Y-91049000D01*
G75*
G02*
X134157000Y-91299000I-250000J0D01*
G01*
X133232000Y-91299000D01*
G75*
G02*
X132982000Y-91049000I0J250000D01*
G01*
X132982000Y-89799000D01*
G75*
G02*
X133232000Y-89549000I250000J0D01*
G01*
X134157000Y-89549000D01*
G75*
G02*
X134407000Y-89799000I0J-250000D01*
G01*
G37*
%TD*%
D22*
%TO.C,D1*%
X169672000Y-106810000D03*
X169672000Y-104010000D03*
%TD*%
D23*
%TO.C,U14*%
X108626000Y-88859000D03*
X109276000Y-88859000D03*
X109926000Y-88859000D03*
X110576000Y-88859000D03*
X110576000Y-93259000D03*
X109926000Y-93259000D03*
X109276000Y-93259000D03*
X108626000Y-93259000D03*
%TD*%
%TO.C,R38*%
G36*
G01*
X118941000Y-97605001D02*
X118941000Y-96704999D01*
G75*
G02*
X119190999Y-96455000I249999J0D01*
G01*
X119841001Y-96455000D01*
G75*
G02*
X120091000Y-96704999I0J-249999D01*
G01*
X120091000Y-97605001D01*
G75*
G02*
X119841001Y-97855000I-249999J0D01*
G01*
X119190999Y-97855000D01*
G75*
G02*
X118941000Y-97605001I0J249999D01*
G01*
G37*
G36*
G01*
X116891000Y-97605001D02*
X116891000Y-96704999D01*
G75*
G02*
X117140999Y-96455000I249999J0D01*
G01*
X117791001Y-96455000D01*
G75*
G02*
X118041000Y-96704999I0J-249999D01*
G01*
X118041000Y-97605001D01*
G75*
G02*
X117791001Y-97855000I-249999J0D01*
G01*
X117140999Y-97855000D01*
G75*
G02*
X116891000Y-97605001I0J249999D01*
G01*
G37*
%TD*%
%TO.C,R37*%
G36*
G01*
X116770999Y-88461000D02*
X117671001Y-88461000D01*
G75*
G02*
X117921000Y-88710999I0J-249999D01*
G01*
X117921000Y-89361001D01*
G75*
G02*
X117671001Y-89611000I-249999J0D01*
G01*
X116770999Y-89611000D01*
G75*
G02*
X116521000Y-89361001I0J249999D01*
G01*
X116521000Y-88710999D01*
G75*
G02*
X116770999Y-88461000I249999J0D01*
G01*
G37*
G36*
G01*
X116770999Y-86411000D02*
X117671001Y-86411000D01*
G75*
G02*
X117921000Y-86660999I0J-249999D01*
G01*
X117921000Y-87311001D01*
G75*
G02*
X117671001Y-87561000I-249999J0D01*
G01*
X116770999Y-87561000D01*
G75*
G02*
X116521000Y-87311001I0J249999D01*
G01*
X116521000Y-86660999D01*
G75*
G02*
X116770999Y-86411000I249999J0D01*
G01*
G37*
%TD*%
%TO.C,R29*%
G36*
G01*
X118941000Y-94049001D02*
X118941000Y-93148999D01*
G75*
G02*
X119190999Y-92899000I249999J0D01*
G01*
X119841001Y-92899000D01*
G75*
G02*
X120091000Y-93148999I0J-249999D01*
G01*
X120091000Y-94049001D01*
G75*
G02*
X119841001Y-94299000I-249999J0D01*
G01*
X119190999Y-94299000D01*
G75*
G02*
X118941000Y-94049001I0J249999D01*
G01*
G37*
G36*
G01*
X116891000Y-94049001D02*
X116891000Y-93148999D01*
G75*
G02*
X117140999Y-92899000I249999J0D01*
G01*
X117791001Y-92899000D01*
G75*
G02*
X118041000Y-93148999I0J-249999D01*
G01*
X118041000Y-94049001D01*
G75*
G02*
X117791001Y-94299000I-249999J0D01*
G01*
X117140999Y-94299000D01*
G75*
G02*
X116891000Y-94049001I0J249999D01*
G01*
G37*
%TD*%
%TO.C,R28*%
G36*
G01*
X121088999Y-88343000D02*
X121989001Y-88343000D01*
G75*
G02*
X122239000Y-88592999I0J-249999D01*
G01*
X122239000Y-89243001D01*
G75*
G02*
X121989001Y-89493000I-249999J0D01*
G01*
X121088999Y-89493000D01*
G75*
G02*
X120839000Y-89243001I0J249999D01*
G01*
X120839000Y-88592999D01*
G75*
G02*
X121088999Y-88343000I249999J0D01*
G01*
G37*
G36*
G01*
X121088999Y-86293000D02*
X121989001Y-86293000D01*
G75*
G02*
X122239000Y-86542999I0J-249999D01*
G01*
X122239000Y-87193001D01*
G75*
G02*
X121989001Y-87443000I-249999J0D01*
G01*
X121088999Y-87443000D01*
G75*
G02*
X120839000Y-87193001I0J249999D01*
G01*
X120839000Y-86542999D01*
G75*
G02*
X121088999Y-86293000I249999J0D01*
G01*
G37*
%TD*%
%TO.C,R23*%
G36*
G01*
X99879999Y-93015000D02*
X100780001Y-93015000D01*
G75*
G02*
X101030000Y-93264999I0J-249999D01*
G01*
X101030000Y-93915001D01*
G75*
G02*
X100780001Y-94165000I-249999J0D01*
G01*
X99879999Y-94165000D01*
G75*
G02*
X99630000Y-93915001I0J249999D01*
G01*
X99630000Y-93264999D01*
G75*
G02*
X99879999Y-93015000I249999J0D01*
G01*
G37*
G36*
G01*
X99879999Y-95065000D02*
X100780001Y-95065000D01*
G75*
G02*
X101030000Y-95314999I0J-249999D01*
G01*
X101030000Y-95965001D01*
G75*
G02*
X100780001Y-96215000I-249999J0D01*
G01*
X99879999Y-96215000D01*
G75*
G02*
X99630000Y-95965001I0J249999D01*
G01*
X99630000Y-95314999D01*
G75*
G02*
X99879999Y-95065000I249999J0D01*
G01*
G37*
%TD*%
%TO.C,R22*%
G36*
G01*
X90373000Y-99054499D02*
X90373000Y-99954501D01*
G75*
G02*
X90123001Y-100204500I-249999J0D01*
G01*
X89472999Y-100204500D01*
G75*
G02*
X89223000Y-99954501I0J249999D01*
G01*
X89223000Y-99054499D01*
G75*
G02*
X89472999Y-98804500I249999J0D01*
G01*
X90123001Y-98804500D01*
G75*
G02*
X90373000Y-99054499I0J-249999D01*
G01*
G37*
G36*
G01*
X88323000Y-99054499D02*
X88323000Y-99954501D01*
G75*
G02*
X88073001Y-100204500I-249999J0D01*
G01*
X87422999Y-100204500D01*
G75*
G02*
X87173000Y-99954501I0J249999D01*
G01*
X87173000Y-99054499D01*
G75*
G02*
X87422999Y-98804500I249999J0D01*
G01*
X88073001Y-98804500D01*
G75*
G02*
X88323000Y-99054499I0J-249999D01*
G01*
G37*
%TD*%
%TO.C,R21*%
G36*
G01*
X99383000Y-75507001D02*
X99383000Y-74606999D01*
G75*
G02*
X99632999Y-74357000I249999J0D01*
G01*
X100283001Y-74357000D01*
G75*
G02*
X100533000Y-74606999I0J-249999D01*
G01*
X100533000Y-75507001D01*
G75*
G02*
X100283001Y-75757000I-249999J0D01*
G01*
X99632999Y-75757000D01*
G75*
G02*
X99383000Y-75507001I0J249999D01*
G01*
G37*
G36*
G01*
X97333000Y-75507001D02*
X97333000Y-74606999D01*
G75*
G02*
X97582999Y-74357000I249999J0D01*
G01*
X98233001Y-74357000D01*
G75*
G02*
X98483000Y-74606999I0J-249999D01*
G01*
X98483000Y-75507001D01*
G75*
G02*
X98233001Y-75757000I-249999J0D01*
G01*
X97582999Y-75757000D01*
G75*
G02*
X97333000Y-75507001I0J249999D01*
G01*
G37*
%TD*%
%TO.C,R20*%
G36*
G01*
X101542000Y-72395501D02*
X101542000Y-71495499D01*
G75*
G02*
X101791999Y-71245500I249999J0D01*
G01*
X102442001Y-71245500D01*
G75*
G02*
X102692000Y-71495499I0J-249999D01*
G01*
X102692000Y-72395501D01*
G75*
G02*
X102442001Y-72645500I-249999J0D01*
G01*
X101791999Y-72645500D01*
G75*
G02*
X101542000Y-72395501I0J249999D01*
G01*
G37*
G36*
G01*
X99492000Y-72395501D02*
X99492000Y-71495499D01*
G75*
G02*
X99741999Y-71245500I249999J0D01*
G01*
X100392001Y-71245500D01*
G75*
G02*
X100642000Y-71495499I0J-249999D01*
G01*
X100642000Y-72395501D01*
G75*
G02*
X100392001Y-72645500I-249999J0D01*
G01*
X99741999Y-72645500D01*
G75*
G02*
X99492000Y-72395501I0J249999D01*
G01*
G37*
%TD*%
%TO.C,R18*%
G36*
G01*
X95446000Y-97922501D02*
X95446000Y-97022499D01*
G75*
G02*
X95695999Y-96772500I249999J0D01*
G01*
X96346001Y-96772500D01*
G75*
G02*
X96596000Y-97022499I0J-249999D01*
G01*
X96596000Y-97922501D01*
G75*
G02*
X96346001Y-98172500I-249999J0D01*
G01*
X95695999Y-98172500D01*
G75*
G02*
X95446000Y-97922501I0J249999D01*
G01*
G37*
G36*
G01*
X93396000Y-97922501D02*
X93396000Y-97022499D01*
G75*
G02*
X93645999Y-96772500I249999J0D01*
G01*
X94296001Y-96772500D01*
G75*
G02*
X94546000Y-97022499I0J-249999D01*
G01*
X94546000Y-97922501D01*
G75*
G02*
X94296001Y-98172500I-249999J0D01*
G01*
X93645999Y-98172500D01*
G75*
G02*
X93396000Y-97922501I0J249999D01*
G01*
G37*
%TD*%
%TO.C,R15*%
G36*
G01*
X154997999Y-112464000D02*
X155898001Y-112464000D01*
G75*
G02*
X156148000Y-112713999I0J-249999D01*
G01*
X156148000Y-113364001D01*
G75*
G02*
X155898001Y-113614000I-249999J0D01*
G01*
X154997999Y-113614000D01*
G75*
G02*
X154748000Y-113364001I0J249999D01*
G01*
X154748000Y-112713999D01*
G75*
G02*
X154997999Y-112464000I249999J0D01*
G01*
G37*
G36*
G01*
X154997999Y-110414000D02*
X155898001Y-110414000D01*
G75*
G02*
X156148000Y-110663999I0J-249999D01*
G01*
X156148000Y-111314001D01*
G75*
G02*
X155898001Y-111564000I-249999J0D01*
G01*
X154997999Y-111564000D01*
G75*
G02*
X154748000Y-111314001I0J249999D01*
G01*
X154748000Y-110663999D01*
G75*
G02*
X154997999Y-110414000I249999J0D01*
G01*
G37*
%TD*%
%TO.C,R14*%
G36*
G01*
X159200001Y-112335000D02*
X158299999Y-112335000D01*
G75*
G02*
X158050000Y-112085001I0J249999D01*
G01*
X158050000Y-111434999D01*
G75*
G02*
X158299999Y-111185000I249999J0D01*
G01*
X159200001Y-111185000D01*
G75*
G02*
X159450000Y-111434999I0J-249999D01*
G01*
X159450000Y-112085001D01*
G75*
G02*
X159200001Y-112335000I-249999J0D01*
G01*
G37*
G36*
G01*
X159200001Y-114385000D02*
X158299999Y-114385000D01*
G75*
G02*
X158050000Y-114135001I0J249999D01*
G01*
X158050000Y-113484999D01*
G75*
G02*
X158299999Y-113235000I249999J0D01*
G01*
X159200001Y-113235000D01*
G75*
G02*
X159450000Y-113484999I0J-249999D01*
G01*
X159450000Y-114135001D01*
G75*
G02*
X159200001Y-114385000I-249999J0D01*
G01*
G37*
%TD*%
%TO.C,R13*%
G36*
G01*
X152850001Y-106230000D02*
X151949999Y-106230000D01*
G75*
G02*
X151700000Y-105980001I0J249999D01*
G01*
X151700000Y-105329999D01*
G75*
G02*
X151949999Y-105080000I249999J0D01*
G01*
X152850001Y-105080000D01*
G75*
G02*
X153100000Y-105329999I0J-249999D01*
G01*
X153100000Y-105980001D01*
G75*
G02*
X152850001Y-106230000I-249999J0D01*
G01*
G37*
G36*
G01*
X152850001Y-108280000D02*
X151949999Y-108280000D01*
G75*
G02*
X151700000Y-108030001I0J249999D01*
G01*
X151700000Y-107379999D01*
G75*
G02*
X151949999Y-107130000I249999J0D01*
G01*
X152850001Y-107130000D01*
G75*
G02*
X153100000Y-107379999I0J-249999D01*
G01*
X153100000Y-108030001D01*
G75*
G02*
X152850001Y-108280000I-249999J0D01*
G01*
G37*
%TD*%
%TO.C,R12*%
G36*
G01*
X91389000Y-74352999D02*
X91389000Y-75253001D01*
G75*
G02*
X91139001Y-75503000I-249999J0D01*
G01*
X90488999Y-75503000D01*
G75*
G02*
X90239000Y-75253001I0J249999D01*
G01*
X90239000Y-74352999D01*
G75*
G02*
X90488999Y-74103000I249999J0D01*
G01*
X91139001Y-74103000D01*
G75*
G02*
X91389000Y-74352999I0J-249999D01*
G01*
G37*
G36*
G01*
X89339000Y-74352999D02*
X89339000Y-75253001D01*
G75*
G02*
X89089001Y-75503000I-249999J0D01*
G01*
X88438999Y-75503000D01*
G75*
G02*
X88189000Y-75253001I0J249999D01*
G01*
X88189000Y-74352999D01*
G75*
G02*
X88438999Y-74103000I249999J0D01*
G01*
X89089001Y-74103000D01*
G75*
G02*
X89339000Y-74352999I0J-249999D01*
G01*
G37*
%TD*%
%TO.C,R11*%
G36*
G01*
X160325000Y-112083001D02*
X160325000Y-111182999D01*
G75*
G02*
X160574999Y-110933000I249999J0D01*
G01*
X161225001Y-110933000D01*
G75*
G02*
X161475000Y-111182999I0J-249999D01*
G01*
X161475000Y-112083001D01*
G75*
G02*
X161225001Y-112333000I-249999J0D01*
G01*
X160574999Y-112333000D01*
G75*
G02*
X160325000Y-112083001I0J249999D01*
G01*
G37*
G36*
G01*
X162375000Y-112083001D02*
X162375000Y-111182999D01*
G75*
G02*
X162624999Y-110933000I249999J0D01*
G01*
X163275001Y-110933000D01*
G75*
G02*
X163525000Y-111182999I0J-249999D01*
G01*
X163525000Y-112083001D01*
G75*
G02*
X163275001Y-112333000I-249999J0D01*
G01*
X162624999Y-112333000D01*
G75*
G02*
X162375000Y-112083001I0J249999D01*
G01*
G37*
%TD*%
%TO.C,R9*%
G36*
G01*
X127323000Y-95954001D02*
X127323000Y-95053999D01*
G75*
G02*
X127572999Y-94804000I249999J0D01*
G01*
X128223001Y-94804000D01*
G75*
G02*
X128473000Y-95053999I0J-249999D01*
G01*
X128473000Y-95954001D01*
G75*
G02*
X128223001Y-96204000I-249999J0D01*
G01*
X127572999Y-96204000D01*
G75*
G02*
X127323000Y-95954001I0J249999D01*
G01*
G37*
G36*
G01*
X125273000Y-95954001D02*
X125273000Y-95053999D01*
G75*
G02*
X125522999Y-94804000I249999J0D01*
G01*
X126173001Y-94804000D01*
G75*
G02*
X126423000Y-95053999I0J-249999D01*
G01*
X126423000Y-95954001D01*
G75*
G02*
X126173001Y-96204000I-249999J0D01*
G01*
X125522999Y-96204000D01*
G75*
G02*
X125273000Y-95954001I0J249999D01*
G01*
G37*
%TD*%
%TO.C,R8*%
G36*
G01*
X150553000Y-124644999D02*
X150553000Y-125545001D01*
G75*
G02*
X150303001Y-125795000I-249999J0D01*
G01*
X149652999Y-125795000D01*
G75*
G02*
X149403000Y-125545001I0J249999D01*
G01*
X149403000Y-124644999D01*
G75*
G02*
X149652999Y-124395000I249999J0D01*
G01*
X150303001Y-124395000D01*
G75*
G02*
X150553000Y-124644999I0J-249999D01*
G01*
G37*
G36*
G01*
X152603000Y-124644999D02*
X152603000Y-125545001D01*
G75*
G02*
X152353001Y-125795000I-249999J0D01*
G01*
X151702999Y-125795000D01*
G75*
G02*
X151453000Y-125545001I0J249999D01*
G01*
X151453000Y-124644999D01*
G75*
G02*
X151702999Y-124395000I249999J0D01*
G01*
X152353001Y-124395000D01*
G75*
G02*
X152603000Y-124644999I0J-249999D01*
G01*
G37*
%TD*%
%TO.C,R7*%
G36*
G01*
X154490000Y-127946999D02*
X154490000Y-128847001D01*
G75*
G02*
X154240001Y-129097000I-249999J0D01*
G01*
X153589999Y-129097000D01*
G75*
G02*
X153340000Y-128847001I0J249999D01*
G01*
X153340000Y-127946999D01*
G75*
G02*
X153589999Y-127697000I249999J0D01*
G01*
X154240001Y-127697000D01*
G75*
G02*
X154490000Y-127946999I0J-249999D01*
G01*
G37*
G36*
G01*
X156540000Y-127946999D02*
X156540000Y-128847001D01*
G75*
G02*
X156290001Y-129097000I-249999J0D01*
G01*
X155639999Y-129097000D01*
G75*
G02*
X155390000Y-128847001I0J249999D01*
G01*
X155390000Y-127946999D01*
G75*
G02*
X155639999Y-127697000I249999J0D01*
G01*
X156290001Y-127697000D01*
G75*
G02*
X156540000Y-127946999I0J-249999D01*
G01*
G37*
%TD*%
%TO.C,R5*%
G36*
G01*
X127323000Y-85794001D02*
X127323000Y-84893999D01*
G75*
G02*
X127572999Y-84644000I249999J0D01*
G01*
X128223001Y-84644000D01*
G75*
G02*
X128473000Y-84893999I0J-249999D01*
G01*
X128473000Y-85794001D01*
G75*
G02*
X128223001Y-86044000I-249999J0D01*
G01*
X127572999Y-86044000D01*
G75*
G02*
X127323000Y-85794001I0J249999D01*
G01*
G37*
G36*
G01*
X125273000Y-85794001D02*
X125273000Y-84893999D01*
G75*
G02*
X125522999Y-84644000I249999J0D01*
G01*
X126173001Y-84644000D01*
G75*
G02*
X126423000Y-84893999I0J-249999D01*
G01*
X126423000Y-85794001D01*
G75*
G02*
X126173001Y-86044000I-249999J0D01*
G01*
X125522999Y-86044000D01*
G75*
G02*
X125273000Y-85794001I0J249999D01*
G01*
G37*
%TD*%
%TO.C,R4*%
G36*
G01*
X127323000Y-90874001D02*
X127323000Y-89973999D01*
G75*
G02*
X127572999Y-89724000I249999J0D01*
G01*
X128223001Y-89724000D01*
G75*
G02*
X128473000Y-89973999I0J-249999D01*
G01*
X128473000Y-90874001D01*
G75*
G02*
X128223001Y-91124000I-249999J0D01*
G01*
X127572999Y-91124000D01*
G75*
G02*
X127323000Y-90874001I0J249999D01*
G01*
G37*
G36*
G01*
X125273000Y-90874001D02*
X125273000Y-89973999D01*
G75*
G02*
X125522999Y-89724000I249999J0D01*
G01*
X126173001Y-89724000D01*
G75*
G02*
X126423000Y-89973999I0J-249999D01*
G01*
X126423000Y-90874001D01*
G75*
G02*
X126173001Y-91124000I-249999J0D01*
G01*
X125522999Y-91124000D01*
G75*
G02*
X125273000Y-90874001I0J249999D01*
G01*
G37*
%TD*%
%TO.C,R3*%
G36*
G01*
X87109500Y-95827001D02*
X87109500Y-94926999D01*
G75*
G02*
X87359499Y-94677000I249999J0D01*
G01*
X88009501Y-94677000D01*
G75*
G02*
X88259500Y-94926999I0J-249999D01*
G01*
X88259500Y-95827001D01*
G75*
G02*
X88009501Y-96077000I-249999J0D01*
G01*
X87359499Y-96077000D01*
G75*
G02*
X87109500Y-95827001I0J249999D01*
G01*
G37*
G36*
G01*
X89159500Y-95827001D02*
X89159500Y-94926999D01*
G75*
G02*
X89409499Y-94677000I249999J0D01*
G01*
X90059501Y-94677000D01*
G75*
G02*
X90309500Y-94926999I0J-249999D01*
G01*
X90309500Y-95827001D01*
G75*
G02*
X90059501Y-96077000I-249999J0D01*
G01*
X89409499Y-96077000D01*
G75*
G02*
X89159500Y-95827001I0J249999D01*
G01*
G37*
%TD*%
%TO.C,R1*%
G36*
G01*
X96913500Y-71495499D02*
X96913500Y-72395501D01*
G75*
G02*
X96663501Y-72645500I-249999J0D01*
G01*
X96013499Y-72645500D01*
G75*
G02*
X95763500Y-72395501I0J249999D01*
G01*
X95763500Y-71495499D01*
G75*
G02*
X96013499Y-71245500I249999J0D01*
G01*
X96663501Y-71245500D01*
G75*
G02*
X96913500Y-71495499I0J-249999D01*
G01*
G37*
G36*
G01*
X94863500Y-71495499D02*
X94863500Y-72395501D01*
G75*
G02*
X94613501Y-72645500I-249999J0D01*
G01*
X93963499Y-72645500D01*
G75*
G02*
X93713500Y-72395501I0J249999D01*
G01*
X93713500Y-71495499D01*
G75*
G02*
X93963499Y-71245500I249999J0D01*
G01*
X94613501Y-71245500D01*
G75*
G02*
X94863500Y-71495499I0J-249999D01*
G01*
G37*
%TD*%
D24*
%TO.C,Q1*%
X91043000Y-71054000D03*
X91043000Y-69154000D03*
X89043000Y-70104000D03*
%TD*%
%TO.C,F6*%
G36*
G01*
X156923000Y-61283001D02*
X156923000Y-60382999D01*
G75*
G02*
X157172999Y-60133000I249999J0D01*
G01*
X157823001Y-60133000D01*
G75*
G02*
X158073000Y-60382999I0J-249999D01*
G01*
X158073000Y-61283001D01*
G75*
G02*
X157823001Y-61533000I-249999J0D01*
G01*
X157172999Y-61533000D01*
G75*
G02*
X156923000Y-61283001I0J249999D01*
G01*
G37*
G36*
G01*
X154873000Y-61283001D02*
X154873000Y-60382999D01*
G75*
G02*
X155122999Y-60133000I249999J0D01*
G01*
X155773001Y-60133000D01*
G75*
G02*
X156023000Y-60382999I0J-249999D01*
G01*
X156023000Y-61283001D01*
G75*
G02*
X155773001Y-61533000I-249999J0D01*
G01*
X155122999Y-61533000D01*
G75*
G02*
X154873000Y-61283001I0J249999D01*
G01*
G37*
%TD*%
%TO.C,F5*%
G36*
G01*
X147008000Y-61283001D02*
X147008000Y-60382999D01*
G75*
G02*
X147257999Y-60133000I249999J0D01*
G01*
X147908001Y-60133000D01*
G75*
G02*
X148158000Y-60382999I0J-249999D01*
G01*
X148158000Y-61283001D01*
G75*
G02*
X147908001Y-61533000I-249999J0D01*
G01*
X147257999Y-61533000D01*
G75*
G02*
X147008000Y-61283001I0J249999D01*
G01*
G37*
G36*
G01*
X144958000Y-61283001D02*
X144958000Y-60382999D01*
G75*
G02*
X145207999Y-60133000I249999J0D01*
G01*
X145858001Y-60133000D01*
G75*
G02*
X146108000Y-60382999I0J-249999D01*
G01*
X146108000Y-61283001D01*
G75*
G02*
X145858001Y-61533000I-249999J0D01*
G01*
X145207999Y-61533000D01*
G75*
G02*
X144958000Y-61283001I0J249999D01*
G01*
G37*
%TD*%
%TO.C,F4*%
G36*
G01*
X138109000Y-61283001D02*
X138109000Y-60382999D01*
G75*
G02*
X138358999Y-60133000I249999J0D01*
G01*
X139009001Y-60133000D01*
G75*
G02*
X139259000Y-60382999I0J-249999D01*
G01*
X139259000Y-61283001D01*
G75*
G02*
X139009001Y-61533000I-249999J0D01*
G01*
X138358999Y-61533000D01*
G75*
G02*
X138109000Y-61283001I0J249999D01*
G01*
G37*
G36*
G01*
X136059000Y-61283001D02*
X136059000Y-60382999D01*
G75*
G02*
X136308999Y-60133000I249999J0D01*
G01*
X136959001Y-60133000D01*
G75*
G02*
X137209000Y-60382999I0J-249999D01*
G01*
X137209000Y-61283001D01*
G75*
G02*
X136959001Y-61533000I-249999J0D01*
G01*
X136308999Y-61533000D01*
G75*
G02*
X136059000Y-61283001I0J249999D01*
G01*
G37*
%TD*%
%TO.C,F3*%
G36*
G01*
X140402000Y-82099999D02*
X140402000Y-83000001D01*
G75*
G02*
X140152001Y-83250000I-249999J0D01*
G01*
X139501999Y-83250000D01*
G75*
G02*
X139252000Y-83000001I0J249999D01*
G01*
X139252000Y-82099999D01*
G75*
G02*
X139501999Y-81850000I249999J0D01*
G01*
X140152001Y-81850000D01*
G75*
G02*
X140402000Y-82099999I0J-249999D01*
G01*
G37*
G36*
G01*
X142452000Y-82099999D02*
X142452000Y-83000001D01*
G75*
G02*
X142202001Y-83250000I-249999J0D01*
G01*
X141551999Y-83250000D01*
G75*
G02*
X141302000Y-83000001I0J249999D01*
G01*
X141302000Y-82099999D01*
G75*
G02*
X141551999Y-81850000I249999J0D01*
G01*
X142202001Y-81850000D01*
G75*
G02*
X142452000Y-82099999I0J-249999D01*
G01*
G37*
%TD*%
%TO.C,F1*%
G36*
G01*
X140647000Y-72828999D02*
X140647000Y-73729001D01*
G75*
G02*
X140397001Y-73979000I-249999J0D01*
G01*
X139746999Y-73979000D01*
G75*
G02*
X139497000Y-73729001I0J249999D01*
G01*
X139497000Y-72828999D01*
G75*
G02*
X139746999Y-72579000I249999J0D01*
G01*
X140397001Y-72579000D01*
G75*
G02*
X140647000Y-72828999I0J-249999D01*
G01*
G37*
G36*
G01*
X142697000Y-72828999D02*
X142697000Y-73729001D01*
G75*
G02*
X142447001Y-73979000I-249999J0D01*
G01*
X141796999Y-73979000D01*
G75*
G02*
X141547000Y-73729001I0J249999D01*
G01*
X141547000Y-72828999D01*
G75*
G02*
X141796999Y-72579000I249999J0D01*
G01*
X142447001Y-72579000D01*
G75*
G02*
X142697000Y-72828999I0J-249999D01*
G01*
G37*
%TD*%
%TO.C,C40*%
G36*
G01*
X112833999Y-91391000D02*
X113734001Y-91391000D01*
G75*
G02*
X113984000Y-91640999I0J-249999D01*
G01*
X113984000Y-92291001D01*
G75*
G02*
X113734001Y-92541000I-249999J0D01*
G01*
X112833999Y-92541000D01*
G75*
G02*
X112584000Y-92291001I0J249999D01*
G01*
X112584000Y-91640999D01*
G75*
G02*
X112833999Y-91391000I249999J0D01*
G01*
G37*
G36*
G01*
X112833999Y-89341000D02*
X113734001Y-89341000D01*
G75*
G02*
X113984000Y-89590999I0J-249999D01*
G01*
X113984000Y-90241001D01*
G75*
G02*
X113734001Y-90491000I-249999J0D01*
G01*
X112833999Y-90491000D01*
G75*
G02*
X112584000Y-90241001I0J249999D01*
G01*
X112584000Y-89590999D01*
G75*
G02*
X112833999Y-89341000I249999J0D01*
G01*
G37*
%TD*%
%TO.C,C23*%
G36*
G01*
X97587000Y-64204001D02*
X97587000Y-63303999D01*
G75*
G02*
X97836999Y-63054000I249999J0D01*
G01*
X98487001Y-63054000D01*
G75*
G02*
X98737000Y-63303999I0J-249999D01*
G01*
X98737000Y-64204001D01*
G75*
G02*
X98487001Y-64454000I-249999J0D01*
G01*
X97836999Y-64454000D01*
G75*
G02*
X97587000Y-64204001I0J249999D01*
G01*
G37*
G36*
G01*
X99637000Y-64204001D02*
X99637000Y-63303999D01*
G75*
G02*
X99886999Y-63054000I249999J0D01*
G01*
X100537001Y-63054000D01*
G75*
G02*
X100787000Y-63303999I0J-249999D01*
G01*
X100787000Y-64204001D01*
G75*
G02*
X100537001Y-64454000I-249999J0D01*
G01*
X99886999Y-64454000D01*
G75*
G02*
X99637000Y-64204001I0J249999D01*
G01*
G37*
%TD*%
%TO.C,C21*%
G36*
G01*
X100787000Y-59747999D02*
X100787000Y-60648001D01*
G75*
G02*
X100537001Y-60898000I-249999J0D01*
G01*
X99886999Y-60898000D01*
G75*
G02*
X99637000Y-60648001I0J249999D01*
G01*
X99637000Y-59747999D01*
G75*
G02*
X99886999Y-59498000I249999J0D01*
G01*
X100537001Y-59498000D01*
G75*
G02*
X100787000Y-59747999I0J-249999D01*
G01*
G37*
G36*
G01*
X98737000Y-59747999D02*
X98737000Y-60648001D01*
G75*
G02*
X98487001Y-60898000I-249999J0D01*
G01*
X97836999Y-60898000D01*
G75*
G02*
X97587000Y-60648001I0J249999D01*
G01*
X97587000Y-59747999D01*
G75*
G02*
X97836999Y-59498000I249999J0D01*
G01*
X98487001Y-59498000D01*
G75*
G02*
X98737000Y-59747999I0J-249999D01*
G01*
G37*
%TD*%
%TO.C,C20*%
G36*
G01*
X101415001Y-85039000D02*
X100514999Y-85039000D01*
G75*
G02*
X100265000Y-84789001I0J249999D01*
G01*
X100265000Y-84138999D01*
G75*
G02*
X100514999Y-83889000I249999J0D01*
G01*
X101415001Y-83889000D01*
G75*
G02*
X101665000Y-84138999I0J-249999D01*
G01*
X101665000Y-84789001D01*
G75*
G02*
X101415001Y-85039000I-249999J0D01*
G01*
G37*
G36*
G01*
X101415001Y-82989000D02*
X100514999Y-82989000D01*
G75*
G02*
X100265000Y-82739001I0J249999D01*
G01*
X100265000Y-82088999D01*
G75*
G02*
X100514999Y-81839000I249999J0D01*
G01*
X101415001Y-81839000D01*
G75*
G02*
X101665000Y-82088999I0J-249999D01*
G01*
X101665000Y-82739001D01*
G75*
G02*
X101415001Y-82989000I-249999J0D01*
G01*
G37*
%TD*%
%TO.C,C12*%
G36*
G01*
X151441999Y-111965000D02*
X152342001Y-111965000D01*
G75*
G02*
X152592000Y-112214999I0J-249999D01*
G01*
X152592000Y-112865001D01*
G75*
G02*
X152342001Y-113115000I-249999J0D01*
G01*
X151441999Y-113115000D01*
G75*
G02*
X151192000Y-112865001I0J249999D01*
G01*
X151192000Y-112214999D01*
G75*
G02*
X151441999Y-111965000I249999J0D01*
G01*
G37*
G36*
G01*
X151441999Y-109915000D02*
X152342001Y-109915000D01*
G75*
G02*
X152592000Y-110164999I0J-249999D01*
G01*
X152592000Y-110815001D01*
G75*
G02*
X152342001Y-111065000I-249999J0D01*
G01*
X151441999Y-111065000D01*
G75*
G02*
X151192000Y-110815001I0J249999D01*
G01*
X151192000Y-110164999D01*
G75*
G02*
X151441999Y-109915000I249999J0D01*
G01*
G37*
%TD*%
%TO.C,C11*%
G36*
G01*
X115267000Y-82873001D02*
X115267000Y-81972999D01*
G75*
G02*
X115516999Y-81723000I249999J0D01*
G01*
X116167001Y-81723000D01*
G75*
G02*
X116417000Y-81972999I0J-249999D01*
G01*
X116417000Y-82873001D01*
G75*
G02*
X116167001Y-83123000I-249999J0D01*
G01*
X115516999Y-83123000D01*
G75*
G02*
X115267000Y-82873001I0J249999D01*
G01*
G37*
G36*
G01*
X113217000Y-82873001D02*
X113217000Y-81972999D01*
G75*
G02*
X113466999Y-81723000I249999J0D01*
G01*
X114117001Y-81723000D01*
G75*
G02*
X114367000Y-81972999I0J-249999D01*
G01*
X114367000Y-82873001D01*
G75*
G02*
X114117001Y-83123000I-249999J0D01*
G01*
X113466999Y-83123000D01*
G75*
G02*
X113217000Y-82873001I0J249999D01*
G01*
G37*
%TD*%
%TO.C,C10*%
G36*
G01*
X112770500Y-58985999D02*
X112770500Y-59886001D01*
G75*
G02*
X112520501Y-60136000I-249999J0D01*
G01*
X111870499Y-60136000D01*
G75*
G02*
X111620500Y-59886001I0J249999D01*
G01*
X111620500Y-58985999D01*
G75*
G02*
X111870499Y-58736000I249999J0D01*
G01*
X112520501Y-58736000D01*
G75*
G02*
X112770500Y-58985999I0J-249999D01*
G01*
G37*
G36*
G01*
X114820500Y-58985999D02*
X114820500Y-59886001D01*
G75*
G02*
X114570501Y-60136000I-249999J0D01*
G01*
X113920499Y-60136000D01*
G75*
G02*
X113670500Y-59886001I0J249999D01*
G01*
X113670500Y-58985999D01*
G75*
G02*
X113920499Y-58736000I249999J0D01*
G01*
X114570501Y-58736000D01*
G75*
G02*
X114820500Y-58985999I0J-249999D01*
G01*
G37*
%TD*%
%TO.C,C9*%
G36*
G01*
X121608000Y-59886001D02*
X121608000Y-58985999D01*
G75*
G02*
X121857999Y-58736000I249999J0D01*
G01*
X122508001Y-58736000D01*
G75*
G02*
X122758000Y-58985999I0J-249999D01*
G01*
X122758000Y-59886001D01*
G75*
G02*
X122508001Y-60136000I-249999J0D01*
G01*
X121857999Y-60136000D01*
G75*
G02*
X121608000Y-59886001I0J249999D01*
G01*
G37*
G36*
G01*
X119558000Y-59886001D02*
X119558000Y-58985999D01*
G75*
G02*
X119807999Y-58736000I249999J0D01*
G01*
X120458001Y-58736000D01*
G75*
G02*
X120708000Y-58985999I0J-249999D01*
G01*
X120708000Y-59886001D01*
G75*
G02*
X120458001Y-60136000I-249999J0D01*
G01*
X119807999Y-60136000D01*
G75*
G02*
X119558000Y-59886001I0J249999D01*
G01*
G37*
%TD*%
%TO.C,C8*%
G36*
G01*
X154363000Y-98990999D02*
X154363000Y-99891001D01*
G75*
G02*
X154113001Y-100141000I-249999J0D01*
G01*
X153462999Y-100141000D01*
G75*
G02*
X153213000Y-99891001I0J249999D01*
G01*
X153213000Y-98990999D01*
G75*
G02*
X153462999Y-98741000I249999J0D01*
G01*
X154113001Y-98741000D01*
G75*
G02*
X154363000Y-98990999I0J-249999D01*
G01*
G37*
G36*
G01*
X156413000Y-98990999D02*
X156413000Y-99891001D01*
G75*
G02*
X156163001Y-100141000I-249999J0D01*
G01*
X155512999Y-100141000D01*
G75*
G02*
X155263000Y-99891001I0J249999D01*
G01*
X155263000Y-98990999D01*
G75*
G02*
X155512999Y-98741000I249999J0D01*
G01*
X156163001Y-98741000D01*
G75*
G02*
X156413000Y-98990999I0J-249999D01*
G01*
G37*
%TD*%
%TO.C,C7*%
G36*
G01*
X169729999Y-101034000D02*
X170630001Y-101034000D01*
G75*
G02*
X170880000Y-101283999I0J-249999D01*
G01*
X170880000Y-101934001D01*
G75*
G02*
X170630001Y-102184000I-249999J0D01*
G01*
X169729999Y-102184000D01*
G75*
G02*
X169480000Y-101934001I0J249999D01*
G01*
X169480000Y-101283999D01*
G75*
G02*
X169729999Y-101034000I249999J0D01*
G01*
G37*
G36*
G01*
X169729999Y-98984000D02*
X170630001Y-98984000D01*
G75*
G02*
X170880000Y-99233999I0J-249999D01*
G01*
X170880000Y-99884001D01*
G75*
G02*
X170630001Y-100134000I-249999J0D01*
G01*
X169729999Y-100134000D01*
G75*
G02*
X169480000Y-99884001I0J249999D01*
G01*
X169480000Y-99233999D01*
G75*
G02*
X169729999Y-98984000I249999J0D01*
G01*
G37*
%TD*%
%TO.C,C6*%
G36*
G01*
X160089000Y-125672001D02*
X160089000Y-124771999D01*
G75*
G02*
X160338999Y-124522000I249999J0D01*
G01*
X160989001Y-124522000D01*
G75*
G02*
X161239000Y-124771999I0J-249999D01*
G01*
X161239000Y-125672001D01*
G75*
G02*
X160989001Y-125922000I-249999J0D01*
G01*
X160338999Y-125922000D01*
G75*
G02*
X160089000Y-125672001I0J249999D01*
G01*
G37*
G36*
G01*
X158039000Y-125672001D02*
X158039000Y-124771999D01*
G75*
G02*
X158288999Y-124522000I249999J0D01*
G01*
X158939001Y-124522000D01*
G75*
G02*
X159189000Y-124771999I0J-249999D01*
G01*
X159189000Y-125672001D01*
G75*
G02*
X158939001Y-125922000I-249999J0D01*
G01*
X158288999Y-125922000D01*
G75*
G02*
X158039000Y-125672001I0J249999D01*
G01*
G37*
%TD*%
%TO.C,C5*%
G36*
G01*
X165538999Y-122624000D02*
X166439001Y-122624000D01*
G75*
G02*
X166689000Y-122873999I0J-249999D01*
G01*
X166689000Y-123524001D01*
G75*
G02*
X166439001Y-123774000I-249999J0D01*
G01*
X165538999Y-123774000D01*
G75*
G02*
X165289000Y-123524001I0J249999D01*
G01*
X165289000Y-122873999D01*
G75*
G02*
X165538999Y-122624000I249999J0D01*
G01*
G37*
G36*
G01*
X165538999Y-120574000D02*
X166439001Y-120574000D01*
G75*
G02*
X166689000Y-120823999I0J-249999D01*
G01*
X166689000Y-121474001D01*
G75*
G02*
X166439001Y-121724000I-249999J0D01*
G01*
X165538999Y-121724000D01*
G75*
G02*
X165289000Y-121474001I0J249999D01*
G01*
X165289000Y-120823999D01*
G75*
G02*
X165538999Y-120574000I249999J0D01*
G01*
G37*
%TD*%
%TO.C,C2*%
G36*
G01*
X168205999Y-126824000D02*
X169106001Y-126824000D01*
G75*
G02*
X169356000Y-127073999I0J-249999D01*
G01*
X169356000Y-127724001D01*
G75*
G02*
X169106001Y-127974000I-249999J0D01*
G01*
X168205999Y-127974000D01*
G75*
G02*
X167956000Y-127724001I0J249999D01*
G01*
X167956000Y-127073999D01*
G75*
G02*
X168205999Y-126824000I249999J0D01*
G01*
G37*
G36*
G01*
X168205999Y-124774000D02*
X169106001Y-124774000D01*
G75*
G02*
X169356000Y-125023999I0J-249999D01*
G01*
X169356000Y-125674001D01*
G75*
G02*
X169106001Y-125924000I-249999J0D01*
G01*
X168205999Y-125924000D01*
G75*
G02*
X167956000Y-125674001I0J249999D01*
G01*
X167956000Y-125023999D01*
G75*
G02*
X168205999Y-124774000I249999J0D01*
G01*
G37*
%TD*%
M02*
