%TF.GenerationSoftware,KiCad,Pcbnew,(5.1.9)-1*%
%TF.CreationDate,2021-07-13T18:02:15-04:00*%
%TF.ProjectId,detector_support,64657465-6374-46f7-925f-737570706f72,rev?*%
%TF.SameCoordinates,Original*%
%TF.FileFunction,Paste,Bot*%
%TF.FilePolarity,Positive*%
%FSLAX46Y46*%
G04 Gerber Fmt 4.6, Leading zero omitted, Abs format (unit mm)*
G04 Created by KiCad (PCBNEW (5.1.9)-1) date 2021-07-13 18:02:15*
%MOMM*%
%LPD*%
G01*
G04 APERTURE LIST*
G04 APERTURE END LIST*
%TO.C,C13*%
G36*
G01*
X107790400Y-68344201D02*
X107790400Y-67444199D01*
G75*
G02*
X108040399Y-67194200I249999J0D01*
G01*
X108690401Y-67194200D01*
G75*
G02*
X108940400Y-67444199I0J-249999D01*
G01*
X108940400Y-68344201D01*
G75*
G02*
X108690401Y-68594200I-249999J0D01*
G01*
X108040399Y-68594200D01*
G75*
G02*
X107790400Y-68344201I0J249999D01*
G01*
G37*
G36*
G01*
X105740400Y-68344201D02*
X105740400Y-67444199D01*
G75*
G02*
X105990399Y-67194200I249999J0D01*
G01*
X106640401Y-67194200D01*
G75*
G02*
X106890400Y-67444199I0J-249999D01*
G01*
X106890400Y-68344201D01*
G75*
G02*
X106640401Y-68594200I-249999J0D01*
G01*
X105990399Y-68594200D01*
G75*
G02*
X105740400Y-68344201I0J249999D01*
G01*
G37*
%TD*%
%TO.C,U10*%
G36*
G01*
X109497000Y-59206000D02*
X109197000Y-59206000D01*
G75*
G02*
X109047000Y-59056000I0J150000D01*
G01*
X109047000Y-57406000D01*
G75*
G02*
X109197000Y-57256000I150000J0D01*
G01*
X109497000Y-57256000D01*
G75*
G02*
X109647000Y-57406000I0J-150000D01*
G01*
X109647000Y-59056000D01*
G75*
G02*
X109497000Y-59206000I-150000J0D01*
G01*
G37*
G36*
G01*
X108227000Y-59206000D02*
X107927000Y-59206000D01*
G75*
G02*
X107777000Y-59056000I0J150000D01*
G01*
X107777000Y-57406000D01*
G75*
G02*
X107927000Y-57256000I150000J0D01*
G01*
X108227000Y-57256000D01*
G75*
G02*
X108377000Y-57406000I0J-150000D01*
G01*
X108377000Y-59056000D01*
G75*
G02*
X108227000Y-59206000I-150000J0D01*
G01*
G37*
G36*
G01*
X106957000Y-59206000D02*
X106657000Y-59206000D01*
G75*
G02*
X106507000Y-59056000I0J150000D01*
G01*
X106507000Y-57406000D01*
G75*
G02*
X106657000Y-57256000I150000J0D01*
G01*
X106957000Y-57256000D01*
G75*
G02*
X107107000Y-57406000I0J-150000D01*
G01*
X107107000Y-59056000D01*
G75*
G02*
X106957000Y-59206000I-150000J0D01*
G01*
G37*
G36*
G01*
X105687000Y-59206000D02*
X105387000Y-59206000D01*
G75*
G02*
X105237000Y-59056000I0J150000D01*
G01*
X105237000Y-57406000D01*
G75*
G02*
X105387000Y-57256000I150000J0D01*
G01*
X105687000Y-57256000D01*
G75*
G02*
X105837000Y-57406000I0J-150000D01*
G01*
X105837000Y-59056000D01*
G75*
G02*
X105687000Y-59206000I-150000J0D01*
G01*
G37*
G36*
G01*
X105687000Y-64156000D02*
X105387000Y-64156000D01*
G75*
G02*
X105237000Y-64006000I0J150000D01*
G01*
X105237000Y-62356000D01*
G75*
G02*
X105387000Y-62206000I150000J0D01*
G01*
X105687000Y-62206000D01*
G75*
G02*
X105837000Y-62356000I0J-150000D01*
G01*
X105837000Y-64006000D01*
G75*
G02*
X105687000Y-64156000I-150000J0D01*
G01*
G37*
G36*
G01*
X106957000Y-64156000D02*
X106657000Y-64156000D01*
G75*
G02*
X106507000Y-64006000I0J150000D01*
G01*
X106507000Y-62356000D01*
G75*
G02*
X106657000Y-62206000I150000J0D01*
G01*
X106957000Y-62206000D01*
G75*
G02*
X107107000Y-62356000I0J-150000D01*
G01*
X107107000Y-64006000D01*
G75*
G02*
X106957000Y-64156000I-150000J0D01*
G01*
G37*
G36*
G01*
X108227000Y-64156000D02*
X107927000Y-64156000D01*
G75*
G02*
X107777000Y-64006000I0J150000D01*
G01*
X107777000Y-62356000D01*
G75*
G02*
X107927000Y-62206000I150000J0D01*
G01*
X108227000Y-62206000D01*
G75*
G02*
X108377000Y-62356000I0J-150000D01*
G01*
X108377000Y-64006000D01*
G75*
G02*
X108227000Y-64156000I-150000J0D01*
G01*
G37*
G36*
G01*
X109497000Y-64156000D02*
X109197000Y-64156000D01*
G75*
G02*
X109047000Y-64006000I0J150000D01*
G01*
X109047000Y-62356000D01*
G75*
G02*
X109197000Y-62206000I150000J0D01*
G01*
X109497000Y-62206000D01*
G75*
G02*
X109647000Y-62356000I0J-150000D01*
G01*
X109647000Y-64006000D01*
G75*
G02*
X109497000Y-64156000I-150000J0D01*
G01*
G37*
%TD*%
%TO.C,R10*%
G36*
G01*
X128021500Y-64140501D02*
X128021500Y-63240499D01*
G75*
G02*
X128271499Y-62990500I249999J0D01*
G01*
X128921501Y-62990500D01*
G75*
G02*
X129171500Y-63240499I0J-249999D01*
G01*
X129171500Y-64140501D01*
G75*
G02*
X128921501Y-64390500I-249999J0D01*
G01*
X128271499Y-64390500D01*
G75*
G02*
X128021500Y-64140501I0J249999D01*
G01*
G37*
G36*
G01*
X125971500Y-64140501D02*
X125971500Y-63240499D01*
G75*
G02*
X126221499Y-62990500I249999J0D01*
G01*
X126871501Y-62990500D01*
G75*
G02*
X127121500Y-63240499I0J-249999D01*
G01*
X127121500Y-64140501D01*
G75*
G02*
X126871501Y-64390500I-249999J0D01*
G01*
X126221499Y-64390500D01*
G75*
G02*
X125971500Y-64140501I0J249999D01*
G01*
G37*
%TD*%
%TO.C,R6*%
G36*
G01*
X128212000Y-56330001D02*
X128212000Y-55429999D01*
G75*
G02*
X128461999Y-55180000I249999J0D01*
G01*
X129112001Y-55180000D01*
G75*
G02*
X129362000Y-55429999I0J-249999D01*
G01*
X129362000Y-56330001D01*
G75*
G02*
X129112001Y-56580000I-249999J0D01*
G01*
X128461999Y-56580000D01*
G75*
G02*
X128212000Y-56330001I0J249999D01*
G01*
G37*
G36*
G01*
X126162000Y-56330001D02*
X126162000Y-55429999D01*
G75*
G02*
X126411999Y-55180000I249999J0D01*
G01*
X127062001Y-55180000D01*
G75*
G02*
X127312000Y-55429999I0J-249999D01*
G01*
X127312000Y-56330001D01*
G75*
G02*
X127062001Y-56580000I-249999J0D01*
G01*
X126411999Y-56580000D01*
G75*
G02*
X126162000Y-56330001I0J249999D01*
G01*
G37*
%TD*%
%TO.C,C14*%
G36*
G01*
X103955001Y-56582000D02*
X103054999Y-56582000D01*
G75*
G02*
X102805000Y-56332001I0J249999D01*
G01*
X102805000Y-55681999D01*
G75*
G02*
X103054999Y-55432000I249999J0D01*
G01*
X103955001Y-55432000D01*
G75*
G02*
X104205000Y-55681999I0J-249999D01*
G01*
X104205000Y-56332001D01*
G75*
G02*
X103955001Y-56582000I-249999J0D01*
G01*
G37*
G36*
G01*
X103955001Y-58632000D02*
X103054999Y-58632000D01*
G75*
G02*
X102805000Y-58382001I0J249999D01*
G01*
X102805000Y-57731999D01*
G75*
G02*
X103054999Y-57482000I249999J0D01*
G01*
X103955001Y-57482000D01*
G75*
G02*
X104205000Y-57731999I0J-249999D01*
G01*
X104205000Y-58382001D01*
G75*
G02*
X103955001Y-58632000I-249999J0D01*
G01*
G37*
%TD*%
%TO.C,C3*%
G36*
G01*
X127257500Y-59430499D02*
X127257500Y-60330501D01*
G75*
G02*
X127007501Y-60580500I-249999J0D01*
G01*
X126357499Y-60580500D01*
G75*
G02*
X126107500Y-60330501I0J249999D01*
G01*
X126107500Y-59430499D01*
G75*
G02*
X126357499Y-59180500I249999J0D01*
G01*
X127007501Y-59180500D01*
G75*
G02*
X127257500Y-59430499I0J-249999D01*
G01*
G37*
G36*
G01*
X129307500Y-59430499D02*
X129307500Y-60330501D01*
G75*
G02*
X129057501Y-60580500I-249999J0D01*
G01*
X128407499Y-60580500D01*
G75*
G02*
X128157500Y-60330501I0J249999D01*
G01*
X128157500Y-59430499D01*
G75*
G02*
X128407499Y-59180500I249999J0D01*
G01*
X129057501Y-59180500D01*
G75*
G02*
X129307500Y-59430499I0J-249999D01*
G01*
G37*
%TD*%
M02*
