%TF.GenerationSoftware,KiCad,Pcbnew,(5.1.9)-1*%
%TF.CreationDate,2021-07-10T09:55:13-04:00*%
%TF.ProjectId,detector_circuit,64657465-6374-46f7-925f-636972637569,rev?*%
%TF.SameCoordinates,Original*%
%TF.FileFunction,Soldermask,Bot*%
%TF.FilePolarity,Negative*%
%FSLAX46Y46*%
G04 Gerber Fmt 4.6, Leading zero omitted, Abs format (unit mm)*
G04 Created by KiCad (PCBNEW (5.1.9)-1) date 2021-07-10 09:55:13*
%MOMM*%
%LPD*%
G01*
G04 APERTURE LIST*
%ADD10C,7.101600*%
%ADD11O,1.801600X1.801600*%
%ADD12C,2.301600*%
%ADD13C,1.301600*%
%ADD14C,1.601600*%
%ADD15O,1.301600X1.851600*%
G04 APERTURE END LIST*
D10*
%TO.C,REF\u002A\u002A*%
X146431000Y-140970000D03*
%TD*%
D11*
%TO.C,J11*%
X104013000Y-98679000D03*
X106553000Y-98679000D03*
X109093000Y-98679000D03*
G36*
G01*
X110783000Y-97778200D02*
X112483000Y-97778200D01*
G75*
G02*
X112533800Y-97829000I0J-50800D01*
G01*
X112533800Y-99529000D01*
G75*
G02*
X112483000Y-99579800I-50800J0D01*
G01*
X110783000Y-99579800D01*
G75*
G02*
X110732200Y-99529000I0J50800D01*
G01*
X110732200Y-97829000D01*
G75*
G02*
X110783000Y-97778200I50800J0D01*
G01*
G37*
%TD*%
%TO.C,J2*%
X144653000Y-110871000D03*
G36*
G01*
X143752200Y-109181000D02*
X143752200Y-107481000D01*
G75*
G02*
X143803000Y-107430200I50800J0D01*
G01*
X145503000Y-107430200D01*
G75*
G02*
X145553800Y-107481000I0J-50800D01*
G01*
X145553800Y-109181000D01*
G75*
G02*
X145503000Y-109231800I-50800J0D01*
G01*
X143803000Y-109231800D01*
G75*
G02*
X143752200Y-109181000I0J50800D01*
G01*
G37*
%TD*%
D10*
%TO.C,REF\u002A\u002A*%
X90170000Y-54610000D03*
%TD*%
%TO.C,REF\u002A\u002A*%
X171450000Y-54610000D03*
%TD*%
%TO.C,REF\u002A\u002A*%
X171450000Y-140970000D03*
%TD*%
%TO.C,REF\u002A\u002A*%
X146431000Y-99695000D03*
%TD*%
%TO.C,C13*%
G36*
G01*
X107739600Y-68372915D02*
X107739600Y-67415485D01*
G75*
G02*
X108011685Y-67143400I272085J0D01*
G01*
X108719115Y-67143400D01*
G75*
G02*
X108991200Y-67415485I0J-272085D01*
G01*
X108991200Y-68372915D01*
G75*
G02*
X108719115Y-68645000I-272085J0D01*
G01*
X108011685Y-68645000D01*
G75*
G02*
X107739600Y-68372915I0J272085D01*
G01*
G37*
G36*
G01*
X105689600Y-68372915D02*
X105689600Y-67415485D01*
G75*
G02*
X105961685Y-67143400I272085J0D01*
G01*
X106669115Y-67143400D01*
G75*
G02*
X106941200Y-67415485I0J-272085D01*
G01*
X106941200Y-68372915D01*
G75*
G02*
X106669115Y-68645000I-272085J0D01*
G01*
X105961685Y-68645000D01*
G75*
G02*
X105689600Y-68372915I0J272085D01*
G01*
G37*
%TD*%
%TO.C,U10*%
G36*
G01*
X109522400Y-59256800D02*
X109171600Y-59256800D01*
G75*
G02*
X108996200Y-59081400I0J175400D01*
G01*
X108996200Y-57380600D01*
G75*
G02*
X109171600Y-57205200I175400J0D01*
G01*
X109522400Y-57205200D01*
G75*
G02*
X109697800Y-57380600I0J-175400D01*
G01*
X109697800Y-59081400D01*
G75*
G02*
X109522400Y-59256800I-175400J0D01*
G01*
G37*
G36*
G01*
X108252400Y-59256800D02*
X107901600Y-59256800D01*
G75*
G02*
X107726200Y-59081400I0J175400D01*
G01*
X107726200Y-57380600D01*
G75*
G02*
X107901600Y-57205200I175400J0D01*
G01*
X108252400Y-57205200D01*
G75*
G02*
X108427800Y-57380600I0J-175400D01*
G01*
X108427800Y-59081400D01*
G75*
G02*
X108252400Y-59256800I-175400J0D01*
G01*
G37*
G36*
G01*
X106982400Y-59256800D02*
X106631600Y-59256800D01*
G75*
G02*
X106456200Y-59081400I0J175400D01*
G01*
X106456200Y-57380600D01*
G75*
G02*
X106631600Y-57205200I175400J0D01*
G01*
X106982400Y-57205200D01*
G75*
G02*
X107157800Y-57380600I0J-175400D01*
G01*
X107157800Y-59081400D01*
G75*
G02*
X106982400Y-59256800I-175400J0D01*
G01*
G37*
G36*
G01*
X105712400Y-59256800D02*
X105361600Y-59256800D01*
G75*
G02*
X105186200Y-59081400I0J175400D01*
G01*
X105186200Y-57380600D01*
G75*
G02*
X105361600Y-57205200I175400J0D01*
G01*
X105712400Y-57205200D01*
G75*
G02*
X105887800Y-57380600I0J-175400D01*
G01*
X105887800Y-59081400D01*
G75*
G02*
X105712400Y-59256800I-175400J0D01*
G01*
G37*
G36*
G01*
X105712400Y-64206800D02*
X105361600Y-64206800D01*
G75*
G02*
X105186200Y-64031400I0J175400D01*
G01*
X105186200Y-62330600D01*
G75*
G02*
X105361600Y-62155200I175400J0D01*
G01*
X105712400Y-62155200D01*
G75*
G02*
X105887800Y-62330600I0J-175400D01*
G01*
X105887800Y-64031400D01*
G75*
G02*
X105712400Y-64206800I-175400J0D01*
G01*
G37*
G36*
G01*
X106982400Y-64206800D02*
X106631600Y-64206800D01*
G75*
G02*
X106456200Y-64031400I0J175400D01*
G01*
X106456200Y-62330600D01*
G75*
G02*
X106631600Y-62155200I175400J0D01*
G01*
X106982400Y-62155200D01*
G75*
G02*
X107157800Y-62330600I0J-175400D01*
G01*
X107157800Y-64031400D01*
G75*
G02*
X106982400Y-64206800I-175400J0D01*
G01*
G37*
G36*
G01*
X108252400Y-64206800D02*
X107901600Y-64206800D01*
G75*
G02*
X107726200Y-64031400I0J175400D01*
G01*
X107726200Y-62330600D01*
G75*
G02*
X107901600Y-62155200I175400J0D01*
G01*
X108252400Y-62155200D01*
G75*
G02*
X108427800Y-62330600I0J-175400D01*
G01*
X108427800Y-64031400D01*
G75*
G02*
X108252400Y-64206800I-175400J0D01*
G01*
G37*
G36*
G01*
X109522400Y-64206800D02*
X109171600Y-64206800D01*
G75*
G02*
X108996200Y-64031400I0J175400D01*
G01*
X108996200Y-62330600D01*
G75*
G02*
X109171600Y-62155200I175400J0D01*
G01*
X109522400Y-62155200D01*
G75*
G02*
X109697800Y-62330600I0J-175400D01*
G01*
X109697800Y-64031400D01*
G75*
G02*
X109522400Y-64206800I-175400J0D01*
G01*
G37*
%TD*%
D12*
%TO.C,J10*%
X111545000Y-50419000D03*
X100545000Y-50419000D03*
D13*
X108045000Y-51419000D03*
X106045000Y-51419000D03*
X104045000Y-51419000D03*
X104045000Y-49419000D03*
G36*
G01*
X108695800Y-48819000D02*
X108695800Y-50019000D01*
G75*
G02*
X108645000Y-50069800I-50800J0D01*
G01*
X107445000Y-50069800D01*
G75*
G02*
X107394200Y-50019000I0J50800D01*
G01*
X107394200Y-48819000D01*
G75*
G02*
X107445000Y-48768200I50800J0D01*
G01*
X108645000Y-48768200D01*
G75*
G02*
X108695800Y-48819000I0J-50800D01*
G01*
G37*
X106045000Y-49419000D03*
%TD*%
D14*
%TO.C,Y1*%
X114246000Y-63373000D03*
X119126000Y-63373000D03*
%TD*%
%TO.C,J1*%
G36*
G01*
X125769000Y-51169200D02*
X127469000Y-51169200D01*
G75*
G02*
X127519800Y-51220000I0J-50800D01*
G01*
X127519800Y-52920000D01*
G75*
G02*
X127469000Y-52970800I-50800J0D01*
G01*
X125769000Y-52970800D01*
G75*
G02*
X125718200Y-52920000I0J50800D01*
G01*
X125718200Y-51220000D01*
G75*
G02*
X125769000Y-51169200I50800J0D01*
G01*
G37*
D11*
X124079000Y-52070000D03*
X121539000Y-52070000D03*
X118999000Y-52070000D03*
X116459000Y-52070000D03*
%TD*%
D15*
%TO.C,J6*%
X162338000Y-57023000D03*
G36*
G01*
X164988800Y-56368365D02*
X164988800Y-57677635D01*
G75*
G02*
X164717635Y-57948800I-271165J0D01*
G01*
X163958365Y-57948800D01*
G75*
G02*
X163687200Y-57677635I0J271165D01*
G01*
X163687200Y-56368365D01*
G75*
G02*
X163958365Y-56097200I271165J0D01*
G01*
X164717635Y-56097200D01*
G75*
G02*
X164988800Y-56368365I0J-271165D01*
G01*
G37*
%TD*%
%TO.C,J5*%
X153448000Y-57023000D03*
G36*
G01*
X156098800Y-56368365D02*
X156098800Y-57677635D01*
G75*
G02*
X155827635Y-57948800I-271165J0D01*
G01*
X155068365Y-57948800D01*
G75*
G02*
X154797200Y-57677635I0J271165D01*
G01*
X154797200Y-56368365D01*
G75*
G02*
X155068365Y-56097200I271165J0D01*
G01*
X155827635Y-56097200D01*
G75*
G02*
X156098800Y-56368365I0J-271165D01*
G01*
G37*
%TD*%
%TO.C,J4*%
X144050000Y-57023000D03*
G36*
G01*
X146700800Y-56368365D02*
X146700800Y-57677635D01*
G75*
G02*
X146429635Y-57948800I-271165J0D01*
G01*
X145670365Y-57948800D01*
G75*
G02*
X145399200Y-57677635I0J271165D01*
G01*
X145399200Y-56368365D01*
G75*
G02*
X145670365Y-56097200I271165J0D01*
G01*
X146429635Y-56097200D01*
G75*
G02*
X146700800Y-56368365I0J-271165D01*
G01*
G37*
%TD*%
%TO.C,J3*%
X134398000Y-57023000D03*
G36*
G01*
X137048800Y-56368365D02*
X137048800Y-57677635D01*
G75*
G02*
X136777635Y-57948800I-271165J0D01*
G01*
X136018365Y-57948800D01*
G75*
G02*
X135747200Y-57677635I0J271165D01*
G01*
X135747200Y-56368365D01*
G75*
G02*
X136018365Y-56097200I271165J0D01*
G01*
X136777635Y-56097200D01*
G75*
G02*
X137048800Y-56368365I0J-271165D01*
G01*
G37*
%TD*%
D11*
%TO.C,J9*%
X144653000Y-117983000D03*
G36*
G01*
X145553800Y-119673000D02*
X145553800Y-121373000D01*
G75*
G02*
X145503000Y-121423800I-50800J0D01*
G01*
X143803000Y-121423800D01*
G75*
G02*
X143752200Y-121373000I0J50800D01*
G01*
X143752200Y-119673000D01*
G75*
G02*
X143803000Y-119622200I50800J0D01*
G01*
X145503000Y-119622200D01*
G75*
G02*
X145553800Y-119673000I0J-50800D01*
G01*
G37*
%TD*%
%TO.C,JP2*%
X137033000Y-70485000D03*
X137033000Y-67945000D03*
G36*
G01*
X136132200Y-66255000D02*
X136132200Y-64555000D01*
G75*
G02*
X136183000Y-64504200I50800J0D01*
G01*
X137883000Y-64504200D01*
G75*
G02*
X137933800Y-64555000I0J-50800D01*
G01*
X137933800Y-66255000D01*
G75*
G02*
X137883000Y-66305800I-50800J0D01*
G01*
X136183000Y-66305800D01*
G75*
G02*
X136132200Y-66255000I0J50800D01*
G01*
G37*
%TD*%
%TO.C,J7*%
X137160000Y-80645000D03*
X137160000Y-78105000D03*
G36*
G01*
X136259200Y-76415000D02*
X136259200Y-74715000D01*
G75*
G02*
X136310000Y-74664200I50800J0D01*
G01*
X138010000Y-74664200D01*
G75*
G02*
X138060800Y-74715000I0J-50800D01*
G01*
X138060800Y-76415000D01*
G75*
G02*
X138010000Y-76465800I-50800J0D01*
G01*
X136310000Y-76465800D01*
G75*
G02*
X136259200Y-76415000I0J50800D01*
G01*
G37*
%TD*%
%TO.C,TP17*%
G36*
G01*
X116420000Y-97674800D02*
X114720000Y-97674800D01*
G75*
G02*
X114669200Y-97624000I0J50800D01*
G01*
X114669200Y-95924000D01*
G75*
G02*
X114720000Y-95873200I50800J0D01*
G01*
X116420000Y-95873200D01*
G75*
G02*
X116470800Y-95924000I0J-50800D01*
G01*
X116470800Y-97624000D01*
G75*
G02*
X116420000Y-97674800I-50800J0D01*
G01*
G37*
%TD*%
%TO.C,R10*%
G36*
G01*
X127970700Y-64169215D02*
X127970700Y-63211785D01*
G75*
G02*
X128242785Y-62939700I272085J0D01*
G01*
X128950215Y-62939700D01*
G75*
G02*
X129222300Y-63211785I0J-272085D01*
G01*
X129222300Y-64169215D01*
G75*
G02*
X128950215Y-64441300I-272085J0D01*
G01*
X128242785Y-64441300D01*
G75*
G02*
X127970700Y-64169215I0J272085D01*
G01*
G37*
G36*
G01*
X125920700Y-64169215D02*
X125920700Y-63211785D01*
G75*
G02*
X126192785Y-62939700I272085J0D01*
G01*
X126900215Y-62939700D01*
G75*
G02*
X127172300Y-63211785I0J-272085D01*
G01*
X127172300Y-64169215D01*
G75*
G02*
X126900215Y-64441300I-272085J0D01*
G01*
X126192785Y-64441300D01*
G75*
G02*
X125920700Y-64169215I0J272085D01*
G01*
G37*
%TD*%
%TO.C,R6*%
G36*
G01*
X128161200Y-56358715D02*
X128161200Y-55401285D01*
G75*
G02*
X128433285Y-55129200I272085J0D01*
G01*
X129140715Y-55129200D01*
G75*
G02*
X129412800Y-55401285I0J-272085D01*
G01*
X129412800Y-56358715D01*
G75*
G02*
X129140715Y-56630800I-272085J0D01*
G01*
X128433285Y-56630800D01*
G75*
G02*
X128161200Y-56358715I0J272085D01*
G01*
G37*
G36*
G01*
X126111200Y-56358715D02*
X126111200Y-55401285D01*
G75*
G02*
X126383285Y-55129200I272085J0D01*
G01*
X127090715Y-55129200D01*
G75*
G02*
X127362800Y-55401285I0J-272085D01*
G01*
X127362800Y-56358715D01*
G75*
G02*
X127090715Y-56630800I-272085J0D01*
G01*
X126383285Y-56630800D01*
G75*
G02*
X126111200Y-56358715I0J272085D01*
G01*
G37*
%TD*%
%TO.C,C14*%
G36*
G01*
X103983715Y-56632800D02*
X103026285Y-56632800D01*
G75*
G02*
X102754200Y-56360715I0J272085D01*
G01*
X102754200Y-55653285D01*
G75*
G02*
X103026285Y-55381200I272085J0D01*
G01*
X103983715Y-55381200D01*
G75*
G02*
X104255800Y-55653285I0J-272085D01*
G01*
X104255800Y-56360715D01*
G75*
G02*
X103983715Y-56632800I-272085J0D01*
G01*
G37*
G36*
G01*
X103983715Y-58682800D02*
X103026285Y-58682800D01*
G75*
G02*
X102754200Y-58410715I0J272085D01*
G01*
X102754200Y-57703285D01*
G75*
G02*
X103026285Y-57431200I272085J0D01*
G01*
X103983715Y-57431200D01*
G75*
G02*
X104255800Y-57703285I0J-272085D01*
G01*
X104255800Y-58410715D01*
G75*
G02*
X103983715Y-58682800I-272085J0D01*
G01*
G37*
%TD*%
%TO.C,C3*%
G36*
G01*
X127308300Y-59401785D02*
X127308300Y-60359215D01*
G75*
G02*
X127036215Y-60631300I-272085J0D01*
G01*
X126328785Y-60631300D01*
G75*
G02*
X126056700Y-60359215I0J272085D01*
G01*
X126056700Y-59401785D01*
G75*
G02*
X126328785Y-59129700I272085J0D01*
G01*
X127036215Y-59129700D01*
G75*
G02*
X127308300Y-59401785I0J-272085D01*
G01*
G37*
G36*
G01*
X129358300Y-59401785D02*
X129358300Y-60359215D01*
G75*
G02*
X129086215Y-60631300I-272085J0D01*
G01*
X128378785Y-60631300D01*
G75*
G02*
X128106700Y-60359215I0J272085D01*
G01*
X128106700Y-59401785D01*
G75*
G02*
X128378785Y-59129700I272085J0D01*
G01*
X129086215Y-59129700D01*
G75*
G02*
X129358300Y-59401785I0J-272085D01*
G01*
G37*
%TD*%
M02*
