%TF.GenerationSoftware,KiCad,Pcbnew,(5.1.9)-1*%
%TF.CreationDate,2021-07-13T18:02:15-04:00*%
%TF.ProjectId,detector_support,64657465-6374-46f7-925f-737570706f72,rev?*%
%TF.SameCoordinates,Original*%
%TF.FileFunction,Legend,Top*%
%TF.FilePolarity,Positive*%
%FSLAX46Y46*%
G04 Gerber Fmt 4.6, Leading zero omitted, Abs format (unit mm)*
G04 Created by KiCad (PCBNEW (5.1.9)-1) date 2021-07-13 18:02:15*
%MOMM*%
%LPD*%
G01*
G04 APERTURE LIST*
%ADD10C,0.150000*%
%ADD11C,0.750000*%
%ADD12C,0.250000*%
%ADD13C,0.300000*%
%ADD14C,0.100000*%
%ADD15C,0.120000*%
%ADD16C,0.010000*%
G04 APERTURE END LIST*
D10*
X143383002Y-96901002D02*
G75*
G02*
X149224998Y-102742998I3047998J-2793998D01*
G01*
X143383000Y-63373000D02*
X143383000Y-96901000D01*
D11*
X135509000Y-101219000D02*
X132461000Y-101219000D01*
X135509000Y-82931000D02*
X135509000Y-101219000D01*
X132969000Y-82931000D02*
X135509000Y-82931000D01*
D10*
X105433761Y-103162714D02*
X105481380Y-103034142D01*
X105481380Y-102819857D01*
X105433761Y-102734142D01*
X105386142Y-102691285D01*
X105290904Y-102648428D01*
X105195666Y-102648428D01*
X105100428Y-102691285D01*
X105052809Y-102734142D01*
X105005190Y-102819857D01*
X104957571Y-102991285D01*
X104909952Y-103077000D01*
X104862333Y-103119857D01*
X104767095Y-103162714D01*
X104671857Y-103162714D01*
X104576619Y-103119857D01*
X104529000Y-103077000D01*
X104481380Y-102991285D01*
X104481380Y-102777000D01*
X104529000Y-102648428D01*
X105481380Y-102262714D02*
X104481380Y-102262714D01*
X105481380Y-101834142D02*
X104481380Y-101834142D01*
X104481380Y-101491285D01*
X104529000Y-101405571D01*
X104576619Y-101362714D01*
X104671857Y-101319857D01*
X104814714Y-101319857D01*
X104909952Y-101362714D01*
X104957571Y-101405571D01*
X105005190Y-101491285D01*
X105005190Y-101834142D01*
X105481380Y-100934142D02*
X104481380Y-100934142D01*
X105195666Y-100634142D01*
X104481380Y-100334142D01*
X105481380Y-100334142D01*
X107513380Y-102822238D02*
X106513380Y-102822238D01*
X106513380Y-102584142D01*
X106561000Y-102441285D01*
X106656238Y-102346047D01*
X106751476Y-102298428D01*
X106941952Y-102250809D01*
X107084809Y-102250809D01*
X107275285Y-102298428D01*
X107370523Y-102346047D01*
X107465761Y-102441285D01*
X107513380Y-102584142D01*
X107513380Y-102822238D01*
X106989571Y-101822238D02*
X106989571Y-101488904D01*
X107513380Y-101346047D02*
X107513380Y-101822238D01*
X106513380Y-101822238D01*
X106513380Y-101346047D01*
X106513380Y-101060333D02*
X106513380Y-100488904D01*
X107513380Y-100774619D02*
X106513380Y-100774619D01*
X109259666Y-103036523D02*
X109259666Y-102560333D01*
X109545380Y-103131761D02*
X108545380Y-102798428D01*
X109545380Y-102465095D01*
X109545380Y-102131761D02*
X108545380Y-102131761D01*
X109259666Y-101798428D01*
X108545380Y-101465095D01*
X109545380Y-101465095D01*
X109545380Y-100988904D02*
X108545380Y-100988904D01*
X108545380Y-100607952D01*
X108593000Y-100512714D01*
X108640619Y-100465095D01*
X108735857Y-100417476D01*
X108878714Y-100417476D01*
X108973952Y-100465095D01*
X109021571Y-100512714D01*
X109069190Y-100607952D01*
X109069190Y-100988904D01*
X111133000Y-102488904D02*
X111085380Y-102584142D01*
X111085380Y-102727000D01*
X111133000Y-102869857D01*
X111228238Y-102965095D01*
X111323476Y-103012714D01*
X111513952Y-103060333D01*
X111656809Y-103060333D01*
X111847285Y-103012714D01*
X111942523Y-102965095D01*
X112037761Y-102869857D01*
X112085380Y-102727000D01*
X112085380Y-102631761D01*
X112037761Y-102488904D01*
X111990142Y-102441285D01*
X111656809Y-102441285D01*
X111656809Y-102631761D01*
X112085380Y-102012714D02*
X111085380Y-102012714D01*
X112085380Y-101441285D01*
X111085380Y-101441285D01*
X112085380Y-100965095D02*
X111085380Y-100965095D01*
X111085380Y-100727000D01*
X111133000Y-100584142D01*
X111228238Y-100488904D01*
X111323476Y-100441285D01*
X111513952Y-100393666D01*
X111656809Y-100393666D01*
X111847285Y-100441285D01*
X111942523Y-100488904D01*
X112037761Y-100584142D01*
X112085380Y-100727000D01*
X112085380Y-100965095D01*
X146105761Y-120927761D02*
X146248619Y-120975380D01*
X146486714Y-120975380D01*
X146581952Y-120927761D01*
X146629571Y-120880142D01*
X146677190Y-120784904D01*
X146677190Y-120689666D01*
X146629571Y-120594428D01*
X146581952Y-120546809D01*
X146486714Y-120499190D01*
X146296238Y-120451571D01*
X146201000Y-120403952D01*
X146153380Y-120356333D01*
X146105761Y-120261095D01*
X146105761Y-120165857D01*
X146153380Y-120070619D01*
X146201000Y-120023000D01*
X146296238Y-119975380D01*
X146534333Y-119975380D01*
X146677190Y-120023000D01*
X147105761Y-120975380D02*
X147105761Y-119975380D01*
X147581952Y-120975380D02*
X147581952Y-119975380D01*
X147962904Y-119975380D01*
X148058142Y-120023000D01*
X148105761Y-120070619D01*
X148153380Y-120165857D01*
X148153380Y-120308714D01*
X148105761Y-120403952D01*
X148058142Y-120451571D01*
X147962904Y-120499190D01*
X147581952Y-120499190D01*
X148581952Y-120975380D02*
X148581952Y-119975380D01*
X148915285Y-120689666D01*
X149248619Y-119975380D01*
X149248619Y-120975380D01*
X146462904Y-117435380D02*
X147081952Y-117435380D01*
X146748619Y-117816333D01*
X146891476Y-117816333D01*
X146986714Y-117863952D01*
X147034333Y-117911571D01*
X147081952Y-118006809D01*
X147081952Y-118244904D01*
X147034333Y-118340142D01*
X146986714Y-118387761D01*
X146891476Y-118435380D01*
X146605761Y-118435380D01*
X146510523Y-118387761D01*
X146462904Y-118340142D01*
X147939095Y-117435380D02*
X147748619Y-117435380D01*
X147653380Y-117483000D01*
X147605761Y-117530619D01*
X147510523Y-117673476D01*
X147462904Y-117863952D01*
X147462904Y-118244904D01*
X147510523Y-118340142D01*
X147558142Y-118387761D01*
X147653380Y-118435380D01*
X147843857Y-118435380D01*
X147939095Y-118387761D01*
X147986714Y-118340142D01*
X148034333Y-118244904D01*
X148034333Y-118006809D01*
X147986714Y-117911571D01*
X147939095Y-117863952D01*
X147843857Y-117816333D01*
X147653380Y-117816333D01*
X147558142Y-117863952D01*
X147510523Y-117911571D01*
X147462904Y-118006809D01*
X148320047Y-117435380D02*
X148653380Y-118435380D01*
X148986714Y-117435380D01*
X146939095Y-107831000D02*
X146843857Y-107783380D01*
X146701000Y-107783380D01*
X146558142Y-107831000D01*
X146462904Y-107926238D01*
X146415285Y-108021476D01*
X146367666Y-108211952D01*
X146367666Y-108354809D01*
X146415285Y-108545285D01*
X146462904Y-108640523D01*
X146558142Y-108735761D01*
X146701000Y-108783380D01*
X146796238Y-108783380D01*
X146939095Y-108735761D01*
X146986714Y-108688142D01*
X146986714Y-108354809D01*
X146796238Y-108354809D01*
X147415285Y-108783380D02*
X147415285Y-107783380D01*
X147986714Y-108783380D01*
X147986714Y-107783380D01*
X148462904Y-108783380D02*
X148462904Y-107783380D01*
X148701000Y-107783380D01*
X148843857Y-107831000D01*
X148939095Y-107926238D01*
X148986714Y-108021476D01*
X149034333Y-108211952D01*
X149034333Y-108354809D01*
X148986714Y-108545285D01*
X148939095Y-108640523D01*
X148843857Y-108735761D01*
X148701000Y-108783380D01*
X148462904Y-108783380D01*
X146748619Y-110973714D02*
X146748619Y-111640380D01*
X146510523Y-110592761D02*
X146272428Y-111307047D01*
X146891476Y-111307047D01*
X147272428Y-111545142D02*
X147320047Y-111592761D01*
X147272428Y-111640380D01*
X147224809Y-111592761D01*
X147272428Y-111545142D01*
X147272428Y-111640380D01*
X147653380Y-110640380D02*
X148320047Y-110640380D01*
X147891476Y-111640380D01*
X148558142Y-110640380D02*
X148891476Y-111640380D01*
X149224809Y-110640380D01*
D11*
X104013000Y-84963000D02*
X104013000Y-97155000D01*
X123825000Y-101219000D02*
X132461000Y-101219000D01*
X123825000Y-84963000D02*
X123825000Y-101219000D01*
X116713000Y-84963000D02*
X123825000Y-84963000D01*
X104013000Y-84963000D02*
X116713000Y-84963000D01*
D10*
X104013000Y-84455000D02*
X104013000Y-84963000D01*
D11*
X104013000Y-101219000D02*
X104013000Y-99695000D01*
D10*
X123594380Y-54673476D02*
X123594380Y-55149666D01*
X124070571Y-55197285D01*
X124022952Y-55149666D01*
X123975333Y-55054428D01*
X123975333Y-54816333D01*
X124022952Y-54721095D01*
X124070571Y-54673476D01*
X124165809Y-54625857D01*
X124403904Y-54625857D01*
X124499142Y-54673476D01*
X124546761Y-54721095D01*
X124594380Y-54816333D01*
X124594380Y-55054428D01*
X124546761Y-55149666D01*
X124499142Y-55197285D01*
X123594380Y-54340142D02*
X124594380Y-54006809D01*
X123594380Y-53673476D01*
X104013000Y-84963000D02*
X104013000Y-67691000D01*
D11*
X86106000Y-101219000D02*
X104013000Y-101219000D01*
D10*
X84518500Y-64135000D02*
X84709000Y-99695000D01*
X116911380Y-59459452D02*
X115911380Y-59459452D01*
X116816142Y-58411833D02*
X116863761Y-58459452D01*
X116911380Y-58602309D01*
X116911380Y-58697547D01*
X116863761Y-58840404D01*
X116768523Y-58935642D01*
X116673285Y-58983261D01*
X116482809Y-59030880D01*
X116339952Y-59030880D01*
X116149476Y-58983261D01*
X116054238Y-58935642D01*
X115959000Y-58840404D01*
X115911380Y-58697547D01*
X115911380Y-58602309D01*
X115959000Y-58459452D01*
X116006619Y-58411833D01*
X116863761Y-58030880D02*
X116911380Y-57888023D01*
X116911380Y-57649928D01*
X116863761Y-57554690D01*
X116816142Y-57507071D01*
X116720904Y-57459452D01*
X116625666Y-57459452D01*
X116530428Y-57507071D01*
X116482809Y-57554690D01*
X116435190Y-57649928D01*
X116387571Y-57840404D01*
X116339952Y-57935642D01*
X116292333Y-57983261D01*
X116197095Y-58030880D01*
X116101857Y-58030880D01*
X116006619Y-57983261D01*
X115959000Y-57935642D01*
X115911380Y-57840404D01*
X115911380Y-57602309D01*
X115959000Y-57459452D01*
X116911380Y-57030880D02*
X115911380Y-57030880D01*
X115911380Y-56649928D01*
X115959000Y-56554690D01*
X116006619Y-56507071D01*
X116101857Y-56459452D01*
X116244714Y-56459452D01*
X116339952Y-56507071D01*
X116387571Y-56554690D01*
X116435190Y-56649928D01*
X116435190Y-57030880D01*
X116816142Y-55459452D02*
X116863761Y-55507071D01*
X116911380Y-55649928D01*
X116911380Y-55745166D01*
X116863761Y-55888023D01*
X116768523Y-55983261D01*
X116673285Y-56030880D01*
X116482809Y-56078500D01*
X116339952Y-56078500D01*
X116149476Y-56030880D01*
X116054238Y-55983261D01*
X115959000Y-55888023D01*
X115911380Y-55745166D01*
X115911380Y-55649928D01*
X115959000Y-55507071D01*
X116006619Y-55459452D01*
X116911380Y-54554690D02*
X116911380Y-55030880D01*
X115911380Y-55030880D01*
X116911380Y-54221357D02*
X115911380Y-54221357D01*
X116911380Y-53649928D02*
X116339952Y-54078500D01*
X115911380Y-53649928D02*
X116482809Y-54221357D01*
X119324380Y-59300714D02*
X118324380Y-59300714D01*
X119276761Y-58872142D02*
X119324380Y-58729285D01*
X119324380Y-58491190D01*
X119276761Y-58395952D01*
X119229142Y-58348333D01*
X119133904Y-58300714D01*
X119038666Y-58300714D01*
X118943428Y-58348333D01*
X118895809Y-58395952D01*
X118848190Y-58491190D01*
X118800571Y-58681666D01*
X118752952Y-58776904D01*
X118705333Y-58824523D01*
X118610095Y-58872142D01*
X118514857Y-58872142D01*
X118419619Y-58824523D01*
X118372000Y-58776904D01*
X118324380Y-58681666D01*
X118324380Y-58443571D01*
X118372000Y-58300714D01*
X119229142Y-57300714D02*
X119276761Y-57348333D01*
X119324380Y-57491190D01*
X119324380Y-57586428D01*
X119276761Y-57729285D01*
X119181523Y-57824523D01*
X119086285Y-57872142D01*
X118895809Y-57919761D01*
X118752952Y-57919761D01*
X118562476Y-57872142D01*
X118467238Y-57824523D01*
X118372000Y-57729285D01*
X118324380Y-57586428D01*
X118324380Y-57491190D01*
X118372000Y-57348333D01*
X118419619Y-57300714D01*
X119324380Y-56872142D02*
X118324380Y-56872142D01*
X118324380Y-56491190D01*
X118372000Y-56395952D01*
X118419619Y-56348333D01*
X118514857Y-56300714D01*
X118657714Y-56300714D01*
X118752952Y-56348333D01*
X118800571Y-56395952D01*
X118848190Y-56491190D01*
X118848190Y-56872142D01*
X119324380Y-55872142D02*
X118324380Y-55872142D01*
X118324380Y-55634047D01*
X118372000Y-55491190D01*
X118467238Y-55395952D01*
X118562476Y-55348333D01*
X118752952Y-55300714D01*
X118895809Y-55300714D01*
X119086285Y-55348333D01*
X119181523Y-55395952D01*
X119276761Y-55491190D01*
X119324380Y-55634047D01*
X119324380Y-55872142D01*
X119038666Y-54919761D02*
X119038666Y-54443571D01*
X119324380Y-55015000D02*
X118324380Y-54681666D01*
X119324380Y-54348333D01*
X118324380Y-54157857D02*
X118324380Y-53586428D01*
X119324380Y-53872142D02*
X118324380Y-53872142D01*
X121293000Y-55689404D02*
X121245380Y-55784642D01*
X121245380Y-55927500D01*
X121293000Y-56070357D01*
X121388238Y-56165595D01*
X121483476Y-56213214D01*
X121673952Y-56260833D01*
X121816809Y-56260833D01*
X122007285Y-56213214D01*
X122102523Y-56165595D01*
X122197761Y-56070357D01*
X122245380Y-55927500D01*
X122245380Y-55832261D01*
X122197761Y-55689404D01*
X122150142Y-55641785D01*
X121816809Y-55641785D01*
X121816809Y-55832261D01*
X122245380Y-55213214D02*
X121245380Y-55213214D01*
X122245380Y-54641785D01*
X121245380Y-54641785D01*
X122245380Y-54165595D02*
X121245380Y-54165595D01*
X121245380Y-53927500D01*
X121293000Y-53784642D01*
X121388238Y-53689404D01*
X121483476Y-53641785D01*
X121673952Y-53594166D01*
X121816809Y-53594166D01*
X122007285Y-53641785D01*
X122102523Y-53689404D01*
X122197761Y-53784642D01*
X122245380Y-53927500D01*
X122245380Y-54165595D01*
D12*
X127071380Y-56983095D02*
X126071380Y-56983095D01*
X126785666Y-56649761D01*
X126071380Y-56316428D01*
X127071380Y-56316428D01*
X126976142Y-55268809D02*
X127023761Y-55316428D01*
X127071380Y-55459285D01*
X127071380Y-55554523D01*
X127023761Y-55697380D01*
X126928523Y-55792619D01*
X126833285Y-55840238D01*
X126642809Y-55887857D01*
X126499952Y-55887857D01*
X126309476Y-55840238D01*
X126214238Y-55792619D01*
X126119000Y-55697380D01*
X126071380Y-55554523D01*
X126071380Y-55459285D01*
X126119000Y-55316428D01*
X126166619Y-55268809D01*
X127071380Y-54364047D02*
X127071380Y-54840238D01*
X126071380Y-54840238D01*
X127071380Y-53459285D02*
X126595190Y-53792619D01*
X127071380Y-54030714D02*
X126071380Y-54030714D01*
X126071380Y-53649761D01*
X126119000Y-53554523D01*
X126166619Y-53506904D01*
X126261857Y-53459285D01*
X126404714Y-53459285D01*
X126499952Y-53506904D01*
X126547571Y-53554523D01*
X126595190Y-53649761D01*
X126595190Y-54030714D01*
D10*
X136017047Y-59189928D02*
X136778952Y-59189928D01*
X145669047Y-59189928D02*
X146430952Y-59189928D01*
X155067047Y-59126428D02*
X155828952Y-59126428D01*
X163957047Y-59062928D02*
X164718952Y-59062928D01*
X161734547Y-59062928D02*
X162496452Y-59062928D01*
X162115500Y-59443880D02*
X162115500Y-58681976D01*
X152971547Y-59189928D02*
X153733452Y-59189928D01*
X153352500Y-59570880D02*
X153352500Y-58808976D01*
X143637047Y-59253428D02*
X144398952Y-59253428D01*
X144018000Y-59634380D02*
X144018000Y-58872476D01*
X134048547Y-59253428D02*
X134810452Y-59253428D01*
X134429500Y-59634380D02*
X134429500Y-58872476D01*
X142240000Y-69532500D02*
X142240000Y-66167000D01*
X138684000Y-69532500D02*
X142240000Y-69532500D01*
X138684000Y-66167000D02*
X138684000Y-69532500D01*
X142240000Y-66167000D02*
X138684000Y-66167000D01*
X139096904Y-66572380D02*
X139715952Y-66572380D01*
X139382619Y-66953333D01*
X139525476Y-66953333D01*
X139620714Y-67000952D01*
X139668333Y-67048571D01*
X139715952Y-67143809D01*
X139715952Y-67381904D01*
X139668333Y-67477142D01*
X139620714Y-67524761D01*
X139525476Y-67572380D01*
X139239761Y-67572380D01*
X139144523Y-67524761D01*
X139096904Y-67477142D01*
X140049285Y-66572380D02*
X140715952Y-66572380D01*
X140287380Y-67572380D01*
X140954047Y-66572380D02*
X141287380Y-67572380D01*
X141620714Y-66572380D01*
X139811190Y-69222380D02*
X139811190Y-68222380D01*
X140287380Y-69222380D02*
X140287380Y-68222380D01*
X140858809Y-69222380D01*
X140858809Y-68222380D01*
X139215952Y-64698571D02*
X139358809Y-64746190D01*
X139406428Y-64793809D01*
X139454047Y-64889047D01*
X139454047Y-65031904D01*
X139406428Y-65127142D01*
X139358809Y-65174761D01*
X139263571Y-65222380D01*
X138882619Y-65222380D01*
X138882619Y-64222380D01*
X139215952Y-64222380D01*
X139311190Y-64270000D01*
X139358809Y-64317619D01*
X139406428Y-64412857D01*
X139406428Y-64508095D01*
X139358809Y-64603333D01*
X139311190Y-64650952D01*
X139215952Y-64698571D01*
X138882619Y-64698571D01*
X139835000Y-64936666D02*
X140311190Y-64936666D01*
X139739761Y-65222380D02*
X140073095Y-64222380D01*
X140406428Y-65222380D01*
X140596904Y-64222380D02*
X141168333Y-64222380D01*
X140882619Y-65222380D02*
X140882619Y-64222380D01*
X141358809Y-64222380D02*
X141930238Y-64222380D01*
X141644523Y-65222380D02*
X141644523Y-64222380D01*
X139207952Y-71000380D02*
X138636523Y-71000380D01*
X138922238Y-71000380D02*
X138922238Y-70000380D01*
X138827000Y-70143238D01*
X138731761Y-70238476D01*
X138636523Y-70286095D01*
X139588904Y-70095619D02*
X139636523Y-70048000D01*
X139731761Y-70000380D01*
X139969857Y-70000380D01*
X140065095Y-70048000D01*
X140112714Y-70095619D01*
X140160333Y-70190857D01*
X140160333Y-70286095D01*
X140112714Y-70428952D01*
X139541285Y-71000380D01*
X140160333Y-71000380D01*
X140446047Y-70000380D02*
X140779380Y-71000380D01*
X141112714Y-70000380D01*
X139954023Y-79843380D02*
X139477833Y-79843380D01*
X139430214Y-80319571D01*
X139477833Y-80271952D01*
X139573071Y-80224333D01*
X139811166Y-80224333D01*
X139906404Y-80271952D01*
X139954023Y-80319571D01*
X140001642Y-80414809D01*
X140001642Y-80652904D01*
X139954023Y-80748142D01*
X139906404Y-80795761D01*
X139811166Y-80843380D01*
X139573071Y-80843380D01*
X139477833Y-80795761D01*
X139430214Y-80748142D01*
X140287357Y-79843380D02*
X140620690Y-80843380D01*
X140954023Y-79843380D01*
X139842952Y-78302880D02*
X139271523Y-78302880D01*
X139557238Y-78302880D02*
X139557238Y-77302880D01*
X139462000Y-77445738D01*
X139366761Y-77540976D01*
X139271523Y-77588595D01*
X140223904Y-77398119D02*
X140271523Y-77350500D01*
X140366761Y-77302880D01*
X140604857Y-77302880D01*
X140700095Y-77350500D01*
X140747714Y-77398119D01*
X140795333Y-77493357D01*
X140795333Y-77588595D01*
X140747714Y-77731452D01*
X140176285Y-78302880D01*
X140795333Y-78302880D01*
X141081047Y-77302880D02*
X141414380Y-78302880D01*
X141747714Y-77302880D01*
X139700095Y-74874500D02*
X139604857Y-74826880D01*
X139462000Y-74826880D01*
X139319142Y-74874500D01*
X139223904Y-74969738D01*
X139176285Y-75064976D01*
X139128666Y-75255452D01*
X139128666Y-75398309D01*
X139176285Y-75588785D01*
X139223904Y-75684023D01*
X139319142Y-75779261D01*
X139462000Y-75826880D01*
X139557238Y-75826880D01*
X139700095Y-75779261D01*
X139747714Y-75731642D01*
X139747714Y-75398309D01*
X139557238Y-75398309D01*
X140176285Y-75826880D02*
X140176285Y-74826880D01*
X140747714Y-75826880D01*
X140747714Y-74826880D01*
X141223904Y-75826880D02*
X141223904Y-74826880D01*
X141462000Y-74826880D01*
X141604857Y-74874500D01*
X141700095Y-74969738D01*
X141747714Y-75064976D01*
X141795333Y-75255452D01*
X141795333Y-75398309D01*
X141747714Y-75588785D01*
X141700095Y-75684023D01*
X141604857Y-75779261D01*
X141462000Y-75826880D01*
X141223904Y-75826880D01*
X101663500Y-55943500D02*
X93686171Y-55870204D01*
X101663500Y-66738500D02*
X101663500Y-55943500D01*
X84518500Y-55753000D02*
X84518500Y-58039000D01*
X86614001Y-55752999D02*
X84518500Y-55753000D01*
X93686172Y-55870204D02*
G75*
G02*
X86614001Y-55752999I-3516172J1260204D01*
G01*
D13*
X108268523Y-77176142D02*
X108268523Y-74176142D01*
X109792333Y-74176142D01*
X110173285Y-74319000D01*
X110363761Y-74461857D01*
X110554238Y-74747571D01*
X110554238Y-75176142D01*
X110363761Y-75461857D01*
X110173285Y-75604714D01*
X109792333Y-75747571D01*
X108268523Y-75747571D01*
X114173285Y-77176142D02*
X112268523Y-77176142D01*
X112268523Y-74176142D01*
X115316142Y-76319000D02*
X117220904Y-76319000D01*
X114935190Y-77176142D02*
X116268523Y-74176142D01*
X117601857Y-77176142D01*
X121220904Y-76890428D02*
X121030428Y-77033285D01*
X120459000Y-77176142D01*
X120078047Y-77176142D01*
X119506619Y-77033285D01*
X119125666Y-76747571D01*
X118935190Y-76461857D01*
X118744714Y-75890428D01*
X118744714Y-75461857D01*
X118935190Y-74890428D01*
X119125666Y-74604714D01*
X119506619Y-74319000D01*
X120078047Y-74176142D01*
X120459000Y-74176142D01*
X121030428Y-74319000D01*
X121220904Y-74461857D01*
X122935190Y-75604714D02*
X124268523Y-75604714D01*
X124839952Y-77176142D02*
X122935190Y-77176142D01*
X122935190Y-74176142D01*
X124839952Y-74176142D01*
X117840571Y-73429642D02*
X117840571Y-70429642D01*
X119554857Y-73429642D01*
X119554857Y-70429642D01*
X121554857Y-70429642D02*
X122126285Y-70429642D01*
X122412000Y-70572500D01*
X122697714Y-70858214D01*
X122840571Y-71429642D01*
X122840571Y-72429642D01*
X122697714Y-73001071D01*
X122412000Y-73286785D01*
X122126285Y-73429642D01*
X121554857Y-73429642D01*
X121269142Y-73286785D01*
X120983428Y-73001071D01*
X120840571Y-72429642D01*
X120840571Y-71429642D01*
X120983428Y-70858214D01*
X121269142Y-70572500D01*
X121554857Y-70429642D01*
X123697714Y-70429642D02*
X125412000Y-70429642D01*
X124554857Y-73429642D02*
X124554857Y-70429642D01*
X108069357Y-73556642D02*
X108069357Y-70556642D01*
X108783642Y-70556642D01*
X109212214Y-70699500D01*
X109497928Y-70985214D01*
X109640785Y-71270928D01*
X109783642Y-71842357D01*
X109783642Y-72270928D01*
X109640785Y-72842357D01*
X109497928Y-73128071D01*
X109212214Y-73413785D01*
X108783642Y-73556642D01*
X108069357Y-73556642D01*
X111640785Y-70556642D02*
X112212214Y-70556642D01*
X112497928Y-70699500D01*
X112783642Y-70985214D01*
X112926500Y-71556642D01*
X112926500Y-72556642D01*
X112783642Y-73128071D01*
X112497928Y-73413785D01*
X112212214Y-73556642D01*
X111640785Y-73556642D01*
X111355071Y-73413785D01*
X111069357Y-73128071D01*
X110926500Y-72556642D01*
X110926500Y-71556642D01*
X111069357Y-70985214D01*
X111355071Y-70699500D01*
X111640785Y-70556642D01*
D11*
X147320000Y-63500000D02*
X132842000Y-63500000D01*
X132969000Y-82931000D02*
X132842000Y-63500000D01*
D10*
X160858428Y-136013000D02*
X161572714Y-136013000D01*
X160715571Y-136441571D02*
X161215571Y-134941571D01*
X161715571Y-136441571D01*
X162215571Y-136441571D02*
X162215571Y-135441571D01*
X162215571Y-135727285D02*
X162286999Y-135584428D01*
X162358428Y-135513000D01*
X162501285Y-135441571D01*
X162644142Y-135441571D01*
X162929857Y-135441571D02*
X163501285Y-135441571D01*
X163144142Y-134941571D02*
X163144142Y-136227285D01*
X163215571Y-136370142D01*
X163358428Y-136441571D01*
X163501285Y-136441571D01*
X164572714Y-136370142D02*
X164429857Y-136441571D01*
X164144142Y-136441571D01*
X164001285Y-136370142D01*
X163929857Y-136227285D01*
X163929857Y-135655857D01*
X164001285Y-135513000D01*
X164144142Y-135441571D01*
X164429857Y-135441571D01*
X164572714Y-135513000D01*
X164644142Y-135655857D01*
X164644142Y-135798714D01*
X163929857Y-135941571D01*
X165286999Y-136441571D02*
X165286999Y-135441571D01*
X165286999Y-135584428D02*
X165358428Y-135513000D01*
X165501285Y-135441571D01*
X165715571Y-135441571D01*
X165858428Y-135513000D01*
X165929857Y-135655857D01*
X165929857Y-136441571D01*
X165929857Y-135655857D02*
X166001285Y-135513000D01*
X166144142Y-135441571D01*
X166358428Y-135441571D01*
X166501285Y-135513000D01*
X166572714Y-135655857D01*
X166572714Y-136441571D01*
X168358428Y-136370142D02*
X168572714Y-136441571D01*
X168929857Y-136441571D01*
X169072714Y-136370142D01*
X169144142Y-136298714D01*
X169215571Y-136155857D01*
X169215571Y-136013000D01*
X169144142Y-135870142D01*
X169072714Y-135798714D01*
X168929857Y-135727285D01*
X168644142Y-135655857D01*
X168501285Y-135584428D01*
X168429857Y-135513000D01*
X168358428Y-135370142D01*
X168358428Y-135227285D01*
X168429857Y-135084428D01*
X168501285Y-135013000D01*
X168644142Y-134941571D01*
X169001285Y-134941571D01*
X169215571Y-135013000D01*
X170072714Y-136441571D02*
X169929857Y-136370142D01*
X169858428Y-136298714D01*
X169786999Y-136155857D01*
X169786999Y-135727285D01*
X169858428Y-135584428D01*
X169929857Y-135513000D01*
X170072714Y-135441571D01*
X170286999Y-135441571D01*
X170429857Y-135513000D01*
X170501285Y-135584428D01*
X170572714Y-135727285D01*
X170572714Y-136155857D01*
X170501285Y-136298714D01*
X170429857Y-136370142D01*
X170286999Y-136441571D01*
X170072714Y-136441571D01*
X171001285Y-135441571D02*
X171572714Y-135441571D01*
X171215571Y-134941571D02*
X171215571Y-136227285D01*
X171286999Y-136370142D01*
X171429857Y-136441571D01*
X171572714Y-136441571D01*
X172072714Y-135441571D02*
X172072714Y-136441571D01*
X172072714Y-135584428D02*
X172144142Y-135513000D01*
X172286999Y-135441571D01*
X172501285Y-135441571D01*
X172644142Y-135513000D01*
X172715571Y-135655857D01*
X172715571Y-136441571D01*
X173429857Y-136441571D02*
X173429857Y-135441571D01*
X173429857Y-134941571D02*
X173358428Y-135013000D01*
X173429857Y-135084428D01*
X173501285Y-135013000D01*
X173429857Y-134941571D01*
X173429857Y-135084428D01*
X174144142Y-136441571D02*
X174144142Y-134941571D01*
X174286999Y-135870142D02*
X174715571Y-136441571D01*
X174715571Y-135441571D02*
X174144142Y-136013000D01*
X175572714Y-136441571D02*
X175429857Y-136370142D01*
X175358428Y-136298714D01*
X175286999Y-136155857D01*
X175286999Y-135727285D01*
X175358428Y-135584428D01*
X175429857Y-135513000D01*
X175572714Y-135441571D01*
X175786999Y-135441571D01*
X175929857Y-135513000D01*
X176001285Y-135584428D01*
X176072714Y-135727285D01*
X176072714Y-136155857D01*
X176001285Y-136298714D01*
X175929857Y-136370142D01*
X175786999Y-136441571D01*
X175572714Y-136441571D01*
X176572714Y-135441571D02*
X176929857Y-136441571D01*
X177286999Y-135441571D01*
X143911571Y-136441571D02*
X143197285Y-136441571D01*
X143197285Y-134941571D01*
X145054428Y-136441571D02*
X145054428Y-135655857D01*
X144983000Y-135513000D01*
X144840142Y-135441571D01*
X144554428Y-135441571D01*
X144411571Y-135513000D01*
X145054428Y-136370142D02*
X144911571Y-136441571D01*
X144554428Y-136441571D01*
X144411571Y-136370142D01*
X144340142Y-136227285D01*
X144340142Y-136084428D01*
X144411571Y-135941571D01*
X144554428Y-135870142D01*
X144911571Y-135870142D01*
X145054428Y-135798714D01*
X145768714Y-135441571D02*
X145768714Y-136441571D01*
X145768714Y-135584428D02*
X145840142Y-135513000D01*
X145983000Y-135441571D01*
X146197285Y-135441571D01*
X146340142Y-135513000D01*
X146411571Y-135655857D01*
X146411571Y-136441571D01*
X147768714Y-136441571D02*
X147768714Y-135655857D01*
X147697285Y-135513000D01*
X147554428Y-135441571D01*
X147268714Y-135441571D01*
X147125857Y-135513000D01*
X147768714Y-136370142D02*
X147625857Y-136441571D01*
X147268714Y-136441571D01*
X147125857Y-136370142D01*
X147054428Y-136227285D01*
X147054428Y-136084428D01*
X147125857Y-135941571D01*
X147268714Y-135870142D01*
X147625857Y-135870142D01*
X147768714Y-135798714D01*
X149411571Y-134941571D02*
X150268714Y-134941571D01*
X149840142Y-136441571D02*
X149840142Y-134941571D01*
X150983000Y-136441571D02*
X150840142Y-136370142D01*
X150768714Y-136298714D01*
X150697285Y-136155857D01*
X150697285Y-135727285D01*
X150768714Y-135584428D01*
X150840142Y-135513000D01*
X150983000Y-135441571D01*
X151197285Y-135441571D01*
X151340142Y-135513000D01*
X151411571Y-135584428D01*
X151483000Y-135727285D01*
X151483000Y-136155857D01*
X151411571Y-136298714D01*
X151340142Y-136370142D01*
X151197285Y-136441571D01*
X150983000Y-136441571D01*
X152125857Y-136441571D02*
X152125857Y-135441571D01*
X152125857Y-135584428D02*
X152197285Y-135513000D01*
X152340142Y-135441571D01*
X152554428Y-135441571D01*
X152697285Y-135513000D01*
X152768714Y-135655857D01*
X152768714Y-136441571D01*
X152768714Y-135655857D02*
X152840142Y-135513000D01*
X152983000Y-135441571D01*
X153197285Y-135441571D01*
X153340142Y-135513000D01*
X153411571Y-135655857D01*
X153411571Y-136441571D01*
X154340142Y-136441571D02*
X154197285Y-136370142D01*
X154125857Y-136227285D01*
X154125857Y-134941571D01*
X154911571Y-136441571D02*
X154911571Y-135441571D01*
X154911571Y-134941571D02*
X154840142Y-135013000D01*
X154911571Y-135084428D01*
X154983000Y-135013000D01*
X154911571Y-134941571D01*
X154911571Y-135084428D01*
X155625857Y-135441571D02*
X155625857Y-136441571D01*
X155625857Y-135584428D02*
X155697285Y-135513000D01*
X155840142Y-135441571D01*
X156054428Y-135441571D01*
X156197285Y-135513000D01*
X156268714Y-135655857D01*
X156268714Y-136441571D01*
D13*
X143250142Y-134072142D02*
X143250142Y-131072142D01*
X144250142Y-133215000D01*
X145250142Y-131072142D01*
X145250142Y-134072142D01*
X147107285Y-134072142D02*
X146821571Y-133929285D01*
X146678714Y-133786428D01*
X146535857Y-133500714D01*
X146535857Y-132643571D01*
X146678714Y-132357857D01*
X146821571Y-132215000D01*
X147107285Y-132072142D01*
X147535857Y-132072142D01*
X147821571Y-132215000D01*
X147964428Y-132357857D01*
X148107285Y-132643571D01*
X148107285Y-133500714D01*
X147964428Y-133786428D01*
X147821571Y-133929285D01*
X147535857Y-134072142D01*
X147107285Y-134072142D01*
X150678714Y-132072142D02*
X150678714Y-134072142D01*
X149393000Y-132072142D02*
X149393000Y-133643571D01*
X149535857Y-133929285D01*
X149821571Y-134072142D01*
X150250142Y-134072142D01*
X150535857Y-133929285D01*
X150678714Y-133786428D01*
X152107285Y-132072142D02*
X152107285Y-134072142D01*
X152107285Y-132357857D02*
X152250142Y-132215000D01*
X152535857Y-132072142D01*
X152964428Y-132072142D01*
X153250142Y-132215000D01*
X153393000Y-132500714D01*
X153393000Y-134072142D01*
X154393000Y-132072142D02*
X155535857Y-132072142D01*
X154821571Y-131072142D02*
X154821571Y-133643571D01*
X154964428Y-133929285D01*
X155250142Y-134072142D01*
X155535857Y-134072142D01*
X158393000Y-131072142D02*
X159393000Y-134072142D01*
X160393000Y-131072142D01*
X162535857Y-133929285D02*
X162250142Y-134072142D01*
X161678714Y-134072142D01*
X161393000Y-133929285D01*
X161250142Y-133643571D01*
X161250142Y-132500714D01*
X161393000Y-132215000D01*
X161678714Y-132072142D01*
X162250142Y-132072142D01*
X162535857Y-132215000D01*
X162678714Y-132500714D01*
X162678714Y-132786428D01*
X161250142Y-133072142D01*
X163821571Y-133929285D02*
X164107285Y-134072142D01*
X164678714Y-134072142D01*
X164964428Y-133929285D01*
X165107285Y-133643571D01*
X165107285Y-133500714D01*
X164964428Y-133215000D01*
X164678714Y-133072142D01*
X164250142Y-133072142D01*
X163964428Y-132929285D01*
X163821571Y-132643571D01*
X163821571Y-132500714D01*
X163964428Y-132215000D01*
X164250142Y-132072142D01*
X164678714Y-132072142D01*
X164964428Y-132215000D01*
X167678714Y-132072142D02*
X167678714Y-134072142D01*
X166393000Y-132072142D02*
X166393000Y-133643571D01*
X166535857Y-133929285D01*
X166821571Y-134072142D01*
X167250142Y-134072142D01*
X167535857Y-133929285D01*
X167678714Y-133786428D01*
X168821571Y-132072142D02*
X169535857Y-134072142D01*
X170250142Y-132072142D01*
X171393000Y-134072142D02*
X171393000Y-132072142D01*
X171393000Y-131072142D02*
X171250142Y-131215000D01*
X171393000Y-131357857D01*
X171535857Y-131215000D01*
X171393000Y-131072142D01*
X171393000Y-131357857D01*
X174107285Y-132072142D02*
X174107285Y-134072142D01*
X172821571Y-132072142D02*
X172821571Y-133643571D01*
X172964428Y-133929285D01*
X173250142Y-134072142D01*
X173678714Y-134072142D01*
X173964428Y-133929285D01*
X174107285Y-133786428D01*
X175393000Y-133929285D02*
X175678714Y-134072142D01*
X176250142Y-134072142D01*
X176535857Y-133929285D01*
X176678714Y-133643571D01*
X176678714Y-133500714D01*
X176535857Y-133215000D01*
X176250142Y-133072142D01*
X175821571Y-133072142D01*
X175535857Y-132929285D01*
X175393000Y-132643571D01*
X175393000Y-132500714D01*
X175535857Y-132215000D01*
X175821571Y-132072142D01*
X176250142Y-132072142D01*
X176535857Y-132215000D01*
D10*
X97371352Y-53595542D02*
X97323733Y-53643161D01*
X97180876Y-53690780D01*
X97085638Y-53690780D01*
X96942780Y-53643161D01*
X96847542Y-53547923D01*
X96799923Y-53452685D01*
X96752304Y-53262209D01*
X96752304Y-53119352D01*
X96799923Y-52928876D01*
X96847542Y-52833638D01*
X96942780Y-52738400D01*
X97085638Y-52690780D01*
X97180876Y-52690780D01*
X97323733Y-52738400D01*
X97371352Y-52786019D01*
X97752304Y-53405066D02*
X98228495Y-53405066D01*
X97657066Y-53690780D02*
X97990400Y-52690780D01*
X98323733Y-53690780D01*
X98657066Y-53690780D02*
X98657066Y-52690780D01*
X99228495Y-53690780D01*
X99228495Y-52690780D01*
X100466590Y-53690780D02*
X100466590Y-52690780D01*
X100466590Y-53166971D02*
X101038019Y-53166971D01*
X101038019Y-53690780D02*
X101038019Y-52690780D01*
X101895161Y-53643161D02*
X101799923Y-53690780D01*
X101609447Y-53690780D01*
X101514209Y-53643161D01*
X101466590Y-53547923D01*
X101466590Y-53166971D01*
X101514209Y-53071733D01*
X101609447Y-53024114D01*
X101799923Y-53024114D01*
X101895161Y-53071733D01*
X101942780Y-53166971D01*
X101942780Y-53262209D01*
X101466590Y-53357447D01*
X102799923Y-53690780D02*
X102799923Y-53166971D01*
X102752304Y-53071733D01*
X102657066Y-53024114D01*
X102466590Y-53024114D01*
X102371352Y-53071733D01*
X102799923Y-53643161D02*
X102704685Y-53690780D01*
X102466590Y-53690780D01*
X102371352Y-53643161D01*
X102323733Y-53547923D01*
X102323733Y-53452685D01*
X102371352Y-53357447D01*
X102466590Y-53309828D01*
X102704685Y-53309828D01*
X102799923Y-53262209D01*
X103704685Y-53690780D02*
X103704685Y-52690780D01*
X103704685Y-53643161D02*
X103609447Y-53690780D01*
X103418971Y-53690780D01*
X103323733Y-53643161D01*
X103276114Y-53595542D01*
X103228495Y-53500304D01*
X103228495Y-53214590D01*
X103276114Y-53119352D01*
X103323733Y-53071733D01*
X103418971Y-53024114D01*
X103609447Y-53024114D01*
X103704685Y-53071733D01*
X104561828Y-53643161D02*
X104466590Y-53690780D01*
X104276114Y-53690780D01*
X104180876Y-53643161D01*
X104133257Y-53547923D01*
X104133257Y-53166971D01*
X104180876Y-53071733D01*
X104276114Y-53024114D01*
X104466590Y-53024114D01*
X104561828Y-53071733D01*
X104609447Y-53166971D01*
X104609447Y-53262209D01*
X104133257Y-53357447D01*
X105038019Y-53690780D02*
X105038019Y-53024114D01*
X105038019Y-53214590D02*
X105085638Y-53119352D01*
X105133257Y-53071733D01*
X105228495Y-53024114D01*
X105323733Y-53024114D01*
X176530000Y-115824000D02*
X176530000Y-63500000D01*
X149224999Y-102742999D02*
X149225000Y-130683000D01*
D11*
X176530000Y-63500000D02*
X147320000Y-63500000D01*
D14*
X162332619Y-95339285D02*
X163285000Y-95339285D01*
X162808809Y-95815476D02*
X162808809Y-94863095D01*
X164475476Y-94565476D02*
X163880238Y-94565476D01*
X163820714Y-95160714D01*
X163880238Y-95101190D01*
X163999285Y-95041666D01*
X164296904Y-95041666D01*
X164415952Y-95101190D01*
X164475476Y-95160714D01*
X164535000Y-95279761D01*
X164535000Y-95577380D01*
X164475476Y-95696428D01*
X164415952Y-95755952D01*
X164296904Y-95815476D01*
X163999285Y-95815476D01*
X163880238Y-95755952D01*
X163820714Y-95696428D01*
X164892142Y-94565476D02*
X165308809Y-95815476D01*
X165725476Y-94565476D01*
X167808809Y-95815476D02*
X167392142Y-95220238D01*
X167094523Y-95815476D02*
X167094523Y-94565476D01*
X167570714Y-94565476D01*
X167689761Y-94625000D01*
X167749285Y-94684523D01*
X167808809Y-94803571D01*
X167808809Y-94982142D01*
X167749285Y-95101190D01*
X167689761Y-95160714D01*
X167570714Y-95220238D01*
X167094523Y-95220238D01*
X168820714Y-95755952D02*
X168701666Y-95815476D01*
X168463571Y-95815476D01*
X168344523Y-95755952D01*
X168285000Y-95636904D01*
X168285000Y-95160714D01*
X168344523Y-95041666D01*
X168463571Y-94982142D01*
X168701666Y-94982142D01*
X168820714Y-95041666D01*
X168880238Y-95160714D01*
X168880238Y-95279761D01*
X168285000Y-95398809D01*
X169951666Y-94982142D02*
X169951666Y-95994047D01*
X169892142Y-96113095D01*
X169832619Y-96172619D01*
X169713571Y-96232142D01*
X169535000Y-96232142D01*
X169415952Y-96172619D01*
X169951666Y-95755952D02*
X169832619Y-95815476D01*
X169594523Y-95815476D01*
X169475476Y-95755952D01*
X169415952Y-95696428D01*
X169356428Y-95577380D01*
X169356428Y-95220238D01*
X169415952Y-95101190D01*
X169475476Y-95041666D01*
X169594523Y-94982142D01*
X169832619Y-94982142D01*
X169951666Y-95041666D01*
X171082619Y-94982142D02*
X171082619Y-95815476D01*
X170546904Y-94982142D02*
X170546904Y-95636904D01*
X170606428Y-95755952D01*
X170725476Y-95815476D01*
X170904047Y-95815476D01*
X171023095Y-95755952D01*
X171082619Y-95696428D01*
X171856428Y-95815476D02*
X171737380Y-95755952D01*
X171677857Y-95636904D01*
X171677857Y-94565476D01*
X172868333Y-95815476D02*
X172868333Y-95160714D01*
X172808809Y-95041666D01*
X172689761Y-94982142D01*
X172451666Y-94982142D01*
X172332619Y-95041666D01*
X172868333Y-95755952D02*
X172749285Y-95815476D01*
X172451666Y-95815476D01*
X172332619Y-95755952D01*
X172273095Y-95636904D01*
X172273095Y-95517857D01*
X172332619Y-95398809D01*
X172451666Y-95339285D01*
X172749285Y-95339285D01*
X172868333Y-95279761D01*
X173285000Y-94982142D02*
X173761190Y-94982142D01*
X173463571Y-94565476D02*
X173463571Y-95636904D01*
X173523095Y-95755952D01*
X173642142Y-95815476D01*
X173761190Y-95815476D01*
X174356428Y-95815476D02*
X174237380Y-95755952D01*
X174177857Y-95696428D01*
X174118333Y-95577380D01*
X174118333Y-95220238D01*
X174177857Y-95101190D01*
X174237380Y-95041666D01*
X174356428Y-94982142D01*
X174535000Y-94982142D01*
X174654047Y-95041666D01*
X174713571Y-95101190D01*
X174773095Y-95220238D01*
X174773095Y-95577380D01*
X174713571Y-95696428D01*
X174654047Y-95755952D01*
X174535000Y-95815476D01*
X174356428Y-95815476D01*
X175308809Y-95815476D02*
X175308809Y-94982142D01*
X175308809Y-95220238D02*
X175368333Y-95101190D01*
X175427857Y-95041666D01*
X175546904Y-94982142D01*
X175665952Y-94982142D01*
X167140428Y-116699142D02*
X167140428Y-117532476D01*
X166842809Y-116222952D02*
X166545190Y-117115809D01*
X167319000Y-117115809D01*
X167795190Y-117413428D02*
X167854714Y-117472952D01*
X167795190Y-117532476D01*
X167735666Y-117472952D01*
X167795190Y-117413428D01*
X167795190Y-117532476D01*
X168271380Y-116282476D02*
X169104714Y-116282476D01*
X168569000Y-117532476D01*
X170354714Y-116282476D02*
X170771380Y-117532476D01*
X171188047Y-116282476D01*
X173152333Y-117532476D02*
X172557095Y-117532476D01*
X172557095Y-116282476D01*
X173569000Y-117532476D02*
X173569000Y-116282476D01*
X173866619Y-116282476D01*
X174045190Y-116342000D01*
X174164238Y-116461047D01*
X174223761Y-116580095D01*
X174283285Y-116818190D01*
X174283285Y-116996761D01*
X174223761Y-117234857D01*
X174164238Y-117353904D01*
X174045190Y-117472952D01*
X173866619Y-117532476D01*
X173569000Y-117532476D01*
X175057095Y-116282476D02*
X175295190Y-116282476D01*
X175414238Y-116342000D01*
X175533285Y-116461047D01*
X175592809Y-116699142D01*
X175592809Y-117115809D01*
X175533285Y-117353904D01*
X175414238Y-117472952D01*
X175295190Y-117532476D01*
X175057095Y-117532476D01*
X174938047Y-117472952D01*
X174819000Y-117353904D01*
X174759476Y-117115809D01*
X174759476Y-116699142D01*
X174819000Y-116461047D01*
X174938047Y-116342000D01*
X175057095Y-116282476D01*
D10*
X176530000Y-130556000D02*
X176530000Y-115951000D01*
X149225000Y-130683000D02*
X176530000Y-130556000D01*
X163449000Y-115951000D02*
X163449000Y-130556000D01*
D14*
X154591285Y-116282476D02*
X155365095Y-116282476D01*
X154948428Y-116758666D01*
X155127000Y-116758666D01*
X155246047Y-116818190D01*
X155305571Y-116877714D01*
X155365095Y-116996761D01*
X155365095Y-117294380D01*
X155305571Y-117413428D01*
X155246047Y-117472952D01*
X155127000Y-117532476D01*
X154769857Y-117532476D01*
X154650809Y-117472952D01*
X154591285Y-117413428D01*
X156436523Y-116282476D02*
X156198428Y-116282476D01*
X156079380Y-116342000D01*
X156019857Y-116401523D01*
X155900809Y-116580095D01*
X155841285Y-116818190D01*
X155841285Y-117294380D01*
X155900809Y-117413428D01*
X155960333Y-117472952D01*
X156079380Y-117532476D01*
X156317476Y-117532476D01*
X156436523Y-117472952D01*
X156496047Y-117413428D01*
X156555571Y-117294380D01*
X156555571Y-116996761D01*
X156496047Y-116877714D01*
X156436523Y-116818190D01*
X156317476Y-116758666D01*
X156079380Y-116758666D01*
X155960333Y-116818190D01*
X155900809Y-116877714D01*
X155841285Y-116996761D01*
X157865095Y-116282476D02*
X158281761Y-117532476D01*
X158698428Y-116282476D01*
X160662714Y-117532476D02*
X160067476Y-117532476D01*
X160067476Y-116282476D01*
X161079380Y-117532476D02*
X161079380Y-116282476D01*
X161377000Y-116282476D01*
X161555571Y-116342000D01*
X161674619Y-116461047D01*
X161734142Y-116580095D01*
X161793666Y-116818190D01*
X161793666Y-116996761D01*
X161734142Y-117234857D01*
X161674619Y-117353904D01*
X161555571Y-117472952D01*
X161377000Y-117532476D01*
X161079380Y-117532476D01*
X162567476Y-116282476D02*
X162805571Y-116282476D01*
X162924619Y-116342000D01*
X163043666Y-116461047D01*
X163103190Y-116699142D01*
X163103190Y-117115809D01*
X163043666Y-117353904D01*
X162924619Y-117472952D01*
X162805571Y-117532476D01*
X162567476Y-117532476D01*
X162448428Y-117472952D01*
X162329380Y-117353904D01*
X162269857Y-117115809D01*
X162269857Y-116699142D01*
X162329380Y-116461047D01*
X162448428Y-116342000D01*
X162567476Y-116282476D01*
D13*
X128659000Y-97349571D02*
X129587571Y-97349571D01*
X129087571Y-97921000D01*
X129301857Y-97921000D01*
X129444714Y-97992428D01*
X129516142Y-98063857D01*
X129587571Y-98206714D01*
X129587571Y-98563857D01*
X129516142Y-98706714D01*
X129444714Y-98778142D01*
X129301857Y-98849571D01*
X128873285Y-98849571D01*
X128730428Y-98778142D01*
X128659000Y-98706714D01*
X128730428Y-92031428D02*
X128801857Y-91960000D01*
X128944714Y-91888571D01*
X129301857Y-91888571D01*
X129444714Y-91960000D01*
X129516142Y-92031428D01*
X129587571Y-92174285D01*
X129587571Y-92317142D01*
X129516142Y-92531428D01*
X128659000Y-93388571D01*
X129587571Y-93388571D01*
X129587571Y-88435571D02*
X128730428Y-88435571D01*
X129159000Y-88435571D02*
X129159000Y-86935571D01*
X129016142Y-87149857D01*
X128873285Y-87292714D01*
X128730428Y-87364142D01*
D10*
X149352000Y-115824000D02*
X178562000Y-115824000D01*
D14*
X161356380Y-115024285D02*
X162308761Y-115024285D01*
X161832571Y-115500476D02*
X161832571Y-114548095D01*
X162784952Y-114250476D02*
X163558761Y-114250476D01*
X163142095Y-114726666D01*
X163320666Y-114726666D01*
X163439714Y-114786190D01*
X163499238Y-114845714D01*
X163558761Y-114964761D01*
X163558761Y-115262380D01*
X163499238Y-115381428D01*
X163439714Y-115440952D01*
X163320666Y-115500476D01*
X162963523Y-115500476D01*
X162844476Y-115440952D01*
X162784952Y-115381428D01*
X163975428Y-114250476D02*
X164808761Y-114250476D01*
X164273047Y-115500476D01*
X165106380Y-114250476D02*
X165523047Y-115500476D01*
X165939714Y-114250476D01*
X168023047Y-115500476D02*
X167606380Y-114905238D01*
X167308761Y-115500476D02*
X167308761Y-114250476D01*
X167784952Y-114250476D01*
X167904000Y-114310000D01*
X167963523Y-114369523D01*
X168023047Y-114488571D01*
X168023047Y-114667142D01*
X167963523Y-114786190D01*
X167904000Y-114845714D01*
X167784952Y-114905238D01*
X167308761Y-114905238D01*
X169034952Y-115440952D02*
X168915904Y-115500476D01*
X168677809Y-115500476D01*
X168558761Y-115440952D01*
X168499238Y-115321904D01*
X168499238Y-114845714D01*
X168558761Y-114726666D01*
X168677809Y-114667142D01*
X168915904Y-114667142D01*
X169034952Y-114726666D01*
X169094476Y-114845714D01*
X169094476Y-114964761D01*
X168499238Y-115083809D01*
X170165904Y-114667142D02*
X170165904Y-115679047D01*
X170106380Y-115798095D01*
X170046857Y-115857619D01*
X169927809Y-115917142D01*
X169749238Y-115917142D01*
X169630190Y-115857619D01*
X170165904Y-115440952D02*
X170046857Y-115500476D01*
X169808761Y-115500476D01*
X169689714Y-115440952D01*
X169630190Y-115381428D01*
X169570666Y-115262380D01*
X169570666Y-114905238D01*
X169630190Y-114786190D01*
X169689714Y-114726666D01*
X169808761Y-114667142D01*
X170046857Y-114667142D01*
X170165904Y-114726666D01*
X171296857Y-114667142D02*
X171296857Y-115500476D01*
X170761142Y-114667142D02*
X170761142Y-115321904D01*
X170820666Y-115440952D01*
X170939714Y-115500476D01*
X171118285Y-115500476D01*
X171237333Y-115440952D01*
X171296857Y-115381428D01*
X172070666Y-115500476D02*
X171951619Y-115440952D01*
X171892095Y-115321904D01*
X171892095Y-114250476D01*
X173082571Y-115500476D02*
X173082571Y-114845714D01*
X173023047Y-114726666D01*
X172904000Y-114667142D01*
X172665904Y-114667142D01*
X172546857Y-114726666D01*
X173082571Y-115440952D02*
X172963523Y-115500476D01*
X172665904Y-115500476D01*
X172546857Y-115440952D01*
X172487333Y-115321904D01*
X172487333Y-115202857D01*
X172546857Y-115083809D01*
X172665904Y-115024285D01*
X172963523Y-115024285D01*
X173082571Y-114964761D01*
X173499238Y-114667142D02*
X173975428Y-114667142D01*
X173677809Y-114250476D02*
X173677809Y-115321904D01*
X173737333Y-115440952D01*
X173856380Y-115500476D01*
X173975428Y-115500476D01*
X174570666Y-115500476D02*
X174451619Y-115440952D01*
X174392095Y-115381428D01*
X174332571Y-115262380D01*
X174332571Y-114905238D01*
X174392095Y-114786190D01*
X174451619Y-114726666D01*
X174570666Y-114667142D01*
X174749238Y-114667142D01*
X174868285Y-114726666D01*
X174927809Y-114786190D01*
X174987333Y-114905238D01*
X174987333Y-115262380D01*
X174927809Y-115381428D01*
X174868285Y-115440952D01*
X174749238Y-115500476D01*
X174570666Y-115500476D01*
X175523047Y-115500476D02*
X175523047Y-114667142D01*
X175523047Y-114905238D02*
X175582571Y-114786190D01*
X175642095Y-114726666D01*
X175761142Y-114667142D01*
X175880190Y-114667142D01*
D10*
X149288458Y-96701023D02*
X176530000Y-96774000D01*
D14*
X86202452Y-74467190D02*
X86261976Y-74288619D01*
X86261976Y-73991000D01*
X86202452Y-73871952D01*
X86142928Y-73812428D01*
X86023880Y-73752904D01*
X85904833Y-73752904D01*
X85785785Y-73812428D01*
X85726261Y-73871952D01*
X85666738Y-73991000D01*
X85607214Y-74229095D01*
X85547690Y-74348142D01*
X85488166Y-74407666D01*
X85369119Y-74467190D01*
X85250071Y-74467190D01*
X85131023Y-74407666D01*
X85071500Y-74348142D01*
X85011976Y-74229095D01*
X85011976Y-73931476D01*
X85071500Y-73752904D01*
X86261976Y-73217190D02*
X85011976Y-73217190D01*
X85011976Y-72919571D01*
X85071500Y-72741000D01*
X85190547Y-72621952D01*
X85309595Y-72562428D01*
X85547690Y-72502904D01*
X85726261Y-72502904D01*
X85964357Y-72562428D01*
X86083404Y-72621952D01*
X86202452Y-72741000D01*
X86261976Y-72919571D01*
X86261976Y-73217190D01*
X86142928Y-70300523D02*
X86202452Y-70360047D01*
X86261976Y-70538619D01*
X86261976Y-70657666D01*
X86202452Y-70836238D01*
X86083404Y-70955285D01*
X85964357Y-71014809D01*
X85726261Y-71074333D01*
X85547690Y-71074333D01*
X85309595Y-71014809D01*
X85190547Y-70955285D01*
X85071500Y-70836238D01*
X85011976Y-70657666D01*
X85011976Y-70538619D01*
X85071500Y-70360047D01*
X85131023Y-70300523D01*
X86261976Y-69229095D02*
X85607214Y-69229095D01*
X85488166Y-69288619D01*
X85428642Y-69407666D01*
X85428642Y-69645761D01*
X85488166Y-69764809D01*
X86202452Y-69229095D02*
X86261976Y-69348142D01*
X86261976Y-69645761D01*
X86202452Y-69764809D01*
X86083404Y-69824333D01*
X85964357Y-69824333D01*
X85845309Y-69764809D01*
X85785785Y-69645761D01*
X85785785Y-69348142D01*
X85726261Y-69229095D01*
X86261976Y-68633857D02*
X85428642Y-68633857D01*
X85666738Y-68633857D02*
X85547690Y-68574333D01*
X85488166Y-68514809D01*
X85428642Y-68395761D01*
X85428642Y-68276714D01*
X86261976Y-67324333D02*
X85011976Y-67324333D01*
X86202452Y-67324333D02*
X86261976Y-67443380D01*
X86261976Y-67681476D01*
X86202452Y-67800523D01*
X86142928Y-67860047D01*
X86023880Y-67919571D01*
X85666738Y-67919571D01*
X85547690Y-67860047D01*
X85488166Y-67800523D01*
X85428642Y-67681476D01*
X85428642Y-67443380D01*
X85488166Y-67324333D01*
X85167476Y-65289333D02*
X85167476Y-64515523D01*
X85643666Y-64932190D01*
X85643666Y-64753619D01*
X85703190Y-64634571D01*
X85762714Y-64575047D01*
X85881761Y-64515523D01*
X86179380Y-64515523D01*
X86298428Y-64575047D01*
X86357952Y-64634571D01*
X86417476Y-64753619D01*
X86417476Y-65110761D01*
X86357952Y-65229809D01*
X86298428Y-65289333D01*
X86298428Y-63979809D02*
X86357952Y-63920285D01*
X86417476Y-63979809D01*
X86357952Y-64039333D01*
X86298428Y-63979809D01*
X86417476Y-63979809D01*
X85167476Y-63503619D02*
X85167476Y-62729809D01*
X85643666Y-63146476D01*
X85643666Y-62967904D01*
X85703190Y-62848857D01*
X85762714Y-62789333D01*
X85881761Y-62729809D01*
X86179380Y-62729809D01*
X86298428Y-62789333D01*
X86357952Y-62848857D01*
X86417476Y-62967904D01*
X86417476Y-63325047D01*
X86357952Y-63444095D01*
X86298428Y-63503619D01*
X85167476Y-61420285D02*
X86417476Y-61003619D01*
X85167476Y-60586952D01*
X86417476Y-58622666D02*
X86417476Y-59217904D01*
X85167476Y-59217904D01*
X86417476Y-58206000D02*
X85167476Y-58206000D01*
X85167476Y-57908380D01*
X85227000Y-57729809D01*
X85346047Y-57610761D01*
X85465095Y-57551238D01*
X85703190Y-57491714D01*
X85881761Y-57491714D01*
X86119857Y-57551238D01*
X86238904Y-57610761D01*
X86357952Y-57729809D01*
X86417476Y-57908380D01*
X86417476Y-58206000D01*
X85167476Y-56717904D02*
X85167476Y-56479809D01*
X85227000Y-56360761D01*
X85346047Y-56241714D01*
X85584142Y-56182190D01*
X86000809Y-56182190D01*
X86238904Y-56241714D01*
X86357952Y-56360761D01*
X86417476Y-56479809D01*
X86417476Y-56717904D01*
X86357952Y-56836952D01*
X86238904Y-56956000D01*
X86000809Y-57015523D01*
X85584142Y-57015523D01*
X85346047Y-56956000D01*
X85227000Y-56836952D01*
X85167476Y-56717904D01*
D10*
X84518500Y-66675000D02*
X84518500Y-58039000D01*
X101663500Y-66738500D02*
X84518500Y-66675000D01*
D15*
%TO.C,U5*%
X107380000Y-73863200D02*
X107380000Y-77723200D01*
X107380000Y-77723200D02*
X108025000Y-77723200D01*
X107380000Y-73863200D02*
X107380000Y-70003200D01*
X107380000Y-70003200D02*
X108025000Y-70003200D01*
X126300000Y-73863200D02*
X126300000Y-77723200D01*
X126300000Y-77723200D02*
X125655000Y-77723200D01*
X126300000Y-73863200D02*
X126300000Y-70003200D01*
X126300000Y-70003200D02*
X125655000Y-70003200D01*
X125655000Y-70003200D02*
X125655000Y-68163200D01*
%TO.C,TP2*%
X104461000Y-87563000D02*
X107121000Y-87563000D01*
X104461000Y-87503000D02*
X104461000Y-87563000D01*
X107121000Y-87503000D02*
X107121000Y-87563000D01*
X104461000Y-87503000D02*
X107121000Y-87503000D01*
X104461000Y-86233000D02*
X104461000Y-84903000D01*
X104461000Y-84903000D02*
X105791000Y-84903000D01*
%TO.C,J8*%
X85541100Y-91453900D02*
X85941100Y-91453900D01*
X88461100Y-91453900D02*
X94241100Y-91453900D01*
X96761100Y-91453900D02*
X99461100Y-91453900D01*
X88461100Y-77633900D02*
X94241100Y-77633900D01*
X85541100Y-77633900D02*
X85941100Y-77633900D01*
X96761100Y-77633900D02*
X99461100Y-77633900D01*
X99461100Y-77633900D02*
X99461100Y-91453900D01*
X85541100Y-91453900D02*
X85541100Y-77633900D01*
X85541100Y-79043900D02*
X84541100Y-79043900D01*
X85541100Y-90043900D02*
X84541100Y-90043900D01*
X84041100Y-89543900D02*
X84041100Y-79543900D01*
X84641100Y-90043900D02*
X84841100Y-89243900D01*
X84841100Y-89243900D02*
X85141100Y-87543900D01*
X85141100Y-87543900D02*
X85241100Y-86743900D01*
X85241100Y-86743900D02*
X85341100Y-85443900D01*
X85341100Y-85443900D02*
X85341100Y-83643900D01*
X85341100Y-83643900D02*
X85241100Y-82343900D01*
X85241100Y-82343900D02*
X85041100Y-80843900D01*
X85041100Y-80843900D02*
X84741100Y-79543900D01*
X84741100Y-79543900D02*
X84641100Y-79043900D01*
X84541100Y-79043900D02*
G75*
G03*
X84041100Y-79543900I0J-500000D01*
G01*
X84041100Y-89543900D02*
G75*
G03*
X84541100Y-90043900I500000J0D01*
G01*
%TO.C,J11*%
X102683000Y-97349000D02*
X102683000Y-100009000D01*
X110363000Y-97349000D02*
X102683000Y-97349000D01*
X110363000Y-100009000D02*
X102683000Y-100009000D01*
X110363000Y-97349000D02*
X110363000Y-100009000D01*
X111633000Y-97349000D02*
X112963000Y-97349000D01*
X112963000Y-97349000D02*
X112963000Y-98679000D01*
%TO.C,J2*%
X143323000Y-112201000D02*
X145983000Y-112201000D01*
X143323000Y-109601000D02*
X143323000Y-112201000D01*
X145983000Y-109601000D02*
X145983000Y-112201000D01*
X143323000Y-109601000D02*
X145983000Y-109601000D01*
X143323000Y-108331000D02*
X143323000Y-107001000D01*
X143323000Y-107001000D02*
X144653000Y-107001000D01*
%TO.C,C1*%
X156344252Y-119709000D02*
X155821748Y-119709000D01*
X156344252Y-118289000D02*
X155821748Y-118289000D01*
%TO.C,C26*%
X155358000Y-65782436D02*
X155358000Y-66986564D01*
X158078000Y-65782436D02*
X158078000Y-66986564D01*
%TO.C,C22*%
X145267000Y-80296936D02*
X145267000Y-81501064D01*
X147087000Y-80296936D02*
X147087000Y-81501064D01*
%TO.C,C16*%
X167099064Y-108945000D02*
X165894936Y-108945000D01*
X167099064Y-110765000D02*
X165894936Y-110765000D01*
%TO.C,C15*%
X166591064Y-106024000D02*
X165386936Y-106024000D01*
X166591064Y-107844000D02*
X165386936Y-107844000D01*
D16*
%TO.C,G\u002A\u002A\u002A*%
G36*
X158392736Y-134030442D02*
G01*
X158424531Y-134081919D01*
X158473171Y-134164171D01*
X158537005Y-134274305D01*
X158614384Y-134409429D01*
X158703658Y-134566650D01*
X158803177Y-134743075D01*
X158911290Y-134935813D01*
X159026348Y-135141971D01*
X159126134Y-135321554D01*
X159245867Y-135537413D01*
X159359922Y-135742941D01*
X159466648Y-135935168D01*
X159564393Y-136111123D01*
X159651506Y-136267837D01*
X159726335Y-136402340D01*
X159787229Y-136511662D01*
X159832537Y-136592833D01*
X159860608Y-136642885D01*
X159869590Y-136658597D01*
X159882257Y-136662807D01*
X159911807Y-136657857D01*
X159961304Y-136642563D01*
X160033814Y-136615743D01*
X160132402Y-136576213D01*
X160260135Y-136522790D01*
X160420078Y-136454291D01*
X160590739Y-136380237D01*
X160751035Y-136310880D01*
X160899205Y-136247713D01*
X161030935Y-136192504D01*
X161141910Y-136147022D01*
X161227814Y-136113034D01*
X161284331Y-136092306D01*
X161307147Y-136086608D01*
X161307294Y-136086714D01*
X161307236Y-136108926D01*
X161303381Y-136169765D01*
X161295987Y-136266310D01*
X161285314Y-136395644D01*
X161271620Y-136554848D01*
X161255162Y-136741002D01*
X161236200Y-136951189D01*
X161214992Y-137182490D01*
X161191797Y-137431985D01*
X161166873Y-137696756D01*
X161140479Y-137973885D01*
X161136060Y-138019973D01*
X161109411Y-138298730D01*
X161084103Y-138565525D01*
X161060399Y-138817445D01*
X161038566Y-139051582D01*
X161018869Y-139265025D01*
X161001571Y-139454863D01*
X160986937Y-139618187D01*
X160975234Y-139752087D01*
X160966725Y-139853651D01*
X160961675Y-139919970D01*
X160960350Y-139948134D01*
X160960508Y-139948912D01*
X160977240Y-139937040D01*
X161022336Y-139899779D01*
X161093023Y-139839543D01*
X161186530Y-139758745D01*
X161300084Y-139659801D01*
X161430914Y-139545124D01*
X161576247Y-139417127D01*
X161733313Y-139278225D01*
X161872224Y-139154941D01*
X162037319Y-139008442D01*
X162193251Y-138870569D01*
X162337214Y-138743771D01*
X162466399Y-138630495D01*
X162578001Y-138533191D01*
X162669213Y-138454306D01*
X162737228Y-138396291D01*
X162779239Y-138361593D01*
X162792347Y-138352255D01*
X162798720Y-138356928D01*
X162808511Y-138373260D01*
X162823077Y-138404721D01*
X162843777Y-138454780D01*
X162871968Y-138526908D01*
X162909007Y-138624574D01*
X162956253Y-138751248D01*
X163015061Y-138910400D01*
X163082968Y-139095088D01*
X163144971Y-139263968D01*
X162967118Y-139469143D01*
X162737651Y-139740579D01*
X162496969Y-140037765D01*
X162248449Y-140355874D01*
X161995465Y-140690075D01*
X161741395Y-141035541D01*
X161489614Y-141387443D01*
X161243499Y-141740951D01*
X161006424Y-142091238D01*
X160781768Y-142433473D01*
X160572904Y-142762829D01*
X160383210Y-143074477D01*
X160216061Y-143363588D01*
X160115098Y-143548428D01*
X160001754Y-143761928D01*
X159932906Y-143661860D01*
X159801659Y-143456829D01*
X159665660Y-143217876D01*
X159528181Y-142952043D01*
X159392492Y-142666372D01*
X159261862Y-142367906D01*
X159139563Y-142063687D01*
X159028865Y-141760756D01*
X158974257Y-141597695D01*
X158875786Y-141276682D01*
X158777221Y-140924028D01*
X158681049Y-140549757D01*
X158589753Y-140163890D01*
X158505819Y-139776449D01*
X158440519Y-139444834D01*
X158381384Y-139128620D01*
X158273937Y-139663979D01*
X158155198Y-140221487D01*
X158030114Y-140740758D01*
X157897559Y-141224969D01*
X157756409Y-141677299D01*
X157605537Y-142100924D01*
X157443819Y-142499022D01*
X157270129Y-142874770D01*
X157083343Y-143231346D01*
X156900209Y-143543186D01*
X156850346Y-143622411D01*
X156807723Y-143687647D01*
X156777507Y-143731136D01*
X156765777Y-143745032D01*
X156750286Y-143731985D01*
X156721449Y-143689099D01*
X156684172Y-143624076D01*
X156662355Y-143582655D01*
X156541046Y-143356624D01*
X156395215Y-143103424D01*
X156227824Y-142827301D01*
X156041836Y-142532502D01*
X155840215Y-142223272D01*
X155625924Y-141903859D01*
X155401926Y-141578507D01*
X155171184Y-141251463D01*
X154936662Y-140926975D01*
X154701322Y-140609286D01*
X154468129Y-140302645D01*
X154240044Y-140011297D01*
X154020032Y-139739488D01*
X153811055Y-139491464D01*
X153791754Y-139469143D01*
X153613901Y-139263968D01*
X153675903Y-139095088D01*
X153746979Y-138901798D01*
X153805197Y-138744289D01*
X153851913Y-138619091D01*
X153888482Y-138522738D01*
X153916260Y-138451761D01*
X153936604Y-138402694D01*
X153950867Y-138372067D01*
X153960407Y-138356415D01*
X153966302Y-138352255D01*
X153984568Y-138365740D01*
X154031179Y-138404561D01*
X154103328Y-138466273D01*
X154198208Y-138548428D01*
X154313012Y-138648578D01*
X154444934Y-138764277D01*
X154591168Y-138893077D01*
X154748906Y-139032532D01*
X154886658Y-139154709D01*
X155051500Y-139300854D01*
X155206926Y-139438132D01*
X155350166Y-139564129D01*
X155478447Y-139676432D01*
X155588997Y-139772627D01*
X155679044Y-139850303D01*
X155745817Y-139907044D01*
X155786543Y-139940438D01*
X155798596Y-139948680D01*
X155797878Y-139927138D01*
X155793394Y-139866958D01*
X155785408Y-139771052D01*
X155774186Y-139642328D01*
X155759994Y-139483696D01*
X155743096Y-139298067D01*
X155723757Y-139088349D01*
X155702243Y-138857452D01*
X155678819Y-138608287D01*
X155653750Y-138343763D01*
X155650510Y-138309830D01*
X157621064Y-138309830D01*
X157628690Y-138312056D01*
X157659359Y-138289470D01*
X157706685Y-138246862D01*
X157712809Y-138240989D01*
X157786642Y-138179529D01*
X157878389Y-138116530D01*
X157962016Y-138068905D01*
X158148297Y-137998170D01*
X158337392Y-137967969D01*
X158525177Y-137977674D01*
X158707522Y-138026659D01*
X158880302Y-138114295D01*
X159030176Y-138231234D01*
X159083589Y-138278820D01*
X159121505Y-138307926D01*
X159137665Y-138313923D01*
X159137332Y-138310513D01*
X159129281Y-138285411D01*
X159109937Y-138224030D01*
X159080416Y-138129946D01*
X159041837Y-138006732D01*
X158995317Y-137857964D01*
X158941976Y-137687217D01*
X158882929Y-137498066D01*
X158819296Y-137294086D01*
X158755532Y-137089560D01*
X158688854Y-136875746D01*
X158625902Y-136674115D01*
X158567765Y-136488137D01*
X158515530Y-136321282D01*
X158470286Y-136177022D01*
X158433123Y-136058827D01*
X158405127Y-135970169D01*
X158387389Y-135914517D01*
X158381009Y-135895351D01*
X158374308Y-135913873D01*
X158356299Y-135968826D01*
X158328066Y-136056779D01*
X158290694Y-136174305D01*
X158245267Y-136317972D01*
X158192870Y-136484353D01*
X158134587Y-136670016D01*
X158071502Y-136871534D01*
X158004849Y-137084998D01*
X157937722Y-137300156D01*
X157874107Y-137503870D01*
X157815123Y-137692575D01*
X157761886Y-137862707D01*
X157715514Y-138010699D01*
X157677122Y-138132988D01*
X157647829Y-138226009D01*
X157628751Y-138286196D01*
X157621064Y-138309830D01*
X155650510Y-138309830D01*
X155627302Y-138066790D01*
X155622812Y-138019973D01*
X155596204Y-137741103D01*
X155571029Y-137474113D01*
X155547544Y-137221920D01*
X155526007Y-136987444D01*
X155506678Y-136773604D01*
X155489813Y-136583320D01*
X155475672Y-136419509D01*
X155464512Y-136285092D01*
X155456592Y-136182987D01*
X155452170Y-136116113D01*
X155451504Y-136087390D01*
X155451768Y-136086524D01*
X155473250Y-136091546D01*
X155528591Y-136111651D01*
X155613464Y-136145070D01*
X155723538Y-136190033D01*
X155854484Y-136244772D01*
X156001974Y-136307517D01*
X156161677Y-136376501D01*
X156164978Y-136377937D01*
X156324717Y-136447375D01*
X156472036Y-136511254D01*
X156602642Y-136567727D01*
X156712243Y-136614945D01*
X156796547Y-136651057D01*
X156851262Y-136674216D01*
X156872095Y-136682572D01*
X156872137Y-136682576D01*
X156883160Y-136664787D01*
X156912779Y-136613327D01*
X156959392Y-136531057D01*
X157021401Y-136420837D01*
X157097205Y-136285527D01*
X157185204Y-136127987D01*
X157283798Y-135951080D01*
X157391386Y-135757663D01*
X157506370Y-135550599D01*
X157618939Y-135347564D01*
X157739619Y-135130243D01*
X157854736Y-134923914D01*
X157962660Y-134731442D01*
X158061759Y-134555690D01*
X158150400Y-134399524D01*
X158226952Y-134265808D01*
X158289783Y-134157405D01*
X158337261Y-134077181D01*
X158367755Y-134028000D01*
X158379436Y-134012631D01*
X158392736Y-134030442D01*
G37*
X158392736Y-134030442D02*
X158424531Y-134081919D01*
X158473171Y-134164171D01*
X158537005Y-134274305D01*
X158614384Y-134409429D01*
X158703658Y-134566650D01*
X158803177Y-134743075D01*
X158911290Y-134935813D01*
X159026348Y-135141971D01*
X159126134Y-135321554D01*
X159245867Y-135537413D01*
X159359922Y-135742941D01*
X159466648Y-135935168D01*
X159564393Y-136111123D01*
X159651506Y-136267837D01*
X159726335Y-136402340D01*
X159787229Y-136511662D01*
X159832537Y-136592833D01*
X159860608Y-136642885D01*
X159869590Y-136658597D01*
X159882257Y-136662807D01*
X159911807Y-136657857D01*
X159961304Y-136642563D01*
X160033814Y-136615743D01*
X160132402Y-136576213D01*
X160260135Y-136522790D01*
X160420078Y-136454291D01*
X160590739Y-136380237D01*
X160751035Y-136310880D01*
X160899205Y-136247713D01*
X161030935Y-136192504D01*
X161141910Y-136147022D01*
X161227814Y-136113034D01*
X161284331Y-136092306D01*
X161307147Y-136086608D01*
X161307294Y-136086714D01*
X161307236Y-136108926D01*
X161303381Y-136169765D01*
X161295987Y-136266310D01*
X161285314Y-136395644D01*
X161271620Y-136554848D01*
X161255162Y-136741002D01*
X161236200Y-136951189D01*
X161214992Y-137182490D01*
X161191797Y-137431985D01*
X161166873Y-137696756D01*
X161140479Y-137973885D01*
X161136060Y-138019973D01*
X161109411Y-138298730D01*
X161084103Y-138565525D01*
X161060399Y-138817445D01*
X161038566Y-139051582D01*
X161018869Y-139265025D01*
X161001571Y-139454863D01*
X160986937Y-139618187D01*
X160975234Y-139752087D01*
X160966725Y-139853651D01*
X160961675Y-139919970D01*
X160960350Y-139948134D01*
X160960508Y-139948912D01*
X160977240Y-139937040D01*
X161022336Y-139899779D01*
X161093023Y-139839543D01*
X161186530Y-139758745D01*
X161300084Y-139659801D01*
X161430914Y-139545124D01*
X161576247Y-139417127D01*
X161733313Y-139278225D01*
X161872224Y-139154941D01*
X162037319Y-139008442D01*
X162193251Y-138870569D01*
X162337214Y-138743771D01*
X162466399Y-138630495D01*
X162578001Y-138533191D01*
X162669213Y-138454306D01*
X162737228Y-138396291D01*
X162779239Y-138361593D01*
X162792347Y-138352255D01*
X162798720Y-138356928D01*
X162808511Y-138373260D01*
X162823077Y-138404721D01*
X162843777Y-138454780D01*
X162871968Y-138526908D01*
X162909007Y-138624574D01*
X162956253Y-138751248D01*
X163015061Y-138910400D01*
X163082968Y-139095088D01*
X163144971Y-139263968D01*
X162967118Y-139469143D01*
X162737651Y-139740579D01*
X162496969Y-140037765D01*
X162248449Y-140355874D01*
X161995465Y-140690075D01*
X161741395Y-141035541D01*
X161489614Y-141387443D01*
X161243499Y-141740951D01*
X161006424Y-142091238D01*
X160781768Y-142433473D01*
X160572904Y-142762829D01*
X160383210Y-143074477D01*
X160216061Y-143363588D01*
X160115098Y-143548428D01*
X160001754Y-143761928D01*
X159932906Y-143661860D01*
X159801659Y-143456829D01*
X159665660Y-143217876D01*
X159528181Y-142952043D01*
X159392492Y-142666372D01*
X159261862Y-142367906D01*
X159139563Y-142063687D01*
X159028865Y-141760756D01*
X158974257Y-141597695D01*
X158875786Y-141276682D01*
X158777221Y-140924028D01*
X158681049Y-140549757D01*
X158589753Y-140163890D01*
X158505819Y-139776449D01*
X158440519Y-139444834D01*
X158381384Y-139128620D01*
X158273937Y-139663979D01*
X158155198Y-140221487D01*
X158030114Y-140740758D01*
X157897559Y-141224969D01*
X157756409Y-141677299D01*
X157605537Y-142100924D01*
X157443819Y-142499022D01*
X157270129Y-142874770D01*
X157083343Y-143231346D01*
X156900209Y-143543186D01*
X156850346Y-143622411D01*
X156807723Y-143687647D01*
X156777507Y-143731136D01*
X156765777Y-143745032D01*
X156750286Y-143731985D01*
X156721449Y-143689099D01*
X156684172Y-143624076D01*
X156662355Y-143582655D01*
X156541046Y-143356624D01*
X156395215Y-143103424D01*
X156227824Y-142827301D01*
X156041836Y-142532502D01*
X155840215Y-142223272D01*
X155625924Y-141903859D01*
X155401926Y-141578507D01*
X155171184Y-141251463D01*
X154936662Y-140926975D01*
X154701322Y-140609286D01*
X154468129Y-140302645D01*
X154240044Y-140011297D01*
X154020032Y-139739488D01*
X153811055Y-139491464D01*
X153791754Y-139469143D01*
X153613901Y-139263968D01*
X153675903Y-139095088D01*
X153746979Y-138901798D01*
X153805197Y-138744289D01*
X153851913Y-138619091D01*
X153888482Y-138522738D01*
X153916260Y-138451761D01*
X153936604Y-138402694D01*
X153950867Y-138372067D01*
X153960407Y-138356415D01*
X153966302Y-138352255D01*
X153984568Y-138365740D01*
X154031179Y-138404561D01*
X154103328Y-138466273D01*
X154198208Y-138548428D01*
X154313012Y-138648578D01*
X154444934Y-138764277D01*
X154591168Y-138893077D01*
X154748906Y-139032532D01*
X154886658Y-139154709D01*
X155051500Y-139300854D01*
X155206926Y-139438132D01*
X155350166Y-139564129D01*
X155478447Y-139676432D01*
X155588997Y-139772627D01*
X155679044Y-139850303D01*
X155745817Y-139907044D01*
X155786543Y-139940438D01*
X155798596Y-139948680D01*
X155797878Y-139927138D01*
X155793394Y-139866958D01*
X155785408Y-139771052D01*
X155774186Y-139642328D01*
X155759994Y-139483696D01*
X155743096Y-139298067D01*
X155723757Y-139088349D01*
X155702243Y-138857452D01*
X155678819Y-138608287D01*
X155653750Y-138343763D01*
X155650510Y-138309830D01*
X157621064Y-138309830D01*
X157628690Y-138312056D01*
X157659359Y-138289470D01*
X157706685Y-138246862D01*
X157712809Y-138240989D01*
X157786642Y-138179529D01*
X157878389Y-138116530D01*
X157962016Y-138068905D01*
X158148297Y-137998170D01*
X158337392Y-137967969D01*
X158525177Y-137977674D01*
X158707522Y-138026659D01*
X158880302Y-138114295D01*
X159030176Y-138231234D01*
X159083589Y-138278820D01*
X159121505Y-138307926D01*
X159137665Y-138313923D01*
X159137332Y-138310513D01*
X159129281Y-138285411D01*
X159109937Y-138224030D01*
X159080416Y-138129946D01*
X159041837Y-138006732D01*
X158995317Y-137857964D01*
X158941976Y-137687217D01*
X158882929Y-137498066D01*
X158819296Y-137294086D01*
X158755532Y-137089560D01*
X158688854Y-136875746D01*
X158625902Y-136674115D01*
X158567765Y-136488137D01*
X158515530Y-136321282D01*
X158470286Y-136177022D01*
X158433123Y-136058827D01*
X158405127Y-135970169D01*
X158387389Y-135914517D01*
X158381009Y-135895351D01*
X158374308Y-135913873D01*
X158356299Y-135968826D01*
X158328066Y-136056779D01*
X158290694Y-136174305D01*
X158245267Y-136317972D01*
X158192870Y-136484353D01*
X158134587Y-136670016D01*
X158071502Y-136871534D01*
X158004849Y-137084998D01*
X157937722Y-137300156D01*
X157874107Y-137503870D01*
X157815123Y-137692575D01*
X157761886Y-137862707D01*
X157715514Y-138010699D01*
X157677122Y-138132988D01*
X157647829Y-138226009D01*
X157628751Y-138286196D01*
X157621064Y-138309830D01*
X155650510Y-138309830D01*
X155627302Y-138066790D01*
X155622812Y-138019973D01*
X155596204Y-137741103D01*
X155571029Y-137474113D01*
X155547544Y-137221920D01*
X155526007Y-136987444D01*
X155506678Y-136773604D01*
X155489813Y-136583320D01*
X155475672Y-136419509D01*
X155464512Y-136285092D01*
X155456592Y-136182987D01*
X155452170Y-136116113D01*
X155451504Y-136087390D01*
X155451768Y-136086524D01*
X155473250Y-136091546D01*
X155528591Y-136111651D01*
X155613464Y-136145070D01*
X155723538Y-136190033D01*
X155854484Y-136244772D01*
X156001974Y-136307517D01*
X156161677Y-136376501D01*
X156164978Y-136377937D01*
X156324717Y-136447375D01*
X156472036Y-136511254D01*
X156602642Y-136567727D01*
X156712243Y-136614945D01*
X156796547Y-136651057D01*
X156851262Y-136674216D01*
X156872095Y-136682572D01*
X156872137Y-136682576D01*
X156883160Y-136664787D01*
X156912779Y-136613327D01*
X156959392Y-136531057D01*
X157021401Y-136420837D01*
X157097205Y-136285527D01*
X157185204Y-136127987D01*
X157283798Y-135951080D01*
X157391386Y-135757663D01*
X157506370Y-135550599D01*
X157618939Y-135347564D01*
X157739619Y-135130243D01*
X157854736Y-134923914D01*
X157962660Y-134731442D01*
X158061759Y-134555690D01*
X158150400Y-134399524D01*
X158226952Y-134265808D01*
X158289783Y-134157405D01*
X158337261Y-134077181D01*
X158367755Y-134028000D01*
X158379436Y-134012631D01*
X158392736Y-134030442D01*
G36*
X151173062Y-139117241D02*
G01*
X151231055Y-139127529D01*
X151321987Y-139144415D01*
X151441855Y-139167135D01*
X151586656Y-139194924D01*
X151752388Y-139227019D01*
X151935049Y-139262656D01*
X152130635Y-139301072D01*
X152133991Y-139301733D01*
X152375674Y-139349689D01*
X152579012Y-139390803D01*
X152746728Y-139425693D01*
X152881547Y-139454979D01*
X152986192Y-139479281D01*
X153063389Y-139499218D01*
X153115860Y-139515409D01*
X153146329Y-139528474D01*
X153153735Y-139533630D01*
X153191139Y-139573887D01*
X153248581Y-139644155D01*
X153322723Y-139739860D01*
X153410230Y-139856429D01*
X153507765Y-139989288D01*
X153611992Y-140133865D01*
X153719574Y-140285585D01*
X153827176Y-140439876D01*
X153931461Y-140592164D01*
X153997018Y-140689603D01*
X154306738Y-141166774D01*
X154610186Y-141659964D01*
X154903912Y-142162785D01*
X155184468Y-142668848D01*
X155448405Y-143171763D01*
X155692273Y-143665142D01*
X155912625Y-144142595D01*
X156103966Y-144592683D01*
X156152206Y-144715689D01*
X156204641Y-144856073D01*
X156258811Y-145006573D01*
X156312254Y-145159924D01*
X156362510Y-145308863D01*
X156407119Y-145446127D01*
X156443619Y-145564453D01*
X156469549Y-145656578D01*
X156480683Y-145704645D01*
X156493454Y-145754560D01*
X156506871Y-145781041D01*
X156509739Y-145782329D01*
X156529767Y-145767213D01*
X156572709Y-145724948D01*
X156634412Y-145660162D01*
X156710719Y-145577481D01*
X156797477Y-145481532D01*
X156890531Y-145376942D01*
X156985726Y-145268337D01*
X157078907Y-145160344D01*
X157165920Y-145057589D01*
X157229460Y-144980844D01*
X157424053Y-144735214D01*
X157603248Y-144492228D01*
X157773415Y-144242365D01*
X157940920Y-143976104D01*
X158112131Y-143683925D01*
X158191483Y-143542533D01*
X158250571Y-143438418D01*
X158303515Y-143349671D01*
X158346867Y-143281707D01*
X158377180Y-143239940D01*
X158390771Y-143229468D01*
X158406568Y-143253637D01*
X158437509Y-143306727D01*
X158479085Y-143380833D01*
X158525491Y-143465649D01*
X158756160Y-143873177D01*
X158990570Y-144248356D01*
X159234893Y-144600505D01*
X159495303Y-144938946D01*
X159527694Y-144978796D01*
X159607003Y-145074332D01*
X159695789Y-145178792D01*
X159789910Y-145287558D01*
X159885221Y-145396016D01*
X159977577Y-145499550D01*
X160062834Y-145593544D01*
X160136849Y-145673381D01*
X160195476Y-145734446D01*
X160234572Y-145772124D01*
X160249133Y-145782329D01*
X160261867Y-145764054D01*
X160275306Y-145718730D01*
X160278189Y-145704645D01*
X160294429Y-145637323D01*
X160323111Y-145538273D01*
X160361774Y-145414758D01*
X160407956Y-145274042D01*
X160459198Y-145123387D01*
X160513039Y-144970058D01*
X160567018Y-144821316D01*
X160618674Y-144684426D01*
X160654906Y-144592683D01*
X160844799Y-144146057D01*
X161061238Y-143676865D01*
X161300750Y-143191540D01*
X161559861Y-142696520D01*
X161835099Y-142198240D01*
X162122988Y-141703137D01*
X162420057Y-141217645D01*
X162722831Y-140748201D01*
X162759782Y-140692652D01*
X162859903Y-140544408D01*
X162965573Y-140391066D01*
X163073465Y-140237193D01*
X163180247Y-140087356D01*
X163282590Y-139946122D01*
X163377164Y-139818058D01*
X163460639Y-139707731D01*
X163529687Y-139619707D01*
X163580976Y-139558554D01*
X163604225Y-139534455D01*
X163626277Y-139522553D01*
X163670920Y-139507423D01*
X163740698Y-139488487D01*
X163838156Y-139465167D01*
X163965839Y-139436886D01*
X164126293Y-139403066D01*
X164322062Y-139363129D01*
X164555690Y-139316498D01*
X164623970Y-139303005D01*
X164819830Y-139264483D01*
X165002834Y-139228711D01*
X165168980Y-139196456D01*
X165314267Y-139168484D01*
X165434697Y-139145560D01*
X165526267Y-139128452D01*
X165584978Y-139117925D01*
X165606828Y-139114745D01*
X165606862Y-139114762D01*
X165602630Y-139134856D01*
X165589094Y-139191249D01*
X165567302Y-139279801D01*
X165538307Y-139396372D01*
X165503157Y-139536825D01*
X165462902Y-139697019D01*
X165418594Y-139872816D01*
X165371281Y-140060077D01*
X165322015Y-140254661D01*
X165271844Y-140452432D01*
X165221820Y-140649248D01*
X165172992Y-140840972D01*
X165126411Y-141023463D01*
X165083126Y-141192584D01*
X165044187Y-141344194D01*
X165010645Y-141474155D01*
X164983550Y-141578327D01*
X164963952Y-141652573D01*
X164952900Y-141692751D01*
X164952423Y-141694348D01*
X164957491Y-141710246D01*
X164982391Y-141734408D01*
X165030351Y-141768955D01*
X165104600Y-141816004D01*
X165208365Y-141877675D01*
X165344877Y-141956087D01*
X165391472Y-141982498D01*
X165515127Y-142053048D01*
X165625764Y-142117365D01*
X165718469Y-142172493D01*
X165788325Y-142215476D01*
X165830418Y-142243358D01*
X165840816Y-142252672D01*
X165823682Y-142265903D01*
X165773699Y-142300502D01*
X165693002Y-142355058D01*
X165583723Y-142428165D01*
X165447996Y-142518412D01*
X165287954Y-142624392D01*
X165105729Y-142744695D01*
X164903455Y-142877913D01*
X164683266Y-143022636D01*
X164447293Y-143177458D01*
X164197671Y-143340968D01*
X163936531Y-143511757D01*
X163733088Y-143644637D01*
X163464631Y-143820051D01*
X163206076Y-143989321D01*
X162959558Y-144151033D01*
X162727213Y-144303774D01*
X162511173Y-144446129D01*
X162313573Y-144576684D01*
X162136548Y-144694024D01*
X161982233Y-144796737D01*
X161852760Y-144883406D01*
X161750266Y-144952620D01*
X161676884Y-145002962D01*
X161634748Y-145033020D01*
X161624936Y-145041409D01*
X161630957Y-145065258D01*
X161648317Y-145124530D01*
X161675676Y-145214879D01*
X161711694Y-145331957D01*
X161755032Y-145471418D01*
X161804349Y-145628916D01*
X161858306Y-145800102D01*
X161877734Y-145861486D01*
X161932584Y-146035962D01*
X161982682Y-146197965D01*
X162026763Y-146343205D01*
X162063562Y-146467392D01*
X162091816Y-146566237D01*
X162110260Y-146635451D01*
X162117629Y-146670744D01*
X162117342Y-146674306D01*
X162095076Y-146673873D01*
X162034330Y-146668714D01*
X161938058Y-146659159D01*
X161809213Y-146645540D01*
X161650751Y-146628188D01*
X161465625Y-146607434D01*
X161256790Y-146583610D01*
X161027199Y-146557046D01*
X160779807Y-146528074D01*
X160517568Y-146497025D01*
X160243436Y-146464230D01*
X160241582Y-146464007D01*
X158379436Y-146240093D01*
X156555451Y-146459938D01*
X156283133Y-146492694D01*
X156022019Y-146523974D01*
X155775173Y-146553418D01*
X155545657Y-146580667D01*
X155336536Y-146605361D01*
X155150873Y-146627141D01*
X154991731Y-146645647D01*
X154862175Y-146660519D01*
X154765269Y-146671398D01*
X154704075Y-146677925D01*
X154682279Y-146679782D01*
X154644492Y-146673518D01*
X154633092Y-146662459D01*
X154639205Y-146639386D01*
X154656642Y-146580889D01*
X154684053Y-146491320D01*
X154720091Y-146375026D01*
X154763404Y-146236357D01*
X154812644Y-146079661D01*
X154866461Y-145909288D01*
X154883544Y-145855378D01*
X154938518Y-145681465D01*
X154989312Y-145519690D01*
X155034575Y-145374437D01*
X155072957Y-145250093D01*
X155103104Y-145151043D01*
X155123667Y-145081673D01*
X155133292Y-145046369D01*
X155133846Y-145043078D01*
X155116687Y-145029017D01*
X155066673Y-144993608D01*
X154985939Y-144938270D01*
X154876616Y-144864416D01*
X154740841Y-144773464D01*
X154580747Y-144666830D01*
X154398467Y-144545930D01*
X154196137Y-144412179D01*
X153975889Y-144266995D01*
X153739859Y-144111793D01*
X153490179Y-143947988D01*
X153228985Y-143776998D01*
X153025875Y-143644277D01*
X152757461Y-143468894D01*
X152498952Y-143299733D01*
X152252481Y-143138203D01*
X152020182Y-142985714D01*
X151804187Y-142843673D01*
X151606629Y-142713489D01*
X151429640Y-142596570D01*
X151275354Y-142494324D01*
X151145902Y-142408161D01*
X151043419Y-142339488D01*
X150970037Y-142289715D01*
X150927888Y-142260249D01*
X150918056Y-142252312D01*
X150935464Y-142238146D01*
X150984412Y-142206598D01*
X151059986Y-142160620D01*
X151157270Y-142103163D01*
X151271349Y-142037179D01*
X151367400Y-141982498D01*
X151514102Y-141898788D01*
X151627113Y-141832439D01*
X151709663Y-141781331D01*
X151764980Y-141743346D01*
X151796292Y-141716365D01*
X151806828Y-141698269D01*
X151806449Y-141694348D01*
X151796049Y-141656807D01*
X151777027Y-141584893D01*
X151750433Y-141482745D01*
X151717318Y-141354503D01*
X151678731Y-141204306D01*
X151635722Y-141036295D01*
X151589341Y-140854607D01*
X151540639Y-140663384D01*
X151490664Y-140466765D01*
X151440469Y-140268888D01*
X151391101Y-140073894D01*
X151343612Y-139885923D01*
X151299051Y-139709113D01*
X151258468Y-139547604D01*
X151222914Y-139405536D01*
X151193438Y-139287049D01*
X151171090Y-139196281D01*
X151156921Y-139137373D01*
X151151981Y-139114464D01*
X151152009Y-139114314D01*
X151173062Y-139117241D01*
G37*
X151173062Y-139117241D02*
X151231055Y-139127529D01*
X151321987Y-139144415D01*
X151441855Y-139167135D01*
X151586656Y-139194924D01*
X151752388Y-139227019D01*
X151935049Y-139262656D01*
X152130635Y-139301072D01*
X152133991Y-139301733D01*
X152375674Y-139349689D01*
X152579012Y-139390803D01*
X152746728Y-139425693D01*
X152881547Y-139454979D01*
X152986192Y-139479281D01*
X153063389Y-139499218D01*
X153115860Y-139515409D01*
X153146329Y-139528474D01*
X153153735Y-139533630D01*
X153191139Y-139573887D01*
X153248581Y-139644155D01*
X153322723Y-139739860D01*
X153410230Y-139856429D01*
X153507765Y-139989288D01*
X153611992Y-140133865D01*
X153719574Y-140285585D01*
X153827176Y-140439876D01*
X153931461Y-140592164D01*
X153997018Y-140689603D01*
X154306738Y-141166774D01*
X154610186Y-141659964D01*
X154903912Y-142162785D01*
X155184468Y-142668848D01*
X155448405Y-143171763D01*
X155692273Y-143665142D01*
X155912625Y-144142595D01*
X156103966Y-144592683D01*
X156152206Y-144715689D01*
X156204641Y-144856073D01*
X156258811Y-145006573D01*
X156312254Y-145159924D01*
X156362510Y-145308863D01*
X156407119Y-145446127D01*
X156443619Y-145564453D01*
X156469549Y-145656578D01*
X156480683Y-145704645D01*
X156493454Y-145754560D01*
X156506871Y-145781041D01*
X156509739Y-145782329D01*
X156529767Y-145767213D01*
X156572709Y-145724948D01*
X156634412Y-145660162D01*
X156710719Y-145577481D01*
X156797477Y-145481532D01*
X156890531Y-145376942D01*
X156985726Y-145268337D01*
X157078907Y-145160344D01*
X157165920Y-145057589D01*
X157229460Y-144980844D01*
X157424053Y-144735214D01*
X157603248Y-144492228D01*
X157773415Y-144242365D01*
X157940920Y-143976104D01*
X158112131Y-143683925D01*
X158191483Y-143542533D01*
X158250571Y-143438418D01*
X158303515Y-143349671D01*
X158346867Y-143281707D01*
X158377180Y-143239940D01*
X158390771Y-143229468D01*
X158406568Y-143253637D01*
X158437509Y-143306727D01*
X158479085Y-143380833D01*
X158525491Y-143465649D01*
X158756160Y-143873177D01*
X158990570Y-144248356D01*
X159234893Y-144600505D01*
X159495303Y-144938946D01*
X159527694Y-144978796D01*
X159607003Y-145074332D01*
X159695789Y-145178792D01*
X159789910Y-145287558D01*
X159885221Y-145396016D01*
X159977577Y-145499550D01*
X160062834Y-145593544D01*
X160136849Y-145673381D01*
X160195476Y-145734446D01*
X160234572Y-145772124D01*
X160249133Y-145782329D01*
X160261867Y-145764054D01*
X160275306Y-145718730D01*
X160278189Y-145704645D01*
X160294429Y-145637323D01*
X160323111Y-145538273D01*
X160361774Y-145414758D01*
X160407956Y-145274042D01*
X160459198Y-145123387D01*
X160513039Y-144970058D01*
X160567018Y-144821316D01*
X160618674Y-144684426D01*
X160654906Y-144592683D01*
X160844799Y-144146057D01*
X161061238Y-143676865D01*
X161300750Y-143191540D01*
X161559861Y-142696520D01*
X161835099Y-142198240D01*
X162122988Y-141703137D01*
X162420057Y-141217645D01*
X162722831Y-140748201D01*
X162759782Y-140692652D01*
X162859903Y-140544408D01*
X162965573Y-140391066D01*
X163073465Y-140237193D01*
X163180247Y-140087356D01*
X163282590Y-139946122D01*
X163377164Y-139818058D01*
X163460639Y-139707731D01*
X163529687Y-139619707D01*
X163580976Y-139558554D01*
X163604225Y-139534455D01*
X163626277Y-139522553D01*
X163670920Y-139507423D01*
X163740698Y-139488487D01*
X163838156Y-139465167D01*
X163965839Y-139436886D01*
X164126293Y-139403066D01*
X164322062Y-139363129D01*
X164555690Y-139316498D01*
X164623970Y-139303005D01*
X164819830Y-139264483D01*
X165002834Y-139228711D01*
X165168980Y-139196456D01*
X165314267Y-139168484D01*
X165434697Y-139145560D01*
X165526267Y-139128452D01*
X165584978Y-139117925D01*
X165606828Y-139114745D01*
X165606862Y-139114762D01*
X165602630Y-139134856D01*
X165589094Y-139191249D01*
X165567302Y-139279801D01*
X165538307Y-139396372D01*
X165503157Y-139536825D01*
X165462902Y-139697019D01*
X165418594Y-139872816D01*
X165371281Y-140060077D01*
X165322015Y-140254661D01*
X165271844Y-140452432D01*
X165221820Y-140649248D01*
X165172992Y-140840972D01*
X165126411Y-141023463D01*
X165083126Y-141192584D01*
X165044187Y-141344194D01*
X165010645Y-141474155D01*
X164983550Y-141578327D01*
X164963952Y-141652573D01*
X164952900Y-141692751D01*
X164952423Y-141694348D01*
X164957491Y-141710246D01*
X164982391Y-141734408D01*
X165030351Y-141768955D01*
X165104600Y-141816004D01*
X165208365Y-141877675D01*
X165344877Y-141956087D01*
X165391472Y-141982498D01*
X165515127Y-142053048D01*
X165625764Y-142117365D01*
X165718469Y-142172493D01*
X165788325Y-142215476D01*
X165830418Y-142243358D01*
X165840816Y-142252672D01*
X165823682Y-142265903D01*
X165773699Y-142300502D01*
X165693002Y-142355058D01*
X165583723Y-142428165D01*
X165447996Y-142518412D01*
X165287954Y-142624392D01*
X165105729Y-142744695D01*
X164903455Y-142877913D01*
X164683266Y-143022636D01*
X164447293Y-143177458D01*
X164197671Y-143340968D01*
X163936531Y-143511757D01*
X163733088Y-143644637D01*
X163464631Y-143820051D01*
X163206076Y-143989321D01*
X162959558Y-144151033D01*
X162727213Y-144303774D01*
X162511173Y-144446129D01*
X162313573Y-144576684D01*
X162136548Y-144694024D01*
X161982233Y-144796737D01*
X161852760Y-144883406D01*
X161750266Y-144952620D01*
X161676884Y-145002962D01*
X161634748Y-145033020D01*
X161624936Y-145041409D01*
X161630957Y-145065258D01*
X161648317Y-145124530D01*
X161675676Y-145214879D01*
X161711694Y-145331957D01*
X161755032Y-145471418D01*
X161804349Y-145628916D01*
X161858306Y-145800102D01*
X161877734Y-145861486D01*
X161932584Y-146035962D01*
X161982682Y-146197965D01*
X162026763Y-146343205D01*
X162063562Y-146467392D01*
X162091816Y-146566237D01*
X162110260Y-146635451D01*
X162117629Y-146670744D01*
X162117342Y-146674306D01*
X162095076Y-146673873D01*
X162034330Y-146668714D01*
X161938058Y-146659159D01*
X161809213Y-146645540D01*
X161650751Y-146628188D01*
X161465625Y-146607434D01*
X161256790Y-146583610D01*
X161027199Y-146557046D01*
X160779807Y-146528074D01*
X160517568Y-146497025D01*
X160243436Y-146464230D01*
X160241582Y-146464007D01*
X158379436Y-146240093D01*
X156555451Y-146459938D01*
X156283133Y-146492694D01*
X156022019Y-146523974D01*
X155775173Y-146553418D01*
X155545657Y-146580667D01*
X155336536Y-146605361D01*
X155150873Y-146627141D01*
X154991731Y-146645647D01*
X154862175Y-146660519D01*
X154765269Y-146671398D01*
X154704075Y-146677925D01*
X154682279Y-146679782D01*
X154644492Y-146673518D01*
X154633092Y-146662459D01*
X154639205Y-146639386D01*
X154656642Y-146580889D01*
X154684053Y-146491320D01*
X154720091Y-146375026D01*
X154763404Y-146236357D01*
X154812644Y-146079661D01*
X154866461Y-145909288D01*
X154883544Y-145855378D01*
X154938518Y-145681465D01*
X154989312Y-145519690D01*
X155034575Y-145374437D01*
X155072957Y-145250093D01*
X155103104Y-145151043D01*
X155123667Y-145081673D01*
X155133292Y-145046369D01*
X155133846Y-145043078D01*
X155116687Y-145029017D01*
X155066673Y-144993608D01*
X154985939Y-144938270D01*
X154876616Y-144864416D01*
X154740841Y-144773464D01*
X154580747Y-144666830D01*
X154398467Y-144545930D01*
X154196137Y-144412179D01*
X153975889Y-144266995D01*
X153739859Y-144111793D01*
X153490179Y-143947988D01*
X153228985Y-143776998D01*
X153025875Y-143644277D01*
X152757461Y-143468894D01*
X152498952Y-143299733D01*
X152252481Y-143138203D01*
X152020182Y-142985714D01*
X151804187Y-142843673D01*
X151606629Y-142713489D01*
X151429640Y-142596570D01*
X151275354Y-142494324D01*
X151145902Y-142408161D01*
X151043419Y-142339488D01*
X150970037Y-142289715D01*
X150927888Y-142260249D01*
X150918056Y-142252312D01*
X150935464Y-142238146D01*
X150984412Y-142206598D01*
X151059986Y-142160620D01*
X151157270Y-142103163D01*
X151271349Y-142037179D01*
X151367400Y-141982498D01*
X151514102Y-141898788D01*
X151627113Y-141832439D01*
X151709663Y-141781331D01*
X151764980Y-141743346D01*
X151796292Y-141716365D01*
X151806828Y-141698269D01*
X151806449Y-141694348D01*
X151796049Y-141656807D01*
X151777027Y-141584893D01*
X151750433Y-141482745D01*
X151717318Y-141354503D01*
X151678731Y-141204306D01*
X151635722Y-141036295D01*
X151589341Y-140854607D01*
X151540639Y-140663384D01*
X151490664Y-140466765D01*
X151440469Y-140268888D01*
X151391101Y-140073894D01*
X151343612Y-139885923D01*
X151299051Y-139709113D01*
X151258468Y-139547604D01*
X151222914Y-139405536D01*
X151193438Y-139287049D01*
X151171090Y-139196281D01*
X151156921Y-139137373D01*
X151151981Y-139114464D01*
X151152009Y-139114314D01*
X151173062Y-139117241D01*
D10*
%TO.C,J10*%
X114045000Y-52419000D02*
X114045000Y-48419000D01*
X98045000Y-52419000D02*
X114045000Y-52419000D01*
X98045000Y-48419000D02*
X98045000Y-52419000D01*
X105045000Y-48419000D02*
X98045000Y-48419000D01*
X105045000Y-48719000D02*
X105045000Y-48419000D01*
X107045000Y-48719000D02*
X105045000Y-48719000D01*
X107045000Y-48419000D02*
X107045000Y-48719000D01*
X114045000Y-48419000D02*
X107045000Y-48419000D01*
D15*
%TO.C,U3*%
X156577000Y-124578000D02*
X156577000Y-122148000D01*
X153507000Y-122818000D02*
X153507000Y-124578000D01*
%TO.C,U1*%
X149287000Y-79336500D02*
X149287000Y-78236500D01*
X148597000Y-79336500D02*
X149287000Y-79336500D01*
X148597000Y-80836500D02*
X148597000Y-79336500D01*
X158307000Y-79336500D02*
X158307000Y-74211500D01*
X158997000Y-79336500D02*
X158307000Y-79336500D01*
X158997000Y-80836500D02*
X158997000Y-79336500D01*
%TO.C,Y1*%
X119886000Y-65898000D02*
X113486000Y-65898000D01*
X119886000Y-60848000D02*
X113486000Y-60848000D01*
X113486000Y-60848000D02*
G75*
G03*
X113486000Y-65898000I0J-2525000D01*
G01*
X119886000Y-60848000D02*
G75*
G02*
X119886000Y-65898000I0J-2525000D01*
G01*
%TO.C,J1*%
X127949000Y-50740000D02*
X127949000Y-52070000D01*
X126619000Y-50740000D02*
X127949000Y-50740000D01*
X125349000Y-50740000D02*
X125349000Y-53400000D01*
X125349000Y-53400000D02*
X115129000Y-53400000D01*
X125349000Y-50740000D02*
X115129000Y-50740000D01*
X115129000Y-50740000D02*
X115129000Y-53400000D01*
%TO.C,C4*%
X172966748Y-120194000D02*
X173489252Y-120194000D01*
X172966748Y-121614000D02*
X173489252Y-121614000D01*
%TO.C,R19*%
X101719748Y-88444000D02*
X102242252Y-88444000D01*
X101719748Y-89864000D02*
X102242252Y-89864000D01*
%TO.C,L2*%
X167193000Y-64406500D02*
X160843000Y-64406500D01*
X160843000Y-64406500D02*
X160843000Y-77106500D01*
X160843000Y-77106500D02*
X174813000Y-77106500D01*
X174813000Y-77106500D02*
X174813000Y-64406500D01*
X174813000Y-64406500D02*
X167193000Y-64406500D01*
%TO.C,R2*%
X152094000Y-65461248D02*
X152094000Y-65983752D01*
X150674000Y-65461248D02*
X150674000Y-65983752D01*
%TO.C,D7*%
X170687000Y-79864500D02*
X170687000Y-86764500D01*
X167387000Y-79864500D02*
X167387000Y-86764500D01*
X170687000Y-79864500D02*
X167387000Y-79864500D01*
%TO.C,J6*%
X165198000Y-56883000D02*
X165478000Y-56883000D01*
X165478000Y-56883000D02*
X165478000Y-58483000D01*
X165478000Y-58483000D02*
X166398000Y-58483000D01*
X166398000Y-58483000D02*
X166398000Y-50663000D01*
X166398000Y-50663000D02*
X160278000Y-50663000D01*
X160278000Y-50663000D02*
X160278000Y-58483000D01*
X160278000Y-58483000D02*
X161198000Y-58483000D01*
X161198000Y-58483000D02*
X161198000Y-56883000D01*
X161198000Y-56883000D02*
X161478000Y-56883000D01*
X163838000Y-50663000D02*
X163838000Y-55023000D01*
X163838000Y-55023000D02*
X162838000Y-55023000D01*
X162838000Y-55023000D02*
X162838000Y-50663000D01*
X166398000Y-56883000D02*
X165478000Y-56883000D01*
X160278000Y-56883000D02*
X161198000Y-56883000D01*
X165638000Y-54523000D02*
X165638000Y-52923000D01*
X165638000Y-52923000D02*
X164638000Y-52923000D01*
X164638000Y-52923000D02*
X164638000Y-54523000D01*
X164638000Y-54523000D02*
X165638000Y-54523000D01*
X161038000Y-54523000D02*
X161038000Y-52923000D01*
X161038000Y-52923000D02*
X162038000Y-52923000D01*
X162038000Y-52923000D02*
X162038000Y-54523000D01*
X162038000Y-54523000D02*
X161038000Y-54523000D01*
X164638000Y-52923000D02*
X164638000Y-50663000D01*
X165138000Y-52923000D02*
X165138000Y-50663000D01*
X165198000Y-56883000D02*
X165198000Y-58098000D01*
%TO.C,J5*%
X156308000Y-56883000D02*
X156588000Y-56883000D01*
X156588000Y-56883000D02*
X156588000Y-58483000D01*
X156588000Y-58483000D02*
X157508000Y-58483000D01*
X157508000Y-58483000D02*
X157508000Y-50663000D01*
X157508000Y-50663000D02*
X151388000Y-50663000D01*
X151388000Y-50663000D02*
X151388000Y-58483000D01*
X151388000Y-58483000D02*
X152308000Y-58483000D01*
X152308000Y-58483000D02*
X152308000Y-56883000D01*
X152308000Y-56883000D02*
X152588000Y-56883000D01*
X154948000Y-50663000D02*
X154948000Y-55023000D01*
X154948000Y-55023000D02*
X153948000Y-55023000D01*
X153948000Y-55023000D02*
X153948000Y-50663000D01*
X157508000Y-56883000D02*
X156588000Y-56883000D01*
X151388000Y-56883000D02*
X152308000Y-56883000D01*
X156748000Y-54523000D02*
X156748000Y-52923000D01*
X156748000Y-52923000D02*
X155748000Y-52923000D01*
X155748000Y-52923000D02*
X155748000Y-54523000D01*
X155748000Y-54523000D02*
X156748000Y-54523000D01*
X152148000Y-54523000D02*
X152148000Y-52923000D01*
X152148000Y-52923000D02*
X153148000Y-52923000D01*
X153148000Y-52923000D02*
X153148000Y-54523000D01*
X153148000Y-54523000D02*
X152148000Y-54523000D01*
X155748000Y-52923000D02*
X155748000Y-50663000D01*
X156248000Y-52923000D02*
X156248000Y-50663000D01*
X156308000Y-56883000D02*
X156308000Y-58098000D01*
%TO.C,J4*%
X146910000Y-56883000D02*
X147190000Y-56883000D01*
X147190000Y-56883000D02*
X147190000Y-58483000D01*
X147190000Y-58483000D02*
X148110000Y-58483000D01*
X148110000Y-58483000D02*
X148110000Y-50663000D01*
X148110000Y-50663000D02*
X141990000Y-50663000D01*
X141990000Y-50663000D02*
X141990000Y-58483000D01*
X141990000Y-58483000D02*
X142910000Y-58483000D01*
X142910000Y-58483000D02*
X142910000Y-56883000D01*
X142910000Y-56883000D02*
X143190000Y-56883000D01*
X145550000Y-50663000D02*
X145550000Y-55023000D01*
X145550000Y-55023000D02*
X144550000Y-55023000D01*
X144550000Y-55023000D02*
X144550000Y-50663000D01*
X148110000Y-56883000D02*
X147190000Y-56883000D01*
X141990000Y-56883000D02*
X142910000Y-56883000D01*
X147350000Y-54523000D02*
X147350000Y-52923000D01*
X147350000Y-52923000D02*
X146350000Y-52923000D01*
X146350000Y-52923000D02*
X146350000Y-54523000D01*
X146350000Y-54523000D02*
X147350000Y-54523000D01*
X142750000Y-54523000D02*
X142750000Y-52923000D01*
X142750000Y-52923000D02*
X143750000Y-52923000D01*
X143750000Y-52923000D02*
X143750000Y-54523000D01*
X143750000Y-54523000D02*
X142750000Y-54523000D01*
X146350000Y-52923000D02*
X146350000Y-50663000D01*
X146850000Y-52923000D02*
X146850000Y-50663000D01*
X146910000Y-56883000D02*
X146910000Y-58098000D01*
%TO.C,J3*%
X137258000Y-56883000D02*
X137538000Y-56883000D01*
X137538000Y-56883000D02*
X137538000Y-58483000D01*
X137538000Y-58483000D02*
X138458000Y-58483000D01*
X138458000Y-58483000D02*
X138458000Y-50663000D01*
X138458000Y-50663000D02*
X132338000Y-50663000D01*
X132338000Y-50663000D02*
X132338000Y-58483000D01*
X132338000Y-58483000D02*
X133258000Y-58483000D01*
X133258000Y-58483000D02*
X133258000Y-56883000D01*
X133258000Y-56883000D02*
X133538000Y-56883000D01*
X135898000Y-50663000D02*
X135898000Y-55023000D01*
X135898000Y-55023000D02*
X134898000Y-55023000D01*
X134898000Y-55023000D02*
X134898000Y-50663000D01*
X138458000Y-56883000D02*
X137538000Y-56883000D01*
X132338000Y-56883000D02*
X133258000Y-56883000D01*
X137698000Y-54523000D02*
X137698000Y-52923000D01*
X137698000Y-52923000D02*
X136698000Y-52923000D01*
X136698000Y-52923000D02*
X136698000Y-54523000D01*
X136698000Y-54523000D02*
X137698000Y-54523000D01*
X133098000Y-54523000D02*
X133098000Y-52923000D01*
X133098000Y-52923000D02*
X134098000Y-52923000D01*
X134098000Y-52923000D02*
X134098000Y-54523000D01*
X134098000Y-54523000D02*
X133098000Y-54523000D01*
X136698000Y-52923000D02*
X136698000Y-50663000D01*
X137198000Y-52923000D02*
X137198000Y-50663000D01*
X137258000Y-56883000D02*
X137258000Y-58098000D01*
D14*
%TO.C,U6*%
G36*
X159052489Y-108305600D02*
G01*
X158671489Y-108305600D01*
X158671489Y-108051600D01*
X159052489Y-108051600D01*
X159052489Y-108305600D01*
G37*
X159052489Y-108305600D02*
X158671489Y-108305600D01*
X158671489Y-108051600D01*
X159052489Y-108051600D01*
X159052489Y-108305600D01*
D15*
X162191700Y-106514900D02*
X162191700Y-101765100D01*
X156832300Y-101765100D02*
X156832300Y-106514900D01*
%TO.C,R41*%
X150995748Y-70537000D02*
X151518252Y-70537000D01*
X150995748Y-71957000D02*
X151518252Y-71957000D01*
%TO.C,L1*%
X163867000Y-101186064D02*
X163867000Y-99981936D01*
X166587000Y-101186064D02*
X166587000Y-99981936D01*
%TO.C,C25*%
X156543752Y-71957000D02*
X156021248Y-71957000D01*
X156543752Y-70537000D02*
X156021248Y-70537000D01*
%TO.C,C24*%
X164921000Y-82597248D02*
X164921000Y-83119752D01*
X163501000Y-82597248D02*
X163501000Y-83119752D01*
%TO.C,J9*%
X145983000Y-121853000D02*
X144653000Y-121853000D01*
X145983000Y-120523000D02*
X145983000Y-121853000D01*
X145983000Y-119253000D02*
X143323000Y-119253000D01*
X143323000Y-119253000D02*
X143323000Y-116653000D01*
X145983000Y-119253000D02*
X145983000Y-116653000D01*
X145983000Y-116653000D02*
X143323000Y-116653000D01*
%TO.C,U4*%
X89022000Y-59074000D02*
X89022000Y-60334000D01*
X89022000Y-65894000D02*
X89022000Y-64634000D01*
X92782000Y-59074000D02*
X89022000Y-59074000D01*
X95032000Y-65894000D02*
X89022000Y-65894000D01*
%TO.C,U2*%
X167935000Y-121274000D02*
X167935000Y-123724000D01*
X171155000Y-123074000D02*
X171155000Y-121274000D01*
%TO.C,JP2*%
X135703000Y-64075000D02*
X137033000Y-64075000D01*
X135703000Y-65405000D02*
X135703000Y-64075000D01*
X135703000Y-66675000D02*
X138363000Y-66675000D01*
X138363000Y-66675000D02*
X138363000Y-71815000D01*
X135703000Y-66675000D02*
X135703000Y-71815000D01*
X135703000Y-71815000D02*
X138363000Y-71815000D01*
%TO.C,J7*%
X135830000Y-74235000D02*
X137160000Y-74235000D01*
X135830000Y-75565000D02*
X135830000Y-74235000D01*
X135830000Y-76835000D02*
X138490000Y-76835000D01*
X138490000Y-76835000D02*
X138490000Y-81975000D01*
X135830000Y-76835000D02*
X135830000Y-81975000D01*
X135830000Y-81975000D02*
X138490000Y-81975000D01*
%TO.C,D5*%
X134667000Y-94369000D02*
X130607000Y-94369000D01*
X134667000Y-96639000D02*
X134667000Y-94369000D01*
X130607000Y-96639000D02*
X134667000Y-96639000D01*
%TO.C,D4*%
X134667000Y-84209000D02*
X130607000Y-84209000D01*
X134667000Y-86479000D02*
X134667000Y-84209000D01*
X130607000Y-86479000D02*
X134667000Y-86479000D01*
%TO.C,D3*%
X134667000Y-89289000D02*
X130607000Y-89289000D01*
X134667000Y-91559000D02*
X134667000Y-89289000D01*
X130607000Y-91559000D02*
X134667000Y-91559000D01*
%TO.C,D1*%
X168672000Y-107610000D02*
X170672000Y-107610000D01*
X170672000Y-107610000D02*
X170672000Y-103760000D01*
X168672000Y-107610000D02*
X168672000Y-103760000D01*
%TO.C,TP17*%
X114487000Y-86801000D02*
X114487000Y-84141000D01*
X114427000Y-86801000D02*
X114487000Y-86801000D01*
X114427000Y-84141000D02*
X114487000Y-84141000D01*
X114427000Y-86801000D02*
X114427000Y-84141000D01*
X113157000Y-86801000D02*
X111827000Y-86801000D01*
X111827000Y-86801000D02*
X111827000Y-85471000D01*
D10*
%TO.C,U14*%
X107926000Y-92734000D02*
X108101000Y-92734000D01*
X107926000Y-89384000D02*
X108176000Y-89384000D01*
X111276000Y-89384000D02*
X111026000Y-89384000D01*
X111276000Y-92734000D02*
X111026000Y-92734000D01*
X107926000Y-92734000D02*
X107926000Y-89384000D01*
X111276000Y-92734000D02*
X111276000Y-89384000D01*
X108101000Y-92734000D02*
X108101000Y-93984000D01*
D15*
%TO.C,R38*%
X118229748Y-96445000D02*
X118752252Y-96445000D01*
X118229748Y-97865000D02*
X118752252Y-97865000D01*
%TO.C,R37*%
X117931000Y-87749748D02*
X117931000Y-88272252D01*
X116511000Y-87749748D02*
X116511000Y-88272252D01*
%TO.C,R29*%
X118229748Y-92889000D02*
X118752252Y-92889000D01*
X118229748Y-94309000D02*
X118752252Y-94309000D01*
%TO.C,R28*%
X122249000Y-87631748D02*
X122249000Y-88154252D01*
X120829000Y-87631748D02*
X120829000Y-88154252D01*
%TO.C,R23*%
X99620000Y-94353748D02*
X99620000Y-94876252D01*
X101040000Y-94353748D02*
X101040000Y-94876252D01*
%TO.C,R22*%
X89034252Y-98794500D02*
X88511748Y-98794500D01*
X89034252Y-100214500D02*
X88511748Y-100214500D01*
%TO.C,R21*%
X98671748Y-74347000D02*
X99194252Y-74347000D01*
X98671748Y-75767000D02*
X99194252Y-75767000D01*
%TO.C,R20*%
X100830748Y-71235500D02*
X101353252Y-71235500D01*
X100830748Y-72655500D02*
X101353252Y-72655500D01*
%TO.C,R18*%
X94734748Y-96762500D02*
X95257252Y-96762500D01*
X94734748Y-98182500D02*
X95257252Y-98182500D01*
%TO.C,R15*%
X156158000Y-111752748D02*
X156158000Y-112275252D01*
X154738000Y-111752748D02*
X154738000Y-112275252D01*
%TO.C,R14*%
X158040000Y-113046252D02*
X158040000Y-112523748D01*
X159460000Y-113046252D02*
X159460000Y-112523748D01*
%TO.C,R13*%
X151690000Y-106941252D02*
X151690000Y-106418748D01*
X153110000Y-106941252D02*
X153110000Y-106418748D01*
%TO.C,R12*%
X90050252Y-74093000D02*
X89527748Y-74093000D01*
X90050252Y-75513000D02*
X89527748Y-75513000D01*
%TO.C,R11*%
X161663748Y-112343000D02*
X162186252Y-112343000D01*
X161663748Y-110923000D02*
X162186252Y-110923000D01*
%TO.C,R9*%
X126611748Y-94794000D02*
X127134252Y-94794000D01*
X126611748Y-96214000D02*
X127134252Y-96214000D01*
%TO.C,R8*%
X151264252Y-125805000D02*
X150741748Y-125805000D01*
X151264252Y-124385000D02*
X150741748Y-124385000D01*
%TO.C,R7*%
X155201252Y-129107000D02*
X154678748Y-129107000D01*
X155201252Y-127687000D02*
X154678748Y-127687000D01*
%TO.C,R5*%
X126611748Y-84634000D02*
X127134252Y-84634000D01*
X126611748Y-86054000D02*
X127134252Y-86054000D01*
%TO.C,R4*%
X126611748Y-89714000D02*
X127134252Y-89714000D01*
X126611748Y-91134000D02*
X127134252Y-91134000D01*
%TO.C,R3*%
X88448248Y-96087000D02*
X88970752Y-96087000D01*
X88448248Y-94667000D02*
X88970752Y-94667000D01*
%TO.C,R1*%
X95574752Y-71235500D02*
X95052248Y-71235500D01*
X95574752Y-72655500D02*
X95052248Y-72655500D01*
%TO.C,Q1*%
X89283000Y-68524000D02*
X90743000Y-68524000D01*
X89283000Y-71684000D02*
X91443000Y-71684000D01*
X89283000Y-71684000D02*
X89283000Y-70754000D01*
X89283000Y-68524000D02*
X89283000Y-69454000D01*
%TO.C,F6*%
X156211748Y-60123000D02*
X156734252Y-60123000D01*
X156211748Y-61543000D02*
X156734252Y-61543000D01*
%TO.C,F5*%
X146296748Y-60123000D02*
X146819252Y-60123000D01*
X146296748Y-61543000D02*
X146819252Y-61543000D01*
%TO.C,F4*%
X137397748Y-60123000D02*
X137920252Y-60123000D01*
X137397748Y-61543000D02*
X137920252Y-61543000D01*
%TO.C,F3*%
X141113252Y-83260000D02*
X140590748Y-83260000D01*
X141113252Y-81840000D02*
X140590748Y-81840000D01*
%TO.C,F1*%
X141358252Y-73989000D02*
X140835748Y-73989000D01*
X141358252Y-72569000D02*
X140835748Y-72569000D01*
%TO.C,C40*%
X113994000Y-90679748D02*
X113994000Y-91202252D01*
X112574000Y-90679748D02*
X112574000Y-91202252D01*
%TO.C,C23*%
X98925748Y-64464000D02*
X99448252Y-64464000D01*
X98925748Y-63044000D02*
X99448252Y-63044000D01*
%TO.C,C21*%
X99448252Y-59488000D02*
X98925748Y-59488000D01*
X99448252Y-60908000D02*
X98925748Y-60908000D01*
%TO.C,C20*%
X101675000Y-83700252D02*
X101675000Y-83177748D01*
X100255000Y-83700252D02*
X100255000Y-83177748D01*
%TO.C,C12*%
X152602000Y-111253748D02*
X152602000Y-111776252D01*
X151182000Y-111253748D02*
X151182000Y-111776252D01*
%TO.C,C11*%
X114555748Y-81713000D02*
X115078252Y-81713000D01*
X114555748Y-83133000D02*
X115078252Y-83133000D01*
%TO.C,C10*%
X113481752Y-60146000D02*
X112959248Y-60146000D01*
X113481752Y-58726000D02*
X112959248Y-58726000D01*
%TO.C,C9*%
X120896748Y-58726000D02*
X121419252Y-58726000D01*
X120896748Y-60146000D02*
X121419252Y-60146000D01*
%TO.C,C8*%
X155074252Y-100151000D02*
X154551748Y-100151000D01*
X155074252Y-98731000D02*
X154551748Y-98731000D01*
%TO.C,C7*%
X170890000Y-100322748D02*
X170890000Y-100845252D01*
X169470000Y-100322748D02*
X169470000Y-100845252D01*
%TO.C,C6*%
X159377748Y-124512000D02*
X159900252Y-124512000D01*
X159377748Y-125932000D02*
X159900252Y-125932000D01*
%TO.C,C5*%
X166699000Y-121912748D02*
X166699000Y-122435252D01*
X165279000Y-121912748D02*
X165279000Y-122435252D01*
%TO.C,C2*%
X169366000Y-126112748D02*
X169366000Y-126635252D01*
X167946000Y-126112748D02*
X167946000Y-126635252D01*
%TO.C,U5*%
D10*
X126592380Y-74625104D02*
X127401904Y-74625104D01*
X127497142Y-74577485D01*
X127544761Y-74529866D01*
X127592380Y-74434628D01*
X127592380Y-74244152D01*
X127544761Y-74148914D01*
X127497142Y-74101295D01*
X127401904Y-74053676D01*
X126592380Y-74053676D01*
X126592380Y-73101295D02*
X126592380Y-73577485D01*
X127068571Y-73625104D01*
X127020952Y-73577485D01*
X126973333Y-73482247D01*
X126973333Y-73244152D01*
X127020952Y-73148914D01*
X127068571Y-73101295D01*
X127163809Y-73053676D01*
X127401904Y-73053676D01*
X127497142Y-73101295D01*
X127544761Y-73148914D01*
X127592380Y-73244152D01*
X127592380Y-73482247D01*
X127544761Y-73577485D01*
X127497142Y-73625104D01*
%TO.C,TP2*%
X104529095Y-83355380D02*
X105100523Y-83355380D01*
X104814809Y-84355380D02*
X104814809Y-83355380D01*
X105433857Y-84355380D02*
X105433857Y-83355380D01*
X105814809Y-83355380D01*
X105910047Y-83403000D01*
X105957666Y-83450619D01*
X106005285Y-83545857D01*
X106005285Y-83688714D01*
X105957666Y-83783952D01*
X105910047Y-83831571D01*
X105814809Y-83879190D01*
X105433857Y-83879190D01*
X106386238Y-83450619D02*
X106433857Y-83403000D01*
X106529095Y-83355380D01*
X106767190Y-83355380D01*
X106862428Y-83403000D01*
X106910047Y-83450619D01*
X106957666Y-83545857D01*
X106957666Y-83641095D01*
X106910047Y-83783952D01*
X106338619Y-84355380D01*
X106957666Y-84355380D01*
%TO.C,J8*%
X97583666Y-76350880D02*
X97583666Y-77065166D01*
X97536047Y-77208023D01*
X97440809Y-77303261D01*
X97297952Y-77350880D01*
X97202714Y-77350880D01*
X98202714Y-76779452D02*
X98107476Y-76731833D01*
X98059857Y-76684214D01*
X98012238Y-76588976D01*
X98012238Y-76541357D01*
X98059857Y-76446119D01*
X98107476Y-76398500D01*
X98202714Y-76350880D01*
X98393190Y-76350880D01*
X98488428Y-76398500D01*
X98536047Y-76446119D01*
X98583666Y-76541357D01*
X98583666Y-76588976D01*
X98536047Y-76684214D01*
X98488428Y-76731833D01*
X98393190Y-76779452D01*
X98202714Y-76779452D01*
X98107476Y-76827071D01*
X98059857Y-76874690D01*
X98012238Y-76969928D01*
X98012238Y-77160404D01*
X98059857Y-77255642D01*
X98107476Y-77303261D01*
X98202714Y-77350880D01*
X98393190Y-77350880D01*
X98488428Y-77303261D01*
X98536047Y-77255642D01*
X98583666Y-77160404D01*
X98583666Y-76969928D01*
X98536047Y-76874690D01*
X98488428Y-76827071D01*
X98393190Y-76779452D01*
%TO.C,J11*%
X105235476Y-96099380D02*
X105235476Y-96813666D01*
X105187857Y-96956523D01*
X105092619Y-97051761D01*
X104949761Y-97099380D01*
X104854523Y-97099380D01*
X106235476Y-97099380D02*
X105664047Y-97099380D01*
X105949761Y-97099380D02*
X105949761Y-96099380D01*
X105854523Y-96242238D01*
X105759285Y-96337476D01*
X105664047Y-96385095D01*
X107187857Y-97099380D02*
X106616428Y-97099380D01*
X106902142Y-97099380D02*
X106902142Y-96099380D01*
X106806904Y-96242238D01*
X106711666Y-96337476D01*
X106616428Y-96385095D01*
%TO.C,J2*%
X144319666Y-105453380D02*
X144319666Y-106167666D01*
X144272047Y-106310523D01*
X144176809Y-106405761D01*
X144033952Y-106453380D01*
X143938714Y-106453380D01*
X144748238Y-105548619D02*
X144795857Y-105501000D01*
X144891095Y-105453380D01*
X145129190Y-105453380D01*
X145224428Y-105501000D01*
X145272047Y-105548619D01*
X145319666Y-105643857D01*
X145319666Y-105739095D01*
X145272047Y-105881952D01*
X144700619Y-106453380D01*
X145319666Y-106453380D01*
D14*
X142565380Y-114339000D02*
X141565380Y-114339000D01*
X141565380Y-114100904D01*
X141613000Y-113958047D01*
X141708238Y-113862809D01*
X141803476Y-113815190D01*
X141993952Y-113767571D01*
X142136809Y-113767571D01*
X142327285Y-113815190D01*
X142422523Y-113862809D01*
X142517761Y-113958047D01*
X142565380Y-114100904D01*
X142565380Y-114339000D01*
X142041571Y-113339000D02*
X142041571Y-113005666D01*
X142565380Y-112862809D02*
X142565380Y-113339000D01*
X141565380Y-113339000D01*
X141565380Y-112862809D01*
X141565380Y-112577095D02*
X141565380Y-112005666D01*
X142565380Y-112291380D02*
X141565380Y-112291380D01*
X142660619Y-111910428D02*
X142660619Y-111148523D01*
X142470142Y-110339000D02*
X142517761Y-110386619D01*
X142565380Y-110529476D01*
X142565380Y-110624714D01*
X142517761Y-110767571D01*
X142422523Y-110862809D01*
X142327285Y-110910428D01*
X142136809Y-110958047D01*
X141993952Y-110958047D01*
X141803476Y-110910428D01*
X141708238Y-110862809D01*
X141613000Y-110767571D01*
X141565380Y-110624714D01*
X141565380Y-110529476D01*
X141613000Y-110386619D01*
X141660619Y-110339000D01*
X141565380Y-109719952D02*
X141565380Y-109529476D01*
X141613000Y-109434238D01*
X141708238Y-109339000D01*
X141898714Y-109291380D01*
X142232047Y-109291380D01*
X142422523Y-109339000D01*
X142517761Y-109434238D01*
X142565380Y-109529476D01*
X142565380Y-109719952D01*
X142517761Y-109815190D01*
X142422523Y-109910428D01*
X142232047Y-109958047D01*
X141898714Y-109958047D01*
X141708238Y-109910428D01*
X141613000Y-109815190D01*
X141565380Y-109719952D01*
X142565380Y-108862809D02*
X141565380Y-108862809D01*
X142565380Y-108291380D01*
X141565380Y-108291380D01*
X142565380Y-107815190D02*
X141565380Y-107815190D01*
X142565380Y-107243761D01*
X141565380Y-107243761D01*
X142660619Y-107005666D02*
X142660619Y-106243761D01*
X142565380Y-106005666D02*
X141565380Y-106005666D01*
X141565380Y-105624714D01*
X141613000Y-105529476D01*
X141660619Y-105481857D01*
X141755857Y-105434238D01*
X141898714Y-105434238D01*
X141993952Y-105481857D01*
X142041571Y-105529476D01*
X142089190Y-105624714D01*
X142089190Y-106005666D01*
X141565380Y-105100904D02*
X142565380Y-104862809D01*
X141851095Y-104672333D01*
X142565380Y-104481857D01*
X141565380Y-104243761D01*
X142565380Y-103291380D02*
X142089190Y-103624714D01*
X142565380Y-103862809D02*
X141565380Y-103862809D01*
X141565380Y-103481857D01*
X141613000Y-103386619D01*
X141660619Y-103339000D01*
X141755857Y-103291380D01*
X141898714Y-103291380D01*
X141993952Y-103339000D01*
X142041571Y-103386619D01*
X142089190Y-103481857D01*
X142089190Y-103862809D01*
%TO.C,C1*%
D10*
X159218333Y-119102142D02*
X159170714Y-119149761D01*
X159027857Y-119197380D01*
X158932619Y-119197380D01*
X158789761Y-119149761D01*
X158694523Y-119054523D01*
X158646904Y-118959285D01*
X158599285Y-118768809D01*
X158599285Y-118625952D01*
X158646904Y-118435476D01*
X158694523Y-118340238D01*
X158789761Y-118245000D01*
X158932619Y-118197380D01*
X159027857Y-118197380D01*
X159170714Y-118245000D01*
X159218333Y-118292619D01*
X160170714Y-119197380D02*
X159599285Y-119197380D01*
X159885000Y-119197380D02*
X159885000Y-118197380D01*
X159789761Y-118340238D01*
X159694523Y-118435476D01*
X159599285Y-118483095D01*
%TO.C,C26*%
X159355142Y-67027357D02*
X159402761Y-67074976D01*
X159450380Y-67217833D01*
X159450380Y-67313071D01*
X159402761Y-67455928D01*
X159307523Y-67551166D01*
X159212285Y-67598785D01*
X159021809Y-67646404D01*
X158878952Y-67646404D01*
X158688476Y-67598785D01*
X158593238Y-67551166D01*
X158498000Y-67455928D01*
X158450380Y-67313071D01*
X158450380Y-67217833D01*
X158498000Y-67074976D01*
X158545619Y-67027357D01*
X158545619Y-66646404D02*
X158498000Y-66598785D01*
X158450380Y-66503547D01*
X158450380Y-66265452D01*
X158498000Y-66170214D01*
X158545619Y-66122595D01*
X158640857Y-66074976D01*
X158736095Y-66074976D01*
X158878952Y-66122595D01*
X159450380Y-66694023D01*
X159450380Y-66074976D01*
X158450380Y-65217833D02*
X158450380Y-65408309D01*
X158498000Y-65503547D01*
X158545619Y-65551166D01*
X158688476Y-65646404D01*
X158878952Y-65694023D01*
X159259904Y-65694023D01*
X159355142Y-65646404D01*
X159402761Y-65598785D01*
X159450380Y-65503547D01*
X159450380Y-65313071D01*
X159402761Y-65217833D01*
X159355142Y-65170214D01*
X159259904Y-65122595D01*
X159021809Y-65122595D01*
X158926571Y-65170214D01*
X158878952Y-65217833D01*
X158831333Y-65313071D01*
X158831333Y-65503547D01*
X158878952Y-65598785D01*
X158926571Y-65646404D01*
X159021809Y-65694023D01*
%TO.C,C22*%
X144629142Y-80970357D02*
X144676761Y-81017976D01*
X144724380Y-81160833D01*
X144724380Y-81256071D01*
X144676761Y-81398928D01*
X144581523Y-81494166D01*
X144486285Y-81541785D01*
X144295809Y-81589404D01*
X144152952Y-81589404D01*
X143962476Y-81541785D01*
X143867238Y-81494166D01*
X143772000Y-81398928D01*
X143724380Y-81256071D01*
X143724380Y-81160833D01*
X143772000Y-81017976D01*
X143819619Y-80970357D01*
X143819619Y-80589404D02*
X143772000Y-80541785D01*
X143724380Y-80446547D01*
X143724380Y-80208452D01*
X143772000Y-80113214D01*
X143819619Y-80065595D01*
X143914857Y-80017976D01*
X144010095Y-80017976D01*
X144152952Y-80065595D01*
X144724380Y-80637023D01*
X144724380Y-80017976D01*
X143819619Y-79637023D02*
X143772000Y-79589404D01*
X143724380Y-79494166D01*
X143724380Y-79256071D01*
X143772000Y-79160833D01*
X143819619Y-79113214D01*
X143914857Y-79065595D01*
X144010095Y-79065595D01*
X144152952Y-79113214D01*
X144724380Y-79684642D01*
X144724380Y-79065595D01*
%TO.C,C16*%
X165854142Y-112032142D02*
X165806523Y-112079761D01*
X165663666Y-112127380D01*
X165568428Y-112127380D01*
X165425571Y-112079761D01*
X165330333Y-111984523D01*
X165282714Y-111889285D01*
X165235095Y-111698809D01*
X165235095Y-111555952D01*
X165282714Y-111365476D01*
X165330333Y-111270238D01*
X165425571Y-111175000D01*
X165568428Y-111127380D01*
X165663666Y-111127380D01*
X165806523Y-111175000D01*
X165854142Y-111222619D01*
X166806523Y-112127380D02*
X166235095Y-112127380D01*
X166520809Y-112127380D02*
X166520809Y-111127380D01*
X166425571Y-111270238D01*
X166330333Y-111365476D01*
X166235095Y-111413095D01*
X167663666Y-111127380D02*
X167473190Y-111127380D01*
X167377952Y-111175000D01*
X167330333Y-111222619D01*
X167235095Y-111365476D01*
X167187476Y-111555952D01*
X167187476Y-111936904D01*
X167235095Y-112032142D01*
X167282714Y-112079761D01*
X167377952Y-112127380D01*
X167568428Y-112127380D01*
X167663666Y-112079761D01*
X167711285Y-112032142D01*
X167758904Y-111936904D01*
X167758904Y-111698809D01*
X167711285Y-111603571D01*
X167663666Y-111555952D01*
X167568428Y-111508333D01*
X167377952Y-111508333D01*
X167282714Y-111555952D01*
X167235095Y-111603571D01*
X167187476Y-111698809D01*
%TO.C,C15*%
X165346142Y-105640142D02*
X165298523Y-105687761D01*
X165155666Y-105735380D01*
X165060428Y-105735380D01*
X164917571Y-105687761D01*
X164822333Y-105592523D01*
X164774714Y-105497285D01*
X164727095Y-105306809D01*
X164727095Y-105163952D01*
X164774714Y-104973476D01*
X164822333Y-104878238D01*
X164917571Y-104783000D01*
X165060428Y-104735380D01*
X165155666Y-104735380D01*
X165298523Y-104783000D01*
X165346142Y-104830619D01*
X166298523Y-105735380D02*
X165727095Y-105735380D01*
X166012809Y-105735380D02*
X166012809Y-104735380D01*
X165917571Y-104878238D01*
X165822333Y-104973476D01*
X165727095Y-105021095D01*
X167203285Y-104735380D02*
X166727095Y-104735380D01*
X166679476Y-105211571D01*
X166727095Y-105163952D01*
X166822333Y-105116333D01*
X167060428Y-105116333D01*
X167155666Y-105163952D01*
X167203285Y-105211571D01*
X167250904Y-105306809D01*
X167250904Y-105544904D01*
X167203285Y-105640142D01*
X167155666Y-105687761D01*
X167060428Y-105735380D01*
X166822333Y-105735380D01*
X166727095Y-105687761D01*
X166679476Y-105640142D01*
%TO.C,J10*%
X96607380Y-51355523D02*
X97321666Y-51355523D01*
X97464523Y-51403142D01*
X97559761Y-51498380D01*
X97607380Y-51641238D01*
X97607380Y-51736476D01*
X97607380Y-50355523D02*
X97607380Y-50926952D01*
X97607380Y-50641238D02*
X96607380Y-50641238D01*
X96750238Y-50736476D01*
X96845476Y-50831714D01*
X96893095Y-50926952D01*
X96607380Y-49736476D02*
X96607380Y-49641238D01*
X96655000Y-49546000D01*
X96702619Y-49498380D01*
X96797857Y-49450761D01*
X96988333Y-49403142D01*
X97226428Y-49403142D01*
X97416904Y-49450761D01*
X97512142Y-49498380D01*
X97559761Y-49546000D01*
X97607380Y-49641238D01*
X97607380Y-49736476D01*
X97559761Y-49831714D01*
X97512142Y-49879333D01*
X97416904Y-49926952D01*
X97226428Y-49974571D01*
X96988333Y-49974571D01*
X96797857Y-49926952D01*
X96702619Y-49879333D01*
X96655000Y-49831714D01*
X96607380Y-49736476D01*
%TO.C,U3*%
X151026880Y-123507404D02*
X151836404Y-123507404D01*
X151931642Y-123459785D01*
X151979261Y-123412166D01*
X152026880Y-123316928D01*
X152026880Y-123126452D01*
X151979261Y-123031214D01*
X151931642Y-122983595D01*
X151836404Y-122935976D01*
X151026880Y-122935976D01*
X151026880Y-122555023D02*
X151026880Y-121935976D01*
X151407833Y-122269309D01*
X151407833Y-122126452D01*
X151455452Y-122031214D01*
X151503071Y-121983595D01*
X151598309Y-121935976D01*
X151836404Y-121935976D01*
X151931642Y-121983595D01*
X151979261Y-122031214D01*
X152026880Y-122126452D01*
X152026880Y-122412166D01*
X151979261Y-122507404D01*
X151931642Y-122555023D01*
%TO.C,U1*%
X152844595Y-92606880D02*
X152844595Y-93416404D01*
X152892214Y-93511642D01*
X152939833Y-93559261D01*
X153035071Y-93606880D01*
X153225547Y-93606880D01*
X153320785Y-93559261D01*
X153368404Y-93511642D01*
X153416023Y-93416404D01*
X153416023Y-92606880D01*
X154416023Y-93606880D02*
X153844595Y-93606880D01*
X154130309Y-93606880D02*
X154130309Y-92606880D01*
X154035071Y-92749738D01*
X153939833Y-92844976D01*
X153844595Y-92892595D01*
%TO.C,Y1*%
X119792809Y-66651190D02*
X119792809Y-67127380D01*
X119459476Y-66127380D02*
X119792809Y-66651190D01*
X120126142Y-66127380D01*
X120983285Y-67127380D02*
X120411857Y-67127380D01*
X120697571Y-67127380D02*
X120697571Y-66127380D01*
X120602333Y-66270238D01*
X120507095Y-66365476D01*
X120411857Y-66413095D01*
%TO.C,J1*%
X128401380Y-52403333D02*
X129115666Y-52403333D01*
X129258523Y-52450952D01*
X129353761Y-52546190D01*
X129401380Y-52689047D01*
X129401380Y-52784285D01*
X129401380Y-51403333D02*
X129401380Y-51974761D01*
X129401380Y-51689047D02*
X128401380Y-51689047D01*
X128544238Y-51784285D01*
X128639476Y-51879523D01*
X128687095Y-51974761D01*
X114102523Y-49855380D02*
X114102523Y-48855380D01*
X114483476Y-48855380D01*
X114578714Y-48903000D01*
X114626333Y-48950619D01*
X114673952Y-49045857D01*
X114673952Y-49188714D01*
X114626333Y-49283952D01*
X114578714Y-49331571D01*
X114483476Y-49379190D01*
X114102523Y-49379190D01*
X115102523Y-49855380D02*
X115102523Y-49188714D01*
X115102523Y-49379190D02*
X115150142Y-49283952D01*
X115197761Y-49236333D01*
X115293000Y-49188714D01*
X115388238Y-49188714D01*
X115864428Y-49855380D02*
X115769190Y-49807761D01*
X115721571Y-49760142D01*
X115673952Y-49664904D01*
X115673952Y-49379190D01*
X115721571Y-49283952D01*
X115769190Y-49236333D01*
X115864428Y-49188714D01*
X116007285Y-49188714D01*
X116102523Y-49236333D01*
X116150142Y-49283952D01*
X116197761Y-49379190D01*
X116197761Y-49664904D01*
X116150142Y-49760142D01*
X116102523Y-49807761D01*
X116007285Y-49855380D01*
X115864428Y-49855380D01*
X117054904Y-49188714D02*
X117054904Y-49998238D01*
X117007285Y-50093476D01*
X116959666Y-50141095D01*
X116864428Y-50188714D01*
X116721571Y-50188714D01*
X116626333Y-50141095D01*
X117054904Y-49807761D02*
X116959666Y-49855380D01*
X116769190Y-49855380D01*
X116673952Y-49807761D01*
X116626333Y-49760142D01*
X116578714Y-49664904D01*
X116578714Y-49379190D01*
X116626333Y-49283952D01*
X116673952Y-49236333D01*
X116769190Y-49188714D01*
X116959666Y-49188714D01*
X117054904Y-49236333D01*
X117531095Y-49855380D02*
X117531095Y-49188714D01*
X117531095Y-49379190D02*
X117578714Y-49283952D01*
X117626333Y-49236333D01*
X117721571Y-49188714D01*
X117816809Y-49188714D01*
X118578714Y-49855380D02*
X118578714Y-49331571D01*
X118531095Y-49236333D01*
X118435857Y-49188714D01*
X118245380Y-49188714D01*
X118150142Y-49236333D01*
X118578714Y-49807761D02*
X118483476Y-49855380D01*
X118245380Y-49855380D01*
X118150142Y-49807761D01*
X118102523Y-49712523D01*
X118102523Y-49617285D01*
X118150142Y-49522047D01*
X118245380Y-49474428D01*
X118483476Y-49474428D01*
X118578714Y-49426809D01*
X119054904Y-49855380D02*
X119054904Y-49188714D01*
X119054904Y-49283952D02*
X119102523Y-49236333D01*
X119197761Y-49188714D01*
X119340619Y-49188714D01*
X119435857Y-49236333D01*
X119483476Y-49331571D01*
X119483476Y-49855380D01*
X119483476Y-49331571D02*
X119531095Y-49236333D01*
X119626333Y-49188714D01*
X119769190Y-49188714D01*
X119864428Y-49236333D01*
X119912047Y-49331571D01*
X119912047Y-49855380D01*
X120388238Y-49855380D02*
X120388238Y-49188714D01*
X120388238Y-49283952D02*
X120435857Y-49236333D01*
X120531095Y-49188714D01*
X120673952Y-49188714D01*
X120769190Y-49236333D01*
X120816809Y-49331571D01*
X120816809Y-49855380D01*
X120816809Y-49331571D02*
X120864428Y-49236333D01*
X120959666Y-49188714D01*
X121102523Y-49188714D01*
X121197761Y-49236333D01*
X121245380Y-49331571D01*
X121245380Y-49855380D01*
X121721571Y-49855380D02*
X121721571Y-49188714D01*
X121721571Y-48855380D02*
X121673952Y-48903000D01*
X121721571Y-48950619D01*
X121769190Y-48903000D01*
X121721571Y-48855380D01*
X121721571Y-48950619D01*
X122197761Y-49188714D02*
X122197761Y-49855380D01*
X122197761Y-49283952D02*
X122245380Y-49236333D01*
X122340619Y-49188714D01*
X122483476Y-49188714D01*
X122578714Y-49236333D01*
X122626333Y-49331571D01*
X122626333Y-49855380D01*
X123531095Y-49188714D02*
X123531095Y-49998238D01*
X123483476Y-50093476D01*
X123435857Y-50141095D01*
X123340619Y-50188714D01*
X123197761Y-50188714D01*
X123102523Y-50141095D01*
X123531095Y-49807761D02*
X123435857Y-49855380D01*
X123245380Y-49855380D01*
X123150142Y-49807761D01*
X123102523Y-49760142D01*
X123054904Y-49664904D01*
X123054904Y-49379190D01*
X123102523Y-49283952D01*
X123150142Y-49236333D01*
X123245380Y-49188714D01*
X123435857Y-49188714D01*
X123531095Y-49236333D01*
X124769190Y-49855380D02*
X124769190Y-48855380D01*
X124769190Y-49331571D02*
X125340619Y-49331571D01*
X125340619Y-49855380D02*
X125340619Y-48855380D01*
X126197761Y-49807761D02*
X126102523Y-49855380D01*
X125912047Y-49855380D01*
X125816809Y-49807761D01*
X125769190Y-49712523D01*
X125769190Y-49331571D01*
X125816809Y-49236333D01*
X125912047Y-49188714D01*
X126102523Y-49188714D01*
X126197761Y-49236333D01*
X126245380Y-49331571D01*
X126245380Y-49426809D01*
X125769190Y-49522047D01*
X127102523Y-49855380D02*
X127102523Y-49331571D01*
X127054904Y-49236333D01*
X126959666Y-49188714D01*
X126769190Y-49188714D01*
X126673952Y-49236333D01*
X127102523Y-49807761D02*
X127007285Y-49855380D01*
X126769190Y-49855380D01*
X126673952Y-49807761D01*
X126626333Y-49712523D01*
X126626333Y-49617285D01*
X126673952Y-49522047D01*
X126769190Y-49474428D01*
X127007285Y-49474428D01*
X127102523Y-49426809D01*
X128007285Y-49855380D02*
X128007285Y-48855380D01*
X128007285Y-49807761D02*
X127912047Y-49855380D01*
X127721571Y-49855380D01*
X127626333Y-49807761D01*
X127578714Y-49760142D01*
X127531095Y-49664904D01*
X127531095Y-49379190D01*
X127578714Y-49283952D01*
X127626333Y-49236333D01*
X127721571Y-49188714D01*
X127912047Y-49188714D01*
X128007285Y-49236333D01*
X128864428Y-49807761D02*
X128769190Y-49855380D01*
X128578714Y-49855380D01*
X128483476Y-49807761D01*
X128435857Y-49712523D01*
X128435857Y-49331571D01*
X128483476Y-49236333D01*
X128578714Y-49188714D01*
X128769190Y-49188714D01*
X128864428Y-49236333D01*
X128912047Y-49331571D01*
X128912047Y-49426809D01*
X128435857Y-49522047D01*
X129340619Y-49855380D02*
X129340619Y-49188714D01*
X129340619Y-49379190D02*
X129388238Y-49283952D01*
X129435857Y-49236333D01*
X129531095Y-49188714D01*
X129626333Y-49188714D01*
%TO.C,C4*%
X173124833Y-119419642D02*
X173077214Y-119467261D01*
X172934357Y-119514880D01*
X172839119Y-119514880D01*
X172696261Y-119467261D01*
X172601023Y-119372023D01*
X172553404Y-119276785D01*
X172505785Y-119086309D01*
X172505785Y-118943452D01*
X172553404Y-118752976D01*
X172601023Y-118657738D01*
X172696261Y-118562500D01*
X172839119Y-118514880D01*
X172934357Y-118514880D01*
X173077214Y-118562500D01*
X173124833Y-118610119D01*
X173981976Y-118848214D02*
X173981976Y-119514880D01*
X173743880Y-118467261D02*
X173505785Y-119181547D01*
X174124833Y-119181547D01*
%TO.C,R19*%
X101338142Y-88082380D02*
X101004809Y-87606190D01*
X100766714Y-88082380D02*
X100766714Y-87082380D01*
X101147666Y-87082380D01*
X101242904Y-87130000D01*
X101290523Y-87177619D01*
X101338142Y-87272857D01*
X101338142Y-87415714D01*
X101290523Y-87510952D01*
X101242904Y-87558571D01*
X101147666Y-87606190D01*
X100766714Y-87606190D01*
X102290523Y-88082380D02*
X101719095Y-88082380D01*
X102004809Y-88082380D02*
X102004809Y-87082380D01*
X101909571Y-87225238D01*
X101814333Y-87320476D01*
X101719095Y-87368095D01*
X102766714Y-88082380D02*
X102957190Y-88082380D01*
X103052428Y-88034761D01*
X103100047Y-87987142D01*
X103195285Y-87844285D01*
X103242904Y-87653809D01*
X103242904Y-87272857D01*
X103195285Y-87177619D01*
X103147666Y-87130000D01*
X103052428Y-87082380D01*
X102861952Y-87082380D01*
X102766714Y-87130000D01*
X102719095Y-87177619D01*
X102671476Y-87272857D01*
X102671476Y-87510952D01*
X102719095Y-87606190D01*
X102766714Y-87653809D01*
X102861952Y-87701428D01*
X103052428Y-87701428D01*
X103147666Y-87653809D01*
X103195285Y-87606190D01*
X103242904Y-87510952D01*
%TO.C,L2*%
X160345380Y-69889666D02*
X160345380Y-70365857D01*
X159345380Y-70365857D01*
X159440619Y-69603952D02*
X159393000Y-69556333D01*
X159345380Y-69461095D01*
X159345380Y-69223000D01*
X159393000Y-69127761D01*
X159440619Y-69080142D01*
X159535857Y-69032523D01*
X159631095Y-69032523D01*
X159773952Y-69080142D01*
X160345380Y-69651571D01*
X160345380Y-69032523D01*
%TO.C,R2*%
X150058380Y-65889166D02*
X149582190Y-66222500D01*
X150058380Y-66460595D02*
X149058380Y-66460595D01*
X149058380Y-66079642D01*
X149106000Y-65984404D01*
X149153619Y-65936785D01*
X149248857Y-65889166D01*
X149391714Y-65889166D01*
X149486952Y-65936785D01*
X149534571Y-65984404D01*
X149582190Y-66079642D01*
X149582190Y-66460595D01*
X149153619Y-65508214D02*
X149106000Y-65460595D01*
X149058380Y-65365357D01*
X149058380Y-65127261D01*
X149106000Y-65032023D01*
X149153619Y-64984404D01*
X149248857Y-64936785D01*
X149344095Y-64936785D01*
X149486952Y-64984404D01*
X150058380Y-65555833D01*
X150058380Y-64936785D01*
%TO.C,D7*%
X167139880Y-83986595D02*
X166139880Y-83986595D01*
X166139880Y-83748500D01*
X166187500Y-83605642D01*
X166282738Y-83510404D01*
X166377976Y-83462785D01*
X166568452Y-83415166D01*
X166711309Y-83415166D01*
X166901785Y-83462785D01*
X166997023Y-83510404D01*
X167092261Y-83605642D01*
X167139880Y-83748500D01*
X167139880Y-83986595D01*
X166139880Y-83081833D02*
X166139880Y-82415166D01*
X167139880Y-82843738D01*
%TO.C,J6*%
X158583380Y-57991333D02*
X159297666Y-57991333D01*
X159440523Y-58038952D01*
X159535761Y-58134190D01*
X159583380Y-58277047D01*
X159583380Y-58372285D01*
X158583380Y-57086571D02*
X158583380Y-57277047D01*
X158631000Y-57372285D01*
X158678619Y-57419904D01*
X158821476Y-57515142D01*
X159011952Y-57562761D01*
X159392904Y-57562761D01*
X159488142Y-57515142D01*
X159535761Y-57467523D01*
X159583380Y-57372285D01*
X159583380Y-57181809D01*
X159535761Y-57086571D01*
X159488142Y-57038952D01*
X159392904Y-56991333D01*
X159154809Y-56991333D01*
X159059571Y-57038952D01*
X159011952Y-57086571D01*
X158964333Y-57181809D01*
X158964333Y-57372285D01*
X159011952Y-57467523D01*
X159059571Y-57515142D01*
X159154809Y-57562761D01*
X159059571Y-55189190D02*
X159107190Y-55046333D01*
X159154809Y-54998714D01*
X159250047Y-54951095D01*
X159392904Y-54951095D01*
X159488142Y-54998714D01*
X159535761Y-55046333D01*
X159583380Y-55141571D01*
X159583380Y-55522523D01*
X158583380Y-55522523D01*
X158583380Y-55189190D01*
X158631000Y-55093952D01*
X158678619Y-55046333D01*
X158773857Y-54998714D01*
X158869095Y-54998714D01*
X158964333Y-55046333D01*
X159011952Y-55093952D01*
X159059571Y-55189190D01*
X159059571Y-55522523D01*
X159297666Y-54570142D02*
X159297666Y-54093952D01*
X159583380Y-54665380D02*
X158583380Y-54332047D01*
X159583380Y-53998714D01*
X158583380Y-53808238D02*
X158583380Y-53236809D01*
X159583380Y-53522523D02*
X158583380Y-53522523D01*
X158583380Y-53046333D02*
X158583380Y-52474904D01*
X159583380Y-52760619D02*
X158583380Y-52760619D01*
X159678619Y-52379666D02*
X159678619Y-51617761D01*
X158916714Y-50951095D02*
X159583380Y-50951095D01*
X158535761Y-51189190D02*
X159250047Y-51427285D01*
X159250047Y-50808238D01*
%TO.C,J5*%
X149744180Y-58245333D02*
X150458466Y-58245333D01*
X150601323Y-58292952D01*
X150696561Y-58388190D01*
X150744180Y-58531047D01*
X150744180Y-58626285D01*
X149744180Y-57292952D02*
X149744180Y-57769142D01*
X150220371Y-57816761D01*
X150172752Y-57769142D01*
X150125133Y-57673904D01*
X150125133Y-57435809D01*
X150172752Y-57340571D01*
X150220371Y-57292952D01*
X150315609Y-57245333D01*
X150553704Y-57245333D01*
X150648942Y-57292952D01*
X150696561Y-57340571D01*
X150744180Y-57435809D01*
X150744180Y-57673904D01*
X150696561Y-57769142D01*
X150648942Y-57816761D01*
X150220371Y-55316190D02*
X150267990Y-55173333D01*
X150315609Y-55125714D01*
X150410847Y-55078095D01*
X150553704Y-55078095D01*
X150648942Y-55125714D01*
X150696561Y-55173333D01*
X150744180Y-55268571D01*
X150744180Y-55649523D01*
X149744180Y-55649523D01*
X149744180Y-55316190D01*
X149791800Y-55220952D01*
X149839419Y-55173333D01*
X149934657Y-55125714D01*
X150029895Y-55125714D01*
X150125133Y-55173333D01*
X150172752Y-55220952D01*
X150220371Y-55316190D01*
X150220371Y-55649523D01*
X150458466Y-54697142D02*
X150458466Y-54220952D01*
X150744180Y-54792380D02*
X149744180Y-54459047D01*
X150744180Y-54125714D01*
X149744180Y-53935238D02*
X149744180Y-53363809D01*
X150744180Y-53649523D02*
X149744180Y-53649523D01*
X149744180Y-53173333D02*
X149744180Y-52601904D01*
X150744180Y-52887619D02*
X149744180Y-52887619D01*
X150839419Y-52506666D02*
X150839419Y-51744761D01*
X149744180Y-51601904D02*
X149744180Y-50982857D01*
X150125133Y-51316190D01*
X150125133Y-51173333D01*
X150172752Y-51078095D01*
X150220371Y-51030476D01*
X150315609Y-50982857D01*
X150553704Y-50982857D01*
X150648942Y-51030476D01*
X150696561Y-51078095D01*
X150744180Y-51173333D01*
X150744180Y-51459047D01*
X150696561Y-51554285D01*
X150648942Y-51601904D01*
%TO.C,J4*%
X140549380Y-58118333D02*
X141263666Y-58118333D01*
X141406523Y-58165952D01*
X141501761Y-58261190D01*
X141549380Y-58404047D01*
X141549380Y-58499285D01*
X140882714Y-57213571D02*
X141549380Y-57213571D01*
X140501761Y-57451666D02*
X141216047Y-57689761D01*
X141216047Y-57070714D01*
X141025571Y-55189190D02*
X141073190Y-55046333D01*
X141120809Y-54998714D01*
X141216047Y-54951095D01*
X141358904Y-54951095D01*
X141454142Y-54998714D01*
X141501761Y-55046333D01*
X141549380Y-55141571D01*
X141549380Y-55522523D01*
X140549380Y-55522523D01*
X140549380Y-55189190D01*
X140597000Y-55093952D01*
X140644619Y-55046333D01*
X140739857Y-54998714D01*
X140835095Y-54998714D01*
X140930333Y-55046333D01*
X140977952Y-55093952D01*
X141025571Y-55189190D01*
X141025571Y-55522523D01*
X141263666Y-54570142D02*
X141263666Y-54093952D01*
X141549380Y-54665380D02*
X140549380Y-54332047D01*
X141549380Y-53998714D01*
X140549380Y-53808238D02*
X140549380Y-53236809D01*
X141549380Y-53522523D02*
X140549380Y-53522523D01*
X140549380Y-53046333D02*
X140549380Y-52474904D01*
X141549380Y-52760619D02*
X140549380Y-52760619D01*
X141644619Y-52379666D02*
X141644619Y-51617761D01*
X140644619Y-51427285D02*
X140597000Y-51379666D01*
X140549380Y-51284428D01*
X140549380Y-51046333D01*
X140597000Y-50951095D01*
X140644619Y-50903476D01*
X140739857Y-50855857D01*
X140835095Y-50855857D01*
X140977952Y-50903476D01*
X141549380Y-51474904D01*
X141549380Y-50855857D01*
%TO.C,J3*%
X130744980Y-58296133D02*
X131459266Y-58296133D01*
X131602123Y-58343752D01*
X131697361Y-58438990D01*
X131744980Y-58581847D01*
X131744980Y-58677085D01*
X130744980Y-57915180D02*
X130744980Y-57296133D01*
X131125933Y-57629466D01*
X131125933Y-57486609D01*
X131173552Y-57391371D01*
X131221171Y-57343752D01*
X131316409Y-57296133D01*
X131554504Y-57296133D01*
X131649742Y-57343752D01*
X131697361Y-57391371D01*
X131744980Y-57486609D01*
X131744980Y-57772323D01*
X131697361Y-57867561D01*
X131649742Y-57915180D01*
X131373571Y-55062190D02*
X131421190Y-54919333D01*
X131468809Y-54871714D01*
X131564047Y-54824095D01*
X131706904Y-54824095D01*
X131802142Y-54871714D01*
X131849761Y-54919333D01*
X131897380Y-55014571D01*
X131897380Y-55395523D01*
X130897380Y-55395523D01*
X130897380Y-55062190D01*
X130945000Y-54966952D01*
X130992619Y-54919333D01*
X131087857Y-54871714D01*
X131183095Y-54871714D01*
X131278333Y-54919333D01*
X131325952Y-54966952D01*
X131373571Y-55062190D01*
X131373571Y-55395523D01*
X131611666Y-54443142D02*
X131611666Y-53966952D01*
X131897380Y-54538380D02*
X130897380Y-54205047D01*
X131897380Y-53871714D01*
X130897380Y-53681238D02*
X130897380Y-53109809D01*
X131897380Y-53395523D02*
X130897380Y-53395523D01*
X130897380Y-52919333D02*
X130897380Y-52347904D01*
X131897380Y-52633619D02*
X130897380Y-52633619D01*
X131992619Y-52252666D02*
X131992619Y-51490761D01*
X131897380Y-50728857D02*
X131897380Y-51300285D01*
X131897380Y-51014571D02*
X130897380Y-51014571D01*
X131040238Y-51109809D01*
X131135476Y-51205047D01*
X131183095Y-51300285D01*
%TO.C,U6*%
X155408380Y-104647904D02*
X156217904Y-104647904D01*
X156313142Y-104600285D01*
X156360761Y-104552666D01*
X156408380Y-104457428D01*
X156408380Y-104266952D01*
X156360761Y-104171714D01*
X156313142Y-104124095D01*
X156217904Y-104076476D01*
X155408380Y-104076476D01*
X155408380Y-103171714D02*
X155408380Y-103362190D01*
X155456000Y-103457428D01*
X155503619Y-103505047D01*
X155646476Y-103600285D01*
X155836952Y-103647904D01*
X156217904Y-103647904D01*
X156313142Y-103600285D01*
X156360761Y-103552666D01*
X156408380Y-103457428D01*
X156408380Y-103266952D01*
X156360761Y-103171714D01*
X156313142Y-103124095D01*
X156217904Y-103076476D01*
X155979809Y-103076476D01*
X155884571Y-103124095D01*
X155836952Y-103171714D01*
X155789333Y-103266952D01*
X155789333Y-103457428D01*
X155836952Y-103552666D01*
X155884571Y-103600285D01*
X155979809Y-103647904D01*
X161758380Y-100965000D02*
X161996476Y-100965000D01*
X161901238Y-101203095D02*
X161996476Y-100965000D01*
X161901238Y-100726904D01*
X162186952Y-101107857D02*
X161996476Y-100965000D01*
X162186952Y-100822142D01*
%TO.C,R41*%
X150741142Y-70048380D02*
X150407809Y-69572190D01*
X150169714Y-70048380D02*
X150169714Y-69048380D01*
X150550666Y-69048380D01*
X150645904Y-69096000D01*
X150693523Y-69143619D01*
X150741142Y-69238857D01*
X150741142Y-69381714D01*
X150693523Y-69476952D01*
X150645904Y-69524571D01*
X150550666Y-69572190D01*
X150169714Y-69572190D01*
X151598285Y-69381714D02*
X151598285Y-70048380D01*
X151360190Y-69000761D02*
X151122095Y-69715047D01*
X151741142Y-69715047D01*
X152645904Y-70048380D02*
X152074476Y-70048380D01*
X152360190Y-70048380D02*
X152360190Y-69048380D01*
X152264952Y-69191238D01*
X152169714Y-69286476D01*
X152074476Y-69334095D01*
%TO.C,L1*%
X167901880Y-100687166D02*
X167901880Y-101163357D01*
X166901880Y-101163357D01*
X167901880Y-99830023D02*
X167901880Y-100401452D01*
X167901880Y-100115738D02*
X166901880Y-100115738D01*
X167044738Y-100210976D01*
X167139976Y-100306214D01*
X167187595Y-100401452D01*
%TO.C,C25*%
X155630642Y-69953142D02*
X155583023Y-70000761D01*
X155440166Y-70048380D01*
X155344928Y-70048380D01*
X155202071Y-70000761D01*
X155106833Y-69905523D01*
X155059214Y-69810285D01*
X155011595Y-69619809D01*
X155011595Y-69476952D01*
X155059214Y-69286476D01*
X155106833Y-69191238D01*
X155202071Y-69096000D01*
X155344928Y-69048380D01*
X155440166Y-69048380D01*
X155583023Y-69096000D01*
X155630642Y-69143619D01*
X156011595Y-69143619D02*
X156059214Y-69096000D01*
X156154452Y-69048380D01*
X156392547Y-69048380D01*
X156487785Y-69096000D01*
X156535404Y-69143619D01*
X156583023Y-69238857D01*
X156583023Y-69334095D01*
X156535404Y-69476952D01*
X155963976Y-70048380D01*
X156583023Y-70048380D01*
X157487785Y-69048380D02*
X157011595Y-69048380D01*
X156963976Y-69524571D01*
X157011595Y-69476952D01*
X157106833Y-69429333D01*
X157344928Y-69429333D01*
X157440166Y-69476952D01*
X157487785Y-69524571D01*
X157535404Y-69619809D01*
X157535404Y-69857904D01*
X157487785Y-69953142D01*
X157440166Y-70000761D01*
X157344928Y-70048380D01*
X157106833Y-70048380D01*
X157011595Y-70000761D01*
X156963976Y-69953142D01*
%TO.C,C24*%
X162917142Y-83764357D02*
X162964761Y-83811976D01*
X163012380Y-83954833D01*
X163012380Y-84050071D01*
X162964761Y-84192928D01*
X162869523Y-84288166D01*
X162774285Y-84335785D01*
X162583809Y-84383404D01*
X162440952Y-84383404D01*
X162250476Y-84335785D01*
X162155238Y-84288166D01*
X162060000Y-84192928D01*
X162012380Y-84050071D01*
X162012380Y-83954833D01*
X162060000Y-83811976D01*
X162107619Y-83764357D01*
X162107619Y-83383404D02*
X162060000Y-83335785D01*
X162012380Y-83240547D01*
X162012380Y-83002452D01*
X162060000Y-82907214D01*
X162107619Y-82859595D01*
X162202857Y-82811976D01*
X162298095Y-82811976D01*
X162440952Y-82859595D01*
X163012380Y-83431023D01*
X163012380Y-82811976D01*
X162345714Y-81954833D02*
X163012380Y-81954833D01*
X161964761Y-82192928D02*
X162679047Y-82431023D01*
X162679047Y-81811976D01*
%TO.C,J9*%
X144319666Y-115403380D02*
X144319666Y-116117666D01*
X144272047Y-116260523D01*
X144176809Y-116355761D01*
X144033952Y-116403380D01*
X143938714Y-116403380D01*
X144843476Y-116403380D02*
X145033952Y-116403380D01*
X145129190Y-116355761D01*
X145176809Y-116308142D01*
X145272047Y-116165285D01*
X145319666Y-115974809D01*
X145319666Y-115593857D01*
X145272047Y-115498619D01*
X145224428Y-115451000D01*
X145129190Y-115403380D01*
X144938714Y-115403380D01*
X144843476Y-115451000D01*
X144795857Y-115498619D01*
X144748238Y-115593857D01*
X144748238Y-115831952D01*
X144795857Y-115927190D01*
X144843476Y-115974809D01*
X144938714Y-116022428D01*
X145129190Y-116022428D01*
X145224428Y-115974809D01*
X145272047Y-115927190D01*
X145319666Y-115831952D01*
D14*
X142517761Y-123046619D02*
X142565380Y-122903761D01*
X142565380Y-122665666D01*
X142517761Y-122570428D01*
X142470142Y-122522809D01*
X142374904Y-122475190D01*
X142279666Y-122475190D01*
X142184428Y-122522809D01*
X142136809Y-122570428D01*
X142089190Y-122665666D01*
X142041571Y-122856142D01*
X141993952Y-122951380D01*
X141946333Y-122999000D01*
X141851095Y-123046619D01*
X141755857Y-123046619D01*
X141660619Y-122999000D01*
X141613000Y-122951380D01*
X141565380Y-122856142D01*
X141565380Y-122618047D01*
X141613000Y-122475190D01*
X142565380Y-122046619D02*
X141565380Y-122046619D01*
X142565380Y-121570428D02*
X141565380Y-121570428D01*
X141565380Y-121189476D01*
X141613000Y-121094238D01*
X141660619Y-121046619D01*
X141755857Y-120999000D01*
X141898714Y-120999000D01*
X141993952Y-121046619D01*
X142041571Y-121094238D01*
X142089190Y-121189476D01*
X142089190Y-121570428D01*
X142565380Y-120570428D02*
X141565380Y-120570428D01*
X142279666Y-120237095D01*
X141565380Y-119903761D01*
X142565380Y-119903761D01*
X142660619Y-119665666D02*
X142660619Y-118903761D01*
X142470142Y-118094238D02*
X142517761Y-118141857D01*
X142565380Y-118284714D01*
X142565380Y-118379952D01*
X142517761Y-118522809D01*
X142422523Y-118618047D01*
X142327285Y-118665666D01*
X142136809Y-118713285D01*
X141993952Y-118713285D01*
X141803476Y-118665666D01*
X141708238Y-118618047D01*
X141613000Y-118522809D01*
X141565380Y-118379952D01*
X141565380Y-118284714D01*
X141613000Y-118141857D01*
X141660619Y-118094238D01*
X141565380Y-117475190D02*
X141565380Y-117284714D01*
X141613000Y-117189476D01*
X141708238Y-117094238D01*
X141898714Y-117046619D01*
X142232047Y-117046619D01*
X142422523Y-117094238D01*
X142517761Y-117189476D01*
X142565380Y-117284714D01*
X142565380Y-117475190D01*
X142517761Y-117570428D01*
X142422523Y-117665666D01*
X142232047Y-117713285D01*
X141898714Y-117713285D01*
X141708238Y-117665666D01*
X141613000Y-117570428D01*
X141565380Y-117475190D01*
X142565380Y-116618047D02*
X141565380Y-116618047D01*
X142565380Y-116046619D01*
X141565380Y-116046619D01*
X142565380Y-115570428D02*
X141565380Y-115570428D01*
X142565380Y-114999000D01*
X141565380Y-114999000D01*
%TO.C,U4*%
D10*
X93472095Y-57364380D02*
X93472095Y-58173904D01*
X93519714Y-58269142D01*
X93567333Y-58316761D01*
X93662571Y-58364380D01*
X93853047Y-58364380D01*
X93948285Y-58316761D01*
X93995904Y-58269142D01*
X94043523Y-58173904D01*
X94043523Y-57364380D01*
X94948285Y-57697714D02*
X94948285Y-58364380D01*
X94710190Y-57316761D02*
X94472095Y-58031047D01*
X95091142Y-58031047D01*
%TO.C,U2*%
X168656095Y-118387880D02*
X168656095Y-119197404D01*
X168703714Y-119292642D01*
X168751333Y-119340261D01*
X168846571Y-119387880D01*
X169037047Y-119387880D01*
X169132285Y-119340261D01*
X169179904Y-119292642D01*
X169227523Y-119197404D01*
X169227523Y-118387880D01*
X169656095Y-118483119D02*
X169703714Y-118435500D01*
X169798952Y-118387880D01*
X170037047Y-118387880D01*
X170132285Y-118435500D01*
X170179904Y-118483119D01*
X170227523Y-118578357D01*
X170227523Y-118673595D01*
X170179904Y-118816452D01*
X169608476Y-119387880D01*
X170227523Y-119387880D01*
%TO.C,JP2*%
X136136166Y-72159880D02*
X136136166Y-72874166D01*
X136088547Y-73017023D01*
X135993309Y-73112261D01*
X135850452Y-73159880D01*
X135755214Y-73159880D01*
X136612357Y-73159880D02*
X136612357Y-72159880D01*
X136993309Y-72159880D01*
X137088547Y-72207500D01*
X137136166Y-72255119D01*
X137183785Y-72350357D01*
X137183785Y-72493214D01*
X137136166Y-72588452D01*
X137088547Y-72636071D01*
X136993309Y-72683690D01*
X136612357Y-72683690D01*
X137564738Y-72255119D02*
X137612357Y-72207500D01*
X137707595Y-72159880D01*
X137945690Y-72159880D01*
X138040928Y-72207500D01*
X138088547Y-72255119D01*
X138136166Y-72350357D01*
X138136166Y-72445595D01*
X138088547Y-72588452D01*
X137517119Y-73159880D01*
X138136166Y-73159880D01*
X133754880Y-71945023D02*
X133754880Y-71373595D01*
X134754880Y-71659309D02*
X133754880Y-71659309D01*
X134231071Y-71040261D02*
X134231071Y-70706928D01*
X134754880Y-70564071D02*
X134754880Y-71040261D01*
X133754880Y-71040261D01*
X133754880Y-70564071D01*
X134707261Y-70183119D02*
X134754880Y-70040261D01*
X134754880Y-69802166D01*
X134707261Y-69706928D01*
X134659642Y-69659309D01*
X134564404Y-69611690D01*
X134469166Y-69611690D01*
X134373928Y-69659309D01*
X134326309Y-69706928D01*
X134278690Y-69802166D01*
X134231071Y-69992642D01*
X134183452Y-70087880D01*
X134135833Y-70135500D01*
X134040595Y-70183119D01*
X133945357Y-70183119D01*
X133850119Y-70135500D01*
X133802500Y-70087880D01*
X133754880Y-69992642D01*
X133754880Y-69754547D01*
X133802500Y-69611690D01*
X133754880Y-69325976D02*
X133754880Y-68754547D01*
X134754880Y-69040261D02*
X133754880Y-69040261D01*
X133707261Y-67706928D02*
X134992976Y-68564071D01*
X134231071Y-67040261D02*
X134278690Y-66897404D01*
X134326309Y-66849785D01*
X134421547Y-66802166D01*
X134564404Y-66802166D01*
X134659642Y-66849785D01*
X134707261Y-66897404D01*
X134754880Y-66992642D01*
X134754880Y-67373595D01*
X133754880Y-67373595D01*
X133754880Y-67040261D01*
X133802500Y-66945023D01*
X133850119Y-66897404D01*
X133945357Y-66849785D01*
X134040595Y-66849785D01*
X134135833Y-66897404D01*
X134183452Y-66945023D01*
X134231071Y-67040261D01*
X134231071Y-67373595D01*
X134469166Y-66421214D02*
X134469166Y-65945023D01*
X134754880Y-66516452D02*
X133754880Y-66183119D01*
X134754880Y-65849785D01*
X133754880Y-65659309D02*
X133754880Y-65087880D01*
X134754880Y-65373595D02*
X133754880Y-65373595D01*
X133754880Y-64897404D02*
X133754880Y-64325976D01*
X134754880Y-64611690D02*
X133754880Y-64611690D01*
%TO.C,J7*%
X136572666Y-82192880D02*
X136572666Y-82907166D01*
X136525047Y-83050023D01*
X136429809Y-83145261D01*
X136286952Y-83192880D01*
X136191714Y-83192880D01*
X136953619Y-82192880D02*
X137620285Y-82192880D01*
X137191714Y-83192880D01*
X133945380Y-82152619D02*
X133945380Y-81581190D01*
X134945380Y-81866904D02*
X133945380Y-81866904D01*
X134421571Y-81247857D02*
X134421571Y-80914523D01*
X134945380Y-80771666D02*
X134945380Y-81247857D01*
X133945380Y-81247857D01*
X133945380Y-80771666D01*
X134897761Y-80390714D02*
X134945380Y-80247857D01*
X134945380Y-80009761D01*
X134897761Y-79914523D01*
X134850142Y-79866904D01*
X134754904Y-79819285D01*
X134659666Y-79819285D01*
X134564428Y-79866904D01*
X134516809Y-79914523D01*
X134469190Y-80009761D01*
X134421571Y-80200238D01*
X134373952Y-80295476D01*
X134326333Y-80343095D01*
X134231095Y-80390714D01*
X134135857Y-80390714D01*
X134040619Y-80343095D01*
X133993000Y-80295476D01*
X133945380Y-80200238D01*
X133945380Y-79962142D01*
X133993000Y-79819285D01*
X133945380Y-79533571D02*
X133945380Y-78962142D01*
X134945380Y-79247857D02*
X133945380Y-79247857D01*
X135040619Y-78866904D02*
X135040619Y-78105000D01*
X134850142Y-77295476D02*
X134897761Y-77343095D01*
X134945380Y-77485952D01*
X134945380Y-77581190D01*
X134897761Y-77724047D01*
X134802523Y-77819285D01*
X134707285Y-77866904D01*
X134516809Y-77914523D01*
X134373952Y-77914523D01*
X134183476Y-77866904D01*
X134088238Y-77819285D01*
X133993000Y-77724047D01*
X133945380Y-77581190D01*
X133945380Y-77485952D01*
X133993000Y-77343095D01*
X134040619Y-77295476D01*
X133945380Y-76676428D02*
X133945380Y-76485952D01*
X133993000Y-76390714D01*
X134088238Y-76295476D01*
X134278714Y-76247857D01*
X134612047Y-76247857D01*
X134802523Y-76295476D01*
X134897761Y-76390714D01*
X134945380Y-76485952D01*
X134945380Y-76676428D01*
X134897761Y-76771666D01*
X134802523Y-76866904D01*
X134612047Y-76914523D01*
X134278714Y-76914523D01*
X134088238Y-76866904D01*
X133993000Y-76771666D01*
X133945380Y-76676428D01*
X134945380Y-75819285D02*
X133945380Y-75819285D01*
X134945380Y-75247857D01*
X133945380Y-75247857D01*
X134945380Y-74771666D02*
X133945380Y-74771666D01*
X134945380Y-74200238D01*
X133945380Y-74200238D01*
%TO.C,D5*%
X131468904Y-98115380D02*
X131468904Y-97115380D01*
X131707000Y-97115380D01*
X131849857Y-97163000D01*
X131945095Y-97258238D01*
X131992714Y-97353476D01*
X132040333Y-97543952D01*
X132040333Y-97686809D01*
X131992714Y-97877285D01*
X131945095Y-97972523D01*
X131849857Y-98067761D01*
X131707000Y-98115380D01*
X131468904Y-98115380D01*
X132945095Y-97115380D02*
X132468904Y-97115380D01*
X132421285Y-97591571D01*
X132468904Y-97543952D01*
X132564142Y-97496333D01*
X132802238Y-97496333D01*
X132897476Y-97543952D01*
X132945095Y-97591571D01*
X132992714Y-97686809D01*
X132992714Y-97924904D01*
X132945095Y-98020142D01*
X132897476Y-98067761D01*
X132802238Y-98115380D01*
X132564142Y-98115380D01*
X132468904Y-98067761D01*
X132421285Y-98020142D01*
%TO.C,D4*%
X131468904Y-87955380D02*
X131468904Y-86955380D01*
X131707000Y-86955380D01*
X131849857Y-87003000D01*
X131945095Y-87098238D01*
X131992714Y-87193476D01*
X132040333Y-87383952D01*
X132040333Y-87526809D01*
X131992714Y-87717285D01*
X131945095Y-87812523D01*
X131849857Y-87907761D01*
X131707000Y-87955380D01*
X131468904Y-87955380D01*
X132897476Y-87288714D02*
X132897476Y-87955380D01*
X132659380Y-86907761D02*
X132421285Y-87622047D01*
X133040333Y-87622047D01*
%TO.C,D3*%
X131468904Y-93035380D02*
X131468904Y-92035380D01*
X131707000Y-92035380D01*
X131849857Y-92083000D01*
X131945095Y-92178238D01*
X131992714Y-92273476D01*
X132040333Y-92463952D01*
X132040333Y-92606809D01*
X131992714Y-92797285D01*
X131945095Y-92892523D01*
X131849857Y-92987761D01*
X131707000Y-93035380D01*
X131468904Y-93035380D01*
X132373666Y-92035380D02*
X132992714Y-92035380D01*
X132659380Y-92416333D01*
X132802238Y-92416333D01*
X132897476Y-92463952D01*
X132945095Y-92511571D01*
X132992714Y-92606809D01*
X132992714Y-92844904D01*
X132945095Y-92940142D01*
X132897476Y-92987761D01*
X132802238Y-93035380D01*
X132516523Y-93035380D01*
X132421285Y-92987761D01*
X132373666Y-92940142D01*
%TO.C,D1*%
X172029380Y-106148095D02*
X171029380Y-106148095D01*
X171029380Y-105910000D01*
X171077000Y-105767142D01*
X171172238Y-105671904D01*
X171267476Y-105624285D01*
X171457952Y-105576666D01*
X171600809Y-105576666D01*
X171791285Y-105624285D01*
X171886523Y-105671904D01*
X171981761Y-105767142D01*
X172029380Y-105910000D01*
X172029380Y-106148095D01*
X172029380Y-104624285D02*
X172029380Y-105195714D01*
X172029380Y-104910000D02*
X171029380Y-104910000D01*
X171172238Y-105005238D01*
X171267476Y-105100476D01*
X171315095Y-105195714D01*
%TO.C,TP17*%
X108370904Y-84415380D02*
X108942333Y-84415380D01*
X108656619Y-85415380D02*
X108656619Y-84415380D01*
X109275666Y-85415380D02*
X109275666Y-84415380D01*
X109656619Y-84415380D01*
X109751857Y-84463000D01*
X109799476Y-84510619D01*
X109847095Y-84605857D01*
X109847095Y-84748714D01*
X109799476Y-84843952D01*
X109751857Y-84891571D01*
X109656619Y-84939190D01*
X109275666Y-84939190D01*
X110799476Y-85415380D02*
X110228047Y-85415380D01*
X110513761Y-85415380D02*
X110513761Y-84415380D01*
X110418523Y-84558238D01*
X110323285Y-84653476D01*
X110228047Y-84701095D01*
X111132809Y-84415380D02*
X111799476Y-84415380D01*
X111370904Y-85415380D01*
%TO.C,U14*%
X106453380Y-92297095D02*
X107262904Y-92297095D01*
X107358142Y-92249476D01*
X107405761Y-92201857D01*
X107453380Y-92106619D01*
X107453380Y-91916142D01*
X107405761Y-91820904D01*
X107358142Y-91773285D01*
X107262904Y-91725666D01*
X106453380Y-91725666D01*
X107453380Y-90725666D02*
X107453380Y-91297095D01*
X107453380Y-91011380D02*
X106453380Y-91011380D01*
X106596238Y-91106619D01*
X106691476Y-91201857D01*
X106739095Y-91297095D01*
X106786714Y-89868523D02*
X107453380Y-89868523D01*
X106405761Y-90106619D02*
X107120047Y-90344714D01*
X107120047Y-89725666D01*
%TO.C,R38*%
X117848142Y-96083380D02*
X117514809Y-95607190D01*
X117276714Y-96083380D02*
X117276714Y-95083380D01*
X117657666Y-95083380D01*
X117752904Y-95131000D01*
X117800523Y-95178619D01*
X117848142Y-95273857D01*
X117848142Y-95416714D01*
X117800523Y-95511952D01*
X117752904Y-95559571D01*
X117657666Y-95607190D01*
X117276714Y-95607190D01*
X118181476Y-95083380D02*
X118800523Y-95083380D01*
X118467190Y-95464333D01*
X118610047Y-95464333D01*
X118705285Y-95511952D01*
X118752904Y-95559571D01*
X118800523Y-95654809D01*
X118800523Y-95892904D01*
X118752904Y-95988142D01*
X118705285Y-96035761D01*
X118610047Y-96083380D01*
X118324333Y-96083380D01*
X118229095Y-96035761D01*
X118181476Y-95988142D01*
X119371952Y-95511952D02*
X119276714Y-95464333D01*
X119229095Y-95416714D01*
X119181476Y-95321476D01*
X119181476Y-95273857D01*
X119229095Y-95178619D01*
X119276714Y-95131000D01*
X119371952Y-95083380D01*
X119562428Y-95083380D01*
X119657666Y-95131000D01*
X119705285Y-95178619D01*
X119752904Y-95273857D01*
X119752904Y-95321476D01*
X119705285Y-95416714D01*
X119657666Y-95464333D01*
X119562428Y-95511952D01*
X119371952Y-95511952D01*
X119276714Y-95559571D01*
X119229095Y-95607190D01*
X119181476Y-95702428D01*
X119181476Y-95892904D01*
X119229095Y-95988142D01*
X119276714Y-96035761D01*
X119371952Y-96083380D01*
X119562428Y-96083380D01*
X119657666Y-96035761D01*
X119705285Y-95988142D01*
X119752904Y-95892904D01*
X119752904Y-95702428D01*
X119705285Y-95607190D01*
X119657666Y-95559571D01*
X119562428Y-95511952D01*
X117268785Y-99131380D02*
X117268785Y-98131380D01*
X117506880Y-98131380D01*
X117649738Y-98179000D01*
X117744976Y-98274238D01*
X117792595Y-98369476D01*
X117840214Y-98559952D01*
X117840214Y-98702809D01*
X117792595Y-98893285D01*
X117744976Y-98988523D01*
X117649738Y-99083761D01*
X117506880Y-99131380D01*
X117268785Y-99131380D01*
X118268785Y-99131380D02*
X118268785Y-98131380D01*
X118840214Y-99131380D01*
X118840214Y-98131380D01*
X119316404Y-99131380D02*
X119316404Y-98131380D01*
X119697357Y-98131380D01*
X119792595Y-98179000D01*
X119840214Y-98226619D01*
X119887833Y-98321857D01*
X119887833Y-98464714D01*
X119840214Y-98559952D01*
X119792595Y-98607571D01*
X119697357Y-98655190D01*
X119316404Y-98655190D01*
%TO.C,R37*%
X116149380Y-88780857D02*
X115673190Y-89114190D01*
X116149380Y-89352285D02*
X115149380Y-89352285D01*
X115149380Y-88971333D01*
X115197000Y-88876095D01*
X115244619Y-88828476D01*
X115339857Y-88780857D01*
X115482714Y-88780857D01*
X115577952Y-88828476D01*
X115625571Y-88876095D01*
X115673190Y-88971333D01*
X115673190Y-89352285D01*
X115149380Y-88447523D02*
X115149380Y-87828476D01*
X115530333Y-88161809D01*
X115530333Y-88018952D01*
X115577952Y-87923714D01*
X115625571Y-87876095D01*
X115720809Y-87828476D01*
X115958904Y-87828476D01*
X116054142Y-87876095D01*
X116101761Y-87923714D01*
X116149380Y-88018952D01*
X116149380Y-88304666D01*
X116101761Y-88399904D01*
X116054142Y-88447523D01*
X115149380Y-87495142D02*
X115149380Y-86828476D01*
X116149380Y-87257047D01*
%TO.C,R29*%
X117848142Y-92527380D02*
X117514809Y-92051190D01*
X117276714Y-92527380D02*
X117276714Y-91527380D01*
X117657666Y-91527380D01*
X117752904Y-91575000D01*
X117800523Y-91622619D01*
X117848142Y-91717857D01*
X117848142Y-91860714D01*
X117800523Y-91955952D01*
X117752904Y-92003571D01*
X117657666Y-92051190D01*
X117276714Y-92051190D01*
X118229095Y-91622619D02*
X118276714Y-91575000D01*
X118371952Y-91527380D01*
X118610047Y-91527380D01*
X118705285Y-91575000D01*
X118752904Y-91622619D01*
X118800523Y-91717857D01*
X118800523Y-91813095D01*
X118752904Y-91955952D01*
X118181476Y-92527380D01*
X118800523Y-92527380D01*
X119276714Y-92527380D02*
X119467190Y-92527380D01*
X119562428Y-92479761D01*
X119610047Y-92432142D01*
X119705285Y-92289285D01*
X119752904Y-92098809D01*
X119752904Y-91717857D01*
X119705285Y-91622619D01*
X119657666Y-91575000D01*
X119562428Y-91527380D01*
X119371952Y-91527380D01*
X119276714Y-91575000D01*
X119229095Y-91622619D01*
X119181476Y-91717857D01*
X119181476Y-91955952D01*
X119229095Y-92051190D01*
X119276714Y-92098809D01*
X119371952Y-92146428D01*
X119562428Y-92146428D01*
X119657666Y-92098809D01*
X119705285Y-92051190D01*
X119752904Y-91955952D01*
%TO.C,R28*%
X120213380Y-88653857D02*
X119737190Y-88987190D01*
X120213380Y-89225285D02*
X119213380Y-89225285D01*
X119213380Y-88844333D01*
X119261000Y-88749095D01*
X119308619Y-88701476D01*
X119403857Y-88653857D01*
X119546714Y-88653857D01*
X119641952Y-88701476D01*
X119689571Y-88749095D01*
X119737190Y-88844333D01*
X119737190Y-89225285D01*
X119308619Y-88272904D02*
X119261000Y-88225285D01*
X119213380Y-88130047D01*
X119213380Y-87891952D01*
X119261000Y-87796714D01*
X119308619Y-87749095D01*
X119403857Y-87701476D01*
X119499095Y-87701476D01*
X119641952Y-87749095D01*
X120213380Y-88320523D01*
X120213380Y-87701476D01*
X119641952Y-87130047D02*
X119594333Y-87225285D01*
X119546714Y-87272904D01*
X119451476Y-87320523D01*
X119403857Y-87320523D01*
X119308619Y-87272904D01*
X119261000Y-87225285D01*
X119213380Y-87130047D01*
X119213380Y-86939571D01*
X119261000Y-86844333D01*
X119308619Y-86796714D01*
X119403857Y-86749095D01*
X119451476Y-86749095D01*
X119546714Y-86796714D01*
X119594333Y-86844333D01*
X119641952Y-86939571D01*
X119641952Y-87130047D01*
X119689571Y-87225285D01*
X119737190Y-87272904D01*
X119832428Y-87320523D01*
X120022904Y-87320523D01*
X120118142Y-87272904D01*
X120165761Y-87225285D01*
X120213380Y-87130047D01*
X120213380Y-86939571D01*
X120165761Y-86844333D01*
X120118142Y-86796714D01*
X120022904Y-86749095D01*
X119832428Y-86749095D01*
X119737190Y-86796714D01*
X119689571Y-86844333D01*
X119641952Y-86939571D01*
%TO.C,R23*%
X102433380Y-95321357D02*
X101957190Y-95654690D01*
X102433380Y-95892785D02*
X101433380Y-95892785D01*
X101433380Y-95511833D01*
X101481000Y-95416595D01*
X101528619Y-95368976D01*
X101623857Y-95321357D01*
X101766714Y-95321357D01*
X101861952Y-95368976D01*
X101909571Y-95416595D01*
X101957190Y-95511833D01*
X101957190Y-95892785D01*
X101528619Y-94940404D02*
X101481000Y-94892785D01*
X101433380Y-94797547D01*
X101433380Y-94559452D01*
X101481000Y-94464214D01*
X101528619Y-94416595D01*
X101623857Y-94368976D01*
X101719095Y-94368976D01*
X101861952Y-94416595D01*
X102433380Y-94988023D01*
X102433380Y-94368976D01*
X101433380Y-94035642D02*
X101433380Y-93416595D01*
X101814333Y-93749928D01*
X101814333Y-93607071D01*
X101861952Y-93511833D01*
X101909571Y-93464214D01*
X102004809Y-93416595D01*
X102242904Y-93416595D01*
X102338142Y-93464214D01*
X102385761Y-93511833D01*
X102433380Y-93607071D01*
X102433380Y-93892785D01*
X102385761Y-93988023D01*
X102338142Y-94035642D01*
%TO.C,R22*%
X87939642Y-98242380D02*
X87606309Y-97766190D01*
X87368214Y-98242380D02*
X87368214Y-97242380D01*
X87749166Y-97242380D01*
X87844404Y-97290000D01*
X87892023Y-97337619D01*
X87939642Y-97432857D01*
X87939642Y-97575714D01*
X87892023Y-97670952D01*
X87844404Y-97718571D01*
X87749166Y-97766190D01*
X87368214Y-97766190D01*
X88320595Y-97337619D02*
X88368214Y-97290000D01*
X88463452Y-97242380D01*
X88701547Y-97242380D01*
X88796785Y-97290000D01*
X88844404Y-97337619D01*
X88892023Y-97432857D01*
X88892023Y-97528095D01*
X88844404Y-97670952D01*
X88272976Y-98242380D01*
X88892023Y-98242380D01*
X89272976Y-97337619D02*
X89320595Y-97290000D01*
X89415833Y-97242380D01*
X89653928Y-97242380D01*
X89749166Y-97290000D01*
X89796785Y-97337619D01*
X89844404Y-97432857D01*
X89844404Y-97528095D01*
X89796785Y-97670952D01*
X89225357Y-98242380D01*
X89844404Y-98242380D01*
%TO.C,R21*%
X98290142Y-73985380D02*
X97956809Y-73509190D01*
X97718714Y-73985380D02*
X97718714Y-72985380D01*
X98099666Y-72985380D01*
X98194904Y-73033000D01*
X98242523Y-73080619D01*
X98290142Y-73175857D01*
X98290142Y-73318714D01*
X98242523Y-73413952D01*
X98194904Y-73461571D01*
X98099666Y-73509190D01*
X97718714Y-73509190D01*
X98671095Y-73080619D02*
X98718714Y-73033000D01*
X98813952Y-72985380D01*
X99052047Y-72985380D01*
X99147285Y-73033000D01*
X99194904Y-73080619D01*
X99242523Y-73175857D01*
X99242523Y-73271095D01*
X99194904Y-73413952D01*
X98623476Y-73985380D01*
X99242523Y-73985380D01*
X100194904Y-73985380D02*
X99623476Y-73985380D01*
X99909190Y-73985380D02*
X99909190Y-72985380D01*
X99813952Y-73128238D01*
X99718714Y-73223476D01*
X99623476Y-73271095D01*
%TO.C,R20*%
X100449142Y-70747880D02*
X100115809Y-70271690D01*
X99877714Y-70747880D02*
X99877714Y-69747880D01*
X100258666Y-69747880D01*
X100353904Y-69795500D01*
X100401523Y-69843119D01*
X100449142Y-69938357D01*
X100449142Y-70081214D01*
X100401523Y-70176452D01*
X100353904Y-70224071D01*
X100258666Y-70271690D01*
X99877714Y-70271690D01*
X100830095Y-69843119D02*
X100877714Y-69795500D01*
X100972952Y-69747880D01*
X101211047Y-69747880D01*
X101306285Y-69795500D01*
X101353904Y-69843119D01*
X101401523Y-69938357D01*
X101401523Y-70033595D01*
X101353904Y-70176452D01*
X100782476Y-70747880D01*
X101401523Y-70747880D01*
X102020571Y-69747880D02*
X102115809Y-69747880D01*
X102211047Y-69795500D01*
X102258666Y-69843119D01*
X102306285Y-69938357D01*
X102353904Y-70128833D01*
X102353904Y-70366928D01*
X102306285Y-70557404D01*
X102258666Y-70652642D01*
X102211047Y-70700261D01*
X102115809Y-70747880D01*
X102020571Y-70747880D01*
X101925333Y-70700261D01*
X101877714Y-70652642D01*
X101830095Y-70557404D01*
X101782476Y-70366928D01*
X101782476Y-70128833D01*
X101830095Y-69938357D01*
X101877714Y-69843119D01*
X101925333Y-69795500D01*
X102020571Y-69747880D01*
%TO.C,R18*%
X94362142Y-96019880D02*
X94028809Y-95543690D01*
X93790714Y-96019880D02*
X93790714Y-95019880D01*
X94171666Y-95019880D01*
X94266904Y-95067500D01*
X94314523Y-95115119D01*
X94362142Y-95210357D01*
X94362142Y-95353214D01*
X94314523Y-95448452D01*
X94266904Y-95496071D01*
X94171666Y-95543690D01*
X93790714Y-95543690D01*
X95314523Y-96019880D02*
X94743095Y-96019880D01*
X95028809Y-96019880D02*
X95028809Y-95019880D01*
X94933571Y-95162738D01*
X94838333Y-95257976D01*
X94743095Y-95305595D01*
X95885952Y-95448452D02*
X95790714Y-95400833D01*
X95743095Y-95353214D01*
X95695476Y-95257976D01*
X95695476Y-95210357D01*
X95743095Y-95115119D01*
X95790714Y-95067500D01*
X95885952Y-95019880D01*
X96076428Y-95019880D01*
X96171666Y-95067500D01*
X96219285Y-95115119D01*
X96266904Y-95210357D01*
X96266904Y-95257976D01*
X96219285Y-95353214D01*
X96171666Y-95400833D01*
X96076428Y-95448452D01*
X95885952Y-95448452D01*
X95790714Y-95496071D01*
X95743095Y-95543690D01*
X95695476Y-95638928D01*
X95695476Y-95829404D01*
X95743095Y-95924642D01*
X95790714Y-95972261D01*
X95885952Y-96019880D01*
X96076428Y-96019880D01*
X96171666Y-95972261D01*
X96219285Y-95924642D01*
X96266904Y-95829404D01*
X96266904Y-95638928D01*
X96219285Y-95543690D01*
X96171666Y-95496071D01*
X96076428Y-95448452D01*
%TO.C,R15*%
X154439880Y-113037857D02*
X153963690Y-113371190D01*
X154439880Y-113609285D02*
X153439880Y-113609285D01*
X153439880Y-113228333D01*
X153487500Y-113133095D01*
X153535119Y-113085476D01*
X153630357Y-113037857D01*
X153773214Y-113037857D01*
X153868452Y-113085476D01*
X153916071Y-113133095D01*
X153963690Y-113228333D01*
X153963690Y-113609285D01*
X154439880Y-112085476D02*
X154439880Y-112656904D01*
X154439880Y-112371190D02*
X153439880Y-112371190D01*
X153582738Y-112466428D01*
X153677976Y-112561666D01*
X153725595Y-112656904D01*
X153439880Y-111180714D02*
X153439880Y-111656904D01*
X153916071Y-111704523D01*
X153868452Y-111656904D01*
X153820833Y-111561666D01*
X153820833Y-111323571D01*
X153868452Y-111228333D01*
X153916071Y-111180714D01*
X154011309Y-111133095D01*
X154249404Y-111133095D01*
X154344642Y-111180714D01*
X154392261Y-111228333D01*
X154439880Y-111323571D01*
X154439880Y-111561666D01*
X154392261Y-111656904D01*
X154344642Y-111704523D01*
%TO.C,R14*%
X157614880Y-113672857D02*
X157138690Y-114006190D01*
X157614880Y-114244285D02*
X156614880Y-114244285D01*
X156614880Y-113863333D01*
X156662500Y-113768095D01*
X156710119Y-113720476D01*
X156805357Y-113672857D01*
X156948214Y-113672857D01*
X157043452Y-113720476D01*
X157091071Y-113768095D01*
X157138690Y-113863333D01*
X157138690Y-114244285D01*
X157614880Y-112720476D02*
X157614880Y-113291904D01*
X157614880Y-113006190D02*
X156614880Y-113006190D01*
X156757738Y-113101428D01*
X156852976Y-113196666D01*
X156900595Y-113291904D01*
X156948214Y-111863333D02*
X157614880Y-111863333D01*
X156567261Y-112101428D02*
X157281547Y-112339523D01*
X157281547Y-111720476D01*
%TO.C,R13*%
X151328380Y-107449857D02*
X150852190Y-107783190D01*
X151328380Y-108021285D02*
X150328380Y-108021285D01*
X150328380Y-107640333D01*
X150376000Y-107545095D01*
X150423619Y-107497476D01*
X150518857Y-107449857D01*
X150661714Y-107449857D01*
X150756952Y-107497476D01*
X150804571Y-107545095D01*
X150852190Y-107640333D01*
X150852190Y-108021285D01*
X151328380Y-106497476D02*
X151328380Y-107068904D01*
X151328380Y-106783190D02*
X150328380Y-106783190D01*
X150471238Y-106878428D01*
X150566476Y-106973666D01*
X150614095Y-107068904D01*
X150328380Y-106164142D02*
X150328380Y-105545095D01*
X150709333Y-105878428D01*
X150709333Y-105735571D01*
X150756952Y-105640333D01*
X150804571Y-105592714D01*
X150899809Y-105545095D01*
X151137904Y-105545095D01*
X151233142Y-105592714D01*
X151280761Y-105640333D01*
X151328380Y-105735571D01*
X151328380Y-106021285D01*
X151280761Y-106116523D01*
X151233142Y-106164142D01*
%TO.C,R12*%
X89155142Y-73540880D02*
X88821809Y-73064690D01*
X88583714Y-73540880D02*
X88583714Y-72540880D01*
X88964666Y-72540880D01*
X89059904Y-72588500D01*
X89107523Y-72636119D01*
X89155142Y-72731357D01*
X89155142Y-72874214D01*
X89107523Y-72969452D01*
X89059904Y-73017071D01*
X88964666Y-73064690D01*
X88583714Y-73064690D01*
X90107523Y-73540880D02*
X89536095Y-73540880D01*
X89821809Y-73540880D02*
X89821809Y-72540880D01*
X89726571Y-72683738D01*
X89631333Y-72778976D01*
X89536095Y-72826595D01*
X90488476Y-72636119D02*
X90536095Y-72588500D01*
X90631333Y-72540880D01*
X90869428Y-72540880D01*
X90964666Y-72588500D01*
X91012285Y-72636119D01*
X91059904Y-72731357D01*
X91059904Y-72826595D01*
X91012285Y-72969452D01*
X90440857Y-73540880D01*
X91059904Y-73540880D01*
%TO.C,R11*%
X161409142Y-113482380D02*
X161075809Y-113006190D01*
X160837714Y-113482380D02*
X160837714Y-112482380D01*
X161218666Y-112482380D01*
X161313904Y-112530000D01*
X161361523Y-112577619D01*
X161409142Y-112672857D01*
X161409142Y-112815714D01*
X161361523Y-112910952D01*
X161313904Y-112958571D01*
X161218666Y-113006190D01*
X160837714Y-113006190D01*
X162361523Y-113482380D02*
X161790095Y-113482380D01*
X162075809Y-113482380D02*
X162075809Y-112482380D01*
X161980571Y-112625238D01*
X161885333Y-112720476D01*
X161790095Y-112768095D01*
X163313904Y-113482380D02*
X162742476Y-113482380D01*
X163028190Y-113482380D02*
X163028190Y-112482380D01*
X162932952Y-112625238D01*
X162837714Y-112720476D01*
X162742476Y-112768095D01*
%TO.C,R9*%
X126452333Y-98623380D02*
X126119000Y-98147190D01*
X125880904Y-98623380D02*
X125880904Y-97623380D01*
X126261857Y-97623380D01*
X126357095Y-97671000D01*
X126404714Y-97718619D01*
X126452333Y-97813857D01*
X126452333Y-97956714D01*
X126404714Y-98051952D01*
X126357095Y-98099571D01*
X126261857Y-98147190D01*
X125880904Y-98147190D01*
X126928523Y-98623380D02*
X127119000Y-98623380D01*
X127214238Y-98575761D01*
X127261857Y-98528142D01*
X127357095Y-98385285D01*
X127404714Y-98194809D01*
X127404714Y-97813857D01*
X127357095Y-97718619D01*
X127309476Y-97671000D01*
X127214238Y-97623380D01*
X127023761Y-97623380D01*
X126928523Y-97671000D01*
X126880904Y-97718619D01*
X126833285Y-97813857D01*
X126833285Y-98051952D01*
X126880904Y-98147190D01*
X126928523Y-98194809D01*
X127023761Y-98242428D01*
X127214238Y-98242428D01*
X127309476Y-98194809D01*
X127357095Y-98147190D01*
X127404714Y-98051952D01*
%TO.C,R8*%
X150836333Y-127197380D02*
X150503000Y-126721190D01*
X150264904Y-127197380D02*
X150264904Y-126197380D01*
X150645857Y-126197380D01*
X150741095Y-126245000D01*
X150788714Y-126292619D01*
X150836333Y-126387857D01*
X150836333Y-126530714D01*
X150788714Y-126625952D01*
X150741095Y-126673571D01*
X150645857Y-126721190D01*
X150264904Y-126721190D01*
X151407761Y-126625952D02*
X151312523Y-126578333D01*
X151264904Y-126530714D01*
X151217285Y-126435476D01*
X151217285Y-126387857D01*
X151264904Y-126292619D01*
X151312523Y-126245000D01*
X151407761Y-126197380D01*
X151598238Y-126197380D01*
X151693476Y-126245000D01*
X151741095Y-126292619D01*
X151788714Y-126387857D01*
X151788714Y-126435476D01*
X151741095Y-126530714D01*
X151693476Y-126578333D01*
X151598238Y-126625952D01*
X151407761Y-126625952D01*
X151312523Y-126673571D01*
X151264904Y-126721190D01*
X151217285Y-126816428D01*
X151217285Y-127006904D01*
X151264904Y-127102142D01*
X151312523Y-127149761D01*
X151407761Y-127197380D01*
X151598238Y-127197380D01*
X151693476Y-127149761D01*
X151741095Y-127102142D01*
X151788714Y-127006904D01*
X151788714Y-126816428D01*
X151741095Y-126721190D01*
X151693476Y-126673571D01*
X151598238Y-126625952D01*
%TO.C,R7*%
X154773333Y-130500380D02*
X154440000Y-130024190D01*
X154201904Y-130500380D02*
X154201904Y-129500380D01*
X154582857Y-129500380D01*
X154678095Y-129548000D01*
X154725714Y-129595619D01*
X154773333Y-129690857D01*
X154773333Y-129833714D01*
X154725714Y-129928952D01*
X154678095Y-129976571D01*
X154582857Y-130024190D01*
X154201904Y-130024190D01*
X155106666Y-129500380D02*
X155773333Y-129500380D01*
X155344761Y-130500380D01*
%TO.C,R5*%
X126452333Y-88083380D02*
X126119000Y-87607190D01*
X125880904Y-88083380D02*
X125880904Y-87083380D01*
X126261857Y-87083380D01*
X126357095Y-87131000D01*
X126404714Y-87178619D01*
X126452333Y-87273857D01*
X126452333Y-87416714D01*
X126404714Y-87511952D01*
X126357095Y-87559571D01*
X126261857Y-87607190D01*
X125880904Y-87607190D01*
X127357095Y-87083380D02*
X126880904Y-87083380D01*
X126833285Y-87559571D01*
X126880904Y-87511952D01*
X126976142Y-87464333D01*
X127214238Y-87464333D01*
X127309476Y-87511952D01*
X127357095Y-87559571D01*
X127404714Y-87654809D01*
X127404714Y-87892904D01*
X127357095Y-87988142D01*
X127309476Y-88035761D01*
X127214238Y-88083380D01*
X126976142Y-88083380D01*
X126880904Y-88035761D01*
X126833285Y-87988142D01*
%TO.C,R4*%
X126452333Y-93163380D02*
X126119000Y-92687190D01*
X125880904Y-93163380D02*
X125880904Y-92163380D01*
X126261857Y-92163380D01*
X126357095Y-92211000D01*
X126404714Y-92258619D01*
X126452333Y-92353857D01*
X126452333Y-92496714D01*
X126404714Y-92591952D01*
X126357095Y-92639571D01*
X126261857Y-92687190D01*
X125880904Y-92687190D01*
X127309476Y-92496714D02*
X127309476Y-93163380D01*
X127071380Y-92115761D02*
X126833285Y-92830047D01*
X127452333Y-92830047D01*
%TO.C,R3*%
X88542833Y-94114880D02*
X88209500Y-93638690D01*
X87971404Y-94114880D02*
X87971404Y-93114880D01*
X88352357Y-93114880D01*
X88447595Y-93162500D01*
X88495214Y-93210119D01*
X88542833Y-93305357D01*
X88542833Y-93448214D01*
X88495214Y-93543452D01*
X88447595Y-93591071D01*
X88352357Y-93638690D01*
X87971404Y-93638690D01*
X88876166Y-93114880D02*
X89495214Y-93114880D01*
X89161880Y-93495833D01*
X89304738Y-93495833D01*
X89399976Y-93543452D01*
X89447595Y-93591071D01*
X89495214Y-93686309D01*
X89495214Y-93924404D01*
X89447595Y-94019642D01*
X89399976Y-94067261D01*
X89304738Y-94114880D01*
X89019023Y-94114880D01*
X88923785Y-94067261D01*
X88876166Y-94019642D01*
%TO.C,R1*%
X94575333Y-70683380D02*
X94242000Y-70207190D01*
X94003904Y-70683380D02*
X94003904Y-69683380D01*
X94384857Y-69683380D01*
X94480095Y-69731000D01*
X94527714Y-69778619D01*
X94575333Y-69873857D01*
X94575333Y-70016714D01*
X94527714Y-70111952D01*
X94480095Y-70159571D01*
X94384857Y-70207190D01*
X94003904Y-70207190D01*
X95527714Y-70683380D02*
X94956285Y-70683380D01*
X95242000Y-70683380D02*
X95242000Y-69683380D01*
X95146761Y-69826238D01*
X95051523Y-69921476D01*
X94956285Y-69969095D01*
%TO.C,Q1*%
X90265261Y-68213219D02*
X90170023Y-68165600D01*
X90074785Y-68070361D01*
X89931928Y-67927504D01*
X89836690Y-67879885D01*
X89741452Y-67879885D01*
X89789071Y-68117980D02*
X89693833Y-68070361D01*
X89598595Y-67975123D01*
X89550976Y-67784647D01*
X89550976Y-67451314D01*
X89598595Y-67260838D01*
X89693833Y-67165600D01*
X89789071Y-67117980D01*
X89979547Y-67117980D01*
X90074785Y-67165600D01*
X90170023Y-67260838D01*
X90217642Y-67451314D01*
X90217642Y-67784647D01*
X90170023Y-67975123D01*
X90074785Y-68070361D01*
X89979547Y-68117980D01*
X89789071Y-68117980D01*
X91170023Y-68117980D02*
X90598595Y-68117980D01*
X90884309Y-68117980D02*
X90884309Y-67117980D01*
X90789071Y-67260838D01*
X90693833Y-67356076D01*
X90598595Y-67403695D01*
%TO.C,F6*%
X153463666Y-60825071D02*
X153130333Y-60825071D01*
X153130333Y-61348880D02*
X153130333Y-60348880D01*
X153606523Y-60348880D01*
X154416047Y-60348880D02*
X154225571Y-60348880D01*
X154130333Y-60396500D01*
X154082714Y-60444119D01*
X153987476Y-60586976D01*
X153939857Y-60777452D01*
X153939857Y-61158404D01*
X153987476Y-61253642D01*
X154035095Y-61301261D01*
X154130333Y-61348880D01*
X154320809Y-61348880D01*
X154416047Y-61301261D01*
X154463666Y-61253642D01*
X154511285Y-61158404D01*
X154511285Y-60920309D01*
X154463666Y-60825071D01*
X154416047Y-60777452D01*
X154320809Y-60729833D01*
X154130333Y-60729833D01*
X154035095Y-60777452D01*
X153987476Y-60825071D01*
X153939857Y-60920309D01*
%TO.C,F5*%
X146224666Y-62539571D02*
X145891333Y-62539571D01*
X145891333Y-63063380D02*
X145891333Y-62063380D01*
X146367523Y-62063380D01*
X147224666Y-62063380D02*
X146748476Y-62063380D01*
X146700857Y-62539571D01*
X146748476Y-62491952D01*
X146843714Y-62444333D01*
X147081809Y-62444333D01*
X147177047Y-62491952D01*
X147224666Y-62539571D01*
X147272285Y-62634809D01*
X147272285Y-62872904D01*
X147224666Y-62968142D01*
X147177047Y-63015761D01*
X147081809Y-63063380D01*
X146843714Y-63063380D01*
X146748476Y-63015761D01*
X146700857Y-62968142D01*
%TO.C,F4*%
X137271166Y-62476071D02*
X136937833Y-62476071D01*
X136937833Y-62999880D02*
X136937833Y-61999880D01*
X137414023Y-61999880D01*
X138223547Y-62333214D02*
X138223547Y-62999880D01*
X137985452Y-61952261D02*
X137747357Y-62666547D01*
X138366404Y-62666547D01*
%TO.C,F3*%
X139747666Y-84637571D02*
X139414333Y-84637571D01*
X139414333Y-85161380D02*
X139414333Y-84161380D01*
X139890523Y-84161380D01*
X140176238Y-84161380D02*
X140795285Y-84161380D01*
X140461952Y-84542333D01*
X140604809Y-84542333D01*
X140700047Y-84589952D01*
X140747666Y-84637571D01*
X140795285Y-84732809D01*
X140795285Y-84970904D01*
X140747666Y-85066142D01*
X140700047Y-85113761D01*
X140604809Y-85161380D01*
X140319095Y-85161380D01*
X140223857Y-85113761D01*
X140176238Y-85066142D01*
%TO.C,F1*%
X140763666Y-71937571D02*
X140430333Y-71937571D01*
X140430333Y-72461380D02*
X140430333Y-71461380D01*
X140906523Y-71461380D01*
X141811285Y-72461380D02*
X141239857Y-72461380D01*
X141525571Y-72461380D02*
X141525571Y-71461380D01*
X141430333Y-71604238D01*
X141335095Y-71699476D01*
X141239857Y-71747095D01*
%TO.C,C40*%
X112371142Y-91701857D02*
X112418761Y-91749476D01*
X112466380Y-91892333D01*
X112466380Y-91987571D01*
X112418761Y-92130428D01*
X112323523Y-92225666D01*
X112228285Y-92273285D01*
X112037809Y-92320904D01*
X111894952Y-92320904D01*
X111704476Y-92273285D01*
X111609238Y-92225666D01*
X111514000Y-92130428D01*
X111466380Y-91987571D01*
X111466380Y-91892333D01*
X111514000Y-91749476D01*
X111561619Y-91701857D01*
X111799714Y-90844714D02*
X112466380Y-90844714D01*
X111418761Y-91082809D02*
X112133047Y-91320904D01*
X112133047Y-90701857D01*
X111466380Y-90130428D02*
X111466380Y-90035190D01*
X111514000Y-89939952D01*
X111561619Y-89892333D01*
X111656857Y-89844714D01*
X111847333Y-89797095D01*
X112085428Y-89797095D01*
X112275904Y-89844714D01*
X112371142Y-89892333D01*
X112418761Y-89939952D01*
X112466380Y-90035190D01*
X112466380Y-90130428D01*
X112418761Y-90225666D01*
X112371142Y-90273285D01*
X112275904Y-90320904D01*
X112085428Y-90368523D01*
X111847333Y-90368523D01*
X111656857Y-90320904D01*
X111561619Y-90273285D01*
X111514000Y-90225666D01*
X111466380Y-90130428D01*
%TO.C,C23*%
X98544142Y-65889142D02*
X98496523Y-65936761D01*
X98353666Y-65984380D01*
X98258428Y-65984380D01*
X98115571Y-65936761D01*
X98020333Y-65841523D01*
X97972714Y-65746285D01*
X97925095Y-65555809D01*
X97925095Y-65412952D01*
X97972714Y-65222476D01*
X98020333Y-65127238D01*
X98115571Y-65032000D01*
X98258428Y-64984380D01*
X98353666Y-64984380D01*
X98496523Y-65032000D01*
X98544142Y-65079619D01*
X98925095Y-65079619D02*
X98972714Y-65032000D01*
X99067952Y-64984380D01*
X99306047Y-64984380D01*
X99401285Y-65032000D01*
X99448904Y-65079619D01*
X99496523Y-65174857D01*
X99496523Y-65270095D01*
X99448904Y-65412952D01*
X98877476Y-65984380D01*
X99496523Y-65984380D01*
X99829857Y-64984380D02*
X100448904Y-64984380D01*
X100115571Y-65365333D01*
X100258428Y-65365333D01*
X100353666Y-65412952D01*
X100401285Y-65460571D01*
X100448904Y-65555809D01*
X100448904Y-65793904D01*
X100401285Y-65889142D01*
X100353666Y-65936761D01*
X100258428Y-65984380D01*
X99972714Y-65984380D01*
X99877476Y-65936761D01*
X99829857Y-65889142D01*
%TO.C,C21*%
X98417142Y-62206142D02*
X98369523Y-62253761D01*
X98226666Y-62301380D01*
X98131428Y-62301380D01*
X97988571Y-62253761D01*
X97893333Y-62158523D01*
X97845714Y-62063285D01*
X97798095Y-61872809D01*
X97798095Y-61729952D01*
X97845714Y-61539476D01*
X97893333Y-61444238D01*
X97988571Y-61349000D01*
X98131428Y-61301380D01*
X98226666Y-61301380D01*
X98369523Y-61349000D01*
X98417142Y-61396619D01*
X98798095Y-61396619D02*
X98845714Y-61349000D01*
X98940952Y-61301380D01*
X99179047Y-61301380D01*
X99274285Y-61349000D01*
X99321904Y-61396619D01*
X99369523Y-61491857D01*
X99369523Y-61587095D01*
X99321904Y-61729952D01*
X98750476Y-62301380D01*
X99369523Y-62301380D01*
X100321904Y-62301380D02*
X99750476Y-62301380D01*
X100036190Y-62301380D02*
X100036190Y-61301380D01*
X99940952Y-61444238D01*
X99845714Y-61539476D01*
X99750476Y-61587095D01*
%TO.C,C20*%
X103100142Y-84081857D02*
X103147761Y-84129476D01*
X103195380Y-84272333D01*
X103195380Y-84367571D01*
X103147761Y-84510428D01*
X103052523Y-84605666D01*
X102957285Y-84653285D01*
X102766809Y-84700904D01*
X102623952Y-84700904D01*
X102433476Y-84653285D01*
X102338238Y-84605666D01*
X102243000Y-84510428D01*
X102195380Y-84367571D01*
X102195380Y-84272333D01*
X102243000Y-84129476D01*
X102290619Y-84081857D01*
X102290619Y-83700904D02*
X102243000Y-83653285D01*
X102195380Y-83558047D01*
X102195380Y-83319952D01*
X102243000Y-83224714D01*
X102290619Y-83177095D01*
X102385857Y-83129476D01*
X102481095Y-83129476D01*
X102623952Y-83177095D01*
X103195380Y-83748523D01*
X103195380Y-83129476D01*
X102195380Y-82510428D02*
X102195380Y-82415190D01*
X102243000Y-82319952D01*
X102290619Y-82272333D01*
X102385857Y-82224714D01*
X102576333Y-82177095D01*
X102814428Y-82177095D01*
X103004904Y-82224714D01*
X103100142Y-82272333D01*
X103147761Y-82319952D01*
X103195380Y-82415190D01*
X103195380Y-82510428D01*
X103147761Y-82605666D01*
X103100142Y-82653285D01*
X103004904Y-82700904D01*
X102814428Y-82748523D01*
X102576333Y-82748523D01*
X102385857Y-82700904D01*
X102290619Y-82653285D01*
X102243000Y-82605666D01*
X102195380Y-82510428D01*
%TO.C,C12*%
X150661642Y-112339357D02*
X150709261Y-112386976D01*
X150756880Y-112529833D01*
X150756880Y-112625071D01*
X150709261Y-112767928D01*
X150614023Y-112863166D01*
X150518785Y-112910785D01*
X150328309Y-112958404D01*
X150185452Y-112958404D01*
X149994976Y-112910785D01*
X149899738Y-112863166D01*
X149804500Y-112767928D01*
X149756880Y-112625071D01*
X149756880Y-112529833D01*
X149804500Y-112386976D01*
X149852119Y-112339357D01*
X150756880Y-111386976D02*
X150756880Y-111958404D01*
X150756880Y-111672690D02*
X149756880Y-111672690D01*
X149899738Y-111767928D01*
X149994976Y-111863166D01*
X150042595Y-111958404D01*
X149852119Y-111006023D02*
X149804500Y-110958404D01*
X149756880Y-110863166D01*
X149756880Y-110625071D01*
X149804500Y-110529833D01*
X149852119Y-110482214D01*
X149947357Y-110434595D01*
X150042595Y-110434595D01*
X150185452Y-110482214D01*
X150756880Y-111053642D01*
X150756880Y-110434595D01*
%TO.C,C11*%
X114174142Y-84304142D02*
X114126523Y-84351761D01*
X113983666Y-84399380D01*
X113888428Y-84399380D01*
X113745571Y-84351761D01*
X113650333Y-84256523D01*
X113602714Y-84161285D01*
X113555095Y-83970809D01*
X113555095Y-83827952D01*
X113602714Y-83637476D01*
X113650333Y-83542238D01*
X113745571Y-83447000D01*
X113888428Y-83399380D01*
X113983666Y-83399380D01*
X114126523Y-83447000D01*
X114174142Y-83494619D01*
X115126523Y-84399380D02*
X114555095Y-84399380D01*
X114840809Y-84399380D02*
X114840809Y-83399380D01*
X114745571Y-83542238D01*
X114650333Y-83637476D01*
X114555095Y-83685095D01*
X116078904Y-84399380D02*
X115507476Y-84399380D01*
X115793190Y-84399380D02*
X115793190Y-83399380D01*
X115697952Y-83542238D01*
X115602714Y-83637476D01*
X115507476Y-83685095D01*
%TO.C,C10*%
X112577642Y-58142142D02*
X112530023Y-58189761D01*
X112387166Y-58237380D01*
X112291928Y-58237380D01*
X112149071Y-58189761D01*
X112053833Y-58094523D01*
X112006214Y-57999285D01*
X111958595Y-57808809D01*
X111958595Y-57665952D01*
X112006214Y-57475476D01*
X112053833Y-57380238D01*
X112149071Y-57285000D01*
X112291928Y-57237380D01*
X112387166Y-57237380D01*
X112530023Y-57285000D01*
X112577642Y-57332619D01*
X113530023Y-58237380D02*
X112958595Y-58237380D01*
X113244309Y-58237380D02*
X113244309Y-57237380D01*
X113149071Y-57380238D01*
X113053833Y-57475476D01*
X112958595Y-57523095D01*
X114149071Y-57237380D02*
X114244309Y-57237380D01*
X114339547Y-57285000D01*
X114387166Y-57332619D01*
X114434785Y-57427857D01*
X114482404Y-57618333D01*
X114482404Y-57856428D01*
X114434785Y-58046904D01*
X114387166Y-58142142D01*
X114339547Y-58189761D01*
X114244309Y-58237380D01*
X114149071Y-58237380D01*
X114053833Y-58189761D01*
X114006214Y-58142142D01*
X113958595Y-58046904D01*
X113910976Y-57856428D01*
X113910976Y-57618333D01*
X113958595Y-57427857D01*
X114006214Y-57332619D01*
X114053833Y-57285000D01*
X114149071Y-57237380D01*
%TO.C,C9*%
X124182142Y-59729666D02*
X124229761Y-59777285D01*
X124277380Y-59920142D01*
X124277380Y-60015380D01*
X124229761Y-60158238D01*
X124134523Y-60253476D01*
X124039285Y-60301095D01*
X123848809Y-60348714D01*
X123705952Y-60348714D01*
X123515476Y-60301095D01*
X123420238Y-60253476D01*
X123325000Y-60158238D01*
X123277380Y-60015380D01*
X123277380Y-59920142D01*
X123325000Y-59777285D01*
X123372619Y-59729666D01*
X124277380Y-59253476D02*
X124277380Y-59063000D01*
X124229761Y-58967761D01*
X124182142Y-58920142D01*
X124039285Y-58824904D01*
X123848809Y-58777285D01*
X123467857Y-58777285D01*
X123372619Y-58824904D01*
X123325000Y-58872523D01*
X123277380Y-58967761D01*
X123277380Y-59158238D01*
X123325000Y-59253476D01*
X123372619Y-59301095D01*
X123467857Y-59348714D01*
X123705952Y-59348714D01*
X123801190Y-59301095D01*
X123848809Y-59253476D01*
X123896428Y-59158238D01*
X123896428Y-58967761D01*
X123848809Y-58872523D01*
X123801190Y-58824904D01*
X123705952Y-58777285D01*
%TO.C,C8*%
X154519333Y-98147142D02*
X154471714Y-98194761D01*
X154328857Y-98242380D01*
X154233619Y-98242380D01*
X154090761Y-98194761D01*
X153995523Y-98099523D01*
X153947904Y-98004285D01*
X153900285Y-97813809D01*
X153900285Y-97670952D01*
X153947904Y-97480476D01*
X153995523Y-97385238D01*
X154090761Y-97290000D01*
X154233619Y-97242380D01*
X154328857Y-97242380D01*
X154471714Y-97290000D01*
X154519333Y-97337619D01*
X155090761Y-97670952D02*
X154995523Y-97623333D01*
X154947904Y-97575714D01*
X154900285Y-97480476D01*
X154900285Y-97432857D01*
X154947904Y-97337619D01*
X154995523Y-97290000D01*
X155090761Y-97242380D01*
X155281238Y-97242380D01*
X155376476Y-97290000D01*
X155424095Y-97337619D01*
X155471714Y-97432857D01*
X155471714Y-97480476D01*
X155424095Y-97575714D01*
X155376476Y-97623333D01*
X155281238Y-97670952D01*
X155090761Y-97670952D01*
X154995523Y-97718571D01*
X154947904Y-97766190D01*
X154900285Y-97861428D01*
X154900285Y-98051904D01*
X154947904Y-98147142D01*
X154995523Y-98194761D01*
X155090761Y-98242380D01*
X155281238Y-98242380D01*
X155376476Y-98194761D01*
X155424095Y-98147142D01*
X155471714Y-98051904D01*
X155471714Y-97861428D01*
X155424095Y-97766190D01*
X155376476Y-97718571D01*
X155281238Y-97670952D01*
%TO.C,C7*%
X172187142Y-100750666D02*
X172234761Y-100798285D01*
X172282380Y-100941142D01*
X172282380Y-101036380D01*
X172234761Y-101179238D01*
X172139523Y-101274476D01*
X172044285Y-101322095D01*
X171853809Y-101369714D01*
X171710952Y-101369714D01*
X171520476Y-101322095D01*
X171425238Y-101274476D01*
X171330000Y-101179238D01*
X171282380Y-101036380D01*
X171282380Y-100941142D01*
X171330000Y-100798285D01*
X171377619Y-100750666D01*
X171282380Y-100417333D02*
X171282380Y-99750666D01*
X172282380Y-100179238D01*
%TO.C,C6*%
X159472333Y-123929142D02*
X159424714Y-123976761D01*
X159281857Y-124024380D01*
X159186619Y-124024380D01*
X159043761Y-123976761D01*
X158948523Y-123881523D01*
X158900904Y-123786285D01*
X158853285Y-123595809D01*
X158853285Y-123452952D01*
X158900904Y-123262476D01*
X158948523Y-123167238D01*
X159043761Y-123072000D01*
X159186619Y-123024380D01*
X159281857Y-123024380D01*
X159424714Y-123072000D01*
X159472333Y-123119619D01*
X160329476Y-123024380D02*
X160139000Y-123024380D01*
X160043761Y-123072000D01*
X159996142Y-123119619D01*
X159900904Y-123262476D01*
X159853285Y-123452952D01*
X159853285Y-123833904D01*
X159900904Y-123929142D01*
X159948523Y-123976761D01*
X160043761Y-124024380D01*
X160234238Y-124024380D01*
X160329476Y-123976761D01*
X160377095Y-123929142D01*
X160424714Y-123833904D01*
X160424714Y-123595809D01*
X160377095Y-123500571D01*
X160329476Y-123452952D01*
X160234238Y-123405333D01*
X160043761Y-123405333D01*
X159948523Y-123452952D01*
X159900904Y-123500571D01*
X159853285Y-123595809D01*
%TO.C,C5*%
X164822142Y-122213666D02*
X164869761Y-122261285D01*
X164917380Y-122404142D01*
X164917380Y-122499380D01*
X164869761Y-122642238D01*
X164774523Y-122737476D01*
X164679285Y-122785095D01*
X164488809Y-122832714D01*
X164345952Y-122832714D01*
X164155476Y-122785095D01*
X164060238Y-122737476D01*
X163965000Y-122642238D01*
X163917380Y-122499380D01*
X163917380Y-122404142D01*
X163965000Y-122261285D01*
X164012619Y-122213666D01*
X163917380Y-121308904D02*
X163917380Y-121785095D01*
X164393571Y-121832714D01*
X164345952Y-121785095D01*
X164298333Y-121689857D01*
X164298333Y-121451761D01*
X164345952Y-121356523D01*
X164393571Y-121308904D01*
X164488809Y-121261285D01*
X164726904Y-121261285D01*
X164822142Y-121308904D01*
X164869761Y-121356523D01*
X164917380Y-121451761D01*
X164917380Y-121689857D01*
X164869761Y-121785095D01*
X164822142Y-121832714D01*
%TO.C,C2*%
X167235142Y-126785666D02*
X167282761Y-126833285D01*
X167330380Y-126976142D01*
X167330380Y-127071380D01*
X167282761Y-127214238D01*
X167187523Y-127309476D01*
X167092285Y-127357095D01*
X166901809Y-127404714D01*
X166758952Y-127404714D01*
X166568476Y-127357095D01*
X166473238Y-127309476D01*
X166378000Y-127214238D01*
X166330380Y-127071380D01*
X166330380Y-126976142D01*
X166378000Y-126833285D01*
X166425619Y-126785666D01*
X166425619Y-126404714D02*
X166378000Y-126357095D01*
X166330380Y-126261857D01*
X166330380Y-126023761D01*
X166378000Y-125928523D01*
X166425619Y-125880904D01*
X166520857Y-125833285D01*
X166616095Y-125833285D01*
X166758952Y-125880904D01*
X167330380Y-126452333D01*
X167330380Y-125833285D01*
%TD*%
M02*
