G04 #@! TF.FileFunction,Legend,Top*
%FSLAX46Y46*%
G04 Gerber Fmt 4.6, Leading zero omitted, Abs format (unit mm)*
G04 Created by KiCad (PCBNEW 4.0.7) date 04/10/18 20:33:09*
%MOMM*%
%LPD*%
G01*
G04 APERTURE LIST*
%ADD10C,0.100000*%
%ADD11C,0.150000*%
%ADD12C,0.120000*%
%ADD13C,0.010000*%
%ADD14C,0.200000*%
%ADD15C,0.127000*%
G04 APERTURE END LIST*
D10*
D11*
X136961191Y-48490238D02*
X136818334Y-48442619D01*
X136580238Y-48442619D01*
X136485000Y-48490238D01*
X136437381Y-48537857D01*
X136389762Y-48633095D01*
X136389762Y-48728333D01*
X136437381Y-48823571D01*
X136485000Y-48871190D01*
X136580238Y-48918810D01*
X136770715Y-48966429D01*
X136865953Y-49014048D01*
X136913572Y-49061667D01*
X136961191Y-49156905D01*
X136961191Y-49252143D01*
X136913572Y-49347381D01*
X136865953Y-49395000D01*
X136770715Y-49442619D01*
X136532619Y-49442619D01*
X136389762Y-49395000D01*
X135961191Y-48442619D02*
X135961191Y-49442619D01*
X135723096Y-49442619D01*
X135580238Y-49395000D01*
X135485000Y-49299762D01*
X135437381Y-49204524D01*
X135389762Y-49014048D01*
X135389762Y-48871190D01*
X135437381Y-48680714D01*
X135485000Y-48585476D01*
X135580238Y-48490238D01*
X135723096Y-48442619D01*
X135961191Y-48442619D01*
X135008810Y-48728333D02*
X134532619Y-48728333D01*
X135104048Y-48442619D02*
X134770715Y-49442619D01*
X134437381Y-48442619D01*
X133389762Y-48490238D02*
X133246905Y-48442619D01*
X133008809Y-48442619D01*
X132913571Y-48490238D01*
X132865952Y-48537857D01*
X132818333Y-48633095D01*
X132818333Y-48728333D01*
X132865952Y-48823571D01*
X132913571Y-48871190D01*
X133008809Y-48918810D01*
X133199286Y-48966429D01*
X133294524Y-49014048D01*
X133342143Y-49061667D01*
X133389762Y-49156905D01*
X133389762Y-49252143D01*
X133342143Y-49347381D01*
X133294524Y-49395000D01*
X133199286Y-49442619D01*
X132961190Y-49442619D01*
X132818333Y-49395000D01*
X131818333Y-48537857D02*
X131865952Y-48490238D01*
X132008809Y-48442619D01*
X132104047Y-48442619D01*
X132246905Y-48490238D01*
X132342143Y-48585476D01*
X132389762Y-48680714D01*
X132437381Y-48871190D01*
X132437381Y-49014048D01*
X132389762Y-49204524D01*
X132342143Y-49299762D01*
X132246905Y-49395000D01*
X132104047Y-49442619D01*
X132008809Y-49442619D01*
X131865952Y-49395000D01*
X131818333Y-49347381D01*
X130913571Y-48442619D02*
X131389762Y-48442619D01*
X131389762Y-49442619D01*
X127840952Y-49442619D02*
X127174285Y-49442619D01*
X127602857Y-48442619D01*
X126793333Y-48537857D02*
X126745714Y-48490238D01*
X126793333Y-48442619D01*
X126840952Y-48490238D01*
X126793333Y-48537857D01*
X126793333Y-48442619D01*
X125888571Y-49109286D02*
X125888571Y-48442619D01*
X126126667Y-49490238D02*
X126364762Y-48775952D01*
X125745714Y-48775952D01*
X125507619Y-49442619D02*
X125174286Y-48442619D01*
X124840952Y-49442619D01*
X123221904Y-49395000D02*
X123317142Y-49442619D01*
X123459999Y-49442619D01*
X123602857Y-49395000D01*
X123698095Y-49299762D01*
X123745714Y-49204524D01*
X123793333Y-49014048D01*
X123793333Y-48871190D01*
X123745714Y-48680714D01*
X123698095Y-48585476D01*
X123602857Y-48490238D01*
X123459999Y-48442619D01*
X123364761Y-48442619D01*
X123221904Y-48490238D01*
X123174285Y-48537857D01*
X123174285Y-48871190D01*
X123364761Y-48871190D01*
X122745714Y-48442619D02*
X122745714Y-49442619D01*
X122174285Y-48442619D01*
X122174285Y-49442619D01*
X121698095Y-48442619D02*
X121698095Y-49442619D01*
X121460000Y-49442619D01*
X121317142Y-49395000D01*
X121221904Y-49299762D01*
X121174285Y-49204524D01*
X121126666Y-49014048D01*
X121126666Y-48871190D01*
X121174285Y-48680714D01*
X121221904Y-48585476D01*
X121317142Y-48490238D01*
X121460000Y-48442619D01*
X121698095Y-48442619D01*
X122483809Y-57856381D02*
X122483809Y-56856381D01*
X122864762Y-56856381D01*
X122960000Y-56904000D01*
X123007619Y-56951619D01*
X123055238Y-57046857D01*
X123055238Y-57189714D01*
X123007619Y-57284952D01*
X122960000Y-57332571D01*
X122864762Y-57380190D01*
X122483809Y-57380190D01*
X123626666Y-57856381D02*
X123531428Y-57808762D01*
X123483809Y-57761143D01*
X123436190Y-57665905D01*
X123436190Y-57380190D01*
X123483809Y-57284952D01*
X123531428Y-57237333D01*
X123626666Y-57189714D01*
X123769524Y-57189714D01*
X123864762Y-57237333D01*
X123912381Y-57284952D01*
X123960000Y-57380190D01*
X123960000Y-57665905D01*
X123912381Y-57761143D01*
X123864762Y-57808762D01*
X123769524Y-57856381D01*
X123626666Y-57856381D01*
X124293333Y-57189714D02*
X124483809Y-57856381D01*
X124674286Y-57380190D01*
X124864762Y-57856381D01*
X125055238Y-57189714D01*
X125817143Y-57808762D02*
X125721905Y-57856381D01*
X125531428Y-57856381D01*
X125436190Y-57808762D01*
X125388571Y-57713524D01*
X125388571Y-57332571D01*
X125436190Y-57237333D01*
X125531428Y-57189714D01*
X125721905Y-57189714D01*
X125817143Y-57237333D01*
X125864762Y-57332571D01*
X125864762Y-57427810D01*
X125388571Y-57523048D01*
X126293333Y-57856381D02*
X126293333Y-57189714D01*
X126293333Y-57380190D02*
X126340952Y-57284952D01*
X126388571Y-57237333D01*
X126483809Y-57189714D01*
X126579048Y-57189714D01*
X131112000Y-63968381D02*
X131683429Y-63968381D01*
X131397714Y-64968381D02*
X131397714Y-63968381D01*
X132016762Y-64968381D02*
X132016762Y-63968381D01*
X132445334Y-64968381D02*
X132445334Y-64444571D01*
X132397715Y-64349333D01*
X132302477Y-64301714D01*
X132159619Y-64301714D01*
X132064381Y-64349333D01*
X132016762Y-64396952D01*
X133302477Y-64920762D02*
X133207239Y-64968381D01*
X133016762Y-64968381D01*
X132921524Y-64920762D01*
X132873905Y-64825524D01*
X132873905Y-64444571D01*
X132921524Y-64349333D01*
X133016762Y-64301714D01*
X133207239Y-64301714D01*
X133302477Y-64349333D01*
X133350096Y-64444571D01*
X133350096Y-64539810D01*
X132873905Y-64635048D01*
X133778667Y-64968381D02*
X133778667Y-64301714D01*
X133778667Y-64492190D02*
X133826286Y-64396952D01*
X133873905Y-64349333D01*
X133969143Y-64301714D01*
X134064382Y-64301714D01*
X134397715Y-64968381D02*
X134397715Y-64301714D01*
X134397715Y-64396952D02*
X134445334Y-64349333D01*
X134540572Y-64301714D01*
X134683430Y-64301714D01*
X134778668Y-64349333D01*
X134826287Y-64444571D01*
X134826287Y-64968381D01*
X134826287Y-64444571D02*
X134873906Y-64349333D01*
X134969144Y-64301714D01*
X135112001Y-64301714D01*
X135207239Y-64349333D01*
X135254858Y-64444571D01*
X135254858Y-64968381D01*
X135492953Y-65063619D02*
X136254858Y-65063619D01*
X136397715Y-63968381D02*
X137016763Y-63968381D01*
X136683429Y-64349333D01*
X136826287Y-64349333D01*
X136921525Y-64396952D01*
X136969144Y-64444571D01*
X137016763Y-64539810D01*
X137016763Y-64777905D01*
X136969144Y-64873143D01*
X136921525Y-64920762D01*
X136826287Y-64968381D01*
X136540572Y-64968381D01*
X136445334Y-64920762D01*
X136397715Y-64873143D01*
X130985000Y-78192381D02*
X131556429Y-78192381D01*
X131270714Y-79192381D02*
X131270714Y-78192381D01*
X131889762Y-79192381D02*
X131889762Y-78192381D01*
X132318334Y-79192381D02*
X132318334Y-78668571D01*
X132270715Y-78573333D01*
X132175477Y-78525714D01*
X132032619Y-78525714D01*
X131937381Y-78573333D01*
X131889762Y-78620952D01*
X133175477Y-79144762D02*
X133080239Y-79192381D01*
X132889762Y-79192381D01*
X132794524Y-79144762D01*
X132746905Y-79049524D01*
X132746905Y-78668571D01*
X132794524Y-78573333D01*
X132889762Y-78525714D01*
X133080239Y-78525714D01*
X133175477Y-78573333D01*
X133223096Y-78668571D01*
X133223096Y-78763810D01*
X132746905Y-78859048D01*
X133651667Y-79192381D02*
X133651667Y-78525714D01*
X133651667Y-78716190D02*
X133699286Y-78620952D01*
X133746905Y-78573333D01*
X133842143Y-78525714D01*
X133937382Y-78525714D01*
X134270715Y-79192381D02*
X134270715Y-78525714D01*
X134270715Y-78620952D02*
X134318334Y-78573333D01*
X134413572Y-78525714D01*
X134556430Y-78525714D01*
X134651668Y-78573333D01*
X134699287Y-78668571D01*
X134699287Y-79192381D01*
X134699287Y-78668571D02*
X134746906Y-78573333D01*
X134842144Y-78525714D01*
X134985001Y-78525714D01*
X135080239Y-78573333D01*
X135127858Y-78668571D01*
X135127858Y-79192381D01*
X135365953Y-79287619D02*
X136127858Y-79287619D01*
X136889763Y-79192381D02*
X136318334Y-79192381D01*
X136604048Y-79192381D02*
X136604048Y-78192381D01*
X136508810Y-78335238D01*
X136413572Y-78430476D01*
X136318334Y-78478095D01*
X131112000Y-71080381D02*
X131683429Y-71080381D01*
X131397714Y-72080381D02*
X131397714Y-71080381D01*
X132016762Y-72080381D02*
X132016762Y-71080381D01*
X132445334Y-72080381D02*
X132445334Y-71556571D01*
X132397715Y-71461333D01*
X132302477Y-71413714D01*
X132159619Y-71413714D01*
X132064381Y-71461333D01*
X132016762Y-71508952D01*
X133302477Y-72032762D02*
X133207239Y-72080381D01*
X133016762Y-72080381D01*
X132921524Y-72032762D01*
X132873905Y-71937524D01*
X132873905Y-71556571D01*
X132921524Y-71461333D01*
X133016762Y-71413714D01*
X133207239Y-71413714D01*
X133302477Y-71461333D01*
X133350096Y-71556571D01*
X133350096Y-71651810D01*
X132873905Y-71747048D01*
X133778667Y-72080381D02*
X133778667Y-71413714D01*
X133778667Y-71604190D02*
X133826286Y-71508952D01*
X133873905Y-71461333D01*
X133969143Y-71413714D01*
X134064382Y-71413714D01*
X134397715Y-72080381D02*
X134397715Y-71413714D01*
X134397715Y-71508952D02*
X134445334Y-71461333D01*
X134540572Y-71413714D01*
X134683430Y-71413714D01*
X134778668Y-71461333D01*
X134826287Y-71556571D01*
X134826287Y-72080381D01*
X134826287Y-71556571D02*
X134873906Y-71461333D01*
X134969144Y-71413714D01*
X135112001Y-71413714D01*
X135207239Y-71461333D01*
X135254858Y-71556571D01*
X135254858Y-72080381D01*
X135492953Y-72175619D02*
X136254858Y-72175619D01*
X136445334Y-71175619D02*
X136492953Y-71128000D01*
X136588191Y-71080381D01*
X136826287Y-71080381D01*
X136921525Y-71128000D01*
X136969144Y-71175619D01*
X137016763Y-71270857D01*
X137016763Y-71366095D01*
X136969144Y-71508952D01*
X136397715Y-72080381D01*
X137016763Y-72080381D01*
X132231048Y-57761143D02*
X132183429Y-57808762D01*
X132040572Y-57856381D01*
X131945334Y-57856381D01*
X131802476Y-57808762D01*
X131707238Y-57713524D01*
X131659619Y-57618286D01*
X131612000Y-57427810D01*
X131612000Y-57284952D01*
X131659619Y-57094476D01*
X131707238Y-56999238D01*
X131802476Y-56904000D01*
X131945334Y-56856381D01*
X132040572Y-56856381D01*
X132183429Y-56904000D01*
X132231048Y-56951619D01*
X132802476Y-57856381D02*
X132707238Y-57808762D01*
X132659619Y-57761143D01*
X132612000Y-57665905D01*
X132612000Y-57380190D01*
X132659619Y-57284952D01*
X132707238Y-57237333D01*
X132802476Y-57189714D01*
X132945334Y-57189714D01*
X133040572Y-57237333D01*
X133088191Y-57284952D01*
X133135810Y-57380190D01*
X133135810Y-57665905D01*
X133088191Y-57761143D01*
X133040572Y-57808762D01*
X132945334Y-57856381D01*
X132802476Y-57856381D01*
X133564381Y-57856381D02*
X133564381Y-57189714D01*
X133564381Y-57284952D02*
X133612000Y-57237333D01*
X133707238Y-57189714D01*
X133850096Y-57189714D01*
X133945334Y-57237333D01*
X133992953Y-57332571D01*
X133992953Y-57856381D01*
X133992953Y-57332571D02*
X134040572Y-57237333D01*
X134135810Y-57189714D01*
X134278667Y-57189714D01*
X134373905Y-57237333D01*
X134421524Y-57332571D01*
X134421524Y-57856381D01*
X134897714Y-57856381D02*
X134897714Y-57189714D01*
X134897714Y-57284952D02*
X134945333Y-57237333D01*
X135040571Y-57189714D01*
X135183429Y-57189714D01*
X135278667Y-57237333D01*
X135326286Y-57332571D01*
X135326286Y-57856381D01*
X135326286Y-57332571D02*
X135373905Y-57237333D01*
X135469143Y-57189714D01*
X135612000Y-57189714D01*
X135707238Y-57237333D01*
X135754857Y-57332571D01*
X135754857Y-57856381D01*
X136183428Y-57808762D02*
X136278666Y-57856381D01*
X136469142Y-57856381D01*
X136564381Y-57808762D01*
X136612000Y-57713524D01*
X136612000Y-57665905D01*
X136564381Y-57570667D01*
X136469142Y-57523048D01*
X136326285Y-57523048D01*
X136231047Y-57475429D01*
X136183428Y-57380190D01*
X136183428Y-57332571D01*
X136231047Y-57237333D01*
X136326285Y-57189714D01*
X136469142Y-57189714D01*
X136564381Y-57237333D01*
X95519810Y-145376381D02*
X95519810Y-146090667D01*
X95472190Y-146233524D01*
X95376952Y-146328762D01*
X95234095Y-146376381D01*
X95138857Y-146376381D01*
X96424572Y-145709714D02*
X96424572Y-146376381D01*
X95996000Y-145709714D02*
X95996000Y-146233524D01*
X96043619Y-146328762D01*
X96138857Y-146376381D01*
X96281715Y-146376381D01*
X96376953Y-146328762D01*
X96424572Y-146281143D01*
X96853143Y-146328762D02*
X96948381Y-146376381D01*
X97138857Y-146376381D01*
X97234096Y-146328762D01*
X97281715Y-146233524D01*
X97281715Y-146185905D01*
X97234096Y-146090667D01*
X97138857Y-146043048D01*
X96996000Y-146043048D01*
X96900762Y-145995429D01*
X96853143Y-145900190D01*
X96853143Y-145852571D01*
X96900762Y-145757333D01*
X96996000Y-145709714D01*
X97138857Y-145709714D01*
X97234096Y-145757333D01*
X97567429Y-145709714D02*
X97948381Y-145709714D01*
X97710286Y-145376381D02*
X97710286Y-146233524D01*
X97757905Y-146328762D01*
X97853143Y-146376381D01*
X97948381Y-146376381D01*
X99615049Y-146376381D02*
X99281715Y-145900190D01*
X99043620Y-146376381D02*
X99043620Y-145376381D01*
X99424573Y-145376381D01*
X99519811Y-145424000D01*
X99567430Y-145471619D01*
X99615049Y-145566857D01*
X99615049Y-145709714D01*
X99567430Y-145804952D01*
X99519811Y-145852571D01*
X99424573Y-145900190D01*
X99043620Y-145900190D01*
X100424573Y-146328762D02*
X100329335Y-146376381D01*
X100138858Y-146376381D01*
X100043620Y-146328762D01*
X99996001Y-146233524D01*
X99996001Y-145852571D01*
X100043620Y-145757333D01*
X100138858Y-145709714D01*
X100329335Y-145709714D01*
X100424573Y-145757333D01*
X100472192Y-145852571D01*
X100472192Y-145947810D01*
X99996001Y-146043048D01*
X101329335Y-146376381D02*
X101329335Y-145852571D01*
X101281716Y-145757333D01*
X101186478Y-145709714D01*
X100996001Y-145709714D01*
X100900763Y-145757333D01*
X101329335Y-146328762D02*
X101234097Y-146376381D01*
X100996001Y-146376381D01*
X100900763Y-146328762D01*
X100853144Y-146233524D01*
X100853144Y-146138286D01*
X100900763Y-146043048D01*
X100996001Y-145995429D01*
X101234097Y-145995429D01*
X101329335Y-145947810D01*
X102234097Y-146376381D02*
X102234097Y-145376381D01*
X102234097Y-146328762D02*
X102138859Y-146376381D01*
X101948382Y-146376381D01*
X101853144Y-146328762D01*
X101805525Y-146281143D01*
X101757906Y-146185905D01*
X101757906Y-145900190D01*
X101805525Y-145804952D01*
X101853144Y-145757333D01*
X101948382Y-145709714D01*
X102138859Y-145709714D01*
X102234097Y-145757333D01*
X103329335Y-145376381D02*
X103900764Y-145376381D01*
X103615049Y-146376381D02*
X103615049Y-145376381D01*
X104234097Y-146376381D02*
X104234097Y-145376381D01*
X104662669Y-146376381D02*
X104662669Y-145852571D01*
X104615050Y-145757333D01*
X104519812Y-145709714D01*
X104376954Y-145709714D01*
X104281716Y-145757333D01*
X104234097Y-145804952D01*
X105519812Y-146328762D02*
X105424574Y-146376381D01*
X105234097Y-146376381D01*
X105138859Y-146328762D01*
X105091240Y-146233524D01*
X105091240Y-145852571D01*
X105138859Y-145757333D01*
X105234097Y-145709714D01*
X105424574Y-145709714D01*
X105519812Y-145757333D01*
X105567431Y-145852571D01*
X105567431Y-145947810D01*
X105091240Y-146043048D01*
X106757907Y-146376381D02*
X106757907Y-145376381D01*
X106996002Y-145376381D01*
X107138860Y-145424000D01*
X107234098Y-145519238D01*
X107281717Y-145614476D01*
X107329336Y-145804952D01*
X107329336Y-145947810D01*
X107281717Y-146138286D01*
X107234098Y-146233524D01*
X107138860Y-146328762D01*
X106996002Y-146376381D01*
X106757907Y-146376381D01*
X108186479Y-146376381D02*
X108186479Y-145852571D01*
X108138860Y-145757333D01*
X108043622Y-145709714D01*
X107853145Y-145709714D01*
X107757907Y-145757333D01*
X108186479Y-146328762D02*
X108091241Y-146376381D01*
X107853145Y-146376381D01*
X107757907Y-146328762D01*
X107710288Y-146233524D01*
X107710288Y-146138286D01*
X107757907Y-146043048D01*
X107853145Y-145995429D01*
X108091241Y-145995429D01*
X108186479Y-145947810D01*
X108519812Y-145709714D02*
X108900764Y-145709714D01*
X108662669Y-145376381D02*
X108662669Y-146233524D01*
X108710288Y-146328762D01*
X108805526Y-146376381D01*
X108900764Y-146376381D01*
X109662670Y-146376381D02*
X109662670Y-145852571D01*
X109615051Y-145757333D01*
X109519813Y-145709714D01*
X109329336Y-145709714D01*
X109234098Y-145757333D01*
X109662670Y-146328762D02*
X109567432Y-146376381D01*
X109329336Y-146376381D01*
X109234098Y-146328762D01*
X109186479Y-146233524D01*
X109186479Y-146138286D01*
X109234098Y-146043048D01*
X109329336Y-145995429D01*
X109567432Y-145995429D01*
X109662670Y-145947810D01*
X110091241Y-146328762D02*
X110186479Y-146376381D01*
X110376955Y-146376381D01*
X110472194Y-146328762D01*
X110519813Y-146233524D01*
X110519813Y-146185905D01*
X110472194Y-146090667D01*
X110376955Y-146043048D01*
X110234098Y-146043048D01*
X110138860Y-145995429D01*
X110091241Y-145900190D01*
X110091241Y-145852571D01*
X110138860Y-145757333D01*
X110234098Y-145709714D01*
X110376955Y-145709714D01*
X110472194Y-145757333D01*
X110948384Y-146376381D02*
X110948384Y-145376381D01*
X111376956Y-146376381D02*
X111376956Y-145852571D01*
X111329337Y-145757333D01*
X111234099Y-145709714D01*
X111091241Y-145709714D01*
X110996003Y-145757333D01*
X110948384Y-145804952D01*
X112234099Y-146328762D02*
X112138861Y-146376381D01*
X111948384Y-146376381D01*
X111853146Y-146328762D01*
X111805527Y-146233524D01*
X111805527Y-145852571D01*
X111853146Y-145757333D01*
X111948384Y-145709714D01*
X112138861Y-145709714D01*
X112234099Y-145757333D01*
X112281718Y-145852571D01*
X112281718Y-145947810D01*
X111805527Y-146043048D01*
X113091242Y-146328762D02*
X112996004Y-146376381D01*
X112805527Y-146376381D01*
X112710289Y-146328762D01*
X112662670Y-146233524D01*
X112662670Y-145852571D01*
X112710289Y-145757333D01*
X112805527Y-145709714D01*
X112996004Y-145709714D01*
X113091242Y-145757333D01*
X113138861Y-145852571D01*
X113138861Y-145947810D01*
X112662670Y-146043048D01*
X113424575Y-145709714D02*
X113805527Y-145709714D01*
X113567432Y-145376381D02*
X113567432Y-146233524D01*
X113615051Y-146328762D01*
X113710289Y-146376381D01*
X113805527Y-146376381D01*
X95186476Y-147740667D02*
X95662667Y-147740667D01*
X95091238Y-148026381D02*
X95424571Y-147026381D01*
X95757905Y-148026381D01*
X96519810Y-148026381D02*
X96519810Y-147026381D01*
X96519810Y-147978762D02*
X96424572Y-148026381D01*
X96234095Y-148026381D01*
X96138857Y-147978762D01*
X96091238Y-147931143D01*
X96043619Y-147835905D01*
X96043619Y-147550190D01*
X96091238Y-147454952D01*
X96138857Y-147407333D01*
X96234095Y-147359714D01*
X96424572Y-147359714D01*
X96519810Y-147407333D01*
X97424572Y-148026381D02*
X97424572Y-147502571D01*
X97376953Y-147407333D01*
X97281715Y-147359714D01*
X97091238Y-147359714D01*
X96996000Y-147407333D01*
X97424572Y-147978762D02*
X97329334Y-148026381D01*
X97091238Y-148026381D01*
X96996000Y-147978762D01*
X96948381Y-147883524D01*
X96948381Y-147788286D01*
X96996000Y-147693048D01*
X97091238Y-147645429D01*
X97329334Y-147645429D01*
X97424572Y-147597810D01*
X97900762Y-148026381D02*
X97900762Y-147359714D01*
X97900762Y-147454952D02*
X97948381Y-147407333D01*
X98043619Y-147359714D01*
X98186477Y-147359714D01*
X98281715Y-147407333D01*
X98329334Y-147502571D01*
X98329334Y-148026381D01*
X98329334Y-147502571D02*
X98376953Y-147407333D01*
X98472191Y-147359714D01*
X98615048Y-147359714D01*
X98710286Y-147407333D01*
X98757905Y-147502571D01*
X98757905Y-148026381D01*
X99996000Y-148026381D02*
X99996000Y-147026381D01*
X100376953Y-147026381D01*
X100472191Y-147074000D01*
X100519810Y-147121619D01*
X100567429Y-147216857D01*
X100567429Y-147359714D01*
X100519810Y-147454952D01*
X100472191Y-147502571D01*
X100376953Y-147550190D01*
X99996000Y-147550190D01*
X101424572Y-148026381D02*
X101424572Y-147502571D01*
X101376953Y-147407333D01*
X101281715Y-147359714D01*
X101091238Y-147359714D01*
X100996000Y-147407333D01*
X101424572Y-147978762D02*
X101329334Y-148026381D01*
X101091238Y-148026381D01*
X100996000Y-147978762D01*
X100948381Y-147883524D01*
X100948381Y-147788286D01*
X100996000Y-147693048D01*
X101091238Y-147645429D01*
X101329334Y-147645429D01*
X101424572Y-147597810D01*
X102329334Y-147359714D02*
X102329334Y-148026381D01*
X101900762Y-147359714D02*
X101900762Y-147883524D01*
X101948381Y-147978762D01*
X102043619Y-148026381D01*
X102186477Y-148026381D01*
X102281715Y-147978762D01*
X102329334Y-147931143D01*
X102948381Y-148026381D02*
X102853143Y-147978762D01*
X102805524Y-147883524D01*
X102805524Y-147026381D01*
X95186476Y-148771619D02*
X95234095Y-148724000D01*
X95329333Y-148676381D01*
X95567429Y-148676381D01*
X95662667Y-148724000D01*
X95710286Y-148771619D01*
X95757905Y-148866857D01*
X95757905Y-148962095D01*
X95710286Y-149104952D01*
X95138857Y-149676381D01*
X95757905Y-149676381D01*
X96376952Y-148676381D02*
X96472191Y-148676381D01*
X96567429Y-148724000D01*
X96615048Y-148771619D01*
X96662667Y-148866857D01*
X96710286Y-149057333D01*
X96710286Y-149295429D01*
X96662667Y-149485905D01*
X96615048Y-149581143D01*
X96567429Y-149628762D01*
X96472191Y-149676381D01*
X96376952Y-149676381D01*
X96281714Y-149628762D01*
X96234095Y-149581143D01*
X96186476Y-149485905D01*
X96138857Y-149295429D01*
X96138857Y-149057333D01*
X96186476Y-148866857D01*
X96234095Y-148771619D01*
X96281714Y-148724000D01*
X96376952Y-148676381D01*
X97662667Y-149676381D02*
X97091238Y-149676381D01*
X97376952Y-149676381D02*
X97376952Y-148676381D01*
X97281714Y-148819238D01*
X97186476Y-148914476D01*
X97091238Y-148962095D01*
X98234095Y-149104952D02*
X98138857Y-149057333D01*
X98091238Y-149009714D01*
X98043619Y-148914476D01*
X98043619Y-148866857D01*
X98091238Y-148771619D01*
X98138857Y-148724000D01*
X98234095Y-148676381D01*
X98424572Y-148676381D01*
X98519810Y-148724000D01*
X98567429Y-148771619D01*
X98615048Y-148866857D01*
X98615048Y-148914476D01*
X98567429Y-149009714D01*
X98519810Y-149057333D01*
X98424572Y-149104952D01*
X98234095Y-149104952D01*
X98138857Y-149152571D01*
X98091238Y-149200190D01*
X98043619Y-149295429D01*
X98043619Y-149485905D01*
X98091238Y-149581143D01*
X98138857Y-149628762D01*
X98234095Y-149676381D01*
X98424572Y-149676381D01*
X98519810Y-149628762D01*
X98567429Y-149581143D01*
X98615048Y-149485905D01*
X98615048Y-149295429D01*
X98567429Y-149200190D01*
X98519810Y-149152571D01*
X98424572Y-149104952D01*
X127000000Y-56515000D02*
X127000000Y-50165000D01*
X127000000Y-50165000D02*
X121920000Y-50165000D01*
X121920000Y-50165000D02*
X121920000Y-56515000D01*
X126925000Y-56515000D02*
X121995000Y-56515000D01*
D12*
X117135000Y-98160000D02*
X117135000Y-99960000D01*
X120355000Y-99960000D02*
X120355000Y-97010000D01*
X90487500Y-91884500D02*
X87947500Y-91884500D01*
X87947500Y-91884500D02*
X87947500Y-94554500D01*
X90487500Y-94554500D02*
X128717500Y-94554500D01*
X85277500Y-94554500D02*
X87947500Y-94554500D01*
X87947500Y-79184500D02*
X87947500Y-76514500D01*
X87947500Y-79184500D02*
X126047500Y-79184500D01*
X126047500Y-79184500D02*
X126047500Y-76514500D01*
X90487500Y-91884500D02*
X90487500Y-94554500D01*
X90487500Y-91884500D02*
X126047500Y-91884500D01*
X126047500Y-91884500D02*
X126047500Y-94554500D01*
X128717500Y-94554500D02*
X128717500Y-76514500D01*
X128717500Y-76514500D02*
X85277500Y-76514500D01*
X85277500Y-76514500D02*
X85277500Y-94554500D01*
X79795000Y-80780000D02*
X79795000Y-81780000D01*
X81495000Y-81780000D02*
X81495000Y-80780000D01*
X79795000Y-62365000D02*
X79795000Y-63365000D01*
X81495000Y-63365000D02*
X81495000Y-62365000D01*
X121070000Y-62492000D02*
X121070000Y-63492000D01*
X122770000Y-63492000D02*
X122770000Y-62492000D01*
X80145000Y-53555000D02*
X81145000Y-53555000D01*
X81145000Y-51855000D02*
X80145000Y-51855000D01*
X80145000Y-57365000D02*
X81145000Y-57365000D01*
X81145000Y-55665000D02*
X80145000Y-55665000D01*
X127674000Y-65032000D02*
X127674000Y-66032000D01*
X129374000Y-66032000D02*
X129374000Y-65032000D01*
X124626000Y-65032000D02*
X124626000Y-66032000D01*
X126326000Y-66032000D02*
X126326000Y-65032000D01*
X108704000Y-60110000D02*
X107704000Y-60110000D01*
X107704000Y-61810000D02*
X108704000Y-61810000D01*
X108704000Y-64174000D02*
X107704000Y-64174000D01*
X107704000Y-65874000D02*
X108704000Y-65874000D01*
X94480000Y-68238000D02*
X93480000Y-68238000D01*
X93480000Y-69938000D02*
X94480000Y-69938000D01*
X94480000Y-72302000D02*
X93480000Y-72302000D01*
X93480000Y-74002000D02*
X94480000Y-74002000D01*
X108704000Y-68238000D02*
X107704000Y-68238000D01*
X107704000Y-69938000D02*
X108704000Y-69938000D01*
X108704000Y-72302000D02*
X107704000Y-72302000D01*
X107704000Y-74002000D02*
X108704000Y-74002000D01*
X94480000Y-60110000D02*
X93480000Y-60110000D01*
X93480000Y-61810000D02*
X94480000Y-61810000D01*
X94480000Y-64174000D02*
X93480000Y-64174000D01*
X93480000Y-65874000D02*
X94480000Y-65874000D01*
X117975000Y-107100000D02*
X116975000Y-107100000D01*
X116975000Y-108800000D02*
X117975000Y-108800000D01*
X117975000Y-103290000D02*
X116975000Y-103290000D01*
X116975000Y-104990000D02*
X117975000Y-104990000D01*
X125595000Y-96305000D02*
X124595000Y-96305000D01*
X124595000Y-98005000D02*
X125595000Y-98005000D01*
X125595000Y-100115000D02*
X124595000Y-100115000D01*
X124595000Y-101815000D02*
X125595000Y-101815000D01*
X133215000Y-103290000D02*
X132215000Y-103290000D01*
X132215000Y-104990000D02*
X133215000Y-104990000D01*
X133215000Y-107100000D02*
X132215000Y-107100000D01*
X132215000Y-108800000D02*
X133215000Y-108800000D01*
D11*
X136525000Y-56515000D02*
X136525000Y-50165000D01*
X136525000Y-50165000D02*
X131445000Y-50165000D01*
X131445000Y-50165000D02*
X131445000Y-56515000D01*
X136450000Y-56515000D02*
X131520000Y-56515000D01*
X131064000Y-77724000D02*
X137414000Y-77724000D01*
X137414000Y-77724000D02*
X137414000Y-72644000D01*
X137414000Y-72644000D02*
X131064000Y-72644000D01*
X131064000Y-77649000D02*
X131064000Y-72719000D01*
X131064000Y-70612000D02*
X137414000Y-70612000D01*
X137414000Y-70612000D02*
X137414000Y-65532000D01*
X137414000Y-65532000D02*
X131064000Y-65532000D01*
X131064000Y-70537000D02*
X131064000Y-65607000D01*
X131064000Y-63500000D02*
X137414000Y-63500000D01*
X137414000Y-63500000D02*
X137414000Y-58420000D01*
X137414000Y-58420000D02*
X131064000Y-58420000D01*
X131064000Y-63425000D02*
X131064000Y-58495000D01*
D12*
X99305000Y-98460000D02*
X99305000Y-99660000D01*
X97545000Y-99660000D02*
X97545000Y-98460000D01*
X102480000Y-98460000D02*
X102480000Y-99660000D01*
X100720000Y-99660000D02*
X100720000Y-98460000D01*
X122564000Y-71720000D02*
X122564000Y-70520000D01*
X124324000Y-70520000D02*
X124324000Y-71720000D01*
X119008000Y-71720000D02*
X119008000Y-70520000D01*
X120768000Y-70520000D02*
X120768000Y-71720000D01*
X115452000Y-71720000D02*
X115452000Y-70520000D01*
X117212000Y-70520000D02*
X117212000Y-71720000D01*
D11*
X107315000Y-109220000D02*
X107315000Y-143256000D01*
X81915000Y-109220000D02*
X81915000Y-143256000D01*
X107315000Y-109220000D02*
X81915000Y-109220000D01*
X107315000Y-143256000D02*
X81915000Y-143256000D01*
X111760000Y-110490000D02*
X137160000Y-110490000D01*
X111760000Y-142240000D02*
X137160000Y-142240000D01*
X111760000Y-142240000D02*
X111760000Y-110490000D01*
X137160000Y-142240000D02*
X137160000Y-110490000D01*
D12*
X89780000Y-98460000D02*
X89780000Y-99660000D01*
X88020000Y-99660000D02*
X88020000Y-98460000D01*
X92955000Y-98460000D02*
X92955000Y-99660000D01*
X91195000Y-99660000D02*
X91195000Y-98460000D01*
X105655000Y-98460000D02*
X105655000Y-99660000D01*
X103895000Y-99660000D02*
X103895000Y-98460000D01*
X108830000Y-98460000D02*
X108830000Y-99660000D01*
X107070000Y-99660000D02*
X107070000Y-98460000D01*
X88276000Y-52746000D02*
X86476000Y-52746000D01*
X86476000Y-55966000D02*
X88926000Y-55966000D01*
X129245000Y-72020000D02*
X129245000Y-70220000D01*
X126025000Y-70220000D02*
X126025000Y-72670000D01*
X100498000Y-62092000D02*
X100498000Y-63892000D01*
X103718000Y-63892000D02*
X103718000Y-60942000D01*
X86274000Y-70220000D02*
X86274000Y-72020000D01*
X89494000Y-72020000D02*
X89494000Y-69070000D01*
X100498000Y-70220000D02*
X100498000Y-72020000D01*
X103718000Y-72020000D02*
X103718000Y-69070000D01*
X86274000Y-62092000D02*
X86274000Y-63892000D01*
X89494000Y-63892000D02*
X89494000Y-60942000D01*
X112735000Y-106945000D02*
X112735000Y-105145000D01*
X109515000Y-105145000D02*
X109515000Y-108095000D01*
X124755000Y-105145000D02*
X124755000Y-106945000D01*
X127975000Y-106945000D02*
X127975000Y-103995000D01*
D13*
G36*
X90065483Y-149132705D02*
X90113615Y-149144425D01*
X90156790Y-149164407D01*
X90194351Y-149191709D01*
X90225643Y-149225386D01*
X90250009Y-149264497D01*
X90266792Y-149308099D01*
X90275337Y-149355248D01*
X90274985Y-149405002D01*
X90271606Y-149428776D01*
X90260014Y-149467915D01*
X90240679Y-149506600D01*
X90215305Y-149542442D01*
X90185596Y-149573054D01*
X90153255Y-149596047D01*
X90151621Y-149596942D01*
X90111445Y-149613535D01*
X90066560Y-149623375D01*
X90020156Y-149626103D01*
X89975419Y-149621360D01*
X89962251Y-149618280D01*
X89918252Y-149601519D01*
X89879705Y-149577046D01*
X89847094Y-149546012D01*
X89820906Y-149509571D01*
X89801627Y-149468874D01*
X89789743Y-149425073D01*
X89785739Y-149379320D01*
X89785918Y-149377400D01*
X89847428Y-149377400D01*
X89847715Y-149402749D01*
X89848922Y-149421037D01*
X89851567Y-149435356D01*
X89856165Y-149448797D01*
X89861312Y-149460386D01*
X89881593Y-149496622D01*
X89905072Y-149524649D01*
X89930152Y-149544342D01*
X89968288Y-149562972D01*
X90009356Y-149572491D01*
X90051528Y-149572768D01*
X90092978Y-149563668D01*
X90108930Y-149557380D01*
X90141131Y-149537812D01*
X90169946Y-149510348D01*
X90193233Y-149477173D01*
X90199565Y-149464867D01*
X90205733Y-149450659D01*
X90209711Y-149437748D01*
X90211966Y-149423218D01*
X90212966Y-149404151D01*
X90213180Y-149379940D01*
X90212940Y-149354236D01*
X90211888Y-149335692D01*
X90209523Y-149321311D01*
X90205347Y-149308097D01*
X90198857Y-149293053D01*
X90198579Y-149292450D01*
X90180717Y-149262866D01*
X90156244Y-149234840D01*
X90128150Y-149211397D01*
X90105233Y-149198046D01*
X90091281Y-149192532D01*
X90076519Y-149189137D01*
X90057911Y-149187411D01*
X90032418Y-149186901D01*
X90030300Y-149186900D01*
X90005626Y-149187209D01*
X89987916Y-149188515D01*
X89973981Y-149191379D01*
X89960633Y-149196366D01*
X89950927Y-149200931D01*
X89921059Y-149220254D01*
X89893267Y-149246855D01*
X89870282Y-149277874D01*
X89861038Y-149295012D01*
X89854713Y-149309662D01*
X89850699Y-149323011D01*
X89848487Y-149338131D01*
X89847571Y-149358097D01*
X89847428Y-149377400D01*
X89785918Y-149377400D01*
X89790101Y-149332767D01*
X89803316Y-149286567D01*
X89813081Y-149264582D01*
X89839177Y-149223286D01*
X89872165Y-149188749D01*
X89910832Y-149161605D01*
X89953965Y-149142487D01*
X90000351Y-149132031D01*
X90048775Y-149130871D01*
X90065483Y-149132705D01*
X90065483Y-149132705D01*
G37*
X90065483Y-149132705D02*
X90113615Y-149144425D01*
X90156790Y-149164407D01*
X90194351Y-149191709D01*
X90225643Y-149225386D01*
X90250009Y-149264497D01*
X90266792Y-149308099D01*
X90275337Y-149355248D01*
X90274985Y-149405002D01*
X90271606Y-149428776D01*
X90260014Y-149467915D01*
X90240679Y-149506600D01*
X90215305Y-149542442D01*
X90185596Y-149573054D01*
X90153255Y-149596047D01*
X90151621Y-149596942D01*
X90111445Y-149613535D01*
X90066560Y-149623375D01*
X90020156Y-149626103D01*
X89975419Y-149621360D01*
X89962251Y-149618280D01*
X89918252Y-149601519D01*
X89879705Y-149577046D01*
X89847094Y-149546012D01*
X89820906Y-149509571D01*
X89801627Y-149468874D01*
X89789743Y-149425073D01*
X89785739Y-149379320D01*
X89785918Y-149377400D01*
X89847428Y-149377400D01*
X89847715Y-149402749D01*
X89848922Y-149421037D01*
X89851567Y-149435356D01*
X89856165Y-149448797D01*
X89861312Y-149460386D01*
X89881593Y-149496622D01*
X89905072Y-149524649D01*
X89930152Y-149544342D01*
X89968288Y-149562972D01*
X90009356Y-149572491D01*
X90051528Y-149572768D01*
X90092978Y-149563668D01*
X90108930Y-149557380D01*
X90141131Y-149537812D01*
X90169946Y-149510348D01*
X90193233Y-149477173D01*
X90199565Y-149464867D01*
X90205733Y-149450659D01*
X90209711Y-149437748D01*
X90211966Y-149423218D01*
X90212966Y-149404151D01*
X90213180Y-149379940D01*
X90212940Y-149354236D01*
X90211888Y-149335692D01*
X90209523Y-149321311D01*
X90205347Y-149308097D01*
X90198857Y-149293053D01*
X90198579Y-149292450D01*
X90180717Y-149262866D01*
X90156244Y-149234840D01*
X90128150Y-149211397D01*
X90105233Y-149198046D01*
X90091281Y-149192532D01*
X90076519Y-149189137D01*
X90057911Y-149187411D01*
X90032418Y-149186901D01*
X90030300Y-149186900D01*
X90005626Y-149187209D01*
X89987916Y-149188515D01*
X89973981Y-149191379D01*
X89960633Y-149196366D01*
X89950927Y-149200931D01*
X89921059Y-149220254D01*
X89893267Y-149246855D01*
X89870282Y-149277874D01*
X89861038Y-149295012D01*
X89854713Y-149309662D01*
X89850699Y-149323011D01*
X89848487Y-149338131D01*
X89847571Y-149358097D01*
X89847428Y-149377400D01*
X89785918Y-149377400D01*
X89790101Y-149332767D01*
X89803316Y-149286567D01*
X89813081Y-149264582D01*
X89839177Y-149223286D01*
X89872165Y-149188749D01*
X89910832Y-149161605D01*
X89953965Y-149142487D01*
X90000351Y-149132031D01*
X90048775Y-149130871D01*
X90065483Y-149132705D01*
G36*
X90634697Y-149133833D02*
X90678559Y-149145926D01*
X90719489Y-149166265D01*
X90749609Y-149188980D01*
X90771980Y-149209066D01*
X90753269Y-149228038D01*
X90742122Y-149238902D01*
X90735061Y-149243423D01*
X90729153Y-149242599D01*
X90722789Y-149238401D01*
X90690044Y-149215936D01*
X90661614Y-149200221D01*
X90635067Y-149190407D01*
X90607973Y-149185646D01*
X90577902Y-149185089D01*
X90571047Y-149185422D01*
X90530855Y-149191526D01*
X90496176Y-149205415D01*
X90465030Y-149228033D01*
X90450063Y-149243021D01*
X90428103Y-149270861D01*
X90413385Y-149299481D01*
X90404950Y-149331546D01*
X90401841Y-149369723D01*
X90401772Y-149377400D01*
X90404284Y-149418255D01*
X90412399Y-149452919D01*
X90426986Y-149484188D01*
X90441623Y-149505699D01*
X90468253Y-149532642D01*
X90501431Y-149553687D01*
X90538818Y-149567856D01*
X90578073Y-149574172D01*
X90604095Y-149573541D01*
X90636742Y-149566483D01*
X90670770Y-149552985D01*
X90701825Y-149534996D01*
X90717142Y-149522928D01*
X90737251Y-149504761D01*
X90756163Y-149524130D01*
X90775076Y-149543498D01*
X90755923Y-149560315D01*
X90715507Y-149590553D01*
X90673458Y-149611216D01*
X90628234Y-149622888D01*
X90582214Y-149626188D01*
X90549604Y-149624632D01*
X90521698Y-149619670D01*
X90504120Y-149614409D01*
X90460738Y-149594633D01*
X90423458Y-149567656D01*
X90392622Y-149534646D01*
X90368571Y-149496769D01*
X90351646Y-149455193D01*
X90342189Y-149411086D01*
X90340541Y-149365616D01*
X90347044Y-149319949D01*
X90362039Y-149275254D01*
X90385867Y-149232698D01*
X90390581Y-149226086D01*
X90421799Y-149191834D01*
X90458724Y-149164934D01*
X90499916Y-149145535D01*
X90543936Y-149133786D01*
X90589343Y-149129836D01*
X90634697Y-149133833D01*
X90634697Y-149133833D01*
G37*
X90634697Y-149133833D02*
X90678559Y-149145926D01*
X90719489Y-149166265D01*
X90749609Y-149188980D01*
X90771980Y-149209066D01*
X90753269Y-149228038D01*
X90742122Y-149238902D01*
X90735061Y-149243423D01*
X90729153Y-149242599D01*
X90722789Y-149238401D01*
X90690044Y-149215936D01*
X90661614Y-149200221D01*
X90635067Y-149190407D01*
X90607973Y-149185646D01*
X90577902Y-149185089D01*
X90571047Y-149185422D01*
X90530855Y-149191526D01*
X90496176Y-149205415D01*
X90465030Y-149228033D01*
X90450063Y-149243021D01*
X90428103Y-149270861D01*
X90413385Y-149299481D01*
X90404950Y-149331546D01*
X90401841Y-149369723D01*
X90401772Y-149377400D01*
X90404284Y-149418255D01*
X90412399Y-149452919D01*
X90426986Y-149484188D01*
X90441623Y-149505699D01*
X90468253Y-149532642D01*
X90501431Y-149553687D01*
X90538818Y-149567856D01*
X90578073Y-149574172D01*
X90604095Y-149573541D01*
X90636742Y-149566483D01*
X90670770Y-149552985D01*
X90701825Y-149534996D01*
X90717142Y-149522928D01*
X90737251Y-149504761D01*
X90756163Y-149524130D01*
X90775076Y-149543498D01*
X90755923Y-149560315D01*
X90715507Y-149590553D01*
X90673458Y-149611216D01*
X90628234Y-149622888D01*
X90582214Y-149626188D01*
X90549604Y-149624632D01*
X90521698Y-149619670D01*
X90504120Y-149614409D01*
X90460738Y-149594633D01*
X90423458Y-149567656D01*
X90392622Y-149534646D01*
X90368571Y-149496769D01*
X90351646Y-149455193D01*
X90342189Y-149411086D01*
X90340541Y-149365616D01*
X90347044Y-149319949D01*
X90362039Y-149275254D01*
X90385867Y-149232698D01*
X90390581Y-149226086D01*
X90421799Y-149191834D01*
X90458724Y-149164934D01*
X90499916Y-149145535D01*
X90543936Y-149133786D01*
X90589343Y-149129836D01*
X90634697Y-149133833D01*
G36*
X89485494Y-149138722D02*
X89516811Y-149139036D01*
X89541062Y-149139682D01*
X89559795Y-149140760D01*
X89574555Y-149142370D01*
X89586891Y-149144611D01*
X89598348Y-149147584D01*
X89602300Y-149148774D01*
X89638374Y-149164510D01*
X89666984Y-149186822D01*
X89687674Y-149215109D01*
X89699989Y-149248767D01*
X89703536Y-149282474D01*
X89698913Y-149320243D01*
X89685442Y-149353468D01*
X89663724Y-149381343D01*
X89634358Y-149403064D01*
X89604025Y-149416027D01*
X89576717Y-149424635D01*
X89646413Y-149516587D01*
X89666649Y-149543346D01*
X89684906Y-149567605D01*
X89700258Y-149588122D01*
X89711776Y-149603655D01*
X89718533Y-149612962D01*
X89719834Y-149614890D01*
X89719409Y-149618362D01*
X89712129Y-149620313D01*
X89696605Y-149621016D01*
X89688969Y-149621019D01*
X89654380Y-149620799D01*
X89584483Y-149527039D01*
X89514586Y-149433280D01*
X89382829Y-149433280D01*
X89381444Y-149525990D01*
X89380060Y-149618700D01*
X89354464Y-149620198D01*
X89339070Y-149620397D01*
X89328125Y-149619246D01*
X89325254Y-149618081D01*
X89324523Y-149612419D01*
X89323841Y-149597610D01*
X89323223Y-149574670D01*
X89322686Y-149544612D01*
X89322244Y-149508451D01*
X89321912Y-149467199D01*
X89321706Y-149421872D01*
X89321650Y-149383286D01*
X89382600Y-149383286D01*
X89475310Y-149381613D01*
X89508748Y-149380918D01*
X89533804Y-149380073D01*
X89552253Y-149378874D01*
X89565873Y-149377111D01*
X89576439Y-149374579D01*
X89585728Y-149371071D01*
X89592288Y-149367989D01*
X89617512Y-149350797D01*
X89634994Y-149329023D01*
X89644762Y-149304378D01*
X89646844Y-149278569D01*
X89641269Y-149253308D01*
X89628064Y-149230303D01*
X89607258Y-149211264D01*
X89589545Y-149201772D01*
X89579235Y-149198285D01*
X89566046Y-149195623D01*
X89548344Y-149193626D01*
X89524498Y-149192134D01*
X89492874Y-149190985D01*
X89475310Y-149190529D01*
X89382600Y-149188326D01*
X89382600Y-149383286D01*
X89321650Y-149383286D01*
X89321640Y-149376553D01*
X89321640Y-149138640D01*
X89445564Y-149138640D01*
X89485494Y-149138722D01*
X89485494Y-149138722D01*
G37*
X89485494Y-149138722D02*
X89516811Y-149139036D01*
X89541062Y-149139682D01*
X89559795Y-149140760D01*
X89574555Y-149142370D01*
X89586891Y-149144611D01*
X89598348Y-149147584D01*
X89602300Y-149148774D01*
X89638374Y-149164510D01*
X89666984Y-149186822D01*
X89687674Y-149215109D01*
X89699989Y-149248767D01*
X89703536Y-149282474D01*
X89698913Y-149320243D01*
X89685442Y-149353468D01*
X89663724Y-149381343D01*
X89634358Y-149403064D01*
X89604025Y-149416027D01*
X89576717Y-149424635D01*
X89646413Y-149516587D01*
X89666649Y-149543346D01*
X89684906Y-149567605D01*
X89700258Y-149588122D01*
X89711776Y-149603655D01*
X89718533Y-149612962D01*
X89719834Y-149614890D01*
X89719409Y-149618362D01*
X89712129Y-149620313D01*
X89696605Y-149621016D01*
X89688969Y-149621019D01*
X89654380Y-149620799D01*
X89584483Y-149527039D01*
X89514586Y-149433280D01*
X89382829Y-149433280D01*
X89381444Y-149525990D01*
X89380060Y-149618700D01*
X89354464Y-149620198D01*
X89339070Y-149620397D01*
X89328125Y-149619246D01*
X89325254Y-149618081D01*
X89324523Y-149612419D01*
X89323841Y-149597610D01*
X89323223Y-149574670D01*
X89322686Y-149544612D01*
X89322244Y-149508451D01*
X89321912Y-149467199D01*
X89321706Y-149421872D01*
X89321650Y-149383286D01*
X89382600Y-149383286D01*
X89475310Y-149381613D01*
X89508748Y-149380918D01*
X89533804Y-149380073D01*
X89552253Y-149378874D01*
X89565873Y-149377111D01*
X89576439Y-149374579D01*
X89585728Y-149371071D01*
X89592288Y-149367989D01*
X89617512Y-149350797D01*
X89634994Y-149329023D01*
X89644762Y-149304378D01*
X89646844Y-149278569D01*
X89641269Y-149253308D01*
X89628064Y-149230303D01*
X89607258Y-149211264D01*
X89589545Y-149201772D01*
X89579235Y-149198285D01*
X89566046Y-149195623D01*
X89548344Y-149193626D01*
X89524498Y-149192134D01*
X89492874Y-149190985D01*
X89475310Y-149190529D01*
X89382600Y-149188326D01*
X89382600Y-149383286D01*
X89321650Y-149383286D01*
X89321640Y-149376553D01*
X89321640Y-149138640D01*
X89445564Y-149138640D01*
X89485494Y-149138722D01*
G36*
X91191011Y-149218472D02*
X91166276Y-149243690D01*
X91142375Y-149268150D01*
X91120784Y-149290335D01*
X91102976Y-149308729D01*
X91090425Y-149321818D01*
X91088107Y-149324268D01*
X91064012Y-149349877D01*
X91168126Y-149480867D01*
X91193235Y-149512488D01*
X91216341Y-149541645D01*
X91236676Y-149567365D01*
X91253474Y-149588678D01*
X91265970Y-149604610D01*
X91273397Y-149614192D01*
X91275139Y-149616548D01*
X91272050Y-149618954D01*
X91260761Y-149620613D01*
X91243225Y-149621239D01*
X91242997Y-149621240D01*
X91207954Y-149621240D01*
X91117476Y-149506940D01*
X91094184Y-149477648D01*
X91072897Y-149451132D01*
X91054433Y-149428392D01*
X91039613Y-149410427D01*
X91029254Y-149398237D01*
X91024176Y-149392822D01*
X91023853Y-149392640D01*
X91019318Y-149396045D01*
X91009054Y-149405388D01*
X90994449Y-149419357D01*
X90976894Y-149436640D01*
X90971274Y-149442260D01*
X90921840Y-149491881D01*
X90921840Y-149621240D01*
X90865960Y-149621240D01*
X90865960Y-149138640D01*
X90921679Y-149138640D01*
X90923029Y-149279181D01*
X90924380Y-149419722D01*
X91058922Y-149280451D01*
X91193465Y-149141180D01*
X91231642Y-149139732D01*
X91269820Y-149138284D01*
X91191011Y-149218472D01*
X91191011Y-149218472D01*
G37*
X91191011Y-149218472D02*
X91166276Y-149243690D01*
X91142375Y-149268150D01*
X91120784Y-149290335D01*
X91102976Y-149308729D01*
X91090425Y-149321818D01*
X91088107Y-149324268D01*
X91064012Y-149349877D01*
X91168126Y-149480867D01*
X91193235Y-149512488D01*
X91216341Y-149541645D01*
X91236676Y-149567365D01*
X91253474Y-149588678D01*
X91265970Y-149604610D01*
X91273397Y-149614192D01*
X91275139Y-149616548D01*
X91272050Y-149618954D01*
X91260761Y-149620613D01*
X91243225Y-149621239D01*
X91242997Y-149621240D01*
X91207954Y-149621240D01*
X91117476Y-149506940D01*
X91094184Y-149477648D01*
X91072897Y-149451132D01*
X91054433Y-149428392D01*
X91039613Y-149410427D01*
X91029254Y-149398237D01*
X91024176Y-149392822D01*
X91023853Y-149392640D01*
X91019318Y-149396045D01*
X91009054Y-149405388D01*
X90994449Y-149419357D01*
X90976894Y-149436640D01*
X90971274Y-149442260D01*
X90921840Y-149491881D01*
X90921840Y-149621240D01*
X90865960Y-149621240D01*
X90865960Y-149138640D01*
X90921679Y-149138640D01*
X90923029Y-149279181D01*
X90924380Y-149419722D01*
X91058922Y-149280451D01*
X91193465Y-149141180D01*
X91231642Y-149139732D01*
X91269820Y-149138284D01*
X91191011Y-149218472D01*
G36*
X91709240Y-149189440D02*
X91414600Y-149189440D01*
X91414600Y-149352000D01*
X91679316Y-149352000D01*
X91676220Y-149400260D01*
X91545410Y-149401615D01*
X91414600Y-149402971D01*
X91414600Y-149565360D01*
X91709240Y-149565360D01*
X91709240Y-149621240D01*
X91358720Y-149621240D01*
X91358720Y-149138640D01*
X91709240Y-149138640D01*
X91709240Y-149189440D01*
X91709240Y-149189440D01*
G37*
X91709240Y-149189440D02*
X91414600Y-149189440D01*
X91414600Y-149352000D01*
X91679316Y-149352000D01*
X91676220Y-149400260D01*
X91545410Y-149401615D01*
X91414600Y-149402971D01*
X91414600Y-149565360D01*
X91709240Y-149565360D01*
X91709240Y-149621240D01*
X91358720Y-149621240D01*
X91358720Y-149138640D01*
X91709240Y-149138640D01*
X91709240Y-149189440D01*
G36*
X92161360Y-149189440D02*
X91998800Y-149189440D01*
X91998800Y-149621240D01*
X91942920Y-149621240D01*
X91942920Y-149189440D01*
X91780360Y-149189440D01*
X91780360Y-149138640D01*
X92161360Y-149138640D01*
X92161360Y-149189440D01*
X92161360Y-149189440D01*
G37*
X92161360Y-149189440D02*
X91998800Y-149189440D01*
X91998800Y-149621240D01*
X91942920Y-149621240D01*
X91942920Y-149189440D01*
X91780360Y-149189440D01*
X91780360Y-149138640D01*
X92161360Y-149138640D01*
X92161360Y-149189440D01*
G36*
X92429112Y-149138906D02*
X92467619Y-149139877D01*
X92498676Y-149141811D01*
X92523632Y-149144966D01*
X92543839Y-149149599D01*
X92560646Y-149155970D01*
X92575403Y-149164337D01*
X92589460Y-149174957D01*
X92594529Y-149179311D01*
X92617957Y-149204578D01*
X92632552Y-149232266D01*
X92639318Y-149264619D01*
X92640075Y-149281133D01*
X92635669Y-149318948D01*
X92622382Y-149352353D01*
X92600857Y-149380477D01*
X92571735Y-149402449D01*
X92540612Y-149415918D01*
X92513650Y-149424417D01*
X92586425Y-149520988D01*
X92606814Y-149548118D01*
X92624999Y-149572457D01*
X92640136Y-149592864D01*
X92651384Y-149608201D01*
X92657900Y-149617329D01*
X92659200Y-149619399D01*
X92654557Y-149620291D01*
X92642372Y-149620873D01*
X92625264Y-149621022D01*
X92624910Y-149621019D01*
X92590620Y-149620799D01*
X92520723Y-149527039D01*
X92450826Y-149433280D01*
X92319069Y-149433280D01*
X92317684Y-149525990D01*
X92316300Y-149618700D01*
X92290704Y-149620198D01*
X92275310Y-149620397D01*
X92264365Y-149619246D01*
X92261494Y-149618081D01*
X92260763Y-149612419D01*
X92260081Y-149597610D01*
X92259463Y-149574670D01*
X92258926Y-149544612D01*
X92258484Y-149508451D01*
X92258152Y-149467199D01*
X92257946Y-149421872D01*
X92257890Y-149383286D01*
X92318840Y-149383286D01*
X92411550Y-149381612D01*
X92445461Y-149380881D01*
X92470978Y-149379959D01*
X92489868Y-149378657D01*
X92503895Y-149376784D01*
X92514826Y-149374151D01*
X92524428Y-149370566D01*
X92527671Y-149369112D01*
X92552795Y-149352711D01*
X92570364Y-149331409D01*
X92580399Y-149306962D01*
X92582920Y-149281123D01*
X92577945Y-149255645D01*
X92565496Y-149232284D01*
X92545591Y-149212793D01*
X92525785Y-149201772D01*
X92515475Y-149198285D01*
X92502286Y-149195623D01*
X92484584Y-149193626D01*
X92460738Y-149192134D01*
X92429114Y-149190985D01*
X92411550Y-149190529D01*
X92318840Y-149188326D01*
X92318840Y-149383286D01*
X92257890Y-149383286D01*
X92257880Y-149376553D01*
X92257880Y-149138640D01*
X92381804Y-149138640D01*
X92429112Y-149138906D01*
X92429112Y-149138906D01*
G37*
X92429112Y-149138906D02*
X92467619Y-149139877D01*
X92498676Y-149141811D01*
X92523632Y-149144966D01*
X92543839Y-149149599D01*
X92560646Y-149155970D01*
X92575403Y-149164337D01*
X92589460Y-149174957D01*
X92594529Y-149179311D01*
X92617957Y-149204578D01*
X92632552Y-149232266D01*
X92639318Y-149264619D01*
X92640075Y-149281133D01*
X92635669Y-149318948D01*
X92622382Y-149352353D01*
X92600857Y-149380477D01*
X92571735Y-149402449D01*
X92540612Y-149415918D01*
X92513650Y-149424417D01*
X92586425Y-149520988D01*
X92606814Y-149548118D01*
X92624999Y-149572457D01*
X92640136Y-149592864D01*
X92651384Y-149608201D01*
X92657900Y-149617329D01*
X92659200Y-149619399D01*
X92654557Y-149620291D01*
X92642372Y-149620873D01*
X92625264Y-149621022D01*
X92624910Y-149621019D01*
X92590620Y-149620799D01*
X92520723Y-149527039D01*
X92450826Y-149433280D01*
X92319069Y-149433280D01*
X92317684Y-149525990D01*
X92316300Y-149618700D01*
X92290704Y-149620198D01*
X92275310Y-149620397D01*
X92264365Y-149619246D01*
X92261494Y-149618081D01*
X92260763Y-149612419D01*
X92260081Y-149597610D01*
X92259463Y-149574670D01*
X92258926Y-149544612D01*
X92258484Y-149508451D01*
X92258152Y-149467199D01*
X92257946Y-149421872D01*
X92257890Y-149383286D01*
X92318840Y-149383286D01*
X92411550Y-149381612D01*
X92445461Y-149380881D01*
X92470978Y-149379959D01*
X92489868Y-149378657D01*
X92503895Y-149376784D01*
X92514826Y-149374151D01*
X92524428Y-149370566D01*
X92527671Y-149369112D01*
X92552795Y-149352711D01*
X92570364Y-149331409D01*
X92580399Y-149306962D01*
X92582920Y-149281123D01*
X92577945Y-149255645D01*
X92565496Y-149232284D01*
X92545591Y-149212793D01*
X92525785Y-149201772D01*
X92515475Y-149198285D01*
X92502286Y-149195623D01*
X92484584Y-149193626D01*
X92460738Y-149192134D01*
X92429114Y-149190985D01*
X92411550Y-149190529D01*
X92318840Y-149188326D01*
X92318840Y-149383286D01*
X92257890Y-149383286D01*
X92257880Y-149376553D01*
X92257880Y-149138640D01*
X92381804Y-149138640D01*
X92429112Y-149138906D01*
G36*
X93133906Y-149152610D02*
X93128823Y-149160180D01*
X93118749Y-149174963D01*
X93104468Y-149195813D01*
X93086767Y-149221584D01*
X93066432Y-149251132D01*
X93044248Y-149283313D01*
X93034261Y-149297783D01*
X92943680Y-149428987D01*
X92943680Y-149621240D01*
X92887800Y-149621240D01*
X92887800Y-149430639D01*
X92788740Y-149286997D01*
X92765457Y-149253163D01*
X92744121Y-149222018D01*
X92725393Y-149194539D01*
X92709935Y-149171702D01*
X92698409Y-149154483D01*
X92691475Y-149143859D01*
X92689680Y-149140765D01*
X92694312Y-149139667D01*
X92706457Y-149139276D01*
X92723487Y-149139677D01*
X92723506Y-149139677D01*
X92757333Y-149141180D01*
X92916109Y-149375858D01*
X92996950Y-149257249D01*
X93077792Y-149138640D01*
X93142968Y-149138640D01*
X93133906Y-149152610D01*
X93133906Y-149152610D01*
G37*
X93133906Y-149152610D02*
X93128823Y-149160180D01*
X93118749Y-149174963D01*
X93104468Y-149195813D01*
X93086767Y-149221584D01*
X93066432Y-149251132D01*
X93044248Y-149283313D01*
X93034261Y-149297783D01*
X92943680Y-149428987D01*
X92943680Y-149621240D01*
X92887800Y-149621240D01*
X92887800Y-149430639D01*
X92788740Y-149286997D01*
X92765457Y-149253163D01*
X92744121Y-149222018D01*
X92725393Y-149194539D01*
X92709935Y-149171702D01*
X92698409Y-149154483D01*
X92691475Y-149143859D01*
X92689680Y-149140765D01*
X92694312Y-149139667D01*
X92706457Y-149139276D01*
X92723487Y-149139677D01*
X92723506Y-149139677D01*
X92757333Y-149141180D01*
X92916109Y-149375858D01*
X92996950Y-149257249D01*
X93077792Y-149138640D01*
X93142968Y-149138640D01*
X93133906Y-149152610D01*
G36*
X92491954Y-148517711D02*
X92519523Y-148526324D01*
X92565228Y-148548578D01*
X92604222Y-148577920D01*
X92635943Y-148613405D01*
X92659828Y-148654087D01*
X92675314Y-148699023D01*
X92681837Y-148747267D01*
X92679339Y-148794473D01*
X92667798Y-148840844D01*
X92647402Y-148883725D01*
X92619177Y-148921985D01*
X92584151Y-148954493D01*
X92543350Y-148980118D01*
X92497801Y-148997728D01*
X92493888Y-148998781D01*
X92464477Y-149003879D01*
X92430133Y-149005901D01*
X92395253Y-149004849D01*
X92364236Y-149000724D01*
X92355743Y-148998728D01*
X92312806Y-148982308D01*
X92272204Y-148957566D01*
X92236293Y-148926278D01*
X92207431Y-148890222D01*
X92203485Y-148883897D01*
X92184682Y-148843012D01*
X92174067Y-148798145D01*
X92171970Y-148757640D01*
X92286442Y-148757640D01*
X92288053Y-148788929D01*
X92293269Y-148813597D01*
X92303236Y-148834878D01*
X92319101Y-148856009D01*
X92322765Y-148860150D01*
X92349869Y-148882975D01*
X92381948Y-148898167D01*
X92416828Y-148905314D01*
X92452339Y-148904006D01*
X92486309Y-148893832D01*
X92490443Y-148891865D01*
X92521157Y-148871295D01*
X92544197Y-148844154D01*
X92559384Y-148810725D01*
X92566540Y-148771293D01*
X92566649Y-148769725D01*
X92565430Y-148730231D01*
X92555977Y-148696032D01*
X92537926Y-148665997D01*
X92530461Y-148657281D01*
X92508915Y-148636603D01*
X92487856Y-148623224D01*
X92464161Y-148615826D01*
X92434709Y-148613091D01*
X92425520Y-148612981D01*
X92393465Y-148614818D01*
X92368140Y-148621075D01*
X92346668Y-148632872D01*
X92326169Y-148651327D01*
X92325737Y-148651784D01*
X92306111Y-148676205D01*
X92293808Y-148701248D01*
X92287677Y-148730013D01*
X92286442Y-148757640D01*
X92171970Y-148757640D01*
X92171643Y-148751333D01*
X92177412Y-148704612D01*
X92191377Y-148660019D01*
X92203194Y-148636000D01*
X92230852Y-148597248D01*
X92265326Y-148564988D01*
X92305245Y-148539695D01*
X92349238Y-148521846D01*
X92395934Y-148511916D01*
X92443963Y-148510379D01*
X92491954Y-148517711D01*
X92491954Y-148517711D01*
G37*
X92491954Y-148517711D02*
X92519523Y-148526324D01*
X92565228Y-148548578D01*
X92604222Y-148577920D01*
X92635943Y-148613405D01*
X92659828Y-148654087D01*
X92675314Y-148699023D01*
X92681837Y-148747267D01*
X92679339Y-148794473D01*
X92667798Y-148840844D01*
X92647402Y-148883725D01*
X92619177Y-148921985D01*
X92584151Y-148954493D01*
X92543350Y-148980118D01*
X92497801Y-148997728D01*
X92493888Y-148998781D01*
X92464477Y-149003879D01*
X92430133Y-149005901D01*
X92395253Y-149004849D01*
X92364236Y-149000724D01*
X92355743Y-148998728D01*
X92312806Y-148982308D01*
X92272204Y-148957566D01*
X92236293Y-148926278D01*
X92207431Y-148890222D01*
X92203485Y-148883897D01*
X92184682Y-148843012D01*
X92174067Y-148798145D01*
X92171970Y-148757640D01*
X92286442Y-148757640D01*
X92288053Y-148788929D01*
X92293269Y-148813597D01*
X92303236Y-148834878D01*
X92319101Y-148856009D01*
X92322765Y-148860150D01*
X92349869Y-148882975D01*
X92381948Y-148898167D01*
X92416828Y-148905314D01*
X92452339Y-148904006D01*
X92486309Y-148893832D01*
X92490443Y-148891865D01*
X92521157Y-148871295D01*
X92544197Y-148844154D01*
X92559384Y-148810725D01*
X92566540Y-148771293D01*
X92566649Y-148769725D01*
X92565430Y-148730231D01*
X92555977Y-148696032D01*
X92537926Y-148665997D01*
X92530461Y-148657281D01*
X92508915Y-148636603D01*
X92487856Y-148623224D01*
X92464161Y-148615826D01*
X92434709Y-148613091D01*
X92425520Y-148612981D01*
X92393465Y-148614818D01*
X92368140Y-148621075D01*
X92346668Y-148632872D01*
X92326169Y-148651327D01*
X92325737Y-148651784D01*
X92306111Y-148676205D01*
X92293808Y-148701248D01*
X92287677Y-148730013D01*
X92286442Y-148757640D01*
X92171970Y-148757640D01*
X92171643Y-148751333D01*
X92177412Y-148704612D01*
X92191377Y-148660019D01*
X92203194Y-148636000D01*
X92230852Y-148597248D01*
X92265326Y-148564988D01*
X92305245Y-148539695D01*
X92349238Y-148521846D01*
X92395934Y-148511916D01*
X92443963Y-148510379D01*
X92491954Y-148517711D01*
G36*
X93054505Y-148513338D02*
X93101534Y-148526648D01*
X93144557Y-148547834D01*
X93182523Y-148576079D01*
X93214383Y-148610569D01*
X93239086Y-148650486D01*
X93255583Y-148695015D01*
X93258106Y-148705820D01*
X93263494Y-148755058D01*
X93259389Y-148802786D01*
X93246449Y-148847962D01*
X93225331Y-148889543D01*
X93196690Y-148926489D01*
X93161184Y-148957756D01*
X93119469Y-148982303D01*
X93073422Y-148998779D01*
X93042185Y-149004052D01*
X93006152Y-149005850D01*
X92970082Y-149004153D01*
X92940303Y-148999333D01*
X92894652Y-148983313D01*
X92853969Y-148959241D01*
X92819025Y-148928266D01*
X92790592Y-148891535D01*
X92769443Y-148850197D01*
X92756347Y-148805400D01*
X92753814Y-148777441D01*
X92868231Y-148777441D01*
X92873307Y-148807753D01*
X92874748Y-148812461D01*
X92890205Y-148843635D01*
X92913618Y-148870556D01*
X92942980Y-148890944D01*
X92944689Y-148891811D01*
X92976750Y-148902557D01*
X93011874Y-148905505D01*
X93046576Y-148900627D01*
X93068140Y-148892832D01*
X93099982Y-148872543D01*
X93124209Y-148845796D01*
X93140365Y-148813344D01*
X93147995Y-148775937D01*
X93148561Y-148760180D01*
X93144257Y-148719341D01*
X93131944Y-148684696D01*
X93111492Y-148656023D01*
X93082772Y-148633102D01*
X93069681Y-148625863D01*
X93034687Y-148613503D01*
X92999305Y-148610357D01*
X92965100Y-148615932D01*
X92933636Y-148629737D01*
X92906476Y-148651280D01*
X92885185Y-148680071D01*
X92882790Y-148684595D01*
X92873229Y-148711794D01*
X92868290Y-148744099D01*
X92868231Y-148777441D01*
X92753814Y-148777441D01*
X92752078Y-148758290D01*
X92754915Y-148723504D01*
X92766980Y-148677224D01*
X92787755Y-148633559D01*
X92816019Y-148594341D01*
X92850554Y-148561402D01*
X92873395Y-148545643D01*
X92898113Y-148533578D01*
X92928632Y-148522762D01*
X92960872Y-148514343D01*
X92990751Y-148509471D01*
X93004519Y-148508720D01*
X93054505Y-148513338D01*
X93054505Y-148513338D01*
G37*
X93054505Y-148513338D02*
X93101534Y-148526648D01*
X93144557Y-148547834D01*
X93182523Y-148576079D01*
X93214383Y-148610569D01*
X93239086Y-148650486D01*
X93255583Y-148695015D01*
X93258106Y-148705820D01*
X93263494Y-148755058D01*
X93259389Y-148802786D01*
X93246449Y-148847962D01*
X93225331Y-148889543D01*
X93196690Y-148926489D01*
X93161184Y-148957756D01*
X93119469Y-148982303D01*
X93073422Y-148998779D01*
X93042185Y-149004052D01*
X93006152Y-149005850D01*
X92970082Y-149004153D01*
X92940303Y-148999333D01*
X92894652Y-148983313D01*
X92853969Y-148959241D01*
X92819025Y-148928266D01*
X92790592Y-148891535D01*
X92769443Y-148850197D01*
X92756347Y-148805400D01*
X92753814Y-148777441D01*
X92868231Y-148777441D01*
X92873307Y-148807753D01*
X92874748Y-148812461D01*
X92890205Y-148843635D01*
X92913618Y-148870556D01*
X92942980Y-148890944D01*
X92944689Y-148891811D01*
X92976750Y-148902557D01*
X93011874Y-148905505D01*
X93046576Y-148900627D01*
X93068140Y-148892832D01*
X93099982Y-148872543D01*
X93124209Y-148845796D01*
X93140365Y-148813344D01*
X93147995Y-148775937D01*
X93148561Y-148760180D01*
X93144257Y-148719341D01*
X93131944Y-148684696D01*
X93111492Y-148656023D01*
X93082772Y-148633102D01*
X93069681Y-148625863D01*
X93034687Y-148613503D01*
X92999305Y-148610357D01*
X92965100Y-148615932D01*
X92933636Y-148629737D01*
X92906476Y-148651280D01*
X92885185Y-148680071D01*
X92882790Y-148684595D01*
X92873229Y-148711794D01*
X92868290Y-148744099D01*
X92868231Y-148777441D01*
X92753814Y-148777441D01*
X92752078Y-148758290D01*
X92754915Y-148723504D01*
X92766980Y-148677224D01*
X92787755Y-148633559D01*
X92816019Y-148594341D01*
X92850554Y-148561402D01*
X92873395Y-148545643D01*
X92898113Y-148533578D01*
X92928632Y-148522762D01*
X92960872Y-148514343D01*
X92990751Y-148509471D01*
X93004519Y-148508720D01*
X93054505Y-148513338D01*
G36*
X89505158Y-148514885D02*
X89550607Y-148516340D01*
X89602363Y-148672550D01*
X89614957Y-148710288D01*
X89626630Y-148744744D01*
X89636982Y-148774781D01*
X89645616Y-148799262D01*
X89652132Y-148817052D01*
X89656131Y-148827013D01*
X89657164Y-148828760D01*
X89659333Y-148824088D01*
X89664056Y-148810841D01*
X89670960Y-148790174D01*
X89679667Y-148763241D01*
X89689804Y-148731194D01*
X89700995Y-148695189D01*
X89707554Y-148673820D01*
X89754899Y-148518880D01*
X89810049Y-148518880D01*
X89832356Y-148519207D01*
X89850353Y-148520093D01*
X89861972Y-148521397D01*
X89865290Y-148522690D01*
X89863732Y-148528117D01*
X89859227Y-148542231D01*
X89852086Y-148564097D01*
X89842620Y-148592776D01*
X89831138Y-148627334D01*
X89817951Y-148666833D01*
X89803369Y-148710336D01*
X89787704Y-148756908D01*
X89785280Y-148764098D01*
X89705180Y-149001697D01*
X89657154Y-149000318D01*
X89609128Y-148998940D01*
X89557105Y-148849080D01*
X89544283Y-148812112D01*
X89532574Y-148778297D01*
X89522384Y-148748810D01*
X89514119Y-148724828D01*
X89508184Y-148707526D01*
X89504984Y-148698079D01*
X89504539Y-148696680D01*
X89502648Y-148700129D01*
X89497587Y-148713066D01*
X89489408Y-148735341D01*
X89478165Y-148766805D01*
X89463910Y-148807312D01*
X89446698Y-148856711D01*
X89431312Y-148901150D01*
X89396654Y-149001480D01*
X89302220Y-149001480D01*
X89284592Y-148949410D01*
X89263754Y-148887881D01*
X89243714Y-148828756D01*
X89224726Y-148772780D01*
X89207043Y-148720696D01*
X89190917Y-148673248D01*
X89176602Y-148631179D01*
X89164351Y-148595235D01*
X89154417Y-148566159D01*
X89147053Y-148544695D01*
X89142512Y-148531586D01*
X89141144Y-148527770D01*
X89140437Y-148523950D01*
X89142922Y-148521410D01*
X89150191Y-148519892D01*
X89163832Y-148519138D01*
X89185435Y-148518893D01*
X89196124Y-148518880D01*
X89254576Y-148518880D01*
X89265119Y-148553170D01*
X89269609Y-148567818D01*
X89276494Y-148590337D01*
X89285209Y-148618876D01*
X89295190Y-148651588D01*
X89305871Y-148686621D01*
X89312419Y-148708110D01*
X89322615Y-148741220D01*
X89331948Y-148770859D01*
X89339991Y-148795719D01*
X89346313Y-148814490D01*
X89350487Y-148825864D01*
X89351979Y-148828760D01*
X89354196Y-148824122D01*
X89359191Y-148810963D01*
X89366566Y-148790414D01*
X89375926Y-148763603D01*
X89386875Y-148731662D01*
X89399016Y-148695722D01*
X89407245Y-148671095D01*
X89459708Y-148513430D01*
X89505158Y-148514885D01*
X89505158Y-148514885D01*
G37*
X89505158Y-148514885D02*
X89550607Y-148516340D01*
X89602363Y-148672550D01*
X89614957Y-148710288D01*
X89626630Y-148744744D01*
X89636982Y-148774781D01*
X89645616Y-148799262D01*
X89652132Y-148817052D01*
X89656131Y-148827013D01*
X89657164Y-148828760D01*
X89659333Y-148824088D01*
X89664056Y-148810841D01*
X89670960Y-148790174D01*
X89679667Y-148763241D01*
X89689804Y-148731194D01*
X89700995Y-148695189D01*
X89707554Y-148673820D01*
X89754899Y-148518880D01*
X89810049Y-148518880D01*
X89832356Y-148519207D01*
X89850353Y-148520093D01*
X89861972Y-148521397D01*
X89865290Y-148522690D01*
X89863732Y-148528117D01*
X89859227Y-148542231D01*
X89852086Y-148564097D01*
X89842620Y-148592776D01*
X89831138Y-148627334D01*
X89817951Y-148666833D01*
X89803369Y-148710336D01*
X89787704Y-148756908D01*
X89785280Y-148764098D01*
X89705180Y-149001697D01*
X89657154Y-149000318D01*
X89609128Y-148998940D01*
X89557105Y-148849080D01*
X89544283Y-148812112D01*
X89532574Y-148778297D01*
X89522384Y-148748810D01*
X89514119Y-148724828D01*
X89508184Y-148707526D01*
X89504984Y-148698079D01*
X89504539Y-148696680D01*
X89502648Y-148700129D01*
X89497587Y-148713066D01*
X89489408Y-148735341D01*
X89478165Y-148766805D01*
X89463910Y-148807312D01*
X89446698Y-148856711D01*
X89431312Y-148901150D01*
X89396654Y-149001480D01*
X89302220Y-149001480D01*
X89284592Y-148949410D01*
X89263754Y-148887881D01*
X89243714Y-148828756D01*
X89224726Y-148772780D01*
X89207043Y-148720696D01*
X89190917Y-148673248D01*
X89176602Y-148631179D01*
X89164351Y-148595235D01*
X89154417Y-148566159D01*
X89147053Y-148544695D01*
X89142512Y-148531586D01*
X89141144Y-148527770D01*
X89140437Y-148523950D01*
X89142922Y-148521410D01*
X89150191Y-148519892D01*
X89163832Y-148519138D01*
X89185435Y-148518893D01*
X89196124Y-148518880D01*
X89254576Y-148518880D01*
X89265119Y-148553170D01*
X89269609Y-148567818D01*
X89276494Y-148590337D01*
X89285209Y-148618876D01*
X89295190Y-148651588D01*
X89305871Y-148686621D01*
X89312419Y-148708110D01*
X89322615Y-148741220D01*
X89331948Y-148770859D01*
X89339991Y-148795719D01*
X89346313Y-148814490D01*
X89350487Y-148825864D01*
X89351979Y-148828760D01*
X89354196Y-148824122D01*
X89359191Y-148810963D01*
X89366566Y-148790414D01*
X89375926Y-148763603D01*
X89386875Y-148731662D01*
X89399016Y-148695722D01*
X89407245Y-148671095D01*
X89459708Y-148513430D01*
X89505158Y-148514885D01*
G36*
X90233789Y-148748750D02*
X90253481Y-148794966D01*
X90271986Y-148838520D01*
X90288914Y-148878483D01*
X90303875Y-148913930D01*
X90316479Y-148943934D01*
X90326335Y-148967569D01*
X90333054Y-148983907D01*
X90336246Y-148992023D01*
X90336430Y-148992590D01*
X90336621Y-148996552D01*
X90333516Y-148999131D01*
X90325435Y-149000618D01*
X90310699Y-149001303D01*
X90287630Y-149001479D01*
X90285192Y-149001480D01*
X90257464Y-149000975D01*
X90239081Y-148999403D01*
X90229277Y-148996681D01*
X90227503Y-148995130D01*
X90223893Y-148987977D01*
X90217401Y-148973765D01*
X90209066Y-148954807D01*
X90202934Y-148940520D01*
X90182421Y-148892260D01*
X90082947Y-148890885D01*
X89983474Y-148889510D01*
X89938802Y-148998940D01*
X89883609Y-149000388D01*
X89859405Y-149000905D01*
X89843714Y-149000775D01*
X89834895Y-148999755D01*
X89831309Y-148997606D01*
X89831315Y-148994087D01*
X89831758Y-148992768D01*
X89834354Y-148986424D01*
X89840536Y-148971660D01*
X89849911Y-148949406D01*
X89862087Y-148920588D01*
X89876669Y-148886137D01*
X89893267Y-148846981D01*
X89911486Y-148804048D01*
X89916094Y-148793200D01*
X90022543Y-148793200D01*
X90143487Y-148793200D01*
X90115670Y-148725890D01*
X90105472Y-148701543D01*
X90096428Y-148680569D01*
X90089332Y-148664762D01*
X90084978Y-148655916D01*
X90084225Y-148654772D01*
X90081038Y-148657649D01*
X90075065Y-148668308D01*
X90067168Y-148685048D01*
X90058453Y-148705572D01*
X90048892Y-148729109D01*
X90040061Y-148750778D01*
X90033052Y-148767904D01*
X90029426Y-148776690D01*
X90022543Y-148793200D01*
X89916094Y-148793200D01*
X89930934Y-148758267D01*
X89934979Y-148748750D01*
X90034859Y-148513800D01*
X90133542Y-148513800D01*
X90233789Y-148748750D01*
X90233789Y-148748750D01*
G37*
X90233789Y-148748750D02*
X90253481Y-148794966D01*
X90271986Y-148838520D01*
X90288914Y-148878483D01*
X90303875Y-148913930D01*
X90316479Y-148943934D01*
X90326335Y-148967569D01*
X90333054Y-148983907D01*
X90336246Y-148992023D01*
X90336430Y-148992590D01*
X90336621Y-148996552D01*
X90333516Y-148999131D01*
X90325435Y-149000618D01*
X90310699Y-149001303D01*
X90287630Y-149001479D01*
X90285192Y-149001480D01*
X90257464Y-149000975D01*
X90239081Y-148999403D01*
X90229277Y-148996681D01*
X90227503Y-148995130D01*
X90223893Y-148987977D01*
X90217401Y-148973765D01*
X90209066Y-148954807D01*
X90202934Y-148940520D01*
X90182421Y-148892260D01*
X90082947Y-148890885D01*
X89983474Y-148889510D01*
X89938802Y-148998940D01*
X89883609Y-149000388D01*
X89859405Y-149000905D01*
X89843714Y-149000775D01*
X89834895Y-148999755D01*
X89831309Y-148997606D01*
X89831315Y-148994087D01*
X89831758Y-148992768D01*
X89834354Y-148986424D01*
X89840536Y-148971660D01*
X89849911Y-148949406D01*
X89862087Y-148920588D01*
X89876669Y-148886137D01*
X89893267Y-148846981D01*
X89911486Y-148804048D01*
X89916094Y-148793200D01*
X90022543Y-148793200D01*
X90143487Y-148793200D01*
X90115670Y-148725890D01*
X90105472Y-148701543D01*
X90096428Y-148680569D01*
X90089332Y-148664762D01*
X90084978Y-148655916D01*
X90084225Y-148654772D01*
X90081038Y-148657649D01*
X90075065Y-148668308D01*
X90067168Y-148685048D01*
X90058453Y-148705572D01*
X90048892Y-148729109D01*
X90040061Y-148750778D01*
X90033052Y-148767904D01*
X90029426Y-148776690D01*
X90022543Y-148793200D01*
X89916094Y-148793200D01*
X89930934Y-148758267D01*
X89934979Y-148748750D01*
X90034859Y-148513800D01*
X90133542Y-148513800D01*
X90233789Y-148748750D01*
G36*
X90738960Y-148615400D02*
X90591640Y-148615400D01*
X90591640Y-149001480D01*
X90484960Y-149001480D01*
X90484960Y-148615400D01*
X90337640Y-148615400D01*
X90337640Y-148518880D01*
X90738960Y-148518880D01*
X90738960Y-148615400D01*
X90738960Y-148615400D01*
G37*
X90738960Y-148615400D02*
X90591640Y-148615400D01*
X90591640Y-149001480D01*
X90484960Y-149001480D01*
X90484960Y-148615400D01*
X90337640Y-148615400D01*
X90337640Y-148518880D01*
X90738960Y-148518880D01*
X90738960Y-148615400D01*
G36*
X91180920Y-148615400D02*
X90921840Y-148615400D01*
X90921840Y-148706645D01*
X91034870Y-148708012D01*
X91147900Y-148709380D01*
X91149360Y-148756370D01*
X91150821Y-148803360D01*
X90921840Y-148803360D01*
X90921840Y-148899880D01*
X91180920Y-148899880D01*
X91180920Y-149001480D01*
X91001426Y-149001480D01*
X90959687Y-149001387D01*
X90921196Y-149001123D01*
X90887126Y-149000711D01*
X90858650Y-149000171D01*
X90836942Y-148999526D01*
X90823173Y-148998797D01*
X90818546Y-148998093D01*
X90817861Y-148992478D01*
X90817222Y-148977716D01*
X90816644Y-148954819D01*
X90816140Y-148924800D01*
X90815726Y-148888673D01*
X90815415Y-148847450D01*
X90815221Y-148802143D01*
X90815160Y-148756793D01*
X90815160Y-148518880D01*
X91180920Y-148518880D01*
X91180920Y-148615400D01*
X91180920Y-148615400D01*
G37*
X91180920Y-148615400D02*
X90921840Y-148615400D01*
X90921840Y-148706645D01*
X91034870Y-148708012D01*
X91147900Y-148709380D01*
X91149360Y-148756370D01*
X91150821Y-148803360D01*
X90921840Y-148803360D01*
X90921840Y-148899880D01*
X91180920Y-148899880D01*
X91180920Y-149001480D01*
X91001426Y-149001480D01*
X90959687Y-149001387D01*
X90921196Y-149001123D01*
X90887126Y-149000711D01*
X90858650Y-149000171D01*
X90836942Y-148999526D01*
X90823173Y-148998797D01*
X90818546Y-148998093D01*
X90817861Y-148992478D01*
X90817222Y-148977716D01*
X90816644Y-148954819D01*
X90816140Y-148924800D01*
X90815726Y-148888673D01*
X90815415Y-148847450D01*
X90815221Y-148802143D01*
X90815160Y-148756793D01*
X90815160Y-148518880D01*
X91180920Y-148518880D01*
X91180920Y-148615400D01*
G36*
X91444968Y-148518951D02*
X91477353Y-148519225D01*
X91502540Y-148519796D01*
X91522010Y-148520753D01*
X91537243Y-148522190D01*
X91549721Y-148524197D01*
X91560925Y-148526868D01*
X91568513Y-148529092D01*
X91602325Y-148544147D01*
X91631562Y-148566252D01*
X91654167Y-148593637D01*
X91663199Y-148610701D01*
X91670878Y-148637037D01*
X91674571Y-148668592D01*
X91674072Y-148701156D01*
X91669172Y-148730517D01*
X91669107Y-148730756D01*
X91656832Y-148758596D01*
X91636766Y-148784741D01*
X91611211Y-148806362D01*
X91603803Y-148810980D01*
X91590176Y-148819989D01*
X91581477Y-148827951D01*
X91579606Y-148832361D01*
X91583068Y-148838365D01*
X91591354Y-148851251D01*
X91603493Y-148869556D01*
X91618515Y-148891816D01*
X91633438Y-148913641D01*
X91650226Y-148938200D01*
X91665013Y-148960117D01*
X91676826Y-148977923D01*
X91684686Y-148990149D01*
X91687561Y-148995130D01*
X91686236Y-148997929D01*
X91678916Y-148999826D01*
X91664390Y-149000951D01*
X91641448Y-149001436D01*
X91628673Y-149001480D01*
X91567339Y-149001480D01*
X91515099Y-148924010D01*
X91462860Y-148846540D01*
X91423623Y-148845058D01*
X91384386Y-148843577D01*
X91382983Y-148921258D01*
X91381580Y-148998940D01*
X91330523Y-149000376D01*
X91308662Y-149000648D01*
X91290721Y-149000230D01*
X91279044Y-148999211D01*
X91275913Y-148998259D01*
X91275194Y-148992610D01*
X91274523Y-148977814D01*
X91273916Y-148954886D01*
X91273388Y-148924838D01*
X91272954Y-148888686D01*
X91272627Y-148847442D01*
X91272424Y-148802120D01*
X91272360Y-148756793D01*
X91272360Y-148748229D01*
X91384120Y-148748229D01*
X91457696Y-148746584D01*
X91531273Y-148744940D01*
X91547151Y-148729047D01*
X91560834Y-148708717D01*
X91566457Y-148684939D01*
X91563515Y-148660851D01*
X91559608Y-148651402D01*
X91550052Y-148637816D01*
X91536541Y-148627891D01*
X91517666Y-148621179D01*
X91492019Y-148617235D01*
X91458190Y-148615612D01*
X91446350Y-148615511D01*
X91384120Y-148615400D01*
X91384120Y-148748229D01*
X91272360Y-148748229D01*
X91272360Y-148518880D01*
X91403904Y-148518880D01*
X91444968Y-148518951D01*
X91444968Y-148518951D01*
G37*
X91444968Y-148518951D02*
X91477353Y-148519225D01*
X91502540Y-148519796D01*
X91522010Y-148520753D01*
X91537243Y-148522190D01*
X91549721Y-148524197D01*
X91560925Y-148526868D01*
X91568513Y-148529092D01*
X91602325Y-148544147D01*
X91631562Y-148566252D01*
X91654167Y-148593637D01*
X91663199Y-148610701D01*
X91670878Y-148637037D01*
X91674571Y-148668592D01*
X91674072Y-148701156D01*
X91669172Y-148730517D01*
X91669107Y-148730756D01*
X91656832Y-148758596D01*
X91636766Y-148784741D01*
X91611211Y-148806362D01*
X91603803Y-148810980D01*
X91590176Y-148819989D01*
X91581477Y-148827951D01*
X91579606Y-148832361D01*
X91583068Y-148838365D01*
X91591354Y-148851251D01*
X91603493Y-148869556D01*
X91618515Y-148891816D01*
X91633438Y-148913641D01*
X91650226Y-148938200D01*
X91665013Y-148960117D01*
X91676826Y-148977923D01*
X91684686Y-148990149D01*
X91687561Y-148995130D01*
X91686236Y-148997929D01*
X91678916Y-148999826D01*
X91664390Y-149000951D01*
X91641448Y-149001436D01*
X91628673Y-149001480D01*
X91567339Y-149001480D01*
X91515099Y-148924010D01*
X91462860Y-148846540D01*
X91423623Y-148845058D01*
X91384386Y-148843577D01*
X91382983Y-148921258D01*
X91381580Y-148998940D01*
X91330523Y-149000376D01*
X91308662Y-149000648D01*
X91290721Y-149000230D01*
X91279044Y-148999211D01*
X91275913Y-148998259D01*
X91275194Y-148992610D01*
X91274523Y-148977814D01*
X91273916Y-148954886D01*
X91273388Y-148924838D01*
X91272954Y-148888686D01*
X91272627Y-148847442D01*
X91272424Y-148802120D01*
X91272360Y-148756793D01*
X91272360Y-148748229D01*
X91384120Y-148748229D01*
X91457696Y-148746584D01*
X91531273Y-148744940D01*
X91547151Y-148729047D01*
X91560834Y-148708717D01*
X91566457Y-148684939D01*
X91563515Y-148660851D01*
X91559608Y-148651402D01*
X91550052Y-148637816D01*
X91536541Y-148627891D01*
X91517666Y-148621179D01*
X91492019Y-148617235D01*
X91458190Y-148615612D01*
X91446350Y-148615511D01*
X91384120Y-148615400D01*
X91384120Y-148748229D01*
X91272360Y-148748229D01*
X91272360Y-148518880D01*
X91403904Y-148518880D01*
X91444968Y-148518951D01*
G36*
X91876880Y-148899880D02*
X92116007Y-148899880D01*
X92114553Y-148949410D01*
X92113100Y-148998940D01*
X91941650Y-149000277D01*
X91770200Y-149001615D01*
X91770200Y-148518880D01*
X91876880Y-148518880D01*
X91876880Y-148899880D01*
X91876880Y-148899880D01*
G37*
X91876880Y-148899880D02*
X92116007Y-148899880D01*
X92114553Y-148949410D01*
X92113100Y-148998940D01*
X91941650Y-149000277D01*
X91770200Y-149001615D01*
X91770200Y-148518880D01*
X91876880Y-148518880D01*
X91876880Y-148899880D01*
G36*
X88733812Y-145737667D02*
X88748010Y-145739992D01*
X88770170Y-145743910D01*
X88799289Y-145749227D01*
X88834366Y-145755749D01*
X88874399Y-145763281D01*
X88918385Y-145771630D01*
X88965324Y-145780601D01*
X89014212Y-145790001D01*
X89064050Y-145799635D01*
X89113833Y-145809310D01*
X89162562Y-145818831D01*
X89209233Y-145828005D01*
X89252845Y-145836637D01*
X89292397Y-145844533D01*
X89326885Y-145851500D01*
X89355309Y-145857343D01*
X89376667Y-145861868D01*
X89389956Y-145864881D01*
X89393940Y-145865995D01*
X89400326Y-145871437D01*
X89411855Y-145884140D01*
X89427751Y-145903107D01*
X89447237Y-145927341D01*
X89469539Y-145955844D01*
X89493877Y-145987622D01*
X89519478Y-146021676D01*
X89545563Y-146057010D01*
X89571357Y-146092628D01*
X89580814Y-146105880D01*
X89659073Y-146218504D01*
X89736653Y-146335011D01*
X89813159Y-146454633D01*
X89888194Y-146576599D01*
X89961360Y-146700143D01*
X90032263Y-146824494D01*
X90100506Y-146948885D01*
X90165691Y-147072547D01*
X90227423Y-147194711D01*
X90285306Y-147314609D01*
X90338942Y-147431471D01*
X90387936Y-147544531D01*
X90431891Y-147653017D01*
X90470411Y-147756163D01*
X90503099Y-147853200D01*
X90529559Y-147943358D01*
X90530733Y-147947753D01*
X90547034Y-148009087D01*
X90593467Y-147960413D01*
X90694215Y-147851101D01*
X90786583Y-147742886D01*
X90871916Y-147633924D01*
X90951558Y-147522372D01*
X91026855Y-147406386D01*
X91099151Y-147284122D01*
X91137552Y-147214590D01*
X91151846Y-147188481D01*
X91164662Y-147165771D01*
X91175179Y-147147859D01*
X91182573Y-147136149D01*
X91186000Y-147132040D01*
X91189526Y-147136296D01*
X91196984Y-147148130D01*
X91207549Y-147166139D01*
X91220399Y-147188923D01*
X91234447Y-147214590D01*
X91305664Y-147341000D01*
X91379150Y-147460136D01*
X91456252Y-147573839D01*
X91538312Y-147683954D01*
X91626676Y-147792324D01*
X91722689Y-147900791D01*
X91778552Y-147960433D01*
X91825004Y-148009127D01*
X91836414Y-147965553D01*
X91863569Y-147870918D01*
X91897146Y-147769447D01*
X91936784Y-147661869D01*
X91982123Y-147548913D01*
X92032802Y-147431307D01*
X92088460Y-147309781D01*
X92148737Y-147185063D01*
X92213272Y-147057883D01*
X92281704Y-146928968D01*
X92353674Y-146799049D01*
X92428820Y-146668853D01*
X92506782Y-146539109D01*
X92587198Y-146410547D01*
X92664754Y-146291356D01*
X92700200Y-146238431D01*
X92735715Y-146186353D01*
X92770784Y-146135814D01*
X92804895Y-146087506D01*
X92837533Y-146042120D01*
X92868185Y-146000349D01*
X92896337Y-145962884D01*
X92921476Y-145930417D01*
X92943087Y-145903640D01*
X92960658Y-145883246D01*
X92973674Y-145869925D01*
X92981622Y-145864371D01*
X92981780Y-145864331D01*
X92994933Y-145861463D01*
X93016166Y-145857080D01*
X93044476Y-145851375D01*
X93078863Y-145844539D01*
X93118328Y-145836765D01*
X93161867Y-145828246D01*
X93208482Y-145819174D01*
X93257171Y-145809740D01*
X93306934Y-145800138D01*
X93356769Y-145790560D01*
X93405677Y-145781198D01*
X93452655Y-145772244D01*
X93496705Y-145763891D01*
X93536824Y-145756330D01*
X93572012Y-145749756D01*
X93601269Y-145744358D01*
X93623593Y-145740331D01*
X93637984Y-145737866D01*
X93643442Y-145737156D01*
X93643459Y-145737166D01*
X93642602Y-145742349D01*
X93639384Y-145756671D01*
X93633982Y-145779432D01*
X93626568Y-145809933D01*
X93617316Y-145847472D01*
X93606402Y-145891350D01*
X93593999Y-145940868D01*
X93580280Y-145995324D01*
X93565421Y-146054020D01*
X93549595Y-146116255D01*
X93532977Y-146181329D01*
X93532820Y-146181940D01*
X93516193Y-146247013D01*
X93500347Y-146309234D01*
X93485456Y-146367904D01*
X93471695Y-146422326D01*
X93459238Y-146471803D01*
X93448261Y-146515635D01*
X93438939Y-146553125D01*
X93431446Y-146583576D01*
X93425956Y-146606288D01*
X93422645Y-146620564D01*
X93421688Y-146625707D01*
X93421692Y-146625710D01*
X93426443Y-146628480D01*
X93439014Y-146635655D01*
X93458372Y-146646649D01*
X93483487Y-146660879D01*
X93513327Y-146677760D01*
X93546860Y-146696707D01*
X93575081Y-146712637D01*
X93610653Y-146732861D01*
X93643162Y-146751640D01*
X93671604Y-146768371D01*
X93694976Y-146782449D01*
X93712272Y-146793273D01*
X93722489Y-146800238D01*
X93724893Y-146802618D01*
X93720543Y-146805845D01*
X93708120Y-146814328D01*
X93688066Y-146827778D01*
X93660820Y-146845905D01*
X93626824Y-146868418D01*
X93586518Y-146895030D01*
X93540342Y-146925448D01*
X93488737Y-146959385D01*
X93432143Y-146996551D01*
X93371002Y-147036655D01*
X93305754Y-147079407D01*
X93236838Y-147124519D01*
X93164697Y-147171701D01*
X93089769Y-147220662D01*
X93012497Y-147271114D01*
X93007132Y-147274615D01*
X92929708Y-147325172D01*
X92854600Y-147374278D01*
X92782251Y-147421640D01*
X92713099Y-147466969D01*
X92647586Y-147509973D01*
X92586152Y-147550362D01*
X92529238Y-147587844D01*
X92477285Y-147622130D01*
X92430733Y-147652928D01*
X92390023Y-147679947D01*
X92355595Y-147702897D01*
X92327890Y-147721487D01*
X92307348Y-147735426D01*
X92294411Y-147744424D01*
X92289519Y-147748188D01*
X92289489Y-147748246D01*
X92290728Y-147754117D01*
X92294801Y-147768771D01*
X92301433Y-147791317D01*
X92310353Y-147820865D01*
X92321288Y-147856525D01*
X92333966Y-147897406D01*
X92348114Y-147942617D01*
X92363460Y-147991268D01*
X92374543Y-148026184D01*
X92390584Y-148076714D01*
X92405662Y-148124434D01*
X92419497Y-148168452D01*
X92431813Y-148207874D01*
X92442332Y-148241804D01*
X92450776Y-148269350D01*
X92456869Y-148289617D01*
X92460332Y-148301712D01*
X92461043Y-148304815D01*
X92457934Y-148309312D01*
X92447440Y-148309311D01*
X92444570Y-148308852D01*
X92437510Y-148307892D01*
X92420993Y-148305803D01*
X92395650Y-148302661D01*
X92362110Y-148298543D01*
X92321005Y-148293525D01*
X92272965Y-148287684D01*
X92218620Y-148281096D01*
X92158603Y-148273837D01*
X92093542Y-148265985D01*
X92024069Y-148257615D01*
X91950815Y-148248804D01*
X91874410Y-148239629D01*
X91807598Y-148231617D01*
X91187137Y-148157261D01*
X90568078Y-148231444D01*
X90489529Y-148240861D01*
X90413559Y-148249980D01*
X90340804Y-148258723D01*
X90271897Y-148267014D01*
X90207475Y-148274775D01*
X90148171Y-148281930D01*
X90094621Y-148288403D01*
X90047460Y-148294116D01*
X90007321Y-148298993D01*
X89974841Y-148302958D01*
X89950654Y-148305932D01*
X89935395Y-148307841D01*
X89929970Y-148308559D01*
X89916321Y-148309428D01*
X89911057Y-148306312D01*
X89910920Y-148305222D01*
X89912418Y-148299343D01*
X89916731Y-148284673D01*
X89923581Y-148262102D01*
X89932692Y-148232517D01*
X89943790Y-148196807D01*
X89956599Y-148155862D01*
X89970841Y-148110568D01*
X89986242Y-148061815D01*
X89997751Y-148025519D01*
X90013768Y-147974901D01*
X90028768Y-147927146D01*
X90042480Y-147883136D01*
X90054636Y-147843756D01*
X90064966Y-147809887D01*
X90073199Y-147782412D01*
X90079066Y-147762215D01*
X90082297Y-147750178D01*
X90082841Y-147747062D01*
X90078467Y-147743786D01*
X90066022Y-147735255D01*
X90045945Y-147721758D01*
X90018677Y-147703585D01*
X89984660Y-147681025D01*
X89944334Y-147654370D01*
X89898139Y-147623909D01*
X89846516Y-147589932D01*
X89789906Y-147552729D01*
X89728749Y-147512591D01*
X89663487Y-147469807D01*
X89594560Y-147424667D01*
X89522409Y-147377461D01*
X89447474Y-147328480D01*
X89370196Y-147278013D01*
X89364831Y-147274511D01*
X89287415Y-147223959D01*
X89212314Y-147174879D01*
X89139969Y-147127561D01*
X89070821Y-147082293D01*
X89005308Y-147039365D01*
X88943873Y-146999068D01*
X88886955Y-146961691D01*
X88834995Y-146927523D01*
X88788434Y-146896854D01*
X88747711Y-146869974D01*
X88713268Y-146847173D01*
X88685544Y-146828739D01*
X88664981Y-146814964D01*
X88652019Y-146806135D01*
X88647097Y-146802544D01*
X88647065Y-146802497D01*
X88650975Y-146799039D01*
X88662761Y-146791249D01*
X88681418Y-146779728D01*
X88705941Y-146765079D01*
X88735326Y-146747903D01*
X88768567Y-146728803D01*
X88796914Y-146712737D01*
X88832630Y-146692601D01*
X88865461Y-146674064D01*
X88894374Y-146657713D01*
X88918337Y-146644131D01*
X88936318Y-146633904D01*
X88947285Y-146627617D01*
X88950307Y-146625822D01*
X88949378Y-146620772D01*
X88946093Y-146606580D01*
X88940628Y-146583945D01*
X88933156Y-146553565D01*
X88923853Y-146516137D01*
X88912894Y-146472361D01*
X88900453Y-146422934D01*
X88886705Y-146368555D01*
X88871825Y-146309921D01*
X88855988Y-146247731D01*
X88839369Y-146182684D01*
X88839179Y-146181940D01*
X88822554Y-146116843D01*
X88806721Y-146054577D01*
X88791854Y-145995843D01*
X88778127Y-145941342D01*
X88765714Y-145891772D01*
X88754788Y-145847835D01*
X88745525Y-145810230D01*
X88738098Y-145779657D01*
X88732681Y-145756816D01*
X88729448Y-145742408D01*
X88728574Y-145737133D01*
X88728577Y-145737129D01*
X88733812Y-145737667D01*
X88733812Y-145737667D01*
G37*
X88733812Y-145737667D02*
X88748010Y-145739992D01*
X88770170Y-145743910D01*
X88799289Y-145749227D01*
X88834366Y-145755749D01*
X88874399Y-145763281D01*
X88918385Y-145771630D01*
X88965324Y-145780601D01*
X89014212Y-145790001D01*
X89064050Y-145799635D01*
X89113833Y-145809310D01*
X89162562Y-145818831D01*
X89209233Y-145828005D01*
X89252845Y-145836637D01*
X89292397Y-145844533D01*
X89326885Y-145851500D01*
X89355309Y-145857343D01*
X89376667Y-145861868D01*
X89389956Y-145864881D01*
X89393940Y-145865995D01*
X89400326Y-145871437D01*
X89411855Y-145884140D01*
X89427751Y-145903107D01*
X89447237Y-145927341D01*
X89469539Y-145955844D01*
X89493877Y-145987622D01*
X89519478Y-146021676D01*
X89545563Y-146057010D01*
X89571357Y-146092628D01*
X89580814Y-146105880D01*
X89659073Y-146218504D01*
X89736653Y-146335011D01*
X89813159Y-146454633D01*
X89888194Y-146576599D01*
X89961360Y-146700143D01*
X90032263Y-146824494D01*
X90100506Y-146948885D01*
X90165691Y-147072547D01*
X90227423Y-147194711D01*
X90285306Y-147314609D01*
X90338942Y-147431471D01*
X90387936Y-147544531D01*
X90431891Y-147653017D01*
X90470411Y-147756163D01*
X90503099Y-147853200D01*
X90529559Y-147943358D01*
X90530733Y-147947753D01*
X90547034Y-148009087D01*
X90593467Y-147960413D01*
X90694215Y-147851101D01*
X90786583Y-147742886D01*
X90871916Y-147633924D01*
X90951558Y-147522372D01*
X91026855Y-147406386D01*
X91099151Y-147284122D01*
X91137552Y-147214590D01*
X91151846Y-147188481D01*
X91164662Y-147165771D01*
X91175179Y-147147859D01*
X91182573Y-147136149D01*
X91186000Y-147132040D01*
X91189526Y-147136296D01*
X91196984Y-147148130D01*
X91207549Y-147166139D01*
X91220399Y-147188923D01*
X91234447Y-147214590D01*
X91305664Y-147341000D01*
X91379150Y-147460136D01*
X91456252Y-147573839D01*
X91538312Y-147683954D01*
X91626676Y-147792324D01*
X91722689Y-147900791D01*
X91778552Y-147960433D01*
X91825004Y-148009127D01*
X91836414Y-147965553D01*
X91863569Y-147870918D01*
X91897146Y-147769447D01*
X91936784Y-147661869D01*
X91982123Y-147548913D01*
X92032802Y-147431307D01*
X92088460Y-147309781D01*
X92148737Y-147185063D01*
X92213272Y-147057883D01*
X92281704Y-146928968D01*
X92353674Y-146799049D01*
X92428820Y-146668853D01*
X92506782Y-146539109D01*
X92587198Y-146410547D01*
X92664754Y-146291356D01*
X92700200Y-146238431D01*
X92735715Y-146186353D01*
X92770784Y-146135814D01*
X92804895Y-146087506D01*
X92837533Y-146042120D01*
X92868185Y-146000349D01*
X92896337Y-145962884D01*
X92921476Y-145930417D01*
X92943087Y-145903640D01*
X92960658Y-145883246D01*
X92973674Y-145869925D01*
X92981622Y-145864371D01*
X92981780Y-145864331D01*
X92994933Y-145861463D01*
X93016166Y-145857080D01*
X93044476Y-145851375D01*
X93078863Y-145844539D01*
X93118328Y-145836765D01*
X93161867Y-145828246D01*
X93208482Y-145819174D01*
X93257171Y-145809740D01*
X93306934Y-145800138D01*
X93356769Y-145790560D01*
X93405677Y-145781198D01*
X93452655Y-145772244D01*
X93496705Y-145763891D01*
X93536824Y-145756330D01*
X93572012Y-145749756D01*
X93601269Y-145744358D01*
X93623593Y-145740331D01*
X93637984Y-145737866D01*
X93643442Y-145737156D01*
X93643459Y-145737166D01*
X93642602Y-145742349D01*
X93639384Y-145756671D01*
X93633982Y-145779432D01*
X93626568Y-145809933D01*
X93617316Y-145847472D01*
X93606402Y-145891350D01*
X93593999Y-145940868D01*
X93580280Y-145995324D01*
X93565421Y-146054020D01*
X93549595Y-146116255D01*
X93532977Y-146181329D01*
X93532820Y-146181940D01*
X93516193Y-146247013D01*
X93500347Y-146309234D01*
X93485456Y-146367904D01*
X93471695Y-146422326D01*
X93459238Y-146471803D01*
X93448261Y-146515635D01*
X93438939Y-146553125D01*
X93431446Y-146583576D01*
X93425956Y-146606288D01*
X93422645Y-146620564D01*
X93421688Y-146625707D01*
X93421692Y-146625710D01*
X93426443Y-146628480D01*
X93439014Y-146635655D01*
X93458372Y-146646649D01*
X93483487Y-146660879D01*
X93513327Y-146677760D01*
X93546860Y-146696707D01*
X93575081Y-146712637D01*
X93610653Y-146732861D01*
X93643162Y-146751640D01*
X93671604Y-146768371D01*
X93694976Y-146782449D01*
X93712272Y-146793273D01*
X93722489Y-146800238D01*
X93724893Y-146802618D01*
X93720543Y-146805845D01*
X93708120Y-146814328D01*
X93688066Y-146827778D01*
X93660820Y-146845905D01*
X93626824Y-146868418D01*
X93586518Y-146895030D01*
X93540342Y-146925448D01*
X93488737Y-146959385D01*
X93432143Y-146996551D01*
X93371002Y-147036655D01*
X93305754Y-147079407D01*
X93236838Y-147124519D01*
X93164697Y-147171701D01*
X93089769Y-147220662D01*
X93012497Y-147271114D01*
X93007132Y-147274615D01*
X92929708Y-147325172D01*
X92854600Y-147374278D01*
X92782251Y-147421640D01*
X92713099Y-147466969D01*
X92647586Y-147509973D01*
X92586152Y-147550362D01*
X92529238Y-147587844D01*
X92477285Y-147622130D01*
X92430733Y-147652928D01*
X92390023Y-147679947D01*
X92355595Y-147702897D01*
X92327890Y-147721487D01*
X92307348Y-147735426D01*
X92294411Y-147744424D01*
X92289519Y-147748188D01*
X92289489Y-147748246D01*
X92290728Y-147754117D01*
X92294801Y-147768771D01*
X92301433Y-147791317D01*
X92310353Y-147820865D01*
X92321288Y-147856525D01*
X92333966Y-147897406D01*
X92348114Y-147942617D01*
X92363460Y-147991268D01*
X92374543Y-148026184D01*
X92390584Y-148076714D01*
X92405662Y-148124434D01*
X92419497Y-148168452D01*
X92431813Y-148207874D01*
X92442332Y-148241804D01*
X92450776Y-148269350D01*
X92456869Y-148289617D01*
X92460332Y-148301712D01*
X92461043Y-148304815D01*
X92457934Y-148309312D01*
X92447440Y-148309311D01*
X92444570Y-148308852D01*
X92437510Y-148307892D01*
X92420993Y-148305803D01*
X92395650Y-148302661D01*
X92362110Y-148298543D01*
X92321005Y-148293525D01*
X92272965Y-148287684D01*
X92218620Y-148281096D01*
X92158603Y-148273837D01*
X92093542Y-148265985D01*
X92024069Y-148257615D01*
X91950815Y-148248804D01*
X91874410Y-148239629D01*
X91807598Y-148231617D01*
X91187137Y-148157261D01*
X90568078Y-148231444D01*
X90489529Y-148240861D01*
X90413559Y-148249980D01*
X90340804Y-148258723D01*
X90271897Y-148267014D01*
X90207475Y-148274775D01*
X90148171Y-148281930D01*
X90094621Y-148288403D01*
X90047460Y-148294116D01*
X90007321Y-148298993D01*
X89974841Y-148302958D01*
X89950654Y-148305932D01*
X89935395Y-148307841D01*
X89929970Y-148308559D01*
X89916321Y-148309428D01*
X89911057Y-148306312D01*
X89910920Y-148305222D01*
X89912418Y-148299343D01*
X89916731Y-148284673D01*
X89923581Y-148262102D01*
X89932692Y-148232517D01*
X89943790Y-148196807D01*
X89956599Y-148155862D01*
X89970841Y-148110568D01*
X89986242Y-148061815D01*
X89997751Y-148025519D01*
X90013768Y-147974901D01*
X90028768Y-147927146D01*
X90042480Y-147883136D01*
X90054636Y-147843756D01*
X90064966Y-147809887D01*
X90073199Y-147782412D01*
X90079066Y-147762215D01*
X90082297Y-147750178D01*
X90082841Y-147747062D01*
X90078467Y-147743786D01*
X90066022Y-147735255D01*
X90045945Y-147721758D01*
X90018677Y-147703585D01*
X89984660Y-147681025D01*
X89944334Y-147654370D01*
X89898139Y-147623909D01*
X89846516Y-147589932D01*
X89789906Y-147552729D01*
X89728749Y-147512591D01*
X89663487Y-147469807D01*
X89594560Y-147424667D01*
X89522409Y-147377461D01*
X89447474Y-147328480D01*
X89370196Y-147278013D01*
X89364831Y-147274511D01*
X89287415Y-147223959D01*
X89212314Y-147174879D01*
X89139969Y-147127561D01*
X89070821Y-147082293D01*
X89005308Y-147039365D01*
X88943873Y-146999068D01*
X88886955Y-146961691D01*
X88834995Y-146927523D01*
X88788434Y-146896854D01*
X88747711Y-146869974D01*
X88713268Y-146847173D01*
X88685544Y-146828739D01*
X88664981Y-146814964D01*
X88652019Y-146806135D01*
X88647097Y-146802544D01*
X88647065Y-146802497D01*
X88650975Y-146799039D01*
X88662761Y-146791249D01*
X88681418Y-146779728D01*
X88705941Y-146765079D01*
X88735326Y-146747903D01*
X88768567Y-146728803D01*
X88796914Y-146712737D01*
X88832630Y-146692601D01*
X88865461Y-146674064D01*
X88894374Y-146657713D01*
X88918337Y-146644131D01*
X88936318Y-146633904D01*
X88947285Y-146627617D01*
X88950307Y-146625822D01*
X88949378Y-146620772D01*
X88946093Y-146606580D01*
X88940628Y-146583945D01*
X88933156Y-146553565D01*
X88923853Y-146516137D01*
X88912894Y-146472361D01*
X88900453Y-146422934D01*
X88886705Y-146368555D01*
X88871825Y-146309921D01*
X88855988Y-146247731D01*
X88839369Y-146182684D01*
X88839179Y-146181940D01*
X88822554Y-146116843D01*
X88806721Y-146054577D01*
X88791854Y-145995843D01*
X88778127Y-145941342D01*
X88765714Y-145891772D01*
X88754788Y-145847835D01*
X88745525Y-145810230D01*
X88738098Y-145779657D01*
X88732681Y-145756816D01*
X88729448Y-145742408D01*
X88728574Y-145737133D01*
X88728577Y-145737129D01*
X88733812Y-145737667D01*
G36*
X91188958Y-144002023D02*
X91196492Y-144014664D01*
X91208290Y-144035012D01*
X91224023Y-144062481D01*
X91243356Y-144096483D01*
X91265959Y-144136429D01*
X91291498Y-144181733D01*
X91319643Y-144231805D01*
X91350060Y-144286060D01*
X91382418Y-144343907D01*
X91416385Y-144404761D01*
X91442894Y-144452339D01*
X91477861Y-144515076D01*
X91511479Y-144575250D01*
X91543414Y-144632274D01*
X91573334Y-144685560D01*
X91600907Y-144734521D01*
X91625798Y-144778567D01*
X91647677Y-144817111D01*
X91666209Y-144849566D01*
X91681062Y-144875343D01*
X91691904Y-144893855D01*
X91698401Y-144904513D01*
X91700226Y-144906999D01*
X91705568Y-144905029D01*
X91719332Y-144899373D01*
X91740626Y-144890410D01*
X91768563Y-144878521D01*
X91802252Y-144864087D01*
X91840804Y-144847488D01*
X91883329Y-144829103D01*
X91928938Y-144809315D01*
X91943867Y-144802822D01*
X91990163Y-144782726D01*
X92033578Y-144763972D01*
X92073234Y-144746932D01*
X92108255Y-144731980D01*
X92137763Y-144719487D01*
X92160881Y-144709826D01*
X92176732Y-144703370D01*
X92184438Y-144700492D01*
X92185043Y-144700390D01*
X92184780Y-144705564D01*
X92183594Y-144720256D01*
X92181539Y-144743871D01*
X92178673Y-144775815D01*
X92175050Y-144815493D01*
X92170725Y-144862309D01*
X92165755Y-144915670D01*
X92160194Y-144974979D01*
X92154098Y-145039644D01*
X92147522Y-145109068D01*
X92140522Y-145182657D01*
X92133154Y-145259816D01*
X92125472Y-145339951D01*
X92123375Y-145361775D01*
X92115621Y-145442609D01*
X92108170Y-145520631D01*
X92101076Y-145595244D01*
X92094395Y-145665854D01*
X92088182Y-145731866D01*
X92082492Y-145792685D01*
X92077381Y-145847715D01*
X92072904Y-145896362D01*
X92069115Y-145938030D01*
X92066071Y-145972125D01*
X92063826Y-145998051D01*
X92062435Y-146015213D01*
X92061954Y-146023016D01*
X92061987Y-146023440D01*
X92066004Y-146020462D01*
X92077044Y-146011224D01*
X92094540Y-145996221D01*
X92117927Y-145975948D01*
X92146638Y-145950900D01*
X92180108Y-145921574D01*
X92217770Y-145888464D01*
X92259059Y-145852066D01*
X92303409Y-145812876D01*
X92350253Y-145771389D01*
X92374993Y-145749442D01*
X92422945Y-145706899D01*
X92468713Y-145666330D01*
X92511727Y-145628237D01*
X92551418Y-145593122D01*
X92587217Y-145561489D01*
X92618554Y-145533840D01*
X92644860Y-145510676D01*
X92665567Y-145492502D01*
X92680104Y-145479818D01*
X92687902Y-145473129D01*
X92689097Y-145472188D01*
X92691423Y-145476517D01*
X92696789Y-145489288D01*
X92704775Y-145509389D01*
X92714964Y-145535710D01*
X92726935Y-145567139D01*
X92740269Y-145602566D01*
X92754546Y-145640880D01*
X92769348Y-145680969D01*
X92784254Y-145721723D01*
X92798846Y-145762030D01*
X92805541Y-145780685D01*
X92803005Y-145786022D01*
X92794935Y-145797157D01*
X92782641Y-145812379D01*
X92769761Y-145827355D01*
X92707249Y-145899782D01*
X92641807Y-145978622D01*
X92574060Y-146062976D01*
X92504638Y-146151945D01*
X92434166Y-146244630D01*
X92363272Y-146340131D01*
X92292584Y-146437551D01*
X92222728Y-146535989D01*
X92154332Y-146634547D01*
X92088022Y-146732326D01*
X92024427Y-146828426D01*
X91964173Y-146921950D01*
X91907888Y-147011997D01*
X91856199Y-147097670D01*
X91809732Y-147178068D01*
X91769116Y-147252293D01*
X91750376Y-147288429D01*
X91743102Y-147300492D01*
X91736879Y-147306969D01*
X91734611Y-147307282D01*
X91730394Y-147302135D01*
X91721940Y-147289913D01*
X91710307Y-147272213D01*
X91696556Y-147250630D01*
X91689784Y-147239793D01*
X91631969Y-147141895D01*
X91577466Y-147039522D01*
X91526077Y-146932106D01*
X91477608Y-146819079D01*
X91431861Y-146699876D01*
X91388641Y-146573927D01*
X91347751Y-146440667D01*
X91308995Y-146299528D01*
X91272177Y-146149942D01*
X91237100Y-145991343D01*
X91208324Y-145848070D01*
X91202271Y-145817238D01*
X91196710Y-145790099D01*
X91191960Y-145768126D01*
X91188343Y-145752791D01*
X91186180Y-145745568D01*
X91185884Y-145745200D01*
X91184073Y-145749911D01*
X91180846Y-145762892D01*
X91176589Y-145782414D01*
X91171688Y-145806748D01*
X91169127Y-145820130D01*
X91134797Y-145992829D01*
X91098557Y-146156008D01*
X91060240Y-146310153D01*
X91019680Y-146455752D01*
X90976707Y-146593294D01*
X90931155Y-146723266D01*
X90882857Y-146846157D01*
X90831645Y-146962455D01*
X90777351Y-147072646D01*
X90719809Y-147177221D01*
X90682215Y-147239793D01*
X90667844Y-147262631D01*
X90655101Y-147282322D01*
X90645047Y-147297273D01*
X90638741Y-147305886D01*
X90637388Y-147307282D01*
X90632601Y-147304923D01*
X90625664Y-147295661D01*
X90621623Y-147288429D01*
X90584565Y-147218256D01*
X90541341Y-147141428D01*
X90492577Y-147058845D01*
X90438902Y-146971406D01*
X90380944Y-146880010D01*
X90319328Y-146785556D01*
X90254684Y-146688945D01*
X90187638Y-146591076D01*
X90118818Y-146492847D01*
X90048852Y-146395159D01*
X89978366Y-146298911D01*
X89907989Y-146205002D01*
X89838348Y-146114332D01*
X89770070Y-146027799D01*
X89703784Y-145946305D01*
X89640115Y-145870747D01*
X89602299Y-145827355D01*
X89587412Y-145809996D01*
X89575630Y-145795256D01*
X89568263Y-145784843D01*
X89566458Y-145780659D01*
X89578864Y-145746059D01*
X89592257Y-145709201D01*
X89606185Y-145671278D01*
X89620200Y-145633477D01*
X89633851Y-145596991D01*
X89646691Y-145563008D01*
X89658269Y-145532718D01*
X89668135Y-145507313D01*
X89675841Y-145487981D01*
X89680937Y-145475912D01*
X89682933Y-145472248D01*
X89687131Y-145475723D01*
X89698354Y-145485444D01*
X89716032Y-145500910D01*
X89739597Y-145521618D01*
X89768479Y-145547065D01*
X89802108Y-145576749D01*
X89839916Y-145610168D01*
X89881332Y-145646820D01*
X89925787Y-145686201D01*
X89972713Y-145727810D01*
X89997063Y-145749416D01*
X90044965Y-145791884D01*
X90090660Y-145832309D01*
X90133584Y-145870196D01*
X90173170Y-145905048D01*
X90208852Y-145936371D01*
X90240065Y-145963669D01*
X90266242Y-145986446D01*
X90286818Y-146004208D01*
X90301226Y-146016458D01*
X90308901Y-146022701D01*
X90310040Y-146023412D01*
X90309809Y-146018206D01*
X90308653Y-146003482D01*
X90306628Y-145979836D01*
X90303789Y-145947863D01*
X90300192Y-145908157D01*
X90295892Y-145861313D01*
X90290943Y-145807928D01*
X90285402Y-145748595D01*
X90279323Y-145683910D01*
X90272762Y-145614468D01*
X90265773Y-145540864D01*
X90259115Y-145471059D01*
X90923871Y-145471059D01*
X90926667Y-145468995D01*
X90935233Y-145461226D01*
X90948061Y-145449137D01*
X90956979Y-145440579D01*
X90976958Y-145422731D01*
X90999207Y-145405066D01*
X91019623Y-145390800D01*
X91023915Y-145388167D01*
X91058997Y-145369742D01*
X91093007Y-145357235D01*
X91129110Y-145349846D01*
X91170466Y-145346775D01*
X91188540Y-145346576D01*
X91216641Y-145346941D01*
X91237694Y-145348157D01*
X91254798Y-145350654D01*
X91271055Y-145354860D01*
X91286759Y-145360186D01*
X91331578Y-145379446D01*
X91371091Y-145403592D01*
X91408955Y-145434915D01*
X91414930Y-145440579D01*
X91429591Y-145454551D01*
X91440870Y-145465023D01*
X91447261Y-145470612D01*
X91448128Y-145471059D01*
X91446460Y-145465909D01*
X91441997Y-145451764D01*
X91434961Y-145429333D01*
X91425572Y-145399325D01*
X91414052Y-145362447D01*
X91400621Y-145319407D01*
X91385500Y-145270915D01*
X91368911Y-145217677D01*
X91351075Y-145160403D01*
X91332211Y-145099799D01*
X91317692Y-145053131D01*
X91298207Y-144990582D01*
X91279556Y-144930893D01*
X91261963Y-144874765D01*
X91245649Y-144822901D01*
X91230838Y-144776002D01*
X91217751Y-144734773D01*
X91206613Y-144699914D01*
X91197646Y-144672128D01*
X91191073Y-144652118D01*
X91187115Y-144640585D01*
X91186000Y-144637922D01*
X91184144Y-144642657D01*
X91179505Y-144656396D01*
X91172307Y-144678435D01*
X91162771Y-144708072D01*
X91151120Y-144744605D01*
X91137577Y-144787332D01*
X91122366Y-144835549D01*
X91105708Y-144888556D01*
X91087826Y-144945649D01*
X91068944Y-145006126D01*
X91054307Y-145053131D01*
X91034825Y-145115745D01*
X91016206Y-145175556D01*
X90998671Y-145231855D01*
X90982441Y-145283933D01*
X90967736Y-145331084D01*
X90954777Y-145372599D01*
X90943787Y-145407769D01*
X90934985Y-145435886D01*
X90928592Y-145456243D01*
X90924831Y-145468130D01*
X90923871Y-145471059D01*
X90259115Y-145471059D01*
X90258412Y-145463694D01*
X90250735Y-145383551D01*
X90248641Y-145361758D01*
X90240888Y-145280927D01*
X90233433Y-145202912D01*
X90226333Y-145128308D01*
X90219643Y-145057709D01*
X90213418Y-144991711D01*
X90207714Y-144930908D01*
X90202587Y-144875895D01*
X90198090Y-144827267D01*
X90194281Y-144785618D01*
X90191214Y-144751544D01*
X90188945Y-144725640D01*
X90187529Y-144708499D01*
X90187021Y-144700718D01*
X90187046Y-144700299D01*
X90191912Y-144701916D01*
X90205209Y-144707230D01*
X90226062Y-144715871D01*
X90253592Y-144727467D01*
X90286923Y-144741646D01*
X90325177Y-144758035D01*
X90367479Y-144776263D01*
X90412950Y-144795958D01*
X90428575Y-144802747D01*
X90474994Y-144822902D01*
X90518601Y-144841774D01*
X90558508Y-144858983D01*
X90593827Y-144874149D01*
X90623671Y-144886893D01*
X90647152Y-144896834D01*
X90663383Y-144903593D01*
X90671476Y-144906791D01*
X90672204Y-144906999D01*
X90675161Y-144902655D01*
X90682714Y-144890014D01*
X90694531Y-144869665D01*
X90710280Y-144842194D01*
X90729628Y-144808190D01*
X90752243Y-144768241D01*
X90777794Y-144722935D01*
X90805947Y-144672859D01*
X90836370Y-144618602D01*
X90868731Y-144560751D01*
X90902698Y-144499895D01*
X90929190Y-144452339D01*
X90964147Y-144389605D01*
X90997746Y-144329432D01*
X91029655Y-144272409D01*
X91059542Y-144219125D01*
X91087075Y-144170165D01*
X91111922Y-144126120D01*
X91133751Y-144087575D01*
X91152230Y-144055120D01*
X91167027Y-144029342D01*
X91177809Y-144010829D01*
X91184245Y-144000168D01*
X91186023Y-143997680D01*
X91188958Y-144002023D01*
X91188958Y-144002023D01*
G37*
X91188958Y-144002023D02*
X91196492Y-144014664D01*
X91208290Y-144035012D01*
X91224023Y-144062481D01*
X91243356Y-144096483D01*
X91265959Y-144136429D01*
X91291498Y-144181733D01*
X91319643Y-144231805D01*
X91350060Y-144286060D01*
X91382418Y-144343907D01*
X91416385Y-144404761D01*
X91442894Y-144452339D01*
X91477861Y-144515076D01*
X91511479Y-144575250D01*
X91543414Y-144632274D01*
X91573334Y-144685560D01*
X91600907Y-144734521D01*
X91625798Y-144778567D01*
X91647677Y-144817111D01*
X91666209Y-144849566D01*
X91681062Y-144875343D01*
X91691904Y-144893855D01*
X91698401Y-144904513D01*
X91700226Y-144906999D01*
X91705568Y-144905029D01*
X91719332Y-144899373D01*
X91740626Y-144890410D01*
X91768563Y-144878521D01*
X91802252Y-144864087D01*
X91840804Y-144847488D01*
X91883329Y-144829103D01*
X91928938Y-144809315D01*
X91943867Y-144802822D01*
X91990163Y-144782726D01*
X92033578Y-144763972D01*
X92073234Y-144746932D01*
X92108255Y-144731980D01*
X92137763Y-144719487D01*
X92160881Y-144709826D01*
X92176732Y-144703370D01*
X92184438Y-144700492D01*
X92185043Y-144700390D01*
X92184780Y-144705564D01*
X92183594Y-144720256D01*
X92181539Y-144743871D01*
X92178673Y-144775815D01*
X92175050Y-144815493D01*
X92170725Y-144862309D01*
X92165755Y-144915670D01*
X92160194Y-144974979D01*
X92154098Y-145039644D01*
X92147522Y-145109068D01*
X92140522Y-145182657D01*
X92133154Y-145259816D01*
X92125472Y-145339951D01*
X92123375Y-145361775D01*
X92115621Y-145442609D01*
X92108170Y-145520631D01*
X92101076Y-145595244D01*
X92094395Y-145665854D01*
X92088182Y-145731866D01*
X92082492Y-145792685D01*
X92077381Y-145847715D01*
X92072904Y-145896362D01*
X92069115Y-145938030D01*
X92066071Y-145972125D01*
X92063826Y-145998051D01*
X92062435Y-146015213D01*
X92061954Y-146023016D01*
X92061987Y-146023440D01*
X92066004Y-146020462D01*
X92077044Y-146011224D01*
X92094540Y-145996221D01*
X92117927Y-145975948D01*
X92146638Y-145950900D01*
X92180108Y-145921574D01*
X92217770Y-145888464D01*
X92259059Y-145852066D01*
X92303409Y-145812876D01*
X92350253Y-145771389D01*
X92374993Y-145749442D01*
X92422945Y-145706899D01*
X92468713Y-145666330D01*
X92511727Y-145628237D01*
X92551418Y-145593122D01*
X92587217Y-145561489D01*
X92618554Y-145533840D01*
X92644860Y-145510676D01*
X92665567Y-145492502D01*
X92680104Y-145479818D01*
X92687902Y-145473129D01*
X92689097Y-145472188D01*
X92691423Y-145476517D01*
X92696789Y-145489288D01*
X92704775Y-145509389D01*
X92714964Y-145535710D01*
X92726935Y-145567139D01*
X92740269Y-145602566D01*
X92754546Y-145640880D01*
X92769348Y-145680969D01*
X92784254Y-145721723D01*
X92798846Y-145762030D01*
X92805541Y-145780685D01*
X92803005Y-145786022D01*
X92794935Y-145797157D01*
X92782641Y-145812379D01*
X92769761Y-145827355D01*
X92707249Y-145899782D01*
X92641807Y-145978622D01*
X92574060Y-146062976D01*
X92504638Y-146151945D01*
X92434166Y-146244630D01*
X92363272Y-146340131D01*
X92292584Y-146437551D01*
X92222728Y-146535989D01*
X92154332Y-146634547D01*
X92088022Y-146732326D01*
X92024427Y-146828426D01*
X91964173Y-146921950D01*
X91907888Y-147011997D01*
X91856199Y-147097670D01*
X91809732Y-147178068D01*
X91769116Y-147252293D01*
X91750376Y-147288429D01*
X91743102Y-147300492D01*
X91736879Y-147306969D01*
X91734611Y-147307282D01*
X91730394Y-147302135D01*
X91721940Y-147289913D01*
X91710307Y-147272213D01*
X91696556Y-147250630D01*
X91689784Y-147239793D01*
X91631969Y-147141895D01*
X91577466Y-147039522D01*
X91526077Y-146932106D01*
X91477608Y-146819079D01*
X91431861Y-146699876D01*
X91388641Y-146573927D01*
X91347751Y-146440667D01*
X91308995Y-146299528D01*
X91272177Y-146149942D01*
X91237100Y-145991343D01*
X91208324Y-145848070D01*
X91202271Y-145817238D01*
X91196710Y-145790099D01*
X91191960Y-145768126D01*
X91188343Y-145752791D01*
X91186180Y-145745568D01*
X91185884Y-145745200D01*
X91184073Y-145749911D01*
X91180846Y-145762892D01*
X91176589Y-145782414D01*
X91171688Y-145806748D01*
X91169127Y-145820130D01*
X91134797Y-145992829D01*
X91098557Y-146156008D01*
X91060240Y-146310153D01*
X91019680Y-146455752D01*
X90976707Y-146593294D01*
X90931155Y-146723266D01*
X90882857Y-146846157D01*
X90831645Y-146962455D01*
X90777351Y-147072646D01*
X90719809Y-147177221D01*
X90682215Y-147239793D01*
X90667844Y-147262631D01*
X90655101Y-147282322D01*
X90645047Y-147297273D01*
X90638741Y-147305886D01*
X90637388Y-147307282D01*
X90632601Y-147304923D01*
X90625664Y-147295661D01*
X90621623Y-147288429D01*
X90584565Y-147218256D01*
X90541341Y-147141428D01*
X90492577Y-147058845D01*
X90438902Y-146971406D01*
X90380944Y-146880010D01*
X90319328Y-146785556D01*
X90254684Y-146688945D01*
X90187638Y-146591076D01*
X90118818Y-146492847D01*
X90048852Y-146395159D01*
X89978366Y-146298911D01*
X89907989Y-146205002D01*
X89838348Y-146114332D01*
X89770070Y-146027799D01*
X89703784Y-145946305D01*
X89640115Y-145870747D01*
X89602299Y-145827355D01*
X89587412Y-145809996D01*
X89575630Y-145795256D01*
X89568263Y-145784843D01*
X89566458Y-145780659D01*
X89578864Y-145746059D01*
X89592257Y-145709201D01*
X89606185Y-145671278D01*
X89620200Y-145633477D01*
X89633851Y-145596991D01*
X89646691Y-145563008D01*
X89658269Y-145532718D01*
X89668135Y-145507313D01*
X89675841Y-145487981D01*
X89680937Y-145475912D01*
X89682933Y-145472248D01*
X89687131Y-145475723D01*
X89698354Y-145485444D01*
X89716032Y-145500910D01*
X89739597Y-145521618D01*
X89768479Y-145547065D01*
X89802108Y-145576749D01*
X89839916Y-145610168D01*
X89881332Y-145646820D01*
X89925787Y-145686201D01*
X89972713Y-145727810D01*
X89997063Y-145749416D01*
X90044965Y-145791884D01*
X90090660Y-145832309D01*
X90133584Y-145870196D01*
X90173170Y-145905048D01*
X90208852Y-145936371D01*
X90240065Y-145963669D01*
X90266242Y-145986446D01*
X90286818Y-146004208D01*
X90301226Y-146016458D01*
X90308901Y-146022701D01*
X90310040Y-146023412D01*
X90309809Y-146018206D01*
X90308653Y-146003482D01*
X90306628Y-145979836D01*
X90303789Y-145947863D01*
X90300192Y-145908157D01*
X90295892Y-145861313D01*
X90290943Y-145807928D01*
X90285402Y-145748595D01*
X90279323Y-145683910D01*
X90272762Y-145614468D01*
X90265773Y-145540864D01*
X90259115Y-145471059D01*
X90923871Y-145471059D01*
X90926667Y-145468995D01*
X90935233Y-145461226D01*
X90948061Y-145449137D01*
X90956979Y-145440579D01*
X90976958Y-145422731D01*
X90999207Y-145405066D01*
X91019623Y-145390800D01*
X91023915Y-145388167D01*
X91058997Y-145369742D01*
X91093007Y-145357235D01*
X91129110Y-145349846D01*
X91170466Y-145346775D01*
X91188540Y-145346576D01*
X91216641Y-145346941D01*
X91237694Y-145348157D01*
X91254798Y-145350654D01*
X91271055Y-145354860D01*
X91286759Y-145360186D01*
X91331578Y-145379446D01*
X91371091Y-145403592D01*
X91408955Y-145434915D01*
X91414930Y-145440579D01*
X91429591Y-145454551D01*
X91440870Y-145465023D01*
X91447261Y-145470612D01*
X91448128Y-145471059D01*
X91446460Y-145465909D01*
X91441997Y-145451764D01*
X91434961Y-145429333D01*
X91425572Y-145399325D01*
X91414052Y-145362447D01*
X91400621Y-145319407D01*
X91385500Y-145270915D01*
X91368911Y-145217677D01*
X91351075Y-145160403D01*
X91332211Y-145099799D01*
X91317692Y-145053131D01*
X91298207Y-144990582D01*
X91279556Y-144930893D01*
X91261963Y-144874765D01*
X91245649Y-144822901D01*
X91230838Y-144776002D01*
X91217751Y-144734773D01*
X91206613Y-144699914D01*
X91197646Y-144672128D01*
X91191073Y-144652118D01*
X91187115Y-144640585D01*
X91186000Y-144637922D01*
X91184144Y-144642657D01*
X91179505Y-144656396D01*
X91172307Y-144678435D01*
X91162771Y-144708072D01*
X91151120Y-144744605D01*
X91137577Y-144787332D01*
X91122366Y-144835549D01*
X91105708Y-144888556D01*
X91087826Y-144945649D01*
X91068944Y-145006126D01*
X91054307Y-145053131D01*
X91034825Y-145115745D01*
X91016206Y-145175556D01*
X90998671Y-145231855D01*
X90982441Y-145283933D01*
X90967736Y-145331084D01*
X90954777Y-145372599D01*
X90943787Y-145407769D01*
X90934985Y-145435886D01*
X90928592Y-145456243D01*
X90924831Y-145468130D01*
X90923871Y-145471059D01*
X90259115Y-145471059D01*
X90258412Y-145463694D01*
X90250735Y-145383551D01*
X90248641Y-145361758D01*
X90240888Y-145280927D01*
X90233433Y-145202912D01*
X90226333Y-145128308D01*
X90219643Y-145057709D01*
X90213418Y-144991711D01*
X90207714Y-144930908D01*
X90202587Y-144875895D01*
X90198090Y-144827267D01*
X90194281Y-144785618D01*
X90191214Y-144751544D01*
X90188945Y-144725640D01*
X90187529Y-144708499D01*
X90187021Y-144700718D01*
X90187046Y-144700299D01*
X90191912Y-144701916D01*
X90205209Y-144707230D01*
X90226062Y-144715871D01*
X90253592Y-144727467D01*
X90286923Y-144741646D01*
X90325177Y-144758035D01*
X90367479Y-144776263D01*
X90412950Y-144795958D01*
X90428575Y-144802747D01*
X90474994Y-144822902D01*
X90518601Y-144841774D01*
X90558508Y-144858983D01*
X90593827Y-144874149D01*
X90623671Y-144886893D01*
X90647152Y-144896834D01*
X90663383Y-144903593D01*
X90671476Y-144906791D01*
X90672204Y-144906999D01*
X90675161Y-144902655D01*
X90682714Y-144890014D01*
X90694531Y-144869665D01*
X90710280Y-144842194D01*
X90729628Y-144808190D01*
X90752243Y-144768241D01*
X90777794Y-144722935D01*
X90805947Y-144672859D01*
X90836370Y-144618602D01*
X90868731Y-144560751D01*
X90902698Y-144499895D01*
X90929190Y-144452339D01*
X90964147Y-144389605D01*
X90997746Y-144329432D01*
X91029655Y-144272409D01*
X91059542Y-144219125D01*
X91087075Y-144170165D01*
X91111922Y-144126120D01*
X91133751Y-144087575D01*
X91152230Y-144055120D01*
X91167027Y-144029342D01*
X91177809Y-144010829D01*
X91184245Y-144000168D01*
X91186023Y-143997680D01*
X91188958Y-144002023D01*
D14*
X79995000Y-91739000D02*
G75*
G03X79995000Y-91739000I-100000J0D01*
G01*
D15*
X79345000Y-89165000D02*
X79345000Y-89815000D01*
X79345000Y-89815000D02*
X79495000Y-89815000D01*
X79345000Y-87365000D02*
X79345000Y-86715000D01*
X79345000Y-86715000D02*
X79495000Y-86715000D01*
X81795000Y-86715000D02*
X81945000Y-86715000D01*
X81945000Y-86715000D02*
X81945000Y-87365000D01*
X81795000Y-89815000D02*
X81945000Y-89815000D01*
X81945000Y-89815000D02*
X81945000Y-89165000D01*
D14*
X77271000Y-69100000D02*
G75*
G03X77271000Y-69100000I-100000J0D01*
G01*
D15*
X79745000Y-68550000D02*
X79095000Y-68550000D01*
X79095000Y-68550000D02*
X79095000Y-68700000D01*
X81545000Y-68550000D02*
X82195000Y-68550000D01*
X82195000Y-68550000D02*
X82195000Y-68700000D01*
X82195000Y-71000000D02*
X82195000Y-71150000D01*
X82195000Y-71150000D02*
X81545000Y-71150000D01*
X79095000Y-71000000D02*
X79095000Y-71150000D01*
X79095000Y-71150000D02*
X79745000Y-71150000D01*
D11*
X116951607Y-63292000D02*
G75*
G03X116951607Y-63292000I-223607J0D01*
G01*
X120428000Y-64992000D02*
X120428000Y-60992000D01*
X120428000Y-60992000D02*
X115428000Y-60992000D01*
X115428000Y-60992000D02*
X115428000Y-64992000D01*
X115428000Y-64992000D02*
X120428000Y-64992000D01*
D12*
X82940000Y-100295000D02*
X82940000Y-99095000D01*
X84700000Y-99095000D02*
X84700000Y-100295000D01*
X80255000Y-99095000D02*
X80255000Y-100295000D01*
X78495000Y-100295000D02*
X78495000Y-99095000D01*
D11*
X127936667Y-52792381D02*
X127936667Y-53506667D01*
X127889047Y-53649524D01*
X127793809Y-53744762D01*
X127650952Y-53792381D01*
X127555714Y-53792381D01*
X128365238Y-52887619D02*
X128412857Y-52840000D01*
X128508095Y-52792381D01*
X128746191Y-52792381D01*
X128841429Y-52840000D01*
X128889048Y-52887619D01*
X128936667Y-52982857D01*
X128936667Y-53078095D01*
X128889048Y-53220952D01*
X128317619Y-53792381D01*
X128936667Y-53792381D01*
X121097381Y-100298095D02*
X121906905Y-100298095D01*
X122002143Y-100250476D01*
X122049762Y-100202857D01*
X122097381Y-100107619D01*
X122097381Y-99917142D01*
X122049762Y-99821904D01*
X122002143Y-99774285D01*
X121906905Y-99726666D01*
X121097381Y-99726666D01*
X122097381Y-98726666D02*
X122097381Y-99298095D01*
X122097381Y-99012381D02*
X121097381Y-99012381D01*
X121240238Y-99107619D01*
X121335476Y-99202857D01*
X121383095Y-99298095D01*
X121097381Y-98393333D02*
X121097381Y-97774285D01*
X121478333Y-98107619D01*
X121478333Y-97964761D01*
X121525952Y-97869523D01*
X121573571Y-97821904D01*
X121668810Y-97774285D01*
X121906905Y-97774285D01*
X122002143Y-97821904D01*
X122049762Y-97869523D01*
X122097381Y-97964761D01*
X122097381Y-98250476D01*
X122049762Y-98345714D01*
X122002143Y-98393333D01*
X86717167Y-85867786D02*
X86717167Y-85391595D01*
X87002881Y-85963024D02*
X86002881Y-85629691D01*
X87002881Y-85296357D01*
X87002881Y-84439214D02*
X87002881Y-85010643D01*
X87002881Y-84724929D02*
X86002881Y-84724929D01*
X86145738Y-84820167D01*
X86240976Y-84915405D01*
X86288595Y-85010643D01*
X78446334Y-81637143D02*
X78398715Y-81684762D01*
X78255858Y-81732381D01*
X78160620Y-81732381D01*
X78017762Y-81684762D01*
X77922524Y-81589524D01*
X77874905Y-81494286D01*
X77827286Y-81303810D01*
X77827286Y-81160952D01*
X77874905Y-80970476D01*
X77922524Y-80875238D01*
X78017762Y-80780000D01*
X78160620Y-80732381D01*
X78255858Y-80732381D01*
X78398715Y-80780000D01*
X78446334Y-80827619D01*
X79398715Y-81732381D02*
X78827286Y-81732381D01*
X79113000Y-81732381D02*
X79113000Y-80732381D01*
X79017762Y-80875238D01*
X78922524Y-80970476D01*
X78827286Y-81018095D01*
X78446334Y-63222143D02*
X78398715Y-63269762D01*
X78255858Y-63317381D01*
X78160620Y-63317381D01*
X78017762Y-63269762D01*
X77922524Y-63174524D01*
X77874905Y-63079286D01*
X77827286Y-62888810D01*
X77827286Y-62745952D01*
X77874905Y-62555476D01*
X77922524Y-62460238D01*
X78017762Y-62365000D01*
X78160620Y-62317381D01*
X78255858Y-62317381D01*
X78398715Y-62365000D01*
X78446334Y-62412619D01*
X78827286Y-62412619D02*
X78874905Y-62365000D01*
X78970143Y-62317381D01*
X79208239Y-62317381D01*
X79303477Y-62365000D01*
X79351096Y-62412619D01*
X79398715Y-62507857D01*
X79398715Y-62603095D01*
X79351096Y-62745952D01*
X78779667Y-63317381D01*
X79398715Y-63317381D01*
X122277143Y-59602666D02*
X122324762Y-59650285D01*
X122372381Y-59793142D01*
X122372381Y-59888380D01*
X122324762Y-60031238D01*
X122229524Y-60126476D01*
X122134286Y-60174095D01*
X121943810Y-60221714D01*
X121800952Y-60221714D01*
X121610476Y-60174095D01*
X121515238Y-60126476D01*
X121420000Y-60031238D01*
X121372381Y-59888380D01*
X121372381Y-59793142D01*
X121420000Y-59650285D01*
X121467619Y-59602666D01*
X121372381Y-59269333D02*
X121372381Y-58650285D01*
X121753333Y-58983619D01*
X121753333Y-58840761D01*
X121800952Y-58745523D01*
X121848571Y-58697904D01*
X121943810Y-58650285D01*
X122181905Y-58650285D01*
X122277143Y-58697904D01*
X122324762Y-58745523D01*
X122372381Y-58840761D01*
X122372381Y-59126476D01*
X122324762Y-59221714D01*
X122277143Y-59269333D01*
X76922334Y-53062143D02*
X76874715Y-53109762D01*
X76731858Y-53157381D01*
X76636620Y-53157381D01*
X76493762Y-53109762D01*
X76398524Y-53014524D01*
X76350905Y-52919286D01*
X76303286Y-52728810D01*
X76303286Y-52585952D01*
X76350905Y-52395476D01*
X76398524Y-52300238D01*
X76493762Y-52205000D01*
X76636620Y-52157381D01*
X76731858Y-52157381D01*
X76874715Y-52205000D01*
X76922334Y-52252619D01*
X77779477Y-52157381D02*
X77589000Y-52157381D01*
X77493762Y-52205000D01*
X77446143Y-52252619D01*
X77350905Y-52395476D01*
X77303286Y-52585952D01*
X77303286Y-52966905D01*
X77350905Y-53062143D01*
X77398524Y-53109762D01*
X77493762Y-53157381D01*
X77684239Y-53157381D01*
X77779477Y-53109762D01*
X77827096Y-53062143D01*
X77874715Y-52966905D01*
X77874715Y-52728810D01*
X77827096Y-52633571D01*
X77779477Y-52585952D01*
X77684239Y-52538333D01*
X77493762Y-52538333D01*
X77398524Y-52585952D01*
X77350905Y-52633571D01*
X77303286Y-52728810D01*
X76922334Y-56872143D02*
X76874715Y-56919762D01*
X76731858Y-56967381D01*
X76636620Y-56967381D01*
X76493762Y-56919762D01*
X76398524Y-56824524D01*
X76350905Y-56729286D01*
X76303286Y-56538810D01*
X76303286Y-56395952D01*
X76350905Y-56205476D01*
X76398524Y-56110238D01*
X76493762Y-56015000D01*
X76636620Y-55967381D01*
X76731858Y-55967381D01*
X76874715Y-56015000D01*
X76922334Y-56062619D01*
X77255667Y-55967381D02*
X77922334Y-55967381D01*
X77493762Y-56967381D01*
X128881143Y-62142666D02*
X128928762Y-62190285D01*
X128976381Y-62333142D01*
X128976381Y-62428380D01*
X128928762Y-62571238D01*
X128833524Y-62666476D01*
X128738286Y-62714095D01*
X128547810Y-62761714D01*
X128404952Y-62761714D01*
X128214476Y-62714095D01*
X128119238Y-62666476D01*
X128024000Y-62571238D01*
X127976381Y-62428380D01*
X127976381Y-62333142D01*
X128024000Y-62190285D01*
X128071619Y-62142666D01*
X128404952Y-61571238D02*
X128357333Y-61666476D01*
X128309714Y-61714095D01*
X128214476Y-61761714D01*
X128166857Y-61761714D01*
X128071619Y-61714095D01*
X128024000Y-61666476D01*
X127976381Y-61571238D01*
X127976381Y-61380761D01*
X128024000Y-61285523D01*
X128071619Y-61237904D01*
X128166857Y-61190285D01*
X128214476Y-61190285D01*
X128309714Y-61237904D01*
X128357333Y-61285523D01*
X128404952Y-61380761D01*
X128404952Y-61571238D01*
X128452571Y-61666476D01*
X128500190Y-61714095D01*
X128595429Y-61761714D01*
X128785905Y-61761714D01*
X128881143Y-61714095D01*
X128928762Y-61666476D01*
X128976381Y-61571238D01*
X128976381Y-61380761D01*
X128928762Y-61285523D01*
X128881143Y-61237904D01*
X128785905Y-61190285D01*
X128595429Y-61190285D01*
X128500190Y-61237904D01*
X128452571Y-61285523D01*
X128404952Y-61380761D01*
X125833143Y-62142666D02*
X125880762Y-62190285D01*
X125928381Y-62333142D01*
X125928381Y-62428380D01*
X125880762Y-62571238D01*
X125785524Y-62666476D01*
X125690286Y-62714095D01*
X125499810Y-62761714D01*
X125356952Y-62761714D01*
X125166476Y-62714095D01*
X125071238Y-62666476D01*
X124976000Y-62571238D01*
X124928381Y-62428380D01*
X124928381Y-62333142D01*
X124976000Y-62190285D01*
X125023619Y-62142666D01*
X125928381Y-61666476D02*
X125928381Y-61476000D01*
X125880762Y-61380761D01*
X125833143Y-61333142D01*
X125690286Y-61237904D01*
X125499810Y-61190285D01*
X125118857Y-61190285D01*
X125023619Y-61237904D01*
X124976000Y-61285523D01*
X124928381Y-61380761D01*
X124928381Y-61571238D01*
X124976000Y-61666476D01*
X125023619Y-61714095D01*
X125118857Y-61761714D01*
X125356952Y-61761714D01*
X125452190Y-61714095D01*
X125499810Y-61666476D01*
X125547429Y-61571238D01*
X125547429Y-61380761D01*
X125499810Y-61285523D01*
X125452190Y-61237904D01*
X125356952Y-61190285D01*
X111625143Y-61317143D02*
X111577524Y-61364762D01*
X111434667Y-61412381D01*
X111339429Y-61412381D01*
X111196571Y-61364762D01*
X111101333Y-61269524D01*
X111053714Y-61174286D01*
X111006095Y-60983810D01*
X111006095Y-60840952D01*
X111053714Y-60650476D01*
X111101333Y-60555238D01*
X111196571Y-60460000D01*
X111339429Y-60412381D01*
X111434667Y-60412381D01*
X111577524Y-60460000D01*
X111625143Y-60507619D01*
X112577524Y-61412381D02*
X112006095Y-61412381D01*
X112291809Y-61412381D02*
X112291809Y-60412381D01*
X112196571Y-60555238D01*
X112101333Y-60650476D01*
X112006095Y-60698095D01*
X113196571Y-60412381D02*
X113291810Y-60412381D01*
X113387048Y-60460000D01*
X113434667Y-60507619D01*
X113482286Y-60602857D01*
X113529905Y-60793333D01*
X113529905Y-61031429D01*
X113482286Y-61221905D01*
X113434667Y-61317143D01*
X113387048Y-61364762D01*
X113291810Y-61412381D01*
X113196571Y-61412381D01*
X113101333Y-61364762D01*
X113053714Y-61317143D01*
X113006095Y-61221905D01*
X112958476Y-61031429D01*
X112958476Y-60793333D01*
X113006095Y-60602857D01*
X113053714Y-60507619D01*
X113101333Y-60460000D01*
X113196571Y-60412381D01*
X111625143Y-65381143D02*
X111577524Y-65428762D01*
X111434667Y-65476381D01*
X111339429Y-65476381D01*
X111196571Y-65428762D01*
X111101333Y-65333524D01*
X111053714Y-65238286D01*
X111006095Y-65047810D01*
X111006095Y-64904952D01*
X111053714Y-64714476D01*
X111101333Y-64619238D01*
X111196571Y-64524000D01*
X111339429Y-64476381D01*
X111434667Y-64476381D01*
X111577524Y-64524000D01*
X111625143Y-64571619D01*
X112577524Y-65476381D02*
X112006095Y-65476381D01*
X112291809Y-65476381D02*
X112291809Y-64476381D01*
X112196571Y-64619238D01*
X112101333Y-64714476D01*
X112006095Y-64762095D01*
X113529905Y-65476381D02*
X112958476Y-65476381D01*
X113244190Y-65476381D02*
X113244190Y-64476381D01*
X113148952Y-64619238D01*
X113053714Y-64714476D01*
X112958476Y-64762095D01*
X97401143Y-69445143D02*
X97353524Y-69492762D01*
X97210667Y-69540381D01*
X97115429Y-69540381D01*
X96972571Y-69492762D01*
X96877333Y-69397524D01*
X96829714Y-69302286D01*
X96782095Y-69111810D01*
X96782095Y-68968952D01*
X96829714Y-68778476D01*
X96877333Y-68683238D01*
X96972571Y-68588000D01*
X97115429Y-68540381D01*
X97210667Y-68540381D01*
X97353524Y-68588000D01*
X97401143Y-68635619D01*
X98353524Y-69540381D02*
X97782095Y-69540381D01*
X98067809Y-69540381D02*
X98067809Y-68540381D01*
X97972571Y-68683238D01*
X97877333Y-68778476D01*
X97782095Y-68826095D01*
X98734476Y-68635619D02*
X98782095Y-68588000D01*
X98877333Y-68540381D01*
X99115429Y-68540381D01*
X99210667Y-68588000D01*
X99258286Y-68635619D01*
X99305905Y-68730857D01*
X99305905Y-68826095D01*
X99258286Y-68968952D01*
X98686857Y-69540381D01*
X99305905Y-69540381D01*
X97401143Y-73509143D02*
X97353524Y-73556762D01*
X97210667Y-73604381D01*
X97115429Y-73604381D01*
X96972571Y-73556762D01*
X96877333Y-73461524D01*
X96829714Y-73366286D01*
X96782095Y-73175810D01*
X96782095Y-73032952D01*
X96829714Y-72842476D01*
X96877333Y-72747238D01*
X96972571Y-72652000D01*
X97115429Y-72604381D01*
X97210667Y-72604381D01*
X97353524Y-72652000D01*
X97401143Y-72699619D01*
X98353524Y-73604381D02*
X97782095Y-73604381D01*
X98067809Y-73604381D02*
X98067809Y-72604381D01*
X97972571Y-72747238D01*
X97877333Y-72842476D01*
X97782095Y-72890095D01*
X98686857Y-72604381D02*
X99305905Y-72604381D01*
X98972571Y-72985333D01*
X99115429Y-72985333D01*
X99210667Y-73032952D01*
X99258286Y-73080571D01*
X99305905Y-73175810D01*
X99305905Y-73413905D01*
X99258286Y-73509143D01*
X99210667Y-73556762D01*
X99115429Y-73604381D01*
X98829714Y-73604381D01*
X98734476Y-73556762D01*
X98686857Y-73509143D01*
X111625143Y-69445143D02*
X111577524Y-69492762D01*
X111434667Y-69540381D01*
X111339429Y-69540381D01*
X111196571Y-69492762D01*
X111101333Y-69397524D01*
X111053714Y-69302286D01*
X111006095Y-69111810D01*
X111006095Y-68968952D01*
X111053714Y-68778476D01*
X111101333Y-68683238D01*
X111196571Y-68588000D01*
X111339429Y-68540381D01*
X111434667Y-68540381D01*
X111577524Y-68588000D01*
X111625143Y-68635619D01*
X112577524Y-69540381D02*
X112006095Y-69540381D01*
X112291809Y-69540381D02*
X112291809Y-68540381D01*
X112196571Y-68683238D01*
X112101333Y-68778476D01*
X112006095Y-68826095D01*
X113434667Y-68873714D02*
X113434667Y-69540381D01*
X113196571Y-68492762D02*
X112958476Y-69207048D01*
X113577524Y-69207048D01*
X111625143Y-73509143D02*
X111577524Y-73556762D01*
X111434667Y-73604381D01*
X111339429Y-73604381D01*
X111196571Y-73556762D01*
X111101333Y-73461524D01*
X111053714Y-73366286D01*
X111006095Y-73175810D01*
X111006095Y-73032952D01*
X111053714Y-72842476D01*
X111101333Y-72747238D01*
X111196571Y-72652000D01*
X111339429Y-72604381D01*
X111434667Y-72604381D01*
X111577524Y-72652000D01*
X111625143Y-72699619D01*
X112577524Y-73604381D02*
X112006095Y-73604381D01*
X112291809Y-73604381D02*
X112291809Y-72604381D01*
X112196571Y-72747238D01*
X112101333Y-72842476D01*
X112006095Y-72890095D01*
X113482286Y-72604381D02*
X113006095Y-72604381D01*
X112958476Y-73080571D01*
X113006095Y-73032952D01*
X113101333Y-72985333D01*
X113339429Y-72985333D01*
X113434667Y-73032952D01*
X113482286Y-73080571D01*
X113529905Y-73175810D01*
X113529905Y-73413905D01*
X113482286Y-73509143D01*
X113434667Y-73556762D01*
X113339429Y-73604381D01*
X113101333Y-73604381D01*
X113006095Y-73556762D01*
X112958476Y-73509143D01*
X97401143Y-61317143D02*
X97353524Y-61364762D01*
X97210667Y-61412381D01*
X97115429Y-61412381D01*
X96972571Y-61364762D01*
X96877333Y-61269524D01*
X96829714Y-61174286D01*
X96782095Y-60983810D01*
X96782095Y-60840952D01*
X96829714Y-60650476D01*
X96877333Y-60555238D01*
X96972571Y-60460000D01*
X97115429Y-60412381D01*
X97210667Y-60412381D01*
X97353524Y-60460000D01*
X97401143Y-60507619D01*
X98353524Y-61412381D02*
X97782095Y-61412381D01*
X98067809Y-61412381D02*
X98067809Y-60412381D01*
X97972571Y-60555238D01*
X97877333Y-60650476D01*
X97782095Y-60698095D01*
X99210667Y-60412381D02*
X99020190Y-60412381D01*
X98924952Y-60460000D01*
X98877333Y-60507619D01*
X98782095Y-60650476D01*
X98734476Y-60840952D01*
X98734476Y-61221905D01*
X98782095Y-61317143D01*
X98829714Y-61364762D01*
X98924952Y-61412381D01*
X99115429Y-61412381D01*
X99210667Y-61364762D01*
X99258286Y-61317143D01*
X99305905Y-61221905D01*
X99305905Y-60983810D01*
X99258286Y-60888571D01*
X99210667Y-60840952D01*
X99115429Y-60793333D01*
X98924952Y-60793333D01*
X98829714Y-60840952D01*
X98782095Y-60888571D01*
X98734476Y-60983810D01*
X97401143Y-65381143D02*
X97353524Y-65428762D01*
X97210667Y-65476381D01*
X97115429Y-65476381D01*
X96972571Y-65428762D01*
X96877333Y-65333524D01*
X96829714Y-65238286D01*
X96782095Y-65047810D01*
X96782095Y-64904952D01*
X96829714Y-64714476D01*
X96877333Y-64619238D01*
X96972571Y-64524000D01*
X97115429Y-64476381D01*
X97210667Y-64476381D01*
X97353524Y-64524000D01*
X97401143Y-64571619D01*
X98353524Y-65476381D02*
X97782095Y-65476381D01*
X98067809Y-65476381D02*
X98067809Y-64476381D01*
X97972571Y-64619238D01*
X97877333Y-64714476D01*
X97782095Y-64762095D01*
X98686857Y-64476381D02*
X99353524Y-64476381D01*
X98924952Y-65476381D01*
X120642143Y-108307143D02*
X120594524Y-108354762D01*
X120451667Y-108402381D01*
X120356429Y-108402381D01*
X120213571Y-108354762D01*
X120118333Y-108259524D01*
X120070714Y-108164286D01*
X120023095Y-107973810D01*
X120023095Y-107830952D01*
X120070714Y-107640476D01*
X120118333Y-107545238D01*
X120213571Y-107450000D01*
X120356429Y-107402381D01*
X120451667Y-107402381D01*
X120594524Y-107450000D01*
X120642143Y-107497619D01*
X121594524Y-108402381D02*
X121023095Y-108402381D01*
X121308809Y-108402381D02*
X121308809Y-107402381D01*
X121213571Y-107545238D01*
X121118333Y-107640476D01*
X121023095Y-107688095D01*
X122165952Y-107830952D02*
X122070714Y-107783333D01*
X122023095Y-107735714D01*
X121975476Y-107640476D01*
X121975476Y-107592857D01*
X122023095Y-107497619D01*
X122070714Y-107450000D01*
X122165952Y-107402381D01*
X122356429Y-107402381D01*
X122451667Y-107450000D01*
X122499286Y-107497619D01*
X122546905Y-107592857D01*
X122546905Y-107640476D01*
X122499286Y-107735714D01*
X122451667Y-107783333D01*
X122356429Y-107830952D01*
X122165952Y-107830952D01*
X122070714Y-107878571D01*
X122023095Y-107926190D01*
X121975476Y-108021429D01*
X121975476Y-108211905D01*
X122023095Y-108307143D01*
X122070714Y-108354762D01*
X122165952Y-108402381D01*
X122356429Y-108402381D01*
X122451667Y-108354762D01*
X122499286Y-108307143D01*
X122546905Y-108211905D01*
X122546905Y-108021429D01*
X122499286Y-107926190D01*
X122451667Y-107878571D01*
X122356429Y-107830952D01*
X120642143Y-104497143D02*
X120594524Y-104544762D01*
X120451667Y-104592381D01*
X120356429Y-104592381D01*
X120213571Y-104544762D01*
X120118333Y-104449524D01*
X120070714Y-104354286D01*
X120023095Y-104163810D01*
X120023095Y-104020952D01*
X120070714Y-103830476D01*
X120118333Y-103735238D01*
X120213571Y-103640000D01*
X120356429Y-103592381D01*
X120451667Y-103592381D01*
X120594524Y-103640000D01*
X120642143Y-103687619D01*
X121594524Y-104592381D02*
X121023095Y-104592381D01*
X121308809Y-104592381D02*
X121308809Y-103592381D01*
X121213571Y-103735238D01*
X121118333Y-103830476D01*
X121023095Y-103878095D01*
X122070714Y-104592381D02*
X122261190Y-104592381D01*
X122356429Y-104544762D01*
X122404048Y-104497143D01*
X122499286Y-104354286D01*
X122546905Y-104163810D01*
X122546905Y-103782857D01*
X122499286Y-103687619D01*
X122451667Y-103640000D01*
X122356429Y-103592381D01*
X122165952Y-103592381D01*
X122070714Y-103640000D01*
X122023095Y-103687619D01*
X121975476Y-103782857D01*
X121975476Y-104020952D01*
X122023095Y-104116190D01*
X122070714Y-104163810D01*
X122165952Y-104211429D01*
X122356429Y-104211429D01*
X122451667Y-104163810D01*
X122499286Y-104116190D01*
X122546905Y-104020952D01*
X128516143Y-97512143D02*
X128468524Y-97559762D01*
X128325667Y-97607381D01*
X128230429Y-97607381D01*
X128087571Y-97559762D01*
X127992333Y-97464524D01*
X127944714Y-97369286D01*
X127897095Y-97178810D01*
X127897095Y-97035952D01*
X127944714Y-96845476D01*
X127992333Y-96750238D01*
X128087571Y-96655000D01*
X128230429Y-96607381D01*
X128325667Y-96607381D01*
X128468524Y-96655000D01*
X128516143Y-96702619D01*
X128897095Y-96702619D02*
X128944714Y-96655000D01*
X129039952Y-96607381D01*
X129278048Y-96607381D01*
X129373286Y-96655000D01*
X129420905Y-96702619D01*
X129468524Y-96797857D01*
X129468524Y-96893095D01*
X129420905Y-97035952D01*
X128849476Y-97607381D01*
X129468524Y-97607381D01*
X130087571Y-96607381D02*
X130182810Y-96607381D01*
X130278048Y-96655000D01*
X130325667Y-96702619D01*
X130373286Y-96797857D01*
X130420905Y-96988333D01*
X130420905Y-97226429D01*
X130373286Y-97416905D01*
X130325667Y-97512143D01*
X130278048Y-97559762D01*
X130182810Y-97607381D01*
X130087571Y-97607381D01*
X129992333Y-97559762D01*
X129944714Y-97512143D01*
X129897095Y-97416905D01*
X129849476Y-97226429D01*
X129849476Y-96988333D01*
X129897095Y-96797857D01*
X129944714Y-96702619D01*
X129992333Y-96655000D01*
X130087571Y-96607381D01*
X128516143Y-101322143D02*
X128468524Y-101369762D01*
X128325667Y-101417381D01*
X128230429Y-101417381D01*
X128087571Y-101369762D01*
X127992333Y-101274524D01*
X127944714Y-101179286D01*
X127897095Y-100988810D01*
X127897095Y-100845952D01*
X127944714Y-100655476D01*
X127992333Y-100560238D01*
X128087571Y-100465000D01*
X128230429Y-100417381D01*
X128325667Y-100417381D01*
X128468524Y-100465000D01*
X128516143Y-100512619D01*
X128897095Y-100512619D02*
X128944714Y-100465000D01*
X129039952Y-100417381D01*
X129278048Y-100417381D01*
X129373286Y-100465000D01*
X129420905Y-100512619D01*
X129468524Y-100607857D01*
X129468524Y-100703095D01*
X129420905Y-100845952D01*
X128849476Y-101417381D01*
X129468524Y-101417381D01*
X130420905Y-101417381D02*
X129849476Y-101417381D01*
X130135190Y-101417381D02*
X130135190Y-100417381D01*
X130039952Y-100560238D01*
X129944714Y-100655476D01*
X129849476Y-100703095D01*
X136136143Y-104497143D02*
X136088524Y-104544762D01*
X135945667Y-104592381D01*
X135850429Y-104592381D01*
X135707571Y-104544762D01*
X135612333Y-104449524D01*
X135564714Y-104354286D01*
X135517095Y-104163810D01*
X135517095Y-104020952D01*
X135564714Y-103830476D01*
X135612333Y-103735238D01*
X135707571Y-103640000D01*
X135850429Y-103592381D01*
X135945667Y-103592381D01*
X136088524Y-103640000D01*
X136136143Y-103687619D01*
X136517095Y-103687619D02*
X136564714Y-103640000D01*
X136659952Y-103592381D01*
X136898048Y-103592381D01*
X136993286Y-103640000D01*
X137040905Y-103687619D01*
X137088524Y-103782857D01*
X137088524Y-103878095D01*
X137040905Y-104020952D01*
X136469476Y-104592381D01*
X137088524Y-104592381D01*
X137469476Y-103687619D02*
X137517095Y-103640000D01*
X137612333Y-103592381D01*
X137850429Y-103592381D01*
X137945667Y-103640000D01*
X137993286Y-103687619D01*
X138040905Y-103782857D01*
X138040905Y-103878095D01*
X137993286Y-104020952D01*
X137421857Y-104592381D01*
X138040905Y-104592381D01*
X136136143Y-108307143D02*
X136088524Y-108354762D01*
X135945667Y-108402381D01*
X135850429Y-108402381D01*
X135707571Y-108354762D01*
X135612333Y-108259524D01*
X135564714Y-108164286D01*
X135517095Y-107973810D01*
X135517095Y-107830952D01*
X135564714Y-107640476D01*
X135612333Y-107545238D01*
X135707571Y-107450000D01*
X135850429Y-107402381D01*
X135945667Y-107402381D01*
X136088524Y-107450000D01*
X136136143Y-107497619D01*
X136517095Y-107497619D02*
X136564714Y-107450000D01*
X136659952Y-107402381D01*
X136898048Y-107402381D01*
X136993286Y-107450000D01*
X137040905Y-107497619D01*
X137088524Y-107592857D01*
X137088524Y-107688095D01*
X137040905Y-107830952D01*
X136469476Y-108402381D01*
X137088524Y-108402381D01*
X137421857Y-107402381D02*
X138040905Y-107402381D01*
X137707571Y-107783333D01*
X137850429Y-107783333D01*
X137945667Y-107830952D01*
X137993286Y-107878571D01*
X138040905Y-107973810D01*
X138040905Y-108211905D01*
X137993286Y-108307143D01*
X137945667Y-108354762D01*
X137850429Y-108402381D01*
X137564714Y-108402381D01*
X137469476Y-108354762D01*
X137421857Y-108307143D01*
X137461667Y-52792381D02*
X137461667Y-53506667D01*
X137414047Y-53649524D01*
X137318809Y-53744762D01*
X137175952Y-53792381D01*
X137080714Y-53792381D01*
X138461667Y-53792381D02*
X137890238Y-53792381D01*
X138175952Y-53792381D02*
X138175952Y-52792381D01*
X138080714Y-52935238D01*
X137985476Y-53030476D01*
X137890238Y-53078095D01*
X129817881Y-75453833D02*
X130532167Y-75453833D01*
X130675024Y-75501453D01*
X130770262Y-75596691D01*
X130817881Y-75739548D01*
X130817881Y-75834786D01*
X129817881Y-75072881D02*
X129817881Y-74453833D01*
X130198833Y-74787167D01*
X130198833Y-74644309D01*
X130246452Y-74549071D01*
X130294071Y-74501452D01*
X130389310Y-74453833D01*
X130627405Y-74453833D01*
X130722643Y-74501452D01*
X130770262Y-74549071D01*
X130817881Y-74644309D01*
X130817881Y-74930024D01*
X130770262Y-75025262D01*
X130722643Y-75072881D01*
X129817881Y-68341833D02*
X130532167Y-68341833D01*
X130675024Y-68389453D01*
X130770262Y-68484691D01*
X130817881Y-68627548D01*
X130817881Y-68722786D01*
X130151214Y-67437071D02*
X130817881Y-67437071D01*
X129770262Y-67675167D02*
X130484548Y-67913262D01*
X130484548Y-67294214D01*
X129817881Y-61229833D02*
X130532167Y-61229833D01*
X130675024Y-61277453D01*
X130770262Y-61372691D01*
X130817881Y-61515548D01*
X130817881Y-61610786D01*
X129817881Y-60277452D02*
X129817881Y-60753643D01*
X130294071Y-60801262D01*
X130246452Y-60753643D01*
X130198833Y-60658405D01*
X130198833Y-60420309D01*
X130246452Y-60325071D01*
X130294071Y-60277452D01*
X130389310Y-60229833D01*
X130627405Y-60229833D01*
X130722643Y-60277452D01*
X130770262Y-60325071D01*
X130817881Y-60420309D01*
X130817881Y-60658405D01*
X130770262Y-60753643D01*
X130722643Y-60801262D01*
X98750381Y-102655666D02*
X98274190Y-102989000D01*
X98750381Y-103227095D02*
X97750381Y-103227095D01*
X97750381Y-102846142D01*
X97798000Y-102750904D01*
X97845619Y-102703285D01*
X97940857Y-102655666D01*
X98083714Y-102655666D01*
X98178952Y-102703285D01*
X98226571Y-102750904D01*
X98274190Y-102846142D01*
X98274190Y-103227095D01*
X98750381Y-101703285D02*
X98750381Y-102274714D01*
X98750381Y-101989000D02*
X97750381Y-101989000D01*
X97893238Y-102084238D01*
X97988476Y-102179476D01*
X98036095Y-102274714D01*
X101925381Y-102655666D02*
X101449190Y-102989000D01*
X101925381Y-103227095D02*
X100925381Y-103227095D01*
X100925381Y-102846142D01*
X100973000Y-102750904D01*
X101020619Y-102703285D01*
X101115857Y-102655666D01*
X101258714Y-102655666D01*
X101353952Y-102703285D01*
X101401571Y-102750904D01*
X101449190Y-102846142D01*
X101449190Y-103227095D01*
X101020619Y-102274714D02*
X100973000Y-102227095D01*
X100925381Y-102131857D01*
X100925381Y-101893761D01*
X100973000Y-101798523D01*
X101020619Y-101750904D01*
X101115857Y-101703285D01*
X101211095Y-101703285D01*
X101353952Y-101750904D01*
X101925381Y-102322333D01*
X101925381Y-101703285D01*
X123896381Y-67730666D02*
X123420190Y-68064000D01*
X123896381Y-68302095D02*
X122896381Y-68302095D01*
X122896381Y-67921142D01*
X122944000Y-67825904D01*
X122991619Y-67778285D01*
X123086857Y-67730666D01*
X123229714Y-67730666D01*
X123324952Y-67778285D01*
X123372571Y-67825904D01*
X123420190Y-67921142D01*
X123420190Y-68302095D01*
X123229714Y-66873523D02*
X123896381Y-66873523D01*
X122848762Y-67111619D02*
X123563048Y-67349714D01*
X123563048Y-66730666D01*
X120340381Y-67730666D02*
X119864190Y-68064000D01*
X120340381Y-68302095D02*
X119340381Y-68302095D01*
X119340381Y-67921142D01*
X119388000Y-67825904D01*
X119435619Y-67778285D01*
X119530857Y-67730666D01*
X119673714Y-67730666D01*
X119768952Y-67778285D01*
X119816571Y-67825904D01*
X119864190Y-67921142D01*
X119864190Y-68302095D01*
X119340381Y-66825904D02*
X119340381Y-67302095D01*
X119816571Y-67349714D01*
X119768952Y-67302095D01*
X119721333Y-67206857D01*
X119721333Y-66968761D01*
X119768952Y-66873523D01*
X119816571Y-66825904D01*
X119911810Y-66778285D01*
X120149905Y-66778285D01*
X120245143Y-66825904D01*
X120292762Y-66873523D01*
X120340381Y-66968761D01*
X120340381Y-67206857D01*
X120292762Y-67302095D01*
X120245143Y-67349714D01*
X116784381Y-67730666D02*
X116308190Y-68064000D01*
X116784381Y-68302095D02*
X115784381Y-68302095D01*
X115784381Y-67921142D01*
X115832000Y-67825904D01*
X115879619Y-67778285D01*
X115974857Y-67730666D01*
X116117714Y-67730666D01*
X116212952Y-67778285D01*
X116260571Y-67825904D01*
X116308190Y-67921142D01*
X116308190Y-68302095D01*
X115784381Y-66873523D02*
X115784381Y-67064000D01*
X115832000Y-67159238D01*
X115879619Y-67206857D01*
X116022476Y-67302095D01*
X116212952Y-67349714D01*
X116593905Y-67349714D01*
X116689143Y-67302095D01*
X116736762Y-67254476D01*
X116784381Y-67159238D01*
X116784381Y-66968761D01*
X116736762Y-66873523D01*
X116689143Y-66825904D01*
X116593905Y-66778285D01*
X116355810Y-66778285D01*
X116260571Y-66825904D01*
X116212952Y-66873523D01*
X116165333Y-66968761D01*
X116165333Y-67159238D01*
X116212952Y-67254476D01*
X116260571Y-67302095D01*
X116355810Y-67349714D01*
X81621381Y-108711905D02*
X82430905Y-108711905D01*
X82526143Y-108664286D01*
X82573762Y-108616667D01*
X82621381Y-108521429D01*
X82621381Y-108330952D01*
X82573762Y-108235714D01*
X82526143Y-108188095D01*
X82430905Y-108140476D01*
X81621381Y-108140476D01*
X82621381Y-107140476D02*
X82621381Y-107711905D01*
X82621381Y-107426191D02*
X81621381Y-107426191D01*
X81764238Y-107521429D01*
X81859476Y-107616667D01*
X81907095Y-107711905D01*
X137882381Y-113156905D02*
X138691905Y-113156905D01*
X138787143Y-113109286D01*
X138834762Y-113061667D01*
X138882381Y-112966429D01*
X138882381Y-112775952D01*
X138834762Y-112680714D01*
X138787143Y-112633095D01*
X138691905Y-112585476D01*
X137882381Y-112585476D01*
X137882381Y-111633095D02*
X137882381Y-112109286D01*
X138358571Y-112156905D01*
X138310952Y-112109286D01*
X138263333Y-112014048D01*
X138263333Y-111775952D01*
X138310952Y-111680714D01*
X138358571Y-111633095D01*
X138453810Y-111585476D01*
X138691905Y-111585476D01*
X138787143Y-111633095D01*
X138834762Y-111680714D01*
X138882381Y-111775952D01*
X138882381Y-112014048D01*
X138834762Y-112109286D01*
X138787143Y-112156905D01*
X89479381Y-102782666D02*
X89003190Y-103116000D01*
X89479381Y-103354095D02*
X88479381Y-103354095D01*
X88479381Y-102973142D01*
X88527000Y-102877904D01*
X88574619Y-102830285D01*
X88669857Y-102782666D01*
X88812714Y-102782666D01*
X88907952Y-102830285D01*
X88955571Y-102877904D01*
X89003190Y-102973142D01*
X89003190Y-103354095D01*
X88479381Y-102449333D02*
X88479381Y-101782666D01*
X89479381Y-102211238D01*
X92527381Y-102782666D02*
X92051190Y-103116000D01*
X92527381Y-103354095D02*
X91527381Y-103354095D01*
X91527381Y-102973142D01*
X91575000Y-102877904D01*
X91622619Y-102830285D01*
X91717857Y-102782666D01*
X91860714Y-102782666D01*
X91955952Y-102830285D01*
X92003571Y-102877904D01*
X92051190Y-102973142D01*
X92051190Y-103354095D01*
X91955952Y-102211238D02*
X91908333Y-102306476D01*
X91860714Y-102354095D01*
X91765476Y-102401714D01*
X91717857Y-102401714D01*
X91622619Y-102354095D01*
X91575000Y-102306476D01*
X91527381Y-102211238D01*
X91527381Y-102020761D01*
X91575000Y-101925523D01*
X91622619Y-101877904D01*
X91717857Y-101830285D01*
X91765476Y-101830285D01*
X91860714Y-101877904D01*
X91908333Y-101925523D01*
X91955952Y-102020761D01*
X91955952Y-102211238D01*
X92003571Y-102306476D01*
X92051190Y-102354095D01*
X92146429Y-102401714D01*
X92336905Y-102401714D01*
X92432143Y-102354095D01*
X92479762Y-102306476D01*
X92527381Y-102211238D01*
X92527381Y-102020761D01*
X92479762Y-101925523D01*
X92432143Y-101877904D01*
X92336905Y-101830285D01*
X92146429Y-101830285D01*
X92051190Y-101877904D01*
X92003571Y-101925523D01*
X91955952Y-102020761D01*
X105100381Y-102655666D02*
X104624190Y-102989000D01*
X105100381Y-103227095D02*
X104100381Y-103227095D01*
X104100381Y-102846142D01*
X104148000Y-102750904D01*
X104195619Y-102703285D01*
X104290857Y-102655666D01*
X104433714Y-102655666D01*
X104528952Y-102703285D01*
X104576571Y-102750904D01*
X104624190Y-102846142D01*
X104624190Y-103227095D01*
X105100381Y-102179476D02*
X105100381Y-101989000D01*
X105052762Y-101893761D01*
X105005143Y-101846142D01*
X104862286Y-101750904D01*
X104671810Y-101703285D01*
X104290857Y-101703285D01*
X104195619Y-101750904D01*
X104148000Y-101798523D01*
X104100381Y-101893761D01*
X104100381Y-102084238D01*
X104148000Y-102179476D01*
X104195619Y-102227095D01*
X104290857Y-102274714D01*
X104528952Y-102274714D01*
X104624190Y-102227095D01*
X104671810Y-102179476D01*
X104719429Y-102084238D01*
X104719429Y-101893761D01*
X104671810Y-101798523D01*
X104624190Y-101750904D01*
X104528952Y-101703285D01*
X108275381Y-103639857D02*
X107799190Y-103973191D01*
X108275381Y-104211286D02*
X107275381Y-104211286D01*
X107275381Y-103830333D01*
X107323000Y-103735095D01*
X107370619Y-103687476D01*
X107465857Y-103639857D01*
X107608714Y-103639857D01*
X107703952Y-103687476D01*
X107751571Y-103735095D01*
X107799190Y-103830333D01*
X107799190Y-104211286D01*
X108275381Y-102687476D02*
X108275381Y-103258905D01*
X108275381Y-102973191D02*
X107275381Y-102973191D01*
X107418238Y-103068429D01*
X107513476Y-103163667D01*
X107561095Y-103258905D01*
X107275381Y-102068429D02*
X107275381Y-101973190D01*
X107323000Y-101877952D01*
X107370619Y-101830333D01*
X107465857Y-101782714D01*
X107656333Y-101735095D01*
X107894429Y-101735095D01*
X108084905Y-101782714D01*
X108180143Y-101830333D01*
X108227762Y-101877952D01*
X108275381Y-101973190D01*
X108275381Y-102068429D01*
X108227762Y-102163667D01*
X108180143Y-102211286D01*
X108084905Y-102258905D01*
X107894429Y-102306524D01*
X107656333Y-102306524D01*
X107465857Y-102258905D01*
X107370619Y-102211286D01*
X107323000Y-102163667D01*
X107275381Y-102068429D01*
X83272381Y-55117905D02*
X84081905Y-55117905D01*
X84177143Y-55070286D01*
X84224762Y-55022667D01*
X84272381Y-54927429D01*
X84272381Y-54736952D01*
X84224762Y-54641714D01*
X84177143Y-54594095D01*
X84081905Y-54546476D01*
X83272381Y-54546476D01*
X83272381Y-53641714D02*
X83272381Y-53832191D01*
X83320000Y-53927429D01*
X83367619Y-53975048D01*
X83510476Y-54070286D01*
X83700952Y-54117905D01*
X84081905Y-54117905D01*
X84177143Y-54070286D01*
X84224762Y-54022667D01*
X84272381Y-53927429D01*
X84272381Y-53736952D01*
X84224762Y-53641714D01*
X84177143Y-53594095D01*
X84081905Y-53546476D01*
X83843810Y-53546476D01*
X83748571Y-53594095D01*
X83700952Y-53641714D01*
X83653333Y-53736952D01*
X83653333Y-53927429D01*
X83700952Y-54022667D01*
X83748571Y-54070286D01*
X83843810Y-54117905D01*
X124547381Y-71881905D02*
X125356905Y-71881905D01*
X125452143Y-71834286D01*
X125499762Y-71786667D01*
X125547381Y-71691429D01*
X125547381Y-71500952D01*
X125499762Y-71405714D01*
X125452143Y-71358095D01*
X125356905Y-71310476D01*
X124547381Y-71310476D01*
X124547381Y-70929524D02*
X124547381Y-70262857D01*
X125547381Y-70691429D01*
X104460381Y-63753905D02*
X105269905Y-63753905D01*
X105365143Y-63706286D01*
X105412762Y-63658667D01*
X105460381Y-63563429D01*
X105460381Y-63372952D01*
X105412762Y-63277714D01*
X105365143Y-63230095D01*
X105269905Y-63182476D01*
X104460381Y-63182476D01*
X104888952Y-62563429D02*
X104841333Y-62658667D01*
X104793714Y-62706286D01*
X104698476Y-62753905D01*
X104650857Y-62753905D01*
X104555619Y-62706286D01*
X104508000Y-62658667D01*
X104460381Y-62563429D01*
X104460381Y-62372952D01*
X104508000Y-62277714D01*
X104555619Y-62230095D01*
X104650857Y-62182476D01*
X104698476Y-62182476D01*
X104793714Y-62230095D01*
X104841333Y-62277714D01*
X104888952Y-62372952D01*
X104888952Y-62563429D01*
X104936571Y-62658667D01*
X104984190Y-62706286D01*
X105079429Y-62753905D01*
X105269905Y-62753905D01*
X105365143Y-62706286D01*
X105412762Y-62658667D01*
X105460381Y-62563429D01*
X105460381Y-62372952D01*
X105412762Y-62277714D01*
X105365143Y-62230095D01*
X105269905Y-62182476D01*
X105079429Y-62182476D01*
X104984190Y-62230095D01*
X104936571Y-62277714D01*
X104888952Y-62372952D01*
X90384381Y-71881905D02*
X91193905Y-71881905D01*
X91289143Y-71834286D01*
X91336762Y-71786667D01*
X91384381Y-71691429D01*
X91384381Y-71500952D01*
X91336762Y-71405714D01*
X91289143Y-71358095D01*
X91193905Y-71310476D01*
X90384381Y-71310476D01*
X91384381Y-70786667D02*
X91384381Y-70596191D01*
X91336762Y-70500952D01*
X91289143Y-70453333D01*
X91146286Y-70358095D01*
X90955810Y-70310476D01*
X90574857Y-70310476D01*
X90479619Y-70358095D01*
X90432000Y-70405714D01*
X90384381Y-70500952D01*
X90384381Y-70691429D01*
X90432000Y-70786667D01*
X90479619Y-70834286D01*
X90574857Y-70881905D01*
X90812952Y-70881905D01*
X90908190Y-70834286D01*
X90955810Y-70786667D01*
X91003429Y-70691429D01*
X91003429Y-70500952D01*
X90955810Y-70405714D01*
X90908190Y-70358095D01*
X90812952Y-70310476D01*
X104460381Y-72358095D02*
X105269905Y-72358095D01*
X105365143Y-72310476D01*
X105412762Y-72262857D01*
X105460381Y-72167619D01*
X105460381Y-71977142D01*
X105412762Y-71881904D01*
X105365143Y-71834285D01*
X105269905Y-71786666D01*
X104460381Y-71786666D01*
X105460381Y-70786666D02*
X105460381Y-71358095D01*
X105460381Y-71072381D02*
X104460381Y-71072381D01*
X104603238Y-71167619D01*
X104698476Y-71262857D01*
X104746095Y-71358095D01*
X104460381Y-70167619D02*
X104460381Y-70072380D01*
X104508000Y-69977142D01*
X104555619Y-69929523D01*
X104650857Y-69881904D01*
X104841333Y-69834285D01*
X105079429Y-69834285D01*
X105269905Y-69881904D01*
X105365143Y-69929523D01*
X105412762Y-69977142D01*
X105460381Y-70072380D01*
X105460381Y-70167619D01*
X105412762Y-70262857D01*
X105365143Y-70310476D01*
X105269905Y-70358095D01*
X105079429Y-70405714D01*
X104841333Y-70405714D01*
X104650857Y-70358095D01*
X104555619Y-70310476D01*
X104508000Y-70262857D01*
X104460381Y-70167619D01*
X90236381Y-64230095D02*
X91045905Y-64230095D01*
X91141143Y-64182476D01*
X91188762Y-64134857D01*
X91236381Y-64039619D01*
X91236381Y-63849142D01*
X91188762Y-63753904D01*
X91141143Y-63706285D01*
X91045905Y-63658666D01*
X90236381Y-63658666D01*
X91236381Y-62658666D02*
X91236381Y-63230095D01*
X91236381Y-62944381D02*
X90236381Y-62944381D01*
X90379238Y-63039619D01*
X90474476Y-63134857D01*
X90522095Y-63230095D01*
X91236381Y-61706285D02*
X91236381Y-62277714D01*
X91236381Y-61992000D02*
X90236381Y-61992000D01*
X90379238Y-62087238D01*
X90474476Y-62182476D01*
X90522095Y-62277714D01*
X113117381Y-107283095D02*
X113926905Y-107283095D01*
X114022143Y-107235476D01*
X114069762Y-107187857D01*
X114117381Y-107092619D01*
X114117381Y-106902142D01*
X114069762Y-106806904D01*
X114022143Y-106759285D01*
X113926905Y-106711666D01*
X113117381Y-106711666D01*
X114117381Y-105711666D02*
X114117381Y-106283095D01*
X114117381Y-105997381D02*
X113117381Y-105997381D01*
X113260238Y-106092619D01*
X113355476Y-106187857D01*
X113403095Y-106283095D01*
X113212619Y-105330714D02*
X113165000Y-105283095D01*
X113117381Y-105187857D01*
X113117381Y-104949761D01*
X113165000Y-104854523D01*
X113212619Y-104806904D01*
X113307857Y-104759285D01*
X113403095Y-104759285D01*
X113545952Y-104806904D01*
X114117381Y-105378333D01*
X114117381Y-104759285D01*
X128717381Y-107283095D02*
X129526905Y-107283095D01*
X129622143Y-107235476D01*
X129669762Y-107187857D01*
X129717381Y-107092619D01*
X129717381Y-106902142D01*
X129669762Y-106806904D01*
X129622143Y-106759285D01*
X129526905Y-106711666D01*
X128717381Y-106711666D01*
X129717381Y-105711666D02*
X129717381Y-106283095D01*
X129717381Y-105997381D02*
X128717381Y-105997381D01*
X128860238Y-106092619D01*
X128955476Y-106187857D01*
X129003095Y-106283095D01*
X129050714Y-104854523D02*
X129717381Y-104854523D01*
X128669762Y-105092619D02*
X129384048Y-105330714D01*
X129384048Y-104711666D01*
X77341282Y-85811078D02*
X77341282Y-86622528D01*
X77389014Y-86717993D01*
X77436747Y-86765725D01*
X77532211Y-86813458D01*
X77723141Y-86813458D01*
X77818606Y-86765725D01*
X77866338Y-86717993D01*
X77914070Y-86622528D01*
X77914070Y-85811078D01*
X78343662Y-85906542D02*
X78391394Y-85858810D01*
X78486859Y-85811078D01*
X78725521Y-85811078D01*
X78820985Y-85858810D01*
X78868718Y-85906542D01*
X78916450Y-86002007D01*
X78916450Y-86097472D01*
X78868718Y-86240669D01*
X78295929Y-86813458D01*
X78916450Y-86813458D01*
X82001078Y-68073718D02*
X82812528Y-68073718D01*
X82907993Y-68025986D01*
X82955725Y-67978253D01*
X83003458Y-67882789D01*
X83003458Y-67691859D01*
X82955725Y-67596394D01*
X82907993Y-67548662D01*
X82812528Y-67500930D01*
X82001078Y-67500930D01*
X82001078Y-67119071D02*
X82001078Y-66498550D01*
X82382937Y-66832677D01*
X82382937Y-66689479D01*
X82430669Y-66594015D01*
X82478401Y-66546282D01*
X82573866Y-66498550D01*
X82812528Y-66498550D01*
X82907993Y-66546282D01*
X82955725Y-66594015D01*
X83003458Y-66689479D01*
X83003458Y-66975874D01*
X82955725Y-67071338D01*
X82907993Y-67119071D01*
X117308381Y-60705905D02*
X118117905Y-60705905D01*
X118213143Y-60658286D01*
X118260762Y-60610667D01*
X118308381Y-60515429D01*
X118308381Y-60324952D01*
X118260762Y-60229714D01*
X118213143Y-60182095D01*
X118117905Y-60134476D01*
X117308381Y-60134476D01*
X117641714Y-59229714D02*
X118308381Y-59229714D01*
X117260762Y-59467810D02*
X117975048Y-59705905D01*
X117975048Y-59086857D01*
X85972381Y-100337857D02*
X85496190Y-100671191D01*
X85972381Y-100909286D02*
X84972381Y-100909286D01*
X84972381Y-100528333D01*
X85020000Y-100433095D01*
X85067619Y-100385476D01*
X85162857Y-100337857D01*
X85305714Y-100337857D01*
X85400952Y-100385476D01*
X85448571Y-100433095D01*
X85496190Y-100528333D01*
X85496190Y-100909286D01*
X85972381Y-99385476D02*
X85972381Y-99956905D01*
X85972381Y-99671191D02*
X84972381Y-99671191D01*
X85115238Y-99766429D01*
X85210476Y-99861667D01*
X85258095Y-99956905D01*
X85972381Y-98433095D02*
X85972381Y-99004524D01*
X85972381Y-98718810D02*
X84972381Y-98718810D01*
X85115238Y-98814048D01*
X85210476Y-98909286D01*
X85258095Y-99004524D01*
X78127381Y-100337857D02*
X77651190Y-100671191D01*
X78127381Y-100909286D02*
X77127381Y-100909286D01*
X77127381Y-100528333D01*
X77175000Y-100433095D01*
X77222619Y-100385476D01*
X77317857Y-100337857D01*
X77460714Y-100337857D01*
X77555952Y-100385476D01*
X77603571Y-100433095D01*
X77651190Y-100528333D01*
X77651190Y-100909286D01*
X78127381Y-99385476D02*
X78127381Y-99956905D01*
X78127381Y-99671191D02*
X77127381Y-99671191D01*
X77270238Y-99766429D01*
X77365476Y-99861667D01*
X77413095Y-99956905D01*
X77222619Y-99004524D02*
X77175000Y-98956905D01*
X77127381Y-98861667D01*
X77127381Y-98623571D01*
X77175000Y-98528333D01*
X77222619Y-98480714D01*
X77317857Y-98433095D01*
X77413095Y-98433095D01*
X77555952Y-98480714D01*
X78127381Y-99052143D01*
X78127381Y-98433095D01*
M02*
