G04 #@! TF.FileFunction,Copper,L2,Bot,Signal*
%FSLAX46Y46*%
G04 Gerber Fmt 4.6, Leading zero omitted, Abs format (unit mm)*
G04 Created by KiCad (PCBNEW 4.0.7) date 04/10/18 20:33:08*
%MOMM*%
%LPD*%
G01*
G04 APERTURE LIST*
%ADD10C,0.100000*%
%ADD11C,1.670000*%
%ADD12R,1.600000X1.600000*%
%ADD13O,1.600000X1.600000*%
%ADD14R,1.300000X1.500000*%
%ADD15C,2.800000*%
%ADD16C,1.780000*%
%ADD17C,2.700000*%
%ADD18C,6.400000*%
%ADD19R,0.800000X1.100000*%
%ADD20R,1.000000X1.100000*%
%ADD21C,0.600000*%
%ADD22C,0.250000*%
%ADD23C,0.254000*%
G04 APERTURE END LIST*
D10*
D11*
X125730000Y-53213000D03*
X123190000Y-53213000D03*
D12*
X89217500Y-93154500D03*
D13*
X122237500Y-77914500D03*
X91757500Y-93154500D03*
X119697500Y-77914500D03*
X94297500Y-93154500D03*
X117157500Y-77914500D03*
X96837500Y-93154500D03*
X114617500Y-77914500D03*
X99377500Y-93154500D03*
X112077500Y-77914500D03*
X101917500Y-93154500D03*
X109537500Y-77914500D03*
X104457500Y-93154500D03*
X106997500Y-77914500D03*
X106997500Y-93154500D03*
X104457500Y-77914500D03*
X109537500Y-93154500D03*
X101917500Y-77914500D03*
X112077500Y-93154500D03*
X99377500Y-77914500D03*
X114617500Y-93154500D03*
X96837500Y-77914500D03*
X117157500Y-93154500D03*
X94297500Y-77914500D03*
X119697500Y-93154500D03*
X91757500Y-77914500D03*
X122237500Y-93154500D03*
X89217500Y-77914500D03*
X124777500Y-93154500D03*
X124777500Y-77914500D03*
D11*
X135255000Y-53213000D03*
X132715000Y-53213000D03*
X134366000Y-76454000D03*
X134366000Y-73914000D03*
X134366000Y-69342000D03*
X134366000Y-66802000D03*
X134366000Y-62230000D03*
X134366000Y-59690000D03*
D14*
X114300000Y-87710000D03*
X114300000Y-85010000D03*
D15*
X104775000Y-140716000D03*
X84455000Y-140716000D03*
D16*
X104775000Y-111252000D03*
X102235000Y-111252000D03*
X99695000Y-111252000D03*
X97155000Y-111252000D03*
X94615000Y-111252000D03*
X92075000Y-111252000D03*
X89535000Y-111252000D03*
X86995000Y-111252000D03*
X84455000Y-111252000D03*
X133350000Y-112014000D03*
X130810000Y-112014000D03*
X125730000Y-112014000D03*
X128270000Y-112014000D03*
X123190000Y-112014000D03*
X120650000Y-112014000D03*
X118110000Y-112014000D03*
X115570000Y-112014000D03*
D17*
X114300000Y-139700000D03*
X134620000Y-139700000D03*
X134620000Y-119380000D03*
X114300000Y-119380000D03*
D18*
X117000000Y-52000000D03*
X98000000Y-52000000D03*
X80000000Y-147000000D03*
X135000000Y-147000000D03*
D19*
X118195000Y-84585000D03*
X119295000Y-84585000D03*
D20*
X118745000Y-88135000D03*
D21*
X108585000Y-102870000D03*
X94615000Y-102870000D03*
X116840000Y-81915000D03*
X81915000Y-96520000D03*
X128270000Y-61595000D03*
X125730000Y-61595000D03*
X121920000Y-59944000D03*
X97155000Y-60960000D03*
X83185000Y-85725000D03*
X81280000Y-73660000D03*
X97155000Y-64770000D03*
X111125000Y-60960000D03*
X118745000Y-96520000D03*
X127635000Y-97155000D03*
X120015000Y-107950000D03*
X111125000Y-109220000D03*
X133985000Y-106680000D03*
X133965000Y-102850000D03*
X125095000Y-102870000D03*
X80645000Y-59055000D03*
X99060000Y-60960000D03*
X102616000Y-68072000D03*
X127635000Y-74930000D03*
X120650000Y-104140000D03*
X97155000Y-69215000D03*
X94615000Y-74930000D03*
X88265000Y-71120000D03*
X80645000Y-78105000D03*
X81280000Y-74930000D03*
X88265000Y-59055000D03*
X113030000Y-70485000D03*
X119380000Y-66040000D03*
X118110000Y-66040000D03*
X111760000Y-63500000D03*
X76835000Y-58420000D03*
X76835000Y-54610000D03*
X91440000Y-53340000D03*
X116332000Y-74168000D03*
X136525000Y-59055000D03*
X102235000Y-74295000D03*
X102235000Y-66040000D03*
X126365000Y-83185000D03*
X119380000Y-90170000D03*
X129540000Y-87630000D03*
X131381500Y-58356500D03*
X91440000Y-57150000D03*
X130175000Y-102870000D03*
X125095000Y-99060000D03*
X123825000Y-59690000D03*
X123190000Y-57785000D03*
X82550000Y-64770000D03*
X90170000Y-62992000D03*
X89154000Y-67310000D03*
X85090000Y-62865000D03*
X106045000Y-67310000D03*
X113665000Y-66675000D03*
X105410000Y-106045000D03*
X128270000Y-104695000D03*
X137160000Y-102870000D03*
X106045000Y-97155000D03*
X119695000Y-96200000D03*
X102870000Y-100330000D03*
X107315000Y-95250000D03*
X105410000Y-107315000D03*
X76835000Y-81915000D03*
X77470000Y-67310000D03*
X85725000Y-57785000D03*
X77216000Y-83058000D03*
X88138000Y-68072000D03*
X80645000Y-66040000D03*
X127000000Y-109220000D03*
X79375000Y-108585000D03*
X83185000Y-76835000D03*
X79375000Y-103505000D03*
X118110000Y-102235000D03*
X79375000Y-72390000D03*
X86995000Y-95885000D03*
X86995000Y-66040000D03*
X85090000Y-67310000D03*
X104775000Y-69215000D03*
X116332000Y-59182000D03*
X102616000Y-59690000D03*
X92710000Y-71120000D03*
X82550000Y-90805000D03*
X83820000Y-95885000D03*
X77470000Y-98425000D03*
X79375000Y-84455000D03*
D22*
X104140000Y-102870000D02*
X108585000Y-102870000D01*
X101600000Y-102870000D02*
X104140000Y-102870000D01*
X101600000Y-102870000D02*
X94615000Y-102870000D01*
X118195000Y-84585000D02*
X116970000Y-84585000D01*
X116970000Y-84585000D02*
X116205000Y-83820000D01*
X114300000Y-87710000D02*
X115490000Y-87710000D01*
X116205000Y-82550000D02*
X116840000Y-81915000D01*
X116205000Y-86995000D02*
X116205000Y-83820000D01*
X116205000Y-83820000D02*
X116205000Y-82550000D01*
X115490000Y-87710000D02*
X116205000Y-86995000D01*
X133965000Y-102850000D02*
X133985000Y-102870000D01*
X114744500Y-78041500D02*
X114617500Y-77914500D01*
X128270000Y-80010000D02*
X133985000Y-80010000D01*
X135890000Y-68326000D02*
X134366000Y-66802000D01*
X135890000Y-78105000D02*
X135890000Y-68326000D01*
X133985000Y-80010000D02*
X135890000Y-78105000D01*
X112077500Y-77914500D02*
X112077500Y-78680498D01*
X112077500Y-78680498D02*
X113407002Y-80010000D01*
X113407002Y-80010000D02*
X128270000Y-80010000D01*
X112077500Y-77914500D02*
X112077500Y-78041500D01*
X134366000Y-59690000D02*
X131826000Y-62230000D01*
X131826000Y-72136000D02*
X131826000Y-62230000D01*
X129794000Y-74168000D02*
X131826000Y-72136000D01*
X129794000Y-74168000D02*
X116332000Y-74168000D01*
X125730000Y-81280000D02*
X135890000Y-81280000D01*
X136525000Y-80645000D02*
X136525000Y-59055000D01*
X135890000Y-81280000D02*
X136525000Y-80645000D01*
X106997500Y-77914500D02*
X106997500Y-77152500D01*
X102235000Y-74295000D02*
X104140000Y-76200000D01*
X106045000Y-76200000D02*
X106997500Y-77152500D01*
X104140000Y-76200000D02*
X106045000Y-76200000D01*
X106997500Y-77152500D02*
X106997500Y-77914500D01*
X106997500Y-79692500D02*
X106997500Y-77914500D01*
X107950000Y-80645000D02*
X106997500Y-79692500D01*
X125095000Y-80645000D02*
X107950000Y-80645000D01*
X125730000Y-81280000D02*
X125095000Y-80645000D01*
X102235000Y-74295000D02*
X102870000Y-74930000D01*
X126365000Y-83185000D02*
X124460000Y-81280000D01*
X107950000Y-81280000D02*
X104584500Y-77914500D01*
X124460000Y-81280000D02*
X107950000Y-81280000D01*
X104584500Y-77914500D02*
X104457500Y-77914500D01*
X104457500Y-77914500D02*
X104457500Y-77533500D01*
X104457500Y-77533500D02*
X101600000Y-74676000D01*
X101600000Y-66675000D02*
X102235000Y-66040000D01*
X101600000Y-74676000D02*
X101600000Y-66675000D01*
X118745000Y-88135000D02*
X118745000Y-89535000D01*
X118745000Y-89535000D02*
X119380000Y-90170000D01*
X118595000Y-87710000D02*
X118745000Y-87860000D01*
X118110000Y-112014000D02*
X118110000Y-111760000D01*
X118110000Y-111760000D02*
X119380000Y-110490000D01*
X119380000Y-110490000D02*
X121920000Y-110490000D01*
X121920000Y-110490000D02*
X122555000Y-109855000D01*
X122555000Y-109855000D02*
X122555000Y-107315000D01*
X122555000Y-107315000D02*
X122555000Y-96012000D01*
X122555000Y-96012000D02*
X119697500Y-93154500D01*
X122237500Y-89217500D02*
X122237500Y-93154500D01*
X127000000Y-87630000D02*
X123825000Y-87630000D01*
X123825000Y-87630000D02*
X122237500Y-89217500D01*
X129540000Y-87630000D02*
X127000000Y-87630000D01*
X95885000Y-59055000D02*
X93980000Y-57150000D01*
X102870000Y-58420000D02*
X113030000Y-58420000D01*
X113030000Y-58420000D02*
X125730000Y-58420000D01*
X102235000Y-59055000D02*
X102870000Y-58420000D01*
X95885000Y-59055000D02*
X102235000Y-59055000D01*
X131381500Y-58356500D02*
X131318000Y-58420000D01*
X125730000Y-58420000D02*
X131318000Y-58420000D01*
X93980000Y-57150000D02*
X91440000Y-57150000D01*
X90805000Y-57785000D02*
X91440000Y-57150000D01*
X89217500Y-77914500D02*
X89217500Y-76517500D01*
X89217500Y-76517500D02*
X90805000Y-74930000D01*
X90805000Y-74930000D02*
X90805000Y-57785000D01*
X123190000Y-112014000D02*
X123190000Y-94742000D01*
X123190000Y-94742000D02*
X124777500Y-93154500D01*
X125730000Y-112014000D02*
X125730000Y-111125000D01*
X125730000Y-111125000D02*
X123825000Y-109220000D01*
X130175000Y-104775000D02*
X130175000Y-102870000D01*
X123825000Y-109220000D02*
X123825000Y-107315000D01*
X123825000Y-107315000D02*
X125095000Y-106045000D01*
X125095000Y-106045000D02*
X128905000Y-106045000D01*
X128905000Y-106045000D02*
X130175000Y-104775000D01*
X125730000Y-112014000D02*
X125730000Y-111760000D01*
X123825000Y-59690000D02*
X132080000Y-59690000D01*
X135255000Y-57785000D02*
X136525000Y-57785000D01*
X137160000Y-83820000D02*
X135890000Y-85090000D01*
X137160000Y-58420000D02*
X137160000Y-83820000D01*
X136525000Y-57785000D02*
X137160000Y-58420000D01*
X132715000Y-88265000D02*
X132715000Y-95250000D01*
X132080000Y-59690000D02*
X133985000Y-57785000D01*
X133985000Y-57785000D02*
X135255000Y-57785000D01*
X135890000Y-85090000D02*
X132715000Y-88265000D01*
X132715000Y-95250000D02*
X128905000Y-99060000D01*
X128905000Y-99060000D02*
X125095000Y-99060000D01*
X102743000Y-57785000D02*
X123190000Y-57785000D01*
X90170000Y-62992000D02*
X90170000Y-57150000D01*
X90170000Y-57150000D02*
X90932000Y-56388000D01*
X90932000Y-56388000D02*
X94234000Y-56388000D01*
X94234000Y-56388000D02*
X96012000Y-58166000D01*
X96012000Y-58166000D02*
X102362000Y-58166000D01*
X102362000Y-58166000D02*
X102743000Y-57785000D01*
X90170000Y-62992000D02*
X90170000Y-66294000D01*
X89154000Y-67310000D02*
X90170000Y-66294000D01*
X82550000Y-64135000D02*
X82550000Y-64770000D01*
X83820000Y-62865000D02*
X82550000Y-64135000D01*
X85090000Y-62865000D02*
X83820000Y-62865000D01*
X106045000Y-67310000D02*
X106680000Y-66675000D01*
X106680000Y-66675000D02*
X113665000Y-66675000D01*
X105410000Y-106045000D02*
X89535000Y-106045000D01*
X89535000Y-106045000D02*
X84455000Y-111125000D01*
X84455000Y-111125000D02*
X84455000Y-111252000D01*
X129540000Y-100965000D02*
X128825000Y-101680000D01*
X128825000Y-104140000D02*
X128825000Y-101680000D01*
X128825000Y-104140000D02*
X128270000Y-104695000D01*
X137160000Y-101600000D02*
X137160000Y-102870000D01*
X136525000Y-100965000D02*
X137160000Y-101600000D01*
X129540000Y-100965000D02*
X136525000Y-100965000D01*
X119380000Y-95885000D02*
X119695000Y-96200000D01*
X117475000Y-95250000D02*
X118110000Y-95250000D01*
X102870000Y-100330000D02*
X106045000Y-97155000D01*
X119380000Y-95885000D02*
X118745000Y-95250000D01*
X118745000Y-95250000D02*
X118110000Y-95250000D01*
X117475000Y-95250000D02*
X107315000Y-95250000D01*
X105410000Y-107315000D02*
X104775000Y-107950000D01*
X104775000Y-107950000D02*
X97917000Y-107950000D01*
X97917000Y-107950000D02*
X94615000Y-111252000D01*
X76835000Y-81280000D02*
X76835000Y-67945000D01*
X76835000Y-81915000D02*
X76835000Y-81280000D01*
X77470000Y-67310000D02*
X76835000Y-67945000D01*
X77470000Y-65405000D02*
X78740000Y-64135000D01*
X78740000Y-64135000D02*
X78740000Y-63500000D01*
X78740000Y-60960000D02*
X78740000Y-63500000D01*
X78740000Y-59055000D02*
X80010000Y-57785000D01*
X80010000Y-57785000D02*
X85725000Y-57785000D01*
X78740000Y-60960000D02*
X78740000Y-59055000D01*
X77470000Y-65405000D02*
X76835000Y-66040000D01*
X76835000Y-66675000D02*
X76835000Y-67945000D01*
X76835000Y-66675000D02*
X76835000Y-66040000D01*
X77470000Y-82804000D02*
X77470000Y-81915000D01*
X77216000Y-83058000D02*
X77470000Y-82804000D01*
X77470000Y-69215000D02*
X77470000Y-81915000D01*
X77470000Y-68580000D02*
X78105000Y-67945000D01*
X78105000Y-67945000D02*
X78105000Y-66675000D01*
X78105000Y-66675000D02*
X79375000Y-65405000D01*
X79375000Y-65405000D02*
X80010000Y-65405000D01*
X80645000Y-66040000D02*
X80010000Y-65405000D01*
X77470000Y-69215000D02*
X77470000Y-68580000D01*
X82550000Y-66040000D02*
X85090000Y-66040000D01*
X88138000Y-65913000D02*
X88138000Y-68072000D01*
X87630000Y-65405000D02*
X88138000Y-65913000D01*
X85725000Y-65405000D02*
X87630000Y-65405000D01*
X85090000Y-66040000D02*
X85725000Y-65405000D01*
X82550000Y-66040000D02*
X80645000Y-66040000D01*
X80010000Y-109220000D02*
X79375000Y-108585000D01*
X83820000Y-113030000D02*
X113665000Y-113030000D01*
X113665000Y-113030000D02*
X114300000Y-113665000D01*
X114300000Y-113665000D02*
X133985000Y-113665000D01*
X80010000Y-109220000D02*
X83820000Y-113030000D01*
X129540000Y-109220000D02*
X127000000Y-109220000D01*
X130175000Y-109855000D02*
X129540000Y-109220000D01*
X133985000Y-109855000D02*
X130175000Y-109855000D01*
X133985000Y-113665000D02*
X135255000Y-112395000D01*
X135255000Y-112395000D02*
X135255000Y-111125000D01*
X135255000Y-111125000D02*
X133985000Y-109855000D01*
X82550000Y-80645000D02*
X83185000Y-80010000D01*
X81280000Y-80645000D02*
X81915000Y-80645000D01*
X83185000Y-79375000D02*
X83185000Y-80010000D01*
X83185000Y-76835000D02*
X83185000Y-79375000D01*
X82550000Y-80645000D02*
X81915000Y-80645000D01*
X80010000Y-103505000D02*
X80645000Y-102870000D01*
X80645000Y-102870000D02*
X80645000Y-81280000D01*
X80645000Y-81280000D02*
X81280000Y-80645000D01*
X80010000Y-103505000D02*
X79375000Y-103505000D01*
X86995000Y-95885000D02*
X87630000Y-95885000D01*
X110490000Y-95885000D02*
X87630000Y-95885000D01*
X117475000Y-102235000D02*
X118110000Y-102235000D01*
X116840000Y-102235000D02*
X117475000Y-102235000D01*
X111125000Y-96520000D02*
X116840000Y-102235000D01*
X111125000Y-96520000D02*
X110490000Y-95885000D01*
X84455000Y-88900000D02*
X84455000Y-95250000D01*
X79375000Y-72390000D02*
X81915000Y-72390000D01*
X84455000Y-74930000D02*
X84455000Y-88900000D01*
X81915000Y-72390000D02*
X84455000Y-74930000D01*
X85090000Y-95885000D02*
X86995000Y-95885000D01*
X84455000Y-95250000D02*
X85090000Y-95885000D01*
X86360000Y-66040000D02*
X85725000Y-66040000D01*
X86360000Y-66040000D02*
X86995000Y-66040000D01*
X85090000Y-66675000D02*
X85090000Y-67310000D01*
X85725000Y-66040000D02*
X85090000Y-66675000D01*
X105918000Y-59182000D02*
X104775000Y-60325000D01*
X116332000Y-59182000D02*
X105918000Y-59182000D01*
X104775000Y-60325000D02*
X104775000Y-69215000D01*
X102616000Y-59690000D02*
X94234000Y-59690000D01*
X92710000Y-61214000D02*
X92710000Y-67564000D01*
X94234000Y-59690000D02*
X92710000Y-61214000D01*
X92710000Y-71120000D02*
X92710000Y-67564000D01*
X82550000Y-93980000D02*
X82550000Y-90805000D01*
X83820000Y-95885000D02*
X82550000Y-93980000D01*
X76835000Y-85725000D02*
X76835000Y-85090000D01*
X76835000Y-97155000D02*
X76835000Y-97790000D01*
X76835000Y-97790000D02*
X77470000Y-98425000D01*
X76835000Y-85725000D02*
X76835000Y-97155000D01*
X77470000Y-84455000D02*
X79375000Y-84455000D01*
X76835000Y-85090000D02*
X77470000Y-84455000D01*
D23*
G36*
X94165667Y-51233825D02*
X94164336Y-52759482D01*
X94746950Y-54169515D01*
X95824811Y-55249259D01*
X97233825Y-55834333D01*
X98759482Y-55835664D01*
X100169515Y-55253050D01*
X101249259Y-54175189D01*
X101834333Y-52766175D01*
X101835664Y-51240518D01*
X101706121Y-50927000D01*
X113293072Y-50927000D01*
X113165667Y-51233825D01*
X113164336Y-52759482D01*
X113746950Y-54169515D01*
X114824811Y-55249259D01*
X116233825Y-55834333D01*
X117759482Y-55835664D01*
X119169515Y-55253050D01*
X120178229Y-54246095D01*
X122336510Y-54246095D01*
X122414942Y-54495842D01*
X122964861Y-54694793D01*
X123549057Y-54668156D01*
X123965058Y-54495842D01*
X124043490Y-54246095D01*
X123190000Y-53392605D01*
X122336510Y-54246095D01*
X120178229Y-54246095D01*
X120249259Y-54175189D01*
X120742280Y-52987861D01*
X121708207Y-52987861D01*
X121734844Y-53572057D01*
X121907158Y-53988058D01*
X122156905Y-54066490D01*
X123010395Y-53213000D01*
X123369605Y-53213000D01*
X124223095Y-54066490D01*
X124461214Y-53991710D01*
X124483068Y-54044600D01*
X124896225Y-54458479D01*
X125436316Y-54682744D01*
X126021118Y-54683255D01*
X126561600Y-54459932D01*
X126975479Y-54046775D01*
X127199744Y-53506684D01*
X127199746Y-53504118D01*
X131244745Y-53504118D01*
X131468068Y-54044600D01*
X131881225Y-54458479D01*
X132421316Y-54682744D01*
X133006118Y-54683255D01*
X133546600Y-54459932D01*
X133960479Y-54046775D01*
X133984783Y-53988245D01*
X134008068Y-54044600D01*
X134421225Y-54458479D01*
X134961316Y-54682744D01*
X135546118Y-54683255D01*
X136086600Y-54459932D01*
X136500479Y-54046775D01*
X136724744Y-53506684D01*
X136725255Y-52921882D01*
X136501932Y-52381400D01*
X136088775Y-51967521D01*
X135548684Y-51743256D01*
X134963882Y-51742745D01*
X134423400Y-51966068D01*
X134009521Y-52379225D01*
X133985217Y-52437755D01*
X133961932Y-52381400D01*
X133548775Y-51967521D01*
X133008684Y-51743256D01*
X132423882Y-51742745D01*
X131883400Y-51966068D01*
X131469521Y-52379225D01*
X131245256Y-52919316D01*
X131244745Y-53504118D01*
X127199746Y-53504118D01*
X127200255Y-52921882D01*
X126976932Y-52381400D01*
X126563775Y-51967521D01*
X126023684Y-51743256D01*
X125438882Y-51742745D01*
X124898400Y-51966068D01*
X124484521Y-52379225D01*
X124461605Y-52434413D01*
X124223095Y-52359510D01*
X123369605Y-53213000D01*
X123010395Y-53213000D01*
X122156905Y-52359510D01*
X121907158Y-52437942D01*
X121708207Y-52987861D01*
X120742280Y-52987861D01*
X120834333Y-52766175D01*
X120834844Y-52179905D01*
X122336510Y-52179905D01*
X123190000Y-53033395D01*
X124043490Y-52179905D01*
X123965058Y-51930158D01*
X123415139Y-51731207D01*
X122830943Y-51757844D01*
X122414942Y-51930158D01*
X122336510Y-52179905D01*
X120834844Y-52179905D01*
X120835664Y-51240518D01*
X120706121Y-50927000D01*
X138303000Y-50927000D01*
X138303000Y-116078000D01*
X76327000Y-116078000D01*
X76327000Y-98356802D01*
X76534878Y-98564680D01*
X76534838Y-98610167D01*
X76676883Y-98953943D01*
X76939673Y-99217192D01*
X77283201Y-99359838D01*
X77655167Y-99360162D01*
X77998943Y-99218117D01*
X78262192Y-98955327D01*
X78404838Y-98611799D01*
X78405162Y-98239833D01*
X78263117Y-97896057D01*
X78000327Y-97632808D01*
X77656799Y-97490162D01*
X77609923Y-97490121D01*
X77595000Y-97475198D01*
X77595000Y-85404802D01*
X77784802Y-85215000D01*
X78812537Y-85215000D01*
X78844673Y-85247192D01*
X79188201Y-85389838D01*
X79560167Y-85390162D01*
X79885000Y-85255944D01*
X79885000Y-102555198D01*
X79779598Y-102660600D01*
X79561799Y-102570162D01*
X79189833Y-102569838D01*
X78846057Y-102711883D01*
X78582808Y-102974673D01*
X78440162Y-103318201D01*
X78439838Y-103690167D01*
X78581883Y-104033943D01*
X78844673Y-104297192D01*
X79188201Y-104439838D01*
X79560167Y-104440162D01*
X79903943Y-104298117D01*
X79937118Y-104265000D01*
X80010000Y-104265000D01*
X80300839Y-104207148D01*
X80547401Y-104042401D01*
X81182401Y-103407401D01*
X81347148Y-103160839D01*
X81368167Y-103055167D01*
X93679838Y-103055167D01*
X93821883Y-103398943D01*
X94084673Y-103662192D01*
X94428201Y-103804838D01*
X94800167Y-103805162D01*
X95143943Y-103663117D01*
X95177118Y-103630000D01*
X108022537Y-103630000D01*
X108054673Y-103662192D01*
X108398201Y-103804838D01*
X108770167Y-103805162D01*
X109113943Y-103663117D01*
X109377192Y-103400327D01*
X109519838Y-103056799D01*
X109520162Y-102684833D01*
X109378117Y-102341057D01*
X109115327Y-102077808D01*
X108771799Y-101935162D01*
X108399833Y-101934838D01*
X108056057Y-102076883D01*
X108022882Y-102110000D01*
X95177463Y-102110000D01*
X95145327Y-102077808D01*
X94801799Y-101935162D01*
X94429833Y-101934838D01*
X94086057Y-102076883D01*
X93822808Y-102339673D01*
X93680162Y-102683201D01*
X93679838Y-103055167D01*
X81368167Y-103055167D01*
X81405000Y-102870000D01*
X81405000Y-81594802D01*
X81594802Y-81405000D01*
X82550000Y-81405000D01*
X82840839Y-81347148D01*
X83087401Y-81182401D01*
X83695000Y-80574802D01*
X83695000Y-94327391D01*
X83310000Y-93749891D01*
X83310000Y-91367463D01*
X83342192Y-91335327D01*
X83484838Y-90991799D01*
X83485162Y-90619833D01*
X83343117Y-90276057D01*
X83080327Y-90012808D01*
X82736799Y-89870162D01*
X82364833Y-89869838D01*
X82021057Y-90011883D01*
X81757808Y-90274673D01*
X81615162Y-90618201D01*
X81614838Y-90990167D01*
X81756883Y-91333943D01*
X81790000Y-91367118D01*
X81790000Y-93980000D01*
X81804527Y-94053031D01*
X81804449Y-94127489D01*
X81833172Y-94197038D01*
X81847852Y-94270839D01*
X81889219Y-94332749D01*
X81917642Y-94401572D01*
X82885027Y-95852650D01*
X82884838Y-96070167D01*
X83026883Y-96413943D01*
X83289673Y-96677192D01*
X83633201Y-96819838D01*
X84005167Y-96820162D01*
X84348943Y-96678117D01*
X84584052Y-96443417D01*
X84799161Y-96587148D01*
X85090000Y-96645000D01*
X86432537Y-96645000D01*
X86464673Y-96677192D01*
X86808201Y-96819838D01*
X87180167Y-96820162D01*
X87523943Y-96678117D01*
X87557118Y-96645000D01*
X105244367Y-96645000D01*
X105110162Y-96968201D01*
X105110121Y-97015077D01*
X102730320Y-99394878D01*
X102684833Y-99394838D01*
X102341057Y-99536883D01*
X102077808Y-99799673D01*
X101935162Y-100143201D01*
X101934838Y-100515167D01*
X102076883Y-100858943D01*
X102339673Y-101122192D01*
X102683201Y-101264838D01*
X103055167Y-101265162D01*
X103398943Y-101123117D01*
X103662192Y-100860327D01*
X103804838Y-100516799D01*
X103804879Y-100469923D01*
X106184680Y-98090122D01*
X106230167Y-98090162D01*
X106573943Y-97948117D01*
X106837192Y-97685327D01*
X106979838Y-97341799D01*
X106980162Y-96969833D01*
X106845944Y-96645000D01*
X110175198Y-96645000D01*
X110587599Y-97057401D01*
X116302599Y-102772402D01*
X116549161Y-102937148D01*
X116840000Y-102995000D01*
X117547537Y-102995000D01*
X117579673Y-103027192D01*
X117923201Y-103169838D01*
X118295167Y-103170162D01*
X118638943Y-103028117D01*
X118902192Y-102765327D01*
X119044838Y-102421799D01*
X119045162Y-102049833D01*
X118903117Y-101706057D01*
X118640327Y-101442808D01*
X118296799Y-101300162D01*
X117924833Y-101299838D01*
X117581057Y-101441883D01*
X117547882Y-101475000D01*
X117154803Y-101475000D01*
X111689802Y-96010000D01*
X118430198Y-96010000D01*
X118759878Y-96339680D01*
X118759838Y-96385167D01*
X118901883Y-96728943D01*
X119164673Y-96992192D01*
X119508201Y-97134838D01*
X119880167Y-97135162D01*
X120223943Y-96993117D01*
X120487192Y-96730327D01*
X120629838Y-96386799D01*
X120630162Y-96014833D01*
X120488117Y-95671057D01*
X120225327Y-95407808D01*
X119881799Y-95265162D01*
X119834923Y-95265121D01*
X119282401Y-94712599D01*
X119035839Y-94547852D01*
X118745000Y-94490000D01*
X117734159Y-94490000D01*
X118172198Y-94197311D01*
X118427500Y-93815225D01*
X118682802Y-94197311D01*
X119148349Y-94508380D01*
X119697500Y-94617613D01*
X120021386Y-94553188D01*
X121795000Y-96326802D01*
X121795000Y-109540198D01*
X121605198Y-109730000D01*
X119380000Y-109730000D01*
X119089160Y-109787852D01*
X118842599Y-109952599D01*
X118306028Y-110489170D01*
X117807989Y-110488735D01*
X117247285Y-110720414D01*
X116839665Y-111127323D01*
X116434971Y-110721921D01*
X115874672Y-110489265D01*
X115267989Y-110488735D01*
X114707285Y-110720414D01*
X114277921Y-111149029D01*
X114045265Y-111709328D01*
X114044735Y-112316011D01*
X114085397Y-112414419D01*
X113955839Y-112327852D01*
X113665000Y-112270000D01*
X105913783Y-112270000D01*
X106067079Y-112116971D01*
X106299735Y-111556672D01*
X106300265Y-110949989D01*
X106068586Y-110389285D01*
X105639971Y-109959921D01*
X105079672Y-109727265D01*
X104472989Y-109726735D01*
X103912285Y-109958414D01*
X103504665Y-110365323D01*
X103099971Y-109959921D01*
X102539672Y-109727265D01*
X101932989Y-109726735D01*
X101372285Y-109958414D01*
X100942921Y-110387029D01*
X100931975Y-110413389D01*
X100767921Y-110358684D01*
X99874605Y-111252000D01*
X99888748Y-111266143D01*
X99709143Y-111445748D01*
X99695000Y-111431605D01*
X99680858Y-111445748D01*
X99501253Y-111266143D01*
X99515395Y-111252000D01*
X98622079Y-110358684D01*
X98458483Y-110413237D01*
X98448586Y-110389285D01*
X98238747Y-110179079D01*
X98801684Y-110179079D01*
X99695000Y-111072395D01*
X100588316Y-110179079D01*
X100503135Y-109923632D01*
X99933275Y-109715488D01*
X99327140Y-109741264D01*
X98886865Y-109923632D01*
X98801684Y-110179079D01*
X98238747Y-110179079D01*
X98019971Y-109959921D01*
X97459672Y-109727265D01*
X97214751Y-109727051D01*
X98231802Y-108710000D01*
X104775000Y-108710000D01*
X105065839Y-108652148D01*
X105312401Y-108487401D01*
X105549680Y-108250122D01*
X105595167Y-108250162D01*
X105938943Y-108108117D01*
X106202192Y-107845327D01*
X106344838Y-107501799D01*
X106345162Y-107129833D01*
X106203117Y-106786057D01*
X106097290Y-106680046D01*
X106202192Y-106575327D01*
X106344838Y-106231799D01*
X106345162Y-105859833D01*
X106203117Y-105516057D01*
X105940327Y-105252808D01*
X105596799Y-105110162D01*
X105224833Y-105109838D01*
X104881057Y-105251883D01*
X104847882Y-105285000D01*
X89535000Y-105285000D01*
X89244161Y-105342852D01*
X88997599Y-105507599D01*
X84772575Y-109732623D01*
X84759672Y-109727265D01*
X84152989Y-109726735D01*
X83592285Y-109958414D01*
X83162921Y-110387029D01*
X82930265Y-110947328D01*
X82930162Y-111065360D01*
X80310122Y-108445320D01*
X80310162Y-108399833D01*
X80168117Y-108056057D01*
X79905327Y-107792808D01*
X79561799Y-107650162D01*
X79189833Y-107649838D01*
X78846057Y-107791883D01*
X78582808Y-108054673D01*
X78440162Y-108398201D01*
X78439838Y-108770167D01*
X78581883Y-109113943D01*
X78844673Y-109377192D01*
X79188201Y-109519838D01*
X79235077Y-109519879D01*
X83282599Y-113567401D01*
X83529161Y-113732148D01*
X83820000Y-113790000D01*
X113350198Y-113790000D01*
X113762599Y-114202401D01*
X114009161Y-114367148D01*
X114300000Y-114425000D01*
X133985000Y-114425000D01*
X134275839Y-114367148D01*
X134522401Y-114202401D01*
X135792401Y-112932401D01*
X135957148Y-112685840D01*
X136015000Y-112395000D01*
X136015000Y-111125000D01*
X135957148Y-110834161D01*
X135957148Y-110834160D01*
X135792401Y-110587599D01*
X134522401Y-109317599D01*
X134275839Y-109152852D01*
X133985000Y-109095000D01*
X130489802Y-109095000D01*
X130077401Y-108682599D01*
X129830839Y-108517852D01*
X129540000Y-108460000D01*
X127562463Y-108460000D01*
X127530327Y-108427808D01*
X127186799Y-108285162D01*
X126814833Y-108284838D01*
X126471057Y-108426883D01*
X126207808Y-108689673D01*
X126065162Y-109033201D01*
X126064838Y-109405167D01*
X126206883Y-109748943D01*
X126469673Y-110012192D01*
X126813201Y-110154838D01*
X127185167Y-110155162D01*
X127528943Y-110013117D01*
X127562118Y-109980000D01*
X129225198Y-109980000D01*
X129637599Y-110392401D01*
X129884161Y-110557148D01*
X130175000Y-110615000D01*
X130202405Y-110615000D01*
X129947285Y-110720414D01*
X129517921Y-111149029D01*
X129506975Y-111175389D01*
X129342921Y-111120684D01*
X128449605Y-112014000D01*
X128463748Y-112028143D01*
X128284143Y-112207748D01*
X128270000Y-112193605D01*
X128255858Y-112207748D01*
X128076253Y-112028143D01*
X128090395Y-112014000D01*
X127197079Y-111120684D01*
X127033483Y-111175237D01*
X127023586Y-111151285D01*
X126813747Y-110941079D01*
X127376684Y-110941079D01*
X128270000Y-111834395D01*
X129163316Y-110941079D01*
X129078135Y-110685632D01*
X128508275Y-110477488D01*
X127902140Y-110503264D01*
X127461865Y-110685632D01*
X127376684Y-110941079D01*
X126813747Y-110941079D01*
X126594971Y-110721921D01*
X126264500Y-110584698D01*
X124585000Y-108905198D01*
X124585000Y-107629802D01*
X125409802Y-106805000D01*
X128905000Y-106805000D01*
X129195839Y-106747148D01*
X129442401Y-106582401D01*
X130712401Y-105312401D01*
X130877148Y-105065840D01*
X130935000Y-104775000D01*
X130935000Y-103432463D01*
X130967192Y-103400327D01*
X131109838Y-103056799D01*
X131110162Y-102684833D01*
X130968117Y-102341057D01*
X130705327Y-102077808D01*
X130361799Y-101935162D01*
X129989833Y-101934838D01*
X129646057Y-102076883D01*
X129585000Y-102137834D01*
X129585000Y-101994802D01*
X129854802Y-101725000D01*
X136210198Y-101725000D01*
X136400000Y-101914802D01*
X136400000Y-102307537D01*
X136367808Y-102339673D01*
X136225162Y-102683201D01*
X136224838Y-103055167D01*
X136366883Y-103398943D01*
X136629673Y-103662192D01*
X136973201Y-103804838D01*
X137345167Y-103805162D01*
X137688943Y-103663117D01*
X137952192Y-103400327D01*
X138094838Y-103056799D01*
X138095162Y-102684833D01*
X137953117Y-102341057D01*
X137920000Y-102307882D01*
X137920000Y-101600000D01*
X137862148Y-101309161D01*
X137697401Y-101062599D01*
X137062401Y-100427599D01*
X136815839Y-100262852D01*
X136525000Y-100205000D01*
X129540000Y-100205000D01*
X129249161Y-100262852D01*
X129002599Y-100427599D01*
X128287599Y-101142599D01*
X128122852Y-101389161D01*
X128065000Y-101680000D01*
X128065000Y-103768033D01*
X127741057Y-103901883D01*
X127477808Y-104164673D01*
X127335162Y-104508201D01*
X127334838Y-104880167D01*
X127476883Y-105223943D01*
X127537834Y-105285000D01*
X125095000Y-105285000D01*
X124804160Y-105342852D01*
X124557599Y-105507599D01*
X123950000Y-106115198D01*
X123950000Y-95056802D01*
X124453614Y-94553188D01*
X124777500Y-94617613D01*
X125326651Y-94508380D01*
X125792198Y-94197311D01*
X126103267Y-93731764D01*
X126212500Y-93182613D01*
X126212500Y-93126387D01*
X126103267Y-92577236D01*
X125792198Y-92111689D01*
X125326651Y-91800620D01*
X124777500Y-91691387D01*
X124228349Y-91800620D01*
X123762802Y-92111689D01*
X123507500Y-92493775D01*
X123252198Y-92111689D01*
X122997500Y-91941505D01*
X122997500Y-89532302D01*
X124139802Y-88390000D01*
X128977537Y-88390000D01*
X129009673Y-88422192D01*
X129353201Y-88564838D01*
X129725167Y-88565162D01*
X130068943Y-88423117D01*
X130332192Y-88160327D01*
X130474838Y-87816799D01*
X130475162Y-87444833D01*
X130333117Y-87101057D01*
X130070327Y-86837808D01*
X129726799Y-86695162D01*
X129354833Y-86694838D01*
X129011057Y-86836883D01*
X128977882Y-86870000D01*
X123825000Y-86870000D01*
X123534161Y-86927852D01*
X123287599Y-87092599D01*
X121700099Y-88680099D01*
X121535352Y-88926661D01*
X121477500Y-89217500D01*
X121477500Y-91941505D01*
X121222802Y-92111689D01*
X120967500Y-92493775D01*
X120712198Y-92111689D01*
X120246651Y-91800620D01*
X119697500Y-91691387D01*
X119148349Y-91800620D01*
X118682802Y-92111689D01*
X118427500Y-92493775D01*
X118172198Y-92111689D01*
X117706651Y-91800620D01*
X117157500Y-91691387D01*
X116608349Y-91800620D01*
X116142802Y-92111689D01*
X115887500Y-92493775D01*
X115632198Y-92111689D01*
X115166651Y-91800620D01*
X114617500Y-91691387D01*
X114068349Y-91800620D01*
X113602802Y-92111689D01*
X113347500Y-92493775D01*
X113092198Y-92111689D01*
X112626651Y-91800620D01*
X112077500Y-91691387D01*
X111528349Y-91800620D01*
X111062802Y-92111689D01*
X110807500Y-92493775D01*
X110552198Y-92111689D01*
X110086651Y-91800620D01*
X109537500Y-91691387D01*
X108988349Y-91800620D01*
X108522802Y-92111689D01*
X108267500Y-92493775D01*
X108012198Y-92111689D01*
X107546651Y-91800620D01*
X106997500Y-91691387D01*
X106448349Y-91800620D01*
X105982802Y-92111689D01*
X105727500Y-92493775D01*
X105472198Y-92111689D01*
X105006651Y-91800620D01*
X104457500Y-91691387D01*
X103908349Y-91800620D01*
X103442802Y-92111689D01*
X103187500Y-92493775D01*
X102932198Y-92111689D01*
X102466651Y-91800620D01*
X101917500Y-91691387D01*
X101368349Y-91800620D01*
X100902802Y-92111689D01*
X100647500Y-92493775D01*
X100392198Y-92111689D01*
X99926651Y-91800620D01*
X99377500Y-91691387D01*
X98828349Y-91800620D01*
X98362802Y-92111689D01*
X98092514Y-92516203D01*
X97989889Y-92299366D01*
X97574923Y-91923459D01*
X97186539Y-91762596D01*
X96964500Y-91884585D01*
X96964500Y-93027500D01*
X96984500Y-93027500D01*
X96984500Y-93281500D01*
X96964500Y-93281500D01*
X96964500Y-94424415D01*
X97186539Y-94546404D01*
X97574923Y-94385541D01*
X97989889Y-94009634D01*
X98092514Y-93792797D01*
X98362802Y-94197311D01*
X98828349Y-94508380D01*
X99377500Y-94617613D01*
X99926651Y-94508380D01*
X100392198Y-94197311D01*
X100647500Y-93815225D01*
X100902802Y-94197311D01*
X101368349Y-94508380D01*
X101917500Y-94617613D01*
X102466651Y-94508380D01*
X102932198Y-94197311D01*
X103187500Y-93815225D01*
X103442802Y-94197311D01*
X103908349Y-94508380D01*
X104457500Y-94617613D01*
X105006651Y-94508380D01*
X105472198Y-94197311D01*
X105727500Y-93815225D01*
X105982802Y-94197311D01*
X106448349Y-94508380D01*
X106686930Y-94555837D01*
X106522808Y-94719673D01*
X106380162Y-95063201D01*
X106380108Y-95125000D01*
X87557463Y-95125000D01*
X87525327Y-95092808D01*
X87181799Y-94950162D01*
X86809833Y-94949838D01*
X86466057Y-95091883D01*
X86432882Y-95125000D01*
X85404802Y-95125000D01*
X85215000Y-94935198D01*
X85215000Y-92354500D01*
X87770060Y-92354500D01*
X87770060Y-93954500D01*
X87814338Y-94189817D01*
X87953410Y-94405941D01*
X88165610Y-94550931D01*
X88417500Y-94601940D01*
X90017500Y-94601940D01*
X90252817Y-94557662D01*
X90468941Y-94418590D01*
X90613931Y-94206390D01*
X90645315Y-94051411D01*
X90742802Y-94197311D01*
X91208349Y-94508380D01*
X91757500Y-94617613D01*
X92306651Y-94508380D01*
X92772198Y-94197311D01*
X93027500Y-93815225D01*
X93282802Y-94197311D01*
X93748349Y-94508380D01*
X94297500Y-94617613D01*
X94846651Y-94508380D01*
X95312198Y-94197311D01*
X95582486Y-93792797D01*
X95685111Y-94009634D01*
X96100077Y-94385541D01*
X96488461Y-94546404D01*
X96710500Y-94424415D01*
X96710500Y-93281500D01*
X96690500Y-93281500D01*
X96690500Y-93027500D01*
X96710500Y-93027500D01*
X96710500Y-91884585D01*
X96488461Y-91762596D01*
X96100077Y-91923459D01*
X95685111Y-92299366D01*
X95582486Y-92516203D01*
X95312198Y-92111689D01*
X94846651Y-91800620D01*
X94297500Y-91691387D01*
X93748349Y-91800620D01*
X93282802Y-92111689D01*
X93027500Y-92493775D01*
X92772198Y-92111689D01*
X92306651Y-91800620D01*
X91757500Y-91691387D01*
X91208349Y-91800620D01*
X90742802Y-92111689D01*
X90646399Y-92255965D01*
X90620662Y-92119183D01*
X90481590Y-91903059D01*
X90269390Y-91758069D01*
X90017500Y-91707060D01*
X88417500Y-91707060D01*
X88182183Y-91751338D01*
X87966059Y-91890410D01*
X87821069Y-92102610D01*
X87770060Y-92354500D01*
X85215000Y-92354500D01*
X85215000Y-84133691D01*
X113015000Y-84133691D01*
X113015000Y-84724250D01*
X113173750Y-84883000D01*
X114173000Y-84883000D01*
X114173000Y-83783750D01*
X114014250Y-83625000D01*
X113523690Y-83625000D01*
X113290301Y-83721673D01*
X113111673Y-83900302D01*
X113015000Y-84133691D01*
X85215000Y-84133691D01*
X85215000Y-74930000D01*
X85157148Y-74639161D01*
X85157148Y-74639160D01*
X84992401Y-74392599D01*
X82452401Y-71852599D01*
X82205839Y-71687852D01*
X81915000Y-71630000D01*
X79937463Y-71630000D01*
X79905327Y-71597808D01*
X79561799Y-71455162D01*
X79189833Y-71454838D01*
X78846057Y-71596883D01*
X78582808Y-71859673D01*
X78440162Y-72203201D01*
X78439838Y-72575167D01*
X78581883Y-72918943D01*
X78844673Y-73182192D01*
X79188201Y-73324838D01*
X79560167Y-73325162D01*
X79903943Y-73183117D01*
X79937118Y-73150000D01*
X81600198Y-73150000D01*
X83695000Y-75244802D01*
X83695000Y-76034367D01*
X83371799Y-75900162D01*
X82999833Y-75899838D01*
X82656057Y-76041883D01*
X82392808Y-76304673D01*
X82250162Y-76648201D01*
X82249838Y-77020167D01*
X82391883Y-77363943D01*
X82425000Y-77397118D01*
X82425000Y-79695198D01*
X82235198Y-79885000D01*
X81280000Y-79885000D01*
X80989161Y-79942852D01*
X80742599Y-80107599D01*
X80107599Y-80742599D01*
X79942852Y-80989161D01*
X79885000Y-81280000D01*
X79885000Y-83654367D01*
X79561799Y-83520162D01*
X79189833Y-83519838D01*
X78846057Y-83661883D01*
X78812882Y-83695000D01*
X77901333Y-83695000D01*
X78008192Y-83588327D01*
X78150838Y-83244799D01*
X78150941Y-83126579D01*
X78172148Y-83094840D01*
X78230000Y-82804000D01*
X78230000Y-68894802D01*
X78642401Y-68482401D01*
X78807148Y-68235839D01*
X78865000Y-67945000D01*
X78865000Y-66989802D01*
X79689802Y-66165000D01*
X79695198Y-66165000D01*
X79709878Y-66179680D01*
X79709838Y-66225167D01*
X79851883Y-66568943D01*
X80114673Y-66832192D01*
X80458201Y-66974838D01*
X80830167Y-66975162D01*
X81173943Y-66833117D01*
X81207118Y-66800000D01*
X84289367Y-66800000D01*
X84155162Y-67123201D01*
X84154838Y-67495167D01*
X84296883Y-67838943D01*
X84559673Y-68102192D01*
X84903201Y-68244838D01*
X85275167Y-68245162D01*
X85618943Y-68103117D01*
X85882192Y-67840327D01*
X86024838Y-67496799D01*
X86025162Y-67124833D01*
X85934467Y-66905335D01*
X86039802Y-66800000D01*
X86432537Y-66800000D01*
X86464673Y-66832192D01*
X86808201Y-66974838D01*
X87180167Y-66975162D01*
X87378000Y-66893419D01*
X87378000Y-67509537D01*
X87345808Y-67541673D01*
X87203162Y-67885201D01*
X87202838Y-68257167D01*
X87344883Y-68600943D01*
X87607673Y-68864192D01*
X87951201Y-69006838D01*
X88323167Y-69007162D01*
X88666943Y-68865117D01*
X88930192Y-68602327D01*
X89072838Y-68258799D01*
X89072850Y-68244930D01*
X89339167Y-68245162D01*
X89682943Y-68103117D01*
X89946192Y-67840327D01*
X90045000Y-67602372D01*
X90045000Y-74615198D01*
X88680099Y-75980099D01*
X88515352Y-76226661D01*
X88457500Y-76517500D01*
X88457500Y-76701505D01*
X88202802Y-76871689D01*
X87891733Y-77337236D01*
X87782500Y-77886387D01*
X87782500Y-77942613D01*
X87891733Y-78491764D01*
X88202802Y-78957311D01*
X88668349Y-79268380D01*
X89217500Y-79377613D01*
X89766651Y-79268380D01*
X90232198Y-78957311D01*
X90502486Y-78552797D01*
X90605111Y-78769634D01*
X91020077Y-79145541D01*
X91408461Y-79306404D01*
X91630500Y-79184415D01*
X91630500Y-78041500D01*
X91610500Y-78041500D01*
X91610500Y-77787500D01*
X91630500Y-77787500D01*
X91630500Y-76644585D01*
X91408461Y-76522596D01*
X91020077Y-76683459D01*
X90605111Y-77059366D01*
X90502486Y-77276203D01*
X90232198Y-76871689D01*
X90055907Y-76753895D01*
X91342401Y-75467401D01*
X91507148Y-75220839D01*
X91565000Y-74930000D01*
X91565000Y-58099802D01*
X91579680Y-58085122D01*
X91625167Y-58085162D01*
X91968943Y-57943117D01*
X92002118Y-57910000D01*
X93665198Y-57910000D01*
X94685198Y-58930000D01*
X94234000Y-58930000D01*
X93991414Y-58978254D01*
X93943160Y-58987852D01*
X93696599Y-59152599D01*
X92172599Y-60676599D01*
X92007852Y-60923161D01*
X91950000Y-61214000D01*
X91950000Y-70557537D01*
X91917808Y-70589673D01*
X91775162Y-70933201D01*
X91774838Y-71305167D01*
X91916883Y-71648943D01*
X92179673Y-71912192D01*
X92523201Y-72054838D01*
X92895167Y-72055162D01*
X93238943Y-71913117D01*
X93502192Y-71650327D01*
X93644838Y-71306799D01*
X93645162Y-70934833D01*
X93503117Y-70591057D01*
X93470000Y-70557882D01*
X93470000Y-61528802D01*
X94548802Y-60450000D01*
X102053537Y-60450000D01*
X102085673Y-60482192D01*
X102429201Y-60624838D01*
X102801167Y-60625162D01*
X103144943Y-60483117D01*
X103408192Y-60220327D01*
X103550838Y-59876799D01*
X103551162Y-59504833D01*
X103416944Y-59180000D01*
X104845198Y-59180000D01*
X104237599Y-59787599D01*
X104072852Y-60034161D01*
X104015000Y-60325000D01*
X104015000Y-68652537D01*
X103982808Y-68684673D01*
X103840162Y-69028201D01*
X103839838Y-69400167D01*
X103981883Y-69743943D01*
X104244673Y-70007192D01*
X104588201Y-70149838D01*
X104960167Y-70150162D01*
X105303943Y-70008117D01*
X105567192Y-69745327D01*
X105709838Y-69401799D01*
X105710162Y-69029833D01*
X105568117Y-68686057D01*
X105535000Y-68652882D01*
X105535000Y-68110633D01*
X105858201Y-68244838D01*
X106230167Y-68245162D01*
X106573943Y-68103117D01*
X106837192Y-67840327D01*
X106979838Y-67496799D01*
X106979879Y-67449923D01*
X106994802Y-67435000D01*
X113102537Y-67435000D01*
X113134673Y-67467192D01*
X113478201Y-67609838D01*
X113850167Y-67610162D01*
X114193943Y-67468117D01*
X114457192Y-67205327D01*
X114599838Y-66861799D01*
X114600162Y-66489833D01*
X114458117Y-66146057D01*
X114195327Y-65882808D01*
X113851799Y-65740162D01*
X113479833Y-65739838D01*
X113136057Y-65881883D01*
X113102882Y-65915000D01*
X106680000Y-65915000D01*
X106389161Y-65972852D01*
X106142599Y-66137599D01*
X105905320Y-66374878D01*
X105859833Y-66374838D01*
X105535000Y-66509056D01*
X105535000Y-60639802D01*
X106232802Y-59942000D01*
X115769537Y-59942000D01*
X115801673Y-59974192D01*
X116145201Y-60116838D01*
X116517167Y-60117162D01*
X116860943Y-59975117D01*
X117124192Y-59712327D01*
X117266838Y-59368799D01*
X117267002Y-59180000D01*
X123024367Y-59180000D01*
X122890162Y-59503201D01*
X122889838Y-59875167D01*
X123031883Y-60218943D01*
X123294673Y-60482192D01*
X123638201Y-60624838D01*
X124010167Y-60625162D01*
X124353943Y-60483117D01*
X124387118Y-60450000D01*
X132080000Y-60450000D01*
X132370839Y-60392148D01*
X132617401Y-60227401D01*
X132895773Y-59949029D01*
X132895745Y-59981118D01*
X132926251Y-60054947D01*
X131288599Y-61692599D01*
X131123852Y-61939161D01*
X131066000Y-62230000D01*
X131066000Y-71821198D01*
X129479198Y-73408000D01*
X116894463Y-73408000D01*
X116862327Y-73375808D01*
X116518799Y-73233162D01*
X116146833Y-73232838D01*
X115803057Y-73374883D01*
X115539808Y-73637673D01*
X115397162Y-73981201D01*
X115396838Y-74353167D01*
X115538883Y-74696943D01*
X115801673Y-74960192D01*
X116145201Y-75102838D01*
X116517167Y-75103162D01*
X116860943Y-74961117D01*
X116894118Y-74928000D01*
X129794000Y-74928000D01*
X130084839Y-74870148D01*
X130331401Y-74705401D01*
X132363401Y-72673401D01*
X132528148Y-72426839D01*
X132586000Y-72136000D01*
X132586000Y-69116861D01*
X132884207Y-69116861D01*
X132910844Y-69701057D01*
X133083158Y-70117058D01*
X133332905Y-70195490D01*
X134186395Y-69342000D01*
X133332905Y-68488510D01*
X133083158Y-68566942D01*
X132884207Y-69116861D01*
X132586000Y-69116861D01*
X132586000Y-63263095D01*
X133512510Y-63263095D01*
X133590942Y-63512842D01*
X134140861Y-63711793D01*
X134725057Y-63685156D01*
X135141058Y-63512842D01*
X135219490Y-63263095D01*
X134366000Y-62409605D01*
X133512510Y-63263095D01*
X132586000Y-63263095D01*
X132586000Y-62544802D01*
X132894748Y-62236054D01*
X132910844Y-62589057D01*
X133083158Y-63005058D01*
X133332905Y-63083490D01*
X134186395Y-62230000D01*
X134172253Y-62215858D01*
X134351858Y-62036253D01*
X134366000Y-62050395D01*
X135219490Y-61196905D01*
X135144710Y-60958786D01*
X135197600Y-60936932D01*
X135611479Y-60523775D01*
X135765000Y-60154055D01*
X135765000Y-61735371D01*
X135648842Y-61454942D01*
X135399095Y-61376510D01*
X134545605Y-62230000D01*
X135399095Y-63083490D01*
X135648842Y-63005058D01*
X135765000Y-62683987D01*
X135765000Y-66338432D01*
X135612932Y-65970400D01*
X135199775Y-65556521D01*
X134659684Y-65332256D01*
X134074882Y-65331745D01*
X133534400Y-65555068D01*
X133120521Y-65968225D01*
X132896256Y-66508316D01*
X132895745Y-67093118D01*
X133119068Y-67633600D01*
X133532225Y-68047479D01*
X133587413Y-68070395D01*
X133512510Y-68308905D01*
X134366000Y-69162395D01*
X134380143Y-69148253D01*
X134559748Y-69327858D01*
X134545605Y-69342000D01*
X134559748Y-69356143D01*
X134380143Y-69535748D01*
X134366000Y-69521605D01*
X133512510Y-70375095D01*
X133590942Y-70624842D01*
X134140861Y-70823793D01*
X134725057Y-70797156D01*
X135130000Y-70629422D01*
X135130000Y-72639548D01*
X134659684Y-72444256D01*
X134074882Y-72443745D01*
X133534400Y-72667068D01*
X133120521Y-73080225D01*
X132896256Y-73620316D01*
X132895745Y-74205118D01*
X133119068Y-74745600D01*
X133532225Y-75159479D01*
X133587413Y-75182395D01*
X133512510Y-75420905D01*
X134366000Y-76274395D01*
X134380143Y-76260253D01*
X134559748Y-76439858D01*
X134545605Y-76454000D01*
X134559748Y-76468143D01*
X134380143Y-76647748D01*
X134366000Y-76633605D01*
X133512510Y-77487095D01*
X133590942Y-77736842D01*
X134140861Y-77935793D01*
X134725057Y-77909156D01*
X135130000Y-77741422D01*
X135130000Y-77790198D01*
X133670198Y-79250000D01*
X125354159Y-79250000D01*
X125792198Y-78957311D01*
X126103267Y-78491764D01*
X126212500Y-77942613D01*
X126212500Y-77886387D01*
X126103267Y-77337236D01*
X125792198Y-76871689D01*
X125326651Y-76560620D01*
X124777500Y-76451387D01*
X124228349Y-76560620D01*
X123762802Y-76871689D01*
X123507500Y-77253775D01*
X123252198Y-76871689D01*
X122786651Y-76560620D01*
X122237500Y-76451387D01*
X121688349Y-76560620D01*
X121222802Y-76871689D01*
X120967500Y-77253775D01*
X120712198Y-76871689D01*
X120246651Y-76560620D01*
X119697500Y-76451387D01*
X119148349Y-76560620D01*
X118682802Y-76871689D01*
X118427500Y-77253775D01*
X118172198Y-76871689D01*
X117706651Y-76560620D01*
X117157500Y-76451387D01*
X116608349Y-76560620D01*
X116142802Y-76871689D01*
X115887500Y-77253775D01*
X115632198Y-76871689D01*
X115166651Y-76560620D01*
X114617500Y-76451387D01*
X114068349Y-76560620D01*
X113602802Y-76871689D01*
X113347500Y-77253775D01*
X113092198Y-76871689D01*
X112626651Y-76560620D01*
X112077500Y-76451387D01*
X111528349Y-76560620D01*
X111062802Y-76871689D01*
X110807500Y-77253775D01*
X110552198Y-76871689D01*
X110086651Y-76560620D01*
X109537500Y-76451387D01*
X108988349Y-76560620D01*
X108522802Y-76871689D01*
X108267500Y-77253775D01*
X108012198Y-76871689D01*
X107546651Y-76560620D01*
X107463977Y-76544175D01*
X107148663Y-76228861D01*
X132884207Y-76228861D01*
X132910844Y-76813057D01*
X133083158Y-77229058D01*
X133332905Y-77307490D01*
X134186395Y-76454000D01*
X133332905Y-75600510D01*
X133083158Y-75678942D01*
X132884207Y-76228861D01*
X107148663Y-76228861D01*
X106582401Y-75662599D01*
X106335839Y-75497852D01*
X106045000Y-75440000D01*
X104454802Y-75440000D01*
X103170122Y-74155320D01*
X103170162Y-74109833D01*
X103028117Y-73766057D01*
X102765327Y-73502808D01*
X102421799Y-73360162D01*
X102360000Y-73360108D01*
X102360000Y-66989802D01*
X102374680Y-66975122D01*
X102420167Y-66975162D01*
X102763943Y-66833117D01*
X103027192Y-66570327D01*
X103169838Y-66226799D01*
X103170162Y-65854833D01*
X103028117Y-65511057D01*
X102765327Y-65247808D01*
X102421799Y-65105162D01*
X102049833Y-65104838D01*
X101706057Y-65246883D01*
X101442808Y-65509673D01*
X101300162Y-65853201D01*
X101300121Y-65900077D01*
X101062599Y-66137599D01*
X100897852Y-66384161D01*
X100840000Y-66675000D01*
X100840000Y-74676000D01*
X100897852Y-74966839D01*
X101062599Y-75213401D01*
X102395706Y-76546508D01*
X101917500Y-76451387D01*
X101368349Y-76560620D01*
X100902802Y-76871689D01*
X100647500Y-77253775D01*
X100392198Y-76871689D01*
X99926651Y-76560620D01*
X99377500Y-76451387D01*
X98828349Y-76560620D01*
X98362802Y-76871689D01*
X98107500Y-77253775D01*
X97852198Y-76871689D01*
X97386651Y-76560620D01*
X96837500Y-76451387D01*
X96288349Y-76560620D01*
X95822802Y-76871689D01*
X95567500Y-77253775D01*
X95312198Y-76871689D01*
X94846651Y-76560620D01*
X94297500Y-76451387D01*
X93748349Y-76560620D01*
X93282802Y-76871689D01*
X93012514Y-77276203D01*
X92909889Y-77059366D01*
X92494923Y-76683459D01*
X92106539Y-76522596D01*
X91884500Y-76644585D01*
X91884500Y-77787500D01*
X91904500Y-77787500D01*
X91904500Y-78041500D01*
X91884500Y-78041500D01*
X91884500Y-79184415D01*
X92106539Y-79306404D01*
X92494923Y-79145541D01*
X92909889Y-78769634D01*
X93012514Y-78552797D01*
X93282802Y-78957311D01*
X93748349Y-79268380D01*
X94297500Y-79377613D01*
X94846651Y-79268380D01*
X95312198Y-78957311D01*
X95567500Y-78575225D01*
X95822802Y-78957311D01*
X96288349Y-79268380D01*
X96837500Y-79377613D01*
X97386651Y-79268380D01*
X97852198Y-78957311D01*
X98107500Y-78575225D01*
X98362802Y-78957311D01*
X98828349Y-79268380D01*
X99377500Y-79377613D01*
X99926651Y-79268380D01*
X100392198Y-78957311D01*
X100647500Y-78575225D01*
X100902802Y-78957311D01*
X101368349Y-79268380D01*
X101917500Y-79377613D01*
X102466651Y-79268380D01*
X102932198Y-78957311D01*
X103187500Y-78575225D01*
X103442802Y-78957311D01*
X103908349Y-79268380D01*
X104457500Y-79377613D01*
X104887315Y-79292117D01*
X107412599Y-81817401D01*
X107659161Y-81982148D01*
X107950000Y-82040000D01*
X115649290Y-82040000D01*
X115502852Y-82259161D01*
X115445000Y-82550000D01*
X115445000Y-83856975D01*
X115309699Y-83721673D01*
X115076310Y-83625000D01*
X114585750Y-83625000D01*
X114427000Y-83783750D01*
X114427000Y-84883000D01*
X114447000Y-84883000D01*
X114447000Y-85137000D01*
X114427000Y-85137000D01*
X114427000Y-85157000D01*
X114173000Y-85157000D01*
X114173000Y-85137000D01*
X113173750Y-85137000D01*
X113015000Y-85295750D01*
X113015000Y-85886309D01*
X113111673Y-86119698D01*
X113290301Y-86298327D01*
X113426287Y-86354654D01*
X113414683Y-86356838D01*
X113198559Y-86495910D01*
X113053569Y-86708110D01*
X113002560Y-86960000D01*
X113002560Y-88460000D01*
X113046838Y-88695317D01*
X113185910Y-88911441D01*
X113398110Y-89056431D01*
X113650000Y-89107440D01*
X114950000Y-89107440D01*
X115185317Y-89063162D01*
X115401441Y-88924090D01*
X115546431Y-88711890D01*
X115597440Y-88460000D01*
X115597440Y-88448629D01*
X115780839Y-88412148D01*
X116027401Y-88247401D01*
X116689802Y-87585000D01*
X117597560Y-87585000D01*
X117597560Y-88685000D01*
X117641838Y-88920317D01*
X117780910Y-89136441D01*
X117985000Y-89275890D01*
X117985000Y-89535000D01*
X118042852Y-89825839D01*
X118207599Y-90072401D01*
X118444878Y-90309680D01*
X118444838Y-90355167D01*
X118586883Y-90698943D01*
X118849673Y-90962192D01*
X119193201Y-91104838D01*
X119565167Y-91105162D01*
X119908943Y-90963117D01*
X120172192Y-90700327D01*
X120314838Y-90356799D01*
X120315162Y-89984833D01*
X120173117Y-89641057D01*
X119910327Y-89377808D01*
X119566799Y-89235162D01*
X119562687Y-89235158D01*
X119696441Y-89149090D01*
X119841431Y-88936890D01*
X119892440Y-88685000D01*
X119892440Y-87585000D01*
X119848162Y-87349683D01*
X119709090Y-87133559D01*
X119496890Y-86988569D01*
X119245000Y-86937560D01*
X118245000Y-86937560D01*
X118009683Y-86981838D01*
X117793559Y-87120910D01*
X117648569Y-87333110D01*
X117597560Y-87585000D01*
X116689802Y-87585000D01*
X116742401Y-87532401D01*
X116907148Y-87285839D01*
X116965000Y-86995000D01*
X116965000Y-85344005D01*
X116970000Y-85345000D01*
X117187074Y-85345000D01*
X117191838Y-85370317D01*
X117330910Y-85586441D01*
X117543110Y-85731431D01*
X117795000Y-85782440D01*
X118595000Y-85782440D01*
X118750507Y-85753179D01*
X118895000Y-85782440D01*
X119695000Y-85782440D01*
X119930317Y-85738162D01*
X120146441Y-85599090D01*
X120291431Y-85386890D01*
X120342440Y-85135000D01*
X120342440Y-84035000D01*
X120298162Y-83799683D01*
X120159090Y-83583559D01*
X119946890Y-83438569D01*
X119695000Y-83387560D01*
X118895000Y-83387560D01*
X118739493Y-83416821D01*
X118595000Y-83387560D01*
X117795000Y-83387560D01*
X117559683Y-83431838D01*
X117343559Y-83570910D01*
X117216569Y-83756767D01*
X116965000Y-83505198D01*
X116965000Y-82864802D01*
X116979680Y-82850122D01*
X117025167Y-82850162D01*
X117368943Y-82708117D01*
X117632192Y-82445327D01*
X117774838Y-82101799D01*
X117774892Y-82040000D01*
X124145198Y-82040000D01*
X125429878Y-83324680D01*
X125429838Y-83370167D01*
X125571883Y-83713943D01*
X125834673Y-83977192D01*
X126178201Y-84119838D01*
X126550167Y-84120162D01*
X126893943Y-83978117D01*
X127157192Y-83715327D01*
X127299838Y-83371799D01*
X127300162Y-82999833D01*
X127158117Y-82656057D01*
X126895327Y-82392808D01*
X126551799Y-82250162D01*
X126504923Y-82250121D01*
X126294802Y-82040000D01*
X135890000Y-82040000D01*
X136180839Y-81982148D01*
X136400000Y-81835710D01*
X136400000Y-83505198D01*
X132177599Y-87727599D01*
X132012852Y-87974161D01*
X131955000Y-88265000D01*
X131955000Y-94935198D01*
X128590198Y-98300000D01*
X125657463Y-98300000D01*
X125625327Y-98267808D01*
X125281799Y-98125162D01*
X124909833Y-98124838D01*
X124566057Y-98266883D01*
X124302808Y-98529673D01*
X124160162Y-98873201D01*
X124159838Y-99245167D01*
X124301883Y-99588943D01*
X124564673Y-99852192D01*
X124908201Y-99994838D01*
X125280167Y-99995162D01*
X125623943Y-99853117D01*
X125657118Y-99820000D01*
X128905000Y-99820000D01*
X129195839Y-99762148D01*
X129442401Y-99597401D01*
X133252401Y-95787401D01*
X133417148Y-95540839D01*
X133475000Y-95250000D01*
X133475000Y-88579802D01*
X137697401Y-84357401D01*
X137862148Y-84110840D01*
X137920000Y-83820000D01*
X137920000Y-58420000D01*
X137862148Y-58129161D01*
X137697401Y-57882599D01*
X137062401Y-57247599D01*
X136815839Y-57082852D01*
X136525000Y-57025000D01*
X133985000Y-57025000D01*
X133694161Y-57082852D01*
X133447599Y-57247599D01*
X132316481Y-58378717D01*
X132316662Y-58171333D01*
X132174617Y-57827557D01*
X131911827Y-57564308D01*
X131568299Y-57421662D01*
X131196333Y-57421338D01*
X130852557Y-57563383D01*
X130755771Y-57660000D01*
X124125110Y-57660000D01*
X124125162Y-57599833D01*
X123983117Y-57256057D01*
X123720327Y-56992808D01*
X123376799Y-56850162D01*
X123004833Y-56849838D01*
X122661057Y-56991883D01*
X122627882Y-57025000D01*
X102743000Y-57025000D01*
X102452160Y-57082852D01*
X102205599Y-57247599D01*
X102047198Y-57406000D01*
X96326802Y-57406000D01*
X94771401Y-55850599D01*
X94524839Y-55685852D01*
X94234000Y-55628000D01*
X90932000Y-55628000D01*
X90641161Y-55685852D01*
X90394599Y-55850599D01*
X89632599Y-56612599D01*
X89467852Y-56859161D01*
X89410000Y-57150000D01*
X89410000Y-62429537D01*
X89377808Y-62461673D01*
X89235162Y-62805201D01*
X89234838Y-63177167D01*
X89376883Y-63520943D01*
X89410000Y-63554118D01*
X89410000Y-65979198D01*
X89014320Y-66374878D01*
X88968833Y-66374838D01*
X88898000Y-66404106D01*
X88898000Y-65913000D01*
X88840148Y-65622161D01*
X88675401Y-65375599D01*
X88167401Y-64867599D01*
X87920839Y-64702852D01*
X87630000Y-64645000D01*
X85725000Y-64645000D01*
X85434161Y-64702852D01*
X85187599Y-64867599D01*
X84775198Y-65280000D01*
X83350633Y-65280000D01*
X83484838Y-64956799D01*
X83485162Y-64584833D01*
X83394467Y-64365335D01*
X84134802Y-63625000D01*
X84527537Y-63625000D01*
X84559673Y-63657192D01*
X84903201Y-63799838D01*
X85275167Y-63800162D01*
X85618943Y-63658117D01*
X85882192Y-63395327D01*
X86024838Y-63051799D01*
X86025162Y-62679833D01*
X85883117Y-62336057D01*
X85620327Y-62072808D01*
X85276799Y-61930162D01*
X84904833Y-61929838D01*
X84561057Y-62071883D01*
X84527882Y-62105000D01*
X83820000Y-62105000D01*
X83529160Y-62162852D01*
X83282599Y-62327599D01*
X82012599Y-63597599D01*
X81847852Y-63844161D01*
X81790000Y-64135000D01*
X81790000Y-64207537D01*
X81757808Y-64239673D01*
X81615162Y-64583201D01*
X81614838Y-64955167D01*
X81749056Y-65280000D01*
X81207463Y-65280000D01*
X81175327Y-65247808D01*
X80831799Y-65105162D01*
X80784923Y-65105121D01*
X80547401Y-64867599D01*
X80300839Y-64702852D01*
X80010000Y-64645000D01*
X79375000Y-64645000D01*
X79283556Y-64663189D01*
X79442148Y-64425840D01*
X79500000Y-64135000D01*
X79500000Y-59369802D01*
X80324802Y-58545000D01*
X85162537Y-58545000D01*
X85194673Y-58577192D01*
X85538201Y-58719838D01*
X85910167Y-58720162D01*
X86253943Y-58578117D01*
X86517192Y-58315327D01*
X86659838Y-57971799D01*
X86660162Y-57599833D01*
X86518117Y-57256057D01*
X86255327Y-56992808D01*
X85911799Y-56850162D01*
X85539833Y-56849838D01*
X85196057Y-56991883D01*
X85162882Y-57025000D01*
X80010000Y-57025000D01*
X79719160Y-57082852D01*
X79472599Y-57247599D01*
X78202599Y-58517599D01*
X78037852Y-58764161D01*
X77980000Y-59055000D01*
X77980000Y-63820198D01*
X76327000Y-65473198D01*
X76327000Y-50927000D01*
X94293072Y-50927000D01*
X94165667Y-51233825D01*
X94165667Y-51233825D01*
G37*
X94165667Y-51233825D02*
X94164336Y-52759482D01*
X94746950Y-54169515D01*
X95824811Y-55249259D01*
X97233825Y-55834333D01*
X98759482Y-55835664D01*
X100169515Y-55253050D01*
X101249259Y-54175189D01*
X101834333Y-52766175D01*
X101835664Y-51240518D01*
X101706121Y-50927000D01*
X113293072Y-50927000D01*
X113165667Y-51233825D01*
X113164336Y-52759482D01*
X113746950Y-54169515D01*
X114824811Y-55249259D01*
X116233825Y-55834333D01*
X117759482Y-55835664D01*
X119169515Y-55253050D01*
X120178229Y-54246095D01*
X122336510Y-54246095D01*
X122414942Y-54495842D01*
X122964861Y-54694793D01*
X123549057Y-54668156D01*
X123965058Y-54495842D01*
X124043490Y-54246095D01*
X123190000Y-53392605D01*
X122336510Y-54246095D01*
X120178229Y-54246095D01*
X120249259Y-54175189D01*
X120742280Y-52987861D01*
X121708207Y-52987861D01*
X121734844Y-53572057D01*
X121907158Y-53988058D01*
X122156905Y-54066490D01*
X123010395Y-53213000D01*
X123369605Y-53213000D01*
X124223095Y-54066490D01*
X124461214Y-53991710D01*
X124483068Y-54044600D01*
X124896225Y-54458479D01*
X125436316Y-54682744D01*
X126021118Y-54683255D01*
X126561600Y-54459932D01*
X126975479Y-54046775D01*
X127199744Y-53506684D01*
X127199746Y-53504118D01*
X131244745Y-53504118D01*
X131468068Y-54044600D01*
X131881225Y-54458479D01*
X132421316Y-54682744D01*
X133006118Y-54683255D01*
X133546600Y-54459932D01*
X133960479Y-54046775D01*
X133984783Y-53988245D01*
X134008068Y-54044600D01*
X134421225Y-54458479D01*
X134961316Y-54682744D01*
X135546118Y-54683255D01*
X136086600Y-54459932D01*
X136500479Y-54046775D01*
X136724744Y-53506684D01*
X136725255Y-52921882D01*
X136501932Y-52381400D01*
X136088775Y-51967521D01*
X135548684Y-51743256D01*
X134963882Y-51742745D01*
X134423400Y-51966068D01*
X134009521Y-52379225D01*
X133985217Y-52437755D01*
X133961932Y-52381400D01*
X133548775Y-51967521D01*
X133008684Y-51743256D01*
X132423882Y-51742745D01*
X131883400Y-51966068D01*
X131469521Y-52379225D01*
X131245256Y-52919316D01*
X131244745Y-53504118D01*
X127199746Y-53504118D01*
X127200255Y-52921882D01*
X126976932Y-52381400D01*
X126563775Y-51967521D01*
X126023684Y-51743256D01*
X125438882Y-51742745D01*
X124898400Y-51966068D01*
X124484521Y-52379225D01*
X124461605Y-52434413D01*
X124223095Y-52359510D01*
X123369605Y-53213000D01*
X123010395Y-53213000D01*
X122156905Y-52359510D01*
X121907158Y-52437942D01*
X121708207Y-52987861D01*
X120742280Y-52987861D01*
X120834333Y-52766175D01*
X120834844Y-52179905D01*
X122336510Y-52179905D01*
X123190000Y-53033395D01*
X124043490Y-52179905D01*
X123965058Y-51930158D01*
X123415139Y-51731207D01*
X122830943Y-51757844D01*
X122414942Y-51930158D01*
X122336510Y-52179905D01*
X120834844Y-52179905D01*
X120835664Y-51240518D01*
X120706121Y-50927000D01*
X138303000Y-50927000D01*
X138303000Y-116078000D01*
X76327000Y-116078000D01*
X76327000Y-98356802D01*
X76534878Y-98564680D01*
X76534838Y-98610167D01*
X76676883Y-98953943D01*
X76939673Y-99217192D01*
X77283201Y-99359838D01*
X77655167Y-99360162D01*
X77998943Y-99218117D01*
X78262192Y-98955327D01*
X78404838Y-98611799D01*
X78405162Y-98239833D01*
X78263117Y-97896057D01*
X78000327Y-97632808D01*
X77656799Y-97490162D01*
X77609923Y-97490121D01*
X77595000Y-97475198D01*
X77595000Y-85404802D01*
X77784802Y-85215000D01*
X78812537Y-85215000D01*
X78844673Y-85247192D01*
X79188201Y-85389838D01*
X79560167Y-85390162D01*
X79885000Y-85255944D01*
X79885000Y-102555198D01*
X79779598Y-102660600D01*
X79561799Y-102570162D01*
X79189833Y-102569838D01*
X78846057Y-102711883D01*
X78582808Y-102974673D01*
X78440162Y-103318201D01*
X78439838Y-103690167D01*
X78581883Y-104033943D01*
X78844673Y-104297192D01*
X79188201Y-104439838D01*
X79560167Y-104440162D01*
X79903943Y-104298117D01*
X79937118Y-104265000D01*
X80010000Y-104265000D01*
X80300839Y-104207148D01*
X80547401Y-104042401D01*
X81182401Y-103407401D01*
X81347148Y-103160839D01*
X81368167Y-103055167D01*
X93679838Y-103055167D01*
X93821883Y-103398943D01*
X94084673Y-103662192D01*
X94428201Y-103804838D01*
X94800167Y-103805162D01*
X95143943Y-103663117D01*
X95177118Y-103630000D01*
X108022537Y-103630000D01*
X108054673Y-103662192D01*
X108398201Y-103804838D01*
X108770167Y-103805162D01*
X109113943Y-103663117D01*
X109377192Y-103400327D01*
X109519838Y-103056799D01*
X109520162Y-102684833D01*
X109378117Y-102341057D01*
X109115327Y-102077808D01*
X108771799Y-101935162D01*
X108399833Y-101934838D01*
X108056057Y-102076883D01*
X108022882Y-102110000D01*
X95177463Y-102110000D01*
X95145327Y-102077808D01*
X94801799Y-101935162D01*
X94429833Y-101934838D01*
X94086057Y-102076883D01*
X93822808Y-102339673D01*
X93680162Y-102683201D01*
X93679838Y-103055167D01*
X81368167Y-103055167D01*
X81405000Y-102870000D01*
X81405000Y-81594802D01*
X81594802Y-81405000D01*
X82550000Y-81405000D01*
X82840839Y-81347148D01*
X83087401Y-81182401D01*
X83695000Y-80574802D01*
X83695000Y-94327391D01*
X83310000Y-93749891D01*
X83310000Y-91367463D01*
X83342192Y-91335327D01*
X83484838Y-90991799D01*
X83485162Y-90619833D01*
X83343117Y-90276057D01*
X83080327Y-90012808D01*
X82736799Y-89870162D01*
X82364833Y-89869838D01*
X82021057Y-90011883D01*
X81757808Y-90274673D01*
X81615162Y-90618201D01*
X81614838Y-90990167D01*
X81756883Y-91333943D01*
X81790000Y-91367118D01*
X81790000Y-93980000D01*
X81804527Y-94053031D01*
X81804449Y-94127489D01*
X81833172Y-94197038D01*
X81847852Y-94270839D01*
X81889219Y-94332749D01*
X81917642Y-94401572D01*
X82885027Y-95852650D01*
X82884838Y-96070167D01*
X83026883Y-96413943D01*
X83289673Y-96677192D01*
X83633201Y-96819838D01*
X84005167Y-96820162D01*
X84348943Y-96678117D01*
X84584052Y-96443417D01*
X84799161Y-96587148D01*
X85090000Y-96645000D01*
X86432537Y-96645000D01*
X86464673Y-96677192D01*
X86808201Y-96819838D01*
X87180167Y-96820162D01*
X87523943Y-96678117D01*
X87557118Y-96645000D01*
X105244367Y-96645000D01*
X105110162Y-96968201D01*
X105110121Y-97015077D01*
X102730320Y-99394878D01*
X102684833Y-99394838D01*
X102341057Y-99536883D01*
X102077808Y-99799673D01*
X101935162Y-100143201D01*
X101934838Y-100515167D01*
X102076883Y-100858943D01*
X102339673Y-101122192D01*
X102683201Y-101264838D01*
X103055167Y-101265162D01*
X103398943Y-101123117D01*
X103662192Y-100860327D01*
X103804838Y-100516799D01*
X103804879Y-100469923D01*
X106184680Y-98090122D01*
X106230167Y-98090162D01*
X106573943Y-97948117D01*
X106837192Y-97685327D01*
X106979838Y-97341799D01*
X106980162Y-96969833D01*
X106845944Y-96645000D01*
X110175198Y-96645000D01*
X110587599Y-97057401D01*
X116302599Y-102772402D01*
X116549161Y-102937148D01*
X116840000Y-102995000D01*
X117547537Y-102995000D01*
X117579673Y-103027192D01*
X117923201Y-103169838D01*
X118295167Y-103170162D01*
X118638943Y-103028117D01*
X118902192Y-102765327D01*
X119044838Y-102421799D01*
X119045162Y-102049833D01*
X118903117Y-101706057D01*
X118640327Y-101442808D01*
X118296799Y-101300162D01*
X117924833Y-101299838D01*
X117581057Y-101441883D01*
X117547882Y-101475000D01*
X117154803Y-101475000D01*
X111689802Y-96010000D01*
X118430198Y-96010000D01*
X118759878Y-96339680D01*
X118759838Y-96385167D01*
X118901883Y-96728943D01*
X119164673Y-96992192D01*
X119508201Y-97134838D01*
X119880167Y-97135162D01*
X120223943Y-96993117D01*
X120487192Y-96730327D01*
X120629838Y-96386799D01*
X120630162Y-96014833D01*
X120488117Y-95671057D01*
X120225327Y-95407808D01*
X119881799Y-95265162D01*
X119834923Y-95265121D01*
X119282401Y-94712599D01*
X119035839Y-94547852D01*
X118745000Y-94490000D01*
X117734159Y-94490000D01*
X118172198Y-94197311D01*
X118427500Y-93815225D01*
X118682802Y-94197311D01*
X119148349Y-94508380D01*
X119697500Y-94617613D01*
X120021386Y-94553188D01*
X121795000Y-96326802D01*
X121795000Y-109540198D01*
X121605198Y-109730000D01*
X119380000Y-109730000D01*
X119089160Y-109787852D01*
X118842599Y-109952599D01*
X118306028Y-110489170D01*
X117807989Y-110488735D01*
X117247285Y-110720414D01*
X116839665Y-111127323D01*
X116434971Y-110721921D01*
X115874672Y-110489265D01*
X115267989Y-110488735D01*
X114707285Y-110720414D01*
X114277921Y-111149029D01*
X114045265Y-111709328D01*
X114044735Y-112316011D01*
X114085397Y-112414419D01*
X113955839Y-112327852D01*
X113665000Y-112270000D01*
X105913783Y-112270000D01*
X106067079Y-112116971D01*
X106299735Y-111556672D01*
X106300265Y-110949989D01*
X106068586Y-110389285D01*
X105639971Y-109959921D01*
X105079672Y-109727265D01*
X104472989Y-109726735D01*
X103912285Y-109958414D01*
X103504665Y-110365323D01*
X103099971Y-109959921D01*
X102539672Y-109727265D01*
X101932989Y-109726735D01*
X101372285Y-109958414D01*
X100942921Y-110387029D01*
X100931975Y-110413389D01*
X100767921Y-110358684D01*
X99874605Y-111252000D01*
X99888748Y-111266143D01*
X99709143Y-111445748D01*
X99695000Y-111431605D01*
X99680858Y-111445748D01*
X99501253Y-111266143D01*
X99515395Y-111252000D01*
X98622079Y-110358684D01*
X98458483Y-110413237D01*
X98448586Y-110389285D01*
X98238747Y-110179079D01*
X98801684Y-110179079D01*
X99695000Y-111072395D01*
X100588316Y-110179079D01*
X100503135Y-109923632D01*
X99933275Y-109715488D01*
X99327140Y-109741264D01*
X98886865Y-109923632D01*
X98801684Y-110179079D01*
X98238747Y-110179079D01*
X98019971Y-109959921D01*
X97459672Y-109727265D01*
X97214751Y-109727051D01*
X98231802Y-108710000D01*
X104775000Y-108710000D01*
X105065839Y-108652148D01*
X105312401Y-108487401D01*
X105549680Y-108250122D01*
X105595167Y-108250162D01*
X105938943Y-108108117D01*
X106202192Y-107845327D01*
X106344838Y-107501799D01*
X106345162Y-107129833D01*
X106203117Y-106786057D01*
X106097290Y-106680046D01*
X106202192Y-106575327D01*
X106344838Y-106231799D01*
X106345162Y-105859833D01*
X106203117Y-105516057D01*
X105940327Y-105252808D01*
X105596799Y-105110162D01*
X105224833Y-105109838D01*
X104881057Y-105251883D01*
X104847882Y-105285000D01*
X89535000Y-105285000D01*
X89244161Y-105342852D01*
X88997599Y-105507599D01*
X84772575Y-109732623D01*
X84759672Y-109727265D01*
X84152989Y-109726735D01*
X83592285Y-109958414D01*
X83162921Y-110387029D01*
X82930265Y-110947328D01*
X82930162Y-111065360D01*
X80310122Y-108445320D01*
X80310162Y-108399833D01*
X80168117Y-108056057D01*
X79905327Y-107792808D01*
X79561799Y-107650162D01*
X79189833Y-107649838D01*
X78846057Y-107791883D01*
X78582808Y-108054673D01*
X78440162Y-108398201D01*
X78439838Y-108770167D01*
X78581883Y-109113943D01*
X78844673Y-109377192D01*
X79188201Y-109519838D01*
X79235077Y-109519879D01*
X83282599Y-113567401D01*
X83529161Y-113732148D01*
X83820000Y-113790000D01*
X113350198Y-113790000D01*
X113762599Y-114202401D01*
X114009161Y-114367148D01*
X114300000Y-114425000D01*
X133985000Y-114425000D01*
X134275839Y-114367148D01*
X134522401Y-114202401D01*
X135792401Y-112932401D01*
X135957148Y-112685840D01*
X136015000Y-112395000D01*
X136015000Y-111125000D01*
X135957148Y-110834161D01*
X135957148Y-110834160D01*
X135792401Y-110587599D01*
X134522401Y-109317599D01*
X134275839Y-109152852D01*
X133985000Y-109095000D01*
X130489802Y-109095000D01*
X130077401Y-108682599D01*
X129830839Y-108517852D01*
X129540000Y-108460000D01*
X127562463Y-108460000D01*
X127530327Y-108427808D01*
X127186799Y-108285162D01*
X126814833Y-108284838D01*
X126471057Y-108426883D01*
X126207808Y-108689673D01*
X126065162Y-109033201D01*
X126064838Y-109405167D01*
X126206883Y-109748943D01*
X126469673Y-110012192D01*
X126813201Y-110154838D01*
X127185167Y-110155162D01*
X127528943Y-110013117D01*
X127562118Y-109980000D01*
X129225198Y-109980000D01*
X129637599Y-110392401D01*
X129884161Y-110557148D01*
X130175000Y-110615000D01*
X130202405Y-110615000D01*
X129947285Y-110720414D01*
X129517921Y-111149029D01*
X129506975Y-111175389D01*
X129342921Y-111120684D01*
X128449605Y-112014000D01*
X128463748Y-112028143D01*
X128284143Y-112207748D01*
X128270000Y-112193605D01*
X128255858Y-112207748D01*
X128076253Y-112028143D01*
X128090395Y-112014000D01*
X127197079Y-111120684D01*
X127033483Y-111175237D01*
X127023586Y-111151285D01*
X126813747Y-110941079D01*
X127376684Y-110941079D01*
X128270000Y-111834395D01*
X129163316Y-110941079D01*
X129078135Y-110685632D01*
X128508275Y-110477488D01*
X127902140Y-110503264D01*
X127461865Y-110685632D01*
X127376684Y-110941079D01*
X126813747Y-110941079D01*
X126594971Y-110721921D01*
X126264500Y-110584698D01*
X124585000Y-108905198D01*
X124585000Y-107629802D01*
X125409802Y-106805000D01*
X128905000Y-106805000D01*
X129195839Y-106747148D01*
X129442401Y-106582401D01*
X130712401Y-105312401D01*
X130877148Y-105065840D01*
X130935000Y-104775000D01*
X130935000Y-103432463D01*
X130967192Y-103400327D01*
X131109838Y-103056799D01*
X131110162Y-102684833D01*
X130968117Y-102341057D01*
X130705327Y-102077808D01*
X130361799Y-101935162D01*
X129989833Y-101934838D01*
X129646057Y-102076883D01*
X129585000Y-102137834D01*
X129585000Y-101994802D01*
X129854802Y-101725000D01*
X136210198Y-101725000D01*
X136400000Y-101914802D01*
X136400000Y-102307537D01*
X136367808Y-102339673D01*
X136225162Y-102683201D01*
X136224838Y-103055167D01*
X136366883Y-103398943D01*
X136629673Y-103662192D01*
X136973201Y-103804838D01*
X137345167Y-103805162D01*
X137688943Y-103663117D01*
X137952192Y-103400327D01*
X138094838Y-103056799D01*
X138095162Y-102684833D01*
X137953117Y-102341057D01*
X137920000Y-102307882D01*
X137920000Y-101600000D01*
X137862148Y-101309161D01*
X137697401Y-101062599D01*
X137062401Y-100427599D01*
X136815839Y-100262852D01*
X136525000Y-100205000D01*
X129540000Y-100205000D01*
X129249161Y-100262852D01*
X129002599Y-100427599D01*
X128287599Y-101142599D01*
X128122852Y-101389161D01*
X128065000Y-101680000D01*
X128065000Y-103768033D01*
X127741057Y-103901883D01*
X127477808Y-104164673D01*
X127335162Y-104508201D01*
X127334838Y-104880167D01*
X127476883Y-105223943D01*
X127537834Y-105285000D01*
X125095000Y-105285000D01*
X124804160Y-105342852D01*
X124557599Y-105507599D01*
X123950000Y-106115198D01*
X123950000Y-95056802D01*
X124453614Y-94553188D01*
X124777500Y-94617613D01*
X125326651Y-94508380D01*
X125792198Y-94197311D01*
X126103267Y-93731764D01*
X126212500Y-93182613D01*
X126212500Y-93126387D01*
X126103267Y-92577236D01*
X125792198Y-92111689D01*
X125326651Y-91800620D01*
X124777500Y-91691387D01*
X124228349Y-91800620D01*
X123762802Y-92111689D01*
X123507500Y-92493775D01*
X123252198Y-92111689D01*
X122997500Y-91941505D01*
X122997500Y-89532302D01*
X124139802Y-88390000D01*
X128977537Y-88390000D01*
X129009673Y-88422192D01*
X129353201Y-88564838D01*
X129725167Y-88565162D01*
X130068943Y-88423117D01*
X130332192Y-88160327D01*
X130474838Y-87816799D01*
X130475162Y-87444833D01*
X130333117Y-87101057D01*
X130070327Y-86837808D01*
X129726799Y-86695162D01*
X129354833Y-86694838D01*
X129011057Y-86836883D01*
X128977882Y-86870000D01*
X123825000Y-86870000D01*
X123534161Y-86927852D01*
X123287599Y-87092599D01*
X121700099Y-88680099D01*
X121535352Y-88926661D01*
X121477500Y-89217500D01*
X121477500Y-91941505D01*
X121222802Y-92111689D01*
X120967500Y-92493775D01*
X120712198Y-92111689D01*
X120246651Y-91800620D01*
X119697500Y-91691387D01*
X119148349Y-91800620D01*
X118682802Y-92111689D01*
X118427500Y-92493775D01*
X118172198Y-92111689D01*
X117706651Y-91800620D01*
X117157500Y-91691387D01*
X116608349Y-91800620D01*
X116142802Y-92111689D01*
X115887500Y-92493775D01*
X115632198Y-92111689D01*
X115166651Y-91800620D01*
X114617500Y-91691387D01*
X114068349Y-91800620D01*
X113602802Y-92111689D01*
X113347500Y-92493775D01*
X113092198Y-92111689D01*
X112626651Y-91800620D01*
X112077500Y-91691387D01*
X111528349Y-91800620D01*
X111062802Y-92111689D01*
X110807500Y-92493775D01*
X110552198Y-92111689D01*
X110086651Y-91800620D01*
X109537500Y-91691387D01*
X108988349Y-91800620D01*
X108522802Y-92111689D01*
X108267500Y-92493775D01*
X108012198Y-92111689D01*
X107546651Y-91800620D01*
X106997500Y-91691387D01*
X106448349Y-91800620D01*
X105982802Y-92111689D01*
X105727500Y-92493775D01*
X105472198Y-92111689D01*
X105006651Y-91800620D01*
X104457500Y-91691387D01*
X103908349Y-91800620D01*
X103442802Y-92111689D01*
X103187500Y-92493775D01*
X102932198Y-92111689D01*
X102466651Y-91800620D01*
X101917500Y-91691387D01*
X101368349Y-91800620D01*
X100902802Y-92111689D01*
X100647500Y-92493775D01*
X100392198Y-92111689D01*
X99926651Y-91800620D01*
X99377500Y-91691387D01*
X98828349Y-91800620D01*
X98362802Y-92111689D01*
X98092514Y-92516203D01*
X97989889Y-92299366D01*
X97574923Y-91923459D01*
X97186539Y-91762596D01*
X96964500Y-91884585D01*
X96964500Y-93027500D01*
X96984500Y-93027500D01*
X96984500Y-93281500D01*
X96964500Y-93281500D01*
X96964500Y-94424415D01*
X97186539Y-94546404D01*
X97574923Y-94385541D01*
X97989889Y-94009634D01*
X98092514Y-93792797D01*
X98362802Y-94197311D01*
X98828349Y-94508380D01*
X99377500Y-94617613D01*
X99926651Y-94508380D01*
X100392198Y-94197311D01*
X100647500Y-93815225D01*
X100902802Y-94197311D01*
X101368349Y-94508380D01*
X101917500Y-94617613D01*
X102466651Y-94508380D01*
X102932198Y-94197311D01*
X103187500Y-93815225D01*
X103442802Y-94197311D01*
X103908349Y-94508380D01*
X104457500Y-94617613D01*
X105006651Y-94508380D01*
X105472198Y-94197311D01*
X105727500Y-93815225D01*
X105982802Y-94197311D01*
X106448349Y-94508380D01*
X106686930Y-94555837D01*
X106522808Y-94719673D01*
X106380162Y-95063201D01*
X106380108Y-95125000D01*
X87557463Y-95125000D01*
X87525327Y-95092808D01*
X87181799Y-94950162D01*
X86809833Y-94949838D01*
X86466057Y-95091883D01*
X86432882Y-95125000D01*
X85404802Y-95125000D01*
X85215000Y-94935198D01*
X85215000Y-92354500D01*
X87770060Y-92354500D01*
X87770060Y-93954500D01*
X87814338Y-94189817D01*
X87953410Y-94405941D01*
X88165610Y-94550931D01*
X88417500Y-94601940D01*
X90017500Y-94601940D01*
X90252817Y-94557662D01*
X90468941Y-94418590D01*
X90613931Y-94206390D01*
X90645315Y-94051411D01*
X90742802Y-94197311D01*
X91208349Y-94508380D01*
X91757500Y-94617613D01*
X92306651Y-94508380D01*
X92772198Y-94197311D01*
X93027500Y-93815225D01*
X93282802Y-94197311D01*
X93748349Y-94508380D01*
X94297500Y-94617613D01*
X94846651Y-94508380D01*
X95312198Y-94197311D01*
X95582486Y-93792797D01*
X95685111Y-94009634D01*
X96100077Y-94385541D01*
X96488461Y-94546404D01*
X96710500Y-94424415D01*
X96710500Y-93281500D01*
X96690500Y-93281500D01*
X96690500Y-93027500D01*
X96710500Y-93027500D01*
X96710500Y-91884585D01*
X96488461Y-91762596D01*
X96100077Y-91923459D01*
X95685111Y-92299366D01*
X95582486Y-92516203D01*
X95312198Y-92111689D01*
X94846651Y-91800620D01*
X94297500Y-91691387D01*
X93748349Y-91800620D01*
X93282802Y-92111689D01*
X93027500Y-92493775D01*
X92772198Y-92111689D01*
X92306651Y-91800620D01*
X91757500Y-91691387D01*
X91208349Y-91800620D01*
X90742802Y-92111689D01*
X90646399Y-92255965D01*
X90620662Y-92119183D01*
X90481590Y-91903059D01*
X90269390Y-91758069D01*
X90017500Y-91707060D01*
X88417500Y-91707060D01*
X88182183Y-91751338D01*
X87966059Y-91890410D01*
X87821069Y-92102610D01*
X87770060Y-92354500D01*
X85215000Y-92354500D01*
X85215000Y-84133691D01*
X113015000Y-84133691D01*
X113015000Y-84724250D01*
X113173750Y-84883000D01*
X114173000Y-84883000D01*
X114173000Y-83783750D01*
X114014250Y-83625000D01*
X113523690Y-83625000D01*
X113290301Y-83721673D01*
X113111673Y-83900302D01*
X113015000Y-84133691D01*
X85215000Y-84133691D01*
X85215000Y-74930000D01*
X85157148Y-74639161D01*
X85157148Y-74639160D01*
X84992401Y-74392599D01*
X82452401Y-71852599D01*
X82205839Y-71687852D01*
X81915000Y-71630000D01*
X79937463Y-71630000D01*
X79905327Y-71597808D01*
X79561799Y-71455162D01*
X79189833Y-71454838D01*
X78846057Y-71596883D01*
X78582808Y-71859673D01*
X78440162Y-72203201D01*
X78439838Y-72575167D01*
X78581883Y-72918943D01*
X78844673Y-73182192D01*
X79188201Y-73324838D01*
X79560167Y-73325162D01*
X79903943Y-73183117D01*
X79937118Y-73150000D01*
X81600198Y-73150000D01*
X83695000Y-75244802D01*
X83695000Y-76034367D01*
X83371799Y-75900162D01*
X82999833Y-75899838D01*
X82656057Y-76041883D01*
X82392808Y-76304673D01*
X82250162Y-76648201D01*
X82249838Y-77020167D01*
X82391883Y-77363943D01*
X82425000Y-77397118D01*
X82425000Y-79695198D01*
X82235198Y-79885000D01*
X81280000Y-79885000D01*
X80989161Y-79942852D01*
X80742599Y-80107599D01*
X80107599Y-80742599D01*
X79942852Y-80989161D01*
X79885000Y-81280000D01*
X79885000Y-83654367D01*
X79561799Y-83520162D01*
X79189833Y-83519838D01*
X78846057Y-83661883D01*
X78812882Y-83695000D01*
X77901333Y-83695000D01*
X78008192Y-83588327D01*
X78150838Y-83244799D01*
X78150941Y-83126579D01*
X78172148Y-83094840D01*
X78230000Y-82804000D01*
X78230000Y-68894802D01*
X78642401Y-68482401D01*
X78807148Y-68235839D01*
X78865000Y-67945000D01*
X78865000Y-66989802D01*
X79689802Y-66165000D01*
X79695198Y-66165000D01*
X79709878Y-66179680D01*
X79709838Y-66225167D01*
X79851883Y-66568943D01*
X80114673Y-66832192D01*
X80458201Y-66974838D01*
X80830167Y-66975162D01*
X81173943Y-66833117D01*
X81207118Y-66800000D01*
X84289367Y-66800000D01*
X84155162Y-67123201D01*
X84154838Y-67495167D01*
X84296883Y-67838943D01*
X84559673Y-68102192D01*
X84903201Y-68244838D01*
X85275167Y-68245162D01*
X85618943Y-68103117D01*
X85882192Y-67840327D01*
X86024838Y-67496799D01*
X86025162Y-67124833D01*
X85934467Y-66905335D01*
X86039802Y-66800000D01*
X86432537Y-66800000D01*
X86464673Y-66832192D01*
X86808201Y-66974838D01*
X87180167Y-66975162D01*
X87378000Y-66893419D01*
X87378000Y-67509537D01*
X87345808Y-67541673D01*
X87203162Y-67885201D01*
X87202838Y-68257167D01*
X87344883Y-68600943D01*
X87607673Y-68864192D01*
X87951201Y-69006838D01*
X88323167Y-69007162D01*
X88666943Y-68865117D01*
X88930192Y-68602327D01*
X89072838Y-68258799D01*
X89072850Y-68244930D01*
X89339167Y-68245162D01*
X89682943Y-68103117D01*
X89946192Y-67840327D01*
X90045000Y-67602372D01*
X90045000Y-74615198D01*
X88680099Y-75980099D01*
X88515352Y-76226661D01*
X88457500Y-76517500D01*
X88457500Y-76701505D01*
X88202802Y-76871689D01*
X87891733Y-77337236D01*
X87782500Y-77886387D01*
X87782500Y-77942613D01*
X87891733Y-78491764D01*
X88202802Y-78957311D01*
X88668349Y-79268380D01*
X89217500Y-79377613D01*
X89766651Y-79268380D01*
X90232198Y-78957311D01*
X90502486Y-78552797D01*
X90605111Y-78769634D01*
X91020077Y-79145541D01*
X91408461Y-79306404D01*
X91630500Y-79184415D01*
X91630500Y-78041500D01*
X91610500Y-78041500D01*
X91610500Y-77787500D01*
X91630500Y-77787500D01*
X91630500Y-76644585D01*
X91408461Y-76522596D01*
X91020077Y-76683459D01*
X90605111Y-77059366D01*
X90502486Y-77276203D01*
X90232198Y-76871689D01*
X90055907Y-76753895D01*
X91342401Y-75467401D01*
X91507148Y-75220839D01*
X91565000Y-74930000D01*
X91565000Y-58099802D01*
X91579680Y-58085122D01*
X91625167Y-58085162D01*
X91968943Y-57943117D01*
X92002118Y-57910000D01*
X93665198Y-57910000D01*
X94685198Y-58930000D01*
X94234000Y-58930000D01*
X93991414Y-58978254D01*
X93943160Y-58987852D01*
X93696599Y-59152599D01*
X92172599Y-60676599D01*
X92007852Y-60923161D01*
X91950000Y-61214000D01*
X91950000Y-70557537D01*
X91917808Y-70589673D01*
X91775162Y-70933201D01*
X91774838Y-71305167D01*
X91916883Y-71648943D01*
X92179673Y-71912192D01*
X92523201Y-72054838D01*
X92895167Y-72055162D01*
X93238943Y-71913117D01*
X93502192Y-71650327D01*
X93644838Y-71306799D01*
X93645162Y-70934833D01*
X93503117Y-70591057D01*
X93470000Y-70557882D01*
X93470000Y-61528802D01*
X94548802Y-60450000D01*
X102053537Y-60450000D01*
X102085673Y-60482192D01*
X102429201Y-60624838D01*
X102801167Y-60625162D01*
X103144943Y-60483117D01*
X103408192Y-60220327D01*
X103550838Y-59876799D01*
X103551162Y-59504833D01*
X103416944Y-59180000D01*
X104845198Y-59180000D01*
X104237599Y-59787599D01*
X104072852Y-60034161D01*
X104015000Y-60325000D01*
X104015000Y-68652537D01*
X103982808Y-68684673D01*
X103840162Y-69028201D01*
X103839838Y-69400167D01*
X103981883Y-69743943D01*
X104244673Y-70007192D01*
X104588201Y-70149838D01*
X104960167Y-70150162D01*
X105303943Y-70008117D01*
X105567192Y-69745327D01*
X105709838Y-69401799D01*
X105710162Y-69029833D01*
X105568117Y-68686057D01*
X105535000Y-68652882D01*
X105535000Y-68110633D01*
X105858201Y-68244838D01*
X106230167Y-68245162D01*
X106573943Y-68103117D01*
X106837192Y-67840327D01*
X106979838Y-67496799D01*
X106979879Y-67449923D01*
X106994802Y-67435000D01*
X113102537Y-67435000D01*
X113134673Y-67467192D01*
X113478201Y-67609838D01*
X113850167Y-67610162D01*
X114193943Y-67468117D01*
X114457192Y-67205327D01*
X114599838Y-66861799D01*
X114600162Y-66489833D01*
X114458117Y-66146057D01*
X114195327Y-65882808D01*
X113851799Y-65740162D01*
X113479833Y-65739838D01*
X113136057Y-65881883D01*
X113102882Y-65915000D01*
X106680000Y-65915000D01*
X106389161Y-65972852D01*
X106142599Y-66137599D01*
X105905320Y-66374878D01*
X105859833Y-66374838D01*
X105535000Y-66509056D01*
X105535000Y-60639802D01*
X106232802Y-59942000D01*
X115769537Y-59942000D01*
X115801673Y-59974192D01*
X116145201Y-60116838D01*
X116517167Y-60117162D01*
X116860943Y-59975117D01*
X117124192Y-59712327D01*
X117266838Y-59368799D01*
X117267002Y-59180000D01*
X123024367Y-59180000D01*
X122890162Y-59503201D01*
X122889838Y-59875167D01*
X123031883Y-60218943D01*
X123294673Y-60482192D01*
X123638201Y-60624838D01*
X124010167Y-60625162D01*
X124353943Y-60483117D01*
X124387118Y-60450000D01*
X132080000Y-60450000D01*
X132370839Y-60392148D01*
X132617401Y-60227401D01*
X132895773Y-59949029D01*
X132895745Y-59981118D01*
X132926251Y-60054947D01*
X131288599Y-61692599D01*
X131123852Y-61939161D01*
X131066000Y-62230000D01*
X131066000Y-71821198D01*
X129479198Y-73408000D01*
X116894463Y-73408000D01*
X116862327Y-73375808D01*
X116518799Y-73233162D01*
X116146833Y-73232838D01*
X115803057Y-73374883D01*
X115539808Y-73637673D01*
X115397162Y-73981201D01*
X115396838Y-74353167D01*
X115538883Y-74696943D01*
X115801673Y-74960192D01*
X116145201Y-75102838D01*
X116517167Y-75103162D01*
X116860943Y-74961117D01*
X116894118Y-74928000D01*
X129794000Y-74928000D01*
X130084839Y-74870148D01*
X130331401Y-74705401D01*
X132363401Y-72673401D01*
X132528148Y-72426839D01*
X132586000Y-72136000D01*
X132586000Y-69116861D01*
X132884207Y-69116861D01*
X132910844Y-69701057D01*
X133083158Y-70117058D01*
X133332905Y-70195490D01*
X134186395Y-69342000D01*
X133332905Y-68488510D01*
X133083158Y-68566942D01*
X132884207Y-69116861D01*
X132586000Y-69116861D01*
X132586000Y-63263095D01*
X133512510Y-63263095D01*
X133590942Y-63512842D01*
X134140861Y-63711793D01*
X134725057Y-63685156D01*
X135141058Y-63512842D01*
X135219490Y-63263095D01*
X134366000Y-62409605D01*
X133512510Y-63263095D01*
X132586000Y-63263095D01*
X132586000Y-62544802D01*
X132894748Y-62236054D01*
X132910844Y-62589057D01*
X133083158Y-63005058D01*
X133332905Y-63083490D01*
X134186395Y-62230000D01*
X134172253Y-62215858D01*
X134351858Y-62036253D01*
X134366000Y-62050395D01*
X135219490Y-61196905D01*
X135144710Y-60958786D01*
X135197600Y-60936932D01*
X135611479Y-60523775D01*
X135765000Y-60154055D01*
X135765000Y-61735371D01*
X135648842Y-61454942D01*
X135399095Y-61376510D01*
X134545605Y-62230000D01*
X135399095Y-63083490D01*
X135648842Y-63005058D01*
X135765000Y-62683987D01*
X135765000Y-66338432D01*
X135612932Y-65970400D01*
X135199775Y-65556521D01*
X134659684Y-65332256D01*
X134074882Y-65331745D01*
X133534400Y-65555068D01*
X133120521Y-65968225D01*
X132896256Y-66508316D01*
X132895745Y-67093118D01*
X133119068Y-67633600D01*
X133532225Y-68047479D01*
X133587413Y-68070395D01*
X133512510Y-68308905D01*
X134366000Y-69162395D01*
X134380143Y-69148253D01*
X134559748Y-69327858D01*
X134545605Y-69342000D01*
X134559748Y-69356143D01*
X134380143Y-69535748D01*
X134366000Y-69521605D01*
X133512510Y-70375095D01*
X133590942Y-70624842D01*
X134140861Y-70823793D01*
X134725057Y-70797156D01*
X135130000Y-70629422D01*
X135130000Y-72639548D01*
X134659684Y-72444256D01*
X134074882Y-72443745D01*
X133534400Y-72667068D01*
X133120521Y-73080225D01*
X132896256Y-73620316D01*
X132895745Y-74205118D01*
X133119068Y-74745600D01*
X133532225Y-75159479D01*
X133587413Y-75182395D01*
X133512510Y-75420905D01*
X134366000Y-76274395D01*
X134380143Y-76260253D01*
X134559748Y-76439858D01*
X134545605Y-76454000D01*
X134559748Y-76468143D01*
X134380143Y-76647748D01*
X134366000Y-76633605D01*
X133512510Y-77487095D01*
X133590942Y-77736842D01*
X134140861Y-77935793D01*
X134725057Y-77909156D01*
X135130000Y-77741422D01*
X135130000Y-77790198D01*
X133670198Y-79250000D01*
X125354159Y-79250000D01*
X125792198Y-78957311D01*
X126103267Y-78491764D01*
X126212500Y-77942613D01*
X126212500Y-77886387D01*
X126103267Y-77337236D01*
X125792198Y-76871689D01*
X125326651Y-76560620D01*
X124777500Y-76451387D01*
X124228349Y-76560620D01*
X123762802Y-76871689D01*
X123507500Y-77253775D01*
X123252198Y-76871689D01*
X122786651Y-76560620D01*
X122237500Y-76451387D01*
X121688349Y-76560620D01*
X121222802Y-76871689D01*
X120967500Y-77253775D01*
X120712198Y-76871689D01*
X120246651Y-76560620D01*
X119697500Y-76451387D01*
X119148349Y-76560620D01*
X118682802Y-76871689D01*
X118427500Y-77253775D01*
X118172198Y-76871689D01*
X117706651Y-76560620D01*
X117157500Y-76451387D01*
X116608349Y-76560620D01*
X116142802Y-76871689D01*
X115887500Y-77253775D01*
X115632198Y-76871689D01*
X115166651Y-76560620D01*
X114617500Y-76451387D01*
X114068349Y-76560620D01*
X113602802Y-76871689D01*
X113347500Y-77253775D01*
X113092198Y-76871689D01*
X112626651Y-76560620D01*
X112077500Y-76451387D01*
X111528349Y-76560620D01*
X111062802Y-76871689D01*
X110807500Y-77253775D01*
X110552198Y-76871689D01*
X110086651Y-76560620D01*
X109537500Y-76451387D01*
X108988349Y-76560620D01*
X108522802Y-76871689D01*
X108267500Y-77253775D01*
X108012198Y-76871689D01*
X107546651Y-76560620D01*
X107463977Y-76544175D01*
X107148663Y-76228861D01*
X132884207Y-76228861D01*
X132910844Y-76813057D01*
X133083158Y-77229058D01*
X133332905Y-77307490D01*
X134186395Y-76454000D01*
X133332905Y-75600510D01*
X133083158Y-75678942D01*
X132884207Y-76228861D01*
X107148663Y-76228861D01*
X106582401Y-75662599D01*
X106335839Y-75497852D01*
X106045000Y-75440000D01*
X104454802Y-75440000D01*
X103170122Y-74155320D01*
X103170162Y-74109833D01*
X103028117Y-73766057D01*
X102765327Y-73502808D01*
X102421799Y-73360162D01*
X102360000Y-73360108D01*
X102360000Y-66989802D01*
X102374680Y-66975122D01*
X102420167Y-66975162D01*
X102763943Y-66833117D01*
X103027192Y-66570327D01*
X103169838Y-66226799D01*
X103170162Y-65854833D01*
X103028117Y-65511057D01*
X102765327Y-65247808D01*
X102421799Y-65105162D01*
X102049833Y-65104838D01*
X101706057Y-65246883D01*
X101442808Y-65509673D01*
X101300162Y-65853201D01*
X101300121Y-65900077D01*
X101062599Y-66137599D01*
X100897852Y-66384161D01*
X100840000Y-66675000D01*
X100840000Y-74676000D01*
X100897852Y-74966839D01*
X101062599Y-75213401D01*
X102395706Y-76546508D01*
X101917500Y-76451387D01*
X101368349Y-76560620D01*
X100902802Y-76871689D01*
X100647500Y-77253775D01*
X100392198Y-76871689D01*
X99926651Y-76560620D01*
X99377500Y-76451387D01*
X98828349Y-76560620D01*
X98362802Y-76871689D01*
X98107500Y-77253775D01*
X97852198Y-76871689D01*
X97386651Y-76560620D01*
X96837500Y-76451387D01*
X96288349Y-76560620D01*
X95822802Y-76871689D01*
X95567500Y-77253775D01*
X95312198Y-76871689D01*
X94846651Y-76560620D01*
X94297500Y-76451387D01*
X93748349Y-76560620D01*
X93282802Y-76871689D01*
X93012514Y-77276203D01*
X92909889Y-77059366D01*
X92494923Y-76683459D01*
X92106539Y-76522596D01*
X91884500Y-76644585D01*
X91884500Y-77787500D01*
X91904500Y-77787500D01*
X91904500Y-78041500D01*
X91884500Y-78041500D01*
X91884500Y-79184415D01*
X92106539Y-79306404D01*
X92494923Y-79145541D01*
X92909889Y-78769634D01*
X93012514Y-78552797D01*
X93282802Y-78957311D01*
X93748349Y-79268380D01*
X94297500Y-79377613D01*
X94846651Y-79268380D01*
X95312198Y-78957311D01*
X95567500Y-78575225D01*
X95822802Y-78957311D01*
X96288349Y-79268380D01*
X96837500Y-79377613D01*
X97386651Y-79268380D01*
X97852198Y-78957311D01*
X98107500Y-78575225D01*
X98362802Y-78957311D01*
X98828349Y-79268380D01*
X99377500Y-79377613D01*
X99926651Y-79268380D01*
X100392198Y-78957311D01*
X100647500Y-78575225D01*
X100902802Y-78957311D01*
X101368349Y-79268380D01*
X101917500Y-79377613D01*
X102466651Y-79268380D01*
X102932198Y-78957311D01*
X103187500Y-78575225D01*
X103442802Y-78957311D01*
X103908349Y-79268380D01*
X104457500Y-79377613D01*
X104887315Y-79292117D01*
X107412599Y-81817401D01*
X107659161Y-81982148D01*
X107950000Y-82040000D01*
X115649290Y-82040000D01*
X115502852Y-82259161D01*
X115445000Y-82550000D01*
X115445000Y-83856975D01*
X115309699Y-83721673D01*
X115076310Y-83625000D01*
X114585750Y-83625000D01*
X114427000Y-83783750D01*
X114427000Y-84883000D01*
X114447000Y-84883000D01*
X114447000Y-85137000D01*
X114427000Y-85137000D01*
X114427000Y-85157000D01*
X114173000Y-85157000D01*
X114173000Y-85137000D01*
X113173750Y-85137000D01*
X113015000Y-85295750D01*
X113015000Y-85886309D01*
X113111673Y-86119698D01*
X113290301Y-86298327D01*
X113426287Y-86354654D01*
X113414683Y-86356838D01*
X113198559Y-86495910D01*
X113053569Y-86708110D01*
X113002560Y-86960000D01*
X113002560Y-88460000D01*
X113046838Y-88695317D01*
X113185910Y-88911441D01*
X113398110Y-89056431D01*
X113650000Y-89107440D01*
X114950000Y-89107440D01*
X115185317Y-89063162D01*
X115401441Y-88924090D01*
X115546431Y-88711890D01*
X115597440Y-88460000D01*
X115597440Y-88448629D01*
X115780839Y-88412148D01*
X116027401Y-88247401D01*
X116689802Y-87585000D01*
X117597560Y-87585000D01*
X117597560Y-88685000D01*
X117641838Y-88920317D01*
X117780910Y-89136441D01*
X117985000Y-89275890D01*
X117985000Y-89535000D01*
X118042852Y-89825839D01*
X118207599Y-90072401D01*
X118444878Y-90309680D01*
X118444838Y-90355167D01*
X118586883Y-90698943D01*
X118849673Y-90962192D01*
X119193201Y-91104838D01*
X119565167Y-91105162D01*
X119908943Y-90963117D01*
X120172192Y-90700327D01*
X120314838Y-90356799D01*
X120315162Y-89984833D01*
X120173117Y-89641057D01*
X119910327Y-89377808D01*
X119566799Y-89235162D01*
X119562687Y-89235158D01*
X119696441Y-89149090D01*
X119841431Y-88936890D01*
X119892440Y-88685000D01*
X119892440Y-87585000D01*
X119848162Y-87349683D01*
X119709090Y-87133559D01*
X119496890Y-86988569D01*
X119245000Y-86937560D01*
X118245000Y-86937560D01*
X118009683Y-86981838D01*
X117793559Y-87120910D01*
X117648569Y-87333110D01*
X117597560Y-87585000D01*
X116689802Y-87585000D01*
X116742401Y-87532401D01*
X116907148Y-87285839D01*
X116965000Y-86995000D01*
X116965000Y-85344005D01*
X116970000Y-85345000D01*
X117187074Y-85345000D01*
X117191838Y-85370317D01*
X117330910Y-85586441D01*
X117543110Y-85731431D01*
X117795000Y-85782440D01*
X118595000Y-85782440D01*
X118750507Y-85753179D01*
X118895000Y-85782440D01*
X119695000Y-85782440D01*
X119930317Y-85738162D01*
X120146441Y-85599090D01*
X120291431Y-85386890D01*
X120342440Y-85135000D01*
X120342440Y-84035000D01*
X120298162Y-83799683D01*
X120159090Y-83583559D01*
X119946890Y-83438569D01*
X119695000Y-83387560D01*
X118895000Y-83387560D01*
X118739493Y-83416821D01*
X118595000Y-83387560D01*
X117795000Y-83387560D01*
X117559683Y-83431838D01*
X117343559Y-83570910D01*
X117216569Y-83756767D01*
X116965000Y-83505198D01*
X116965000Y-82864802D01*
X116979680Y-82850122D01*
X117025167Y-82850162D01*
X117368943Y-82708117D01*
X117632192Y-82445327D01*
X117774838Y-82101799D01*
X117774892Y-82040000D01*
X124145198Y-82040000D01*
X125429878Y-83324680D01*
X125429838Y-83370167D01*
X125571883Y-83713943D01*
X125834673Y-83977192D01*
X126178201Y-84119838D01*
X126550167Y-84120162D01*
X126893943Y-83978117D01*
X127157192Y-83715327D01*
X127299838Y-83371799D01*
X127300162Y-82999833D01*
X127158117Y-82656057D01*
X126895327Y-82392808D01*
X126551799Y-82250162D01*
X126504923Y-82250121D01*
X126294802Y-82040000D01*
X135890000Y-82040000D01*
X136180839Y-81982148D01*
X136400000Y-81835710D01*
X136400000Y-83505198D01*
X132177599Y-87727599D01*
X132012852Y-87974161D01*
X131955000Y-88265000D01*
X131955000Y-94935198D01*
X128590198Y-98300000D01*
X125657463Y-98300000D01*
X125625327Y-98267808D01*
X125281799Y-98125162D01*
X124909833Y-98124838D01*
X124566057Y-98266883D01*
X124302808Y-98529673D01*
X124160162Y-98873201D01*
X124159838Y-99245167D01*
X124301883Y-99588943D01*
X124564673Y-99852192D01*
X124908201Y-99994838D01*
X125280167Y-99995162D01*
X125623943Y-99853117D01*
X125657118Y-99820000D01*
X128905000Y-99820000D01*
X129195839Y-99762148D01*
X129442401Y-99597401D01*
X133252401Y-95787401D01*
X133417148Y-95540839D01*
X133475000Y-95250000D01*
X133475000Y-88579802D01*
X137697401Y-84357401D01*
X137862148Y-84110840D01*
X137920000Y-83820000D01*
X137920000Y-58420000D01*
X137862148Y-58129161D01*
X137697401Y-57882599D01*
X137062401Y-57247599D01*
X136815839Y-57082852D01*
X136525000Y-57025000D01*
X133985000Y-57025000D01*
X133694161Y-57082852D01*
X133447599Y-57247599D01*
X132316481Y-58378717D01*
X132316662Y-58171333D01*
X132174617Y-57827557D01*
X131911827Y-57564308D01*
X131568299Y-57421662D01*
X131196333Y-57421338D01*
X130852557Y-57563383D01*
X130755771Y-57660000D01*
X124125110Y-57660000D01*
X124125162Y-57599833D01*
X123983117Y-57256057D01*
X123720327Y-56992808D01*
X123376799Y-56850162D01*
X123004833Y-56849838D01*
X122661057Y-56991883D01*
X122627882Y-57025000D01*
X102743000Y-57025000D01*
X102452160Y-57082852D01*
X102205599Y-57247599D01*
X102047198Y-57406000D01*
X96326802Y-57406000D01*
X94771401Y-55850599D01*
X94524839Y-55685852D01*
X94234000Y-55628000D01*
X90932000Y-55628000D01*
X90641161Y-55685852D01*
X90394599Y-55850599D01*
X89632599Y-56612599D01*
X89467852Y-56859161D01*
X89410000Y-57150000D01*
X89410000Y-62429537D01*
X89377808Y-62461673D01*
X89235162Y-62805201D01*
X89234838Y-63177167D01*
X89376883Y-63520943D01*
X89410000Y-63554118D01*
X89410000Y-65979198D01*
X89014320Y-66374878D01*
X88968833Y-66374838D01*
X88898000Y-66404106D01*
X88898000Y-65913000D01*
X88840148Y-65622161D01*
X88675401Y-65375599D01*
X88167401Y-64867599D01*
X87920839Y-64702852D01*
X87630000Y-64645000D01*
X85725000Y-64645000D01*
X85434161Y-64702852D01*
X85187599Y-64867599D01*
X84775198Y-65280000D01*
X83350633Y-65280000D01*
X83484838Y-64956799D01*
X83485162Y-64584833D01*
X83394467Y-64365335D01*
X84134802Y-63625000D01*
X84527537Y-63625000D01*
X84559673Y-63657192D01*
X84903201Y-63799838D01*
X85275167Y-63800162D01*
X85618943Y-63658117D01*
X85882192Y-63395327D01*
X86024838Y-63051799D01*
X86025162Y-62679833D01*
X85883117Y-62336057D01*
X85620327Y-62072808D01*
X85276799Y-61930162D01*
X84904833Y-61929838D01*
X84561057Y-62071883D01*
X84527882Y-62105000D01*
X83820000Y-62105000D01*
X83529160Y-62162852D01*
X83282599Y-62327599D01*
X82012599Y-63597599D01*
X81847852Y-63844161D01*
X81790000Y-64135000D01*
X81790000Y-64207537D01*
X81757808Y-64239673D01*
X81615162Y-64583201D01*
X81614838Y-64955167D01*
X81749056Y-65280000D01*
X81207463Y-65280000D01*
X81175327Y-65247808D01*
X80831799Y-65105162D01*
X80784923Y-65105121D01*
X80547401Y-64867599D01*
X80300839Y-64702852D01*
X80010000Y-64645000D01*
X79375000Y-64645000D01*
X79283556Y-64663189D01*
X79442148Y-64425840D01*
X79500000Y-64135000D01*
X79500000Y-59369802D01*
X80324802Y-58545000D01*
X85162537Y-58545000D01*
X85194673Y-58577192D01*
X85538201Y-58719838D01*
X85910167Y-58720162D01*
X86253943Y-58578117D01*
X86517192Y-58315327D01*
X86659838Y-57971799D01*
X86660162Y-57599833D01*
X86518117Y-57256057D01*
X86255327Y-56992808D01*
X85911799Y-56850162D01*
X85539833Y-56849838D01*
X85196057Y-56991883D01*
X85162882Y-57025000D01*
X80010000Y-57025000D01*
X79719160Y-57082852D01*
X79472599Y-57247599D01*
X78202599Y-58517599D01*
X78037852Y-58764161D01*
X77980000Y-59055000D01*
X77980000Y-63820198D01*
X76327000Y-65473198D01*
X76327000Y-50927000D01*
X94293072Y-50927000D01*
X94165667Y-51233825D01*
M02*
