M48
INCH,TZ
T1C0.016
T2C0.031
T3C0.040
T4C0.042
T5C0.126
%
G90
G05
T1
X30250Y-21500
X30250Y-23000
X30250Y-32250
X30400Y-32700
X30500Y-26500
X30500Y-38750
X31250Y-28500
X31250Y-33250
X31250Y-40750
X31250Y-42750
X31750Y-23250
X31750Y-26000
X31750Y-30750
X32000Y-29000
X32000Y-29500
X32250Y-38000
X32500Y-25500
X32500Y-35750
X32750Y-30250
X32750Y-33750
X33000Y-37750
X33500Y-24750
X33500Y-26500
X33750Y-22750
X34250Y-26000
X34250Y-37750
X34700Y-26800
X34750Y-23250
X34750Y-28000
X35100Y-26500
X35500Y-24800
X36000Y-21000
X36000Y-22500
X36500Y-28000
X37250Y-29500
X37250Y-40500
X38250Y-24000
X38250Y-25500
X38250Y-27250
X39000Y-24000
X40250Y-26000
X40250Y-29250
X40400Y-23500
X40400Y-26800
X40500Y-39500
X41250Y-27250
X41500Y-41750
X41500Y-42250
X41750Y-26500
X41750Y-38250
X42250Y-37500
X42750Y-40500
X43750Y-24000
X43750Y-43000
X44000Y-25000
X44500Y-27750
X44750Y-26250
X45800Y-23300
X45800Y-29200
X46000Y-32250
X46500Y-26000
X46500Y-40250
X46750Y-38000
X47000Y-26000
X47000Y-35500
X47124Y-37874
X47250Y-42500
X47500Y-41000
X48000Y-23600
X48500Y-22750
X48750Y-23500
X49250Y-39000
X49250Y-40500
X49500Y-24250
X49750Y-32750
X50000Y-43000
X50250Y-29500
X50250Y-38250
X50500Y-24250
X50500Y-41219
X51000Y-34500
X51250Y-40500
X51725Y-22975
X52742Y-40492
X52750Y-42000
X53750Y-23250
X54000Y-40500
T2
X35125Y-30675
X35125Y-36675
X36125Y-30675
X36125Y-36675
X37125Y-30675
X37125Y-36675
X38125Y-30675
X38125Y-36675
X39125Y-30675
X39125Y-36675
X40125Y-30675
X40125Y-36675
X41125Y-30675
X41125Y-36675
X42125Y-30675
X42125Y-36675
X43125Y-30675
X43125Y-36675
X44125Y-30675
X44125Y-36675
X45125Y-30675
X45125Y-36675
X46125Y-30675
X46125Y-36675
X47125Y-30675
X47125Y-36675
X48125Y-30675
X48125Y-36675
X49125Y-30675
X49125Y-36675
T3
X33250Y-43800
X34250Y-43800
X35250Y-43800
X36250Y-43800
X37250Y-43800
X38250Y-43800
X39250Y-43800
X40250Y-43800
X41250Y-43800
X45500Y-44100
X46500Y-44100
X47500Y-44100
X48500Y-44100
X49500Y-44100
X50500Y-44100
X51500Y-44100
X52500Y-44100
T4
X48500Y-20950
X49500Y-20950
X52250Y-20950
X52900Y-23500
X52900Y-24500
X52900Y-26300
X52900Y-27300
X52900Y-29100
X52900Y-30100
X53250Y-20950
T5
X31496Y-57874
X38583Y-20472
X46063Y-20472
X53150Y-57874
T0
M30
