G04 #@! TF.FileFunction,Copper,L1,Top,Signal*
%FSLAX46Y46*%
G04 Gerber Fmt 4.6, Leading zero omitted, Abs format (unit mm)*
G04 Created by KiCad (PCBNEW 4.0.7) date 04/10/18 20:33:08*
%MOMM*%
%LPD*%
G01*
G04 APERTURE LIST*
%ADD10C,0.100000*%
%ADD11C,1.670000*%
%ADD12R,0.650000X1.560000*%
%ADD13R,1.600000X1.600000*%
%ADD14O,1.600000X1.600000*%
%ADD15R,1.250000X1.500000*%
%ADD16R,1.500000X1.250000*%
%ADD17R,1.300000X1.500000*%
%ADD18C,2.800000*%
%ADD19C,1.780000*%
%ADD20C,2.700000*%
%ADD21R,1.560000X0.650000*%
%ADD22R,2.320000X0.350000*%
%ADD23R,0.350000X2.320000*%
%ADD24C,6.400000*%
%ADD25R,0.600000X1.100000*%
%ADD26C,0.600000*%
%ADD27C,0.250000*%
%ADD28C,0.254000*%
G04 APERTURE END LIST*
D10*
D11*
X125730000Y-53213000D03*
X123190000Y-53213000D03*
D12*
X119695000Y-97710000D03*
X118745000Y-97710000D03*
X117795000Y-97710000D03*
X117795000Y-100410000D03*
X119695000Y-100410000D03*
X118745000Y-100410000D03*
D13*
X89217500Y-93154500D03*
D14*
X122237500Y-77914500D03*
X91757500Y-93154500D03*
X119697500Y-77914500D03*
X94297500Y-93154500D03*
X117157500Y-77914500D03*
X96837500Y-93154500D03*
X114617500Y-77914500D03*
X99377500Y-93154500D03*
X112077500Y-77914500D03*
X101917500Y-93154500D03*
X109537500Y-77914500D03*
X104457500Y-93154500D03*
X106997500Y-77914500D03*
X106997500Y-93154500D03*
X104457500Y-77914500D03*
X109537500Y-93154500D03*
X101917500Y-77914500D03*
X112077500Y-93154500D03*
X99377500Y-77914500D03*
X114617500Y-93154500D03*
X96837500Y-77914500D03*
X117157500Y-93154500D03*
X94297500Y-77914500D03*
X119697500Y-93154500D03*
X91757500Y-77914500D03*
X122237500Y-93154500D03*
X89217500Y-77914500D03*
X124777500Y-93154500D03*
X124777500Y-77914500D03*
D15*
X80645000Y-82530000D03*
X80645000Y-80030000D03*
X80645000Y-64115000D03*
X80645000Y-61615000D03*
X121920000Y-64242000D03*
X121920000Y-61742000D03*
D16*
X81895000Y-52705000D03*
X79395000Y-52705000D03*
X81895000Y-56515000D03*
X79395000Y-56515000D03*
D15*
X128524000Y-66782000D03*
X128524000Y-64282000D03*
X125476000Y-66782000D03*
X125476000Y-64282000D03*
D16*
X106954000Y-60960000D03*
X109454000Y-60960000D03*
X106954000Y-65024000D03*
X109454000Y-65024000D03*
X92730000Y-69088000D03*
X95230000Y-69088000D03*
X92730000Y-73152000D03*
X95230000Y-73152000D03*
X106954000Y-69088000D03*
X109454000Y-69088000D03*
X106954000Y-73152000D03*
X109454000Y-73152000D03*
X92730000Y-60960000D03*
X95230000Y-60960000D03*
X92730000Y-65024000D03*
X95230000Y-65024000D03*
X116225000Y-107950000D03*
X118725000Y-107950000D03*
X116225000Y-104140000D03*
X118725000Y-104140000D03*
X123845000Y-97155000D03*
X126345000Y-97155000D03*
X123845000Y-100965000D03*
X126345000Y-100965000D03*
X131465000Y-104140000D03*
X133965000Y-104140000D03*
X131465000Y-107950000D03*
X133965000Y-107950000D03*
D11*
X135255000Y-53213000D03*
X132715000Y-53213000D03*
X134366000Y-76454000D03*
X134366000Y-73914000D03*
X134366000Y-69342000D03*
X134366000Y-66802000D03*
X134366000Y-62230000D03*
X134366000Y-59690000D03*
D17*
X98425000Y-100410000D03*
X98425000Y-97710000D03*
X101600000Y-100410000D03*
X101600000Y-97710000D03*
X123444000Y-69770000D03*
X123444000Y-72470000D03*
X119888000Y-69770000D03*
X119888000Y-72470000D03*
X116332000Y-69770000D03*
X116332000Y-72470000D03*
D18*
X104775000Y-140716000D03*
X84455000Y-140716000D03*
D19*
X104775000Y-111252000D03*
X102235000Y-111252000D03*
X99695000Y-111252000D03*
X97155000Y-111252000D03*
X94615000Y-111252000D03*
X92075000Y-111252000D03*
X89535000Y-111252000D03*
X86995000Y-111252000D03*
X84455000Y-111252000D03*
X133350000Y-112014000D03*
X130810000Y-112014000D03*
X125730000Y-112014000D03*
X128270000Y-112014000D03*
X123190000Y-112014000D03*
X120650000Y-112014000D03*
X118110000Y-112014000D03*
X115570000Y-112014000D03*
D20*
X114300000Y-139700000D03*
X134620000Y-139700000D03*
X134620000Y-119380000D03*
X114300000Y-119380000D03*
D17*
X88900000Y-100410000D03*
X88900000Y-97710000D03*
X92075000Y-100410000D03*
X92075000Y-97710000D03*
X104775000Y-100410000D03*
X104775000Y-97710000D03*
X107950000Y-100410000D03*
X107950000Y-97710000D03*
D21*
X88726000Y-55306000D03*
X88726000Y-54356000D03*
X88726000Y-53406000D03*
X86026000Y-53406000D03*
X86026000Y-55306000D03*
D12*
X126685000Y-72470000D03*
X127635000Y-72470000D03*
X128585000Y-72470000D03*
X128585000Y-69770000D03*
X126685000Y-69770000D03*
X103058000Y-61642000D03*
X102108000Y-61642000D03*
X101158000Y-61642000D03*
X101158000Y-64342000D03*
X103058000Y-64342000D03*
X102108000Y-64342000D03*
X88834000Y-69770000D03*
X87884000Y-69770000D03*
X86934000Y-69770000D03*
X86934000Y-72470000D03*
X88834000Y-72470000D03*
X87884000Y-72470000D03*
X103058000Y-69770000D03*
X102108000Y-69770000D03*
X101158000Y-69770000D03*
X101158000Y-72470000D03*
X103058000Y-72470000D03*
X102108000Y-72470000D03*
X88834000Y-61642000D03*
X87884000Y-61642000D03*
X86934000Y-61642000D03*
X86934000Y-64342000D03*
X88834000Y-64342000D03*
X87884000Y-64342000D03*
X110175000Y-107395000D03*
X111125000Y-107395000D03*
X112075000Y-107395000D03*
X112075000Y-104695000D03*
X110175000Y-104695000D03*
X111125000Y-104695000D03*
X127315000Y-104695000D03*
X126365000Y-104695000D03*
X125415000Y-104695000D03*
X125415000Y-107395000D03*
X127315000Y-107395000D03*
X126365000Y-107395000D03*
D22*
X78850000Y-88765000D03*
X78850000Y-88265000D03*
X78850000Y-87765000D03*
D23*
X79895000Y-86220000D03*
X80395000Y-86220000D03*
X80895000Y-86220000D03*
X81395000Y-86220000D03*
D22*
X82440000Y-88765000D03*
X82440000Y-88265000D03*
X82440000Y-87765000D03*
D23*
X79895000Y-90310000D03*
X80395000Y-90310000D03*
X80895000Y-90310000D03*
X81395000Y-90310000D03*
X80145000Y-68055000D03*
X80645000Y-68055000D03*
X81145000Y-68055000D03*
D22*
X82690000Y-69100000D03*
X82690000Y-69600000D03*
X82690000Y-70100000D03*
X82690000Y-70600000D03*
D23*
X80145000Y-71645000D03*
X80645000Y-71645000D03*
X81145000Y-71645000D03*
D22*
X78600000Y-69100000D03*
X78600000Y-69600000D03*
X78600000Y-70100000D03*
X78600000Y-70600000D03*
D24*
X117000000Y-52000000D03*
X98000000Y-52000000D03*
X80000000Y-147000000D03*
X135000000Y-147000000D03*
D25*
X116128000Y-64092000D03*
X117378000Y-64092000D03*
X118628000Y-64092000D03*
X119878000Y-64092000D03*
X119878000Y-61892000D03*
X118628000Y-61892000D03*
X117378000Y-61892000D03*
X116128000Y-61892000D03*
D17*
X83820000Y-98345000D03*
X83820000Y-101045000D03*
X79375000Y-101045000D03*
X79375000Y-98345000D03*
D26*
X108585000Y-102870000D03*
X94615000Y-102870000D03*
X116840000Y-81915000D03*
X81915000Y-96520000D03*
X128270000Y-61595000D03*
X125730000Y-61595000D03*
X121920000Y-59944000D03*
X97155000Y-60960000D03*
X83185000Y-85725000D03*
X81280000Y-73660000D03*
X97155000Y-64770000D03*
X111125000Y-60960000D03*
X118745000Y-96520000D03*
X127635000Y-97155000D03*
X120015000Y-107950000D03*
X111125000Y-109220000D03*
X133985000Y-106680000D03*
X133965000Y-102850000D03*
X125095000Y-102870000D03*
X80645000Y-59055000D03*
X99060000Y-60960000D03*
X102616000Y-68072000D03*
X127635000Y-74930000D03*
X120650000Y-104140000D03*
X97155000Y-69215000D03*
X94615000Y-74930000D03*
X88265000Y-71120000D03*
X80645000Y-78105000D03*
X81280000Y-74930000D03*
X88265000Y-59055000D03*
X113030000Y-70485000D03*
X119380000Y-66040000D03*
X118110000Y-66040000D03*
X111760000Y-63500000D03*
X76835000Y-58420000D03*
X76835000Y-54610000D03*
X91440000Y-53340000D03*
X116332000Y-74168000D03*
X136525000Y-59055000D03*
X102235000Y-74295000D03*
X102235000Y-66040000D03*
X126365000Y-83185000D03*
X119380000Y-90170000D03*
X129540000Y-87630000D03*
X131381500Y-58356500D03*
X91440000Y-57150000D03*
X130175000Y-102870000D03*
X125095000Y-99060000D03*
X123825000Y-59690000D03*
X123190000Y-57785000D03*
X82550000Y-64770000D03*
X90170000Y-62992000D03*
X89154000Y-67310000D03*
X85090000Y-62865000D03*
X106045000Y-67310000D03*
X113665000Y-66675000D03*
X105410000Y-106045000D03*
X128270000Y-104695000D03*
X137160000Y-102870000D03*
X106045000Y-97155000D03*
X119695000Y-96200000D03*
X102870000Y-100330000D03*
X107315000Y-95250000D03*
X105410000Y-107315000D03*
X76835000Y-81915000D03*
X77470000Y-67310000D03*
X85725000Y-57785000D03*
X77216000Y-83058000D03*
X88138000Y-68072000D03*
X80645000Y-66040000D03*
X127000000Y-109220000D03*
X79375000Y-108585000D03*
X83185000Y-76835000D03*
X79375000Y-103505000D03*
X118110000Y-102235000D03*
X79375000Y-72390000D03*
X86995000Y-95885000D03*
X86995000Y-66040000D03*
X85090000Y-67310000D03*
X104775000Y-69215000D03*
X116332000Y-59182000D03*
X102616000Y-59690000D03*
X92710000Y-71120000D03*
X82550000Y-90805000D03*
X83820000Y-95885000D03*
X77470000Y-98425000D03*
X79375000Y-84455000D03*
D27*
X90170000Y-104775000D02*
X94615000Y-104775000D01*
X97155000Y-99060000D02*
X97790000Y-99060000D01*
X95885000Y-100330000D02*
X97155000Y-99060000D01*
X95885000Y-103505000D02*
X95885000Y-100330000D01*
X94615000Y-104775000D02*
X95885000Y-103505000D01*
X88900000Y-102870000D02*
X88900000Y-103505000D01*
X88900000Y-103505000D02*
X90170000Y-104775000D01*
X92710000Y-108585000D02*
X94488000Y-108585000D01*
X88900000Y-104775000D02*
X92710000Y-108585000D01*
X88900000Y-103505000D02*
X88900000Y-104775000D01*
X94488000Y-108585000D02*
X97155000Y-111252000D01*
X97790000Y-99060000D02*
X104140000Y-99060000D01*
X104140000Y-99060000D02*
X104775000Y-99695000D01*
X104775000Y-99695000D02*
X104775000Y-100410000D01*
X88900000Y-102870000D02*
X88900000Y-102235000D01*
X88900000Y-102235000D02*
X88900000Y-100410000D01*
X110490000Y-101600000D02*
X109300000Y-100410000D01*
X110490000Y-102870000D02*
X110490000Y-101600000D01*
X110490000Y-102870000D02*
X111125000Y-103505000D01*
X108585000Y-102870000D02*
X110490000Y-102870000D01*
X107950000Y-100410000D02*
X109300000Y-100410000D01*
X111125000Y-103505000D02*
X111125000Y-104695000D01*
X94615000Y-102870000D02*
X92155000Y-100410000D01*
X92155000Y-100410000D02*
X92075000Y-100410000D01*
X92312500Y-99965500D02*
X91757500Y-99965500D01*
X91782900Y-99990900D02*
X91757500Y-99965500D01*
X116840000Y-81915000D02*
X117157500Y-81597500D01*
X117157500Y-81597500D02*
X117157500Y-77914500D01*
X117204500Y-77867500D02*
X117157500Y-77914500D01*
X78740000Y-92075000D02*
X78740000Y-93980000D01*
X79895000Y-90920000D02*
X78740000Y-92075000D01*
X81280000Y-95885000D02*
X81915000Y-96520000D01*
X80645000Y-95885000D02*
X81280000Y-95885000D01*
X78740000Y-93980000D02*
X80645000Y-95885000D01*
X128524000Y-64282000D02*
X128524000Y-61849000D01*
X128524000Y-61849000D02*
X128270000Y-61595000D01*
X125476000Y-64282000D02*
X125476000Y-61849000D01*
X125476000Y-61849000D02*
X125730000Y-61595000D01*
X121920000Y-61742000D02*
X121920000Y-59944000D01*
X97155000Y-60960000D02*
X95230000Y-60960000D01*
X82440000Y-87765000D02*
X82440000Y-86470000D01*
X82440000Y-86470000D02*
X83185000Y-85725000D01*
X82440000Y-88265000D02*
X82440000Y-87765000D01*
X81145000Y-73525000D02*
X81280000Y-73660000D01*
X95230000Y-65024000D02*
X96901000Y-65024000D01*
X96901000Y-65024000D02*
X97155000Y-64770000D01*
X109454000Y-60960000D02*
X111125000Y-60960000D01*
X118745000Y-97710000D02*
X118745000Y-96520000D01*
X126345000Y-97155000D02*
X127635000Y-97155000D01*
X111125000Y-107395000D02*
X111125000Y-109220000D01*
X133965000Y-107950000D02*
X133965000Y-106700000D01*
X133965000Y-106700000D02*
X133985000Y-106680000D01*
X126365000Y-102235000D02*
X125730000Y-102235000D01*
X125730000Y-102235000D02*
X125095000Y-102870000D01*
X126365000Y-104695000D02*
X126365000Y-102235000D01*
X126365000Y-102235000D02*
X126365000Y-100985000D01*
X133965000Y-104140000D02*
X133965000Y-102850000D01*
X80645000Y-61615000D02*
X80645000Y-59055000D01*
X102108000Y-61642000D02*
X102108000Y-60452000D01*
X99822000Y-60198000D02*
X99060000Y-60960000D01*
X101854000Y-60198000D02*
X99822000Y-60198000D01*
X102108000Y-60452000D02*
X101854000Y-60198000D01*
X102108000Y-69770000D02*
X102108000Y-68580000D01*
X102108000Y-68580000D02*
X102616000Y-68072000D01*
X127635000Y-72470000D02*
X127635000Y-74930000D01*
X95230000Y-60960000D02*
X95230000Y-60940000D01*
X118725000Y-107950000D02*
X120015000Y-107950000D01*
X118725000Y-104140000D02*
X120650000Y-104140000D01*
X111125000Y-69088000D02*
X111125000Y-64135000D01*
X111125000Y-64135000D02*
X111760000Y-63500000D01*
X111125000Y-64135000D02*
X111760000Y-63500000D01*
X95230000Y-69088000D02*
X97028000Y-69088000D01*
X97028000Y-69088000D02*
X97155000Y-69215000D01*
X95230000Y-73152000D02*
X95230000Y-74315000D01*
X95230000Y-74315000D02*
X94615000Y-74930000D01*
X87884000Y-69770000D02*
X87884000Y-70739000D01*
X87884000Y-70739000D02*
X88265000Y-71120000D01*
X80645000Y-80030000D02*
X80645000Y-78105000D01*
X126365000Y-100985000D02*
X126345000Y-100965000D01*
X79895000Y-90310000D02*
X79895000Y-90920000D01*
X81145000Y-71645000D02*
X81145000Y-73525000D01*
X80645000Y-74295000D02*
X81280000Y-74930000D01*
X80645000Y-71645000D02*
X80645000Y-74295000D01*
X87884000Y-61642000D02*
X87884000Y-59436000D01*
X87884000Y-59436000D02*
X88265000Y-59055000D01*
X109454000Y-69088000D02*
X111125000Y-69088000D01*
X109454000Y-73152000D02*
X110363000Y-73152000D01*
X110363000Y-73152000D02*
X113030000Y-70485000D01*
X119878000Y-64092000D02*
X119878000Y-65542000D01*
X119878000Y-65542000D02*
X119380000Y-66040000D01*
X118628000Y-64092000D02*
X118628000Y-65522000D01*
X118628000Y-65522000D02*
X118110000Y-66040000D01*
X109454000Y-65024000D02*
X110236000Y-65024000D01*
X110236000Y-65024000D02*
X111760000Y-63500000D01*
X79395000Y-56515000D02*
X78740000Y-56515000D01*
X78740000Y-56515000D02*
X76835000Y-58420000D01*
X79395000Y-52705000D02*
X78740000Y-52705000D01*
X78740000Y-52705000D02*
X76835000Y-54610000D01*
X88726000Y-54356000D02*
X90424000Y-54356000D01*
X90424000Y-54356000D02*
X91440000Y-53340000D01*
X120015000Y-76200000D02*
X120015000Y-75899000D01*
X120015000Y-75899000D02*
X123444000Y-72470000D01*
X120015000Y-76200000D02*
X129540000Y-76200000D01*
X131826000Y-73914000D02*
X134366000Y-73914000D01*
X129540000Y-76200000D02*
X131826000Y-73914000D01*
X123444000Y-72470000D02*
X123444000Y-72771000D01*
X120015000Y-76200000D02*
X116332000Y-76200000D01*
X116332000Y-76200000D02*
X114617500Y-77914500D01*
X114744500Y-77787500D02*
X114617500Y-77914500D01*
X98425000Y-97710000D02*
X98425000Y-94107000D01*
X98425000Y-94107000D02*
X99377500Y-93154500D01*
X119888000Y-72470000D02*
X119300000Y-72470000D01*
X119300000Y-72470000D02*
X116840000Y-74930000D01*
X116840000Y-74930000D02*
X115062000Y-74930000D01*
X115062000Y-74930000D02*
X112077500Y-77914500D01*
X112204500Y-77787500D02*
X112077500Y-77914500D01*
X101600000Y-97710000D02*
X101600000Y-93472000D01*
X101600000Y-93472000D02*
X101917500Y-93154500D01*
X116332000Y-72470000D02*
X116332000Y-74168000D01*
X116332000Y-74168000D02*
X116205000Y-74295000D01*
X116205000Y-74295000D02*
X114300000Y-74295000D01*
X114300000Y-74295000D02*
X111760000Y-76835000D01*
X111760000Y-76835000D02*
X110617000Y-76835000D01*
X110617000Y-76835000D02*
X109537500Y-77914500D01*
X104775000Y-97710000D02*
X104775000Y-93472000D01*
X104775000Y-93472000D02*
X104457500Y-93154500D01*
X136525000Y-54610000D02*
X135255000Y-53340000D01*
X136525000Y-59055000D02*
X136525000Y-54610000D01*
X135255000Y-53340000D02*
X135255000Y-53213000D01*
X102108000Y-72470000D02*
X102108000Y-74168000D01*
X102108000Y-74168000D02*
X102235000Y-74295000D01*
X107950000Y-97710000D02*
X107950000Y-94107000D01*
X107950000Y-94107000D02*
X106997500Y-93154500D01*
X126365000Y-83185000D02*
X135890000Y-83185000D01*
X135890000Y-56388000D02*
X132715000Y-53213000D01*
X135890000Y-59690000D02*
X135890000Y-56388000D01*
X136525000Y-60325000D02*
X135890000Y-59690000D01*
X136525000Y-82550000D02*
X136525000Y-60325000D01*
X135890000Y-83185000D02*
X136525000Y-82550000D01*
X102235000Y-66040000D02*
X102108000Y-65913000D01*
X102108000Y-65913000D02*
X102108000Y-64342000D01*
X102235000Y-64469000D02*
X102108000Y-64342000D01*
X105410000Y-73025000D02*
X106680000Y-71755000D01*
X106680000Y-71755000D02*
X107061000Y-71755000D01*
X108204000Y-66274000D02*
X106954000Y-65024000D01*
X108204000Y-70612000D02*
X108204000Y-66274000D01*
X107061000Y-71755000D02*
X108204000Y-70612000D01*
X112075000Y-104695000D02*
X114380000Y-104695000D01*
X114935000Y-104140000D02*
X116225000Y-104140000D01*
X114380000Y-104695000D02*
X114935000Y-104140000D01*
X117795000Y-97710000D02*
X117795000Y-98745000D01*
X119695000Y-99375000D02*
X119695000Y-100410000D01*
X119380000Y-99060000D02*
X119695000Y-99375000D01*
X118110000Y-99060000D02*
X119380000Y-99060000D01*
X117795000Y-98745000D02*
X118110000Y-99060000D01*
X117795000Y-97710000D02*
X117795000Y-95565000D01*
X122555000Y-95250000D02*
X123845000Y-96540000D01*
X118110000Y-95250000D02*
X122555000Y-95250000D01*
X117795000Y-95565000D02*
X118110000Y-95250000D01*
X123845000Y-96540000D02*
X123845000Y-97155000D01*
X101158000Y-64342000D02*
X101158000Y-67117000D01*
X104668000Y-67310000D02*
X106954000Y-65024000D01*
X101351000Y-67310000D02*
X104668000Y-67310000D01*
X101158000Y-67117000D02*
X101351000Y-67310000D01*
X106045000Y-73025000D02*
X106827000Y-73025000D01*
X106827000Y-73025000D02*
X106954000Y-73152000D01*
X104775000Y-73660000D02*
X105410000Y-73025000D01*
X105410000Y-73025000D02*
X106045000Y-73025000D01*
X101600000Y-75565000D02*
X102870000Y-75565000D01*
X102870000Y-75565000D02*
X104775000Y-73660000D01*
X127315000Y-107395000D02*
X128825000Y-107395000D01*
X128825000Y-107395000D02*
X129560000Y-106660000D01*
X129560000Y-106660000D02*
X129560000Y-106045000D01*
X125415000Y-104695000D02*
X125415000Y-105730000D01*
X125415000Y-105730000D02*
X125730000Y-106045000D01*
X125730000Y-106045000D02*
X129560000Y-106045000D01*
X129560000Y-106045000D02*
X131465000Y-104140000D01*
X101158000Y-72470000D02*
X101158000Y-75123000D01*
X101158000Y-75123000D02*
X101600000Y-75565000D01*
X135890000Y-114300000D02*
X136525000Y-113665000D01*
X135255000Y-93345000D02*
X129540000Y-87630000D01*
X135255000Y-93980000D02*
X135255000Y-93345000D01*
X136525000Y-95250000D02*
X135255000Y-93980000D01*
X136525000Y-113665000D02*
X136525000Y-95250000D01*
X121920000Y-114300000D02*
X135890000Y-114300000D01*
X120650000Y-113030000D02*
X121920000Y-114300000D01*
X120650000Y-112014000D02*
X120650000Y-113030000D01*
X128585000Y-68072000D02*
X128585000Y-66843000D01*
X128585000Y-66843000D02*
X128524000Y-66782000D01*
X125730000Y-53213000D02*
X128905000Y-55880000D01*
X128905000Y-55880000D02*
X131381500Y-58356500D01*
X131381500Y-58356500D02*
X131318000Y-58420000D01*
X130556000Y-68072000D02*
X128585000Y-68072000D01*
X131318000Y-67310000D02*
X130556000Y-68072000D01*
X131318000Y-58420000D02*
X131318000Y-67310000D01*
X128585000Y-69770000D02*
X128585000Y-68072000D01*
X128585000Y-66975000D02*
X128905000Y-66655000D01*
X91440000Y-57150000D02*
X91440000Y-55245000D01*
X81895000Y-52705000D02*
X83820000Y-52705000D01*
X83820000Y-52705000D02*
X84455000Y-52070000D01*
X84455000Y-52070000D02*
X91440000Y-52070000D01*
X91440000Y-52070000D02*
X92710000Y-53340000D01*
X92710000Y-53340000D02*
X92710000Y-53975000D01*
X92710000Y-53975000D02*
X91440000Y-55245000D01*
X91440000Y-55245000D02*
X91379000Y-55306000D01*
X91379000Y-55306000D02*
X88726000Y-55306000D01*
X127000000Y-91440000D02*
X127000000Y-92710000D01*
X130175000Y-95885000D02*
X130175000Y-97155000D01*
X127000000Y-92710000D02*
X130175000Y-95885000D01*
X130175000Y-102870000D02*
X130175000Y-97155000D01*
X125095000Y-86360000D02*
X125095000Y-78232000D01*
X125095000Y-78232000D02*
X124777500Y-77914500D01*
X125095000Y-89535000D02*
X125095000Y-86360000D01*
X127000000Y-91440000D02*
X125095000Y-89535000D01*
X126365000Y-66655000D02*
X125603000Y-66655000D01*
X125603000Y-66655000D02*
X125476000Y-66782000D01*
X125095000Y-99060000D02*
X123190000Y-99060000D01*
X124587000Y-68072000D02*
X123825000Y-67310000D01*
X123825000Y-67310000D02*
X123825000Y-59690000D01*
X123825000Y-59690000D02*
X123825000Y-58420000D01*
X123825000Y-58420000D02*
X123190000Y-57785000D01*
X124587000Y-68072000D02*
X125222000Y-68072000D01*
X78850000Y-87765000D02*
X78621000Y-87765000D01*
X78621000Y-87765000D02*
X78232000Y-87376000D01*
X78232000Y-84582000D02*
X78994000Y-83820000D01*
X78232000Y-87376000D02*
X78232000Y-84582000D01*
X123825000Y-107950000D02*
X123825000Y-106680000D01*
X123825000Y-106680000D02*
X121285000Y-104140000D01*
X81915000Y-65405000D02*
X82550000Y-64770000D01*
X80895000Y-92325000D02*
X80895000Y-93595000D01*
X117795000Y-100410000D02*
X117395000Y-100410000D01*
X117475000Y-102870000D02*
X118745000Y-102870000D01*
X116840000Y-102235000D02*
X117475000Y-102870000D01*
X116840000Y-100965000D02*
X116840000Y-102235000D01*
X117395000Y-100410000D02*
X116840000Y-100965000D01*
X121285000Y-102870000D02*
X121920000Y-102870000D01*
X121920000Y-102870000D02*
X122555000Y-102235000D01*
X122555000Y-102235000D02*
X122555000Y-99695000D01*
X122555000Y-99695000D02*
X123190000Y-99060000D01*
X121285000Y-102870000D02*
X121285000Y-104140000D01*
X123845000Y-99715000D02*
X123845000Y-100965000D01*
X123190000Y-99060000D02*
X123845000Y-99715000D01*
X82550000Y-93980000D02*
X83185000Y-93980000D01*
X82690000Y-70600000D02*
X82690000Y-74790000D01*
X90170000Y-62992000D02*
X90170000Y-62865000D01*
X125222000Y-68072000D02*
X126685000Y-68072000D01*
X90170000Y-68580000D02*
X90170000Y-68326000D01*
X90170000Y-68326000D02*
X89154000Y-67310000D01*
X86934000Y-69770000D02*
X86934000Y-67752000D01*
X87376000Y-67310000D02*
X88392000Y-67310000D01*
X86934000Y-67752000D02*
X87376000Y-67310000D01*
X90170000Y-72470000D02*
X90170000Y-68580000D01*
X90090000Y-72470000D02*
X92730000Y-69830000D01*
X126685000Y-69770000D02*
X126685000Y-68072000D01*
X126685000Y-68072000D02*
X126685000Y-66975000D01*
X126685000Y-66975000D02*
X126365000Y-66655000D01*
X126365000Y-66655000D02*
X126365000Y-66655000D01*
X117795000Y-100410000D02*
X117795000Y-101280000D01*
X118745000Y-102870000D02*
X121285000Y-102870000D01*
X123825000Y-107950000D02*
X125730000Y-109855000D01*
X125415000Y-107395000D02*
X125415000Y-109540000D01*
X125415000Y-109540000D02*
X125730000Y-109855000D01*
X125730000Y-109855000D02*
X129560000Y-109855000D01*
X129560000Y-109855000D02*
X131465000Y-107950000D01*
X80895000Y-92325000D02*
X80895000Y-90310000D01*
X84455000Y-88265000D02*
X84455000Y-92710000D01*
X84455000Y-92710000D02*
X83185000Y-93980000D01*
X83185000Y-93980000D02*
X81280000Y-93980000D01*
X81280000Y-93980000D02*
X80895000Y-93595000D01*
X80895000Y-93595000D02*
X80395000Y-93095000D01*
X80395000Y-93095000D02*
X80395000Y-90310000D01*
X78994000Y-83820000D02*
X81395000Y-83820000D01*
X82440000Y-88765000D02*
X83955000Y-88765000D01*
X83955000Y-88765000D02*
X84455000Y-88265000D01*
X84455000Y-88265000D02*
X84455000Y-83820000D01*
X84455000Y-83820000D02*
X83185000Y-82550000D01*
X81395000Y-84340000D02*
X81395000Y-83820000D01*
X81395000Y-83820000D02*
X81395000Y-83280000D01*
X81395000Y-83280000D02*
X80645000Y-82530000D01*
X81915000Y-75565000D02*
X81915000Y-76835000D01*
X81915000Y-76835000D02*
X83185000Y-78105000D01*
X83185000Y-78105000D02*
X83185000Y-82550000D01*
X83185000Y-82550000D02*
X81395000Y-84340000D01*
X81395000Y-84340000D02*
X81395000Y-84340000D01*
X81395000Y-84340000D02*
X81395000Y-86220000D01*
X80010000Y-75565000D02*
X81915000Y-75565000D01*
X81915000Y-75565000D02*
X82690000Y-74790000D01*
X76835000Y-69850000D02*
X76835000Y-74930000D01*
X76835000Y-74930000D02*
X77470000Y-75565000D01*
X77470000Y-75565000D02*
X80010000Y-75565000D01*
X80010000Y-75565000D02*
X80145000Y-75430000D01*
X80145000Y-75430000D02*
X80145000Y-71645000D01*
X76835000Y-69215000D02*
X76835000Y-69850000D01*
X76835000Y-69850000D02*
X77085000Y-70100000D01*
X77085000Y-70100000D02*
X78600000Y-70100000D01*
X76835000Y-68580000D02*
X76835000Y-69215000D01*
X76835000Y-69215000D02*
X77220000Y-69600000D01*
X77220000Y-69600000D02*
X78600000Y-69600000D01*
X81915000Y-65405000D02*
X78105000Y-65405000D01*
X78105000Y-65405000D02*
X76835000Y-66675000D01*
X76835000Y-66675000D02*
X76835000Y-68580000D01*
X76835000Y-68580000D02*
X77355000Y-69100000D01*
X77355000Y-69100000D02*
X78600000Y-69100000D01*
X86995000Y-62865000D02*
X85090000Y-62865000D01*
X81915000Y-66040000D02*
X81915000Y-65405000D01*
X81915000Y-65405000D02*
X81915000Y-65385000D01*
X81915000Y-65385000D02*
X80645000Y-64115000D01*
X81145000Y-68055000D02*
X81145000Y-66810000D01*
X81145000Y-66810000D02*
X81915000Y-66040000D01*
X88834000Y-72470000D02*
X90170000Y-72470000D01*
X90170000Y-72470000D02*
X90090000Y-72470000D01*
X92730000Y-69830000D02*
X92730000Y-69088000D01*
X86934000Y-69770000D02*
X86934000Y-70424000D01*
X89154000Y-67310000D02*
X88392000Y-67310000D01*
X88392000Y-67310000D02*
X88265000Y-67310000D01*
X88265000Y-62865000D02*
X90170000Y-62865000D01*
X90170000Y-62865000D02*
X90805000Y-62865000D01*
X90805000Y-62865000D02*
X92710000Y-60960000D01*
X92710000Y-60960000D02*
X92730000Y-60960000D01*
X86934000Y-61642000D02*
X86934000Y-62804000D01*
X86934000Y-62804000D02*
X86995000Y-62865000D01*
X86995000Y-62865000D02*
X88265000Y-62865000D01*
X88265000Y-62865000D02*
X88834000Y-63434000D01*
X88834000Y-63434000D02*
X88834000Y-64342000D01*
X85725000Y-73660000D02*
X85725000Y-66675000D01*
X120904000Y-66675000D02*
X121285000Y-66675000D01*
X121920000Y-66040000D02*
X121920000Y-64242000D01*
X121285000Y-66675000D02*
X121920000Y-66040000D01*
X99060000Y-64770000D02*
X99060000Y-64135000D01*
X101600000Y-62865000D02*
X100330000Y-62865000D01*
X99060000Y-64770000D02*
X99060000Y-66675000D01*
X99060000Y-64135000D02*
X100330000Y-62865000D01*
X99615000Y-69770000D02*
X99488000Y-69770000D01*
X101158000Y-69770000D02*
X99615000Y-69770000D01*
X99060000Y-69342000D02*
X99060000Y-67818000D01*
X99488000Y-69770000D02*
X99060000Y-69342000D01*
X104775000Y-63139000D02*
X110851000Y-63139000D01*
X110851000Y-63139000D02*
X111125000Y-62865000D01*
X111125000Y-62865000D02*
X113030000Y-62865000D01*
X105410000Y-68580000D02*
X105410000Y-67945000D01*
X105410000Y-67945000D02*
X106045000Y-67310000D01*
X99060000Y-67945000D02*
X99060000Y-67818000D01*
X99060000Y-67818000D02*
X99060000Y-66675000D01*
X113030000Y-62865000D02*
X113665000Y-63500000D01*
X113665000Y-63500000D02*
X113665000Y-66675000D01*
X105410000Y-69850000D02*
X105410000Y-68580000D01*
X103058000Y-72470000D02*
X104060000Y-72470000D01*
X104060000Y-72470000D02*
X105410000Y-71120000D01*
X105410000Y-71120000D02*
X105410000Y-69850000D01*
X105410000Y-69850000D02*
X106172000Y-69088000D01*
X106172000Y-69088000D02*
X106954000Y-69088000D01*
X85725000Y-73660000D02*
X86934000Y-74869000D01*
X116205000Y-66675000D02*
X120904000Y-66675000D01*
X120904000Y-66675000D02*
X121011000Y-66675000D01*
X114935000Y-66675000D02*
X116205000Y-66675000D01*
X116205000Y-66675000D02*
X117378000Y-65502000D01*
X117378000Y-65502000D02*
X117378000Y-64092000D01*
X113665000Y-66675000D02*
X114935000Y-66675000D01*
X114935000Y-66675000D02*
X116128000Y-65482000D01*
X116128000Y-65482000D02*
X116128000Y-64092000D01*
X104775000Y-63139000D02*
X102509000Y-63139000D01*
X102509000Y-63139000D02*
X102235000Y-62865000D01*
X104775000Y-63139000D02*
X106954000Y-60960000D01*
X101158000Y-61642000D02*
X101158000Y-62423000D01*
X101158000Y-62423000D02*
X101600000Y-62865000D01*
X101600000Y-62865000D02*
X102235000Y-62865000D01*
X102235000Y-62865000D02*
X103058000Y-63688000D01*
X103058000Y-63688000D02*
X103058000Y-64342000D01*
X90805000Y-66675000D02*
X99060000Y-66675000D01*
X86934000Y-72470000D02*
X86934000Y-74869000D01*
X86934000Y-74869000D02*
X87630000Y-75565000D01*
X87630000Y-75565000D02*
X91440000Y-75565000D01*
X91440000Y-75565000D02*
X92730000Y-74275000D01*
X92730000Y-74275000D02*
X92730000Y-73152000D01*
X83820000Y-64135000D02*
X83820000Y-65405000D01*
X83820000Y-65405000D02*
X85090000Y-66675000D01*
X85090000Y-66675000D02*
X85725000Y-66675000D01*
X85725000Y-66675000D02*
X90805000Y-66675000D01*
X90805000Y-66675000D02*
X91079000Y-66675000D01*
X91079000Y-66675000D02*
X92730000Y-65024000D01*
X83820000Y-55306000D02*
X83820000Y-64135000D01*
X83820000Y-64135000D02*
X84027000Y-64342000D01*
X84027000Y-64342000D02*
X86934000Y-64342000D01*
X86026000Y-55306000D02*
X83820000Y-55306000D01*
X83820000Y-55306000D02*
X83104000Y-55306000D01*
X83104000Y-55306000D02*
X81895000Y-56515000D01*
X111760000Y-106045000D02*
X115570000Y-106045000D01*
X115570000Y-106045000D02*
X116225000Y-106700000D01*
X116225000Y-106700000D02*
X116225000Y-107950000D01*
X110490000Y-106045000D02*
X105410000Y-106045000D01*
X110175000Y-104695000D02*
X110175000Y-105730000D01*
X110175000Y-105730000D02*
X110490000Y-106045000D01*
X110490000Y-106045000D02*
X111760000Y-106045000D01*
X111760000Y-106045000D02*
X112075000Y-106360000D01*
X112075000Y-106360000D02*
X112075000Y-107395000D01*
X127315000Y-104695000D02*
X128270000Y-104695000D01*
X136525000Y-114935000D02*
X137160000Y-114300000D01*
X98425000Y-100410000D02*
X98425000Y-102870000D01*
X98425000Y-104775000D02*
X102870000Y-109220000D01*
X102870000Y-109220000D02*
X106045000Y-109220000D01*
X106045000Y-109220000D02*
X111760000Y-114935000D01*
X111760000Y-114935000D02*
X136525000Y-114935000D01*
X98425000Y-102870000D02*
X98425000Y-104775000D01*
X137160000Y-114300000D02*
X137160000Y-102870000D01*
X107315000Y-95250000D02*
X106680000Y-95250000D01*
X106045000Y-95885000D02*
X106680000Y-95250000D01*
X106045000Y-95885000D02*
X106045000Y-97155000D01*
X119695000Y-97710000D02*
X119695000Y-96520000D01*
X119695000Y-96520000D02*
X119695000Y-96200000D01*
X102790000Y-100410000D02*
X102870000Y-100330000D01*
X102790000Y-100410000D02*
X101600000Y-100410000D01*
X110175000Y-107395000D02*
X105490000Y-107395000D01*
X105490000Y-107395000D02*
X105410000Y-107315000D01*
X76454000Y-82550000D02*
X76454000Y-82296000D01*
X76454000Y-87884000D02*
X76454000Y-82550000D01*
X77216000Y-88646000D02*
X76454000Y-87884000D01*
X78850000Y-88765000D02*
X77335000Y-88765000D01*
X77335000Y-88765000D02*
X77216000Y-88646000D01*
X76454000Y-82296000D02*
X76835000Y-81915000D01*
X78740000Y-66675000D02*
X78105000Y-66675000D01*
X80145000Y-68055000D02*
X80145000Y-66810000D01*
X80010000Y-66675000D02*
X80145000Y-66810000D01*
X78765000Y-66675000D02*
X80010000Y-66675000D01*
X78740000Y-66675000D02*
X78765000Y-66675000D01*
X78105000Y-66675000D02*
X77470000Y-67310000D01*
X88834000Y-58354000D02*
X88265000Y-57785000D01*
X88265000Y-57785000D02*
X85725000Y-57785000D01*
X88834000Y-61642000D02*
X88834000Y-58354000D01*
X78850000Y-88265000D02*
X77597000Y-88265000D01*
X77216000Y-87884000D02*
X77216000Y-83058000D01*
X77597000Y-88265000D02*
X77216000Y-87884000D01*
X88834000Y-68834000D02*
X88834000Y-68768000D01*
X88834000Y-68768000D02*
X88138000Y-68072000D01*
X88834000Y-69770000D02*
X88834000Y-68834000D01*
X80645000Y-66040000D02*
X80645000Y-68055000D01*
X79375000Y-103505000D02*
X79375000Y-108585000D01*
X127000000Y-109220000D02*
X126365000Y-108585000D01*
X126365000Y-108585000D02*
X126365000Y-107395000D01*
X83185000Y-76835000D02*
X83185000Y-73660000D01*
X83185000Y-73660000D02*
X83820000Y-73025000D01*
X84070000Y-70100000D02*
X84455000Y-70485000D01*
X82690000Y-70100000D02*
X84070000Y-70100000D01*
X84455000Y-72390000D02*
X83820000Y-73025000D01*
X84455000Y-70485000D02*
X84455000Y-72390000D01*
X79375000Y-101045000D02*
X79375000Y-103505000D01*
X118110000Y-102235000D02*
X118745000Y-101600000D01*
X118745000Y-101600000D02*
X118745000Y-100410000D01*
X78600000Y-71120000D02*
X78600000Y-71615000D01*
X78600000Y-71615000D02*
X79375000Y-72390000D01*
X78600000Y-70600000D02*
X78600000Y-71120000D01*
X83820000Y-101045000D02*
X85645000Y-101045000D01*
X86360000Y-96520000D02*
X86995000Y-95885000D01*
X86360000Y-100330000D02*
X86360000Y-96520000D01*
X85645000Y-101045000D02*
X86360000Y-100330000D01*
X86995000Y-66040000D02*
X87884000Y-65151000D01*
X87884000Y-64342000D02*
X87884000Y-65151000D01*
X85090000Y-67310000D02*
X85090000Y-74295000D01*
X102235000Y-71120000D02*
X104140000Y-71120000D01*
X86995000Y-76200000D02*
X85090000Y-74295000D01*
X95885000Y-76200000D02*
X86995000Y-76200000D01*
X97155000Y-74930000D02*
X95885000Y-76200000D01*
X97155000Y-73660000D02*
X97155000Y-74930000D01*
X99695000Y-71120000D02*
X97155000Y-73660000D01*
X102235000Y-71120000D02*
X99695000Y-71120000D01*
X104140000Y-71120000D02*
X104775000Y-70485000D01*
X104775000Y-70485000D02*
X104775000Y-69215000D01*
X104775000Y-69215000D02*
X103613000Y-69215000D01*
X103613000Y-69215000D02*
X103058000Y-69770000D01*
X117378000Y-60228000D02*
X116332000Y-59182000D01*
X117378000Y-60452000D02*
X117378000Y-60228000D01*
X117378000Y-61892000D02*
X117378000Y-60452000D01*
X103058000Y-69770000D02*
X103058000Y-70297000D01*
X103058000Y-60452000D02*
X103058000Y-60132000D01*
X103058000Y-60132000D02*
X102616000Y-59690000D01*
X92710000Y-71120000D02*
X89535000Y-74295000D01*
X89535000Y-74295000D02*
X88265000Y-74295000D01*
X88265000Y-74295000D02*
X87884000Y-73914000D01*
X87884000Y-73914000D02*
X87884000Y-72470000D01*
X103058000Y-61642000D02*
X103458000Y-61642000D01*
X103458000Y-61642000D02*
X106045000Y-59055000D01*
X106045000Y-59055000D02*
X114935000Y-59055000D01*
X114935000Y-59055000D02*
X116128000Y-60248000D01*
X116128000Y-60248000D02*
X116128000Y-61892000D01*
X103058000Y-61642000D02*
X103058000Y-60452000D01*
X88900000Y-97710000D02*
X88900000Y-93472000D01*
X88900000Y-93472000D02*
X89217500Y-93154500D01*
X92075000Y-97710000D02*
X92075000Y-93472000D01*
X92075000Y-93472000D02*
X91757500Y-93154500D01*
X81395000Y-90310000D02*
X82055000Y-90310000D01*
X82055000Y-90310000D02*
X82550000Y-90805000D01*
X83820000Y-98345000D02*
X83820000Y-95885000D01*
X77470000Y-98425000D02*
X77550000Y-98345000D01*
X79375000Y-98345000D02*
X77550000Y-98345000D01*
X80895000Y-84705000D02*
X80645000Y-84455000D01*
X80645000Y-84455000D02*
X79375000Y-84455000D01*
X80895000Y-86220000D02*
X80895000Y-84705000D01*
D28*
G36*
X94165667Y-51233825D02*
X94164336Y-52759482D01*
X94746950Y-54169515D01*
X95824811Y-55249259D01*
X97233825Y-55834333D01*
X98759482Y-55835664D01*
X100169515Y-55253050D01*
X101249259Y-54175189D01*
X101834333Y-52766175D01*
X101835664Y-51240518D01*
X101706121Y-50927000D01*
X113293072Y-50927000D01*
X113165667Y-51233825D01*
X113164336Y-52759482D01*
X113746950Y-54169515D01*
X114824811Y-55249259D01*
X116233825Y-55834333D01*
X117759482Y-55835664D01*
X119169515Y-55253050D01*
X120249259Y-54175189D01*
X120834333Y-52766175D01*
X120835664Y-51240518D01*
X120706121Y-50927000D01*
X138303000Y-50927000D01*
X138303000Y-116078000D01*
X76327000Y-116078000D01*
X76327000Y-111554011D01*
X82929735Y-111554011D01*
X83161414Y-112114715D01*
X83590029Y-112544079D01*
X84150328Y-112776735D01*
X84757011Y-112777265D01*
X85317715Y-112545586D01*
X85725335Y-112138677D01*
X86130029Y-112544079D01*
X86690328Y-112776735D01*
X87297011Y-112777265D01*
X87857715Y-112545586D01*
X88265335Y-112138677D01*
X88670029Y-112544079D01*
X89230328Y-112776735D01*
X89837011Y-112777265D01*
X90397715Y-112545586D01*
X90805335Y-112138677D01*
X91210029Y-112544079D01*
X91770328Y-112776735D01*
X92377011Y-112777265D01*
X92937715Y-112545586D01*
X93345335Y-112138677D01*
X93750029Y-112544079D01*
X94310328Y-112776735D01*
X94917011Y-112777265D01*
X95477715Y-112545586D01*
X95885335Y-112138677D01*
X96290029Y-112544079D01*
X96850328Y-112776735D01*
X97457011Y-112777265D01*
X98017715Y-112545586D01*
X98425335Y-112138677D01*
X98830029Y-112544079D01*
X99390328Y-112776735D01*
X99997011Y-112777265D01*
X100557715Y-112545586D01*
X100778765Y-112324921D01*
X101341684Y-112324921D01*
X101426865Y-112580368D01*
X101996725Y-112788512D01*
X102602860Y-112762736D01*
X103043135Y-112580368D01*
X103128316Y-112324921D01*
X102235000Y-111431605D01*
X101341684Y-112324921D01*
X100778765Y-112324921D01*
X100987079Y-112116971D01*
X100998025Y-112090611D01*
X101162079Y-112145316D01*
X102055395Y-111252000D01*
X101162079Y-110358684D01*
X100998483Y-110413237D01*
X100988586Y-110389285D01*
X100559971Y-109959921D01*
X99999672Y-109727265D01*
X99392989Y-109726735D01*
X98832285Y-109958414D01*
X98424665Y-110365323D01*
X98019971Y-109959921D01*
X97459672Y-109727265D01*
X96852989Y-109726735D01*
X96747942Y-109770140D01*
X95025401Y-108047599D01*
X94778839Y-107882852D01*
X94488000Y-107825000D01*
X93024802Y-107825000D01*
X90734802Y-105535000D01*
X94615000Y-105535000D01*
X94905839Y-105477148D01*
X95152401Y-105312401D01*
X96422401Y-104042401D01*
X96587148Y-103795840D01*
X96645000Y-103505000D01*
X96645000Y-100644802D01*
X97127560Y-100162242D01*
X97127560Y-101160000D01*
X97171838Y-101395317D01*
X97310910Y-101611441D01*
X97523110Y-101756431D01*
X97665000Y-101785164D01*
X97665000Y-104775000D01*
X97722852Y-105065839D01*
X97887599Y-105312401D01*
X102298134Y-109722936D01*
X101867140Y-109741264D01*
X101426865Y-109923632D01*
X101341684Y-110179079D01*
X102235000Y-111072395D01*
X103128316Y-110179079D01*
X103061931Y-109980000D01*
X103890661Y-109980000D01*
X103482921Y-110387029D01*
X103471975Y-110413389D01*
X103307921Y-110358684D01*
X102414605Y-111252000D01*
X103307921Y-112145316D01*
X103471517Y-112090763D01*
X103481414Y-112114715D01*
X103910029Y-112544079D01*
X104470328Y-112776735D01*
X105077011Y-112777265D01*
X105637715Y-112545586D01*
X106067079Y-112116971D01*
X106299735Y-111556672D01*
X106300265Y-110949989D01*
X106068586Y-110389285D01*
X105660015Y-109980000D01*
X105730198Y-109980000D01*
X111222599Y-115472402D01*
X111469161Y-115637148D01*
X111760000Y-115695000D01*
X136525000Y-115695000D01*
X136815839Y-115637148D01*
X137062401Y-115472401D01*
X137697401Y-114837401D01*
X137862148Y-114590839D01*
X137920000Y-114300000D01*
X137920000Y-103432463D01*
X137952192Y-103400327D01*
X138094838Y-103056799D01*
X138095162Y-102684833D01*
X137953117Y-102341057D01*
X137690327Y-102077808D01*
X137346799Y-101935162D01*
X137285000Y-101935108D01*
X137285000Y-95250000D01*
X137227148Y-94959161D01*
X137227148Y-94959160D01*
X137062401Y-94712599D01*
X136015000Y-93665198D01*
X136015000Y-93345000D01*
X135957148Y-93054161D01*
X135921520Y-93000840D01*
X135792402Y-92807599D01*
X130475122Y-87490320D01*
X130475162Y-87444833D01*
X130333117Y-87101057D01*
X130070327Y-86837808D01*
X129726799Y-86695162D01*
X129354833Y-86694838D01*
X129011057Y-86836883D01*
X128747808Y-87099673D01*
X128605162Y-87443201D01*
X128604838Y-87815167D01*
X128746883Y-88158943D01*
X129009673Y-88422192D01*
X129353201Y-88564838D01*
X129400077Y-88564879D01*
X134495000Y-93659803D01*
X134495000Y-93980000D01*
X134552852Y-94270839D01*
X134717599Y-94517401D01*
X135765000Y-95564802D01*
X135765000Y-113350198D01*
X135575198Y-113540000D01*
X133358920Y-113540000D01*
X133717860Y-113524736D01*
X134158135Y-113342368D01*
X134243316Y-113086921D01*
X133350000Y-112193605D01*
X132456684Y-113086921D01*
X132541865Y-113342368D01*
X133082945Y-113540000D01*
X122234802Y-113540000D01*
X121757765Y-113062963D01*
X121920335Y-112900677D01*
X122325029Y-113306079D01*
X122885328Y-113538735D01*
X123492011Y-113539265D01*
X124052715Y-113307586D01*
X124460335Y-112900677D01*
X124865029Y-113306079D01*
X125425328Y-113538735D01*
X126032011Y-113539265D01*
X126592715Y-113307586D01*
X127000335Y-112900677D01*
X127405029Y-113306079D01*
X127965328Y-113538735D01*
X128572011Y-113539265D01*
X129132715Y-113307586D01*
X129540335Y-112900677D01*
X129945029Y-113306079D01*
X130505328Y-113538735D01*
X131112011Y-113539265D01*
X131672715Y-113307586D01*
X132102079Y-112878971D01*
X132113025Y-112852611D01*
X132277079Y-112907316D01*
X133170395Y-112014000D01*
X133529605Y-112014000D01*
X134422921Y-112907316D01*
X134678368Y-112822135D01*
X134886512Y-112252275D01*
X134860736Y-111646140D01*
X134678368Y-111205865D01*
X134422921Y-111120684D01*
X133529605Y-112014000D01*
X133170395Y-112014000D01*
X132277079Y-111120684D01*
X132113483Y-111175237D01*
X132103586Y-111151285D01*
X131893747Y-110941079D01*
X132456684Y-110941079D01*
X133350000Y-111834395D01*
X134243316Y-110941079D01*
X134158135Y-110685632D01*
X133588275Y-110477488D01*
X132982140Y-110503264D01*
X132541865Y-110685632D01*
X132456684Y-110941079D01*
X131893747Y-110941079D01*
X131674971Y-110721921D01*
X131114672Y-110489265D01*
X130507989Y-110488735D01*
X129947285Y-110720414D01*
X129539665Y-111127323D01*
X129134971Y-110721921D01*
X128877476Y-110615000D01*
X129560000Y-110615000D01*
X129850839Y-110557148D01*
X130097401Y-110392401D01*
X131267362Y-109222440D01*
X132215000Y-109222440D01*
X132450317Y-109178162D01*
X132666441Y-109039090D01*
X132714134Y-108969289D01*
X132750910Y-109026441D01*
X132963110Y-109171431D01*
X133215000Y-109222440D01*
X134715000Y-109222440D01*
X134950317Y-109178162D01*
X135166441Y-109039090D01*
X135311431Y-108826890D01*
X135362440Y-108575000D01*
X135362440Y-107325000D01*
X135318162Y-107089683D01*
X135179090Y-106873559D01*
X134966890Y-106728569D01*
X134919967Y-106719067D01*
X134920162Y-106494833D01*
X134778117Y-106151057D01*
X134515327Y-105887808D01*
X134171799Y-105745162D01*
X133799833Y-105744838D01*
X133456057Y-105886883D01*
X133192808Y-106149673D01*
X133050162Y-106493201D01*
X133049974Y-106708612D01*
X132979683Y-106721838D01*
X132763559Y-106860910D01*
X132715866Y-106930711D01*
X132679090Y-106873559D01*
X132466890Y-106728569D01*
X132215000Y-106677560D01*
X130715000Y-106677560D01*
X130479683Y-106721838D01*
X130263559Y-106860910D01*
X130118569Y-107073110D01*
X130067560Y-107325000D01*
X130067560Y-108272638D01*
X129245198Y-109095000D01*
X127935110Y-109095000D01*
X127935162Y-109034833D01*
X127831163Y-108783137D01*
X127999699Y-108713327D01*
X128178327Y-108534698D01*
X128275000Y-108301309D01*
X128275000Y-107680750D01*
X128116250Y-107522000D01*
X127442000Y-107522000D01*
X127442000Y-107542000D01*
X127337440Y-107542000D01*
X127337440Y-107248000D01*
X127442000Y-107248000D01*
X127442000Y-107268000D01*
X128116250Y-107268000D01*
X128275000Y-107109250D01*
X128275000Y-106488691D01*
X128178327Y-106255302D01*
X127999699Y-106076673D01*
X127925435Y-106045912D01*
X128091441Y-105939090D01*
X128236431Y-105726890D01*
X128256054Y-105629989D01*
X128455167Y-105630162D01*
X128798943Y-105488117D01*
X129062192Y-105225327D01*
X129204838Y-104881799D01*
X129205162Y-104509833D01*
X129170420Y-104425750D01*
X130080000Y-104425750D01*
X130080000Y-104891310D01*
X130176673Y-105124699D01*
X130355302Y-105303327D01*
X130588691Y-105400000D01*
X131179250Y-105400000D01*
X131338000Y-105241250D01*
X131338000Y-104267000D01*
X130238750Y-104267000D01*
X130080000Y-104425750D01*
X129170420Y-104425750D01*
X129063117Y-104166057D01*
X128800327Y-103902808D01*
X128456799Y-103760162D01*
X128258273Y-103759989D01*
X128243162Y-103679683D01*
X128104090Y-103463559D01*
X127891890Y-103318569D01*
X127640000Y-103267560D01*
X127125000Y-103267560D01*
X127125000Y-102231795D01*
X127330317Y-102193162D01*
X127546441Y-102054090D01*
X127691431Y-101841890D01*
X127742440Y-101590000D01*
X127742440Y-100340000D01*
X127698162Y-100104683D01*
X127559090Y-99888559D01*
X127346890Y-99743569D01*
X127095000Y-99692560D01*
X125784780Y-99692560D01*
X125887192Y-99590327D01*
X126029838Y-99246799D01*
X126030162Y-98874833D01*
X125888117Y-98531057D01*
X125784681Y-98427440D01*
X127095000Y-98427440D01*
X127330317Y-98383162D01*
X127546441Y-98244090D01*
X127651716Y-98090015D01*
X127820167Y-98090162D01*
X128163943Y-97948117D01*
X128427192Y-97685327D01*
X128569838Y-97341799D01*
X128570162Y-96969833D01*
X128428117Y-96626057D01*
X128165327Y-96362808D01*
X127821799Y-96220162D01*
X127650113Y-96220012D01*
X127559090Y-96078559D01*
X127346890Y-95933569D01*
X127095000Y-95882560D01*
X125595000Y-95882560D01*
X125359683Y-95926838D01*
X125143559Y-96065910D01*
X125097031Y-96134006D01*
X124954698Y-95991673D01*
X124721309Y-95895000D01*
X124130750Y-95895000D01*
X123972000Y-96053750D01*
X123972000Y-97028000D01*
X123992000Y-97028000D01*
X123992000Y-97282000D01*
X123972000Y-97282000D01*
X123972000Y-97302000D01*
X123718000Y-97302000D01*
X123718000Y-97282000D01*
X122618750Y-97282000D01*
X122460000Y-97440750D01*
X122460000Y-97906310D01*
X122556673Y-98139699D01*
X122735302Y-98318327D01*
X122872971Y-98375351D01*
X122652599Y-98522599D01*
X122017599Y-99157599D01*
X121852852Y-99404161D01*
X121795000Y-99695000D01*
X121795000Y-101920198D01*
X121605198Y-102110000D01*
X119300710Y-102110000D01*
X119447148Y-101890839D01*
X119472906Y-101761344D01*
X119568000Y-101666250D01*
X119568000Y-101585949D01*
X119666431Y-101441890D01*
X119717440Y-101190000D01*
X119717440Y-100537000D01*
X119822000Y-100537000D01*
X119822000Y-101666250D01*
X119980750Y-101825000D01*
X120146310Y-101825000D01*
X120379699Y-101728327D01*
X120558327Y-101549698D01*
X120655000Y-101316309D01*
X120655000Y-100695750D01*
X120496250Y-100537000D01*
X119822000Y-100537000D01*
X119717440Y-100537000D01*
X119717440Y-100263000D01*
X119822000Y-100263000D01*
X119822000Y-100283000D01*
X120496250Y-100283000D01*
X120655000Y-100124250D01*
X120655000Y-99503691D01*
X120558327Y-99270302D01*
X120379699Y-99091673D01*
X120305435Y-99060912D01*
X120471441Y-98954090D01*
X120616431Y-98741890D01*
X120667440Y-98490000D01*
X120667440Y-96930000D01*
X120623162Y-96694683D01*
X120549516Y-96580234D01*
X120622824Y-96403690D01*
X122460000Y-96403690D01*
X122460000Y-96869250D01*
X122618750Y-97028000D01*
X123718000Y-97028000D01*
X123718000Y-96053750D01*
X123559250Y-95895000D01*
X122968691Y-95895000D01*
X122735302Y-95991673D01*
X122556673Y-96170301D01*
X122460000Y-96403690D01*
X120622824Y-96403690D01*
X120629838Y-96386799D01*
X120630162Y-96014833D01*
X120488117Y-95671057D01*
X120225327Y-95407808D01*
X119881799Y-95265162D01*
X119509833Y-95264838D01*
X119166057Y-95406883D01*
X118971113Y-95601487D01*
X118931799Y-95585162D01*
X118559833Y-95584838D01*
X118216057Y-95726883D01*
X117952808Y-95989673D01*
X117810162Y-96333201D01*
X117809838Y-96705167D01*
X117815376Y-96718569D01*
X117772560Y-96930000D01*
X117772560Y-97857000D01*
X117668000Y-97857000D01*
X117668000Y-97837000D01*
X116993750Y-97837000D01*
X116835000Y-97995750D01*
X116835000Y-98616309D01*
X116931673Y-98849698D01*
X117110301Y-99028327D01*
X117184565Y-99059088D01*
X117018559Y-99165910D01*
X116873569Y-99378110D01*
X116822560Y-99630000D01*
X116822560Y-99907638D01*
X116302599Y-100427599D01*
X116137852Y-100674161D01*
X116080000Y-100965000D01*
X116080000Y-102235000D01*
X116137852Y-102525839D01*
X116302599Y-102772401D01*
X116460474Y-102930276D01*
X116352000Y-103038750D01*
X116352000Y-104013000D01*
X116372000Y-104013000D01*
X116372000Y-104267000D01*
X116352000Y-104267000D01*
X116352000Y-105241250D01*
X116510750Y-105400000D01*
X117101309Y-105400000D01*
X117334698Y-105303327D01*
X117475936Y-105162090D01*
X117510910Y-105216441D01*
X117723110Y-105361431D01*
X117975000Y-105412440D01*
X119475000Y-105412440D01*
X119710317Y-105368162D01*
X119926441Y-105229090D01*
X120071431Y-105016890D01*
X120093826Y-104906300D01*
X120119673Y-104932192D01*
X120463201Y-105074838D01*
X120835167Y-105075162D01*
X121054665Y-104984467D01*
X123065000Y-106994802D01*
X123065000Y-107950000D01*
X123122852Y-108240839D01*
X123287599Y-108487401D01*
X125192599Y-110392401D01*
X125371627Y-110512024D01*
X124867285Y-110720414D01*
X124459665Y-111127323D01*
X124054971Y-110721921D01*
X123494672Y-110489265D01*
X122887989Y-110488735D01*
X122327285Y-110720414D01*
X121919665Y-111127323D01*
X121514971Y-110721921D01*
X120954672Y-110489265D01*
X120347989Y-110488735D01*
X119787285Y-110720414D01*
X119379665Y-111127323D01*
X118974971Y-110721921D01*
X118414672Y-110489265D01*
X117807989Y-110488735D01*
X117247285Y-110720414D01*
X116839665Y-111127323D01*
X116434971Y-110721921D01*
X115874672Y-110489265D01*
X115267989Y-110488735D01*
X114707285Y-110720414D01*
X114277921Y-111149029D01*
X114045265Y-111709328D01*
X114044735Y-112316011D01*
X114276414Y-112876715D01*
X114705029Y-113306079D01*
X115265328Y-113538735D01*
X115872011Y-113539265D01*
X116432715Y-113307586D01*
X116840335Y-112900677D01*
X117245029Y-113306079D01*
X117805328Y-113538735D01*
X118412011Y-113539265D01*
X118972715Y-113307586D01*
X119380335Y-112900677D01*
X119785029Y-113306079D01*
X119996725Y-113393983D01*
X120112599Y-113567401D01*
X120720198Y-114175000D01*
X112074803Y-114175000D01*
X106582401Y-108682599D01*
X106335839Y-108517852D01*
X106045000Y-108460000D01*
X103184802Y-108460000D01*
X99185000Y-104460198D01*
X99185000Y-101786742D01*
X99310317Y-101763162D01*
X99526441Y-101624090D01*
X99671431Y-101411890D01*
X99722440Y-101160000D01*
X99722440Y-99820000D01*
X100302560Y-99820000D01*
X100302560Y-101160000D01*
X100346838Y-101395317D01*
X100485910Y-101611441D01*
X100698110Y-101756431D01*
X100950000Y-101807440D01*
X102250000Y-101807440D01*
X102485317Y-101763162D01*
X102701441Y-101624090D01*
X102846431Y-101411890D01*
X102876176Y-101265006D01*
X103055167Y-101265162D01*
X103398943Y-101123117D01*
X103477560Y-101044637D01*
X103477560Y-101160000D01*
X103521838Y-101395317D01*
X103660910Y-101611441D01*
X103873110Y-101756431D01*
X104125000Y-101807440D01*
X105425000Y-101807440D01*
X105660317Y-101763162D01*
X105876441Y-101624090D01*
X106021431Y-101411890D01*
X106072440Y-101160000D01*
X106072440Y-99660000D01*
X106028162Y-99424683D01*
X105889090Y-99208559D01*
X105676890Y-99063569D01*
X105663803Y-99060919D01*
X105876441Y-98924090D01*
X106021431Y-98711890D01*
X106072440Y-98460000D01*
X106072440Y-98090025D01*
X106230167Y-98090162D01*
X106573943Y-97948117D01*
X106652560Y-97869637D01*
X106652560Y-98460000D01*
X106696838Y-98695317D01*
X106835910Y-98911441D01*
X107048110Y-99056431D01*
X107061197Y-99059081D01*
X106848559Y-99195910D01*
X106703569Y-99408110D01*
X106652560Y-99660000D01*
X106652560Y-101160000D01*
X106696838Y-101395317D01*
X106835910Y-101611441D01*
X107048110Y-101756431D01*
X107300000Y-101807440D01*
X108600000Y-101807440D01*
X108835317Y-101763162D01*
X109051441Y-101624090D01*
X109196431Y-101411890D01*
X109201594Y-101386396D01*
X109730000Y-101914802D01*
X109730000Y-102110000D01*
X109147463Y-102110000D01*
X109115327Y-102077808D01*
X108771799Y-101935162D01*
X108399833Y-101934838D01*
X108056057Y-102076883D01*
X107792808Y-102339673D01*
X107650162Y-102683201D01*
X107649838Y-103055167D01*
X107791883Y-103398943D01*
X108054673Y-103662192D01*
X108398201Y-103804838D01*
X108770167Y-103805162D01*
X109113943Y-103663117D01*
X109147118Y-103630000D01*
X109276192Y-103630000D01*
X109253569Y-103663110D01*
X109202560Y-103915000D01*
X109202560Y-105285000D01*
X105972463Y-105285000D01*
X105940327Y-105252808D01*
X105596799Y-105110162D01*
X105224833Y-105109838D01*
X104881057Y-105251883D01*
X104617808Y-105514673D01*
X104475162Y-105858201D01*
X104474838Y-106230167D01*
X104616883Y-106573943D01*
X104722710Y-106679954D01*
X104617808Y-106784673D01*
X104475162Y-107128201D01*
X104474838Y-107500167D01*
X104616883Y-107843943D01*
X104879673Y-108107192D01*
X105223201Y-108249838D01*
X105595167Y-108250162D01*
X105825477Y-108155000D01*
X109202560Y-108155000D01*
X109202560Y-108175000D01*
X109246838Y-108410317D01*
X109385910Y-108626441D01*
X109598110Y-108771431D01*
X109850000Y-108822440D01*
X110277678Y-108822440D01*
X110190162Y-109033201D01*
X110189838Y-109405167D01*
X110331883Y-109748943D01*
X110594673Y-110012192D01*
X110938201Y-110154838D01*
X111310167Y-110155162D01*
X111653943Y-110013117D01*
X111917192Y-109750327D01*
X112059838Y-109406799D01*
X112060162Y-109034833D01*
X111972403Y-108822440D01*
X112400000Y-108822440D01*
X112635317Y-108778162D01*
X112851441Y-108639090D01*
X112996431Y-108426890D01*
X113047440Y-108175000D01*
X113047440Y-106805000D01*
X115110446Y-106805000D01*
X115023559Y-106860910D01*
X114878569Y-107073110D01*
X114827560Y-107325000D01*
X114827560Y-108575000D01*
X114871838Y-108810317D01*
X115010910Y-109026441D01*
X115223110Y-109171431D01*
X115475000Y-109222440D01*
X116975000Y-109222440D01*
X117210317Y-109178162D01*
X117426441Y-109039090D01*
X117474134Y-108969289D01*
X117510910Y-109026441D01*
X117723110Y-109171431D01*
X117975000Y-109222440D01*
X119475000Y-109222440D01*
X119710317Y-109178162D01*
X119926441Y-109039090D01*
X120031716Y-108885015D01*
X120200167Y-108885162D01*
X120543943Y-108743117D01*
X120807192Y-108480327D01*
X120949838Y-108136799D01*
X120950162Y-107764833D01*
X120808117Y-107421057D01*
X120545327Y-107157808D01*
X120201799Y-107015162D01*
X120030113Y-107015012D01*
X119939090Y-106873559D01*
X119726890Y-106728569D01*
X119475000Y-106677560D01*
X117975000Y-106677560D01*
X117739683Y-106721838D01*
X117523559Y-106860910D01*
X117475866Y-106930711D01*
X117439090Y-106873559D01*
X117226890Y-106728569D01*
X116980769Y-106678728D01*
X116927148Y-106409161D01*
X116762401Y-106162599D01*
X116107401Y-105507599D01*
X115942101Y-105397149D01*
X116098000Y-105241250D01*
X116098000Y-104267000D01*
X114998750Y-104267000D01*
X114840000Y-104425750D01*
X114840000Y-104891310D01*
X114936673Y-105124699D01*
X115096975Y-105285000D01*
X113035000Y-105285000D01*
X113035000Y-104980750D01*
X112876250Y-104822000D01*
X112202000Y-104822000D01*
X112202000Y-104842000D01*
X112097440Y-104842000D01*
X112097440Y-103915000D01*
X112053162Y-103679683D01*
X111948000Y-103516257D01*
X111948000Y-103438750D01*
X112202000Y-103438750D01*
X112202000Y-104568000D01*
X112876250Y-104568000D01*
X113035000Y-104409250D01*
X113035000Y-103788691D01*
X112938327Y-103555302D01*
X112771716Y-103388690D01*
X114840000Y-103388690D01*
X114840000Y-103854250D01*
X114998750Y-104013000D01*
X116098000Y-104013000D01*
X116098000Y-103038750D01*
X115939250Y-102880000D01*
X115348691Y-102880000D01*
X115115302Y-102976673D01*
X114936673Y-103155301D01*
X114840000Y-103388690D01*
X112771716Y-103388690D01*
X112759699Y-103376673D01*
X112526310Y-103280000D01*
X112360750Y-103280000D01*
X112202000Y-103438750D01*
X111948000Y-103438750D01*
X111852906Y-103343656D01*
X111827148Y-103214161D01*
X111662401Y-102967599D01*
X111250000Y-102555198D01*
X111250000Y-101600000D01*
X111192148Y-101309161D01*
X111027401Y-101062599D01*
X109837401Y-99872599D01*
X109590839Y-99707852D01*
X109300000Y-99650000D01*
X109245558Y-99650000D01*
X109203162Y-99424683D01*
X109064090Y-99208559D01*
X108851890Y-99063569D01*
X108838803Y-99060919D01*
X109051441Y-98924090D01*
X109196431Y-98711890D01*
X109247440Y-98460000D01*
X109247440Y-96960000D01*
X109218029Y-96803691D01*
X116835000Y-96803691D01*
X116835000Y-97424250D01*
X116993750Y-97583000D01*
X117668000Y-97583000D01*
X117668000Y-96453750D01*
X117509250Y-96295000D01*
X117343690Y-96295000D01*
X117110301Y-96391673D01*
X116931673Y-96570302D01*
X116835000Y-96803691D01*
X109218029Y-96803691D01*
X109203162Y-96724683D01*
X109064090Y-96508559D01*
X108851890Y-96363569D01*
X108710000Y-96334836D01*
X108710000Y-94322393D01*
X108988349Y-94508380D01*
X109537500Y-94617613D01*
X110086651Y-94508380D01*
X110552198Y-94197311D01*
X110807500Y-93815225D01*
X111062802Y-94197311D01*
X111528349Y-94508380D01*
X112077500Y-94617613D01*
X112626651Y-94508380D01*
X113092198Y-94197311D01*
X113347500Y-93815225D01*
X113602802Y-94197311D01*
X114068349Y-94508380D01*
X114617500Y-94617613D01*
X115166651Y-94508380D01*
X115632198Y-94197311D01*
X115887500Y-93815225D01*
X116142802Y-94197311D01*
X116608349Y-94508380D01*
X117157500Y-94617613D01*
X117706651Y-94508380D01*
X118172198Y-94197311D01*
X118427500Y-93815225D01*
X118682802Y-94197311D01*
X119148349Y-94508380D01*
X119697500Y-94617613D01*
X120246651Y-94508380D01*
X120712198Y-94197311D01*
X120967500Y-93815225D01*
X121222802Y-94197311D01*
X121688349Y-94508380D01*
X122237500Y-94617613D01*
X122786651Y-94508380D01*
X123252198Y-94197311D01*
X123507500Y-93815225D01*
X123762802Y-94197311D01*
X124228349Y-94508380D01*
X124777500Y-94617613D01*
X125326651Y-94508380D01*
X125792198Y-94197311D01*
X126103267Y-93731764D01*
X126212500Y-93182613D01*
X126212500Y-93126387D01*
X126103267Y-92577236D01*
X125792198Y-92111689D01*
X125326651Y-91800620D01*
X124777500Y-91691387D01*
X124228349Y-91800620D01*
X123762802Y-92111689D01*
X123507500Y-92493775D01*
X123252198Y-92111689D01*
X122786651Y-91800620D01*
X122237500Y-91691387D01*
X121688349Y-91800620D01*
X121222802Y-92111689D01*
X120967500Y-92493775D01*
X120712198Y-92111689D01*
X120246651Y-91800620D01*
X119697500Y-91691387D01*
X119148349Y-91800620D01*
X118682802Y-92111689D01*
X118427500Y-92493775D01*
X118172198Y-92111689D01*
X117706651Y-91800620D01*
X117157500Y-91691387D01*
X116608349Y-91800620D01*
X116142802Y-92111689D01*
X115887500Y-92493775D01*
X115632198Y-92111689D01*
X115166651Y-91800620D01*
X114617500Y-91691387D01*
X114068349Y-91800620D01*
X113602802Y-92111689D01*
X113347500Y-92493775D01*
X113092198Y-92111689D01*
X112626651Y-91800620D01*
X112077500Y-91691387D01*
X111528349Y-91800620D01*
X111062802Y-92111689D01*
X110807500Y-92493775D01*
X110552198Y-92111689D01*
X110086651Y-91800620D01*
X109537500Y-91691387D01*
X108988349Y-91800620D01*
X108522802Y-92111689D01*
X108267500Y-92493775D01*
X108012198Y-92111689D01*
X107546651Y-91800620D01*
X106997500Y-91691387D01*
X106448349Y-91800620D01*
X105982802Y-92111689D01*
X105727500Y-92493775D01*
X105472198Y-92111689D01*
X105006651Y-91800620D01*
X104457500Y-91691387D01*
X103908349Y-91800620D01*
X103442802Y-92111689D01*
X103187500Y-92493775D01*
X102932198Y-92111689D01*
X102466651Y-91800620D01*
X101917500Y-91691387D01*
X101368349Y-91800620D01*
X100902802Y-92111689D01*
X100647500Y-92493775D01*
X100392198Y-92111689D01*
X99926651Y-91800620D01*
X99377500Y-91691387D01*
X98828349Y-91800620D01*
X98362802Y-92111689D01*
X98107500Y-92493775D01*
X97852198Y-92111689D01*
X97386651Y-91800620D01*
X96837500Y-91691387D01*
X96288349Y-91800620D01*
X95822802Y-92111689D01*
X95567500Y-92493775D01*
X95312198Y-92111689D01*
X94846651Y-91800620D01*
X94297500Y-91691387D01*
X93748349Y-91800620D01*
X93282802Y-92111689D01*
X93027500Y-92493775D01*
X92772198Y-92111689D01*
X92306651Y-91800620D01*
X91757500Y-91691387D01*
X91208349Y-91800620D01*
X90742802Y-92111689D01*
X90646399Y-92255965D01*
X90620662Y-92119183D01*
X90481590Y-91903059D01*
X90269390Y-91758069D01*
X90017500Y-91707060D01*
X88417500Y-91707060D01*
X88182183Y-91751338D01*
X87966059Y-91890410D01*
X87821069Y-92102610D01*
X87770060Y-92354500D01*
X87770060Y-93954500D01*
X87814338Y-94189817D01*
X87953410Y-94405941D01*
X88140000Y-94533432D01*
X88140000Y-96333258D01*
X88014683Y-96356838D01*
X87798559Y-96495910D01*
X87653569Y-96708110D01*
X87602560Y-96960000D01*
X87602560Y-98460000D01*
X87646838Y-98695317D01*
X87785910Y-98911441D01*
X87998110Y-99056431D01*
X88011197Y-99059081D01*
X87798559Y-99195910D01*
X87653569Y-99408110D01*
X87602560Y-99660000D01*
X87602560Y-101160000D01*
X87646838Y-101395317D01*
X87785910Y-101611441D01*
X87998110Y-101756431D01*
X88140000Y-101785164D01*
X88140000Y-104775000D01*
X88197852Y-105065839D01*
X88362599Y-105312401D01*
X92172599Y-109122401D01*
X92419161Y-109287148D01*
X92710000Y-109345000D01*
X94173198Y-109345000D01*
X94555145Y-109726947D01*
X94312989Y-109726735D01*
X93752285Y-109958414D01*
X93344665Y-110365323D01*
X92939971Y-109959921D01*
X92379672Y-109727265D01*
X91772989Y-109726735D01*
X91212285Y-109958414D01*
X90804665Y-110365323D01*
X90399971Y-109959921D01*
X89839672Y-109727265D01*
X89232989Y-109726735D01*
X88672285Y-109958414D01*
X88264665Y-110365323D01*
X87859971Y-109959921D01*
X87299672Y-109727265D01*
X86692989Y-109726735D01*
X86132285Y-109958414D01*
X85724665Y-110365323D01*
X85319971Y-109959921D01*
X84759672Y-109727265D01*
X84152989Y-109726735D01*
X83592285Y-109958414D01*
X83162921Y-110387029D01*
X82930265Y-110947328D01*
X82929735Y-111554011D01*
X76327000Y-111554011D01*
X76327000Y-98610167D01*
X76534838Y-98610167D01*
X76676883Y-98953943D01*
X76939673Y-99217192D01*
X77283201Y-99359838D01*
X77655167Y-99360162D01*
X77998943Y-99218117D01*
X78084631Y-99132579D01*
X78121838Y-99330317D01*
X78260910Y-99546441D01*
X78473110Y-99691431D01*
X78486197Y-99694081D01*
X78273559Y-99830910D01*
X78128569Y-100043110D01*
X78077560Y-100295000D01*
X78077560Y-101795000D01*
X78121838Y-102030317D01*
X78260910Y-102246441D01*
X78473110Y-102391431D01*
X78615000Y-102420164D01*
X78615000Y-102942537D01*
X78582808Y-102974673D01*
X78440162Y-103318201D01*
X78439838Y-103690167D01*
X78581883Y-104033943D01*
X78615000Y-104067118D01*
X78615000Y-108022537D01*
X78582808Y-108054673D01*
X78440162Y-108398201D01*
X78439838Y-108770167D01*
X78581883Y-109113943D01*
X78844673Y-109377192D01*
X79188201Y-109519838D01*
X79560167Y-109520162D01*
X79903943Y-109378117D01*
X80167192Y-109115327D01*
X80309838Y-108771799D01*
X80310162Y-108399833D01*
X80168117Y-108056057D01*
X80135000Y-108022882D01*
X80135000Y-104067463D01*
X80167192Y-104035327D01*
X80309838Y-103691799D01*
X80310162Y-103319833D01*
X80168117Y-102976057D01*
X80135000Y-102942882D01*
X80135000Y-102421742D01*
X80260317Y-102398162D01*
X80476441Y-102259090D01*
X80621431Y-102046890D01*
X80672440Y-101795000D01*
X80672440Y-100295000D01*
X80628162Y-100059683D01*
X80489090Y-99843559D01*
X80276890Y-99698569D01*
X80263803Y-99695919D01*
X80476441Y-99559090D01*
X80621431Y-99346890D01*
X80672440Y-99095000D01*
X80672440Y-97595000D01*
X82522560Y-97595000D01*
X82522560Y-99095000D01*
X82566838Y-99330317D01*
X82705910Y-99546441D01*
X82918110Y-99691431D01*
X82931197Y-99694081D01*
X82718559Y-99830910D01*
X82573569Y-100043110D01*
X82522560Y-100295000D01*
X82522560Y-101795000D01*
X82566838Y-102030317D01*
X82705910Y-102246441D01*
X82918110Y-102391431D01*
X83170000Y-102442440D01*
X84470000Y-102442440D01*
X84705317Y-102398162D01*
X84921441Y-102259090D01*
X85066431Y-102046890D01*
X85115415Y-101805000D01*
X85645000Y-101805000D01*
X85935839Y-101747148D01*
X86182401Y-101582401D01*
X86897401Y-100867401D01*
X87062148Y-100620839D01*
X87120000Y-100330000D01*
X87120000Y-96834802D01*
X87134680Y-96820122D01*
X87180167Y-96820162D01*
X87523943Y-96678117D01*
X87787192Y-96415327D01*
X87929838Y-96071799D01*
X87930162Y-95699833D01*
X87788117Y-95356057D01*
X87525327Y-95092808D01*
X87181799Y-94950162D01*
X86809833Y-94949838D01*
X86466057Y-95091883D01*
X86202808Y-95354673D01*
X86060162Y-95698201D01*
X86060121Y-95745077D01*
X85822599Y-95982599D01*
X85657852Y-96229161D01*
X85600000Y-96520000D01*
X85600000Y-100015198D01*
X85330198Y-100285000D01*
X85115558Y-100285000D01*
X85073162Y-100059683D01*
X84934090Y-99843559D01*
X84721890Y-99698569D01*
X84708803Y-99695919D01*
X84921441Y-99559090D01*
X85066431Y-99346890D01*
X85117440Y-99095000D01*
X85117440Y-97595000D01*
X85073162Y-97359683D01*
X84934090Y-97143559D01*
X84721890Y-96998569D01*
X84580000Y-96969836D01*
X84580000Y-96447463D01*
X84612192Y-96415327D01*
X84754838Y-96071799D01*
X84755162Y-95699833D01*
X84613117Y-95356057D01*
X84350327Y-95092808D01*
X84006799Y-94950162D01*
X83634833Y-94949838D01*
X83291057Y-95091883D01*
X83027808Y-95354673D01*
X82885162Y-95698201D01*
X82884838Y-96070167D01*
X83026883Y-96413943D01*
X83060000Y-96447118D01*
X83060000Y-96968258D01*
X82934683Y-96991838D01*
X82718559Y-97130910D01*
X82573569Y-97343110D01*
X82522560Y-97595000D01*
X80672440Y-97595000D01*
X80628162Y-97359683D01*
X80489090Y-97143559D01*
X80276890Y-96998569D01*
X80025000Y-96947560D01*
X78725000Y-96947560D01*
X78489683Y-96991838D01*
X78273559Y-97130910D01*
X78128569Y-97343110D01*
X78079585Y-97585000D01*
X77885193Y-97585000D01*
X77656799Y-97490162D01*
X77284833Y-97489838D01*
X76941057Y-97631883D01*
X76677808Y-97894673D01*
X76535162Y-98238201D01*
X76534838Y-98610167D01*
X76327000Y-98610167D01*
X76327000Y-88831802D01*
X76797599Y-89302401D01*
X77044160Y-89467148D01*
X77092414Y-89476746D01*
X77335000Y-89525000D01*
X77421380Y-89525000D01*
X77438110Y-89536431D01*
X77690000Y-89587440D01*
X79072560Y-89587440D01*
X79072560Y-90667638D01*
X78202599Y-91537599D01*
X78037852Y-91784161D01*
X77980000Y-92075000D01*
X77980000Y-93980000D01*
X78037852Y-94270839D01*
X78202599Y-94517401D01*
X80107599Y-96422401D01*
X80354161Y-96587148D01*
X80645000Y-96645000D01*
X80965198Y-96645000D01*
X80979878Y-96659680D01*
X80979838Y-96705167D01*
X81121883Y-97048943D01*
X81384673Y-97312192D01*
X81728201Y-97454838D01*
X82100167Y-97455162D01*
X82443943Y-97313117D01*
X82707192Y-97050327D01*
X82849838Y-96706799D01*
X82850162Y-96334833D01*
X82708117Y-95991057D01*
X82445327Y-95727808D01*
X82101799Y-95585162D01*
X82054923Y-95585121D01*
X81817401Y-95347599D01*
X81570839Y-95182852D01*
X81280000Y-95125000D01*
X80959802Y-95125000D01*
X79500000Y-93665198D01*
X79500000Y-92389802D01*
X79635000Y-92254802D01*
X79635000Y-93095000D01*
X79692852Y-93385839D01*
X79857599Y-93632401D01*
X80742599Y-94517401D01*
X80989160Y-94682148D01*
X81280000Y-94740000D01*
X83185000Y-94740000D01*
X83475839Y-94682148D01*
X83722401Y-94517401D01*
X84992401Y-93247401D01*
X85157148Y-93000840D01*
X85215000Y-92710000D01*
X85215000Y-83820000D01*
X85167261Y-83580000D01*
X85157148Y-83529160D01*
X84992401Y-83282599D01*
X83945000Y-82235198D01*
X83945000Y-78105000D01*
X83887148Y-77814161D01*
X83887148Y-77814160D01*
X83743274Y-77598837D01*
X83977192Y-77365327D01*
X84119838Y-77021799D01*
X84120162Y-76649833D01*
X83978117Y-76306057D01*
X83945000Y-76272882D01*
X83945000Y-73974802D01*
X84330000Y-73589802D01*
X84330000Y-74295000D01*
X84387852Y-74585839D01*
X84552599Y-74832401D01*
X86457599Y-76737401D01*
X86704161Y-76902148D01*
X86995000Y-76960000D01*
X88143794Y-76960000D01*
X87891733Y-77337236D01*
X87782500Y-77886387D01*
X87782500Y-77942613D01*
X87891733Y-78491764D01*
X88202802Y-78957311D01*
X88668349Y-79268380D01*
X89217500Y-79377613D01*
X89766651Y-79268380D01*
X90232198Y-78957311D01*
X90487500Y-78575225D01*
X90742802Y-78957311D01*
X91208349Y-79268380D01*
X91757500Y-79377613D01*
X92306651Y-79268380D01*
X92772198Y-78957311D01*
X93027500Y-78575225D01*
X93282802Y-78957311D01*
X93748349Y-79268380D01*
X94297500Y-79377613D01*
X94846651Y-79268380D01*
X95312198Y-78957311D01*
X95582486Y-78552797D01*
X95685111Y-78769634D01*
X96100077Y-79145541D01*
X96488461Y-79306404D01*
X96710500Y-79184415D01*
X96710500Y-78041500D01*
X96690500Y-78041500D01*
X96690500Y-77787500D01*
X96710500Y-77787500D01*
X96710500Y-76644585D01*
X96584462Y-76575340D01*
X97692401Y-75467401D01*
X97857148Y-75220840D01*
X97915000Y-74930000D01*
X97915000Y-73974802D01*
X99134052Y-72755750D01*
X100198000Y-72755750D01*
X100198000Y-73376309D01*
X100294673Y-73609698D01*
X100473301Y-73788327D01*
X100706690Y-73885000D01*
X100872250Y-73885000D01*
X101031000Y-73726250D01*
X101031000Y-72597000D01*
X100356750Y-72597000D01*
X100198000Y-72755750D01*
X99134052Y-72755750D01*
X100009802Y-71880000D01*
X100198000Y-71880000D01*
X100198000Y-72184250D01*
X100356750Y-72343000D01*
X101031000Y-72343000D01*
X101031000Y-72323000D01*
X101135560Y-72323000D01*
X101135560Y-73250000D01*
X101179838Y-73485317D01*
X101285000Y-73648743D01*
X101285000Y-73726250D01*
X101348000Y-73789250D01*
X101348000Y-73992995D01*
X101300162Y-74108201D01*
X101299838Y-74480167D01*
X101441883Y-74823943D01*
X101704673Y-75087192D01*
X102048201Y-75229838D01*
X102420167Y-75230162D01*
X102763943Y-75088117D01*
X103027192Y-74825327D01*
X103169838Y-74481799D01*
X103170162Y-74109833D01*
X103082403Y-73897440D01*
X103383000Y-73897440D01*
X103618317Y-73853162D01*
X103834441Y-73714090D01*
X103979431Y-73501890D01*
X103992419Y-73437750D01*
X105569000Y-73437750D01*
X105569000Y-73903310D01*
X105665673Y-74136699D01*
X105844302Y-74315327D01*
X106077691Y-74412000D01*
X106668250Y-74412000D01*
X106827000Y-74253250D01*
X106827000Y-73279000D01*
X105727750Y-73279000D01*
X105569000Y-73437750D01*
X103992419Y-73437750D01*
X104030440Y-73250000D01*
X104030440Y-73230000D01*
X104060000Y-73230000D01*
X104350839Y-73172148D01*
X104597401Y-73007401D01*
X105204112Y-72400690D01*
X105569000Y-72400690D01*
X105569000Y-72866250D01*
X105727750Y-73025000D01*
X106827000Y-73025000D01*
X106827000Y-72050750D01*
X107081000Y-72050750D01*
X107081000Y-73025000D01*
X107101000Y-73025000D01*
X107101000Y-73279000D01*
X107081000Y-73279000D01*
X107081000Y-74253250D01*
X107239750Y-74412000D01*
X107830309Y-74412000D01*
X108063698Y-74315327D01*
X108204936Y-74174090D01*
X108239910Y-74228441D01*
X108452110Y-74373431D01*
X108704000Y-74424440D01*
X110204000Y-74424440D01*
X110439317Y-74380162D01*
X110655441Y-74241090D01*
X110800431Y-74028890D01*
X110851440Y-73777000D01*
X110851440Y-73722116D01*
X110900401Y-73689401D01*
X113169680Y-71420122D01*
X113215167Y-71420162D01*
X113558943Y-71278117D01*
X113822192Y-71015327D01*
X113964838Y-70671799D01*
X113965162Y-70299833D01*
X113823117Y-69956057D01*
X113560327Y-69692808D01*
X113216799Y-69550162D01*
X112844833Y-69549838D01*
X112501057Y-69691883D01*
X112237808Y-69954673D01*
X112095162Y-70298201D01*
X112095121Y-70345077D01*
X110487815Y-71952383D01*
X110455890Y-71930569D01*
X110204000Y-71879560D01*
X108704000Y-71879560D01*
X108468683Y-71923838D01*
X108252559Y-72062910D01*
X108206031Y-72131006D01*
X108063698Y-71988673D01*
X107830309Y-71892000D01*
X107239750Y-71892000D01*
X107081000Y-72050750D01*
X106827000Y-72050750D01*
X106668250Y-71892000D01*
X106077691Y-71892000D01*
X105844302Y-71988673D01*
X105665673Y-72167301D01*
X105569000Y-72400690D01*
X105204112Y-72400690D01*
X105947401Y-71657401D01*
X106112148Y-71410840D01*
X106170000Y-71120000D01*
X106170000Y-70353555D01*
X106204000Y-70360440D01*
X107704000Y-70360440D01*
X107939317Y-70316162D01*
X108155441Y-70177090D01*
X108203134Y-70107289D01*
X108239910Y-70164441D01*
X108452110Y-70309431D01*
X108704000Y-70360440D01*
X110204000Y-70360440D01*
X110439317Y-70316162D01*
X110655441Y-70177090D01*
X110800431Y-69964890D01*
X110824102Y-69848000D01*
X111125000Y-69848000D01*
X111415839Y-69790148D01*
X111662401Y-69625401D01*
X111827148Y-69378839D01*
X111885000Y-69088000D01*
X111885000Y-68893691D01*
X115047000Y-68893691D01*
X115047000Y-69484250D01*
X115205750Y-69643000D01*
X116205000Y-69643000D01*
X116205000Y-68543750D01*
X116459000Y-68543750D01*
X116459000Y-69643000D01*
X117458250Y-69643000D01*
X117617000Y-69484250D01*
X117617000Y-68893691D01*
X118603000Y-68893691D01*
X118603000Y-69484250D01*
X118761750Y-69643000D01*
X119761000Y-69643000D01*
X119761000Y-68543750D01*
X120015000Y-68543750D01*
X120015000Y-69643000D01*
X121014250Y-69643000D01*
X121173000Y-69484250D01*
X121173000Y-68893691D01*
X122159000Y-68893691D01*
X122159000Y-69484250D01*
X122317750Y-69643000D01*
X123317000Y-69643000D01*
X123317000Y-68543750D01*
X123158250Y-68385000D01*
X122667690Y-68385000D01*
X122434301Y-68481673D01*
X122255673Y-68660302D01*
X122159000Y-68893691D01*
X121173000Y-68893691D01*
X121076327Y-68660302D01*
X120897699Y-68481673D01*
X120664310Y-68385000D01*
X120173750Y-68385000D01*
X120015000Y-68543750D01*
X119761000Y-68543750D01*
X119602250Y-68385000D01*
X119111690Y-68385000D01*
X118878301Y-68481673D01*
X118699673Y-68660302D01*
X118603000Y-68893691D01*
X117617000Y-68893691D01*
X117520327Y-68660302D01*
X117341699Y-68481673D01*
X117108310Y-68385000D01*
X116617750Y-68385000D01*
X116459000Y-68543750D01*
X116205000Y-68543750D01*
X116046250Y-68385000D01*
X115555690Y-68385000D01*
X115322301Y-68481673D01*
X115143673Y-68660302D01*
X115047000Y-68893691D01*
X111885000Y-68893691D01*
X111885000Y-64449802D01*
X111899680Y-64435122D01*
X111945167Y-64435162D01*
X112288943Y-64293117D01*
X112552192Y-64030327D01*
X112694838Y-63686799D01*
X112694892Y-63625000D01*
X112715198Y-63625000D01*
X112905000Y-63814802D01*
X112905000Y-66112537D01*
X112872808Y-66144673D01*
X112730162Y-66488201D01*
X112729838Y-66860167D01*
X112871883Y-67203943D01*
X113134673Y-67467192D01*
X113478201Y-67609838D01*
X113850167Y-67610162D01*
X114193943Y-67468117D01*
X114227118Y-67435000D01*
X121285000Y-67435000D01*
X121575839Y-67377148D01*
X121822401Y-67212401D01*
X122457401Y-66577401D01*
X122622148Y-66330839D01*
X122680000Y-66040000D01*
X122680000Y-65614038D01*
X122780317Y-65595162D01*
X122996441Y-65456090D01*
X123065000Y-65355751D01*
X123065000Y-67310000D01*
X123122852Y-67600839D01*
X123287599Y-67847401D01*
X123825198Y-68385000D01*
X123729750Y-68385000D01*
X123571000Y-68543750D01*
X123571000Y-69643000D01*
X124570250Y-69643000D01*
X124729000Y-69484250D01*
X124729000Y-68893691D01*
X124703447Y-68832000D01*
X125744556Y-68832000D01*
X125712560Y-68990000D01*
X125712560Y-70550000D01*
X125756838Y-70785317D01*
X125895910Y-71001441D01*
X126071232Y-71121233D01*
X125908559Y-71225910D01*
X125763569Y-71438110D01*
X125712560Y-71690000D01*
X125712560Y-73250000D01*
X125756838Y-73485317D01*
X125895910Y-73701441D01*
X126108110Y-73846431D01*
X126360000Y-73897440D01*
X126875000Y-73897440D01*
X126875000Y-74367537D01*
X126842808Y-74399673D01*
X126700162Y-74743201D01*
X126699838Y-75115167D01*
X126834056Y-75440000D01*
X121548802Y-75440000D01*
X123121362Y-73867440D01*
X124094000Y-73867440D01*
X124329317Y-73823162D01*
X124545441Y-73684090D01*
X124690431Y-73471890D01*
X124741440Y-73220000D01*
X124741440Y-71720000D01*
X124697162Y-71484683D01*
X124558090Y-71268559D01*
X124345890Y-71123569D01*
X124312510Y-71116809D01*
X124453699Y-71058327D01*
X124632327Y-70879698D01*
X124729000Y-70646309D01*
X124729000Y-70055750D01*
X124570250Y-69897000D01*
X123571000Y-69897000D01*
X123571000Y-69917000D01*
X123317000Y-69917000D01*
X123317000Y-69897000D01*
X122317750Y-69897000D01*
X122159000Y-70055750D01*
X122159000Y-70646309D01*
X122255673Y-70879698D01*
X122434301Y-71058327D01*
X122570287Y-71114654D01*
X122558683Y-71116838D01*
X122342559Y-71255910D01*
X122197569Y-71468110D01*
X122146560Y-71720000D01*
X122146560Y-72692638D01*
X119477599Y-75361599D01*
X119425213Y-75440000D01*
X117404802Y-75440000D01*
X119021254Y-73823548D01*
X119238000Y-73867440D01*
X120538000Y-73867440D01*
X120773317Y-73823162D01*
X120989441Y-73684090D01*
X121134431Y-73471890D01*
X121185440Y-73220000D01*
X121185440Y-71720000D01*
X121141162Y-71484683D01*
X121002090Y-71268559D01*
X120789890Y-71123569D01*
X120756510Y-71116809D01*
X120897699Y-71058327D01*
X121076327Y-70879698D01*
X121173000Y-70646309D01*
X121173000Y-70055750D01*
X121014250Y-69897000D01*
X120015000Y-69897000D01*
X120015000Y-69917000D01*
X119761000Y-69917000D01*
X119761000Y-69897000D01*
X118761750Y-69897000D01*
X118603000Y-70055750D01*
X118603000Y-70646309D01*
X118699673Y-70879698D01*
X118878301Y-71058327D01*
X119014287Y-71114654D01*
X119002683Y-71116838D01*
X118786559Y-71255910D01*
X118641569Y-71468110D01*
X118590560Y-71720000D01*
X118590560Y-72104638D01*
X117629440Y-73065758D01*
X117629440Y-71720000D01*
X117585162Y-71484683D01*
X117446090Y-71268559D01*
X117233890Y-71123569D01*
X117200510Y-71116809D01*
X117341699Y-71058327D01*
X117520327Y-70879698D01*
X117617000Y-70646309D01*
X117617000Y-70055750D01*
X117458250Y-69897000D01*
X116459000Y-69897000D01*
X116459000Y-69917000D01*
X116205000Y-69917000D01*
X116205000Y-69897000D01*
X115205750Y-69897000D01*
X115047000Y-70055750D01*
X115047000Y-70646309D01*
X115143673Y-70879698D01*
X115322301Y-71058327D01*
X115458287Y-71114654D01*
X115446683Y-71116838D01*
X115230559Y-71255910D01*
X115085569Y-71468110D01*
X115034560Y-71720000D01*
X115034560Y-73220000D01*
X115078838Y-73455317D01*
X115130113Y-73535000D01*
X114300000Y-73535000D01*
X114057414Y-73583254D01*
X114009160Y-73592852D01*
X113762599Y-73757599D01*
X111445198Y-76075000D01*
X110617000Y-76075000D01*
X110326161Y-76132852D01*
X110079599Y-76297599D01*
X109861386Y-76515812D01*
X109537500Y-76451387D01*
X108988349Y-76560620D01*
X108522802Y-76871689D01*
X108267500Y-77253775D01*
X108012198Y-76871689D01*
X107546651Y-76560620D01*
X106997500Y-76451387D01*
X106448349Y-76560620D01*
X105982802Y-76871689D01*
X105727500Y-77253775D01*
X105472198Y-76871689D01*
X105006651Y-76560620D01*
X104457500Y-76451387D01*
X103908349Y-76560620D01*
X103442802Y-76871689D01*
X103187500Y-77253775D01*
X102932198Y-76871689D01*
X102466651Y-76560620D01*
X101917500Y-76451387D01*
X101368349Y-76560620D01*
X100902802Y-76871689D01*
X100647500Y-77253775D01*
X100392198Y-76871689D01*
X99926651Y-76560620D01*
X99377500Y-76451387D01*
X98828349Y-76560620D01*
X98362802Y-76871689D01*
X98092514Y-77276203D01*
X97989889Y-77059366D01*
X97574923Y-76683459D01*
X97186539Y-76522596D01*
X96964500Y-76644585D01*
X96964500Y-77787500D01*
X96984500Y-77787500D01*
X96984500Y-78041500D01*
X96964500Y-78041500D01*
X96964500Y-79184415D01*
X97186539Y-79306404D01*
X97574923Y-79145541D01*
X97989889Y-78769634D01*
X98092514Y-78552797D01*
X98362802Y-78957311D01*
X98828349Y-79268380D01*
X99377500Y-79377613D01*
X99926651Y-79268380D01*
X100392198Y-78957311D01*
X100647500Y-78575225D01*
X100902802Y-78957311D01*
X101368349Y-79268380D01*
X101917500Y-79377613D01*
X102466651Y-79268380D01*
X102932198Y-78957311D01*
X103187500Y-78575225D01*
X103442802Y-78957311D01*
X103908349Y-79268380D01*
X104457500Y-79377613D01*
X105006651Y-79268380D01*
X105472198Y-78957311D01*
X105727500Y-78575225D01*
X105982802Y-78957311D01*
X106448349Y-79268380D01*
X106997500Y-79377613D01*
X107546651Y-79268380D01*
X108012198Y-78957311D01*
X108267500Y-78575225D01*
X108522802Y-78957311D01*
X108988349Y-79268380D01*
X109537500Y-79377613D01*
X110086651Y-79268380D01*
X110552198Y-78957311D01*
X110807500Y-78575225D01*
X111062802Y-78957311D01*
X111528349Y-79268380D01*
X112077500Y-79377613D01*
X112626651Y-79268380D01*
X113092198Y-78957311D01*
X113347500Y-78575225D01*
X113602802Y-78957311D01*
X114068349Y-79268380D01*
X114617500Y-79377613D01*
X115166651Y-79268380D01*
X115632198Y-78957311D01*
X115887500Y-78575225D01*
X116142802Y-78957311D01*
X116397500Y-79127495D01*
X116397500Y-81086166D01*
X116311057Y-81121883D01*
X116047808Y-81384673D01*
X115905162Y-81728201D01*
X115904838Y-82100167D01*
X116046883Y-82443943D01*
X116309673Y-82707192D01*
X116653201Y-82849838D01*
X117025167Y-82850162D01*
X117368943Y-82708117D01*
X117632192Y-82445327D01*
X117774838Y-82101799D01*
X117774913Y-82015154D01*
X117859648Y-81888339D01*
X117917500Y-81597500D01*
X117917500Y-79127495D01*
X118172198Y-78957311D01*
X118427500Y-78575225D01*
X118682802Y-78957311D01*
X119148349Y-79268380D01*
X119697500Y-79377613D01*
X120246651Y-79268380D01*
X120712198Y-78957311D01*
X120967500Y-78575225D01*
X121222802Y-78957311D01*
X121688349Y-79268380D01*
X122237500Y-79377613D01*
X122786651Y-79268380D01*
X123252198Y-78957311D01*
X123507500Y-78575225D01*
X123762802Y-78957311D01*
X124228349Y-79268380D01*
X124335000Y-79289594D01*
X124335000Y-89535000D01*
X124392852Y-89825839D01*
X124557599Y-90072401D01*
X126240000Y-91754802D01*
X126240000Y-92710000D01*
X126297852Y-93000839D01*
X126462599Y-93247401D01*
X129415000Y-96199802D01*
X129415000Y-102307537D01*
X129382808Y-102339673D01*
X129240162Y-102683201D01*
X129239838Y-103055167D01*
X129381883Y-103398943D01*
X129644673Y-103662192D01*
X129988201Y-103804838D01*
X130080000Y-103804918D01*
X130080000Y-103854250D01*
X130238750Y-104013000D01*
X131338000Y-104013000D01*
X131338000Y-103038750D01*
X131592000Y-103038750D01*
X131592000Y-104013000D01*
X131612000Y-104013000D01*
X131612000Y-104267000D01*
X131592000Y-104267000D01*
X131592000Y-105241250D01*
X131750750Y-105400000D01*
X132341309Y-105400000D01*
X132574698Y-105303327D01*
X132715936Y-105162090D01*
X132750910Y-105216441D01*
X132963110Y-105361431D01*
X133215000Y-105412440D01*
X134715000Y-105412440D01*
X134950317Y-105368162D01*
X135166441Y-105229090D01*
X135311431Y-105016890D01*
X135362440Y-104765000D01*
X135362440Y-103515000D01*
X135318162Y-103279683D01*
X135179090Y-103063559D01*
X134966890Y-102918569D01*
X134899953Y-102905014D01*
X134900162Y-102664833D01*
X134758117Y-102321057D01*
X134495327Y-102057808D01*
X134151799Y-101915162D01*
X133779833Y-101914838D01*
X133436057Y-102056883D01*
X133172808Y-102319673D01*
X133030162Y-102663201D01*
X133029954Y-102902379D01*
X132979683Y-102911838D01*
X132763559Y-103050910D01*
X132717031Y-103119006D01*
X132574698Y-102976673D01*
X132341309Y-102880000D01*
X131750750Y-102880000D01*
X131592000Y-103038750D01*
X131338000Y-103038750D01*
X131179250Y-102880000D01*
X131109992Y-102880000D01*
X131110162Y-102684833D01*
X130968117Y-102341057D01*
X130935000Y-102307882D01*
X130935000Y-95885000D01*
X130877148Y-95594161D01*
X130712401Y-95347599D01*
X127760000Y-92395198D01*
X127760000Y-91440000D01*
X127702148Y-91149161D01*
X127537401Y-90902599D01*
X125855000Y-89220198D01*
X125855000Y-83985633D01*
X126178201Y-84119838D01*
X126550167Y-84120162D01*
X126893943Y-83978117D01*
X126927118Y-83945000D01*
X135890000Y-83945000D01*
X136180839Y-83887148D01*
X136427401Y-83722401D01*
X137062401Y-83087401D01*
X137227148Y-82840839D01*
X137285000Y-82550000D01*
X137285000Y-60325000D01*
X137227148Y-60034161D01*
X137083274Y-59818837D01*
X137317192Y-59585327D01*
X137459838Y-59241799D01*
X137460162Y-58869833D01*
X137318117Y-58526057D01*
X137285000Y-58492882D01*
X137285000Y-54610000D01*
X137283777Y-54603852D01*
X137227148Y-54319160D01*
X137062401Y-54072599D01*
X136657772Y-53667970D01*
X136724744Y-53506684D01*
X136725255Y-52921882D01*
X136501932Y-52381400D01*
X136088775Y-51967521D01*
X135548684Y-51743256D01*
X134963882Y-51742745D01*
X134423400Y-51966068D01*
X134009521Y-52379225D01*
X133985217Y-52437755D01*
X133961932Y-52381400D01*
X133548775Y-51967521D01*
X133008684Y-51743256D01*
X132423882Y-51742745D01*
X131883400Y-51966068D01*
X131469521Y-52379225D01*
X131245256Y-52919316D01*
X131244745Y-53504118D01*
X131468068Y-54044600D01*
X131881225Y-54458479D01*
X132421316Y-54682744D01*
X133006118Y-54683255D01*
X133079947Y-54652749D01*
X135130000Y-56702802D01*
X135130000Y-58415548D01*
X134659684Y-58220256D01*
X134074882Y-58219745D01*
X133534400Y-58443068D01*
X133120521Y-58856225D01*
X132896256Y-59396316D01*
X132895745Y-59981118D01*
X133119068Y-60521600D01*
X133532225Y-60935479D01*
X133590755Y-60959783D01*
X133534400Y-60983068D01*
X133120521Y-61396225D01*
X132896256Y-61936316D01*
X132895745Y-62521118D01*
X133119068Y-63061600D01*
X133532225Y-63475479D01*
X134072316Y-63699744D01*
X134657118Y-63700255D01*
X135197600Y-63476932D01*
X135611479Y-63063775D01*
X135765000Y-62694055D01*
X135765000Y-66338432D01*
X135612932Y-65970400D01*
X135199775Y-65556521D01*
X134659684Y-65332256D01*
X134074882Y-65331745D01*
X133534400Y-65555068D01*
X133120521Y-65968225D01*
X132896256Y-66508316D01*
X132895745Y-67093118D01*
X133119068Y-67633600D01*
X133532225Y-68047479D01*
X133590755Y-68071783D01*
X133534400Y-68095068D01*
X133120521Y-68508225D01*
X132896256Y-69048316D01*
X132895745Y-69633118D01*
X133119068Y-70173600D01*
X133532225Y-70587479D01*
X134072316Y-70811744D01*
X134657118Y-70812255D01*
X135197600Y-70588932D01*
X135611479Y-70175775D01*
X135765000Y-69806055D01*
X135765000Y-73450432D01*
X135612932Y-73082400D01*
X135199775Y-72668521D01*
X134659684Y-72444256D01*
X134074882Y-72443745D01*
X133534400Y-72667068D01*
X133120521Y-73080225D01*
X133089887Y-73154000D01*
X131826000Y-73154000D01*
X131535160Y-73211852D01*
X131288599Y-73376599D01*
X129225198Y-75440000D01*
X128435633Y-75440000D01*
X128569838Y-75116799D01*
X128570162Y-74744833D01*
X128428117Y-74401057D01*
X128395000Y-74367882D01*
X128395000Y-73897440D01*
X128910000Y-73897440D01*
X129145317Y-73853162D01*
X129361441Y-73714090D01*
X129506431Y-73501890D01*
X129557440Y-73250000D01*
X129557440Y-71690000D01*
X129513162Y-71454683D01*
X129374090Y-71238559D01*
X129198768Y-71118767D01*
X129361441Y-71014090D01*
X129506431Y-70801890D01*
X129557440Y-70550000D01*
X129557440Y-68990000D01*
X129527710Y-68832000D01*
X130556000Y-68832000D01*
X130846839Y-68774148D01*
X131093401Y-68609401D01*
X131855401Y-67847401D01*
X132020148Y-67600839D01*
X132078000Y-67310000D01*
X132078000Y-58982352D01*
X132173692Y-58886827D01*
X132316338Y-58543299D01*
X132316662Y-58171333D01*
X132174617Y-57827557D01*
X131911827Y-57564308D01*
X131568299Y-57421662D01*
X131521423Y-57421621D01*
X129442401Y-55342599D01*
X129414681Y-55324077D01*
X129393826Y-55298064D01*
X127199789Y-53455073D01*
X127200255Y-52921882D01*
X126976932Y-52381400D01*
X126563775Y-51967521D01*
X126023684Y-51743256D01*
X125438882Y-51742745D01*
X124898400Y-51966068D01*
X124484521Y-52379225D01*
X124460217Y-52437755D01*
X124436932Y-52381400D01*
X124023775Y-51967521D01*
X123483684Y-51743256D01*
X122898882Y-51742745D01*
X122358400Y-51966068D01*
X121944521Y-52379225D01*
X121720256Y-52919316D01*
X121719745Y-53504118D01*
X121943068Y-54044600D01*
X122356225Y-54458479D01*
X122896316Y-54682744D01*
X123481118Y-54683255D01*
X124021600Y-54459932D01*
X124435479Y-54046775D01*
X124459783Y-53988245D01*
X124483068Y-54044600D01*
X124896225Y-54458479D01*
X125436316Y-54682744D01*
X126021118Y-54683255D01*
X126207176Y-54606377D01*
X128390924Y-56440726D01*
X130446378Y-58496180D01*
X130446338Y-58541667D01*
X130558000Y-58811910D01*
X130558000Y-66995198D01*
X130241198Y-67312000D01*
X129796440Y-67312000D01*
X129796440Y-66032000D01*
X129752162Y-65796683D01*
X129613090Y-65580559D01*
X129543289Y-65532866D01*
X129600441Y-65496090D01*
X129745431Y-65283890D01*
X129796440Y-65032000D01*
X129796440Y-63532000D01*
X129752162Y-63296683D01*
X129613090Y-63080559D01*
X129400890Y-62935569D01*
X129284000Y-62911898D01*
X129284000Y-61849000D01*
X129247002Y-61663000D01*
X129226148Y-61558160D01*
X129205060Y-61526600D01*
X129205162Y-61409833D01*
X129063117Y-61066057D01*
X128800327Y-60802808D01*
X128456799Y-60660162D01*
X128084833Y-60659838D01*
X127741057Y-60801883D01*
X127477808Y-61064673D01*
X127335162Y-61408201D01*
X127334838Y-61780167D01*
X127476883Y-62123943D01*
X127739673Y-62387192D01*
X127764000Y-62397294D01*
X127764000Y-62909962D01*
X127663683Y-62928838D01*
X127447559Y-63067910D01*
X127302569Y-63280110D01*
X127251560Y-63532000D01*
X127251560Y-65032000D01*
X127295838Y-65267317D01*
X127434910Y-65483441D01*
X127504711Y-65531134D01*
X127447559Y-65567910D01*
X127302569Y-65780110D01*
X127251560Y-66032000D01*
X127251560Y-66481238D01*
X127222401Y-66437599D01*
X126902401Y-66117599D01*
X126744722Y-66012242D01*
X126704162Y-65796683D01*
X126565090Y-65580559D01*
X126495289Y-65532866D01*
X126552441Y-65496090D01*
X126697431Y-65283890D01*
X126748440Y-65032000D01*
X126748440Y-63532000D01*
X126704162Y-63296683D01*
X126565090Y-63080559D01*
X126352890Y-62935569D01*
X126236000Y-62911898D01*
X126236000Y-62397597D01*
X126258943Y-62388117D01*
X126522192Y-62125327D01*
X126664838Y-61781799D01*
X126665162Y-61409833D01*
X126523117Y-61066057D01*
X126260327Y-60802808D01*
X125916799Y-60660162D01*
X125544833Y-60659838D01*
X125201057Y-60801883D01*
X124937808Y-61064673D01*
X124795162Y-61408201D01*
X124795059Y-61526422D01*
X124773852Y-61558161D01*
X124716000Y-61849000D01*
X124716000Y-62909962D01*
X124615683Y-62928838D01*
X124585000Y-62948582D01*
X124585000Y-60252463D01*
X124617192Y-60220327D01*
X124759838Y-59876799D01*
X124760162Y-59504833D01*
X124618117Y-59161057D01*
X124585000Y-59127882D01*
X124585000Y-58420000D01*
X124527148Y-58129161D01*
X124362401Y-57882599D01*
X124125122Y-57645320D01*
X124125162Y-57599833D01*
X123983117Y-57256057D01*
X123720327Y-56992808D01*
X123376799Y-56850162D01*
X123004833Y-56849838D01*
X122661057Y-56991883D01*
X122397808Y-57254673D01*
X122255162Y-57598201D01*
X122254838Y-57970167D01*
X122396883Y-58313943D01*
X122659673Y-58577192D01*
X123003201Y-58719838D01*
X123050077Y-58719879D01*
X123065000Y-58734802D01*
X123065000Y-59127537D01*
X123032808Y-59159673D01*
X122890162Y-59503201D01*
X122889838Y-59875167D01*
X123031883Y-60218943D01*
X123065000Y-60252118D01*
X123065000Y-60627446D01*
X123009090Y-60540559D01*
X122796890Y-60395569D01*
X122748928Y-60385857D01*
X122854838Y-60130799D01*
X122855162Y-59758833D01*
X122713117Y-59415057D01*
X122450327Y-59151808D01*
X122106799Y-59009162D01*
X121734833Y-59008838D01*
X121391057Y-59150883D01*
X121127808Y-59413673D01*
X120985162Y-59757201D01*
X120984838Y-60129167D01*
X121089791Y-60383173D01*
X121059683Y-60388838D01*
X120843559Y-60527910D01*
X120698569Y-60740110D01*
X120661876Y-60921307D01*
X120642090Y-60890559D01*
X120429890Y-60745569D01*
X120178000Y-60694560D01*
X119578000Y-60694560D01*
X119342683Y-60738838D01*
X119253772Y-60796051D01*
X119179890Y-60745569D01*
X118928000Y-60694560D01*
X118328000Y-60694560D01*
X118138000Y-60730311D01*
X118138000Y-60228000D01*
X118084126Y-59957161D01*
X118080148Y-59937160D01*
X117915401Y-59690599D01*
X117267122Y-59042320D01*
X117267162Y-58996833D01*
X117125117Y-58653057D01*
X116862327Y-58389808D01*
X116518799Y-58247162D01*
X116146833Y-58246838D01*
X115803057Y-58388883D01*
X115573171Y-58618369D01*
X115472401Y-58517599D01*
X115225839Y-58352852D01*
X114935000Y-58295000D01*
X106045000Y-58295000D01*
X105754161Y-58352852D01*
X105619143Y-58443068D01*
X105507599Y-58517599D01*
X103818000Y-60207198D01*
X103818000Y-60132000D01*
X103808275Y-60083110D01*
X103760148Y-59841160D01*
X103595401Y-59594599D01*
X103551122Y-59550320D01*
X103551162Y-59504833D01*
X103409117Y-59161057D01*
X103146327Y-58897808D01*
X102802799Y-58755162D01*
X102430833Y-58754838D01*
X102087057Y-58896883D01*
X101823808Y-59159673D01*
X101708236Y-59438000D01*
X99822000Y-59438000D01*
X99531161Y-59495852D01*
X99284599Y-59660599D01*
X98920320Y-60024878D01*
X98874833Y-60024838D01*
X98531057Y-60166883D01*
X98267808Y-60429673D01*
X98125162Y-60773201D01*
X98124838Y-61145167D01*
X98266883Y-61488943D01*
X98529673Y-61752192D01*
X98873201Y-61894838D01*
X99245167Y-61895162D01*
X99588943Y-61753117D01*
X99852192Y-61490327D01*
X99994838Y-61146799D01*
X99994879Y-61099923D01*
X100136802Y-60958000D01*
X100185560Y-60958000D01*
X100185560Y-62133731D01*
X100039160Y-62162852D01*
X99792599Y-62327599D01*
X98522599Y-63597599D01*
X98357852Y-63844161D01*
X98300000Y-64135000D01*
X98300000Y-65915000D01*
X96566790Y-65915000D01*
X96576431Y-65900890D01*
X96600102Y-65784000D01*
X96901000Y-65784000D01*
X97191839Y-65726148D01*
X97223399Y-65705060D01*
X97340167Y-65705162D01*
X97683943Y-65563117D01*
X97947192Y-65300327D01*
X98089838Y-64956799D01*
X98090162Y-64584833D01*
X97948117Y-64241057D01*
X97685327Y-63977808D01*
X97341799Y-63835162D01*
X96969833Y-63834838D01*
X96626057Y-63976883D01*
X96526750Y-64076017D01*
X96444090Y-63947559D01*
X96231890Y-63802569D01*
X95980000Y-63751560D01*
X94480000Y-63751560D01*
X94244683Y-63795838D01*
X94028559Y-63934910D01*
X93980866Y-64004711D01*
X93944090Y-63947559D01*
X93731890Y-63802569D01*
X93480000Y-63751560D01*
X91980000Y-63751560D01*
X91744683Y-63795838D01*
X91528559Y-63934910D01*
X91383569Y-64147110D01*
X91332560Y-64399000D01*
X91332560Y-65346638D01*
X90764198Y-65915000D01*
X88194802Y-65915000D01*
X88368761Y-65741041D01*
X88509000Y-65769440D01*
X89159000Y-65769440D01*
X89394317Y-65725162D01*
X89610441Y-65586090D01*
X89755431Y-65373890D01*
X89806440Y-65122000D01*
X89806440Y-63853440D01*
X89983201Y-63926838D01*
X90355167Y-63927162D01*
X90698943Y-63785117D01*
X90872862Y-63611501D01*
X91095839Y-63567148D01*
X91342401Y-63402401D01*
X92512362Y-62232440D01*
X93480000Y-62232440D01*
X93715317Y-62188162D01*
X93931441Y-62049090D01*
X93979134Y-61979289D01*
X94015910Y-62036441D01*
X94228110Y-62181431D01*
X94480000Y-62232440D01*
X95980000Y-62232440D01*
X96215317Y-62188162D01*
X96431441Y-62049090D01*
X96576431Y-61836890D01*
X96598826Y-61726300D01*
X96624673Y-61752192D01*
X96968201Y-61894838D01*
X97340167Y-61895162D01*
X97683943Y-61753117D01*
X97947192Y-61490327D01*
X98089838Y-61146799D01*
X98090162Y-60774833D01*
X97948117Y-60431057D01*
X97685327Y-60167808D01*
X97341799Y-60025162D01*
X96969833Y-60024838D01*
X96626057Y-60166883D01*
X96600590Y-60192305D01*
X96583162Y-60099683D01*
X96444090Y-59883559D01*
X96231890Y-59738569D01*
X95980000Y-59687560D01*
X94480000Y-59687560D01*
X94244683Y-59731838D01*
X94028559Y-59870910D01*
X93980866Y-59940711D01*
X93944090Y-59883559D01*
X93731890Y-59738569D01*
X93480000Y-59687560D01*
X91980000Y-59687560D01*
X91744683Y-59731838D01*
X91528559Y-59870910D01*
X91383569Y-60083110D01*
X91332560Y-60335000D01*
X91332560Y-61262638D01*
X90490198Y-62105000D01*
X90472005Y-62105000D01*
X90356799Y-62057162D01*
X89984833Y-62056838D01*
X89868272Y-62105000D01*
X89806440Y-62105000D01*
X89806440Y-60862000D01*
X89762162Y-60626683D01*
X89623090Y-60410559D01*
X89594000Y-60390683D01*
X89594000Y-58354000D01*
X89536148Y-58063161D01*
X89371401Y-57816599D01*
X88802401Y-57247599D01*
X88555839Y-57082852D01*
X88265000Y-57025000D01*
X86287463Y-57025000D01*
X86255327Y-56992808D01*
X85911799Y-56850162D01*
X85539833Y-56849838D01*
X85196057Y-56991883D01*
X84932808Y-57254673D01*
X84790162Y-57598201D01*
X84789838Y-57970167D01*
X84931883Y-58313943D01*
X85194673Y-58577192D01*
X85538201Y-58719838D01*
X85910167Y-58720162D01*
X86253943Y-58578117D01*
X86287118Y-58545000D01*
X87464367Y-58545000D01*
X87330162Y-58868201D01*
X87330114Y-58923271D01*
X87181852Y-59145161D01*
X87124000Y-59436000D01*
X87124000Y-60214560D01*
X86609000Y-60214560D01*
X86373683Y-60258838D01*
X86157559Y-60397910D01*
X86012569Y-60610110D01*
X85961560Y-60862000D01*
X85961560Y-62105000D01*
X85652463Y-62105000D01*
X85620327Y-62072808D01*
X85276799Y-61930162D01*
X84904833Y-61929838D01*
X84580000Y-62064056D01*
X84580000Y-56066000D01*
X84771331Y-56066000D01*
X84781910Y-56082441D01*
X84994110Y-56227431D01*
X85246000Y-56278440D01*
X86806000Y-56278440D01*
X87041317Y-56234162D01*
X87257441Y-56095090D01*
X87377233Y-55919768D01*
X87481910Y-56082441D01*
X87694110Y-56227431D01*
X87946000Y-56278440D01*
X89506000Y-56278440D01*
X89741317Y-56234162D01*
X89957441Y-56095090D01*
X89977317Y-56066000D01*
X90680000Y-56066000D01*
X90680000Y-56587537D01*
X90647808Y-56619673D01*
X90505162Y-56963201D01*
X90504838Y-57335167D01*
X90646883Y-57678943D01*
X90909673Y-57942192D01*
X91253201Y-58084838D01*
X91625167Y-58085162D01*
X91968943Y-57943117D01*
X92232192Y-57680327D01*
X92374838Y-57336799D01*
X92375162Y-56964833D01*
X92233117Y-56621057D01*
X92200000Y-56587882D01*
X92200000Y-55559802D01*
X93247401Y-54512401D01*
X93412148Y-54265840D01*
X93470000Y-53975000D01*
X93470000Y-53340000D01*
X93412148Y-53049161D01*
X93412148Y-53049160D01*
X93247401Y-52802599D01*
X91977401Y-51532599D01*
X91730839Y-51367852D01*
X91440000Y-51310000D01*
X84455000Y-51310000D01*
X84164161Y-51367852D01*
X83917599Y-51532599D01*
X83505198Y-51945000D01*
X83267038Y-51945000D01*
X83248162Y-51844683D01*
X83109090Y-51628559D01*
X82896890Y-51483569D01*
X82645000Y-51432560D01*
X81145000Y-51432560D01*
X80909683Y-51476838D01*
X80693559Y-51615910D01*
X80645866Y-51685711D01*
X80609090Y-51628559D01*
X80396890Y-51483569D01*
X80145000Y-51432560D01*
X78645000Y-51432560D01*
X78409683Y-51476838D01*
X78193559Y-51615910D01*
X78048569Y-51828110D01*
X77997560Y-52080000D01*
X77997560Y-52372638D01*
X76695320Y-53674878D01*
X76649833Y-53674838D01*
X76327000Y-53808230D01*
X76327000Y-50927000D01*
X94293072Y-50927000D01*
X94165667Y-51233825D01*
X94165667Y-51233825D01*
G37*
X94165667Y-51233825D02*
X94164336Y-52759482D01*
X94746950Y-54169515D01*
X95824811Y-55249259D01*
X97233825Y-55834333D01*
X98759482Y-55835664D01*
X100169515Y-55253050D01*
X101249259Y-54175189D01*
X101834333Y-52766175D01*
X101835664Y-51240518D01*
X101706121Y-50927000D01*
X113293072Y-50927000D01*
X113165667Y-51233825D01*
X113164336Y-52759482D01*
X113746950Y-54169515D01*
X114824811Y-55249259D01*
X116233825Y-55834333D01*
X117759482Y-55835664D01*
X119169515Y-55253050D01*
X120249259Y-54175189D01*
X120834333Y-52766175D01*
X120835664Y-51240518D01*
X120706121Y-50927000D01*
X138303000Y-50927000D01*
X138303000Y-116078000D01*
X76327000Y-116078000D01*
X76327000Y-111554011D01*
X82929735Y-111554011D01*
X83161414Y-112114715D01*
X83590029Y-112544079D01*
X84150328Y-112776735D01*
X84757011Y-112777265D01*
X85317715Y-112545586D01*
X85725335Y-112138677D01*
X86130029Y-112544079D01*
X86690328Y-112776735D01*
X87297011Y-112777265D01*
X87857715Y-112545586D01*
X88265335Y-112138677D01*
X88670029Y-112544079D01*
X89230328Y-112776735D01*
X89837011Y-112777265D01*
X90397715Y-112545586D01*
X90805335Y-112138677D01*
X91210029Y-112544079D01*
X91770328Y-112776735D01*
X92377011Y-112777265D01*
X92937715Y-112545586D01*
X93345335Y-112138677D01*
X93750029Y-112544079D01*
X94310328Y-112776735D01*
X94917011Y-112777265D01*
X95477715Y-112545586D01*
X95885335Y-112138677D01*
X96290029Y-112544079D01*
X96850328Y-112776735D01*
X97457011Y-112777265D01*
X98017715Y-112545586D01*
X98425335Y-112138677D01*
X98830029Y-112544079D01*
X99390328Y-112776735D01*
X99997011Y-112777265D01*
X100557715Y-112545586D01*
X100778765Y-112324921D01*
X101341684Y-112324921D01*
X101426865Y-112580368D01*
X101996725Y-112788512D01*
X102602860Y-112762736D01*
X103043135Y-112580368D01*
X103128316Y-112324921D01*
X102235000Y-111431605D01*
X101341684Y-112324921D01*
X100778765Y-112324921D01*
X100987079Y-112116971D01*
X100998025Y-112090611D01*
X101162079Y-112145316D01*
X102055395Y-111252000D01*
X101162079Y-110358684D01*
X100998483Y-110413237D01*
X100988586Y-110389285D01*
X100559971Y-109959921D01*
X99999672Y-109727265D01*
X99392989Y-109726735D01*
X98832285Y-109958414D01*
X98424665Y-110365323D01*
X98019971Y-109959921D01*
X97459672Y-109727265D01*
X96852989Y-109726735D01*
X96747942Y-109770140D01*
X95025401Y-108047599D01*
X94778839Y-107882852D01*
X94488000Y-107825000D01*
X93024802Y-107825000D01*
X90734802Y-105535000D01*
X94615000Y-105535000D01*
X94905839Y-105477148D01*
X95152401Y-105312401D01*
X96422401Y-104042401D01*
X96587148Y-103795840D01*
X96645000Y-103505000D01*
X96645000Y-100644802D01*
X97127560Y-100162242D01*
X97127560Y-101160000D01*
X97171838Y-101395317D01*
X97310910Y-101611441D01*
X97523110Y-101756431D01*
X97665000Y-101785164D01*
X97665000Y-104775000D01*
X97722852Y-105065839D01*
X97887599Y-105312401D01*
X102298134Y-109722936D01*
X101867140Y-109741264D01*
X101426865Y-109923632D01*
X101341684Y-110179079D01*
X102235000Y-111072395D01*
X103128316Y-110179079D01*
X103061931Y-109980000D01*
X103890661Y-109980000D01*
X103482921Y-110387029D01*
X103471975Y-110413389D01*
X103307921Y-110358684D01*
X102414605Y-111252000D01*
X103307921Y-112145316D01*
X103471517Y-112090763D01*
X103481414Y-112114715D01*
X103910029Y-112544079D01*
X104470328Y-112776735D01*
X105077011Y-112777265D01*
X105637715Y-112545586D01*
X106067079Y-112116971D01*
X106299735Y-111556672D01*
X106300265Y-110949989D01*
X106068586Y-110389285D01*
X105660015Y-109980000D01*
X105730198Y-109980000D01*
X111222599Y-115472402D01*
X111469161Y-115637148D01*
X111760000Y-115695000D01*
X136525000Y-115695000D01*
X136815839Y-115637148D01*
X137062401Y-115472401D01*
X137697401Y-114837401D01*
X137862148Y-114590839D01*
X137920000Y-114300000D01*
X137920000Y-103432463D01*
X137952192Y-103400327D01*
X138094838Y-103056799D01*
X138095162Y-102684833D01*
X137953117Y-102341057D01*
X137690327Y-102077808D01*
X137346799Y-101935162D01*
X137285000Y-101935108D01*
X137285000Y-95250000D01*
X137227148Y-94959161D01*
X137227148Y-94959160D01*
X137062401Y-94712599D01*
X136015000Y-93665198D01*
X136015000Y-93345000D01*
X135957148Y-93054161D01*
X135921520Y-93000840D01*
X135792402Y-92807599D01*
X130475122Y-87490320D01*
X130475162Y-87444833D01*
X130333117Y-87101057D01*
X130070327Y-86837808D01*
X129726799Y-86695162D01*
X129354833Y-86694838D01*
X129011057Y-86836883D01*
X128747808Y-87099673D01*
X128605162Y-87443201D01*
X128604838Y-87815167D01*
X128746883Y-88158943D01*
X129009673Y-88422192D01*
X129353201Y-88564838D01*
X129400077Y-88564879D01*
X134495000Y-93659803D01*
X134495000Y-93980000D01*
X134552852Y-94270839D01*
X134717599Y-94517401D01*
X135765000Y-95564802D01*
X135765000Y-113350198D01*
X135575198Y-113540000D01*
X133358920Y-113540000D01*
X133717860Y-113524736D01*
X134158135Y-113342368D01*
X134243316Y-113086921D01*
X133350000Y-112193605D01*
X132456684Y-113086921D01*
X132541865Y-113342368D01*
X133082945Y-113540000D01*
X122234802Y-113540000D01*
X121757765Y-113062963D01*
X121920335Y-112900677D01*
X122325029Y-113306079D01*
X122885328Y-113538735D01*
X123492011Y-113539265D01*
X124052715Y-113307586D01*
X124460335Y-112900677D01*
X124865029Y-113306079D01*
X125425328Y-113538735D01*
X126032011Y-113539265D01*
X126592715Y-113307586D01*
X127000335Y-112900677D01*
X127405029Y-113306079D01*
X127965328Y-113538735D01*
X128572011Y-113539265D01*
X129132715Y-113307586D01*
X129540335Y-112900677D01*
X129945029Y-113306079D01*
X130505328Y-113538735D01*
X131112011Y-113539265D01*
X131672715Y-113307586D01*
X132102079Y-112878971D01*
X132113025Y-112852611D01*
X132277079Y-112907316D01*
X133170395Y-112014000D01*
X133529605Y-112014000D01*
X134422921Y-112907316D01*
X134678368Y-112822135D01*
X134886512Y-112252275D01*
X134860736Y-111646140D01*
X134678368Y-111205865D01*
X134422921Y-111120684D01*
X133529605Y-112014000D01*
X133170395Y-112014000D01*
X132277079Y-111120684D01*
X132113483Y-111175237D01*
X132103586Y-111151285D01*
X131893747Y-110941079D01*
X132456684Y-110941079D01*
X133350000Y-111834395D01*
X134243316Y-110941079D01*
X134158135Y-110685632D01*
X133588275Y-110477488D01*
X132982140Y-110503264D01*
X132541865Y-110685632D01*
X132456684Y-110941079D01*
X131893747Y-110941079D01*
X131674971Y-110721921D01*
X131114672Y-110489265D01*
X130507989Y-110488735D01*
X129947285Y-110720414D01*
X129539665Y-111127323D01*
X129134971Y-110721921D01*
X128877476Y-110615000D01*
X129560000Y-110615000D01*
X129850839Y-110557148D01*
X130097401Y-110392401D01*
X131267362Y-109222440D01*
X132215000Y-109222440D01*
X132450317Y-109178162D01*
X132666441Y-109039090D01*
X132714134Y-108969289D01*
X132750910Y-109026441D01*
X132963110Y-109171431D01*
X133215000Y-109222440D01*
X134715000Y-109222440D01*
X134950317Y-109178162D01*
X135166441Y-109039090D01*
X135311431Y-108826890D01*
X135362440Y-108575000D01*
X135362440Y-107325000D01*
X135318162Y-107089683D01*
X135179090Y-106873559D01*
X134966890Y-106728569D01*
X134919967Y-106719067D01*
X134920162Y-106494833D01*
X134778117Y-106151057D01*
X134515327Y-105887808D01*
X134171799Y-105745162D01*
X133799833Y-105744838D01*
X133456057Y-105886883D01*
X133192808Y-106149673D01*
X133050162Y-106493201D01*
X133049974Y-106708612D01*
X132979683Y-106721838D01*
X132763559Y-106860910D01*
X132715866Y-106930711D01*
X132679090Y-106873559D01*
X132466890Y-106728569D01*
X132215000Y-106677560D01*
X130715000Y-106677560D01*
X130479683Y-106721838D01*
X130263559Y-106860910D01*
X130118569Y-107073110D01*
X130067560Y-107325000D01*
X130067560Y-108272638D01*
X129245198Y-109095000D01*
X127935110Y-109095000D01*
X127935162Y-109034833D01*
X127831163Y-108783137D01*
X127999699Y-108713327D01*
X128178327Y-108534698D01*
X128275000Y-108301309D01*
X128275000Y-107680750D01*
X128116250Y-107522000D01*
X127442000Y-107522000D01*
X127442000Y-107542000D01*
X127337440Y-107542000D01*
X127337440Y-107248000D01*
X127442000Y-107248000D01*
X127442000Y-107268000D01*
X128116250Y-107268000D01*
X128275000Y-107109250D01*
X128275000Y-106488691D01*
X128178327Y-106255302D01*
X127999699Y-106076673D01*
X127925435Y-106045912D01*
X128091441Y-105939090D01*
X128236431Y-105726890D01*
X128256054Y-105629989D01*
X128455167Y-105630162D01*
X128798943Y-105488117D01*
X129062192Y-105225327D01*
X129204838Y-104881799D01*
X129205162Y-104509833D01*
X129170420Y-104425750D01*
X130080000Y-104425750D01*
X130080000Y-104891310D01*
X130176673Y-105124699D01*
X130355302Y-105303327D01*
X130588691Y-105400000D01*
X131179250Y-105400000D01*
X131338000Y-105241250D01*
X131338000Y-104267000D01*
X130238750Y-104267000D01*
X130080000Y-104425750D01*
X129170420Y-104425750D01*
X129063117Y-104166057D01*
X128800327Y-103902808D01*
X128456799Y-103760162D01*
X128258273Y-103759989D01*
X128243162Y-103679683D01*
X128104090Y-103463559D01*
X127891890Y-103318569D01*
X127640000Y-103267560D01*
X127125000Y-103267560D01*
X127125000Y-102231795D01*
X127330317Y-102193162D01*
X127546441Y-102054090D01*
X127691431Y-101841890D01*
X127742440Y-101590000D01*
X127742440Y-100340000D01*
X127698162Y-100104683D01*
X127559090Y-99888559D01*
X127346890Y-99743569D01*
X127095000Y-99692560D01*
X125784780Y-99692560D01*
X125887192Y-99590327D01*
X126029838Y-99246799D01*
X126030162Y-98874833D01*
X125888117Y-98531057D01*
X125784681Y-98427440D01*
X127095000Y-98427440D01*
X127330317Y-98383162D01*
X127546441Y-98244090D01*
X127651716Y-98090015D01*
X127820167Y-98090162D01*
X128163943Y-97948117D01*
X128427192Y-97685327D01*
X128569838Y-97341799D01*
X128570162Y-96969833D01*
X128428117Y-96626057D01*
X128165327Y-96362808D01*
X127821799Y-96220162D01*
X127650113Y-96220012D01*
X127559090Y-96078559D01*
X127346890Y-95933569D01*
X127095000Y-95882560D01*
X125595000Y-95882560D01*
X125359683Y-95926838D01*
X125143559Y-96065910D01*
X125097031Y-96134006D01*
X124954698Y-95991673D01*
X124721309Y-95895000D01*
X124130750Y-95895000D01*
X123972000Y-96053750D01*
X123972000Y-97028000D01*
X123992000Y-97028000D01*
X123992000Y-97282000D01*
X123972000Y-97282000D01*
X123972000Y-97302000D01*
X123718000Y-97302000D01*
X123718000Y-97282000D01*
X122618750Y-97282000D01*
X122460000Y-97440750D01*
X122460000Y-97906310D01*
X122556673Y-98139699D01*
X122735302Y-98318327D01*
X122872971Y-98375351D01*
X122652599Y-98522599D01*
X122017599Y-99157599D01*
X121852852Y-99404161D01*
X121795000Y-99695000D01*
X121795000Y-101920198D01*
X121605198Y-102110000D01*
X119300710Y-102110000D01*
X119447148Y-101890839D01*
X119472906Y-101761344D01*
X119568000Y-101666250D01*
X119568000Y-101585949D01*
X119666431Y-101441890D01*
X119717440Y-101190000D01*
X119717440Y-100537000D01*
X119822000Y-100537000D01*
X119822000Y-101666250D01*
X119980750Y-101825000D01*
X120146310Y-101825000D01*
X120379699Y-101728327D01*
X120558327Y-101549698D01*
X120655000Y-101316309D01*
X120655000Y-100695750D01*
X120496250Y-100537000D01*
X119822000Y-100537000D01*
X119717440Y-100537000D01*
X119717440Y-100263000D01*
X119822000Y-100263000D01*
X119822000Y-100283000D01*
X120496250Y-100283000D01*
X120655000Y-100124250D01*
X120655000Y-99503691D01*
X120558327Y-99270302D01*
X120379699Y-99091673D01*
X120305435Y-99060912D01*
X120471441Y-98954090D01*
X120616431Y-98741890D01*
X120667440Y-98490000D01*
X120667440Y-96930000D01*
X120623162Y-96694683D01*
X120549516Y-96580234D01*
X120622824Y-96403690D01*
X122460000Y-96403690D01*
X122460000Y-96869250D01*
X122618750Y-97028000D01*
X123718000Y-97028000D01*
X123718000Y-96053750D01*
X123559250Y-95895000D01*
X122968691Y-95895000D01*
X122735302Y-95991673D01*
X122556673Y-96170301D01*
X122460000Y-96403690D01*
X120622824Y-96403690D01*
X120629838Y-96386799D01*
X120630162Y-96014833D01*
X120488117Y-95671057D01*
X120225327Y-95407808D01*
X119881799Y-95265162D01*
X119509833Y-95264838D01*
X119166057Y-95406883D01*
X118971113Y-95601487D01*
X118931799Y-95585162D01*
X118559833Y-95584838D01*
X118216057Y-95726883D01*
X117952808Y-95989673D01*
X117810162Y-96333201D01*
X117809838Y-96705167D01*
X117815376Y-96718569D01*
X117772560Y-96930000D01*
X117772560Y-97857000D01*
X117668000Y-97857000D01*
X117668000Y-97837000D01*
X116993750Y-97837000D01*
X116835000Y-97995750D01*
X116835000Y-98616309D01*
X116931673Y-98849698D01*
X117110301Y-99028327D01*
X117184565Y-99059088D01*
X117018559Y-99165910D01*
X116873569Y-99378110D01*
X116822560Y-99630000D01*
X116822560Y-99907638D01*
X116302599Y-100427599D01*
X116137852Y-100674161D01*
X116080000Y-100965000D01*
X116080000Y-102235000D01*
X116137852Y-102525839D01*
X116302599Y-102772401D01*
X116460474Y-102930276D01*
X116352000Y-103038750D01*
X116352000Y-104013000D01*
X116372000Y-104013000D01*
X116372000Y-104267000D01*
X116352000Y-104267000D01*
X116352000Y-105241250D01*
X116510750Y-105400000D01*
X117101309Y-105400000D01*
X117334698Y-105303327D01*
X117475936Y-105162090D01*
X117510910Y-105216441D01*
X117723110Y-105361431D01*
X117975000Y-105412440D01*
X119475000Y-105412440D01*
X119710317Y-105368162D01*
X119926441Y-105229090D01*
X120071431Y-105016890D01*
X120093826Y-104906300D01*
X120119673Y-104932192D01*
X120463201Y-105074838D01*
X120835167Y-105075162D01*
X121054665Y-104984467D01*
X123065000Y-106994802D01*
X123065000Y-107950000D01*
X123122852Y-108240839D01*
X123287599Y-108487401D01*
X125192599Y-110392401D01*
X125371627Y-110512024D01*
X124867285Y-110720414D01*
X124459665Y-111127323D01*
X124054971Y-110721921D01*
X123494672Y-110489265D01*
X122887989Y-110488735D01*
X122327285Y-110720414D01*
X121919665Y-111127323D01*
X121514971Y-110721921D01*
X120954672Y-110489265D01*
X120347989Y-110488735D01*
X119787285Y-110720414D01*
X119379665Y-111127323D01*
X118974971Y-110721921D01*
X118414672Y-110489265D01*
X117807989Y-110488735D01*
X117247285Y-110720414D01*
X116839665Y-111127323D01*
X116434971Y-110721921D01*
X115874672Y-110489265D01*
X115267989Y-110488735D01*
X114707285Y-110720414D01*
X114277921Y-111149029D01*
X114045265Y-111709328D01*
X114044735Y-112316011D01*
X114276414Y-112876715D01*
X114705029Y-113306079D01*
X115265328Y-113538735D01*
X115872011Y-113539265D01*
X116432715Y-113307586D01*
X116840335Y-112900677D01*
X117245029Y-113306079D01*
X117805328Y-113538735D01*
X118412011Y-113539265D01*
X118972715Y-113307586D01*
X119380335Y-112900677D01*
X119785029Y-113306079D01*
X119996725Y-113393983D01*
X120112599Y-113567401D01*
X120720198Y-114175000D01*
X112074803Y-114175000D01*
X106582401Y-108682599D01*
X106335839Y-108517852D01*
X106045000Y-108460000D01*
X103184802Y-108460000D01*
X99185000Y-104460198D01*
X99185000Y-101786742D01*
X99310317Y-101763162D01*
X99526441Y-101624090D01*
X99671431Y-101411890D01*
X99722440Y-101160000D01*
X99722440Y-99820000D01*
X100302560Y-99820000D01*
X100302560Y-101160000D01*
X100346838Y-101395317D01*
X100485910Y-101611441D01*
X100698110Y-101756431D01*
X100950000Y-101807440D01*
X102250000Y-101807440D01*
X102485317Y-101763162D01*
X102701441Y-101624090D01*
X102846431Y-101411890D01*
X102876176Y-101265006D01*
X103055167Y-101265162D01*
X103398943Y-101123117D01*
X103477560Y-101044637D01*
X103477560Y-101160000D01*
X103521838Y-101395317D01*
X103660910Y-101611441D01*
X103873110Y-101756431D01*
X104125000Y-101807440D01*
X105425000Y-101807440D01*
X105660317Y-101763162D01*
X105876441Y-101624090D01*
X106021431Y-101411890D01*
X106072440Y-101160000D01*
X106072440Y-99660000D01*
X106028162Y-99424683D01*
X105889090Y-99208559D01*
X105676890Y-99063569D01*
X105663803Y-99060919D01*
X105876441Y-98924090D01*
X106021431Y-98711890D01*
X106072440Y-98460000D01*
X106072440Y-98090025D01*
X106230167Y-98090162D01*
X106573943Y-97948117D01*
X106652560Y-97869637D01*
X106652560Y-98460000D01*
X106696838Y-98695317D01*
X106835910Y-98911441D01*
X107048110Y-99056431D01*
X107061197Y-99059081D01*
X106848559Y-99195910D01*
X106703569Y-99408110D01*
X106652560Y-99660000D01*
X106652560Y-101160000D01*
X106696838Y-101395317D01*
X106835910Y-101611441D01*
X107048110Y-101756431D01*
X107300000Y-101807440D01*
X108600000Y-101807440D01*
X108835317Y-101763162D01*
X109051441Y-101624090D01*
X109196431Y-101411890D01*
X109201594Y-101386396D01*
X109730000Y-101914802D01*
X109730000Y-102110000D01*
X109147463Y-102110000D01*
X109115327Y-102077808D01*
X108771799Y-101935162D01*
X108399833Y-101934838D01*
X108056057Y-102076883D01*
X107792808Y-102339673D01*
X107650162Y-102683201D01*
X107649838Y-103055167D01*
X107791883Y-103398943D01*
X108054673Y-103662192D01*
X108398201Y-103804838D01*
X108770167Y-103805162D01*
X109113943Y-103663117D01*
X109147118Y-103630000D01*
X109276192Y-103630000D01*
X109253569Y-103663110D01*
X109202560Y-103915000D01*
X109202560Y-105285000D01*
X105972463Y-105285000D01*
X105940327Y-105252808D01*
X105596799Y-105110162D01*
X105224833Y-105109838D01*
X104881057Y-105251883D01*
X104617808Y-105514673D01*
X104475162Y-105858201D01*
X104474838Y-106230167D01*
X104616883Y-106573943D01*
X104722710Y-106679954D01*
X104617808Y-106784673D01*
X104475162Y-107128201D01*
X104474838Y-107500167D01*
X104616883Y-107843943D01*
X104879673Y-108107192D01*
X105223201Y-108249838D01*
X105595167Y-108250162D01*
X105825477Y-108155000D01*
X109202560Y-108155000D01*
X109202560Y-108175000D01*
X109246838Y-108410317D01*
X109385910Y-108626441D01*
X109598110Y-108771431D01*
X109850000Y-108822440D01*
X110277678Y-108822440D01*
X110190162Y-109033201D01*
X110189838Y-109405167D01*
X110331883Y-109748943D01*
X110594673Y-110012192D01*
X110938201Y-110154838D01*
X111310167Y-110155162D01*
X111653943Y-110013117D01*
X111917192Y-109750327D01*
X112059838Y-109406799D01*
X112060162Y-109034833D01*
X111972403Y-108822440D01*
X112400000Y-108822440D01*
X112635317Y-108778162D01*
X112851441Y-108639090D01*
X112996431Y-108426890D01*
X113047440Y-108175000D01*
X113047440Y-106805000D01*
X115110446Y-106805000D01*
X115023559Y-106860910D01*
X114878569Y-107073110D01*
X114827560Y-107325000D01*
X114827560Y-108575000D01*
X114871838Y-108810317D01*
X115010910Y-109026441D01*
X115223110Y-109171431D01*
X115475000Y-109222440D01*
X116975000Y-109222440D01*
X117210317Y-109178162D01*
X117426441Y-109039090D01*
X117474134Y-108969289D01*
X117510910Y-109026441D01*
X117723110Y-109171431D01*
X117975000Y-109222440D01*
X119475000Y-109222440D01*
X119710317Y-109178162D01*
X119926441Y-109039090D01*
X120031716Y-108885015D01*
X120200167Y-108885162D01*
X120543943Y-108743117D01*
X120807192Y-108480327D01*
X120949838Y-108136799D01*
X120950162Y-107764833D01*
X120808117Y-107421057D01*
X120545327Y-107157808D01*
X120201799Y-107015162D01*
X120030113Y-107015012D01*
X119939090Y-106873559D01*
X119726890Y-106728569D01*
X119475000Y-106677560D01*
X117975000Y-106677560D01*
X117739683Y-106721838D01*
X117523559Y-106860910D01*
X117475866Y-106930711D01*
X117439090Y-106873559D01*
X117226890Y-106728569D01*
X116980769Y-106678728D01*
X116927148Y-106409161D01*
X116762401Y-106162599D01*
X116107401Y-105507599D01*
X115942101Y-105397149D01*
X116098000Y-105241250D01*
X116098000Y-104267000D01*
X114998750Y-104267000D01*
X114840000Y-104425750D01*
X114840000Y-104891310D01*
X114936673Y-105124699D01*
X115096975Y-105285000D01*
X113035000Y-105285000D01*
X113035000Y-104980750D01*
X112876250Y-104822000D01*
X112202000Y-104822000D01*
X112202000Y-104842000D01*
X112097440Y-104842000D01*
X112097440Y-103915000D01*
X112053162Y-103679683D01*
X111948000Y-103516257D01*
X111948000Y-103438750D01*
X112202000Y-103438750D01*
X112202000Y-104568000D01*
X112876250Y-104568000D01*
X113035000Y-104409250D01*
X113035000Y-103788691D01*
X112938327Y-103555302D01*
X112771716Y-103388690D01*
X114840000Y-103388690D01*
X114840000Y-103854250D01*
X114998750Y-104013000D01*
X116098000Y-104013000D01*
X116098000Y-103038750D01*
X115939250Y-102880000D01*
X115348691Y-102880000D01*
X115115302Y-102976673D01*
X114936673Y-103155301D01*
X114840000Y-103388690D01*
X112771716Y-103388690D01*
X112759699Y-103376673D01*
X112526310Y-103280000D01*
X112360750Y-103280000D01*
X112202000Y-103438750D01*
X111948000Y-103438750D01*
X111852906Y-103343656D01*
X111827148Y-103214161D01*
X111662401Y-102967599D01*
X111250000Y-102555198D01*
X111250000Y-101600000D01*
X111192148Y-101309161D01*
X111027401Y-101062599D01*
X109837401Y-99872599D01*
X109590839Y-99707852D01*
X109300000Y-99650000D01*
X109245558Y-99650000D01*
X109203162Y-99424683D01*
X109064090Y-99208559D01*
X108851890Y-99063569D01*
X108838803Y-99060919D01*
X109051441Y-98924090D01*
X109196431Y-98711890D01*
X109247440Y-98460000D01*
X109247440Y-96960000D01*
X109218029Y-96803691D01*
X116835000Y-96803691D01*
X116835000Y-97424250D01*
X116993750Y-97583000D01*
X117668000Y-97583000D01*
X117668000Y-96453750D01*
X117509250Y-96295000D01*
X117343690Y-96295000D01*
X117110301Y-96391673D01*
X116931673Y-96570302D01*
X116835000Y-96803691D01*
X109218029Y-96803691D01*
X109203162Y-96724683D01*
X109064090Y-96508559D01*
X108851890Y-96363569D01*
X108710000Y-96334836D01*
X108710000Y-94322393D01*
X108988349Y-94508380D01*
X109537500Y-94617613D01*
X110086651Y-94508380D01*
X110552198Y-94197311D01*
X110807500Y-93815225D01*
X111062802Y-94197311D01*
X111528349Y-94508380D01*
X112077500Y-94617613D01*
X112626651Y-94508380D01*
X113092198Y-94197311D01*
X113347500Y-93815225D01*
X113602802Y-94197311D01*
X114068349Y-94508380D01*
X114617500Y-94617613D01*
X115166651Y-94508380D01*
X115632198Y-94197311D01*
X115887500Y-93815225D01*
X116142802Y-94197311D01*
X116608349Y-94508380D01*
X117157500Y-94617613D01*
X117706651Y-94508380D01*
X118172198Y-94197311D01*
X118427500Y-93815225D01*
X118682802Y-94197311D01*
X119148349Y-94508380D01*
X119697500Y-94617613D01*
X120246651Y-94508380D01*
X120712198Y-94197311D01*
X120967500Y-93815225D01*
X121222802Y-94197311D01*
X121688349Y-94508380D01*
X122237500Y-94617613D01*
X122786651Y-94508380D01*
X123252198Y-94197311D01*
X123507500Y-93815225D01*
X123762802Y-94197311D01*
X124228349Y-94508380D01*
X124777500Y-94617613D01*
X125326651Y-94508380D01*
X125792198Y-94197311D01*
X126103267Y-93731764D01*
X126212500Y-93182613D01*
X126212500Y-93126387D01*
X126103267Y-92577236D01*
X125792198Y-92111689D01*
X125326651Y-91800620D01*
X124777500Y-91691387D01*
X124228349Y-91800620D01*
X123762802Y-92111689D01*
X123507500Y-92493775D01*
X123252198Y-92111689D01*
X122786651Y-91800620D01*
X122237500Y-91691387D01*
X121688349Y-91800620D01*
X121222802Y-92111689D01*
X120967500Y-92493775D01*
X120712198Y-92111689D01*
X120246651Y-91800620D01*
X119697500Y-91691387D01*
X119148349Y-91800620D01*
X118682802Y-92111689D01*
X118427500Y-92493775D01*
X118172198Y-92111689D01*
X117706651Y-91800620D01*
X117157500Y-91691387D01*
X116608349Y-91800620D01*
X116142802Y-92111689D01*
X115887500Y-92493775D01*
X115632198Y-92111689D01*
X115166651Y-91800620D01*
X114617500Y-91691387D01*
X114068349Y-91800620D01*
X113602802Y-92111689D01*
X113347500Y-92493775D01*
X113092198Y-92111689D01*
X112626651Y-91800620D01*
X112077500Y-91691387D01*
X111528349Y-91800620D01*
X111062802Y-92111689D01*
X110807500Y-92493775D01*
X110552198Y-92111689D01*
X110086651Y-91800620D01*
X109537500Y-91691387D01*
X108988349Y-91800620D01*
X108522802Y-92111689D01*
X108267500Y-92493775D01*
X108012198Y-92111689D01*
X107546651Y-91800620D01*
X106997500Y-91691387D01*
X106448349Y-91800620D01*
X105982802Y-92111689D01*
X105727500Y-92493775D01*
X105472198Y-92111689D01*
X105006651Y-91800620D01*
X104457500Y-91691387D01*
X103908349Y-91800620D01*
X103442802Y-92111689D01*
X103187500Y-92493775D01*
X102932198Y-92111689D01*
X102466651Y-91800620D01*
X101917500Y-91691387D01*
X101368349Y-91800620D01*
X100902802Y-92111689D01*
X100647500Y-92493775D01*
X100392198Y-92111689D01*
X99926651Y-91800620D01*
X99377500Y-91691387D01*
X98828349Y-91800620D01*
X98362802Y-92111689D01*
X98107500Y-92493775D01*
X97852198Y-92111689D01*
X97386651Y-91800620D01*
X96837500Y-91691387D01*
X96288349Y-91800620D01*
X95822802Y-92111689D01*
X95567500Y-92493775D01*
X95312198Y-92111689D01*
X94846651Y-91800620D01*
X94297500Y-91691387D01*
X93748349Y-91800620D01*
X93282802Y-92111689D01*
X93027500Y-92493775D01*
X92772198Y-92111689D01*
X92306651Y-91800620D01*
X91757500Y-91691387D01*
X91208349Y-91800620D01*
X90742802Y-92111689D01*
X90646399Y-92255965D01*
X90620662Y-92119183D01*
X90481590Y-91903059D01*
X90269390Y-91758069D01*
X90017500Y-91707060D01*
X88417500Y-91707060D01*
X88182183Y-91751338D01*
X87966059Y-91890410D01*
X87821069Y-92102610D01*
X87770060Y-92354500D01*
X87770060Y-93954500D01*
X87814338Y-94189817D01*
X87953410Y-94405941D01*
X88140000Y-94533432D01*
X88140000Y-96333258D01*
X88014683Y-96356838D01*
X87798559Y-96495910D01*
X87653569Y-96708110D01*
X87602560Y-96960000D01*
X87602560Y-98460000D01*
X87646838Y-98695317D01*
X87785910Y-98911441D01*
X87998110Y-99056431D01*
X88011197Y-99059081D01*
X87798559Y-99195910D01*
X87653569Y-99408110D01*
X87602560Y-99660000D01*
X87602560Y-101160000D01*
X87646838Y-101395317D01*
X87785910Y-101611441D01*
X87998110Y-101756431D01*
X88140000Y-101785164D01*
X88140000Y-104775000D01*
X88197852Y-105065839D01*
X88362599Y-105312401D01*
X92172599Y-109122401D01*
X92419161Y-109287148D01*
X92710000Y-109345000D01*
X94173198Y-109345000D01*
X94555145Y-109726947D01*
X94312989Y-109726735D01*
X93752285Y-109958414D01*
X93344665Y-110365323D01*
X92939971Y-109959921D01*
X92379672Y-109727265D01*
X91772989Y-109726735D01*
X91212285Y-109958414D01*
X90804665Y-110365323D01*
X90399971Y-109959921D01*
X89839672Y-109727265D01*
X89232989Y-109726735D01*
X88672285Y-109958414D01*
X88264665Y-110365323D01*
X87859971Y-109959921D01*
X87299672Y-109727265D01*
X86692989Y-109726735D01*
X86132285Y-109958414D01*
X85724665Y-110365323D01*
X85319971Y-109959921D01*
X84759672Y-109727265D01*
X84152989Y-109726735D01*
X83592285Y-109958414D01*
X83162921Y-110387029D01*
X82930265Y-110947328D01*
X82929735Y-111554011D01*
X76327000Y-111554011D01*
X76327000Y-98610167D01*
X76534838Y-98610167D01*
X76676883Y-98953943D01*
X76939673Y-99217192D01*
X77283201Y-99359838D01*
X77655167Y-99360162D01*
X77998943Y-99218117D01*
X78084631Y-99132579D01*
X78121838Y-99330317D01*
X78260910Y-99546441D01*
X78473110Y-99691431D01*
X78486197Y-99694081D01*
X78273559Y-99830910D01*
X78128569Y-100043110D01*
X78077560Y-100295000D01*
X78077560Y-101795000D01*
X78121838Y-102030317D01*
X78260910Y-102246441D01*
X78473110Y-102391431D01*
X78615000Y-102420164D01*
X78615000Y-102942537D01*
X78582808Y-102974673D01*
X78440162Y-103318201D01*
X78439838Y-103690167D01*
X78581883Y-104033943D01*
X78615000Y-104067118D01*
X78615000Y-108022537D01*
X78582808Y-108054673D01*
X78440162Y-108398201D01*
X78439838Y-108770167D01*
X78581883Y-109113943D01*
X78844673Y-109377192D01*
X79188201Y-109519838D01*
X79560167Y-109520162D01*
X79903943Y-109378117D01*
X80167192Y-109115327D01*
X80309838Y-108771799D01*
X80310162Y-108399833D01*
X80168117Y-108056057D01*
X80135000Y-108022882D01*
X80135000Y-104067463D01*
X80167192Y-104035327D01*
X80309838Y-103691799D01*
X80310162Y-103319833D01*
X80168117Y-102976057D01*
X80135000Y-102942882D01*
X80135000Y-102421742D01*
X80260317Y-102398162D01*
X80476441Y-102259090D01*
X80621431Y-102046890D01*
X80672440Y-101795000D01*
X80672440Y-100295000D01*
X80628162Y-100059683D01*
X80489090Y-99843559D01*
X80276890Y-99698569D01*
X80263803Y-99695919D01*
X80476441Y-99559090D01*
X80621431Y-99346890D01*
X80672440Y-99095000D01*
X80672440Y-97595000D01*
X82522560Y-97595000D01*
X82522560Y-99095000D01*
X82566838Y-99330317D01*
X82705910Y-99546441D01*
X82918110Y-99691431D01*
X82931197Y-99694081D01*
X82718559Y-99830910D01*
X82573569Y-100043110D01*
X82522560Y-100295000D01*
X82522560Y-101795000D01*
X82566838Y-102030317D01*
X82705910Y-102246441D01*
X82918110Y-102391431D01*
X83170000Y-102442440D01*
X84470000Y-102442440D01*
X84705317Y-102398162D01*
X84921441Y-102259090D01*
X85066431Y-102046890D01*
X85115415Y-101805000D01*
X85645000Y-101805000D01*
X85935839Y-101747148D01*
X86182401Y-101582401D01*
X86897401Y-100867401D01*
X87062148Y-100620839D01*
X87120000Y-100330000D01*
X87120000Y-96834802D01*
X87134680Y-96820122D01*
X87180167Y-96820162D01*
X87523943Y-96678117D01*
X87787192Y-96415327D01*
X87929838Y-96071799D01*
X87930162Y-95699833D01*
X87788117Y-95356057D01*
X87525327Y-95092808D01*
X87181799Y-94950162D01*
X86809833Y-94949838D01*
X86466057Y-95091883D01*
X86202808Y-95354673D01*
X86060162Y-95698201D01*
X86060121Y-95745077D01*
X85822599Y-95982599D01*
X85657852Y-96229161D01*
X85600000Y-96520000D01*
X85600000Y-100015198D01*
X85330198Y-100285000D01*
X85115558Y-100285000D01*
X85073162Y-100059683D01*
X84934090Y-99843559D01*
X84721890Y-99698569D01*
X84708803Y-99695919D01*
X84921441Y-99559090D01*
X85066431Y-99346890D01*
X85117440Y-99095000D01*
X85117440Y-97595000D01*
X85073162Y-97359683D01*
X84934090Y-97143559D01*
X84721890Y-96998569D01*
X84580000Y-96969836D01*
X84580000Y-96447463D01*
X84612192Y-96415327D01*
X84754838Y-96071799D01*
X84755162Y-95699833D01*
X84613117Y-95356057D01*
X84350327Y-95092808D01*
X84006799Y-94950162D01*
X83634833Y-94949838D01*
X83291057Y-95091883D01*
X83027808Y-95354673D01*
X82885162Y-95698201D01*
X82884838Y-96070167D01*
X83026883Y-96413943D01*
X83060000Y-96447118D01*
X83060000Y-96968258D01*
X82934683Y-96991838D01*
X82718559Y-97130910D01*
X82573569Y-97343110D01*
X82522560Y-97595000D01*
X80672440Y-97595000D01*
X80628162Y-97359683D01*
X80489090Y-97143559D01*
X80276890Y-96998569D01*
X80025000Y-96947560D01*
X78725000Y-96947560D01*
X78489683Y-96991838D01*
X78273559Y-97130910D01*
X78128569Y-97343110D01*
X78079585Y-97585000D01*
X77885193Y-97585000D01*
X77656799Y-97490162D01*
X77284833Y-97489838D01*
X76941057Y-97631883D01*
X76677808Y-97894673D01*
X76535162Y-98238201D01*
X76534838Y-98610167D01*
X76327000Y-98610167D01*
X76327000Y-88831802D01*
X76797599Y-89302401D01*
X77044160Y-89467148D01*
X77092414Y-89476746D01*
X77335000Y-89525000D01*
X77421380Y-89525000D01*
X77438110Y-89536431D01*
X77690000Y-89587440D01*
X79072560Y-89587440D01*
X79072560Y-90667638D01*
X78202599Y-91537599D01*
X78037852Y-91784161D01*
X77980000Y-92075000D01*
X77980000Y-93980000D01*
X78037852Y-94270839D01*
X78202599Y-94517401D01*
X80107599Y-96422401D01*
X80354161Y-96587148D01*
X80645000Y-96645000D01*
X80965198Y-96645000D01*
X80979878Y-96659680D01*
X80979838Y-96705167D01*
X81121883Y-97048943D01*
X81384673Y-97312192D01*
X81728201Y-97454838D01*
X82100167Y-97455162D01*
X82443943Y-97313117D01*
X82707192Y-97050327D01*
X82849838Y-96706799D01*
X82850162Y-96334833D01*
X82708117Y-95991057D01*
X82445327Y-95727808D01*
X82101799Y-95585162D01*
X82054923Y-95585121D01*
X81817401Y-95347599D01*
X81570839Y-95182852D01*
X81280000Y-95125000D01*
X80959802Y-95125000D01*
X79500000Y-93665198D01*
X79500000Y-92389802D01*
X79635000Y-92254802D01*
X79635000Y-93095000D01*
X79692852Y-93385839D01*
X79857599Y-93632401D01*
X80742599Y-94517401D01*
X80989160Y-94682148D01*
X81280000Y-94740000D01*
X83185000Y-94740000D01*
X83475839Y-94682148D01*
X83722401Y-94517401D01*
X84992401Y-93247401D01*
X85157148Y-93000840D01*
X85215000Y-92710000D01*
X85215000Y-83820000D01*
X85167261Y-83580000D01*
X85157148Y-83529160D01*
X84992401Y-83282599D01*
X83945000Y-82235198D01*
X83945000Y-78105000D01*
X83887148Y-77814161D01*
X83887148Y-77814160D01*
X83743274Y-77598837D01*
X83977192Y-77365327D01*
X84119838Y-77021799D01*
X84120162Y-76649833D01*
X83978117Y-76306057D01*
X83945000Y-76272882D01*
X83945000Y-73974802D01*
X84330000Y-73589802D01*
X84330000Y-74295000D01*
X84387852Y-74585839D01*
X84552599Y-74832401D01*
X86457599Y-76737401D01*
X86704161Y-76902148D01*
X86995000Y-76960000D01*
X88143794Y-76960000D01*
X87891733Y-77337236D01*
X87782500Y-77886387D01*
X87782500Y-77942613D01*
X87891733Y-78491764D01*
X88202802Y-78957311D01*
X88668349Y-79268380D01*
X89217500Y-79377613D01*
X89766651Y-79268380D01*
X90232198Y-78957311D01*
X90487500Y-78575225D01*
X90742802Y-78957311D01*
X91208349Y-79268380D01*
X91757500Y-79377613D01*
X92306651Y-79268380D01*
X92772198Y-78957311D01*
X93027500Y-78575225D01*
X93282802Y-78957311D01*
X93748349Y-79268380D01*
X94297500Y-79377613D01*
X94846651Y-79268380D01*
X95312198Y-78957311D01*
X95582486Y-78552797D01*
X95685111Y-78769634D01*
X96100077Y-79145541D01*
X96488461Y-79306404D01*
X96710500Y-79184415D01*
X96710500Y-78041500D01*
X96690500Y-78041500D01*
X96690500Y-77787500D01*
X96710500Y-77787500D01*
X96710500Y-76644585D01*
X96584462Y-76575340D01*
X97692401Y-75467401D01*
X97857148Y-75220840D01*
X97915000Y-74930000D01*
X97915000Y-73974802D01*
X99134052Y-72755750D01*
X100198000Y-72755750D01*
X100198000Y-73376309D01*
X100294673Y-73609698D01*
X100473301Y-73788327D01*
X100706690Y-73885000D01*
X100872250Y-73885000D01*
X101031000Y-73726250D01*
X101031000Y-72597000D01*
X100356750Y-72597000D01*
X100198000Y-72755750D01*
X99134052Y-72755750D01*
X100009802Y-71880000D01*
X100198000Y-71880000D01*
X100198000Y-72184250D01*
X100356750Y-72343000D01*
X101031000Y-72343000D01*
X101031000Y-72323000D01*
X101135560Y-72323000D01*
X101135560Y-73250000D01*
X101179838Y-73485317D01*
X101285000Y-73648743D01*
X101285000Y-73726250D01*
X101348000Y-73789250D01*
X101348000Y-73992995D01*
X101300162Y-74108201D01*
X101299838Y-74480167D01*
X101441883Y-74823943D01*
X101704673Y-75087192D01*
X102048201Y-75229838D01*
X102420167Y-75230162D01*
X102763943Y-75088117D01*
X103027192Y-74825327D01*
X103169838Y-74481799D01*
X103170162Y-74109833D01*
X103082403Y-73897440D01*
X103383000Y-73897440D01*
X103618317Y-73853162D01*
X103834441Y-73714090D01*
X103979431Y-73501890D01*
X103992419Y-73437750D01*
X105569000Y-73437750D01*
X105569000Y-73903310D01*
X105665673Y-74136699D01*
X105844302Y-74315327D01*
X106077691Y-74412000D01*
X106668250Y-74412000D01*
X106827000Y-74253250D01*
X106827000Y-73279000D01*
X105727750Y-73279000D01*
X105569000Y-73437750D01*
X103992419Y-73437750D01*
X104030440Y-73250000D01*
X104030440Y-73230000D01*
X104060000Y-73230000D01*
X104350839Y-73172148D01*
X104597401Y-73007401D01*
X105204112Y-72400690D01*
X105569000Y-72400690D01*
X105569000Y-72866250D01*
X105727750Y-73025000D01*
X106827000Y-73025000D01*
X106827000Y-72050750D01*
X107081000Y-72050750D01*
X107081000Y-73025000D01*
X107101000Y-73025000D01*
X107101000Y-73279000D01*
X107081000Y-73279000D01*
X107081000Y-74253250D01*
X107239750Y-74412000D01*
X107830309Y-74412000D01*
X108063698Y-74315327D01*
X108204936Y-74174090D01*
X108239910Y-74228441D01*
X108452110Y-74373431D01*
X108704000Y-74424440D01*
X110204000Y-74424440D01*
X110439317Y-74380162D01*
X110655441Y-74241090D01*
X110800431Y-74028890D01*
X110851440Y-73777000D01*
X110851440Y-73722116D01*
X110900401Y-73689401D01*
X113169680Y-71420122D01*
X113215167Y-71420162D01*
X113558943Y-71278117D01*
X113822192Y-71015327D01*
X113964838Y-70671799D01*
X113965162Y-70299833D01*
X113823117Y-69956057D01*
X113560327Y-69692808D01*
X113216799Y-69550162D01*
X112844833Y-69549838D01*
X112501057Y-69691883D01*
X112237808Y-69954673D01*
X112095162Y-70298201D01*
X112095121Y-70345077D01*
X110487815Y-71952383D01*
X110455890Y-71930569D01*
X110204000Y-71879560D01*
X108704000Y-71879560D01*
X108468683Y-71923838D01*
X108252559Y-72062910D01*
X108206031Y-72131006D01*
X108063698Y-71988673D01*
X107830309Y-71892000D01*
X107239750Y-71892000D01*
X107081000Y-72050750D01*
X106827000Y-72050750D01*
X106668250Y-71892000D01*
X106077691Y-71892000D01*
X105844302Y-71988673D01*
X105665673Y-72167301D01*
X105569000Y-72400690D01*
X105204112Y-72400690D01*
X105947401Y-71657401D01*
X106112148Y-71410840D01*
X106170000Y-71120000D01*
X106170000Y-70353555D01*
X106204000Y-70360440D01*
X107704000Y-70360440D01*
X107939317Y-70316162D01*
X108155441Y-70177090D01*
X108203134Y-70107289D01*
X108239910Y-70164441D01*
X108452110Y-70309431D01*
X108704000Y-70360440D01*
X110204000Y-70360440D01*
X110439317Y-70316162D01*
X110655441Y-70177090D01*
X110800431Y-69964890D01*
X110824102Y-69848000D01*
X111125000Y-69848000D01*
X111415839Y-69790148D01*
X111662401Y-69625401D01*
X111827148Y-69378839D01*
X111885000Y-69088000D01*
X111885000Y-68893691D01*
X115047000Y-68893691D01*
X115047000Y-69484250D01*
X115205750Y-69643000D01*
X116205000Y-69643000D01*
X116205000Y-68543750D01*
X116459000Y-68543750D01*
X116459000Y-69643000D01*
X117458250Y-69643000D01*
X117617000Y-69484250D01*
X117617000Y-68893691D01*
X118603000Y-68893691D01*
X118603000Y-69484250D01*
X118761750Y-69643000D01*
X119761000Y-69643000D01*
X119761000Y-68543750D01*
X120015000Y-68543750D01*
X120015000Y-69643000D01*
X121014250Y-69643000D01*
X121173000Y-69484250D01*
X121173000Y-68893691D01*
X122159000Y-68893691D01*
X122159000Y-69484250D01*
X122317750Y-69643000D01*
X123317000Y-69643000D01*
X123317000Y-68543750D01*
X123158250Y-68385000D01*
X122667690Y-68385000D01*
X122434301Y-68481673D01*
X122255673Y-68660302D01*
X122159000Y-68893691D01*
X121173000Y-68893691D01*
X121076327Y-68660302D01*
X120897699Y-68481673D01*
X120664310Y-68385000D01*
X120173750Y-68385000D01*
X120015000Y-68543750D01*
X119761000Y-68543750D01*
X119602250Y-68385000D01*
X119111690Y-68385000D01*
X118878301Y-68481673D01*
X118699673Y-68660302D01*
X118603000Y-68893691D01*
X117617000Y-68893691D01*
X117520327Y-68660302D01*
X117341699Y-68481673D01*
X117108310Y-68385000D01*
X116617750Y-68385000D01*
X116459000Y-68543750D01*
X116205000Y-68543750D01*
X116046250Y-68385000D01*
X115555690Y-68385000D01*
X115322301Y-68481673D01*
X115143673Y-68660302D01*
X115047000Y-68893691D01*
X111885000Y-68893691D01*
X111885000Y-64449802D01*
X111899680Y-64435122D01*
X111945167Y-64435162D01*
X112288943Y-64293117D01*
X112552192Y-64030327D01*
X112694838Y-63686799D01*
X112694892Y-63625000D01*
X112715198Y-63625000D01*
X112905000Y-63814802D01*
X112905000Y-66112537D01*
X112872808Y-66144673D01*
X112730162Y-66488201D01*
X112729838Y-66860167D01*
X112871883Y-67203943D01*
X113134673Y-67467192D01*
X113478201Y-67609838D01*
X113850167Y-67610162D01*
X114193943Y-67468117D01*
X114227118Y-67435000D01*
X121285000Y-67435000D01*
X121575839Y-67377148D01*
X121822401Y-67212401D01*
X122457401Y-66577401D01*
X122622148Y-66330839D01*
X122680000Y-66040000D01*
X122680000Y-65614038D01*
X122780317Y-65595162D01*
X122996441Y-65456090D01*
X123065000Y-65355751D01*
X123065000Y-67310000D01*
X123122852Y-67600839D01*
X123287599Y-67847401D01*
X123825198Y-68385000D01*
X123729750Y-68385000D01*
X123571000Y-68543750D01*
X123571000Y-69643000D01*
X124570250Y-69643000D01*
X124729000Y-69484250D01*
X124729000Y-68893691D01*
X124703447Y-68832000D01*
X125744556Y-68832000D01*
X125712560Y-68990000D01*
X125712560Y-70550000D01*
X125756838Y-70785317D01*
X125895910Y-71001441D01*
X126071232Y-71121233D01*
X125908559Y-71225910D01*
X125763569Y-71438110D01*
X125712560Y-71690000D01*
X125712560Y-73250000D01*
X125756838Y-73485317D01*
X125895910Y-73701441D01*
X126108110Y-73846431D01*
X126360000Y-73897440D01*
X126875000Y-73897440D01*
X126875000Y-74367537D01*
X126842808Y-74399673D01*
X126700162Y-74743201D01*
X126699838Y-75115167D01*
X126834056Y-75440000D01*
X121548802Y-75440000D01*
X123121362Y-73867440D01*
X124094000Y-73867440D01*
X124329317Y-73823162D01*
X124545441Y-73684090D01*
X124690431Y-73471890D01*
X124741440Y-73220000D01*
X124741440Y-71720000D01*
X124697162Y-71484683D01*
X124558090Y-71268559D01*
X124345890Y-71123569D01*
X124312510Y-71116809D01*
X124453699Y-71058327D01*
X124632327Y-70879698D01*
X124729000Y-70646309D01*
X124729000Y-70055750D01*
X124570250Y-69897000D01*
X123571000Y-69897000D01*
X123571000Y-69917000D01*
X123317000Y-69917000D01*
X123317000Y-69897000D01*
X122317750Y-69897000D01*
X122159000Y-70055750D01*
X122159000Y-70646309D01*
X122255673Y-70879698D01*
X122434301Y-71058327D01*
X122570287Y-71114654D01*
X122558683Y-71116838D01*
X122342559Y-71255910D01*
X122197569Y-71468110D01*
X122146560Y-71720000D01*
X122146560Y-72692638D01*
X119477599Y-75361599D01*
X119425213Y-75440000D01*
X117404802Y-75440000D01*
X119021254Y-73823548D01*
X119238000Y-73867440D01*
X120538000Y-73867440D01*
X120773317Y-73823162D01*
X120989441Y-73684090D01*
X121134431Y-73471890D01*
X121185440Y-73220000D01*
X121185440Y-71720000D01*
X121141162Y-71484683D01*
X121002090Y-71268559D01*
X120789890Y-71123569D01*
X120756510Y-71116809D01*
X120897699Y-71058327D01*
X121076327Y-70879698D01*
X121173000Y-70646309D01*
X121173000Y-70055750D01*
X121014250Y-69897000D01*
X120015000Y-69897000D01*
X120015000Y-69917000D01*
X119761000Y-69917000D01*
X119761000Y-69897000D01*
X118761750Y-69897000D01*
X118603000Y-70055750D01*
X118603000Y-70646309D01*
X118699673Y-70879698D01*
X118878301Y-71058327D01*
X119014287Y-71114654D01*
X119002683Y-71116838D01*
X118786559Y-71255910D01*
X118641569Y-71468110D01*
X118590560Y-71720000D01*
X118590560Y-72104638D01*
X117629440Y-73065758D01*
X117629440Y-71720000D01*
X117585162Y-71484683D01*
X117446090Y-71268559D01*
X117233890Y-71123569D01*
X117200510Y-71116809D01*
X117341699Y-71058327D01*
X117520327Y-70879698D01*
X117617000Y-70646309D01*
X117617000Y-70055750D01*
X117458250Y-69897000D01*
X116459000Y-69897000D01*
X116459000Y-69917000D01*
X116205000Y-69917000D01*
X116205000Y-69897000D01*
X115205750Y-69897000D01*
X115047000Y-70055750D01*
X115047000Y-70646309D01*
X115143673Y-70879698D01*
X115322301Y-71058327D01*
X115458287Y-71114654D01*
X115446683Y-71116838D01*
X115230559Y-71255910D01*
X115085569Y-71468110D01*
X115034560Y-71720000D01*
X115034560Y-73220000D01*
X115078838Y-73455317D01*
X115130113Y-73535000D01*
X114300000Y-73535000D01*
X114057414Y-73583254D01*
X114009160Y-73592852D01*
X113762599Y-73757599D01*
X111445198Y-76075000D01*
X110617000Y-76075000D01*
X110326161Y-76132852D01*
X110079599Y-76297599D01*
X109861386Y-76515812D01*
X109537500Y-76451387D01*
X108988349Y-76560620D01*
X108522802Y-76871689D01*
X108267500Y-77253775D01*
X108012198Y-76871689D01*
X107546651Y-76560620D01*
X106997500Y-76451387D01*
X106448349Y-76560620D01*
X105982802Y-76871689D01*
X105727500Y-77253775D01*
X105472198Y-76871689D01*
X105006651Y-76560620D01*
X104457500Y-76451387D01*
X103908349Y-76560620D01*
X103442802Y-76871689D01*
X103187500Y-77253775D01*
X102932198Y-76871689D01*
X102466651Y-76560620D01*
X101917500Y-76451387D01*
X101368349Y-76560620D01*
X100902802Y-76871689D01*
X100647500Y-77253775D01*
X100392198Y-76871689D01*
X99926651Y-76560620D01*
X99377500Y-76451387D01*
X98828349Y-76560620D01*
X98362802Y-76871689D01*
X98092514Y-77276203D01*
X97989889Y-77059366D01*
X97574923Y-76683459D01*
X97186539Y-76522596D01*
X96964500Y-76644585D01*
X96964500Y-77787500D01*
X96984500Y-77787500D01*
X96984500Y-78041500D01*
X96964500Y-78041500D01*
X96964500Y-79184415D01*
X97186539Y-79306404D01*
X97574923Y-79145541D01*
X97989889Y-78769634D01*
X98092514Y-78552797D01*
X98362802Y-78957311D01*
X98828349Y-79268380D01*
X99377500Y-79377613D01*
X99926651Y-79268380D01*
X100392198Y-78957311D01*
X100647500Y-78575225D01*
X100902802Y-78957311D01*
X101368349Y-79268380D01*
X101917500Y-79377613D01*
X102466651Y-79268380D01*
X102932198Y-78957311D01*
X103187500Y-78575225D01*
X103442802Y-78957311D01*
X103908349Y-79268380D01*
X104457500Y-79377613D01*
X105006651Y-79268380D01*
X105472198Y-78957311D01*
X105727500Y-78575225D01*
X105982802Y-78957311D01*
X106448349Y-79268380D01*
X106997500Y-79377613D01*
X107546651Y-79268380D01*
X108012198Y-78957311D01*
X108267500Y-78575225D01*
X108522802Y-78957311D01*
X108988349Y-79268380D01*
X109537500Y-79377613D01*
X110086651Y-79268380D01*
X110552198Y-78957311D01*
X110807500Y-78575225D01*
X111062802Y-78957311D01*
X111528349Y-79268380D01*
X112077500Y-79377613D01*
X112626651Y-79268380D01*
X113092198Y-78957311D01*
X113347500Y-78575225D01*
X113602802Y-78957311D01*
X114068349Y-79268380D01*
X114617500Y-79377613D01*
X115166651Y-79268380D01*
X115632198Y-78957311D01*
X115887500Y-78575225D01*
X116142802Y-78957311D01*
X116397500Y-79127495D01*
X116397500Y-81086166D01*
X116311057Y-81121883D01*
X116047808Y-81384673D01*
X115905162Y-81728201D01*
X115904838Y-82100167D01*
X116046883Y-82443943D01*
X116309673Y-82707192D01*
X116653201Y-82849838D01*
X117025167Y-82850162D01*
X117368943Y-82708117D01*
X117632192Y-82445327D01*
X117774838Y-82101799D01*
X117774913Y-82015154D01*
X117859648Y-81888339D01*
X117917500Y-81597500D01*
X117917500Y-79127495D01*
X118172198Y-78957311D01*
X118427500Y-78575225D01*
X118682802Y-78957311D01*
X119148349Y-79268380D01*
X119697500Y-79377613D01*
X120246651Y-79268380D01*
X120712198Y-78957311D01*
X120967500Y-78575225D01*
X121222802Y-78957311D01*
X121688349Y-79268380D01*
X122237500Y-79377613D01*
X122786651Y-79268380D01*
X123252198Y-78957311D01*
X123507500Y-78575225D01*
X123762802Y-78957311D01*
X124228349Y-79268380D01*
X124335000Y-79289594D01*
X124335000Y-89535000D01*
X124392852Y-89825839D01*
X124557599Y-90072401D01*
X126240000Y-91754802D01*
X126240000Y-92710000D01*
X126297852Y-93000839D01*
X126462599Y-93247401D01*
X129415000Y-96199802D01*
X129415000Y-102307537D01*
X129382808Y-102339673D01*
X129240162Y-102683201D01*
X129239838Y-103055167D01*
X129381883Y-103398943D01*
X129644673Y-103662192D01*
X129988201Y-103804838D01*
X130080000Y-103804918D01*
X130080000Y-103854250D01*
X130238750Y-104013000D01*
X131338000Y-104013000D01*
X131338000Y-103038750D01*
X131592000Y-103038750D01*
X131592000Y-104013000D01*
X131612000Y-104013000D01*
X131612000Y-104267000D01*
X131592000Y-104267000D01*
X131592000Y-105241250D01*
X131750750Y-105400000D01*
X132341309Y-105400000D01*
X132574698Y-105303327D01*
X132715936Y-105162090D01*
X132750910Y-105216441D01*
X132963110Y-105361431D01*
X133215000Y-105412440D01*
X134715000Y-105412440D01*
X134950317Y-105368162D01*
X135166441Y-105229090D01*
X135311431Y-105016890D01*
X135362440Y-104765000D01*
X135362440Y-103515000D01*
X135318162Y-103279683D01*
X135179090Y-103063559D01*
X134966890Y-102918569D01*
X134899953Y-102905014D01*
X134900162Y-102664833D01*
X134758117Y-102321057D01*
X134495327Y-102057808D01*
X134151799Y-101915162D01*
X133779833Y-101914838D01*
X133436057Y-102056883D01*
X133172808Y-102319673D01*
X133030162Y-102663201D01*
X133029954Y-102902379D01*
X132979683Y-102911838D01*
X132763559Y-103050910D01*
X132717031Y-103119006D01*
X132574698Y-102976673D01*
X132341309Y-102880000D01*
X131750750Y-102880000D01*
X131592000Y-103038750D01*
X131338000Y-103038750D01*
X131179250Y-102880000D01*
X131109992Y-102880000D01*
X131110162Y-102684833D01*
X130968117Y-102341057D01*
X130935000Y-102307882D01*
X130935000Y-95885000D01*
X130877148Y-95594161D01*
X130712401Y-95347599D01*
X127760000Y-92395198D01*
X127760000Y-91440000D01*
X127702148Y-91149161D01*
X127537401Y-90902599D01*
X125855000Y-89220198D01*
X125855000Y-83985633D01*
X126178201Y-84119838D01*
X126550167Y-84120162D01*
X126893943Y-83978117D01*
X126927118Y-83945000D01*
X135890000Y-83945000D01*
X136180839Y-83887148D01*
X136427401Y-83722401D01*
X137062401Y-83087401D01*
X137227148Y-82840839D01*
X137285000Y-82550000D01*
X137285000Y-60325000D01*
X137227148Y-60034161D01*
X137083274Y-59818837D01*
X137317192Y-59585327D01*
X137459838Y-59241799D01*
X137460162Y-58869833D01*
X137318117Y-58526057D01*
X137285000Y-58492882D01*
X137285000Y-54610000D01*
X137283777Y-54603852D01*
X137227148Y-54319160D01*
X137062401Y-54072599D01*
X136657772Y-53667970D01*
X136724744Y-53506684D01*
X136725255Y-52921882D01*
X136501932Y-52381400D01*
X136088775Y-51967521D01*
X135548684Y-51743256D01*
X134963882Y-51742745D01*
X134423400Y-51966068D01*
X134009521Y-52379225D01*
X133985217Y-52437755D01*
X133961932Y-52381400D01*
X133548775Y-51967521D01*
X133008684Y-51743256D01*
X132423882Y-51742745D01*
X131883400Y-51966068D01*
X131469521Y-52379225D01*
X131245256Y-52919316D01*
X131244745Y-53504118D01*
X131468068Y-54044600D01*
X131881225Y-54458479D01*
X132421316Y-54682744D01*
X133006118Y-54683255D01*
X133079947Y-54652749D01*
X135130000Y-56702802D01*
X135130000Y-58415548D01*
X134659684Y-58220256D01*
X134074882Y-58219745D01*
X133534400Y-58443068D01*
X133120521Y-58856225D01*
X132896256Y-59396316D01*
X132895745Y-59981118D01*
X133119068Y-60521600D01*
X133532225Y-60935479D01*
X133590755Y-60959783D01*
X133534400Y-60983068D01*
X133120521Y-61396225D01*
X132896256Y-61936316D01*
X132895745Y-62521118D01*
X133119068Y-63061600D01*
X133532225Y-63475479D01*
X134072316Y-63699744D01*
X134657118Y-63700255D01*
X135197600Y-63476932D01*
X135611479Y-63063775D01*
X135765000Y-62694055D01*
X135765000Y-66338432D01*
X135612932Y-65970400D01*
X135199775Y-65556521D01*
X134659684Y-65332256D01*
X134074882Y-65331745D01*
X133534400Y-65555068D01*
X133120521Y-65968225D01*
X132896256Y-66508316D01*
X132895745Y-67093118D01*
X133119068Y-67633600D01*
X133532225Y-68047479D01*
X133590755Y-68071783D01*
X133534400Y-68095068D01*
X133120521Y-68508225D01*
X132896256Y-69048316D01*
X132895745Y-69633118D01*
X133119068Y-70173600D01*
X133532225Y-70587479D01*
X134072316Y-70811744D01*
X134657118Y-70812255D01*
X135197600Y-70588932D01*
X135611479Y-70175775D01*
X135765000Y-69806055D01*
X135765000Y-73450432D01*
X135612932Y-73082400D01*
X135199775Y-72668521D01*
X134659684Y-72444256D01*
X134074882Y-72443745D01*
X133534400Y-72667068D01*
X133120521Y-73080225D01*
X133089887Y-73154000D01*
X131826000Y-73154000D01*
X131535160Y-73211852D01*
X131288599Y-73376599D01*
X129225198Y-75440000D01*
X128435633Y-75440000D01*
X128569838Y-75116799D01*
X128570162Y-74744833D01*
X128428117Y-74401057D01*
X128395000Y-74367882D01*
X128395000Y-73897440D01*
X128910000Y-73897440D01*
X129145317Y-73853162D01*
X129361441Y-73714090D01*
X129506431Y-73501890D01*
X129557440Y-73250000D01*
X129557440Y-71690000D01*
X129513162Y-71454683D01*
X129374090Y-71238559D01*
X129198768Y-71118767D01*
X129361441Y-71014090D01*
X129506431Y-70801890D01*
X129557440Y-70550000D01*
X129557440Y-68990000D01*
X129527710Y-68832000D01*
X130556000Y-68832000D01*
X130846839Y-68774148D01*
X131093401Y-68609401D01*
X131855401Y-67847401D01*
X132020148Y-67600839D01*
X132078000Y-67310000D01*
X132078000Y-58982352D01*
X132173692Y-58886827D01*
X132316338Y-58543299D01*
X132316662Y-58171333D01*
X132174617Y-57827557D01*
X131911827Y-57564308D01*
X131568299Y-57421662D01*
X131521423Y-57421621D01*
X129442401Y-55342599D01*
X129414681Y-55324077D01*
X129393826Y-55298064D01*
X127199789Y-53455073D01*
X127200255Y-52921882D01*
X126976932Y-52381400D01*
X126563775Y-51967521D01*
X126023684Y-51743256D01*
X125438882Y-51742745D01*
X124898400Y-51966068D01*
X124484521Y-52379225D01*
X124460217Y-52437755D01*
X124436932Y-52381400D01*
X124023775Y-51967521D01*
X123483684Y-51743256D01*
X122898882Y-51742745D01*
X122358400Y-51966068D01*
X121944521Y-52379225D01*
X121720256Y-52919316D01*
X121719745Y-53504118D01*
X121943068Y-54044600D01*
X122356225Y-54458479D01*
X122896316Y-54682744D01*
X123481118Y-54683255D01*
X124021600Y-54459932D01*
X124435479Y-54046775D01*
X124459783Y-53988245D01*
X124483068Y-54044600D01*
X124896225Y-54458479D01*
X125436316Y-54682744D01*
X126021118Y-54683255D01*
X126207176Y-54606377D01*
X128390924Y-56440726D01*
X130446378Y-58496180D01*
X130446338Y-58541667D01*
X130558000Y-58811910D01*
X130558000Y-66995198D01*
X130241198Y-67312000D01*
X129796440Y-67312000D01*
X129796440Y-66032000D01*
X129752162Y-65796683D01*
X129613090Y-65580559D01*
X129543289Y-65532866D01*
X129600441Y-65496090D01*
X129745431Y-65283890D01*
X129796440Y-65032000D01*
X129796440Y-63532000D01*
X129752162Y-63296683D01*
X129613090Y-63080559D01*
X129400890Y-62935569D01*
X129284000Y-62911898D01*
X129284000Y-61849000D01*
X129247002Y-61663000D01*
X129226148Y-61558160D01*
X129205060Y-61526600D01*
X129205162Y-61409833D01*
X129063117Y-61066057D01*
X128800327Y-60802808D01*
X128456799Y-60660162D01*
X128084833Y-60659838D01*
X127741057Y-60801883D01*
X127477808Y-61064673D01*
X127335162Y-61408201D01*
X127334838Y-61780167D01*
X127476883Y-62123943D01*
X127739673Y-62387192D01*
X127764000Y-62397294D01*
X127764000Y-62909962D01*
X127663683Y-62928838D01*
X127447559Y-63067910D01*
X127302569Y-63280110D01*
X127251560Y-63532000D01*
X127251560Y-65032000D01*
X127295838Y-65267317D01*
X127434910Y-65483441D01*
X127504711Y-65531134D01*
X127447559Y-65567910D01*
X127302569Y-65780110D01*
X127251560Y-66032000D01*
X127251560Y-66481238D01*
X127222401Y-66437599D01*
X126902401Y-66117599D01*
X126744722Y-66012242D01*
X126704162Y-65796683D01*
X126565090Y-65580559D01*
X126495289Y-65532866D01*
X126552441Y-65496090D01*
X126697431Y-65283890D01*
X126748440Y-65032000D01*
X126748440Y-63532000D01*
X126704162Y-63296683D01*
X126565090Y-63080559D01*
X126352890Y-62935569D01*
X126236000Y-62911898D01*
X126236000Y-62397597D01*
X126258943Y-62388117D01*
X126522192Y-62125327D01*
X126664838Y-61781799D01*
X126665162Y-61409833D01*
X126523117Y-61066057D01*
X126260327Y-60802808D01*
X125916799Y-60660162D01*
X125544833Y-60659838D01*
X125201057Y-60801883D01*
X124937808Y-61064673D01*
X124795162Y-61408201D01*
X124795059Y-61526422D01*
X124773852Y-61558161D01*
X124716000Y-61849000D01*
X124716000Y-62909962D01*
X124615683Y-62928838D01*
X124585000Y-62948582D01*
X124585000Y-60252463D01*
X124617192Y-60220327D01*
X124759838Y-59876799D01*
X124760162Y-59504833D01*
X124618117Y-59161057D01*
X124585000Y-59127882D01*
X124585000Y-58420000D01*
X124527148Y-58129161D01*
X124362401Y-57882599D01*
X124125122Y-57645320D01*
X124125162Y-57599833D01*
X123983117Y-57256057D01*
X123720327Y-56992808D01*
X123376799Y-56850162D01*
X123004833Y-56849838D01*
X122661057Y-56991883D01*
X122397808Y-57254673D01*
X122255162Y-57598201D01*
X122254838Y-57970167D01*
X122396883Y-58313943D01*
X122659673Y-58577192D01*
X123003201Y-58719838D01*
X123050077Y-58719879D01*
X123065000Y-58734802D01*
X123065000Y-59127537D01*
X123032808Y-59159673D01*
X122890162Y-59503201D01*
X122889838Y-59875167D01*
X123031883Y-60218943D01*
X123065000Y-60252118D01*
X123065000Y-60627446D01*
X123009090Y-60540559D01*
X122796890Y-60395569D01*
X122748928Y-60385857D01*
X122854838Y-60130799D01*
X122855162Y-59758833D01*
X122713117Y-59415057D01*
X122450327Y-59151808D01*
X122106799Y-59009162D01*
X121734833Y-59008838D01*
X121391057Y-59150883D01*
X121127808Y-59413673D01*
X120985162Y-59757201D01*
X120984838Y-60129167D01*
X121089791Y-60383173D01*
X121059683Y-60388838D01*
X120843559Y-60527910D01*
X120698569Y-60740110D01*
X120661876Y-60921307D01*
X120642090Y-60890559D01*
X120429890Y-60745569D01*
X120178000Y-60694560D01*
X119578000Y-60694560D01*
X119342683Y-60738838D01*
X119253772Y-60796051D01*
X119179890Y-60745569D01*
X118928000Y-60694560D01*
X118328000Y-60694560D01*
X118138000Y-60730311D01*
X118138000Y-60228000D01*
X118084126Y-59957161D01*
X118080148Y-59937160D01*
X117915401Y-59690599D01*
X117267122Y-59042320D01*
X117267162Y-58996833D01*
X117125117Y-58653057D01*
X116862327Y-58389808D01*
X116518799Y-58247162D01*
X116146833Y-58246838D01*
X115803057Y-58388883D01*
X115573171Y-58618369D01*
X115472401Y-58517599D01*
X115225839Y-58352852D01*
X114935000Y-58295000D01*
X106045000Y-58295000D01*
X105754161Y-58352852D01*
X105619143Y-58443068D01*
X105507599Y-58517599D01*
X103818000Y-60207198D01*
X103818000Y-60132000D01*
X103808275Y-60083110D01*
X103760148Y-59841160D01*
X103595401Y-59594599D01*
X103551122Y-59550320D01*
X103551162Y-59504833D01*
X103409117Y-59161057D01*
X103146327Y-58897808D01*
X102802799Y-58755162D01*
X102430833Y-58754838D01*
X102087057Y-58896883D01*
X101823808Y-59159673D01*
X101708236Y-59438000D01*
X99822000Y-59438000D01*
X99531161Y-59495852D01*
X99284599Y-59660599D01*
X98920320Y-60024878D01*
X98874833Y-60024838D01*
X98531057Y-60166883D01*
X98267808Y-60429673D01*
X98125162Y-60773201D01*
X98124838Y-61145167D01*
X98266883Y-61488943D01*
X98529673Y-61752192D01*
X98873201Y-61894838D01*
X99245167Y-61895162D01*
X99588943Y-61753117D01*
X99852192Y-61490327D01*
X99994838Y-61146799D01*
X99994879Y-61099923D01*
X100136802Y-60958000D01*
X100185560Y-60958000D01*
X100185560Y-62133731D01*
X100039160Y-62162852D01*
X99792599Y-62327599D01*
X98522599Y-63597599D01*
X98357852Y-63844161D01*
X98300000Y-64135000D01*
X98300000Y-65915000D01*
X96566790Y-65915000D01*
X96576431Y-65900890D01*
X96600102Y-65784000D01*
X96901000Y-65784000D01*
X97191839Y-65726148D01*
X97223399Y-65705060D01*
X97340167Y-65705162D01*
X97683943Y-65563117D01*
X97947192Y-65300327D01*
X98089838Y-64956799D01*
X98090162Y-64584833D01*
X97948117Y-64241057D01*
X97685327Y-63977808D01*
X97341799Y-63835162D01*
X96969833Y-63834838D01*
X96626057Y-63976883D01*
X96526750Y-64076017D01*
X96444090Y-63947559D01*
X96231890Y-63802569D01*
X95980000Y-63751560D01*
X94480000Y-63751560D01*
X94244683Y-63795838D01*
X94028559Y-63934910D01*
X93980866Y-64004711D01*
X93944090Y-63947559D01*
X93731890Y-63802569D01*
X93480000Y-63751560D01*
X91980000Y-63751560D01*
X91744683Y-63795838D01*
X91528559Y-63934910D01*
X91383569Y-64147110D01*
X91332560Y-64399000D01*
X91332560Y-65346638D01*
X90764198Y-65915000D01*
X88194802Y-65915000D01*
X88368761Y-65741041D01*
X88509000Y-65769440D01*
X89159000Y-65769440D01*
X89394317Y-65725162D01*
X89610441Y-65586090D01*
X89755431Y-65373890D01*
X89806440Y-65122000D01*
X89806440Y-63853440D01*
X89983201Y-63926838D01*
X90355167Y-63927162D01*
X90698943Y-63785117D01*
X90872862Y-63611501D01*
X91095839Y-63567148D01*
X91342401Y-63402401D01*
X92512362Y-62232440D01*
X93480000Y-62232440D01*
X93715317Y-62188162D01*
X93931441Y-62049090D01*
X93979134Y-61979289D01*
X94015910Y-62036441D01*
X94228110Y-62181431D01*
X94480000Y-62232440D01*
X95980000Y-62232440D01*
X96215317Y-62188162D01*
X96431441Y-62049090D01*
X96576431Y-61836890D01*
X96598826Y-61726300D01*
X96624673Y-61752192D01*
X96968201Y-61894838D01*
X97340167Y-61895162D01*
X97683943Y-61753117D01*
X97947192Y-61490327D01*
X98089838Y-61146799D01*
X98090162Y-60774833D01*
X97948117Y-60431057D01*
X97685327Y-60167808D01*
X97341799Y-60025162D01*
X96969833Y-60024838D01*
X96626057Y-60166883D01*
X96600590Y-60192305D01*
X96583162Y-60099683D01*
X96444090Y-59883559D01*
X96231890Y-59738569D01*
X95980000Y-59687560D01*
X94480000Y-59687560D01*
X94244683Y-59731838D01*
X94028559Y-59870910D01*
X93980866Y-59940711D01*
X93944090Y-59883559D01*
X93731890Y-59738569D01*
X93480000Y-59687560D01*
X91980000Y-59687560D01*
X91744683Y-59731838D01*
X91528559Y-59870910D01*
X91383569Y-60083110D01*
X91332560Y-60335000D01*
X91332560Y-61262638D01*
X90490198Y-62105000D01*
X90472005Y-62105000D01*
X90356799Y-62057162D01*
X89984833Y-62056838D01*
X89868272Y-62105000D01*
X89806440Y-62105000D01*
X89806440Y-60862000D01*
X89762162Y-60626683D01*
X89623090Y-60410559D01*
X89594000Y-60390683D01*
X89594000Y-58354000D01*
X89536148Y-58063161D01*
X89371401Y-57816599D01*
X88802401Y-57247599D01*
X88555839Y-57082852D01*
X88265000Y-57025000D01*
X86287463Y-57025000D01*
X86255327Y-56992808D01*
X85911799Y-56850162D01*
X85539833Y-56849838D01*
X85196057Y-56991883D01*
X84932808Y-57254673D01*
X84790162Y-57598201D01*
X84789838Y-57970167D01*
X84931883Y-58313943D01*
X85194673Y-58577192D01*
X85538201Y-58719838D01*
X85910167Y-58720162D01*
X86253943Y-58578117D01*
X86287118Y-58545000D01*
X87464367Y-58545000D01*
X87330162Y-58868201D01*
X87330114Y-58923271D01*
X87181852Y-59145161D01*
X87124000Y-59436000D01*
X87124000Y-60214560D01*
X86609000Y-60214560D01*
X86373683Y-60258838D01*
X86157559Y-60397910D01*
X86012569Y-60610110D01*
X85961560Y-60862000D01*
X85961560Y-62105000D01*
X85652463Y-62105000D01*
X85620327Y-62072808D01*
X85276799Y-61930162D01*
X84904833Y-61929838D01*
X84580000Y-62064056D01*
X84580000Y-56066000D01*
X84771331Y-56066000D01*
X84781910Y-56082441D01*
X84994110Y-56227431D01*
X85246000Y-56278440D01*
X86806000Y-56278440D01*
X87041317Y-56234162D01*
X87257441Y-56095090D01*
X87377233Y-55919768D01*
X87481910Y-56082441D01*
X87694110Y-56227431D01*
X87946000Y-56278440D01*
X89506000Y-56278440D01*
X89741317Y-56234162D01*
X89957441Y-56095090D01*
X89977317Y-56066000D01*
X90680000Y-56066000D01*
X90680000Y-56587537D01*
X90647808Y-56619673D01*
X90505162Y-56963201D01*
X90504838Y-57335167D01*
X90646883Y-57678943D01*
X90909673Y-57942192D01*
X91253201Y-58084838D01*
X91625167Y-58085162D01*
X91968943Y-57943117D01*
X92232192Y-57680327D01*
X92374838Y-57336799D01*
X92375162Y-56964833D01*
X92233117Y-56621057D01*
X92200000Y-56587882D01*
X92200000Y-55559802D01*
X93247401Y-54512401D01*
X93412148Y-54265840D01*
X93470000Y-53975000D01*
X93470000Y-53340000D01*
X93412148Y-53049161D01*
X93412148Y-53049160D01*
X93247401Y-52802599D01*
X91977401Y-51532599D01*
X91730839Y-51367852D01*
X91440000Y-51310000D01*
X84455000Y-51310000D01*
X84164161Y-51367852D01*
X83917599Y-51532599D01*
X83505198Y-51945000D01*
X83267038Y-51945000D01*
X83248162Y-51844683D01*
X83109090Y-51628559D01*
X82896890Y-51483569D01*
X82645000Y-51432560D01*
X81145000Y-51432560D01*
X80909683Y-51476838D01*
X80693559Y-51615910D01*
X80645866Y-51685711D01*
X80609090Y-51628559D01*
X80396890Y-51483569D01*
X80145000Y-51432560D01*
X78645000Y-51432560D01*
X78409683Y-51476838D01*
X78193559Y-51615910D01*
X78048569Y-51828110D01*
X77997560Y-52080000D01*
X77997560Y-52372638D01*
X76695320Y-53674878D01*
X76649833Y-53674838D01*
X76327000Y-53808230D01*
X76327000Y-50927000D01*
X94293072Y-50927000D01*
X94165667Y-51233825D01*
G36*
X105665673Y-64039301D02*
X105569000Y-64272690D01*
X105569000Y-64738250D01*
X105727750Y-64897000D01*
X106827000Y-64897000D01*
X106827000Y-64877000D01*
X107081000Y-64877000D01*
X107081000Y-64897000D01*
X107101000Y-64897000D01*
X107101000Y-65151000D01*
X107081000Y-65151000D01*
X107081000Y-66125250D01*
X107239750Y-66284000D01*
X107830309Y-66284000D01*
X108063698Y-66187327D01*
X108204936Y-66046090D01*
X108239910Y-66100441D01*
X108452110Y-66245431D01*
X108704000Y-66296440D01*
X110204000Y-66296440D01*
X110365000Y-66266146D01*
X110365000Y-67848163D01*
X110204000Y-67815560D01*
X108704000Y-67815560D01*
X108468683Y-67859838D01*
X108252559Y-67998910D01*
X108204866Y-68068711D01*
X108168090Y-68011559D01*
X107955890Y-67866569D01*
X107704000Y-67815560D01*
X106847476Y-67815560D01*
X106979838Y-67496799D01*
X106980162Y-67124833D01*
X106838117Y-66781057D01*
X106575327Y-66517808D01*
X106231799Y-66375162D01*
X105859833Y-66374838D01*
X105516057Y-66516883D01*
X105252808Y-66779673D01*
X105110162Y-67123201D01*
X105110121Y-67170077D01*
X104872599Y-67407599D01*
X104707852Y-67654161D01*
X104650000Y-67945000D01*
X104650000Y-68279890D01*
X104589833Y-68279838D01*
X104246057Y-68421883D01*
X104212882Y-68455000D01*
X103724797Y-68455000D01*
X103634890Y-68393569D01*
X103505737Y-68367415D01*
X103550838Y-68258799D01*
X103551162Y-67886833D01*
X103409117Y-67543057D01*
X103146327Y-67279808D01*
X102802799Y-67137162D01*
X102430833Y-67136838D01*
X102087057Y-67278883D01*
X101823808Y-67541673D01*
X101681162Y-67885201D01*
X101681121Y-67932077D01*
X101570599Y-68042599D01*
X101405852Y-68289161D01*
X101395230Y-68342560D01*
X100833000Y-68342560D01*
X100597683Y-68386838D01*
X100381559Y-68525910D01*
X100236569Y-68738110D01*
X100185560Y-68990000D01*
X100185560Y-69010000D01*
X99820000Y-69010000D01*
X99820000Y-64627750D01*
X100198000Y-64627750D01*
X100198000Y-65248309D01*
X100294673Y-65481698D01*
X100473301Y-65660327D01*
X100706690Y-65757000D01*
X100872250Y-65757000D01*
X101031000Y-65598250D01*
X101031000Y-64469000D01*
X100356750Y-64469000D01*
X100198000Y-64627750D01*
X99820000Y-64627750D01*
X99820000Y-64449802D01*
X100205776Y-64064026D01*
X100356750Y-64215000D01*
X101031000Y-64215000D01*
X101031000Y-64195000D01*
X101135560Y-64195000D01*
X101135560Y-65122000D01*
X101179838Y-65357317D01*
X101285000Y-65520743D01*
X101285000Y-65598250D01*
X101348000Y-65661250D01*
X101348000Y-65737995D01*
X101300162Y-65853201D01*
X101299838Y-66225167D01*
X101441883Y-66568943D01*
X101704673Y-66832192D01*
X102048201Y-66974838D01*
X102420167Y-66975162D01*
X102763943Y-66833117D01*
X103027192Y-66570327D01*
X103169838Y-66226799D01*
X103170162Y-65854833D01*
X103134878Y-65769440D01*
X103383000Y-65769440D01*
X103618317Y-65725162D01*
X103834441Y-65586090D01*
X103979431Y-65373890D01*
X103992419Y-65309750D01*
X105569000Y-65309750D01*
X105569000Y-65775310D01*
X105665673Y-66008699D01*
X105844302Y-66187327D01*
X106077691Y-66284000D01*
X106668250Y-66284000D01*
X106827000Y-66125250D01*
X106827000Y-65151000D01*
X105727750Y-65151000D01*
X105569000Y-65309750D01*
X103992419Y-65309750D01*
X104030440Y-65122000D01*
X104030440Y-63899000D01*
X105805975Y-63899000D01*
X105665673Y-64039301D01*
X105665673Y-64039301D01*
G37*
X105665673Y-64039301D02*
X105569000Y-64272690D01*
X105569000Y-64738250D01*
X105727750Y-64897000D01*
X106827000Y-64897000D01*
X106827000Y-64877000D01*
X107081000Y-64877000D01*
X107081000Y-64897000D01*
X107101000Y-64897000D01*
X107101000Y-65151000D01*
X107081000Y-65151000D01*
X107081000Y-66125250D01*
X107239750Y-66284000D01*
X107830309Y-66284000D01*
X108063698Y-66187327D01*
X108204936Y-66046090D01*
X108239910Y-66100441D01*
X108452110Y-66245431D01*
X108704000Y-66296440D01*
X110204000Y-66296440D01*
X110365000Y-66266146D01*
X110365000Y-67848163D01*
X110204000Y-67815560D01*
X108704000Y-67815560D01*
X108468683Y-67859838D01*
X108252559Y-67998910D01*
X108204866Y-68068711D01*
X108168090Y-68011559D01*
X107955890Y-67866569D01*
X107704000Y-67815560D01*
X106847476Y-67815560D01*
X106979838Y-67496799D01*
X106980162Y-67124833D01*
X106838117Y-66781057D01*
X106575327Y-66517808D01*
X106231799Y-66375162D01*
X105859833Y-66374838D01*
X105516057Y-66516883D01*
X105252808Y-66779673D01*
X105110162Y-67123201D01*
X105110121Y-67170077D01*
X104872599Y-67407599D01*
X104707852Y-67654161D01*
X104650000Y-67945000D01*
X104650000Y-68279890D01*
X104589833Y-68279838D01*
X104246057Y-68421883D01*
X104212882Y-68455000D01*
X103724797Y-68455000D01*
X103634890Y-68393569D01*
X103505737Y-68367415D01*
X103550838Y-68258799D01*
X103551162Y-67886833D01*
X103409117Y-67543057D01*
X103146327Y-67279808D01*
X102802799Y-67137162D01*
X102430833Y-67136838D01*
X102087057Y-67278883D01*
X101823808Y-67541673D01*
X101681162Y-67885201D01*
X101681121Y-67932077D01*
X101570599Y-68042599D01*
X101405852Y-68289161D01*
X101395230Y-68342560D01*
X100833000Y-68342560D01*
X100597683Y-68386838D01*
X100381559Y-68525910D01*
X100236569Y-68738110D01*
X100185560Y-68990000D01*
X100185560Y-69010000D01*
X99820000Y-69010000D01*
X99820000Y-64627750D01*
X100198000Y-64627750D01*
X100198000Y-65248309D01*
X100294673Y-65481698D01*
X100473301Y-65660327D01*
X100706690Y-65757000D01*
X100872250Y-65757000D01*
X101031000Y-65598250D01*
X101031000Y-64469000D01*
X100356750Y-64469000D01*
X100198000Y-64627750D01*
X99820000Y-64627750D01*
X99820000Y-64449802D01*
X100205776Y-64064026D01*
X100356750Y-64215000D01*
X101031000Y-64215000D01*
X101031000Y-64195000D01*
X101135560Y-64195000D01*
X101135560Y-65122000D01*
X101179838Y-65357317D01*
X101285000Y-65520743D01*
X101285000Y-65598250D01*
X101348000Y-65661250D01*
X101348000Y-65737995D01*
X101300162Y-65853201D01*
X101299838Y-66225167D01*
X101441883Y-66568943D01*
X101704673Y-66832192D01*
X102048201Y-66974838D01*
X102420167Y-66975162D01*
X102763943Y-66833117D01*
X103027192Y-66570327D01*
X103169838Y-66226799D01*
X103170162Y-65854833D01*
X103134878Y-65769440D01*
X103383000Y-65769440D01*
X103618317Y-65725162D01*
X103834441Y-65586090D01*
X103979431Y-65373890D01*
X103992419Y-65309750D01*
X105569000Y-65309750D01*
X105569000Y-65775310D01*
X105665673Y-66008699D01*
X105844302Y-66187327D01*
X106077691Y-66284000D01*
X106668250Y-66284000D01*
X106827000Y-66125250D01*
X106827000Y-65151000D01*
X105727750Y-65151000D01*
X105569000Y-65309750D01*
X103992419Y-65309750D01*
X104030440Y-65122000D01*
X104030440Y-63899000D01*
X105805975Y-63899000D01*
X105665673Y-64039301D01*
M02*
