G04 #@! TF.FileFunction,Soldermask,Top*
%FSLAX46Y46*%
G04 Gerber Fmt 4.6, Leading zero omitted, Abs format (unit mm)*
G04 Created by KiCad (PCBNEW 4.0.7) date 04/10/18 20:33:09*
%MOMM*%
%LPD*%
G01*
G04 APERTURE LIST*
%ADD10C,0.100000*%
%ADD11C,1.770000*%
%ADD12R,0.750000X1.660000*%
%ADD13R,1.700000X1.700000*%
%ADD14O,1.700000X1.700000*%
%ADD15R,1.350000X1.600000*%
%ADD16R,1.600000X1.350000*%
%ADD17R,1.400000X1.600000*%
%ADD18C,2.900000*%
%ADD19C,1.880000*%
%ADD20C,2.800000*%
%ADD21R,1.660000X0.750000*%
%ADD22R,2.420000X0.450000*%
%ADD23R,0.450000X2.420000*%
%ADD24C,6.500000*%
%ADD25R,0.700000X1.200000*%
G04 APERTURE END LIST*
D10*
D11*
X125730000Y-53213000D03*
X123190000Y-53213000D03*
D12*
X119695000Y-97710000D03*
X118745000Y-97710000D03*
X117795000Y-97710000D03*
X117795000Y-100410000D03*
X119695000Y-100410000D03*
X118745000Y-100410000D03*
D13*
X89217500Y-93154500D03*
D14*
X122237500Y-77914500D03*
X91757500Y-93154500D03*
X119697500Y-77914500D03*
X94297500Y-93154500D03*
X117157500Y-77914500D03*
X96837500Y-93154500D03*
X114617500Y-77914500D03*
X99377500Y-93154500D03*
X112077500Y-77914500D03*
X101917500Y-93154500D03*
X109537500Y-77914500D03*
X104457500Y-93154500D03*
X106997500Y-77914500D03*
X106997500Y-93154500D03*
X104457500Y-77914500D03*
X109537500Y-93154500D03*
X101917500Y-77914500D03*
X112077500Y-93154500D03*
X99377500Y-77914500D03*
X114617500Y-93154500D03*
X96837500Y-77914500D03*
X117157500Y-93154500D03*
X94297500Y-77914500D03*
X119697500Y-93154500D03*
X91757500Y-77914500D03*
X122237500Y-93154500D03*
X89217500Y-77914500D03*
X124777500Y-93154500D03*
X124777500Y-77914500D03*
D15*
X80645000Y-82530000D03*
X80645000Y-80030000D03*
X80645000Y-64115000D03*
X80645000Y-61615000D03*
X121920000Y-64242000D03*
X121920000Y-61742000D03*
D16*
X81895000Y-52705000D03*
X79395000Y-52705000D03*
X81895000Y-56515000D03*
X79395000Y-56515000D03*
D15*
X128524000Y-66782000D03*
X128524000Y-64282000D03*
X125476000Y-66782000D03*
X125476000Y-64282000D03*
D16*
X106954000Y-60960000D03*
X109454000Y-60960000D03*
X106954000Y-65024000D03*
X109454000Y-65024000D03*
X92730000Y-69088000D03*
X95230000Y-69088000D03*
X92730000Y-73152000D03*
X95230000Y-73152000D03*
X106954000Y-69088000D03*
X109454000Y-69088000D03*
X106954000Y-73152000D03*
X109454000Y-73152000D03*
X92730000Y-60960000D03*
X95230000Y-60960000D03*
X92730000Y-65024000D03*
X95230000Y-65024000D03*
X116225000Y-107950000D03*
X118725000Y-107950000D03*
X116225000Y-104140000D03*
X118725000Y-104140000D03*
X123845000Y-97155000D03*
X126345000Y-97155000D03*
X123845000Y-100965000D03*
X126345000Y-100965000D03*
X131465000Y-104140000D03*
X133965000Y-104140000D03*
X131465000Y-107950000D03*
X133965000Y-107950000D03*
D11*
X135255000Y-53213000D03*
X132715000Y-53213000D03*
X134366000Y-76454000D03*
X134366000Y-73914000D03*
X134366000Y-69342000D03*
X134366000Y-66802000D03*
X134366000Y-62230000D03*
X134366000Y-59690000D03*
D17*
X98425000Y-100410000D03*
X98425000Y-97710000D03*
X101600000Y-100410000D03*
X101600000Y-97710000D03*
X123444000Y-69770000D03*
X123444000Y-72470000D03*
X119888000Y-69770000D03*
X119888000Y-72470000D03*
X116332000Y-69770000D03*
X116332000Y-72470000D03*
D18*
X104775000Y-140716000D03*
X84455000Y-140716000D03*
D19*
X104775000Y-111252000D03*
X102235000Y-111252000D03*
X99695000Y-111252000D03*
X97155000Y-111252000D03*
X94615000Y-111252000D03*
X92075000Y-111252000D03*
X89535000Y-111252000D03*
X86995000Y-111252000D03*
X84455000Y-111252000D03*
X133350000Y-112014000D03*
X130810000Y-112014000D03*
X125730000Y-112014000D03*
X128270000Y-112014000D03*
X123190000Y-112014000D03*
X120650000Y-112014000D03*
X118110000Y-112014000D03*
X115570000Y-112014000D03*
D20*
X114300000Y-139700000D03*
X134620000Y-139700000D03*
X134620000Y-119380000D03*
X114300000Y-119380000D03*
D17*
X88900000Y-100410000D03*
X88900000Y-97710000D03*
X92075000Y-100410000D03*
X92075000Y-97710000D03*
X104775000Y-100410000D03*
X104775000Y-97710000D03*
X107950000Y-100410000D03*
X107950000Y-97710000D03*
D21*
X88726000Y-55306000D03*
X88726000Y-54356000D03*
X88726000Y-53406000D03*
X86026000Y-53406000D03*
X86026000Y-55306000D03*
D12*
X126685000Y-72470000D03*
X127635000Y-72470000D03*
X128585000Y-72470000D03*
X128585000Y-69770000D03*
X126685000Y-69770000D03*
X103058000Y-61642000D03*
X102108000Y-61642000D03*
X101158000Y-61642000D03*
X101158000Y-64342000D03*
X103058000Y-64342000D03*
X102108000Y-64342000D03*
X88834000Y-69770000D03*
X87884000Y-69770000D03*
X86934000Y-69770000D03*
X86934000Y-72470000D03*
X88834000Y-72470000D03*
X87884000Y-72470000D03*
X103058000Y-69770000D03*
X102108000Y-69770000D03*
X101158000Y-69770000D03*
X101158000Y-72470000D03*
X103058000Y-72470000D03*
X102108000Y-72470000D03*
X88834000Y-61642000D03*
X87884000Y-61642000D03*
X86934000Y-61642000D03*
X86934000Y-64342000D03*
X88834000Y-64342000D03*
X87884000Y-64342000D03*
X110175000Y-107395000D03*
X111125000Y-107395000D03*
X112075000Y-107395000D03*
X112075000Y-104695000D03*
X110175000Y-104695000D03*
X111125000Y-104695000D03*
X127315000Y-104695000D03*
X126365000Y-104695000D03*
X125415000Y-104695000D03*
X125415000Y-107395000D03*
X127315000Y-107395000D03*
X126365000Y-107395000D03*
D22*
X78850000Y-88765000D03*
X78850000Y-88265000D03*
X78850000Y-87765000D03*
D23*
X79895000Y-86220000D03*
X80395000Y-86220000D03*
X80895000Y-86220000D03*
X81395000Y-86220000D03*
D22*
X82440000Y-88765000D03*
X82440000Y-88265000D03*
X82440000Y-87765000D03*
D23*
X79895000Y-90310000D03*
X80395000Y-90310000D03*
X80895000Y-90310000D03*
X81395000Y-90310000D03*
X80145000Y-68055000D03*
X80645000Y-68055000D03*
X81145000Y-68055000D03*
D22*
X82690000Y-69100000D03*
X82690000Y-69600000D03*
X82690000Y-70100000D03*
X82690000Y-70600000D03*
D23*
X80145000Y-71645000D03*
X80645000Y-71645000D03*
X81145000Y-71645000D03*
D22*
X78600000Y-69100000D03*
X78600000Y-69600000D03*
X78600000Y-70100000D03*
X78600000Y-70600000D03*
D24*
X117000000Y-52000000D03*
X98000000Y-52000000D03*
X80000000Y-147000000D03*
X135000000Y-147000000D03*
D25*
X116128000Y-64092000D03*
X117378000Y-64092000D03*
X118628000Y-64092000D03*
X119878000Y-64092000D03*
X119878000Y-61892000D03*
X118628000Y-61892000D03*
X117378000Y-61892000D03*
X116128000Y-61892000D03*
D17*
X83820000Y-98345000D03*
X83820000Y-101045000D03*
X79375000Y-101045000D03*
X79375000Y-98345000D03*
M02*
