%TF.GenerationSoftware,KiCad,Pcbnew,(5.1.9)-1*%
%TF.CreationDate,2021-06-29T22:39:32-04:00*%
%TF.ProjectId,detector_circuit,64657465-6374-46f7-925f-636972637569,rev?*%
%TF.SameCoordinates,Original*%
%TF.FileFunction,Legend,Bot*%
%TF.FilePolarity,Positive*%
%FSLAX46Y46*%
G04 Gerber Fmt 4.6, Leading zero omitted, Abs format (unit mm)*
G04 Created by KiCad (PCBNEW (5.1.9)-1) date 2021-06-29 22:39:32*
%MOMM*%
%LPD*%
G01*
G04 APERTURE LIST*
%ADD10C,0.120000*%
%ADD11C,0.150000*%
G04 APERTURE END LIST*
D10*
%TO.C,C38*%
X116915000Y-137049252D02*
X116915000Y-136526748D01*
X115495000Y-137049252D02*
X115495000Y-136526748D01*
D11*
%TO.C,U7*%
X109022000Y-137097000D02*
X109022000Y-136922000D01*
X112372000Y-137097000D02*
X112372000Y-136847000D01*
X112372000Y-133747000D02*
X112372000Y-133997000D01*
X109022000Y-133747000D02*
X109022000Y-133997000D01*
X109022000Y-137097000D02*
X112372000Y-137097000D01*
X109022000Y-133747000D02*
X112372000Y-133747000D01*
X109022000Y-136922000D02*
X107772000Y-136922000D01*
D10*
%TO.C,R46*%
X95706000Y-135126252D02*
X95706000Y-134603748D01*
X94286000Y-135126252D02*
X94286000Y-134603748D01*
%TO.C,R45*%
X98754000Y-135144252D02*
X98754000Y-134621748D01*
X97334000Y-135144252D02*
X97334000Y-134621748D01*
%TO.C,R44*%
X108406000Y-131334252D02*
X108406000Y-130811748D01*
X106986000Y-131334252D02*
X106986000Y-130811748D01*
%TO.C,R43*%
X112470000Y-131461252D02*
X112470000Y-130938748D01*
X111050000Y-131461252D02*
X111050000Y-130938748D01*
%TO.C,C34*%
X105612000Y-135135252D02*
X105612000Y-134612748D01*
X104192000Y-135135252D02*
X104192000Y-134612748D01*
%TO.C,C30*%
X102183000Y-135253252D02*
X102183000Y-134730748D01*
X100763000Y-135253252D02*
X100763000Y-134730748D01*
%TO.C,C29*%
X108406000Y-127125252D02*
X108406000Y-126602748D01*
X106986000Y-127125252D02*
X106986000Y-126602748D01*
%TO.C,C28*%
X111962000Y-127125252D02*
X111962000Y-126602748D01*
X110542000Y-127125252D02*
X110542000Y-126602748D01*
%TO.C,C38*%
D11*
X118212142Y-136145142D02*
X118259761Y-136097523D01*
X118307380Y-135954666D01*
X118307380Y-135859428D01*
X118259761Y-135716571D01*
X118164523Y-135621333D01*
X118069285Y-135573714D01*
X117878809Y-135526095D01*
X117735952Y-135526095D01*
X117545476Y-135573714D01*
X117450238Y-135621333D01*
X117355000Y-135716571D01*
X117307380Y-135859428D01*
X117307380Y-135954666D01*
X117355000Y-136097523D01*
X117402619Y-136145142D01*
X117307380Y-136478476D02*
X117307380Y-137097523D01*
X117688333Y-136764190D01*
X117688333Y-136907047D01*
X117735952Y-137002285D01*
X117783571Y-137049904D01*
X117878809Y-137097523D01*
X118116904Y-137097523D01*
X118212142Y-137049904D01*
X118259761Y-137002285D01*
X118307380Y-136907047D01*
X118307380Y-136621333D01*
X118259761Y-136526095D01*
X118212142Y-136478476D01*
X117735952Y-137668952D02*
X117688333Y-137573714D01*
X117640714Y-137526095D01*
X117545476Y-137478476D01*
X117497857Y-137478476D01*
X117402619Y-137526095D01*
X117355000Y-137573714D01*
X117307380Y-137668952D01*
X117307380Y-137859428D01*
X117355000Y-137954666D01*
X117402619Y-138002285D01*
X117497857Y-138049904D01*
X117545476Y-138049904D01*
X117640714Y-138002285D01*
X117688333Y-137954666D01*
X117735952Y-137859428D01*
X117735952Y-137668952D01*
X117783571Y-137573714D01*
X117831190Y-137526095D01*
X117926428Y-137478476D01*
X118116904Y-137478476D01*
X118212142Y-137526095D01*
X118259761Y-137573714D01*
X118307380Y-137668952D01*
X118307380Y-137859428D01*
X118259761Y-137954666D01*
X118212142Y-138002285D01*
X118116904Y-138049904D01*
X117926428Y-138049904D01*
X117831190Y-138002285D01*
X117783571Y-137954666D01*
X117735952Y-137859428D01*
%TO.C,U7*%
X111458904Y-137474380D02*
X111458904Y-138283904D01*
X111411285Y-138379142D01*
X111363666Y-138426761D01*
X111268428Y-138474380D01*
X111077952Y-138474380D01*
X110982714Y-138426761D01*
X110935095Y-138379142D01*
X110887476Y-138283904D01*
X110887476Y-137474380D01*
X110506523Y-137474380D02*
X109839857Y-137474380D01*
X110268428Y-138474380D01*
%TO.C,R46*%
X93924380Y-134222142D02*
X93448190Y-133888809D01*
X93924380Y-133650714D02*
X92924380Y-133650714D01*
X92924380Y-134031666D01*
X92972000Y-134126904D01*
X93019619Y-134174523D01*
X93114857Y-134222142D01*
X93257714Y-134222142D01*
X93352952Y-134174523D01*
X93400571Y-134126904D01*
X93448190Y-134031666D01*
X93448190Y-133650714D01*
X93257714Y-135079285D02*
X93924380Y-135079285D01*
X92876761Y-134841190D02*
X93591047Y-134603095D01*
X93591047Y-135222142D01*
X92924380Y-136031666D02*
X92924380Y-135841190D01*
X92972000Y-135745952D01*
X93019619Y-135698333D01*
X93162476Y-135603095D01*
X93352952Y-135555476D01*
X93733904Y-135555476D01*
X93829142Y-135603095D01*
X93876761Y-135650714D01*
X93924380Y-135745952D01*
X93924380Y-135936428D01*
X93876761Y-136031666D01*
X93829142Y-136079285D01*
X93733904Y-136126904D01*
X93495809Y-136126904D01*
X93400571Y-136079285D01*
X93352952Y-136031666D01*
X93305333Y-135936428D01*
X93305333Y-135745952D01*
X93352952Y-135650714D01*
X93400571Y-135603095D01*
X93495809Y-135555476D01*
%TO.C,R45*%
X97099380Y-134231142D02*
X96623190Y-133897809D01*
X97099380Y-133659714D02*
X96099380Y-133659714D01*
X96099380Y-134040666D01*
X96147000Y-134135904D01*
X96194619Y-134183523D01*
X96289857Y-134231142D01*
X96432714Y-134231142D01*
X96527952Y-134183523D01*
X96575571Y-134135904D01*
X96623190Y-134040666D01*
X96623190Y-133659714D01*
X96432714Y-135088285D02*
X97099380Y-135088285D01*
X96051761Y-134850190D02*
X96766047Y-134612095D01*
X96766047Y-135231142D01*
X96099380Y-136088285D02*
X96099380Y-135612095D01*
X96575571Y-135564476D01*
X96527952Y-135612095D01*
X96480333Y-135707333D01*
X96480333Y-135945428D01*
X96527952Y-136040666D01*
X96575571Y-136088285D01*
X96670809Y-136135904D01*
X96908904Y-136135904D01*
X97004142Y-136088285D01*
X97051761Y-136040666D01*
X97099380Y-135945428D01*
X97099380Y-135707333D01*
X97051761Y-135612095D01*
X97004142Y-135564476D01*
%TO.C,R44*%
X109798380Y-130430142D02*
X109322190Y-130096809D01*
X109798380Y-129858714D02*
X108798380Y-129858714D01*
X108798380Y-130239666D01*
X108846000Y-130334904D01*
X108893619Y-130382523D01*
X108988857Y-130430142D01*
X109131714Y-130430142D01*
X109226952Y-130382523D01*
X109274571Y-130334904D01*
X109322190Y-130239666D01*
X109322190Y-129858714D01*
X109131714Y-131287285D02*
X109798380Y-131287285D01*
X108750761Y-131049190D02*
X109465047Y-130811095D01*
X109465047Y-131430142D01*
X109131714Y-132239666D02*
X109798380Y-132239666D01*
X108750761Y-132001571D02*
X109465047Y-131763476D01*
X109465047Y-132382523D01*
%TO.C,R43*%
X113862380Y-130557142D02*
X113386190Y-130223809D01*
X113862380Y-129985714D02*
X112862380Y-129985714D01*
X112862380Y-130366666D01*
X112910000Y-130461904D01*
X112957619Y-130509523D01*
X113052857Y-130557142D01*
X113195714Y-130557142D01*
X113290952Y-130509523D01*
X113338571Y-130461904D01*
X113386190Y-130366666D01*
X113386190Y-129985714D01*
X113195714Y-131414285D02*
X113862380Y-131414285D01*
X112814761Y-131176190D02*
X113529047Y-130938095D01*
X113529047Y-131557142D01*
X112862380Y-131842857D02*
X112862380Y-132461904D01*
X113243333Y-132128571D01*
X113243333Y-132271428D01*
X113290952Y-132366666D01*
X113338571Y-132414285D01*
X113433809Y-132461904D01*
X113671904Y-132461904D01*
X113767142Y-132414285D01*
X113814761Y-132366666D01*
X113862380Y-132271428D01*
X113862380Y-131985714D01*
X113814761Y-131890476D01*
X113767142Y-131842857D01*
%TO.C,C34*%
X103608142Y-134358142D02*
X103655761Y-134310523D01*
X103703380Y-134167666D01*
X103703380Y-134072428D01*
X103655761Y-133929571D01*
X103560523Y-133834333D01*
X103465285Y-133786714D01*
X103274809Y-133739095D01*
X103131952Y-133739095D01*
X102941476Y-133786714D01*
X102846238Y-133834333D01*
X102751000Y-133929571D01*
X102703380Y-134072428D01*
X102703380Y-134167666D01*
X102751000Y-134310523D01*
X102798619Y-134358142D01*
X102703380Y-134691476D02*
X102703380Y-135310523D01*
X103084333Y-134977190D01*
X103084333Y-135120047D01*
X103131952Y-135215285D01*
X103179571Y-135262904D01*
X103274809Y-135310523D01*
X103512904Y-135310523D01*
X103608142Y-135262904D01*
X103655761Y-135215285D01*
X103703380Y-135120047D01*
X103703380Y-134834333D01*
X103655761Y-134739095D01*
X103608142Y-134691476D01*
X103036714Y-136167666D02*
X103703380Y-136167666D01*
X102655761Y-135929571D02*
X103370047Y-135691476D01*
X103370047Y-136310523D01*
%TO.C,C30*%
X100306142Y-134349142D02*
X100353761Y-134301523D01*
X100401380Y-134158666D01*
X100401380Y-134063428D01*
X100353761Y-133920571D01*
X100258523Y-133825333D01*
X100163285Y-133777714D01*
X99972809Y-133730095D01*
X99829952Y-133730095D01*
X99639476Y-133777714D01*
X99544238Y-133825333D01*
X99449000Y-133920571D01*
X99401380Y-134063428D01*
X99401380Y-134158666D01*
X99449000Y-134301523D01*
X99496619Y-134349142D01*
X99401380Y-134682476D02*
X99401380Y-135301523D01*
X99782333Y-134968190D01*
X99782333Y-135111047D01*
X99829952Y-135206285D01*
X99877571Y-135253904D01*
X99972809Y-135301523D01*
X100210904Y-135301523D01*
X100306142Y-135253904D01*
X100353761Y-135206285D01*
X100401380Y-135111047D01*
X100401380Y-134825333D01*
X100353761Y-134730095D01*
X100306142Y-134682476D01*
X99401380Y-135920571D02*
X99401380Y-136015809D01*
X99449000Y-136111047D01*
X99496619Y-136158666D01*
X99591857Y-136206285D01*
X99782333Y-136253904D01*
X100020428Y-136253904D01*
X100210904Y-136206285D01*
X100306142Y-136158666D01*
X100353761Y-136111047D01*
X100401380Y-136015809D01*
X100401380Y-135920571D01*
X100353761Y-135825333D01*
X100306142Y-135777714D01*
X100210904Y-135730095D01*
X100020428Y-135682476D01*
X99782333Y-135682476D01*
X99591857Y-135730095D01*
X99496619Y-135777714D01*
X99449000Y-135825333D01*
X99401380Y-135920571D01*
%TO.C,C29*%
X109703142Y-126221142D02*
X109750761Y-126173523D01*
X109798380Y-126030666D01*
X109798380Y-125935428D01*
X109750761Y-125792571D01*
X109655523Y-125697333D01*
X109560285Y-125649714D01*
X109369809Y-125602095D01*
X109226952Y-125602095D01*
X109036476Y-125649714D01*
X108941238Y-125697333D01*
X108846000Y-125792571D01*
X108798380Y-125935428D01*
X108798380Y-126030666D01*
X108846000Y-126173523D01*
X108893619Y-126221142D01*
X108893619Y-126602095D02*
X108846000Y-126649714D01*
X108798380Y-126744952D01*
X108798380Y-126983047D01*
X108846000Y-127078285D01*
X108893619Y-127125904D01*
X108988857Y-127173523D01*
X109084095Y-127173523D01*
X109226952Y-127125904D01*
X109798380Y-126554476D01*
X109798380Y-127173523D01*
X109798380Y-127649714D02*
X109798380Y-127840190D01*
X109750761Y-127935428D01*
X109703142Y-127983047D01*
X109560285Y-128078285D01*
X109369809Y-128125904D01*
X108988857Y-128125904D01*
X108893619Y-128078285D01*
X108846000Y-128030666D01*
X108798380Y-127935428D01*
X108798380Y-127744952D01*
X108846000Y-127649714D01*
X108893619Y-127602095D01*
X108988857Y-127554476D01*
X109226952Y-127554476D01*
X109322190Y-127602095D01*
X109369809Y-127649714D01*
X109417428Y-127744952D01*
X109417428Y-127935428D01*
X109369809Y-128030666D01*
X109322190Y-128078285D01*
X109226952Y-128125904D01*
%TO.C,C28*%
X113514142Y-126230142D02*
X113561761Y-126182523D01*
X113609380Y-126039666D01*
X113609380Y-125944428D01*
X113561761Y-125801571D01*
X113466523Y-125706333D01*
X113371285Y-125658714D01*
X113180809Y-125611095D01*
X113037952Y-125611095D01*
X112847476Y-125658714D01*
X112752238Y-125706333D01*
X112657000Y-125801571D01*
X112609380Y-125944428D01*
X112609380Y-126039666D01*
X112657000Y-126182523D01*
X112704619Y-126230142D01*
X112704619Y-126611095D02*
X112657000Y-126658714D01*
X112609380Y-126753952D01*
X112609380Y-126992047D01*
X112657000Y-127087285D01*
X112704619Y-127134904D01*
X112799857Y-127182523D01*
X112895095Y-127182523D01*
X113037952Y-127134904D01*
X113609380Y-126563476D01*
X113609380Y-127182523D01*
X113037952Y-127753952D02*
X112990333Y-127658714D01*
X112942714Y-127611095D01*
X112847476Y-127563476D01*
X112799857Y-127563476D01*
X112704619Y-127611095D01*
X112657000Y-127658714D01*
X112609380Y-127753952D01*
X112609380Y-127944428D01*
X112657000Y-128039666D01*
X112704619Y-128087285D01*
X112799857Y-128134904D01*
X112847476Y-128134904D01*
X112942714Y-128087285D01*
X112990333Y-128039666D01*
X113037952Y-127944428D01*
X113037952Y-127753952D01*
X113085571Y-127658714D01*
X113133190Y-127611095D01*
X113228428Y-127563476D01*
X113418904Y-127563476D01*
X113514142Y-127611095D01*
X113561761Y-127658714D01*
X113609380Y-127753952D01*
X113609380Y-127944428D01*
X113561761Y-128039666D01*
X113514142Y-128087285D01*
X113418904Y-128134904D01*
X113228428Y-128134904D01*
X113133190Y-128087285D01*
X113085571Y-128039666D01*
X113037952Y-127944428D01*
%TD*%
M02*
