M48
; DRILL file {KiCad (5.1.9)-1} date 07/10/21 09:16:38
; FORMAT={-:-/ absolute / inch / decimal}
; #@! TF.CreationDate,2021-07-10T09:16:38-04:00
; #@! TF.GenerationSoftware,Kicad,Pcbnew,(5.1.9)-1
; #@! TF.FileFunction,Plated,1,4,PTH
FMAT,2
INCH
T1C0.0157
T2C0.0394
T3C0.1378
%
G90
G05
T1
X3.975Y-5.535
X3.985Y-4.935
X3.985Y-5.015
X4.09Y-5.11
X4.2104Y-4.9196
X4.33Y-5.535
X4.455Y-5.045
X4.495Y-3.9575
X4.515Y-5.025
X4.835Y-5.165
X4.9Y-4.85
X4.987Y-5.173
X5.025Y-4.85
X5.135Y-5.165
X5.275Y-5.165
T2
X3.5075Y-4.7775
X3.6075Y-4.7775
X4.095Y-4.625
X4.1025Y-3.885
X4.2025Y-3.885
X4.3025Y-3.885
X4.4025Y-3.885
X4.415Y-4.625
X4.475Y-5.475
X4.705Y-4.715
X4.705Y-4.815
X5.695Y-4.245
X5.695Y-4.345
X5.695Y-4.625
X5.695Y-4.725
T3
X3.55Y-3.955
X3.55Y-5.55
X5.775Y-3.955
X5.775Y-5.545
T0
M30
