%TF.GenerationSoftware,KiCad,Pcbnew,(5.1.9)-1*%
%TF.CreationDate,2021-07-13T18:03:53-04:00*%
%TF.ProjectId,detector_circuit_alt_LTC6254,64657465-6374-46f7-925f-636972637569,rev?*%
%TF.SameCoordinates,Original*%
%TF.FileFunction,Copper,L3,Inr*%
%TF.FilePolarity,Positive*%
%FSLAX46Y46*%
G04 Gerber Fmt 4.6, Leading zero omitted, Abs format (unit mm)*
G04 Created by KiCad (PCBNEW (5.1.9)-1) date 2021-07-13 18:03:53*
%MOMM*%
%LPD*%
G01*
G04 APERTURE LIST*
%TA.AperFunction,ComponentPad*%
%ADD10C,7.000000*%
%TD*%
%TA.AperFunction,ComponentPad*%
%ADD11R,1.700000X1.700000*%
%TD*%
%TA.AperFunction,ComponentPad*%
%ADD12O,1.700000X1.700000*%
%TD*%
%TA.AperFunction,ViaPad*%
%ADD13C,0.800000*%
%TD*%
%TA.AperFunction,Conductor*%
%ADD14C,0.254000*%
%TD*%
%TA.AperFunction,Conductor*%
%ADD15C,0.100000*%
%TD*%
G04 APERTURE END LIST*
D10*
%TO.N,N/C*%
%TO.C,REF\u002A\u002A*%
X146685000Y-100457000D03*
%TD*%
%TO.N,N/C*%
%TO.C,REF\u002A\u002A*%
X146685000Y-140843000D03*
%TD*%
D11*
%TO.N,Net-(C31-Pad2)*%
%TO.C,TP2*%
X104013000Y-117475000D03*
%TD*%
%TO.N,Net-(C18-Pad2)*%
%TO.C,TP15*%
X113665000Y-139065000D03*
%TD*%
D12*
%TO.N,/AMP_OUT*%
%TO.C,JP1*%
X119507000Y-119761000D03*
D11*
%TO.N,Net-(C36-Pad1)*%
X119507000Y-122301000D03*
%TD*%
%TO.N,/DET_ADC*%
%TO.C,TP1*%
X112141000Y-117475000D03*
%TD*%
D12*
%TO.N,/Filter_IN*%
%TO.C,JP5*%
X89090500Y-121348500D03*
D11*
%TO.N,Net-(C31-Pad1)*%
X91630500Y-121348500D03*
%TD*%
D12*
%TO.N,/SIPM_OUT*%
%TO.C,J3*%
X104203500Y-98679000D03*
%TO.N,/DET_ADC*%
X106743500Y-98679000D03*
%TO.N,/AMP_OUT*%
X109283500Y-98679000D03*
D11*
%TO.N,GND*%
X111823500Y-98679000D03*
%TD*%
D12*
%TO.N,N/C*%
%TO.C,J2*%
X144653000Y-117475000D03*
D11*
%TO.N,/SIPM_OUT*%
X144653000Y-120015000D03*
%TD*%
D12*
%TO.N,+4.7V*%
%TO.C,J1*%
X144653000Y-110363000D03*
D11*
%TO.N,GND*%
X144653000Y-107823000D03*
%TD*%
D10*
%TO.N,N/C*%
%TO.C,REF\u002A\u002A*%
X90170000Y-140970000D03*
%TD*%
D13*
%TO.N,GND*%
X124460000Y-123190000D03*
X109982000Y-140589000D03*
X100965000Y-140589000D03*
X101219000Y-125349000D03*
X127635000Y-123190000D03*
X114173000Y-100520500D03*
X114681000Y-127635000D03*
X126669800Y-131394200D03*
X122809000Y-131191000D03*
X130429000Y-131191000D03*
X133985000Y-131191000D03*
%TO.N,Net-(C31-Pad1)*%
X106943000Y-124959000D03*
%TO.N,Net-(C36-Pad1)*%
X113157000Y-128143000D03*
X103886000Y-129794000D03*
%TO.N,+4.7V*%
X101219000Y-127381000D03*
%TD*%
D14*
%TO.N,+4.7V*%
X147650585Y-94360540D02*
X148592388Y-94586647D01*
X149487239Y-94957307D01*
X150313075Y-95463379D01*
X151049583Y-96092417D01*
X151678620Y-96828925D01*
X152184694Y-97654764D01*
X152555353Y-98549612D01*
X152781460Y-99491420D01*
X152858001Y-100463963D01*
X152858001Y-113103417D01*
X152556777Y-142871456D01*
X152555353Y-142877388D01*
X152184694Y-143772236D01*
X151678620Y-144598075D01*
X151049583Y-145334583D01*
X150313075Y-145963621D01*
X149487239Y-146469693D01*
X148592388Y-146840353D01*
X147650585Y-147066460D01*
X146678051Y-147143000D01*
X90176950Y-147143000D01*
X89204420Y-147066460D01*
X88262612Y-146840353D01*
X87367764Y-146469694D01*
X86541925Y-145963620D01*
X85805417Y-145334583D01*
X85176379Y-144598075D01*
X84670307Y-143772239D01*
X84299647Y-142877388D01*
X84073540Y-141935585D01*
X83997000Y-140963051D01*
X83997000Y-140593073D01*
X86343000Y-140593073D01*
X86343000Y-141346927D01*
X86490070Y-142086295D01*
X86778557Y-142782764D01*
X87197375Y-143409570D01*
X87730430Y-143942625D01*
X88357236Y-144361443D01*
X89053705Y-144649930D01*
X89793073Y-144797000D01*
X90546927Y-144797000D01*
X91286295Y-144649930D01*
X91982764Y-144361443D01*
X92609570Y-143942625D01*
X93142625Y-143409570D01*
X93561443Y-142782764D01*
X93849930Y-142086295D01*
X93997000Y-141346927D01*
X93997000Y-140593073D01*
X93981948Y-140517397D01*
X100238000Y-140517397D01*
X100238000Y-140660603D01*
X100265938Y-140801058D01*
X100320741Y-140933364D01*
X100400302Y-141052436D01*
X100501564Y-141153698D01*
X100620636Y-141233259D01*
X100752942Y-141288062D01*
X100893397Y-141316000D01*
X101036603Y-141316000D01*
X101177058Y-141288062D01*
X101309364Y-141233259D01*
X101428436Y-141153698D01*
X101529698Y-141052436D01*
X101609259Y-140933364D01*
X101664062Y-140801058D01*
X101692000Y-140660603D01*
X101692000Y-140517397D01*
X109255000Y-140517397D01*
X109255000Y-140660603D01*
X109282938Y-140801058D01*
X109337741Y-140933364D01*
X109417302Y-141052436D01*
X109518564Y-141153698D01*
X109637636Y-141233259D01*
X109769942Y-141288062D01*
X109910397Y-141316000D01*
X110053603Y-141316000D01*
X110194058Y-141288062D01*
X110326364Y-141233259D01*
X110445436Y-141153698D01*
X110546698Y-141052436D01*
X110626259Y-140933364D01*
X110681062Y-140801058D01*
X110709000Y-140660603D01*
X110709000Y-140517397D01*
X110698792Y-140466073D01*
X142858000Y-140466073D01*
X142858000Y-141219927D01*
X143005070Y-141959295D01*
X143293557Y-142655764D01*
X143712375Y-143282570D01*
X144245430Y-143815625D01*
X144872236Y-144234443D01*
X145568705Y-144522930D01*
X146308073Y-144670000D01*
X147061927Y-144670000D01*
X147801295Y-144522930D01*
X148497764Y-144234443D01*
X149124570Y-143815625D01*
X149657625Y-143282570D01*
X150076443Y-142655764D01*
X150364930Y-141959295D01*
X150512000Y-141219927D01*
X150512000Y-140466073D01*
X150364930Y-139726705D01*
X150076443Y-139030236D01*
X149657625Y-138403430D01*
X149124570Y-137870375D01*
X148497764Y-137451557D01*
X147801295Y-137163070D01*
X147061927Y-137016000D01*
X146308073Y-137016000D01*
X145568705Y-137163070D01*
X144872236Y-137451557D01*
X144245430Y-137870375D01*
X143712375Y-138403430D01*
X143293557Y-139030236D01*
X143005070Y-139726705D01*
X142858000Y-140466073D01*
X110698792Y-140466073D01*
X110681062Y-140376942D01*
X110626259Y-140244636D01*
X110546698Y-140125564D01*
X110445436Y-140024302D01*
X110326364Y-139944741D01*
X110194058Y-139889938D01*
X110053603Y-139862000D01*
X109910397Y-139862000D01*
X109769942Y-139889938D01*
X109637636Y-139944741D01*
X109518564Y-140024302D01*
X109417302Y-140125564D01*
X109337741Y-140244636D01*
X109282938Y-140376942D01*
X109255000Y-140517397D01*
X101692000Y-140517397D01*
X101664062Y-140376942D01*
X101609259Y-140244636D01*
X101529698Y-140125564D01*
X101428436Y-140024302D01*
X101309364Y-139944741D01*
X101177058Y-139889938D01*
X101036603Y-139862000D01*
X100893397Y-139862000D01*
X100752942Y-139889938D01*
X100620636Y-139944741D01*
X100501564Y-140024302D01*
X100400302Y-140125564D01*
X100320741Y-140244636D01*
X100265938Y-140376942D01*
X100238000Y-140517397D01*
X93981948Y-140517397D01*
X93849930Y-139853705D01*
X93561443Y-139157236D01*
X93142625Y-138530430D01*
X92827195Y-138215000D01*
X112486418Y-138215000D01*
X112486418Y-139915000D01*
X112492732Y-139979103D01*
X112511430Y-140040743D01*
X112541794Y-140097550D01*
X112582657Y-140147343D01*
X112632450Y-140188206D01*
X112689257Y-140218570D01*
X112750897Y-140237268D01*
X112815000Y-140243582D01*
X114515000Y-140243582D01*
X114579103Y-140237268D01*
X114640743Y-140218570D01*
X114697550Y-140188206D01*
X114747343Y-140147343D01*
X114788206Y-140097550D01*
X114818570Y-140040743D01*
X114837268Y-139979103D01*
X114843582Y-139915000D01*
X114843582Y-138215000D01*
X114837268Y-138150897D01*
X114818570Y-138089257D01*
X114788206Y-138032450D01*
X114747343Y-137982657D01*
X114697550Y-137941794D01*
X114640743Y-137911430D01*
X114579103Y-137892732D01*
X114515000Y-137886418D01*
X112815000Y-137886418D01*
X112750897Y-137892732D01*
X112689257Y-137911430D01*
X112632450Y-137941794D01*
X112582657Y-137982657D01*
X112541794Y-138032450D01*
X112511430Y-138089257D01*
X112492732Y-138150897D01*
X112486418Y-138215000D01*
X92827195Y-138215000D01*
X92609570Y-137997375D01*
X91982764Y-137578557D01*
X91286295Y-137290070D01*
X90546927Y-137143000D01*
X89793073Y-137143000D01*
X89053705Y-137290070D01*
X88357236Y-137578557D01*
X87730430Y-137997375D01*
X87197375Y-138530430D01*
X86778557Y-139157236D01*
X86490070Y-139853705D01*
X86343000Y-140593073D01*
X83997000Y-140593073D01*
X83997000Y-131119397D01*
X122082000Y-131119397D01*
X122082000Y-131262603D01*
X122109938Y-131403058D01*
X122164741Y-131535364D01*
X122244302Y-131654436D01*
X122345564Y-131755698D01*
X122464636Y-131835259D01*
X122596942Y-131890062D01*
X122737397Y-131918000D01*
X122880603Y-131918000D01*
X123021058Y-131890062D01*
X123153364Y-131835259D01*
X123272436Y-131755698D01*
X123373698Y-131654436D01*
X123453259Y-131535364D01*
X123508062Y-131403058D01*
X123524066Y-131322597D01*
X125942800Y-131322597D01*
X125942800Y-131465803D01*
X125970738Y-131606258D01*
X126025541Y-131738564D01*
X126105102Y-131857636D01*
X126206364Y-131958898D01*
X126325436Y-132038459D01*
X126457742Y-132093262D01*
X126598197Y-132121200D01*
X126741403Y-132121200D01*
X126881858Y-132093262D01*
X127014164Y-132038459D01*
X127133236Y-131958898D01*
X127234498Y-131857636D01*
X127314059Y-131738564D01*
X127368862Y-131606258D01*
X127396800Y-131465803D01*
X127396800Y-131322597D01*
X127368862Y-131182142D01*
X127342873Y-131119397D01*
X129702000Y-131119397D01*
X129702000Y-131262603D01*
X129729938Y-131403058D01*
X129784741Y-131535364D01*
X129864302Y-131654436D01*
X129965564Y-131755698D01*
X130084636Y-131835259D01*
X130216942Y-131890062D01*
X130357397Y-131918000D01*
X130500603Y-131918000D01*
X130641058Y-131890062D01*
X130773364Y-131835259D01*
X130892436Y-131755698D01*
X130993698Y-131654436D01*
X131073259Y-131535364D01*
X131128062Y-131403058D01*
X131156000Y-131262603D01*
X131156000Y-131119397D01*
X133258000Y-131119397D01*
X133258000Y-131262603D01*
X133285938Y-131403058D01*
X133340741Y-131535364D01*
X133420302Y-131654436D01*
X133521564Y-131755698D01*
X133640636Y-131835259D01*
X133772942Y-131890062D01*
X133913397Y-131918000D01*
X134056603Y-131918000D01*
X134197058Y-131890062D01*
X134329364Y-131835259D01*
X134448436Y-131755698D01*
X134549698Y-131654436D01*
X134629259Y-131535364D01*
X134684062Y-131403058D01*
X134712000Y-131262603D01*
X134712000Y-131119397D01*
X134684062Y-130978942D01*
X134629259Y-130846636D01*
X134549698Y-130727564D01*
X134448436Y-130626302D01*
X134329364Y-130546741D01*
X134197058Y-130491938D01*
X134056603Y-130464000D01*
X133913397Y-130464000D01*
X133772942Y-130491938D01*
X133640636Y-130546741D01*
X133521564Y-130626302D01*
X133420302Y-130727564D01*
X133340741Y-130846636D01*
X133285938Y-130978942D01*
X133258000Y-131119397D01*
X131156000Y-131119397D01*
X131128062Y-130978942D01*
X131073259Y-130846636D01*
X130993698Y-130727564D01*
X130892436Y-130626302D01*
X130773364Y-130546741D01*
X130641058Y-130491938D01*
X130500603Y-130464000D01*
X130357397Y-130464000D01*
X130216942Y-130491938D01*
X130084636Y-130546741D01*
X129965564Y-130626302D01*
X129864302Y-130727564D01*
X129784741Y-130846636D01*
X129729938Y-130978942D01*
X129702000Y-131119397D01*
X127342873Y-131119397D01*
X127314059Y-131049836D01*
X127234498Y-130930764D01*
X127133236Y-130829502D01*
X127014164Y-130749941D01*
X126881858Y-130695138D01*
X126741403Y-130667200D01*
X126598197Y-130667200D01*
X126457742Y-130695138D01*
X126325436Y-130749941D01*
X126206364Y-130829502D01*
X126105102Y-130930764D01*
X126025541Y-131049836D01*
X125970738Y-131182142D01*
X125942800Y-131322597D01*
X123524066Y-131322597D01*
X123536000Y-131262603D01*
X123536000Y-131119397D01*
X123508062Y-130978942D01*
X123453259Y-130846636D01*
X123373698Y-130727564D01*
X123272436Y-130626302D01*
X123153364Y-130546741D01*
X123021058Y-130491938D01*
X122880603Y-130464000D01*
X122737397Y-130464000D01*
X122596942Y-130491938D01*
X122464636Y-130546741D01*
X122345564Y-130626302D01*
X122244302Y-130727564D01*
X122164741Y-130846636D01*
X122109938Y-130978942D01*
X122082000Y-131119397D01*
X83997000Y-131119397D01*
X83997000Y-129722397D01*
X103159000Y-129722397D01*
X103159000Y-129865603D01*
X103186938Y-130006058D01*
X103241741Y-130138364D01*
X103321302Y-130257436D01*
X103422564Y-130358698D01*
X103541636Y-130438259D01*
X103673942Y-130493062D01*
X103814397Y-130521000D01*
X103957603Y-130521000D01*
X104098058Y-130493062D01*
X104230364Y-130438259D01*
X104349436Y-130358698D01*
X104450698Y-130257436D01*
X104530259Y-130138364D01*
X104585062Y-130006058D01*
X104613000Y-129865603D01*
X104613000Y-129722397D01*
X104585062Y-129581942D01*
X104530259Y-129449636D01*
X104450698Y-129330564D01*
X104349436Y-129229302D01*
X104230364Y-129149741D01*
X104098058Y-129094938D01*
X103957603Y-129067000D01*
X103814397Y-129067000D01*
X103673942Y-129094938D01*
X103541636Y-129149741D01*
X103422564Y-129229302D01*
X103321302Y-129330564D01*
X103241741Y-129449636D01*
X103186938Y-129581942D01*
X103159000Y-129722397D01*
X83997000Y-129722397D01*
X83997000Y-128071397D01*
X112430000Y-128071397D01*
X112430000Y-128214603D01*
X112457938Y-128355058D01*
X112512741Y-128487364D01*
X112592302Y-128606436D01*
X112693564Y-128707698D01*
X112812636Y-128787259D01*
X112944942Y-128842062D01*
X113085397Y-128870000D01*
X113228603Y-128870000D01*
X113369058Y-128842062D01*
X113501364Y-128787259D01*
X113620436Y-128707698D01*
X113721698Y-128606436D01*
X113801259Y-128487364D01*
X113856062Y-128355058D01*
X113884000Y-128214603D01*
X113884000Y-128071397D01*
X113856062Y-127930942D01*
X113801259Y-127798636D01*
X113721698Y-127679564D01*
X113620436Y-127578302D01*
X113598129Y-127563397D01*
X113954000Y-127563397D01*
X113954000Y-127706603D01*
X113981938Y-127847058D01*
X114036741Y-127979364D01*
X114116302Y-128098436D01*
X114217564Y-128199698D01*
X114336636Y-128279259D01*
X114468942Y-128334062D01*
X114609397Y-128362000D01*
X114752603Y-128362000D01*
X114893058Y-128334062D01*
X115025364Y-128279259D01*
X115144436Y-128199698D01*
X115245698Y-128098436D01*
X115325259Y-127979364D01*
X115380062Y-127847058D01*
X115408000Y-127706603D01*
X115408000Y-127563397D01*
X115380062Y-127422942D01*
X115325259Y-127290636D01*
X115245698Y-127171564D01*
X115144436Y-127070302D01*
X115025364Y-126990741D01*
X114893058Y-126935938D01*
X114752603Y-126908000D01*
X114609397Y-126908000D01*
X114468942Y-126935938D01*
X114336636Y-126990741D01*
X114217564Y-127070302D01*
X114116302Y-127171564D01*
X114036741Y-127290636D01*
X113981938Y-127422942D01*
X113954000Y-127563397D01*
X113598129Y-127563397D01*
X113501364Y-127498741D01*
X113369058Y-127443938D01*
X113228603Y-127416000D01*
X113085397Y-127416000D01*
X112944942Y-127443938D01*
X112812636Y-127498741D01*
X112693564Y-127578302D01*
X112592302Y-127679564D01*
X112512741Y-127798636D01*
X112457938Y-127930942D01*
X112430000Y-128071397D01*
X83997000Y-128071397D01*
X83997000Y-125277397D01*
X100492000Y-125277397D01*
X100492000Y-125420603D01*
X100519938Y-125561058D01*
X100574741Y-125693364D01*
X100654302Y-125812436D01*
X100755564Y-125913698D01*
X100874636Y-125993259D01*
X101006942Y-126048062D01*
X101147397Y-126076000D01*
X101290603Y-126076000D01*
X101431058Y-126048062D01*
X101563364Y-125993259D01*
X101682436Y-125913698D01*
X101783698Y-125812436D01*
X101863259Y-125693364D01*
X101918062Y-125561058D01*
X101946000Y-125420603D01*
X101946000Y-125277397D01*
X101918062Y-125136942D01*
X101863259Y-125004636D01*
X101784923Y-124887397D01*
X106216000Y-124887397D01*
X106216000Y-125030603D01*
X106243938Y-125171058D01*
X106298741Y-125303364D01*
X106378302Y-125422436D01*
X106479564Y-125523698D01*
X106598636Y-125603259D01*
X106730942Y-125658062D01*
X106871397Y-125686000D01*
X107014603Y-125686000D01*
X107155058Y-125658062D01*
X107287364Y-125603259D01*
X107406436Y-125523698D01*
X107507698Y-125422436D01*
X107587259Y-125303364D01*
X107642062Y-125171058D01*
X107670000Y-125030603D01*
X107670000Y-124887397D01*
X107642062Y-124746942D01*
X107587259Y-124614636D01*
X107507698Y-124495564D01*
X107406436Y-124394302D01*
X107287364Y-124314741D01*
X107155058Y-124259938D01*
X107014603Y-124232000D01*
X106871397Y-124232000D01*
X106730942Y-124259938D01*
X106598636Y-124314741D01*
X106479564Y-124394302D01*
X106378302Y-124495564D01*
X106298741Y-124614636D01*
X106243938Y-124746942D01*
X106216000Y-124887397D01*
X101784923Y-124887397D01*
X101783698Y-124885564D01*
X101682436Y-124784302D01*
X101563364Y-124704741D01*
X101431058Y-124649938D01*
X101290603Y-124622000D01*
X101147397Y-124622000D01*
X101006942Y-124649938D01*
X100874636Y-124704741D01*
X100755564Y-124784302D01*
X100654302Y-124885564D01*
X100574741Y-125004636D01*
X100519938Y-125136942D01*
X100492000Y-125277397D01*
X83997000Y-125277397D01*
X83997000Y-121232576D01*
X87913500Y-121232576D01*
X87913500Y-121464424D01*
X87958731Y-121691818D01*
X88047456Y-121906019D01*
X88176264Y-122098794D01*
X88340206Y-122262736D01*
X88532981Y-122391544D01*
X88747182Y-122480269D01*
X88974576Y-122525500D01*
X89206424Y-122525500D01*
X89433818Y-122480269D01*
X89648019Y-122391544D01*
X89840794Y-122262736D01*
X90004736Y-122098794D01*
X90133544Y-121906019D01*
X90222269Y-121691818D01*
X90267500Y-121464424D01*
X90267500Y-121232576D01*
X90222269Y-121005182D01*
X90133544Y-120790981D01*
X90004736Y-120598206D01*
X89905030Y-120498500D01*
X90451918Y-120498500D01*
X90451918Y-122198500D01*
X90458232Y-122262603D01*
X90476930Y-122324243D01*
X90507294Y-122381050D01*
X90548157Y-122430843D01*
X90597950Y-122471706D01*
X90654757Y-122502070D01*
X90716397Y-122520768D01*
X90780500Y-122527082D01*
X92480500Y-122527082D01*
X92544603Y-122520768D01*
X92606243Y-122502070D01*
X92663050Y-122471706D01*
X92712843Y-122430843D01*
X92753706Y-122381050D01*
X92784070Y-122324243D01*
X92802768Y-122262603D01*
X92809082Y-122198500D01*
X92809082Y-121451000D01*
X118328418Y-121451000D01*
X118328418Y-123151000D01*
X118334732Y-123215103D01*
X118353430Y-123276743D01*
X118383794Y-123333550D01*
X118424657Y-123383343D01*
X118474450Y-123424206D01*
X118531257Y-123454570D01*
X118592897Y-123473268D01*
X118657000Y-123479582D01*
X120357000Y-123479582D01*
X120421103Y-123473268D01*
X120482743Y-123454570D01*
X120539550Y-123424206D01*
X120589343Y-123383343D01*
X120630206Y-123333550D01*
X120660570Y-123276743D01*
X120679268Y-123215103D01*
X120685582Y-123151000D01*
X120685582Y-123118397D01*
X123733000Y-123118397D01*
X123733000Y-123261603D01*
X123760938Y-123402058D01*
X123815741Y-123534364D01*
X123895302Y-123653436D01*
X123996564Y-123754698D01*
X124115636Y-123834259D01*
X124247942Y-123889062D01*
X124388397Y-123917000D01*
X124531603Y-123917000D01*
X124672058Y-123889062D01*
X124804364Y-123834259D01*
X124923436Y-123754698D01*
X125024698Y-123653436D01*
X125104259Y-123534364D01*
X125159062Y-123402058D01*
X125187000Y-123261603D01*
X125187000Y-123118397D01*
X126908000Y-123118397D01*
X126908000Y-123261603D01*
X126935938Y-123402058D01*
X126990741Y-123534364D01*
X127070302Y-123653436D01*
X127171564Y-123754698D01*
X127290636Y-123834259D01*
X127422942Y-123889062D01*
X127563397Y-123917000D01*
X127706603Y-123917000D01*
X127847058Y-123889062D01*
X127979364Y-123834259D01*
X128098436Y-123754698D01*
X128199698Y-123653436D01*
X128279259Y-123534364D01*
X128334062Y-123402058D01*
X128362000Y-123261603D01*
X128362000Y-123118397D01*
X128334062Y-122977942D01*
X128279259Y-122845636D01*
X128199698Y-122726564D01*
X128098436Y-122625302D01*
X127979364Y-122545741D01*
X127847058Y-122490938D01*
X127706603Y-122463000D01*
X127563397Y-122463000D01*
X127422942Y-122490938D01*
X127290636Y-122545741D01*
X127171564Y-122625302D01*
X127070302Y-122726564D01*
X126990741Y-122845636D01*
X126935938Y-122977942D01*
X126908000Y-123118397D01*
X125187000Y-123118397D01*
X125159062Y-122977942D01*
X125104259Y-122845636D01*
X125024698Y-122726564D01*
X124923436Y-122625302D01*
X124804364Y-122545741D01*
X124672058Y-122490938D01*
X124531603Y-122463000D01*
X124388397Y-122463000D01*
X124247942Y-122490938D01*
X124115636Y-122545741D01*
X123996564Y-122625302D01*
X123895302Y-122726564D01*
X123815741Y-122845636D01*
X123760938Y-122977942D01*
X123733000Y-123118397D01*
X120685582Y-123118397D01*
X120685582Y-121451000D01*
X120679268Y-121386897D01*
X120660570Y-121325257D01*
X120630206Y-121268450D01*
X120589343Y-121218657D01*
X120539550Y-121177794D01*
X120482743Y-121147430D01*
X120421103Y-121128732D01*
X120357000Y-121122418D01*
X118657000Y-121122418D01*
X118592897Y-121128732D01*
X118531257Y-121147430D01*
X118474450Y-121177794D01*
X118424657Y-121218657D01*
X118383794Y-121268450D01*
X118353430Y-121325257D01*
X118334732Y-121386897D01*
X118328418Y-121451000D01*
X92809082Y-121451000D01*
X92809082Y-120498500D01*
X92802768Y-120434397D01*
X92784070Y-120372757D01*
X92753706Y-120315950D01*
X92712843Y-120266157D01*
X92663050Y-120225294D01*
X92606243Y-120194930D01*
X92544603Y-120176232D01*
X92480500Y-120169918D01*
X90780500Y-120169918D01*
X90716397Y-120176232D01*
X90654757Y-120194930D01*
X90597950Y-120225294D01*
X90548157Y-120266157D01*
X90507294Y-120315950D01*
X90476930Y-120372757D01*
X90458232Y-120434397D01*
X90451918Y-120498500D01*
X89905030Y-120498500D01*
X89840794Y-120434264D01*
X89648019Y-120305456D01*
X89433818Y-120216731D01*
X89206424Y-120171500D01*
X88974576Y-120171500D01*
X88747182Y-120216731D01*
X88532981Y-120305456D01*
X88340206Y-120434264D01*
X88176264Y-120598206D01*
X88047456Y-120790981D01*
X87958731Y-121005182D01*
X87913500Y-121232576D01*
X83997000Y-121232576D01*
X83997000Y-119645076D01*
X118330000Y-119645076D01*
X118330000Y-119876924D01*
X118375231Y-120104318D01*
X118463956Y-120318519D01*
X118592764Y-120511294D01*
X118756706Y-120675236D01*
X118949481Y-120804044D01*
X119163682Y-120892769D01*
X119391076Y-120938000D01*
X119622924Y-120938000D01*
X119850318Y-120892769D01*
X120064519Y-120804044D01*
X120257294Y-120675236D01*
X120421236Y-120511294D01*
X120550044Y-120318519D01*
X120638769Y-120104318D01*
X120684000Y-119876924D01*
X120684000Y-119645076D01*
X120638769Y-119417682D01*
X120550044Y-119203481D01*
X120524332Y-119165000D01*
X143474418Y-119165000D01*
X143474418Y-120865000D01*
X143480732Y-120929103D01*
X143499430Y-120990743D01*
X143529794Y-121047550D01*
X143570657Y-121097343D01*
X143620450Y-121138206D01*
X143677257Y-121168570D01*
X143738897Y-121187268D01*
X143803000Y-121193582D01*
X145503000Y-121193582D01*
X145567103Y-121187268D01*
X145628743Y-121168570D01*
X145685550Y-121138206D01*
X145735343Y-121097343D01*
X145776206Y-121047550D01*
X145806570Y-120990743D01*
X145825268Y-120929103D01*
X145831582Y-120865000D01*
X145831582Y-119165000D01*
X145825268Y-119100897D01*
X145806570Y-119039257D01*
X145776206Y-118982450D01*
X145735343Y-118932657D01*
X145685550Y-118891794D01*
X145628743Y-118861430D01*
X145567103Y-118842732D01*
X145503000Y-118836418D01*
X143803000Y-118836418D01*
X143738897Y-118842732D01*
X143677257Y-118861430D01*
X143620450Y-118891794D01*
X143570657Y-118932657D01*
X143529794Y-118982450D01*
X143499430Y-119039257D01*
X143480732Y-119100897D01*
X143474418Y-119165000D01*
X120524332Y-119165000D01*
X120421236Y-119010706D01*
X120257294Y-118846764D01*
X120064519Y-118717956D01*
X119850318Y-118629231D01*
X119622924Y-118584000D01*
X119391076Y-118584000D01*
X119163682Y-118629231D01*
X118949481Y-118717956D01*
X118756706Y-118846764D01*
X118592764Y-119010706D01*
X118463956Y-119203481D01*
X118375231Y-119417682D01*
X118330000Y-119645076D01*
X83997000Y-119645076D01*
X83997000Y-119453524D01*
X84002075Y-116625000D01*
X102834418Y-116625000D01*
X102834418Y-118325000D01*
X102840732Y-118389103D01*
X102859430Y-118450743D01*
X102889794Y-118507550D01*
X102930657Y-118557343D01*
X102980450Y-118598206D01*
X103037257Y-118628570D01*
X103098897Y-118647268D01*
X103163000Y-118653582D01*
X104863000Y-118653582D01*
X104927103Y-118647268D01*
X104988743Y-118628570D01*
X105045550Y-118598206D01*
X105095343Y-118557343D01*
X105136206Y-118507550D01*
X105166570Y-118450743D01*
X105185268Y-118389103D01*
X105191582Y-118325000D01*
X105191582Y-116625000D01*
X110962418Y-116625000D01*
X110962418Y-118325000D01*
X110968732Y-118389103D01*
X110987430Y-118450743D01*
X111017794Y-118507550D01*
X111058657Y-118557343D01*
X111108450Y-118598206D01*
X111165257Y-118628570D01*
X111226897Y-118647268D01*
X111291000Y-118653582D01*
X112991000Y-118653582D01*
X113055103Y-118647268D01*
X113116743Y-118628570D01*
X113173550Y-118598206D01*
X113223343Y-118557343D01*
X113264206Y-118507550D01*
X113294570Y-118450743D01*
X113313268Y-118389103D01*
X113319582Y-118325000D01*
X113319582Y-117359076D01*
X143476000Y-117359076D01*
X143476000Y-117590924D01*
X143521231Y-117818318D01*
X143609956Y-118032519D01*
X143738764Y-118225294D01*
X143902706Y-118389236D01*
X144095481Y-118518044D01*
X144309682Y-118606769D01*
X144537076Y-118652000D01*
X144768924Y-118652000D01*
X144996318Y-118606769D01*
X145210519Y-118518044D01*
X145403294Y-118389236D01*
X145567236Y-118225294D01*
X145696044Y-118032519D01*
X145784769Y-117818318D01*
X145830000Y-117590924D01*
X145830000Y-117359076D01*
X145784769Y-117131682D01*
X145696044Y-116917481D01*
X145567236Y-116724706D01*
X145403294Y-116560764D01*
X145210519Y-116431956D01*
X144996318Y-116343231D01*
X144768924Y-116298000D01*
X144537076Y-116298000D01*
X144309682Y-116343231D01*
X144095481Y-116431956D01*
X143902706Y-116560764D01*
X143738764Y-116724706D01*
X143609956Y-116917481D01*
X143521231Y-117131682D01*
X143476000Y-117359076D01*
X113319582Y-117359076D01*
X113319582Y-116625000D01*
X113313268Y-116560897D01*
X113294570Y-116499257D01*
X113264206Y-116442450D01*
X113223343Y-116392657D01*
X113173550Y-116351794D01*
X113116743Y-116321430D01*
X113055103Y-116302732D01*
X112991000Y-116296418D01*
X111291000Y-116296418D01*
X111226897Y-116302732D01*
X111165257Y-116321430D01*
X111108450Y-116351794D01*
X111058657Y-116392657D01*
X111017794Y-116442450D01*
X110987430Y-116499257D01*
X110968732Y-116560897D01*
X110962418Y-116625000D01*
X105191582Y-116625000D01*
X105185268Y-116560897D01*
X105166570Y-116499257D01*
X105136206Y-116442450D01*
X105095343Y-116392657D01*
X105045550Y-116351794D01*
X104988743Y-116321430D01*
X104927103Y-116302732D01*
X104863000Y-116296418D01*
X103163000Y-116296418D01*
X103098897Y-116302732D01*
X103037257Y-116321430D01*
X102980450Y-116351794D01*
X102930657Y-116392657D01*
X102889794Y-116442450D01*
X102859430Y-116499257D01*
X102840732Y-116560897D01*
X102834418Y-116625000D01*
X84002075Y-116625000D01*
X84019393Y-106973000D01*
X143474418Y-106973000D01*
X143474418Y-108673000D01*
X143480732Y-108737103D01*
X143499430Y-108798743D01*
X143529794Y-108855550D01*
X143570657Y-108905343D01*
X143620450Y-108946206D01*
X143677257Y-108976570D01*
X143738897Y-108995268D01*
X143803000Y-109001582D01*
X145503000Y-109001582D01*
X145567103Y-108995268D01*
X145628743Y-108976570D01*
X145685550Y-108946206D01*
X145735343Y-108905343D01*
X145776206Y-108855550D01*
X145806570Y-108798743D01*
X145825268Y-108737103D01*
X145831582Y-108673000D01*
X145831582Y-106973000D01*
X145825268Y-106908897D01*
X145806570Y-106847257D01*
X145776206Y-106790450D01*
X145735343Y-106740657D01*
X145685550Y-106699794D01*
X145628743Y-106669430D01*
X145567103Y-106650732D01*
X145503000Y-106644418D01*
X143803000Y-106644418D01*
X143738897Y-106650732D01*
X143677257Y-106669430D01*
X143620450Y-106699794D01*
X143570657Y-106740657D01*
X143529794Y-106790450D01*
X143499430Y-106847257D01*
X143480732Y-106908897D01*
X143474418Y-106973000D01*
X84019393Y-106973000D01*
X84031099Y-100448897D01*
X113446000Y-100448897D01*
X113446000Y-100592103D01*
X113473938Y-100732558D01*
X113528741Y-100864864D01*
X113608302Y-100983936D01*
X113709564Y-101085198D01*
X113828636Y-101164759D01*
X113960942Y-101219562D01*
X114101397Y-101247500D01*
X114244603Y-101247500D01*
X114385058Y-101219562D01*
X114517364Y-101164759D01*
X114636436Y-101085198D01*
X114737698Y-100983936D01*
X114817259Y-100864864D01*
X114872062Y-100732558D01*
X114900000Y-100592103D01*
X114900000Y-100448897D01*
X114872062Y-100308442D01*
X114817259Y-100176136D01*
X114753073Y-100080073D01*
X142858000Y-100080073D01*
X142858000Y-100833927D01*
X143005070Y-101573295D01*
X143293557Y-102269764D01*
X143712375Y-102896570D01*
X144245430Y-103429625D01*
X144872236Y-103848443D01*
X145568705Y-104136930D01*
X146308073Y-104284000D01*
X147061927Y-104284000D01*
X147801295Y-104136930D01*
X148497764Y-103848443D01*
X149124570Y-103429625D01*
X149657625Y-102896570D01*
X150076443Y-102269764D01*
X150364930Y-101573295D01*
X150512000Y-100833927D01*
X150512000Y-100080073D01*
X150364930Y-99340705D01*
X150076443Y-98644236D01*
X149657625Y-98017430D01*
X149124570Y-97484375D01*
X148497764Y-97065557D01*
X147801295Y-96777070D01*
X147061927Y-96630000D01*
X146308073Y-96630000D01*
X145568705Y-96777070D01*
X144872236Y-97065557D01*
X144245430Y-97484375D01*
X143712375Y-98017430D01*
X143293557Y-98644236D01*
X143005070Y-99340705D01*
X142858000Y-100080073D01*
X114753073Y-100080073D01*
X114737698Y-100057064D01*
X114636436Y-99955802D01*
X114517364Y-99876241D01*
X114385058Y-99821438D01*
X114244603Y-99793500D01*
X114101397Y-99793500D01*
X113960942Y-99821438D01*
X113828636Y-99876241D01*
X113709564Y-99955802D01*
X113608302Y-100057064D01*
X113528741Y-100176136D01*
X113473938Y-100308442D01*
X113446000Y-100448897D01*
X84031099Y-100448897D01*
X84031867Y-100020918D01*
X84073540Y-99491415D01*
X84296414Y-98563076D01*
X103026500Y-98563076D01*
X103026500Y-98794924D01*
X103071731Y-99022318D01*
X103160456Y-99236519D01*
X103289264Y-99429294D01*
X103453206Y-99593236D01*
X103645981Y-99722044D01*
X103860182Y-99810769D01*
X104087576Y-99856000D01*
X104319424Y-99856000D01*
X104546818Y-99810769D01*
X104761019Y-99722044D01*
X104953794Y-99593236D01*
X105117736Y-99429294D01*
X105246544Y-99236519D01*
X105335269Y-99022318D01*
X105380500Y-98794924D01*
X105380500Y-98563076D01*
X105566500Y-98563076D01*
X105566500Y-98794924D01*
X105611731Y-99022318D01*
X105700456Y-99236519D01*
X105829264Y-99429294D01*
X105993206Y-99593236D01*
X106185981Y-99722044D01*
X106400182Y-99810769D01*
X106627576Y-99856000D01*
X106859424Y-99856000D01*
X107086818Y-99810769D01*
X107301019Y-99722044D01*
X107493794Y-99593236D01*
X107657736Y-99429294D01*
X107786544Y-99236519D01*
X107875269Y-99022318D01*
X107920500Y-98794924D01*
X107920500Y-98563076D01*
X108106500Y-98563076D01*
X108106500Y-98794924D01*
X108151731Y-99022318D01*
X108240456Y-99236519D01*
X108369264Y-99429294D01*
X108533206Y-99593236D01*
X108725981Y-99722044D01*
X108940182Y-99810769D01*
X109167576Y-99856000D01*
X109399424Y-99856000D01*
X109626818Y-99810769D01*
X109841019Y-99722044D01*
X110033794Y-99593236D01*
X110197736Y-99429294D01*
X110326544Y-99236519D01*
X110415269Y-99022318D01*
X110460500Y-98794924D01*
X110460500Y-98563076D01*
X110415269Y-98335682D01*
X110326544Y-98121481D01*
X110197736Y-97928706D01*
X110098030Y-97829000D01*
X110644918Y-97829000D01*
X110644918Y-99529000D01*
X110651232Y-99593103D01*
X110669930Y-99654743D01*
X110700294Y-99711550D01*
X110741157Y-99761343D01*
X110790950Y-99802206D01*
X110847757Y-99832570D01*
X110909397Y-99851268D01*
X110973500Y-99857582D01*
X112673500Y-99857582D01*
X112737603Y-99851268D01*
X112799243Y-99832570D01*
X112856050Y-99802206D01*
X112905843Y-99761343D01*
X112946706Y-99711550D01*
X112977070Y-99654743D01*
X112995768Y-99593103D01*
X113002082Y-99529000D01*
X113002082Y-97829000D01*
X112995768Y-97764897D01*
X112977070Y-97703257D01*
X112946706Y-97646450D01*
X112905843Y-97596657D01*
X112856050Y-97555794D01*
X112799243Y-97525430D01*
X112737603Y-97506732D01*
X112673500Y-97500418D01*
X110973500Y-97500418D01*
X110909397Y-97506732D01*
X110847757Y-97525430D01*
X110790950Y-97555794D01*
X110741157Y-97596657D01*
X110700294Y-97646450D01*
X110669930Y-97703257D01*
X110651232Y-97764897D01*
X110644918Y-97829000D01*
X110098030Y-97829000D01*
X110033794Y-97764764D01*
X109841019Y-97635956D01*
X109626818Y-97547231D01*
X109399424Y-97502000D01*
X109167576Y-97502000D01*
X108940182Y-97547231D01*
X108725981Y-97635956D01*
X108533206Y-97764764D01*
X108369264Y-97928706D01*
X108240456Y-98121481D01*
X108151731Y-98335682D01*
X108106500Y-98563076D01*
X107920500Y-98563076D01*
X107875269Y-98335682D01*
X107786544Y-98121481D01*
X107657736Y-97928706D01*
X107493794Y-97764764D01*
X107301019Y-97635956D01*
X107086818Y-97547231D01*
X106859424Y-97502000D01*
X106627576Y-97502000D01*
X106400182Y-97547231D01*
X106185981Y-97635956D01*
X105993206Y-97764764D01*
X105829264Y-97928706D01*
X105700456Y-98121481D01*
X105611731Y-98335682D01*
X105566500Y-98563076D01*
X105380500Y-98563076D01*
X105335269Y-98335682D01*
X105246544Y-98121481D01*
X105117736Y-97928706D01*
X104953794Y-97764764D01*
X104761019Y-97635956D01*
X104546818Y-97547231D01*
X104319424Y-97502000D01*
X104087576Y-97502000D01*
X103860182Y-97547231D01*
X103645981Y-97635956D01*
X103453206Y-97764764D01*
X103289264Y-97928706D01*
X103160456Y-98121481D01*
X103071731Y-98335682D01*
X103026500Y-98563076D01*
X84296414Y-98563076D01*
X84299647Y-98549612D01*
X84670307Y-97654761D01*
X85176379Y-96828925D01*
X85805417Y-96092417D01*
X86541925Y-95463380D01*
X87367764Y-94957306D01*
X88262612Y-94586647D01*
X89204420Y-94360540D01*
X89389894Y-94345943D01*
X111911395Y-94284000D01*
X146678051Y-94284000D01*
X147650585Y-94360540D01*
%TA.AperFunction,Conductor*%
D15*
G36*
X147650585Y-94360540D02*
G01*
X148592388Y-94586647D01*
X149487239Y-94957307D01*
X150313075Y-95463379D01*
X151049583Y-96092417D01*
X151678620Y-96828925D01*
X152184694Y-97654764D01*
X152555353Y-98549612D01*
X152781460Y-99491420D01*
X152858001Y-100463963D01*
X152858001Y-113103417D01*
X152556777Y-142871456D01*
X152555353Y-142877388D01*
X152184694Y-143772236D01*
X151678620Y-144598075D01*
X151049583Y-145334583D01*
X150313075Y-145963621D01*
X149487239Y-146469693D01*
X148592388Y-146840353D01*
X147650585Y-147066460D01*
X146678051Y-147143000D01*
X90176950Y-147143000D01*
X89204420Y-147066460D01*
X88262612Y-146840353D01*
X87367764Y-146469694D01*
X86541925Y-145963620D01*
X85805417Y-145334583D01*
X85176379Y-144598075D01*
X84670307Y-143772239D01*
X84299647Y-142877388D01*
X84073540Y-141935585D01*
X83997000Y-140963051D01*
X83997000Y-140593073D01*
X86343000Y-140593073D01*
X86343000Y-141346927D01*
X86490070Y-142086295D01*
X86778557Y-142782764D01*
X87197375Y-143409570D01*
X87730430Y-143942625D01*
X88357236Y-144361443D01*
X89053705Y-144649930D01*
X89793073Y-144797000D01*
X90546927Y-144797000D01*
X91286295Y-144649930D01*
X91982764Y-144361443D01*
X92609570Y-143942625D01*
X93142625Y-143409570D01*
X93561443Y-142782764D01*
X93849930Y-142086295D01*
X93997000Y-141346927D01*
X93997000Y-140593073D01*
X93981948Y-140517397D01*
X100238000Y-140517397D01*
X100238000Y-140660603D01*
X100265938Y-140801058D01*
X100320741Y-140933364D01*
X100400302Y-141052436D01*
X100501564Y-141153698D01*
X100620636Y-141233259D01*
X100752942Y-141288062D01*
X100893397Y-141316000D01*
X101036603Y-141316000D01*
X101177058Y-141288062D01*
X101309364Y-141233259D01*
X101428436Y-141153698D01*
X101529698Y-141052436D01*
X101609259Y-140933364D01*
X101664062Y-140801058D01*
X101692000Y-140660603D01*
X101692000Y-140517397D01*
X109255000Y-140517397D01*
X109255000Y-140660603D01*
X109282938Y-140801058D01*
X109337741Y-140933364D01*
X109417302Y-141052436D01*
X109518564Y-141153698D01*
X109637636Y-141233259D01*
X109769942Y-141288062D01*
X109910397Y-141316000D01*
X110053603Y-141316000D01*
X110194058Y-141288062D01*
X110326364Y-141233259D01*
X110445436Y-141153698D01*
X110546698Y-141052436D01*
X110626259Y-140933364D01*
X110681062Y-140801058D01*
X110709000Y-140660603D01*
X110709000Y-140517397D01*
X110698792Y-140466073D01*
X142858000Y-140466073D01*
X142858000Y-141219927D01*
X143005070Y-141959295D01*
X143293557Y-142655764D01*
X143712375Y-143282570D01*
X144245430Y-143815625D01*
X144872236Y-144234443D01*
X145568705Y-144522930D01*
X146308073Y-144670000D01*
X147061927Y-144670000D01*
X147801295Y-144522930D01*
X148497764Y-144234443D01*
X149124570Y-143815625D01*
X149657625Y-143282570D01*
X150076443Y-142655764D01*
X150364930Y-141959295D01*
X150512000Y-141219927D01*
X150512000Y-140466073D01*
X150364930Y-139726705D01*
X150076443Y-139030236D01*
X149657625Y-138403430D01*
X149124570Y-137870375D01*
X148497764Y-137451557D01*
X147801295Y-137163070D01*
X147061927Y-137016000D01*
X146308073Y-137016000D01*
X145568705Y-137163070D01*
X144872236Y-137451557D01*
X144245430Y-137870375D01*
X143712375Y-138403430D01*
X143293557Y-139030236D01*
X143005070Y-139726705D01*
X142858000Y-140466073D01*
X110698792Y-140466073D01*
X110681062Y-140376942D01*
X110626259Y-140244636D01*
X110546698Y-140125564D01*
X110445436Y-140024302D01*
X110326364Y-139944741D01*
X110194058Y-139889938D01*
X110053603Y-139862000D01*
X109910397Y-139862000D01*
X109769942Y-139889938D01*
X109637636Y-139944741D01*
X109518564Y-140024302D01*
X109417302Y-140125564D01*
X109337741Y-140244636D01*
X109282938Y-140376942D01*
X109255000Y-140517397D01*
X101692000Y-140517397D01*
X101664062Y-140376942D01*
X101609259Y-140244636D01*
X101529698Y-140125564D01*
X101428436Y-140024302D01*
X101309364Y-139944741D01*
X101177058Y-139889938D01*
X101036603Y-139862000D01*
X100893397Y-139862000D01*
X100752942Y-139889938D01*
X100620636Y-139944741D01*
X100501564Y-140024302D01*
X100400302Y-140125564D01*
X100320741Y-140244636D01*
X100265938Y-140376942D01*
X100238000Y-140517397D01*
X93981948Y-140517397D01*
X93849930Y-139853705D01*
X93561443Y-139157236D01*
X93142625Y-138530430D01*
X92827195Y-138215000D01*
X112486418Y-138215000D01*
X112486418Y-139915000D01*
X112492732Y-139979103D01*
X112511430Y-140040743D01*
X112541794Y-140097550D01*
X112582657Y-140147343D01*
X112632450Y-140188206D01*
X112689257Y-140218570D01*
X112750897Y-140237268D01*
X112815000Y-140243582D01*
X114515000Y-140243582D01*
X114579103Y-140237268D01*
X114640743Y-140218570D01*
X114697550Y-140188206D01*
X114747343Y-140147343D01*
X114788206Y-140097550D01*
X114818570Y-140040743D01*
X114837268Y-139979103D01*
X114843582Y-139915000D01*
X114843582Y-138215000D01*
X114837268Y-138150897D01*
X114818570Y-138089257D01*
X114788206Y-138032450D01*
X114747343Y-137982657D01*
X114697550Y-137941794D01*
X114640743Y-137911430D01*
X114579103Y-137892732D01*
X114515000Y-137886418D01*
X112815000Y-137886418D01*
X112750897Y-137892732D01*
X112689257Y-137911430D01*
X112632450Y-137941794D01*
X112582657Y-137982657D01*
X112541794Y-138032450D01*
X112511430Y-138089257D01*
X112492732Y-138150897D01*
X112486418Y-138215000D01*
X92827195Y-138215000D01*
X92609570Y-137997375D01*
X91982764Y-137578557D01*
X91286295Y-137290070D01*
X90546927Y-137143000D01*
X89793073Y-137143000D01*
X89053705Y-137290070D01*
X88357236Y-137578557D01*
X87730430Y-137997375D01*
X87197375Y-138530430D01*
X86778557Y-139157236D01*
X86490070Y-139853705D01*
X86343000Y-140593073D01*
X83997000Y-140593073D01*
X83997000Y-131119397D01*
X122082000Y-131119397D01*
X122082000Y-131262603D01*
X122109938Y-131403058D01*
X122164741Y-131535364D01*
X122244302Y-131654436D01*
X122345564Y-131755698D01*
X122464636Y-131835259D01*
X122596942Y-131890062D01*
X122737397Y-131918000D01*
X122880603Y-131918000D01*
X123021058Y-131890062D01*
X123153364Y-131835259D01*
X123272436Y-131755698D01*
X123373698Y-131654436D01*
X123453259Y-131535364D01*
X123508062Y-131403058D01*
X123524066Y-131322597D01*
X125942800Y-131322597D01*
X125942800Y-131465803D01*
X125970738Y-131606258D01*
X126025541Y-131738564D01*
X126105102Y-131857636D01*
X126206364Y-131958898D01*
X126325436Y-132038459D01*
X126457742Y-132093262D01*
X126598197Y-132121200D01*
X126741403Y-132121200D01*
X126881858Y-132093262D01*
X127014164Y-132038459D01*
X127133236Y-131958898D01*
X127234498Y-131857636D01*
X127314059Y-131738564D01*
X127368862Y-131606258D01*
X127396800Y-131465803D01*
X127396800Y-131322597D01*
X127368862Y-131182142D01*
X127342873Y-131119397D01*
X129702000Y-131119397D01*
X129702000Y-131262603D01*
X129729938Y-131403058D01*
X129784741Y-131535364D01*
X129864302Y-131654436D01*
X129965564Y-131755698D01*
X130084636Y-131835259D01*
X130216942Y-131890062D01*
X130357397Y-131918000D01*
X130500603Y-131918000D01*
X130641058Y-131890062D01*
X130773364Y-131835259D01*
X130892436Y-131755698D01*
X130993698Y-131654436D01*
X131073259Y-131535364D01*
X131128062Y-131403058D01*
X131156000Y-131262603D01*
X131156000Y-131119397D01*
X133258000Y-131119397D01*
X133258000Y-131262603D01*
X133285938Y-131403058D01*
X133340741Y-131535364D01*
X133420302Y-131654436D01*
X133521564Y-131755698D01*
X133640636Y-131835259D01*
X133772942Y-131890062D01*
X133913397Y-131918000D01*
X134056603Y-131918000D01*
X134197058Y-131890062D01*
X134329364Y-131835259D01*
X134448436Y-131755698D01*
X134549698Y-131654436D01*
X134629259Y-131535364D01*
X134684062Y-131403058D01*
X134712000Y-131262603D01*
X134712000Y-131119397D01*
X134684062Y-130978942D01*
X134629259Y-130846636D01*
X134549698Y-130727564D01*
X134448436Y-130626302D01*
X134329364Y-130546741D01*
X134197058Y-130491938D01*
X134056603Y-130464000D01*
X133913397Y-130464000D01*
X133772942Y-130491938D01*
X133640636Y-130546741D01*
X133521564Y-130626302D01*
X133420302Y-130727564D01*
X133340741Y-130846636D01*
X133285938Y-130978942D01*
X133258000Y-131119397D01*
X131156000Y-131119397D01*
X131128062Y-130978942D01*
X131073259Y-130846636D01*
X130993698Y-130727564D01*
X130892436Y-130626302D01*
X130773364Y-130546741D01*
X130641058Y-130491938D01*
X130500603Y-130464000D01*
X130357397Y-130464000D01*
X130216942Y-130491938D01*
X130084636Y-130546741D01*
X129965564Y-130626302D01*
X129864302Y-130727564D01*
X129784741Y-130846636D01*
X129729938Y-130978942D01*
X129702000Y-131119397D01*
X127342873Y-131119397D01*
X127314059Y-131049836D01*
X127234498Y-130930764D01*
X127133236Y-130829502D01*
X127014164Y-130749941D01*
X126881858Y-130695138D01*
X126741403Y-130667200D01*
X126598197Y-130667200D01*
X126457742Y-130695138D01*
X126325436Y-130749941D01*
X126206364Y-130829502D01*
X126105102Y-130930764D01*
X126025541Y-131049836D01*
X125970738Y-131182142D01*
X125942800Y-131322597D01*
X123524066Y-131322597D01*
X123536000Y-131262603D01*
X123536000Y-131119397D01*
X123508062Y-130978942D01*
X123453259Y-130846636D01*
X123373698Y-130727564D01*
X123272436Y-130626302D01*
X123153364Y-130546741D01*
X123021058Y-130491938D01*
X122880603Y-130464000D01*
X122737397Y-130464000D01*
X122596942Y-130491938D01*
X122464636Y-130546741D01*
X122345564Y-130626302D01*
X122244302Y-130727564D01*
X122164741Y-130846636D01*
X122109938Y-130978942D01*
X122082000Y-131119397D01*
X83997000Y-131119397D01*
X83997000Y-129722397D01*
X103159000Y-129722397D01*
X103159000Y-129865603D01*
X103186938Y-130006058D01*
X103241741Y-130138364D01*
X103321302Y-130257436D01*
X103422564Y-130358698D01*
X103541636Y-130438259D01*
X103673942Y-130493062D01*
X103814397Y-130521000D01*
X103957603Y-130521000D01*
X104098058Y-130493062D01*
X104230364Y-130438259D01*
X104349436Y-130358698D01*
X104450698Y-130257436D01*
X104530259Y-130138364D01*
X104585062Y-130006058D01*
X104613000Y-129865603D01*
X104613000Y-129722397D01*
X104585062Y-129581942D01*
X104530259Y-129449636D01*
X104450698Y-129330564D01*
X104349436Y-129229302D01*
X104230364Y-129149741D01*
X104098058Y-129094938D01*
X103957603Y-129067000D01*
X103814397Y-129067000D01*
X103673942Y-129094938D01*
X103541636Y-129149741D01*
X103422564Y-129229302D01*
X103321302Y-129330564D01*
X103241741Y-129449636D01*
X103186938Y-129581942D01*
X103159000Y-129722397D01*
X83997000Y-129722397D01*
X83997000Y-128071397D01*
X112430000Y-128071397D01*
X112430000Y-128214603D01*
X112457938Y-128355058D01*
X112512741Y-128487364D01*
X112592302Y-128606436D01*
X112693564Y-128707698D01*
X112812636Y-128787259D01*
X112944942Y-128842062D01*
X113085397Y-128870000D01*
X113228603Y-128870000D01*
X113369058Y-128842062D01*
X113501364Y-128787259D01*
X113620436Y-128707698D01*
X113721698Y-128606436D01*
X113801259Y-128487364D01*
X113856062Y-128355058D01*
X113884000Y-128214603D01*
X113884000Y-128071397D01*
X113856062Y-127930942D01*
X113801259Y-127798636D01*
X113721698Y-127679564D01*
X113620436Y-127578302D01*
X113598129Y-127563397D01*
X113954000Y-127563397D01*
X113954000Y-127706603D01*
X113981938Y-127847058D01*
X114036741Y-127979364D01*
X114116302Y-128098436D01*
X114217564Y-128199698D01*
X114336636Y-128279259D01*
X114468942Y-128334062D01*
X114609397Y-128362000D01*
X114752603Y-128362000D01*
X114893058Y-128334062D01*
X115025364Y-128279259D01*
X115144436Y-128199698D01*
X115245698Y-128098436D01*
X115325259Y-127979364D01*
X115380062Y-127847058D01*
X115408000Y-127706603D01*
X115408000Y-127563397D01*
X115380062Y-127422942D01*
X115325259Y-127290636D01*
X115245698Y-127171564D01*
X115144436Y-127070302D01*
X115025364Y-126990741D01*
X114893058Y-126935938D01*
X114752603Y-126908000D01*
X114609397Y-126908000D01*
X114468942Y-126935938D01*
X114336636Y-126990741D01*
X114217564Y-127070302D01*
X114116302Y-127171564D01*
X114036741Y-127290636D01*
X113981938Y-127422942D01*
X113954000Y-127563397D01*
X113598129Y-127563397D01*
X113501364Y-127498741D01*
X113369058Y-127443938D01*
X113228603Y-127416000D01*
X113085397Y-127416000D01*
X112944942Y-127443938D01*
X112812636Y-127498741D01*
X112693564Y-127578302D01*
X112592302Y-127679564D01*
X112512741Y-127798636D01*
X112457938Y-127930942D01*
X112430000Y-128071397D01*
X83997000Y-128071397D01*
X83997000Y-125277397D01*
X100492000Y-125277397D01*
X100492000Y-125420603D01*
X100519938Y-125561058D01*
X100574741Y-125693364D01*
X100654302Y-125812436D01*
X100755564Y-125913698D01*
X100874636Y-125993259D01*
X101006942Y-126048062D01*
X101147397Y-126076000D01*
X101290603Y-126076000D01*
X101431058Y-126048062D01*
X101563364Y-125993259D01*
X101682436Y-125913698D01*
X101783698Y-125812436D01*
X101863259Y-125693364D01*
X101918062Y-125561058D01*
X101946000Y-125420603D01*
X101946000Y-125277397D01*
X101918062Y-125136942D01*
X101863259Y-125004636D01*
X101784923Y-124887397D01*
X106216000Y-124887397D01*
X106216000Y-125030603D01*
X106243938Y-125171058D01*
X106298741Y-125303364D01*
X106378302Y-125422436D01*
X106479564Y-125523698D01*
X106598636Y-125603259D01*
X106730942Y-125658062D01*
X106871397Y-125686000D01*
X107014603Y-125686000D01*
X107155058Y-125658062D01*
X107287364Y-125603259D01*
X107406436Y-125523698D01*
X107507698Y-125422436D01*
X107587259Y-125303364D01*
X107642062Y-125171058D01*
X107670000Y-125030603D01*
X107670000Y-124887397D01*
X107642062Y-124746942D01*
X107587259Y-124614636D01*
X107507698Y-124495564D01*
X107406436Y-124394302D01*
X107287364Y-124314741D01*
X107155058Y-124259938D01*
X107014603Y-124232000D01*
X106871397Y-124232000D01*
X106730942Y-124259938D01*
X106598636Y-124314741D01*
X106479564Y-124394302D01*
X106378302Y-124495564D01*
X106298741Y-124614636D01*
X106243938Y-124746942D01*
X106216000Y-124887397D01*
X101784923Y-124887397D01*
X101783698Y-124885564D01*
X101682436Y-124784302D01*
X101563364Y-124704741D01*
X101431058Y-124649938D01*
X101290603Y-124622000D01*
X101147397Y-124622000D01*
X101006942Y-124649938D01*
X100874636Y-124704741D01*
X100755564Y-124784302D01*
X100654302Y-124885564D01*
X100574741Y-125004636D01*
X100519938Y-125136942D01*
X100492000Y-125277397D01*
X83997000Y-125277397D01*
X83997000Y-121232576D01*
X87913500Y-121232576D01*
X87913500Y-121464424D01*
X87958731Y-121691818D01*
X88047456Y-121906019D01*
X88176264Y-122098794D01*
X88340206Y-122262736D01*
X88532981Y-122391544D01*
X88747182Y-122480269D01*
X88974576Y-122525500D01*
X89206424Y-122525500D01*
X89433818Y-122480269D01*
X89648019Y-122391544D01*
X89840794Y-122262736D01*
X90004736Y-122098794D01*
X90133544Y-121906019D01*
X90222269Y-121691818D01*
X90267500Y-121464424D01*
X90267500Y-121232576D01*
X90222269Y-121005182D01*
X90133544Y-120790981D01*
X90004736Y-120598206D01*
X89905030Y-120498500D01*
X90451918Y-120498500D01*
X90451918Y-122198500D01*
X90458232Y-122262603D01*
X90476930Y-122324243D01*
X90507294Y-122381050D01*
X90548157Y-122430843D01*
X90597950Y-122471706D01*
X90654757Y-122502070D01*
X90716397Y-122520768D01*
X90780500Y-122527082D01*
X92480500Y-122527082D01*
X92544603Y-122520768D01*
X92606243Y-122502070D01*
X92663050Y-122471706D01*
X92712843Y-122430843D01*
X92753706Y-122381050D01*
X92784070Y-122324243D01*
X92802768Y-122262603D01*
X92809082Y-122198500D01*
X92809082Y-121451000D01*
X118328418Y-121451000D01*
X118328418Y-123151000D01*
X118334732Y-123215103D01*
X118353430Y-123276743D01*
X118383794Y-123333550D01*
X118424657Y-123383343D01*
X118474450Y-123424206D01*
X118531257Y-123454570D01*
X118592897Y-123473268D01*
X118657000Y-123479582D01*
X120357000Y-123479582D01*
X120421103Y-123473268D01*
X120482743Y-123454570D01*
X120539550Y-123424206D01*
X120589343Y-123383343D01*
X120630206Y-123333550D01*
X120660570Y-123276743D01*
X120679268Y-123215103D01*
X120685582Y-123151000D01*
X120685582Y-123118397D01*
X123733000Y-123118397D01*
X123733000Y-123261603D01*
X123760938Y-123402058D01*
X123815741Y-123534364D01*
X123895302Y-123653436D01*
X123996564Y-123754698D01*
X124115636Y-123834259D01*
X124247942Y-123889062D01*
X124388397Y-123917000D01*
X124531603Y-123917000D01*
X124672058Y-123889062D01*
X124804364Y-123834259D01*
X124923436Y-123754698D01*
X125024698Y-123653436D01*
X125104259Y-123534364D01*
X125159062Y-123402058D01*
X125187000Y-123261603D01*
X125187000Y-123118397D01*
X126908000Y-123118397D01*
X126908000Y-123261603D01*
X126935938Y-123402058D01*
X126990741Y-123534364D01*
X127070302Y-123653436D01*
X127171564Y-123754698D01*
X127290636Y-123834259D01*
X127422942Y-123889062D01*
X127563397Y-123917000D01*
X127706603Y-123917000D01*
X127847058Y-123889062D01*
X127979364Y-123834259D01*
X128098436Y-123754698D01*
X128199698Y-123653436D01*
X128279259Y-123534364D01*
X128334062Y-123402058D01*
X128362000Y-123261603D01*
X128362000Y-123118397D01*
X128334062Y-122977942D01*
X128279259Y-122845636D01*
X128199698Y-122726564D01*
X128098436Y-122625302D01*
X127979364Y-122545741D01*
X127847058Y-122490938D01*
X127706603Y-122463000D01*
X127563397Y-122463000D01*
X127422942Y-122490938D01*
X127290636Y-122545741D01*
X127171564Y-122625302D01*
X127070302Y-122726564D01*
X126990741Y-122845636D01*
X126935938Y-122977942D01*
X126908000Y-123118397D01*
X125187000Y-123118397D01*
X125159062Y-122977942D01*
X125104259Y-122845636D01*
X125024698Y-122726564D01*
X124923436Y-122625302D01*
X124804364Y-122545741D01*
X124672058Y-122490938D01*
X124531603Y-122463000D01*
X124388397Y-122463000D01*
X124247942Y-122490938D01*
X124115636Y-122545741D01*
X123996564Y-122625302D01*
X123895302Y-122726564D01*
X123815741Y-122845636D01*
X123760938Y-122977942D01*
X123733000Y-123118397D01*
X120685582Y-123118397D01*
X120685582Y-121451000D01*
X120679268Y-121386897D01*
X120660570Y-121325257D01*
X120630206Y-121268450D01*
X120589343Y-121218657D01*
X120539550Y-121177794D01*
X120482743Y-121147430D01*
X120421103Y-121128732D01*
X120357000Y-121122418D01*
X118657000Y-121122418D01*
X118592897Y-121128732D01*
X118531257Y-121147430D01*
X118474450Y-121177794D01*
X118424657Y-121218657D01*
X118383794Y-121268450D01*
X118353430Y-121325257D01*
X118334732Y-121386897D01*
X118328418Y-121451000D01*
X92809082Y-121451000D01*
X92809082Y-120498500D01*
X92802768Y-120434397D01*
X92784070Y-120372757D01*
X92753706Y-120315950D01*
X92712843Y-120266157D01*
X92663050Y-120225294D01*
X92606243Y-120194930D01*
X92544603Y-120176232D01*
X92480500Y-120169918D01*
X90780500Y-120169918D01*
X90716397Y-120176232D01*
X90654757Y-120194930D01*
X90597950Y-120225294D01*
X90548157Y-120266157D01*
X90507294Y-120315950D01*
X90476930Y-120372757D01*
X90458232Y-120434397D01*
X90451918Y-120498500D01*
X89905030Y-120498500D01*
X89840794Y-120434264D01*
X89648019Y-120305456D01*
X89433818Y-120216731D01*
X89206424Y-120171500D01*
X88974576Y-120171500D01*
X88747182Y-120216731D01*
X88532981Y-120305456D01*
X88340206Y-120434264D01*
X88176264Y-120598206D01*
X88047456Y-120790981D01*
X87958731Y-121005182D01*
X87913500Y-121232576D01*
X83997000Y-121232576D01*
X83997000Y-119645076D01*
X118330000Y-119645076D01*
X118330000Y-119876924D01*
X118375231Y-120104318D01*
X118463956Y-120318519D01*
X118592764Y-120511294D01*
X118756706Y-120675236D01*
X118949481Y-120804044D01*
X119163682Y-120892769D01*
X119391076Y-120938000D01*
X119622924Y-120938000D01*
X119850318Y-120892769D01*
X120064519Y-120804044D01*
X120257294Y-120675236D01*
X120421236Y-120511294D01*
X120550044Y-120318519D01*
X120638769Y-120104318D01*
X120684000Y-119876924D01*
X120684000Y-119645076D01*
X120638769Y-119417682D01*
X120550044Y-119203481D01*
X120524332Y-119165000D01*
X143474418Y-119165000D01*
X143474418Y-120865000D01*
X143480732Y-120929103D01*
X143499430Y-120990743D01*
X143529794Y-121047550D01*
X143570657Y-121097343D01*
X143620450Y-121138206D01*
X143677257Y-121168570D01*
X143738897Y-121187268D01*
X143803000Y-121193582D01*
X145503000Y-121193582D01*
X145567103Y-121187268D01*
X145628743Y-121168570D01*
X145685550Y-121138206D01*
X145735343Y-121097343D01*
X145776206Y-121047550D01*
X145806570Y-120990743D01*
X145825268Y-120929103D01*
X145831582Y-120865000D01*
X145831582Y-119165000D01*
X145825268Y-119100897D01*
X145806570Y-119039257D01*
X145776206Y-118982450D01*
X145735343Y-118932657D01*
X145685550Y-118891794D01*
X145628743Y-118861430D01*
X145567103Y-118842732D01*
X145503000Y-118836418D01*
X143803000Y-118836418D01*
X143738897Y-118842732D01*
X143677257Y-118861430D01*
X143620450Y-118891794D01*
X143570657Y-118932657D01*
X143529794Y-118982450D01*
X143499430Y-119039257D01*
X143480732Y-119100897D01*
X143474418Y-119165000D01*
X120524332Y-119165000D01*
X120421236Y-119010706D01*
X120257294Y-118846764D01*
X120064519Y-118717956D01*
X119850318Y-118629231D01*
X119622924Y-118584000D01*
X119391076Y-118584000D01*
X119163682Y-118629231D01*
X118949481Y-118717956D01*
X118756706Y-118846764D01*
X118592764Y-119010706D01*
X118463956Y-119203481D01*
X118375231Y-119417682D01*
X118330000Y-119645076D01*
X83997000Y-119645076D01*
X83997000Y-119453524D01*
X84002075Y-116625000D01*
X102834418Y-116625000D01*
X102834418Y-118325000D01*
X102840732Y-118389103D01*
X102859430Y-118450743D01*
X102889794Y-118507550D01*
X102930657Y-118557343D01*
X102980450Y-118598206D01*
X103037257Y-118628570D01*
X103098897Y-118647268D01*
X103163000Y-118653582D01*
X104863000Y-118653582D01*
X104927103Y-118647268D01*
X104988743Y-118628570D01*
X105045550Y-118598206D01*
X105095343Y-118557343D01*
X105136206Y-118507550D01*
X105166570Y-118450743D01*
X105185268Y-118389103D01*
X105191582Y-118325000D01*
X105191582Y-116625000D01*
X110962418Y-116625000D01*
X110962418Y-118325000D01*
X110968732Y-118389103D01*
X110987430Y-118450743D01*
X111017794Y-118507550D01*
X111058657Y-118557343D01*
X111108450Y-118598206D01*
X111165257Y-118628570D01*
X111226897Y-118647268D01*
X111291000Y-118653582D01*
X112991000Y-118653582D01*
X113055103Y-118647268D01*
X113116743Y-118628570D01*
X113173550Y-118598206D01*
X113223343Y-118557343D01*
X113264206Y-118507550D01*
X113294570Y-118450743D01*
X113313268Y-118389103D01*
X113319582Y-118325000D01*
X113319582Y-117359076D01*
X143476000Y-117359076D01*
X143476000Y-117590924D01*
X143521231Y-117818318D01*
X143609956Y-118032519D01*
X143738764Y-118225294D01*
X143902706Y-118389236D01*
X144095481Y-118518044D01*
X144309682Y-118606769D01*
X144537076Y-118652000D01*
X144768924Y-118652000D01*
X144996318Y-118606769D01*
X145210519Y-118518044D01*
X145403294Y-118389236D01*
X145567236Y-118225294D01*
X145696044Y-118032519D01*
X145784769Y-117818318D01*
X145830000Y-117590924D01*
X145830000Y-117359076D01*
X145784769Y-117131682D01*
X145696044Y-116917481D01*
X145567236Y-116724706D01*
X145403294Y-116560764D01*
X145210519Y-116431956D01*
X144996318Y-116343231D01*
X144768924Y-116298000D01*
X144537076Y-116298000D01*
X144309682Y-116343231D01*
X144095481Y-116431956D01*
X143902706Y-116560764D01*
X143738764Y-116724706D01*
X143609956Y-116917481D01*
X143521231Y-117131682D01*
X143476000Y-117359076D01*
X113319582Y-117359076D01*
X113319582Y-116625000D01*
X113313268Y-116560897D01*
X113294570Y-116499257D01*
X113264206Y-116442450D01*
X113223343Y-116392657D01*
X113173550Y-116351794D01*
X113116743Y-116321430D01*
X113055103Y-116302732D01*
X112991000Y-116296418D01*
X111291000Y-116296418D01*
X111226897Y-116302732D01*
X111165257Y-116321430D01*
X111108450Y-116351794D01*
X111058657Y-116392657D01*
X111017794Y-116442450D01*
X110987430Y-116499257D01*
X110968732Y-116560897D01*
X110962418Y-116625000D01*
X105191582Y-116625000D01*
X105185268Y-116560897D01*
X105166570Y-116499257D01*
X105136206Y-116442450D01*
X105095343Y-116392657D01*
X105045550Y-116351794D01*
X104988743Y-116321430D01*
X104927103Y-116302732D01*
X104863000Y-116296418D01*
X103163000Y-116296418D01*
X103098897Y-116302732D01*
X103037257Y-116321430D01*
X102980450Y-116351794D01*
X102930657Y-116392657D01*
X102889794Y-116442450D01*
X102859430Y-116499257D01*
X102840732Y-116560897D01*
X102834418Y-116625000D01*
X84002075Y-116625000D01*
X84019393Y-106973000D01*
X143474418Y-106973000D01*
X143474418Y-108673000D01*
X143480732Y-108737103D01*
X143499430Y-108798743D01*
X143529794Y-108855550D01*
X143570657Y-108905343D01*
X143620450Y-108946206D01*
X143677257Y-108976570D01*
X143738897Y-108995268D01*
X143803000Y-109001582D01*
X145503000Y-109001582D01*
X145567103Y-108995268D01*
X145628743Y-108976570D01*
X145685550Y-108946206D01*
X145735343Y-108905343D01*
X145776206Y-108855550D01*
X145806570Y-108798743D01*
X145825268Y-108737103D01*
X145831582Y-108673000D01*
X145831582Y-106973000D01*
X145825268Y-106908897D01*
X145806570Y-106847257D01*
X145776206Y-106790450D01*
X145735343Y-106740657D01*
X145685550Y-106699794D01*
X145628743Y-106669430D01*
X145567103Y-106650732D01*
X145503000Y-106644418D01*
X143803000Y-106644418D01*
X143738897Y-106650732D01*
X143677257Y-106669430D01*
X143620450Y-106699794D01*
X143570657Y-106740657D01*
X143529794Y-106790450D01*
X143499430Y-106847257D01*
X143480732Y-106908897D01*
X143474418Y-106973000D01*
X84019393Y-106973000D01*
X84031099Y-100448897D01*
X113446000Y-100448897D01*
X113446000Y-100592103D01*
X113473938Y-100732558D01*
X113528741Y-100864864D01*
X113608302Y-100983936D01*
X113709564Y-101085198D01*
X113828636Y-101164759D01*
X113960942Y-101219562D01*
X114101397Y-101247500D01*
X114244603Y-101247500D01*
X114385058Y-101219562D01*
X114517364Y-101164759D01*
X114636436Y-101085198D01*
X114737698Y-100983936D01*
X114817259Y-100864864D01*
X114872062Y-100732558D01*
X114900000Y-100592103D01*
X114900000Y-100448897D01*
X114872062Y-100308442D01*
X114817259Y-100176136D01*
X114753073Y-100080073D01*
X142858000Y-100080073D01*
X142858000Y-100833927D01*
X143005070Y-101573295D01*
X143293557Y-102269764D01*
X143712375Y-102896570D01*
X144245430Y-103429625D01*
X144872236Y-103848443D01*
X145568705Y-104136930D01*
X146308073Y-104284000D01*
X147061927Y-104284000D01*
X147801295Y-104136930D01*
X148497764Y-103848443D01*
X149124570Y-103429625D01*
X149657625Y-102896570D01*
X150076443Y-102269764D01*
X150364930Y-101573295D01*
X150512000Y-100833927D01*
X150512000Y-100080073D01*
X150364930Y-99340705D01*
X150076443Y-98644236D01*
X149657625Y-98017430D01*
X149124570Y-97484375D01*
X148497764Y-97065557D01*
X147801295Y-96777070D01*
X147061927Y-96630000D01*
X146308073Y-96630000D01*
X145568705Y-96777070D01*
X144872236Y-97065557D01*
X144245430Y-97484375D01*
X143712375Y-98017430D01*
X143293557Y-98644236D01*
X143005070Y-99340705D01*
X142858000Y-100080073D01*
X114753073Y-100080073D01*
X114737698Y-100057064D01*
X114636436Y-99955802D01*
X114517364Y-99876241D01*
X114385058Y-99821438D01*
X114244603Y-99793500D01*
X114101397Y-99793500D01*
X113960942Y-99821438D01*
X113828636Y-99876241D01*
X113709564Y-99955802D01*
X113608302Y-100057064D01*
X113528741Y-100176136D01*
X113473938Y-100308442D01*
X113446000Y-100448897D01*
X84031099Y-100448897D01*
X84031867Y-100020918D01*
X84073540Y-99491415D01*
X84296414Y-98563076D01*
X103026500Y-98563076D01*
X103026500Y-98794924D01*
X103071731Y-99022318D01*
X103160456Y-99236519D01*
X103289264Y-99429294D01*
X103453206Y-99593236D01*
X103645981Y-99722044D01*
X103860182Y-99810769D01*
X104087576Y-99856000D01*
X104319424Y-99856000D01*
X104546818Y-99810769D01*
X104761019Y-99722044D01*
X104953794Y-99593236D01*
X105117736Y-99429294D01*
X105246544Y-99236519D01*
X105335269Y-99022318D01*
X105380500Y-98794924D01*
X105380500Y-98563076D01*
X105566500Y-98563076D01*
X105566500Y-98794924D01*
X105611731Y-99022318D01*
X105700456Y-99236519D01*
X105829264Y-99429294D01*
X105993206Y-99593236D01*
X106185981Y-99722044D01*
X106400182Y-99810769D01*
X106627576Y-99856000D01*
X106859424Y-99856000D01*
X107086818Y-99810769D01*
X107301019Y-99722044D01*
X107493794Y-99593236D01*
X107657736Y-99429294D01*
X107786544Y-99236519D01*
X107875269Y-99022318D01*
X107920500Y-98794924D01*
X107920500Y-98563076D01*
X108106500Y-98563076D01*
X108106500Y-98794924D01*
X108151731Y-99022318D01*
X108240456Y-99236519D01*
X108369264Y-99429294D01*
X108533206Y-99593236D01*
X108725981Y-99722044D01*
X108940182Y-99810769D01*
X109167576Y-99856000D01*
X109399424Y-99856000D01*
X109626818Y-99810769D01*
X109841019Y-99722044D01*
X110033794Y-99593236D01*
X110197736Y-99429294D01*
X110326544Y-99236519D01*
X110415269Y-99022318D01*
X110460500Y-98794924D01*
X110460500Y-98563076D01*
X110415269Y-98335682D01*
X110326544Y-98121481D01*
X110197736Y-97928706D01*
X110098030Y-97829000D01*
X110644918Y-97829000D01*
X110644918Y-99529000D01*
X110651232Y-99593103D01*
X110669930Y-99654743D01*
X110700294Y-99711550D01*
X110741157Y-99761343D01*
X110790950Y-99802206D01*
X110847757Y-99832570D01*
X110909397Y-99851268D01*
X110973500Y-99857582D01*
X112673500Y-99857582D01*
X112737603Y-99851268D01*
X112799243Y-99832570D01*
X112856050Y-99802206D01*
X112905843Y-99761343D01*
X112946706Y-99711550D01*
X112977070Y-99654743D01*
X112995768Y-99593103D01*
X113002082Y-99529000D01*
X113002082Y-97829000D01*
X112995768Y-97764897D01*
X112977070Y-97703257D01*
X112946706Y-97646450D01*
X112905843Y-97596657D01*
X112856050Y-97555794D01*
X112799243Y-97525430D01*
X112737603Y-97506732D01*
X112673500Y-97500418D01*
X110973500Y-97500418D01*
X110909397Y-97506732D01*
X110847757Y-97525430D01*
X110790950Y-97555794D01*
X110741157Y-97596657D01*
X110700294Y-97646450D01*
X110669930Y-97703257D01*
X110651232Y-97764897D01*
X110644918Y-97829000D01*
X110098030Y-97829000D01*
X110033794Y-97764764D01*
X109841019Y-97635956D01*
X109626818Y-97547231D01*
X109399424Y-97502000D01*
X109167576Y-97502000D01*
X108940182Y-97547231D01*
X108725981Y-97635956D01*
X108533206Y-97764764D01*
X108369264Y-97928706D01*
X108240456Y-98121481D01*
X108151731Y-98335682D01*
X108106500Y-98563076D01*
X107920500Y-98563076D01*
X107875269Y-98335682D01*
X107786544Y-98121481D01*
X107657736Y-97928706D01*
X107493794Y-97764764D01*
X107301019Y-97635956D01*
X107086818Y-97547231D01*
X106859424Y-97502000D01*
X106627576Y-97502000D01*
X106400182Y-97547231D01*
X106185981Y-97635956D01*
X105993206Y-97764764D01*
X105829264Y-97928706D01*
X105700456Y-98121481D01*
X105611731Y-98335682D01*
X105566500Y-98563076D01*
X105380500Y-98563076D01*
X105335269Y-98335682D01*
X105246544Y-98121481D01*
X105117736Y-97928706D01*
X104953794Y-97764764D01*
X104761019Y-97635956D01*
X104546818Y-97547231D01*
X104319424Y-97502000D01*
X104087576Y-97502000D01*
X103860182Y-97547231D01*
X103645981Y-97635956D01*
X103453206Y-97764764D01*
X103289264Y-97928706D01*
X103160456Y-98121481D01*
X103071731Y-98335682D01*
X103026500Y-98563076D01*
X84296414Y-98563076D01*
X84299647Y-98549612D01*
X84670307Y-97654761D01*
X85176379Y-96828925D01*
X85805417Y-96092417D01*
X86541925Y-95463380D01*
X87367764Y-94957306D01*
X88262612Y-94586647D01*
X89204420Y-94360540D01*
X89389894Y-94345943D01*
X111911395Y-94284000D01*
X146678051Y-94284000D01*
X147650585Y-94360540D01*
G37*
%TD.AperFunction*%
%TD*%
M02*
