%TF.GenerationSoftware,KiCad,Pcbnew,(5.1.9)-1*%
%TF.CreationDate,2021-07-13T18:03:53-04:00*%
%TF.ProjectId,detector_circuit_alt_LTC6254,64657465-6374-46f7-925f-636972637569,rev?*%
%TF.SameCoordinates,Original*%
%TF.FileFunction,Legend,Top*%
%TF.FilePolarity,Positive*%
%FSLAX46Y46*%
G04 Gerber Fmt 4.6, Leading zero omitted, Abs format (unit mm)*
G04 Created by KiCad (PCBNEW (5.1.9)-1) date 2021-07-13 18:03:53*
%MOMM*%
%LPD*%
G01*
G04 APERTURE LIST*
%ADD10C,0.150000*%
%ADD11C,0.100000*%
%ADD12C,0.120000*%
%ADD13C,0.010000*%
G04 APERTURE END LIST*
D10*
X118221285Y-133421380D02*
X118221285Y-132421380D01*
X118459380Y-132421380D01*
X118602238Y-132469000D01*
X118697476Y-132564238D01*
X118745095Y-132659476D01*
X118792714Y-132849952D01*
X118792714Y-132992809D01*
X118745095Y-133183285D01*
X118697476Y-133278523D01*
X118602238Y-133373761D01*
X118459380Y-133421380D01*
X118221285Y-133421380D01*
X119221285Y-133421380D02*
X119221285Y-132421380D01*
X119792714Y-133421380D01*
X119792714Y-132421380D01*
X120268904Y-133421380D02*
X120268904Y-132421380D01*
X120649857Y-132421380D01*
X120745095Y-132469000D01*
X120792714Y-132516619D01*
X120840333Y-132611857D01*
X120840333Y-132754714D01*
X120792714Y-132849952D01*
X120745095Y-132897571D01*
X120649857Y-132945190D01*
X120268904Y-132945190D01*
X131199666Y-142311285D02*
X131556809Y-142454142D01*
X132152047Y-142454142D01*
X132390142Y-142311285D01*
X132509190Y-142168428D01*
X132628238Y-141882714D01*
X132628238Y-141597000D01*
X132509190Y-141311285D01*
X132390142Y-141168428D01*
X132152047Y-141025571D01*
X131675857Y-140882714D01*
X131437761Y-140739857D01*
X131318714Y-140597000D01*
X131199666Y-140311285D01*
X131199666Y-140025571D01*
X131318714Y-139739857D01*
X131437761Y-139597000D01*
X131675857Y-139454142D01*
X132271095Y-139454142D01*
X132628238Y-139597000D01*
X133699666Y-142454142D02*
X133699666Y-139454142D01*
X134533000Y-141597000D01*
X135366333Y-139454142D01*
X135366333Y-142454142D01*
X137033000Y-139454142D02*
X137509190Y-139454142D01*
X137747285Y-139597000D01*
X137985380Y-139882714D01*
X138104428Y-140454142D01*
X138104428Y-141454142D01*
X137985380Y-142025571D01*
X137747285Y-142311285D01*
X137509190Y-142454142D01*
X137033000Y-142454142D01*
X136794904Y-142311285D01*
X136556809Y-142025571D01*
X136437761Y-141454142D01*
X136437761Y-140454142D01*
X136556809Y-139882714D01*
X136794904Y-139597000D01*
X137033000Y-139454142D01*
X139175857Y-142454142D02*
X139175857Y-139454142D01*
X140604428Y-142454142D02*
X139533000Y-140739857D01*
X140604428Y-139454142D02*
X139175857Y-141168428D01*
X141675857Y-140882714D02*
X142509190Y-140882714D01*
X142866333Y-142454142D02*
X141675857Y-142454142D01*
X141675857Y-139454142D01*
X142866333Y-139454142D01*
X136779000Y-131953000D02*
X136779000Y-125349000D01*
X114427000Y-131953000D02*
X136779000Y-131953000D01*
X114300000Y-125349000D02*
X114427000Y-131953000D01*
X95123000Y-124333000D02*
X95123000Y-103632000D01*
X101219000Y-124333000D02*
X100330000Y-124333000D01*
X101219000Y-123952000D02*
X101219000Y-124333000D01*
X84963000Y-133477000D02*
X100330000Y-133477000D01*
X111641000Y-102996904D02*
X111593380Y-103092142D01*
X111593380Y-103235000D01*
X111641000Y-103377857D01*
X111736238Y-103473095D01*
X111831476Y-103520714D01*
X112021952Y-103568333D01*
X112164809Y-103568333D01*
X112355285Y-103520714D01*
X112450523Y-103473095D01*
X112545761Y-103377857D01*
X112593380Y-103235000D01*
X112593380Y-103139761D01*
X112545761Y-102996904D01*
X112498142Y-102949285D01*
X112164809Y-102949285D01*
X112164809Y-103139761D01*
X112593380Y-102520714D02*
X111593380Y-102520714D01*
X112593380Y-101949285D01*
X111593380Y-101949285D01*
X112593380Y-101473095D02*
X111593380Y-101473095D01*
X111593380Y-101235000D01*
X111641000Y-101092142D01*
X111736238Y-100996904D01*
X111831476Y-100949285D01*
X112021952Y-100901666D01*
X112164809Y-100901666D01*
X112355285Y-100949285D01*
X112450523Y-100996904D01*
X112545761Y-101092142D01*
X112593380Y-101235000D01*
X112593380Y-101473095D01*
X109513666Y-107132047D02*
X109513666Y-106655857D01*
X109799380Y-107227285D02*
X108799380Y-106893952D01*
X109799380Y-106560619D01*
X109799380Y-106227285D02*
X108799380Y-106227285D01*
X109513666Y-105893952D01*
X108799380Y-105560619D01*
X109799380Y-105560619D01*
X109799380Y-105084428D02*
X108799380Y-105084428D01*
X108799380Y-104703476D01*
X108847000Y-104608238D01*
X108894619Y-104560619D01*
X108989857Y-104513000D01*
X109132714Y-104513000D01*
X109227952Y-104560619D01*
X109275571Y-104608238D01*
X109323190Y-104703476D01*
X109323190Y-105084428D01*
X109894619Y-104322523D02*
X109894619Y-103560619D01*
X108799380Y-103132047D02*
X108799380Y-102941571D01*
X108847000Y-102846333D01*
X108942238Y-102751095D01*
X109132714Y-102703476D01*
X109466047Y-102703476D01*
X109656523Y-102751095D01*
X109751761Y-102846333D01*
X109799380Y-102941571D01*
X109799380Y-103132047D01*
X109751761Y-103227285D01*
X109656523Y-103322523D01*
X109466047Y-103370142D01*
X109132714Y-103370142D01*
X108942238Y-103322523D01*
X108847000Y-103227285D01*
X108799380Y-103132047D01*
X108799380Y-102274904D02*
X109608904Y-102274904D01*
X109704142Y-102227285D01*
X109751761Y-102179666D01*
X109799380Y-102084428D01*
X109799380Y-101893952D01*
X109751761Y-101798714D01*
X109704142Y-101751095D01*
X109608904Y-101703476D01*
X108799380Y-101703476D01*
X108799380Y-101370142D02*
X108799380Y-100798714D01*
X109799380Y-101084428D02*
X108799380Y-101084428D01*
X107259380Y-106663761D02*
X106259380Y-106663761D01*
X106259380Y-106425666D01*
X106307000Y-106282809D01*
X106402238Y-106187571D01*
X106497476Y-106139952D01*
X106687952Y-106092333D01*
X106830809Y-106092333D01*
X107021285Y-106139952D01*
X107116523Y-106187571D01*
X107211761Y-106282809D01*
X107259380Y-106425666D01*
X107259380Y-106663761D01*
X106735571Y-105663761D02*
X106735571Y-105330428D01*
X107259380Y-105187571D02*
X107259380Y-105663761D01*
X106259380Y-105663761D01*
X106259380Y-105187571D01*
X106259380Y-104901857D02*
X106259380Y-104330428D01*
X107259380Y-104616142D02*
X106259380Y-104616142D01*
X107354619Y-104235190D02*
X107354619Y-103473285D01*
X106973666Y-103282809D02*
X106973666Y-102806619D01*
X107259380Y-103378047D02*
X106259380Y-103044714D01*
X107259380Y-102711380D01*
X107259380Y-102378047D02*
X106259380Y-102378047D01*
X106259380Y-102139952D01*
X106307000Y-101997095D01*
X106402238Y-101901857D01*
X106497476Y-101854238D01*
X106687952Y-101806619D01*
X106830809Y-101806619D01*
X107021285Y-101854238D01*
X107116523Y-101901857D01*
X107211761Y-101997095D01*
X107259380Y-102139952D01*
X107259380Y-102378047D01*
X107164142Y-100806619D02*
X107211761Y-100854238D01*
X107259380Y-100997095D01*
X107259380Y-101092333D01*
X107211761Y-101235190D01*
X107116523Y-101330428D01*
X107021285Y-101378047D01*
X106830809Y-101425666D01*
X106687952Y-101425666D01*
X106497476Y-101378047D01*
X106402238Y-101330428D01*
X106307000Y-101235190D01*
X106259380Y-101092333D01*
X106259380Y-100997095D01*
X106307000Y-100854238D01*
X106354619Y-100806619D01*
X104417761Y-107671761D02*
X104465380Y-107528904D01*
X104465380Y-107290809D01*
X104417761Y-107195571D01*
X104370142Y-107147952D01*
X104274904Y-107100333D01*
X104179666Y-107100333D01*
X104084428Y-107147952D01*
X104036809Y-107195571D01*
X103989190Y-107290809D01*
X103941571Y-107481285D01*
X103893952Y-107576523D01*
X103846333Y-107624142D01*
X103751095Y-107671761D01*
X103655857Y-107671761D01*
X103560619Y-107624142D01*
X103513000Y-107576523D01*
X103465380Y-107481285D01*
X103465380Y-107243190D01*
X103513000Y-107100333D01*
X104465380Y-106671761D02*
X103465380Y-106671761D01*
X104465380Y-106195571D02*
X103465380Y-106195571D01*
X103465380Y-105814619D01*
X103513000Y-105719380D01*
X103560619Y-105671761D01*
X103655857Y-105624142D01*
X103798714Y-105624142D01*
X103893952Y-105671761D01*
X103941571Y-105719380D01*
X103989190Y-105814619D01*
X103989190Y-106195571D01*
X104465380Y-105195571D02*
X103465380Y-105195571D01*
X104179666Y-104862238D01*
X103465380Y-104528904D01*
X104465380Y-104528904D01*
X104560619Y-104290809D02*
X104560619Y-103528904D01*
X103465380Y-103100333D02*
X103465380Y-102909857D01*
X103513000Y-102814619D01*
X103608238Y-102719380D01*
X103798714Y-102671761D01*
X104132047Y-102671761D01*
X104322523Y-102719380D01*
X104417761Y-102814619D01*
X104465380Y-102909857D01*
X104465380Y-103100333D01*
X104417761Y-103195571D01*
X104322523Y-103290809D01*
X104132047Y-103338428D01*
X103798714Y-103338428D01*
X103608238Y-103290809D01*
X103513000Y-103195571D01*
X103465380Y-103100333D01*
X103465380Y-102243190D02*
X104274904Y-102243190D01*
X104370142Y-102195571D01*
X104417761Y-102147952D01*
X104465380Y-102052714D01*
X104465380Y-101862238D01*
X104417761Y-101767000D01*
X104370142Y-101719380D01*
X104274904Y-101671761D01*
X103465380Y-101671761D01*
X103465380Y-101338428D02*
X103465380Y-100767000D01*
X104465380Y-101052714D02*
X103465380Y-101052714D01*
X140081095Y-107323000D02*
X139985857Y-107275380D01*
X139843000Y-107275380D01*
X139700142Y-107323000D01*
X139604904Y-107418238D01*
X139557285Y-107513476D01*
X139509666Y-107703952D01*
X139509666Y-107846809D01*
X139557285Y-108037285D01*
X139604904Y-108132523D01*
X139700142Y-108227761D01*
X139843000Y-108275380D01*
X139938238Y-108275380D01*
X140081095Y-108227761D01*
X140128714Y-108180142D01*
X140128714Y-107846809D01*
X139938238Y-107846809D01*
X140557285Y-108275380D02*
X140557285Y-107275380D01*
X141128714Y-108275380D01*
X141128714Y-107275380D01*
X141604904Y-108275380D02*
X141604904Y-107275380D01*
X141843000Y-107275380D01*
X141985857Y-107323000D01*
X142081095Y-107418238D01*
X142128714Y-107513476D01*
X142176333Y-107703952D01*
X142176333Y-107846809D01*
X142128714Y-108037285D01*
X142081095Y-108132523D01*
X141985857Y-108227761D01*
X141843000Y-108275380D01*
X141604904Y-108275380D01*
X138335000Y-110942428D02*
X139096904Y-110942428D01*
X138715952Y-111323380D02*
X138715952Y-110561476D01*
X140001666Y-110656714D02*
X140001666Y-111323380D01*
X139763571Y-110275761D02*
X139525476Y-110990047D01*
X140144523Y-110990047D01*
X140525476Y-111228142D02*
X140573095Y-111275761D01*
X140525476Y-111323380D01*
X140477857Y-111275761D01*
X140525476Y-111228142D01*
X140525476Y-111323380D01*
X140906428Y-110323380D02*
X141573095Y-110323380D01*
X141144523Y-111323380D01*
X141811190Y-110323380D02*
X142144523Y-111323380D01*
X142477857Y-110323380D01*
X138827095Y-117800428D02*
X139589000Y-117800428D01*
X139208047Y-118181380D02*
X139208047Y-117419476D01*
X139969952Y-117181380D02*
X140589000Y-117181380D01*
X140255666Y-117562333D01*
X140398523Y-117562333D01*
X140493761Y-117609952D01*
X140541380Y-117657571D01*
X140589000Y-117752809D01*
X140589000Y-117990904D01*
X140541380Y-118086142D01*
X140493761Y-118133761D01*
X140398523Y-118181380D01*
X140112809Y-118181380D01*
X140017571Y-118133761D01*
X139969952Y-118086142D01*
X141446142Y-117181380D02*
X141255666Y-117181380D01*
X141160428Y-117229000D01*
X141112809Y-117276619D01*
X141017571Y-117419476D01*
X140969952Y-117609952D01*
X140969952Y-117990904D01*
X141017571Y-118086142D01*
X141065190Y-118133761D01*
X141160428Y-118181380D01*
X141350904Y-118181380D01*
X141446142Y-118133761D01*
X141493761Y-118086142D01*
X141541380Y-117990904D01*
X141541380Y-117752809D01*
X141493761Y-117657571D01*
X141446142Y-117609952D01*
X141350904Y-117562333D01*
X141160428Y-117562333D01*
X141065190Y-117609952D01*
X141017571Y-117657571D01*
X140969952Y-117752809D01*
X141827095Y-117181380D02*
X142160428Y-118181380D01*
X142493761Y-117181380D01*
X135660238Y-120927761D02*
X135803095Y-120975380D01*
X136041190Y-120975380D01*
X136136428Y-120927761D01*
X136184047Y-120880142D01*
X136231666Y-120784904D01*
X136231666Y-120689666D01*
X136184047Y-120594428D01*
X136136428Y-120546809D01*
X136041190Y-120499190D01*
X135850714Y-120451571D01*
X135755476Y-120403952D01*
X135707857Y-120356333D01*
X135660238Y-120261095D01*
X135660238Y-120165857D01*
X135707857Y-120070619D01*
X135755476Y-120023000D01*
X135850714Y-119975380D01*
X136088809Y-119975380D01*
X136231666Y-120023000D01*
X136660238Y-120975380D02*
X136660238Y-119975380D01*
X137136428Y-120975380D02*
X137136428Y-119975380D01*
X137517380Y-119975380D01*
X137612619Y-120023000D01*
X137660238Y-120070619D01*
X137707857Y-120165857D01*
X137707857Y-120308714D01*
X137660238Y-120403952D01*
X137612619Y-120451571D01*
X137517380Y-120499190D01*
X137136428Y-120499190D01*
X138136428Y-120975380D02*
X138136428Y-119975380D01*
X138469761Y-120689666D01*
X138803095Y-119975380D01*
X138803095Y-120975380D01*
X139041190Y-121070619D02*
X139803095Y-121070619D01*
X140231666Y-119975380D02*
X140422142Y-119975380D01*
X140517380Y-120023000D01*
X140612619Y-120118238D01*
X140660238Y-120308714D01*
X140660238Y-120642047D01*
X140612619Y-120832523D01*
X140517380Y-120927761D01*
X140422142Y-120975380D01*
X140231666Y-120975380D01*
X140136428Y-120927761D01*
X140041190Y-120832523D01*
X139993571Y-120642047D01*
X139993571Y-120308714D01*
X140041190Y-120118238D01*
X140136428Y-120023000D01*
X140231666Y-119975380D01*
X141088809Y-119975380D02*
X141088809Y-120784904D01*
X141136428Y-120880142D01*
X141184047Y-120927761D01*
X141279285Y-120975380D01*
X141469761Y-120975380D01*
X141565000Y-120927761D01*
X141612619Y-120880142D01*
X141660238Y-120784904D01*
X141660238Y-119975380D01*
X141993571Y-119975380D02*
X142565000Y-119975380D01*
X142279285Y-120975380D02*
X142279285Y-119975380D01*
X131445000Y-99695000D02*
X131445000Y-99695000D01*
X111379000Y-145542000D02*
X111379000Y-144780000D01*
X95377000Y-145542000D02*
X111379000Y-145542000D01*
X131211571Y-145331571D02*
X130497285Y-145331571D01*
X130497285Y-143831571D01*
X132354428Y-145331571D02*
X132354428Y-144545857D01*
X132283000Y-144403000D01*
X132140142Y-144331571D01*
X131854428Y-144331571D01*
X131711571Y-144403000D01*
X132354428Y-145260142D02*
X132211571Y-145331571D01*
X131854428Y-145331571D01*
X131711571Y-145260142D01*
X131640142Y-145117285D01*
X131640142Y-144974428D01*
X131711571Y-144831571D01*
X131854428Y-144760142D01*
X132211571Y-144760142D01*
X132354428Y-144688714D01*
X133068714Y-144331571D02*
X133068714Y-145331571D01*
X133068714Y-144474428D02*
X133140142Y-144403000D01*
X133283000Y-144331571D01*
X133497285Y-144331571D01*
X133640142Y-144403000D01*
X133711571Y-144545857D01*
X133711571Y-145331571D01*
X135068714Y-145331571D02*
X135068714Y-144545857D01*
X134997285Y-144403000D01*
X134854428Y-144331571D01*
X134568714Y-144331571D01*
X134425857Y-144403000D01*
X135068714Y-145260142D02*
X134925857Y-145331571D01*
X134568714Y-145331571D01*
X134425857Y-145260142D01*
X134354428Y-145117285D01*
X134354428Y-144974428D01*
X134425857Y-144831571D01*
X134568714Y-144760142D01*
X134925857Y-144760142D01*
X135068714Y-144688714D01*
X136711571Y-143831571D02*
X137568714Y-143831571D01*
X137140142Y-145331571D02*
X137140142Y-143831571D01*
X138283000Y-145331571D02*
X138140142Y-145260142D01*
X138068714Y-145188714D01*
X137997285Y-145045857D01*
X137997285Y-144617285D01*
X138068714Y-144474428D01*
X138140142Y-144403000D01*
X138283000Y-144331571D01*
X138497285Y-144331571D01*
X138640142Y-144403000D01*
X138711571Y-144474428D01*
X138783000Y-144617285D01*
X138783000Y-145045857D01*
X138711571Y-145188714D01*
X138640142Y-145260142D01*
X138497285Y-145331571D01*
X138283000Y-145331571D01*
X139425857Y-145331571D02*
X139425857Y-144331571D01*
X139425857Y-144474428D02*
X139497285Y-144403000D01*
X139640142Y-144331571D01*
X139854428Y-144331571D01*
X139997285Y-144403000D01*
X140068714Y-144545857D01*
X140068714Y-145331571D01*
X140068714Y-144545857D02*
X140140142Y-144403000D01*
X140283000Y-144331571D01*
X140497285Y-144331571D01*
X140640142Y-144403000D01*
X140711571Y-144545857D01*
X140711571Y-145331571D01*
X141640142Y-145331571D02*
X141497285Y-145260142D01*
X141425857Y-145117285D01*
X141425857Y-143831571D01*
X142211571Y-145331571D02*
X142211571Y-144331571D01*
X142211571Y-143831571D02*
X142140142Y-143903000D01*
X142211571Y-143974428D01*
X142283000Y-143903000D01*
X142211571Y-143831571D01*
X142211571Y-143974428D01*
X142925857Y-144331571D02*
X142925857Y-145331571D01*
X142925857Y-144474428D02*
X142997285Y-144403000D01*
X143140142Y-144331571D01*
X143354428Y-144331571D01*
X143497285Y-144403000D01*
X143568714Y-144545857D01*
X143568714Y-145331571D01*
D11*
X114396142Y-125152476D02*
X114396142Y-123902476D01*
X114872333Y-123902476D01*
X114991380Y-123962000D01*
X115050904Y-124021523D01*
X115110428Y-124140571D01*
X115110428Y-124319142D01*
X115050904Y-124438190D01*
X114991380Y-124497714D01*
X114872333Y-124557238D01*
X114396142Y-124557238D01*
X115646142Y-124497714D02*
X116062809Y-124497714D01*
X116241380Y-125152476D02*
X115646142Y-125152476D01*
X115646142Y-123902476D01*
X116241380Y-123902476D01*
X116717571Y-124795333D02*
X117312809Y-124795333D01*
X116598523Y-125152476D02*
X117015190Y-123902476D01*
X117431857Y-125152476D01*
X117848523Y-125152476D02*
X117848523Y-123902476D01*
X118562809Y-125152476D02*
X118027095Y-124438190D01*
X118562809Y-123902476D02*
X117848523Y-124616761D01*
X120050904Y-125152476D02*
X120050904Y-123902476D01*
X120348523Y-123902476D01*
X120527095Y-123962000D01*
X120646142Y-124081047D01*
X120705666Y-124200095D01*
X120765190Y-124438190D01*
X120765190Y-124616761D01*
X120705666Y-124854857D01*
X120646142Y-124973904D01*
X120527095Y-125092952D01*
X120348523Y-125152476D01*
X120050904Y-125152476D01*
X121300904Y-124497714D02*
X121717571Y-124497714D01*
X121896142Y-125152476D02*
X121300904Y-125152476D01*
X121300904Y-123902476D01*
X121896142Y-123902476D01*
X122253285Y-123902476D02*
X122967571Y-123902476D01*
X122610428Y-125152476D02*
X122610428Y-123902476D01*
X123384238Y-124497714D02*
X123800904Y-124497714D01*
X123979476Y-125152476D02*
X123384238Y-125152476D01*
X123384238Y-123902476D01*
X123979476Y-123902476D01*
X125229476Y-125033428D02*
X125169952Y-125092952D01*
X124991380Y-125152476D01*
X124872333Y-125152476D01*
X124693761Y-125092952D01*
X124574714Y-124973904D01*
X124515190Y-124854857D01*
X124455666Y-124616761D01*
X124455666Y-124438190D01*
X124515190Y-124200095D01*
X124574714Y-124081047D01*
X124693761Y-123962000D01*
X124872333Y-123902476D01*
X124991380Y-123902476D01*
X125169952Y-123962000D01*
X125229476Y-124021523D01*
X125586619Y-123902476D02*
X126300904Y-123902476D01*
X125943761Y-125152476D02*
X125943761Y-123902476D01*
X126955666Y-123902476D02*
X127193761Y-123902476D01*
X127312809Y-123962000D01*
X127431857Y-124081047D01*
X127491380Y-124319142D01*
X127491380Y-124735809D01*
X127431857Y-124973904D01*
X127312809Y-125092952D01*
X127193761Y-125152476D01*
X126955666Y-125152476D01*
X126836619Y-125092952D01*
X126717571Y-124973904D01*
X126658047Y-124735809D01*
X126658047Y-124319142D01*
X126717571Y-124081047D01*
X126836619Y-123962000D01*
X126955666Y-123902476D01*
X128741380Y-125152476D02*
X128324714Y-124557238D01*
X128027095Y-125152476D02*
X128027095Y-123902476D01*
X128503285Y-123902476D01*
X128622333Y-123962000D01*
X128681857Y-124021523D01*
X128741380Y-124140571D01*
X128741380Y-124319142D01*
X128681857Y-124438190D01*
X128622333Y-124497714D01*
X128503285Y-124557238D01*
X128027095Y-124557238D01*
X83995095Y-127801666D02*
X84471285Y-127801666D01*
X83899857Y-128087380D02*
X84233190Y-127087380D01*
X84566523Y-128087380D01*
X84899857Y-128087380D02*
X84899857Y-127087380D01*
X85233190Y-127801666D01*
X85566523Y-127087380D01*
X85566523Y-128087380D01*
X86042714Y-128087380D02*
X86042714Y-127087380D01*
X86423666Y-127087380D01*
X86518904Y-127135000D01*
X86566523Y-127182619D01*
X86614142Y-127277857D01*
X86614142Y-127420714D01*
X86566523Y-127515952D01*
X86518904Y-127563571D01*
X86423666Y-127611190D01*
X86042714Y-127611190D01*
X87042714Y-127706428D02*
X87804619Y-127706428D01*
X88614142Y-127563571D02*
X88280809Y-127563571D01*
X88280809Y-128087380D02*
X88280809Y-127087380D01*
X88757000Y-127087380D01*
X89137952Y-127563571D02*
X89471285Y-127563571D01*
X89614142Y-128087380D02*
X89137952Y-128087380D01*
X89137952Y-127087380D01*
X89614142Y-127087380D01*
X90042714Y-127563571D02*
X90376047Y-127563571D01*
X90518904Y-128087380D02*
X90042714Y-128087380D01*
X90042714Y-127087380D01*
X90518904Y-127087380D01*
X90947476Y-128087380D02*
X90947476Y-127087380D01*
X91185571Y-127087380D01*
X91328428Y-127135000D01*
X91423666Y-127230238D01*
X91471285Y-127325476D01*
X91518904Y-127515952D01*
X91518904Y-127658809D01*
X91471285Y-127849285D01*
X91423666Y-127944523D01*
X91328428Y-128039761D01*
X91185571Y-128087380D01*
X90947476Y-128087380D01*
D10*
X95377000Y-135509000D02*
X95377000Y-136144000D01*
X111379000Y-135509000D02*
X95377000Y-135509000D01*
D11*
X103505000Y-140589000D02*
X95377000Y-140589000D01*
X104378476Y-147010380D02*
X103902285Y-147010380D01*
X103902285Y-146010380D01*
X104854666Y-147010380D02*
X104759428Y-146962761D01*
X104711809Y-146915142D01*
X104664190Y-146819904D01*
X104664190Y-146534190D01*
X104711809Y-146438952D01*
X104759428Y-146391333D01*
X104854666Y-146343714D01*
X104997523Y-146343714D01*
X105092761Y-146391333D01*
X105140380Y-146438952D01*
X105188000Y-146534190D01*
X105188000Y-146819904D01*
X105140380Y-146915142D01*
X105092761Y-146962761D01*
X104997523Y-147010380D01*
X104854666Y-147010380D01*
X105521333Y-146343714D02*
X105711809Y-147010380D01*
X105902285Y-146534190D01*
X106092761Y-147010380D01*
X106283238Y-146343714D01*
X107426095Y-147010380D02*
X107426095Y-146010380D01*
X107807047Y-146010380D01*
X107902285Y-146058000D01*
X107949904Y-146105619D01*
X107997523Y-146200857D01*
X107997523Y-146343714D01*
X107949904Y-146438952D01*
X107902285Y-146486571D01*
X107807047Y-146534190D01*
X107426095Y-146534190D01*
X108854666Y-147010380D02*
X108854666Y-146486571D01*
X108807047Y-146391333D01*
X108711809Y-146343714D01*
X108521333Y-146343714D01*
X108426095Y-146391333D01*
X108854666Y-146962761D02*
X108759428Y-147010380D01*
X108521333Y-147010380D01*
X108426095Y-146962761D01*
X108378476Y-146867523D01*
X108378476Y-146772285D01*
X108426095Y-146677047D01*
X108521333Y-146629428D01*
X108759428Y-146629428D01*
X108854666Y-146581809D01*
X109283238Y-146962761D02*
X109378476Y-147010380D01*
X109568952Y-147010380D01*
X109664190Y-146962761D01*
X109711809Y-146867523D01*
X109711809Y-146819904D01*
X109664190Y-146724666D01*
X109568952Y-146677047D01*
X109426095Y-146677047D01*
X109330857Y-146629428D01*
X109283238Y-146534190D01*
X109283238Y-146486571D01*
X109330857Y-146391333D01*
X109426095Y-146343714D01*
X109568952Y-146343714D01*
X109664190Y-146391333D01*
X110092761Y-146962761D02*
X110188000Y-147010380D01*
X110378476Y-147010380D01*
X110473714Y-146962761D01*
X110521333Y-146867523D01*
X110521333Y-146819904D01*
X110473714Y-146724666D01*
X110378476Y-146677047D01*
X110235619Y-146677047D01*
X110140380Y-146629428D01*
X110092761Y-146534190D01*
X110092761Y-146486571D01*
X110140380Y-146391333D01*
X110235619Y-146343714D01*
X110378476Y-146343714D01*
X110473714Y-146391333D01*
X95996571Y-146883380D02*
X95996571Y-145883380D01*
X95996571Y-146359571D02*
X96568000Y-146359571D01*
X96568000Y-146883380D02*
X96568000Y-145883380D01*
X97044190Y-146883380D02*
X97044190Y-146216714D01*
X97044190Y-145883380D02*
X96996571Y-145931000D01*
X97044190Y-145978619D01*
X97091809Y-145931000D01*
X97044190Y-145883380D01*
X97044190Y-145978619D01*
X97948952Y-146216714D02*
X97948952Y-147026238D01*
X97901333Y-147121476D01*
X97853714Y-147169095D01*
X97758476Y-147216714D01*
X97615619Y-147216714D01*
X97520380Y-147169095D01*
X97948952Y-146835761D02*
X97853714Y-146883380D01*
X97663238Y-146883380D01*
X97568000Y-146835761D01*
X97520380Y-146788142D01*
X97472761Y-146692904D01*
X97472761Y-146407190D01*
X97520380Y-146311952D01*
X97568000Y-146264333D01*
X97663238Y-146216714D01*
X97853714Y-146216714D01*
X97948952Y-146264333D01*
X98425142Y-146883380D02*
X98425142Y-145883380D01*
X98853714Y-146883380D02*
X98853714Y-146359571D01*
X98806095Y-146264333D01*
X98710857Y-146216714D01*
X98568000Y-146216714D01*
X98472761Y-146264333D01*
X98425142Y-146311952D01*
X100091809Y-146883380D02*
X100091809Y-145883380D01*
X100472761Y-145883380D01*
X100568000Y-145931000D01*
X100615619Y-145978619D01*
X100663238Y-146073857D01*
X100663238Y-146216714D01*
X100615619Y-146311952D01*
X100568000Y-146359571D01*
X100472761Y-146407190D01*
X100091809Y-146407190D01*
X101520380Y-146883380D02*
X101520380Y-146359571D01*
X101472761Y-146264333D01*
X101377523Y-146216714D01*
X101187047Y-146216714D01*
X101091809Y-146264333D01*
X101520380Y-146835761D02*
X101425142Y-146883380D01*
X101187047Y-146883380D01*
X101091809Y-146835761D01*
X101044190Y-146740523D01*
X101044190Y-146645285D01*
X101091809Y-146550047D01*
X101187047Y-146502428D01*
X101425142Y-146502428D01*
X101520380Y-146454809D01*
X101948952Y-146835761D02*
X102044190Y-146883380D01*
X102234666Y-146883380D01*
X102329904Y-146835761D01*
X102377523Y-146740523D01*
X102377523Y-146692904D01*
X102329904Y-146597666D01*
X102234666Y-146550047D01*
X102091809Y-146550047D01*
X101996571Y-146502428D01*
X101948952Y-146407190D01*
X101948952Y-146359571D01*
X101996571Y-146264333D01*
X102091809Y-146216714D01*
X102234666Y-146216714D01*
X102329904Y-146264333D01*
X102758476Y-146835761D02*
X102853714Y-146883380D01*
X103044190Y-146883380D01*
X103139428Y-146835761D01*
X103187047Y-146740523D01*
X103187047Y-146692904D01*
X103139428Y-146597666D01*
X103044190Y-146550047D01*
X102901333Y-146550047D01*
X102806095Y-146502428D01*
X102758476Y-146407190D01*
X102758476Y-146359571D01*
X102806095Y-146264333D01*
X102901333Y-146216714D01*
X103044190Y-146216714D01*
X103139428Y-146264333D01*
D10*
X84963000Y-128397000D02*
X84963000Y-133477000D01*
X100330000Y-128397000D02*
X100330000Y-124333000D01*
X100330000Y-124333000D02*
X92202000Y-124333000D01*
X92202000Y-124333000D02*
X92202000Y-128397000D01*
D11*
X93813380Y-118839666D02*
X93813380Y-118268238D01*
X94813380Y-118553952D02*
X93813380Y-118553952D01*
X94813380Y-117363476D02*
X94337190Y-117696809D01*
X94813380Y-117934904D02*
X93813380Y-117934904D01*
X93813380Y-117553952D01*
X93861000Y-117458714D01*
X93908619Y-117411095D01*
X94003857Y-117363476D01*
X94146714Y-117363476D01*
X94241952Y-117411095D01*
X94289571Y-117458714D01*
X94337190Y-117553952D01*
X94337190Y-117934904D01*
X94527666Y-116982523D02*
X94527666Y-116506333D01*
X94813380Y-117077761D02*
X93813380Y-116744428D01*
X94813380Y-116411095D01*
X94813380Y-116077761D02*
X93813380Y-116077761D01*
X94813380Y-115506333D01*
X93813380Y-115506333D01*
X94765761Y-115077761D02*
X94813380Y-114934904D01*
X94813380Y-114696809D01*
X94765761Y-114601571D01*
X94718142Y-114553952D01*
X94622904Y-114506333D01*
X94527666Y-114506333D01*
X94432428Y-114553952D01*
X94384809Y-114601571D01*
X94337190Y-114696809D01*
X94289571Y-114887285D01*
X94241952Y-114982523D01*
X94194333Y-115030142D01*
X94099095Y-115077761D01*
X94003857Y-115077761D01*
X93908619Y-115030142D01*
X93861000Y-114982523D01*
X93813380Y-114887285D01*
X93813380Y-114649190D01*
X93861000Y-114506333D01*
X94432428Y-114077761D02*
X94432428Y-113315857D01*
X94289571Y-112506333D02*
X94289571Y-112839666D01*
X94813380Y-112839666D02*
X93813380Y-112839666D01*
X93813380Y-112363476D01*
X94289571Y-111982523D02*
X94289571Y-111649190D01*
X94813380Y-111506333D02*
X94813380Y-111982523D01*
X93813380Y-111982523D01*
X93813380Y-111506333D01*
X94289571Y-111077761D02*
X94289571Y-110744428D01*
X94813380Y-110601571D02*
X94813380Y-111077761D01*
X93813380Y-111077761D01*
X93813380Y-110601571D01*
X94813380Y-110173000D02*
X93813380Y-110173000D01*
X93813380Y-109934904D01*
X93861000Y-109792047D01*
X93956238Y-109696809D01*
X94051476Y-109649190D01*
X94241952Y-109601571D01*
X94384809Y-109601571D01*
X94575285Y-109649190D01*
X94670523Y-109696809D01*
X94765761Y-109792047D01*
X94813380Y-109934904D01*
X94813380Y-110173000D01*
X111379000Y-140589000D02*
X103505000Y-140589000D01*
D10*
X103505000Y-135509000D02*
X103505000Y-145415000D01*
X95377000Y-145542000D02*
X95377000Y-136017000D01*
X111379000Y-135509000D02*
X111379000Y-144780000D01*
X95123000Y-115951000D02*
X101092000Y-115951000D01*
D11*
X92710000Y-133477000D02*
X92710000Y-128397000D01*
D10*
X136779000Y-125349000D02*
X114300000Y-125349000D01*
X100330000Y-128397000D02*
X84963000Y-128397000D01*
X100330000Y-133477000D02*
X100330000Y-128397000D01*
X101219000Y-103632000D02*
X95123000Y-103632000D01*
X101219000Y-123952000D02*
X101219000Y-103632000D01*
D12*
%TO.C,TP2*%
X102683000Y-118805000D02*
X105343000Y-118805000D01*
X102683000Y-118745000D02*
X102683000Y-118805000D01*
X105343000Y-118745000D02*
X105343000Y-118805000D01*
X102683000Y-118745000D02*
X105343000Y-118745000D01*
X102683000Y-117475000D02*
X102683000Y-116145000D01*
X102683000Y-116145000D02*
X104013000Y-116145000D01*
%TO.C,U1*%
X109093000Y-125475000D02*
X106218000Y-125475000D01*
X109093000Y-125475000D02*
X110593000Y-125475000D01*
X109093000Y-129795000D02*
X107593000Y-129795000D01*
X109093000Y-129795000D02*
X110593000Y-129795000D01*
%TO.C,R1*%
X106351000Y-122308252D02*
X106351000Y-121785748D01*
X107771000Y-122308252D02*
X107771000Y-121785748D01*
%TO.C,TP15*%
X112335000Y-140395000D02*
X114995000Y-140395000D01*
X112335000Y-140335000D02*
X112335000Y-140395000D01*
X114995000Y-140335000D02*
X114995000Y-140395000D01*
X112335000Y-140335000D02*
X114995000Y-140335000D01*
X112335000Y-139065000D02*
X112335000Y-137735000D01*
X112335000Y-137735000D02*
X113665000Y-137735000D01*
%TO.C,R26*%
X98468000Y-126236252D02*
X98468000Y-125713748D01*
X99888000Y-126236252D02*
X99888000Y-125713748D01*
%TO.C,R34*%
X96722000Y-125722748D02*
X96722000Y-126245252D01*
X95302000Y-125722748D02*
X95302000Y-126245252D01*
%TO.C,JP1*%
X120837000Y-118431000D02*
X118177000Y-118431000D01*
X120837000Y-121031000D02*
X120837000Y-118431000D01*
X118177000Y-121031000D02*
X118177000Y-118431000D01*
X120837000Y-121031000D02*
X118177000Y-121031000D01*
X120837000Y-122301000D02*
X120837000Y-123631000D01*
X120837000Y-123631000D02*
X119507000Y-123631000D01*
%TO.C,R39*%
X134695000Y-127881748D02*
X134695000Y-128404252D01*
X133275000Y-127881748D02*
X133275000Y-128404252D01*
%TO.C,C32*%
X97788252Y-137362000D02*
X97265748Y-137362000D01*
X97788252Y-135942000D02*
X97265748Y-135942000D01*
%TO.C,C27*%
X128345000Y-120397748D02*
X128345000Y-120920252D01*
X126925000Y-120397748D02*
X126925000Y-120920252D01*
%TO.C,C37*%
X123519000Y-127881748D02*
X123519000Y-128404252D01*
X122099000Y-127881748D02*
X122099000Y-128404252D01*
%TO.C,R42*%
X125170000Y-120252748D02*
X125170000Y-120775252D01*
X123750000Y-120252748D02*
X123750000Y-120775252D01*
%TO.C,D2*%
X120357000Y-126497000D02*
X120357000Y-129647000D01*
X118657000Y-126497000D02*
X118657000Y-129647000D01*
X120357000Y-126497000D02*
X118657000Y-126497000D01*
%TO.C,TP1*%
X110811000Y-116145000D02*
X110811000Y-118805000D01*
X110871000Y-116145000D02*
X110811000Y-116145000D01*
X110871000Y-118805000D02*
X110811000Y-118805000D01*
X110871000Y-116145000D02*
X110871000Y-118805000D01*
X112141000Y-116145000D02*
X113471000Y-116145000D01*
X113471000Y-116145000D02*
X113471000Y-117475000D01*
%TO.C,JP5*%
X87760500Y-120018500D02*
X87760500Y-122678500D01*
X90360500Y-120018500D02*
X87760500Y-120018500D01*
X90360500Y-122678500D02*
X87760500Y-122678500D01*
X90360500Y-120018500D02*
X90360500Y-122678500D01*
X91630500Y-120018500D02*
X92960500Y-120018500D01*
X92960500Y-120018500D02*
X92960500Y-121348500D01*
%TO.C,R40*%
X98417748Y-108637000D02*
X98940252Y-108637000D01*
X98417748Y-110057000D02*
X98940252Y-110057000D01*
%TO.C,R36*%
X90730000Y-130953252D02*
X90730000Y-130430748D01*
X92150000Y-130953252D02*
X92150000Y-130430748D01*
%TO.C,R35*%
X86920000Y-130953252D02*
X86920000Y-130430748D01*
X88340000Y-130953252D02*
X88340000Y-130430748D01*
%TO.C,R33*%
X106043252Y-143816000D02*
X105520748Y-143816000D01*
X106043252Y-145236000D02*
X105520748Y-145236000D01*
%TO.C,R32*%
X100255000Y-143390252D02*
X100255000Y-142867748D01*
X101675000Y-143390252D02*
X101675000Y-142867748D01*
%TO.C,R31*%
X98417748Y-112574000D02*
X98940252Y-112574000D01*
X98417748Y-113994000D02*
X98940252Y-113994000D01*
%TO.C,R30*%
X127379800Y-127881748D02*
X127379800Y-128404252D01*
X125959800Y-127881748D02*
X125959800Y-128404252D01*
%TO.C,R27*%
X98350000Y-130953252D02*
X98350000Y-130430748D01*
X99770000Y-130953252D02*
X99770000Y-130430748D01*
%TO.C,R25*%
X106188252Y-137108000D02*
X105665748Y-137108000D01*
X106188252Y-135688000D02*
X105665748Y-135688000D01*
%TO.C,R24*%
X101675000Y-137397748D02*
X101675000Y-137920252D01*
X100255000Y-137397748D02*
X100255000Y-137920252D01*
%TO.C,R17*%
X98662748Y-120829000D02*
X99185252Y-120829000D01*
X98662748Y-122249000D02*
X99185252Y-122249000D01*
%TO.C,R16*%
X98417748Y-104954000D02*
X98940252Y-104954000D01*
X98417748Y-106374000D02*
X98940252Y-106374000D01*
%TO.C,D6*%
X117182000Y-126517000D02*
X115482000Y-126517000D01*
X115482000Y-126517000D02*
X115482000Y-129667000D01*
X117182000Y-126517000D02*
X117182000Y-129667000D01*
%TO.C,C39*%
X102287000Y-126635252D02*
X102287000Y-126112748D01*
X103707000Y-126635252D02*
X103707000Y-126112748D01*
%TO.C,C36*%
X94540000Y-130953252D02*
X94540000Y-130430748D01*
X95960000Y-130953252D02*
X95960000Y-130430748D01*
%TO.C,C33*%
X109272000Y-138174252D02*
X109272000Y-137651748D01*
X110692000Y-138174252D02*
X110692000Y-137651748D01*
%TO.C,C31*%
X98417748Y-116892000D02*
X98940252Y-116892000D01*
X98417748Y-118312000D02*
X98940252Y-118312000D01*
%TO.C,C19*%
X131139000Y-127881748D02*
X131139000Y-128404252D01*
X129719000Y-127881748D02*
X129719000Y-128404252D01*
%TO.C,C18*%
X109272000Y-143375748D02*
X109272000Y-143898252D01*
X110692000Y-143375748D02*
X110692000Y-143898252D01*
%TO.C,C17*%
X97788252Y-144728000D02*
X97265748Y-144728000D01*
X97788252Y-143308000D02*
X97265748Y-143308000D01*
%TO.C,J3*%
X102873500Y-97349000D02*
X102873500Y-100009000D01*
X110553500Y-97349000D02*
X102873500Y-97349000D01*
X110553500Y-100009000D02*
X102873500Y-100009000D01*
X110553500Y-97349000D02*
X110553500Y-100009000D01*
X111823500Y-97349000D02*
X113153500Y-97349000D01*
X113153500Y-97349000D02*
X113153500Y-98679000D01*
%TO.C,J2*%
X145983000Y-116145000D02*
X143323000Y-116145000D01*
X145983000Y-118745000D02*
X145983000Y-116145000D01*
X143323000Y-118745000D02*
X143323000Y-116145000D01*
X145983000Y-118745000D02*
X143323000Y-118745000D01*
X145983000Y-120015000D02*
X145983000Y-121345000D01*
X145983000Y-121345000D02*
X144653000Y-121345000D01*
%TO.C,J1*%
X143323000Y-111693000D02*
X145983000Y-111693000D01*
X143323000Y-109093000D02*
X143323000Y-111693000D01*
X145983000Y-109093000D02*
X145983000Y-111693000D01*
X143323000Y-109093000D02*
X145983000Y-109093000D01*
X143323000Y-107823000D02*
X143323000Y-106493000D01*
X143323000Y-106493000D02*
X144653000Y-106493000D01*
D13*
%TO.C,G\u002A\u002A\u002A*%
G36*
X123848736Y-133014442D02*
G01*
X123880531Y-133065919D01*
X123929171Y-133148171D01*
X123993005Y-133258305D01*
X124070384Y-133393429D01*
X124159658Y-133550650D01*
X124259177Y-133727075D01*
X124367290Y-133919813D01*
X124482348Y-134125971D01*
X124582134Y-134305554D01*
X124701867Y-134521413D01*
X124815922Y-134726941D01*
X124922648Y-134919168D01*
X125020393Y-135095123D01*
X125107506Y-135251837D01*
X125182335Y-135386340D01*
X125243229Y-135495662D01*
X125288537Y-135576833D01*
X125316608Y-135626885D01*
X125325590Y-135642597D01*
X125338257Y-135646807D01*
X125367807Y-135641857D01*
X125417304Y-135626563D01*
X125489814Y-135599743D01*
X125588402Y-135560213D01*
X125716135Y-135506790D01*
X125876078Y-135438291D01*
X126046739Y-135364237D01*
X126207035Y-135294880D01*
X126355205Y-135231713D01*
X126486935Y-135176504D01*
X126597910Y-135131022D01*
X126683814Y-135097034D01*
X126740331Y-135076306D01*
X126763147Y-135070608D01*
X126763294Y-135070714D01*
X126763236Y-135092926D01*
X126759381Y-135153765D01*
X126751987Y-135250310D01*
X126741314Y-135379644D01*
X126727620Y-135538848D01*
X126711162Y-135725002D01*
X126692200Y-135935189D01*
X126670992Y-136166490D01*
X126647797Y-136415985D01*
X126622873Y-136680756D01*
X126596479Y-136957885D01*
X126592060Y-137003973D01*
X126565411Y-137282730D01*
X126540103Y-137549525D01*
X126516399Y-137801445D01*
X126494566Y-138035582D01*
X126474869Y-138249025D01*
X126457571Y-138438863D01*
X126442937Y-138602187D01*
X126431234Y-138736087D01*
X126422725Y-138837651D01*
X126417675Y-138903970D01*
X126416350Y-138932134D01*
X126416508Y-138932912D01*
X126433240Y-138921040D01*
X126478336Y-138883779D01*
X126549023Y-138823543D01*
X126642530Y-138742745D01*
X126756084Y-138643801D01*
X126886914Y-138529124D01*
X127032247Y-138401127D01*
X127189313Y-138262225D01*
X127328224Y-138138941D01*
X127493319Y-137992442D01*
X127649251Y-137854569D01*
X127793214Y-137727771D01*
X127922399Y-137614495D01*
X128034001Y-137517191D01*
X128125213Y-137438306D01*
X128193228Y-137380291D01*
X128235239Y-137345593D01*
X128248347Y-137336255D01*
X128254720Y-137340928D01*
X128264511Y-137357260D01*
X128279077Y-137388721D01*
X128299777Y-137438780D01*
X128327968Y-137510908D01*
X128365007Y-137608574D01*
X128412253Y-137735248D01*
X128471061Y-137894400D01*
X128538968Y-138079088D01*
X128600971Y-138247968D01*
X128423118Y-138453143D01*
X128193651Y-138724579D01*
X127952969Y-139021765D01*
X127704449Y-139339874D01*
X127451465Y-139674075D01*
X127197395Y-140019541D01*
X126945614Y-140371443D01*
X126699499Y-140724951D01*
X126462424Y-141075238D01*
X126237768Y-141417473D01*
X126028904Y-141746829D01*
X125839210Y-142058477D01*
X125672061Y-142347588D01*
X125571098Y-142532428D01*
X125457754Y-142745928D01*
X125388906Y-142645860D01*
X125257659Y-142440829D01*
X125121660Y-142201876D01*
X124984181Y-141936043D01*
X124848492Y-141650372D01*
X124717862Y-141351906D01*
X124595563Y-141047687D01*
X124484865Y-140744756D01*
X124430257Y-140581695D01*
X124331786Y-140260682D01*
X124233221Y-139908028D01*
X124137049Y-139533757D01*
X124045753Y-139147890D01*
X123961819Y-138760449D01*
X123896519Y-138428834D01*
X123837384Y-138112620D01*
X123729937Y-138647979D01*
X123611198Y-139205487D01*
X123486114Y-139724758D01*
X123353559Y-140208969D01*
X123212409Y-140661299D01*
X123061537Y-141084924D01*
X122899819Y-141483022D01*
X122726129Y-141858770D01*
X122539343Y-142215346D01*
X122356209Y-142527186D01*
X122306346Y-142606411D01*
X122263723Y-142671647D01*
X122233507Y-142715136D01*
X122221777Y-142729032D01*
X122206286Y-142715985D01*
X122177449Y-142673099D01*
X122140172Y-142608076D01*
X122118355Y-142566655D01*
X121997046Y-142340624D01*
X121851215Y-142087424D01*
X121683824Y-141811301D01*
X121497836Y-141516502D01*
X121296215Y-141207272D01*
X121081924Y-140887859D01*
X120857926Y-140562507D01*
X120627184Y-140235463D01*
X120392662Y-139910975D01*
X120157322Y-139593286D01*
X119924129Y-139286645D01*
X119696044Y-138995297D01*
X119476032Y-138723488D01*
X119267055Y-138475464D01*
X119247754Y-138453143D01*
X119069901Y-138247968D01*
X119131903Y-138079088D01*
X119202979Y-137885798D01*
X119261197Y-137728289D01*
X119307913Y-137603091D01*
X119344482Y-137506738D01*
X119372260Y-137435761D01*
X119392604Y-137386694D01*
X119406867Y-137356067D01*
X119416407Y-137340415D01*
X119422302Y-137336255D01*
X119440568Y-137349740D01*
X119487179Y-137388561D01*
X119559328Y-137450273D01*
X119654208Y-137532428D01*
X119769012Y-137632578D01*
X119900934Y-137748277D01*
X120047168Y-137877077D01*
X120204906Y-138016532D01*
X120342658Y-138138709D01*
X120507500Y-138284854D01*
X120662926Y-138422132D01*
X120806166Y-138548129D01*
X120934447Y-138660432D01*
X121044997Y-138756627D01*
X121135044Y-138834303D01*
X121201817Y-138891044D01*
X121242543Y-138924438D01*
X121254596Y-138932680D01*
X121253878Y-138911138D01*
X121249394Y-138850958D01*
X121241408Y-138755052D01*
X121230186Y-138626328D01*
X121215994Y-138467696D01*
X121199096Y-138282067D01*
X121179757Y-138072349D01*
X121158243Y-137841452D01*
X121134819Y-137592287D01*
X121109750Y-137327763D01*
X121106510Y-137293830D01*
X123077064Y-137293830D01*
X123084690Y-137296056D01*
X123115359Y-137273470D01*
X123162685Y-137230862D01*
X123168809Y-137224989D01*
X123242642Y-137163529D01*
X123334389Y-137100530D01*
X123418016Y-137052905D01*
X123604297Y-136982170D01*
X123793392Y-136951969D01*
X123981177Y-136961674D01*
X124163522Y-137010659D01*
X124336302Y-137098295D01*
X124486176Y-137215234D01*
X124539589Y-137262820D01*
X124577505Y-137291926D01*
X124593665Y-137297923D01*
X124593332Y-137294513D01*
X124585281Y-137269411D01*
X124565937Y-137208030D01*
X124536416Y-137113946D01*
X124497837Y-136990732D01*
X124451317Y-136841964D01*
X124397976Y-136671217D01*
X124338929Y-136482066D01*
X124275296Y-136278086D01*
X124211532Y-136073560D01*
X124144854Y-135859746D01*
X124081902Y-135658115D01*
X124023765Y-135472137D01*
X123971530Y-135305282D01*
X123926286Y-135161022D01*
X123889123Y-135042827D01*
X123861127Y-134954169D01*
X123843389Y-134898517D01*
X123837009Y-134879351D01*
X123830308Y-134897873D01*
X123812299Y-134952826D01*
X123784066Y-135040779D01*
X123746694Y-135158305D01*
X123701267Y-135301972D01*
X123648870Y-135468353D01*
X123590587Y-135654016D01*
X123527502Y-135855534D01*
X123460849Y-136068998D01*
X123393722Y-136284156D01*
X123330107Y-136487870D01*
X123271123Y-136676575D01*
X123217886Y-136846707D01*
X123171514Y-136994699D01*
X123133122Y-137116988D01*
X123103829Y-137210009D01*
X123084751Y-137270196D01*
X123077064Y-137293830D01*
X121106510Y-137293830D01*
X121083302Y-137050790D01*
X121078812Y-137003973D01*
X121052204Y-136725103D01*
X121027029Y-136458113D01*
X121003544Y-136205920D01*
X120982007Y-135971444D01*
X120962678Y-135757604D01*
X120945813Y-135567320D01*
X120931672Y-135403509D01*
X120920512Y-135269092D01*
X120912592Y-135166987D01*
X120908170Y-135100113D01*
X120907504Y-135071390D01*
X120907768Y-135070524D01*
X120929250Y-135075546D01*
X120984591Y-135095651D01*
X121069464Y-135129070D01*
X121179538Y-135174033D01*
X121310484Y-135228772D01*
X121457974Y-135291517D01*
X121617677Y-135360501D01*
X121620978Y-135361937D01*
X121780717Y-135431375D01*
X121928036Y-135495254D01*
X122058642Y-135551727D01*
X122168243Y-135598945D01*
X122252547Y-135635057D01*
X122307262Y-135658216D01*
X122328095Y-135666572D01*
X122328137Y-135666576D01*
X122339160Y-135648787D01*
X122368779Y-135597327D01*
X122415392Y-135515057D01*
X122477401Y-135404837D01*
X122553205Y-135269527D01*
X122641204Y-135111987D01*
X122739798Y-134935080D01*
X122847386Y-134741663D01*
X122962370Y-134534599D01*
X123074939Y-134331564D01*
X123195619Y-134114243D01*
X123310736Y-133907914D01*
X123418660Y-133715442D01*
X123517759Y-133539690D01*
X123606400Y-133383524D01*
X123682952Y-133249808D01*
X123745783Y-133141405D01*
X123793261Y-133061181D01*
X123823755Y-133012000D01*
X123835436Y-132996631D01*
X123848736Y-133014442D01*
G37*
X123848736Y-133014442D02*
X123880531Y-133065919D01*
X123929171Y-133148171D01*
X123993005Y-133258305D01*
X124070384Y-133393429D01*
X124159658Y-133550650D01*
X124259177Y-133727075D01*
X124367290Y-133919813D01*
X124482348Y-134125971D01*
X124582134Y-134305554D01*
X124701867Y-134521413D01*
X124815922Y-134726941D01*
X124922648Y-134919168D01*
X125020393Y-135095123D01*
X125107506Y-135251837D01*
X125182335Y-135386340D01*
X125243229Y-135495662D01*
X125288537Y-135576833D01*
X125316608Y-135626885D01*
X125325590Y-135642597D01*
X125338257Y-135646807D01*
X125367807Y-135641857D01*
X125417304Y-135626563D01*
X125489814Y-135599743D01*
X125588402Y-135560213D01*
X125716135Y-135506790D01*
X125876078Y-135438291D01*
X126046739Y-135364237D01*
X126207035Y-135294880D01*
X126355205Y-135231713D01*
X126486935Y-135176504D01*
X126597910Y-135131022D01*
X126683814Y-135097034D01*
X126740331Y-135076306D01*
X126763147Y-135070608D01*
X126763294Y-135070714D01*
X126763236Y-135092926D01*
X126759381Y-135153765D01*
X126751987Y-135250310D01*
X126741314Y-135379644D01*
X126727620Y-135538848D01*
X126711162Y-135725002D01*
X126692200Y-135935189D01*
X126670992Y-136166490D01*
X126647797Y-136415985D01*
X126622873Y-136680756D01*
X126596479Y-136957885D01*
X126592060Y-137003973D01*
X126565411Y-137282730D01*
X126540103Y-137549525D01*
X126516399Y-137801445D01*
X126494566Y-138035582D01*
X126474869Y-138249025D01*
X126457571Y-138438863D01*
X126442937Y-138602187D01*
X126431234Y-138736087D01*
X126422725Y-138837651D01*
X126417675Y-138903970D01*
X126416350Y-138932134D01*
X126416508Y-138932912D01*
X126433240Y-138921040D01*
X126478336Y-138883779D01*
X126549023Y-138823543D01*
X126642530Y-138742745D01*
X126756084Y-138643801D01*
X126886914Y-138529124D01*
X127032247Y-138401127D01*
X127189313Y-138262225D01*
X127328224Y-138138941D01*
X127493319Y-137992442D01*
X127649251Y-137854569D01*
X127793214Y-137727771D01*
X127922399Y-137614495D01*
X128034001Y-137517191D01*
X128125213Y-137438306D01*
X128193228Y-137380291D01*
X128235239Y-137345593D01*
X128248347Y-137336255D01*
X128254720Y-137340928D01*
X128264511Y-137357260D01*
X128279077Y-137388721D01*
X128299777Y-137438780D01*
X128327968Y-137510908D01*
X128365007Y-137608574D01*
X128412253Y-137735248D01*
X128471061Y-137894400D01*
X128538968Y-138079088D01*
X128600971Y-138247968D01*
X128423118Y-138453143D01*
X128193651Y-138724579D01*
X127952969Y-139021765D01*
X127704449Y-139339874D01*
X127451465Y-139674075D01*
X127197395Y-140019541D01*
X126945614Y-140371443D01*
X126699499Y-140724951D01*
X126462424Y-141075238D01*
X126237768Y-141417473D01*
X126028904Y-141746829D01*
X125839210Y-142058477D01*
X125672061Y-142347588D01*
X125571098Y-142532428D01*
X125457754Y-142745928D01*
X125388906Y-142645860D01*
X125257659Y-142440829D01*
X125121660Y-142201876D01*
X124984181Y-141936043D01*
X124848492Y-141650372D01*
X124717862Y-141351906D01*
X124595563Y-141047687D01*
X124484865Y-140744756D01*
X124430257Y-140581695D01*
X124331786Y-140260682D01*
X124233221Y-139908028D01*
X124137049Y-139533757D01*
X124045753Y-139147890D01*
X123961819Y-138760449D01*
X123896519Y-138428834D01*
X123837384Y-138112620D01*
X123729937Y-138647979D01*
X123611198Y-139205487D01*
X123486114Y-139724758D01*
X123353559Y-140208969D01*
X123212409Y-140661299D01*
X123061537Y-141084924D01*
X122899819Y-141483022D01*
X122726129Y-141858770D01*
X122539343Y-142215346D01*
X122356209Y-142527186D01*
X122306346Y-142606411D01*
X122263723Y-142671647D01*
X122233507Y-142715136D01*
X122221777Y-142729032D01*
X122206286Y-142715985D01*
X122177449Y-142673099D01*
X122140172Y-142608076D01*
X122118355Y-142566655D01*
X121997046Y-142340624D01*
X121851215Y-142087424D01*
X121683824Y-141811301D01*
X121497836Y-141516502D01*
X121296215Y-141207272D01*
X121081924Y-140887859D01*
X120857926Y-140562507D01*
X120627184Y-140235463D01*
X120392662Y-139910975D01*
X120157322Y-139593286D01*
X119924129Y-139286645D01*
X119696044Y-138995297D01*
X119476032Y-138723488D01*
X119267055Y-138475464D01*
X119247754Y-138453143D01*
X119069901Y-138247968D01*
X119131903Y-138079088D01*
X119202979Y-137885798D01*
X119261197Y-137728289D01*
X119307913Y-137603091D01*
X119344482Y-137506738D01*
X119372260Y-137435761D01*
X119392604Y-137386694D01*
X119406867Y-137356067D01*
X119416407Y-137340415D01*
X119422302Y-137336255D01*
X119440568Y-137349740D01*
X119487179Y-137388561D01*
X119559328Y-137450273D01*
X119654208Y-137532428D01*
X119769012Y-137632578D01*
X119900934Y-137748277D01*
X120047168Y-137877077D01*
X120204906Y-138016532D01*
X120342658Y-138138709D01*
X120507500Y-138284854D01*
X120662926Y-138422132D01*
X120806166Y-138548129D01*
X120934447Y-138660432D01*
X121044997Y-138756627D01*
X121135044Y-138834303D01*
X121201817Y-138891044D01*
X121242543Y-138924438D01*
X121254596Y-138932680D01*
X121253878Y-138911138D01*
X121249394Y-138850958D01*
X121241408Y-138755052D01*
X121230186Y-138626328D01*
X121215994Y-138467696D01*
X121199096Y-138282067D01*
X121179757Y-138072349D01*
X121158243Y-137841452D01*
X121134819Y-137592287D01*
X121109750Y-137327763D01*
X121106510Y-137293830D01*
X123077064Y-137293830D01*
X123084690Y-137296056D01*
X123115359Y-137273470D01*
X123162685Y-137230862D01*
X123168809Y-137224989D01*
X123242642Y-137163529D01*
X123334389Y-137100530D01*
X123418016Y-137052905D01*
X123604297Y-136982170D01*
X123793392Y-136951969D01*
X123981177Y-136961674D01*
X124163522Y-137010659D01*
X124336302Y-137098295D01*
X124486176Y-137215234D01*
X124539589Y-137262820D01*
X124577505Y-137291926D01*
X124593665Y-137297923D01*
X124593332Y-137294513D01*
X124585281Y-137269411D01*
X124565937Y-137208030D01*
X124536416Y-137113946D01*
X124497837Y-136990732D01*
X124451317Y-136841964D01*
X124397976Y-136671217D01*
X124338929Y-136482066D01*
X124275296Y-136278086D01*
X124211532Y-136073560D01*
X124144854Y-135859746D01*
X124081902Y-135658115D01*
X124023765Y-135472137D01*
X123971530Y-135305282D01*
X123926286Y-135161022D01*
X123889123Y-135042827D01*
X123861127Y-134954169D01*
X123843389Y-134898517D01*
X123837009Y-134879351D01*
X123830308Y-134897873D01*
X123812299Y-134952826D01*
X123784066Y-135040779D01*
X123746694Y-135158305D01*
X123701267Y-135301972D01*
X123648870Y-135468353D01*
X123590587Y-135654016D01*
X123527502Y-135855534D01*
X123460849Y-136068998D01*
X123393722Y-136284156D01*
X123330107Y-136487870D01*
X123271123Y-136676575D01*
X123217886Y-136846707D01*
X123171514Y-136994699D01*
X123133122Y-137116988D01*
X123103829Y-137210009D01*
X123084751Y-137270196D01*
X123077064Y-137293830D01*
X121106510Y-137293830D01*
X121083302Y-137050790D01*
X121078812Y-137003973D01*
X121052204Y-136725103D01*
X121027029Y-136458113D01*
X121003544Y-136205920D01*
X120982007Y-135971444D01*
X120962678Y-135757604D01*
X120945813Y-135567320D01*
X120931672Y-135403509D01*
X120920512Y-135269092D01*
X120912592Y-135166987D01*
X120908170Y-135100113D01*
X120907504Y-135071390D01*
X120907768Y-135070524D01*
X120929250Y-135075546D01*
X120984591Y-135095651D01*
X121069464Y-135129070D01*
X121179538Y-135174033D01*
X121310484Y-135228772D01*
X121457974Y-135291517D01*
X121617677Y-135360501D01*
X121620978Y-135361937D01*
X121780717Y-135431375D01*
X121928036Y-135495254D01*
X122058642Y-135551727D01*
X122168243Y-135598945D01*
X122252547Y-135635057D01*
X122307262Y-135658216D01*
X122328095Y-135666572D01*
X122328137Y-135666576D01*
X122339160Y-135648787D01*
X122368779Y-135597327D01*
X122415392Y-135515057D01*
X122477401Y-135404837D01*
X122553205Y-135269527D01*
X122641204Y-135111987D01*
X122739798Y-134935080D01*
X122847386Y-134741663D01*
X122962370Y-134534599D01*
X123074939Y-134331564D01*
X123195619Y-134114243D01*
X123310736Y-133907914D01*
X123418660Y-133715442D01*
X123517759Y-133539690D01*
X123606400Y-133383524D01*
X123682952Y-133249808D01*
X123745783Y-133141405D01*
X123793261Y-133061181D01*
X123823755Y-133012000D01*
X123835436Y-132996631D01*
X123848736Y-133014442D01*
G36*
X116629062Y-138101241D02*
G01*
X116687055Y-138111529D01*
X116777987Y-138128415D01*
X116897855Y-138151135D01*
X117042656Y-138178924D01*
X117208388Y-138211019D01*
X117391049Y-138246656D01*
X117586635Y-138285072D01*
X117589991Y-138285733D01*
X117831674Y-138333689D01*
X118035012Y-138374803D01*
X118202728Y-138409693D01*
X118337547Y-138438979D01*
X118442192Y-138463281D01*
X118519389Y-138483218D01*
X118571860Y-138499409D01*
X118602329Y-138512474D01*
X118609735Y-138517630D01*
X118647139Y-138557887D01*
X118704581Y-138628155D01*
X118778723Y-138723860D01*
X118866230Y-138840429D01*
X118963765Y-138973288D01*
X119067992Y-139117865D01*
X119175574Y-139269585D01*
X119283176Y-139423876D01*
X119387461Y-139576164D01*
X119453018Y-139673603D01*
X119762738Y-140150774D01*
X120066186Y-140643964D01*
X120359912Y-141146785D01*
X120640468Y-141652848D01*
X120904405Y-142155763D01*
X121148273Y-142649142D01*
X121368625Y-143126595D01*
X121559966Y-143576683D01*
X121608206Y-143699689D01*
X121660641Y-143840073D01*
X121714811Y-143990573D01*
X121768254Y-144143924D01*
X121818510Y-144292863D01*
X121863119Y-144430127D01*
X121899619Y-144548453D01*
X121925549Y-144640578D01*
X121936683Y-144688645D01*
X121949454Y-144738560D01*
X121962871Y-144765041D01*
X121965739Y-144766329D01*
X121985767Y-144751213D01*
X122028709Y-144708948D01*
X122090412Y-144644162D01*
X122166719Y-144561481D01*
X122253477Y-144465532D01*
X122346531Y-144360942D01*
X122441726Y-144252337D01*
X122534907Y-144144344D01*
X122621920Y-144041589D01*
X122685460Y-143964844D01*
X122880053Y-143719214D01*
X123059248Y-143476228D01*
X123229415Y-143226365D01*
X123396920Y-142960104D01*
X123568131Y-142667925D01*
X123647483Y-142526533D01*
X123706571Y-142422418D01*
X123759515Y-142333671D01*
X123802867Y-142265707D01*
X123833180Y-142223940D01*
X123846771Y-142213468D01*
X123862568Y-142237637D01*
X123893509Y-142290727D01*
X123935085Y-142364833D01*
X123981491Y-142449649D01*
X124212160Y-142857177D01*
X124446570Y-143232356D01*
X124690893Y-143584505D01*
X124951303Y-143922946D01*
X124983694Y-143962796D01*
X125063003Y-144058332D01*
X125151789Y-144162792D01*
X125245910Y-144271558D01*
X125341221Y-144380016D01*
X125433577Y-144483550D01*
X125518834Y-144577544D01*
X125592849Y-144657381D01*
X125651476Y-144718446D01*
X125690572Y-144756124D01*
X125705133Y-144766329D01*
X125717867Y-144748054D01*
X125731306Y-144702730D01*
X125734189Y-144688645D01*
X125750429Y-144621323D01*
X125779111Y-144522273D01*
X125817774Y-144398758D01*
X125863956Y-144258042D01*
X125915198Y-144107387D01*
X125969039Y-143954058D01*
X126023018Y-143805316D01*
X126074674Y-143668426D01*
X126110906Y-143576683D01*
X126300799Y-143130057D01*
X126517238Y-142660865D01*
X126756750Y-142175540D01*
X127015861Y-141680520D01*
X127291099Y-141182240D01*
X127578988Y-140687137D01*
X127876057Y-140201645D01*
X128178831Y-139732201D01*
X128215782Y-139676652D01*
X128315903Y-139528408D01*
X128421573Y-139375066D01*
X128529465Y-139221193D01*
X128636247Y-139071356D01*
X128738590Y-138930122D01*
X128833164Y-138802058D01*
X128916639Y-138691731D01*
X128985687Y-138603707D01*
X129036976Y-138542554D01*
X129060225Y-138518455D01*
X129082277Y-138506553D01*
X129126920Y-138491423D01*
X129196698Y-138472487D01*
X129294156Y-138449167D01*
X129421839Y-138420886D01*
X129582293Y-138387066D01*
X129778062Y-138347129D01*
X130011690Y-138300498D01*
X130079970Y-138287005D01*
X130275830Y-138248483D01*
X130458834Y-138212711D01*
X130624980Y-138180456D01*
X130770267Y-138152484D01*
X130890697Y-138129560D01*
X130982267Y-138112452D01*
X131040978Y-138101925D01*
X131062828Y-138098745D01*
X131062862Y-138098762D01*
X131058630Y-138118856D01*
X131045094Y-138175249D01*
X131023302Y-138263801D01*
X130994307Y-138380372D01*
X130959157Y-138520825D01*
X130918902Y-138681019D01*
X130874594Y-138856816D01*
X130827281Y-139044077D01*
X130778015Y-139238661D01*
X130727844Y-139436432D01*
X130677820Y-139633248D01*
X130628992Y-139824972D01*
X130582411Y-140007463D01*
X130539126Y-140176584D01*
X130500187Y-140328194D01*
X130466645Y-140458155D01*
X130439550Y-140562327D01*
X130419952Y-140636573D01*
X130408900Y-140676751D01*
X130408423Y-140678348D01*
X130413491Y-140694246D01*
X130438391Y-140718408D01*
X130486351Y-140752955D01*
X130560600Y-140800004D01*
X130664365Y-140861675D01*
X130800877Y-140940087D01*
X130847472Y-140966498D01*
X130971127Y-141037048D01*
X131081764Y-141101365D01*
X131174469Y-141156493D01*
X131244325Y-141199476D01*
X131286418Y-141227358D01*
X131296816Y-141236672D01*
X131279682Y-141249903D01*
X131229699Y-141284502D01*
X131149002Y-141339058D01*
X131039723Y-141412165D01*
X130903996Y-141502412D01*
X130743954Y-141608392D01*
X130561729Y-141728695D01*
X130359455Y-141861913D01*
X130139266Y-142006636D01*
X129903293Y-142161458D01*
X129653671Y-142324968D01*
X129392531Y-142495757D01*
X129189088Y-142628637D01*
X128920631Y-142804051D01*
X128662076Y-142973321D01*
X128415558Y-143135033D01*
X128183213Y-143287774D01*
X127967173Y-143430129D01*
X127769573Y-143560684D01*
X127592548Y-143678024D01*
X127438233Y-143780737D01*
X127308760Y-143867406D01*
X127206266Y-143936620D01*
X127132884Y-143986962D01*
X127090748Y-144017020D01*
X127080936Y-144025409D01*
X127086957Y-144049258D01*
X127104317Y-144108530D01*
X127131676Y-144198879D01*
X127167694Y-144315957D01*
X127211032Y-144455418D01*
X127260349Y-144612916D01*
X127314306Y-144784102D01*
X127333734Y-144845486D01*
X127388584Y-145019962D01*
X127438682Y-145181965D01*
X127482763Y-145327205D01*
X127519562Y-145451392D01*
X127547816Y-145550237D01*
X127566260Y-145619451D01*
X127573629Y-145654744D01*
X127573342Y-145658306D01*
X127551076Y-145657873D01*
X127490330Y-145652714D01*
X127394058Y-145643159D01*
X127265213Y-145629540D01*
X127106751Y-145612188D01*
X126921625Y-145591434D01*
X126712790Y-145567610D01*
X126483199Y-145541046D01*
X126235807Y-145512074D01*
X125973568Y-145481025D01*
X125699436Y-145448230D01*
X125697582Y-145448007D01*
X123835436Y-145224093D01*
X122011451Y-145443938D01*
X121739133Y-145476694D01*
X121478019Y-145507974D01*
X121231173Y-145537418D01*
X121001657Y-145564667D01*
X120792536Y-145589361D01*
X120606873Y-145611141D01*
X120447731Y-145629647D01*
X120318175Y-145644519D01*
X120221269Y-145655398D01*
X120160075Y-145661925D01*
X120138279Y-145663782D01*
X120100492Y-145657518D01*
X120089092Y-145646459D01*
X120095205Y-145623386D01*
X120112642Y-145564889D01*
X120140053Y-145475320D01*
X120176091Y-145359026D01*
X120219404Y-145220357D01*
X120268644Y-145063661D01*
X120322461Y-144893288D01*
X120339544Y-144839378D01*
X120394518Y-144665465D01*
X120445312Y-144503690D01*
X120490575Y-144358437D01*
X120528957Y-144234093D01*
X120559104Y-144135043D01*
X120579667Y-144065673D01*
X120589292Y-144030369D01*
X120589846Y-144027078D01*
X120572687Y-144013017D01*
X120522673Y-143977608D01*
X120441939Y-143922270D01*
X120332616Y-143848416D01*
X120196841Y-143757464D01*
X120036747Y-143650830D01*
X119854467Y-143529930D01*
X119652137Y-143396179D01*
X119431889Y-143250995D01*
X119195859Y-143095793D01*
X118946179Y-142931988D01*
X118684985Y-142760998D01*
X118481875Y-142628277D01*
X118213461Y-142452894D01*
X117954952Y-142283733D01*
X117708481Y-142122203D01*
X117476182Y-141969714D01*
X117260187Y-141827673D01*
X117062629Y-141697489D01*
X116885640Y-141580570D01*
X116731354Y-141478324D01*
X116601902Y-141392161D01*
X116499419Y-141323488D01*
X116426037Y-141273715D01*
X116383888Y-141244249D01*
X116374056Y-141236312D01*
X116391464Y-141222146D01*
X116440412Y-141190598D01*
X116515986Y-141144620D01*
X116613270Y-141087163D01*
X116727349Y-141021179D01*
X116823400Y-140966498D01*
X116970102Y-140882788D01*
X117083113Y-140816439D01*
X117165663Y-140765331D01*
X117220980Y-140727346D01*
X117252292Y-140700365D01*
X117262828Y-140682269D01*
X117262449Y-140678348D01*
X117252049Y-140640807D01*
X117233027Y-140568893D01*
X117206433Y-140466745D01*
X117173318Y-140338503D01*
X117134731Y-140188306D01*
X117091722Y-140020295D01*
X117045341Y-139838607D01*
X116996639Y-139647384D01*
X116946664Y-139450765D01*
X116896469Y-139252888D01*
X116847101Y-139057894D01*
X116799612Y-138869923D01*
X116755051Y-138693113D01*
X116714468Y-138531604D01*
X116678914Y-138389536D01*
X116649438Y-138271049D01*
X116627090Y-138180281D01*
X116612921Y-138121373D01*
X116607981Y-138098464D01*
X116608009Y-138098314D01*
X116629062Y-138101241D01*
G37*
X116629062Y-138101241D02*
X116687055Y-138111529D01*
X116777987Y-138128415D01*
X116897855Y-138151135D01*
X117042656Y-138178924D01*
X117208388Y-138211019D01*
X117391049Y-138246656D01*
X117586635Y-138285072D01*
X117589991Y-138285733D01*
X117831674Y-138333689D01*
X118035012Y-138374803D01*
X118202728Y-138409693D01*
X118337547Y-138438979D01*
X118442192Y-138463281D01*
X118519389Y-138483218D01*
X118571860Y-138499409D01*
X118602329Y-138512474D01*
X118609735Y-138517630D01*
X118647139Y-138557887D01*
X118704581Y-138628155D01*
X118778723Y-138723860D01*
X118866230Y-138840429D01*
X118963765Y-138973288D01*
X119067992Y-139117865D01*
X119175574Y-139269585D01*
X119283176Y-139423876D01*
X119387461Y-139576164D01*
X119453018Y-139673603D01*
X119762738Y-140150774D01*
X120066186Y-140643964D01*
X120359912Y-141146785D01*
X120640468Y-141652848D01*
X120904405Y-142155763D01*
X121148273Y-142649142D01*
X121368625Y-143126595D01*
X121559966Y-143576683D01*
X121608206Y-143699689D01*
X121660641Y-143840073D01*
X121714811Y-143990573D01*
X121768254Y-144143924D01*
X121818510Y-144292863D01*
X121863119Y-144430127D01*
X121899619Y-144548453D01*
X121925549Y-144640578D01*
X121936683Y-144688645D01*
X121949454Y-144738560D01*
X121962871Y-144765041D01*
X121965739Y-144766329D01*
X121985767Y-144751213D01*
X122028709Y-144708948D01*
X122090412Y-144644162D01*
X122166719Y-144561481D01*
X122253477Y-144465532D01*
X122346531Y-144360942D01*
X122441726Y-144252337D01*
X122534907Y-144144344D01*
X122621920Y-144041589D01*
X122685460Y-143964844D01*
X122880053Y-143719214D01*
X123059248Y-143476228D01*
X123229415Y-143226365D01*
X123396920Y-142960104D01*
X123568131Y-142667925D01*
X123647483Y-142526533D01*
X123706571Y-142422418D01*
X123759515Y-142333671D01*
X123802867Y-142265707D01*
X123833180Y-142223940D01*
X123846771Y-142213468D01*
X123862568Y-142237637D01*
X123893509Y-142290727D01*
X123935085Y-142364833D01*
X123981491Y-142449649D01*
X124212160Y-142857177D01*
X124446570Y-143232356D01*
X124690893Y-143584505D01*
X124951303Y-143922946D01*
X124983694Y-143962796D01*
X125063003Y-144058332D01*
X125151789Y-144162792D01*
X125245910Y-144271558D01*
X125341221Y-144380016D01*
X125433577Y-144483550D01*
X125518834Y-144577544D01*
X125592849Y-144657381D01*
X125651476Y-144718446D01*
X125690572Y-144756124D01*
X125705133Y-144766329D01*
X125717867Y-144748054D01*
X125731306Y-144702730D01*
X125734189Y-144688645D01*
X125750429Y-144621323D01*
X125779111Y-144522273D01*
X125817774Y-144398758D01*
X125863956Y-144258042D01*
X125915198Y-144107387D01*
X125969039Y-143954058D01*
X126023018Y-143805316D01*
X126074674Y-143668426D01*
X126110906Y-143576683D01*
X126300799Y-143130057D01*
X126517238Y-142660865D01*
X126756750Y-142175540D01*
X127015861Y-141680520D01*
X127291099Y-141182240D01*
X127578988Y-140687137D01*
X127876057Y-140201645D01*
X128178831Y-139732201D01*
X128215782Y-139676652D01*
X128315903Y-139528408D01*
X128421573Y-139375066D01*
X128529465Y-139221193D01*
X128636247Y-139071356D01*
X128738590Y-138930122D01*
X128833164Y-138802058D01*
X128916639Y-138691731D01*
X128985687Y-138603707D01*
X129036976Y-138542554D01*
X129060225Y-138518455D01*
X129082277Y-138506553D01*
X129126920Y-138491423D01*
X129196698Y-138472487D01*
X129294156Y-138449167D01*
X129421839Y-138420886D01*
X129582293Y-138387066D01*
X129778062Y-138347129D01*
X130011690Y-138300498D01*
X130079970Y-138287005D01*
X130275830Y-138248483D01*
X130458834Y-138212711D01*
X130624980Y-138180456D01*
X130770267Y-138152484D01*
X130890697Y-138129560D01*
X130982267Y-138112452D01*
X131040978Y-138101925D01*
X131062828Y-138098745D01*
X131062862Y-138098762D01*
X131058630Y-138118856D01*
X131045094Y-138175249D01*
X131023302Y-138263801D01*
X130994307Y-138380372D01*
X130959157Y-138520825D01*
X130918902Y-138681019D01*
X130874594Y-138856816D01*
X130827281Y-139044077D01*
X130778015Y-139238661D01*
X130727844Y-139436432D01*
X130677820Y-139633248D01*
X130628992Y-139824972D01*
X130582411Y-140007463D01*
X130539126Y-140176584D01*
X130500187Y-140328194D01*
X130466645Y-140458155D01*
X130439550Y-140562327D01*
X130419952Y-140636573D01*
X130408900Y-140676751D01*
X130408423Y-140678348D01*
X130413491Y-140694246D01*
X130438391Y-140718408D01*
X130486351Y-140752955D01*
X130560600Y-140800004D01*
X130664365Y-140861675D01*
X130800877Y-140940087D01*
X130847472Y-140966498D01*
X130971127Y-141037048D01*
X131081764Y-141101365D01*
X131174469Y-141156493D01*
X131244325Y-141199476D01*
X131286418Y-141227358D01*
X131296816Y-141236672D01*
X131279682Y-141249903D01*
X131229699Y-141284502D01*
X131149002Y-141339058D01*
X131039723Y-141412165D01*
X130903996Y-141502412D01*
X130743954Y-141608392D01*
X130561729Y-141728695D01*
X130359455Y-141861913D01*
X130139266Y-142006636D01*
X129903293Y-142161458D01*
X129653671Y-142324968D01*
X129392531Y-142495757D01*
X129189088Y-142628637D01*
X128920631Y-142804051D01*
X128662076Y-142973321D01*
X128415558Y-143135033D01*
X128183213Y-143287774D01*
X127967173Y-143430129D01*
X127769573Y-143560684D01*
X127592548Y-143678024D01*
X127438233Y-143780737D01*
X127308760Y-143867406D01*
X127206266Y-143936620D01*
X127132884Y-143986962D01*
X127090748Y-144017020D01*
X127080936Y-144025409D01*
X127086957Y-144049258D01*
X127104317Y-144108530D01*
X127131676Y-144198879D01*
X127167694Y-144315957D01*
X127211032Y-144455418D01*
X127260349Y-144612916D01*
X127314306Y-144784102D01*
X127333734Y-144845486D01*
X127388584Y-145019962D01*
X127438682Y-145181965D01*
X127482763Y-145327205D01*
X127519562Y-145451392D01*
X127547816Y-145550237D01*
X127566260Y-145619451D01*
X127573629Y-145654744D01*
X127573342Y-145658306D01*
X127551076Y-145657873D01*
X127490330Y-145652714D01*
X127394058Y-145643159D01*
X127265213Y-145629540D01*
X127106751Y-145612188D01*
X126921625Y-145591434D01*
X126712790Y-145567610D01*
X126483199Y-145541046D01*
X126235807Y-145512074D01*
X125973568Y-145481025D01*
X125699436Y-145448230D01*
X125697582Y-145448007D01*
X123835436Y-145224093D01*
X122011451Y-145443938D01*
X121739133Y-145476694D01*
X121478019Y-145507974D01*
X121231173Y-145537418D01*
X121001657Y-145564667D01*
X120792536Y-145589361D01*
X120606873Y-145611141D01*
X120447731Y-145629647D01*
X120318175Y-145644519D01*
X120221269Y-145655398D01*
X120160075Y-145661925D01*
X120138279Y-145663782D01*
X120100492Y-145657518D01*
X120089092Y-145646459D01*
X120095205Y-145623386D01*
X120112642Y-145564889D01*
X120140053Y-145475320D01*
X120176091Y-145359026D01*
X120219404Y-145220357D01*
X120268644Y-145063661D01*
X120322461Y-144893288D01*
X120339544Y-144839378D01*
X120394518Y-144665465D01*
X120445312Y-144503690D01*
X120490575Y-144358437D01*
X120528957Y-144234093D01*
X120559104Y-144135043D01*
X120579667Y-144065673D01*
X120589292Y-144030369D01*
X120589846Y-144027078D01*
X120572687Y-144013017D01*
X120522673Y-143977608D01*
X120441939Y-143922270D01*
X120332616Y-143848416D01*
X120196841Y-143757464D01*
X120036747Y-143650830D01*
X119854467Y-143529930D01*
X119652137Y-143396179D01*
X119431889Y-143250995D01*
X119195859Y-143095793D01*
X118946179Y-142931988D01*
X118684985Y-142760998D01*
X118481875Y-142628277D01*
X118213461Y-142452894D01*
X117954952Y-142283733D01*
X117708481Y-142122203D01*
X117476182Y-141969714D01*
X117260187Y-141827673D01*
X117062629Y-141697489D01*
X116885640Y-141580570D01*
X116731354Y-141478324D01*
X116601902Y-141392161D01*
X116499419Y-141323488D01*
X116426037Y-141273715D01*
X116383888Y-141244249D01*
X116374056Y-141236312D01*
X116391464Y-141222146D01*
X116440412Y-141190598D01*
X116515986Y-141144620D01*
X116613270Y-141087163D01*
X116727349Y-141021179D01*
X116823400Y-140966498D01*
X116970102Y-140882788D01*
X117083113Y-140816439D01*
X117165663Y-140765331D01*
X117220980Y-140727346D01*
X117252292Y-140700365D01*
X117262828Y-140682269D01*
X117262449Y-140678348D01*
X117252049Y-140640807D01*
X117233027Y-140568893D01*
X117206433Y-140466745D01*
X117173318Y-140338503D01*
X117134731Y-140188306D01*
X117091722Y-140020295D01*
X117045341Y-139838607D01*
X116996639Y-139647384D01*
X116946664Y-139450765D01*
X116896469Y-139252888D01*
X116847101Y-139057894D01*
X116799612Y-138869923D01*
X116755051Y-138693113D01*
X116714468Y-138531604D01*
X116678914Y-138389536D01*
X116649438Y-138271049D01*
X116627090Y-138180281D01*
X116612921Y-138121373D01*
X116607981Y-138098464D01*
X116608009Y-138098314D01*
X116629062Y-138101241D01*
%TO.C,TP2*%
D10*
X102751095Y-114597380D02*
X103322523Y-114597380D01*
X103036809Y-115597380D02*
X103036809Y-114597380D01*
X103655857Y-115597380D02*
X103655857Y-114597380D01*
X104036809Y-114597380D01*
X104132047Y-114645000D01*
X104179666Y-114692619D01*
X104227285Y-114787857D01*
X104227285Y-114930714D01*
X104179666Y-115025952D01*
X104132047Y-115073571D01*
X104036809Y-115121190D01*
X103655857Y-115121190D01*
X104608238Y-114692619D02*
X104655857Y-114645000D01*
X104751095Y-114597380D01*
X104989190Y-114597380D01*
X105084428Y-114645000D01*
X105132047Y-114692619D01*
X105179666Y-114787857D01*
X105179666Y-114883095D01*
X105132047Y-115025952D01*
X104560619Y-115597380D01*
X105179666Y-115597380D01*
%TO.C,U1*%
X108331095Y-124117380D02*
X108331095Y-124926904D01*
X108378714Y-125022142D01*
X108426333Y-125069761D01*
X108521571Y-125117380D01*
X108712047Y-125117380D01*
X108807285Y-125069761D01*
X108854904Y-125022142D01*
X108902523Y-124926904D01*
X108902523Y-124117380D01*
X109902523Y-125117380D02*
X109331095Y-125117380D01*
X109616809Y-125117380D02*
X109616809Y-124117380D01*
X109521571Y-124260238D01*
X109426333Y-124355476D01*
X109331095Y-124403095D01*
%TO.C,R1*%
X105863380Y-122213666D02*
X105387190Y-122547000D01*
X105863380Y-122785095D02*
X104863380Y-122785095D01*
X104863380Y-122404142D01*
X104911000Y-122308904D01*
X104958619Y-122261285D01*
X105053857Y-122213666D01*
X105196714Y-122213666D01*
X105291952Y-122261285D01*
X105339571Y-122308904D01*
X105387190Y-122404142D01*
X105387190Y-122785095D01*
X105863380Y-121261285D02*
X105863380Y-121832714D01*
X105863380Y-121547000D02*
X104863380Y-121547000D01*
X105006238Y-121642238D01*
X105101476Y-121737476D01*
X105149095Y-121832714D01*
%TO.C,TP15*%
X112307904Y-136231380D02*
X112879333Y-136231380D01*
X112593619Y-137231380D02*
X112593619Y-136231380D01*
X113212666Y-137231380D02*
X113212666Y-136231380D01*
X113593619Y-136231380D01*
X113688857Y-136279000D01*
X113736476Y-136326619D01*
X113784095Y-136421857D01*
X113784095Y-136564714D01*
X113736476Y-136659952D01*
X113688857Y-136707571D01*
X113593619Y-136755190D01*
X113212666Y-136755190D01*
X114736476Y-137231380D02*
X114165047Y-137231380D01*
X114450761Y-137231380D02*
X114450761Y-136231380D01*
X114355523Y-136374238D01*
X114260285Y-136469476D01*
X114165047Y-136517095D01*
X115641238Y-136231380D02*
X115165047Y-136231380D01*
X115117428Y-136707571D01*
X115165047Y-136659952D01*
X115260285Y-136612333D01*
X115498380Y-136612333D01*
X115593619Y-136659952D01*
X115641238Y-136707571D01*
X115688857Y-136802809D01*
X115688857Y-137040904D01*
X115641238Y-137136142D01*
X115593619Y-137183761D01*
X115498380Y-137231380D01*
X115260285Y-137231380D01*
X115165047Y-137183761D01*
X115117428Y-137136142D01*
D11*
X115625571Y-141660333D02*
X115625571Y-141993666D01*
X116149380Y-141993666D02*
X115149380Y-141993666D01*
X115149380Y-141517476D01*
X116149380Y-141136523D02*
X115149380Y-141136523D01*
X116149380Y-140184142D02*
X116149380Y-140660333D01*
X115149380Y-140660333D01*
X115149380Y-139993666D02*
X115149380Y-139422238D01*
X116149380Y-139707952D02*
X115149380Y-139707952D01*
X115625571Y-139088904D02*
X115625571Y-138755571D01*
X116149380Y-138612714D02*
X116149380Y-139088904D01*
X115149380Y-139088904D01*
X115149380Y-138612714D01*
X116149380Y-137612714D02*
X115673190Y-137946047D01*
X116149380Y-138184142D02*
X115149380Y-138184142D01*
X115149380Y-137803190D01*
X115197000Y-137707952D01*
X115244619Y-137660333D01*
X115339857Y-137612714D01*
X115482714Y-137612714D01*
X115577952Y-137660333D01*
X115625571Y-137707952D01*
X115673190Y-137803190D01*
X115673190Y-138184142D01*
%TO.C,R26*%
D10*
X97980380Y-126617857D02*
X97504190Y-126951190D01*
X97980380Y-127189285D02*
X96980380Y-127189285D01*
X96980380Y-126808333D01*
X97028000Y-126713095D01*
X97075619Y-126665476D01*
X97170857Y-126617857D01*
X97313714Y-126617857D01*
X97408952Y-126665476D01*
X97456571Y-126713095D01*
X97504190Y-126808333D01*
X97504190Y-127189285D01*
X97075619Y-126236904D02*
X97028000Y-126189285D01*
X96980380Y-126094047D01*
X96980380Y-125855952D01*
X97028000Y-125760714D01*
X97075619Y-125713095D01*
X97170857Y-125665476D01*
X97266095Y-125665476D01*
X97408952Y-125713095D01*
X97980380Y-126284523D01*
X97980380Y-125665476D01*
X96980380Y-124808333D02*
X96980380Y-124998809D01*
X97028000Y-125094047D01*
X97075619Y-125141666D01*
X97218476Y-125236904D01*
X97408952Y-125284523D01*
X97789904Y-125284523D01*
X97885142Y-125236904D01*
X97932761Y-125189285D01*
X97980380Y-125094047D01*
X97980380Y-124903571D01*
X97932761Y-124808333D01*
X97885142Y-124760714D01*
X97789904Y-124713095D01*
X97551809Y-124713095D01*
X97456571Y-124760714D01*
X97408952Y-124808333D01*
X97361333Y-124903571D01*
X97361333Y-125094047D01*
X97408952Y-125189285D01*
X97456571Y-125236904D01*
X97551809Y-125284523D01*
%TO.C,R34*%
X94813380Y-126626857D02*
X94337190Y-126960190D01*
X94813380Y-127198285D02*
X93813380Y-127198285D01*
X93813380Y-126817333D01*
X93861000Y-126722095D01*
X93908619Y-126674476D01*
X94003857Y-126626857D01*
X94146714Y-126626857D01*
X94241952Y-126674476D01*
X94289571Y-126722095D01*
X94337190Y-126817333D01*
X94337190Y-127198285D01*
X93813380Y-126293523D02*
X93813380Y-125674476D01*
X94194333Y-126007809D01*
X94194333Y-125864952D01*
X94241952Y-125769714D01*
X94289571Y-125722095D01*
X94384809Y-125674476D01*
X94622904Y-125674476D01*
X94718142Y-125722095D01*
X94765761Y-125769714D01*
X94813380Y-125864952D01*
X94813380Y-126150666D01*
X94765761Y-126245904D01*
X94718142Y-126293523D01*
X94146714Y-124817333D02*
X94813380Y-124817333D01*
X93765761Y-125055428D02*
X94480047Y-125293523D01*
X94480047Y-124674476D01*
X93289380Y-127333214D02*
X92289380Y-127333214D01*
X92289380Y-127095119D01*
X92337000Y-126952261D01*
X92432238Y-126857023D01*
X92527476Y-126809404D01*
X92717952Y-126761785D01*
X92860809Y-126761785D01*
X93051285Y-126809404D01*
X93146523Y-126857023D01*
X93241761Y-126952261D01*
X93289380Y-127095119D01*
X93289380Y-127333214D01*
X93289380Y-126333214D02*
X92289380Y-126333214D01*
X93289380Y-125761785D01*
X92289380Y-125761785D01*
X93289380Y-125285595D02*
X92289380Y-125285595D01*
X92289380Y-124904642D01*
X92337000Y-124809404D01*
X92384619Y-124761785D01*
X92479857Y-124714166D01*
X92622714Y-124714166D01*
X92717952Y-124761785D01*
X92765571Y-124809404D01*
X92813190Y-124904642D01*
X92813190Y-125285595D01*
%TO.C,JP1*%
X116355880Y-121991333D02*
X117070166Y-121991333D01*
X117213023Y-122038952D01*
X117308261Y-122134190D01*
X117355880Y-122277047D01*
X117355880Y-122372285D01*
X117355880Y-121515142D02*
X116355880Y-121515142D01*
X116355880Y-121134190D01*
X116403500Y-121038952D01*
X116451119Y-120991333D01*
X116546357Y-120943714D01*
X116689214Y-120943714D01*
X116784452Y-120991333D01*
X116832071Y-121038952D01*
X116879690Y-121134190D01*
X116879690Y-121515142D01*
X117355880Y-119991333D02*
X117355880Y-120562761D01*
X117355880Y-120277047D02*
X116355880Y-120277047D01*
X116498738Y-120372285D01*
X116593976Y-120467523D01*
X116641595Y-120562761D01*
D11*
X122404166Y-123427666D02*
X122404166Y-122951476D01*
X122689880Y-123522904D02*
X121689880Y-123189571D01*
X122689880Y-122856238D01*
X122689880Y-122522904D02*
X121689880Y-122522904D01*
X122404166Y-122189571D01*
X121689880Y-121856238D01*
X122689880Y-121856238D01*
X122689880Y-121380047D02*
X121689880Y-121380047D01*
X121689880Y-120999095D01*
X121737500Y-120903857D01*
X121785119Y-120856238D01*
X121880357Y-120808619D01*
X122023214Y-120808619D01*
X122118452Y-120856238D01*
X122166071Y-120903857D01*
X122213690Y-120999095D01*
X122213690Y-121380047D01*
X122785119Y-120618142D02*
X122785119Y-119856238D01*
X121689880Y-119332428D02*
X122404166Y-119332428D01*
X122547023Y-119380047D01*
X122642261Y-119475285D01*
X122689880Y-119618142D01*
X122689880Y-119713380D01*
X121689880Y-118856238D02*
X122499404Y-118856238D01*
X122594642Y-118808619D01*
X122642261Y-118761000D01*
X122689880Y-118665761D01*
X122689880Y-118475285D01*
X122642261Y-118380047D01*
X122594642Y-118332428D01*
X122499404Y-118284809D01*
X121689880Y-118284809D01*
X122689880Y-117808619D02*
X121689880Y-117808619D01*
X122404166Y-117475285D01*
X121689880Y-117141952D01*
X122689880Y-117141952D01*
X122689880Y-116665761D02*
X121689880Y-116665761D01*
X121689880Y-116284809D01*
X121737500Y-116189571D01*
X121785119Y-116141952D01*
X121880357Y-116094333D01*
X122023214Y-116094333D01*
X122118452Y-116141952D01*
X122166071Y-116189571D01*
X122213690Y-116284809D01*
X122213690Y-116665761D01*
%TO.C,R39*%
D10*
X136316980Y-128548257D02*
X135840790Y-128881590D01*
X136316980Y-129119685D02*
X135316980Y-129119685D01*
X135316980Y-128738733D01*
X135364600Y-128643495D01*
X135412219Y-128595876D01*
X135507457Y-128548257D01*
X135650314Y-128548257D01*
X135745552Y-128595876D01*
X135793171Y-128643495D01*
X135840790Y-128738733D01*
X135840790Y-129119685D01*
X135316980Y-128214923D02*
X135316980Y-127595876D01*
X135697933Y-127929209D01*
X135697933Y-127786352D01*
X135745552Y-127691114D01*
X135793171Y-127643495D01*
X135888409Y-127595876D01*
X136126504Y-127595876D01*
X136221742Y-127643495D01*
X136269361Y-127691114D01*
X136316980Y-127786352D01*
X136316980Y-128072066D01*
X136269361Y-128167304D01*
X136221742Y-128214923D01*
X136316980Y-127119685D02*
X136316980Y-126929209D01*
X136269361Y-126833971D01*
X136221742Y-126786352D01*
X136078885Y-126691114D01*
X135888409Y-126643495D01*
X135507457Y-126643495D01*
X135412219Y-126691114D01*
X135364600Y-126738733D01*
X135316980Y-126833971D01*
X135316980Y-127024447D01*
X135364600Y-127119685D01*
X135412219Y-127167304D01*
X135507457Y-127214923D01*
X135745552Y-127214923D01*
X135840790Y-127167304D01*
X135888409Y-127119685D01*
X135936028Y-127024447D01*
X135936028Y-126833971D01*
X135888409Y-126738733D01*
X135840790Y-126691114D01*
X135745552Y-126643495D01*
X132699285Y-133167380D02*
X132699285Y-132167380D01*
X132937380Y-132167380D01*
X133080238Y-132215000D01*
X133175476Y-132310238D01*
X133223095Y-132405476D01*
X133270714Y-132595952D01*
X133270714Y-132738809D01*
X133223095Y-132929285D01*
X133175476Y-133024523D01*
X133080238Y-133119761D01*
X132937380Y-133167380D01*
X132699285Y-133167380D01*
X133699285Y-133167380D02*
X133699285Y-132167380D01*
X134270714Y-133167380D01*
X134270714Y-132167380D01*
X134746904Y-133167380D02*
X134746904Y-132167380D01*
X135127857Y-132167380D01*
X135223095Y-132215000D01*
X135270714Y-132262619D01*
X135318333Y-132357857D01*
X135318333Y-132500714D01*
X135270714Y-132595952D01*
X135223095Y-132643571D01*
X135127857Y-132691190D01*
X134746904Y-132691190D01*
%TO.C,C32*%
X96893142Y-138990342D02*
X96845523Y-139037961D01*
X96702666Y-139085580D01*
X96607428Y-139085580D01*
X96464571Y-139037961D01*
X96369333Y-138942723D01*
X96321714Y-138847485D01*
X96274095Y-138657009D01*
X96274095Y-138514152D01*
X96321714Y-138323676D01*
X96369333Y-138228438D01*
X96464571Y-138133200D01*
X96607428Y-138085580D01*
X96702666Y-138085580D01*
X96845523Y-138133200D01*
X96893142Y-138180819D01*
X97226476Y-138085580D02*
X97845523Y-138085580D01*
X97512190Y-138466533D01*
X97655047Y-138466533D01*
X97750285Y-138514152D01*
X97797904Y-138561771D01*
X97845523Y-138657009D01*
X97845523Y-138895104D01*
X97797904Y-138990342D01*
X97750285Y-139037961D01*
X97655047Y-139085580D01*
X97369333Y-139085580D01*
X97274095Y-139037961D01*
X97226476Y-138990342D01*
X98226476Y-138180819D02*
X98274095Y-138133200D01*
X98369333Y-138085580D01*
X98607428Y-138085580D01*
X98702666Y-138133200D01*
X98750285Y-138180819D01*
X98797904Y-138276057D01*
X98797904Y-138371295D01*
X98750285Y-138514152D01*
X98178857Y-139085580D01*
X98797904Y-139085580D01*
%TO.C,C27*%
X129516142Y-121292857D02*
X129563761Y-121340476D01*
X129611380Y-121483333D01*
X129611380Y-121578571D01*
X129563761Y-121721428D01*
X129468523Y-121816666D01*
X129373285Y-121864285D01*
X129182809Y-121911904D01*
X129039952Y-121911904D01*
X128849476Y-121864285D01*
X128754238Y-121816666D01*
X128659000Y-121721428D01*
X128611380Y-121578571D01*
X128611380Y-121483333D01*
X128659000Y-121340476D01*
X128706619Y-121292857D01*
X128706619Y-120911904D02*
X128659000Y-120864285D01*
X128611380Y-120769047D01*
X128611380Y-120530952D01*
X128659000Y-120435714D01*
X128706619Y-120388095D01*
X128801857Y-120340476D01*
X128897095Y-120340476D01*
X129039952Y-120388095D01*
X129611380Y-120959523D01*
X129611380Y-120340476D01*
X128611380Y-120007142D02*
X128611380Y-119340476D01*
X129611380Y-119769047D01*
%TO.C,C37*%
X125020342Y-128836657D02*
X125067961Y-128884276D01*
X125115580Y-129027133D01*
X125115580Y-129122371D01*
X125067961Y-129265228D01*
X124972723Y-129360466D01*
X124877485Y-129408085D01*
X124687009Y-129455704D01*
X124544152Y-129455704D01*
X124353676Y-129408085D01*
X124258438Y-129360466D01*
X124163200Y-129265228D01*
X124115580Y-129122371D01*
X124115580Y-129027133D01*
X124163200Y-128884276D01*
X124210819Y-128836657D01*
X124115580Y-128503323D02*
X124115580Y-127884276D01*
X124496533Y-128217609D01*
X124496533Y-128074752D01*
X124544152Y-127979514D01*
X124591771Y-127931895D01*
X124687009Y-127884276D01*
X124925104Y-127884276D01*
X125020342Y-127931895D01*
X125067961Y-127979514D01*
X125115580Y-128074752D01*
X125115580Y-128360466D01*
X125067961Y-128455704D01*
X125020342Y-128503323D01*
X124115580Y-127550942D02*
X124115580Y-126884276D01*
X125115580Y-127312847D01*
%TO.C,R42*%
X126436380Y-121165857D02*
X125960190Y-121499190D01*
X126436380Y-121737285D02*
X125436380Y-121737285D01*
X125436380Y-121356333D01*
X125484000Y-121261095D01*
X125531619Y-121213476D01*
X125626857Y-121165857D01*
X125769714Y-121165857D01*
X125864952Y-121213476D01*
X125912571Y-121261095D01*
X125960190Y-121356333D01*
X125960190Y-121737285D01*
X125769714Y-120308714D02*
X126436380Y-120308714D01*
X125388761Y-120546809D02*
X126103047Y-120784904D01*
X126103047Y-120165857D01*
X125531619Y-119832523D02*
X125484000Y-119784904D01*
X125436380Y-119689666D01*
X125436380Y-119451571D01*
X125484000Y-119356333D01*
X125531619Y-119308714D01*
X125626857Y-119261095D01*
X125722095Y-119261095D01*
X125864952Y-119308714D01*
X126436380Y-119880142D01*
X126436380Y-119261095D01*
%TO.C,D2*%
X121737380Y-128881095D02*
X120737380Y-128881095D01*
X120737380Y-128643000D01*
X120785000Y-128500142D01*
X120880238Y-128404904D01*
X120975476Y-128357285D01*
X121165952Y-128309666D01*
X121308809Y-128309666D01*
X121499285Y-128357285D01*
X121594523Y-128404904D01*
X121689761Y-128500142D01*
X121737380Y-128643000D01*
X121737380Y-128881095D01*
X120832619Y-127928714D02*
X120785000Y-127881095D01*
X120737380Y-127785857D01*
X120737380Y-127547761D01*
X120785000Y-127452523D01*
X120832619Y-127404904D01*
X120927857Y-127357285D01*
X121023095Y-127357285D01*
X121165952Y-127404904D01*
X121737380Y-127976333D01*
X121737380Y-127357285D01*
%TO.C,TP1*%
X109053380Y-118990904D02*
X109053380Y-118419476D01*
X110053380Y-118705190D02*
X109053380Y-118705190D01*
X110053380Y-118086142D02*
X109053380Y-118086142D01*
X109053380Y-117705190D01*
X109101000Y-117609952D01*
X109148619Y-117562333D01*
X109243857Y-117514714D01*
X109386714Y-117514714D01*
X109481952Y-117562333D01*
X109529571Y-117609952D01*
X109577190Y-117705190D01*
X109577190Y-118086142D01*
X110053380Y-116562333D02*
X110053380Y-117133761D01*
X110053380Y-116848047D02*
X109053380Y-116848047D01*
X109196238Y-116943285D01*
X109291476Y-117038523D01*
X109339095Y-117133761D01*
D11*
X115133380Y-119149380D02*
X114133380Y-119149380D01*
X114133380Y-118768428D01*
X114181000Y-118673190D01*
X114228619Y-118625571D01*
X114323857Y-118577952D01*
X114466714Y-118577952D01*
X114561952Y-118625571D01*
X114609571Y-118673190D01*
X114657190Y-118768428D01*
X114657190Y-119149380D01*
X114609571Y-118149380D02*
X114609571Y-117816047D01*
X115133380Y-117673190D02*
X115133380Y-118149380D01*
X114133380Y-118149380D01*
X114133380Y-117673190D01*
X114847666Y-117292238D02*
X114847666Y-116816047D01*
X115133380Y-117387476D02*
X114133380Y-117054142D01*
X115133380Y-116720809D01*
X115133380Y-116387476D02*
X114133380Y-116387476D01*
X115133380Y-115816047D02*
X114561952Y-116244619D01*
X114133380Y-115816047D02*
X114704809Y-116387476D01*
X115228619Y-115625571D02*
X115228619Y-114863666D01*
X114133380Y-114435095D02*
X114133380Y-114244619D01*
X114181000Y-114149380D01*
X114276238Y-114054142D01*
X114466714Y-114006523D01*
X114800047Y-114006523D01*
X114990523Y-114054142D01*
X115085761Y-114149380D01*
X115133380Y-114244619D01*
X115133380Y-114435095D01*
X115085761Y-114530333D01*
X114990523Y-114625571D01*
X114800047Y-114673190D01*
X114466714Y-114673190D01*
X114276238Y-114625571D01*
X114181000Y-114530333D01*
X114133380Y-114435095D01*
X114133380Y-113577952D02*
X114942904Y-113577952D01*
X115038142Y-113530333D01*
X115085761Y-113482714D01*
X115133380Y-113387476D01*
X115133380Y-113197000D01*
X115085761Y-113101761D01*
X115038142Y-113054142D01*
X114942904Y-113006523D01*
X114133380Y-113006523D01*
X114133380Y-112673190D02*
X114133380Y-112101761D01*
X115133380Y-112387476D02*
X114133380Y-112387476D01*
%TO.C,JP5*%
D10*
X87685666Y-118197380D02*
X87685666Y-118911666D01*
X87638047Y-119054523D01*
X87542809Y-119149761D01*
X87399952Y-119197380D01*
X87304714Y-119197380D01*
X88161857Y-119197380D02*
X88161857Y-118197380D01*
X88542809Y-118197380D01*
X88638047Y-118245000D01*
X88685666Y-118292619D01*
X88733285Y-118387857D01*
X88733285Y-118530714D01*
X88685666Y-118625952D01*
X88638047Y-118673571D01*
X88542809Y-118721190D01*
X88161857Y-118721190D01*
X89638047Y-118197380D02*
X89161857Y-118197380D01*
X89114238Y-118673571D01*
X89161857Y-118625952D01*
X89257095Y-118578333D01*
X89495190Y-118578333D01*
X89590428Y-118625952D01*
X89638047Y-118673571D01*
X89685666Y-118768809D01*
X89685666Y-119006904D01*
X89638047Y-119102142D01*
X89590428Y-119149761D01*
X89495190Y-119197380D01*
X89257095Y-119197380D01*
X89161857Y-119149761D01*
X89114238Y-119102142D01*
D11*
X84519071Y-123086880D02*
X85090500Y-123086880D01*
X84804785Y-124086880D02*
X84804785Y-123086880D01*
X85995261Y-124086880D02*
X85661928Y-123610690D01*
X85423833Y-124086880D02*
X85423833Y-123086880D01*
X85804785Y-123086880D01*
X85900023Y-123134500D01*
X85947642Y-123182119D01*
X85995261Y-123277357D01*
X85995261Y-123420214D01*
X85947642Y-123515452D01*
X85900023Y-123563071D01*
X85804785Y-123610690D01*
X85423833Y-123610690D01*
X86376214Y-123801166D02*
X86852404Y-123801166D01*
X86280976Y-124086880D02*
X86614309Y-123086880D01*
X86947642Y-124086880D01*
X87280976Y-124086880D02*
X87280976Y-123086880D01*
X87852404Y-124086880D01*
X87852404Y-123086880D01*
X88280976Y-124039261D02*
X88423833Y-124086880D01*
X88661928Y-124086880D01*
X88757166Y-124039261D01*
X88804785Y-123991642D01*
X88852404Y-123896404D01*
X88852404Y-123801166D01*
X88804785Y-123705928D01*
X88757166Y-123658309D01*
X88661928Y-123610690D01*
X88471452Y-123563071D01*
X88376214Y-123515452D01*
X88328595Y-123467833D01*
X88280976Y-123372595D01*
X88280976Y-123277357D01*
X88328595Y-123182119D01*
X88376214Y-123134500D01*
X88471452Y-123086880D01*
X88709547Y-123086880D01*
X88852404Y-123134500D01*
X89042880Y-124182119D02*
X89804785Y-124182119D01*
X90328595Y-123086880D02*
X90328595Y-123801166D01*
X90280976Y-123944023D01*
X90185738Y-124039261D01*
X90042880Y-124086880D01*
X89947642Y-124086880D01*
X90804785Y-123086880D02*
X90804785Y-123896404D01*
X90852404Y-123991642D01*
X90900023Y-124039261D01*
X90995261Y-124086880D01*
X91185738Y-124086880D01*
X91280976Y-124039261D01*
X91328595Y-123991642D01*
X91376214Y-123896404D01*
X91376214Y-123086880D01*
X91852404Y-124086880D02*
X91852404Y-123086880D01*
X92185738Y-123801166D01*
X92519071Y-123086880D01*
X92519071Y-124086880D01*
X92995261Y-124086880D02*
X92995261Y-123086880D01*
X93376214Y-123086880D01*
X93471452Y-123134500D01*
X93519071Y-123182119D01*
X93566690Y-123277357D01*
X93566690Y-123420214D01*
X93519071Y-123515452D01*
X93471452Y-123563071D01*
X93376214Y-123610690D01*
X92995261Y-123610690D01*
%TO.C,R40*%
D10*
X98036142Y-111450380D02*
X97702809Y-110974190D01*
X97464714Y-111450380D02*
X97464714Y-110450380D01*
X97845666Y-110450380D01*
X97940904Y-110498000D01*
X97988523Y-110545619D01*
X98036142Y-110640857D01*
X98036142Y-110783714D01*
X97988523Y-110878952D01*
X97940904Y-110926571D01*
X97845666Y-110974190D01*
X97464714Y-110974190D01*
X98893285Y-110783714D02*
X98893285Y-111450380D01*
X98655190Y-110402761D02*
X98417095Y-111117047D01*
X99036142Y-111117047D01*
X99607571Y-110450380D02*
X99702809Y-110450380D01*
X99798047Y-110498000D01*
X99845666Y-110545619D01*
X99893285Y-110640857D01*
X99940904Y-110831333D01*
X99940904Y-111069428D01*
X99893285Y-111259904D01*
X99845666Y-111355142D01*
X99798047Y-111402761D01*
X99702809Y-111450380D01*
X99607571Y-111450380D01*
X99512333Y-111402761D01*
X99464714Y-111355142D01*
X99417095Y-111259904D01*
X99369476Y-111069428D01*
X99369476Y-110831333D01*
X99417095Y-110640857D01*
X99464714Y-110545619D01*
X99512333Y-110498000D01*
X99607571Y-110450380D01*
%TO.C,R36*%
X90114380Y-131325857D02*
X89638190Y-131659190D01*
X90114380Y-131897285D02*
X89114380Y-131897285D01*
X89114380Y-131516333D01*
X89162000Y-131421095D01*
X89209619Y-131373476D01*
X89304857Y-131325857D01*
X89447714Y-131325857D01*
X89542952Y-131373476D01*
X89590571Y-131421095D01*
X89638190Y-131516333D01*
X89638190Y-131897285D01*
X89114380Y-130992523D02*
X89114380Y-130373476D01*
X89495333Y-130706809D01*
X89495333Y-130563952D01*
X89542952Y-130468714D01*
X89590571Y-130421095D01*
X89685809Y-130373476D01*
X89923904Y-130373476D01*
X90019142Y-130421095D01*
X90066761Y-130468714D01*
X90114380Y-130563952D01*
X90114380Y-130849666D01*
X90066761Y-130944904D01*
X90019142Y-130992523D01*
X89114380Y-129516333D02*
X89114380Y-129706809D01*
X89162000Y-129802047D01*
X89209619Y-129849666D01*
X89352476Y-129944904D01*
X89542952Y-129992523D01*
X89923904Y-129992523D01*
X90019142Y-129944904D01*
X90066761Y-129897285D01*
X90114380Y-129802047D01*
X90114380Y-129611571D01*
X90066761Y-129516333D01*
X90019142Y-129468714D01*
X89923904Y-129421095D01*
X89685809Y-129421095D01*
X89590571Y-129468714D01*
X89542952Y-129516333D01*
X89495333Y-129611571D01*
X89495333Y-129802047D01*
X89542952Y-129897285D01*
X89590571Y-129944904D01*
X89685809Y-129992523D01*
X90281285Y-134691380D02*
X90281285Y-133691380D01*
X90519380Y-133691380D01*
X90662238Y-133739000D01*
X90757476Y-133834238D01*
X90805095Y-133929476D01*
X90852714Y-134119952D01*
X90852714Y-134262809D01*
X90805095Y-134453285D01*
X90757476Y-134548523D01*
X90662238Y-134643761D01*
X90519380Y-134691380D01*
X90281285Y-134691380D01*
X91281285Y-134691380D02*
X91281285Y-133691380D01*
X91852714Y-134691380D01*
X91852714Y-133691380D01*
X92328904Y-134691380D02*
X92328904Y-133691380D01*
X92709857Y-133691380D01*
X92805095Y-133739000D01*
X92852714Y-133786619D01*
X92900333Y-133881857D01*
X92900333Y-134024714D01*
X92852714Y-134119952D01*
X92805095Y-134167571D01*
X92709857Y-134215190D01*
X92328904Y-134215190D01*
%TO.C,R35*%
X86432380Y-131334857D02*
X85956190Y-131668190D01*
X86432380Y-131906285D02*
X85432380Y-131906285D01*
X85432380Y-131525333D01*
X85480000Y-131430095D01*
X85527619Y-131382476D01*
X85622857Y-131334857D01*
X85765714Y-131334857D01*
X85860952Y-131382476D01*
X85908571Y-131430095D01*
X85956190Y-131525333D01*
X85956190Y-131906285D01*
X85432380Y-131001523D02*
X85432380Y-130382476D01*
X85813333Y-130715809D01*
X85813333Y-130572952D01*
X85860952Y-130477714D01*
X85908571Y-130430095D01*
X86003809Y-130382476D01*
X86241904Y-130382476D01*
X86337142Y-130430095D01*
X86384761Y-130477714D01*
X86432380Y-130572952D01*
X86432380Y-130858666D01*
X86384761Y-130953904D01*
X86337142Y-131001523D01*
X85432380Y-129477714D02*
X85432380Y-129953904D01*
X85908571Y-130001523D01*
X85860952Y-129953904D01*
X85813333Y-129858666D01*
X85813333Y-129620571D01*
X85860952Y-129525333D01*
X85908571Y-129477714D01*
X86003809Y-129430095D01*
X86241904Y-129430095D01*
X86337142Y-129477714D01*
X86384761Y-129525333D01*
X86432380Y-129620571D01*
X86432380Y-129858666D01*
X86384761Y-129953904D01*
X86337142Y-130001523D01*
X86471285Y-134691380D02*
X86471285Y-133691380D01*
X86709380Y-133691380D01*
X86852238Y-133739000D01*
X86947476Y-133834238D01*
X86995095Y-133929476D01*
X87042714Y-134119952D01*
X87042714Y-134262809D01*
X86995095Y-134453285D01*
X86947476Y-134548523D01*
X86852238Y-134643761D01*
X86709380Y-134691380D01*
X86471285Y-134691380D01*
X87471285Y-134691380D02*
X87471285Y-133691380D01*
X88042714Y-134691380D01*
X88042714Y-133691380D01*
X88518904Y-134691380D02*
X88518904Y-133691380D01*
X88899857Y-133691380D01*
X88995095Y-133739000D01*
X89042714Y-133786619D01*
X89090333Y-133881857D01*
X89090333Y-134024714D01*
X89042714Y-134119952D01*
X88995095Y-134167571D01*
X88899857Y-134215190D01*
X88518904Y-134215190D01*
%TO.C,R33*%
X105148142Y-143200380D02*
X104814809Y-142724190D01*
X104576714Y-143200380D02*
X104576714Y-142200380D01*
X104957666Y-142200380D01*
X105052904Y-142248000D01*
X105100523Y-142295619D01*
X105148142Y-142390857D01*
X105148142Y-142533714D01*
X105100523Y-142628952D01*
X105052904Y-142676571D01*
X104957666Y-142724190D01*
X104576714Y-142724190D01*
X105481476Y-142200380D02*
X106100523Y-142200380D01*
X105767190Y-142581333D01*
X105910047Y-142581333D01*
X106005285Y-142628952D01*
X106052904Y-142676571D01*
X106100523Y-142771809D01*
X106100523Y-143009904D01*
X106052904Y-143105142D01*
X106005285Y-143152761D01*
X105910047Y-143200380D01*
X105624333Y-143200380D01*
X105529095Y-143152761D01*
X105481476Y-143105142D01*
X106433857Y-142200380D02*
X107052904Y-142200380D01*
X106719571Y-142581333D01*
X106862428Y-142581333D01*
X106957666Y-142628952D01*
X107005285Y-142676571D01*
X107052904Y-142771809D01*
X107052904Y-143009904D01*
X107005285Y-143105142D01*
X106957666Y-143152761D01*
X106862428Y-143200380D01*
X106576714Y-143200380D01*
X106481476Y-143152761D01*
X106433857Y-143105142D01*
X104632285Y-141803380D02*
X104632285Y-140803380D01*
X104870380Y-140803380D01*
X105013238Y-140851000D01*
X105108476Y-140946238D01*
X105156095Y-141041476D01*
X105203714Y-141231952D01*
X105203714Y-141374809D01*
X105156095Y-141565285D01*
X105108476Y-141660523D01*
X105013238Y-141755761D01*
X104870380Y-141803380D01*
X104632285Y-141803380D01*
X105632285Y-141803380D02*
X105632285Y-140803380D01*
X106203714Y-141803380D01*
X106203714Y-140803380D01*
X106679904Y-141803380D02*
X106679904Y-140803380D01*
X107060857Y-140803380D01*
X107156095Y-140851000D01*
X107203714Y-140898619D01*
X107251333Y-140993857D01*
X107251333Y-141136714D01*
X107203714Y-141231952D01*
X107156095Y-141279571D01*
X107060857Y-141327190D01*
X106679904Y-141327190D01*
%TO.C,R32*%
X103195380Y-143771857D02*
X102719190Y-144105190D01*
X103195380Y-144343285D02*
X102195380Y-144343285D01*
X102195380Y-143962333D01*
X102243000Y-143867095D01*
X102290619Y-143819476D01*
X102385857Y-143771857D01*
X102528714Y-143771857D01*
X102623952Y-143819476D01*
X102671571Y-143867095D01*
X102719190Y-143962333D01*
X102719190Y-144343285D01*
X102195380Y-143438523D02*
X102195380Y-142819476D01*
X102576333Y-143152809D01*
X102576333Y-143009952D01*
X102623952Y-142914714D01*
X102671571Y-142867095D01*
X102766809Y-142819476D01*
X103004904Y-142819476D01*
X103100142Y-142867095D01*
X103147761Y-142914714D01*
X103195380Y-143009952D01*
X103195380Y-143295666D01*
X103147761Y-143390904D01*
X103100142Y-143438523D01*
X102290619Y-142438523D02*
X102243000Y-142390904D01*
X102195380Y-142295666D01*
X102195380Y-142057571D01*
X102243000Y-141962333D01*
X102290619Y-141914714D01*
X102385857Y-141867095D01*
X102481095Y-141867095D01*
X102623952Y-141914714D01*
X103195380Y-142486142D01*
X103195380Y-141867095D01*
%TO.C,R31*%
X97909142Y-115387380D02*
X97575809Y-114911190D01*
X97337714Y-115387380D02*
X97337714Y-114387380D01*
X97718666Y-114387380D01*
X97813904Y-114435000D01*
X97861523Y-114482619D01*
X97909142Y-114577857D01*
X97909142Y-114720714D01*
X97861523Y-114815952D01*
X97813904Y-114863571D01*
X97718666Y-114911190D01*
X97337714Y-114911190D01*
X98242476Y-114387380D02*
X98861523Y-114387380D01*
X98528190Y-114768333D01*
X98671047Y-114768333D01*
X98766285Y-114815952D01*
X98813904Y-114863571D01*
X98861523Y-114958809D01*
X98861523Y-115196904D01*
X98813904Y-115292142D01*
X98766285Y-115339761D01*
X98671047Y-115387380D01*
X98385333Y-115387380D01*
X98290095Y-115339761D01*
X98242476Y-115292142D01*
X99813904Y-115387380D02*
X99242476Y-115387380D01*
X99528190Y-115387380D02*
X99528190Y-114387380D01*
X99432952Y-114530238D01*
X99337714Y-114625476D01*
X99242476Y-114673095D01*
X96337380Y-114442714D02*
X95337380Y-114442714D01*
X95337380Y-114204619D01*
X95385000Y-114061761D01*
X95480238Y-113966523D01*
X95575476Y-113918904D01*
X95765952Y-113871285D01*
X95908809Y-113871285D01*
X96099285Y-113918904D01*
X96194523Y-113966523D01*
X96289761Y-114061761D01*
X96337380Y-114204619D01*
X96337380Y-114442714D01*
X96337380Y-113442714D02*
X95337380Y-113442714D01*
X96337380Y-112871285D01*
X95337380Y-112871285D01*
X96337380Y-112395095D02*
X95337380Y-112395095D01*
X95337380Y-112014142D01*
X95385000Y-111918904D01*
X95432619Y-111871285D01*
X95527857Y-111823666D01*
X95670714Y-111823666D01*
X95765952Y-111871285D01*
X95813571Y-111918904D01*
X95861190Y-112014142D01*
X95861190Y-112395095D01*
%TO.C,R30*%
X128849380Y-128836657D02*
X128373190Y-129169990D01*
X128849380Y-129408085D02*
X127849380Y-129408085D01*
X127849380Y-129027133D01*
X127897000Y-128931895D01*
X127944619Y-128884276D01*
X128039857Y-128836657D01*
X128182714Y-128836657D01*
X128277952Y-128884276D01*
X128325571Y-128931895D01*
X128373190Y-129027133D01*
X128373190Y-129408085D01*
X127849380Y-128503323D02*
X127849380Y-127884276D01*
X128230333Y-128217609D01*
X128230333Y-128074752D01*
X128277952Y-127979514D01*
X128325571Y-127931895D01*
X128420809Y-127884276D01*
X128658904Y-127884276D01*
X128754142Y-127931895D01*
X128801761Y-127979514D01*
X128849380Y-128074752D01*
X128849380Y-128360466D01*
X128801761Y-128455704D01*
X128754142Y-128503323D01*
X127849380Y-127265228D02*
X127849380Y-127169990D01*
X127897000Y-127074752D01*
X127944619Y-127027133D01*
X128039857Y-126979514D01*
X128230333Y-126931895D01*
X128468428Y-126931895D01*
X128658904Y-126979514D01*
X128754142Y-127027133D01*
X128801761Y-127074752D01*
X128849380Y-127169990D01*
X128849380Y-127265228D01*
X128801761Y-127360466D01*
X128754142Y-127408085D01*
X128658904Y-127455704D01*
X128468428Y-127503323D01*
X128230333Y-127503323D01*
X128039857Y-127455704D01*
X127944619Y-127408085D01*
X127897000Y-127360466D01*
X127849380Y-127265228D01*
%TO.C,R27*%
X97734380Y-131334857D02*
X97258190Y-131668190D01*
X97734380Y-131906285D02*
X96734380Y-131906285D01*
X96734380Y-131525333D01*
X96782000Y-131430095D01*
X96829619Y-131382476D01*
X96924857Y-131334857D01*
X97067714Y-131334857D01*
X97162952Y-131382476D01*
X97210571Y-131430095D01*
X97258190Y-131525333D01*
X97258190Y-131906285D01*
X96829619Y-130953904D02*
X96782000Y-130906285D01*
X96734380Y-130811047D01*
X96734380Y-130572952D01*
X96782000Y-130477714D01*
X96829619Y-130430095D01*
X96924857Y-130382476D01*
X97020095Y-130382476D01*
X97162952Y-130430095D01*
X97734380Y-131001523D01*
X97734380Y-130382476D01*
X96734380Y-130049142D02*
X96734380Y-129382476D01*
X97734380Y-129811047D01*
%TO.C,R25*%
X105275142Y-139009380D02*
X104941809Y-138533190D01*
X104703714Y-139009380D02*
X104703714Y-138009380D01*
X105084666Y-138009380D01*
X105179904Y-138057000D01*
X105227523Y-138104619D01*
X105275142Y-138199857D01*
X105275142Y-138342714D01*
X105227523Y-138437952D01*
X105179904Y-138485571D01*
X105084666Y-138533190D01*
X104703714Y-138533190D01*
X105656095Y-138104619D02*
X105703714Y-138057000D01*
X105798952Y-138009380D01*
X106037047Y-138009380D01*
X106132285Y-138057000D01*
X106179904Y-138104619D01*
X106227523Y-138199857D01*
X106227523Y-138295095D01*
X106179904Y-138437952D01*
X105608476Y-139009380D01*
X106227523Y-139009380D01*
X107132285Y-138009380D02*
X106656095Y-138009380D01*
X106608476Y-138485571D01*
X106656095Y-138437952D01*
X106751333Y-138390333D01*
X106989428Y-138390333D01*
X107084666Y-138437952D01*
X107132285Y-138485571D01*
X107179904Y-138580809D01*
X107179904Y-138818904D01*
X107132285Y-138914142D01*
X107084666Y-138961761D01*
X106989428Y-139009380D01*
X106751333Y-139009380D01*
X106656095Y-138961761D01*
X106608476Y-138914142D01*
%TO.C,R24*%
X103068380Y-138310857D02*
X102592190Y-138644190D01*
X103068380Y-138882285D02*
X102068380Y-138882285D01*
X102068380Y-138501333D01*
X102116000Y-138406095D01*
X102163619Y-138358476D01*
X102258857Y-138310857D01*
X102401714Y-138310857D01*
X102496952Y-138358476D01*
X102544571Y-138406095D01*
X102592190Y-138501333D01*
X102592190Y-138882285D01*
X102163619Y-137929904D02*
X102116000Y-137882285D01*
X102068380Y-137787047D01*
X102068380Y-137548952D01*
X102116000Y-137453714D01*
X102163619Y-137406095D01*
X102258857Y-137358476D01*
X102354095Y-137358476D01*
X102496952Y-137406095D01*
X103068380Y-137977523D01*
X103068380Y-137358476D01*
X102401714Y-136501333D02*
X103068380Y-136501333D01*
X102020761Y-136739428D02*
X102735047Y-136977523D01*
X102735047Y-136358476D01*
%TO.C,R17*%
X98281142Y-123642380D02*
X97947809Y-123166190D01*
X97709714Y-123642380D02*
X97709714Y-122642380D01*
X98090666Y-122642380D01*
X98185904Y-122690000D01*
X98233523Y-122737619D01*
X98281142Y-122832857D01*
X98281142Y-122975714D01*
X98233523Y-123070952D01*
X98185904Y-123118571D01*
X98090666Y-123166190D01*
X97709714Y-123166190D01*
X99233523Y-123642380D02*
X98662095Y-123642380D01*
X98947809Y-123642380D02*
X98947809Y-122642380D01*
X98852571Y-122785238D01*
X98757333Y-122880476D01*
X98662095Y-122928095D01*
X99566857Y-122642380D02*
X100233523Y-122642380D01*
X99804952Y-123642380D01*
X96582380Y-122888214D02*
X95582380Y-122888214D01*
X95582380Y-122650119D01*
X95630000Y-122507261D01*
X95725238Y-122412023D01*
X95820476Y-122364404D01*
X96010952Y-122316785D01*
X96153809Y-122316785D01*
X96344285Y-122364404D01*
X96439523Y-122412023D01*
X96534761Y-122507261D01*
X96582380Y-122650119D01*
X96582380Y-122888214D01*
X96582380Y-121888214D02*
X95582380Y-121888214D01*
X96582380Y-121316785D01*
X95582380Y-121316785D01*
X96582380Y-120840595D02*
X95582380Y-120840595D01*
X95582380Y-120459642D01*
X95630000Y-120364404D01*
X95677619Y-120316785D01*
X95772857Y-120269166D01*
X95915714Y-120269166D01*
X96010952Y-120316785D01*
X96058571Y-120364404D01*
X96106190Y-120459642D01*
X96106190Y-120840595D01*
%TO.C,R16*%
X97909142Y-107894380D02*
X97575809Y-107418190D01*
X97337714Y-107894380D02*
X97337714Y-106894380D01*
X97718666Y-106894380D01*
X97813904Y-106942000D01*
X97861523Y-106989619D01*
X97909142Y-107084857D01*
X97909142Y-107227714D01*
X97861523Y-107322952D01*
X97813904Y-107370571D01*
X97718666Y-107418190D01*
X97337714Y-107418190D01*
X98861523Y-107894380D02*
X98290095Y-107894380D01*
X98575809Y-107894380D02*
X98575809Y-106894380D01*
X98480571Y-107037238D01*
X98385333Y-107132476D01*
X98290095Y-107180095D01*
X99718666Y-106894380D02*
X99528190Y-106894380D01*
X99432952Y-106942000D01*
X99385333Y-106989619D01*
X99290095Y-107132476D01*
X99242476Y-107322952D01*
X99242476Y-107703904D01*
X99290095Y-107799142D01*
X99337714Y-107846761D01*
X99432952Y-107894380D01*
X99623428Y-107894380D01*
X99718666Y-107846761D01*
X99766285Y-107799142D01*
X99813904Y-107703904D01*
X99813904Y-107465809D01*
X99766285Y-107370571D01*
X99718666Y-107322952D01*
X99623428Y-107275333D01*
X99432952Y-107275333D01*
X99337714Y-107322952D01*
X99290095Y-107370571D01*
X99242476Y-107465809D01*
X96337380Y-107203714D02*
X95337380Y-107203714D01*
X95337380Y-106965619D01*
X95385000Y-106822761D01*
X95480238Y-106727523D01*
X95575476Y-106679904D01*
X95765952Y-106632285D01*
X95908809Y-106632285D01*
X96099285Y-106679904D01*
X96194523Y-106727523D01*
X96289761Y-106822761D01*
X96337380Y-106965619D01*
X96337380Y-107203714D01*
X96337380Y-106203714D02*
X95337380Y-106203714D01*
X96337380Y-105632285D01*
X95337380Y-105632285D01*
X96337380Y-105156095D02*
X95337380Y-105156095D01*
X95337380Y-104775142D01*
X95385000Y-104679904D01*
X95432619Y-104632285D01*
X95527857Y-104584666D01*
X95670714Y-104584666D01*
X95765952Y-104632285D01*
X95813571Y-104679904D01*
X95861190Y-104775142D01*
X95861190Y-105156095D01*
%TO.C,D6*%
X118435380Y-128921095D02*
X117435380Y-128921095D01*
X117435380Y-128683000D01*
X117483000Y-128540142D01*
X117578238Y-128444904D01*
X117673476Y-128397285D01*
X117863952Y-128349666D01*
X118006809Y-128349666D01*
X118197285Y-128397285D01*
X118292523Y-128444904D01*
X118387761Y-128540142D01*
X118435380Y-128683000D01*
X118435380Y-128921095D01*
X117435380Y-127492523D02*
X117435380Y-127683000D01*
X117483000Y-127778238D01*
X117530619Y-127825857D01*
X117673476Y-127921095D01*
X117863952Y-127968714D01*
X118244904Y-127968714D01*
X118340142Y-127921095D01*
X118387761Y-127873476D01*
X118435380Y-127778238D01*
X118435380Y-127587761D01*
X118387761Y-127492523D01*
X118340142Y-127444904D01*
X118244904Y-127397285D01*
X118006809Y-127397285D01*
X117911571Y-127444904D01*
X117863952Y-127492523D01*
X117816333Y-127587761D01*
X117816333Y-127778238D01*
X117863952Y-127873476D01*
X117911571Y-127921095D01*
X118006809Y-127968714D01*
%TO.C,C39*%
X105386142Y-127261857D02*
X105433761Y-127309476D01*
X105481380Y-127452333D01*
X105481380Y-127547571D01*
X105433761Y-127690428D01*
X105338523Y-127785666D01*
X105243285Y-127833285D01*
X105052809Y-127880904D01*
X104909952Y-127880904D01*
X104719476Y-127833285D01*
X104624238Y-127785666D01*
X104529000Y-127690428D01*
X104481380Y-127547571D01*
X104481380Y-127452333D01*
X104529000Y-127309476D01*
X104576619Y-127261857D01*
X104481380Y-126928523D02*
X104481380Y-126309476D01*
X104862333Y-126642809D01*
X104862333Y-126499952D01*
X104909952Y-126404714D01*
X104957571Y-126357095D01*
X105052809Y-126309476D01*
X105290904Y-126309476D01*
X105386142Y-126357095D01*
X105433761Y-126404714D01*
X105481380Y-126499952D01*
X105481380Y-126785666D01*
X105433761Y-126880904D01*
X105386142Y-126928523D01*
X105481380Y-125833285D02*
X105481380Y-125642809D01*
X105433761Y-125547571D01*
X105386142Y-125499952D01*
X105243285Y-125404714D01*
X105052809Y-125357095D01*
X104671857Y-125357095D01*
X104576619Y-125404714D01*
X104529000Y-125452333D01*
X104481380Y-125547571D01*
X104481380Y-125738047D01*
X104529000Y-125833285D01*
X104576619Y-125880904D01*
X104671857Y-125928523D01*
X104909952Y-125928523D01*
X105005190Y-125880904D01*
X105052809Y-125833285D01*
X105100428Y-125738047D01*
X105100428Y-125547571D01*
X105052809Y-125452333D01*
X105005190Y-125404714D01*
X104909952Y-125357095D01*
%TO.C,C36*%
X93957142Y-131334857D02*
X94004761Y-131382476D01*
X94052380Y-131525333D01*
X94052380Y-131620571D01*
X94004761Y-131763428D01*
X93909523Y-131858666D01*
X93814285Y-131906285D01*
X93623809Y-131953904D01*
X93480952Y-131953904D01*
X93290476Y-131906285D01*
X93195238Y-131858666D01*
X93100000Y-131763428D01*
X93052380Y-131620571D01*
X93052380Y-131525333D01*
X93100000Y-131382476D01*
X93147619Y-131334857D01*
X93052380Y-131001523D02*
X93052380Y-130382476D01*
X93433333Y-130715809D01*
X93433333Y-130572952D01*
X93480952Y-130477714D01*
X93528571Y-130430095D01*
X93623809Y-130382476D01*
X93861904Y-130382476D01*
X93957142Y-130430095D01*
X94004761Y-130477714D01*
X94052380Y-130572952D01*
X94052380Y-130858666D01*
X94004761Y-130953904D01*
X93957142Y-131001523D01*
X93052380Y-129525333D02*
X93052380Y-129715809D01*
X93100000Y-129811047D01*
X93147619Y-129858666D01*
X93290476Y-129953904D01*
X93480952Y-130001523D01*
X93861904Y-130001523D01*
X93957142Y-129953904D01*
X94004761Y-129906285D01*
X94052380Y-129811047D01*
X94052380Y-129620571D01*
X94004761Y-129525333D01*
X93957142Y-129477714D01*
X93861904Y-129430095D01*
X93623809Y-129430095D01*
X93528571Y-129477714D01*
X93480952Y-129525333D01*
X93433333Y-129620571D01*
X93433333Y-129811047D01*
X93480952Y-129906285D01*
X93528571Y-129953904D01*
X93623809Y-130001523D01*
%TO.C,C33*%
X108815142Y-138564857D02*
X108862761Y-138612476D01*
X108910380Y-138755333D01*
X108910380Y-138850571D01*
X108862761Y-138993428D01*
X108767523Y-139088666D01*
X108672285Y-139136285D01*
X108481809Y-139183904D01*
X108338952Y-139183904D01*
X108148476Y-139136285D01*
X108053238Y-139088666D01*
X107958000Y-138993428D01*
X107910380Y-138850571D01*
X107910380Y-138755333D01*
X107958000Y-138612476D01*
X108005619Y-138564857D01*
X107910380Y-138231523D02*
X107910380Y-137612476D01*
X108291333Y-137945809D01*
X108291333Y-137802952D01*
X108338952Y-137707714D01*
X108386571Y-137660095D01*
X108481809Y-137612476D01*
X108719904Y-137612476D01*
X108815142Y-137660095D01*
X108862761Y-137707714D01*
X108910380Y-137802952D01*
X108910380Y-138088666D01*
X108862761Y-138183904D01*
X108815142Y-138231523D01*
X107910380Y-137279142D02*
X107910380Y-136660095D01*
X108291333Y-136993428D01*
X108291333Y-136850571D01*
X108338952Y-136755333D01*
X108386571Y-136707714D01*
X108481809Y-136660095D01*
X108719904Y-136660095D01*
X108815142Y-136707714D01*
X108862761Y-136755333D01*
X108910380Y-136850571D01*
X108910380Y-137136285D01*
X108862761Y-137231523D01*
X108815142Y-137279142D01*
%TO.C,C31*%
X97909142Y-119737142D02*
X97861523Y-119784761D01*
X97718666Y-119832380D01*
X97623428Y-119832380D01*
X97480571Y-119784761D01*
X97385333Y-119689523D01*
X97337714Y-119594285D01*
X97290095Y-119403809D01*
X97290095Y-119260952D01*
X97337714Y-119070476D01*
X97385333Y-118975238D01*
X97480571Y-118880000D01*
X97623428Y-118832380D01*
X97718666Y-118832380D01*
X97861523Y-118880000D01*
X97909142Y-118927619D01*
X98242476Y-118832380D02*
X98861523Y-118832380D01*
X98528190Y-119213333D01*
X98671047Y-119213333D01*
X98766285Y-119260952D01*
X98813904Y-119308571D01*
X98861523Y-119403809D01*
X98861523Y-119641904D01*
X98813904Y-119737142D01*
X98766285Y-119784761D01*
X98671047Y-119832380D01*
X98385333Y-119832380D01*
X98290095Y-119784761D01*
X98242476Y-119737142D01*
X99813904Y-119832380D02*
X99242476Y-119832380D01*
X99528190Y-119832380D02*
X99528190Y-118832380D01*
X99432952Y-118975238D01*
X99337714Y-119070476D01*
X99242476Y-119118095D01*
%TO.C,C19*%
X132538742Y-128785857D02*
X132586361Y-128833476D01*
X132633980Y-128976333D01*
X132633980Y-129071571D01*
X132586361Y-129214428D01*
X132491123Y-129309666D01*
X132395885Y-129357285D01*
X132205409Y-129404904D01*
X132062552Y-129404904D01*
X131872076Y-129357285D01*
X131776838Y-129309666D01*
X131681600Y-129214428D01*
X131633980Y-129071571D01*
X131633980Y-128976333D01*
X131681600Y-128833476D01*
X131729219Y-128785857D01*
X132633980Y-127833476D02*
X132633980Y-128404904D01*
X132633980Y-128119190D02*
X131633980Y-128119190D01*
X131776838Y-128214428D01*
X131872076Y-128309666D01*
X131919695Y-128404904D01*
X132633980Y-127357285D02*
X132633980Y-127166809D01*
X132586361Y-127071571D01*
X132538742Y-127023952D01*
X132395885Y-126928714D01*
X132205409Y-126881095D01*
X131824457Y-126881095D01*
X131729219Y-126928714D01*
X131681600Y-126976333D01*
X131633980Y-127071571D01*
X131633980Y-127262047D01*
X131681600Y-127357285D01*
X131729219Y-127404904D01*
X131824457Y-127452523D01*
X132062552Y-127452523D01*
X132157790Y-127404904D01*
X132205409Y-127357285D01*
X132253028Y-127262047D01*
X132253028Y-127071571D01*
X132205409Y-126976333D01*
X132157790Y-126928714D01*
X132062552Y-126881095D01*
X129143285Y-133167380D02*
X129143285Y-132167380D01*
X129381380Y-132167380D01*
X129524238Y-132215000D01*
X129619476Y-132310238D01*
X129667095Y-132405476D01*
X129714714Y-132595952D01*
X129714714Y-132738809D01*
X129667095Y-132929285D01*
X129619476Y-133024523D01*
X129524238Y-133119761D01*
X129381380Y-133167380D01*
X129143285Y-133167380D01*
X130143285Y-133167380D02*
X130143285Y-132167380D01*
X130714714Y-133167380D01*
X130714714Y-132167380D01*
X131190904Y-133167380D02*
X131190904Y-132167380D01*
X131571857Y-132167380D01*
X131667095Y-132215000D01*
X131714714Y-132262619D01*
X131762333Y-132357857D01*
X131762333Y-132500714D01*
X131714714Y-132595952D01*
X131667095Y-132643571D01*
X131571857Y-132691190D01*
X131190904Y-132691190D01*
%TO.C,C18*%
X108688142Y-144152857D02*
X108735761Y-144200476D01*
X108783380Y-144343333D01*
X108783380Y-144438571D01*
X108735761Y-144581428D01*
X108640523Y-144676666D01*
X108545285Y-144724285D01*
X108354809Y-144771904D01*
X108211952Y-144771904D01*
X108021476Y-144724285D01*
X107926238Y-144676666D01*
X107831000Y-144581428D01*
X107783380Y-144438571D01*
X107783380Y-144343333D01*
X107831000Y-144200476D01*
X107878619Y-144152857D01*
X108783380Y-143200476D02*
X108783380Y-143771904D01*
X108783380Y-143486190D02*
X107783380Y-143486190D01*
X107926238Y-143581428D01*
X108021476Y-143676666D01*
X108069095Y-143771904D01*
X108211952Y-142629047D02*
X108164333Y-142724285D01*
X108116714Y-142771904D01*
X108021476Y-142819523D01*
X107973857Y-142819523D01*
X107878619Y-142771904D01*
X107831000Y-142724285D01*
X107783380Y-142629047D01*
X107783380Y-142438571D01*
X107831000Y-142343333D01*
X107878619Y-142295714D01*
X107973857Y-142248095D01*
X108021476Y-142248095D01*
X108116714Y-142295714D01*
X108164333Y-142343333D01*
X108211952Y-142438571D01*
X108211952Y-142629047D01*
X108259571Y-142724285D01*
X108307190Y-142771904D01*
X108402428Y-142819523D01*
X108592904Y-142819523D01*
X108688142Y-142771904D01*
X108735761Y-142724285D01*
X108783380Y-142629047D01*
X108783380Y-142438571D01*
X108735761Y-142343333D01*
X108688142Y-142295714D01*
X108592904Y-142248095D01*
X108402428Y-142248095D01*
X108307190Y-142295714D01*
X108259571Y-142343333D01*
X108211952Y-142438571D01*
%TO.C,C17*%
X97020142Y-142978142D02*
X96972523Y-143025761D01*
X96829666Y-143073380D01*
X96734428Y-143073380D01*
X96591571Y-143025761D01*
X96496333Y-142930523D01*
X96448714Y-142835285D01*
X96401095Y-142644809D01*
X96401095Y-142501952D01*
X96448714Y-142311476D01*
X96496333Y-142216238D01*
X96591571Y-142121000D01*
X96734428Y-142073380D01*
X96829666Y-142073380D01*
X96972523Y-142121000D01*
X97020142Y-142168619D01*
X97972523Y-143073380D02*
X97401095Y-143073380D01*
X97686809Y-143073380D02*
X97686809Y-142073380D01*
X97591571Y-142216238D01*
X97496333Y-142311476D01*
X97401095Y-142359095D01*
X98305857Y-142073380D02*
X98972523Y-142073380D01*
X98543952Y-143073380D01*
X96377285Y-141803380D02*
X96377285Y-140803380D01*
X96615380Y-140803380D01*
X96758238Y-140851000D01*
X96853476Y-140946238D01*
X96901095Y-141041476D01*
X96948714Y-141231952D01*
X96948714Y-141374809D01*
X96901095Y-141565285D01*
X96853476Y-141660523D01*
X96758238Y-141755761D01*
X96615380Y-141803380D01*
X96377285Y-141803380D01*
X97377285Y-141803380D02*
X97377285Y-140803380D01*
X97948714Y-141803380D01*
X97948714Y-140803380D01*
X98424904Y-141803380D02*
X98424904Y-140803380D01*
X98805857Y-140803380D01*
X98901095Y-140851000D01*
X98948714Y-140898619D01*
X98996333Y-140993857D01*
X98996333Y-141136714D01*
X98948714Y-141231952D01*
X98901095Y-141279571D01*
X98805857Y-141327190D01*
X98424904Y-141327190D01*
%TO.C,J3*%
X100925380Y-99266333D02*
X101639666Y-99266333D01*
X101782523Y-99313952D01*
X101877761Y-99409190D01*
X101925380Y-99552047D01*
X101925380Y-99647285D01*
X100925380Y-98885380D02*
X100925380Y-98266333D01*
X101306333Y-98599666D01*
X101306333Y-98456809D01*
X101353952Y-98361571D01*
X101401571Y-98313952D01*
X101496809Y-98266333D01*
X101734904Y-98266333D01*
X101830142Y-98313952D01*
X101877761Y-98361571D01*
X101925380Y-98456809D01*
X101925380Y-98742523D01*
X101877761Y-98837761D01*
X101830142Y-98885380D01*
X102687880Y-96337380D02*
X102687880Y-95337380D01*
X102925976Y-95337380D01*
X103068833Y-95385000D01*
X103164071Y-95480238D01*
X103211690Y-95575476D01*
X103259309Y-95765952D01*
X103259309Y-95908809D01*
X103211690Y-96099285D01*
X103164071Y-96194523D01*
X103068833Y-96289761D01*
X102925976Y-96337380D01*
X102687880Y-96337380D01*
X103687880Y-95813571D02*
X104021214Y-95813571D01*
X104164071Y-96337380D02*
X103687880Y-96337380D01*
X103687880Y-95337380D01*
X104164071Y-95337380D01*
X104449785Y-95337380D02*
X105021214Y-95337380D01*
X104735500Y-96337380D02*
X104735500Y-95337380D01*
X105116452Y-96432619D02*
X105878357Y-96432619D01*
X106687880Y-96242142D02*
X106640261Y-96289761D01*
X106497404Y-96337380D01*
X106402166Y-96337380D01*
X106259309Y-96289761D01*
X106164071Y-96194523D01*
X106116452Y-96099285D01*
X106068833Y-95908809D01*
X106068833Y-95765952D01*
X106116452Y-95575476D01*
X106164071Y-95480238D01*
X106259309Y-95385000D01*
X106402166Y-95337380D01*
X106497404Y-95337380D01*
X106640261Y-95385000D01*
X106687880Y-95432619D01*
X107306928Y-95337380D02*
X107497404Y-95337380D01*
X107592642Y-95385000D01*
X107687880Y-95480238D01*
X107735500Y-95670714D01*
X107735500Y-96004047D01*
X107687880Y-96194523D01*
X107592642Y-96289761D01*
X107497404Y-96337380D01*
X107306928Y-96337380D01*
X107211690Y-96289761D01*
X107116452Y-96194523D01*
X107068833Y-96004047D01*
X107068833Y-95670714D01*
X107116452Y-95480238D01*
X107211690Y-95385000D01*
X107306928Y-95337380D01*
X108164071Y-96337380D02*
X108164071Y-95337380D01*
X108735500Y-96337380D01*
X108735500Y-95337380D01*
X109211690Y-96337380D02*
X109211690Y-95337380D01*
X109783119Y-96337380D01*
X109783119Y-95337380D01*
%TO.C,J2*%
X144319666Y-114387380D02*
X144319666Y-115101666D01*
X144272047Y-115244523D01*
X144176809Y-115339761D01*
X144033952Y-115387380D01*
X143938714Y-115387380D01*
X144748238Y-114482619D02*
X144795857Y-114435000D01*
X144891095Y-114387380D01*
X145129190Y-114387380D01*
X145224428Y-114435000D01*
X145272047Y-114482619D01*
X145319666Y-114577857D01*
X145319666Y-114673095D01*
X145272047Y-114815952D01*
X144700619Y-115387380D01*
X145319666Y-115387380D01*
X138065380Y-123213761D02*
X138208238Y-123261380D01*
X138446333Y-123261380D01*
X138541571Y-123213761D01*
X138589190Y-123166142D01*
X138636809Y-123070904D01*
X138636809Y-122975666D01*
X138589190Y-122880428D01*
X138541571Y-122832809D01*
X138446333Y-122785190D01*
X138255857Y-122737571D01*
X138160619Y-122689952D01*
X138113000Y-122642333D01*
X138065380Y-122547095D01*
X138065380Y-122451857D01*
X138113000Y-122356619D01*
X138160619Y-122309000D01*
X138255857Y-122261380D01*
X138493952Y-122261380D01*
X138636809Y-122309000D01*
X139065380Y-123261380D02*
X139065380Y-122261380D01*
X139541571Y-123261380D02*
X139541571Y-122261380D01*
X139922523Y-122261380D01*
X140017761Y-122309000D01*
X140065380Y-122356619D01*
X140113000Y-122451857D01*
X140113000Y-122594714D01*
X140065380Y-122689952D01*
X140017761Y-122737571D01*
X139922523Y-122785190D01*
X139541571Y-122785190D01*
X140541571Y-123261380D02*
X140541571Y-122261380D01*
X140874904Y-122975666D01*
X141208238Y-122261380D01*
X141208238Y-123261380D01*
X141446333Y-123356619D02*
X142208238Y-123356619D01*
X143017761Y-123166142D02*
X142970142Y-123213761D01*
X142827285Y-123261380D01*
X142732047Y-123261380D01*
X142589190Y-123213761D01*
X142493952Y-123118523D01*
X142446333Y-123023285D01*
X142398714Y-122832809D01*
X142398714Y-122689952D01*
X142446333Y-122499476D01*
X142493952Y-122404238D01*
X142589190Y-122309000D01*
X142732047Y-122261380D01*
X142827285Y-122261380D01*
X142970142Y-122309000D01*
X143017761Y-122356619D01*
X143636809Y-122261380D02*
X143827285Y-122261380D01*
X143922523Y-122309000D01*
X144017761Y-122404238D01*
X144065380Y-122594714D01*
X144065380Y-122928047D01*
X144017761Y-123118523D01*
X143922523Y-123213761D01*
X143827285Y-123261380D01*
X143636809Y-123261380D01*
X143541571Y-123213761D01*
X143446333Y-123118523D01*
X143398714Y-122928047D01*
X143398714Y-122594714D01*
X143446333Y-122404238D01*
X143541571Y-122309000D01*
X143636809Y-122261380D01*
X144493952Y-123261380D02*
X144493952Y-122261380D01*
X145065380Y-123261380D01*
X145065380Y-122261380D01*
X145541571Y-123261380D02*
X145541571Y-122261380D01*
X146113000Y-123261380D01*
X146113000Y-122261380D01*
%TO.C,J1*%
X144319666Y-104945380D02*
X144319666Y-105659666D01*
X144272047Y-105802523D01*
X144176809Y-105897761D01*
X144033952Y-105945380D01*
X143938714Y-105945380D01*
X145319666Y-105945380D02*
X144748238Y-105945380D01*
X145033952Y-105945380D02*
X145033952Y-104945380D01*
X144938714Y-105088238D01*
X144843476Y-105183476D01*
X144748238Y-105231095D01*
X135597000Y-113609380D02*
X135597000Y-112609380D01*
X135835095Y-112609380D01*
X135977952Y-112657000D01*
X136073190Y-112752238D01*
X136120809Y-112847476D01*
X136168428Y-113037952D01*
X136168428Y-113180809D01*
X136120809Y-113371285D01*
X136073190Y-113466523D01*
X135977952Y-113561761D01*
X135835095Y-113609380D01*
X135597000Y-113609380D01*
X136597000Y-113085571D02*
X136930333Y-113085571D01*
X137073190Y-113609380D02*
X136597000Y-113609380D01*
X136597000Y-112609380D01*
X137073190Y-112609380D01*
X137358904Y-112609380D02*
X137930333Y-112609380D01*
X137644619Y-113609380D02*
X137644619Y-112609380D01*
X138025571Y-113704619D02*
X138787476Y-113704619D01*
X139597000Y-113514142D02*
X139549380Y-113561761D01*
X139406523Y-113609380D01*
X139311285Y-113609380D01*
X139168428Y-113561761D01*
X139073190Y-113466523D01*
X139025571Y-113371285D01*
X138977952Y-113180809D01*
X138977952Y-113037952D01*
X139025571Y-112847476D01*
X139073190Y-112752238D01*
X139168428Y-112657000D01*
X139311285Y-112609380D01*
X139406523Y-112609380D01*
X139549380Y-112657000D01*
X139597000Y-112704619D01*
X140216047Y-112609380D02*
X140406523Y-112609380D01*
X140501761Y-112657000D01*
X140597000Y-112752238D01*
X140644619Y-112942714D01*
X140644619Y-113276047D01*
X140597000Y-113466523D01*
X140501761Y-113561761D01*
X140406523Y-113609380D01*
X140216047Y-113609380D01*
X140120809Y-113561761D01*
X140025571Y-113466523D01*
X139977952Y-113276047D01*
X139977952Y-112942714D01*
X140025571Y-112752238D01*
X140120809Y-112657000D01*
X140216047Y-112609380D01*
X141073190Y-113609380D02*
X141073190Y-112609380D01*
X141644619Y-113609380D01*
X141644619Y-112609380D01*
X142120809Y-113609380D02*
X142120809Y-112609380D01*
X142692238Y-113609380D01*
X142692238Y-112609380D01*
X142930333Y-113704619D02*
X143692238Y-113704619D01*
X143930333Y-113609380D02*
X143930333Y-112609380D01*
X144311285Y-112609380D01*
X144406523Y-112657000D01*
X144454142Y-112704619D01*
X144501761Y-112799857D01*
X144501761Y-112942714D01*
X144454142Y-113037952D01*
X144406523Y-113085571D01*
X144311285Y-113133190D01*
X143930333Y-113133190D01*
X144835095Y-112609380D02*
X145073190Y-113609380D01*
X145263666Y-112895095D01*
X145454142Y-113609380D01*
X145692238Y-112609380D01*
X146644619Y-113609380D02*
X146311285Y-113133190D01*
X146073190Y-113609380D02*
X146073190Y-112609380D01*
X146454142Y-112609380D01*
X146549380Y-112657000D01*
X146597000Y-112704619D01*
X146644619Y-112799857D01*
X146644619Y-112942714D01*
X146597000Y-113037952D01*
X146549380Y-113085571D01*
X146454142Y-113133190D01*
X146073190Y-113133190D01*
%TD*%
M02*
