%TF.GenerationSoftware,KiCad,Pcbnew,(5.1.9)-1*%
%TF.CreationDate,2021-06-27T13:52:13-04:00*%
%TF.ProjectId,detector_circuit,64657465-6374-46f7-925f-636972637569,rev?*%
%TF.SameCoordinates,Original*%
%TF.FileFunction,Soldermask,Bot*%
%TF.FilePolarity,Negative*%
%FSLAX46Y46*%
G04 Gerber Fmt 4.6, Leading zero omitted, Abs format (unit mm)*
G04 Created by KiCad (PCBNEW (5.1.9)-1) date 2021-06-27 13:52:13*
%MOMM*%
%LPD*%
G01*
G04 APERTURE LIST*
%ADD10C,7.000000*%
%ADD11C,2.200000*%
%ADD12C,1.200000*%
%ADD13R,1.200000X1.200000*%
%ADD14C,1.500000*%
%ADD15R,1.700000X1.700000*%
%ADD16O,1.700000X1.700000*%
%ADD17O,1.200000X1.750000*%
G04 APERTURE END LIST*
D10*
%TO.C,REF\u002A\u002A*%
X90170000Y-140970000D03*
%TD*%
%TO.C,REF\u002A\u002A*%
X90170000Y-54610000D03*
%TD*%
%TO.C,REF\u002A\u002A*%
X171450000Y-54610000D03*
%TD*%
%TO.C,REF\u002A\u002A*%
X171450000Y-140970000D03*
%TD*%
D11*
%TO.C,J10*%
X110148000Y-50419000D03*
X99148000Y-50419000D03*
D12*
X106648000Y-51419000D03*
X104648000Y-51419000D03*
X102648000Y-51419000D03*
X102648000Y-49419000D03*
D13*
X106648000Y-49419000D03*
D12*
X104648000Y-49419000D03*
%TD*%
D14*
%TO.C,Y1*%
X117294000Y-70485000D03*
X122174000Y-70485000D03*
%TD*%
D15*
%TO.C,J1*%
X126619000Y-54610000D03*
D16*
X124079000Y-54610000D03*
X121539000Y-54610000D03*
X118999000Y-54610000D03*
X116459000Y-54610000D03*
%TD*%
D15*
%TO.C,TP15*%
X113665000Y-139065000D03*
%TD*%
D16*
%TO.C,JP1*%
X119507000Y-119761000D03*
D15*
X119507000Y-122301000D03*
%TD*%
D17*
%TO.C,J6*%
X162338000Y-57023000D03*
G36*
G01*
X164938000Y-56397999D02*
X164938000Y-57648001D01*
G75*
G02*
X164688001Y-57898000I-249999J0D01*
G01*
X163987999Y-57898000D01*
G75*
G02*
X163738000Y-57648001I0J249999D01*
G01*
X163738000Y-56397999D01*
G75*
G02*
X163987999Y-56148000I249999J0D01*
G01*
X164688001Y-56148000D01*
G75*
G02*
X164938000Y-56397999I0J-249999D01*
G01*
G37*
%TD*%
%TO.C,J5*%
X153448000Y-57023000D03*
G36*
G01*
X156048000Y-56397999D02*
X156048000Y-57648001D01*
G75*
G02*
X155798001Y-57898000I-249999J0D01*
G01*
X155097999Y-57898000D01*
G75*
G02*
X154848000Y-57648001I0J249999D01*
G01*
X154848000Y-56397999D01*
G75*
G02*
X155097999Y-56148000I249999J0D01*
G01*
X155798001Y-56148000D01*
G75*
G02*
X156048000Y-56397999I0J-249999D01*
G01*
G37*
%TD*%
%TO.C,J4*%
X144050000Y-57023000D03*
G36*
G01*
X146650000Y-56397999D02*
X146650000Y-57648001D01*
G75*
G02*
X146400001Y-57898000I-249999J0D01*
G01*
X145699999Y-57898000D01*
G75*
G02*
X145450000Y-57648001I0J249999D01*
G01*
X145450000Y-56397999D01*
G75*
G02*
X145699999Y-56148000I249999J0D01*
G01*
X146400001Y-56148000D01*
G75*
G02*
X146650000Y-56397999I0J-249999D01*
G01*
G37*
%TD*%
%TO.C,J3*%
X134398000Y-57023000D03*
G36*
G01*
X136998000Y-56397999D02*
X136998000Y-57648001D01*
G75*
G02*
X136748001Y-57898000I-249999J0D01*
G01*
X136047999Y-57898000D01*
G75*
G02*
X135798000Y-57648001I0J249999D01*
G01*
X135798000Y-56397999D01*
G75*
G02*
X136047999Y-56148000I249999J0D01*
G01*
X136748001Y-56148000D01*
G75*
G02*
X136998000Y-56397999I0J-249999D01*
G01*
G37*
%TD*%
D16*
%TO.C,J9*%
X101854000Y-131572000D03*
D15*
X104394000Y-131572000D03*
%TD*%
%TO.C,TP2*%
X95377000Y-107061000D03*
%TD*%
D16*
%TO.C,JP2*%
X143510000Y-70358000D03*
X143510000Y-67818000D03*
D15*
X143510000Y-65278000D03*
%TD*%
D16*
%TO.C,J7*%
X137160000Y-80645000D03*
X137160000Y-78105000D03*
D15*
X137160000Y-75565000D03*
%TD*%
%TO.C,TP17*%
X99822000Y-119126000D03*
%TD*%
%TO.C,TP1*%
X125095000Y-106299000D03*
%TD*%
D16*
%TO.C,JP5*%
X91313000Y-134874000D03*
D15*
X88773000Y-134874000D03*
%TD*%
M02*
