%TF.GenerationSoftware,KiCad,Pcbnew,(5.1.9)-1*%
%TF.CreationDate,2021-06-29T22:39:32-04:00*%
%TF.ProjectId,detector_circuit,64657465-6374-46f7-925f-636972637569,rev?*%
%TF.SameCoordinates,Original*%
%TF.FileFunction,Paste,Bot*%
%TF.FilePolarity,Positive*%
%FSLAX46Y46*%
G04 Gerber Fmt 4.6, Leading zero omitted, Abs format (unit mm)*
G04 Created by KiCad (PCBNEW (5.1.9)-1) date 2021-06-29 22:39:32*
%MOMM*%
%LPD*%
G01*
G04 APERTURE LIST*
%ADD10R,1.450000X0.450000*%
G04 APERTURE END LIST*
%TO.C,C38*%
G36*
G01*
X116655001Y-136338000D02*
X115754999Y-136338000D01*
G75*
G02*
X115505000Y-136088001I0J249999D01*
G01*
X115505000Y-135437999D01*
G75*
G02*
X115754999Y-135188000I249999J0D01*
G01*
X116655001Y-135188000D01*
G75*
G02*
X116905000Y-135437999I0J-249999D01*
G01*
X116905000Y-136088001D01*
G75*
G02*
X116655001Y-136338000I-249999J0D01*
G01*
G37*
G36*
G01*
X116655001Y-138388000D02*
X115754999Y-138388000D01*
G75*
G02*
X115505000Y-138138001I0J249999D01*
G01*
X115505000Y-137487999D01*
G75*
G02*
X115754999Y-137238000I249999J0D01*
G01*
X116655001Y-137238000D01*
G75*
G02*
X116905000Y-137487999I0J-249999D01*
G01*
X116905000Y-138138001D01*
G75*
G02*
X116655001Y-138388000I-249999J0D01*
G01*
G37*
%TD*%
D10*
%TO.C,U7*%
X112897000Y-136397000D03*
X112897000Y-135747000D03*
X112897000Y-135097000D03*
X112897000Y-134447000D03*
X108497000Y-134447000D03*
X108497000Y-135097000D03*
X108497000Y-135747000D03*
X108497000Y-136397000D03*
%TD*%
%TO.C,R46*%
G36*
G01*
X95446001Y-134415000D02*
X94545999Y-134415000D01*
G75*
G02*
X94296000Y-134165001I0J249999D01*
G01*
X94296000Y-133514999D01*
G75*
G02*
X94545999Y-133265000I249999J0D01*
G01*
X95446001Y-133265000D01*
G75*
G02*
X95696000Y-133514999I0J-249999D01*
G01*
X95696000Y-134165001D01*
G75*
G02*
X95446001Y-134415000I-249999J0D01*
G01*
G37*
G36*
G01*
X95446001Y-136465000D02*
X94545999Y-136465000D01*
G75*
G02*
X94296000Y-136215001I0J249999D01*
G01*
X94296000Y-135564999D01*
G75*
G02*
X94545999Y-135315000I249999J0D01*
G01*
X95446001Y-135315000D01*
G75*
G02*
X95696000Y-135564999I0J-249999D01*
G01*
X95696000Y-136215001D01*
G75*
G02*
X95446001Y-136465000I-249999J0D01*
G01*
G37*
%TD*%
%TO.C,R45*%
G36*
G01*
X98494001Y-134433000D02*
X97593999Y-134433000D01*
G75*
G02*
X97344000Y-134183001I0J249999D01*
G01*
X97344000Y-133532999D01*
G75*
G02*
X97593999Y-133283000I249999J0D01*
G01*
X98494001Y-133283000D01*
G75*
G02*
X98744000Y-133532999I0J-249999D01*
G01*
X98744000Y-134183001D01*
G75*
G02*
X98494001Y-134433000I-249999J0D01*
G01*
G37*
G36*
G01*
X98494001Y-136483000D02*
X97593999Y-136483000D01*
G75*
G02*
X97344000Y-136233001I0J249999D01*
G01*
X97344000Y-135582999D01*
G75*
G02*
X97593999Y-135333000I249999J0D01*
G01*
X98494001Y-135333000D01*
G75*
G02*
X98744000Y-135582999I0J-249999D01*
G01*
X98744000Y-136233001D01*
G75*
G02*
X98494001Y-136483000I-249999J0D01*
G01*
G37*
%TD*%
%TO.C,R44*%
G36*
G01*
X108146001Y-130623000D02*
X107245999Y-130623000D01*
G75*
G02*
X106996000Y-130373001I0J249999D01*
G01*
X106996000Y-129722999D01*
G75*
G02*
X107245999Y-129473000I249999J0D01*
G01*
X108146001Y-129473000D01*
G75*
G02*
X108396000Y-129722999I0J-249999D01*
G01*
X108396000Y-130373001D01*
G75*
G02*
X108146001Y-130623000I-249999J0D01*
G01*
G37*
G36*
G01*
X108146001Y-132673000D02*
X107245999Y-132673000D01*
G75*
G02*
X106996000Y-132423001I0J249999D01*
G01*
X106996000Y-131772999D01*
G75*
G02*
X107245999Y-131523000I249999J0D01*
G01*
X108146001Y-131523000D01*
G75*
G02*
X108396000Y-131772999I0J-249999D01*
G01*
X108396000Y-132423001D01*
G75*
G02*
X108146001Y-132673000I-249999J0D01*
G01*
G37*
%TD*%
%TO.C,R43*%
G36*
G01*
X112210001Y-130750000D02*
X111309999Y-130750000D01*
G75*
G02*
X111060000Y-130500001I0J249999D01*
G01*
X111060000Y-129849999D01*
G75*
G02*
X111309999Y-129600000I249999J0D01*
G01*
X112210001Y-129600000D01*
G75*
G02*
X112460000Y-129849999I0J-249999D01*
G01*
X112460000Y-130500001D01*
G75*
G02*
X112210001Y-130750000I-249999J0D01*
G01*
G37*
G36*
G01*
X112210001Y-132800000D02*
X111309999Y-132800000D01*
G75*
G02*
X111060000Y-132550001I0J249999D01*
G01*
X111060000Y-131899999D01*
G75*
G02*
X111309999Y-131650000I249999J0D01*
G01*
X112210001Y-131650000D01*
G75*
G02*
X112460000Y-131899999I0J-249999D01*
G01*
X112460000Y-132550001D01*
G75*
G02*
X112210001Y-132800000I-249999J0D01*
G01*
G37*
%TD*%
%TO.C,C34*%
G36*
G01*
X105352001Y-134424000D02*
X104451999Y-134424000D01*
G75*
G02*
X104202000Y-134174001I0J249999D01*
G01*
X104202000Y-133523999D01*
G75*
G02*
X104451999Y-133274000I249999J0D01*
G01*
X105352001Y-133274000D01*
G75*
G02*
X105602000Y-133523999I0J-249999D01*
G01*
X105602000Y-134174001D01*
G75*
G02*
X105352001Y-134424000I-249999J0D01*
G01*
G37*
G36*
G01*
X105352001Y-136474000D02*
X104451999Y-136474000D01*
G75*
G02*
X104202000Y-136224001I0J249999D01*
G01*
X104202000Y-135573999D01*
G75*
G02*
X104451999Y-135324000I249999J0D01*
G01*
X105352001Y-135324000D01*
G75*
G02*
X105602000Y-135573999I0J-249999D01*
G01*
X105602000Y-136224001D01*
G75*
G02*
X105352001Y-136474000I-249999J0D01*
G01*
G37*
%TD*%
%TO.C,C30*%
G36*
G01*
X101923001Y-134542000D02*
X101022999Y-134542000D01*
G75*
G02*
X100773000Y-134292001I0J249999D01*
G01*
X100773000Y-133641999D01*
G75*
G02*
X101022999Y-133392000I249999J0D01*
G01*
X101923001Y-133392000D01*
G75*
G02*
X102173000Y-133641999I0J-249999D01*
G01*
X102173000Y-134292001D01*
G75*
G02*
X101923001Y-134542000I-249999J0D01*
G01*
G37*
G36*
G01*
X101923001Y-136592000D02*
X101022999Y-136592000D01*
G75*
G02*
X100773000Y-136342001I0J249999D01*
G01*
X100773000Y-135691999D01*
G75*
G02*
X101022999Y-135442000I249999J0D01*
G01*
X101923001Y-135442000D01*
G75*
G02*
X102173000Y-135691999I0J-249999D01*
G01*
X102173000Y-136342001D01*
G75*
G02*
X101923001Y-136592000I-249999J0D01*
G01*
G37*
%TD*%
%TO.C,C29*%
G36*
G01*
X108146001Y-126414000D02*
X107245999Y-126414000D01*
G75*
G02*
X106996000Y-126164001I0J249999D01*
G01*
X106996000Y-125513999D01*
G75*
G02*
X107245999Y-125264000I249999J0D01*
G01*
X108146001Y-125264000D01*
G75*
G02*
X108396000Y-125513999I0J-249999D01*
G01*
X108396000Y-126164001D01*
G75*
G02*
X108146001Y-126414000I-249999J0D01*
G01*
G37*
G36*
G01*
X108146001Y-128464000D02*
X107245999Y-128464000D01*
G75*
G02*
X106996000Y-128214001I0J249999D01*
G01*
X106996000Y-127563999D01*
G75*
G02*
X107245999Y-127314000I249999J0D01*
G01*
X108146001Y-127314000D01*
G75*
G02*
X108396000Y-127563999I0J-249999D01*
G01*
X108396000Y-128214001D01*
G75*
G02*
X108146001Y-128464000I-249999J0D01*
G01*
G37*
%TD*%
%TO.C,C28*%
G36*
G01*
X111702001Y-126414000D02*
X110801999Y-126414000D01*
G75*
G02*
X110552000Y-126164001I0J249999D01*
G01*
X110552000Y-125513999D01*
G75*
G02*
X110801999Y-125264000I249999J0D01*
G01*
X111702001Y-125264000D01*
G75*
G02*
X111952000Y-125513999I0J-249999D01*
G01*
X111952000Y-126164001D01*
G75*
G02*
X111702001Y-126414000I-249999J0D01*
G01*
G37*
G36*
G01*
X111702001Y-128464000D02*
X110801999Y-128464000D01*
G75*
G02*
X110552000Y-128214001I0J249999D01*
G01*
X110552000Y-127563999D01*
G75*
G02*
X110801999Y-127314000I249999J0D01*
G01*
X111702001Y-127314000D01*
G75*
G02*
X111952000Y-127563999I0J-249999D01*
G01*
X111952000Y-128214001D01*
G75*
G02*
X111702001Y-128464000I-249999J0D01*
G01*
G37*
%TD*%
M02*
