%TF.GenerationSoftware,KiCad,Pcbnew,(5.1.9)-1*%
%TF.CreationDate,2021-06-29T22:39:33-04:00*%
%TF.ProjectId,detector_circuit,64657465-6374-46f7-925f-636972637569,rev?*%
%TF.SameCoordinates,Original*%
%TF.FileFunction,Soldermask,Top*%
%TF.FilePolarity,Negative*%
%FSLAX46Y46*%
G04 Gerber Fmt 4.6, Leading zero omitted, Abs format (unit mm)*
G04 Created by KiCad (PCBNEW (5.1.9)-1) date 2021-06-29 22:39:33*
%MOMM*%
%LPD*%
G01*
G04 APERTURE LIST*
%ADD10C,0.100000*%
%ADD11C,7.101600*%
%ADD12C,2.301600*%
%ADD13C,1.301600*%
%ADD14C,1.601600*%
%ADD15O,1.801600X1.801600*%
%ADD16O,1.301600X1.851600*%
G04 APERTURE END LIST*
D10*
%TO.C,U6*%
G36*
X158282000Y-104690000D02*
G01*
X158182000Y-104690000D01*
X158182000Y-105040000D01*
X158282000Y-105040000D01*
X158282000Y-104690000D01*
G37*
X158282000Y-104690000D02*
X158182000Y-104690000D01*
X158182000Y-105040000D01*
X158282000Y-105040000D01*
X158282000Y-104690000D01*
G36*
X158282000Y-103590000D02*
G01*
X158182000Y-103590000D01*
X158182000Y-103240000D01*
X158282000Y-103240000D01*
X158282000Y-103590000D01*
G37*
X158282000Y-103590000D02*
X158182000Y-103590000D01*
X158182000Y-103240000D01*
X158282000Y-103240000D01*
X158282000Y-103590000D01*
G36*
X160742000Y-103590000D02*
G01*
X160842000Y-103590000D01*
X160842000Y-103240000D01*
X160742000Y-103240000D01*
X160742000Y-103590000D01*
G37*
X160742000Y-103590000D02*
X160842000Y-103590000D01*
X160842000Y-103240000D01*
X160742000Y-103240000D01*
X160742000Y-103590000D01*
G36*
X160742000Y-104690000D02*
G01*
X160842000Y-104690000D01*
X160842000Y-105040000D01*
X160742000Y-105040000D01*
X160742000Y-104690000D01*
G37*
X160742000Y-104690000D02*
X160842000Y-104690000D01*
X160842000Y-105040000D01*
X160742000Y-105040000D01*
X160742000Y-104690000D01*
G36*
X158282000Y-104690000D02*
G01*
X158182000Y-104690000D01*
X158182000Y-105040000D01*
X158282000Y-105040000D01*
X158282000Y-104690000D01*
G37*
X158282000Y-104690000D02*
X158182000Y-104690000D01*
X158182000Y-105040000D01*
X158282000Y-105040000D01*
X158282000Y-104690000D01*
G36*
X158282000Y-103590000D02*
G01*
X158182000Y-103590000D01*
X158182000Y-103240000D01*
X158282000Y-103240000D01*
X158282000Y-103590000D01*
G37*
X158282000Y-103590000D02*
X158182000Y-103590000D01*
X158182000Y-103240000D01*
X158282000Y-103240000D01*
X158282000Y-103590000D01*
G36*
X160742000Y-103590000D02*
G01*
X160842000Y-103590000D01*
X160842000Y-103240000D01*
X160742000Y-103240000D01*
X160742000Y-103590000D01*
G37*
X160742000Y-103590000D02*
X160842000Y-103590000D01*
X160842000Y-103240000D01*
X160742000Y-103240000D01*
X160742000Y-103590000D01*
G36*
X160742000Y-104690000D02*
G01*
X160842000Y-104690000D01*
X160842000Y-105040000D01*
X160742000Y-105040000D01*
X160742000Y-104690000D01*
G37*
X160742000Y-104690000D02*
X160842000Y-104690000D01*
X160842000Y-105040000D01*
X160742000Y-105040000D01*
X160742000Y-104690000D01*
%TD*%
D11*
%TO.C,REF\u002A\u002A*%
X90170000Y-54610000D03*
%TD*%
%TO.C,REF\u002A\u002A*%
X171450000Y-54610000D03*
%TD*%
%TO.C,REF\u002A\u002A*%
X171450000Y-140970000D03*
%TD*%
%TO.C,REF\u002A\u002A*%
X90170000Y-140970000D03*
%TD*%
%TO.C,C13*%
G36*
G01*
X107739600Y-68372915D02*
X107739600Y-67415485D01*
G75*
G02*
X108011685Y-67143400I272085J0D01*
G01*
X108719115Y-67143400D01*
G75*
G02*
X108991200Y-67415485I0J-272085D01*
G01*
X108991200Y-68372915D01*
G75*
G02*
X108719115Y-68645000I-272085J0D01*
G01*
X108011685Y-68645000D01*
G75*
G02*
X107739600Y-68372915I0J272085D01*
G01*
G37*
G36*
G01*
X105689600Y-68372915D02*
X105689600Y-67415485D01*
G75*
G02*
X105961685Y-67143400I272085J0D01*
G01*
X106669115Y-67143400D01*
G75*
G02*
X106941200Y-67415485I0J-272085D01*
G01*
X106941200Y-68372915D01*
G75*
G02*
X106669115Y-68645000I-272085J0D01*
G01*
X105961685Y-68645000D01*
G75*
G02*
X105689600Y-68372915I0J272085D01*
G01*
G37*
%TD*%
%TO.C,U10*%
G36*
G01*
X109171600Y-62155200D02*
X109522400Y-62155200D01*
G75*
G02*
X109697800Y-62330600I0J-175400D01*
G01*
X109697800Y-64031400D01*
G75*
G02*
X109522400Y-64206800I-175400J0D01*
G01*
X109171600Y-64206800D01*
G75*
G02*
X108996200Y-64031400I0J175400D01*
G01*
X108996200Y-62330600D01*
G75*
G02*
X109171600Y-62155200I175400J0D01*
G01*
G37*
G36*
G01*
X107901600Y-62155200D02*
X108252400Y-62155200D01*
G75*
G02*
X108427800Y-62330600I0J-175400D01*
G01*
X108427800Y-64031400D01*
G75*
G02*
X108252400Y-64206800I-175400J0D01*
G01*
X107901600Y-64206800D01*
G75*
G02*
X107726200Y-64031400I0J175400D01*
G01*
X107726200Y-62330600D01*
G75*
G02*
X107901600Y-62155200I175400J0D01*
G01*
G37*
G36*
G01*
X106631600Y-62155200D02*
X106982400Y-62155200D01*
G75*
G02*
X107157800Y-62330600I0J-175400D01*
G01*
X107157800Y-64031400D01*
G75*
G02*
X106982400Y-64206800I-175400J0D01*
G01*
X106631600Y-64206800D01*
G75*
G02*
X106456200Y-64031400I0J175400D01*
G01*
X106456200Y-62330600D01*
G75*
G02*
X106631600Y-62155200I175400J0D01*
G01*
G37*
G36*
G01*
X105361600Y-62155200D02*
X105712400Y-62155200D01*
G75*
G02*
X105887800Y-62330600I0J-175400D01*
G01*
X105887800Y-64031400D01*
G75*
G02*
X105712400Y-64206800I-175400J0D01*
G01*
X105361600Y-64206800D01*
G75*
G02*
X105186200Y-64031400I0J175400D01*
G01*
X105186200Y-62330600D01*
G75*
G02*
X105361600Y-62155200I175400J0D01*
G01*
G37*
G36*
G01*
X105361600Y-57205200D02*
X105712400Y-57205200D01*
G75*
G02*
X105887800Y-57380600I0J-175400D01*
G01*
X105887800Y-59081400D01*
G75*
G02*
X105712400Y-59256800I-175400J0D01*
G01*
X105361600Y-59256800D01*
G75*
G02*
X105186200Y-59081400I0J175400D01*
G01*
X105186200Y-57380600D01*
G75*
G02*
X105361600Y-57205200I175400J0D01*
G01*
G37*
G36*
G01*
X106631600Y-57205200D02*
X106982400Y-57205200D01*
G75*
G02*
X107157800Y-57380600I0J-175400D01*
G01*
X107157800Y-59081400D01*
G75*
G02*
X106982400Y-59256800I-175400J0D01*
G01*
X106631600Y-59256800D01*
G75*
G02*
X106456200Y-59081400I0J175400D01*
G01*
X106456200Y-57380600D01*
G75*
G02*
X106631600Y-57205200I175400J0D01*
G01*
G37*
G36*
G01*
X107901600Y-57205200D02*
X108252400Y-57205200D01*
G75*
G02*
X108427800Y-57380600I0J-175400D01*
G01*
X108427800Y-59081400D01*
G75*
G02*
X108252400Y-59256800I-175400J0D01*
G01*
X107901600Y-59256800D01*
G75*
G02*
X107726200Y-59081400I0J175400D01*
G01*
X107726200Y-57380600D01*
G75*
G02*
X107901600Y-57205200I175400J0D01*
G01*
G37*
G36*
G01*
X109171600Y-57205200D02*
X109522400Y-57205200D01*
G75*
G02*
X109697800Y-57380600I0J-175400D01*
G01*
X109697800Y-59081400D01*
G75*
G02*
X109522400Y-59256800I-175400J0D01*
G01*
X109171600Y-59256800D01*
G75*
G02*
X108996200Y-59081400I0J175400D01*
G01*
X108996200Y-57380600D01*
G75*
G02*
X109171600Y-57205200I175400J0D01*
G01*
G37*
%TD*%
D12*
%TO.C,J10*%
X110148000Y-50419000D03*
X99148000Y-50419000D03*
D13*
X106648000Y-51419000D03*
X104648000Y-51419000D03*
X102648000Y-51419000D03*
X102648000Y-49419000D03*
G36*
G01*
X107298800Y-48819000D02*
X107298800Y-50019000D01*
G75*
G02*
X107248000Y-50069800I-50800J0D01*
G01*
X106048000Y-50069800D01*
G75*
G02*
X105997200Y-50019000I0J50800D01*
G01*
X105997200Y-48819000D01*
G75*
G02*
X106048000Y-48768200I50800J0D01*
G01*
X107248000Y-48768200D01*
G75*
G02*
X107298800Y-48819000I0J-50800D01*
G01*
G37*
X104648000Y-49419000D03*
%TD*%
%TO.C,U3*%
G36*
G01*
X147056000Y-129437200D02*
X147706000Y-129437200D01*
G75*
G02*
X147756800Y-129488000I0J-50800D01*
G01*
X147756800Y-131488000D01*
G75*
G02*
X147706000Y-131538800I-50800J0D01*
G01*
X147056000Y-131538800D01*
G75*
G02*
X147005200Y-131488000I0J50800D01*
G01*
X147005200Y-129488000D01*
G75*
G02*
X147056000Y-129437200I50800J0D01*
G01*
G37*
G36*
G01*
X145156000Y-129437200D02*
X145806000Y-129437200D01*
G75*
G02*
X145856800Y-129488000I0J-50800D01*
G01*
X145856800Y-131488000D01*
G75*
G02*
X145806000Y-131538800I-50800J0D01*
G01*
X145156000Y-131538800D01*
G75*
G02*
X145105200Y-131488000I0J50800D01*
G01*
X145105200Y-129488000D01*
G75*
G02*
X145156000Y-129437200I50800J0D01*
G01*
G37*
G36*
G01*
X145156000Y-126017200D02*
X145806000Y-126017200D01*
G75*
G02*
X145856800Y-126068000I0J-50800D01*
G01*
X145856800Y-128068000D01*
G75*
G02*
X145806000Y-128118800I-50800J0D01*
G01*
X145156000Y-128118800D01*
G75*
G02*
X145105200Y-128068000I0J50800D01*
G01*
X145105200Y-126068000D01*
G75*
G02*
X145156000Y-126017200I50800J0D01*
G01*
G37*
G36*
G01*
X146106000Y-126017200D02*
X146756000Y-126017200D01*
G75*
G02*
X146806800Y-126068000I0J-50800D01*
G01*
X146806800Y-128068000D01*
G75*
G02*
X146756000Y-128118800I-50800J0D01*
G01*
X146106000Y-128118800D01*
G75*
G02*
X146055200Y-128068000I0J50800D01*
G01*
X146055200Y-126068000D01*
G75*
G02*
X146106000Y-126017200I50800J0D01*
G01*
G37*
G36*
G01*
X147056000Y-126017200D02*
X147706000Y-126017200D01*
G75*
G02*
X147756800Y-126068000I0J-50800D01*
G01*
X147756800Y-128068000D01*
G75*
G02*
X147706000Y-128118800I-50800J0D01*
G01*
X147056000Y-128118800D01*
G75*
G02*
X147005200Y-128068000I0J50800D01*
G01*
X147005200Y-126068000D01*
G75*
G02*
X147056000Y-126017200I50800J0D01*
G01*
G37*
%TD*%
%TO.C,U1*%
G36*
G01*
X148397000Y-80910700D02*
X159197000Y-80910700D01*
G75*
G02*
X159247800Y-80961500I0J-50800D01*
G01*
X159247800Y-90361500D01*
G75*
G02*
X159197000Y-90412300I-50800J0D01*
G01*
X148397000Y-90412300D01*
G75*
G02*
X148346200Y-90361500I0J50800D01*
G01*
X148346200Y-80961500D01*
G75*
G02*
X148397000Y-80910700I50800J0D01*
G01*
G37*
G36*
G01*
X149587000Y-74160700D02*
X150387000Y-74160700D01*
G75*
G02*
X150437800Y-74211500I0J-50800D01*
G01*
X150437800Y-78811500D01*
G75*
G02*
X150387000Y-78862300I-50800J0D01*
G01*
X149587000Y-78862300D01*
G75*
G02*
X149536200Y-78811500I0J50800D01*
G01*
X149536200Y-74211500D01*
G75*
G02*
X149587000Y-74160700I50800J0D01*
G01*
G37*
G36*
G01*
X150857000Y-74160700D02*
X151657000Y-74160700D01*
G75*
G02*
X151707800Y-74211500I0J-50800D01*
G01*
X151707800Y-78811500D01*
G75*
G02*
X151657000Y-78862300I-50800J0D01*
G01*
X150857000Y-78862300D01*
G75*
G02*
X150806200Y-78811500I0J50800D01*
G01*
X150806200Y-74211500D01*
G75*
G02*
X150857000Y-74160700I50800J0D01*
G01*
G37*
G36*
G01*
X152127000Y-74160700D02*
X152927000Y-74160700D01*
G75*
G02*
X152977800Y-74211500I0J-50800D01*
G01*
X152977800Y-78811500D01*
G75*
G02*
X152927000Y-78862300I-50800J0D01*
G01*
X152127000Y-78862300D01*
G75*
G02*
X152076200Y-78811500I0J50800D01*
G01*
X152076200Y-74211500D01*
G75*
G02*
X152127000Y-74160700I50800J0D01*
G01*
G37*
G36*
G01*
X153397000Y-74160700D02*
X154197000Y-74160700D01*
G75*
G02*
X154247800Y-74211500I0J-50800D01*
G01*
X154247800Y-78811500D01*
G75*
G02*
X154197000Y-78862300I-50800J0D01*
G01*
X153397000Y-78862300D01*
G75*
G02*
X153346200Y-78811500I0J50800D01*
G01*
X153346200Y-74211500D01*
G75*
G02*
X153397000Y-74160700I50800J0D01*
G01*
G37*
G36*
G01*
X154667000Y-74160700D02*
X155467000Y-74160700D01*
G75*
G02*
X155517800Y-74211500I0J-50800D01*
G01*
X155517800Y-78811500D01*
G75*
G02*
X155467000Y-78862300I-50800J0D01*
G01*
X154667000Y-78862300D01*
G75*
G02*
X154616200Y-78811500I0J50800D01*
G01*
X154616200Y-74211500D01*
G75*
G02*
X154667000Y-74160700I50800J0D01*
G01*
G37*
G36*
G01*
X155937000Y-74160700D02*
X156737000Y-74160700D01*
G75*
G02*
X156787800Y-74211500I0J-50800D01*
G01*
X156787800Y-78811500D01*
G75*
G02*
X156737000Y-78862300I-50800J0D01*
G01*
X155937000Y-78862300D01*
G75*
G02*
X155886200Y-78811500I0J50800D01*
G01*
X155886200Y-74211500D01*
G75*
G02*
X155937000Y-74160700I50800J0D01*
G01*
G37*
G36*
G01*
X157207000Y-74160700D02*
X158007000Y-74160700D01*
G75*
G02*
X158057800Y-74211500I0J-50800D01*
G01*
X158057800Y-78811500D01*
G75*
G02*
X158007000Y-78862300I-50800J0D01*
G01*
X157207000Y-78862300D01*
G75*
G02*
X157156200Y-78811500I0J50800D01*
G01*
X157156200Y-74211500D01*
G75*
G02*
X157207000Y-74160700I50800J0D01*
G01*
G37*
%TD*%
D14*
%TO.C,Y1*%
X117294000Y-70485000D03*
X122174000Y-70485000D03*
%TD*%
%TO.C,J1*%
G36*
G01*
X125769000Y-53709200D02*
X127469000Y-53709200D01*
G75*
G02*
X127519800Y-53760000I0J-50800D01*
G01*
X127519800Y-55460000D01*
G75*
G02*
X127469000Y-55510800I-50800J0D01*
G01*
X125769000Y-55510800D01*
G75*
G02*
X125718200Y-55460000I0J50800D01*
G01*
X125718200Y-53760000D01*
G75*
G02*
X125769000Y-53709200I50800J0D01*
G01*
G37*
D15*
X124079000Y-54610000D03*
X121539000Y-54610000D03*
X118999000Y-54610000D03*
X116459000Y-54610000D03*
%TD*%
%TO.C,C4*%
G36*
G01*
X170579200Y-126970715D02*
X170579200Y-126013285D01*
G75*
G02*
X170851285Y-125741200I272085J0D01*
G01*
X171558715Y-125741200D01*
G75*
G02*
X171830800Y-126013285I0J-272085D01*
G01*
X171830800Y-126970715D01*
G75*
G02*
X171558715Y-127242800I-272085J0D01*
G01*
X170851285Y-127242800D01*
G75*
G02*
X170579200Y-126970715I0J272085D01*
G01*
G37*
G36*
G01*
X168529200Y-126970715D02*
X168529200Y-126013285D01*
G75*
G02*
X168801285Y-125741200I272085J0D01*
G01*
X169508715Y-125741200D01*
G75*
G02*
X169780800Y-126013285I0J-272085D01*
G01*
X169780800Y-126970715D01*
G75*
G02*
X169508715Y-127242800I-272085J0D01*
G01*
X168801285Y-127242800D01*
G75*
G02*
X168529200Y-126970715I0J272085D01*
G01*
G37*
%TD*%
%TO.C,TP15*%
G36*
G01*
X112764200Y-139915000D02*
X112764200Y-138215000D01*
G75*
G02*
X112815000Y-138164200I50800J0D01*
G01*
X114515000Y-138164200D01*
G75*
G02*
X114565800Y-138215000I0J-50800D01*
G01*
X114565800Y-139915000D01*
G75*
G02*
X114515000Y-139965800I-50800J0D01*
G01*
X112815000Y-139965800D01*
G75*
G02*
X112764200Y-139915000I0J50800D01*
G01*
G37*
%TD*%
%TO.C,R26*%
G36*
G01*
X114973285Y-131853200D02*
X115930715Y-131853200D01*
G75*
G02*
X116202800Y-132125285I0J-272085D01*
G01*
X116202800Y-132832715D01*
G75*
G02*
X115930715Y-133104800I-272085J0D01*
G01*
X114973285Y-133104800D01*
G75*
G02*
X114701200Y-132832715I0J272085D01*
G01*
X114701200Y-132125285D01*
G75*
G02*
X114973285Y-131853200I272085J0D01*
G01*
G37*
G36*
G01*
X114973285Y-129803200D02*
X115930715Y-129803200D01*
G75*
G02*
X116202800Y-130075285I0J-272085D01*
G01*
X116202800Y-130782715D01*
G75*
G02*
X115930715Y-131054800I-272085J0D01*
G01*
X114973285Y-131054800D01*
G75*
G02*
X114701200Y-130782715I0J272085D01*
G01*
X114701200Y-130075285D01*
G75*
G02*
X114973285Y-129803200I272085J0D01*
G01*
G37*
%TD*%
%TO.C,R34*%
G36*
G01*
X119096715Y-131045800D02*
X118139285Y-131045800D01*
G75*
G02*
X117867200Y-130773715I0J272085D01*
G01*
X117867200Y-130066285D01*
G75*
G02*
X118139285Y-129794200I272085J0D01*
G01*
X119096715Y-129794200D01*
G75*
G02*
X119368800Y-130066285I0J-272085D01*
G01*
X119368800Y-130773715D01*
G75*
G02*
X119096715Y-131045800I-272085J0D01*
G01*
G37*
G36*
G01*
X119096715Y-133095800D02*
X118139285Y-133095800D01*
G75*
G02*
X117867200Y-132823715I0J272085D01*
G01*
X117867200Y-132116285D01*
G75*
G02*
X118139285Y-131844200I272085J0D01*
G01*
X119096715Y-131844200D01*
G75*
G02*
X119368800Y-132116285I0J-272085D01*
G01*
X119368800Y-132823715D01*
G75*
G02*
X119096715Y-133095800I-272085J0D01*
G01*
G37*
%TD*%
%TO.C,JP1*%
X119507000Y-119761000D03*
G36*
G01*
X120407800Y-121451000D02*
X120407800Y-123151000D01*
G75*
G02*
X120357000Y-123201800I-50800J0D01*
G01*
X118657000Y-123201800D01*
G75*
G02*
X118606200Y-123151000I0J50800D01*
G01*
X118606200Y-121451000D01*
G75*
G02*
X118657000Y-121400200I50800J0D01*
G01*
X120357000Y-121400200D01*
G75*
G02*
X120407800Y-121451000I0J-50800D01*
G01*
G37*
%TD*%
%TO.C,R39*%
G36*
G01*
X109630285Y-113438200D02*
X110587715Y-113438200D01*
G75*
G02*
X110859800Y-113710285I0J-272085D01*
G01*
X110859800Y-114417715D01*
G75*
G02*
X110587715Y-114689800I-272085J0D01*
G01*
X109630285Y-114689800D01*
G75*
G02*
X109358200Y-114417715I0J272085D01*
G01*
X109358200Y-113710285D01*
G75*
G02*
X109630285Y-113438200I272085J0D01*
G01*
G37*
G36*
G01*
X109630285Y-111388200D02*
X110587715Y-111388200D01*
G75*
G02*
X110859800Y-111660285I0J-272085D01*
G01*
X110859800Y-112367715D01*
G75*
G02*
X110587715Y-112639800I-272085J0D01*
G01*
X109630285Y-112639800D01*
G75*
G02*
X109358200Y-112367715I0J272085D01*
G01*
X109358200Y-111660285D01*
G75*
G02*
X109630285Y-111388200I272085J0D01*
G01*
G37*
%TD*%
%TO.C,C32*%
G36*
G01*
X97127800Y-136173285D02*
X97127800Y-137130715D01*
G75*
G02*
X96855715Y-137402800I-272085J0D01*
G01*
X96148285Y-137402800D01*
G75*
G02*
X95876200Y-137130715I0J272085D01*
G01*
X95876200Y-136173285D01*
G75*
G02*
X96148285Y-135901200I272085J0D01*
G01*
X96855715Y-135901200D01*
G75*
G02*
X97127800Y-136173285I0J-272085D01*
G01*
G37*
G36*
G01*
X99177800Y-136173285D02*
X99177800Y-137130715D01*
G75*
G02*
X98905715Y-137402800I-272085J0D01*
G01*
X98198285Y-137402800D01*
G75*
G02*
X97926200Y-137130715I0J272085D01*
G01*
X97926200Y-136173285D01*
G75*
G02*
X98198285Y-135901200I272085J0D01*
G01*
X98905715Y-135901200D01*
G75*
G02*
X99177800Y-136173285I0J-272085D01*
G01*
G37*
%TD*%
%TO.C,R19*%
G36*
G01*
X101999200Y-90648715D02*
X101999200Y-89691285D01*
G75*
G02*
X102271285Y-89419200I272085J0D01*
G01*
X102978715Y-89419200D01*
G75*
G02*
X103250800Y-89691285I0J-272085D01*
G01*
X103250800Y-90648715D01*
G75*
G02*
X102978715Y-90920800I-272085J0D01*
G01*
X102271285Y-90920800D01*
G75*
G02*
X101999200Y-90648715I0J272085D01*
G01*
G37*
G36*
G01*
X99949200Y-90648715D02*
X99949200Y-89691285D01*
G75*
G02*
X100221285Y-89419200I272085J0D01*
G01*
X100928715Y-89419200D01*
G75*
G02*
X101200800Y-89691285I0J-272085D01*
G01*
X101200800Y-90648715D01*
G75*
G02*
X100928715Y-90920800I-272085J0D01*
G01*
X100221285Y-90920800D01*
G75*
G02*
X99949200Y-90648715I0J272085D01*
G01*
G37*
%TD*%
%TO.C,L2*%
G36*
G01*
X170571800Y-63386500D02*
X170571800Y-67886500D01*
G75*
G02*
X170521000Y-67937300I-50800J0D01*
G01*
X165521000Y-67937300D01*
G75*
G02*
X165470200Y-67886500I0J50800D01*
G01*
X165470200Y-63386500D01*
G75*
G02*
X165521000Y-63335700I50800J0D01*
G01*
X170521000Y-63335700D01*
G75*
G02*
X170571800Y-63386500I0J-50800D01*
G01*
G37*
G36*
G01*
X170571800Y-73886500D02*
X170571800Y-78386500D01*
G75*
G02*
X170521000Y-78437300I-50800J0D01*
G01*
X165521000Y-78437300D01*
G75*
G02*
X165470200Y-78386500I0J50800D01*
G01*
X165470200Y-73886500D01*
G75*
G02*
X165521000Y-73835700I50800J0D01*
G01*
X170521000Y-73835700D01*
G75*
G02*
X170571800Y-73886500I0J-50800D01*
G01*
G37*
%TD*%
%TO.C,C27*%
G36*
G01*
X93882285Y-120550200D02*
X94839715Y-120550200D01*
G75*
G02*
X95111800Y-120822285I0J-272085D01*
G01*
X95111800Y-121529715D01*
G75*
G02*
X94839715Y-121801800I-272085J0D01*
G01*
X93882285Y-121801800D01*
G75*
G02*
X93610200Y-121529715I0J272085D01*
G01*
X93610200Y-120822285D01*
G75*
G02*
X93882285Y-120550200I272085J0D01*
G01*
G37*
G36*
G01*
X93882285Y-118500200D02*
X94839715Y-118500200D01*
G75*
G02*
X95111800Y-118772285I0J-272085D01*
G01*
X95111800Y-119479715D01*
G75*
G02*
X94839715Y-119751800I-272085J0D01*
G01*
X93882285Y-119751800D01*
G75*
G02*
X93610200Y-119479715I0J272085D01*
G01*
X93610200Y-118772285D01*
G75*
G02*
X93882285Y-118500200I272085J0D01*
G01*
G37*
%TD*%
%TO.C,U12*%
G36*
G01*
X111914200Y-126123000D02*
X111914200Y-125673000D01*
G75*
G02*
X111965000Y-125622200I50800J0D01*
G01*
X113415000Y-125622200D01*
G75*
G02*
X113465800Y-125673000I0J-50800D01*
G01*
X113465800Y-126123000D01*
G75*
G02*
X113415000Y-126173800I-50800J0D01*
G01*
X111965000Y-126173800D01*
G75*
G02*
X111914200Y-126123000I0J50800D01*
G01*
G37*
G36*
G01*
X111914200Y-126773000D02*
X111914200Y-126323000D01*
G75*
G02*
X111965000Y-126272200I50800J0D01*
G01*
X113415000Y-126272200D01*
G75*
G02*
X113465800Y-126323000I0J-50800D01*
G01*
X113465800Y-126773000D01*
G75*
G02*
X113415000Y-126823800I-50800J0D01*
G01*
X111965000Y-126823800D01*
G75*
G02*
X111914200Y-126773000I0J50800D01*
G01*
G37*
G36*
G01*
X111914200Y-127423000D02*
X111914200Y-126973000D01*
G75*
G02*
X111965000Y-126922200I50800J0D01*
G01*
X113415000Y-126922200D01*
G75*
G02*
X113465800Y-126973000I0J-50800D01*
G01*
X113465800Y-127423000D01*
G75*
G02*
X113415000Y-127473800I-50800J0D01*
G01*
X111965000Y-127473800D01*
G75*
G02*
X111914200Y-127423000I0J50800D01*
G01*
G37*
G36*
G01*
X111914200Y-128073000D02*
X111914200Y-127623000D01*
G75*
G02*
X111965000Y-127572200I50800J0D01*
G01*
X113415000Y-127572200D01*
G75*
G02*
X113465800Y-127623000I0J-50800D01*
G01*
X113465800Y-128073000D01*
G75*
G02*
X113415000Y-128123800I-50800J0D01*
G01*
X111965000Y-128123800D01*
G75*
G02*
X111914200Y-128073000I0J50800D01*
G01*
G37*
G36*
G01*
X107514200Y-128073000D02*
X107514200Y-127623000D01*
G75*
G02*
X107565000Y-127572200I50800J0D01*
G01*
X109015000Y-127572200D01*
G75*
G02*
X109065800Y-127623000I0J-50800D01*
G01*
X109065800Y-128073000D01*
G75*
G02*
X109015000Y-128123800I-50800J0D01*
G01*
X107565000Y-128123800D01*
G75*
G02*
X107514200Y-128073000I0J50800D01*
G01*
G37*
G36*
G01*
X107514200Y-127423000D02*
X107514200Y-126973000D01*
G75*
G02*
X107565000Y-126922200I50800J0D01*
G01*
X109015000Y-126922200D01*
G75*
G02*
X109065800Y-126973000I0J-50800D01*
G01*
X109065800Y-127423000D01*
G75*
G02*
X109015000Y-127473800I-50800J0D01*
G01*
X107565000Y-127473800D01*
G75*
G02*
X107514200Y-127423000I0J50800D01*
G01*
G37*
G36*
G01*
X107514200Y-126773000D02*
X107514200Y-126323000D01*
G75*
G02*
X107565000Y-126272200I50800J0D01*
G01*
X109015000Y-126272200D01*
G75*
G02*
X109065800Y-126323000I0J-50800D01*
G01*
X109065800Y-126773000D01*
G75*
G02*
X109015000Y-126823800I-50800J0D01*
G01*
X107565000Y-126823800D01*
G75*
G02*
X107514200Y-126773000I0J50800D01*
G01*
G37*
G36*
G01*
X107514200Y-126123000D02*
X107514200Y-125673000D01*
G75*
G02*
X107565000Y-125622200I50800J0D01*
G01*
X109015000Y-125622200D01*
G75*
G02*
X109065800Y-125673000I0J-50800D01*
G01*
X109065800Y-126123000D01*
G75*
G02*
X109015000Y-126173800I-50800J0D01*
G01*
X107565000Y-126173800D01*
G75*
G02*
X107514200Y-126123000I0J50800D01*
G01*
G37*
%TD*%
%TO.C,R2*%
G36*
G01*
X150905285Y-68153700D02*
X151862715Y-68153700D01*
G75*
G02*
X152134800Y-68425785I0J-272085D01*
G01*
X152134800Y-69133215D01*
G75*
G02*
X151862715Y-69405300I-272085J0D01*
G01*
X150905285Y-69405300D01*
G75*
G02*
X150633200Y-69133215I0J272085D01*
G01*
X150633200Y-68425785D01*
G75*
G02*
X150905285Y-68153700I272085J0D01*
G01*
G37*
G36*
G01*
X150905285Y-66103700D02*
X151862715Y-66103700D01*
G75*
G02*
X152134800Y-66375785I0J-272085D01*
G01*
X152134800Y-67083215D01*
G75*
G02*
X151862715Y-67355300I-272085J0D01*
G01*
X150905285Y-67355300D01*
G75*
G02*
X150633200Y-67083215I0J272085D01*
G01*
X150633200Y-66375785D01*
G75*
G02*
X150905285Y-66103700I272085J0D01*
G01*
G37*
%TD*%
%TO.C,C37*%
G36*
G01*
X109249285Y-119398200D02*
X110206715Y-119398200D01*
G75*
G02*
X110478800Y-119670285I0J-272085D01*
G01*
X110478800Y-120377715D01*
G75*
G02*
X110206715Y-120649800I-272085J0D01*
G01*
X109249285Y-120649800D01*
G75*
G02*
X108977200Y-120377715I0J272085D01*
G01*
X108977200Y-119670285D01*
G75*
G02*
X109249285Y-119398200I272085J0D01*
G01*
G37*
G36*
G01*
X109249285Y-117348200D02*
X110206715Y-117348200D01*
G75*
G02*
X110478800Y-117620285I0J-272085D01*
G01*
X110478800Y-118327715D01*
G75*
G02*
X110206715Y-118599800I-272085J0D01*
G01*
X109249285Y-118599800D01*
G75*
G02*
X108977200Y-118327715I0J272085D01*
G01*
X108977200Y-117620285D01*
G75*
G02*
X109249285Y-117348200I272085J0D01*
G01*
G37*
%TD*%
%TO.C,R42*%
G36*
G01*
X90707285Y-120405200D02*
X91664715Y-120405200D01*
G75*
G02*
X91936800Y-120677285I0J-272085D01*
G01*
X91936800Y-121384715D01*
G75*
G02*
X91664715Y-121656800I-272085J0D01*
G01*
X90707285Y-121656800D01*
G75*
G02*
X90435200Y-121384715I0J272085D01*
G01*
X90435200Y-120677285D01*
G75*
G02*
X90707285Y-120405200I272085J0D01*
G01*
G37*
G36*
G01*
X90707285Y-118355200D02*
X91664715Y-118355200D01*
G75*
G02*
X91936800Y-118627285I0J-272085D01*
G01*
X91936800Y-119334715D01*
G75*
G02*
X91664715Y-119606800I-272085J0D01*
G01*
X90707285Y-119606800D01*
G75*
G02*
X90435200Y-119334715I0J272085D01*
G01*
X90435200Y-118627285D01*
G75*
G02*
X90707285Y-118355200I272085J0D01*
G01*
G37*
%TD*%
%TO.C,C35*%
G36*
G01*
X108575800Y-130331285D02*
X108575800Y-131288715D01*
G75*
G02*
X108303715Y-131560800I-272085J0D01*
G01*
X107596285Y-131560800D01*
G75*
G02*
X107324200Y-131288715I0J272085D01*
G01*
X107324200Y-130331285D01*
G75*
G02*
X107596285Y-130059200I272085J0D01*
G01*
X108303715Y-130059200D01*
G75*
G02*
X108575800Y-130331285I0J-272085D01*
G01*
G37*
G36*
G01*
X110625800Y-130331285D02*
X110625800Y-131288715D01*
G75*
G02*
X110353715Y-131560800I-272085J0D01*
G01*
X109646285Y-131560800D01*
G75*
G02*
X109374200Y-131288715I0J272085D01*
G01*
X109374200Y-130331285D01*
G75*
G02*
X109646285Y-130059200I272085J0D01*
G01*
X110353715Y-130059200D01*
G75*
G02*
X110625800Y-130331285I0J-272085D01*
G01*
G37*
%TD*%
%TO.C,D7*%
G36*
G01*
X168137000Y-84963700D02*
X169937000Y-84963700D01*
G75*
G02*
X169987800Y-85014500I0J-50800D01*
G01*
X169987800Y-88514500D01*
G75*
G02*
X169937000Y-88565300I-50800J0D01*
G01*
X168137000Y-88565300D01*
G75*
G02*
X168086200Y-88514500I0J50800D01*
G01*
X168086200Y-85014500D01*
G75*
G02*
X168137000Y-84963700I50800J0D01*
G01*
G37*
G36*
G01*
X168137000Y-79963700D02*
X169937000Y-79963700D01*
G75*
G02*
X169987800Y-80014500I0J-50800D01*
G01*
X169987800Y-83514500D01*
G75*
G02*
X169937000Y-83565300I-50800J0D01*
G01*
X168137000Y-83565300D01*
G75*
G02*
X168086200Y-83514500I0J50800D01*
G01*
X168086200Y-80014500D01*
G75*
G02*
X168137000Y-79963700I50800J0D01*
G01*
G37*
%TD*%
D16*
%TO.C,J6*%
X162338000Y-57023000D03*
G36*
G01*
X164988800Y-56368365D02*
X164988800Y-57677635D01*
G75*
G02*
X164717635Y-57948800I-271165J0D01*
G01*
X163958365Y-57948800D01*
G75*
G02*
X163687200Y-57677635I0J271165D01*
G01*
X163687200Y-56368365D01*
G75*
G02*
X163958365Y-56097200I271165J0D01*
G01*
X164717635Y-56097200D01*
G75*
G02*
X164988800Y-56368365I0J-271165D01*
G01*
G37*
%TD*%
%TO.C,J5*%
X153448000Y-57023000D03*
G36*
G01*
X156098800Y-56368365D02*
X156098800Y-57677635D01*
G75*
G02*
X155827635Y-57948800I-271165J0D01*
G01*
X155068365Y-57948800D01*
G75*
G02*
X154797200Y-57677635I0J271165D01*
G01*
X154797200Y-56368365D01*
G75*
G02*
X155068365Y-56097200I271165J0D01*
G01*
X155827635Y-56097200D01*
G75*
G02*
X156098800Y-56368365I0J-271165D01*
G01*
G37*
%TD*%
%TO.C,J4*%
X144050000Y-57023000D03*
G36*
G01*
X146700800Y-56368365D02*
X146700800Y-57677635D01*
G75*
G02*
X146429635Y-57948800I-271165J0D01*
G01*
X145670365Y-57948800D01*
G75*
G02*
X145399200Y-57677635I0J271165D01*
G01*
X145399200Y-56368365D01*
G75*
G02*
X145670365Y-56097200I271165J0D01*
G01*
X146429635Y-56097200D01*
G75*
G02*
X146700800Y-56368365I0J-271165D01*
G01*
G37*
%TD*%
%TO.C,J3*%
X134398000Y-57023000D03*
G36*
G01*
X137048800Y-56368365D02*
X137048800Y-57677635D01*
G75*
G02*
X136777635Y-57948800I-271165J0D01*
G01*
X136018365Y-57948800D01*
G75*
G02*
X135747200Y-57677635I0J271165D01*
G01*
X135747200Y-56368365D01*
G75*
G02*
X136018365Y-56097200I271165J0D01*
G01*
X136777635Y-56097200D01*
G75*
G02*
X137048800Y-56368365I0J-271165D01*
G01*
G37*
%TD*%
%TO.C,U6*%
G36*
G01*
X161284234Y-100431600D02*
X161639834Y-100431600D01*
G75*
G02*
X161690634Y-100482400I0J-50800D01*
G01*
X161690634Y-101955600D01*
G75*
G02*
X161639834Y-102006400I-50800J0D01*
G01*
X161284234Y-102006400D01*
G75*
G02*
X161233434Y-101955600I0J50800D01*
G01*
X161233434Y-100482400D01*
G75*
G02*
X161284234Y-100431600I50800J0D01*
G01*
G37*
G36*
G01*
X160634223Y-100431600D02*
X160989823Y-100431600D01*
G75*
G02*
X161040623Y-100482400I0J-50800D01*
G01*
X161040623Y-101955600D01*
G75*
G02*
X160989823Y-102006400I-50800J0D01*
G01*
X160634223Y-102006400D01*
G75*
G02*
X160583423Y-101955600I0J50800D01*
G01*
X160583423Y-100482400D01*
G75*
G02*
X160634223Y-100431600I50800J0D01*
G01*
G37*
G36*
G01*
X159984211Y-100431600D02*
X160339811Y-100431600D01*
G75*
G02*
X160390611Y-100482400I0J-50800D01*
G01*
X160390611Y-101955600D01*
G75*
G02*
X160339811Y-102006400I-50800J0D01*
G01*
X159984211Y-102006400D01*
G75*
G02*
X159933411Y-101955600I0J50800D01*
G01*
X159933411Y-100482400D01*
G75*
G02*
X159984211Y-100431600I50800J0D01*
G01*
G37*
G36*
G01*
X159334200Y-100431600D02*
X159689800Y-100431600D01*
G75*
G02*
X159740600Y-100482400I0J-50800D01*
G01*
X159740600Y-101955600D01*
G75*
G02*
X159689800Y-102006400I-50800J0D01*
G01*
X159334200Y-102006400D01*
G75*
G02*
X159283400Y-101955600I0J50800D01*
G01*
X159283400Y-100482400D01*
G75*
G02*
X159334200Y-100431600I50800J0D01*
G01*
G37*
G36*
G01*
X158684189Y-100431600D02*
X159039789Y-100431600D01*
G75*
G02*
X159090589Y-100482400I0J-50800D01*
G01*
X159090589Y-101955600D01*
G75*
G02*
X159039789Y-102006400I-50800J0D01*
G01*
X158684189Y-102006400D01*
G75*
G02*
X158633389Y-101955600I0J50800D01*
G01*
X158633389Y-100482400D01*
G75*
G02*
X158684189Y-100431600I50800J0D01*
G01*
G37*
G36*
G01*
X158034177Y-100431600D02*
X158389777Y-100431600D01*
G75*
G02*
X158440577Y-100482400I0J-50800D01*
G01*
X158440577Y-101955600D01*
G75*
G02*
X158389777Y-102006400I-50800J0D01*
G01*
X158034177Y-102006400D01*
G75*
G02*
X157983377Y-101955600I0J50800D01*
G01*
X157983377Y-100482400D01*
G75*
G02*
X158034177Y-100431600I50800J0D01*
G01*
G37*
G36*
G01*
X157384166Y-100431600D02*
X157739766Y-100431600D01*
G75*
G02*
X157790566Y-100482400I0J-50800D01*
G01*
X157790566Y-101955600D01*
G75*
G02*
X157739766Y-102006400I-50800J0D01*
G01*
X157384166Y-102006400D01*
G75*
G02*
X157333366Y-101955600I0J50800D01*
G01*
X157333366Y-100482400D01*
G75*
G02*
X157384166Y-100431600I50800J0D01*
G01*
G37*
G36*
G01*
X157384166Y-106273600D02*
X157739766Y-106273600D01*
G75*
G02*
X157790566Y-106324400I0J-50800D01*
G01*
X157790566Y-107797600D01*
G75*
G02*
X157739766Y-107848400I-50800J0D01*
G01*
X157384166Y-107848400D01*
G75*
G02*
X157333366Y-107797600I0J50800D01*
G01*
X157333366Y-106324400D01*
G75*
G02*
X157384166Y-106273600I50800J0D01*
G01*
G37*
G36*
G01*
X158034177Y-106273600D02*
X158389777Y-106273600D01*
G75*
G02*
X158440577Y-106324400I0J-50800D01*
G01*
X158440577Y-107797600D01*
G75*
G02*
X158389777Y-107848400I-50800J0D01*
G01*
X158034177Y-107848400D01*
G75*
G02*
X157983377Y-107797600I0J50800D01*
G01*
X157983377Y-106324400D01*
G75*
G02*
X158034177Y-106273600I50800J0D01*
G01*
G37*
G36*
G01*
X158684189Y-106273600D02*
X159039789Y-106273600D01*
G75*
G02*
X159090589Y-106324400I0J-50800D01*
G01*
X159090589Y-107797600D01*
G75*
G02*
X159039789Y-107848400I-50800J0D01*
G01*
X158684189Y-107848400D01*
G75*
G02*
X158633389Y-107797600I0J50800D01*
G01*
X158633389Y-106324400D01*
G75*
G02*
X158684189Y-106273600I50800J0D01*
G01*
G37*
G36*
G01*
X159334200Y-106273600D02*
X159689800Y-106273600D01*
G75*
G02*
X159740600Y-106324400I0J-50800D01*
G01*
X159740600Y-107797600D01*
G75*
G02*
X159689800Y-107848400I-50800J0D01*
G01*
X159334200Y-107848400D01*
G75*
G02*
X159283400Y-107797600I0J50800D01*
G01*
X159283400Y-106324400D01*
G75*
G02*
X159334200Y-106273600I50800J0D01*
G01*
G37*
G36*
G01*
X159984211Y-106273600D02*
X160339811Y-106273600D01*
G75*
G02*
X160390611Y-106324400I0J-50800D01*
G01*
X160390611Y-107797600D01*
G75*
G02*
X160339811Y-107848400I-50800J0D01*
G01*
X159984211Y-107848400D01*
G75*
G02*
X159933411Y-107797600I0J50800D01*
G01*
X159933411Y-106324400D01*
G75*
G02*
X159984211Y-106273600I50800J0D01*
G01*
G37*
G36*
G01*
X160634223Y-106273600D02*
X160989823Y-106273600D01*
G75*
G02*
X161040623Y-106324400I0J-50800D01*
G01*
X161040623Y-107797600D01*
G75*
G02*
X160989823Y-107848400I-50800J0D01*
G01*
X160634223Y-107848400D01*
G75*
G02*
X160583423Y-107797600I0J50800D01*
G01*
X160583423Y-106324400D01*
G75*
G02*
X160634223Y-106273600I50800J0D01*
G01*
G37*
G36*
G01*
X161284234Y-106273600D02*
X161639834Y-106273600D01*
G75*
G02*
X161690634Y-106324400I0J-50800D01*
G01*
X161690634Y-107797600D01*
G75*
G02*
X161639834Y-107848400I-50800J0D01*
G01*
X161284234Y-107848400D01*
G75*
G02*
X161233434Y-107797600I0J50800D01*
G01*
X161233434Y-106324400D01*
G75*
G02*
X161284234Y-106273600I50800J0D01*
G01*
G37*
G36*
G01*
X158282000Y-102934200D02*
X160742000Y-102934200D01*
G75*
G02*
X160792800Y-102985000I0J-50800D01*
G01*
X160792800Y-105295000D01*
G75*
G02*
X160742000Y-105345800I-50800J0D01*
G01*
X158282000Y-105345800D01*
G75*
G02*
X158231200Y-105295000I0J50800D01*
G01*
X158231200Y-102985000D01*
G75*
G02*
X158282000Y-102934200I50800J0D01*
G01*
G37*
%TD*%
%TO.C,R41*%
G36*
G01*
X152545200Y-72487715D02*
X152545200Y-71530285D01*
G75*
G02*
X152817285Y-71258200I272085J0D01*
G01*
X153524715Y-71258200D01*
G75*
G02*
X153796800Y-71530285I0J-272085D01*
G01*
X153796800Y-72487715D01*
G75*
G02*
X153524715Y-72759800I-272085J0D01*
G01*
X152817285Y-72759800D01*
G75*
G02*
X152545200Y-72487715I0J272085D01*
G01*
G37*
G36*
G01*
X150495200Y-72487715D02*
X150495200Y-71530285D01*
G75*
G02*
X150767285Y-71258200I272085J0D01*
G01*
X151474715Y-71258200D01*
G75*
G02*
X151746800Y-71530285I0J-272085D01*
G01*
X151746800Y-72487715D01*
G75*
G02*
X151474715Y-72759800I-272085J0D01*
G01*
X150767285Y-72759800D01*
G75*
G02*
X150495200Y-72487715I0J272085D01*
G01*
G37*
%TD*%
%TO.C,L1*%
G36*
G01*
X166332480Y-99859800D02*
X164121520Y-99859800D01*
G75*
G02*
X163851200Y-99589480I0J270320D01*
G01*
X163851200Y-98778520D01*
G75*
G02*
X164121520Y-98508200I270320J0D01*
G01*
X166332480Y-98508200D01*
G75*
G02*
X166602800Y-98778520I0J-270320D01*
G01*
X166602800Y-99589480D01*
G75*
G02*
X166332480Y-99859800I-270320J0D01*
G01*
G37*
G36*
G01*
X166332480Y-102659800D02*
X164121520Y-102659800D01*
G75*
G02*
X163851200Y-102389480I0J270320D01*
G01*
X163851200Y-101578520D01*
G75*
G02*
X164121520Y-101308200I270320J0D01*
G01*
X166332480Y-101308200D01*
G75*
G02*
X166602800Y-101578520I0J-270320D01*
G01*
X166602800Y-102389480D01*
G75*
G02*
X166332480Y-102659800I-270320J0D01*
G01*
G37*
%TD*%
%TO.C,C26*%
G36*
G01*
X156239285Y-66384700D02*
X157196715Y-66384700D01*
G75*
G02*
X157468800Y-66656785I0J-272085D01*
G01*
X157468800Y-67364215D01*
G75*
G02*
X157196715Y-67636300I-272085J0D01*
G01*
X156239285Y-67636300D01*
G75*
G02*
X155967200Y-67364215I0J272085D01*
G01*
X155967200Y-66656785D01*
G75*
G02*
X156239285Y-66384700I272085J0D01*
G01*
G37*
G36*
G01*
X156239285Y-64334700D02*
X157196715Y-64334700D01*
G75*
G02*
X157468800Y-64606785I0J-272085D01*
G01*
X157468800Y-65314215D01*
G75*
G02*
X157196715Y-65586300I-272085J0D01*
G01*
X156239285Y-65586300D01*
G75*
G02*
X155967200Y-65314215I0J272085D01*
G01*
X155967200Y-64606785D01*
G75*
G02*
X156239285Y-64334700I272085J0D01*
G01*
G37*
%TD*%
%TO.C,C25*%
G36*
G01*
X155883300Y-71085785D02*
X155883300Y-72043215D01*
G75*
G02*
X155611215Y-72315300I-272085J0D01*
G01*
X154903785Y-72315300D01*
G75*
G02*
X154631700Y-72043215I0J272085D01*
G01*
X154631700Y-71085785D01*
G75*
G02*
X154903785Y-70813700I272085J0D01*
G01*
X155611215Y-70813700D01*
G75*
G02*
X155883300Y-71085785I0J-272085D01*
G01*
G37*
G36*
G01*
X157933300Y-71085785D02*
X157933300Y-72043215D01*
G75*
G02*
X157661215Y-72315300I-272085J0D01*
G01*
X156953785Y-72315300D01*
G75*
G02*
X156681700Y-72043215I0J272085D01*
G01*
X156681700Y-71085785D01*
G75*
G02*
X156953785Y-70813700I272085J0D01*
G01*
X157661215Y-70813700D01*
G75*
G02*
X157933300Y-71085785I0J-272085D01*
G01*
G37*
%TD*%
%TO.C,C24*%
G36*
G01*
X163732285Y-83257700D02*
X164689715Y-83257700D01*
G75*
G02*
X164961800Y-83529785I0J-272085D01*
G01*
X164961800Y-84237215D01*
G75*
G02*
X164689715Y-84509300I-272085J0D01*
G01*
X163732285Y-84509300D01*
G75*
G02*
X163460200Y-84237215I0J272085D01*
G01*
X163460200Y-83529785D01*
G75*
G02*
X163732285Y-83257700I272085J0D01*
G01*
G37*
G36*
G01*
X163732285Y-81207700D02*
X164689715Y-81207700D01*
G75*
G02*
X164961800Y-81479785I0J-272085D01*
G01*
X164961800Y-82187215D01*
G75*
G02*
X164689715Y-82459300I-272085J0D01*
G01*
X163732285Y-82459300D01*
G75*
G02*
X163460200Y-82187215I0J272085D01*
G01*
X163460200Y-81479785D01*
G75*
G02*
X163732285Y-81207700I272085J0D01*
G01*
G37*
%TD*%
%TO.C,C22*%
G36*
G01*
X146079285Y-81298200D02*
X147036715Y-81298200D01*
G75*
G02*
X147308800Y-81570285I0J-272085D01*
G01*
X147308800Y-82277715D01*
G75*
G02*
X147036715Y-82549800I-272085J0D01*
G01*
X146079285Y-82549800D01*
G75*
G02*
X145807200Y-82277715I0J272085D01*
G01*
X145807200Y-81570285D01*
G75*
G02*
X146079285Y-81298200I272085J0D01*
G01*
G37*
G36*
G01*
X146079285Y-79248200D02*
X147036715Y-79248200D01*
G75*
G02*
X147308800Y-79520285I0J-272085D01*
G01*
X147308800Y-80227715D01*
G75*
G02*
X147036715Y-80499800I-272085J0D01*
G01*
X146079285Y-80499800D01*
G75*
G02*
X145807200Y-80227715I0J272085D01*
G01*
X145807200Y-79520285D01*
G75*
G02*
X146079285Y-79248200I272085J0D01*
G01*
G37*
%TD*%
D15*
%TO.C,J9*%
X101854000Y-131572000D03*
G36*
G01*
X103544000Y-130671200D02*
X105244000Y-130671200D01*
G75*
G02*
X105294800Y-130722000I0J-50800D01*
G01*
X105294800Y-132422000D01*
G75*
G02*
X105244000Y-132472800I-50800J0D01*
G01*
X103544000Y-132472800D01*
G75*
G02*
X103493200Y-132422000I0J50800D01*
G01*
X103493200Y-130722000D01*
G75*
G02*
X103544000Y-130671200I50800J0D01*
G01*
G37*
%TD*%
%TO.C,TP2*%
G36*
G01*
X96277800Y-106211000D02*
X96277800Y-107911000D01*
G75*
G02*
X96227000Y-107961800I-50800J0D01*
G01*
X94527000Y-107961800D01*
G75*
G02*
X94476200Y-107911000I0J50800D01*
G01*
X94476200Y-106211000D01*
G75*
G02*
X94527000Y-106160200I50800J0D01*
G01*
X96227000Y-106160200D01*
G75*
G02*
X96277800Y-106211000I0J-50800D01*
G01*
G37*
%TD*%
%TO.C,U5*%
G36*
G01*
X127967600Y-84875200D02*
X128318400Y-84875200D01*
G75*
G02*
X128493800Y-85050600I0J-175400D01*
G01*
X128493800Y-86601400D01*
G75*
G02*
X128318400Y-86776800I-175400J0D01*
G01*
X127967600Y-86776800D01*
G75*
G02*
X127792200Y-86601400I0J175400D01*
G01*
X127792200Y-85050600D01*
G75*
G02*
X127967600Y-84875200I175400J0D01*
G01*
G37*
G36*
G01*
X126697600Y-84875200D02*
X127048400Y-84875200D01*
G75*
G02*
X127223800Y-85050600I0J-175400D01*
G01*
X127223800Y-86601400D01*
G75*
G02*
X127048400Y-86776800I-175400J0D01*
G01*
X126697600Y-86776800D01*
G75*
G02*
X126522200Y-86601400I0J175400D01*
G01*
X126522200Y-85050600D01*
G75*
G02*
X126697600Y-84875200I175400J0D01*
G01*
G37*
G36*
G01*
X125427600Y-84875200D02*
X125778400Y-84875200D01*
G75*
G02*
X125953800Y-85050600I0J-175400D01*
G01*
X125953800Y-86601400D01*
G75*
G02*
X125778400Y-86776800I-175400J0D01*
G01*
X125427600Y-86776800D01*
G75*
G02*
X125252200Y-86601400I0J175400D01*
G01*
X125252200Y-85050600D01*
G75*
G02*
X125427600Y-84875200I175400J0D01*
G01*
G37*
G36*
G01*
X124157600Y-84875200D02*
X124508400Y-84875200D01*
G75*
G02*
X124683800Y-85050600I0J-175400D01*
G01*
X124683800Y-86601400D01*
G75*
G02*
X124508400Y-86776800I-175400J0D01*
G01*
X124157600Y-86776800D01*
G75*
G02*
X123982200Y-86601400I0J175400D01*
G01*
X123982200Y-85050600D01*
G75*
G02*
X124157600Y-84875200I175400J0D01*
G01*
G37*
G36*
G01*
X122887600Y-84875200D02*
X123238400Y-84875200D01*
G75*
G02*
X123413800Y-85050600I0J-175400D01*
G01*
X123413800Y-86601400D01*
G75*
G02*
X123238400Y-86776800I-175400J0D01*
G01*
X122887600Y-86776800D01*
G75*
G02*
X122712200Y-86601400I0J175400D01*
G01*
X122712200Y-85050600D01*
G75*
G02*
X122887600Y-84875200I175400J0D01*
G01*
G37*
G36*
G01*
X121617600Y-84875200D02*
X121968400Y-84875200D01*
G75*
G02*
X122143800Y-85050600I0J-175400D01*
G01*
X122143800Y-86601400D01*
G75*
G02*
X121968400Y-86776800I-175400J0D01*
G01*
X121617600Y-86776800D01*
G75*
G02*
X121442200Y-86601400I0J175400D01*
G01*
X121442200Y-85050600D01*
G75*
G02*
X121617600Y-84875200I175400J0D01*
G01*
G37*
G36*
G01*
X120347600Y-84875200D02*
X120698400Y-84875200D01*
G75*
G02*
X120873800Y-85050600I0J-175400D01*
G01*
X120873800Y-86601400D01*
G75*
G02*
X120698400Y-86776800I-175400J0D01*
G01*
X120347600Y-86776800D01*
G75*
G02*
X120172200Y-86601400I0J175400D01*
G01*
X120172200Y-85050600D01*
G75*
G02*
X120347600Y-84875200I175400J0D01*
G01*
G37*
G36*
G01*
X119077600Y-84875200D02*
X119428400Y-84875200D01*
G75*
G02*
X119603800Y-85050600I0J-175400D01*
G01*
X119603800Y-86601400D01*
G75*
G02*
X119428400Y-86776800I-175400J0D01*
G01*
X119077600Y-86776800D01*
G75*
G02*
X118902200Y-86601400I0J175400D01*
G01*
X118902200Y-85050600D01*
G75*
G02*
X119077600Y-84875200I175400J0D01*
G01*
G37*
G36*
G01*
X117807600Y-84875200D02*
X118158400Y-84875200D01*
G75*
G02*
X118333800Y-85050600I0J-175400D01*
G01*
X118333800Y-86601400D01*
G75*
G02*
X118158400Y-86776800I-175400J0D01*
G01*
X117807600Y-86776800D01*
G75*
G02*
X117632200Y-86601400I0J175400D01*
G01*
X117632200Y-85050600D01*
G75*
G02*
X117807600Y-84875200I175400J0D01*
G01*
G37*
G36*
G01*
X116537600Y-84875200D02*
X116888400Y-84875200D01*
G75*
G02*
X117063800Y-85050600I0J-175400D01*
G01*
X117063800Y-86601400D01*
G75*
G02*
X116888400Y-86776800I-175400J0D01*
G01*
X116537600Y-86776800D01*
G75*
G02*
X116362200Y-86601400I0J175400D01*
G01*
X116362200Y-85050600D01*
G75*
G02*
X116537600Y-84875200I175400J0D01*
G01*
G37*
G36*
G01*
X115267600Y-84875200D02*
X115618400Y-84875200D01*
G75*
G02*
X115793800Y-85050600I0J-175400D01*
G01*
X115793800Y-86601400D01*
G75*
G02*
X115618400Y-86776800I-175400J0D01*
G01*
X115267600Y-86776800D01*
G75*
G02*
X115092200Y-86601400I0J175400D01*
G01*
X115092200Y-85050600D01*
G75*
G02*
X115267600Y-84875200I175400J0D01*
G01*
G37*
G36*
G01*
X113997600Y-84875200D02*
X114348400Y-84875200D01*
G75*
G02*
X114523800Y-85050600I0J-175400D01*
G01*
X114523800Y-86601400D01*
G75*
G02*
X114348400Y-86776800I-175400J0D01*
G01*
X113997600Y-86776800D01*
G75*
G02*
X113822200Y-86601400I0J175400D01*
G01*
X113822200Y-85050600D01*
G75*
G02*
X113997600Y-84875200I175400J0D01*
G01*
G37*
G36*
G01*
X112727600Y-84875200D02*
X113078400Y-84875200D01*
G75*
G02*
X113253800Y-85050600I0J-175400D01*
G01*
X113253800Y-86601400D01*
G75*
G02*
X113078400Y-86776800I-175400J0D01*
G01*
X112727600Y-86776800D01*
G75*
G02*
X112552200Y-86601400I0J175400D01*
G01*
X112552200Y-85050600D01*
G75*
G02*
X112727600Y-84875200I175400J0D01*
G01*
G37*
G36*
G01*
X111457600Y-84875200D02*
X111808400Y-84875200D01*
G75*
G02*
X111983800Y-85050600I0J-175400D01*
G01*
X111983800Y-86601400D01*
G75*
G02*
X111808400Y-86776800I-175400J0D01*
G01*
X111457600Y-86776800D01*
G75*
G02*
X111282200Y-86601400I0J175400D01*
G01*
X111282200Y-85050600D01*
G75*
G02*
X111457600Y-84875200I175400J0D01*
G01*
G37*
G36*
G01*
X111457600Y-75275200D02*
X111808400Y-75275200D01*
G75*
G02*
X111983800Y-75450600I0J-175400D01*
G01*
X111983800Y-77001400D01*
G75*
G02*
X111808400Y-77176800I-175400J0D01*
G01*
X111457600Y-77176800D01*
G75*
G02*
X111282200Y-77001400I0J175400D01*
G01*
X111282200Y-75450600D01*
G75*
G02*
X111457600Y-75275200I175400J0D01*
G01*
G37*
G36*
G01*
X112727600Y-75275200D02*
X113078400Y-75275200D01*
G75*
G02*
X113253800Y-75450600I0J-175400D01*
G01*
X113253800Y-77001400D01*
G75*
G02*
X113078400Y-77176800I-175400J0D01*
G01*
X112727600Y-77176800D01*
G75*
G02*
X112552200Y-77001400I0J175400D01*
G01*
X112552200Y-75450600D01*
G75*
G02*
X112727600Y-75275200I175400J0D01*
G01*
G37*
G36*
G01*
X113997600Y-75275200D02*
X114348400Y-75275200D01*
G75*
G02*
X114523800Y-75450600I0J-175400D01*
G01*
X114523800Y-77001400D01*
G75*
G02*
X114348400Y-77176800I-175400J0D01*
G01*
X113997600Y-77176800D01*
G75*
G02*
X113822200Y-77001400I0J175400D01*
G01*
X113822200Y-75450600D01*
G75*
G02*
X113997600Y-75275200I175400J0D01*
G01*
G37*
G36*
G01*
X115267600Y-75275200D02*
X115618400Y-75275200D01*
G75*
G02*
X115793800Y-75450600I0J-175400D01*
G01*
X115793800Y-77001400D01*
G75*
G02*
X115618400Y-77176800I-175400J0D01*
G01*
X115267600Y-77176800D01*
G75*
G02*
X115092200Y-77001400I0J175400D01*
G01*
X115092200Y-75450600D01*
G75*
G02*
X115267600Y-75275200I175400J0D01*
G01*
G37*
G36*
G01*
X116537600Y-75275200D02*
X116888400Y-75275200D01*
G75*
G02*
X117063800Y-75450600I0J-175400D01*
G01*
X117063800Y-77001400D01*
G75*
G02*
X116888400Y-77176800I-175400J0D01*
G01*
X116537600Y-77176800D01*
G75*
G02*
X116362200Y-77001400I0J175400D01*
G01*
X116362200Y-75450600D01*
G75*
G02*
X116537600Y-75275200I175400J0D01*
G01*
G37*
G36*
G01*
X117807600Y-75275200D02*
X118158400Y-75275200D01*
G75*
G02*
X118333800Y-75450600I0J-175400D01*
G01*
X118333800Y-77001400D01*
G75*
G02*
X118158400Y-77176800I-175400J0D01*
G01*
X117807600Y-77176800D01*
G75*
G02*
X117632200Y-77001400I0J175400D01*
G01*
X117632200Y-75450600D01*
G75*
G02*
X117807600Y-75275200I175400J0D01*
G01*
G37*
G36*
G01*
X119077600Y-75275200D02*
X119428400Y-75275200D01*
G75*
G02*
X119603800Y-75450600I0J-175400D01*
G01*
X119603800Y-77001400D01*
G75*
G02*
X119428400Y-77176800I-175400J0D01*
G01*
X119077600Y-77176800D01*
G75*
G02*
X118902200Y-77001400I0J175400D01*
G01*
X118902200Y-75450600D01*
G75*
G02*
X119077600Y-75275200I175400J0D01*
G01*
G37*
G36*
G01*
X120347600Y-75275200D02*
X120698400Y-75275200D01*
G75*
G02*
X120873800Y-75450600I0J-175400D01*
G01*
X120873800Y-77001400D01*
G75*
G02*
X120698400Y-77176800I-175400J0D01*
G01*
X120347600Y-77176800D01*
G75*
G02*
X120172200Y-77001400I0J175400D01*
G01*
X120172200Y-75450600D01*
G75*
G02*
X120347600Y-75275200I175400J0D01*
G01*
G37*
G36*
G01*
X121617600Y-75275200D02*
X121968400Y-75275200D01*
G75*
G02*
X122143800Y-75450600I0J-175400D01*
G01*
X122143800Y-77001400D01*
G75*
G02*
X121968400Y-77176800I-175400J0D01*
G01*
X121617600Y-77176800D01*
G75*
G02*
X121442200Y-77001400I0J175400D01*
G01*
X121442200Y-75450600D01*
G75*
G02*
X121617600Y-75275200I175400J0D01*
G01*
G37*
G36*
G01*
X122887600Y-75275200D02*
X123238400Y-75275200D01*
G75*
G02*
X123413800Y-75450600I0J-175400D01*
G01*
X123413800Y-77001400D01*
G75*
G02*
X123238400Y-77176800I-175400J0D01*
G01*
X122887600Y-77176800D01*
G75*
G02*
X122712200Y-77001400I0J175400D01*
G01*
X122712200Y-75450600D01*
G75*
G02*
X122887600Y-75275200I175400J0D01*
G01*
G37*
G36*
G01*
X124157600Y-75275200D02*
X124508400Y-75275200D01*
G75*
G02*
X124683800Y-75450600I0J-175400D01*
G01*
X124683800Y-77001400D01*
G75*
G02*
X124508400Y-77176800I-175400J0D01*
G01*
X124157600Y-77176800D01*
G75*
G02*
X123982200Y-77001400I0J175400D01*
G01*
X123982200Y-75450600D01*
G75*
G02*
X124157600Y-75275200I175400J0D01*
G01*
G37*
G36*
G01*
X125427600Y-75275200D02*
X125778400Y-75275200D01*
G75*
G02*
X125953800Y-75450600I0J-175400D01*
G01*
X125953800Y-77001400D01*
G75*
G02*
X125778400Y-77176800I-175400J0D01*
G01*
X125427600Y-77176800D01*
G75*
G02*
X125252200Y-77001400I0J175400D01*
G01*
X125252200Y-75450600D01*
G75*
G02*
X125427600Y-75275200I175400J0D01*
G01*
G37*
G36*
G01*
X126697600Y-75275200D02*
X127048400Y-75275200D01*
G75*
G02*
X127223800Y-75450600I0J-175400D01*
G01*
X127223800Y-77001400D01*
G75*
G02*
X127048400Y-77176800I-175400J0D01*
G01*
X126697600Y-77176800D01*
G75*
G02*
X126522200Y-77001400I0J175400D01*
G01*
X126522200Y-75450600D01*
G75*
G02*
X126697600Y-75275200I175400J0D01*
G01*
G37*
G36*
G01*
X127967600Y-75275200D02*
X128318400Y-75275200D01*
G75*
G02*
X128493800Y-75450600I0J-175400D01*
G01*
X128493800Y-77001400D01*
G75*
G02*
X128318400Y-77176800I-175400J0D01*
G01*
X127967600Y-77176800D01*
G75*
G02*
X127792200Y-77001400I0J175400D01*
G01*
X127792200Y-75450600D01*
G75*
G02*
X127967600Y-75275200I175400J0D01*
G01*
G37*
%TD*%
%TO.C,U4*%
G36*
G01*
X88832800Y-60584000D02*
X88832800Y-64384000D01*
G75*
G02*
X88782000Y-64434800I-50800J0D01*
G01*
X86782000Y-64434800D01*
G75*
G02*
X86731200Y-64384000I0J50800D01*
G01*
X86731200Y-60584000D01*
G75*
G02*
X86782000Y-60533200I50800J0D01*
G01*
X88782000Y-60533200D01*
G75*
G02*
X88832800Y-60584000I0J-50800D01*
G01*
G37*
G36*
G01*
X95132800Y-61734000D02*
X95132800Y-63234000D01*
G75*
G02*
X95082000Y-63284800I-50800J0D01*
G01*
X93082000Y-63284800D01*
G75*
G02*
X93031200Y-63234000I0J50800D01*
G01*
X93031200Y-61734000D01*
G75*
G02*
X93082000Y-61683200I50800J0D01*
G01*
X95082000Y-61683200D01*
G75*
G02*
X95132800Y-61734000I0J-50800D01*
G01*
G37*
G36*
G01*
X95132800Y-59434000D02*
X95132800Y-60934000D01*
G75*
G02*
X95082000Y-60984800I-50800J0D01*
G01*
X93082000Y-60984800D01*
G75*
G02*
X93031200Y-60934000I0J50800D01*
G01*
X93031200Y-59434000D01*
G75*
G02*
X93082000Y-59383200I50800J0D01*
G01*
X95082000Y-59383200D01*
G75*
G02*
X95132800Y-59434000I0J-50800D01*
G01*
G37*
G36*
G01*
X95132800Y-64034000D02*
X95132800Y-65534000D01*
G75*
G02*
X95082000Y-65584800I-50800J0D01*
G01*
X93082000Y-65584800D01*
G75*
G02*
X93031200Y-65534000I0J50800D01*
G01*
X93031200Y-64034000D01*
G75*
G02*
X93082000Y-63983200I50800J0D01*
G01*
X95082000Y-63983200D01*
G75*
G02*
X95132800Y-64034000I0J-50800D01*
G01*
G37*
%TD*%
%TO.C,U2*%
G36*
G01*
X165872000Y-127242800D02*
X165222000Y-127242800D01*
G75*
G02*
X165171200Y-127192000I0J50800D01*
G01*
X165171200Y-126132000D01*
G75*
G02*
X165222000Y-126081200I50800J0D01*
G01*
X165872000Y-126081200D01*
G75*
G02*
X165922800Y-126132000I0J-50800D01*
G01*
X165922800Y-127192000D01*
G75*
G02*
X165872000Y-127242800I-50800J0D01*
G01*
G37*
G36*
G01*
X167772000Y-127242800D02*
X167122000Y-127242800D01*
G75*
G02*
X167071200Y-127192000I0J50800D01*
G01*
X167071200Y-126132000D01*
G75*
G02*
X167122000Y-126081200I50800J0D01*
G01*
X167772000Y-126081200D01*
G75*
G02*
X167822800Y-126132000I0J-50800D01*
G01*
X167822800Y-127192000D01*
G75*
G02*
X167772000Y-127242800I-50800J0D01*
G01*
G37*
G36*
G01*
X167772000Y-129442800D02*
X167122000Y-129442800D01*
G75*
G02*
X167071200Y-129392000I0J50800D01*
G01*
X167071200Y-128332000D01*
G75*
G02*
X167122000Y-128281200I50800J0D01*
G01*
X167772000Y-128281200D01*
G75*
G02*
X167822800Y-128332000I0J-50800D01*
G01*
X167822800Y-129392000D01*
G75*
G02*
X167772000Y-129442800I-50800J0D01*
G01*
G37*
G36*
G01*
X166822000Y-129442800D02*
X166172000Y-129442800D01*
G75*
G02*
X166121200Y-129392000I0J50800D01*
G01*
X166121200Y-128332000D01*
G75*
G02*
X166172000Y-128281200I50800J0D01*
G01*
X166822000Y-128281200D01*
G75*
G02*
X166872800Y-128332000I0J-50800D01*
G01*
X166872800Y-129392000D01*
G75*
G02*
X166822000Y-129442800I-50800J0D01*
G01*
G37*
G36*
G01*
X165872000Y-129442800D02*
X165222000Y-129442800D01*
G75*
G02*
X165171200Y-129392000I0J50800D01*
G01*
X165171200Y-128332000D01*
G75*
G02*
X165222000Y-128281200I50800J0D01*
G01*
X165872000Y-128281200D01*
G75*
G02*
X165922800Y-128332000I0J-50800D01*
G01*
X165922800Y-129392000D01*
G75*
G02*
X165872000Y-129442800I-50800J0D01*
G01*
G37*
%TD*%
%TO.C,JP2*%
X143510000Y-70358000D03*
X143510000Y-67818000D03*
G36*
G01*
X142609200Y-66128000D02*
X142609200Y-64428000D01*
G75*
G02*
X142660000Y-64377200I50800J0D01*
G01*
X144360000Y-64377200D01*
G75*
G02*
X144410800Y-64428000I0J-50800D01*
G01*
X144410800Y-66128000D01*
G75*
G02*
X144360000Y-66178800I-50800J0D01*
G01*
X142660000Y-66178800D01*
G75*
G02*
X142609200Y-66128000I0J50800D01*
G01*
G37*
%TD*%
%TO.C,J7*%
X137160000Y-80645000D03*
X137160000Y-78105000D03*
G36*
G01*
X136259200Y-76415000D02*
X136259200Y-74715000D01*
G75*
G02*
X136310000Y-74664200I50800J0D01*
G01*
X138010000Y-74664200D01*
G75*
G02*
X138060800Y-74715000I0J-50800D01*
G01*
X138060800Y-76415000D01*
G75*
G02*
X138010000Y-76465800I-50800J0D01*
G01*
X136310000Y-76465800D01*
G75*
G02*
X136259200Y-76415000I0J50800D01*
G01*
G37*
%TD*%
%TO.C,D5*%
G36*
G01*
X116989976Y-98208800D02*
X115674024Y-98208800D01*
G75*
G02*
X115406200Y-97940976I0J267824D01*
G01*
X115406200Y-96950024D01*
G75*
G02*
X115674024Y-96682200I267824J0D01*
G01*
X116989976Y-96682200D01*
G75*
G02*
X117257800Y-96950024I0J-267824D01*
G01*
X117257800Y-97940976D01*
G75*
G02*
X116989976Y-98208800I-267824J0D01*
G01*
G37*
G36*
G01*
X116989976Y-101183800D02*
X115674024Y-101183800D01*
G75*
G02*
X115406200Y-100915976I0J267824D01*
G01*
X115406200Y-99925024D01*
G75*
G02*
X115674024Y-99657200I267824J0D01*
G01*
X116989976Y-99657200D01*
G75*
G02*
X117257800Y-99925024I0J-267824D01*
G01*
X117257800Y-100915976D01*
G75*
G02*
X116989976Y-101183800I-267824J0D01*
G01*
G37*
%TD*%
%TO.C,D4*%
G36*
G01*
X127149976Y-98208800D02*
X125834024Y-98208800D01*
G75*
G02*
X125566200Y-97940976I0J267824D01*
G01*
X125566200Y-96950024D01*
G75*
G02*
X125834024Y-96682200I267824J0D01*
G01*
X127149976Y-96682200D01*
G75*
G02*
X127417800Y-96950024I0J-267824D01*
G01*
X127417800Y-97940976D01*
G75*
G02*
X127149976Y-98208800I-267824J0D01*
G01*
G37*
G36*
G01*
X127149976Y-101183800D02*
X125834024Y-101183800D01*
G75*
G02*
X125566200Y-100915976I0J267824D01*
G01*
X125566200Y-99925024D01*
G75*
G02*
X125834024Y-99657200I267824J0D01*
G01*
X127149976Y-99657200D01*
G75*
G02*
X127417800Y-99925024I0J-267824D01*
G01*
X127417800Y-100915976D01*
G75*
G02*
X127149976Y-101183800I-267824J0D01*
G01*
G37*
%TD*%
%TO.C,D3*%
G36*
G01*
X122069976Y-98208800D02*
X120754024Y-98208800D01*
G75*
G02*
X120486200Y-97940976I0J267824D01*
G01*
X120486200Y-96950024D01*
G75*
G02*
X120754024Y-96682200I267824J0D01*
G01*
X122069976Y-96682200D01*
G75*
G02*
X122337800Y-96950024I0J-267824D01*
G01*
X122337800Y-97940976D01*
G75*
G02*
X122069976Y-98208800I-267824J0D01*
G01*
G37*
G36*
G01*
X122069976Y-101183800D02*
X120754024Y-101183800D01*
G75*
G02*
X120486200Y-100915976I0J267824D01*
G01*
X120486200Y-99925024D01*
G75*
G02*
X120754024Y-99657200I267824J0D01*
G01*
X122069976Y-99657200D01*
G75*
G02*
X122337800Y-99925024I0J-267824D01*
G01*
X122337800Y-100915976D01*
G75*
G02*
X122069976Y-101183800I-267824J0D01*
G01*
G37*
%TD*%
%TO.C,D2*%
G36*
G01*
X112078200Y-108577000D02*
X112078200Y-107577000D01*
G75*
G02*
X112129000Y-107526200I50800J0D01*
G01*
X113129000Y-107526200D01*
G75*
G02*
X113179800Y-107577000I0J-50800D01*
G01*
X113179800Y-108577000D01*
G75*
G02*
X113129000Y-108627800I-50800J0D01*
G01*
X112129000Y-108627800D01*
G75*
G02*
X112078200Y-108577000I0J50800D01*
G01*
G37*
G36*
G01*
X109578200Y-108577000D02*
X109578200Y-107577000D01*
G75*
G02*
X109629000Y-107526200I50800J0D01*
G01*
X110629000Y-107526200D01*
G75*
G02*
X110679800Y-107577000I0J-50800D01*
G01*
X110679800Y-108577000D01*
G75*
G02*
X110629000Y-108627800I-50800J0D01*
G01*
X109629000Y-108627800D01*
G75*
G02*
X109578200Y-108577000I0J50800D01*
G01*
G37*
%TD*%
%TO.C,D1*%
G36*
G01*
X170222000Y-107410800D02*
X169122000Y-107410800D01*
G75*
G02*
X169071200Y-107360000I0J50800D01*
G01*
X169071200Y-106260000D01*
G75*
G02*
X169122000Y-106209200I50800J0D01*
G01*
X170222000Y-106209200D01*
G75*
G02*
X170272800Y-106260000I0J-50800D01*
G01*
X170272800Y-107360000D01*
G75*
G02*
X170222000Y-107410800I-50800J0D01*
G01*
G37*
G36*
G01*
X170222000Y-104610800D02*
X169122000Y-104610800D01*
G75*
G02*
X169071200Y-104560000I0J50800D01*
G01*
X169071200Y-103460000D01*
G75*
G02*
X169122000Y-103409200I50800J0D01*
G01*
X170222000Y-103409200D01*
G75*
G02*
X170272800Y-103460000I0J-50800D01*
G01*
X170272800Y-104560000D01*
G75*
G02*
X170222000Y-104610800I-50800J0D01*
G01*
G37*
%TD*%
%TO.C,TP17*%
G36*
G01*
X100672000Y-120026800D02*
X98972000Y-120026800D01*
G75*
G02*
X98921200Y-119976000I0J50800D01*
G01*
X98921200Y-118276000D01*
G75*
G02*
X98972000Y-118225200I50800J0D01*
G01*
X100672000Y-118225200D01*
G75*
G02*
X100722800Y-118276000I0J-50800D01*
G01*
X100722800Y-119976000D01*
G75*
G02*
X100672000Y-120026800I-50800J0D01*
G01*
G37*
%TD*%
%TO.C,TP1*%
G36*
G01*
X124245000Y-105398200D02*
X125945000Y-105398200D01*
G75*
G02*
X125995800Y-105449000I0J-50800D01*
G01*
X125995800Y-107149000D01*
G75*
G02*
X125945000Y-107199800I-50800J0D01*
G01*
X124245000Y-107199800D01*
G75*
G02*
X124194200Y-107149000I0J50800D01*
G01*
X124194200Y-105449000D01*
G75*
G02*
X124245000Y-105398200I50800J0D01*
G01*
G37*
%TD*%
%TO.C,JP5*%
X91313000Y-134874000D03*
G36*
G01*
X89623000Y-135774800D02*
X87923000Y-135774800D01*
G75*
G02*
X87872200Y-135724000I0J50800D01*
G01*
X87872200Y-134024000D01*
G75*
G02*
X87923000Y-133973200I50800J0D01*
G01*
X89623000Y-133973200D01*
G75*
G02*
X89673800Y-134024000I0J-50800D01*
G01*
X89673800Y-135724000D01*
G75*
G02*
X89623000Y-135774800I-50800J0D01*
G01*
G37*
%TD*%
%TO.C,U14*%
G36*
G01*
X95643000Y-112494800D02*
X95193000Y-112494800D01*
G75*
G02*
X95142200Y-112444000I0J50800D01*
G01*
X95142200Y-110994000D01*
G75*
G02*
X95193000Y-110943200I50800J0D01*
G01*
X95643000Y-110943200D01*
G75*
G02*
X95693800Y-110994000I0J-50800D01*
G01*
X95693800Y-112444000D01*
G75*
G02*
X95643000Y-112494800I-50800J0D01*
G01*
G37*
G36*
G01*
X96293000Y-112494800D02*
X95843000Y-112494800D01*
G75*
G02*
X95792200Y-112444000I0J50800D01*
G01*
X95792200Y-110994000D01*
G75*
G02*
X95843000Y-110943200I50800J0D01*
G01*
X96293000Y-110943200D01*
G75*
G02*
X96343800Y-110994000I0J-50800D01*
G01*
X96343800Y-112444000D01*
G75*
G02*
X96293000Y-112494800I-50800J0D01*
G01*
G37*
G36*
G01*
X96943000Y-112494800D02*
X96493000Y-112494800D01*
G75*
G02*
X96442200Y-112444000I0J50800D01*
G01*
X96442200Y-110994000D01*
G75*
G02*
X96493000Y-110943200I50800J0D01*
G01*
X96943000Y-110943200D01*
G75*
G02*
X96993800Y-110994000I0J-50800D01*
G01*
X96993800Y-112444000D01*
G75*
G02*
X96943000Y-112494800I-50800J0D01*
G01*
G37*
G36*
G01*
X97593000Y-112494800D02*
X97143000Y-112494800D01*
G75*
G02*
X97092200Y-112444000I0J50800D01*
G01*
X97092200Y-110994000D01*
G75*
G02*
X97143000Y-110943200I50800J0D01*
G01*
X97593000Y-110943200D01*
G75*
G02*
X97643800Y-110994000I0J-50800D01*
G01*
X97643800Y-112444000D01*
G75*
G02*
X97593000Y-112494800I-50800J0D01*
G01*
G37*
G36*
G01*
X97593000Y-116894800D02*
X97143000Y-116894800D01*
G75*
G02*
X97092200Y-116844000I0J50800D01*
G01*
X97092200Y-115394000D01*
G75*
G02*
X97143000Y-115343200I50800J0D01*
G01*
X97593000Y-115343200D01*
G75*
G02*
X97643800Y-115394000I0J-50800D01*
G01*
X97643800Y-116844000D01*
G75*
G02*
X97593000Y-116894800I-50800J0D01*
G01*
G37*
G36*
G01*
X96943000Y-116894800D02*
X96493000Y-116894800D01*
G75*
G02*
X96442200Y-116844000I0J50800D01*
G01*
X96442200Y-115394000D01*
G75*
G02*
X96493000Y-115343200I50800J0D01*
G01*
X96943000Y-115343200D01*
G75*
G02*
X96993800Y-115394000I0J-50800D01*
G01*
X96993800Y-116844000D01*
G75*
G02*
X96943000Y-116894800I-50800J0D01*
G01*
G37*
G36*
G01*
X96293000Y-116894800D02*
X95843000Y-116894800D01*
G75*
G02*
X95792200Y-116844000I0J50800D01*
G01*
X95792200Y-115394000D01*
G75*
G02*
X95843000Y-115343200I50800J0D01*
G01*
X96293000Y-115343200D01*
G75*
G02*
X96343800Y-115394000I0J-50800D01*
G01*
X96343800Y-116844000D01*
G75*
G02*
X96293000Y-116894800I-50800J0D01*
G01*
G37*
G36*
G01*
X95643000Y-116894800D02*
X95193000Y-116894800D01*
G75*
G02*
X95142200Y-116844000I0J50800D01*
G01*
X95142200Y-115394000D01*
G75*
G02*
X95193000Y-115343200I50800J0D01*
G01*
X95643000Y-115343200D01*
G75*
G02*
X95693800Y-115394000I0J-50800D01*
G01*
X95693800Y-116844000D01*
G75*
G02*
X95643000Y-116894800I-50800J0D01*
G01*
G37*
%TD*%
%TO.C,U13*%
G36*
G01*
X121058200Y-113423000D02*
X121058200Y-112973000D01*
G75*
G02*
X121109000Y-112922200I50800J0D01*
G01*
X122559000Y-112922200D01*
G75*
G02*
X122609800Y-112973000I0J-50800D01*
G01*
X122609800Y-113423000D01*
G75*
G02*
X122559000Y-113473800I-50800J0D01*
G01*
X121109000Y-113473800D01*
G75*
G02*
X121058200Y-113423000I0J50800D01*
G01*
G37*
G36*
G01*
X121058200Y-114073000D02*
X121058200Y-113623000D01*
G75*
G02*
X121109000Y-113572200I50800J0D01*
G01*
X122559000Y-113572200D01*
G75*
G02*
X122609800Y-113623000I0J-50800D01*
G01*
X122609800Y-114073000D01*
G75*
G02*
X122559000Y-114123800I-50800J0D01*
G01*
X121109000Y-114123800D01*
G75*
G02*
X121058200Y-114073000I0J50800D01*
G01*
G37*
G36*
G01*
X121058200Y-114723000D02*
X121058200Y-114273000D01*
G75*
G02*
X121109000Y-114222200I50800J0D01*
G01*
X122559000Y-114222200D01*
G75*
G02*
X122609800Y-114273000I0J-50800D01*
G01*
X122609800Y-114723000D01*
G75*
G02*
X122559000Y-114773800I-50800J0D01*
G01*
X121109000Y-114773800D01*
G75*
G02*
X121058200Y-114723000I0J50800D01*
G01*
G37*
G36*
G01*
X121058200Y-115373000D02*
X121058200Y-114923000D01*
G75*
G02*
X121109000Y-114872200I50800J0D01*
G01*
X122559000Y-114872200D01*
G75*
G02*
X122609800Y-114923000I0J-50800D01*
G01*
X122609800Y-115373000D01*
G75*
G02*
X122559000Y-115423800I-50800J0D01*
G01*
X121109000Y-115423800D01*
G75*
G02*
X121058200Y-115373000I0J50800D01*
G01*
G37*
G36*
G01*
X116658200Y-115373000D02*
X116658200Y-114923000D01*
G75*
G02*
X116709000Y-114872200I50800J0D01*
G01*
X118159000Y-114872200D01*
G75*
G02*
X118209800Y-114923000I0J-50800D01*
G01*
X118209800Y-115373000D01*
G75*
G02*
X118159000Y-115423800I-50800J0D01*
G01*
X116709000Y-115423800D01*
G75*
G02*
X116658200Y-115373000I0J50800D01*
G01*
G37*
G36*
G01*
X116658200Y-114723000D02*
X116658200Y-114273000D01*
G75*
G02*
X116709000Y-114222200I50800J0D01*
G01*
X118159000Y-114222200D01*
G75*
G02*
X118209800Y-114273000I0J-50800D01*
G01*
X118209800Y-114723000D01*
G75*
G02*
X118159000Y-114773800I-50800J0D01*
G01*
X116709000Y-114773800D01*
G75*
G02*
X116658200Y-114723000I0J50800D01*
G01*
G37*
G36*
G01*
X116658200Y-114073000D02*
X116658200Y-113623000D01*
G75*
G02*
X116709000Y-113572200I50800J0D01*
G01*
X118159000Y-113572200D01*
G75*
G02*
X118209800Y-113623000I0J-50800D01*
G01*
X118209800Y-114073000D01*
G75*
G02*
X118159000Y-114123800I-50800J0D01*
G01*
X116709000Y-114123800D01*
G75*
G02*
X116658200Y-114073000I0J50800D01*
G01*
G37*
G36*
G01*
X116658200Y-113423000D02*
X116658200Y-112973000D01*
G75*
G02*
X116709000Y-112922200I50800J0D01*
G01*
X118159000Y-112922200D01*
G75*
G02*
X118209800Y-112973000I0J-50800D01*
G01*
X118209800Y-113423000D01*
G75*
G02*
X118159000Y-113473800I-50800J0D01*
G01*
X116709000Y-113473800D01*
G75*
G02*
X116658200Y-113423000I0J50800D01*
G01*
G37*
%TD*%
%TO.C,R40*%
G36*
G01*
X99851285Y-127272200D02*
X100808715Y-127272200D01*
G75*
G02*
X101080800Y-127544285I0J-272085D01*
G01*
X101080800Y-128251715D01*
G75*
G02*
X100808715Y-128523800I-272085J0D01*
G01*
X99851285Y-128523800D01*
G75*
G02*
X99579200Y-128251715I0J272085D01*
G01*
X99579200Y-127544285D01*
G75*
G02*
X99851285Y-127272200I272085J0D01*
G01*
G37*
G36*
G01*
X99851285Y-125222200D02*
X100808715Y-125222200D01*
G75*
G02*
X101080800Y-125494285I0J-272085D01*
G01*
X101080800Y-126201715D01*
G75*
G02*
X100808715Y-126473800I-272085J0D01*
G01*
X99851285Y-126473800D01*
G75*
G02*
X99579200Y-126201715I0J272085D01*
G01*
X99579200Y-125494285D01*
G75*
G02*
X99851285Y-125222200I272085J0D01*
G01*
G37*
%TD*%
%TO.C,R38*%
G36*
G01*
X104158200Y-118969715D02*
X104158200Y-118012285D01*
G75*
G02*
X104430285Y-117740200I272085J0D01*
G01*
X105137715Y-117740200D01*
G75*
G02*
X105409800Y-118012285I0J-272085D01*
G01*
X105409800Y-118969715D01*
G75*
G02*
X105137715Y-119241800I-272085J0D01*
G01*
X104430285Y-119241800D01*
G75*
G02*
X104158200Y-118969715I0J272085D01*
G01*
G37*
G36*
G01*
X102108200Y-118969715D02*
X102108200Y-118012285D01*
G75*
G02*
X102380285Y-117740200I272085J0D01*
G01*
X103087715Y-117740200D01*
G75*
G02*
X103359800Y-118012285I0J-272085D01*
G01*
X103359800Y-118969715D01*
G75*
G02*
X103087715Y-119241800I-272085J0D01*
G01*
X102380285Y-119241800D01*
G75*
G02*
X102108200Y-118969715I0J272085D01*
G01*
G37*
%TD*%
%TO.C,R37*%
G36*
G01*
X102264285Y-110762200D02*
X103221715Y-110762200D01*
G75*
G02*
X103493800Y-111034285I0J-272085D01*
G01*
X103493800Y-111741715D01*
G75*
G02*
X103221715Y-112013800I-272085J0D01*
G01*
X102264285Y-112013800D01*
G75*
G02*
X101992200Y-111741715I0J272085D01*
G01*
X101992200Y-111034285D01*
G75*
G02*
X102264285Y-110762200I272085J0D01*
G01*
G37*
G36*
G01*
X102264285Y-108712200D02*
X103221715Y-108712200D01*
G75*
G02*
X103493800Y-108984285I0J-272085D01*
G01*
X103493800Y-109691715D01*
G75*
G02*
X103221715Y-109963800I-272085J0D01*
G01*
X102264285Y-109963800D01*
G75*
G02*
X101992200Y-109691715I0J272085D01*
G01*
X101992200Y-108984285D01*
G75*
G02*
X102264285Y-108712200I272085J0D01*
G01*
G37*
%TD*%
%TO.C,R36*%
G36*
G01*
X122711285Y-127517200D02*
X123668715Y-127517200D01*
G75*
G02*
X123940800Y-127789285I0J-272085D01*
G01*
X123940800Y-128496715D01*
G75*
G02*
X123668715Y-128768800I-272085J0D01*
G01*
X122711285Y-128768800D01*
G75*
G02*
X122439200Y-128496715I0J272085D01*
G01*
X122439200Y-127789285D01*
G75*
G02*
X122711285Y-127517200I272085J0D01*
G01*
G37*
G36*
G01*
X122711285Y-125467200D02*
X123668715Y-125467200D01*
G75*
G02*
X123940800Y-125739285I0J-272085D01*
G01*
X123940800Y-126446715D01*
G75*
G02*
X123668715Y-126718800I-272085J0D01*
G01*
X122711285Y-126718800D01*
G75*
G02*
X122439200Y-126446715I0J272085D01*
G01*
X122439200Y-125739285D01*
G75*
G02*
X122711285Y-125467200I272085J0D01*
G01*
G37*
%TD*%
%TO.C,R35*%
G36*
G01*
X126521285Y-127517200D02*
X127478715Y-127517200D01*
G75*
G02*
X127750800Y-127789285I0J-272085D01*
G01*
X127750800Y-128496715D01*
G75*
G02*
X127478715Y-128768800I-272085J0D01*
G01*
X126521285Y-128768800D01*
G75*
G02*
X126249200Y-128496715I0J272085D01*
G01*
X126249200Y-127789285D01*
G75*
G02*
X126521285Y-127517200I272085J0D01*
G01*
G37*
G36*
G01*
X126521285Y-125467200D02*
X127478715Y-125467200D01*
G75*
G02*
X127750800Y-125739285I0J-272085D01*
G01*
X127750800Y-126446715D01*
G75*
G02*
X127478715Y-126718800I-272085J0D01*
G01*
X126521285Y-126718800D01*
G75*
G02*
X126249200Y-126446715I0J272085D01*
G01*
X126249200Y-125739285D01*
G75*
G02*
X126521285Y-125467200I272085J0D01*
G01*
G37*
%TD*%
%TO.C,R33*%
G36*
G01*
X107432800Y-144047285D02*
X107432800Y-145004715D01*
G75*
G02*
X107160715Y-145276800I-272085J0D01*
G01*
X106453285Y-145276800D01*
G75*
G02*
X106181200Y-145004715I0J272085D01*
G01*
X106181200Y-144047285D01*
G75*
G02*
X106453285Y-143775200I272085J0D01*
G01*
X107160715Y-143775200D01*
G75*
G02*
X107432800Y-144047285I0J-272085D01*
G01*
G37*
G36*
G01*
X105382800Y-144047285D02*
X105382800Y-145004715D01*
G75*
G02*
X105110715Y-145276800I-272085J0D01*
G01*
X104403285Y-145276800D01*
G75*
G02*
X104131200Y-145004715I0J272085D01*
G01*
X104131200Y-144047285D01*
G75*
G02*
X104403285Y-143775200I272085J0D01*
G01*
X105110715Y-143775200D01*
G75*
G02*
X105382800Y-144047285I0J-272085D01*
G01*
G37*
%TD*%
%TO.C,R32*%
G36*
G01*
X101443715Y-142729800D02*
X100486285Y-142729800D01*
G75*
G02*
X100214200Y-142457715I0J272085D01*
G01*
X100214200Y-141750285D01*
G75*
G02*
X100486285Y-141478200I272085J0D01*
G01*
X101443715Y-141478200D01*
G75*
G02*
X101715800Y-141750285I0J-272085D01*
G01*
X101715800Y-142457715D01*
G75*
G02*
X101443715Y-142729800I-272085J0D01*
G01*
G37*
G36*
G01*
X101443715Y-144779800D02*
X100486285Y-144779800D01*
G75*
G02*
X100214200Y-144507715I0J272085D01*
G01*
X100214200Y-143800285D01*
G75*
G02*
X100486285Y-143528200I272085J0D01*
G01*
X101443715Y-143528200D01*
G75*
G02*
X101715800Y-143800285I0J-272085D01*
G01*
X101715800Y-144507715D01*
G75*
G02*
X101443715Y-144779800I-272085J0D01*
G01*
G37*
%TD*%
%TO.C,R31*%
G36*
G01*
X88421285Y-127272200D02*
X89378715Y-127272200D01*
G75*
G02*
X89650800Y-127544285I0J-272085D01*
G01*
X89650800Y-128251715D01*
G75*
G02*
X89378715Y-128523800I-272085J0D01*
G01*
X88421285Y-128523800D01*
G75*
G02*
X88149200Y-128251715I0J272085D01*
G01*
X88149200Y-127544285D01*
G75*
G02*
X88421285Y-127272200I272085J0D01*
G01*
G37*
G36*
G01*
X88421285Y-125222200D02*
X89378715Y-125222200D01*
G75*
G02*
X89650800Y-125494285I0J-272085D01*
G01*
X89650800Y-126201715D01*
G75*
G02*
X89378715Y-126473800I-272085J0D01*
G01*
X88421285Y-126473800D01*
G75*
G02*
X88149200Y-126201715I0J272085D01*
G01*
X88149200Y-125494285D01*
G75*
G02*
X88421285Y-125222200I272085J0D01*
G01*
G37*
%TD*%
%TO.C,R30*%
G36*
G01*
X112424285Y-119398200D02*
X113381715Y-119398200D01*
G75*
G02*
X113653800Y-119670285I0J-272085D01*
G01*
X113653800Y-120377715D01*
G75*
G02*
X113381715Y-120649800I-272085J0D01*
G01*
X112424285Y-120649800D01*
G75*
G02*
X112152200Y-120377715I0J272085D01*
G01*
X112152200Y-119670285D01*
G75*
G02*
X112424285Y-119398200I272085J0D01*
G01*
G37*
G36*
G01*
X112424285Y-117348200D02*
X113381715Y-117348200D01*
G75*
G02*
X113653800Y-117620285I0J-272085D01*
G01*
X113653800Y-118327715D01*
G75*
G02*
X113381715Y-118599800I-272085J0D01*
G01*
X112424285Y-118599800D01*
G75*
G02*
X112152200Y-118327715I0J272085D01*
G01*
X112152200Y-117620285D01*
G75*
G02*
X112424285Y-117348200I272085J0D01*
G01*
G37*
%TD*%
%TO.C,R29*%
G36*
G01*
X104158200Y-115921715D02*
X104158200Y-114964285D01*
G75*
G02*
X104430285Y-114692200I272085J0D01*
G01*
X105137715Y-114692200D01*
G75*
G02*
X105409800Y-114964285I0J-272085D01*
G01*
X105409800Y-115921715D01*
G75*
G02*
X105137715Y-116193800I-272085J0D01*
G01*
X104430285Y-116193800D01*
G75*
G02*
X104158200Y-115921715I0J272085D01*
G01*
G37*
G36*
G01*
X102108200Y-115921715D02*
X102108200Y-114964285D01*
G75*
G02*
X102380285Y-114692200I272085J0D01*
G01*
X103087715Y-114692200D01*
G75*
G02*
X103359800Y-114964285I0J-272085D01*
G01*
X103359800Y-115921715D01*
G75*
G02*
X103087715Y-116193800I-272085J0D01*
G01*
X102380285Y-116193800D01*
G75*
G02*
X102108200Y-115921715I0J272085D01*
G01*
G37*
%TD*%
%TO.C,R28*%
G36*
G01*
X105312285Y-110644200D02*
X106269715Y-110644200D01*
G75*
G02*
X106541800Y-110916285I0J-272085D01*
G01*
X106541800Y-111623715D01*
G75*
G02*
X106269715Y-111895800I-272085J0D01*
G01*
X105312285Y-111895800D01*
G75*
G02*
X105040200Y-111623715I0J272085D01*
G01*
X105040200Y-110916285D01*
G75*
G02*
X105312285Y-110644200I272085J0D01*
G01*
G37*
G36*
G01*
X105312285Y-108594200D02*
X106269715Y-108594200D01*
G75*
G02*
X106541800Y-108866285I0J-272085D01*
G01*
X106541800Y-109573715D01*
G75*
G02*
X106269715Y-109845800I-272085J0D01*
G01*
X105312285Y-109845800D01*
G75*
G02*
X105040200Y-109573715I0J272085D01*
G01*
X105040200Y-108866285D01*
G75*
G02*
X105312285Y-108594200I272085J0D01*
G01*
G37*
%TD*%
%TO.C,R27*%
G36*
G01*
X115091285Y-127517200D02*
X116048715Y-127517200D01*
G75*
G02*
X116320800Y-127789285I0J-272085D01*
G01*
X116320800Y-128496715D01*
G75*
G02*
X116048715Y-128768800I-272085J0D01*
G01*
X115091285Y-128768800D01*
G75*
G02*
X114819200Y-128496715I0J272085D01*
G01*
X114819200Y-127789285D01*
G75*
G02*
X115091285Y-127517200I272085J0D01*
G01*
G37*
G36*
G01*
X115091285Y-125467200D02*
X116048715Y-125467200D01*
G75*
G02*
X116320800Y-125739285I0J-272085D01*
G01*
X116320800Y-126446715D01*
G75*
G02*
X116048715Y-126718800I-272085J0D01*
G01*
X115091285Y-126718800D01*
G75*
G02*
X114819200Y-126446715I0J272085D01*
G01*
X114819200Y-125739285D01*
G75*
G02*
X115091285Y-125467200I272085J0D01*
G01*
G37*
%TD*%
%TO.C,R25*%
G36*
G01*
X105527800Y-135919285D02*
X105527800Y-136876715D01*
G75*
G02*
X105255715Y-137148800I-272085J0D01*
G01*
X104548285Y-137148800D01*
G75*
G02*
X104276200Y-136876715I0J272085D01*
G01*
X104276200Y-135919285D01*
G75*
G02*
X104548285Y-135647200I272085J0D01*
G01*
X105255715Y-135647200D01*
G75*
G02*
X105527800Y-135919285I0J-272085D01*
G01*
G37*
G36*
G01*
X107577800Y-135919285D02*
X107577800Y-136876715D01*
G75*
G02*
X107305715Y-137148800I-272085J0D01*
G01*
X106598285Y-137148800D01*
G75*
G02*
X106326200Y-136876715I0J272085D01*
G01*
X106326200Y-135919285D01*
G75*
G02*
X106598285Y-135647200I272085J0D01*
G01*
X107305715Y-135647200D01*
G75*
G02*
X107577800Y-135919285I0J-272085D01*
G01*
G37*
%TD*%
%TO.C,R24*%
G36*
G01*
X100486285Y-138058200D02*
X101443715Y-138058200D01*
G75*
G02*
X101715800Y-138330285I0J-272085D01*
G01*
X101715800Y-139037715D01*
G75*
G02*
X101443715Y-139309800I-272085J0D01*
G01*
X100486285Y-139309800D01*
G75*
G02*
X100214200Y-139037715I0J272085D01*
G01*
X100214200Y-138330285D01*
G75*
G02*
X100486285Y-138058200I272085J0D01*
G01*
G37*
G36*
G01*
X100486285Y-136008200D02*
X101443715Y-136008200D01*
G75*
G02*
X101715800Y-136280285I0J-272085D01*
G01*
X101715800Y-136987715D01*
G75*
G02*
X101443715Y-137259800I-272085J0D01*
G01*
X100486285Y-137259800D01*
G75*
G02*
X100214200Y-136987715I0J272085D01*
G01*
X100214200Y-136280285D01*
G75*
G02*
X100486285Y-136008200I272085J0D01*
G01*
G37*
%TD*%
%TO.C,R23*%
G36*
G01*
X99851285Y-93980200D02*
X100808715Y-93980200D01*
G75*
G02*
X101080800Y-94252285I0J-272085D01*
G01*
X101080800Y-94959715D01*
G75*
G02*
X100808715Y-95231800I-272085J0D01*
G01*
X99851285Y-95231800D01*
G75*
G02*
X99579200Y-94959715I0J272085D01*
G01*
X99579200Y-94252285D01*
G75*
G02*
X99851285Y-93980200I272085J0D01*
G01*
G37*
G36*
G01*
X99851285Y-96030200D02*
X100808715Y-96030200D01*
G75*
G02*
X101080800Y-96302285I0J-272085D01*
G01*
X101080800Y-97009715D01*
G75*
G02*
X100808715Y-97281800I-272085J0D01*
G01*
X99851285Y-97281800D01*
G75*
G02*
X99579200Y-97009715I0J272085D01*
G01*
X99579200Y-96302285D01*
G75*
G02*
X99851285Y-96030200I272085J0D01*
G01*
G37*
%TD*%
%TO.C,R22*%
G36*
G01*
X90423800Y-100041785D02*
X90423800Y-100999215D01*
G75*
G02*
X90151715Y-101271300I-272085J0D01*
G01*
X89444285Y-101271300D01*
G75*
G02*
X89172200Y-100999215I0J272085D01*
G01*
X89172200Y-100041785D01*
G75*
G02*
X89444285Y-99769700I272085J0D01*
G01*
X90151715Y-99769700D01*
G75*
G02*
X90423800Y-100041785I0J-272085D01*
G01*
G37*
G36*
G01*
X88373800Y-100041785D02*
X88373800Y-100999215D01*
G75*
G02*
X88101715Y-101271300I-272085J0D01*
G01*
X87394285Y-101271300D01*
G75*
G02*
X87122200Y-100999215I0J272085D01*
G01*
X87122200Y-100041785D01*
G75*
G02*
X87394285Y-99769700I272085J0D01*
G01*
X88101715Y-99769700D01*
G75*
G02*
X88373800Y-100041785I0J-272085D01*
G01*
G37*
%TD*%
%TO.C,R21*%
G36*
G01*
X99332200Y-76551715D02*
X99332200Y-75594285D01*
G75*
G02*
X99604285Y-75322200I272085J0D01*
G01*
X100311715Y-75322200D01*
G75*
G02*
X100583800Y-75594285I0J-272085D01*
G01*
X100583800Y-76551715D01*
G75*
G02*
X100311715Y-76823800I-272085J0D01*
G01*
X99604285Y-76823800D01*
G75*
G02*
X99332200Y-76551715I0J272085D01*
G01*
G37*
G36*
G01*
X97282200Y-76551715D02*
X97282200Y-75594285D01*
G75*
G02*
X97554285Y-75322200I272085J0D01*
G01*
X98261715Y-75322200D01*
G75*
G02*
X98533800Y-75594285I0J-272085D01*
G01*
X98533800Y-76551715D01*
G75*
G02*
X98261715Y-76823800I-272085J0D01*
G01*
X97554285Y-76823800D01*
G75*
G02*
X97282200Y-76551715I0J272085D01*
G01*
G37*
%TD*%
%TO.C,R20*%
G36*
G01*
X101491200Y-73440215D02*
X101491200Y-72482785D01*
G75*
G02*
X101763285Y-72210700I272085J0D01*
G01*
X102470715Y-72210700D01*
G75*
G02*
X102742800Y-72482785I0J-272085D01*
G01*
X102742800Y-73440215D01*
G75*
G02*
X102470715Y-73712300I-272085J0D01*
G01*
X101763285Y-73712300D01*
G75*
G02*
X101491200Y-73440215I0J272085D01*
G01*
G37*
G36*
G01*
X99441200Y-73440215D02*
X99441200Y-72482785D01*
G75*
G02*
X99713285Y-72210700I272085J0D01*
G01*
X100420715Y-72210700D01*
G75*
G02*
X100692800Y-72482785I0J-272085D01*
G01*
X100692800Y-73440215D01*
G75*
G02*
X100420715Y-73712300I-272085J0D01*
G01*
X99713285Y-73712300D01*
G75*
G02*
X99441200Y-73440215I0J272085D01*
G01*
G37*
%TD*%
%TO.C,R18*%
G36*
G01*
X95395200Y-98967215D02*
X95395200Y-98009785D01*
G75*
G02*
X95667285Y-97737700I272085J0D01*
G01*
X96374715Y-97737700D01*
G75*
G02*
X96646800Y-98009785I0J-272085D01*
G01*
X96646800Y-98967215D01*
G75*
G02*
X96374715Y-99239300I-272085J0D01*
G01*
X95667285Y-99239300D01*
G75*
G02*
X95395200Y-98967215I0J272085D01*
G01*
G37*
G36*
G01*
X93345200Y-98967215D02*
X93345200Y-98009785D01*
G75*
G02*
X93617285Y-97737700I272085J0D01*
G01*
X94324715Y-97737700D01*
G75*
G02*
X94596800Y-98009785I0J-272085D01*
G01*
X94596800Y-98967215D01*
G75*
G02*
X94324715Y-99239300I-272085J0D01*
G01*
X93617285Y-99239300D01*
G75*
G02*
X93345200Y-98967215I0J272085D01*
G01*
G37*
%TD*%
%TO.C,R17*%
G36*
G01*
X92231285Y-127272200D02*
X93188715Y-127272200D01*
G75*
G02*
X93460800Y-127544285I0J-272085D01*
G01*
X93460800Y-128251715D01*
G75*
G02*
X93188715Y-128523800I-272085J0D01*
G01*
X92231285Y-128523800D01*
G75*
G02*
X91959200Y-128251715I0J272085D01*
G01*
X91959200Y-127544285D01*
G75*
G02*
X92231285Y-127272200I272085J0D01*
G01*
G37*
G36*
G01*
X92231285Y-125222200D02*
X93188715Y-125222200D01*
G75*
G02*
X93460800Y-125494285I0J-272085D01*
G01*
X93460800Y-126201715D01*
G75*
G02*
X93188715Y-126473800I-272085J0D01*
G01*
X92231285Y-126473800D01*
G75*
G02*
X91959200Y-126201715I0J272085D01*
G01*
X91959200Y-125494285D01*
G75*
G02*
X92231285Y-125222200I272085J0D01*
G01*
G37*
%TD*%
%TO.C,R16*%
G36*
G01*
X96041285Y-127272200D02*
X96998715Y-127272200D01*
G75*
G02*
X97270800Y-127544285I0J-272085D01*
G01*
X97270800Y-128251715D01*
G75*
G02*
X96998715Y-128523800I-272085J0D01*
G01*
X96041285Y-128523800D01*
G75*
G02*
X95769200Y-128251715I0J272085D01*
G01*
X95769200Y-127544285D01*
G75*
G02*
X96041285Y-127272200I272085J0D01*
G01*
G37*
G36*
G01*
X96041285Y-125222200D02*
X96998715Y-125222200D01*
G75*
G02*
X97270800Y-125494285I0J-272085D01*
G01*
X97270800Y-126201715D01*
G75*
G02*
X96998715Y-126473800I-272085J0D01*
G01*
X96041285Y-126473800D01*
G75*
G02*
X95769200Y-126201715I0J272085D01*
G01*
X95769200Y-125494285D01*
G75*
G02*
X96041285Y-125222200I272085J0D01*
G01*
G37*
%TD*%
%TO.C,R15*%
G36*
G01*
X154969285Y-112413200D02*
X155926715Y-112413200D01*
G75*
G02*
X156198800Y-112685285I0J-272085D01*
G01*
X156198800Y-113392715D01*
G75*
G02*
X155926715Y-113664800I-272085J0D01*
G01*
X154969285Y-113664800D01*
G75*
G02*
X154697200Y-113392715I0J272085D01*
G01*
X154697200Y-112685285D01*
G75*
G02*
X154969285Y-112413200I272085J0D01*
G01*
G37*
G36*
G01*
X154969285Y-110363200D02*
X155926715Y-110363200D01*
G75*
G02*
X156198800Y-110635285I0J-272085D01*
G01*
X156198800Y-111342715D01*
G75*
G02*
X155926715Y-111614800I-272085J0D01*
G01*
X154969285Y-111614800D01*
G75*
G02*
X154697200Y-111342715I0J272085D01*
G01*
X154697200Y-110635285D01*
G75*
G02*
X154969285Y-110363200I272085J0D01*
G01*
G37*
%TD*%
%TO.C,R14*%
G36*
G01*
X159228715Y-112385800D02*
X158271285Y-112385800D01*
G75*
G02*
X157999200Y-112113715I0J272085D01*
G01*
X157999200Y-111406285D01*
G75*
G02*
X158271285Y-111134200I272085J0D01*
G01*
X159228715Y-111134200D01*
G75*
G02*
X159500800Y-111406285I0J-272085D01*
G01*
X159500800Y-112113715D01*
G75*
G02*
X159228715Y-112385800I-272085J0D01*
G01*
G37*
G36*
G01*
X159228715Y-114435800D02*
X158271285Y-114435800D01*
G75*
G02*
X157999200Y-114163715I0J272085D01*
G01*
X157999200Y-113456285D01*
G75*
G02*
X158271285Y-113184200I272085J0D01*
G01*
X159228715Y-113184200D01*
G75*
G02*
X159500800Y-113456285I0J-272085D01*
G01*
X159500800Y-114163715D01*
G75*
G02*
X159228715Y-114435800I-272085J0D01*
G01*
G37*
%TD*%
%TO.C,R13*%
G36*
G01*
X152878715Y-106280800D02*
X151921285Y-106280800D01*
G75*
G02*
X151649200Y-106008715I0J272085D01*
G01*
X151649200Y-105301285D01*
G75*
G02*
X151921285Y-105029200I272085J0D01*
G01*
X152878715Y-105029200D01*
G75*
G02*
X153150800Y-105301285I0J-272085D01*
G01*
X153150800Y-106008715D01*
G75*
G02*
X152878715Y-106280800I-272085J0D01*
G01*
G37*
G36*
G01*
X152878715Y-108330800D02*
X151921285Y-108330800D01*
G75*
G02*
X151649200Y-108058715I0J272085D01*
G01*
X151649200Y-107351285D01*
G75*
G02*
X151921285Y-107079200I272085J0D01*
G01*
X152878715Y-107079200D01*
G75*
G02*
X153150800Y-107351285I0J-272085D01*
G01*
X153150800Y-108058715D01*
G75*
G02*
X152878715Y-108330800I-272085J0D01*
G01*
G37*
%TD*%
%TO.C,R12*%
G36*
G01*
X92065800Y-76102285D02*
X92065800Y-77059715D01*
G75*
G02*
X91793715Y-77331800I-272085J0D01*
G01*
X91086285Y-77331800D01*
G75*
G02*
X90814200Y-77059715I0J272085D01*
G01*
X90814200Y-76102285D01*
G75*
G02*
X91086285Y-75830200I272085J0D01*
G01*
X91793715Y-75830200D01*
G75*
G02*
X92065800Y-76102285I0J-272085D01*
G01*
G37*
G36*
G01*
X90015800Y-76102285D02*
X90015800Y-77059715D01*
G75*
G02*
X89743715Y-77331800I-272085J0D01*
G01*
X89036285Y-77331800D01*
G75*
G02*
X88764200Y-77059715I0J272085D01*
G01*
X88764200Y-76102285D01*
G75*
G02*
X89036285Y-75830200I272085J0D01*
G01*
X89743715Y-75830200D01*
G75*
G02*
X90015800Y-76102285I0J-272085D01*
G01*
G37*
%TD*%
%TO.C,R11*%
G36*
G01*
X160274200Y-112111715D02*
X160274200Y-111154285D01*
G75*
G02*
X160546285Y-110882200I272085J0D01*
G01*
X161253715Y-110882200D01*
G75*
G02*
X161525800Y-111154285I0J-272085D01*
G01*
X161525800Y-112111715D01*
G75*
G02*
X161253715Y-112383800I-272085J0D01*
G01*
X160546285Y-112383800D01*
G75*
G02*
X160274200Y-112111715I0J272085D01*
G01*
G37*
G36*
G01*
X162324200Y-112111715D02*
X162324200Y-111154285D01*
G75*
G02*
X162596285Y-110882200I272085J0D01*
G01*
X163303715Y-110882200D01*
G75*
G02*
X163575800Y-111154285I0J-272085D01*
G01*
X163575800Y-112111715D01*
G75*
G02*
X163303715Y-112383800I-272085J0D01*
G01*
X162596285Y-112383800D01*
G75*
G02*
X162324200Y-112111715I0J272085D01*
G01*
G37*
%TD*%
%TO.C,R10*%
G36*
G01*
X129494700Y-63534215D02*
X129494700Y-62576785D01*
G75*
G02*
X129766785Y-62304700I272085J0D01*
G01*
X130474215Y-62304700D01*
G75*
G02*
X130746300Y-62576785I0J-272085D01*
G01*
X130746300Y-63534215D01*
G75*
G02*
X130474215Y-63806300I-272085J0D01*
G01*
X129766785Y-63806300D01*
G75*
G02*
X129494700Y-63534215I0J272085D01*
G01*
G37*
G36*
G01*
X127444700Y-63534215D02*
X127444700Y-62576785D01*
G75*
G02*
X127716785Y-62304700I272085J0D01*
G01*
X128424215Y-62304700D01*
G75*
G02*
X128696300Y-62576785I0J-272085D01*
G01*
X128696300Y-63534215D01*
G75*
G02*
X128424215Y-63806300I-272085J0D01*
G01*
X127716785Y-63806300D01*
G75*
G02*
X127444700Y-63534215I0J272085D01*
G01*
G37*
%TD*%
%TO.C,R9*%
G36*
G01*
X115853285Y-93998200D02*
X116810715Y-93998200D01*
G75*
G02*
X117082800Y-94270285I0J-272085D01*
G01*
X117082800Y-94977715D01*
G75*
G02*
X116810715Y-95249800I-272085J0D01*
G01*
X115853285Y-95249800D01*
G75*
G02*
X115581200Y-94977715I0J272085D01*
G01*
X115581200Y-94270285D01*
G75*
G02*
X115853285Y-93998200I272085J0D01*
G01*
G37*
G36*
G01*
X115853285Y-91948200D02*
X116810715Y-91948200D01*
G75*
G02*
X117082800Y-92220285I0J-272085D01*
G01*
X117082800Y-92927715D01*
G75*
G02*
X116810715Y-93199800I-272085J0D01*
G01*
X115853285Y-93199800D01*
G75*
G02*
X115581200Y-92927715I0J272085D01*
G01*
X115581200Y-92220285D01*
G75*
G02*
X115853285Y-91948200I272085J0D01*
G01*
G37*
%TD*%
%TO.C,R8*%
G36*
G01*
X141967800Y-129696285D02*
X141967800Y-130653715D01*
G75*
G02*
X141695715Y-130925800I-272085J0D01*
G01*
X140988285Y-130925800D01*
G75*
G02*
X140716200Y-130653715I0J272085D01*
G01*
X140716200Y-129696285D01*
G75*
G02*
X140988285Y-129424200I272085J0D01*
G01*
X141695715Y-129424200D01*
G75*
G02*
X141967800Y-129696285I0J-272085D01*
G01*
G37*
G36*
G01*
X144017800Y-129696285D02*
X144017800Y-130653715D01*
G75*
G02*
X143745715Y-130925800I-272085J0D01*
G01*
X143038285Y-130925800D01*
G75*
G02*
X142766200Y-130653715I0J272085D01*
G01*
X142766200Y-129696285D01*
G75*
G02*
X143038285Y-129424200I272085J0D01*
G01*
X143745715Y-129424200D01*
G75*
G02*
X144017800Y-129696285I0J-272085D01*
G01*
G37*
%TD*%
%TO.C,R7*%
G36*
G01*
X145904800Y-132998285D02*
X145904800Y-133955715D01*
G75*
G02*
X145632715Y-134227800I-272085J0D01*
G01*
X144925285Y-134227800D01*
G75*
G02*
X144653200Y-133955715I0J272085D01*
G01*
X144653200Y-132998285D01*
G75*
G02*
X144925285Y-132726200I272085J0D01*
G01*
X145632715Y-132726200D01*
G75*
G02*
X145904800Y-132998285I0J-272085D01*
G01*
G37*
G36*
G01*
X147954800Y-132998285D02*
X147954800Y-133955715D01*
G75*
G02*
X147682715Y-134227800I-272085J0D01*
G01*
X146975285Y-134227800D01*
G75*
G02*
X146703200Y-133955715I0J272085D01*
G01*
X146703200Y-132998285D01*
G75*
G02*
X146975285Y-132726200I272085J0D01*
G01*
X147682715Y-132726200D01*
G75*
G02*
X147954800Y-132998285I0J-272085D01*
G01*
G37*
%TD*%
%TO.C,R6*%
G36*
G01*
X129685200Y-71344715D02*
X129685200Y-70387285D01*
G75*
G02*
X129957285Y-70115200I272085J0D01*
G01*
X130664715Y-70115200D01*
G75*
G02*
X130936800Y-70387285I0J-272085D01*
G01*
X130936800Y-71344715D01*
G75*
G02*
X130664715Y-71616800I-272085J0D01*
G01*
X129957285Y-71616800D01*
G75*
G02*
X129685200Y-71344715I0J272085D01*
G01*
G37*
G36*
G01*
X127635200Y-71344715D02*
X127635200Y-70387285D01*
G75*
G02*
X127907285Y-70115200I272085J0D01*
G01*
X128614715Y-70115200D01*
G75*
G02*
X128886800Y-70387285I0J-272085D01*
G01*
X128886800Y-71344715D01*
G75*
G02*
X128614715Y-71616800I-272085J0D01*
G01*
X127907285Y-71616800D01*
G75*
G02*
X127635200Y-71344715I0J272085D01*
G01*
G37*
%TD*%
%TO.C,R5*%
G36*
G01*
X126013285Y-93998200D02*
X126970715Y-93998200D01*
G75*
G02*
X127242800Y-94270285I0J-272085D01*
G01*
X127242800Y-94977715D01*
G75*
G02*
X126970715Y-95249800I-272085J0D01*
G01*
X126013285Y-95249800D01*
G75*
G02*
X125741200Y-94977715I0J272085D01*
G01*
X125741200Y-94270285D01*
G75*
G02*
X126013285Y-93998200I272085J0D01*
G01*
G37*
G36*
G01*
X126013285Y-91948200D02*
X126970715Y-91948200D01*
G75*
G02*
X127242800Y-92220285I0J-272085D01*
G01*
X127242800Y-92927715D01*
G75*
G02*
X126970715Y-93199800I-272085J0D01*
G01*
X126013285Y-93199800D01*
G75*
G02*
X125741200Y-92927715I0J272085D01*
G01*
X125741200Y-92220285D01*
G75*
G02*
X126013285Y-91948200I272085J0D01*
G01*
G37*
%TD*%
%TO.C,R4*%
G36*
G01*
X120933285Y-93998200D02*
X121890715Y-93998200D01*
G75*
G02*
X122162800Y-94270285I0J-272085D01*
G01*
X122162800Y-94977715D01*
G75*
G02*
X121890715Y-95249800I-272085J0D01*
G01*
X120933285Y-95249800D01*
G75*
G02*
X120661200Y-94977715I0J272085D01*
G01*
X120661200Y-94270285D01*
G75*
G02*
X120933285Y-93998200I272085J0D01*
G01*
G37*
G36*
G01*
X120933285Y-91948200D02*
X121890715Y-91948200D01*
G75*
G02*
X122162800Y-92220285I0J-272085D01*
G01*
X122162800Y-92927715D01*
G75*
G02*
X121890715Y-93199800I-272085J0D01*
G01*
X120933285Y-93199800D01*
G75*
G02*
X120661200Y-92927715I0J272085D01*
G01*
X120661200Y-92220285D01*
G75*
G02*
X120933285Y-91948200I272085J0D01*
G01*
G37*
%TD*%
%TO.C,R3*%
G36*
G01*
X87058700Y-96871715D02*
X87058700Y-95914285D01*
G75*
G02*
X87330785Y-95642200I272085J0D01*
G01*
X88038215Y-95642200D01*
G75*
G02*
X88310300Y-95914285I0J-272085D01*
G01*
X88310300Y-96871715D01*
G75*
G02*
X88038215Y-97143800I-272085J0D01*
G01*
X87330785Y-97143800D01*
G75*
G02*
X87058700Y-96871715I0J272085D01*
G01*
G37*
G36*
G01*
X89108700Y-96871715D02*
X89108700Y-95914285D01*
G75*
G02*
X89380785Y-95642200I272085J0D01*
G01*
X90088215Y-95642200D01*
G75*
G02*
X90360300Y-95914285I0J-272085D01*
G01*
X90360300Y-96871715D01*
G75*
G02*
X90088215Y-97143800I-272085J0D01*
G01*
X89380785Y-97143800D01*
G75*
G02*
X89108700Y-96871715I0J272085D01*
G01*
G37*
%TD*%
%TO.C,R1*%
G36*
G01*
X96964300Y-72482785D02*
X96964300Y-73440215D01*
G75*
G02*
X96692215Y-73712300I-272085J0D01*
G01*
X95984785Y-73712300D01*
G75*
G02*
X95712700Y-73440215I0J272085D01*
G01*
X95712700Y-72482785D01*
G75*
G02*
X95984785Y-72210700I272085J0D01*
G01*
X96692215Y-72210700D01*
G75*
G02*
X96964300Y-72482785I0J-272085D01*
G01*
G37*
G36*
G01*
X94914300Y-72482785D02*
X94914300Y-73440215D01*
G75*
G02*
X94642215Y-73712300I-272085J0D01*
G01*
X93934785Y-73712300D01*
G75*
G02*
X93662700Y-73440215I0J272085D01*
G01*
X93662700Y-72482785D01*
G75*
G02*
X93934785Y-72210700I272085J0D01*
G01*
X94642215Y-72210700D01*
G75*
G02*
X94914300Y-72482785I0J-272085D01*
G01*
G37*
%TD*%
%TO.C,Q1*%
G36*
G01*
X91543800Y-71670000D02*
X91543800Y-72470000D01*
G75*
G02*
X91493000Y-72520800I-50800J0D01*
G01*
X90593000Y-72520800D01*
G75*
G02*
X90542200Y-72470000I0J50800D01*
G01*
X90542200Y-71670000D01*
G75*
G02*
X90593000Y-71619200I50800J0D01*
G01*
X91493000Y-71619200D01*
G75*
G02*
X91543800Y-71670000I0J-50800D01*
G01*
G37*
G36*
G01*
X91543800Y-69770000D02*
X91543800Y-70570000D01*
G75*
G02*
X91493000Y-70620800I-50800J0D01*
G01*
X90593000Y-70620800D01*
G75*
G02*
X90542200Y-70570000I0J50800D01*
G01*
X90542200Y-69770000D01*
G75*
G02*
X90593000Y-69719200I50800J0D01*
G01*
X91493000Y-69719200D01*
G75*
G02*
X91543800Y-69770000I0J-50800D01*
G01*
G37*
G36*
G01*
X89543800Y-70720000D02*
X89543800Y-71520000D01*
G75*
G02*
X89493000Y-71570800I-50800J0D01*
G01*
X88593000Y-71570800D01*
G75*
G02*
X88542200Y-71520000I0J50800D01*
G01*
X88542200Y-70720000D01*
G75*
G02*
X88593000Y-70669200I50800J0D01*
G01*
X89493000Y-70669200D01*
G75*
G02*
X89543800Y-70720000I0J-50800D01*
G01*
G37*
%TD*%
%TO.C,J8*%
G36*
G01*
X88185500Y-79452300D02*
X86185500Y-79452300D01*
G75*
G02*
X86134700Y-79401500I0J50800D01*
G01*
X86134700Y-77951500D01*
G75*
G02*
X86185500Y-77900700I50800J0D01*
G01*
X88185500Y-77900700D01*
G75*
G02*
X88236300Y-77951500I0J-50800D01*
G01*
X88236300Y-79401500D01*
G75*
G02*
X88185500Y-79452300I-50800J0D01*
G01*
G37*
G36*
G01*
X88185500Y-93202300D02*
X86185500Y-93202300D01*
G75*
G02*
X86134700Y-93151500I0J50800D01*
G01*
X86134700Y-91701500D01*
G75*
G02*
X86185500Y-91650700I50800J0D01*
G01*
X88185500Y-91650700D01*
G75*
G02*
X88236300Y-91701500I0J-50800D01*
G01*
X88236300Y-93151500D01*
G75*
G02*
X88185500Y-93202300I-50800J0D01*
G01*
G37*
G36*
G01*
X96485500Y-93202300D02*
X94485500Y-93202300D01*
G75*
G02*
X94434700Y-93151500I0J50800D01*
G01*
X94434700Y-91701500D01*
G75*
G02*
X94485500Y-91650700I50800J0D01*
G01*
X96485500Y-91650700D01*
G75*
G02*
X96536300Y-91701500I0J-50800D01*
G01*
X96536300Y-93151500D01*
G75*
G02*
X96485500Y-93202300I-50800J0D01*
G01*
G37*
G36*
G01*
X96485500Y-79452300D02*
X94485500Y-79452300D01*
G75*
G02*
X94434700Y-79401500I0J50800D01*
G01*
X94434700Y-77951500D01*
G75*
G02*
X94485500Y-77900700I50800J0D01*
G01*
X96485500Y-77900700D01*
G75*
G02*
X96536300Y-77951500I0J-50800D01*
G01*
X96536300Y-79401500D01*
G75*
G02*
X96485500Y-79452300I-50800J0D01*
G01*
G37*
G36*
G01*
X90535500Y-81507300D02*
X89035500Y-81507300D01*
G75*
G02*
X88984700Y-81456500I0J50800D01*
G01*
X88984700Y-80656500D01*
G75*
G02*
X89035500Y-80605700I50800J0D01*
G01*
X90535500Y-80605700D01*
G75*
G02*
X90586300Y-80656500I0J-50800D01*
G01*
X90586300Y-81456500D01*
G75*
G02*
X90535500Y-81507300I-50800J0D01*
G01*
G37*
G36*
G01*
X90535500Y-82607300D02*
X89035500Y-82607300D01*
G75*
G02*
X88984700Y-82556500I0J50800D01*
G01*
X88984700Y-81756500D01*
G75*
G02*
X89035500Y-81705700I50800J0D01*
G01*
X90535500Y-81705700D01*
G75*
G02*
X90586300Y-81756500I0J-50800D01*
G01*
X90586300Y-82556500D01*
G75*
G02*
X90535500Y-82607300I-50800J0D01*
G01*
G37*
G36*
G01*
X90535500Y-83707300D02*
X89035500Y-83707300D01*
G75*
G02*
X88984700Y-83656500I0J50800D01*
G01*
X88984700Y-82856500D01*
G75*
G02*
X89035500Y-82805700I50800J0D01*
G01*
X90535500Y-82805700D01*
G75*
G02*
X90586300Y-82856500I0J-50800D01*
G01*
X90586300Y-83656500D01*
G75*
G02*
X90535500Y-83707300I-50800J0D01*
G01*
G37*
G36*
G01*
X90545500Y-84807300D02*
X89045500Y-84807300D01*
G75*
G02*
X88994700Y-84756500I0J50800D01*
G01*
X88994700Y-83956500D01*
G75*
G02*
X89045500Y-83905700I50800J0D01*
G01*
X90545500Y-83905700D01*
G75*
G02*
X90596300Y-83956500I0J-50800D01*
G01*
X90596300Y-84756500D01*
G75*
G02*
X90545500Y-84807300I-50800J0D01*
G01*
G37*
G36*
G01*
X90535500Y-85907300D02*
X89035500Y-85907300D01*
G75*
G02*
X88984700Y-85856500I0J50800D01*
G01*
X88984700Y-85056500D01*
G75*
G02*
X89035500Y-85005700I50800J0D01*
G01*
X90535500Y-85005700D01*
G75*
G02*
X90586300Y-85056500I0J-50800D01*
G01*
X90586300Y-85856500D01*
G75*
G02*
X90535500Y-85907300I-50800J0D01*
G01*
G37*
G36*
G01*
X90535500Y-86997300D02*
X89035500Y-86997300D01*
G75*
G02*
X88984700Y-86946500I0J50800D01*
G01*
X88984700Y-86146500D01*
G75*
G02*
X89035500Y-86095700I50800J0D01*
G01*
X90535500Y-86095700D01*
G75*
G02*
X90586300Y-86146500I0J-50800D01*
G01*
X90586300Y-86946500D01*
G75*
G02*
X90535500Y-86997300I-50800J0D01*
G01*
G37*
G36*
G01*
X90535500Y-88107300D02*
X89035500Y-88107300D01*
G75*
G02*
X88984700Y-88056500I0J50800D01*
G01*
X88984700Y-87256500D01*
G75*
G02*
X89035500Y-87205700I50800J0D01*
G01*
X90535500Y-87205700D01*
G75*
G02*
X90586300Y-87256500I0J-50800D01*
G01*
X90586300Y-88056500D01*
G75*
G02*
X90535500Y-88107300I-50800J0D01*
G01*
G37*
G36*
G01*
X90535500Y-89207300D02*
X89035500Y-89207300D01*
G75*
G02*
X88984700Y-89156500I0J50800D01*
G01*
X88984700Y-88356500D01*
G75*
G02*
X89035500Y-88305700I50800J0D01*
G01*
X90535500Y-88305700D01*
G75*
G02*
X90586300Y-88356500I0J-50800D01*
G01*
X90586300Y-89156500D01*
G75*
G02*
X90535500Y-89207300I-50800J0D01*
G01*
G37*
%TD*%
%TO.C,F6*%
G36*
G01*
X156872200Y-61311715D02*
X156872200Y-60354285D01*
G75*
G02*
X157144285Y-60082200I272085J0D01*
G01*
X157851715Y-60082200D01*
G75*
G02*
X158123800Y-60354285I0J-272085D01*
G01*
X158123800Y-61311715D01*
G75*
G02*
X157851715Y-61583800I-272085J0D01*
G01*
X157144285Y-61583800D01*
G75*
G02*
X156872200Y-61311715I0J272085D01*
G01*
G37*
G36*
G01*
X154822200Y-61311715D02*
X154822200Y-60354285D01*
G75*
G02*
X155094285Y-60082200I272085J0D01*
G01*
X155801715Y-60082200D01*
G75*
G02*
X156073800Y-60354285I0J-272085D01*
G01*
X156073800Y-61311715D01*
G75*
G02*
X155801715Y-61583800I-272085J0D01*
G01*
X155094285Y-61583800D01*
G75*
G02*
X154822200Y-61311715I0J272085D01*
G01*
G37*
%TD*%
%TO.C,F5*%
G36*
G01*
X146957200Y-61311715D02*
X146957200Y-60354285D01*
G75*
G02*
X147229285Y-60082200I272085J0D01*
G01*
X147936715Y-60082200D01*
G75*
G02*
X148208800Y-60354285I0J-272085D01*
G01*
X148208800Y-61311715D01*
G75*
G02*
X147936715Y-61583800I-272085J0D01*
G01*
X147229285Y-61583800D01*
G75*
G02*
X146957200Y-61311715I0J272085D01*
G01*
G37*
G36*
G01*
X144907200Y-61311715D02*
X144907200Y-60354285D01*
G75*
G02*
X145179285Y-60082200I272085J0D01*
G01*
X145886715Y-60082200D01*
G75*
G02*
X146158800Y-60354285I0J-272085D01*
G01*
X146158800Y-61311715D01*
G75*
G02*
X145886715Y-61583800I-272085J0D01*
G01*
X145179285Y-61583800D01*
G75*
G02*
X144907200Y-61311715I0J272085D01*
G01*
G37*
%TD*%
%TO.C,F4*%
G36*
G01*
X138058200Y-61311715D02*
X138058200Y-60354285D01*
G75*
G02*
X138330285Y-60082200I272085J0D01*
G01*
X139037715Y-60082200D01*
G75*
G02*
X139309800Y-60354285I0J-272085D01*
G01*
X139309800Y-61311715D01*
G75*
G02*
X139037715Y-61583800I-272085J0D01*
G01*
X138330285Y-61583800D01*
G75*
G02*
X138058200Y-61311715I0J272085D01*
G01*
G37*
G36*
G01*
X136008200Y-61311715D02*
X136008200Y-60354285D01*
G75*
G02*
X136280285Y-60082200I272085J0D01*
G01*
X136987715Y-60082200D01*
G75*
G02*
X137259800Y-60354285I0J-272085D01*
G01*
X137259800Y-61311715D01*
G75*
G02*
X136987715Y-61583800I-272085J0D01*
G01*
X136280285Y-61583800D01*
G75*
G02*
X136008200Y-61311715I0J272085D01*
G01*
G37*
%TD*%
%TO.C,F3*%
G36*
G01*
X140452800Y-82071285D02*
X140452800Y-83028715D01*
G75*
G02*
X140180715Y-83300800I-272085J0D01*
G01*
X139473285Y-83300800D01*
G75*
G02*
X139201200Y-83028715I0J272085D01*
G01*
X139201200Y-82071285D01*
G75*
G02*
X139473285Y-81799200I272085J0D01*
G01*
X140180715Y-81799200D01*
G75*
G02*
X140452800Y-82071285I0J-272085D01*
G01*
G37*
G36*
G01*
X142502800Y-82071285D02*
X142502800Y-83028715D01*
G75*
G02*
X142230715Y-83300800I-272085J0D01*
G01*
X141523285Y-83300800D01*
G75*
G02*
X141251200Y-83028715I0J272085D01*
G01*
X141251200Y-82071285D01*
G75*
G02*
X141523285Y-81799200I272085J0D01*
G01*
X142230715Y-81799200D01*
G75*
G02*
X142502800Y-82071285I0J-272085D01*
G01*
G37*
%TD*%
%TO.C,F1*%
G36*
G01*
X140434800Y-76864285D02*
X140434800Y-77821715D01*
G75*
G02*
X140162715Y-78093800I-272085J0D01*
G01*
X139455285Y-78093800D01*
G75*
G02*
X139183200Y-77821715I0J272085D01*
G01*
X139183200Y-76864285D01*
G75*
G02*
X139455285Y-76592200I272085J0D01*
G01*
X140162715Y-76592200D01*
G75*
G02*
X140434800Y-76864285I0J-272085D01*
G01*
G37*
G36*
G01*
X142484800Y-76864285D02*
X142484800Y-77821715D01*
G75*
G02*
X142212715Y-78093800I-272085J0D01*
G01*
X141505285Y-78093800D01*
G75*
G02*
X141233200Y-77821715I0J272085D01*
G01*
X141233200Y-76864285D01*
G75*
G02*
X141505285Y-76592200I272085J0D01*
G01*
X142212715Y-76592200D01*
G75*
G02*
X142484800Y-76864285I0J-272085D01*
G01*
G37*
%TD*%
%TO.C,D6*%
G36*
G01*
X112058200Y-105402000D02*
X112058200Y-104402000D01*
G75*
G02*
X112109000Y-104351200I50800J0D01*
G01*
X113109000Y-104351200D01*
G75*
G02*
X113159800Y-104402000I0J-50800D01*
G01*
X113159800Y-105402000D01*
G75*
G02*
X113109000Y-105452800I-50800J0D01*
G01*
X112109000Y-105452800D01*
G75*
G02*
X112058200Y-105402000I0J50800D01*
G01*
G37*
G36*
G01*
X109558200Y-105402000D02*
X109558200Y-104402000D01*
G75*
G02*
X109609000Y-104351200I50800J0D01*
G01*
X110609000Y-104351200D01*
G75*
G02*
X110659800Y-104402000I0J-50800D01*
G01*
X110659800Y-105402000D01*
G75*
G02*
X110609000Y-105452800I-50800J0D01*
G01*
X109609000Y-105452800D01*
G75*
G02*
X109558200Y-105402000I0J50800D01*
G01*
G37*
%TD*%
%TO.C,C40*%
G36*
G01*
X99597285Y-114200200D02*
X100554715Y-114200200D01*
G75*
G02*
X100826800Y-114472285I0J-272085D01*
G01*
X100826800Y-115179715D01*
G75*
G02*
X100554715Y-115451800I-272085J0D01*
G01*
X99597285Y-115451800D01*
G75*
G02*
X99325200Y-115179715I0J272085D01*
G01*
X99325200Y-114472285D01*
G75*
G02*
X99597285Y-114200200I272085J0D01*
G01*
G37*
G36*
G01*
X99597285Y-112150200D02*
X100554715Y-112150200D01*
G75*
G02*
X100826800Y-112422285I0J-272085D01*
G01*
X100826800Y-113129715D01*
G75*
G02*
X100554715Y-113401800I-272085J0D01*
G01*
X99597285Y-113401800D01*
G75*
G02*
X99325200Y-113129715I0J272085D01*
G01*
X99325200Y-112422285D01*
G75*
G02*
X99597285Y-112150200I272085J0D01*
G01*
G37*
%TD*%
%TO.C,C39*%
G36*
G01*
X119624800Y-109884285D02*
X119624800Y-110841715D01*
G75*
G02*
X119352715Y-111113800I-272085J0D01*
G01*
X118645285Y-111113800D01*
G75*
G02*
X118373200Y-110841715I0J272085D01*
G01*
X118373200Y-109884285D01*
G75*
G02*
X118645285Y-109612200I272085J0D01*
G01*
X119352715Y-109612200D01*
G75*
G02*
X119624800Y-109884285I0J-272085D01*
G01*
G37*
G36*
G01*
X121674800Y-109884285D02*
X121674800Y-110841715D01*
G75*
G02*
X121402715Y-111113800I-272085J0D01*
G01*
X120695285Y-111113800D01*
G75*
G02*
X120423200Y-110841715I0J272085D01*
G01*
X120423200Y-109884285D01*
G75*
G02*
X120695285Y-109612200I272085J0D01*
G01*
X121402715Y-109612200D01*
G75*
G02*
X121674800Y-109884285I0J-272085D01*
G01*
G37*
%TD*%
%TO.C,C36*%
G36*
G01*
X118901285Y-127517200D02*
X119858715Y-127517200D01*
G75*
G02*
X120130800Y-127789285I0J-272085D01*
G01*
X120130800Y-128496715D01*
G75*
G02*
X119858715Y-128768800I-272085J0D01*
G01*
X118901285Y-128768800D01*
G75*
G02*
X118629200Y-128496715I0J272085D01*
G01*
X118629200Y-127789285D01*
G75*
G02*
X118901285Y-127517200I272085J0D01*
G01*
G37*
G36*
G01*
X118901285Y-125467200D02*
X119858715Y-125467200D01*
G75*
G02*
X120130800Y-125739285I0J-272085D01*
G01*
X120130800Y-126446715D01*
G75*
G02*
X119858715Y-126718800I-272085J0D01*
G01*
X118901285Y-126718800D01*
G75*
G02*
X118629200Y-126446715I0J272085D01*
G01*
X118629200Y-125739285D01*
G75*
G02*
X118901285Y-125467200I272085J0D01*
G01*
G37*
%TD*%
%TO.C,C33*%
G36*
G01*
X110460715Y-137513800D02*
X109503285Y-137513800D01*
G75*
G02*
X109231200Y-137241715I0J272085D01*
G01*
X109231200Y-136534285D01*
G75*
G02*
X109503285Y-136262200I272085J0D01*
G01*
X110460715Y-136262200D01*
G75*
G02*
X110732800Y-136534285I0J-272085D01*
G01*
X110732800Y-137241715D01*
G75*
G02*
X110460715Y-137513800I-272085J0D01*
G01*
G37*
G36*
G01*
X110460715Y-139563800D02*
X109503285Y-139563800D01*
G75*
G02*
X109231200Y-139291715I0J272085D01*
G01*
X109231200Y-138584285D01*
G75*
G02*
X109503285Y-138312200I272085J0D01*
G01*
X110460715Y-138312200D01*
G75*
G02*
X110732800Y-138584285I0J-272085D01*
G01*
X110732800Y-139291715D01*
G75*
G02*
X110460715Y-139563800I-272085J0D01*
G01*
G37*
%TD*%
%TO.C,C31*%
G36*
G01*
X103661285Y-127272200D02*
X104618715Y-127272200D01*
G75*
G02*
X104890800Y-127544285I0J-272085D01*
G01*
X104890800Y-128251715D01*
G75*
G02*
X104618715Y-128523800I-272085J0D01*
G01*
X103661285Y-128523800D01*
G75*
G02*
X103389200Y-128251715I0J272085D01*
G01*
X103389200Y-127544285D01*
G75*
G02*
X103661285Y-127272200I272085J0D01*
G01*
G37*
G36*
G01*
X103661285Y-125222200D02*
X104618715Y-125222200D01*
G75*
G02*
X104890800Y-125494285I0J-272085D01*
G01*
X104890800Y-126201715D01*
G75*
G02*
X104618715Y-126473800I-272085J0D01*
G01*
X103661285Y-126473800D01*
G75*
G02*
X103389200Y-126201715I0J272085D01*
G01*
X103389200Y-125494285D01*
G75*
G02*
X103661285Y-125222200I272085J0D01*
G01*
G37*
%TD*%
%TO.C,C23*%
G36*
G01*
X97536200Y-64232715D02*
X97536200Y-63275285D01*
G75*
G02*
X97808285Y-63003200I272085J0D01*
G01*
X98515715Y-63003200D01*
G75*
G02*
X98787800Y-63275285I0J-272085D01*
G01*
X98787800Y-64232715D01*
G75*
G02*
X98515715Y-64504800I-272085J0D01*
G01*
X97808285Y-64504800D01*
G75*
G02*
X97536200Y-64232715I0J272085D01*
G01*
G37*
G36*
G01*
X99586200Y-64232715D02*
X99586200Y-63275285D01*
G75*
G02*
X99858285Y-63003200I272085J0D01*
G01*
X100565715Y-63003200D01*
G75*
G02*
X100837800Y-63275285I0J-272085D01*
G01*
X100837800Y-64232715D01*
G75*
G02*
X100565715Y-64504800I-272085J0D01*
G01*
X99858285Y-64504800D01*
G75*
G02*
X99586200Y-64232715I0J272085D01*
G01*
G37*
%TD*%
%TO.C,C21*%
G36*
G01*
X100837800Y-59719285D02*
X100837800Y-60676715D01*
G75*
G02*
X100565715Y-60948800I-272085J0D01*
G01*
X99858285Y-60948800D01*
G75*
G02*
X99586200Y-60676715I0J272085D01*
G01*
X99586200Y-59719285D01*
G75*
G02*
X99858285Y-59447200I272085J0D01*
G01*
X100565715Y-59447200D01*
G75*
G02*
X100837800Y-59719285I0J-272085D01*
G01*
G37*
G36*
G01*
X98787800Y-59719285D02*
X98787800Y-60676715D01*
G75*
G02*
X98515715Y-60948800I-272085J0D01*
G01*
X97808285Y-60948800D01*
G75*
G02*
X97536200Y-60676715I0J272085D01*
G01*
X97536200Y-59719285D01*
G75*
G02*
X97808285Y-59447200I272085J0D01*
G01*
X98515715Y-59447200D01*
G75*
G02*
X98787800Y-59719285I0J-272085D01*
G01*
G37*
%TD*%
%TO.C,C20*%
G36*
G01*
X101443715Y-86105800D02*
X100486285Y-86105800D01*
G75*
G02*
X100214200Y-85833715I0J272085D01*
G01*
X100214200Y-85126285D01*
G75*
G02*
X100486285Y-84854200I272085J0D01*
G01*
X101443715Y-84854200D01*
G75*
G02*
X101715800Y-85126285I0J-272085D01*
G01*
X101715800Y-85833715D01*
G75*
G02*
X101443715Y-86105800I-272085J0D01*
G01*
G37*
G36*
G01*
X101443715Y-84055800D02*
X100486285Y-84055800D01*
G75*
G02*
X100214200Y-83783715I0J272085D01*
G01*
X100214200Y-83076285D01*
G75*
G02*
X100486285Y-82804200I272085J0D01*
G01*
X101443715Y-82804200D01*
G75*
G02*
X101715800Y-83076285I0J-272085D01*
G01*
X101715800Y-83783715D01*
G75*
G02*
X101443715Y-84055800I-272085J0D01*
G01*
G37*
%TD*%
%TO.C,C19*%
G36*
G01*
X112805285Y-113438200D02*
X113762715Y-113438200D01*
G75*
G02*
X114034800Y-113710285I0J-272085D01*
G01*
X114034800Y-114417715D01*
G75*
G02*
X113762715Y-114689800I-272085J0D01*
G01*
X112805285Y-114689800D01*
G75*
G02*
X112533200Y-114417715I0J272085D01*
G01*
X112533200Y-113710285D01*
G75*
G02*
X112805285Y-113438200I272085J0D01*
G01*
G37*
G36*
G01*
X112805285Y-111388200D02*
X113762715Y-111388200D01*
G75*
G02*
X114034800Y-111660285I0J-272085D01*
G01*
X114034800Y-112367715D01*
G75*
G02*
X113762715Y-112639800I-272085J0D01*
G01*
X112805285Y-112639800D01*
G75*
G02*
X112533200Y-112367715I0J272085D01*
G01*
X112533200Y-111660285D01*
G75*
G02*
X112805285Y-111388200I272085J0D01*
G01*
G37*
%TD*%
%TO.C,C18*%
G36*
G01*
X109503285Y-141986200D02*
X110460715Y-141986200D01*
G75*
G02*
X110732800Y-142258285I0J-272085D01*
G01*
X110732800Y-142965715D01*
G75*
G02*
X110460715Y-143237800I-272085J0D01*
G01*
X109503285Y-143237800D01*
G75*
G02*
X109231200Y-142965715I0J272085D01*
G01*
X109231200Y-142258285D01*
G75*
G02*
X109503285Y-141986200I272085J0D01*
G01*
G37*
G36*
G01*
X109503285Y-144036200D02*
X110460715Y-144036200D01*
G75*
G02*
X110732800Y-144308285I0J-272085D01*
G01*
X110732800Y-145015715D01*
G75*
G02*
X110460715Y-145287800I-272085J0D01*
G01*
X109503285Y-145287800D01*
G75*
G02*
X109231200Y-145015715I0J272085D01*
G01*
X109231200Y-144308285D01*
G75*
G02*
X109503285Y-144036200I272085J0D01*
G01*
G37*
%TD*%
%TO.C,C17*%
G36*
G01*
X97127800Y-143539285D02*
X97127800Y-144496715D01*
G75*
G02*
X96855715Y-144768800I-272085J0D01*
G01*
X96148285Y-144768800D01*
G75*
G02*
X95876200Y-144496715I0J272085D01*
G01*
X95876200Y-143539285D01*
G75*
G02*
X96148285Y-143267200I272085J0D01*
G01*
X96855715Y-143267200D01*
G75*
G02*
X97127800Y-143539285I0J-272085D01*
G01*
G37*
G36*
G01*
X99177800Y-143539285D02*
X99177800Y-144496715D01*
G75*
G02*
X98905715Y-144768800I-272085J0D01*
G01*
X98198285Y-144768800D01*
G75*
G02*
X97926200Y-144496715I0J272085D01*
G01*
X97926200Y-143539285D01*
G75*
G02*
X98198285Y-143267200I272085J0D01*
G01*
X98905715Y-143267200D01*
G75*
G02*
X99177800Y-143539285I0J-272085D01*
G01*
G37*
%TD*%
%TO.C,C16*%
G36*
G01*
X167639800Y-109376285D02*
X167639800Y-110333715D01*
G75*
G02*
X167367715Y-110605800I-272085J0D01*
G01*
X166660285Y-110605800D01*
G75*
G02*
X166388200Y-110333715I0J272085D01*
G01*
X166388200Y-109376285D01*
G75*
G02*
X166660285Y-109104200I272085J0D01*
G01*
X167367715Y-109104200D01*
G75*
G02*
X167639800Y-109376285I0J-272085D01*
G01*
G37*
G36*
G01*
X165589800Y-109376285D02*
X165589800Y-110333715D01*
G75*
G02*
X165317715Y-110605800I-272085J0D01*
G01*
X164610285Y-110605800D01*
G75*
G02*
X164338200Y-110333715I0J272085D01*
G01*
X164338200Y-109376285D01*
G75*
G02*
X164610285Y-109104200I272085J0D01*
G01*
X165317715Y-109104200D01*
G75*
G02*
X165589800Y-109376285I0J-272085D01*
G01*
G37*
%TD*%
%TO.C,C15*%
G36*
G01*
X167639800Y-106455285D02*
X167639800Y-107412715D01*
G75*
G02*
X167367715Y-107684800I-272085J0D01*
G01*
X166660285Y-107684800D01*
G75*
G02*
X166388200Y-107412715I0J272085D01*
G01*
X166388200Y-106455285D01*
G75*
G02*
X166660285Y-106183200I272085J0D01*
G01*
X167367715Y-106183200D01*
G75*
G02*
X167639800Y-106455285I0J-272085D01*
G01*
G37*
G36*
G01*
X165589800Y-106455285D02*
X165589800Y-107412715D01*
G75*
G02*
X165317715Y-107684800I-272085J0D01*
G01*
X164610285Y-107684800D01*
G75*
G02*
X164338200Y-107412715I0J272085D01*
G01*
X164338200Y-106455285D01*
G75*
G02*
X164610285Y-106183200I272085J0D01*
G01*
X165317715Y-106183200D01*
G75*
G02*
X165589800Y-106455285I0J-272085D01*
G01*
G37*
%TD*%
%TO.C,C14*%
G36*
G01*
X107968200Y-55723715D02*
X107968200Y-54766285D01*
G75*
G02*
X108240285Y-54494200I272085J0D01*
G01*
X108947715Y-54494200D01*
G75*
G02*
X109219800Y-54766285I0J-272085D01*
G01*
X109219800Y-55723715D01*
G75*
G02*
X108947715Y-55995800I-272085J0D01*
G01*
X108240285Y-55995800D01*
G75*
G02*
X107968200Y-55723715I0J272085D01*
G01*
G37*
G36*
G01*
X105918200Y-55723715D02*
X105918200Y-54766285D01*
G75*
G02*
X106190285Y-54494200I272085J0D01*
G01*
X106897715Y-54494200D01*
G75*
G02*
X107169800Y-54766285I0J-272085D01*
G01*
X107169800Y-55723715D01*
G75*
G02*
X106897715Y-55995800I-272085J0D01*
G01*
X106190285Y-55995800D01*
G75*
G02*
X105918200Y-55723715I0J272085D01*
G01*
G37*
%TD*%
%TO.C,C12*%
G36*
G01*
X151921285Y-111914200D02*
X152878715Y-111914200D01*
G75*
G02*
X153150800Y-112186285I0J-272085D01*
G01*
X153150800Y-112893715D01*
G75*
G02*
X152878715Y-113165800I-272085J0D01*
G01*
X151921285Y-113165800D01*
G75*
G02*
X151649200Y-112893715I0J272085D01*
G01*
X151649200Y-112186285D01*
G75*
G02*
X151921285Y-111914200I272085J0D01*
G01*
G37*
G36*
G01*
X151921285Y-109864200D02*
X152878715Y-109864200D01*
G75*
G02*
X153150800Y-110136285I0J-272085D01*
G01*
X153150800Y-110843715D01*
G75*
G02*
X152878715Y-111115800I-272085J0D01*
G01*
X151921285Y-111115800D01*
G75*
G02*
X151649200Y-110843715I0J272085D01*
G01*
X151649200Y-110136285D01*
G75*
G02*
X151921285Y-109864200I272085J0D01*
G01*
G37*
%TD*%
%TO.C,C11*%
G36*
G01*
X118264200Y-90013715D02*
X118264200Y-89056285D01*
G75*
G02*
X118536285Y-88784200I272085J0D01*
G01*
X119243715Y-88784200D01*
G75*
G02*
X119515800Y-89056285I0J-272085D01*
G01*
X119515800Y-90013715D01*
G75*
G02*
X119243715Y-90285800I-272085J0D01*
G01*
X118536285Y-90285800D01*
G75*
G02*
X118264200Y-90013715I0J272085D01*
G01*
G37*
G36*
G01*
X116214200Y-90013715D02*
X116214200Y-89056285D01*
G75*
G02*
X116486285Y-88784200I272085J0D01*
G01*
X117193715Y-88784200D01*
G75*
G02*
X117465800Y-89056285I0J-272085D01*
G01*
X117465800Y-90013715D01*
G75*
G02*
X117193715Y-90285800I-272085J0D01*
G01*
X116486285Y-90285800D01*
G75*
G02*
X116214200Y-90013715I0J272085D01*
G01*
G37*
%TD*%
%TO.C,C10*%
G36*
G01*
X115869300Y-66069285D02*
X115869300Y-67026715D01*
G75*
G02*
X115597215Y-67298800I-272085J0D01*
G01*
X114889785Y-67298800D01*
G75*
G02*
X114617700Y-67026715I0J272085D01*
G01*
X114617700Y-66069285D01*
G75*
G02*
X114889785Y-65797200I272085J0D01*
G01*
X115597215Y-65797200D01*
G75*
G02*
X115869300Y-66069285I0J-272085D01*
G01*
G37*
G36*
G01*
X117919300Y-66069285D02*
X117919300Y-67026715D01*
G75*
G02*
X117647215Y-67298800I-272085J0D01*
G01*
X116939785Y-67298800D01*
G75*
G02*
X116667700Y-67026715I0J272085D01*
G01*
X116667700Y-66069285D01*
G75*
G02*
X116939785Y-65797200I272085J0D01*
G01*
X117647215Y-65797200D01*
G75*
G02*
X117919300Y-66069285I0J-272085D01*
G01*
G37*
%TD*%
%TO.C,C9*%
G36*
G01*
X123589200Y-67026715D02*
X123589200Y-66069285D01*
G75*
G02*
X123861285Y-65797200I272085J0D01*
G01*
X124568715Y-65797200D01*
G75*
G02*
X124840800Y-66069285I0J-272085D01*
G01*
X124840800Y-67026715D01*
G75*
G02*
X124568715Y-67298800I-272085J0D01*
G01*
X123861285Y-67298800D01*
G75*
G02*
X123589200Y-67026715I0J272085D01*
G01*
G37*
G36*
G01*
X121539200Y-67026715D02*
X121539200Y-66069285D01*
G75*
G02*
X121811285Y-65797200I272085J0D01*
G01*
X122518715Y-65797200D01*
G75*
G02*
X122790800Y-66069285I0J-272085D01*
G01*
X122790800Y-67026715D01*
G75*
G02*
X122518715Y-67298800I-272085J0D01*
G01*
X121811285Y-67298800D01*
G75*
G02*
X121539200Y-67026715I0J272085D01*
G01*
G37*
%TD*%
%TO.C,C8*%
G36*
G01*
X154413800Y-98962285D02*
X154413800Y-99919715D01*
G75*
G02*
X154141715Y-100191800I-272085J0D01*
G01*
X153434285Y-100191800D01*
G75*
G02*
X153162200Y-99919715I0J272085D01*
G01*
X153162200Y-98962285D01*
G75*
G02*
X153434285Y-98690200I272085J0D01*
G01*
X154141715Y-98690200D01*
G75*
G02*
X154413800Y-98962285I0J-272085D01*
G01*
G37*
G36*
G01*
X156463800Y-98962285D02*
X156463800Y-99919715D01*
G75*
G02*
X156191715Y-100191800I-272085J0D01*
G01*
X155484285Y-100191800D01*
G75*
G02*
X155212200Y-99919715I0J272085D01*
G01*
X155212200Y-98962285D01*
G75*
G02*
X155484285Y-98690200I272085J0D01*
G01*
X156191715Y-98690200D01*
G75*
G02*
X156463800Y-98962285I0J-272085D01*
G01*
G37*
%TD*%
%TO.C,C7*%
G36*
G01*
X169701285Y-100983200D02*
X170658715Y-100983200D01*
G75*
G02*
X170930800Y-101255285I0J-272085D01*
G01*
X170930800Y-101962715D01*
G75*
G02*
X170658715Y-102234800I-272085J0D01*
G01*
X169701285Y-102234800D01*
G75*
G02*
X169429200Y-101962715I0J272085D01*
G01*
X169429200Y-101255285D01*
G75*
G02*
X169701285Y-100983200I272085J0D01*
G01*
G37*
G36*
G01*
X169701285Y-98933200D02*
X170658715Y-98933200D01*
G75*
G02*
X170930800Y-99205285I0J-272085D01*
G01*
X170930800Y-99912715D01*
G75*
G02*
X170658715Y-100184800I-272085J0D01*
G01*
X169701285Y-100184800D01*
G75*
G02*
X169429200Y-99912715I0J272085D01*
G01*
X169429200Y-99205285D01*
G75*
G02*
X169701285Y-98933200I272085J0D01*
G01*
G37*
%TD*%
%TO.C,C6*%
G36*
G01*
X151402200Y-130780715D02*
X151402200Y-129823285D01*
G75*
G02*
X151674285Y-129551200I272085J0D01*
G01*
X152381715Y-129551200D01*
G75*
G02*
X152653800Y-129823285I0J-272085D01*
G01*
X152653800Y-130780715D01*
G75*
G02*
X152381715Y-131052800I-272085J0D01*
G01*
X151674285Y-131052800D01*
G75*
G02*
X151402200Y-130780715I0J272085D01*
G01*
G37*
G36*
G01*
X149352200Y-130780715D02*
X149352200Y-129823285D01*
G75*
G02*
X149624285Y-129551200I272085J0D01*
G01*
X150331715Y-129551200D01*
G75*
G02*
X150603800Y-129823285I0J-272085D01*
G01*
X150603800Y-130780715D01*
G75*
G02*
X150331715Y-131052800I-272085J0D01*
G01*
X149624285Y-131052800D01*
G75*
G02*
X149352200Y-130780715I0J272085D01*
G01*
G37*
%TD*%
%TO.C,C5*%
G36*
G01*
X162462285Y-128161200D02*
X163419715Y-128161200D01*
G75*
G02*
X163691800Y-128433285I0J-272085D01*
G01*
X163691800Y-129140715D01*
G75*
G02*
X163419715Y-129412800I-272085J0D01*
G01*
X162462285Y-129412800D01*
G75*
G02*
X162190200Y-129140715I0J272085D01*
G01*
X162190200Y-128433285D01*
G75*
G02*
X162462285Y-128161200I272085J0D01*
G01*
G37*
G36*
G01*
X162462285Y-126111200D02*
X163419715Y-126111200D01*
G75*
G02*
X163691800Y-126383285I0J-272085D01*
G01*
X163691800Y-127090715D01*
G75*
G02*
X163419715Y-127362800I-272085J0D01*
G01*
X162462285Y-127362800D01*
G75*
G02*
X162190200Y-127090715I0J272085D01*
G01*
X162190200Y-126383285D01*
G75*
G02*
X162462285Y-126111200I272085J0D01*
G01*
G37*
%TD*%
%TO.C,C3*%
G36*
G01*
X128832300Y-66386785D02*
X128832300Y-67344215D01*
G75*
G02*
X128560215Y-67616300I-272085J0D01*
G01*
X127852785Y-67616300D01*
G75*
G02*
X127580700Y-67344215I0J272085D01*
G01*
X127580700Y-66386785D01*
G75*
G02*
X127852785Y-66114700I272085J0D01*
G01*
X128560215Y-66114700D01*
G75*
G02*
X128832300Y-66386785I0J-272085D01*
G01*
G37*
G36*
G01*
X130882300Y-66386785D02*
X130882300Y-67344215D01*
G75*
G02*
X130610215Y-67616300I-272085J0D01*
G01*
X129902785Y-67616300D01*
G75*
G02*
X129630700Y-67344215I0J272085D01*
G01*
X129630700Y-66386785D01*
G75*
G02*
X129902785Y-66114700I272085J0D01*
G01*
X130610215Y-66114700D01*
G75*
G02*
X130882300Y-66386785I0J-272085D01*
G01*
G37*
%TD*%
%TO.C,C2*%
G36*
G01*
X165129285Y-132361200D02*
X166086715Y-132361200D01*
G75*
G02*
X166358800Y-132633285I0J-272085D01*
G01*
X166358800Y-133340715D01*
G75*
G02*
X166086715Y-133612800I-272085J0D01*
G01*
X165129285Y-133612800D01*
G75*
G02*
X164857200Y-133340715I0J272085D01*
G01*
X164857200Y-132633285D01*
G75*
G02*
X165129285Y-132361200I272085J0D01*
G01*
G37*
G36*
G01*
X165129285Y-130311200D02*
X166086715Y-130311200D01*
G75*
G02*
X166358800Y-130583285I0J-272085D01*
G01*
X166358800Y-131290715D01*
G75*
G02*
X166086715Y-131562800I-272085J0D01*
G01*
X165129285Y-131562800D01*
G75*
G02*
X164857200Y-131290715I0J272085D01*
G01*
X164857200Y-130583285D01*
G75*
G02*
X165129285Y-130311200I272085J0D01*
G01*
G37*
%TD*%
%TO.C,C1*%
G36*
G01*
X147047800Y-124362285D02*
X147047800Y-125319715D01*
G75*
G02*
X146775715Y-125591800I-272085J0D01*
G01*
X146068285Y-125591800D01*
G75*
G02*
X145796200Y-125319715I0J272085D01*
G01*
X145796200Y-124362285D01*
G75*
G02*
X146068285Y-124090200I272085J0D01*
G01*
X146775715Y-124090200D01*
G75*
G02*
X147047800Y-124362285I0J-272085D01*
G01*
G37*
G36*
G01*
X149097800Y-124362285D02*
X149097800Y-125319715D01*
G75*
G02*
X148825715Y-125591800I-272085J0D01*
G01*
X148118285Y-125591800D01*
G75*
G02*
X147846200Y-125319715I0J272085D01*
G01*
X147846200Y-124362285D01*
G75*
G02*
X148118285Y-124090200I272085J0D01*
G01*
X148825715Y-124090200D01*
G75*
G02*
X149097800Y-124362285I0J-272085D01*
G01*
G37*
%TD*%
D10*
G36*
X113467532Y-127472800D02*
G01*
X113467800Y-127473800D01*
X113467800Y-127572200D01*
X113466800Y-127573932D01*
X113465800Y-127574200D01*
X111914200Y-127574200D01*
X111912468Y-127573200D01*
X111912200Y-127572200D01*
X111912200Y-127473800D01*
X111913200Y-127472068D01*
X111914200Y-127471800D01*
X113465800Y-127471800D01*
X113467532Y-127472800D01*
G37*
G36*
X109067532Y-127472800D02*
G01*
X109067800Y-127473800D01*
X109067800Y-127572200D01*
X109066800Y-127573932D01*
X109065800Y-127574200D01*
X107514200Y-127574200D01*
X107512468Y-127573200D01*
X107512200Y-127572200D01*
X107512200Y-127473800D01*
X107513200Y-127472068D01*
X107514200Y-127471800D01*
X109065800Y-127471800D01*
X109067532Y-127472800D01*
G37*
G36*
X109067532Y-126822800D02*
G01*
X109067800Y-126823800D01*
X109067800Y-126922200D01*
X109066800Y-126923932D01*
X109065800Y-126924200D01*
X107514200Y-126924200D01*
X107512468Y-126923200D01*
X107512200Y-126922200D01*
X107512200Y-126823800D01*
X107513200Y-126822068D01*
X107514200Y-126821800D01*
X109065800Y-126821800D01*
X109067532Y-126822800D01*
G37*
G36*
X113467532Y-126822800D02*
G01*
X113467800Y-126823800D01*
X113467800Y-126922200D01*
X113466800Y-126923932D01*
X113465800Y-126924200D01*
X111914200Y-126924200D01*
X111912468Y-126923200D01*
X111912200Y-126922200D01*
X111912200Y-126823800D01*
X111913200Y-126822068D01*
X111914200Y-126821800D01*
X113465800Y-126821800D01*
X113467532Y-126822800D01*
G37*
G36*
X109067532Y-126172800D02*
G01*
X109067800Y-126173800D01*
X109067800Y-126272200D01*
X109066800Y-126273932D01*
X109065800Y-126274200D01*
X107514200Y-126274200D01*
X107512468Y-126273200D01*
X107512200Y-126272200D01*
X107512200Y-126173800D01*
X107513200Y-126172068D01*
X107514200Y-126171800D01*
X109065800Y-126171800D01*
X109067532Y-126172800D01*
G37*
G36*
X113467532Y-126172800D02*
G01*
X113467800Y-126173800D01*
X113467800Y-126272200D01*
X113466800Y-126273932D01*
X113465800Y-126274200D01*
X111914200Y-126274200D01*
X111912468Y-126273200D01*
X111912200Y-126272200D01*
X111912200Y-126173800D01*
X111913200Y-126172068D01*
X111914200Y-126171800D01*
X113465800Y-126171800D01*
X113467532Y-126172800D01*
G37*
G36*
X96443932Y-115342200D02*
G01*
X96444200Y-115343200D01*
X96444200Y-116894800D01*
X96443200Y-116896532D01*
X96442200Y-116896800D01*
X96343800Y-116896800D01*
X96342068Y-116895800D01*
X96341800Y-116894800D01*
X96341800Y-115343200D01*
X96342800Y-115341468D01*
X96343800Y-115341200D01*
X96442200Y-115341200D01*
X96443932Y-115342200D01*
G37*
G36*
X95793932Y-115342200D02*
G01*
X95794200Y-115343200D01*
X95794200Y-116894800D01*
X95793200Y-116896532D01*
X95792200Y-116896800D01*
X95693800Y-116896800D01*
X95692068Y-116895800D01*
X95691800Y-116894800D01*
X95691800Y-115343200D01*
X95692800Y-115341468D01*
X95693800Y-115341200D01*
X95792200Y-115341200D01*
X95793932Y-115342200D01*
G37*
G36*
X97093932Y-115342200D02*
G01*
X97094200Y-115343200D01*
X97094200Y-116894800D01*
X97093200Y-116896532D01*
X97092200Y-116896800D01*
X96993800Y-116896800D01*
X96992068Y-116895800D01*
X96991800Y-116894800D01*
X96991800Y-115343200D01*
X96992800Y-115341468D01*
X96993800Y-115341200D01*
X97092200Y-115341200D01*
X97093932Y-115342200D01*
G37*
G36*
X122611532Y-114772800D02*
G01*
X122611800Y-114773800D01*
X122611800Y-114872200D01*
X122610800Y-114873932D01*
X122609800Y-114874200D01*
X121058200Y-114874200D01*
X121056468Y-114873200D01*
X121056200Y-114872200D01*
X121056200Y-114773800D01*
X121057200Y-114772068D01*
X121058200Y-114771800D01*
X122609800Y-114771800D01*
X122611532Y-114772800D01*
G37*
G36*
X118211532Y-114772800D02*
G01*
X118211800Y-114773800D01*
X118211800Y-114872200D01*
X118210800Y-114873932D01*
X118209800Y-114874200D01*
X116658200Y-114874200D01*
X116656468Y-114873200D01*
X116656200Y-114872200D01*
X116656200Y-114773800D01*
X116657200Y-114772068D01*
X116658200Y-114771800D01*
X118209800Y-114771800D01*
X118211532Y-114772800D01*
G37*
G36*
X118211532Y-114122800D02*
G01*
X118211800Y-114123800D01*
X118211800Y-114222200D01*
X118210800Y-114223932D01*
X118209800Y-114224200D01*
X116658200Y-114224200D01*
X116656468Y-114223200D01*
X116656200Y-114222200D01*
X116656200Y-114123800D01*
X116657200Y-114122068D01*
X116658200Y-114121800D01*
X118209800Y-114121800D01*
X118211532Y-114122800D01*
G37*
G36*
X122611532Y-114122800D02*
G01*
X122611800Y-114123800D01*
X122611800Y-114222200D01*
X122610800Y-114223932D01*
X122609800Y-114224200D01*
X121058200Y-114224200D01*
X121056468Y-114223200D01*
X121056200Y-114222200D01*
X121056200Y-114123800D01*
X121057200Y-114122068D01*
X121058200Y-114121800D01*
X122609800Y-114121800D01*
X122611532Y-114122800D01*
G37*
G36*
X118211532Y-113472800D02*
G01*
X118211800Y-113473800D01*
X118211800Y-113572200D01*
X118210800Y-113573932D01*
X118209800Y-113574200D01*
X116658200Y-113574200D01*
X116656468Y-113573200D01*
X116656200Y-113572200D01*
X116656200Y-113473800D01*
X116657200Y-113472068D01*
X116658200Y-113471800D01*
X118209800Y-113471800D01*
X118211532Y-113472800D01*
G37*
G36*
X122611532Y-113472800D02*
G01*
X122611800Y-113473800D01*
X122611800Y-113572200D01*
X122610800Y-113573932D01*
X122609800Y-113574200D01*
X121058200Y-113574200D01*
X121056468Y-113573200D01*
X121056200Y-113572200D01*
X121056200Y-113473800D01*
X121057200Y-113472068D01*
X121058200Y-113471800D01*
X122609800Y-113471800D01*
X122611532Y-113472800D01*
G37*
G36*
X97093932Y-110942200D02*
G01*
X97094200Y-110943200D01*
X97094200Y-112494800D01*
X97093200Y-112496532D01*
X97092200Y-112496800D01*
X96993800Y-112496800D01*
X96992068Y-112495800D01*
X96991800Y-112494800D01*
X96991800Y-110943200D01*
X96992800Y-110941468D01*
X96993800Y-110941200D01*
X97092200Y-110941200D01*
X97093932Y-110942200D01*
G37*
G36*
X96443932Y-110942200D02*
G01*
X96444200Y-110943200D01*
X96444200Y-112494800D01*
X96443200Y-112496532D01*
X96442200Y-112496800D01*
X96343800Y-112496800D01*
X96342068Y-112495800D01*
X96341800Y-112494800D01*
X96341800Y-110943200D01*
X96342800Y-110941468D01*
X96343800Y-110941200D01*
X96442200Y-110941200D01*
X96443932Y-110942200D01*
G37*
G36*
X95793932Y-110942200D02*
G01*
X95794200Y-110943200D01*
X95794200Y-112494800D01*
X95793200Y-112496532D01*
X95792200Y-112496800D01*
X95693800Y-112496800D01*
X95692068Y-112495800D01*
X95691800Y-112494800D01*
X95691800Y-110943200D01*
X95692800Y-110941468D01*
X95693800Y-110941200D01*
X95792200Y-110941200D01*
X95793932Y-110942200D01*
G37*
M02*
