%TF.GenerationSoftware,KiCad,Pcbnew,(5.1.9)-1*%
%TF.CreationDate,2021-06-27T13:52:13-04:00*%
%TF.ProjectId,detector_circuit,64657465-6374-46f7-925f-636972637569,rev?*%
%TF.SameCoordinates,Original*%
%TF.FileFunction,Copper,L4,Bot*%
%TF.FilePolarity,Positive*%
%FSLAX46Y46*%
G04 Gerber Fmt 4.6, Leading zero omitted, Abs format (unit mm)*
G04 Created by KiCad (PCBNEW (5.1.9)-1) date 2021-06-27 13:52:13*
%MOMM*%
%LPD*%
G01*
G04 APERTURE LIST*
%TA.AperFunction,ComponentPad*%
%ADD10C,7.000000*%
%TD*%
%TA.AperFunction,ComponentPad*%
%ADD11C,1.200000*%
%TD*%
%TA.AperFunction,ComponentPad*%
%ADD12R,1.200000X1.200000*%
%TD*%
%TA.AperFunction,ComponentPad*%
%ADD13C,1.500000*%
%TD*%
%TA.AperFunction,ComponentPad*%
%ADD14R,1.700000X1.700000*%
%TD*%
%TA.AperFunction,ComponentPad*%
%ADD15O,1.700000X1.700000*%
%TD*%
%TA.AperFunction,ComponentPad*%
%ADD16O,1.200000X1.750000*%
%TD*%
%TA.AperFunction,ViaPad*%
%ADD17C,0.800000*%
%TD*%
%TA.AperFunction,Conductor*%
%ADD18C,0.420000*%
%TD*%
%TA.AperFunction,Conductor*%
%ADD19C,2.500000*%
%TD*%
%TA.AperFunction,Conductor*%
%ADD20C,0.250000*%
%TD*%
%TA.AperFunction,Conductor*%
%ADD21C,0.254000*%
%TD*%
%TA.AperFunction,Conductor*%
%ADD22C,0.100000*%
%TD*%
G04 APERTURE END LIST*
D10*
%TO.P,REF\u002A\u002A,1*%
%TO.N,N/C*%
X90170000Y-140970000D03*
%TD*%
%TO.P,REF\u002A\u002A,1*%
%TO.N,N/C*%
X90170000Y-54610000D03*
%TD*%
%TO.P,REF\u002A\u002A,1*%
%TO.N,N/C*%
X171450000Y-54610000D03*
%TD*%
%TO.P,REF\u002A\u002A,1*%
%TO.N,N/C*%
X171450000Y-140970000D03*
%TD*%
D11*
%TO.P,J10,4*%
%TO.N,/Microcontroller [DO NOT PLACE]/CANH*%
X106648000Y-51419000D03*
%TO.P,J10,5*%
%TO.N,/Microcontroller [DO NOT PLACE]/CANL*%
X104648000Y-51419000D03*
%TO.P,J10,6*%
%TO.N,N/C*%
X102648000Y-51419000D03*
%TO.P,J10,3*%
%TO.N,GND*%
X102648000Y-49419000D03*
D12*
%TO.P,J10,1*%
%TO.N,N/C*%
X106648000Y-49419000D03*
D11*
%TO.P,J10,2*%
X104648000Y-49419000D03*
%TD*%
D13*
%TO.P,Y1,2*%
%TO.N,/Microcontroller [DO NOT PLACE]/OSC2*%
X117294000Y-70485000D03*
%TO.P,Y1,1*%
%TO.N,/Microcontroller [DO NOT PLACE]/OSC1*%
X122174000Y-70485000D03*
%TD*%
D14*
%TO.P,J1,1*%
%TO.N,/Microcontroller [DO NOT PLACE]/MCLR*%
X126619000Y-54610000D03*
D15*
%TO.P,J1,2*%
%TO.N,+5V*%
X124079000Y-54610000D03*
%TO.P,J1,3*%
%TO.N,GND*%
X121539000Y-54610000D03*
%TO.P,J1,4*%
%TO.N,/Microcontroller [DO NOT PLACE]/ICSPDAT*%
X118999000Y-54610000D03*
%TO.P,J1,5*%
%TO.N,/Microcontroller [DO NOT PLACE]/ICSPCLK*%
X116459000Y-54610000D03*
%TD*%
D14*
%TO.P,TP15,1*%
%TO.N,Net-(C18-Pad2)*%
X113665000Y-139065000D03*
%TD*%
D15*
%TO.P,JP1,2*%
%TO.N,/AMP_OUT*%
X119507000Y-119761000D03*
D14*
%TO.P,JP1,1*%
%TO.N,Net-(C36-Pad1)*%
X119507000Y-122301000D03*
%TD*%
D16*
%TO.P,J6,2*%
%TO.N,Net-(F6-Pad2)*%
X162338000Y-57023000D03*
%TO.P,J6,1*%
%TO.N,GND*%
%TA.AperFunction,ComponentPad*%
G36*
G01*
X164938000Y-56397999D02*
X164938000Y-57648001D01*
G75*
G02*
X164688001Y-57898000I-249999J0D01*
G01*
X163987999Y-57898000D01*
G75*
G02*
X163738000Y-57648001I0J249999D01*
G01*
X163738000Y-56397999D01*
G75*
G02*
X163987999Y-56148000I249999J0D01*
G01*
X164688001Y-56148000D01*
G75*
G02*
X164938000Y-56397999I0J-249999D01*
G01*
G37*
%TD.AperFunction*%
%TD*%
%TO.P,J5,2*%
%TO.N,Net-(F5-Pad2)*%
X153448000Y-57023000D03*
%TO.P,J5,1*%
%TO.N,Net-(F6-Pad1)*%
%TA.AperFunction,ComponentPad*%
G36*
G01*
X156048000Y-56397999D02*
X156048000Y-57648001D01*
G75*
G02*
X155798001Y-57898000I-249999J0D01*
G01*
X155097999Y-57898000D01*
G75*
G02*
X154848000Y-57648001I0J249999D01*
G01*
X154848000Y-56397999D01*
G75*
G02*
X155097999Y-56148000I249999J0D01*
G01*
X155798001Y-56148000D01*
G75*
G02*
X156048000Y-56397999I0J-249999D01*
G01*
G37*
%TD.AperFunction*%
%TD*%
%TO.P,J4,2*%
%TO.N,Net-(F4-Pad2)*%
X144050000Y-57023000D03*
%TO.P,J4,1*%
%TO.N,Net-(F5-Pad1)*%
%TA.AperFunction,ComponentPad*%
G36*
G01*
X146650000Y-56397999D02*
X146650000Y-57648001D01*
G75*
G02*
X146400001Y-57898000I-249999J0D01*
G01*
X145699999Y-57898000D01*
G75*
G02*
X145450000Y-57648001I0J249999D01*
G01*
X145450000Y-56397999D01*
G75*
G02*
X145699999Y-56148000I249999J0D01*
G01*
X146400001Y-56148000D01*
G75*
G02*
X146650000Y-56397999I0J-249999D01*
G01*
G37*
%TD.AperFunction*%
%TD*%
%TO.P,J3,2*%
%TO.N,+BATT*%
X134398000Y-57023000D03*
%TO.P,J3,1*%
%TO.N,Net-(F4-Pad1)*%
%TA.AperFunction,ComponentPad*%
G36*
G01*
X136998000Y-56397999D02*
X136998000Y-57648001D01*
G75*
G02*
X136748001Y-57898000I-249999J0D01*
G01*
X136047999Y-57898000D01*
G75*
G02*
X135798000Y-57648001I0J249999D01*
G01*
X135798000Y-56397999D01*
G75*
G02*
X136047999Y-56148000I249999J0D01*
G01*
X136748001Y-56148000D01*
G75*
G02*
X136998000Y-56397999I0J-249999D01*
G01*
G37*
%TD.AperFunction*%
%TD*%
D15*
%TO.P,J9,2*%
%TO.N,+36V*%
X101854000Y-131572000D03*
D14*
%TO.P,J9,1*%
%TO.N,/SIPM_OUT*%
X104394000Y-131572000D03*
%TD*%
%TO.P,TP2,1*%
%TO.N,/INTERUPT_OUT*%
X95377000Y-107061000D03*
%TD*%
D15*
%TO.P,JP2,3*%
%TO.N,+12V*%
X143510000Y-70358000D03*
%TO.P,JP2,2*%
%TO.N,Net-(C7-Pad1)*%
X143510000Y-67818000D03*
D14*
%TO.P,JP2,1*%
%TO.N,+BATT*%
X143510000Y-65278000D03*
%TD*%
D15*
%TO.P,J7,3*%
%TO.N,Net-(F3-Pad2)*%
X137160000Y-80645000D03*
%TO.P,J7,2*%
%TO.N,Net-(F1-Pad2)*%
X137160000Y-78105000D03*
D14*
%TO.P,J7,1*%
%TO.N,GND*%
X137160000Y-75565000D03*
%TD*%
%TO.P,TP17,1*%
%TO.N,Net-(R28-Pad2)*%
X99822000Y-119126000D03*
%TD*%
%TO.P,TP1,1*%
%TO.N,/DET_ADC*%
X125095000Y-106299000D03*
%TD*%
D15*
%TO.P,JP5,2*%
%TO.N,Net-(C17-Pad2)*%
X91313000Y-134874000D03*
D14*
%TO.P,JP5,1*%
%TO.N,Net-(C31-Pad1)*%
X88773000Y-134874000D03*
%TD*%
D17*
%TO.N,GND*%
X106172000Y-115443000D03*
X149098000Y-89027000D03*
X156718000Y-68580000D03*
X91186000Y-122682000D03*
X164338000Y-85471000D03*
X171323000Y-85471000D03*
X173863000Y-85471000D03*
X164973000Y-86741000D03*
X172593000Y-86741000D03*
X166243000Y-88011000D03*
X171323000Y-88011000D03*
X173863000Y-88011000D03*
X164973000Y-89281000D03*
X172593000Y-89281000D03*
X166243000Y-90551000D03*
X168783000Y-90551000D03*
X171323000Y-90551000D03*
X173863000Y-90551000D03*
X164973000Y-91821000D03*
X167513000Y-91821000D03*
X170053000Y-91821000D03*
X172593000Y-91821000D03*
X166243000Y-93091000D03*
X168783000Y-93091000D03*
X171323000Y-93091000D03*
X173863000Y-93091000D03*
X153035000Y-90424000D03*
X155575000Y-90424000D03*
X158115000Y-90424000D03*
X151765000Y-91694000D03*
X154305000Y-91694000D03*
X156845000Y-91694000D03*
X170053000Y-89281000D03*
X167513000Y-89281000D03*
X167513000Y-86741000D03*
X168783000Y-88011000D03*
X168783000Y-85471000D03*
X170053000Y-86741000D03*
X96774000Y-109601000D03*
X100076000Y-116459000D03*
X109982000Y-140589000D03*
X100965000Y-140589000D03*
X106172000Y-118491000D03*
X163195000Y-109855000D03*
X106426000Y-130810000D03*
X100203000Y-57531000D03*
X164338000Y-59817000D03*
X117094000Y-110363000D03*
X153670000Y-130302000D03*
X139827000Y-130175000D03*
X144399000Y-124841000D03*
X101981000Y-96647000D03*
X100965000Y-81407000D03*
X101854000Y-76073000D03*
X86868000Y-76581000D03*
X86868000Y-90424000D03*
X111379000Y-55245000D03*
X113601500Y-66484500D03*
X151765000Y-86614000D03*
X150495000Y-87884000D03*
X151765000Y-84074000D03*
X153035000Y-82804000D03*
X155575000Y-82804000D03*
X154305000Y-84074000D03*
X151765000Y-81534000D03*
X149225000Y-84074000D03*
X156845000Y-81534000D03*
X154305000Y-81534000D03*
X150495000Y-82804000D03*
X149225000Y-81534000D03*
X150495000Y-85344000D03*
X153035000Y-85344000D03*
X156845000Y-86614000D03*
X154305000Y-89154000D03*
X158115000Y-85344000D03*
X149225000Y-86614000D03*
X156845000Y-84074000D03*
X155575000Y-87884000D03*
X150495000Y-90424000D03*
X153035000Y-87884000D03*
X151765000Y-89154000D03*
X156845000Y-89154000D03*
X155575000Y-85344000D03*
X158115000Y-87884000D03*
X154305000Y-86614000D03*
X158115000Y-82804000D03*
X121412000Y-102616000D03*
X116332000Y-102616000D03*
X119253000Y-74168000D03*
X126174500Y-66865500D03*
X94361000Y-122682000D03*
X115316000Y-89535000D03*
X159004000Y-104140000D03*
X157734000Y-104775000D03*
X160274000Y-104140000D03*
X160812023Y-108808977D03*
X163449000Y-106934000D03*
X161544000Y-103505000D03*
X161544000Y-104775000D03*
X157734000Y-103505000D03*
X87249000Y-83312000D03*
X162941000Y-130556000D03*
X172720000Y-126492000D03*
X126492000Y-102616000D03*
X164211000Y-111633000D03*
X167513000Y-130683000D03*
X165608000Y-134366000D03*
X156210000Y-101219000D03*
X153788000Y-101210000D03*
X95168000Y-80645000D03*
X95168000Y-94787000D03*
X118618000Y-134239000D03*
X115452000Y-134357000D03*
X109728000Y-122428000D03*
X112903000Y-122301000D03*
X110109000Y-115570000D03*
X113284000Y-115443000D03*
X155448000Y-114808000D03*
X152400000Y-114681000D03*
X172729000Y-101609000D03*
X124206000Y-64579500D03*
X109347000Y-65659000D03*
X146558000Y-83947000D03*
X101727000Y-63754000D03*
X85788500Y-100520500D03*
%TO.N,+5V*%
X96647000Y-71247000D03*
X98171000Y-57531000D03*
X141859000Y-84074000D03*
X104851200Y-67818000D03*
X144399000Y-127381000D03*
X124079000Y-56515000D03*
X126047500Y-63055500D03*
X120269000Y-89535000D03*
X164211000Y-129921000D03*
X169207000Y-128862000D03*
X104394000Y-55245000D03*
X151384000Y-65024000D03*
X156718000Y-63119000D03*
X168021000Y-62738000D03*
%TO.N,+36V*%
X99314000Y-131572000D03*
X148590000Y-130302000D03*
%TO.N,+3V3*%
X92583000Y-74422000D03*
X85598000Y-96520000D03*
X100965000Y-87249000D03*
X96266000Y-63754000D03*
%TO.N,/Microcontroller [DO NOT PLACE]/ICSPCLK*%
X129159000Y-89154000D03*
X117475000Y-60198000D03*
%TO.N,/Microcontroller [DO NOT PLACE]/ICSPDAT*%
X129159000Y-87503000D03*
X117475000Y-58928000D03*
%TO.N,/Microcontroller [DO NOT PLACE]/CANL*%
X106807000Y-65659000D03*
%TO.N,/Microcontroller [DO NOT PLACE]/CANH*%
X108077000Y-65659000D03*
%TO.N,/Microcontroller [DO NOT PLACE]/CS*%
X96012000Y-101028500D03*
X120650000Y-74168000D03*
%TO.N,/Microcontroller [DO NOT PLACE]/PIC_RX*%
X103505000Y-58166000D03*
X114173000Y-73279000D03*
%TO.N,/Microcontroller [DO NOT PLACE]/PIC_TX*%
X111379000Y-58293000D03*
%TO.N,/AMP_OUT*%
X115443000Y-114427000D03*
X96012000Y-118110000D03*
%TO.N,+4.7V*%
X105791000Y-107696000D03*
X100076000Y-110871000D03*
X102743000Y-107696000D03*
X109982000Y-132588000D03*
X162941000Y-125222000D03*
X122809000Y-110363000D03*
%TD*%
D18*
%TO.N,/Microcontroller [DO NOT PLACE]/ICSPCLK*%
X117475000Y-60198000D02*
X117475000Y-61595000D01*
X117475000Y-61595000D02*
X127000000Y-71120000D01*
X127000000Y-86995000D02*
X129159000Y-89154000D01*
X127000000Y-71120000D02*
X127000000Y-86995000D01*
%TO.N,/Microcontroller [DO NOT PLACE]/ICSPDAT*%
X118285001Y-59738001D02*
X118285001Y-61528175D01*
X117475000Y-58928000D02*
X118285001Y-59738001D01*
X118285001Y-61528175D02*
X128270000Y-71513174D01*
X128270000Y-86614000D02*
X129159000Y-87503000D01*
X128270000Y-71513174D02*
X128270000Y-86614000D01*
%TO.N,/Microcontroller [DO NOT PLACE]/CANL*%
X106807000Y-53578000D02*
X104648000Y-51419000D01*
X106807000Y-65659000D02*
X106807000Y-53578000D01*
%TO.N,/Microcontroller [DO NOT PLACE]/CANH*%
X108077000Y-52848000D02*
X106648000Y-51419000D01*
X108077000Y-65659000D02*
X108077000Y-52848000D01*
%TO.N,/Microcontroller [DO NOT PLACE]/CS*%
X121206001Y-74724001D02*
X121206001Y-78183999D01*
X98361500Y-101028500D02*
X96012000Y-101028500D01*
X121206001Y-78183999D02*
X98361500Y-101028500D01*
X120650000Y-74168000D02*
X121206001Y-74724001D01*
%TO.N,/Microcontroller [DO NOT PLACE]/PIC_RX*%
X109227801Y-67134999D02*
X114173000Y-72080198D01*
X105814197Y-67134999D02*
X109227801Y-67134999D01*
X103505000Y-64825802D02*
X105814197Y-67134999D01*
X103505000Y-58166000D02*
X103505000Y-64825802D01*
X114173000Y-72080198D02*
X114173000Y-74803000D01*
D19*
%TO.N,/AMP_OUT*%
X115443000Y-114427000D02*
X115443000Y-117983000D01*
X115443000Y-117983000D02*
X116840000Y-119380000D01*
X119507000Y-119761000D02*
X117475000Y-119761000D01*
X96012000Y-118110000D02*
X96012000Y-118110000D01*
X96012000Y-118110000D02*
X96012000Y-121539000D01*
X96012000Y-121539000D02*
X97282000Y-122809000D01*
X110926998Y-117983000D02*
X115443000Y-117983000D01*
X106100998Y-122809000D02*
X110926998Y-117983000D01*
X97282000Y-122809000D02*
X106100998Y-122809000D01*
X96012000Y-118110000D02*
X96012000Y-119118002D01*
D20*
X117221000Y-119761000D02*
X115443000Y-117983000D01*
X115443000Y-117602000D02*
X117602000Y-119761000D01*
X115443000Y-114427000D02*
X115443000Y-117602000D01*
X117602000Y-119761000D02*
X117221000Y-119761000D01*
X119507000Y-119761000D02*
X117602000Y-119761000D01*
%TD*%
D21*
%TO.N,GND*%
X172415585Y-48513540D02*
X173357388Y-48739647D01*
X174252239Y-49110307D01*
X175078075Y-49616379D01*
X175814583Y-50245417D01*
X176443620Y-50981925D01*
X176949694Y-51807764D01*
X177320353Y-52702612D01*
X177546460Y-53644420D01*
X177623000Y-54616950D01*
X177623001Y-140963037D01*
X177546460Y-141935580D01*
X177320353Y-142877388D01*
X176949694Y-143772236D01*
X176443620Y-144598075D01*
X175814583Y-145334583D01*
X175078075Y-145963621D01*
X174252239Y-146469693D01*
X173357388Y-146840353D01*
X172598104Y-147022641D01*
X89021900Y-147022641D01*
X88262612Y-146840353D01*
X87367764Y-146469694D01*
X86541925Y-145963620D01*
X85805417Y-145334583D01*
X85176379Y-144598075D01*
X84670307Y-143772239D01*
X84299647Y-142877388D01*
X84073540Y-141935585D01*
X84010500Y-141134585D01*
X84010500Y-140593073D01*
X86343000Y-140593073D01*
X86343000Y-141346927D01*
X86490070Y-142086295D01*
X86778557Y-142782764D01*
X87197375Y-143409570D01*
X87730430Y-143942625D01*
X88357236Y-144361443D01*
X89053705Y-144649930D01*
X89793073Y-144797000D01*
X90546927Y-144797000D01*
X91286295Y-144649930D01*
X91982764Y-144361443D01*
X92609570Y-143942625D01*
X93142625Y-143409570D01*
X93561443Y-142782764D01*
X93849930Y-142086295D01*
X93997000Y-141346927D01*
X93997000Y-140593073D01*
X167623000Y-140593073D01*
X167623000Y-141346927D01*
X167770070Y-142086295D01*
X168058557Y-142782764D01*
X168477375Y-143409570D01*
X169010430Y-143942625D01*
X169637236Y-144361443D01*
X170333705Y-144649930D01*
X171073073Y-144797000D01*
X171826927Y-144797000D01*
X172566295Y-144649930D01*
X173262764Y-144361443D01*
X173889570Y-143942625D01*
X174422625Y-143409570D01*
X174841443Y-142782764D01*
X175129930Y-142086295D01*
X175277000Y-141346927D01*
X175277000Y-140593073D01*
X175129930Y-139853705D01*
X174841443Y-139157236D01*
X174422625Y-138530430D01*
X173889570Y-137997375D01*
X173262764Y-137578557D01*
X172566295Y-137290070D01*
X171826927Y-137143000D01*
X171073073Y-137143000D01*
X170333705Y-137290070D01*
X169637236Y-137578557D01*
X169010430Y-137997375D01*
X168477375Y-138530430D01*
X168058557Y-139157236D01*
X167770070Y-139853705D01*
X167623000Y-140593073D01*
X93997000Y-140593073D01*
X93849930Y-139853705D01*
X93561443Y-139157236D01*
X93142625Y-138530430D01*
X92827195Y-138215000D01*
X112486418Y-138215000D01*
X112486418Y-139915000D01*
X112492732Y-139979103D01*
X112511430Y-140040743D01*
X112541794Y-140097550D01*
X112582657Y-140147343D01*
X112632450Y-140188206D01*
X112689257Y-140218570D01*
X112750897Y-140237268D01*
X112815000Y-140243582D01*
X114515000Y-140243582D01*
X114579103Y-140237268D01*
X114640743Y-140218570D01*
X114697550Y-140188206D01*
X114747343Y-140147343D01*
X114788206Y-140097550D01*
X114818570Y-140040743D01*
X114837268Y-139979103D01*
X114843582Y-139915000D01*
X114843582Y-138215000D01*
X114837268Y-138150897D01*
X114818570Y-138089257D01*
X114788206Y-138032450D01*
X114747343Y-137982657D01*
X114697550Y-137941794D01*
X114640743Y-137911430D01*
X114579103Y-137892732D01*
X114515000Y-137886418D01*
X112815000Y-137886418D01*
X112750897Y-137892732D01*
X112689257Y-137911430D01*
X112632450Y-137941794D01*
X112582657Y-137982657D01*
X112541794Y-138032450D01*
X112511430Y-138089257D01*
X112492732Y-138150897D01*
X112486418Y-138215000D01*
X92827195Y-138215000D01*
X92609570Y-137997375D01*
X91982764Y-137578557D01*
X91286295Y-137290070D01*
X90546927Y-137143000D01*
X89793073Y-137143000D01*
X89053705Y-137290070D01*
X88357236Y-137578557D01*
X87730430Y-137997375D01*
X87197375Y-138530430D01*
X86778557Y-139157236D01*
X86490070Y-139853705D01*
X86343000Y-140593073D01*
X84010500Y-140593073D01*
X84010500Y-134024000D01*
X87594418Y-134024000D01*
X87594418Y-135724000D01*
X87600732Y-135788103D01*
X87619430Y-135849743D01*
X87649794Y-135906550D01*
X87690657Y-135956343D01*
X87740450Y-135997206D01*
X87797257Y-136027570D01*
X87858897Y-136046268D01*
X87923000Y-136052582D01*
X89623000Y-136052582D01*
X89687103Y-136046268D01*
X89748743Y-136027570D01*
X89805550Y-135997206D01*
X89855343Y-135956343D01*
X89896206Y-135906550D01*
X89926570Y-135849743D01*
X89945268Y-135788103D01*
X89951582Y-135724000D01*
X89951582Y-134758076D01*
X90136000Y-134758076D01*
X90136000Y-134989924D01*
X90181231Y-135217318D01*
X90269956Y-135431519D01*
X90398764Y-135624294D01*
X90562706Y-135788236D01*
X90755481Y-135917044D01*
X90969682Y-136005769D01*
X91197076Y-136051000D01*
X91428924Y-136051000D01*
X91656318Y-136005769D01*
X91870519Y-135917044D01*
X92063294Y-135788236D01*
X92227236Y-135624294D01*
X92356044Y-135431519D01*
X92444769Y-135217318D01*
X92490000Y-134989924D01*
X92490000Y-134758076D01*
X92444769Y-134530682D01*
X92356044Y-134316481D01*
X92227236Y-134123706D01*
X92063294Y-133959764D01*
X91870519Y-133830956D01*
X91656318Y-133742231D01*
X91428924Y-133697000D01*
X91197076Y-133697000D01*
X90969682Y-133742231D01*
X90755481Y-133830956D01*
X90562706Y-133959764D01*
X90398764Y-134123706D01*
X90269956Y-134316481D01*
X90181231Y-134530682D01*
X90136000Y-134758076D01*
X89951582Y-134758076D01*
X89951582Y-134024000D01*
X89945268Y-133959897D01*
X89926570Y-133898257D01*
X89896206Y-133841450D01*
X89855343Y-133791657D01*
X89805550Y-133750794D01*
X89748743Y-133720430D01*
X89687103Y-133701732D01*
X89623000Y-133695418D01*
X87923000Y-133695418D01*
X87858897Y-133701732D01*
X87797257Y-133720430D01*
X87740450Y-133750794D01*
X87690657Y-133791657D01*
X87649794Y-133841450D01*
X87619430Y-133898257D01*
X87600732Y-133959897D01*
X87594418Y-134024000D01*
X84010500Y-134024000D01*
X84010500Y-131500397D01*
X98587000Y-131500397D01*
X98587000Y-131643603D01*
X98614938Y-131784058D01*
X98669741Y-131916364D01*
X98749302Y-132035436D01*
X98850564Y-132136698D01*
X98969636Y-132216259D01*
X99101942Y-132271062D01*
X99242397Y-132299000D01*
X99385603Y-132299000D01*
X99526058Y-132271062D01*
X99658364Y-132216259D01*
X99777436Y-132136698D01*
X99878698Y-132035436D01*
X99958259Y-131916364D01*
X100013062Y-131784058D01*
X100041000Y-131643603D01*
X100041000Y-131500397D01*
X100032185Y-131456076D01*
X100677000Y-131456076D01*
X100677000Y-131687924D01*
X100722231Y-131915318D01*
X100810956Y-132129519D01*
X100939764Y-132322294D01*
X101103706Y-132486236D01*
X101296481Y-132615044D01*
X101510682Y-132703769D01*
X101738076Y-132749000D01*
X101969924Y-132749000D01*
X102197318Y-132703769D01*
X102411519Y-132615044D01*
X102604294Y-132486236D01*
X102768236Y-132322294D01*
X102897044Y-132129519D01*
X102985769Y-131915318D01*
X103031000Y-131687924D01*
X103031000Y-131456076D01*
X102985769Y-131228682D01*
X102897044Y-131014481D01*
X102768236Y-130821706D01*
X102668530Y-130722000D01*
X103215418Y-130722000D01*
X103215418Y-132422000D01*
X103221732Y-132486103D01*
X103240430Y-132547743D01*
X103270794Y-132604550D01*
X103311657Y-132654343D01*
X103361450Y-132695206D01*
X103418257Y-132725570D01*
X103479897Y-132744268D01*
X103544000Y-132750582D01*
X105244000Y-132750582D01*
X105308103Y-132744268D01*
X105369743Y-132725570D01*
X105426550Y-132695206D01*
X105476343Y-132654343D01*
X105517206Y-132604550D01*
X105547570Y-132547743D01*
X105557078Y-132516397D01*
X109255000Y-132516397D01*
X109255000Y-132659603D01*
X109282938Y-132800058D01*
X109337741Y-132932364D01*
X109417302Y-133051436D01*
X109518564Y-133152698D01*
X109637636Y-133232259D01*
X109769942Y-133287062D01*
X109910397Y-133315000D01*
X110053603Y-133315000D01*
X110194058Y-133287062D01*
X110326364Y-133232259D01*
X110445436Y-133152698D01*
X110546698Y-133051436D01*
X110626259Y-132932364D01*
X110681062Y-132800058D01*
X110709000Y-132659603D01*
X110709000Y-132516397D01*
X110681062Y-132375942D01*
X110626259Y-132243636D01*
X110546698Y-132124564D01*
X110445436Y-132023302D01*
X110326364Y-131943741D01*
X110194058Y-131888938D01*
X110053603Y-131861000D01*
X109910397Y-131861000D01*
X109769942Y-131888938D01*
X109637636Y-131943741D01*
X109518564Y-132023302D01*
X109417302Y-132124564D01*
X109337741Y-132243636D01*
X109282938Y-132375942D01*
X109255000Y-132516397D01*
X105557078Y-132516397D01*
X105566268Y-132486103D01*
X105572582Y-132422000D01*
X105572582Y-130722000D01*
X105566268Y-130657897D01*
X105547570Y-130596257D01*
X105517206Y-130539450D01*
X105476343Y-130489657D01*
X105426550Y-130448794D01*
X105369743Y-130418430D01*
X105308103Y-130399732D01*
X105244000Y-130393418D01*
X103544000Y-130393418D01*
X103479897Y-130399732D01*
X103418257Y-130418430D01*
X103361450Y-130448794D01*
X103311657Y-130489657D01*
X103270794Y-130539450D01*
X103240430Y-130596257D01*
X103221732Y-130657897D01*
X103215418Y-130722000D01*
X102668530Y-130722000D01*
X102604294Y-130657764D01*
X102411519Y-130528956D01*
X102197318Y-130440231D01*
X101969924Y-130395000D01*
X101738076Y-130395000D01*
X101510682Y-130440231D01*
X101296481Y-130528956D01*
X101103706Y-130657764D01*
X100939764Y-130821706D01*
X100810956Y-131014481D01*
X100722231Y-131228682D01*
X100677000Y-131456076D01*
X100032185Y-131456076D01*
X100013062Y-131359942D01*
X99958259Y-131227636D01*
X99878698Y-131108564D01*
X99777436Y-131007302D01*
X99658364Y-130927741D01*
X99526058Y-130872938D01*
X99385603Y-130845000D01*
X99242397Y-130845000D01*
X99101942Y-130872938D01*
X98969636Y-130927741D01*
X98850564Y-131007302D01*
X98749302Y-131108564D01*
X98669741Y-131227636D01*
X98614938Y-131359942D01*
X98587000Y-131500397D01*
X84010500Y-131500397D01*
X84010500Y-130230397D01*
X147863000Y-130230397D01*
X147863000Y-130373603D01*
X147890938Y-130514058D01*
X147945741Y-130646364D01*
X148025302Y-130765436D01*
X148126564Y-130866698D01*
X148245636Y-130946259D01*
X148377942Y-131001062D01*
X148518397Y-131029000D01*
X148661603Y-131029000D01*
X148802058Y-131001062D01*
X148934364Y-130946259D01*
X149053436Y-130866698D01*
X149154698Y-130765436D01*
X149234259Y-130646364D01*
X149289062Y-130514058D01*
X149317000Y-130373603D01*
X149317000Y-130230397D01*
X149289062Y-130089942D01*
X149234259Y-129957636D01*
X149161937Y-129849397D01*
X163484000Y-129849397D01*
X163484000Y-129992603D01*
X163511938Y-130133058D01*
X163566741Y-130265364D01*
X163646302Y-130384436D01*
X163747564Y-130485698D01*
X163866636Y-130565259D01*
X163998942Y-130620062D01*
X164139397Y-130648000D01*
X164282603Y-130648000D01*
X164423058Y-130620062D01*
X164555364Y-130565259D01*
X164674436Y-130485698D01*
X164775698Y-130384436D01*
X164855259Y-130265364D01*
X164910062Y-130133058D01*
X164938000Y-129992603D01*
X164938000Y-129849397D01*
X164910062Y-129708942D01*
X164855259Y-129576636D01*
X164775698Y-129457564D01*
X164674436Y-129356302D01*
X164555364Y-129276741D01*
X164423058Y-129221938D01*
X164282603Y-129194000D01*
X164139397Y-129194000D01*
X163998942Y-129221938D01*
X163866636Y-129276741D01*
X163747564Y-129356302D01*
X163646302Y-129457564D01*
X163566741Y-129576636D01*
X163511938Y-129708942D01*
X163484000Y-129849397D01*
X149161937Y-129849397D01*
X149154698Y-129838564D01*
X149053436Y-129737302D01*
X148934364Y-129657741D01*
X148802058Y-129602938D01*
X148661603Y-129575000D01*
X148518397Y-129575000D01*
X148377942Y-129602938D01*
X148245636Y-129657741D01*
X148126564Y-129737302D01*
X148025302Y-129838564D01*
X147945741Y-129957636D01*
X147890938Y-130089942D01*
X147863000Y-130230397D01*
X84010500Y-130230397D01*
X84010500Y-128790397D01*
X168480000Y-128790397D01*
X168480000Y-128933603D01*
X168507938Y-129074058D01*
X168562741Y-129206364D01*
X168642302Y-129325436D01*
X168743564Y-129426698D01*
X168862636Y-129506259D01*
X168994942Y-129561062D01*
X169135397Y-129589000D01*
X169278603Y-129589000D01*
X169419058Y-129561062D01*
X169551364Y-129506259D01*
X169670436Y-129426698D01*
X169771698Y-129325436D01*
X169851259Y-129206364D01*
X169906062Y-129074058D01*
X169934000Y-128933603D01*
X169934000Y-128790397D01*
X169906062Y-128649942D01*
X169851259Y-128517636D01*
X169771698Y-128398564D01*
X169670436Y-128297302D01*
X169551364Y-128217741D01*
X169419058Y-128162938D01*
X169278603Y-128135000D01*
X169135397Y-128135000D01*
X168994942Y-128162938D01*
X168862636Y-128217741D01*
X168743564Y-128297302D01*
X168642302Y-128398564D01*
X168562741Y-128517636D01*
X168507938Y-128649942D01*
X168480000Y-128790397D01*
X84010500Y-128790397D01*
X84010500Y-127309397D01*
X143672000Y-127309397D01*
X143672000Y-127452603D01*
X143699938Y-127593058D01*
X143754741Y-127725364D01*
X143834302Y-127844436D01*
X143935564Y-127945698D01*
X144054636Y-128025259D01*
X144186942Y-128080062D01*
X144327397Y-128108000D01*
X144470603Y-128108000D01*
X144611058Y-128080062D01*
X144743364Y-128025259D01*
X144862436Y-127945698D01*
X144963698Y-127844436D01*
X145043259Y-127725364D01*
X145098062Y-127593058D01*
X145126000Y-127452603D01*
X145126000Y-127309397D01*
X145098062Y-127168942D01*
X145043259Y-127036636D01*
X144963698Y-126917564D01*
X144862436Y-126816302D01*
X144743364Y-126736741D01*
X144611058Y-126681938D01*
X144470603Y-126654000D01*
X144327397Y-126654000D01*
X144186942Y-126681938D01*
X144054636Y-126736741D01*
X143935564Y-126816302D01*
X143834302Y-126917564D01*
X143754741Y-127036636D01*
X143699938Y-127168942D01*
X143672000Y-127309397D01*
X84010500Y-127309397D01*
X84010500Y-125150397D01*
X162214000Y-125150397D01*
X162214000Y-125293603D01*
X162241938Y-125434058D01*
X162296741Y-125566364D01*
X162376302Y-125685436D01*
X162477564Y-125786698D01*
X162596636Y-125866259D01*
X162728942Y-125921062D01*
X162869397Y-125949000D01*
X163012603Y-125949000D01*
X163153058Y-125921062D01*
X163285364Y-125866259D01*
X163404436Y-125786698D01*
X163505698Y-125685436D01*
X163585259Y-125566364D01*
X163640062Y-125434058D01*
X163668000Y-125293603D01*
X163668000Y-125150397D01*
X163640062Y-125009942D01*
X163585259Y-124877636D01*
X163505698Y-124758564D01*
X163404436Y-124657302D01*
X163285364Y-124577741D01*
X163153058Y-124522938D01*
X163012603Y-124495000D01*
X162869397Y-124495000D01*
X162728942Y-124522938D01*
X162596636Y-124577741D01*
X162477564Y-124657302D01*
X162376302Y-124758564D01*
X162296741Y-124877636D01*
X162241938Y-125009942D01*
X162214000Y-125150397D01*
X84010500Y-125150397D01*
X84010500Y-118110000D01*
X94427370Y-118110000D01*
X94435000Y-118187470D01*
X94435001Y-121461524D01*
X94427370Y-121539000D01*
X94457819Y-121848146D01*
X94547993Y-122145411D01*
X94694429Y-122419373D01*
X94891498Y-122659503D01*
X94951674Y-122708888D01*
X96112112Y-123869326D01*
X96161497Y-123929503D01*
X96401627Y-124126572D01*
X96675588Y-124273007D01*
X96972854Y-124363182D01*
X97204531Y-124386000D01*
X97204532Y-124386000D01*
X97281999Y-124393630D01*
X97359466Y-124386000D01*
X106023531Y-124386000D01*
X106100998Y-124393630D01*
X106178465Y-124386000D01*
X106178467Y-124386000D01*
X106410144Y-124363182D01*
X106707410Y-124273007D01*
X106981371Y-124126572D01*
X107221501Y-123929503D01*
X107270891Y-123869321D01*
X111580213Y-119560000D01*
X114789786Y-119560000D01*
X115779671Y-120549886D01*
X115959626Y-120697571D01*
X116233588Y-120844007D01*
X116353602Y-120880413D01*
X116354497Y-120881503D01*
X116594627Y-121078572D01*
X116868588Y-121225007D01*
X117165854Y-121315182D01*
X117397531Y-121338000D01*
X118349565Y-121338000D01*
X118334732Y-121386897D01*
X118328418Y-121451000D01*
X118328418Y-123151000D01*
X118334732Y-123215103D01*
X118353430Y-123276743D01*
X118383794Y-123333550D01*
X118424657Y-123383343D01*
X118474450Y-123424206D01*
X118531257Y-123454570D01*
X118592897Y-123473268D01*
X118657000Y-123479582D01*
X120357000Y-123479582D01*
X120421103Y-123473268D01*
X120482743Y-123454570D01*
X120539550Y-123424206D01*
X120589343Y-123383343D01*
X120630206Y-123333550D01*
X120660570Y-123276743D01*
X120679268Y-123215103D01*
X120685582Y-123151000D01*
X120685582Y-121451000D01*
X120679268Y-121386897D01*
X120660570Y-121325257D01*
X120630206Y-121268450D01*
X120589343Y-121218657D01*
X120539550Y-121177794D01*
X120482743Y-121147430D01*
X120421103Y-121128732D01*
X120357000Y-121122418D01*
X120305343Y-121122418D01*
X120387373Y-121078572D01*
X120627503Y-120881503D01*
X120824572Y-120641373D01*
X120971007Y-120367412D01*
X121061182Y-120070146D01*
X121091630Y-119761000D01*
X121061182Y-119451854D01*
X120971007Y-119154588D01*
X120824572Y-118880627D01*
X120627503Y-118640497D01*
X120387373Y-118443428D01*
X120113412Y-118296993D01*
X119816146Y-118206818D01*
X119584469Y-118184000D01*
X117874215Y-118184000D01*
X117020000Y-117329786D01*
X117020000Y-114349531D01*
X116997182Y-114117854D01*
X116907007Y-113820588D01*
X116760572Y-113546627D01*
X116563503Y-113306497D01*
X116323372Y-113109428D01*
X116049411Y-112962993D01*
X115752145Y-112872818D01*
X115443000Y-112842370D01*
X115133854Y-112872818D01*
X114836588Y-112962993D01*
X114562627Y-113109428D01*
X114322497Y-113306497D01*
X114125428Y-113546628D01*
X113978993Y-113820589D01*
X113888818Y-114117855D01*
X113866000Y-114349532D01*
X113866001Y-116406000D01*
X111004467Y-116406000D01*
X110926998Y-116398370D01*
X110617851Y-116428818D01*
X110469219Y-116473905D01*
X110320586Y-116518993D01*
X110183605Y-116592211D01*
X110046624Y-116665428D01*
X109923180Y-116766736D01*
X109806495Y-116862497D01*
X109757110Y-116922673D01*
X105447784Y-121232000D01*
X97935215Y-121232000D01*
X97589000Y-120885786D01*
X97589000Y-118276000D01*
X98643418Y-118276000D01*
X98643418Y-119976000D01*
X98649732Y-120040103D01*
X98668430Y-120101743D01*
X98698794Y-120158550D01*
X98739657Y-120208343D01*
X98789450Y-120249206D01*
X98846257Y-120279570D01*
X98907897Y-120298268D01*
X98972000Y-120304582D01*
X100672000Y-120304582D01*
X100736103Y-120298268D01*
X100797743Y-120279570D01*
X100854550Y-120249206D01*
X100904343Y-120208343D01*
X100945206Y-120158550D01*
X100975570Y-120101743D01*
X100994268Y-120040103D01*
X101000582Y-119976000D01*
X101000582Y-118276000D01*
X100994268Y-118211897D01*
X100975570Y-118150257D01*
X100945206Y-118093450D01*
X100904343Y-118043657D01*
X100854550Y-118002794D01*
X100797743Y-117972430D01*
X100736103Y-117953732D01*
X100672000Y-117947418D01*
X98972000Y-117947418D01*
X98907897Y-117953732D01*
X98846257Y-117972430D01*
X98789450Y-118002794D01*
X98739657Y-118043657D01*
X98698794Y-118093450D01*
X98668430Y-118150257D01*
X98649732Y-118211897D01*
X98643418Y-118276000D01*
X97589000Y-118276000D01*
X97589000Y-118187469D01*
X97596630Y-118110000D01*
X97566182Y-117800854D01*
X97476007Y-117503588D01*
X97329572Y-117229627D01*
X97132503Y-116989497D01*
X96892373Y-116792428D01*
X96618412Y-116645993D01*
X96321146Y-116555818D01*
X96089469Y-116533000D01*
X96012000Y-116525370D01*
X95934531Y-116533000D01*
X95702854Y-116555818D01*
X95405588Y-116645993D01*
X95131627Y-116792428D01*
X94891497Y-116989497D01*
X94694428Y-117229627D01*
X94547993Y-117503588D01*
X94457818Y-117800854D01*
X94427370Y-118110000D01*
X84010500Y-118110000D01*
X84010500Y-110799397D01*
X99349000Y-110799397D01*
X99349000Y-110942603D01*
X99376938Y-111083058D01*
X99431741Y-111215364D01*
X99511302Y-111334436D01*
X99612564Y-111435698D01*
X99731636Y-111515259D01*
X99863942Y-111570062D01*
X100004397Y-111598000D01*
X100147603Y-111598000D01*
X100288058Y-111570062D01*
X100420364Y-111515259D01*
X100539436Y-111435698D01*
X100640698Y-111334436D01*
X100720259Y-111215364D01*
X100775062Y-111083058D01*
X100803000Y-110942603D01*
X100803000Y-110799397D01*
X100775062Y-110658942D01*
X100720259Y-110526636D01*
X100640698Y-110407564D01*
X100539436Y-110306302D01*
X100517129Y-110291397D01*
X122082000Y-110291397D01*
X122082000Y-110434603D01*
X122109938Y-110575058D01*
X122164741Y-110707364D01*
X122244302Y-110826436D01*
X122345564Y-110927698D01*
X122464636Y-111007259D01*
X122596942Y-111062062D01*
X122737397Y-111090000D01*
X122880603Y-111090000D01*
X123021058Y-111062062D01*
X123153364Y-111007259D01*
X123272436Y-110927698D01*
X123373698Y-110826436D01*
X123453259Y-110707364D01*
X123508062Y-110575058D01*
X123536000Y-110434603D01*
X123536000Y-110291397D01*
X123508062Y-110150942D01*
X123453259Y-110018636D01*
X123373698Y-109899564D01*
X123272436Y-109798302D01*
X123153364Y-109718741D01*
X123021058Y-109663938D01*
X122880603Y-109636000D01*
X122737397Y-109636000D01*
X122596942Y-109663938D01*
X122464636Y-109718741D01*
X122345564Y-109798302D01*
X122244302Y-109899564D01*
X122164741Y-110018636D01*
X122109938Y-110150942D01*
X122082000Y-110291397D01*
X100517129Y-110291397D01*
X100420364Y-110226741D01*
X100288058Y-110171938D01*
X100147603Y-110144000D01*
X100004397Y-110144000D01*
X99863942Y-110171938D01*
X99731636Y-110226741D01*
X99612564Y-110306302D01*
X99511302Y-110407564D01*
X99431741Y-110526636D01*
X99376938Y-110658942D01*
X99349000Y-110799397D01*
X84010500Y-110799397D01*
X84010500Y-106211000D01*
X94198418Y-106211000D01*
X94198418Y-107911000D01*
X94204732Y-107975103D01*
X94223430Y-108036743D01*
X94253794Y-108093550D01*
X94294657Y-108143343D01*
X94344450Y-108184206D01*
X94401257Y-108214570D01*
X94462897Y-108233268D01*
X94527000Y-108239582D01*
X96227000Y-108239582D01*
X96291103Y-108233268D01*
X96352743Y-108214570D01*
X96409550Y-108184206D01*
X96459343Y-108143343D01*
X96500206Y-108093550D01*
X96530570Y-108036743D01*
X96549268Y-107975103D01*
X96555582Y-107911000D01*
X96555582Y-107624397D01*
X102016000Y-107624397D01*
X102016000Y-107767603D01*
X102043938Y-107908058D01*
X102098741Y-108040364D01*
X102178302Y-108159436D01*
X102279564Y-108260698D01*
X102398636Y-108340259D01*
X102530942Y-108395062D01*
X102671397Y-108423000D01*
X102814603Y-108423000D01*
X102955058Y-108395062D01*
X103087364Y-108340259D01*
X103206436Y-108260698D01*
X103307698Y-108159436D01*
X103387259Y-108040364D01*
X103442062Y-107908058D01*
X103470000Y-107767603D01*
X103470000Y-107624397D01*
X105064000Y-107624397D01*
X105064000Y-107767603D01*
X105091938Y-107908058D01*
X105146741Y-108040364D01*
X105226302Y-108159436D01*
X105327564Y-108260698D01*
X105446636Y-108340259D01*
X105578942Y-108395062D01*
X105719397Y-108423000D01*
X105862603Y-108423000D01*
X106003058Y-108395062D01*
X106135364Y-108340259D01*
X106254436Y-108260698D01*
X106355698Y-108159436D01*
X106435259Y-108040364D01*
X106490062Y-107908058D01*
X106518000Y-107767603D01*
X106518000Y-107624397D01*
X106490062Y-107483942D01*
X106435259Y-107351636D01*
X106355698Y-107232564D01*
X106254436Y-107131302D01*
X106135364Y-107051741D01*
X106003058Y-106996938D01*
X105862603Y-106969000D01*
X105719397Y-106969000D01*
X105578942Y-106996938D01*
X105446636Y-107051741D01*
X105327564Y-107131302D01*
X105226302Y-107232564D01*
X105146741Y-107351636D01*
X105091938Y-107483942D01*
X105064000Y-107624397D01*
X103470000Y-107624397D01*
X103442062Y-107483942D01*
X103387259Y-107351636D01*
X103307698Y-107232564D01*
X103206436Y-107131302D01*
X103087364Y-107051741D01*
X102955058Y-106996938D01*
X102814603Y-106969000D01*
X102671397Y-106969000D01*
X102530942Y-106996938D01*
X102398636Y-107051741D01*
X102279564Y-107131302D01*
X102178302Y-107232564D01*
X102098741Y-107351636D01*
X102043938Y-107483942D01*
X102016000Y-107624397D01*
X96555582Y-107624397D01*
X96555582Y-106211000D01*
X96549268Y-106146897D01*
X96530570Y-106085257D01*
X96500206Y-106028450D01*
X96459343Y-105978657D01*
X96409550Y-105937794D01*
X96352743Y-105907430D01*
X96291103Y-105888732D01*
X96227000Y-105882418D01*
X94527000Y-105882418D01*
X94462897Y-105888732D01*
X94401257Y-105907430D01*
X94344450Y-105937794D01*
X94294657Y-105978657D01*
X94253794Y-106028450D01*
X94223430Y-106085257D01*
X94204732Y-106146897D01*
X94198418Y-106211000D01*
X84010500Y-106211000D01*
X84010500Y-105449000D01*
X123916418Y-105449000D01*
X123916418Y-107149000D01*
X123922732Y-107213103D01*
X123941430Y-107274743D01*
X123971794Y-107331550D01*
X124012657Y-107381343D01*
X124062450Y-107422206D01*
X124119257Y-107452570D01*
X124180897Y-107471268D01*
X124245000Y-107477582D01*
X125945000Y-107477582D01*
X126009103Y-107471268D01*
X126070743Y-107452570D01*
X126127550Y-107422206D01*
X126177343Y-107381343D01*
X126218206Y-107331550D01*
X126248570Y-107274743D01*
X126267268Y-107213103D01*
X126273582Y-107149000D01*
X126273582Y-105449000D01*
X126267268Y-105384897D01*
X126248570Y-105323257D01*
X126218206Y-105266450D01*
X126177343Y-105216657D01*
X126127550Y-105175794D01*
X126070743Y-105145430D01*
X126009103Y-105126732D01*
X125945000Y-105120418D01*
X124245000Y-105120418D01*
X124180897Y-105126732D01*
X124119257Y-105145430D01*
X124062450Y-105175794D01*
X124012657Y-105216657D01*
X123971794Y-105266450D01*
X123941430Y-105323257D01*
X123922732Y-105384897D01*
X123916418Y-105449000D01*
X84010500Y-105449000D01*
X84010500Y-100956897D01*
X95285000Y-100956897D01*
X95285000Y-101100103D01*
X95312938Y-101240558D01*
X95367741Y-101372864D01*
X95447302Y-101491936D01*
X95548564Y-101593198D01*
X95667636Y-101672759D01*
X95799942Y-101727562D01*
X95940397Y-101755500D01*
X96083603Y-101755500D01*
X96224058Y-101727562D01*
X96356364Y-101672759D01*
X96475436Y-101593198D01*
X96503134Y-101565500D01*
X98335132Y-101565500D01*
X98361500Y-101568097D01*
X98387868Y-101565500D01*
X98387878Y-101565500D01*
X98466770Y-101557730D01*
X98567995Y-101527024D01*
X98661285Y-101477159D01*
X98743053Y-101410053D01*
X98759868Y-101389564D01*
X110686035Y-89463397D01*
X119542000Y-89463397D01*
X119542000Y-89606603D01*
X119569938Y-89747058D01*
X119624741Y-89879364D01*
X119704302Y-89998436D01*
X119805564Y-90099698D01*
X119924636Y-90179259D01*
X120056942Y-90234062D01*
X120197397Y-90262000D01*
X120340603Y-90262000D01*
X120481058Y-90234062D01*
X120613364Y-90179259D01*
X120732436Y-90099698D01*
X120833698Y-89998436D01*
X120913259Y-89879364D01*
X120968062Y-89747058D01*
X120996000Y-89606603D01*
X120996000Y-89463397D01*
X120968062Y-89322942D01*
X120913259Y-89190636D01*
X120833698Y-89071564D01*
X120732436Y-88970302D01*
X120613364Y-88890741D01*
X120481058Y-88835938D01*
X120340603Y-88808000D01*
X120197397Y-88808000D01*
X120056942Y-88835938D01*
X119924636Y-88890741D01*
X119805564Y-88970302D01*
X119704302Y-89071564D01*
X119624741Y-89190636D01*
X119569938Y-89322942D01*
X119542000Y-89463397D01*
X110686035Y-89463397D01*
X121567070Y-78582363D01*
X121587554Y-78565552D01*
X121604365Y-78545068D01*
X121604369Y-78545064D01*
X121654660Y-78483785D01*
X121704524Y-78390495D01*
X121704525Y-78390494D01*
X121735231Y-78289269D01*
X121743001Y-78210377D01*
X121743001Y-78210368D01*
X121745598Y-78184000D01*
X121743001Y-78157632D01*
X121743001Y-74750368D01*
X121745598Y-74724000D01*
X121743001Y-74697632D01*
X121743001Y-74697623D01*
X121735231Y-74618731D01*
X121704525Y-74517506D01*
X121677948Y-74467784D01*
X121654660Y-74424215D01*
X121604369Y-74362936D01*
X121604365Y-74362932D01*
X121587554Y-74342448D01*
X121567070Y-74325637D01*
X121377000Y-74135567D01*
X121377000Y-74096397D01*
X121349062Y-73955942D01*
X121294259Y-73823636D01*
X121214698Y-73704564D01*
X121113436Y-73603302D01*
X120994364Y-73523741D01*
X120862058Y-73468938D01*
X120721603Y-73441000D01*
X120578397Y-73441000D01*
X120437942Y-73468938D01*
X120305636Y-73523741D01*
X120186564Y-73603302D01*
X120085302Y-73704564D01*
X120005741Y-73823636D01*
X119950938Y-73955942D01*
X119923000Y-74096397D01*
X119923000Y-74239603D01*
X119950938Y-74380058D01*
X120005741Y-74512364D01*
X120085302Y-74631436D01*
X120186564Y-74732698D01*
X120305636Y-74812259D01*
X120437942Y-74867062D01*
X120578397Y-74895000D01*
X120617567Y-74895000D01*
X120669001Y-74946434D01*
X120669002Y-77961565D01*
X98139068Y-100491500D01*
X96503134Y-100491500D01*
X96475436Y-100463802D01*
X96356364Y-100384241D01*
X96224058Y-100329438D01*
X96083603Y-100301500D01*
X95940397Y-100301500D01*
X95799942Y-100329438D01*
X95667636Y-100384241D01*
X95548564Y-100463802D01*
X95447302Y-100565064D01*
X95367741Y-100684136D01*
X95312938Y-100816442D01*
X95285000Y-100956897D01*
X84010500Y-100956897D01*
X84010500Y-96448397D01*
X84871000Y-96448397D01*
X84871000Y-96591603D01*
X84898938Y-96732058D01*
X84953741Y-96864364D01*
X85033302Y-96983436D01*
X85134564Y-97084698D01*
X85253636Y-97164259D01*
X85385942Y-97219062D01*
X85526397Y-97247000D01*
X85669603Y-97247000D01*
X85810058Y-97219062D01*
X85942364Y-97164259D01*
X86061436Y-97084698D01*
X86162698Y-96983436D01*
X86242259Y-96864364D01*
X86297062Y-96732058D01*
X86325000Y-96591603D01*
X86325000Y-96448397D01*
X86297062Y-96307942D01*
X86242259Y-96175636D01*
X86162698Y-96056564D01*
X86061436Y-95955302D01*
X85942364Y-95875741D01*
X85810058Y-95820938D01*
X85669603Y-95793000D01*
X85526397Y-95793000D01*
X85385942Y-95820938D01*
X85253636Y-95875741D01*
X85134564Y-95955302D01*
X85033302Y-96056564D01*
X84953741Y-96175636D01*
X84898938Y-96307942D01*
X84871000Y-96448397D01*
X84010500Y-96448397D01*
X84010500Y-87177397D01*
X100238000Y-87177397D01*
X100238000Y-87320603D01*
X100265938Y-87461058D01*
X100320741Y-87593364D01*
X100400302Y-87712436D01*
X100501564Y-87813698D01*
X100620636Y-87893259D01*
X100752942Y-87948062D01*
X100893397Y-87976000D01*
X101036603Y-87976000D01*
X101177058Y-87948062D01*
X101309364Y-87893259D01*
X101428436Y-87813698D01*
X101529698Y-87712436D01*
X101609259Y-87593364D01*
X101664062Y-87461058D01*
X101692000Y-87320603D01*
X101692000Y-87177397D01*
X101664062Y-87036942D01*
X101609259Y-86904636D01*
X101529698Y-86785564D01*
X101428436Y-86684302D01*
X101309364Y-86604741D01*
X101177058Y-86549938D01*
X101036603Y-86522000D01*
X100893397Y-86522000D01*
X100752942Y-86549938D01*
X100620636Y-86604741D01*
X100501564Y-86684302D01*
X100400302Y-86785564D01*
X100320741Y-86904636D01*
X100265938Y-87036942D01*
X100238000Y-87177397D01*
X84010500Y-87177397D01*
X84010500Y-74350397D01*
X91856000Y-74350397D01*
X91856000Y-74493603D01*
X91883938Y-74634058D01*
X91938741Y-74766364D01*
X92018302Y-74885436D01*
X92119564Y-74986698D01*
X92238636Y-75066259D01*
X92370942Y-75121062D01*
X92511397Y-75149000D01*
X92654603Y-75149000D01*
X92795058Y-75121062D01*
X92927364Y-75066259D01*
X93046436Y-74986698D01*
X93147698Y-74885436D01*
X93227259Y-74766364D01*
X93282062Y-74634058D01*
X93310000Y-74493603D01*
X93310000Y-74350397D01*
X93282062Y-74209942D01*
X93227259Y-74077636D01*
X93147698Y-73958564D01*
X93046436Y-73857302D01*
X92927364Y-73777741D01*
X92795058Y-73722938D01*
X92654603Y-73695000D01*
X92511397Y-73695000D01*
X92370942Y-73722938D01*
X92238636Y-73777741D01*
X92119564Y-73857302D01*
X92018302Y-73958564D01*
X91938741Y-74077636D01*
X91883938Y-74209942D01*
X91856000Y-74350397D01*
X84010500Y-74350397D01*
X84010500Y-71175397D01*
X95920000Y-71175397D01*
X95920000Y-71318603D01*
X95947938Y-71459058D01*
X96002741Y-71591364D01*
X96082302Y-71710436D01*
X96183564Y-71811698D01*
X96302636Y-71891259D01*
X96434942Y-71946062D01*
X96575397Y-71974000D01*
X96718603Y-71974000D01*
X96859058Y-71946062D01*
X96991364Y-71891259D01*
X97110436Y-71811698D01*
X97211698Y-71710436D01*
X97291259Y-71591364D01*
X97346062Y-71459058D01*
X97374000Y-71318603D01*
X97374000Y-71175397D01*
X97346062Y-71034942D01*
X97291259Y-70902636D01*
X97211698Y-70783564D01*
X97110436Y-70682302D01*
X96991364Y-70602741D01*
X96859058Y-70547938D01*
X96718603Y-70520000D01*
X96575397Y-70520000D01*
X96434942Y-70547938D01*
X96302636Y-70602741D01*
X96183564Y-70682302D01*
X96082302Y-70783564D01*
X96002741Y-70902636D01*
X95947938Y-71034942D01*
X95920000Y-71175397D01*
X84010500Y-71175397D01*
X84010500Y-63682397D01*
X95539000Y-63682397D01*
X95539000Y-63825603D01*
X95566938Y-63966058D01*
X95621741Y-64098364D01*
X95701302Y-64217436D01*
X95802564Y-64318698D01*
X95921636Y-64398259D01*
X96053942Y-64453062D01*
X96194397Y-64481000D01*
X96337603Y-64481000D01*
X96478058Y-64453062D01*
X96610364Y-64398259D01*
X96729436Y-64318698D01*
X96830698Y-64217436D01*
X96910259Y-64098364D01*
X96965062Y-63966058D01*
X96993000Y-63825603D01*
X96993000Y-63682397D01*
X96965062Y-63541942D01*
X96910259Y-63409636D01*
X96830698Y-63290564D01*
X96729436Y-63189302D01*
X96610364Y-63109741D01*
X96478058Y-63054938D01*
X96337603Y-63027000D01*
X96194397Y-63027000D01*
X96053942Y-63054938D01*
X95921636Y-63109741D01*
X95802564Y-63189302D01*
X95701302Y-63290564D01*
X95621741Y-63409636D01*
X95566938Y-63541942D01*
X95539000Y-63682397D01*
X84010500Y-63682397D01*
X84010500Y-54445415D01*
X84027211Y-54233073D01*
X86343000Y-54233073D01*
X86343000Y-54986927D01*
X86490070Y-55726295D01*
X86778557Y-56422764D01*
X87197375Y-57049570D01*
X87730430Y-57582625D01*
X88357236Y-58001443D01*
X89053705Y-58289930D01*
X89793073Y-58437000D01*
X90546927Y-58437000D01*
X91286295Y-58289930D01*
X91982764Y-58001443D01*
X92609570Y-57582625D01*
X92732798Y-57459397D01*
X97444000Y-57459397D01*
X97444000Y-57602603D01*
X97471938Y-57743058D01*
X97526741Y-57875364D01*
X97606302Y-57994436D01*
X97707564Y-58095698D01*
X97826636Y-58175259D01*
X97958942Y-58230062D01*
X98099397Y-58258000D01*
X98242603Y-58258000D01*
X98383058Y-58230062D01*
X98515364Y-58175259D01*
X98634436Y-58095698D01*
X98635737Y-58094397D01*
X102778000Y-58094397D01*
X102778000Y-58237603D01*
X102805938Y-58378058D01*
X102860741Y-58510364D01*
X102940302Y-58629436D01*
X102968000Y-58657134D01*
X102968001Y-64799424D01*
X102965403Y-64825802D01*
X102968001Y-64852180D01*
X102975771Y-64931072D01*
X103006477Y-65032297D01*
X103056341Y-65125586D01*
X103106632Y-65186866D01*
X103106637Y-65186871D01*
X103123448Y-65207355D01*
X103143932Y-65224166D01*
X105032606Y-67112841D01*
X104922803Y-67091000D01*
X104779597Y-67091000D01*
X104639142Y-67118938D01*
X104506836Y-67173741D01*
X104387764Y-67253302D01*
X104286502Y-67354564D01*
X104206941Y-67473636D01*
X104152138Y-67605942D01*
X104124200Y-67746397D01*
X104124200Y-67889603D01*
X104152138Y-68030058D01*
X104206941Y-68162364D01*
X104286502Y-68281436D01*
X104387764Y-68382698D01*
X104506836Y-68462259D01*
X104639142Y-68517062D01*
X104779597Y-68545000D01*
X104922803Y-68545000D01*
X105063258Y-68517062D01*
X105195564Y-68462259D01*
X105314636Y-68382698D01*
X105415898Y-68281436D01*
X105495459Y-68162364D01*
X105550262Y-68030058D01*
X105578200Y-67889603D01*
X105578200Y-67746397D01*
X105550262Y-67605942D01*
X105548601Y-67601933D01*
X105607702Y-67633523D01*
X105708927Y-67664229D01*
X105787819Y-67671999D01*
X105787826Y-67671999D01*
X105814197Y-67674596D01*
X105840568Y-67671999D01*
X109005369Y-67671999D01*
X113636000Y-72302631D01*
X113636000Y-72787866D01*
X113608302Y-72815564D01*
X113528741Y-72934636D01*
X113473938Y-73066942D01*
X113446000Y-73207397D01*
X113446000Y-73350603D01*
X113473938Y-73491058D01*
X113528741Y-73623364D01*
X113608302Y-73742436D01*
X113636001Y-73770135D01*
X113636001Y-74829378D01*
X113643771Y-74908270D01*
X113674477Y-75009495D01*
X113724342Y-75102785D01*
X113791448Y-75184553D01*
X113873216Y-75251659D01*
X113966506Y-75301524D01*
X114067731Y-75332230D01*
X114173000Y-75342598D01*
X114278270Y-75332230D01*
X114379495Y-75301524D01*
X114472785Y-75251659D01*
X114554553Y-75184553D01*
X114621659Y-75102785D01*
X114671524Y-75009495D01*
X114702230Y-74908270D01*
X114710000Y-74829378D01*
X114710000Y-73770134D01*
X114737698Y-73742436D01*
X114817259Y-73623364D01*
X114872062Y-73491058D01*
X114900000Y-73350603D01*
X114900000Y-73207397D01*
X114872062Y-73066942D01*
X114817259Y-72934636D01*
X114737698Y-72815564D01*
X114710000Y-72787866D01*
X114710000Y-72106565D01*
X114712597Y-72080197D01*
X114710000Y-72053829D01*
X114710000Y-72053820D01*
X114702230Y-71974928D01*
X114671524Y-71873703D01*
X114621659Y-71780413D01*
X114611937Y-71768567D01*
X114571368Y-71719133D01*
X114571364Y-71719129D01*
X114554553Y-71698645D01*
X114534069Y-71681834D01*
X113231160Y-70378925D01*
X116217000Y-70378925D01*
X116217000Y-70591075D01*
X116258389Y-70799149D01*
X116339575Y-70995151D01*
X116457440Y-71171547D01*
X116607453Y-71321560D01*
X116783849Y-71439425D01*
X116979851Y-71520611D01*
X117187925Y-71562000D01*
X117400075Y-71562000D01*
X117608149Y-71520611D01*
X117804151Y-71439425D01*
X117980547Y-71321560D01*
X118130560Y-71171547D01*
X118248425Y-70995151D01*
X118329611Y-70799149D01*
X118371000Y-70591075D01*
X118371000Y-70378925D01*
X121097000Y-70378925D01*
X121097000Y-70591075D01*
X121138389Y-70799149D01*
X121219575Y-70995151D01*
X121337440Y-71171547D01*
X121487453Y-71321560D01*
X121663849Y-71439425D01*
X121859851Y-71520611D01*
X122067925Y-71562000D01*
X122280075Y-71562000D01*
X122488149Y-71520611D01*
X122684151Y-71439425D01*
X122860547Y-71321560D01*
X123010560Y-71171547D01*
X123128425Y-70995151D01*
X123209611Y-70799149D01*
X123251000Y-70591075D01*
X123251000Y-70378925D01*
X123209611Y-70170851D01*
X123128425Y-69974849D01*
X123010560Y-69798453D01*
X122860547Y-69648440D01*
X122684151Y-69530575D01*
X122488149Y-69449389D01*
X122280075Y-69408000D01*
X122067925Y-69408000D01*
X121859851Y-69449389D01*
X121663849Y-69530575D01*
X121487453Y-69648440D01*
X121337440Y-69798453D01*
X121219575Y-69974849D01*
X121138389Y-70170851D01*
X121097000Y-70378925D01*
X118371000Y-70378925D01*
X118329611Y-70170851D01*
X118248425Y-69974849D01*
X118130560Y-69798453D01*
X117980547Y-69648440D01*
X117804151Y-69530575D01*
X117608149Y-69449389D01*
X117400075Y-69408000D01*
X117187925Y-69408000D01*
X116979851Y-69449389D01*
X116783849Y-69530575D01*
X116607453Y-69648440D01*
X116457440Y-69798453D01*
X116339575Y-69974849D01*
X116258389Y-70170851D01*
X116217000Y-70378925D01*
X113231160Y-70378925D01*
X109626168Y-66773934D01*
X109609354Y-66753446D01*
X109527586Y-66686340D01*
X109434296Y-66636475D01*
X109333071Y-66605769D01*
X109254179Y-66597999D01*
X109254169Y-66597999D01*
X109227801Y-66595402D01*
X109201433Y-66597999D01*
X106036630Y-66597999D01*
X104042000Y-64603370D01*
X104042000Y-58657134D01*
X104069698Y-58629436D01*
X104149259Y-58510364D01*
X104204062Y-58378058D01*
X104232000Y-58237603D01*
X104232000Y-58094397D01*
X104204062Y-57953942D01*
X104149259Y-57821636D01*
X104069698Y-57702564D01*
X103968436Y-57601302D01*
X103849364Y-57521741D01*
X103717058Y-57466938D01*
X103576603Y-57439000D01*
X103433397Y-57439000D01*
X103292942Y-57466938D01*
X103160636Y-57521741D01*
X103041564Y-57601302D01*
X102940302Y-57702564D01*
X102860741Y-57821636D01*
X102805938Y-57953942D01*
X102778000Y-58094397D01*
X98635737Y-58094397D01*
X98735698Y-57994436D01*
X98815259Y-57875364D01*
X98870062Y-57743058D01*
X98898000Y-57602603D01*
X98898000Y-57459397D01*
X98870062Y-57318942D01*
X98815259Y-57186636D01*
X98735698Y-57067564D01*
X98634436Y-56966302D01*
X98515364Y-56886741D01*
X98383058Y-56831938D01*
X98242603Y-56804000D01*
X98099397Y-56804000D01*
X97958942Y-56831938D01*
X97826636Y-56886741D01*
X97707564Y-56966302D01*
X97606302Y-57067564D01*
X97526741Y-57186636D01*
X97471938Y-57318942D01*
X97444000Y-57459397D01*
X92732798Y-57459397D01*
X93142625Y-57049570D01*
X93561443Y-56422764D01*
X93849930Y-55726295D01*
X93959908Y-55173397D01*
X103667000Y-55173397D01*
X103667000Y-55316603D01*
X103694938Y-55457058D01*
X103749741Y-55589364D01*
X103829302Y-55708436D01*
X103930564Y-55809698D01*
X104049636Y-55889259D01*
X104181942Y-55944062D01*
X104322397Y-55972000D01*
X104465603Y-55972000D01*
X104606058Y-55944062D01*
X104738364Y-55889259D01*
X104857436Y-55809698D01*
X104958698Y-55708436D01*
X105038259Y-55589364D01*
X105093062Y-55457058D01*
X105121000Y-55316603D01*
X105121000Y-55173397D01*
X105093062Y-55032942D01*
X105038259Y-54900636D01*
X104958698Y-54781564D01*
X104857436Y-54680302D01*
X104738364Y-54600741D01*
X104606058Y-54545938D01*
X104465603Y-54518000D01*
X104322397Y-54518000D01*
X104181942Y-54545938D01*
X104049636Y-54600741D01*
X103930564Y-54680302D01*
X103829302Y-54781564D01*
X103749741Y-54900636D01*
X103694938Y-55032942D01*
X103667000Y-55173397D01*
X93959908Y-55173397D01*
X93997000Y-54986927D01*
X93997000Y-54233073D01*
X93849930Y-53493705D01*
X93561443Y-52797236D01*
X93142625Y-52170430D01*
X92609570Y-51637375D01*
X91982764Y-51218557D01*
X91286295Y-50930070D01*
X90546927Y-50783000D01*
X89793073Y-50783000D01*
X89053705Y-50930070D01*
X88357236Y-51218557D01*
X87730430Y-51637375D01*
X87197375Y-52170430D01*
X86778557Y-52797236D01*
X86490070Y-53493705D01*
X86343000Y-54233073D01*
X84027211Y-54233073D01*
X84073540Y-53644415D01*
X84299647Y-52702612D01*
X84670307Y-51807761D01*
X85176379Y-50981925D01*
X85777201Y-50278453D01*
X97721000Y-50278453D01*
X97721000Y-50559547D01*
X97775838Y-50835241D01*
X97883409Y-51094938D01*
X98039576Y-51328660D01*
X98238340Y-51527424D01*
X98472062Y-51683591D01*
X98731759Y-51791162D01*
X99007453Y-51846000D01*
X99288547Y-51846000D01*
X99564241Y-51791162D01*
X99823938Y-51683591D01*
X100057660Y-51527424D01*
X100256424Y-51328660D01*
X100257066Y-51327699D01*
X101721000Y-51327699D01*
X101721000Y-51510301D01*
X101756624Y-51689396D01*
X101826504Y-51858099D01*
X101927952Y-52009928D01*
X102057072Y-52139048D01*
X102208901Y-52240496D01*
X102377604Y-52310376D01*
X102556699Y-52346000D01*
X102739301Y-52346000D01*
X102918396Y-52310376D01*
X103087099Y-52240496D01*
X103238928Y-52139048D01*
X103368048Y-52009928D01*
X103469496Y-51858099D01*
X103539376Y-51689396D01*
X103575000Y-51510301D01*
X103575000Y-51327699D01*
X103721000Y-51327699D01*
X103721000Y-51510301D01*
X103756624Y-51689396D01*
X103826504Y-51858099D01*
X103927952Y-52009928D01*
X104057072Y-52139048D01*
X104208901Y-52240496D01*
X104377604Y-52310376D01*
X104556699Y-52346000D01*
X104739301Y-52346000D01*
X104802914Y-52333347D01*
X106270001Y-53800434D01*
X106270000Y-65167866D01*
X106242302Y-65195564D01*
X106162741Y-65314636D01*
X106107938Y-65446942D01*
X106080000Y-65587397D01*
X106080000Y-65730603D01*
X106107938Y-65871058D01*
X106162741Y-66003364D01*
X106242302Y-66122436D01*
X106343564Y-66223698D01*
X106462636Y-66303259D01*
X106594942Y-66358062D01*
X106735397Y-66386000D01*
X106878603Y-66386000D01*
X107019058Y-66358062D01*
X107151364Y-66303259D01*
X107270436Y-66223698D01*
X107371698Y-66122436D01*
X107442000Y-66017221D01*
X107512302Y-66122436D01*
X107613564Y-66223698D01*
X107732636Y-66303259D01*
X107864942Y-66358062D01*
X108005397Y-66386000D01*
X108148603Y-66386000D01*
X108289058Y-66358062D01*
X108421364Y-66303259D01*
X108540436Y-66223698D01*
X108641698Y-66122436D01*
X108721259Y-66003364D01*
X108776062Y-65871058D01*
X108804000Y-65730603D01*
X108804000Y-65587397D01*
X108776062Y-65446942D01*
X108721259Y-65314636D01*
X108641698Y-65195564D01*
X108614000Y-65167866D01*
X108614000Y-58221397D01*
X110652000Y-58221397D01*
X110652000Y-58364603D01*
X110679938Y-58505058D01*
X110734741Y-58637364D01*
X110814302Y-58756436D01*
X110915564Y-58857698D01*
X111034636Y-58937259D01*
X111166942Y-58992062D01*
X111307397Y-59020000D01*
X111450603Y-59020000D01*
X111591058Y-58992062D01*
X111723364Y-58937259D01*
X111842436Y-58857698D01*
X111843737Y-58856397D01*
X116748000Y-58856397D01*
X116748000Y-58999603D01*
X116775938Y-59140058D01*
X116830741Y-59272364D01*
X116910302Y-59391436D01*
X117011564Y-59492698D01*
X117116779Y-59563000D01*
X117011564Y-59633302D01*
X116910302Y-59734564D01*
X116830741Y-59853636D01*
X116775938Y-59985942D01*
X116748000Y-60126397D01*
X116748000Y-60269603D01*
X116775938Y-60410058D01*
X116830741Y-60542364D01*
X116910302Y-60661436D01*
X116938000Y-60689134D01*
X116938001Y-61568622D01*
X116935403Y-61595000D01*
X116945771Y-61700269D01*
X116976477Y-61801495D01*
X117026341Y-61894784D01*
X117076632Y-61956064D01*
X117076637Y-61956069D01*
X117093448Y-61976553D01*
X117113932Y-61993364D01*
X126463000Y-71342433D01*
X126463001Y-86968622D01*
X126460403Y-86995000D01*
X126470771Y-87100269D01*
X126501477Y-87201495D01*
X126551341Y-87294784D01*
X126601632Y-87356064D01*
X126601637Y-87356069D01*
X126618448Y-87376553D01*
X126638932Y-87393364D01*
X128432000Y-89186433D01*
X128432000Y-89225603D01*
X128459938Y-89366058D01*
X128514741Y-89498364D01*
X128594302Y-89617436D01*
X128695564Y-89718698D01*
X128814636Y-89798259D01*
X128946942Y-89853062D01*
X129087397Y-89881000D01*
X129230603Y-89881000D01*
X129371058Y-89853062D01*
X129503364Y-89798259D01*
X129622436Y-89718698D01*
X129723698Y-89617436D01*
X129803259Y-89498364D01*
X129858062Y-89366058D01*
X129886000Y-89225603D01*
X129886000Y-89082397D01*
X129858062Y-88941942D01*
X129803259Y-88809636D01*
X129723698Y-88690564D01*
X129622436Y-88589302D01*
X129503364Y-88509741D01*
X129371058Y-88454938D01*
X129230603Y-88427000D01*
X129191433Y-88427000D01*
X128971350Y-88206917D01*
X129087397Y-88230000D01*
X129230603Y-88230000D01*
X129371058Y-88202062D01*
X129503364Y-88147259D01*
X129622436Y-88067698D01*
X129723698Y-87966436D01*
X129803259Y-87847364D01*
X129858062Y-87715058D01*
X129886000Y-87574603D01*
X129886000Y-87431397D01*
X129858062Y-87290942D01*
X129803259Y-87158636D01*
X129723698Y-87039564D01*
X129622436Y-86938302D01*
X129503364Y-86858741D01*
X129371058Y-86803938D01*
X129230603Y-86776000D01*
X129191433Y-86776000D01*
X128807000Y-86391568D01*
X128807000Y-84002397D01*
X141132000Y-84002397D01*
X141132000Y-84145603D01*
X141159938Y-84286058D01*
X141214741Y-84418364D01*
X141294302Y-84537436D01*
X141395564Y-84638698D01*
X141514636Y-84718259D01*
X141646942Y-84773062D01*
X141787397Y-84801000D01*
X141930603Y-84801000D01*
X142071058Y-84773062D01*
X142203364Y-84718259D01*
X142322436Y-84638698D01*
X142423698Y-84537436D01*
X142503259Y-84418364D01*
X142558062Y-84286058D01*
X142586000Y-84145603D01*
X142586000Y-84002397D01*
X142558062Y-83861942D01*
X142503259Y-83729636D01*
X142423698Y-83610564D01*
X142322436Y-83509302D01*
X142203364Y-83429741D01*
X142071058Y-83374938D01*
X141930603Y-83347000D01*
X141787397Y-83347000D01*
X141646942Y-83374938D01*
X141514636Y-83429741D01*
X141395564Y-83509302D01*
X141294302Y-83610564D01*
X141214741Y-83729636D01*
X141159938Y-83861942D01*
X141132000Y-84002397D01*
X128807000Y-84002397D01*
X128807000Y-80529076D01*
X135983000Y-80529076D01*
X135983000Y-80760924D01*
X136028231Y-80988318D01*
X136116956Y-81202519D01*
X136245764Y-81395294D01*
X136409706Y-81559236D01*
X136602481Y-81688044D01*
X136816682Y-81776769D01*
X137044076Y-81822000D01*
X137275924Y-81822000D01*
X137503318Y-81776769D01*
X137717519Y-81688044D01*
X137910294Y-81559236D01*
X138074236Y-81395294D01*
X138203044Y-81202519D01*
X138291769Y-80988318D01*
X138337000Y-80760924D01*
X138337000Y-80529076D01*
X138291769Y-80301682D01*
X138203044Y-80087481D01*
X138074236Y-79894706D01*
X137910294Y-79730764D01*
X137717519Y-79601956D01*
X137503318Y-79513231D01*
X137275924Y-79468000D01*
X137044076Y-79468000D01*
X136816682Y-79513231D01*
X136602481Y-79601956D01*
X136409706Y-79730764D01*
X136245764Y-79894706D01*
X136116956Y-80087481D01*
X136028231Y-80301682D01*
X135983000Y-80529076D01*
X128807000Y-80529076D01*
X128807000Y-77989076D01*
X135983000Y-77989076D01*
X135983000Y-78220924D01*
X136028231Y-78448318D01*
X136116956Y-78662519D01*
X136245764Y-78855294D01*
X136409706Y-79019236D01*
X136602481Y-79148044D01*
X136816682Y-79236769D01*
X137044076Y-79282000D01*
X137275924Y-79282000D01*
X137503318Y-79236769D01*
X137717519Y-79148044D01*
X137910294Y-79019236D01*
X138074236Y-78855294D01*
X138203044Y-78662519D01*
X138291769Y-78448318D01*
X138337000Y-78220924D01*
X138337000Y-77989076D01*
X138291769Y-77761682D01*
X138203044Y-77547481D01*
X138074236Y-77354706D01*
X137910294Y-77190764D01*
X137717519Y-77061956D01*
X137503318Y-76973231D01*
X137275924Y-76928000D01*
X137044076Y-76928000D01*
X136816682Y-76973231D01*
X136602481Y-77061956D01*
X136409706Y-77190764D01*
X136245764Y-77354706D01*
X136116956Y-77547481D01*
X136028231Y-77761682D01*
X135983000Y-77989076D01*
X128807000Y-77989076D01*
X128807000Y-71539541D01*
X128809597Y-71513173D01*
X128807000Y-71486805D01*
X128807000Y-71486796D01*
X128799230Y-71407904D01*
X128768524Y-71306679D01*
X128718659Y-71213389D01*
X128668368Y-71152109D01*
X128668364Y-71152105D01*
X128651553Y-71131621D01*
X128631069Y-71114810D01*
X127758335Y-70242076D01*
X142333000Y-70242076D01*
X142333000Y-70473924D01*
X142378231Y-70701318D01*
X142466956Y-70915519D01*
X142595764Y-71108294D01*
X142759706Y-71272236D01*
X142952481Y-71401044D01*
X143166682Y-71489769D01*
X143394076Y-71535000D01*
X143625924Y-71535000D01*
X143853318Y-71489769D01*
X144067519Y-71401044D01*
X144260294Y-71272236D01*
X144424236Y-71108294D01*
X144553044Y-70915519D01*
X144641769Y-70701318D01*
X144687000Y-70473924D01*
X144687000Y-70242076D01*
X144641769Y-70014682D01*
X144553044Y-69800481D01*
X144424236Y-69607706D01*
X144260294Y-69443764D01*
X144067519Y-69314956D01*
X143853318Y-69226231D01*
X143625924Y-69181000D01*
X143394076Y-69181000D01*
X143166682Y-69226231D01*
X142952481Y-69314956D01*
X142759706Y-69443764D01*
X142595764Y-69607706D01*
X142466956Y-69800481D01*
X142378231Y-70014682D01*
X142333000Y-70242076D01*
X127758335Y-70242076D01*
X125218335Y-67702076D01*
X142333000Y-67702076D01*
X142333000Y-67933924D01*
X142378231Y-68161318D01*
X142466956Y-68375519D01*
X142595764Y-68568294D01*
X142759706Y-68732236D01*
X142952481Y-68861044D01*
X143166682Y-68949769D01*
X143394076Y-68995000D01*
X143625924Y-68995000D01*
X143853318Y-68949769D01*
X144067519Y-68861044D01*
X144260294Y-68732236D01*
X144424236Y-68568294D01*
X144553044Y-68375519D01*
X144641769Y-68161318D01*
X144687000Y-67933924D01*
X144687000Y-67702076D01*
X144641769Y-67474682D01*
X144553044Y-67260481D01*
X144424236Y-67067706D01*
X144260294Y-66903764D01*
X144067519Y-66774956D01*
X143853318Y-66686231D01*
X143625924Y-66641000D01*
X143394076Y-66641000D01*
X143166682Y-66686231D01*
X142952481Y-66774956D01*
X142759706Y-66903764D01*
X142595764Y-67067706D01*
X142466956Y-67260481D01*
X142378231Y-67474682D01*
X142333000Y-67702076D01*
X125218335Y-67702076D01*
X121944259Y-64428000D01*
X142331418Y-64428000D01*
X142331418Y-66128000D01*
X142337732Y-66192103D01*
X142356430Y-66253743D01*
X142386794Y-66310550D01*
X142427657Y-66360343D01*
X142477450Y-66401206D01*
X142534257Y-66431570D01*
X142595897Y-66450268D01*
X142660000Y-66456582D01*
X144360000Y-66456582D01*
X144424103Y-66450268D01*
X144485743Y-66431570D01*
X144542550Y-66401206D01*
X144592343Y-66360343D01*
X144633206Y-66310550D01*
X144663570Y-66253743D01*
X144682268Y-66192103D01*
X144688582Y-66128000D01*
X144688582Y-64952397D01*
X150657000Y-64952397D01*
X150657000Y-65095603D01*
X150684938Y-65236058D01*
X150739741Y-65368364D01*
X150819302Y-65487436D01*
X150920564Y-65588698D01*
X151039636Y-65668259D01*
X151171942Y-65723062D01*
X151312397Y-65751000D01*
X151455603Y-65751000D01*
X151596058Y-65723062D01*
X151728364Y-65668259D01*
X151847436Y-65588698D01*
X151948698Y-65487436D01*
X152028259Y-65368364D01*
X152083062Y-65236058D01*
X152111000Y-65095603D01*
X152111000Y-64952397D01*
X152083062Y-64811942D01*
X152028259Y-64679636D01*
X151948698Y-64560564D01*
X151847436Y-64459302D01*
X151728364Y-64379741D01*
X151596058Y-64324938D01*
X151455603Y-64297000D01*
X151312397Y-64297000D01*
X151171942Y-64324938D01*
X151039636Y-64379741D01*
X150920564Y-64459302D01*
X150819302Y-64560564D01*
X150739741Y-64679636D01*
X150684938Y-64811942D01*
X150657000Y-64952397D01*
X144688582Y-64952397D01*
X144688582Y-64428000D01*
X144682268Y-64363897D01*
X144663570Y-64302257D01*
X144633206Y-64245450D01*
X144592343Y-64195657D01*
X144542550Y-64154794D01*
X144485743Y-64124430D01*
X144424103Y-64105732D01*
X144360000Y-64099418D01*
X142660000Y-64099418D01*
X142595897Y-64105732D01*
X142534257Y-64124430D01*
X142477450Y-64154794D01*
X142427657Y-64195657D01*
X142386794Y-64245450D01*
X142356430Y-64302257D01*
X142337732Y-64363897D01*
X142331418Y-64428000D01*
X121944259Y-64428000D01*
X120500156Y-62983897D01*
X125320500Y-62983897D01*
X125320500Y-63127103D01*
X125348438Y-63267558D01*
X125403241Y-63399864D01*
X125482802Y-63518936D01*
X125584064Y-63620198D01*
X125703136Y-63699759D01*
X125835442Y-63754562D01*
X125975897Y-63782500D01*
X126119103Y-63782500D01*
X126259558Y-63754562D01*
X126391864Y-63699759D01*
X126510936Y-63620198D01*
X126612198Y-63518936D01*
X126691759Y-63399864D01*
X126746562Y-63267558D01*
X126774500Y-63127103D01*
X126774500Y-63047397D01*
X155991000Y-63047397D01*
X155991000Y-63190603D01*
X156018938Y-63331058D01*
X156073741Y-63463364D01*
X156153302Y-63582436D01*
X156254564Y-63683698D01*
X156373636Y-63763259D01*
X156505942Y-63818062D01*
X156646397Y-63846000D01*
X156789603Y-63846000D01*
X156930058Y-63818062D01*
X157062364Y-63763259D01*
X157181436Y-63683698D01*
X157282698Y-63582436D01*
X157362259Y-63463364D01*
X157417062Y-63331058D01*
X157445000Y-63190603D01*
X157445000Y-63047397D01*
X157417062Y-62906942D01*
X157362259Y-62774636D01*
X157289937Y-62666397D01*
X167294000Y-62666397D01*
X167294000Y-62809603D01*
X167321938Y-62950058D01*
X167376741Y-63082364D01*
X167456302Y-63201436D01*
X167557564Y-63302698D01*
X167676636Y-63382259D01*
X167808942Y-63437062D01*
X167949397Y-63465000D01*
X168092603Y-63465000D01*
X168233058Y-63437062D01*
X168365364Y-63382259D01*
X168484436Y-63302698D01*
X168585698Y-63201436D01*
X168665259Y-63082364D01*
X168720062Y-62950058D01*
X168748000Y-62809603D01*
X168748000Y-62666397D01*
X168720062Y-62525942D01*
X168665259Y-62393636D01*
X168585698Y-62274564D01*
X168484436Y-62173302D01*
X168365364Y-62093741D01*
X168233058Y-62038938D01*
X168092603Y-62011000D01*
X167949397Y-62011000D01*
X167808942Y-62038938D01*
X167676636Y-62093741D01*
X167557564Y-62173302D01*
X167456302Y-62274564D01*
X167376741Y-62393636D01*
X167321938Y-62525942D01*
X167294000Y-62666397D01*
X157289937Y-62666397D01*
X157282698Y-62655564D01*
X157181436Y-62554302D01*
X157062364Y-62474741D01*
X156930058Y-62419938D01*
X156789603Y-62392000D01*
X156646397Y-62392000D01*
X156505942Y-62419938D01*
X156373636Y-62474741D01*
X156254564Y-62554302D01*
X156153302Y-62655564D01*
X156073741Y-62774636D01*
X156018938Y-62906942D01*
X155991000Y-63047397D01*
X126774500Y-63047397D01*
X126774500Y-62983897D01*
X126746562Y-62843442D01*
X126691759Y-62711136D01*
X126612198Y-62592064D01*
X126510936Y-62490802D01*
X126391864Y-62411241D01*
X126259558Y-62356438D01*
X126119103Y-62328500D01*
X125975897Y-62328500D01*
X125835442Y-62356438D01*
X125703136Y-62411241D01*
X125584064Y-62490802D01*
X125482802Y-62592064D01*
X125403241Y-62711136D01*
X125348438Y-62843442D01*
X125320500Y-62983897D01*
X120500156Y-62983897D01*
X118822001Y-61305743D01*
X118822001Y-59764368D01*
X118824598Y-59738000D01*
X118822001Y-59711632D01*
X118822001Y-59711623D01*
X118814231Y-59632731D01*
X118783525Y-59531506D01*
X118733660Y-59438216D01*
X118723938Y-59426370D01*
X118683369Y-59376936D01*
X118683365Y-59376932D01*
X118666554Y-59356448D01*
X118646070Y-59339637D01*
X118202000Y-58895568D01*
X118202000Y-58856397D01*
X118174062Y-58715942D01*
X118119259Y-58583636D01*
X118039698Y-58464564D01*
X117938436Y-58363302D01*
X117819364Y-58283741D01*
X117687058Y-58228938D01*
X117546603Y-58201000D01*
X117403397Y-58201000D01*
X117262942Y-58228938D01*
X117130636Y-58283741D01*
X117011564Y-58363302D01*
X116910302Y-58464564D01*
X116830741Y-58583636D01*
X116775938Y-58715942D01*
X116748000Y-58856397D01*
X111843737Y-58856397D01*
X111943698Y-58756436D01*
X112023259Y-58637364D01*
X112078062Y-58505058D01*
X112106000Y-58364603D01*
X112106000Y-58221397D01*
X112078062Y-58080942D01*
X112023259Y-57948636D01*
X111943698Y-57829564D01*
X111842436Y-57728302D01*
X111723364Y-57648741D01*
X111591058Y-57593938D01*
X111450603Y-57566000D01*
X111307397Y-57566000D01*
X111166942Y-57593938D01*
X111034636Y-57648741D01*
X110915564Y-57728302D01*
X110814302Y-57829564D01*
X110734741Y-57948636D01*
X110679938Y-58080942D01*
X110652000Y-58221397D01*
X108614000Y-58221397D01*
X108614000Y-56443397D01*
X123352000Y-56443397D01*
X123352000Y-56586603D01*
X123379938Y-56727058D01*
X123434741Y-56859364D01*
X123514302Y-56978436D01*
X123615564Y-57079698D01*
X123734636Y-57159259D01*
X123866942Y-57214062D01*
X124007397Y-57242000D01*
X124150603Y-57242000D01*
X124291058Y-57214062D01*
X124423364Y-57159259D01*
X124542436Y-57079698D01*
X124643698Y-56978436D01*
X124723259Y-56859364D01*
X124778062Y-56727058D01*
X124782954Y-56702462D01*
X133471000Y-56702462D01*
X133471000Y-57343537D01*
X133484413Y-57479723D01*
X133537420Y-57654463D01*
X133623499Y-57815504D01*
X133739341Y-57956659D01*
X133880495Y-58072501D01*
X134041536Y-58158580D01*
X134216276Y-58211587D01*
X134398000Y-58229485D01*
X134579723Y-58211587D01*
X134754463Y-58158580D01*
X134915504Y-58072501D01*
X135056659Y-57956659D01*
X135172501Y-57815505D01*
X135258580Y-57654464D01*
X135311587Y-57479724D01*
X135325000Y-57343538D01*
X135325000Y-56702462D01*
X135311587Y-56566276D01*
X135260541Y-56397999D01*
X135469418Y-56397999D01*
X135469418Y-57648001D01*
X135480535Y-57760877D01*
X135513460Y-57869414D01*
X135566926Y-57969443D01*
X135638880Y-58057120D01*
X135726557Y-58129074D01*
X135826586Y-58182540D01*
X135935123Y-58215465D01*
X136047999Y-58226582D01*
X136748001Y-58226582D01*
X136860877Y-58215465D01*
X136969414Y-58182540D01*
X137069443Y-58129074D01*
X137157120Y-58057120D01*
X137229074Y-57969443D01*
X137282540Y-57869414D01*
X137315465Y-57760877D01*
X137326582Y-57648001D01*
X137326582Y-56702462D01*
X143123000Y-56702462D01*
X143123000Y-57343537D01*
X143136413Y-57479723D01*
X143189420Y-57654463D01*
X143275499Y-57815504D01*
X143391341Y-57956659D01*
X143532495Y-58072501D01*
X143693536Y-58158580D01*
X143868276Y-58211587D01*
X144050000Y-58229485D01*
X144231723Y-58211587D01*
X144406463Y-58158580D01*
X144567504Y-58072501D01*
X144708659Y-57956659D01*
X144824501Y-57815505D01*
X144910580Y-57654464D01*
X144963587Y-57479724D01*
X144977000Y-57343538D01*
X144977000Y-56702462D01*
X144963587Y-56566276D01*
X144912541Y-56397999D01*
X145121418Y-56397999D01*
X145121418Y-57648001D01*
X145132535Y-57760877D01*
X145165460Y-57869414D01*
X145218926Y-57969443D01*
X145290880Y-58057120D01*
X145378557Y-58129074D01*
X145478586Y-58182540D01*
X145587123Y-58215465D01*
X145699999Y-58226582D01*
X146400001Y-58226582D01*
X146512877Y-58215465D01*
X146621414Y-58182540D01*
X146721443Y-58129074D01*
X146809120Y-58057120D01*
X146881074Y-57969443D01*
X146934540Y-57869414D01*
X146967465Y-57760877D01*
X146978582Y-57648001D01*
X146978582Y-56702462D01*
X152521000Y-56702462D01*
X152521000Y-57343537D01*
X152534413Y-57479723D01*
X152587420Y-57654463D01*
X152673499Y-57815504D01*
X152789341Y-57956659D01*
X152930495Y-58072501D01*
X153091536Y-58158580D01*
X153266276Y-58211587D01*
X153448000Y-58229485D01*
X153629723Y-58211587D01*
X153804463Y-58158580D01*
X153965504Y-58072501D01*
X154106659Y-57956659D01*
X154222501Y-57815505D01*
X154308580Y-57654464D01*
X154361587Y-57479724D01*
X154375000Y-57343538D01*
X154375000Y-56702462D01*
X154361587Y-56566276D01*
X154310541Y-56397999D01*
X154519418Y-56397999D01*
X154519418Y-57648001D01*
X154530535Y-57760877D01*
X154563460Y-57869414D01*
X154616926Y-57969443D01*
X154688880Y-58057120D01*
X154776557Y-58129074D01*
X154876586Y-58182540D01*
X154985123Y-58215465D01*
X155097999Y-58226582D01*
X155798001Y-58226582D01*
X155910877Y-58215465D01*
X156019414Y-58182540D01*
X156119443Y-58129074D01*
X156207120Y-58057120D01*
X156279074Y-57969443D01*
X156332540Y-57869414D01*
X156365465Y-57760877D01*
X156376582Y-57648001D01*
X156376582Y-56702462D01*
X161411000Y-56702462D01*
X161411000Y-57343537D01*
X161424413Y-57479723D01*
X161477420Y-57654463D01*
X161563499Y-57815504D01*
X161679341Y-57956659D01*
X161820495Y-58072501D01*
X161981536Y-58158580D01*
X162156276Y-58211587D01*
X162338000Y-58229485D01*
X162519723Y-58211587D01*
X162694463Y-58158580D01*
X162855504Y-58072501D01*
X162996659Y-57956659D01*
X163112501Y-57815505D01*
X163198580Y-57654464D01*
X163251587Y-57479724D01*
X163265000Y-57343538D01*
X163265000Y-56702462D01*
X163251587Y-56566276D01*
X163198580Y-56391536D01*
X163112501Y-56230495D01*
X162996659Y-56089341D01*
X162855505Y-55973499D01*
X162694464Y-55887420D01*
X162519724Y-55834413D01*
X162338000Y-55816515D01*
X162156277Y-55834413D01*
X161981537Y-55887420D01*
X161820496Y-55973499D01*
X161679342Y-56089341D01*
X161563500Y-56230495D01*
X161477420Y-56391536D01*
X161424413Y-56566276D01*
X161411000Y-56702462D01*
X156376582Y-56702462D01*
X156376582Y-56397999D01*
X156365465Y-56285123D01*
X156332540Y-56176586D01*
X156279074Y-56076557D01*
X156207120Y-55988880D01*
X156119443Y-55916926D01*
X156019414Y-55863460D01*
X155910877Y-55830535D01*
X155798001Y-55819418D01*
X155097999Y-55819418D01*
X154985123Y-55830535D01*
X154876586Y-55863460D01*
X154776557Y-55916926D01*
X154688880Y-55988880D01*
X154616926Y-56076557D01*
X154563460Y-56176586D01*
X154530535Y-56285123D01*
X154519418Y-56397999D01*
X154310541Y-56397999D01*
X154308580Y-56391536D01*
X154222501Y-56230495D01*
X154106659Y-56089341D01*
X153965505Y-55973499D01*
X153804464Y-55887420D01*
X153629724Y-55834413D01*
X153448000Y-55816515D01*
X153266277Y-55834413D01*
X153091537Y-55887420D01*
X152930496Y-55973499D01*
X152789342Y-56089341D01*
X152673500Y-56230495D01*
X152587420Y-56391536D01*
X152534413Y-56566276D01*
X152521000Y-56702462D01*
X146978582Y-56702462D01*
X146978582Y-56397999D01*
X146967465Y-56285123D01*
X146934540Y-56176586D01*
X146881074Y-56076557D01*
X146809120Y-55988880D01*
X146721443Y-55916926D01*
X146621414Y-55863460D01*
X146512877Y-55830535D01*
X146400001Y-55819418D01*
X145699999Y-55819418D01*
X145587123Y-55830535D01*
X145478586Y-55863460D01*
X145378557Y-55916926D01*
X145290880Y-55988880D01*
X145218926Y-56076557D01*
X145165460Y-56176586D01*
X145132535Y-56285123D01*
X145121418Y-56397999D01*
X144912541Y-56397999D01*
X144910580Y-56391536D01*
X144824501Y-56230495D01*
X144708659Y-56089341D01*
X144567505Y-55973499D01*
X144406464Y-55887420D01*
X144231724Y-55834413D01*
X144050000Y-55816515D01*
X143868277Y-55834413D01*
X143693537Y-55887420D01*
X143532496Y-55973499D01*
X143391342Y-56089341D01*
X143275500Y-56230495D01*
X143189420Y-56391536D01*
X143136413Y-56566276D01*
X143123000Y-56702462D01*
X137326582Y-56702462D01*
X137326582Y-56397999D01*
X137315465Y-56285123D01*
X137282540Y-56176586D01*
X137229074Y-56076557D01*
X137157120Y-55988880D01*
X137069443Y-55916926D01*
X136969414Y-55863460D01*
X136860877Y-55830535D01*
X136748001Y-55819418D01*
X136047999Y-55819418D01*
X135935123Y-55830535D01*
X135826586Y-55863460D01*
X135726557Y-55916926D01*
X135638880Y-55988880D01*
X135566926Y-56076557D01*
X135513460Y-56176586D01*
X135480535Y-56285123D01*
X135469418Y-56397999D01*
X135260541Y-56397999D01*
X135258580Y-56391536D01*
X135172501Y-56230495D01*
X135056659Y-56089341D01*
X134915505Y-55973499D01*
X134754464Y-55887420D01*
X134579724Y-55834413D01*
X134398000Y-55816515D01*
X134216277Y-55834413D01*
X134041537Y-55887420D01*
X133880496Y-55973499D01*
X133739342Y-56089341D01*
X133623500Y-56230495D01*
X133537420Y-56391536D01*
X133484413Y-56566276D01*
X133471000Y-56702462D01*
X124782954Y-56702462D01*
X124806000Y-56586603D01*
X124806000Y-56443397D01*
X124778062Y-56302942D01*
X124723259Y-56170636D01*
X124643698Y-56051564D01*
X124542436Y-55950302D01*
X124423364Y-55870741D01*
X124291058Y-55815938D01*
X124150603Y-55788000D01*
X124007397Y-55788000D01*
X123866942Y-55815938D01*
X123734636Y-55870741D01*
X123615564Y-55950302D01*
X123514302Y-56051564D01*
X123434741Y-56170636D01*
X123379938Y-56302942D01*
X123352000Y-56443397D01*
X108614000Y-56443397D01*
X108614000Y-54494076D01*
X115282000Y-54494076D01*
X115282000Y-54725924D01*
X115327231Y-54953318D01*
X115415956Y-55167519D01*
X115544764Y-55360294D01*
X115708706Y-55524236D01*
X115901481Y-55653044D01*
X116115682Y-55741769D01*
X116343076Y-55787000D01*
X116574924Y-55787000D01*
X116802318Y-55741769D01*
X117016519Y-55653044D01*
X117209294Y-55524236D01*
X117373236Y-55360294D01*
X117502044Y-55167519D01*
X117590769Y-54953318D01*
X117636000Y-54725924D01*
X117636000Y-54494076D01*
X117822000Y-54494076D01*
X117822000Y-54725924D01*
X117867231Y-54953318D01*
X117955956Y-55167519D01*
X118084764Y-55360294D01*
X118248706Y-55524236D01*
X118441481Y-55653044D01*
X118655682Y-55741769D01*
X118883076Y-55787000D01*
X119114924Y-55787000D01*
X119342318Y-55741769D01*
X119556519Y-55653044D01*
X119749294Y-55524236D01*
X119913236Y-55360294D01*
X120042044Y-55167519D01*
X120130769Y-54953318D01*
X120176000Y-54725924D01*
X120176000Y-54494076D01*
X122902000Y-54494076D01*
X122902000Y-54725924D01*
X122947231Y-54953318D01*
X123035956Y-55167519D01*
X123164764Y-55360294D01*
X123328706Y-55524236D01*
X123521481Y-55653044D01*
X123735682Y-55741769D01*
X123963076Y-55787000D01*
X124194924Y-55787000D01*
X124422318Y-55741769D01*
X124636519Y-55653044D01*
X124829294Y-55524236D01*
X124993236Y-55360294D01*
X125122044Y-55167519D01*
X125210769Y-54953318D01*
X125256000Y-54725924D01*
X125256000Y-54494076D01*
X125210769Y-54266682D01*
X125122044Y-54052481D01*
X124993236Y-53859706D01*
X124893530Y-53760000D01*
X125440418Y-53760000D01*
X125440418Y-55460000D01*
X125446732Y-55524103D01*
X125465430Y-55585743D01*
X125495794Y-55642550D01*
X125536657Y-55692343D01*
X125586450Y-55733206D01*
X125643257Y-55763570D01*
X125704897Y-55782268D01*
X125769000Y-55788582D01*
X127469000Y-55788582D01*
X127533103Y-55782268D01*
X127594743Y-55763570D01*
X127651550Y-55733206D01*
X127701343Y-55692343D01*
X127742206Y-55642550D01*
X127772570Y-55585743D01*
X127791268Y-55524103D01*
X127797582Y-55460000D01*
X127797582Y-54233073D01*
X167623000Y-54233073D01*
X167623000Y-54986927D01*
X167770070Y-55726295D01*
X168058557Y-56422764D01*
X168477375Y-57049570D01*
X169010430Y-57582625D01*
X169637236Y-58001443D01*
X170333705Y-58289930D01*
X171073073Y-58437000D01*
X171826927Y-58437000D01*
X172566295Y-58289930D01*
X173262764Y-58001443D01*
X173889570Y-57582625D01*
X174422625Y-57049570D01*
X174841443Y-56422764D01*
X175129930Y-55726295D01*
X175277000Y-54986927D01*
X175277000Y-54233073D01*
X175129930Y-53493705D01*
X174841443Y-52797236D01*
X174422625Y-52170430D01*
X173889570Y-51637375D01*
X173262764Y-51218557D01*
X172566295Y-50930070D01*
X171826927Y-50783000D01*
X171073073Y-50783000D01*
X170333705Y-50930070D01*
X169637236Y-51218557D01*
X169010430Y-51637375D01*
X168477375Y-52170430D01*
X168058557Y-52797236D01*
X167770070Y-53493705D01*
X167623000Y-54233073D01*
X127797582Y-54233073D01*
X127797582Y-53760000D01*
X127791268Y-53695897D01*
X127772570Y-53634257D01*
X127742206Y-53577450D01*
X127701343Y-53527657D01*
X127651550Y-53486794D01*
X127594743Y-53456430D01*
X127533103Y-53437732D01*
X127469000Y-53431418D01*
X125769000Y-53431418D01*
X125704897Y-53437732D01*
X125643257Y-53456430D01*
X125586450Y-53486794D01*
X125536657Y-53527657D01*
X125495794Y-53577450D01*
X125465430Y-53634257D01*
X125446732Y-53695897D01*
X125440418Y-53760000D01*
X124893530Y-53760000D01*
X124829294Y-53695764D01*
X124636519Y-53566956D01*
X124422318Y-53478231D01*
X124194924Y-53433000D01*
X123963076Y-53433000D01*
X123735682Y-53478231D01*
X123521481Y-53566956D01*
X123328706Y-53695764D01*
X123164764Y-53859706D01*
X123035956Y-54052481D01*
X122947231Y-54266682D01*
X122902000Y-54494076D01*
X120176000Y-54494076D01*
X120130769Y-54266682D01*
X120042044Y-54052481D01*
X119913236Y-53859706D01*
X119749294Y-53695764D01*
X119556519Y-53566956D01*
X119342318Y-53478231D01*
X119114924Y-53433000D01*
X118883076Y-53433000D01*
X118655682Y-53478231D01*
X118441481Y-53566956D01*
X118248706Y-53695764D01*
X118084764Y-53859706D01*
X117955956Y-54052481D01*
X117867231Y-54266682D01*
X117822000Y-54494076D01*
X117636000Y-54494076D01*
X117590769Y-54266682D01*
X117502044Y-54052481D01*
X117373236Y-53859706D01*
X117209294Y-53695764D01*
X117016519Y-53566956D01*
X116802318Y-53478231D01*
X116574924Y-53433000D01*
X116343076Y-53433000D01*
X116115682Y-53478231D01*
X115901481Y-53566956D01*
X115708706Y-53695764D01*
X115544764Y-53859706D01*
X115415956Y-54052481D01*
X115327231Y-54266682D01*
X115282000Y-54494076D01*
X108614000Y-54494076D01*
X108614000Y-52874367D01*
X108616597Y-52847999D01*
X108614000Y-52821631D01*
X108614000Y-52821622D01*
X108606230Y-52742730D01*
X108575524Y-52641505D01*
X108552312Y-52598079D01*
X108525659Y-52548214D01*
X108475368Y-52486935D01*
X108475364Y-52486931D01*
X108458553Y-52466447D01*
X108438069Y-52449636D01*
X107562347Y-51573914D01*
X107575000Y-51510301D01*
X107575000Y-51327699D01*
X107539376Y-51148604D01*
X107469496Y-50979901D01*
X107368048Y-50828072D01*
X107238928Y-50698952D01*
X107087099Y-50597504D01*
X106918396Y-50527624D01*
X106739301Y-50492000D01*
X106556699Y-50492000D01*
X106377604Y-50527624D01*
X106208901Y-50597504D01*
X106057072Y-50698952D01*
X105927952Y-50828072D01*
X105826504Y-50979901D01*
X105756624Y-51148604D01*
X105721000Y-51327699D01*
X105721000Y-51510301D01*
X105756624Y-51689396D01*
X105812342Y-51823910D01*
X105562347Y-51573914D01*
X105575000Y-51510301D01*
X105575000Y-51327699D01*
X105539376Y-51148604D01*
X105469496Y-50979901D01*
X105368048Y-50828072D01*
X105238928Y-50698952D01*
X105087099Y-50597504D01*
X104918396Y-50527624D01*
X104739301Y-50492000D01*
X104556699Y-50492000D01*
X104377604Y-50527624D01*
X104208901Y-50597504D01*
X104057072Y-50698952D01*
X103927952Y-50828072D01*
X103826504Y-50979901D01*
X103756624Y-51148604D01*
X103721000Y-51327699D01*
X103575000Y-51327699D01*
X103539376Y-51148604D01*
X103469496Y-50979901D01*
X103368048Y-50828072D01*
X103238928Y-50698952D01*
X103087099Y-50597504D01*
X102918396Y-50527624D01*
X102739301Y-50492000D01*
X102556699Y-50492000D01*
X102377604Y-50527624D01*
X102208901Y-50597504D01*
X102057072Y-50698952D01*
X101927952Y-50828072D01*
X101826504Y-50979901D01*
X101756624Y-51148604D01*
X101721000Y-51327699D01*
X100257066Y-51327699D01*
X100412591Y-51094938D01*
X100520162Y-50835241D01*
X100575000Y-50559547D01*
X100575000Y-50278453D01*
X100520162Y-50002759D01*
X100412591Y-49743062D01*
X100256424Y-49509340D01*
X100074783Y-49327699D01*
X103721000Y-49327699D01*
X103721000Y-49510301D01*
X103756624Y-49689396D01*
X103826504Y-49858099D01*
X103927952Y-50009928D01*
X104057072Y-50139048D01*
X104208901Y-50240496D01*
X104377604Y-50310376D01*
X104556699Y-50346000D01*
X104739301Y-50346000D01*
X104918396Y-50310376D01*
X105087099Y-50240496D01*
X105238928Y-50139048D01*
X105368048Y-50009928D01*
X105469496Y-49858099D01*
X105539376Y-49689396D01*
X105575000Y-49510301D01*
X105575000Y-49327699D01*
X105539376Y-49148604D01*
X105469496Y-48979901D01*
X105368048Y-48828072D01*
X105358976Y-48819000D01*
X105719418Y-48819000D01*
X105719418Y-50019000D01*
X105725732Y-50083103D01*
X105744430Y-50144743D01*
X105774794Y-50201550D01*
X105815657Y-50251343D01*
X105865450Y-50292206D01*
X105922257Y-50322570D01*
X105983897Y-50341268D01*
X106048000Y-50347582D01*
X107248000Y-50347582D01*
X107312103Y-50341268D01*
X107373743Y-50322570D01*
X107430550Y-50292206D01*
X107447308Y-50278453D01*
X108721000Y-50278453D01*
X108721000Y-50559547D01*
X108775838Y-50835241D01*
X108883409Y-51094938D01*
X109039576Y-51328660D01*
X109238340Y-51527424D01*
X109472062Y-51683591D01*
X109731759Y-51791162D01*
X110007453Y-51846000D01*
X110288547Y-51846000D01*
X110564241Y-51791162D01*
X110823938Y-51683591D01*
X111057660Y-51527424D01*
X111256424Y-51328660D01*
X111412591Y-51094938D01*
X111520162Y-50835241D01*
X111575000Y-50559547D01*
X111575000Y-50278453D01*
X111520162Y-50002759D01*
X111412591Y-49743062D01*
X111256424Y-49509340D01*
X111057660Y-49310576D01*
X110823938Y-49154409D01*
X110564241Y-49046838D01*
X110288547Y-48992000D01*
X110007453Y-48992000D01*
X109731759Y-49046838D01*
X109472062Y-49154409D01*
X109238340Y-49310576D01*
X109039576Y-49509340D01*
X108883409Y-49743062D01*
X108775838Y-50002759D01*
X108721000Y-50278453D01*
X107447308Y-50278453D01*
X107480343Y-50251343D01*
X107521206Y-50201550D01*
X107551570Y-50144743D01*
X107570268Y-50083103D01*
X107576582Y-50019000D01*
X107576582Y-48819000D01*
X107570268Y-48754897D01*
X107551570Y-48693257D01*
X107521206Y-48636450D01*
X107480343Y-48586657D01*
X107430550Y-48545794D01*
X107373743Y-48515430D01*
X107312103Y-48496732D01*
X107248000Y-48490418D01*
X106048000Y-48490418D01*
X105983897Y-48496732D01*
X105922257Y-48515430D01*
X105865450Y-48545794D01*
X105815657Y-48586657D01*
X105774794Y-48636450D01*
X105744430Y-48693257D01*
X105725732Y-48754897D01*
X105719418Y-48819000D01*
X105358976Y-48819000D01*
X105238928Y-48698952D01*
X105087099Y-48597504D01*
X104918396Y-48527624D01*
X104739301Y-48492000D01*
X104556699Y-48492000D01*
X104377604Y-48527624D01*
X104208901Y-48597504D01*
X104057072Y-48698952D01*
X103927952Y-48828072D01*
X103826504Y-48979901D01*
X103756624Y-49148604D01*
X103721000Y-49327699D01*
X100074783Y-49327699D01*
X100057660Y-49310576D01*
X99823938Y-49154409D01*
X99564241Y-49046838D01*
X99288547Y-48992000D01*
X99007453Y-48992000D01*
X98731759Y-49046838D01*
X98472062Y-49154409D01*
X98238340Y-49310576D01*
X98039576Y-49509340D01*
X97883409Y-49743062D01*
X97775838Y-50002759D01*
X97721000Y-50278453D01*
X85777201Y-50278453D01*
X85805417Y-50245417D01*
X86541925Y-49616380D01*
X87367764Y-49110306D01*
X88262612Y-48739647D01*
X89204420Y-48513540D01*
X90176950Y-48437000D01*
X171443051Y-48437000D01*
X172415585Y-48513540D01*
%TA.AperFunction,Conductor*%
D22*
G36*
X172415585Y-48513540D02*
G01*
X173357388Y-48739647D01*
X174252239Y-49110307D01*
X175078075Y-49616379D01*
X175814583Y-50245417D01*
X176443620Y-50981925D01*
X176949694Y-51807764D01*
X177320353Y-52702612D01*
X177546460Y-53644420D01*
X177623000Y-54616950D01*
X177623001Y-140963037D01*
X177546460Y-141935580D01*
X177320353Y-142877388D01*
X176949694Y-143772236D01*
X176443620Y-144598075D01*
X175814583Y-145334583D01*
X175078075Y-145963621D01*
X174252239Y-146469693D01*
X173357388Y-146840353D01*
X172598104Y-147022641D01*
X89021900Y-147022641D01*
X88262612Y-146840353D01*
X87367764Y-146469694D01*
X86541925Y-145963620D01*
X85805417Y-145334583D01*
X85176379Y-144598075D01*
X84670307Y-143772239D01*
X84299647Y-142877388D01*
X84073540Y-141935585D01*
X84010500Y-141134585D01*
X84010500Y-140593073D01*
X86343000Y-140593073D01*
X86343000Y-141346927D01*
X86490070Y-142086295D01*
X86778557Y-142782764D01*
X87197375Y-143409570D01*
X87730430Y-143942625D01*
X88357236Y-144361443D01*
X89053705Y-144649930D01*
X89793073Y-144797000D01*
X90546927Y-144797000D01*
X91286295Y-144649930D01*
X91982764Y-144361443D01*
X92609570Y-143942625D01*
X93142625Y-143409570D01*
X93561443Y-142782764D01*
X93849930Y-142086295D01*
X93997000Y-141346927D01*
X93997000Y-140593073D01*
X167623000Y-140593073D01*
X167623000Y-141346927D01*
X167770070Y-142086295D01*
X168058557Y-142782764D01*
X168477375Y-143409570D01*
X169010430Y-143942625D01*
X169637236Y-144361443D01*
X170333705Y-144649930D01*
X171073073Y-144797000D01*
X171826927Y-144797000D01*
X172566295Y-144649930D01*
X173262764Y-144361443D01*
X173889570Y-143942625D01*
X174422625Y-143409570D01*
X174841443Y-142782764D01*
X175129930Y-142086295D01*
X175277000Y-141346927D01*
X175277000Y-140593073D01*
X175129930Y-139853705D01*
X174841443Y-139157236D01*
X174422625Y-138530430D01*
X173889570Y-137997375D01*
X173262764Y-137578557D01*
X172566295Y-137290070D01*
X171826927Y-137143000D01*
X171073073Y-137143000D01*
X170333705Y-137290070D01*
X169637236Y-137578557D01*
X169010430Y-137997375D01*
X168477375Y-138530430D01*
X168058557Y-139157236D01*
X167770070Y-139853705D01*
X167623000Y-140593073D01*
X93997000Y-140593073D01*
X93849930Y-139853705D01*
X93561443Y-139157236D01*
X93142625Y-138530430D01*
X92827195Y-138215000D01*
X112486418Y-138215000D01*
X112486418Y-139915000D01*
X112492732Y-139979103D01*
X112511430Y-140040743D01*
X112541794Y-140097550D01*
X112582657Y-140147343D01*
X112632450Y-140188206D01*
X112689257Y-140218570D01*
X112750897Y-140237268D01*
X112815000Y-140243582D01*
X114515000Y-140243582D01*
X114579103Y-140237268D01*
X114640743Y-140218570D01*
X114697550Y-140188206D01*
X114747343Y-140147343D01*
X114788206Y-140097550D01*
X114818570Y-140040743D01*
X114837268Y-139979103D01*
X114843582Y-139915000D01*
X114843582Y-138215000D01*
X114837268Y-138150897D01*
X114818570Y-138089257D01*
X114788206Y-138032450D01*
X114747343Y-137982657D01*
X114697550Y-137941794D01*
X114640743Y-137911430D01*
X114579103Y-137892732D01*
X114515000Y-137886418D01*
X112815000Y-137886418D01*
X112750897Y-137892732D01*
X112689257Y-137911430D01*
X112632450Y-137941794D01*
X112582657Y-137982657D01*
X112541794Y-138032450D01*
X112511430Y-138089257D01*
X112492732Y-138150897D01*
X112486418Y-138215000D01*
X92827195Y-138215000D01*
X92609570Y-137997375D01*
X91982764Y-137578557D01*
X91286295Y-137290070D01*
X90546927Y-137143000D01*
X89793073Y-137143000D01*
X89053705Y-137290070D01*
X88357236Y-137578557D01*
X87730430Y-137997375D01*
X87197375Y-138530430D01*
X86778557Y-139157236D01*
X86490070Y-139853705D01*
X86343000Y-140593073D01*
X84010500Y-140593073D01*
X84010500Y-134024000D01*
X87594418Y-134024000D01*
X87594418Y-135724000D01*
X87600732Y-135788103D01*
X87619430Y-135849743D01*
X87649794Y-135906550D01*
X87690657Y-135956343D01*
X87740450Y-135997206D01*
X87797257Y-136027570D01*
X87858897Y-136046268D01*
X87923000Y-136052582D01*
X89623000Y-136052582D01*
X89687103Y-136046268D01*
X89748743Y-136027570D01*
X89805550Y-135997206D01*
X89855343Y-135956343D01*
X89896206Y-135906550D01*
X89926570Y-135849743D01*
X89945268Y-135788103D01*
X89951582Y-135724000D01*
X89951582Y-134758076D01*
X90136000Y-134758076D01*
X90136000Y-134989924D01*
X90181231Y-135217318D01*
X90269956Y-135431519D01*
X90398764Y-135624294D01*
X90562706Y-135788236D01*
X90755481Y-135917044D01*
X90969682Y-136005769D01*
X91197076Y-136051000D01*
X91428924Y-136051000D01*
X91656318Y-136005769D01*
X91870519Y-135917044D01*
X92063294Y-135788236D01*
X92227236Y-135624294D01*
X92356044Y-135431519D01*
X92444769Y-135217318D01*
X92490000Y-134989924D01*
X92490000Y-134758076D01*
X92444769Y-134530682D01*
X92356044Y-134316481D01*
X92227236Y-134123706D01*
X92063294Y-133959764D01*
X91870519Y-133830956D01*
X91656318Y-133742231D01*
X91428924Y-133697000D01*
X91197076Y-133697000D01*
X90969682Y-133742231D01*
X90755481Y-133830956D01*
X90562706Y-133959764D01*
X90398764Y-134123706D01*
X90269956Y-134316481D01*
X90181231Y-134530682D01*
X90136000Y-134758076D01*
X89951582Y-134758076D01*
X89951582Y-134024000D01*
X89945268Y-133959897D01*
X89926570Y-133898257D01*
X89896206Y-133841450D01*
X89855343Y-133791657D01*
X89805550Y-133750794D01*
X89748743Y-133720430D01*
X89687103Y-133701732D01*
X89623000Y-133695418D01*
X87923000Y-133695418D01*
X87858897Y-133701732D01*
X87797257Y-133720430D01*
X87740450Y-133750794D01*
X87690657Y-133791657D01*
X87649794Y-133841450D01*
X87619430Y-133898257D01*
X87600732Y-133959897D01*
X87594418Y-134024000D01*
X84010500Y-134024000D01*
X84010500Y-131500397D01*
X98587000Y-131500397D01*
X98587000Y-131643603D01*
X98614938Y-131784058D01*
X98669741Y-131916364D01*
X98749302Y-132035436D01*
X98850564Y-132136698D01*
X98969636Y-132216259D01*
X99101942Y-132271062D01*
X99242397Y-132299000D01*
X99385603Y-132299000D01*
X99526058Y-132271062D01*
X99658364Y-132216259D01*
X99777436Y-132136698D01*
X99878698Y-132035436D01*
X99958259Y-131916364D01*
X100013062Y-131784058D01*
X100041000Y-131643603D01*
X100041000Y-131500397D01*
X100032185Y-131456076D01*
X100677000Y-131456076D01*
X100677000Y-131687924D01*
X100722231Y-131915318D01*
X100810956Y-132129519D01*
X100939764Y-132322294D01*
X101103706Y-132486236D01*
X101296481Y-132615044D01*
X101510682Y-132703769D01*
X101738076Y-132749000D01*
X101969924Y-132749000D01*
X102197318Y-132703769D01*
X102411519Y-132615044D01*
X102604294Y-132486236D01*
X102768236Y-132322294D01*
X102897044Y-132129519D01*
X102985769Y-131915318D01*
X103031000Y-131687924D01*
X103031000Y-131456076D01*
X102985769Y-131228682D01*
X102897044Y-131014481D01*
X102768236Y-130821706D01*
X102668530Y-130722000D01*
X103215418Y-130722000D01*
X103215418Y-132422000D01*
X103221732Y-132486103D01*
X103240430Y-132547743D01*
X103270794Y-132604550D01*
X103311657Y-132654343D01*
X103361450Y-132695206D01*
X103418257Y-132725570D01*
X103479897Y-132744268D01*
X103544000Y-132750582D01*
X105244000Y-132750582D01*
X105308103Y-132744268D01*
X105369743Y-132725570D01*
X105426550Y-132695206D01*
X105476343Y-132654343D01*
X105517206Y-132604550D01*
X105547570Y-132547743D01*
X105557078Y-132516397D01*
X109255000Y-132516397D01*
X109255000Y-132659603D01*
X109282938Y-132800058D01*
X109337741Y-132932364D01*
X109417302Y-133051436D01*
X109518564Y-133152698D01*
X109637636Y-133232259D01*
X109769942Y-133287062D01*
X109910397Y-133315000D01*
X110053603Y-133315000D01*
X110194058Y-133287062D01*
X110326364Y-133232259D01*
X110445436Y-133152698D01*
X110546698Y-133051436D01*
X110626259Y-132932364D01*
X110681062Y-132800058D01*
X110709000Y-132659603D01*
X110709000Y-132516397D01*
X110681062Y-132375942D01*
X110626259Y-132243636D01*
X110546698Y-132124564D01*
X110445436Y-132023302D01*
X110326364Y-131943741D01*
X110194058Y-131888938D01*
X110053603Y-131861000D01*
X109910397Y-131861000D01*
X109769942Y-131888938D01*
X109637636Y-131943741D01*
X109518564Y-132023302D01*
X109417302Y-132124564D01*
X109337741Y-132243636D01*
X109282938Y-132375942D01*
X109255000Y-132516397D01*
X105557078Y-132516397D01*
X105566268Y-132486103D01*
X105572582Y-132422000D01*
X105572582Y-130722000D01*
X105566268Y-130657897D01*
X105547570Y-130596257D01*
X105517206Y-130539450D01*
X105476343Y-130489657D01*
X105426550Y-130448794D01*
X105369743Y-130418430D01*
X105308103Y-130399732D01*
X105244000Y-130393418D01*
X103544000Y-130393418D01*
X103479897Y-130399732D01*
X103418257Y-130418430D01*
X103361450Y-130448794D01*
X103311657Y-130489657D01*
X103270794Y-130539450D01*
X103240430Y-130596257D01*
X103221732Y-130657897D01*
X103215418Y-130722000D01*
X102668530Y-130722000D01*
X102604294Y-130657764D01*
X102411519Y-130528956D01*
X102197318Y-130440231D01*
X101969924Y-130395000D01*
X101738076Y-130395000D01*
X101510682Y-130440231D01*
X101296481Y-130528956D01*
X101103706Y-130657764D01*
X100939764Y-130821706D01*
X100810956Y-131014481D01*
X100722231Y-131228682D01*
X100677000Y-131456076D01*
X100032185Y-131456076D01*
X100013062Y-131359942D01*
X99958259Y-131227636D01*
X99878698Y-131108564D01*
X99777436Y-131007302D01*
X99658364Y-130927741D01*
X99526058Y-130872938D01*
X99385603Y-130845000D01*
X99242397Y-130845000D01*
X99101942Y-130872938D01*
X98969636Y-130927741D01*
X98850564Y-131007302D01*
X98749302Y-131108564D01*
X98669741Y-131227636D01*
X98614938Y-131359942D01*
X98587000Y-131500397D01*
X84010500Y-131500397D01*
X84010500Y-130230397D01*
X147863000Y-130230397D01*
X147863000Y-130373603D01*
X147890938Y-130514058D01*
X147945741Y-130646364D01*
X148025302Y-130765436D01*
X148126564Y-130866698D01*
X148245636Y-130946259D01*
X148377942Y-131001062D01*
X148518397Y-131029000D01*
X148661603Y-131029000D01*
X148802058Y-131001062D01*
X148934364Y-130946259D01*
X149053436Y-130866698D01*
X149154698Y-130765436D01*
X149234259Y-130646364D01*
X149289062Y-130514058D01*
X149317000Y-130373603D01*
X149317000Y-130230397D01*
X149289062Y-130089942D01*
X149234259Y-129957636D01*
X149161937Y-129849397D01*
X163484000Y-129849397D01*
X163484000Y-129992603D01*
X163511938Y-130133058D01*
X163566741Y-130265364D01*
X163646302Y-130384436D01*
X163747564Y-130485698D01*
X163866636Y-130565259D01*
X163998942Y-130620062D01*
X164139397Y-130648000D01*
X164282603Y-130648000D01*
X164423058Y-130620062D01*
X164555364Y-130565259D01*
X164674436Y-130485698D01*
X164775698Y-130384436D01*
X164855259Y-130265364D01*
X164910062Y-130133058D01*
X164938000Y-129992603D01*
X164938000Y-129849397D01*
X164910062Y-129708942D01*
X164855259Y-129576636D01*
X164775698Y-129457564D01*
X164674436Y-129356302D01*
X164555364Y-129276741D01*
X164423058Y-129221938D01*
X164282603Y-129194000D01*
X164139397Y-129194000D01*
X163998942Y-129221938D01*
X163866636Y-129276741D01*
X163747564Y-129356302D01*
X163646302Y-129457564D01*
X163566741Y-129576636D01*
X163511938Y-129708942D01*
X163484000Y-129849397D01*
X149161937Y-129849397D01*
X149154698Y-129838564D01*
X149053436Y-129737302D01*
X148934364Y-129657741D01*
X148802058Y-129602938D01*
X148661603Y-129575000D01*
X148518397Y-129575000D01*
X148377942Y-129602938D01*
X148245636Y-129657741D01*
X148126564Y-129737302D01*
X148025302Y-129838564D01*
X147945741Y-129957636D01*
X147890938Y-130089942D01*
X147863000Y-130230397D01*
X84010500Y-130230397D01*
X84010500Y-128790397D01*
X168480000Y-128790397D01*
X168480000Y-128933603D01*
X168507938Y-129074058D01*
X168562741Y-129206364D01*
X168642302Y-129325436D01*
X168743564Y-129426698D01*
X168862636Y-129506259D01*
X168994942Y-129561062D01*
X169135397Y-129589000D01*
X169278603Y-129589000D01*
X169419058Y-129561062D01*
X169551364Y-129506259D01*
X169670436Y-129426698D01*
X169771698Y-129325436D01*
X169851259Y-129206364D01*
X169906062Y-129074058D01*
X169934000Y-128933603D01*
X169934000Y-128790397D01*
X169906062Y-128649942D01*
X169851259Y-128517636D01*
X169771698Y-128398564D01*
X169670436Y-128297302D01*
X169551364Y-128217741D01*
X169419058Y-128162938D01*
X169278603Y-128135000D01*
X169135397Y-128135000D01*
X168994942Y-128162938D01*
X168862636Y-128217741D01*
X168743564Y-128297302D01*
X168642302Y-128398564D01*
X168562741Y-128517636D01*
X168507938Y-128649942D01*
X168480000Y-128790397D01*
X84010500Y-128790397D01*
X84010500Y-127309397D01*
X143672000Y-127309397D01*
X143672000Y-127452603D01*
X143699938Y-127593058D01*
X143754741Y-127725364D01*
X143834302Y-127844436D01*
X143935564Y-127945698D01*
X144054636Y-128025259D01*
X144186942Y-128080062D01*
X144327397Y-128108000D01*
X144470603Y-128108000D01*
X144611058Y-128080062D01*
X144743364Y-128025259D01*
X144862436Y-127945698D01*
X144963698Y-127844436D01*
X145043259Y-127725364D01*
X145098062Y-127593058D01*
X145126000Y-127452603D01*
X145126000Y-127309397D01*
X145098062Y-127168942D01*
X145043259Y-127036636D01*
X144963698Y-126917564D01*
X144862436Y-126816302D01*
X144743364Y-126736741D01*
X144611058Y-126681938D01*
X144470603Y-126654000D01*
X144327397Y-126654000D01*
X144186942Y-126681938D01*
X144054636Y-126736741D01*
X143935564Y-126816302D01*
X143834302Y-126917564D01*
X143754741Y-127036636D01*
X143699938Y-127168942D01*
X143672000Y-127309397D01*
X84010500Y-127309397D01*
X84010500Y-125150397D01*
X162214000Y-125150397D01*
X162214000Y-125293603D01*
X162241938Y-125434058D01*
X162296741Y-125566364D01*
X162376302Y-125685436D01*
X162477564Y-125786698D01*
X162596636Y-125866259D01*
X162728942Y-125921062D01*
X162869397Y-125949000D01*
X163012603Y-125949000D01*
X163153058Y-125921062D01*
X163285364Y-125866259D01*
X163404436Y-125786698D01*
X163505698Y-125685436D01*
X163585259Y-125566364D01*
X163640062Y-125434058D01*
X163668000Y-125293603D01*
X163668000Y-125150397D01*
X163640062Y-125009942D01*
X163585259Y-124877636D01*
X163505698Y-124758564D01*
X163404436Y-124657302D01*
X163285364Y-124577741D01*
X163153058Y-124522938D01*
X163012603Y-124495000D01*
X162869397Y-124495000D01*
X162728942Y-124522938D01*
X162596636Y-124577741D01*
X162477564Y-124657302D01*
X162376302Y-124758564D01*
X162296741Y-124877636D01*
X162241938Y-125009942D01*
X162214000Y-125150397D01*
X84010500Y-125150397D01*
X84010500Y-118110000D01*
X94427370Y-118110000D01*
X94435000Y-118187470D01*
X94435001Y-121461524D01*
X94427370Y-121539000D01*
X94457819Y-121848146D01*
X94547993Y-122145411D01*
X94694429Y-122419373D01*
X94891498Y-122659503D01*
X94951674Y-122708888D01*
X96112112Y-123869326D01*
X96161497Y-123929503D01*
X96401627Y-124126572D01*
X96675588Y-124273007D01*
X96972854Y-124363182D01*
X97204531Y-124386000D01*
X97204532Y-124386000D01*
X97281999Y-124393630D01*
X97359466Y-124386000D01*
X106023531Y-124386000D01*
X106100998Y-124393630D01*
X106178465Y-124386000D01*
X106178467Y-124386000D01*
X106410144Y-124363182D01*
X106707410Y-124273007D01*
X106981371Y-124126572D01*
X107221501Y-123929503D01*
X107270891Y-123869321D01*
X111580213Y-119560000D01*
X114789786Y-119560000D01*
X115779671Y-120549886D01*
X115959626Y-120697571D01*
X116233588Y-120844007D01*
X116353602Y-120880413D01*
X116354497Y-120881503D01*
X116594627Y-121078572D01*
X116868588Y-121225007D01*
X117165854Y-121315182D01*
X117397531Y-121338000D01*
X118349565Y-121338000D01*
X118334732Y-121386897D01*
X118328418Y-121451000D01*
X118328418Y-123151000D01*
X118334732Y-123215103D01*
X118353430Y-123276743D01*
X118383794Y-123333550D01*
X118424657Y-123383343D01*
X118474450Y-123424206D01*
X118531257Y-123454570D01*
X118592897Y-123473268D01*
X118657000Y-123479582D01*
X120357000Y-123479582D01*
X120421103Y-123473268D01*
X120482743Y-123454570D01*
X120539550Y-123424206D01*
X120589343Y-123383343D01*
X120630206Y-123333550D01*
X120660570Y-123276743D01*
X120679268Y-123215103D01*
X120685582Y-123151000D01*
X120685582Y-121451000D01*
X120679268Y-121386897D01*
X120660570Y-121325257D01*
X120630206Y-121268450D01*
X120589343Y-121218657D01*
X120539550Y-121177794D01*
X120482743Y-121147430D01*
X120421103Y-121128732D01*
X120357000Y-121122418D01*
X120305343Y-121122418D01*
X120387373Y-121078572D01*
X120627503Y-120881503D01*
X120824572Y-120641373D01*
X120971007Y-120367412D01*
X121061182Y-120070146D01*
X121091630Y-119761000D01*
X121061182Y-119451854D01*
X120971007Y-119154588D01*
X120824572Y-118880627D01*
X120627503Y-118640497D01*
X120387373Y-118443428D01*
X120113412Y-118296993D01*
X119816146Y-118206818D01*
X119584469Y-118184000D01*
X117874215Y-118184000D01*
X117020000Y-117329786D01*
X117020000Y-114349531D01*
X116997182Y-114117854D01*
X116907007Y-113820588D01*
X116760572Y-113546627D01*
X116563503Y-113306497D01*
X116323372Y-113109428D01*
X116049411Y-112962993D01*
X115752145Y-112872818D01*
X115443000Y-112842370D01*
X115133854Y-112872818D01*
X114836588Y-112962993D01*
X114562627Y-113109428D01*
X114322497Y-113306497D01*
X114125428Y-113546628D01*
X113978993Y-113820589D01*
X113888818Y-114117855D01*
X113866000Y-114349532D01*
X113866001Y-116406000D01*
X111004467Y-116406000D01*
X110926998Y-116398370D01*
X110617851Y-116428818D01*
X110469219Y-116473905D01*
X110320586Y-116518993D01*
X110183605Y-116592211D01*
X110046624Y-116665428D01*
X109923180Y-116766736D01*
X109806495Y-116862497D01*
X109757110Y-116922673D01*
X105447784Y-121232000D01*
X97935215Y-121232000D01*
X97589000Y-120885786D01*
X97589000Y-118276000D01*
X98643418Y-118276000D01*
X98643418Y-119976000D01*
X98649732Y-120040103D01*
X98668430Y-120101743D01*
X98698794Y-120158550D01*
X98739657Y-120208343D01*
X98789450Y-120249206D01*
X98846257Y-120279570D01*
X98907897Y-120298268D01*
X98972000Y-120304582D01*
X100672000Y-120304582D01*
X100736103Y-120298268D01*
X100797743Y-120279570D01*
X100854550Y-120249206D01*
X100904343Y-120208343D01*
X100945206Y-120158550D01*
X100975570Y-120101743D01*
X100994268Y-120040103D01*
X101000582Y-119976000D01*
X101000582Y-118276000D01*
X100994268Y-118211897D01*
X100975570Y-118150257D01*
X100945206Y-118093450D01*
X100904343Y-118043657D01*
X100854550Y-118002794D01*
X100797743Y-117972430D01*
X100736103Y-117953732D01*
X100672000Y-117947418D01*
X98972000Y-117947418D01*
X98907897Y-117953732D01*
X98846257Y-117972430D01*
X98789450Y-118002794D01*
X98739657Y-118043657D01*
X98698794Y-118093450D01*
X98668430Y-118150257D01*
X98649732Y-118211897D01*
X98643418Y-118276000D01*
X97589000Y-118276000D01*
X97589000Y-118187469D01*
X97596630Y-118110000D01*
X97566182Y-117800854D01*
X97476007Y-117503588D01*
X97329572Y-117229627D01*
X97132503Y-116989497D01*
X96892373Y-116792428D01*
X96618412Y-116645993D01*
X96321146Y-116555818D01*
X96089469Y-116533000D01*
X96012000Y-116525370D01*
X95934531Y-116533000D01*
X95702854Y-116555818D01*
X95405588Y-116645993D01*
X95131627Y-116792428D01*
X94891497Y-116989497D01*
X94694428Y-117229627D01*
X94547993Y-117503588D01*
X94457818Y-117800854D01*
X94427370Y-118110000D01*
X84010500Y-118110000D01*
X84010500Y-110799397D01*
X99349000Y-110799397D01*
X99349000Y-110942603D01*
X99376938Y-111083058D01*
X99431741Y-111215364D01*
X99511302Y-111334436D01*
X99612564Y-111435698D01*
X99731636Y-111515259D01*
X99863942Y-111570062D01*
X100004397Y-111598000D01*
X100147603Y-111598000D01*
X100288058Y-111570062D01*
X100420364Y-111515259D01*
X100539436Y-111435698D01*
X100640698Y-111334436D01*
X100720259Y-111215364D01*
X100775062Y-111083058D01*
X100803000Y-110942603D01*
X100803000Y-110799397D01*
X100775062Y-110658942D01*
X100720259Y-110526636D01*
X100640698Y-110407564D01*
X100539436Y-110306302D01*
X100517129Y-110291397D01*
X122082000Y-110291397D01*
X122082000Y-110434603D01*
X122109938Y-110575058D01*
X122164741Y-110707364D01*
X122244302Y-110826436D01*
X122345564Y-110927698D01*
X122464636Y-111007259D01*
X122596942Y-111062062D01*
X122737397Y-111090000D01*
X122880603Y-111090000D01*
X123021058Y-111062062D01*
X123153364Y-111007259D01*
X123272436Y-110927698D01*
X123373698Y-110826436D01*
X123453259Y-110707364D01*
X123508062Y-110575058D01*
X123536000Y-110434603D01*
X123536000Y-110291397D01*
X123508062Y-110150942D01*
X123453259Y-110018636D01*
X123373698Y-109899564D01*
X123272436Y-109798302D01*
X123153364Y-109718741D01*
X123021058Y-109663938D01*
X122880603Y-109636000D01*
X122737397Y-109636000D01*
X122596942Y-109663938D01*
X122464636Y-109718741D01*
X122345564Y-109798302D01*
X122244302Y-109899564D01*
X122164741Y-110018636D01*
X122109938Y-110150942D01*
X122082000Y-110291397D01*
X100517129Y-110291397D01*
X100420364Y-110226741D01*
X100288058Y-110171938D01*
X100147603Y-110144000D01*
X100004397Y-110144000D01*
X99863942Y-110171938D01*
X99731636Y-110226741D01*
X99612564Y-110306302D01*
X99511302Y-110407564D01*
X99431741Y-110526636D01*
X99376938Y-110658942D01*
X99349000Y-110799397D01*
X84010500Y-110799397D01*
X84010500Y-106211000D01*
X94198418Y-106211000D01*
X94198418Y-107911000D01*
X94204732Y-107975103D01*
X94223430Y-108036743D01*
X94253794Y-108093550D01*
X94294657Y-108143343D01*
X94344450Y-108184206D01*
X94401257Y-108214570D01*
X94462897Y-108233268D01*
X94527000Y-108239582D01*
X96227000Y-108239582D01*
X96291103Y-108233268D01*
X96352743Y-108214570D01*
X96409550Y-108184206D01*
X96459343Y-108143343D01*
X96500206Y-108093550D01*
X96530570Y-108036743D01*
X96549268Y-107975103D01*
X96555582Y-107911000D01*
X96555582Y-107624397D01*
X102016000Y-107624397D01*
X102016000Y-107767603D01*
X102043938Y-107908058D01*
X102098741Y-108040364D01*
X102178302Y-108159436D01*
X102279564Y-108260698D01*
X102398636Y-108340259D01*
X102530942Y-108395062D01*
X102671397Y-108423000D01*
X102814603Y-108423000D01*
X102955058Y-108395062D01*
X103087364Y-108340259D01*
X103206436Y-108260698D01*
X103307698Y-108159436D01*
X103387259Y-108040364D01*
X103442062Y-107908058D01*
X103470000Y-107767603D01*
X103470000Y-107624397D01*
X105064000Y-107624397D01*
X105064000Y-107767603D01*
X105091938Y-107908058D01*
X105146741Y-108040364D01*
X105226302Y-108159436D01*
X105327564Y-108260698D01*
X105446636Y-108340259D01*
X105578942Y-108395062D01*
X105719397Y-108423000D01*
X105862603Y-108423000D01*
X106003058Y-108395062D01*
X106135364Y-108340259D01*
X106254436Y-108260698D01*
X106355698Y-108159436D01*
X106435259Y-108040364D01*
X106490062Y-107908058D01*
X106518000Y-107767603D01*
X106518000Y-107624397D01*
X106490062Y-107483942D01*
X106435259Y-107351636D01*
X106355698Y-107232564D01*
X106254436Y-107131302D01*
X106135364Y-107051741D01*
X106003058Y-106996938D01*
X105862603Y-106969000D01*
X105719397Y-106969000D01*
X105578942Y-106996938D01*
X105446636Y-107051741D01*
X105327564Y-107131302D01*
X105226302Y-107232564D01*
X105146741Y-107351636D01*
X105091938Y-107483942D01*
X105064000Y-107624397D01*
X103470000Y-107624397D01*
X103442062Y-107483942D01*
X103387259Y-107351636D01*
X103307698Y-107232564D01*
X103206436Y-107131302D01*
X103087364Y-107051741D01*
X102955058Y-106996938D01*
X102814603Y-106969000D01*
X102671397Y-106969000D01*
X102530942Y-106996938D01*
X102398636Y-107051741D01*
X102279564Y-107131302D01*
X102178302Y-107232564D01*
X102098741Y-107351636D01*
X102043938Y-107483942D01*
X102016000Y-107624397D01*
X96555582Y-107624397D01*
X96555582Y-106211000D01*
X96549268Y-106146897D01*
X96530570Y-106085257D01*
X96500206Y-106028450D01*
X96459343Y-105978657D01*
X96409550Y-105937794D01*
X96352743Y-105907430D01*
X96291103Y-105888732D01*
X96227000Y-105882418D01*
X94527000Y-105882418D01*
X94462897Y-105888732D01*
X94401257Y-105907430D01*
X94344450Y-105937794D01*
X94294657Y-105978657D01*
X94253794Y-106028450D01*
X94223430Y-106085257D01*
X94204732Y-106146897D01*
X94198418Y-106211000D01*
X84010500Y-106211000D01*
X84010500Y-105449000D01*
X123916418Y-105449000D01*
X123916418Y-107149000D01*
X123922732Y-107213103D01*
X123941430Y-107274743D01*
X123971794Y-107331550D01*
X124012657Y-107381343D01*
X124062450Y-107422206D01*
X124119257Y-107452570D01*
X124180897Y-107471268D01*
X124245000Y-107477582D01*
X125945000Y-107477582D01*
X126009103Y-107471268D01*
X126070743Y-107452570D01*
X126127550Y-107422206D01*
X126177343Y-107381343D01*
X126218206Y-107331550D01*
X126248570Y-107274743D01*
X126267268Y-107213103D01*
X126273582Y-107149000D01*
X126273582Y-105449000D01*
X126267268Y-105384897D01*
X126248570Y-105323257D01*
X126218206Y-105266450D01*
X126177343Y-105216657D01*
X126127550Y-105175794D01*
X126070743Y-105145430D01*
X126009103Y-105126732D01*
X125945000Y-105120418D01*
X124245000Y-105120418D01*
X124180897Y-105126732D01*
X124119257Y-105145430D01*
X124062450Y-105175794D01*
X124012657Y-105216657D01*
X123971794Y-105266450D01*
X123941430Y-105323257D01*
X123922732Y-105384897D01*
X123916418Y-105449000D01*
X84010500Y-105449000D01*
X84010500Y-100956897D01*
X95285000Y-100956897D01*
X95285000Y-101100103D01*
X95312938Y-101240558D01*
X95367741Y-101372864D01*
X95447302Y-101491936D01*
X95548564Y-101593198D01*
X95667636Y-101672759D01*
X95799942Y-101727562D01*
X95940397Y-101755500D01*
X96083603Y-101755500D01*
X96224058Y-101727562D01*
X96356364Y-101672759D01*
X96475436Y-101593198D01*
X96503134Y-101565500D01*
X98335132Y-101565500D01*
X98361500Y-101568097D01*
X98387868Y-101565500D01*
X98387878Y-101565500D01*
X98466770Y-101557730D01*
X98567995Y-101527024D01*
X98661285Y-101477159D01*
X98743053Y-101410053D01*
X98759868Y-101389564D01*
X110686035Y-89463397D01*
X119542000Y-89463397D01*
X119542000Y-89606603D01*
X119569938Y-89747058D01*
X119624741Y-89879364D01*
X119704302Y-89998436D01*
X119805564Y-90099698D01*
X119924636Y-90179259D01*
X120056942Y-90234062D01*
X120197397Y-90262000D01*
X120340603Y-90262000D01*
X120481058Y-90234062D01*
X120613364Y-90179259D01*
X120732436Y-90099698D01*
X120833698Y-89998436D01*
X120913259Y-89879364D01*
X120968062Y-89747058D01*
X120996000Y-89606603D01*
X120996000Y-89463397D01*
X120968062Y-89322942D01*
X120913259Y-89190636D01*
X120833698Y-89071564D01*
X120732436Y-88970302D01*
X120613364Y-88890741D01*
X120481058Y-88835938D01*
X120340603Y-88808000D01*
X120197397Y-88808000D01*
X120056942Y-88835938D01*
X119924636Y-88890741D01*
X119805564Y-88970302D01*
X119704302Y-89071564D01*
X119624741Y-89190636D01*
X119569938Y-89322942D01*
X119542000Y-89463397D01*
X110686035Y-89463397D01*
X121567070Y-78582363D01*
X121587554Y-78565552D01*
X121604365Y-78545068D01*
X121604369Y-78545064D01*
X121654660Y-78483785D01*
X121704524Y-78390495D01*
X121704525Y-78390494D01*
X121735231Y-78289269D01*
X121743001Y-78210377D01*
X121743001Y-78210368D01*
X121745598Y-78184000D01*
X121743001Y-78157632D01*
X121743001Y-74750368D01*
X121745598Y-74724000D01*
X121743001Y-74697632D01*
X121743001Y-74697623D01*
X121735231Y-74618731D01*
X121704525Y-74517506D01*
X121677948Y-74467784D01*
X121654660Y-74424215D01*
X121604369Y-74362936D01*
X121604365Y-74362932D01*
X121587554Y-74342448D01*
X121567070Y-74325637D01*
X121377000Y-74135567D01*
X121377000Y-74096397D01*
X121349062Y-73955942D01*
X121294259Y-73823636D01*
X121214698Y-73704564D01*
X121113436Y-73603302D01*
X120994364Y-73523741D01*
X120862058Y-73468938D01*
X120721603Y-73441000D01*
X120578397Y-73441000D01*
X120437942Y-73468938D01*
X120305636Y-73523741D01*
X120186564Y-73603302D01*
X120085302Y-73704564D01*
X120005741Y-73823636D01*
X119950938Y-73955942D01*
X119923000Y-74096397D01*
X119923000Y-74239603D01*
X119950938Y-74380058D01*
X120005741Y-74512364D01*
X120085302Y-74631436D01*
X120186564Y-74732698D01*
X120305636Y-74812259D01*
X120437942Y-74867062D01*
X120578397Y-74895000D01*
X120617567Y-74895000D01*
X120669001Y-74946434D01*
X120669002Y-77961565D01*
X98139068Y-100491500D01*
X96503134Y-100491500D01*
X96475436Y-100463802D01*
X96356364Y-100384241D01*
X96224058Y-100329438D01*
X96083603Y-100301500D01*
X95940397Y-100301500D01*
X95799942Y-100329438D01*
X95667636Y-100384241D01*
X95548564Y-100463802D01*
X95447302Y-100565064D01*
X95367741Y-100684136D01*
X95312938Y-100816442D01*
X95285000Y-100956897D01*
X84010500Y-100956897D01*
X84010500Y-96448397D01*
X84871000Y-96448397D01*
X84871000Y-96591603D01*
X84898938Y-96732058D01*
X84953741Y-96864364D01*
X85033302Y-96983436D01*
X85134564Y-97084698D01*
X85253636Y-97164259D01*
X85385942Y-97219062D01*
X85526397Y-97247000D01*
X85669603Y-97247000D01*
X85810058Y-97219062D01*
X85942364Y-97164259D01*
X86061436Y-97084698D01*
X86162698Y-96983436D01*
X86242259Y-96864364D01*
X86297062Y-96732058D01*
X86325000Y-96591603D01*
X86325000Y-96448397D01*
X86297062Y-96307942D01*
X86242259Y-96175636D01*
X86162698Y-96056564D01*
X86061436Y-95955302D01*
X85942364Y-95875741D01*
X85810058Y-95820938D01*
X85669603Y-95793000D01*
X85526397Y-95793000D01*
X85385942Y-95820938D01*
X85253636Y-95875741D01*
X85134564Y-95955302D01*
X85033302Y-96056564D01*
X84953741Y-96175636D01*
X84898938Y-96307942D01*
X84871000Y-96448397D01*
X84010500Y-96448397D01*
X84010500Y-87177397D01*
X100238000Y-87177397D01*
X100238000Y-87320603D01*
X100265938Y-87461058D01*
X100320741Y-87593364D01*
X100400302Y-87712436D01*
X100501564Y-87813698D01*
X100620636Y-87893259D01*
X100752942Y-87948062D01*
X100893397Y-87976000D01*
X101036603Y-87976000D01*
X101177058Y-87948062D01*
X101309364Y-87893259D01*
X101428436Y-87813698D01*
X101529698Y-87712436D01*
X101609259Y-87593364D01*
X101664062Y-87461058D01*
X101692000Y-87320603D01*
X101692000Y-87177397D01*
X101664062Y-87036942D01*
X101609259Y-86904636D01*
X101529698Y-86785564D01*
X101428436Y-86684302D01*
X101309364Y-86604741D01*
X101177058Y-86549938D01*
X101036603Y-86522000D01*
X100893397Y-86522000D01*
X100752942Y-86549938D01*
X100620636Y-86604741D01*
X100501564Y-86684302D01*
X100400302Y-86785564D01*
X100320741Y-86904636D01*
X100265938Y-87036942D01*
X100238000Y-87177397D01*
X84010500Y-87177397D01*
X84010500Y-74350397D01*
X91856000Y-74350397D01*
X91856000Y-74493603D01*
X91883938Y-74634058D01*
X91938741Y-74766364D01*
X92018302Y-74885436D01*
X92119564Y-74986698D01*
X92238636Y-75066259D01*
X92370942Y-75121062D01*
X92511397Y-75149000D01*
X92654603Y-75149000D01*
X92795058Y-75121062D01*
X92927364Y-75066259D01*
X93046436Y-74986698D01*
X93147698Y-74885436D01*
X93227259Y-74766364D01*
X93282062Y-74634058D01*
X93310000Y-74493603D01*
X93310000Y-74350397D01*
X93282062Y-74209942D01*
X93227259Y-74077636D01*
X93147698Y-73958564D01*
X93046436Y-73857302D01*
X92927364Y-73777741D01*
X92795058Y-73722938D01*
X92654603Y-73695000D01*
X92511397Y-73695000D01*
X92370942Y-73722938D01*
X92238636Y-73777741D01*
X92119564Y-73857302D01*
X92018302Y-73958564D01*
X91938741Y-74077636D01*
X91883938Y-74209942D01*
X91856000Y-74350397D01*
X84010500Y-74350397D01*
X84010500Y-71175397D01*
X95920000Y-71175397D01*
X95920000Y-71318603D01*
X95947938Y-71459058D01*
X96002741Y-71591364D01*
X96082302Y-71710436D01*
X96183564Y-71811698D01*
X96302636Y-71891259D01*
X96434942Y-71946062D01*
X96575397Y-71974000D01*
X96718603Y-71974000D01*
X96859058Y-71946062D01*
X96991364Y-71891259D01*
X97110436Y-71811698D01*
X97211698Y-71710436D01*
X97291259Y-71591364D01*
X97346062Y-71459058D01*
X97374000Y-71318603D01*
X97374000Y-71175397D01*
X97346062Y-71034942D01*
X97291259Y-70902636D01*
X97211698Y-70783564D01*
X97110436Y-70682302D01*
X96991364Y-70602741D01*
X96859058Y-70547938D01*
X96718603Y-70520000D01*
X96575397Y-70520000D01*
X96434942Y-70547938D01*
X96302636Y-70602741D01*
X96183564Y-70682302D01*
X96082302Y-70783564D01*
X96002741Y-70902636D01*
X95947938Y-71034942D01*
X95920000Y-71175397D01*
X84010500Y-71175397D01*
X84010500Y-63682397D01*
X95539000Y-63682397D01*
X95539000Y-63825603D01*
X95566938Y-63966058D01*
X95621741Y-64098364D01*
X95701302Y-64217436D01*
X95802564Y-64318698D01*
X95921636Y-64398259D01*
X96053942Y-64453062D01*
X96194397Y-64481000D01*
X96337603Y-64481000D01*
X96478058Y-64453062D01*
X96610364Y-64398259D01*
X96729436Y-64318698D01*
X96830698Y-64217436D01*
X96910259Y-64098364D01*
X96965062Y-63966058D01*
X96993000Y-63825603D01*
X96993000Y-63682397D01*
X96965062Y-63541942D01*
X96910259Y-63409636D01*
X96830698Y-63290564D01*
X96729436Y-63189302D01*
X96610364Y-63109741D01*
X96478058Y-63054938D01*
X96337603Y-63027000D01*
X96194397Y-63027000D01*
X96053942Y-63054938D01*
X95921636Y-63109741D01*
X95802564Y-63189302D01*
X95701302Y-63290564D01*
X95621741Y-63409636D01*
X95566938Y-63541942D01*
X95539000Y-63682397D01*
X84010500Y-63682397D01*
X84010500Y-54445415D01*
X84027211Y-54233073D01*
X86343000Y-54233073D01*
X86343000Y-54986927D01*
X86490070Y-55726295D01*
X86778557Y-56422764D01*
X87197375Y-57049570D01*
X87730430Y-57582625D01*
X88357236Y-58001443D01*
X89053705Y-58289930D01*
X89793073Y-58437000D01*
X90546927Y-58437000D01*
X91286295Y-58289930D01*
X91982764Y-58001443D01*
X92609570Y-57582625D01*
X92732798Y-57459397D01*
X97444000Y-57459397D01*
X97444000Y-57602603D01*
X97471938Y-57743058D01*
X97526741Y-57875364D01*
X97606302Y-57994436D01*
X97707564Y-58095698D01*
X97826636Y-58175259D01*
X97958942Y-58230062D01*
X98099397Y-58258000D01*
X98242603Y-58258000D01*
X98383058Y-58230062D01*
X98515364Y-58175259D01*
X98634436Y-58095698D01*
X98635737Y-58094397D01*
X102778000Y-58094397D01*
X102778000Y-58237603D01*
X102805938Y-58378058D01*
X102860741Y-58510364D01*
X102940302Y-58629436D01*
X102968000Y-58657134D01*
X102968001Y-64799424D01*
X102965403Y-64825802D01*
X102968001Y-64852180D01*
X102975771Y-64931072D01*
X103006477Y-65032297D01*
X103056341Y-65125586D01*
X103106632Y-65186866D01*
X103106637Y-65186871D01*
X103123448Y-65207355D01*
X103143932Y-65224166D01*
X105032606Y-67112841D01*
X104922803Y-67091000D01*
X104779597Y-67091000D01*
X104639142Y-67118938D01*
X104506836Y-67173741D01*
X104387764Y-67253302D01*
X104286502Y-67354564D01*
X104206941Y-67473636D01*
X104152138Y-67605942D01*
X104124200Y-67746397D01*
X104124200Y-67889603D01*
X104152138Y-68030058D01*
X104206941Y-68162364D01*
X104286502Y-68281436D01*
X104387764Y-68382698D01*
X104506836Y-68462259D01*
X104639142Y-68517062D01*
X104779597Y-68545000D01*
X104922803Y-68545000D01*
X105063258Y-68517062D01*
X105195564Y-68462259D01*
X105314636Y-68382698D01*
X105415898Y-68281436D01*
X105495459Y-68162364D01*
X105550262Y-68030058D01*
X105578200Y-67889603D01*
X105578200Y-67746397D01*
X105550262Y-67605942D01*
X105548601Y-67601933D01*
X105607702Y-67633523D01*
X105708927Y-67664229D01*
X105787819Y-67671999D01*
X105787826Y-67671999D01*
X105814197Y-67674596D01*
X105840568Y-67671999D01*
X109005369Y-67671999D01*
X113636000Y-72302631D01*
X113636000Y-72787866D01*
X113608302Y-72815564D01*
X113528741Y-72934636D01*
X113473938Y-73066942D01*
X113446000Y-73207397D01*
X113446000Y-73350603D01*
X113473938Y-73491058D01*
X113528741Y-73623364D01*
X113608302Y-73742436D01*
X113636001Y-73770135D01*
X113636001Y-74829378D01*
X113643771Y-74908270D01*
X113674477Y-75009495D01*
X113724342Y-75102785D01*
X113791448Y-75184553D01*
X113873216Y-75251659D01*
X113966506Y-75301524D01*
X114067731Y-75332230D01*
X114173000Y-75342598D01*
X114278270Y-75332230D01*
X114379495Y-75301524D01*
X114472785Y-75251659D01*
X114554553Y-75184553D01*
X114621659Y-75102785D01*
X114671524Y-75009495D01*
X114702230Y-74908270D01*
X114710000Y-74829378D01*
X114710000Y-73770134D01*
X114737698Y-73742436D01*
X114817259Y-73623364D01*
X114872062Y-73491058D01*
X114900000Y-73350603D01*
X114900000Y-73207397D01*
X114872062Y-73066942D01*
X114817259Y-72934636D01*
X114737698Y-72815564D01*
X114710000Y-72787866D01*
X114710000Y-72106565D01*
X114712597Y-72080197D01*
X114710000Y-72053829D01*
X114710000Y-72053820D01*
X114702230Y-71974928D01*
X114671524Y-71873703D01*
X114621659Y-71780413D01*
X114611937Y-71768567D01*
X114571368Y-71719133D01*
X114571364Y-71719129D01*
X114554553Y-71698645D01*
X114534069Y-71681834D01*
X113231160Y-70378925D01*
X116217000Y-70378925D01*
X116217000Y-70591075D01*
X116258389Y-70799149D01*
X116339575Y-70995151D01*
X116457440Y-71171547D01*
X116607453Y-71321560D01*
X116783849Y-71439425D01*
X116979851Y-71520611D01*
X117187925Y-71562000D01*
X117400075Y-71562000D01*
X117608149Y-71520611D01*
X117804151Y-71439425D01*
X117980547Y-71321560D01*
X118130560Y-71171547D01*
X118248425Y-70995151D01*
X118329611Y-70799149D01*
X118371000Y-70591075D01*
X118371000Y-70378925D01*
X121097000Y-70378925D01*
X121097000Y-70591075D01*
X121138389Y-70799149D01*
X121219575Y-70995151D01*
X121337440Y-71171547D01*
X121487453Y-71321560D01*
X121663849Y-71439425D01*
X121859851Y-71520611D01*
X122067925Y-71562000D01*
X122280075Y-71562000D01*
X122488149Y-71520611D01*
X122684151Y-71439425D01*
X122860547Y-71321560D01*
X123010560Y-71171547D01*
X123128425Y-70995151D01*
X123209611Y-70799149D01*
X123251000Y-70591075D01*
X123251000Y-70378925D01*
X123209611Y-70170851D01*
X123128425Y-69974849D01*
X123010560Y-69798453D01*
X122860547Y-69648440D01*
X122684151Y-69530575D01*
X122488149Y-69449389D01*
X122280075Y-69408000D01*
X122067925Y-69408000D01*
X121859851Y-69449389D01*
X121663849Y-69530575D01*
X121487453Y-69648440D01*
X121337440Y-69798453D01*
X121219575Y-69974849D01*
X121138389Y-70170851D01*
X121097000Y-70378925D01*
X118371000Y-70378925D01*
X118329611Y-70170851D01*
X118248425Y-69974849D01*
X118130560Y-69798453D01*
X117980547Y-69648440D01*
X117804151Y-69530575D01*
X117608149Y-69449389D01*
X117400075Y-69408000D01*
X117187925Y-69408000D01*
X116979851Y-69449389D01*
X116783849Y-69530575D01*
X116607453Y-69648440D01*
X116457440Y-69798453D01*
X116339575Y-69974849D01*
X116258389Y-70170851D01*
X116217000Y-70378925D01*
X113231160Y-70378925D01*
X109626168Y-66773934D01*
X109609354Y-66753446D01*
X109527586Y-66686340D01*
X109434296Y-66636475D01*
X109333071Y-66605769D01*
X109254179Y-66597999D01*
X109254169Y-66597999D01*
X109227801Y-66595402D01*
X109201433Y-66597999D01*
X106036630Y-66597999D01*
X104042000Y-64603370D01*
X104042000Y-58657134D01*
X104069698Y-58629436D01*
X104149259Y-58510364D01*
X104204062Y-58378058D01*
X104232000Y-58237603D01*
X104232000Y-58094397D01*
X104204062Y-57953942D01*
X104149259Y-57821636D01*
X104069698Y-57702564D01*
X103968436Y-57601302D01*
X103849364Y-57521741D01*
X103717058Y-57466938D01*
X103576603Y-57439000D01*
X103433397Y-57439000D01*
X103292942Y-57466938D01*
X103160636Y-57521741D01*
X103041564Y-57601302D01*
X102940302Y-57702564D01*
X102860741Y-57821636D01*
X102805938Y-57953942D01*
X102778000Y-58094397D01*
X98635737Y-58094397D01*
X98735698Y-57994436D01*
X98815259Y-57875364D01*
X98870062Y-57743058D01*
X98898000Y-57602603D01*
X98898000Y-57459397D01*
X98870062Y-57318942D01*
X98815259Y-57186636D01*
X98735698Y-57067564D01*
X98634436Y-56966302D01*
X98515364Y-56886741D01*
X98383058Y-56831938D01*
X98242603Y-56804000D01*
X98099397Y-56804000D01*
X97958942Y-56831938D01*
X97826636Y-56886741D01*
X97707564Y-56966302D01*
X97606302Y-57067564D01*
X97526741Y-57186636D01*
X97471938Y-57318942D01*
X97444000Y-57459397D01*
X92732798Y-57459397D01*
X93142625Y-57049570D01*
X93561443Y-56422764D01*
X93849930Y-55726295D01*
X93959908Y-55173397D01*
X103667000Y-55173397D01*
X103667000Y-55316603D01*
X103694938Y-55457058D01*
X103749741Y-55589364D01*
X103829302Y-55708436D01*
X103930564Y-55809698D01*
X104049636Y-55889259D01*
X104181942Y-55944062D01*
X104322397Y-55972000D01*
X104465603Y-55972000D01*
X104606058Y-55944062D01*
X104738364Y-55889259D01*
X104857436Y-55809698D01*
X104958698Y-55708436D01*
X105038259Y-55589364D01*
X105093062Y-55457058D01*
X105121000Y-55316603D01*
X105121000Y-55173397D01*
X105093062Y-55032942D01*
X105038259Y-54900636D01*
X104958698Y-54781564D01*
X104857436Y-54680302D01*
X104738364Y-54600741D01*
X104606058Y-54545938D01*
X104465603Y-54518000D01*
X104322397Y-54518000D01*
X104181942Y-54545938D01*
X104049636Y-54600741D01*
X103930564Y-54680302D01*
X103829302Y-54781564D01*
X103749741Y-54900636D01*
X103694938Y-55032942D01*
X103667000Y-55173397D01*
X93959908Y-55173397D01*
X93997000Y-54986927D01*
X93997000Y-54233073D01*
X93849930Y-53493705D01*
X93561443Y-52797236D01*
X93142625Y-52170430D01*
X92609570Y-51637375D01*
X91982764Y-51218557D01*
X91286295Y-50930070D01*
X90546927Y-50783000D01*
X89793073Y-50783000D01*
X89053705Y-50930070D01*
X88357236Y-51218557D01*
X87730430Y-51637375D01*
X87197375Y-52170430D01*
X86778557Y-52797236D01*
X86490070Y-53493705D01*
X86343000Y-54233073D01*
X84027211Y-54233073D01*
X84073540Y-53644415D01*
X84299647Y-52702612D01*
X84670307Y-51807761D01*
X85176379Y-50981925D01*
X85777201Y-50278453D01*
X97721000Y-50278453D01*
X97721000Y-50559547D01*
X97775838Y-50835241D01*
X97883409Y-51094938D01*
X98039576Y-51328660D01*
X98238340Y-51527424D01*
X98472062Y-51683591D01*
X98731759Y-51791162D01*
X99007453Y-51846000D01*
X99288547Y-51846000D01*
X99564241Y-51791162D01*
X99823938Y-51683591D01*
X100057660Y-51527424D01*
X100256424Y-51328660D01*
X100257066Y-51327699D01*
X101721000Y-51327699D01*
X101721000Y-51510301D01*
X101756624Y-51689396D01*
X101826504Y-51858099D01*
X101927952Y-52009928D01*
X102057072Y-52139048D01*
X102208901Y-52240496D01*
X102377604Y-52310376D01*
X102556699Y-52346000D01*
X102739301Y-52346000D01*
X102918396Y-52310376D01*
X103087099Y-52240496D01*
X103238928Y-52139048D01*
X103368048Y-52009928D01*
X103469496Y-51858099D01*
X103539376Y-51689396D01*
X103575000Y-51510301D01*
X103575000Y-51327699D01*
X103721000Y-51327699D01*
X103721000Y-51510301D01*
X103756624Y-51689396D01*
X103826504Y-51858099D01*
X103927952Y-52009928D01*
X104057072Y-52139048D01*
X104208901Y-52240496D01*
X104377604Y-52310376D01*
X104556699Y-52346000D01*
X104739301Y-52346000D01*
X104802914Y-52333347D01*
X106270001Y-53800434D01*
X106270000Y-65167866D01*
X106242302Y-65195564D01*
X106162741Y-65314636D01*
X106107938Y-65446942D01*
X106080000Y-65587397D01*
X106080000Y-65730603D01*
X106107938Y-65871058D01*
X106162741Y-66003364D01*
X106242302Y-66122436D01*
X106343564Y-66223698D01*
X106462636Y-66303259D01*
X106594942Y-66358062D01*
X106735397Y-66386000D01*
X106878603Y-66386000D01*
X107019058Y-66358062D01*
X107151364Y-66303259D01*
X107270436Y-66223698D01*
X107371698Y-66122436D01*
X107442000Y-66017221D01*
X107512302Y-66122436D01*
X107613564Y-66223698D01*
X107732636Y-66303259D01*
X107864942Y-66358062D01*
X108005397Y-66386000D01*
X108148603Y-66386000D01*
X108289058Y-66358062D01*
X108421364Y-66303259D01*
X108540436Y-66223698D01*
X108641698Y-66122436D01*
X108721259Y-66003364D01*
X108776062Y-65871058D01*
X108804000Y-65730603D01*
X108804000Y-65587397D01*
X108776062Y-65446942D01*
X108721259Y-65314636D01*
X108641698Y-65195564D01*
X108614000Y-65167866D01*
X108614000Y-58221397D01*
X110652000Y-58221397D01*
X110652000Y-58364603D01*
X110679938Y-58505058D01*
X110734741Y-58637364D01*
X110814302Y-58756436D01*
X110915564Y-58857698D01*
X111034636Y-58937259D01*
X111166942Y-58992062D01*
X111307397Y-59020000D01*
X111450603Y-59020000D01*
X111591058Y-58992062D01*
X111723364Y-58937259D01*
X111842436Y-58857698D01*
X111843737Y-58856397D01*
X116748000Y-58856397D01*
X116748000Y-58999603D01*
X116775938Y-59140058D01*
X116830741Y-59272364D01*
X116910302Y-59391436D01*
X117011564Y-59492698D01*
X117116779Y-59563000D01*
X117011564Y-59633302D01*
X116910302Y-59734564D01*
X116830741Y-59853636D01*
X116775938Y-59985942D01*
X116748000Y-60126397D01*
X116748000Y-60269603D01*
X116775938Y-60410058D01*
X116830741Y-60542364D01*
X116910302Y-60661436D01*
X116938000Y-60689134D01*
X116938001Y-61568622D01*
X116935403Y-61595000D01*
X116945771Y-61700269D01*
X116976477Y-61801495D01*
X117026341Y-61894784D01*
X117076632Y-61956064D01*
X117076637Y-61956069D01*
X117093448Y-61976553D01*
X117113932Y-61993364D01*
X126463000Y-71342433D01*
X126463001Y-86968622D01*
X126460403Y-86995000D01*
X126470771Y-87100269D01*
X126501477Y-87201495D01*
X126551341Y-87294784D01*
X126601632Y-87356064D01*
X126601637Y-87356069D01*
X126618448Y-87376553D01*
X126638932Y-87393364D01*
X128432000Y-89186433D01*
X128432000Y-89225603D01*
X128459938Y-89366058D01*
X128514741Y-89498364D01*
X128594302Y-89617436D01*
X128695564Y-89718698D01*
X128814636Y-89798259D01*
X128946942Y-89853062D01*
X129087397Y-89881000D01*
X129230603Y-89881000D01*
X129371058Y-89853062D01*
X129503364Y-89798259D01*
X129622436Y-89718698D01*
X129723698Y-89617436D01*
X129803259Y-89498364D01*
X129858062Y-89366058D01*
X129886000Y-89225603D01*
X129886000Y-89082397D01*
X129858062Y-88941942D01*
X129803259Y-88809636D01*
X129723698Y-88690564D01*
X129622436Y-88589302D01*
X129503364Y-88509741D01*
X129371058Y-88454938D01*
X129230603Y-88427000D01*
X129191433Y-88427000D01*
X128971350Y-88206917D01*
X129087397Y-88230000D01*
X129230603Y-88230000D01*
X129371058Y-88202062D01*
X129503364Y-88147259D01*
X129622436Y-88067698D01*
X129723698Y-87966436D01*
X129803259Y-87847364D01*
X129858062Y-87715058D01*
X129886000Y-87574603D01*
X129886000Y-87431397D01*
X129858062Y-87290942D01*
X129803259Y-87158636D01*
X129723698Y-87039564D01*
X129622436Y-86938302D01*
X129503364Y-86858741D01*
X129371058Y-86803938D01*
X129230603Y-86776000D01*
X129191433Y-86776000D01*
X128807000Y-86391568D01*
X128807000Y-84002397D01*
X141132000Y-84002397D01*
X141132000Y-84145603D01*
X141159938Y-84286058D01*
X141214741Y-84418364D01*
X141294302Y-84537436D01*
X141395564Y-84638698D01*
X141514636Y-84718259D01*
X141646942Y-84773062D01*
X141787397Y-84801000D01*
X141930603Y-84801000D01*
X142071058Y-84773062D01*
X142203364Y-84718259D01*
X142322436Y-84638698D01*
X142423698Y-84537436D01*
X142503259Y-84418364D01*
X142558062Y-84286058D01*
X142586000Y-84145603D01*
X142586000Y-84002397D01*
X142558062Y-83861942D01*
X142503259Y-83729636D01*
X142423698Y-83610564D01*
X142322436Y-83509302D01*
X142203364Y-83429741D01*
X142071058Y-83374938D01*
X141930603Y-83347000D01*
X141787397Y-83347000D01*
X141646942Y-83374938D01*
X141514636Y-83429741D01*
X141395564Y-83509302D01*
X141294302Y-83610564D01*
X141214741Y-83729636D01*
X141159938Y-83861942D01*
X141132000Y-84002397D01*
X128807000Y-84002397D01*
X128807000Y-80529076D01*
X135983000Y-80529076D01*
X135983000Y-80760924D01*
X136028231Y-80988318D01*
X136116956Y-81202519D01*
X136245764Y-81395294D01*
X136409706Y-81559236D01*
X136602481Y-81688044D01*
X136816682Y-81776769D01*
X137044076Y-81822000D01*
X137275924Y-81822000D01*
X137503318Y-81776769D01*
X137717519Y-81688044D01*
X137910294Y-81559236D01*
X138074236Y-81395294D01*
X138203044Y-81202519D01*
X138291769Y-80988318D01*
X138337000Y-80760924D01*
X138337000Y-80529076D01*
X138291769Y-80301682D01*
X138203044Y-80087481D01*
X138074236Y-79894706D01*
X137910294Y-79730764D01*
X137717519Y-79601956D01*
X137503318Y-79513231D01*
X137275924Y-79468000D01*
X137044076Y-79468000D01*
X136816682Y-79513231D01*
X136602481Y-79601956D01*
X136409706Y-79730764D01*
X136245764Y-79894706D01*
X136116956Y-80087481D01*
X136028231Y-80301682D01*
X135983000Y-80529076D01*
X128807000Y-80529076D01*
X128807000Y-77989076D01*
X135983000Y-77989076D01*
X135983000Y-78220924D01*
X136028231Y-78448318D01*
X136116956Y-78662519D01*
X136245764Y-78855294D01*
X136409706Y-79019236D01*
X136602481Y-79148044D01*
X136816682Y-79236769D01*
X137044076Y-79282000D01*
X137275924Y-79282000D01*
X137503318Y-79236769D01*
X137717519Y-79148044D01*
X137910294Y-79019236D01*
X138074236Y-78855294D01*
X138203044Y-78662519D01*
X138291769Y-78448318D01*
X138337000Y-78220924D01*
X138337000Y-77989076D01*
X138291769Y-77761682D01*
X138203044Y-77547481D01*
X138074236Y-77354706D01*
X137910294Y-77190764D01*
X137717519Y-77061956D01*
X137503318Y-76973231D01*
X137275924Y-76928000D01*
X137044076Y-76928000D01*
X136816682Y-76973231D01*
X136602481Y-77061956D01*
X136409706Y-77190764D01*
X136245764Y-77354706D01*
X136116956Y-77547481D01*
X136028231Y-77761682D01*
X135983000Y-77989076D01*
X128807000Y-77989076D01*
X128807000Y-71539541D01*
X128809597Y-71513173D01*
X128807000Y-71486805D01*
X128807000Y-71486796D01*
X128799230Y-71407904D01*
X128768524Y-71306679D01*
X128718659Y-71213389D01*
X128668368Y-71152109D01*
X128668364Y-71152105D01*
X128651553Y-71131621D01*
X128631069Y-71114810D01*
X127758335Y-70242076D01*
X142333000Y-70242076D01*
X142333000Y-70473924D01*
X142378231Y-70701318D01*
X142466956Y-70915519D01*
X142595764Y-71108294D01*
X142759706Y-71272236D01*
X142952481Y-71401044D01*
X143166682Y-71489769D01*
X143394076Y-71535000D01*
X143625924Y-71535000D01*
X143853318Y-71489769D01*
X144067519Y-71401044D01*
X144260294Y-71272236D01*
X144424236Y-71108294D01*
X144553044Y-70915519D01*
X144641769Y-70701318D01*
X144687000Y-70473924D01*
X144687000Y-70242076D01*
X144641769Y-70014682D01*
X144553044Y-69800481D01*
X144424236Y-69607706D01*
X144260294Y-69443764D01*
X144067519Y-69314956D01*
X143853318Y-69226231D01*
X143625924Y-69181000D01*
X143394076Y-69181000D01*
X143166682Y-69226231D01*
X142952481Y-69314956D01*
X142759706Y-69443764D01*
X142595764Y-69607706D01*
X142466956Y-69800481D01*
X142378231Y-70014682D01*
X142333000Y-70242076D01*
X127758335Y-70242076D01*
X125218335Y-67702076D01*
X142333000Y-67702076D01*
X142333000Y-67933924D01*
X142378231Y-68161318D01*
X142466956Y-68375519D01*
X142595764Y-68568294D01*
X142759706Y-68732236D01*
X142952481Y-68861044D01*
X143166682Y-68949769D01*
X143394076Y-68995000D01*
X143625924Y-68995000D01*
X143853318Y-68949769D01*
X144067519Y-68861044D01*
X144260294Y-68732236D01*
X144424236Y-68568294D01*
X144553044Y-68375519D01*
X144641769Y-68161318D01*
X144687000Y-67933924D01*
X144687000Y-67702076D01*
X144641769Y-67474682D01*
X144553044Y-67260481D01*
X144424236Y-67067706D01*
X144260294Y-66903764D01*
X144067519Y-66774956D01*
X143853318Y-66686231D01*
X143625924Y-66641000D01*
X143394076Y-66641000D01*
X143166682Y-66686231D01*
X142952481Y-66774956D01*
X142759706Y-66903764D01*
X142595764Y-67067706D01*
X142466956Y-67260481D01*
X142378231Y-67474682D01*
X142333000Y-67702076D01*
X125218335Y-67702076D01*
X121944259Y-64428000D01*
X142331418Y-64428000D01*
X142331418Y-66128000D01*
X142337732Y-66192103D01*
X142356430Y-66253743D01*
X142386794Y-66310550D01*
X142427657Y-66360343D01*
X142477450Y-66401206D01*
X142534257Y-66431570D01*
X142595897Y-66450268D01*
X142660000Y-66456582D01*
X144360000Y-66456582D01*
X144424103Y-66450268D01*
X144485743Y-66431570D01*
X144542550Y-66401206D01*
X144592343Y-66360343D01*
X144633206Y-66310550D01*
X144663570Y-66253743D01*
X144682268Y-66192103D01*
X144688582Y-66128000D01*
X144688582Y-64952397D01*
X150657000Y-64952397D01*
X150657000Y-65095603D01*
X150684938Y-65236058D01*
X150739741Y-65368364D01*
X150819302Y-65487436D01*
X150920564Y-65588698D01*
X151039636Y-65668259D01*
X151171942Y-65723062D01*
X151312397Y-65751000D01*
X151455603Y-65751000D01*
X151596058Y-65723062D01*
X151728364Y-65668259D01*
X151847436Y-65588698D01*
X151948698Y-65487436D01*
X152028259Y-65368364D01*
X152083062Y-65236058D01*
X152111000Y-65095603D01*
X152111000Y-64952397D01*
X152083062Y-64811942D01*
X152028259Y-64679636D01*
X151948698Y-64560564D01*
X151847436Y-64459302D01*
X151728364Y-64379741D01*
X151596058Y-64324938D01*
X151455603Y-64297000D01*
X151312397Y-64297000D01*
X151171942Y-64324938D01*
X151039636Y-64379741D01*
X150920564Y-64459302D01*
X150819302Y-64560564D01*
X150739741Y-64679636D01*
X150684938Y-64811942D01*
X150657000Y-64952397D01*
X144688582Y-64952397D01*
X144688582Y-64428000D01*
X144682268Y-64363897D01*
X144663570Y-64302257D01*
X144633206Y-64245450D01*
X144592343Y-64195657D01*
X144542550Y-64154794D01*
X144485743Y-64124430D01*
X144424103Y-64105732D01*
X144360000Y-64099418D01*
X142660000Y-64099418D01*
X142595897Y-64105732D01*
X142534257Y-64124430D01*
X142477450Y-64154794D01*
X142427657Y-64195657D01*
X142386794Y-64245450D01*
X142356430Y-64302257D01*
X142337732Y-64363897D01*
X142331418Y-64428000D01*
X121944259Y-64428000D01*
X120500156Y-62983897D01*
X125320500Y-62983897D01*
X125320500Y-63127103D01*
X125348438Y-63267558D01*
X125403241Y-63399864D01*
X125482802Y-63518936D01*
X125584064Y-63620198D01*
X125703136Y-63699759D01*
X125835442Y-63754562D01*
X125975897Y-63782500D01*
X126119103Y-63782500D01*
X126259558Y-63754562D01*
X126391864Y-63699759D01*
X126510936Y-63620198D01*
X126612198Y-63518936D01*
X126691759Y-63399864D01*
X126746562Y-63267558D01*
X126774500Y-63127103D01*
X126774500Y-63047397D01*
X155991000Y-63047397D01*
X155991000Y-63190603D01*
X156018938Y-63331058D01*
X156073741Y-63463364D01*
X156153302Y-63582436D01*
X156254564Y-63683698D01*
X156373636Y-63763259D01*
X156505942Y-63818062D01*
X156646397Y-63846000D01*
X156789603Y-63846000D01*
X156930058Y-63818062D01*
X157062364Y-63763259D01*
X157181436Y-63683698D01*
X157282698Y-63582436D01*
X157362259Y-63463364D01*
X157417062Y-63331058D01*
X157445000Y-63190603D01*
X157445000Y-63047397D01*
X157417062Y-62906942D01*
X157362259Y-62774636D01*
X157289937Y-62666397D01*
X167294000Y-62666397D01*
X167294000Y-62809603D01*
X167321938Y-62950058D01*
X167376741Y-63082364D01*
X167456302Y-63201436D01*
X167557564Y-63302698D01*
X167676636Y-63382259D01*
X167808942Y-63437062D01*
X167949397Y-63465000D01*
X168092603Y-63465000D01*
X168233058Y-63437062D01*
X168365364Y-63382259D01*
X168484436Y-63302698D01*
X168585698Y-63201436D01*
X168665259Y-63082364D01*
X168720062Y-62950058D01*
X168748000Y-62809603D01*
X168748000Y-62666397D01*
X168720062Y-62525942D01*
X168665259Y-62393636D01*
X168585698Y-62274564D01*
X168484436Y-62173302D01*
X168365364Y-62093741D01*
X168233058Y-62038938D01*
X168092603Y-62011000D01*
X167949397Y-62011000D01*
X167808942Y-62038938D01*
X167676636Y-62093741D01*
X167557564Y-62173302D01*
X167456302Y-62274564D01*
X167376741Y-62393636D01*
X167321938Y-62525942D01*
X167294000Y-62666397D01*
X157289937Y-62666397D01*
X157282698Y-62655564D01*
X157181436Y-62554302D01*
X157062364Y-62474741D01*
X156930058Y-62419938D01*
X156789603Y-62392000D01*
X156646397Y-62392000D01*
X156505942Y-62419938D01*
X156373636Y-62474741D01*
X156254564Y-62554302D01*
X156153302Y-62655564D01*
X156073741Y-62774636D01*
X156018938Y-62906942D01*
X155991000Y-63047397D01*
X126774500Y-63047397D01*
X126774500Y-62983897D01*
X126746562Y-62843442D01*
X126691759Y-62711136D01*
X126612198Y-62592064D01*
X126510936Y-62490802D01*
X126391864Y-62411241D01*
X126259558Y-62356438D01*
X126119103Y-62328500D01*
X125975897Y-62328500D01*
X125835442Y-62356438D01*
X125703136Y-62411241D01*
X125584064Y-62490802D01*
X125482802Y-62592064D01*
X125403241Y-62711136D01*
X125348438Y-62843442D01*
X125320500Y-62983897D01*
X120500156Y-62983897D01*
X118822001Y-61305743D01*
X118822001Y-59764368D01*
X118824598Y-59738000D01*
X118822001Y-59711632D01*
X118822001Y-59711623D01*
X118814231Y-59632731D01*
X118783525Y-59531506D01*
X118733660Y-59438216D01*
X118723938Y-59426370D01*
X118683369Y-59376936D01*
X118683365Y-59376932D01*
X118666554Y-59356448D01*
X118646070Y-59339637D01*
X118202000Y-58895568D01*
X118202000Y-58856397D01*
X118174062Y-58715942D01*
X118119259Y-58583636D01*
X118039698Y-58464564D01*
X117938436Y-58363302D01*
X117819364Y-58283741D01*
X117687058Y-58228938D01*
X117546603Y-58201000D01*
X117403397Y-58201000D01*
X117262942Y-58228938D01*
X117130636Y-58283741D01*
X117011564Y-58363302D01*
X116910302Y-58464564D01*
X116830741Y-58583636D01*
X116775938Y-58715942D01*
X116748000Y-58856397D01*
X111843737Y-58856397D01*
X111943698Y-58756436D01*
X112023259Y-58637364D01*
X112078062Y-58505058D01*
X112106000Y-58364603D01*
X112106000Y-58221397D01*
X112078062Y-58080942D01*
X112023259Y-57948636D01*
X111943698Y-57829564D01*
X111842436Y-57728302D01*
X111723364Y-57648741D01*
X111591058Y-57593938D01*
X111450603Y-57566000D01*
X111307397Y-57566000D01*
X111166942Y-57593938D01*
X111034636Y-57648741D01*
X110915564Y-57728302D01*
X110814302Y-57829564D01*
X110734741Y-57948636D01*
X110679938Y-58080942D01*
X110652000Y-58221397D01*
X108614000Y-58221397D01*
X108614000Y-56443397D01*
X123352000Y-56443397D01*
X123352000Y-56586603D01*
X123379938Y-56727058D01*
X123434741Y-56859364D01*
X123514302Y-56978436D01*
X123615564Y-57079698D01*
X123734636Y-57159259D01*
X123866942Y-57214062D01*
X124007397Y-57242000D01*
X124150603Y-57242000D01*
X124291058Y-57214062D01*
X124423364Y-57159259D01*
X124542436Y-57079698D01*
X124643698Y-56978436D01*
X124723259Y-56859364D01*
X124778062Y-56727058D01*
X124782954Y-56702462D01*
X133471000Y-56702462D01*
X133471000Y-57343537D01*
X133484413Y-57479723D01*
X133537420Y-57654463D01*
X133623499Y-57815504D01*
X133739341Y-57956659D01*
X133880495Y-58072501D01*
X134041536Y-58158580D01*
X134216276Y-58211587D01*
X134398000Y-58229485D01*
X134579723Y-58211587D01*
X134754463Y-58158580D01*
X134915504Y-58072501D01*
X135056659Y-57956659D01*
X135172501Y-57815505D01*
X135258580Y-57654464D01*
X135311587Y-57479724D01*
X135325000Y-57343538D01*
X135325000Y-56702462D01*
X135311587Y-56566276D01*
X135260541Y-56397999D01*
X135469418Y-56397999D01*
X135469418Y-57648001D01*
X135480535Y-57760877D01*
X135513460Y-57869414D01*
X135566926Y-57969443D01*
X135638880Y-58057120D01*
X135726557Y-58129074D01*
X135826586Y-58182540D01*
X135935123Y-58215465D01*
X136047999Y-58226582D01*
X136748001Y-58226582D01*
X136860877Y-58215465D01*
X136969414Y-58182540D01*
X137069443Y-58129074D01*
X137157120Y-58057120D01*
X137229074Y-57969443D01*
X137282540Y-57869414D01*
X137315465Y-57760877D01*
X137326582Y-57648001D01*
X137326582Y-56702462D01*
X143123000Y-56702462D01*
X143123000Y-57343537D01*
X143136413Y-57479723D01*
X143189420Y-57654463D01*
X143275499Y-57815504D01*
X143391341Y-57956659D01*
X143532495Y-58072501D01*
X143693536Y-58158580D01*
X143868276Y-58211587D01*
X144050000Y-58229485D01*
X144231723Y-58211587D01*
X144406463Y-58158580D01*
X144567504Y-58072501D01*
X144708659Y-57956659D01*
X144824501Y-57815505D01*
X144910580Y-57654464D01*
X144963587Y-57479724D01*
X144977000Y-57343538D01*
X144977000Y-56702462D01*
X144963587Y-56566276D01*
X144912541Y-56397999D01*
X145121418Y-56397999D01*
X145121418Y-57648001D01*
X145132535Y-57760877D01*
X145165460Y-57869414D01*
X145218926Y-57969443D01*
X145290880Y-58057120D01*
X145378557Y-58129074D01*
X145478586Y-58182540D01*
X145587123Y-58215465D01*
X145699999Y-58226582D01*
X146400001Y-58226582D01*
X146512877Y-58215465D01*
X146621414Y-58182540D01*
X146721443Y-58129074D01*
X146809120Y-58057120D01*
X146881074Y-57969443D01*
X146934540Y-57869414D01*
X146967465Y-57760877D01*
X146978582Y-57648001D01*
X146978582Y-56702462D01*
X152521000Y-56702462D01*
X152521000Y-57343537D01*
X152534413Y-57479723D01*
X152587420Y-57654463D01*
X152673499Y-57815504D01*
X152789341Y-57956659D01*
X152930495Y-58072501D01*
X153091536Y-58158580D01*
X153266276Y-58211587D01*
X153448000Y-58229485D01*
X153629723Y-58211587D01*
X153804463Y-58158580D01*
X153965504Y-58072501D01*
X154106659Y-57956659D01*
X154222501Y-57815505D01*
X154308580Y-57654464D01*
X154361587Y-57479724D01*
X154375000Y-57343538D01*
X154375000Y-56702462D01*
X154361587Y-56566276D01*
X154310541Y-56397999D01*
X154519418Y-56397999D01*
X154519418Y-57648001D01*
X154530535Y-57760877D01*
X154563460Y-57869414D01*
X154616926Y-57969443D01*
X154688880Y-58057120D01*
X154776557Y-58129074D01*
X154876586Y-58182540D01*
X154985123Y-58215465D01*
X155097999Y-58226582D01*
X155798001Y-58226582D01*
X155910877Y-58215465D01*
X156019414Y-58182540D01*
X156119443Y-58129074D01*
X156207120Y-58057120D01*
X156279074Y-57969443D01*
X156332540Y-57869414D01*
X156365465Y-57760877D01*
X156376582Y-57648001D01*
X156376582Y-56702462D01*
X161411000Y-56702462D01*
X161411000Y-57343537D01*
X161424413Y-57479723D01*
X161477420Y-57654463D01*
X161563499Y-57815504D01*
X161679341Y-57956659D01*
X161820495Y-58072501D01*
X161981536Y-58158580D01*
X162156276Y-58211587D01*
X162338000Y-58229485D01*
X162519723Y-58211587D01*
X162694463Y-58158580D01*
X162855504Y-58072501D01*
X162996659Y-57956659D01*
X163112501Y-57815505D01*
X163198580Y-57654464D01*
X163251587Y-57479724D01*
X163265000Y-57343538D01*
X163265000Y-56702462D01*
X163251587Y-56566276D01*
X163198580Y-56391536D01*
X163112501Y-56230495D01*
X162996659Y-56089341D01*
X162855505Y-55973499D01*
X162694464Y-55887420D01*
X162519724Y-55834413D01*
X162338000Y-55816515D01*
X162156277Y-55834413D01*
X161981537Y-55887420D01*
X161820496Y-55973499D01*
X161679342Y-56089341D01*
X161563500Y-56230495D01*
X161477420Y-56391536D01*
X161424413Y-56566276D01*
X161411000Y-56702462D01*
X156376582Y-56702462D01*
X156376582Y-56397999D01*
X156365465Y-56285123D01*
X156332540Y-56176586D01*
X156279074Y-56076557D01*
X156207120Y-55988880D01*
X156119443Y-55916926D01*
X156019414Y-55863460D01*
X155910877Y-55830535D01*
X155798001Y-55819418D01*
X155097999Y-55819418D01*
X154985123Y-55830535D01*
X154876586Y-55863460D01*
X154776557Y-55916926D01*
X154688880Y-55988880D01*
X154616926Y-56076557D01*
X154563460Y-56176586D01*
X154530535Y-56285123D01*
X154519418Y-56397999D01*
X154310541Y-56397999D01*
X154308580Y-56391536D01*
X154222501Y-56230495D01*
X154106659Y-56089341D01*
X153965505Y-55973499D01*
X153804464Y-55887420D01*
X153629724Y-55834413D01*
X153448000Y-55816515D01*
X153266277Y-55834413D01*
X153091537Y-55887420D01*
X152930496Y-55973499D01*
X152789342Y-56089341D01*
X152673500Y-56230495D01*
X152587420Y-56391536D01*
X152534413Y-56566276D01*
X152521000Y-56702462D01*
X146978582Y-56702462D01*
X146978582Y-56397999D01*
X146967465Y-56285123D01*
X146934540Y-56176586D01*
X146881074Y-56076557D01*
X146809120Y-55988880D01*
X146721443Y-55916926D01*
X146621414Y-55863460D01*
X146512877Y-55830535D01*
X146400001Y-55819418D01*
X145699999Y-55819418D01*
X145587123Y-55830535D01*
X145478586Y-55863460D01*
X145378557Y-55916926D01*
X145290880Y-55988880D01*
X145218926Y-56076557D01*
X145165460Y-56176586D01*
X145132535Y-56285123D01*
X145121418Y-56397999D01*
X144912541Y-56397999D01*
X144910580Y-56391536D01*
X144824501Y-56230495D01*
X144708659Y-56089341D01*
X144567505Y-55973499D01*
X144406464Y-55887420D01*
X144231724Y-55834413D01*
X144050000Y-55816515D01*
X143868277Y-55834413D01*
X143693537Y-55887420D01*
X143532496Y-55973499D01*
X143391342Y-56089341D01*
X143275500Y-56230495D01*
X143189420Y-56391536D01*
X143136413Y-56566276D01*
X143123000Y-56702462D01*
X137326582Y-56702462D01*
X137326582Y-56397999D01*
X137315465Y-56285123D01*
X137282540Y-56176586D01*
X137229074Y-56076557D01*
X137157120Y-55988880D01*
X137069443Y-55916926D01*
X136969414Y-55863460D01*
X136860877Y-55830535D01*
X136748001Y-55819418D01*
X136047999Y-55819418D01*
X135935123Y-55830535D01*
X135826586Y-55863460D01*
X135726557Y-55916926D01*
X135638880Y-55988880D01*
X135566926Y-56076557D01*
X135513460Y-56176586D01*
X135480535Y-56285123D01*
X135469418Y-56397999D01*
X135260541Y-56397999D01*
X135258580Y-56391536D01*
X135172501Y-56230495D01*
X135056659Y-56089341D01*
X134915505Y-55973499D01*
X134754464Y-55887420D01*
X134579724Y-55834413D01*
X134398000Y-55816515D01*
X134216277Y-55834413D01*
X134041537Y-55887420D01*
X133880496Y-55973499D01*
X133739342Y-56089341D01*
X133623500Y-56230495D01*
X133537420Y-56391536D01*
X133484413Y-56566276D01*
X133471000Y-56702462D01*
X124782954Y-56702462D01*
X124806000Y-56586603D01*
X124806000Y-56443397D01*
X124778062Y-56302942D01*
X124723259Y-56170636D01*
X124643698Y-56051564D01*
X124542436Y-55950302D01*
X124423364Y-55870741D01*
X124291058Y-55815938D01*
X124150603Y-55788000D01*
X124007397Y-55788000D01*
X123866942Y-55815938D01*
X123734636Y-55870741D01*
X123615564Y-55950302D01*
X123514302Y-56051564D01*
X123434741Y-56170636D01*
X123379938Y-56302942D01*
X123352000Y-56443397D01*
X108614000Y-56443397D01*
X108614000Y-54494076D01*
X115282000Y-54494076D01*
X115282000Y-54725924D01*
X115327231Y-54953318D01*
X115415956Y-55167519D01*
X115544764Y-55360294D01*
X115708706Y-55524236D01*
X115901481Y-55653044D01*
X116115682Y-55741769D01*
X116343076Y-55787000D01*
X116574924Y-55787000D01*
X116802318Y-55741769D01*
X117016519Y-55653044D01*
X117209294Y-55524236D01*
X117373236Y-55360294D01*
X117502044Y-55167519D01*
X117590769Y-54953318D01*
X117636000Y-54725924D01*
X117636000Y-54494076D01*
X117822000Y-54494076D01*
X117822000Y-54725924D01*
X117867231Y-54953318D01*
X117955956Y-55167519D01*
X118084764Y-55360294D01*
X118248706Y-55524236D01*
X118441481Y-55653044D01*
X118655682Y-55741769D01*
X118883076Y-55787000D01*
X119114924Y-55787000D01*
X119342318Y-55741769D01*
X119556519Y-55653044D01*
X119749294Y-55524236D01*
X119913236Y-55360294D01*
X120042044Y-55167519D01*
X120130769Y-54953318D01*
X120176000Y-54725924D01*
X120176000Y-54494076D01*
X122902000Y-54494076D01*
X122902000Y-54725924D01*
X122947231Y-54953318D01*
X123035956Y-55167519D01*
X123164764Y-55360294D01*
X123328706Y-55524236D01*
X123521481Y-55653044D01*
X123735682Y-55741769D01*
X123963076Y-55787000D01*
X124194924Y-55787000D01*
X124422318Y-55741769D01*
X124636519Y-55653044D01*
X124829294Y-55524236D01*
X124993236Y-55360294D01*
X125122044Y-55167519D01*
X125210769Y-54953318D01*
X125256000Y-54725924D01*
X125256000Y-54494076D01*
X125210769Y-54266682D01*
X125122044Y-54052481D01*
X124993236Y-53859706D01*
X124893530Y-53760000D01*
X125440418Y-53760000D01*
X125440418Y-55460000D01*
X125446732Y-55524103D01*
X125465430Y-55585743D01*
X125495794Y-55642550D01*
X125536657Y-55692343D01*
X125586450Y-55733206D01*
X125643257Y-55763570D01*
X125704897Y-55782268D01*
X125769000Y-55788582D01*
X127469000Y-55788582D01*
X127533103Y-55782268D01*
X127594743Y-55763570D01*
X127651550Y-55733206D01*
X127701343Y-55692343D01*
X127742206Y-55642550D01*
X127772570Y-55585743D01*
X127791268Y-55524103D01*
X127797582Y-55460000D01*
X127797582Y-54233073D01*
X167623000Y-54233073D01*
X167623000Y-54986927D01*
X167770070Y-55726295D01*
X168058557Y-56422764D01*
X168477375Y-57049570D01*
X169010430Y-57582625D01*
X169637236Y-58001443D01*
X170333705Y-58289930D01*
X171073073Y-58437000D01*
X171826927Y-58437000D01*
X172566295Y-58289930D01*
X173262764Y-58001443D01*
X173889570Y-57582625D01*
X174422625Y-57049570D01*
X174841443Y-56422764D01*
X175129930Y-55726295D01*
X175277000Y-54986927D01*
X175277000Y-54233073D01*
X175129930Y-53493705D01*
X174841443Y-52797236D01*
X174422625Y-52170430D01*
X173889570Y-51637375D01*
X173262764Y-51218557D01*
X172566295Y-50930070D01*
X171826927Y-50783000D01*
X171073073Y-50783000D01*
X170333705Y-50930070D01*
X169637236Y-51218557D01*
X169010430Y-51637375D01*
X168477375Y-52170430D01*
X168058557Y-52797236D01*
X167770070Y-53493705D01*
X167623000Y-54233073D01*
X127797582Y-54233073D01*
X127797582Y-53760000D01*
X127791268Y-53695897D01*
X127772570Y-53634257D01*
X127742206Y-53577450D01*
X127701343Y-53527657D01*
X127651550Y-53486794D01*
X127594743Y-53456430D01*
X127533103Y-53437732D01*
X127469000Y-53431418D01*
X125769000Y-53431418D01*
X125704897Y-53437732D01*
X125643257Y-53456430D01*
X125586450Y-53486794D01*
X125536657Y-53527657D01*
X125495794Y-53577450D01*
X125465430Y-53634257D01*
X125446732Y-53695897D01*
X125440418Y-53760000D01*
X124893530Y-53760000D01*
X124829294Y-53695764D01*
X124636519Y-53566956D01*
X124422318Y-53478231D01*
X124194924Y-53433000D01*
X123963076Y-53433000D01*
X123735682Y-53478231D01*
X123521481Y-53566956D01*
X123328706Y-53695764D01*
X123164764Y-53859706D01*
X123035956Y-54052481D01*
X122947231Y-54266682D01*
X122902000Y-54494076D01*
X120176000Y-54494076D01*
X120130769Y-54266682D01*
X120042044Y-54052481D01*
X119913236Y-53859706D01*
X119749294Y-53695764D01*
X119556519Y-53566956D01*
X119342318Y-53478231D01*
X119114924Y-53433000D01*
X118883076Y-53433000D01*
X118655682Y-53478231D01*
X118441481Y-53566956D01*
X118248706Y-53695764D01*
X118084764Y-53859706D01*
X117955956Y-54052481D01*
X117867231Y-54266682D01*
X117822000Y-54494076D01*
X117636000Y-54494076D01*
X117590769Y-54266682D01*
X117502044Y-54052481D01*
X117373236Y-53859706D01*
X117209294Y-53695764D01*
X117016519Y-53566956D01*
X116802318Y-53478231D01*
X116574924Y-53433000D01*
X116343076Y-53433000D01*
X116115682Y-53478231D01*
X115901481Y-53566956D01*
X115708706Y-53695764D01*
X115544764Y-53859706D01*
X115415956Y-54052481D01*
X115327231Y-54266682D01*
X115282000Y-54494076D01*
X108614000Y-54494076D01*
X108614000Y-52874367D01*
X108616597Y-52847999D01*
X108614000Y-52821631D01*
X108614000Y-52821622D01*
X108606230Y-52742730D01*
X108575524Y-52641505D01*
X108552312Y-52598079D01*
X108525659Y-52548214D01*
X108475368Y-52486935D01*
X108475364Y-52486931D01*
X108458553Y-52466447D01*
X108438069Y-52449636D01*
X107562347Y-51573914D01*
X107575000Y-51510301D01*
X107575000Y-51327699D01*
X107539376Y-51148604D01*
X107469496Y-50979901D01*
X107368048Y-50828072D01*
X107238928Y-50698952D01*
X107087099Y-50597504D01*
X106918396Y-50527624D01*
X106739301Y-50492000D01*
X106556699Y-50492000D01*
X106377604Y-50527624D01*
X106208901Y-50597504D01*
X106057072Y-50698952D01*
X105927952Y-50828072D01*
X105826504Y-50979901D01*
X105756624Y-51148604D01*
X105721000Y-51327699D01*
X105721000Y-51510301D01*
X105756624Y-51689396D01*
X105812342Y-51823910D01*
X105562347Y-51573914D01*
X105575000Y-51510301D01*
X105575000Y-51327699D01*
X105539376Y-51148604D01*
X105469496Y-50979901D01*
X105368048Y-50828072D01*
X105238928Y-50698952D01*
X105087099Y-50597504D01*
X104918396Y-50527624D01*
X104739301Y-50492000D01*
X104556699Y-50492000D01*
X104377604Y-50527624D01*
X104208901Y-50597504D01*
X104057072Y-50698952D01*
X103927952Y-50828072D01*
X103826504Y-50979901D01*
X103756624Y-51148604D01*
X103721000Y-51327699D01*
X103575000Y-51327699D01*
X103539376Y-51148604D01*
X103469496Y-50979901D01*
X103368048Y-50828072D01*
X103238928Y-50698952D01*
X103087099Y-50597504D01*
X102918396Y-50527624D01*
X102739301Y-50492000D01*
X102556699Y-50492000D01*
X102377604Y-50527624D01*
X102208901Y-50597504D01*
X102057072Y-50698952D01*
X101927952Y-50828072D01*
X101826504Y-50979901D01*
X101756624Y-51148604D01*
X101721000Y-51327699D01*
X100257066Y-51327699D01*
X100412591Y-51094938D01*
X100520162Y-50835241D01*
X100575000Y-50559547D01*
X100575000Y-50278453D01*
X100520162Y-50002759D01*
X100412591Y-49743062D01*
X100256424Y-49509340D01*
X100074783Y-49327699D01*
X103721000Y-49327699D01*
X103721000Y-49510301D01*
X103756624Y-49689396D01*
X103826504Y-49858099D01*
X103927952Y-50009928D01*
X104057072Y-50139048D01*
X104208901Y-50240496D01*
X104377604Y-50310376D01*
X104556699Y-50346000D01*
X104739301Y-50346000D01*
X104918396Y-50310376D01*
X105087099Y-50240496D01*
X105238928Y-50139048D01*
X105368048Y-50009928D01*
X105469496Y-49858099D01*
X105539376Y-49689396D01*
X105575000Y-49510301D01*
X105575000Y-49327699D01*
X105539376Y-49148604D01*
X105469496Y-48979901D01*
X105368048Y-48828072D01*
X105358976Y-48819000D01*
X105719418Y-48819000D01*
X105719418Y-50019000D01*
X105725732Y-50083103D01*
X105744430Y-50144743D01*
X105774794Y-50201550D01*
X105815657Y-50251343D01*
X105865450Y-50292206D01*
X105922257Y-50322570D01*
X105983897Y-50341268D01*
X106048000Y-50347582D01*
X107248000Y-50347582D01*
X107312103Y-50341268D01*
X107373743Y-50322570D01*
X107430550Y-50292206D01*
X107447308Y-50278453D01*
X108721000Y-50278453D01*
X108721000Y-50559547D01*
X108775838Y-50835241D01*
X108883409Y-51094938D01*
X109039576Y-51328660D01*
X109238340Y-51527424D01*
X109472062Y-51683591D01*
X109731759Y-51791162D01*
X110007453Y-51846000D01*
X110288547Y-51846000D01*
X110564241Y-51791162D01*
X110823938Y-51683591D01*
X111057660Y-51527424D01*
X111256424Y-51328660D01*
X111412591Y-51094938D01*
X111520162Y-50835241D01*
X111575000Y-50559547D01*
X111575000Y-50278453D01*
X111520162Y-50002759D01*
X111412591Y-49743062D01*
X111256424Y-49509340D01*
X111057660Y-49310576D01*
X110823938Y-49154409D01*
X110564241Y-49046838D01*
X110288547Y-48992000D01*
X110007453Y-48992000D01*
X109731759Y-49046838D01*
X109472062Y-49154409D01*
X109238340Y-49310576D01*
X109039576Y-49509340D01*
X108883409Y-49743062D01*
X108775838Y-50002759D01*
X108721000Y-50278453D01*
X107447308Y-50278453D01*
X107480343Y-50251343D01*
X107521206Y-50201550D01*
X107551570Y-50144743D01*
X107570268Y-50083103D01*
X107576582Y-50019000D01*
X107576582Y-48819000D01*
X107570268Y-48754897D01*
X107551570Y-48693257D01*
X107521206Y-48636450D01*
X107480343Y-48586657D01*
X107430550Y-48545794D01*
X107373743Y-48515430D01*
X107312103Y-48496732D01*
X107248000Y-48490418D01*
X106048000Y-48490418D01*
X105983897Y-48496732D01*
X105922257Y-48515430D01*
X105865450Y-48545794D01*
X105815657Y-48586657D01*
X105774794Y-48636450D01*
X105744430Y-48693257D01*
X105725732Y-48754897D01*
X105719418Y-48819000D01*
X105358976Y-48819000D01*
X105238928Y-48698952D01*
X105087099Y-48597504D01*
X104918396Y-48527624D01*
X104739301Y-48492000D01*
X104556699Y-48492000D01*
X104377604Y-48527624D01*
X104208901Y-48597504D01*
X104057072Y-48698952D01*
X103927952Y-48828072D01*
X103826504Y-48979901D01*
X103756624Y-49148604D01*
X103721000Y-49327699D01*
X100074783Y-49327699D01*
X100057660Y-49310576D01*
X99823938Y-49154409D01*
X99564241Y-49046838D01*
X99288547Y-48992000D01*
X99007453Y-48992000D01*
X98731759Y-49046838D01*
X98472062Y-49154409D01*
X98238340Y-49310576D01*
X98039576Y-49509340D01*
X97883409Y-49743062D01*
X97775838Y-50002759D01*
X97721000Y-50278453D01*
X85777201Y-50278453D01*
X85805417Y-50245417D01*
X86541925Y-49616380D01*
X87367764Y-49110306D01*
X88262612Y-48739647D01*
X89204420Y-48513540D01*
X90176950Y-48437000D01*
X171443051Y-48437000D01*
X172415585Y-48513540D01*
G37*
%TD.AperFunction*%
%TD*%
M02*
