M48
; DRILL file {KiCad (5.1.9)-1} date 06/27/21 11:31:43
; FORMAT={-:-/ absolute / inch / decimal}
; #@! TF.CreationDate,2021-06-27T11:31:43-04:00
; #@! TF.GenerationSoftware,Kicad,Pcbnew,(5.1.9)-1
; #@! TF.FileFunction,Plated,1,4,PTH
FMAT,2
INCH
T1C0.0157
T2C0.0268
T3C0.0295
T4C0.0315
T5C0.0394
T6C0.1378
%
G90
G05
T1
X3.37Y-3.8
X3.42Y-3.015
X3.435Y-3.28
X3.515Y-3.64
X3.59Y-4.83
X3.645Y-2.93
X3.715Y-4.83
X3.7468Y-3.0418
X3.7468Y-3.7318
X3.78Y-3.9775
X3.78Y-4.65
X3.79Y-2.51
X3.805Y-2.805
X3.81Y-4.315
X3.865Y-2.265
X3.865Y-3.805
X3.91Y-5.18
X3.94Y-4.365
X3.94Y-4.585
X3.945Y-2.27
X3.975Y-3.205
X3.975Y-3.435
X3.975Y-5.525
X4.01Y-2.995
X4.045Y-4.24
X4.075Y-2.29
X4.11Y-2.175
X4.128Y-2.67
X4.165Y-4.24
X4.18Y-4.545
X4.18Y-4.665
X4.19Y-5.15
X4.205Y-2.585
X4.255Y-2.585
X4.32Y-4.82
X4.321Y-2.534
X4.33Y-5.22
X4.33Y-5.535
X4.335Y-4.55
X4.385Y-2.175
X4.385Y-2.295
X4.445Y-4.815
X4.46Y-4.545
X4.4725Y-2.6175
X4.495Y-2.885
X4.54Y-3.525
X4.545Y-4.505
X4.5454Y-5.2896
X4.58Y-4.02
X4.61Y-4.345
X4.625Y-2.32
X4.625Y-2.37
X4.67Y-5.285
X4.695Y-2.92
X4.735Y-3.525
X4.75Y-2.92
X4.78Y-4.025
X4.835Y-4.345
X4.885Y-2.225
X4.89Y-2.5425
X4.9625Y-2.4825
X4.9675Y-2.6325
X4.98Y-4.025
X5.085Y-3.445
X5.085Y-3.51
X5.505Y-5.125
X5.585Y-3.31
X5.685Y-4.915
X5.685Y-5.015
X5.85Y-5.13
X5.87Y-3.505
X5.875Y-3.21
X5.875Y-3.31
X5.875Y-3.41
X5.925Y-3.26
X5.925Y-3.36
X5.925Y-3.46
X5.925Y-3.56
X5.975Y-3.21
X5.975Y-3.31
X5.975Y-3.41
X5.975Y-3.51
X5.975Y-3.61
X6.0Y-4.515
X6.02Y-2.52
X6.025Y-3.26
X6.025Y-3.36
X6.025Y-3.46
X6.025Y-3.56
X6.05Y-5.13
X6.0546Y-3.9846
X6.075Y-3.21
X6.075Y-3.31
X6.075Y-3.41
X6.075Y-3.51
X6.075Y-3.61
X6.095Y-2.715
X6.12Y-4.52
X6.125Y-3.26
X6.125Y-3.36
X6.125Y-3.46
X6.125Y-3.56
X6.15Y-3.985
X6.175Y-3.21
X6.175Y-3.31
X6.175Y-3.41
X6.175Y-3.51
X6.175Y-3.61
X6.21Y-4.075
X6.21Y-4.125
X6.225Y-3.26
X6.225Y-3.36
X6.225Y-3.46
X6.225Y-3.56
X6.26Y-2.515
X6.26Y-4.1
X6.31Y-4.1
X6.3312Y-4.2838
X6.36Y-4.075
X6.36Y-4.125
X6.415Y-4.93
X6.415Y-5.14
X6.425Y-4.325
X6.435Y-2.515
X6.435Y-4.21
X6.465Y-4.395
X6.465Y-5.115
X6.47Y-2.355
X6.47Y-3.365
X6.495Y-3.415
X6.495Y-3.515
X6.495Y-3.615
X6.52Y-5.29
X6.545Y-3.465
X6.545Y-3.565
X6.545Y-3.665
X6.595Y-3.415
X6.595Y-3.515
X6.595Y-3.615
X6.595Y-5.145
X6.645Y-3.365
X6.645Y-3.465
X6.645Y-3.565
X6.645Y-3.665
X6.6617Y-5.0733
X6.695Y-3.415
X6.695Y-3.515
X6.695Y-3.615
X6.745Y-3.365
X6.745Y-3.465
X6.745Y-3.565
X6.745Y-3.665
X6.795Y-3.415
X6.795Y-3.515
X6.795Y-3.615
X6.8Y-4.98
X6.8004Y-4.0004
X6.845Y-3.365
X6.845Y-3.465
X6.845Y-3.565
X6.845Y-3.665
T2
X4.0413Y-1.9456
X4.0413Y-2.0244
X4.12Y-1.9456
X4.12Y-2.0244
X4.1987Y-1.9456
X4.1987Y-2.0244
T3
X5.2913Y-2.245
X5.37Y-2.245
X5.6713Y-2.245
X5.75Y-2.245
X6.0413Y-2.245
X6.12Y-2.245
X6.3913Y-2.245
X6.47Y-2.245
T4
X4.6179Y-2.775
X4.81Y-2.775
T5
X3.495Y-5.31
X3.595Y-5.31
X3.755Y-4.215
X3.93Y-4.69
X4.01Y-5.18
X4.11Y-5.18
X4.475Y-5.475
X4.585Y-2.15
X4.685Y-2.15
X4.705Y-4.715
X4.705Y-4.815
X4.785Y-2.15
X4.885Y-2.15
X4.925Y-4.185
X4.985Y-2.15
X5.4Y-2.975
X5.4Y-3.075
X5.4Y-3.175
X5.65Y-2.57
X5.65Y-2.67
X5.65Y-2.77
T6
X3.55Y-2.15
X3.55Y-5.55
X6.75Y-2.15
X6.75Y-5.55
T0
M30
