G04 #@! TF.GenerationSoftware,KiCad,Pcbnew,6.0.0*
G04 #@! TF.CreationDate,2022-02-03T14:52:20-05:00*
G04 #@! TF.ProjectId,mama_board,6d616d61-5f62-46f6-9172-642e6b696361,rev?*
G04 #@! TF.SameCoordinates,Original*
G04 #@! TF.FileFunction,Legend,Top*
G04 #@! TF.FilePolarity,Positive*
%FSLAX46Y46*%
G04 Gerber Fmt 4.6, Leading zero omitted, Abs format (unit mm)*
G04 Created by KiCad (PCBNEW 6.0.0) date 2022-02-03 14:52:20*
%MOMM*%
%LPD*%
G01*
G04 APERTURE LIST*
G04 Aperture macros list*
%AMRoundRect*
0 Rectangle with rounded corners*
0 $1 Rounding radius*
0 $2 $3 $4 $5 $6 $7 $8 $9 X,Y pos of 4 corners*
0 Add a 4 corners polygon primitive as box body*
4,1,4,$2,$3,$4,$5,$6,$7,$8,$9,$2,$3,0*
0 Add four circle primitives for the rounded corners*
1,1,$1+$1,$2,$3*
1,1,$1+$1,$4,$5*
1,1,$1+$1,$6,$7*
1,1,$1+$1,$8,$9*
0 Add four rect primitives between the rounded corners*
20,1,$1+$1,$2,$3,$4,$5,0*
20,1,$1+$1,$4,$5,$6,$7,0*
20,1,$1+$1,$6,$7,$8,$9,0*
20,1,$1+$1,$8,$9,$2,$3,0*%
G04 Aperture macros list end*
%ADD10C,0.150000*%
%ADD11C,0.300000*%
%ADD12C,0.250000*%
%ADD13C,0.010000*%
%ADD14C,0.120000*%
%ADD15C,1.625600*%
%ADD16O,1.701600X1.701600*%
%ADD17RoundRect,0.050800X0.800000X0.800000X-0.800000X0.800000X-0.800000X-0.800000X0.800000X-0.800000X0*%
%ADD18RoundRect,0.300799X0.325001X0.450001X-0.325001X0.450001X-0.325001X-0.450001X0.325001X-0.450001X0*%
%ADD19RoundRect,0.300799X-0.325001X-0.450001X0.325001X-0.450001X0.325001X0.450001X-0.325001X0.450001X0*%
%ADD20RoundRect,0.300799X0.450001X-0.325001X0.450001X0.325001X-0.450001X0.325001X-0.450001X-0.325001X0*%
%ADD21C,7.101600*%
%ADD22RoundRect,0.200800X-0.150000X0.750000X-0.150000X-0.750000X0.150000X-0.750000X0.150000X0.750000X0*%
%ADD23RoundRect,0.150800X-0.712500X-0.100000X0.712500X-0.100000X0.712500X0.100000X-0.712500X0.100000X0*%
%ADD24RoundRect,0.050800X-0.850000X-0.850000X0.850000X-0.850000X0.850000X0.850000X-0.850000X0.850000X0*%
%ADD25RoundRect,0.300799X-0.450001X0.325001X-0.450001X-0.325001X0.450001X-0.325001X0.450001X0.325001X0*%
%ADD26O,1.801600X1.801600*%
%ADD27RoundRect,0.050800X0.850000X-0.850000X0.850000X0.850000X-0.850000X0.850000X-0.850000X-0.850000X0*%
%ADD28RoundRect,0.050800X0.850000X0.850000X-0.850000X0.850000X-0.850000X-0.850000X0.850000X-0.850000X0*%
%ADD29RoundRect,0.050800X-0.500000X-0.500000X0.500000X-0.500000X0.500000X0.500000X-0.500000X0.500000X0*%
%ADD30C,1.601600*%
%ADD31RoundRect,0.050800X-0.800000X-0.800000X0.800000X-0.800000X0.800000X0.800000X-0.800000X0.800000X0*%
%ADD32RoundRect,0.200800X-0.150000X0.825000X-0.150000X-0.825000X0.150000X-0.825000X0.150000X0.825000X0*%
%ADD33RoundRect,0.050800X1.000000X0.325000X-1.000000X0.325000X-1.000000X-0.325000X1.000000X-0.325000X0*%
%ADD34RoundRect,0.050800X-0.325000X0.530000X-0.325000X-0.530000X0.325000X-0.530000X0.325000X0.530000X0*%
%ADD35RoundRect,0.050800X-0.850000X0.850000X-0.850000X-0.850000X0.850000X-0.850000X0.850000X0.850000X0*%
%ADD36C,1.301600*%
%ADD37RoundRect,0.050800X0.600000X-0.600000X0.600000X0.600000X-0.600000X0.600000X-0.600000X-0.600000X0*%
%ADD38C,2.301600*%
%ADD39RoundRect,0.300800X0.625000X-0.462500X0.625000X0.462500X-0.625000X0.462500X-0.625000X-0.462500X0*%
G04 APERTURE END LIST*
D10*
X150286057Y-112374419D02*
X150333676Y-112326800D01*
X150428914Y-112279180D01*
X150667009Y-112279180D01*
X150762247Y-112326800D01*
X150809866Y-112374419D01*
X150857485Y-112469657D01*
X150857485Y-112564895D01*
X150809866Y-112707752D01*
X150238438Y-113279180D01*
X150857485Y-113279180D01*
X151476533Y-112279180D02*
X151571771Y-112279180D01*
X151667009Y-112326800D01*
X151714628Y-112374419D01*
X151762247Y-112469657D01*
X151809866Y-112660133D01*
X151809866Y-112898228D01*
X151762247Y-113088704D01*
X151714628Y-113183942D01*
X151667009Y-113231561D01*
X151571771Y-113279180D01*
X151476533Y-113279180D01*
X151381295Y-113231561D01*
X151333676Y-113183942D01*
X151286057Y-113088704D01*
X151238438Y-112898228D01*
X151238438Y-112660133D01*
X151286057Y-112469657D01*
X151333676Y-112374419D01*
X151381295Y-112326800D01*
X151476533Y-112279180D01*
X152190819Y-112374419D02*
X152238438Y-112326800D01*
X152333676Y-112279180D01*
X152571771Y-112279180D01*
X152667009Y-112326800D01*
X152714628Y-112374419D01*
X152762247Y-112469657D01*
X152762247Y-112564895D01*
X152714628Y-112707752D01*
X152143200Y-113279180D01*
X152762247Y-113279180D01*
X153143200Y-112374419D02*
X153190819Y-112326800D01*
X153286057Y-112279180D01*
X153524152Y-112279180D01*
X153619390Y-112326800D01*
X153667009Y-112374419D01*
X153714628Y-112469657D01*
X153714628Y-112564895D01*
X153667009Y-112707752D01*
X153095580Y-113279180D01*
X153714628Y-113279180D01*
X154143200Y-112898228D02*
X154905104Y-112898228D01*
X155571771Y-112279180D02*
X155667009Y-112279180D01*
X155762247Y-112326800D01*
X155809866Y-112374419D01*
X155857485Y-112469657D01*
X155905104Y-112660133D01*
X155905104Y-112898228D01*
X155857485Y-113088704D01*
X155809866Y-113183942D01*
X155762247Y-113231561D01*
X155667009Y-113279180D01*
X155571771Y-113279180D01*
X155476533Y-113231561D01*
X155428914Y-113183942D01*
X155381295Y-113088704D01*
X155333676Y-112898228D01*
X155333676Y-112660133D01*
X155381295Y-112469657D01*
X155428914Y-112374419D01*
X155476533Y-112326800D01*
X155571771Y-112279180D01*
X156857485Y-113279180D02*
X156286057Y-113279180D01*
X156571771Y-113279180D02*
X156571771Y-112279180D01*
X156476533Y-112422038D01*
X156381295Y-112517276D01*
X156286057Y-112564895D01*
X157286057Y-112898228D02*
X158047961Y-112898228D01*
X159047961Y-113279180D02*
X158476533Y-113279180D01*
X158762247Y-113279180D02*
X158762247Y-112279180D01*
X158667009Y-112422038D01*
X158571771Y-112517276D01*
X158476533Y-112564895D01*
X159905104Y-112612514D02*
X159905104Y-113279180D01*
X159667009Y-112231561D02*
X159428914Y-112945847D01*
X160047961Y-112945847D01*
D11*
X151062228Y-111473371D02*
X150562228Y-110759085D01*
X150205085Y-111473371D02*
X150205085Y-109973371D01*
X150776514Y-109973371D01*
X150919371Y-110044800D01*
X150990800Y-110116228D01*
X151062228Y-110259085D01*
X151062228Y-110473371D01*
X150990800Y-110616228D01*
X150919371Y-110687657D01*
X150776514Y-110759085D01*
X150205085Y-110759085D01*
X151705085Y-111330514D02*
X151776514Y-111401942D01*
X151705085Y-111473371D01*
X151633657Y-111401942D01*
X151705085Y-111330514D01*
X151705085Y-111473371D01*
X153562228Y-111473371D02*
X153562228Y-109973371D01*
X153919371Y-109973371D01*
X154133657Y-110044800D01*
X154276514Y-110187657D01*
X154347942Y-110330514D01*
X154419371Y-110616228D01*
X154419371Y-110830514D01*
X154347942Y-111116228D01*
X154276514Y-111259085D01*
X154133657Y-111401942D01*
X153919371Y-111473371D01*
X153562228Y-111473371D01*
X155705085Y-111473371D02*
X155705085Y-110687657D01*
X155633657Y-110544800D01*
X155490800Y-110473371D01*
X155205085Y-110473371D01*
X155062228Y-110544800D01*
X155705085Y-111401942D02*
X155562228Y-111473371D01*
X155205085Y-111473371D01*
X155062228Y-111401942D01*
X154990800Y-111259085D01*
X154990800Y-111116228D01*
X155062228Y-110973371D01*
X155205085Y-110901942D01*
X155562228Y-110901942D01*
X155705085Y-110830514D01*
X156419371Y-111473371D02*
X156419371Y-109973371D01*
X156562228Y-110901942D02*
X156990800Y-111473371D01*
X156990800Y-110473371D02*
X156419371Y-111044800D01*
X157633657Y-111473371D02*
X157633657Y-109973371D01*
X158276514Y-111473371D02*
X158276514Y-110687657D01*
X158205085Y-110544800D01*
X158062228Y-110473371D01*
X157847942Y-110473371D01*
X157705085Y-110544800D01*
X157633657Y-110616228D01*
X158990800Y-111473371D02*
X158990800Y-110473371D01*
X158990800Y-109973371D02*
X158919371Y-110044800D01*
X158990800Y-110116228D01*
X159062228Y-110044800D01*
X158990800Y-109973371D01*
X158990800Y-110116228D01*
X159919371Y-111473371D02*
X159776514Y-111401942D01*
X159705085Y-111259085D01*
X159705085Y-109973371D01*
X150847942Y-109085771D02*
X150133657Y-109085771D01*
X150133657Y-107585771D01*
X151347942Y-108942914D02*
X151419371Y-109014342D01*
X151347942Y-109085771D01*
X151276514Y-109014342D01*
X151347942Y-108942914D01*
X151347942Y-109085771D01*
X152990800Y-107585771D02*
X153847942Y-107585771D01*
X153419371Y-109085771D02*
X153419371Y-107585771D01*
X154562228Y-109085771D02*
X154419371Y-109014342D01*
X154347942Y-108942914D01*
X154276514Y-108800057D01*
X154276514Y-108371485D01*
X154347942Y-108228628D01*
X154419371Y-108157200D01*
X154562228Y-108085771D01*
X154776514Y-108085771D01*
X154919371Y-108157200D01*
X154990800Y-108228628D01*
X155062228Y-108371485D01*
X155062228Y-108800057D01*
X154990800Y-108942914D01*
X154919371Y-109014342D01*
X154776514Y-109085771D01*
X154562228Y-109085771D01*
X155705085Y-109085771D02*
X155705085Y-108085771D01*
X155705085Y-108228628D02*
X155776514Y-108157200D01*
X155919371Y-108085771D01*
X156133657Y-108085771D01*
X156276514Y-108157200D01*
X156347942Y-108300057D01*
X156347942Y-109085771D01*
X156347942Y-108300057D02*
X156419371Y-108157200D01*
X156562228Y-108085771D01*
X156776514Y-108085771D01*
X156919371Y-108157200D01*
X156990800Y-108300057D01*
X156990800Y-109085771D01*
X157919371Y-109085771D02*
X157776514Y-109014342D01*
X157705085Y-108871485D01*
X157705085Y-107585771D01*
X158490800Y-109085771D02*
X158490800Y-108085771D01*
X158490800Y-107585771D02*
X158419371Y-107657200D01*
X158490800Y-107728628D01*
X158562228Y-107657200D01*
X158490800Y-107585771D01*
X158490800Y-107728628D01*
X159205085Y-108085771D02*
X159205085Y-109085771D01*
X159205085Y-108228628D02*
X159276514Y-108157200D01*
X159419371Y-108085771D01*
X159633657Y-108085771D01*
X159776514Y-108157200D01*
X159847942Y-108300057D01*
X159847942Y-109085771D01*
D10*
X160540700Y-141173200D02*
X160550000Y-151975000D01*
X152622619Y-98460714D02*
X152584523Y-98498809D01*
X152470238Y-98536904D01*
X152394047Y-98536904D01*
X152279761Y-98498809D01*
X152203571Y-98422619D01*
X152165476Y-98346428D01*
X152127380Y-98194047D01*
X152127380Y-98079761D01*
X152165476Y-97927380D01*
X152203571Y-97851190D01*
X152279761Y-97775000D01*
X152394047Y-97736904D01*
X152470238Y-97736904D01*
X152584523Y-97775000D01*
X152622619Y-97813095D01*
X149032142Y-98042857D02*
X149146428Y-98080952D01*
X149184523Y-98119047D01*
X149222619Y-98195238D01*
X149222619Y-98309523D01*
X149184523Y-98385714D01*
X149146428Y-98423809D01*
X149070238Y-98461904D01*
X148765476Y-98461904D01*
X148765476Y-97661904D01*
X149032142Y-97661904D01*
X149108333Y-97700000D01*
X149146428Y-97738095D01*
X149184523Y-97814285D01*
X149184523Y-97890476D01*
X149146428Y-97966666D01*
X149108333Y-98004761D01*
X149032142Y-98042857D01*
X148765476Y-98042857D01*
X145772619Y-98436904D02*
X145505952Y-98055952D01*
X145315476Y-98436904D02*
X145315476Y-97636904D01*
X145620238Y-97636904D01*
X145696428Y-97675000D01*
X145734523Y-97713095D01*
X145772619Y-97789285D01*
X145772619Y-97903571D01*
X145734523Y-97979761D01*
X145696428Y-98017857D01*
X145620238Y-98055952D01*
X145315476Y-98055952D01*
X185638095Y-91050000D02*
X185542857Y-91002380D01*
X185400000Y-91002380D01*
X185257142Y-91050000D01*
X185161904Y-91145238D01*
X185114285Y-91240476D01*
X185066666Y-91430952D01*
X185066666Y-91573809D01*
X185114285Y-91764285D01*
X185161904Y-91859523D01*
X185257142Y-91954761D01*
X185400000Y-92002380D01*
X185495238Y-92002380D01*
X185638095Y-91954761D01*
X185685714Y-91907142D01*
X185685714Y-91573809D01*
X185495238Y-91573809D01*
X186114285Y-92002380D02*
X186114285Y-91002380D01*
X186685714Y-92002380D01*
X186685714Y-91002380D01*
X187161904Y-92002380D02*
X187161904Y-91002380D01*
X187400000Y-91002380D01*
X187542857Y-91050000D01*
X187638095Y-91145238D01*
X187685714Y-91240476D01*
X187733333Y-91430952D01*
X187733333Y-91573809D01*
X187685714Y-91764285D01*
X187638095Y-91859523D01*
X187542857Y-91954761D01*
X187400000Y-92002380D01*
X187161904Y-92002380D01*
X185211904Y-88452380D02*
X185830952Y-88452380D01*
X185497619Y-88833333D01*
X185640476Y-88833333D01*
X185735714Y-88880952D01*
X185783333Y-88928571D01*
X185830952Y-89023809D01*
X185830952Y-89261904D01*
X185783333Y-89357142D01*
X185735714Y-89404761D01*
X185640476Y-89452380D01*
X185354761Y-89452380D01*
X185259523Y-89404761D01*
X185211904Y-89357142D01*
X186164285Y-88452380D02*
X186830952Y-88452380D01*
X186402380Y-89452380D01*
X187069047Y-88452380D02*
X187402380Y-89452380D01*
X187735714Y-88452380D01*
X185984523Y-85752380D02*
X185508333Y-85752380D01*
X185460714Y-86228571D01*
X185508333Y-86180952D01*
X185603571Y-86133333D01*
X185841666Y-86133333D01*
X185936904Y-86180952D01*
X185984523Y-86228571D01*
X186032142Y-86323809D01*
X186032142Y-86561904D01*
X185984523Y-86657142D01*
X185936904Y-86704761D01*
X185841666Y-86752380D01*
X185603571Y-86752380D01*
X185508333Y-86704761D01*
X185460714Y-86657142D01*
X186317857Y-85752380D02*
X186651190Y-86752380D01*
X186984523Y-85752380D01*
D12*
X167553411Y-78350708D02*
X168315316Y-78350708D01*
X167934363Y-78731660D02*
X167934363Y-77969756D01*
X168696268Y-77731660D02*
X169315316Y-77731660D01*
X168981982Y-78112613D01*
X169124840Y-78112613D01*
X169220078Y-78160232D01*
X169267697Y-78207851D01*
X169315316Y-78303089D01*
X169315316Y-78541184D01*
X169267697Y-78636422D01*
X169220078Y-78684041D01*
X169124840Y-78731660D01*
X168839125Y-78731660D01*
X168743887Y-78684041D01*
X168696268Y-78636422D01*
X169648649Y-77731660D02*
X170315316Y-77731660D01*
X169886744Y-78731660D01*
X170553411Y-77731660D02*
X170886744Y-78731660D01*
X171220078Y-77731660D01*
X172791506Y-78731660D02*
X172315316Y-78731660D01*
X172315316Y-77731660D01*
X173124840Y-78731660D02*
X173124840Y-77731660D01*
X173362935Y-77731660D01*
X173505792Y-77779280D01*
X173601030Y-77874518D01*
X173648649Y-77969756D01*
X173696268Y-78160232D01*
X173696268Y-78303089D01*
X173648649Y-78493565D01*
X173601030Y-78588803D01*
X173505792Y-78684041D01*
X173362935Y-78731660D01*
X173124840Y-78731660D01*
X174315316Y-77731660D02*
X174505792Y-77731660D01*
X174601030Y-77779280D01*
X174696268Y-77874518D01*
X174743887Y-78064994D01*
X174743887Y-78398327D01*
X174696268Y-78588803D01*
X174601030Y-78684041D01*
X174505792Y-78731660D01*
X174315316Y-78731660D01*
X174220078Y-78684041D01*
X174124840Y-78588803D01*
X174077220Y-78398327D01*
X174077220Y-78064994D01*
X174124840Y-77874518D01*
X174220078Y-77779280D01*
X174315316Y-77731660D01*
D10*
X161624840Y-88779280D02*
X175624840Y-88779280D01*
X161624840Y-77279280D02*
X161624840Y-88779280D01*
X175624840Y-77279280D02*
X161624840Y-77279280D01*
X175624840Y-88779280D02*
X175624840Y-77279280D01*
D12*
X176625000Y-74166428D02*
X177386904Y-74166428D01*
X177005952Y-74547380D02*
X177005952Y-73785476D01*
X178291666Y-73880714D02*
X178291666Y-74547380D01*
X178053571Y-73499761D02*
X177815476Y-74214047D01*
X178434523Y-74214047D01*
X178815476Y-74452142D02*
X178863095Y-74499761D01*
X178815476Y-74547380D01*
X178767857Y-74499761D01*
X178815476Y-74452142D01*
X178815476Y-74547380D01*
X179196428Y-73547380D02*
X179863095Y-73547380D01*
X179434523Y-74547380D01*
X180101190Y-73547380D02*
X180434523Y-74547380D01*
X180767857Y-73547380D01*
X177910714Y-76157380D02*
X177434523Y-76157380D01*
X177434523Y-75157380D01*
X178244047Y-76157380D02*
X178244047Y-75157380D01*
X178482142Y-75157380D01*
X178625000Y-75205000D01*
X178720238Y-75300238D01*
X178767857Y-75395476D01*
X178815476Y-75585952D01*
X178815476Y-75728809D01*
X178767857Y-75919285D01*
X178720238Y-76014523D01*
X178625000Y-76109761D01*
X178482142Y-76157380D01*
X178244047Y-76157380D01*
X179434523Y-75157380D02*
X179625000Y-75157380D01*
X179720238Y-75205000D01*
X179815476Y-75300238D01*
X179863095Y-75490714D01*
X179863095Y-75824047D01*
X179815476Y-76014523D01*
X179720238Y-76109761D01*
X179625000Y-76157380D01*
X179434523Y-76157380D01*
X179339285Y-76109761D01*
X179244047Y-76014523D01*
X179196428Y-75824047D01*
X179196428Y-75490714D01*
X179244047Y-75300238D01*
X179339285Y-75205000D01*
X179434523Y-75157380D01*
D10*
X176124840Y-72954280D02*
X180624840Y-72954280D01*
X176124840Y-83954280D02*
X176124840Y-72954280D01*
X187124840Y-83954280D02*
X176124840Y-83954280D01*
X187124840Y-72954280D02*
X187124840Y-83954280D01*
X186624840Y-72954280D02*
X187124840Y-72954280D01*
D12*
X130043466Y-150194971D02*
X129710133Y-150194971D01*
X129710133Y-150718780D02*
X129710133Y-149718780D01*
X130186323Y-149718780D01*
X130567276Y-150718780D02*
X130567276Y-149718780D01*
X131519657Y-150718780D02*
X131043466Y-150718780D01*
X131043466Y-149718780D01*
X131710133Y-149718780D02*
X132281561Y-149718780D01*
X131995847Y-150718780D02*
X131995847Y-149718780D01*
X132614895Y-150194971D02*
X132948228Y-150194971D01*
X133091085Y-150718780D02*
X132614895Y-150718780D01*
X132614895Y-149718780D01*
X133091085Y-149718780D01*
X134091085Y-150718780D02*
X133757752Y-150242590D01*
X133519657Y-150718780D02*
X133519657Y-149718780D01*
X133900609Y-149718780D01*
X133995847Y-149766400D01*
X134043466Y-149814019D01*
X134091085Y-149909257D01*
X134091085Y-150052114D01*
X134043466Y-150147352D01*
X133995847Y-150194971D01*
X133900609Y-150242590D01*
X133519657Y-150242590D01*
X156103866Y-147058071D02*
X155770533Y-147058071D01*
X155770533Y-147581880D02*
X155770533Y-146581880D01*
X156246723Y-146581880D01*
X156627676Y-147581880D02*
X156627676Y-146581880D01*
X157580057Y-147581880D02*
X157103866Y-147581880D01*
X157103866Y-146581880D01*
X157770533Y-146581880D02*
X158341961Y-146581880D01*
X158056247Y-147581880D02*
X158056247Y-146581880D01*
X158675295Y-147058071D02*
X159008628Y-147058071D01*
X159151485Y-147581880D02*
X158675295Y-147581880D01*
X158675295Y-146581880D01*
X159151485Y-146581880D01*
X160151485Y-147581880D02*
X159818152Y-147105690D01*
X159580057Y-147581880D02*
X159580057Y-146581880D01*
X159961009Y-146581880D01*
X160056247Y-146629500D01*
X160103866Y-146677119D01*
X160151485Y-146772357D01*
X160151485Y-146915214D01*
X160103866Y-147010452D01*
X160056247Y-147058071D01*
X159961009Y-147105690D01*
X159580057Y-147105690D01*
X182341666Y-143353571D02*
X182008333Y-143353571D01*
X182008333Y-143877380D02*
X182008333Y-142877380D01*
X182484523Y-142877380D01*
X182865476Y-143877380D02*
X182865476Y-142877380D01*
X183817857Y-143877380D02*
X183341666Y-143877380D01*
X183341666Y-142877380D01*
X184008333Y-142877380D02*
X184579761Y-142877380D01*
X184294047Y-143877380D02*
X184294047Y-142877380D01*
X184913095Y-143353571D02*
X185246428Y-143353571D01*
X185389285Y-143877380D02*
X184913095Y-143877380D01*
X184913095Y-142877380D01*
X185389285Y-142877380D01*
X186389285Y-143877380D02*
X186055952Y-143401190D01*
X185817857Y-143877380D02*
X185817857Y-142877380D01*
X186198809Y-142877380D01*
X186294047Y-142925000D01*
X186341666Y-142972619D01*
X186389285Y-143067857D01*
X186389285Y-143210714D01*
X186341666Y-143305952D01*
X186294047Y-143353571D01*
X186198809Y-143401190D01*
X185817857Y-143401190D01*
X163035714Y-139327380D02*
X163607142Y-139327380D01*
X163321428Y-140327380D02*
X163321428Y-139327380D01*
X164511904Y-140327380D02*
X164178571Y-139851190D01*
X163940476Y-140327380D02*
X163940476Y-139327380D01*
X164321428Y-139327380D01*
X164416666Y-139375000D01*
X164464285Y-139422619D01*
X164511904Y-139517857D01*
X164511904Y-139660714D01*
X164464285Y-139755952D01*
X164416666Y-139803571D01*
X164321428Y-139851190D01*
X163940476Y-139851190D01*
X164892857Y-140041666D02*
X165369047Y-140041666D01*
X164797619Y-140327380D02*
X165130952Y-139327380D01*
X165464285Y-140327380D01*
X165797619Y-140327380D02*
X165797619Y-139327380D01*
X166369047Y-140327380D01*
X166369047Y-139327380D01*
X166797619Y-140279761D02*
X166940476Y-140327380D01*
X167178571Y-140327380D01*
X167273809Y-140279761D01*
X167321428Y-140232142D01*
X167369047Y-140136904D01*
X167369047Y-140041666D01*
X167321428Y-139946428D01*
X167273809Y-139898809D01*
X167178571Y-139851190D01*
X166988095Y-139803571D01*
X166892857Y-139755952D01*
X166845238Y-139708333D01*
X166797619Y-139613095D01*
X166797619Y-139517857D01*
X166845238Y-139422619D01*
X166892857Y-139375000D01*
X166988095Y-139327380D01*
X167226190Y-139327380D01*
X167369047Y-139375000D01*
X135185714Y-138252380D02*
X135757142Y-138252380D01*
X135471428Y-139252380D02*
X135471428Y-138252380D01*
X136661904Y-139252380D02*
X136328571Y-138776190D01*
X136090476Y-139252380D02*
X136090476Y-138252380D01*
X136471428Y-138252380D01*
X136566666Y-138300000D01*
X136614285Y-138347619D01*
X136661904Y-138442857D01*
X136661904Y-138585714D01*
X136614285Y-138680952D01*
X136566666Y-138728571D01*
X136471428Y-138776190D01*
X136090476Y-138776190D01*
X137042857Y-138966666D02*
X137519047Y-138966666D01*
X136947619Y-139252380D02*
X137280952Y-138252380D01*
X137614285Y-139252380D01*
X137947619Y-139252380D02*
X137947619Y-138252380D01*
X138519047Y-139252380D01*
X138519047Y-138252380D01*
X138947619Y-139204761D02*
X139090476Y-139252380D01*
X139328571Y-139252380D01*
X139423809Y-139204761D01*
X139471428Y-139157142D01*
X139519047Y-139061904D01*
X139519047Y-138966666D01*
X139471428Y-138871428D01*
X139423809Y-138823809D01*
X139328571Y-138776190D01*
X139138095Y-138728571D01*
X139042857Y-138680952D01*
X138995238Y-138633333D01*
X138947619Y-138538095D01*
X138947619Y-138442857D01*
X138995238Y-138347619D01*
X139042857Y-138300000D01*
X139138095Y-138252380D01*
X139376190Y-138252380D01*
X139519047Y-138300000D01*
X109085714Y-138402380D02*
X109657142Y-138402380D01*
X109371428Y-139402380D02*
X109371428Y-138402380D01*
X110561904Y-139402380D02*
X110228571Y-138926190D01*
X109990476Y-139402380D02*
X109990476Y-138402380D01*
X110371428Y-138402380D01*
X110466666Y-138450000D01*
X110514285Y-138497619D01*
X110561904Y-138592857D01*
X110561904Y-138735714D01*
X110514285Y-138830952D01*
X110466666Y-138878571D01*
X110371428Y-138926190D01*
X109990476Y-138926190D01*
X110942857Y-139116666D02*
X111419047Y-139116666D01*
X110847619Y-139402380D02*
X111180952Y-138402380D01*
X111514285Y-139402380D01*
X111847619Y-139402380D02*
X111847619Y-138402380D01*
X112419047Y-139402380D01*
X112419047Y-138402380D01*
X112847619Y-139354761D02*
X112990476Y-139402380D01*
X113228571Y-139402380D01*
X113323809Y-139354761D01*
X113371428Y-139307142D01*
X113419047Y-139211904D01*
X113419047Y-139116666D01*
X113371428Y-139021428D01*
X113323809Y-138973809D01*
X113228571Y-138926190D01*
X113038095Y-138878571D01*
X112942857Y-138830952D01*
X112895238Y-138783333D01*
X112847619Y-138688095D01*
X112847619Y-138592857D01*
X112895238Y-138497619D01*
X112942857Y-138450000D01*
X113038095Y-138402380D01*
X113276190Y-138402380D01*
X113419047Y-138450000D01*
X138238076Y-127103166D02*
X138714266Y-127103166D01*
X138142838Y-127388880D02*
X138476171Y-126388880D01*
X138809504Y-127388880D01*
X139142838Y-127388880D02*
X139142838Y-126388880D01*
X139476171Y-127103166D01*
X139809504Y-126388880D01*
X139809504Y-127388880D01*
X140285695Y-127388880D02*
X140285695Y-126388880D01*
X140666647Y-126388880D01*
X140761885Y-126436500D01*
X140809504Y-126484119D01*
X140857123Y-126579357D01*
X140857123Y-126722214D01*
X140809504Y-126817452D01*
X140761885Y-126865071D01*
X140666647Y-126912690D01*
X140285695Y-126912690D01*
X157867196Y-126745026D02*
X158343386Y-126745026D01*
X157771958Y-127030740D02*
X158105291Y-126030740D01*
X158438624Y-127030740D01*
X158771958Y-127030740D02*
X158771958Y-126030740D01*
X159105291Y-126745026D01*
X159438624Y-126030740D01*
X159438624Y-127030740D01*
X159914815Y-127030740D02*
X159914815Y-126030740D01*
X160295767Y-126030740D01*
X160391005Y-126078360D01*
X160438624Y-126125979D01*
X160486243Y-126221217D01*
X160486243Y-126364074D01*
X160438624Y-126459312D01*
X160391005Y-126506931D01*
X160295767Y-126554550D01*
X159914815Y-126554550D01*
X178550476Y-129466666D02*
X179026666Y-129466666D01*
X178455238Y-129752380D02*
X178788571Y-128752380D01*
X179121904Y-129752380D01*
X179455238Y-129752380D02*
X179455238Y-128752380D01*
X179788571Y-129466666D01*
X180121904Y-128752380D01*
X180121904Y-129752380D01*
X180598095Y-129752380D02*
X180598095Y-128752380D01*
X180979047Y-128752380D01*
X181074285Y-128800000D01*
X181121904Y-128847619D01*
X181169523Y-128942857D01*
X181169523Y-129085714D01*
X181121904Y-129180952D01*
X181074285Y-129228571D01*
X180979047Y-129276190D01*
X180598095Y-129276190D01*
X160936419Y-117811080D02*
X160936419Y-116811080D01*
X161174514Y-116811080D01*
X161317371Y-116858700D01*
X161412609Y-116953938D01*
X161460228Y-117049176D01*
X161507847Y-117239652D01*
X161507847Y-117382509D01*
X161460228Y-117572985D01*
X161412609Y-117668223D01*
X161317371Y-117763461D01*
X161174514Y-117811080D01*
X160936419Y-117811080D01*
X161936419Y-117287271D02*
X162269752Y-117287271D01*
X162412609Y-117811080D02*
X161936419Y-117811080D01*
X161936419Y-116811080D01*
X162412609Y-116811080D01*
X162698323Y-116811080D02*
X163269752Y-116811080D01*
X162984038Y-117811080D02*
X162984038Y-116811080D01*
X163603085Y-117287271D02*
X163936419Y-117287271D01*
X164079276Y-117811080D02*
X163603085Y-117811080D01*
X163603085Y-116811080D01*
X164079276Y-116811080D01*
X165079276Y-117715842D02*
X165031657Y-117763461D01*
X164888800Y-117811080D01*
X164793561Y-117811080D01*
X164650704Y-117763461D01*
X164555466Y-117668223D01*
X164507847Y-117572985D01*
X164460228Y-117382509D01*
X164460228Y-117239652D01*
X164507847Y-117049176D01*
X164555466Y-116953938D01*
X164650704Y-116858700D01*
X164793561Y-116811080D01*
X164888800Y-116811080D01*
X165031657Y-116858700D01*
X165079276Y-116906319D01*
X165364990Y-116811080D02*
X165936419Y-116811080D01*
X165650704Y-117811080D02*
X165650704Y-116811080D01*
X166460228Y-116811080D02*
X166650704Y-116811080D01*
X166745942Y-116858700D01*
X166841180Y-116953938D01*
X166888800Y-117144414D01*
X166888800Y-117477747D01*
X166841180Y-117668223D01*
X166745942Y-117763461D01*
X166650704Y-117811080D01*
X166460228Y-117811080D01*
X166364990Y-117763461D01*
X166269752Y-117668223D01*
X166222133Y-117477747D01*
X166222133Y-117144414D01*
X166269752Y-116953938D01*
X166364990Y-116858700D01*
X166460228Y-116811080D01*
X167888800Y-117811080D02*
X167555466Y-117334890D01*
X167317371Y-117811080D02*
X167317371Y-116811080D01*
X167698323Y-116811080D01*
X167793561Y-116858700D01*
X167841180Y-116906319D01*
X167888800Y-117001557D01*
X167888800Y-117144414D01*
X167841180Y-117239652D01*
X167793561Y-117287271D01*
X167698323Y-117334890D01*
X167317371Y-117334890D01*
X161460228Y-119325842D02*
X161412609Y-119373461D01*
X161269752Y-119421080D01*
X161174514Y-119421080D01*
X161031657Y-119373461D01*
X160936419Y-119278223D01*
X160888800Y-119182985D01*
X160841180Y-118992509D01*
X160841180Y-118849652D01*
X160888800Y-118659176D01*
X160936419Y-118563938D01*
X161031657Y-118468700D01*
X161174514Y-118421080D01*
X161269752Y-118421080D01*
X161412609Y-118468700D01*
X161460228Y-118516319D01*
X161888800Y-119421080D02*
X161888800Y-118421080D01*
X162936419Y-119421080D02*
X162603085Y-118944890D01*
X162364990Y-119421080D02*
X162364990Y-118421080D01*
X162745942Y-118421080D01*
X162841180Y-118468700D01*
X162888800Y-118516319D01*
X162936419Y-118611557D01*
X162936419Y-118754414D01*
X162888800Y-118849652D01*
X162841180Y-118897271D01*
X162745942Y-118944890D01*
X162364990Y-118944890D01*
X163936419Y-119325842D02*
X163888800Y-119373461D01*
X163745942Y-119421080D01*
X163650704Y-119421080D01*
X163507847Y-119373461D01*
X163412609Y-119278223D01*
X163364990Y-119182985D01*
X163317371Y-118992509D01*
X163317371Y-118849652D01*
X163364990Y-118659176D01*
X163412609Y-118563938D01*
X163507847Y-118468700D01*
X163650704Y-118421080D01*
X163745942Y-118421080D01*
X163888800Y-118468700D01*
X163936419Y-118516319D01*
X164364990Y-118421080D02*
X164364990Y-119230604D01*
X164412609Y-119325842D01*
X164460228Y-119373461D01*
X164555466Y-119421080D01*
X164745942Y-119421080D01*
X164841180Y-119373461D01*
X164888800Y-119325842D01*
X164936419Y-119230604D01*
X164936419Y-118421080D01*
X165412609Y-119421080D02*
X165412609Y-118421080D01*
X165745942Y-118421080D02*
X166317371Y-118421080D01*
X166031657Y-119421080D02*
X166031657Y-118421080D01*
X167317371Y-118421080D02*
X167936419Y-118421080D01*
X167603085Y-118802033D01*
X167745942Y-118802033D01*
X167841180Y-118849652D01*
X167888800Y-118897271D01*
X167936419Y-118992509D01*
X167936419Y-119230604D01*
X167888800Y-119325842D01*
X167841180Y-119373461D01*
X167745942Y-119421080D01*
X167460228Y-119421080D01*
X167364990Y-119373461D01*
X167317371Y-119325842D01*
X135547619Y-117642380D02*
X135547619Y-116642380D01*
X135785714Y-116642380D01*
X135928571Y-116690000D01*
X136023809Y-116785238D01*
X136071428Y-116880476D01*
X136119047Y-117070952D01*
X136119047Y-117213809D01*
X136071428Y-117404285D01*
X136023809Y-117499523D01*
X135928571Y-117594761D01*
X135785714Y-117642380D01*
X135547619Y-117642380D01*
X136547619Y-117118571D02*
X136880952Y-117118571D01*
X137023809Y-117642380D02*
X136547619Y-117642380D01*
X136547619Y-116642380D01*
X137023809Y-116642380D01*
X137309523Y-116642380D02*
X137880952Y-116642380D01*
X137595238Y-117642380D02*
X137595238Y-116642380D01*
X138214285Y-117118571D02*
X138547619Y-117118571D01*
X138690476Y-117642380D02*
X138214285Y-117642380D01*
X138214285Y-116642380D01*
X138690476Y-116642380D01*
X139690476Y-117547142D02*
X139642857Y-117594761D01*
X139500000Y-117642380D01*
X139404761Y-117642380D01*
X139261904Y-117594761D01*
X139166666Y-117499523D01*
X139119047Y-117404285D01*
X139071428Y-117213809D01*
X139071428Y-117070952D01*
X139119047Y-116880476D01*
X139166666Y-116785238D01*
X139261904Y-116690000D01*
X139404761Y-116642380D01*
X139500000Y-116642380D01*
X139642857Y-116690000D01*
X139690476Y-116737619D01*
X139976190Y-116642380D02*
X140547619Y-116642380D01*
X140261904Y-117642380D02*
X140261904Y-116642380D01*
X141071428Y-116642380D02*
X141261904Y-116642380D01*
X141357142Y-116690000D01*
X141452380Y-116785238D01*
X141500000Y-116975714D01*
X141500000Y-117309047D01*
X141452380Y-117499523D01*
X141357142Y-117594761D01*
X141261904Y-117642380D01*
X141071428Y-117642380D01*
X140976190Y-117594761D01*
X140880952Y-117499523D01*
X140833333Y-117309047D01*
X140833333Y-116975714D01*
X140880952Y-116785238D01*
X140976190Y-116690000D01*
X141071428Y-116642380D01*
X142500000Y-117642380D02*
X142166666Y-117166190D01*
X141928571Y-117642380D02*
X141928571Y-116642380D01*
X142309523Y-116642380D01*
X142404761Y-116690000D01*
X142452380Y-116737619D01*
X142500000Y-116832857D01*
X142500000Y-116975714D01*
X142452380Y-117070952D01*
X142404761Y-117118571D01*
X142309523Y-117166190D01*
X141928571Y-117166190D01*
X136071428Y-119157142D02*
X136023809Y-119204761D01*
X135880952Y-119252380D01*
X135785714Y-119252380D01*
X135642857Y-119204761D01*
X135547619Y-119109523D01*
X135500000Y-119014285D01*
X135452380Y-118823809D01*
X135452380Y-118680952D01*
X135500000Y-118490476D01*
X135547619Y-118395238D01*
X135642857Y-118300000D01*
X135785714Y-118252380D01*
X135880952Y-118252380D01*
X136023809Y-118300000D01*
X136071428Y-118347619D01*
X136500000Y-119252380D02*
X136500000Y-118252380D01*
X137547619Y-119252380D02*
X137214285Y-118776190D01*
X136976190Y-119252380D02*
X136976190Y-118252380D01*
X137357142Y-118252380D01*
X137452380Y-118300000D01*
X137500000Y-118347619D01*
X137547619Y-118442857D01*
X137547619Y-118585714D01*
X137500000Y-118680952D01*
X137452380Y-118728571D01*
X137357142Y-118776190D01*
X136976190Y-118776190D01*
X138547619Y-119157142D02*
X138500000Y-119204761D01*
X138357142Y-119252380D01*
X138261904Y-119252380D01*
X138119047Y-119204761D01*
X138023809Y-119109523D01*
X137976190Y-119014285D01*
X137928571Y-118823809D01*
X137928571Y-118680952D01*
X137976190Y-118490476D01*
X138023809Y-118395238D01*
X138119047Y-118300000D01*
X138261904Y-118252380D01*
X138357142Y-118252380D01*
X138500000Y-118300000D01*
X138547619Y-118347619D01*
X138976190Y-118252380D02*
X138976190Y-119061904D01*
X139023809Y-119157142D01*
X139071428Y-119204761D01*
X139166666Y-119252380D01*
X139357142Y-119252380D01*
X139452380Y-119204761D01*
X139500000Y-119157142D01*
X139547619Y-119061904D01*
X139547619Y-118252380D01*
X140023809Y-119252380D02*
X140023809Y-118252380D01*
X140357142Y-118252380D02*
X140928571Y-118252380D01*
X140642857Y-119252380D02*
X140642857Y-118252380D01*
X141976190Y-118347619D02*
X142023809Y-118300000D01*
X142119047Y-118252380D01*
X142357142Y-118252380D01*
X142452380Y-118300000D01*
X142500000Y-118347619D01*
X142547619Y-118442857D01*
X142547619Y-118538095D01*
X142500000Y-118680952D01*
X141928571Y-119252380D01*
X142547619Y-119252380D01*
X109047619Y-117647380D02*
X109047619Y-116647380D01*
X109285714Y-116647380D01*
X109428571Y-116695000D01*
X109523809Y-116790238D01*
X109571428Y-116885476D01*
X109619047Y-117075952D01*
X109619047Y-117218809D01*
X109571428Y-117409285D01*
X109523809Y-117504523D01*
X109428571Y-117599761D01*
X109285714Y-117647380D01*
X109047619Y-117647380D01*
X110047619Y-117123571D02*
X110380952Y-117123571D01*
X110523809Y-117647380D02*
X110047619Y-117647380D01*
X110047619Y-116647380D01*
X110523809Y-116647380D01*
X110809523Y-116647380D02*
X111380952Y-116647380D01*
X111095238Y-117647380D02*
X111095238Y-116647380D01*
X111714285Y-117123571D02*
X112047619Y-117123571D01*
X112190476Y-117647380D02*
X111714285Y-117647380D01*
X111714285Y-116647380D01*
X112190476Y-116647380D01*
X113190476Y-117552142D02*
X113142857Y-117599761D01*
X113000000Y-117647380D01*
X112904761Y-117647380D01*
X112761904Y-117599761D01*
X112666666Y-117504523D01*
X112619047Y-117409285D01*
X112571428Y-117218809D01*
X112571428Y-117075952D01*
X112619047Y-116885476D01*
X112666666Y-116790238D01*
X112761904Y-116695000D01*
X112904761Y-116647380D01*
X113000000Y-116647380D01*
X113142857Y-116695000D01*
X113190476Y-116742619D01*
X113476190Y-116647380D02*
X114047619Y-116647380D01*
X113761904Y-117647380D02*
X113761904Y-116647380D01*
X114571428Y-116647380D02*
X114761904Y-116647380D01*
X114857142Y-116695000D01*
X114952380Y-116790238D01*
X115000000Y-116980714D01*
X115000000Y-117314047D01*
X114952380Y-117504523D01*
X114857142Y-117599761D01*
X114761904Y-117647380D01*
X114571428Y-117647380D01*
X114476190Y-117599761D01*
X114380952Y-117504523D01*
X114333333Y-117314047D01*
X114333333Y-116980714D01*
X114380952Y-116790238D01*
X114476190Y-116695000D01*
X114571428Y-116647380D01*
X116000000Y-117647380D02*
X115666666Y-117171190D01*
X115428571Y-117647380D02*
X115428571Y-116647380D01*
X115809523Y-116647380D01*
X115904761Y-116695000D01*
X115952380Y-116742619D01*
X116000000Y-116837857D01*
X116000000Y-116980714D01*
X115952380Y-117075952D01*
X115904761Y-117123571D01*
X115809523Y-117171190D01*
X115428571Y-117171190D01*
X109571428Y-119162142D02*
X109523809Y-119209761D01*
X109380952Y-119257380D01*
X109285714Y-119257380D01*
X109142857Y-119209761D01*
X109047619Y-119114523D01*
X109000000Y-119019285D01*
X108952380Y-118828809D01*
X108952380Y-118685952D01*
X109000000Y-118495476D01*
X109047619Y-118400238D01*
X109142857Y-118305000D01*
X109285714Y-118257380D01*
X109380952Y-118257380D01*
X109523809Y-118305000D01*
X109571428Y-118352619D01*
X110000000Y-119257380D02*
X110000000Y-118257380D01*
X111047619Y-119257380D02*
X110714285Y-118781190D01*
X110476190Y-119257380D02*
X110476190Y-118257380D01*
X110857142Y-118257380D01*
X110952380Y-118305000D01*
X111000000Y-118352619D01*
X111047619Y-118447857D01*
X111047619Y-118590714D01*
X111000000Y-118685952D01*
X110952380Y-118733571D01*
X110857142Y-118781190D01*
X110476190Y-118781190D01*
X112047619Y-119162142D02*
X112000000Y-119209761D01*
X111857142Y-119257380D01*
X111761904Y-119257380D01*
X111619047Y-119209761D01*
X111523809Y-119114523D01*
X111476190Y-119019285D01*
X111428571Y-118828809D01*
X111428571Y-118685952D01*
X111476190Y-118495476D01*
X111523809Y-118400238D01*
X111619047Y-118305000D01*
X111761904Y-118257380D01*
X111857142Y-118257380D01*
X112000000Y-118305000D01*
X112047619Y-118352619D01*
X112476190Y-118257380D02*
X112476190Y-119066904D01*
X112523809Y-119162142D01*
X112571428Y-119209761D01*
X112666666Y-119257380D01*
X112857142Y-119257380D01*
X112952380Y-119209761D01*
X113000000Y-119162142D01*
X113047619Y-119066904D01*
X113047619Y-118257380D01*
X113523809Y-119257380D02*
X113523809Y-118257380D01*
X113857142Y-118257380D02*
X114428571Y-118257380D01*
X114142857Y-119257380D02*
X114142857Y-118257380D01*
X116047619Y-119257380D02*
X115476190Y-119257380D01*
X115761904Y-119257380D02*
X115761904Y-118257380D01*
X115666666Y-118400238D01*
X115571428Y-118495476D01*
X115476190Y-118543095D01*
D10*
X108000000Y-116000000D02*
X188000000Y-116000000D01*
D12*
X174347619Y-118227380D02*
X174347619Y-117227380D01*
X174728571Y-117227380D01*
X174823809Y-117275000D01*
X174871428Y-117322619D01*
X174919047Y-117417857D01*
X174919047Y-117560714D01*
X174871428Y-117655952D01*
X174823809Y-117703571D01*
X174728571Y-117751190D01*
X174347619Y-117751190D01*
X175347619Y-117703571D02*
X175680952Y-117703571D01*
X175823809Y-118227380D02*
X175347619Y-118227380D01*
X175347619Y-117227380D01*
X175823809Y-117227380D01*
X176204761Y-117941666D02*
X176680952Y-117941666D01*
X176109523Y-118227380D02*
X176442857Y-117227380D01*
X176776190Y-118227380D01*
X177109523Y-118227380D02*
X177109523Y-117227380D01*
X177680952Y-118227380D02*
X177252380Y-117655952D01*
X177680952Y-117227380D02*
X177109523Y-117798809D01*
X177871428Y-118322619D02*
X178633333Y-118322619D01*
X179061904Y-117227380D02*
X179252380Y-117227380D01*
X179347619Y-117275000D01*
X179442857Y-117370238D01*
X179490476Y-117560714D01*
X179490476Y-117894047D01*
X179442857Y-118084523D01*
X179347619Y-118179761D01*
X179252380Y-118227380D01*
X179061904Y-118227380D01*
X178966666Y-118179761D01*
X178871428Y-118084523D01*
X178823809Y-117894047D01*
X178823809Y-117560714D01*
X178871428Y-117370238D01*
X178966666Y-117275000D01*
X179061904Y-117227380D01*
X179919047Y-117227380D02*
X179919047Y-118036904D01*
X179966666Y-118132142D01*
X180014285Y-118179761D01*
X180109523Y-118227380D01*
X180300000Y-118227380D01*
X180395238Y-118179761D01*
X180442857Y-118132142D01*
X180490476Y-118036904D01*
X180490476Y-117227380D01*
X180823809Y-117227380D02*
X181395238Y-117227380D01*
X181109523Y-118227380D02*
X181109523Y-117227380D01*
X153252919Y-117622580D02*
X153252919Y-116622580D01*
X153633871Y-116622580D01*
X153729109Y-116670200D01*
X153776728Y-116717819D01*
X153824347Y-116813057D01*
X153824347Y-116955914D01*
X153776728Y-117051152D01*
X153729109Y-117098771D01*
X153633871Y-117146390D01*
X153252919Y-117146390D01*
X154252919Y-117098771D02*
X154586252Y-117098771D01*
X154729109Y-117622580D02*
X154252919Y-117622580D01*
X154252919Y-116622580D01*
X154729109Y-116622580D01*
X155110061Y-117336866D02*
X155586252Y-117336866D01*
X155014823Y-117622580D02*
X155348157Y-116622580D01*
X155681490Y-117622580D01*
X156014823Y-117622580D02*
X156014823Y-116622580D01*
X156586252Y-117622580D02*
X156157680Y-117051152D01*
X156586252Y-116622580D02*
X156014823Y-117194009D01*
X156776728Y-117717819D02*
X157538633Y-117717819D01*
X157967204Y-116622580D02*
X158157680Y-116622580D01*
X158252919Y-116670200D01*
X158348157Y-116765438D01*
X158395776Y-116955914D01*
X158395776Y-117289247D01*
X158348157Y-117479723D01*
X158252919Y-117574961D01*
X158157680Y-117622580D01*
X157967204Y-117622580D01*
X157871966Y-117574961D01*
X157776728Y-117479723D01*
X157729109Y-117289247D01*
X157729109Y-116955914D01*
X157776728Y-116765438D01*
X157871966Y-116670200D01*
X157967204Y-116622580D01*
X158824347Y-116622580D02*
X158824347Y-117432104D01*
X158871966Y-117527342D01*
X158919585Y-117574961D01*
X159014823Y-117622580D01*
X159205300Y-117622580D01*
X159300538Y-117574961D01*
X159348157Y-117527342D01*
X159395776Y-117432104D01*
X159395776Y-116622580D01*
X159729109Y-116622580D02*
X160300538Y-116622580D01*
X160014823Y-117622580D02*
X160014823Y-116622580D01*
X135295119Y-124645680D02*
X135295119Y-123645680D01*
X135676071Y-123645680D01*
X135771309Y-123693300D01*
X135818928Y-123740919D01*
X135866547Y-123836157D01*
X135866547Y-123979014D01*
X135818928Y-124074252D01*
X135771309Y-124121871D01*
X135676071Y-124169490D01*
X135295119Y-124169490D01*
X136295119Y-124121871D02*
X136628452Y-124121871D01*
X136771309Y-124645680D02*
X136295119Y-124645680D01*
X136295119Y-123645680D01*
X136771309Y-123645680D01*
X137152261Y-124359966D02*
X137628452Y-124359966D01*
X137057023Y-124645680D02*
X137390357Y-123645680D01*
X137723690Y-124645680D01*
X138057023Y-124645680D02*
X138057023Y-123645680D01*
X138628452Y-124645680D02*
X138199880Y-124074252D01*
X138628452Y-123645680D02*
X138057023Y-124217109D01*
X138818928Y-124740919D02*
X139580833Y-124740919D01*
X140009404Y-123645680D02*
X140199880Y-123645680D01*
X140295119Y-123693300D01*
X140390357Y-123788538D01*
X140437976Y-123979014D01*
X140437976Y-124312347D01*
X140390357Y-124502823D01*
X140295119Y-124598061D01*
X140199880Y-124645680D01*
X140009404Y-124645680D01*
X139914166Y-124598061D01*
X139818928Y-124502823D01*
X139771309Y-124312347D01*
X139771309Y-123979014D01*
X139818928Y-123788538D01*
X139914166Y-123693300D01*
X140009404Y-123645680D01*
X140866547Y-123645680D02*
X140866547Y-124455204D01*
X140914166Y-124550442D01*
X140961785Y-124598061D01*
X141057023Y-124645680D01*
X141247500Y-124645680D01*
X141342738Y-124598061D01*
X141390357Y-124550442D01*
X141437976Y-124455204D01*
X141437976Y-123645680D01*
X141771309Y-123645680D02*
X142342738Y-123645680D01*
X142057023Y-124645680D02*
X142057023Y-123645680D01*
D10*
X160500000Y-138425000D02*
X160600000Y-116000000D01*
X134450000Y-152000000D02*
X134500000Y-116000000D01*
D12*
X155826295Y-97759780D02*
X155826295Y-96759780D01*
X156302485Y-97759780D02*
X156302485Y-96759780D01*
X156873914Y-97759780D01*
X156873914Y-96759780D01*
X157207247Y-96759780D02*
X157778676Y-96759780D01*
X157492961Y-97759780D02*
X157492961Y-96759780D01*
X158112009Y-97235971D02*
X158445342Y-97235971D01*
X158588200Y-97759780D02*
X158112009Y-97759780D01*
X158112009Y-96759780D01*
X158588200Y-96759780D01*
X159588200Y-97759780D02*
X159254866Y-97283590D01*
X159016771Y-97759780D02*
X159016771Y-96759780D01*
X159397723Y-96759780D01*
X159492961Y-96807400D01*
X159540580Y-96855019D01*
X159588200Y-96950257D01*
X159588200Y-97093114D01*
X159540580Y-97188352D01*
X159492961Y-97235971D01*
X159397723Y-97283590D01*
X159016771Y-97283590D01*
X160588200Y-97759780D02*
X160254866Y-97283590D01*
X160016771Y-97759780D02*
X160016771Y-96759780D01*
X160397723Y-96759780D01*
X160492961Y-96807400D01*
X160540580Y-96855019D01*
X160588200Y-96950257D01*
X160588200Y-97093114D01*
X160540580Y-97188352D01*
X160492961Y-97235971D01*
X160397723Y-97283590D01*
X160016771Y-97283590D01*
X161016771Y-96759780D02*
X161016771Y-97569304D01*
X161064390Y-97664542D01*
X161112009Y-97712161D01*
X161207247Y-97759780D01*
X161397723Y-97759780D01*
X161492961Y-97712161D01*
X161540580Y-97664542D01*
X161588200Y-97569304D01*
X161588200Y-96759780D01*
X162064390Y-97759780D02*
X162064390Y-96759780D01*
X162445342Y-96759780D01*
X162540580Y-96807400D01*
X162588200Y-96855019D01*
X162635819Y-96950257D01*
X162635819Y-97093114D01*
X162588200Y-97188352D01*
X162540580Y-97235971D01*
X162445342Y-97283590D01*
X162064390Y-97283590D01*
X162921533Y-96759780D02*
X163492961Y-96759780D01*
X163207247Y-97759780D02*
X163207247Y-96759780D01*
X166870476Y-91717142D02*
X166822857Y-91764761D01*
X166680000Y-91812380D01*
X166584761Y-91812380D01*
X166441904Y-91764761D01*
X166346666Y-91669523D01*
X166299047Y-91574285D01*
X166251428Y-91383809D01*
X166251428Y-91240952D01*
X166299047Y-91050476D01*
X166346666Y-90955238D01*
X166441904Y-90860000D01*
X166584761Y-90812380D01*
X166680000Y-90812380D01*
X166822857Y-90860000D01*
X166870476Y-90907619D01*
X167489523Y-90812380D02*
X167680000Y-90812380D01*
X167775238Y-90860000D01*
X167870476Y-90955238D01*
X167918095Y-91145714D01*
X167918095Y-91479047D01*
X167870476Y-91669523D01*
X167775238Y-91764761D01*
X167680000Y-91812380D01*
X167489523Y-91812380D01*
X167394285Y-91764761D01*
X167299047Y-91669523D01*
X167251428Y-91479047D01*
X167251428Y-91145714D01*
X167299047Y-90955238D01*
X167394285Y-90860000D01*
X167489523Y-90812380D01*
X168346666Y-91812380D02*
X168346666Y-90812380D01*
X168680000Y-91526666D01*
X169013333Y-90812380D01*
X169013333Y-91812380D01*
X169489523Y-91812380D02*
X169489523Y-90812380D01*
X169870476Y-90812380D01*
X169965714Y-90860000D01*
X170013333Y-90907619D01*
X170060952Y-91002857D01*
X170060952Y-91145714D01*
X170013333Y-91240952D01*
X169965714Y-91288571D01*
X169870476Y-91336190D01*
X169489523Y-91336190D01*
X171584761Y-91288571D02*
X171727619Y-91336190D01*
X171775238Y-91383809D01*
X171822857Y-91479047D01*
X171822857Y-91621904D01*
X171775238Y-91717142D01*
X171727619Y-91764761D01*
X171632380Y-91812380D01*
X171251428Y-91812380D01*
X171251428Y-90812380D01*
X171584761Y-90812380D01*
X171680000Y-90860000D01*
X171727619Y-90907619D01*
X171775238Y-91002857D01*
X171775238Y-91098095D01*
X171727619Y-91193333D01*
X171680000Y-91240952D01*
X171584761Y-91288571D01*
X171251428Y-91288571D01*
X172251428Y-91812380D02*
X172251428Y-90812380D01*
X172680000Y-91526666D02*
X173156190Y-91526666D01*
X172584761Y-91812380D02*
X172918095Y-90812380D01*
X173251428Y-91812380D01*
X173537142Y-91764761D02*
X173680000Y-91812380D01*
X173918095Y-91812380D01*
X174013333Y-91764761D01*
X174060952Y-91717142D01*
X174108571Y-91621904D01*
X174108571Y-91526666D01*
X174060952Y-91431428D01*
X174013333Y-91383809D01*
X173918095Y-91336190D01*
X173727619Y-91288571D01*
X173632380Y-91240952D01*
X173584761Y-91193333D01*
X173537142Y-91098095D01*
X173537142Y-91002857D01*
X173584761Y-90907619D01*
X173632380Y-90860000D01*
X173727619Y-90812380D01*
X173965714Y-90812380D01*
X174108571Y-90860000D01*
X135290395Y-99639380D02*
X135290395Y-98639380D01*
X135766585Y-99639380D02*
X135766585Y-98639380D01*
X136338014Y-99639380D01*
X136338014Y-98639380D01*
X136671347Y-98639380D02*
X137242776Y-98639380D01*
X136957061Y-99639380D02*
X136957061Y-98639380D01*
X137576109Y-99115571D02*
X137909442Y-99115571D01*
X138052300Y-99639380D02*
X137576109Y-99639380D01*
X137576109Y-98639380D01*
X138052300Y-98639380D01*
X139052300Y-99639380D02*
X138718966Y-99163190D01*
X138480871Y-99639380D02*
X138480871Y-98639380D01*
X138861823Y-98639380D01*
X138957061Y-98687000D01*
X139004680Y-98734619D01*
X139052300Y-98829857D01*
X139052300Y-98972714D01*
X139004680Y-99067952D01*
X138957061Y-99115571D01*
X138861823Y-99163190D01*
X138480871Y-99163190D01*
X140052300Y-99639380D02*
X139718966Y-99163190D01*
X139480871Y-99639380D02*
X139480871Y-98639380D01*
X139861823Y-98639380D01*
X139957061Y-98687000D01*
X140004680Y-98734619D01*
X140052300Y-98829857D01*
X140052300Y-98972714D01*
X140004680Y-99067952D01*
X139957061Y-99115571D01*
X139861823Y-99163190D01*
X139480871Y-99163190D01*
X140480871Y-98639380D02*
X140480871Y-99448904D01*
X140528490Y-99544142D01*
X140576109Y-99591761D01*
X140671347Y-99639380D01*
X140861823Y-99639380D01*
X140957061Y-99591761D01*
X141004680Y-99544142D01*
X141052300Y-99448904D01*
X141052300Y-98639380D01*
X141528490Y-99639380D02*
X141528490Y-98639380D01*
X141909442Y-98639380D01*
X142004680Y-98687000D01*
X142052300Y-98734619D01*
X142099919Y-98829857D01*
X142099919Y-98972714D01*
X142052300Y-99067952D01*
X142004680Y-99115571D01*
X141909442Y-99163190D01*
X141528490Y-99163190D01*
X142385633Y-98639380D02*
X142957061Y-98639380D01*
X142671347Y-99639380D02*
X142671347Y-98639380D01*
X109715476Y-87182142D02*
X109667857Y-87229761D01*
X109525000Y-87277380D01*
X109429761Y-87277380D01*
X109286904Y-87229761D01*
X109191666Y-87134523D01*
X109144047Y-87039285D01*
X109096428Y-86848809D01*
X109096428Y-86705952D01*
X109144047Y-86515476D01*
X109191666Y-86420238D01*
X109286904Y-86325000D01*
X109429761Y-86277380D01*
X109525000Y-86277380D01*
X109667857Y-86325000D01*
X109715476Y-86372619D01*
X110334523Y-86277380D02*
X110525000Y-86277380D01*
X110620238Y-86325000D01*
X110715476Y-86420238D01*
X110763095Y-86610714D01*
X110763095Y-86944047D01*
X110715476Y-87134523D01*
X110620238Y-87229761D01*
X110525000Y-87277380D01*
X110334523Y-87277380D01*
X110239285Y-87229761D01*
X110144047Y-87134523D01*
X110096428Y-86944047D01*
X110096428Y-86610714D01*
X110144047Y-86420238D01*
X110239285Y-86325000D01*
X110334523Y-86277380D01*
X111191666Y-87277380D02*
X111191666Y-86277380D01*
X111525000Y-86991666D01*
X111858333Y-86277380D01*
X111858333Y-87277380D01*
X112334523Y-87277380D02*
X112334523Y-86277380D01*
X112715476Y-86277380D01*
X112810714Y-86325000D01*
X112858333Y-86372619D01*
X112905952Y-86467857D01*
X112905952Y-86610714D01*
X112858333Y-86705952D01*
X112810714Y-86753571D01*
X112715476Y-86801190D01*
X112334523Y-86801190D01*
X114429761Y-86753571D02*
X114572619Y-86801190D01*
X114620238Y-86848809D01*
X114667857Y-86944047D01*
X114667857Y-87086904D01*
X114620238Y-87182142D01*
X114572619Y-87229761D01*
X114477380Y-87277380D01*
X114096428Y-87277380D01*
X114096428Y-86277380D01*
X114429761Y-86277380D01*
X114525000Y-86325000D01*
X114572619Y-86372619D01*
X114620238Y-86467857D01*
X114620238Y-86563095D01*
X114572619Y-86658333D01*
X114525000Y-86705952D01*
X114429761Y-86753571D01*
X114096428Y-86753571D01*
X115096428Y-87277380D02*
X115096428Y-86277380D01*
X115525000Y-86991666D02*
X116001190Y-86991666D01*
X115429761Y-87277380D02*
X115763095Y-86277380D01*
X116096428Y-87277380D01*
X116382142Y-87229761D02*
X116525000Y-87277380D01*
X116763095Y-87277380D01*
X116858333Y-87229761D01*
X116905952Y-87182142D01*
X116953571Y-87086904D01*
X116953571Y-86991666D01*
X116905952Y-86896428D01*
X116858333Y-86848809D01*
X116763095Y-86801190D01*
X116572619Y-86753571D01*
X116477380Y-86705952D01*
X116429761Y-86658333D01*
X116382142Y-86563095D01*
X116382142Y-86467857D01*
X116429761Y-86372619D01*
X116477380Y-86325000D01*
X116572619Y-86277380D01*
X116810714Y-86277380D01*
X116953571Y-86325000D01*
X126428335Y-115689640D02*
X126428335Y-114689640D01*
X126904525Y-115689640D02*
X126904525Y-114689640D01*
X127475954Y-115689640D01*
X127475954Y-114689640D01*
X127809287Y-114689640D02*
X128380716Y-114689640D01*
X128095001Y-115689640D02*
X128095001Y-114689640D01*
X128714049Y-115165831D02*
X129047382Y-115165831D01*
X129190240Y-115689640D02*
X128714049Y-115689640D01*
X128714049Y-114689640D01*
X129190240Y-114689640D01*
X130190240Y-115689640D02*
X129856906Y-115213450D01*
X129618811Y-115689640D02*
X129618811Y-114689640D01*
X129999763Y-114689640D01*
X130095001Y-114737260D01*
X130142620Y-114784879D01*
X130190240Y-114880117D01*
X130190240Y-115022974D01*
X130142620Y-115118212D01*
X130095001Y-115165831D01*
X129999763Y-115213450D01*
X129618811Y-115213450D01*
X131190240Y-115689640D02*
X130856906Y-115213450D01*
X130618811Y-115689640D02*
X130618811Y-114689640D01*
X130999763Y-114689640D01*
X131095001Y-114737260D01*
X131142620Y-114784879D01*
X131190240Y-114880117D01*
X131190240Y-115022974D01*
X131142620Y-115118212D01*
X131095001Y-115165831D01*
X130999763Y-115213450D01*
X130618811Y-115213450D01*
X131618811Y-114689640D02*
X131618811Y-115499164D01*
X131666430Y-115594402D01*
X131714049Y-115642021D01*
X131809287Y-115689640D01*
X131999763Y-115689640D01*
X132095001Y-115642021D01*
X132142620Y-115594402D01*
X132190240Y-115499164D01*
X132190240Y-114689640D01*
X132666430Y-115689640D02*
X132666430Y-114689640D01*
X133047382Y-114689640D01*
X133142620Y-114737260D01*
X133190240Y-114784879D01*
X133237859Y-114880117D01*
X133237859Y-115022974D01*
X133190240Y-115118212D01*
X133142620Y-115165831D01*
X133047382Y-115213450D01*
X132666430Y-115213450D01*
X133523573Y-114689640D02*
X134095001Y-114689640D01*
X133809287Y-115689640D02*
X133809287Y-114689640D01*
X118259956Y-115604562D02*
X118212337Y-115652181D01*
X118069480Y-115699800D01*
X117974241Y-115699800D01*
X117831384Y-115652181D01*
X117736146Y-115556943D01*
X117688527Y-115461705D01*
X117640908Y-115271229D01*
X117640908Y-115128372D01*
X117688527Y-114937896D01*
X117736146Y-114842658D01*
X117831384Y-114747420D01*
X117974241Y-114699800D01*
X118069480Y-114699800D01*
X118212337Y-114747420D01*
X118259956Y-114795039D01*
X118879003Y-114699800D02*
X119069480Y-114699800D01*
X119164718Y-114747420D01*
X119259956Y-114842658D01*
X119307575Y-115033134D01*
X119307575Y-115366467D01*
X119259956Y-115556943D01*
X119164718Y-115652181D01*
X119069480Y-115699800D01*
X118879003Y-115699800D01*
X118783765Y-115652181D01*
X118688527Y-115556943D01*
X118640908Y-115366467D01*
X118640908Y-115033134D01*
X118688527Y-114842658D01*
X118783765Y-114747420D01*
X118879003Y-114699800D01*
X119736146Y-115699800D02*
X119736146Y-114699800D01*
X120069480Y-115414086D01*
X120402813Y-114699800D01*
X120402813Y-115699800D01*
X120879003Y-115699800D02*
X120879003Y-114699800D01*
X121259956Y-114699800D01*
X121355194Y-114747420D01*
X121402813Y-114795039D01*
X121450432Y-114890277D01*
X121450432Y-115033134D01*
X121402813Y-115128372D01*
X121355194Y-115175991D01*
X121259956Y-115223610D01*
X120879003Y-115223610D01*
X122974241Y-115175991D02*
X123117099Y-115223610D01*
X123164718Y-115271229D01*
X123212337Y-115366467D01*
X123212337Y-115509324D01*
X123164718Y-115604562D01*
X123117099Y-115652181D01*
X123021860Y-115699800D01*
X122640908Y-115699800D01*
X122640908Y-114699800D01*
X122974241Y-114699800D01*
X123069480Y-114747420D01*
X123117099Y-114795039D01*
X123164718Y-114890277D01*
X123164718Y-114985515D01*
X123117099Y-115080753D01*
X123069480Y-115128372D01*
X122974241Y-115175991D01*
X122640908Y-115175991D01*
X123640908Y-115699800D02*
X123640908Y-114699800D01*
X124069480Y-115414086D02*
X124545670Y-115414086D01*
X123974241Y-115699800D02*
X124307575Y-114699800D01*
X124640908Y-115699800D01*
X124926622Y-115652181D02*
X125069480Y-115699800D01*
X125307575Y-115699800D01*
X125402813Y-115652181D01*
X125450432Y-115604562D01*
X125498051Y-115509324D01*
X125498051Y-115414086D01*
X125450432Y-115318848D01*
X125402813Y-115271229D01*
X125307575Y-115223610D01*
X125117099Y-115175991D01*
X125021860Y-115128372D01*
X124974241Y-115080753D01*
X124926622Y-114985515D01*
X124926622Y-114890277D01*
X124974241Y-114795039D01*
X125021860Y-114747420D01*
X125117099Y-114699800D01*
X125355194Y-114699800D01*
X125498051Y-114747420D01*
D13*
X143915828Y-106215810D02*
X143937031Y-106250138D01*
X143937031Y-106250138D02*
X143969466Y-106304988D01*
X143969466Y-106304988D02*
X144012034Y-106378430D01*
X144012034Y-106378430D02*
X144063634Y-106468537D01*
X144063634Y-106468537D02*
X144123166Y-106573380D01*
X144123166Y-106573380D02*
X144189530Y-106691029D01*
X144189530Y-106691029D02*
X144261626Y-106819556D01*
X144261626Y-106819556D02*
X144338352Y-106957033D01*
X144338352Y-106957033D02*
X144404894Y-107076787D01*
X144404894Y-107076787D02*
X144484738Y-107220733D01*
X144484738Y-107220733D02*
X144560795Y-107357789D01*
X144560795Y-107357789D02*
X144631965Y-107485976D01*
X144631965Y-107485976D02*
X144697147Y-107603311D01*
X144697147Y-107603311D02*
X144755238Y-107707816D01*
X144755238Y-107707816D02*
X144805138Y-107797509D01*
X144805138Y-107797509D02*
X144845745Y-107870410D01*
X144845745Y-107870410D02*
X144875959Y-107924539D01*
X144875959Y-107924539D02*
X144894678Y-107957916D01*
X144894678Y-107957916D02*
X144900667Y-107968394D01*
X144900667Y-107968394D02*
X144909114Y-107971201D01*
X144909114Y-107971201D02*
X144928819Y-107967900D01*
X144928819Y-107967900D02*
X144961826Y-107957702D01*
X144961826Y-107957702D02*
X145010180Y-107939817D01*
X145010180Y-107939817D02*
X145075923Y-107913456D01*
X145075923Y-107913456D02*
X145161102Y-107877831D01*
X145161102Y-107877831D02*
X145267760Y-107832152D01*
X145267760Y-107832152D02*
X145381565Y-107782770D01*
X145381565Y-107782770D02*
X145488458Y-107736519D01*
X145488458Y-107736519D02*
X145587265Y-107694396D01*
X145587265Y-107694396D02*
X145675109Y-107657580D01*
X145675109Y-107657580D02*
X145749113Y-107627250D01*
X145749113Y-107627250D02*
X145806398Y-107604585D01*
X145806398Y-107604585D02*
X145844086Y-107590763D01*
X145844086Y-107590763D02*
X145859301Y-107586964D01*
X145859301Y-107586964D02*
X145859399Y-107587034D01*
X145859399Y-107587034D02*
X145859360Y-107601846D01*
X145859360Y-107601846D02*
X145856790Y-107642416D01*
X145856790Y-107642416D02*
X145851859Y-107706798D01*
X145851859Y-107706798D02*
X145844742Y-107793044D01*
X145844742Y-107793044D02*
X145835610Y-107899209D01*
X145835610Y-107899209D02*
X145824635Y-108023346D01*
X145824635Y-108023346D02*
X145811990Y-108163509D01*
X145811990Y-108163509D02*
X145797848Y-108317751D01*
X145797848Y-108317751D02*
X145782380Y-108484127D01*
X145782380Y-108484127D02*
X145765760Y-108660690D01*
X145765760Y-108660690D02*
X145748159Y-108845493D01*
X145748159Y-108845493D02*
X145745212Y-108876226D01*
X145745212Y-108876226D02*
X145727441Y-109062115D01*
X145727441Y-109062115D02*
X145710564Y-109240027D01*
X145710564Y-109240027D02*
X145694758Y-109408020D01*
X145694758Y-109408020D02*
X145680198Y-109564154D01*
X145680198Y-109564154D02*
X145667063Y-109706488D01*
X145667063Y-109706488D02*
X145655528Y-109833082D01*
X145655528Y-109833082D02*
X145645769Y-109941995D01*
X145645769Y-109941995D02*
X145637965Y-110031285D01*
X145637965Y-110031285D02*
X145632291Y-110099013D01*
X145632291Y-110099013D02*
X145628923Y-110143238D01*
X145628923Y-110143238D02*
X145628040Y-110162019D01*
X145628040Y-110162019D02*
X145628145Y-110162538D01*
X145628145Y-110162538D02*
X145639303Y-110154621D01*
X145639303Y-110154621D02*
X145669375Y-110129773D01*
X145669375Y-110129773D02*
X145716513Y-110089605D01*
X145716513Y-110089605D02*
X145778867Y-110035726D01*
X145778867Y-110035726D02*
X145854591Y-109969745D01*
X145854591Y-109969745D02*
X145941835Y-109893272D01*
X145941835Y-109893272D02*
X146038751Y-109807918D01*
X146038751Y-109807918D02*
X146143490Y-109715291D01*
X146143490Y-109715291D02*
X146236122Y-109633079D01*
X146236122Y-109633079D02*
X146346216Y-109535387D01*
X146346216Y-109535387D02*
X146450199Y-109443446D01*
X146450199Y-109443446D02*
X146546200Y-109358890D01*
X146546200Y-109358890D02*
X146632348Y-109283352D01*
X146632348Y-109283352D02*
X146706769Y-109218465D01*
X146706769Y-109218465D02*
X146767594Y-109165861D01*
X146767594Y-109165861D02*
X146812949Y-109127174D01*
X146812949Y-109127174D02*
X146840964Y-109104035D01*
X146840964Y-109104035D02*
X146849706Y-109097809D01*
X146849706Y-109097809D02*
X146853955Y-109100925D01*
X146853955Y-109100925D02*
X146860484Y-109111816D01*
X146860484Y-109111816D02*
X146870198Y-109132795D01*
X146870198Y-109132795D02*
X146884002Y-109166177D01*
X146884002Y-109166177D02*
X146902801Y-109214276D01*
X146902801Y-109214276D02*
X146927501Y-109279404D01*
X146927501Y-109279404D02*
X146959006Y-109363877D01*
X146959006Y-109363877D02*
X146998222Y-109470007D01*
X146998222Y-109470007D02*
X147043506Y-109593166D01*
X147043506Y-109593166D02*
X147084853Y-109705784D01*
X147084853Y-109705784D02*
X146966252Y-109842604D01*
X146966252Y-109842604D02*
X146813232Y-110023611D01*
X146813232Y-110023611D02*
X146652733Y-110221790D01*
X146652733Y-110221790D02*
X146487007Y-110433920D01*
X146487007Y-110433920D02*
X146318306Y-110656782D01*
X146318306Y-110656782D02*
X146148879Y-110887156D01*
X146148879Y-110887156D02*
X145980979Y-111121821D01*
X145980979Y-111121821D02*
X145816857Y-111357558D01*
X145816857Y-111357558D02*
X145658764Y-111591146D01*
X145658764Y-111591146D02*
X145508952Y-111819366D01*
X145508952Y-111819366D02*
X145369672Y-112038997D01*
X145369672Y-112038997D02*
X145243174Y-112246819D01*
X145243174Y-112246819D02*
X145131711Y-112439613D01*
X145131711Y-112439613D02*
X145064384Y-112562873D01*
X145064384Y-112562873D02*
X144988801Y-112705245D01*
X144988801Y-112705245D02*
X144942889Y-112638515D01*
X144942889Y-112638515D02*
X144855367Y-112501790D01*
X144855367Y-112501790D02*
X144764677Y-112342444D01*
X144764677Y-112342444D02*
X144672999Y-112165174D01*
X144672999Y-112165174D02*
X144582514Y-111974674D01*
X144582514Y-111974674D02*
X144495404Y-111775642D01*
X144495404Y-111775642D02*
X144413849Y-111572774D01*
X144413849Y-111572774D02*
X144340031Y-111370765D01*
X144340031Y-111370765D02*
X144303615Y-111262028D01*
X144303615Y-111262028D02*
X144237949Y-111047960D01*
X144237949Y-111047960D02*
X144172222Y-110812794D01*
X144172222Y-110812794D02*
X144108089Y-110563211D01*
X144108089Y-110563211D02*
X144047209Y-110305896D01*
X144047209Y-110305896D02*
X143991237Y-110047531D01*
X143991237Y-110047531D02*
X143947692Y-109826394D01*
X143947692Y-109826394D02*
X143908258Y-109615527D01*
X143908258Y-109615527D02*
X143836607Y-109972531D01*
X143836607Y-109972531D02*
X143757426Y-110344304D01*
X143757426Y-110344304D02*
X143674014Y-110690580D01*
X143674014Y-110690580D02*
X143585620Y-111013476D01*
X143585620Y-111013476D02*
X143491494Y-111315112D01*
X143491494Y-111315112D02*
X143390885Y-111597606D01*
X143390885Y-111597606D02*
X143283043Y-111863077D01*
X143283043Y-111863077D02*
X143167218Y-112113644D01*
X143167218Y-112113644D02*
X143042660Y-112351427D01*
X143042660Y-112351427D02*
X142920537Y-112559377D01*
X142920537Y-112559377D02*
X142887287Y-112612208D01*
X142887287Y-112612208D02*
X142858863Y-112655711D01*
X142858863Y-112655711D02*
X142838714Y-112684711D01*
X142838714Y-112684711D02*
X142830892Y-112693978D01*
X142830892Y-112693978D02*
X142820561Y-112685278D01*
X142820561Y-112685278D02*
X142801331Y-112656679D01*
X142801331Y-112656679D02*
X142776473Y-112613318D01*
X142776473Y-112613318D02*
X142761925Y-112585697D01*
X142761925Y-112585697D02*
X142681030Y-112434968D01*
X142681030Y-112434968D02*
X142583782Y-112266122D01*
X142583782Y-112266122D02*
X142472158Y-112081990D01*
X142472158Y-112081990D02*
X142348132Y-111885403D01*
X142348132Y-111885403D02*
X142213681Y-111679194D01*
X142213681Y-111679194D02*
X142070781Y-111466193D01*
X142070781Y-111466193D02*
X141921408Y-111249232D01*
X141921408Y-111249232D02*
X141767538Y-111031144D01*
X141767538Y-111031144D02*
X141611147Y-110814758D01*
X141611147Y-110814758D02*
X141454211Y-110602908D01*
X141454211Y-110602908D02*
X141298706Y-110398425D01*
X141298706Y-110398425D02*
X141146608Y-110204139D01*
X141146608Y-110204139D02*
X140999893Y-110022884D01*
X140999893Y-110022884D02*
X140860537Y-109857489D01*
X140860537Y-109857489D02*
X140847666Y-109842604D01*
X140847666Y-109842604D02*
X140729065Y-109705784D01*
X140729065Y-109705784D02*
X140770412Y-109593166D01*
X140770412Y-109593166D02*
X140817808Y-109464271D01*
X140817808Y-109464271D02*
X140856631Y-109359236D01*
X140856631Y-109359236D02*
X140887783Y-109275748D01*
X140887783Y-109275748D02*
X140912169Y-109211495D01*
X140912169Y-109211495D02*
X140930693Y-109164164D01*
X140930693Y-109164164D02*
X140944259Y-109131443D01*
X140944259Y-109131443D02*
X140953771Y-109111020D01*
X140953771Y-109111020D02*
X140960133Y-109100582D01*
X140960133Y-109100582D02*
X140964064Y-109097809D01*
X140964064Y-109097809D02*
X140976244Y-109106801D01*
X140976244Y-109106801D02*
X141007327Y-109132689D01*
X141007327Y-109132689D02*
X141055439Y-109173841D01*
X141055439Y-109173841D02*
X141118710Y-109228626D01*
X141118710Y-109228626D02*
X141195267Y-109295411D01*
X141195267Y-109295411D02*
X141283239Y-109372565D01*
X141283239Y-109372565D02*
X141380755Y-109458455D01*
X141380755Y-109458455D02*
X141485942Y-109551451D01*
X141485942Y-109551451D02*
X141577802Y-109632924D01*
X141577802Y-109632924D02*
X141687727Y-109730381D01*
X141687727Y-109730381D02*
X141791373Y-109821924D01*
X141791373Y-109821924D02*
X141886892Y-109905945D01*
X141886892Y-109905945D02*
X141972436Y-109980835D01*
X141972436Y-109980835D02*
X142046156Y-110044983D01*
X142046156Y-110044983D02*
X142106204Y-110096780D01*
X142106204Y-110096780D02*
X142150732Y-110134618D01*
X142150732Y-110134618D02*
X142177890Y-110156887D01*
X142177890Y-110156887D02*
X142185928Y-110162383D01*
X142185928Y-110162383D02*
X142185449Y-110148018D01*
X142185449Y-110148018D02*
X142182459Y-110107887D01*
X142182459Y-110107887D02*
X142177133Y-110043932D01*
X142177133Y-110043932D02*
X142169650Y-109958093D01*
X142169650Y-109958093D02*
X142160186Y-109852309D01*
X142160186Y-109852309D02*
X142148917Y-109728522D01*
X142148917Y-109728522D02*
X142136021Y-109588672D01*
X142136021Y-109588672D02*
X142121675Y-109434699D01*
X142121675Y-109434699D02*
X142106054Y-109268543D01*
X142106054Y-109268543D02*
X142089337Y-109092146D01*
X142089337Y-109092146D02*
X142087177Y-109069517D01*
X142087177Y-109069517D02*
X143401239Y-109069517D01*
X143401239Y-109069517D02*
X143406325Y-109071002D01*
X143406325Y-109071002D02*
X143426776Y-109055940D01*
X143426776Y-109055940D02*
X143458335Y-109027527D01*
X143458335Y-109027527D02*
X143462419Y-109023611D01*
X143462419Y-109023611D02*
X143511655Y-108982626D01*
X143511655Y-108982626D02*
X143572836Y-108940615D01*
X143572836Y-108940615D02*
X143628603Y-108908857D01*
X143628603Y-108908857D02*
X143752824Y-108861687D01*
X143752824Y-108861687D02*
X143878922Y-108841548D01*
X143878922Y-108841548D02*
X144004146Y-108848020D01*
X144004146Y-108848020D02*
X144125743Y-108880685D01*
X144125743Y-108880685D02*
X144240961Y-108939125D01*
X144240961Y-108939125D02*
X144340904Y-109017106D01*
X144340904Y-109017106D02*
X144376523Y-109048838D01*
X144376523Y-109048838D02*
X144401807Y-109068248D01*
X144401807Y-109068248D02*
X144412583Y-109072247D01*
X144412583Y-109072247D02*
X144412361Y-109069973D01*
X144412361Y-109069973D02*
X144406993Y-109053234D01*
X144406993Y-109053234D02*
X144394093Y-109012302D01*
X144394093Y-109012302D02*
X144374407Y-108949562D01*
X144374407Y-108949562D02*
X144348681Y-108867396D01*
X144348681Y-108867396D02*
X144317659Y-108768191D01*
X144317659Y-108768191D02*
X144282088Y-108654328D01*
X144282088Y-108654328D02*
X144242713Y-108528193D01*
X144242713Y-108528193D02*
X144200280Y-108392169D01*
X144200280Y-108392169D02*
X144157759Y-108255781D01*
X144157759Y-108255781D02*
X144113294Y-108113200D01*
X144113294Y-108113200D02*
X144071315Y-107978742D01*
X144071315Y-107978742D02*
X144032546Y-107854722D01*
X144032546Y-107854722D02*
X143997713Y-107743456D01*
X143997713Y-107743456D02*
X143967542Y-107647256D01*
X143967542Y-107647256D02*
X143942760Y-107568438D01*
X143942760Y-107568438D02*
X143924091Y-107509316D01*
X143924091Y-107509316D02*
X143912262Y-107472205D01*
X143912262Y-107472205D02*
X143908008Y-107459424D01*
X143908008Y-107459424D02*
X143903539Y-107471775D01*
X143903539Y-107471775D02*
X143891530Y-107508420D01*
X143891530Y-107508420D02*
X143872703Y-107567072D01*
X143872703Y-107567072D02*
X143847782Y-107645444D01*
X143847782Y-107645444D02*
X143817489Y-107741248D01*
X143817489Y-107741248D02*
X143782548Y-107852199D01*
X143782548Y-107852199D02*
X143743682Y-107976009D01*
X143743682Y-107976009D02*
X143701614Y-108110391D01*
X143701614Y-108110391D02*
X143657166Y-108252739D01*
X143657166Y-108252739D02*
X143612402Y-108396217D01*
X143612402Y-108396217D02*
X143569981Y-108532064D01*
X143569981Y-108532064D02*
X143530647Y-108657901D01*
X143530647Y-108657901D02*
X143495146Y-108771353D01*
X143495146Y-108771353D02*
X143464223Y-108870042D01*
X143464223Y-108870042D02*
X143438622Y-108951590D01*
X143438622Y-108951590D02*
X143419087Y-109013621D01*
X143419087Y-109013621D02*
X143406365Y-109053757D01*
X143406365Y-109053757D02*
X143401239Y-109069517D01*
X143401239Y-109069517D02*
X142087177Y-109069517D01*
X142087177Y-109069517D02*
X142071700Y-108907447D01*
X142071700Y-108907447D02*
X142068706Y-108876226D01*
X142068706Y-108876226D02*
X142050963Y-108690262D01*
X142050963Y-108690262D02*
X142034175Y-108512220D01*
X142034175Y-108512220D02*
X142018514Y-108344045D01*
X142018514Y-108344045D02*
X142004152Y-108187685D01*
X142004152Y-108187685D02*
X141991262Y-108045086D01*
X141991262Y-108045086D02*
X141980016Y-107918195D01*
X141980016Y-107918195D02*
X141970586Y-107808958D01*
X141970586Y-107808958D02*
X141963144Y-107719322D01*
X141963144Y-107719322D02*
X141957862Y-107651233D01*
X141957862Y-107651233D02*
X141954913Y-107606639D01*
X141954913Y-107606639D02*
X141954469Y-107587484D01*
X141954469Y-107587484D02*
X141954646Y-107586907D01*
X141954646Y-107586907D02*
X141968971Y-107590256D01*
X141968971Y-107590256D02*
X142005875Y-107603663D01*
X142005875Y-107603663D02*
X142062472Y-107625948D01*
X142062472Y-107625948D02*
X142135875Y-107655932D01*
X142135875Y-107655932D02*
X142223197Y-107692435D01*
X142223197Y-107692435D02*
X142321550Y-107734277D01*
X142321550Y-107734277D02*
X142428048Y-107780278D01*
X142428048Y-107780278D02*
X142430249Y-107781236D01*
X142430249Y-107781236D02*
X142536771Y-107827540D01*
X142536771Y-107827540D02*
X142635011Y-107870138D01*
X142635011Y-107870138D02*
X142722105Y-107907797D01*
X142722105Y-107907797D02*
X142795192Y-107939284D01*
X142795192Y-107939284D02*
X142851410Y-107963366D01*
X142851410Y-107963366D02*
X142887897Y-107978809D01*
X142887897Y-107978809D02*
X142901790Y-107984382D01*
X142901790Y-107984382D02*
X142901818Y-107984384D01*
X142901818Y-107984384D02*
X142909169Y-107972521D01*
X142909169Y-107972521D02*
X142928919Y-107938206D01*
X142928919Y-107938206D02*
X142960004Y-107883344D01*
X142960004Y-107883344D02*
X143001354Y-107809843D01*
X143001354Y-107809843D02*
X143051904Y-107719612D01*
X143051904Y-107719612D02*
X143110586Y-107614557D01*
X143110586Y-107614557D02*
X143176333Y-107496586D01*
X143176333Y-107496586D02*
X143248079Y-107367607D01*
X143248079Y-107367607D02*
X143324755Y-107229526D01*
X143324755Y-107229526D02*
X143399822Y-107094132D01*
X143399822Y-107094132D02*
X143480297Y-106949212D01*
X143480297Y-106949212D02*
X143557063Y-106811622D01*
X143557063Y-106811622D02*
X143629032Y-106683271D01*
X143629032Y-106683271D02*
X143695116Y-106566072D01*
X143695116Y-106566072D02*
X143754226Y-106461933D01*
X143754226Y-106461933D02*
X143805275Y-106372764D01*
X143805275Y-106372764D02*
X143847174Y-106300476D01*
X143847174Y-106300476D02*
X143878835Y-106246978D01*
X143878835Y-106246978D02*
X143899169Y-106214182D01*
X143899169Y-106214182D02*
X143906959Y-106203933D01*
X143906959Y-106203933D02*
X143915828Y-106215810D01*
X143915828Y-106215810D02*
X143915828Y-106215810D01*
G36*
X142068706Y-108876226D02*
G01*
X142050963Y-108690262D01*
X142034175Y-108512220D01*
X142018514Y-108344045D01*
X142004152Y-108187685D01*
X141991262Y-108045086D01*
X141980016Y-107918195D01*
X141970586Y-107808958D01*
X141963144Y-107719322D01*
X141957862Y-107651233D01*
X141954913Y-107606639D01*
X141954469Y-107587484D01*
X141954646Y-107586907D01*
X141968971Y-107590256D01*
X142005875Y-107603663D01*
X142062472Y-107625948D01*
X142135875Y-107655932D01*
X142223197Y-107692435D01*
X142321550Y-107734277D01*
X142428048Y-107780278D01*
X142430249Y-107781236D01*
X142536771Y-107827540D01*
X142635011Y-107870138D01*
X142722105Y-107907797D01*
X142795192Y-107939284D01*
X142851410Y-107963366D01*
X142887897Y-107978809D01*
X142901790Y-107984382D01*
X142901818Y-107984384D01*
X142909169Y-107972521D01*
X142928919Y-107938206D01*
X142960004Y-107883344D01*
X143001354Y-107809843D01*
X143051904Y-107719612D01*
X143110586Y-107614557D01*
X143176333Y-107496586D01*
X143248079Y-107367607D01*
X143324755Y-107229526D01*
X143399822Y-107094132D01*
X143480297Y-106949212D01*
X143557063Y-106811622D01*
X143629032Y-106683271D01*
X143695116Y-106566072D01*
X143754226Y-106461933D01*
X143805275Y-106372764D01*
X143847174Y-106300476D01*
X143878835Y-106246978D01*
X143899169Y-106214182D01*
X143906959Y-106203933D01*
X143915828Y-106215810D01*
X143937031Y-106250138D01*
X143969466Y-106304988D01*
X144012034Y-106378430D01*
X144063634Y-106468537D01*
X144123166Y-106573380D01*
X144189530Y-106691029D01*
X144261626Y-106819556D01*
X144338352Y-106957033D01*
X144404894Y-107076787D01*
X144484738Y-107220733D01*
X144560795Y-107357789D01*
X144631965Y-107485976D01*
X144697147Y-107603311D01*
X144755238Y-107707816D01*
X144805138Y-107797509D01*
X144845745Y-107870410D01*
X144875959Y-107924539D01*
X144894678Y-107957916D01*
X144900667Y-107968394D01*
X144909114Y-107971201D01*
X144928819Y-107967900D01*
X144961826Y-107957702D01*
X145010180Y-107939817D01*
X145075923Y-107913456D01*
X145161102Y-107877831D01*
X145267760Y-107832152D01*
X145381565Y-107782770D01*
X145488458Y-107736519D01*
X145587265Y-107694396D01*
X145675109Y-107657580D01*
X145749113Y-107627250D01*
X145806398Y-107604585D01*
X145844086Y-107590763D01*
X145859301Y-107586964D01*
X145859399Y-107587034D01*
X145859360Y-107601846D01*
X145856790Y-107642416D01*
X145851859Y-107706798D01*
X145844742Y-107793044D01*
X145835610Y-107899209D01*
X145824635Y-108023346D01*
X145811990Y-108163509D01*
X145797848Y-108317751D01*
X145782380Y-108484127D01*
X145765760Y-108660690D01*
X145748159Y-108845493D01*
X145745212Y-108876226D01*
X145727441Y-109062115D01*
X145710564Y-109240027D01*
X145694758Y-109408020D01*
X145680198Y-109564154D01*
X145667063Y-109706488D01*
X145655528Y-109833082D01*
X145645769Y-109941995D01*
X145637965Y-110031285D01*
X145632291Y-110099013D01*
X145628923Y-110143238D01*
X145628040Y-110162019D01*
X145628145Y-110162538D01*
X145639303Y-110154621D01*
X145669375Y-110129773D01*
X145716513Y-110089605D01*
X145778867Y-110035726D01*
X145854591Y-109969745D01*
X145941835Y-109893272D01*
X146038751Y-109807918D01*
X146143490Y-109715291D01*
X146236122Y-109633079D01*
X146346216Y-109535387D01*
X146450199Y-109443446D01*
X146546200Y-109358890D01*
X146632348Y-109283352D01*
X146706769Y-109218465D01*
X146767594Y-109165861D01*
X146812949Y-109127174D01*
X146840964Y-109104035D01*
X146849706Y-109097809D01*
X146853955Y-109100925D01*
X146860484Y-109111816D01*
X146870198Y-109132795D01*
X146884002Y-109166177D01*
X146902801Y-109214276D01*
X146927501Y-109279404D01*
X146959006Y-109363877D01*
X146998222Y-109470007D01*
X147043506Y-109593166D01*
X147084853Y-109705784D01*
X146966252Y-109842604D01*
X146813232Y-110023611D01*
X146652733Y-110221790D01*
X146487007Y-110433920D01*
X146318306Y-110656782D01*
X146148879Y-110887156D01*
X145980979Y-111121821D01*
X145816857Y-111357558D01*
X145658764Y-111591146D01*
X145508952Y-111819366D01*
X145369672Y-112038997D01*
X145243174Y-112246819D01*
X145131711Y-112439613D01*
X145064384Y-112562873D01*
X144988801Y-112705245D01*
X144942889Y-112638515D01*
X144855367Y-112501790D01*
X144764677Y-112342444D01*
X144672999Y-112165174D01*
X144582514Y-111974674D01*
X144495404Y-111775642D01*
X144413849Y-111572774D01*
X144340031Y-111370765D01*
X144303615Y-111262028D01*
X144237949Y-111047960D01*
X144172222Y-110812794D01*
X144108089Y-110563211D01*
X144047209Y-110305896D01*
X143991237Y-110047531D01*
X143947692Y-109826394D01*
X143908258Y-109615527D01*
X143836607Y-109972531D01*
X143757426Y-110344304D01*
X143674014Y-110690580D01*
X143585620Y-111013476D01*
X143491494Y-111315112D01*
X143390885Y-111597606D01*
X143283043Y-111863077D01*
X143167218Y-112113644D01*
X143042660Y-112351427D01*
X142920537Y-112559377D01*
X142887287Y-112612208D01*
X142858863Y-112655711D01*
X142838714Y-112684711D01*
X142830892Y-112693978D01*
X142820561Y-112685278D01*
X142801331Y-112656679D01*
X142776473Y-112613318D01*
X142761925Y-112585697D01*
X142681030Y-112434968D01*
X142583782Y-112266122D01*
X142472158Y-112081990D01*
X142348132Y-111885403D01*
X142213681Y-111679194D01*
X142070781Y-111466193D01*
X141921408Y-111249232D01*
X141767538Y-111031144D01*
X141611147Y-110814758D01*
X141454211Y-110602908D01*
X141298706Y-110398425D01*
X141146608Y-110204139D01*
X140999893Y-110022884D01*
X140860537Y-109857489D01*
X140847666Y-109842604D01*
X140729065Y-109705784D01*
X140770412Y-109593166D01*
X140817808Y-109464271D01*
X140856631Y-109359236D01*
X140887783Y-109275748D01*
X140912169Y-109211495D01*
X140930693Y-109164164D01*
X140944259Y-109131443D01*
X140953771Y-109111020D01*
X140960133Y-109100582D01*
X140964064Y-109097809D01*
X140976244Y-109106801D01*
X141007327Y-109132689D01*
X141055439Y-109173841D01*
X141118710Y-109228626D01*
X141195267Y-109295411D01*
X141283239Y-109372565D01*
X141380755Y-109458455D01*
X141485942Y-109551451D01*
X141577802Y-109632924D01*
X141687727Y-109730381D01*
X141791373Y-109821924D01*
X141886892Y-109905945D01*
X141972436Y-109980835D01*
X142046156Y-110044983D01*
X142106204Y-110096780D01*
X142150732Y-110134618D01*
X142177890Y-110156887D01*
X142185928Y-110162383D01*
X142185449Y-110148018D01*
X142182459Y-110107887D01*
X142177133Y-110043932D01*
X142169650Y-109958093D01*
X142160186Y-109852309D01*
X142148917Y-109728522D01*
X142136021Y-109588672D01*
X142121675Y-109434699D01*
X142106054Y-109268543D01*
X142089337Y-109092146D01*
X142087177Y-109069517D01*
X143401239Y-109069517D01*
X143406325Y-109071002D01*
X143426776Y-109055940D01*
X143458335Y-109027527D01*
X143462419Y-109023611D01*
X143511655Y-108982626D01*
X143572836Y-108940615D01*
X143628603Y-108908857D01*
X143752824Y-108861687D01*
X143878922Y-108841548D01*
X144004146Y-108848020D01*
X144125743Y-108880685D01*
X144240961Y-108939125D01*
X144340904Y-109017106D01*
X144376523Y-109048838D01*
X144401807Y-109068248D01*
X144412583Y-109072247D01*
X144412361Y-109069973D01*
X144406993Y-109053234D01*
X144394093Y-109012302D01*
X144374407Y-108949562D01*
X144348681Y-108867396D01*
X144317659Y-108768191D01*
X144282088Y-108654328D01*
X144242713Y-108528193D01*
X144200280Y-108392169D01*
X144157759Y-108255781D01*
X144113294Y-108113200D01*
X144071315Y-107978742D01*
X144032546Y-107854722D01*
X143997713Y-107743456D01*
X143967542Y-107647256D01*
X143942760Y-107568438D01*
X143924091Y-107509316D01*
X143912262Y-107472205D01*
X143908008Y-107459424D01*
X143903539Y-107471775D01*
X143891530Y-107508420D01*
X143872703Y-107567072D01*
X143847782Y-107645444D01*
X143817489Y-107741248D01*
X143782548Y-107852199D01*
X143743682Y-107976009D01*
X143701614Y-108110391D01*
X143657166Y-108252739D01*
X143612402Y-108396217D01*
X143569981Y-108532064D01*
X143530647Y-108657901D01*
X143495146Y-108771353D01*
X143464223Y-108870042D01*
X143438622Y-108951590D01*
X143419087Y-109013621D01*
X143406365Y-109053757D01*
X143401239Y-109069517D01*
X142087177Y-109069517D01*
X142071700Y-108907447D01*
X142068706Y-108876226D01*
G37*
X142068706Y-108876226D02*
X142050963Y-108690262D01*
X142034175Y-108512220D01*
X142018514Y-108344045D01*
X142004152Y-108187685D01*
X141991262Y-108045086D01*
X141980016Y-107918195D01*
X141970586Y-107808958D01*
X141963144Y-107719322D01*
X141957862Y-107651233D01*
X141954913Y-107606639D01*
X141954469Y-107587484D01*
X141954646Y-107586907D01*
X141968971Y-107590256D01*
X142005875Y-107603663D01*
X142062472Y-107625948D01*
X142135875Y-107655932D01*
X142223197Y-107692435D01*
X142321550Y-107734277D01*
X142428048Y-107780278D01*
X142430249Y-107781236D01*
X142536771Y-107827540D01*
X142635011Y-107870138D01*
X142722105Y-107907797D01*
X142795192Y-107939284D01*
X142851410Y-107963366D01*
X142887897Y-107978809D01*
X142901790Y-107984382D01*
X142901818Y-107984384D01*
X142909169Y-107972521D01*
X142928919Y-107938206D01*
X142960004Y-107883344D01*
X143001354Y-107809843D01*
X143051904Y-107719612D01*
X143110586Y-107614557D01*
X143176333Y-107496586D01*
X143248079Y-107367607D01*
X143324755Y-107229526D01*
X143399822Y-107094132D01*
X143480297Y-106949212D01*
X143557063Y-106811622D01*
X143629032Y-106683271D01*
X143695116Y-106566072D01*
X143754226Y-106461933D01*
X143805275Y-106372764D01*
X143847174Y-106300476D01*
X143878835Y-106246978D01*
X143899169Y-106214182D01*
X143906959Y-106203933D01*
X143915828Y-106215810D01*
X143937031Y-106250138D01*
X143969466Y-106304988D01*
X144012034Y-106378430D01*
X144063634Y-106468537D01*
X144123166Y-106573380D01*
X144189530Y-106691029D01*
X144261626Y-106819556D01*
X144338352Y-106957033D01*
X144404894Y-107076787D01*
X144484738Y-107220733D01*
X144560795Y-107357789D01*
X144631965Y-107485976D01*
X144697147Y-107603311D01*
X144755238Y-107707816D01*
X144805138Y-107797509D01*
X144845745Y-107870410D01*
X144875959Y-107924539D01*
X144894678Y-107957916D01*
X144900667Y-107968394D01*
X144909114Y-107971201D01*
X144928819Y-107967900D01*
X144961826Y-107957702D01*
X145010180Y-107939817D01*
X145075923Y-107913456D01*
X145161102Y-107877831D01*
X145267760Y-107832152D01*
X145381565Y-107782770D01*
X145488458Y-107736519D01*
X145587265Y-107694396D01*
X145675109Y-107657580D01*
X145749113Y-107627250D01*
X145806398Y-107604585D01*
X145844086Y-107590763D01*
X145859301Y-107586964D01*
X145859399Y-107587034D01*
X145859360Y-107601846D01*
X145856790Y-107642416D01*
X145851859Y-107706798D01*
X145844742Y-107793044D01*
X145835610Y-107899209D01*
X145824635Y-108023346D01*
X145811990Y-108163509D01*
X145797848Y-108317751D01*
X145782380Y-108484127D01*
X145765760Y-108660690D01*
X145748159Y-108845493D01*
X145745212Y-108876226D01*
X145727441Y-109062115D01*
X145710564Y-109240027D01*
X145694758Y-109408020D01*
X145680198Y-109564154D01*
X145667063Y-109706488D01*
X145655528Y-109833082D01*
X145645769Y-109941995D01*
X145637965Y-110031285D01*
X145632291Y-110099013D01*
X145628923Y-110143238D01*
X145628040Y-110162019D01*
X145628145Y-110162538D01*
X145639303Y-110154621D01*
X145669375Y-110129773D01*
X145716513Y-110089605D01*
X145778867Y-110035726D01*
X145854591Y-109969745D01*
X145941835Y-109893272D01*
X146038751Y-109807918D01*
X146143490Y-109715291D01*
X146236122Y-109633079D01*
X146346216Y-109535387D01*
X146450199Y-109443446D01*
X146546200Y-109358890D01*
X146632348Y-109283352D01*
X146706769Y-109218465D01*
X146767594Y-109165861D01*
X146812949Y-109127174D01*
X146840964Y-109104035D01*
X146849706Y-109097809D01*
X146853955Y-109100925D01*
X146860484Y-109111816D01*
X146870198Y-109132795D01*
X146884002Y-109166177D01*
X146902801Y-109214276D01*
X146927501Y-109279404D01*
X146959006Y-109363877D01*
X146998222Y-109470007D01*
X147043506Y-109593166D01*
X147084853Y-109705784D01*
X146966252Y-109842604D01*
X146813232Y-110023611D01*
X146652733Y-110221790D01*
X146487007Y-110433920D01*
X146318306Y-110656782D01*
X146148879Y-110887156D01*
X145980979Y-111121821D01*
X145816857Y-111357558D01*
X145658764Y-111591146D01*
X145508952Y-111819366D01*
X145369672Y-112038997D01*
X145243174Y-112246819D01*
X145131711Y-112439613D01*
X145064384Y-112562873D01*
X144988801Y-112705245D01*
X144942889Y-112638515D01*
X144855367Y-112501790D01*
X144764677Y-112342444D01*
X144672999Y-112165174D01*
X144582514Y-111974674D01*
X144495404Y-111775642D01*
X144413849Y-111572774D01*
X144340031Y-111370765D01*
X144303615Y-111262028D01*
X144237949Y-111047960D01*
X144172222Y-110812794D01*
X144108089Y-110563211D01*
X144047209Y-110305896D01*
X143991237Y-110047531D01*
X143947692Y-109826394D01*
X143908258Y-109615527D01*
X143836607Y-109972531D01*
X143757426Y-110344304D01*
X143674014Y-110690580D01*
X143585620Y-111013476D01*
X143491494Y-111315112D01*
X143390885Y-111597606D01*
X143283043Y-111863077D01*
X143167218Y-112113644D01*
X143042660Y-112351427D01*
X142920537Y-112559377D01*
X142887287Y-112612208D01*
X142858863Y-112655711D01*
X142838714Y-112684711D01*
X142830892Y-112693978D01*
X142820561Y-112685278D01*
X142801331Y-112656679D01*
X142776473Y-112613318D01*
X142761925Y-112585697D01*
X142681030Y-112434968D01*
X142583782Y-112266122D01*
X142472158Y-112081990D01*
X142348132Y-111885403D01*
X142213681Y-111679194D01*
X142070781Y-111466193D01*
X141921408Y-111249232D01*
X141767538Y-111031144D01*
X141611147Y-110814758D01*
X141454211Y-110602908D01*
X141298706Y-110398425D01*
X141146608Y-110204139D01*
X140999893Y-110022884D01*
X140860537Y-109857489D01*
X140847666Y-109842604D01*
X140729065Y-109705784D01*
X140770412Y-109593166D01*
X140817808Y-109464271D01*
X140856631Y-109359236D01*
X140887783Y-109275748D01*
X140912169Y-109211495D01*
X140930693Y-109164164D01*
X140944259Y-109131443D01*
X140953771Y-109111020D01*
X140960133Y-109100582D01*
X140964064Y-109097809D01*
X140976244Y-109106801D01*
X141007327Y-109132689D01*
X141055439Y-109173841D01*
X141118710Y-109228626D01*
X141195267Y-109295411D01*
X141283239Y-109372565D01*
X141380755Y-109458455D01*
X141485942Y-109551451D01*
X141577802Y-109632924D01*
X141687727Y-109730381D01*
X141791373Y-109821924D01*
X141886892Y-109905945D01*
X141972436Y-109980835D01*
X142046156Y-110044983D01*
X142106204Y-110096780D01*
X142150732Y-110134618D01*
X142177890Y-110156887D01*
X142185928Y-110162383D01*
X142185449Y-110148018D01*
X142182459Y-110107887D01*
X142177133Y-110043932D01*
X142169650Y-109958093D01*
X142160186Y-109852309D01*
X142148917Y-109728522D01*
X142136021Y-109588672D01*
X142121675Y-109434699D01*
X142106054Y-109268543D01*
X142089337Y-109092146D01*
X142087177Y-109069517D01*
X143401239Y-109069517D01*
X143406325Y-109071002D01*
X143426776Y-109055940D01*
X143458335Y-109027527D01*
X143462419Y-109023611D01*
X143511655Y-108982626D01*
X143572836Y-108940615D01*
X143628603Y-108908857D01*
X143752824Y-108861687D01*
X143878922Y-108841548D01*
X144004146Y-108848020D01*
X144125743Y-108880685D01*
X144240961Y-108939125D01*
X144340904Y-109017106D01*
X144376523Y-109048838D01*
X144401807Y-109068248D01*
X144412583Y-109072247D01*
X144412361Y-109069973D01*
X144406993Y-109053234D01*
X144394093Y-109012302D01*
X144374407Y-108949562D01*
X144348681Y-108867396D01*
X144317659Y-108768191D01*
X144282088Y-108654328D01*
X144242713Y-108528193D01*
X144200280Y-108392169D01*
X144157759Y-108255781D01*
X144113294Y-108113200D01*
X144071315Y-107978742D01*
X144032546Y-107854722D01*
X143997713Y-107743456D01*
X143967542Y-107647256D01*
X143942760Y-107568438D01*
X143924091Y-107509316D01*
X143912262Y-107472205D01*
X143908008Y-107459424D01*
X143903539Y-107471775D01*
X143891530Y-107508420D01*
X143872703Y-107567072D01*
X143847782Y-107645444D01*
X143817489Y-107741248D01*
X143782548Y-107852199D01*
X143743682Y-107976009D01*
X143701614Y-108110391D01*
X143657166Y-108252739D01*
X143612402Y-108396217D01*
X143569981Y-108532064D01*
X143530647Y-108657901D01*
X143495146Y-108771353D01*
X143464223Y-108870042D01*
X143438622Y-108951590D01*
X143419087Y-109013621D01*
X143406365Y-109053757D01*
X143401239Y-109069517D01*
X142087177Y-109069517D01*
X142071700Y-108907447D01*
X142068706Y-108876226D01*
X139101393Y-109607939D02*
X139140066Y-109614799D01*
X139140066Y-109614799D02*
X139200704Y-109626060D01*
X139200704Y-109626060D02*
X139280638Y-109641210D01*
X139280638Y-109641210D02*
X139377198Y-109659742D01*
X139377198Y-109659742D02*
X139487717Y-109681144D01*
X139487717Y-109681144D02*
X139609524Y-109704909D01*
X139609524Y-109704909D02*
X139739951Y-109730526D01*
X139739951Y-109730526D02*
X139742188Y-109730967D01*
X139742188Y-109730967D02*
X139903354Y-109762947D01*
X139903354Y-109762947D02*
X140038950Y-109790363D01*
X140038950Y-109790363D02*
X140150792Y-109813630D01*
X140150792Y-109813630D02*
X140240695Y-109833159D01*
X140240695Y-109833159D02*
X140310478Y-109849365D01*
X140310478Y-109849365D02*
X140361956Y-109862660D01*
X140361956Y-109862660D02*
X140396947Y-109873457D01*
X140396947Y-109873457D02*
X140417265Y-109882169D01*
X140417265Y-109882169D02*
X140422204Y-109885608D01*
X140422204Y-109885608D02*
X140447147Y-109912453D01*
X140447147Y-109912453D02*
X140485452Y-109959311D01*
X140485452Y-109959311D02*
X140534893Y-110023132D01*
X140534893Y-110023132D02*
X140593247Y-110100866D01*
X140593247Y-110100866D02*
X140658288Y-110189463D01*
X140658288Y-110189463D02*
X140727792Y-110285874D01*
X140727792Y-110285874D02*
X140799533Y-110387048D01*
X140799533Y-110387048D02*
X140871288Y-110489937D01*
X140871288Y-110489937D02*
X140940830Y-110591490D01*
X140940830Y-110591490D02*
X140984546Y-110656467D01*
X140984546Y-110656467D02*
X141191083Y-110974668D01*
X141191083Y-110974668D02*
X141393437Y-111303552D01*
X141393437Y-111303552D02*
X141589308Y-111638858D01*
X141589308Y-111638858D02*
X141776397Y-111976325D01*
X141776397Y-111976325D02*
X141952403Y-112311694D01*
X141952403Y-112311694D02*
X142115026Y-112640703D01*
X142115026Y-112640703D02*
X142261968Y-112959092D01*
X142261968Y-112959092D02*
X142389563Y-113259233D01*
X142389563Y-113259233D02*
X142421732Y-113341260D01*
X142421732Y-113341260D02*
X142456699Y-113434875D01*
X142456699Y-113434875D02*
X142492821Y-113535236D01*
X142492821Y-113535236D02*
X142528460Y-113637498D01*
X142528460Y-113637498D02*
X142561973Y-113736817D01*
X142561973Y-113736817D02*
X142591720Y-113828352D01*
X142591720Y-113828352D02*
X142616060Y-113907258D01*
X142616060Y-113907258D02*
X142633352Y-113968691D01*
X142633352Y-113968691D02*
X142640777Y-114000744D01*
X142640777Y-114000744D02*
X142649293Y-114034030D01*
X142649293Y-114034030D02*
X142658240Y-114051689D01*
X142658240Y-114051689D02*
X142660153Y-114052548D01*
X142660153Y-114052548D02*
X142673508Y-114042468D01*
X142673508Y-114042468D02*
X142702144Y-114014284D01*
X142702144Y-114014284D02*
X142743291Y-113971081D01*
X142743291Y-113971081D02*
X142794176Y-113915946D01*
X142794176Y-113915946D02*
X142852031Y-113851962D01*
X142852031Y-113851962D02*
X142914084Y-113782216D01*
X142914084Y-113782216D02*
X142977564Y-113709793D01*
X142977564Y-113709793D02*
X143039702Y-113637778D01*
X143039702Y-113637778D02*
X143097727Y-113569256D01*
X143097727Y-113569256D02*
X143140098Y-113518079D01*
X143140098Y-113518079D02*
X143269862Y-113354280D01*
X143269862Y-113354280D02*
X143389359Y-113192245D01*
X143389359Y-113192245D02*
X143502834Y-113025624D01*
X143502834Y-113025624D02*
X143614535Y-112848069D01*
X143614535Y-112848069D02*
X143728707Y-112653229D01*
X143728707Y-112653229D02*
X143781623Y-112558942D01*
X143781623Y-112558942D02*
X143821026Y-112489513D01*
X143821026Y-112489513D02*
X143856331Y-112430332D01*
X143856331Y-112430332D02*
X143885240Y-112385010D01*
X143885240Y-112385010D02*
X143905455Y-112357158D01*
X143905455Y-112357158D02*
X143914518Y-112350175D01*
X143914518Y-112350175D02*
X143925052Y-112366292D01*
X143925052Y-112366292D02*
X143945685Y-112401695D01*
X143945685Y-112401695D02*
X143973410Y-112451112D01*
X143973410Y-112451112D02*
X144004356Y-112507672D01*
X144004356Y-112507672D02*
X144158177Y-112779432D01*
X144158177Y-112779432D02*
X144314493Y-113029619D01*
X144314493Y-113029619D02*
X144477420Y-113264450D01*
X144477420Y-113264450D02*
X144651074Y-113490139D01*
X144651074Y-113490139D02*
X144672674Y-113516713D01*
X144672674Y-113516713D02*
X144725561Y-113580421D01*
X144725561Y-113580421D02*
X144784768Y-113650080D01*
X144784768Y-113650080D02*
X144847533Y-113722611D01*
X144847533Y-113722611D02*
X144911090Y-113794936D01*
X144911090Y-113794936D02*
X144972678Y-113863977D01*
X144972678Y-113863977D02*
X145029532Y-113926657D01*
X145029532Y-113926657D02*
X145078889Y-113979896D01*
X145078889Y-113979896D02*
X145117984Y-114020618D01*
X145117984Y-114020618D02*
X145144055Y-114045743D01*
X145144055Y-114045743D02*
X145153765Y-114052548D01*
X145153765Y-114052548D02*
X145162257Y-114040361D01*
X145162257Y-114040361D02*
X145171219Y-114010137D01*
X145171219Y-114010137D02*
X145173141Y-114000744D01*
X145173141Y-114000744D02*
X145183971Y-113955851D01*
X145183971Y-113955851D02*
X145203097Y-113889800D01*
X145203097Y-113889800D02*
X145228879Y-113807434D01*
X145228879Y-113807434D02*
X145259676Y-113713597D01*
X145259676Y-113713597D02*
X145293847Y-113613133D01*
X145293847Y-113613133D02*
X145329751Y-113510886D01*
X145329751Y-113510886D02*
X145365746Y-113411697D01*
X145365746Y-113411697D02*
X145400193Y-113320412D01*
X145400193Y-113320412D02*
X145424355Y-113259233D01*
X145424355Y-113259233D02*
X145550984Y-112961402D01*
X145550984Y-112961402D02*
X145695317Y-112648521D01*
X145695317Y-112648521D02*
X145855035Y-112324883D01*
X145855035Y-112324883D02*
X146027823Y-111994779D01*
X146027823Y-111994779D02*
X146211365Y-111662501D01*
X146211365Y-111662501D02*
X146403344Y-111332342D01*
X146403344Y-111332342D02*
X146601444Y-111008592D01*
X146601444Y-111008592D02*
X146803349Y-110695543D01*
X146803349Y-110695543D02*
X146827990Y-110658501D01*
X146827990Y-110658501D02*
X146894755Y-110559644D01*
X146894755Y-110559644D02*
X146965222Y-110457388D01*
X146965222Y-110457388D02*
X147037169Y-110354778D01*
X147037169Y-110354778D02*
X147108376Y-110254859D01*
X147108376Y-110254859D02*
X147176624Y-110160678D01*
X147176624Y-110160678D02*
X147239690Y-110075278D01*
X147239690Y-110075278D02*
X147295356Y-110001707D01*
X147295356Y-110001707D02*
X147341400Y-109943008D01*
X147341400Y-109943008D02*
X147375603Y-109902228D01*
X147375603Y-109902228D02*
X147391106Y-109886158D01*
X147391106Y-109886158D02*
X147405812Y-109878221D01*
X147405812Y-109878221D02*
X147435581Y-109868132D01*
X147435581Y-109868132D02*
X147482113Y-109855504D01*
X147482113Y-109855504D02*
X147547103Y-109839953D01*
X147547103Y-109839953D02*
X147632248Y-109821094D01*
X147632248Y-109821094D02*
X147739247Y-109798541D01*
X147739247Y-109798541D02*
X147869795Y-109771909D01*
X147869795Y-109771909D02*
X148025590Y-109740813D01*
X148025590Y-109740813D02*
X148071122Y-109731816D01*
X148071122Y-109731816D02*
X148201732Y-109706127D01*
X148201732Y-109706127D02*
X148323767Y-109682273D01*
X148323767Y-109682273D02*
X148434562Y-109660763D01*
X148434562Y-109660763D02*
X148531447Y-109642110D01*
X148531447Y-109642110D02*
X148611755Y-109626824D01*
X148611755Y-109626824D02*
X148672818Y-109615415D01*
X148672818Y-109615415D02*
X148711970Y-109608395D01*
X148711970Y-109608395D02*
X148726541Y-109606274D01*
X148726541Y-109606274D02*
X148726563Y-109606286D01*
X148726563Y-109606286D02*
X148723741Y-109619686D01*
X148723741Y-109619686D02*
X148714714Y-109657291D01*
X148714714Y-109657291D02*
X148700183Y-109716342D01*
X148700183Y-109716342D02*
X148680847Y-109794077D01*
X148680847Y-109794077D02*
X148657407Y-109887738D01*
X148657407Y-109887738D02*
X148630564Y-109994563D01*
X148630564Y-109994563D02*
X148601017Y-110111794D01*
X148601017Y-110111794D02*
X148569466Y-110236668D01*
X148569466Y-110236668D02*
X148536613Y-110366427D01*
X148536613Y-110366427D02*
X148503157Y-110498310D01*
X148503157Y-110498310D02*
X148469798Y-110629557D01*
X148469798Y-110629557D02*
X148437237Y-110757407D01*
X148437237Y-110757407D02*
X148406174Y-110879102D01*
X148406174Y-110879102D02*
X148377310Y-110991880D01*
X148377310Y-110991880D02*
X148351344Y-111092981D01*
X148351344Y-111092981D02*
X148328976Y-111179645D01*
X148328976Y-111179645D02*
X148310908Y-111249113D01*
X148310908Y-111249113D02*
X148297839Y-111298623D01*
X148297839Y-111298623D02*
X148290469Y-111325416D01*
X148290469Y-111325416D02*
X148290151Y-111326481D01*
X148290151Y-111326481D02*
X148293530Y-111337082D01*
X148293530Y-111337082D02*
X148310135Y-111353195D01*
X148310135Y-111353195D02*
X148342117Y-111376232D01*
X148342117Y-111376232D02*
X148391630Y-111407607D01*
X148391630Y-111407607D02*
X148460826Y-111448732D01*
X148460826Y-111448732D02*
X148551858Y-111501021D01*
X148551858Y-111501021D02*
X148582930Y-111518633D01*
X148582930Y-111518633D02*
X148665389Y-111565680D01*
X148665389Y-111565680D02*
X148739168Y-111608570D01*
X148739168Y-111608570D02*
X148800988Y-111645331D01*
X148800988Y-111645331D02*
X148847572Y-111673994D01*
X148847572Y-111673994D02*
X148875641Y-111692588D01*
X148875641Y-111692588D02*
X148882575Y-111698799D01*
X148882575Y-111698799D02*
X148871149Y-111707622D01*
X148871149Y-111707622D02*
X148837818Y-111730694D01*
X148837818Y-111730694D02*
X148784005Y-111767075D01*
X148784005Y-111767075D02*
X148711133Y-111815826D01*
X148711133Y-111815826D02*
X148620623Y-111876007D01*
X148620623Y-111876007D02*
X148513899Y-111946680D01*
X148513899Y-111946680D02*
X148392383Y-112026904D01*
X148392383Y-112026904D02*
X148257497Y-112115740D01*
X148257497Y-112115740D02*
X148110663Y-112212249D01*
X148110663Y-112212249D02*
X147953305Y-112315492D01*
X147953305Y-112315492D02*
X147786845Y-112424528D01*
X147786845Y-112424528D02*
X147612704Y-112538419D01*
X147612704Y-112538419D02*
X147477038Y-112627030D01*
X147477038Y-112627030D02*
X147298018Y-112744004D01*
X147298018Y-112744004D02*
X147125600Y-112856882D01*
X147125600Y-112856882D02*
X146961210Y-112964720D01*
X146961210Y-112964720D02*
X146806271Y-113066575D01*
X146806271Y-113066575D02*
X146662205Y-113161504D01*
X146662205Y-113161504D02*
X146530436Y-113248564D01*
X146530436Y-113248564D02*
X146412387Y-113326813D01*
X146412387Y-113326813D02*
X146309481Y-113395307D01*
X146309481Y-113395307D02*
X146223143Y-113453102D01*
X146223143Y-113453102D02*
X146154795Y-113499257D01*
X146154795Y-113499257D02*
X146105860Y-113532828D01*
X146105860Y-113532828D02*
X146077762Y-113552872D01*
X146077762Y-113552872D02*
X146071218Y-113558466D01*
X146071218Y-113558466D02*
X146075233Y-113574370D01*
X146075233Y-113574370D02*
X146086810Y-113613896D01*
X146086810Y-113613896D02*
X146105054Y-113674145D01*
X146105054Y-113674145D02*
X146129073Y-113752218D01*
X146129073Y-113752218D02*
X146157973Y-113845218D01*
X146157973Y-113845218D02*
X146190860Y-113950245D01*
X146190860Y-113950245D02*
X146226841Y-114064400D01*
X146226841Y-114064400D02*
X146239797Y-114105334D01*
X146239797Y-114105334D02*
X146276373Y-114221683D01*
X146276373Y-114221683D02*
X146309781Y-114329715D01*
X146309781Y-114329715D02*
X146339176Y-114426568D01*
X146339176Y-114426568D02*
X146363716Y-114509382D01*
X146363716Y-114509382D02*
X146382557Y-114575297D01*
X146382557Y-114575297D02*
X146394856Y-114621452D01*
X146394856Y-114621452D02*
X146399770Y-114644987D01*
X146399770Y-114644987D02*
X146399579Y-114647362D01*
X146399579Y-114647362D02*
X146384731Y-114647074D01*
X146384731Y-114647074D02*
X146344222Y-114643633D01*
X146344222Y-114643633D02*
X146280023Y-114637262D01*
X146280023Y-114637262D02*
X146194104Y-114628180D01*
X146194104Y-114628180D02*
X146088433Y-114616609D01*
X146088433Y-114616609D02*
X145964982Y-114602769D01*
X145964982Y-114602769D02*
X145825721Y-114586882D01*
X145825721Y-114586882D02*
X145672618Y-114569167D01*
X145672618Y-114569167D02*
X145507645Y-114549847D01*
X145507645Y-114549847D02*
X145332771Y-114529142D01*
X145332771Y-114529142D02*
X145149966Y-114507273D01*
X145149966Y-114507273D02*
X145148729Y-114507124D01*
X145148729Y-114507124D02*
X143906959Y-114357808D01*
X143906959Y-114357808D02*
X142690636Y-114504411D01*
X142690636Y-114504411D02*
X142509041Y-114526254D01*
X142509041Y-114526254D02*
X142334917Y-114547114D01*
X142334917Y-114547114D02*
X142170308Y-114566748D01*
X142170308Y-114566748D02*
X142017255Y-114584919D01*
X142017255Y-114584919D02*
X141877803Y-114601387D01*
X141877803Y-114601387D02*
X141753994Y-114615911D01*
X141753994Y-114615911D02*
X141647870Y-114628251D01*
X141647870Y-114628251D02*
X141561476Y-114638169D01*
X141561476Y-114638169D02*
X141496854Y-114645423D01*
X141496854Y-114645423D02*
X141456047Y-114649775D01*
X141456047Y-114649775D02*
X141441512Y-114651014D01*
X141441512Y-114651014D02*
X141416314Y-114646837D01*
X141416314Y-114646837D02*
X141408712Y-114639463D01*
X141408712Y-114639463D02*
X141412788Y-114624076D01*
X141412788Y-114624076D02*
X141424416Y-114585068D01*
X141424416Y-114585068D02*
X141442696Y-114525338D01*
X141442696Y-114525338D02*
X141466727Y-114447788D01*
X141466727Y-114447788D02*
X141495611Y-114355316D01*
X141495611Y-114355316D02*
X141528446Y-114250824D01*
X141528446Y-114250824D02*
X141564334Y-114137210D01*
X141564334Y-114137210D02*
X141575726Y-114101261D01*
X141575726Y-114101261D02*
X141612385Y-113985287D01*
X141612385Y-113985287D02*
X141646257Y-113877408D01*
X141646257Y-113877408D02*
X141676441Y-113780546D01*
X141676441Y-113780546D02*
X141702035Y-113697627D01*
X141702035Y-113697627D02*
X141722139Y-113631575D01*
X141722139Y-113631575D02*
X141735851Y-113585316D01*
X141735851Y-113585316D02*
X141742270Y-113561773D01*
X141742270Y-113561773D02*
X141742639Y-113559579D01*
X141742639Y-113559579D02*
X141731197Y-113550202D01*
X141731197Y-113550202D02*
X141697846Y-113526590D01*
X141697846Y-113526590D02*
X141644007Y-113489688D01*
X141644007Y-113489688D02*
X141571106Y-113440439D01*
X141571106Y-113440439D02*
X141480565Y-113379787D01*
X141480565Y-113379787D02*
X141373806Y-113308679D01*
X141373806Y-113308679D02*
X141252253Y-113228056D01*
X141252253Y-113228056D02*
X141117329Y-113138865D01*
X141117329Y-113138865D02*
X140970457Y-113042049D01*
X140970457Y-113042049D02*
X140813060Y-112938552D01*
X140813060Y-112938552D02*
X140646562Y-112829319D01*
X140646562Y-112829319D02*
X140472384Y-112715295D01*
X140472384Y-112715295D02*
X140336941Y-112626790D01*
X140336941Y-112626790D02*
X140157949Y-112509835D01*
X140157949Y-112509835D02*
X139985562Y-112397031D01*
X139985562Y-112397031D02*
X139821203Y-112289315D01*
X139821203Y-112289315D02*
X139666295Y-112187627D01*
X139666295Y-112187627D02*
X139522259Y-112092907D01*
X139522259Y-112092907D02*
X139390517Y-112006094D01*
X139390517Y-112006094D02*
X139272492Y-111928127D01*
X139272492Y-111928127D02*
X139169606Y-111859944D01*
X139169606Y-111859944D02*
X139083282Y-111802487D01*
X139083282Y-111802487D02*
X139014941Y-111756692D01*
X139014941Y-111756692D02*
X138966006Y-111723501D01*
X138966006Y-111723501D02*
X138937899Y-111703852D01*
X138937899Y-111703852D02*
X138931343Y-111698559D01*
X138931343Y-111698559D02*
X138942951Y-111689112D01*
X138942951Y-111689112D02*
X138975593Y-111668074D01*
X138975593Y-111668074D02*
X139025989Y-111637414D01*
X139025989Y-111637414D02*
X139090863Y-111599099D01*
X139090863Y-111599099D02*
X139166936Y-111555097D01*
X139166936Y-111555097D02*
X139230988Y-111518633D01*
X139230988Y-111518633D02*
X139328815Y-111462812D01*
X139328815Y-111462812D02*
X139404177Y-111418567D01*
X139404177Y-111418567D02*
X139459226Y-111384486D01*
X139459226Y-111384486D02*
X139496114Y-111359155D01*
X139496114Y-111359155D02*
X139516994Y-111341163D01*
X139516994Y-111341163D02*
X139524020Y-111329095D01*
X139524020Y-111329095D02*
X139523767Y-111326481D01*
X139523767Y-111326481D02*
X139516832Y-111301447D01*
X139516832Y-111301447D02*
X139504147Y-111253491D01*
X139504147Y-111253491D02*
X139486413Y-111185374D01*
X139486413Y-111185374D02*
X139464330Y-111099855D01*
X139464330Y-111099855D02*
X139438598Y-110999697D01*
X139438598Y-110999697D02*
X139409918Y-110887658D01*
X139409918Y-110887658D02*
X139378989Y-110766500D01*
X139378989Y-110766500D02*
X139346512Y-110638983D01*
X139346512Y-110638983D02*
X139313186Y-110507868D01*
X139313186Y-110507868D02*
X139279713Y-110375914D01*
X139279713Y-110375914D02*
X139246792Y-110245882D01*
X139246792Y-110245882D02*
X139215124Y-110120534D01*
X139215124Y-110120534D02*
X139185409Y-110002628D01*
X139185409Y-110002628D02*
X139158346Y-109894926D01*
X139158346Y-109894926D02*
X139134637Y-109800188D01*
X139134637Y-109800188D02*
X139114981Y-109721175D01*
X139114981Y-109721175D02*
X139100079Y-109660647D01*
X139100079Y-109660647D02*
X139090630Y-109621364D01*
X139090630Y-109621364D02*
X139087335Y-109606087D01*
X139087335Y-109606087D02*
X139087354Y-109605987D01*
X139087354Y-109605987D02*
X139101393Y-109607939D01*
X139101393Y-109607939D02*
X139101393Y-109607939D01*
G36*
X139101393Y-109607939D02*
G01*
X139140066Y-109614799D01*
X139200704Y-109626060D01*
X139280638Y-109641210D01*
X139377198Y-109659742D01*
X139487717Y-109681144D01*
X139609524Y-109704909D01*
X139739951Y-109730526D01*
X139742188Y-109730967D01*
X139903354Y-109762947D01*
X140038950Y-109790363D01*
X140150792Y-109813630D01*
X140240695Y-109833159D01*
X140310478Y-109849365D01*
X140361956Y-109862660D01*
X140396947Y-109873457D01*
X140417265Y-109882169D01*
X140422204Y-109885608D01*
X140447147Y-109912453D01*
X140485452Y-109959311D01*
X140534893Y-110023132D01*
X140593247Y-110100866D01*
X140658288Y-110189463D01*
X140727792Y-110285874D01*
X140799533Y-110387048D01*
X140871288Y-110489937D01*
X140940830Y-110591490D01*
X140984546Y-110656467D01*
X141191083Y-110974668D01*
X141393437Y-111303552D01*
X141589308Y-111638858D01*
X141776397Y-111976325D01*
X141952403Y-112311694D01*
X142115026Y-112640703D01*
X142261968Y-112959092D01*
X142389563Y-113259233D01*
X142421732Y-113341260D01*
X142456699Y-113434875D01*
X142492821Y-113535236D01*
X142528460Y-113637498D01*
X142561973Y-113736817D01*
X142591720Y-113828352D01*
X142616060Y-113907258D01*
X142633352Y-113968691D01*
X142640777Y-114000744D01*
X142649293Y-114034030D01*
X142658240Y-114051689D01*
X142660153Y-114052548D01*
X142673508Y-114042468D01*
X142702144Y-114014284D01*
X142743291Y-113971081D01*
X142794176Y-113915946D01*
X142852031Y-113851962D01*
X142914084Y-113782216D01*
X142977564Y-113709793D01*
X143039702Y-113637778D01*
X143097727Y-113569256D01*
X143140098Y-113518079D01*
X143269862Y-113354280D01*
X143389359Y-113192245D01*
X143502834Y-113025624D01*
X143614535Y-112848069D01*
X143728707Y-112653229D01*
X143781623Y-112558942D01*
X143821026Y-112489513D01*
X143856331Y-112430332D01*
X143885240Y-112385010D01*
X143905455Y-112357158D01*
X143914518Y-112350175D01*
X143925052Y-112366292D01*
X143945685Y-112401695D01*
X143973410Y-112451112D01*
X144004356Y-112507672D01*
X144158177Y-112779432D01*
X144314493Y-113029619D01*
X144477420Y-113264450D01*
X144651074Y-113490139D01*
X144672674Y-113516713D01*
X144725561Y-113580421D01*
X144784768Y-113650080D01*
X144847533Y-113722611D01*
X144911090Y-113794936D01*
X144972678Y-113863977D01*
X145029532Y-113926657D01*
X145078889Y-113979896D01*
X145117984Y-114020618D01*
X145144055Y-114045743D01*
X145153765Y-114052548D01*
X145162257Y-114040361D01*
X145171219Y-114010137D01*
X145173141Y-114000744D01*
X145183971Y-113955851D01*
X145203097Y-113889800D01*
X145228879Y-113807434D01*
X145259676Y-113713597D01*
X145293847Y-113613133D01*
X145329751Y-113510886D01*
X145365746Y-113411697D01*
X145400193Y-113320412D01*
X145424355Y-113259233D01*
X145550984Y-112961402D01*
X145695317Y-112648521D01*
X145855035Y-112324883D01*
X146027823Y-111994779D01*
X146211365Y-111662501D01*
X146403344Y-111332342D01*
X146601444Y-111008592D01*
X146803349Y-110695543D01*
X146827990Y-110658501D01*
X146894755Y-110559644D01*
X146965222Y-110457388D01*
X147037169Y-110354778D01*
X147108376Y-110254859D01*
X147176624Y-110160678D01*
X147239690Y-110075278D01*
X147295356Y-110001707D01*
X147341400Y-109943008D01*
X147375603Y-109902228D01*
X147391106Y-109886158D01*
X147405812Y-109878221D01*
X147435581Y-109868132D01*
X147482113Y-109855504D01*
X147547103Y-109839953D01*
X147632248Y-109821094D01*
X147739247Y-109798541D01*
X147869795Y-109771909D01*
X148025590Y-109740813D01*
X148071122Y-109731816D01*
X148201732Y-109706127D01*
X148323767Y-109682273D01*
X148434562Y-109660763D01*
X148531447Y-109642110D01*
X148611755Y-109626824D01*
X148672818Y-109615415D01*
X148711970Y-109608395D01*
X148726541Y-109606274D01*
X148726563Y-109606286D01*
X148723741Y-109619686D01*
X148714714Y-109657291D01*
X148700183Y-109716342D01*
X148680847Y-109794077D01*
X148657407Y-109887738D01*
X148630564Y-109994563D01*
X148601017Y-110111794D01*
X148569466Y-110236668D01*
X148536613Y-110366427D01*
X148503157Y-110498310D01*
X148469798Y-110629557D01*
X148437237Y-110757407D01*
X148406174Y-110879102D01*
X148377310Y-110991880D01*
X148351344Y-111092981D01*
X148328976Y-111179645D01*
X148310908Y-111249113D01*
X148297839Y-111298623D01*
X148290469Y-111325416D01*
X148290151Y-111326481D01*
X148293530Y-111337082D01*
X148310135Y-111353195D01*
X148342117Y-111376232D01*
X148391630Y-111407607D01*
X148460826Y-111448732D01*
X148551858Y-111501021D01*
X148582930Y-111518633D01*
X148665389Y-111565680D01*
X148739168Y-111608570D01*
X148800988Y-111645331D01*
X148847572Y-111673994D01*
X148875641Y-111692588D01*
X148882575Y-111698799D01*
X148871149Y-111707622D01*
X148837818Y-111730694D01*
X148784005Y-111767075D01*
X148711133Y-111815826D01*
X148620623Y-111876007D01*
X148513899Y-111946680D01*
X148392383Y-112026904D01*
X148257497Y-112115740D01*
X148110663Y-112212249D01*
X147953305Y-112315492D01*
X147786845Y-112424528D01*
X147612704Y-112538419D01*
X147477038Y-112627030D01*
X147298018Y-112744004D01*
X147125600Y-112856882D01*
X146961210Y-112964720D01*
X146806271Y-113066575D01*
X146662205Y-113161504D01*
X146530436Y-113248564D01*
X146412387Y-113326813D01*
X146309481Y-113395307D01*
X146223143Y-113453102D01*
X146154795Y-113499257D01*
X146105860Y-113532828D01*
X146077762Y-113552872D01*
X146071218Y-113558466D01*
X146075233Y-113574370D01*
X146086810Y-113613896D01*
X146105054Y-113674145D01*
X146129073Y-113752218D01*
X146157973Y-113845218D01*
X146190860Y-113950245D01*
X146226841Y-114064400D01*
X146239797Y-114105334D01*
X146276373Y-114221683D01*
X146309781Y-114329715D01*
X146339176Y-114426568D01*
X146363716Y-114509382D01*
X146382557Y-114575297D01*
X146394856Y-114621452D01*
X146399770Y-114644987D01*
X146399579Y-114647362D01*
X146384731Y-114647074D01*
X146344222Y-114643633D01*
X146280023Y-114637262D01*
X146194104Y-114628180D01*
X146088433Y-114616609D01*
X145964982Y-114602769D01*
X145825721Y-114586882D01*
X145672618Y-114569167D01*
X145507645Y-114549847D01*
X145332771Y-114529142D01*
X145149966Y-114507273D01*
X145148729Y-114507124D01*
X143906959Y-114357808D01*
X142690636Y-114504411D01*
X142509041Y-114526254D01*
X142334917Y-114547114D01*
X142170308Y-114566748D01*
X142017255Y-114584919D01*
X141877803Y-114601387D01*
X141753994Y-114615911D01*
X141647870Y-114628251D01*
X141561476Y-114638169D01*
X141496854Y-114645423D01*
X141456047Y-114649775D01*
X141441512Y-114651014D01*
X141416314Y-114646837D01*
X141408712Y-114639463D01*
X141412788Y-114624076D01*
X141424416Y-114585068D01*
X141442696Y-114525338D01*
X141466727Y-114447788D01*
X141495611Y-114355316D01*
X141528446Y-114250824D01*
X141564334Y-114137210D01*
X141575726Y-114101261D01*
X141612385Y-113985287D01*
X141646257Y-113877408D01*
X141676441Y-113780546D01*
X141702035Y-113697627D01*
X141722139Y-113631575D01*
X141735851Y-113585316D01*
X141742270Y-113561773D01*
X141742639Y-113559579D01*
X141731197Y-113550202D01*
X141697846Y-113526590D01*
X141644007Y-113489688D01*
X141571106Y-113440439D01*
X141480565Y-113379787D01*
X141373806Y-113308679D01*
X141252253Y-113228056D01*
X141117329Y-113138865D01*
X140970457Y-113042049D01*
X140813060Y-112938552D01*
X140646562Y-112829319D01*
X140472384Y-112715295D01*
X140336941Y-112626790D01*
X140157949Y-112509835D01*
X139985562Y-112397031D01*
X139821203Y-112289315D01*
X139666295Y-112187627D01*
X139522259Y-112092907D01*
X139390517Y-112006094D01*
X139272492Y-111928127D01*
X139169606Y-111859944D01*
X139083282Y-111802487D01*
X139014941Y-111756692D01*
X138966006Y-111723501D01*
X138937899Y-111703852D01*
X138931343Y-111698559D01*
X138942951Y-111689112D01*
X138975593Y-111668074D01*
X139025989Y-111637414D01*
X139090863Y-111599099D01*
X139166936Y-111555097D01*
X139230988Y-111518633D01*
X139328815Y-111462812D01*
X139404177Y-111418567D01*
X139459226Y-111384486D01*
X139496114Y-111359155D01*
X139516994Y-111341163D01*
X139524020Y-111329095D01*
X139523767Y-111326481D01*
X139516832Y-111301447D01*
X139504147Y-111253491D01*
X139486413Y-111185374D01*
X139464330Y-111099855D01*
X139438598Y-110999697D01*
X139409918Y-110887658D01*
X139378989Y-110766500D01*
X139346512Y-110638983D01*
X139313186Y-110507868D01*
X139279713Y-110375914D01*
X139246792Y-110245882D01*
X139215124Y-110120534D01*
X139185409Y-110002628D01*
X139158346Y-109894926D01*
X139134637Y-109800188D01*
X139114981Y-109721175D01*
X139100079Y-109660647D01*
X139090630Y-109621364D01*
X139087335Y-109606087D01*
X139087354Y-109605987D01*
X139101393Y-109607939D01*
G37*
X139101393Y-109607939D02*
X139140066Y-109614799D01*
X139200704Y-109626060D01*
X139280638Y-109641210D01*
X139377198Y-109659742D01*
X139487717Y-109681144D01*
X139609524Y-109704909D01*
X139739951Y-109730526D01*
X139742188Y-109730967D01*
X139903354Y-109762947D01*
X140038950Y-109790363D01*
X140150792Y-109813630D01*
X140240695Y-109833159D01*
X140310478Y-109849365D01*
X140361956Y-109862660D01*
X140396947Y-109873457D01*
X140417265Y-109882169D01*
X140422204Y-109885608D01*
X140447147Y-109912453D01*
X140485452Y-109959311D01*
X140534893Y-110023132D01*
X140593247Y-110100866D01*
X140658288Y-110189463D01*
X140727792Y-110285874D01*
X140799533Y-110387048D01*
X140871288Y-110489937D01*
X140940830Y-110591490D01*
X140984546Y-110656467D01*
X141191083Y-110974668D01*
X141393437Y-111303552D01*
X141589308Y-111638858D01*
X141776397Y-111976325D01*
X141952403Y-112311694D01*
X142115026Y-112640703D01*
X142261968Y-112959092D01*
X142389563Y-113259233D01*
X142421732Y-113341260D01*
X142456699Y-113434875D01*
X142492821Y-113535236D01*
X142528460Y-113637498D01*
X142561973Y-113736817D01*
X142591720Y-113828352D01*
X142616060Y-113907258D01*
X142633352Y-113968691D01*
X142640777Y-114000744D01*
X142649293Y-114034030D01*
X142658240Y-114051689D01*
X142660153Y-114052548D01*
X142673508Y-114042468D01*
X142702144Y-114014284D01*
X142743291Y-113971081D01*
X142794176Y-113915946D01*
X142852031Y-113851962D01*
X142914084Y-113782216D01*
X142977564Y-113709793D01*
X143039702Y-113637778D01*
X143097727Y-113569256D01*
X143140098Y-113518079D01*
X143269862Y-113354280D01*
X143389359Y-113192245D01*
X143502834Y-113025624D01*
X143614535Y-112848069D01*
X143728707Y-112653229D01*
X143781623Y-112558942D01*
X143821026Y-112489513D01*
X143856331Y-112430332D01*
X143885240Y-112385010D01*
X143905455Y-112357158D01*
X143914518Y-112350175D01*
X143925052Y-112366292D01*
X143945685Y-112401695D01*
X143973410Y-112451112D01*
X144004356Y-112507672D01*
X144158177Y-112779432D01*
X144314493Y-113029619D01*
X144477420Y-113264450D01*
X144651074Y-113490139D01*
X144672674Y-113516713D01*
X144725561Y-113580421D01*
X144784768Y-113650080D01*
X144847533Y-113722611D01*
X144911090Y-113794936D01*
X144972678Y-113863977D01*
X145029532Y-113926657D01*
X145078889Y-113979896D01*
X145117984Y-114020618D01*
X145144055Y-114045743D01*
X145153765Y-114052548D01*
X145162257Y-114040361D01*
X145171219Y-114010137D01*
X145173141Y-114000744D01*
X145183971Y-113955851D01*
X145203097Y-113889800D01*
X145228879Y-113807434D01*
X145259676Y-113713597D01*
X145293847Y-113613133D01*
X145329751Y-113510886D01*
X145365746Y-113411697D01*
X145400193Y-113320412D01*
X145424355Y-113259233D01*
X145550984Y-112961402D01*
X145695317Y-112648521D01*
X145855035Y-112324883D01*
X146027823Y-111994779D01*
X146211365Y-111662501D01*
X146403344Y-111332342D01*
X146601444Y-111008592D01*
X146803349Y-110695543D01*
X146827990Y-110658501D01*
X146894755Y-110559644D01*
X146965222Y-110457388D01*
X147037169Y-110354778D01*
X147108376Y-110254859D01*
X147176624Y-110160678D01*
X147239690Y-110075278D01*
X147295356Y-110001707D01*
X147341400Y-109943008D01*
X147375603Y-109902228D01*
X147391106Y-109886158D01*
X147405812Y-109878221D01*
X147435581Y-109868132D01*
X147482113Y-109855504D01*
X147547103Y-109839953D01*
X147632248Y-109821094D01*
X147739247Y-109798541D01*
X147869795Y-109771909D01*
X148025590Y-109740813D01*
X148071122Y-109731816D01*
X148201732Y-109706127D01*
X148323767Y-109682273D01*
X148434562Y-109660763D01*
X148531447Y-109642110D01*
X148611755Y-109626824D01*
X148672818Y-109615415D01*
X148711970Y-109608395D01*
X148726541Y-109606274D01*
X148726563Y-109606286D01*
X148723741Y-109619686D01*
X148714714Y-109657291D01*
X148700183Y-109716342D01*
X148680847Y-109794077D01*
X148657407Y-109887738D01*
X148630564Y-109994563D01*
X148601017Y-110111794D01*
X148569466Y-110236668D01*
X148536613Y-110366427D01*
X148503157Y-110498310D01*
X148469798Y-110629557D01*
X148437237Y-110757407D01*
X148406174Y-110879102D01*
X148377310Y-110991880D01*
X148351344Y-111092981D01*
X148328976Y-111179645D01*
X148310908Y-111249113D01*
X148297839Y-111298623D01*
X148290469Y-111325416D01*
X148290151Y-111326481D01*
X148293530Y-111337082D01*
X148310135Y-111353195D01*
X148342117Y-111376232D01*
X148391630Y-111407607D01*
X148460826Y-111448732D01*
X148551858Y-111501021D01*
X148582930Y-111518633D01*
X148665389Y-111565680D01*
X148739168Y-111608570D01*
X148800988Y-111645331D01*
X148847572Y-111673994D01*
X148875641Y-111692588D01*
X148882575Y-111698799D01*
X148871149Y-111707622D01*
X148837818Y-111730694D01*
X148784005Y-111767075D01*
X148711133Y-111815826D01*
X148620623Y-111876007D01*
X148513899Y-111946680D01*
X148392383Y-112026904D01*
X148257497Y-112115740D01*
X148110663Y-112212249D01*
X147953305Y-112315492D01*
X147786845Y-112424528D01*
X147612704Y-112538419D01*
X147477038Y-112627030D01*
X147298018Y-112744004D01*
X147125600Y-112856882D01*
X146961210Y-112964720D01*
X146806271Y-113066575D01*
X146662205Y-113161504D01*
X146530436Y-113248564D01*
X146412387Y-113326813D01*
X146309481Y-113395307D01*
X146223143Y-113453102D01*
X146154795Y-113499257D01*
X146105860Y-113532828D01*
X146077762Y-113552872D01*
X146071218Y-113558466D01*
X146075233Y-113574370D01*
X146086810Y-113613896D01*
X146105054Y-113674145D01*
X146129073Y-113752218D01*
X146157973Y-113845218D01*
X146190860Y-113950245D01*
X146226841Y-114064400D01*
X146239797Y-114105334D01*
X146276373Y-114221683D01*
X146309781Y-114329715D01*
X146339176Y-114426568D01*
X146363716Y-114509382D01*
X146382557Y-114575297D01*
X146394856Y-114621452D01*
X146399770Y-114644987D01*
X146399579Y-114647362D01*
X146384731Y-114647074D01*
X146344222Y-114643633D01*
X146280023Y-114637262D01*
X146194104Y-114628180D01*
X146088433Y-114616609D01*
X145964982Y-114602769D01*
X145825721Y-114586882D01*
X145672618Y-114569167D01*
X145507645Y-114549847D01*
X145332771Y-114529142D01*
X145149966Y-114507273D01*
X145148729Y-114507124D01*
X143906959Y-114357808D01*
X142690636Y-114504411D01*
X142509041Y-114526254D01*
X142334917Y-114547114D01*
X142170308Y-114566748D01*
X142017255Y-114584919D01*
X141877803Y-114601387D01*
X141753994Y-114615911D01*
X141647870Y-114628251D01*
X141561476Y-114638169D01*
X141496854Y-114645423D01*
X141456047Y-114649775D01*
X141441512Y-114651014D01*
X141416314Y-114646837D01*
X141408712Y-114639463D01*
X141412788Y-114624076D01*
X141424416Y-114585068D01*
X141442696Y-114525338D01*
X141466727Y-114447788D01*
X141495611Y-114355316D01*
X141528446Y-114250824D01*
X141564334Y-114137210D01*
X141575726Y-114101261D01*
X141612385Y-113985287D01*
X141646257Y-113877408D01*
X141676441Y-113780546D01*
X141702035Y-113697627D01*
X141722139Y-113631575D01*
X141735851Y-113585316D01*
X141742270Y-113561773D01*
X141742639Y-113559579D01*
X141731197Y-113550202D01*
X141697846Y-113526590D01*
X141644007Y-113489688D01*
X141571106Y-113440439D01*
X141480565Y-113379787D01*
X141373806Y-113308679D01*
X141252253Y-113228056D01*
X141117329Y-113138865D01*
X140970457Y-113042049D01*
X140813060Y-112938552D01*
X140646562Y-112829319D01*
X140472384Y-112715295D01*
X140336941Y-112626790D01*
X140157949Y-112509835D01*
X139985562Y-112397031D01*
X139821203Y-112289315D01*
X139666295Y-112187627D01*
X139522259Y-112092907D01*
X139390517Y-112006094D01*
X139272492Y-111928127D01*
X139169606Y-111859944D01*
X139083282Y-111802487D01*
X139014941Y-111756692D01*
X138966006Y-111723501D01*
X138937899Y-111703852D01*
X138931343Y-111698559D01*
X138942951Y-111689112D01*
X138975593Y-111668074D01*
X139025989Y-111637414D01*
X139090863Y-111599099D01*
X139166936Y-111555097D01*
X139230988Y-111518633D01*
X139328815Y-111462812D01*
X139404177Y-111418567D01*
X139459226Y-111384486D01*
X139496114Y-111359155D01*
X139516994Y-111341163D01*
X139524020Y-111329095D01*
X139523767Y-111326481D01*
X139516832Y-111301447D01*
X139504147Y-111253491D01*
X139486413Y-111185374D01*
X139464330Y-111099855D01*
X139438598Y-110999697D01*
X139409918Y-110887658D01*
X139378989Y-110766500D01*
X139346512Y-110638983D01*
X139313186Y-110507868D01*
X139279713Y-110375914D01*
X139246792Y-110245882D01*
X139215124Y-110120534D01*
X139185409Y-110002628D01*
X139158346Y-109894926D01*
X139134637Y-109800188D01*
X139114981Y-109721175D01*
X139100079Y-109660647D01*
X139090630Y-109621364D01*
X139087335Y-109606087D01*
X139087354Y-109605987D01*
X139101393Y-109607939D01*
D14*
X122590000Y-106930000D02*
X124240000Y-106930000D01*
X124240000Y-106930000D02*
X124240000Y-96650000D01*
X124240000Y-96650000D02*
X118940000Y-96650000D01*
X118940000Y-96650000D02*
X118940000Y-106930000D01*
X118940000Y-106930000D02*
X120590000Y-106930000D01*
X122590000Y-106930000D02*
G75*
G03*
X120590000Y-106930000I-1000000J0D01*
G01*
X133161252Y-93590000D02*
X132638748Y-93590000D01*
X133161252Y-95010000D02*
X132638748Y-95010000D01*
X165338748Y-96510000D02*
X165861252Y-96510000D01*
X165338748Y-95090000D02*
X165861252Y-95090000D01*
X134385000Y-104311252D02*
X134385000Y-103788748D01*
X132965000Y-104311252D02*
X132965000Y-103788748D01*
X135816200Y-85695600D02*
X135816200Y-89555600D01*
X135816200Y-89555600D02*
X136461200Y-89555600D01*
X135816200Y-85695600D02*
X135816200Y-81835600D01*
X135816200Y-81835600D02*
X136461200Y-81835600D01*
X154736200Y-85695600D02*
X154736200Y-89555600D01*
X154736200Y-89555600D02*
X154091200Y-89555600D01*
X154736200Y-85695600D02*
X154736200Y-81835600D01*
X154736200Y-81835600D02*
X154091200Y-81835600D01*
X154091200Y-81835600D02*
X154091200Y-79995600D01*
X175079040Y-122843260D02*
X172154040Y-122843260D01*
X175079040Y-122843260D02*
X176579040Y-122843260D01*
X175079040Y-126063260D02*
X173579040Y-126063260D01*
X175079040Y-126063260D02*
X176579040Y-126063260D01*
X171612500Y-132915000D02*
X168687500Y-132915000D01*
X171612500Y-132915000D02*
X173112500Y-132915000D01*
X171612500Y-136135000D02*
X170112500Y-136135000D01*
X171612500Y-136135000D02*
X173112500Y-136135000D01*
X170818500Y-116462500D02*
X172148500Y-116462500D01*
X170818500Y-117792500D02*
X170818500Y-116462500D01*
X170818500Y-119062500D02*
X173478500Y-119062500D01*
X173478500Y-119062500D02*
X173478500Y-119122500D01*
X170818500Y-119062500D02*
X170818500Y-119122500D01*
X170818500Y-119122500D02*
X173478500Y-119122500D01*
X156920000Y-143395000D02*
X158250000Y-143395000D01*
X156920000Y-144725000D02*
X156920000Y-143395000D01*
X156920000Y-145995000D02*
X159580000Y-145995000D01*
X159580000Y-145995000D02*
X159580000Y-146055000D01*
X156920000Y-145995000D02*
X156920000Y-146055000D01*
X156920000Y-146055000D02*
X159580000Y-146055000D01*
X168099040Y-127692008D02*
X168099040Y-128214512D01*
X169519040Y-127692008D02*
X169519040Y-128214512D01*
X176565620Y-134731968D02*
X176565620Y-135254472D01*
X177985620Y-134731968D02*
X177985620Y-135254472D01*
X178614000Y-139946748D02*
X178614000Y-140469252D01*
X180034000Y-139946748D02*
X180034000Y-140469252D01*
X170210000Y-145295252D02*
X170210000Y-144772748D01*
X168790000Y-145295252D02*
X168790000Y-144772748D01*
X161798000Y-135596748D02*
X161798000Y-136119252D01*
X163218000Y-135596748D02*
X163218000Y-136119252D01*
X124761252Y-143290000D02*
X124238748Y-143290000D01*
X124761252Y-144710000D02*
X124238748Y-144710000D01*
X157320000Y-141180000D02*
X157320000Y-139850000D01*
X158650000Y-141180000D02*
X157320000Y-141180000D01*
X159920000Y-141180000D02*
X159920000Y-138520000D01*
X159920000Y-138520000D02*
X162520000Y-138520000D01*
X159920000Y-141180000D02*
X162520000Y-141180000D01*
X162520000Y-141180000D02*
X162520000Y-138520000D01*
X137780000Y-131480000D02*
X136450000Y-131480000D01*
X137780000Y-130150000D02*
X137780000Y-131480000D01*
X137780000Y-128880000D02*
X135120000Y-128880000D01*
X135120000Y-128880000D02*
X135120000Y-126280000D01*
X137780000Y-128880000D02*
X137780000Y-126280000D01*
X137780000Y-126280000D02*
X135120000Y-126280000D01*
X165929040Y-121103260D02*
X169079040Y-121103260D01*
X165929040Y-122803260D02*
X169079040Y-122803260D01*
X165929040Y-121103260D02*
X165929040Y-122803260D01*
X154335000Y-148886252D02*
X154335000Y-148363748D01*
X152915000Y-148886252D02*
X152915000Y-148363748D01*
X139790000Y-135721748D02*
X139790000Y-136244252D01*
X141210000Y-135721748D02*
X141210000Y-136244252D01*
X129792252Y-122060000D02*
X129269748Y-122060000D01*
X129792252Y-120640000D02*
X129269748Y-120640000D01*
X119167744Y-129933147D02*
X119167744Y-130455651D01*
X120587744Y-129933147D02*
X120587744Y-130455651D01*
X120559125Y-138096839D02*
X120036621Y-138096839D01*
X120559125Y-139516839D02*
X120036621Y-139516839D01*
X119011252Y-143290000D02*
X118488748Y-143290000D01*
X119011252Y-144710000D02*
X118488748Y-144710000D01*
X145980000Y-77525000D02*
X139580000Y-77525000D01*
X145980000Y-72475000D02*
X139580000Y-72475000D01*
X139580000Y-72475000D02*
G75*
G03*
X139580000Y-77525000I0J-2525000D01*
G01*
X145980000Y-77525000D02*
G75*
G03*
X145980000Y-72475000I0J2525000D01*
G01*
X170835000Y-97020000D02*
X169185000Y-97020000D01*
X169185000Y-97020000D02*
X169185000Y-107300000D01*
X169185000Y-107300000D02*
X174485000Y-107300000D01*
X174485000Y-107300000D02*
X174485000Y-97020000D01*
X174485000Y-97020000D02*
X172835000Y-97020000D01*
X170835000Y-97020000D02*
G75*
G03*
X172835000Y-97020000I1000000J0D01*
G01*
X117195000Y-79875000D02*
X117195000Y-81825000D01*
X117195000Y-79875000D02*
X117195000Y-77925000D01*
X122315000Y-79875000D02*
X122315000Y-81825000D01*
X122315000Y-79875000D02*
X122315000Y-76425000D01*
X154000000Y-126610000D02*
X155500000Y-126610000D01*
X154000000Y-126610000D02*
X152500000Y-126610000D01*
X154000000Y-123390000D02*
X155500000Y-123390000D01*
X154000000Y-123390000D02*
X151075000Y-123390000D01*
X146700000Y-136210000D02*
X148200000Y-136210000D01*
X146700000Y-136210000D02*
X145200000Y-136210000D01*
X146700000Y-132990000D02*
X148200000Y-132990000D01*
X146700000Y-132990000D02*
X143775000Y-132990000D01*
X128387500Y-123865000D02*
X125462500Y-123865000D01*
X128387500Y-123865000D02*
X129887500Y-123865000D01*
X128387500Y-127085000D02*
X126887500Y-127085000D01*
X128387500Y-127085000D02*
X129887500Y-127085000D01*
X169517040Y-81843480D02*
X167757040Y-81843480D01*
X167757040Y-84913480D02*
X170187040Y-84913480D01*
X180554840Y-80064280D02*
X180554840Y-81864280D01*
X183774840Y-81864280D02*
X183774840Y-79414280D01*
X121412500Y-132890000D02*
X118487500Y-132890000D01*
X121412500Y-132890000D02*
X122912500Y-132890000D01*
X121412500Y-136110000D02*
X119912500Y-136110000D01*
X121412500Y-136110000D02*
X122912500Y-136110000D01*
X160020000Y-96255000D02*
X162680000Y-96255000D01*
X160020000Y-96195000D02*
X160020000Y-96255000D01*
X162680000Y-96195000D02*
X162680000Y-96255000D01*
X160020000Y-96195000D02*
X162680000Y-96195000D01*
X160020000Y-94925000D02*
X160020000Y-93595000D01*
X160020000Y-93595000D02*
X161350000Y-93595000D01*
X134680000Y-97730000D02*
X132020000Y-97730000D01*
X134680000Y-97790000D02*
X134680000Y-97730000D01*
X132020000Y-97790000D02*
X132020000Y-97730000D01*
X134680000Y-97790000D02*
X132020000Y-97790000D01*
X134680000Y-99060000D02*
X134680000Y-100390000D01*
X134680000Y-100390000D02*
X133350000Y-100390000D01*
X131553260Y-109965180D02*
X128893260Y-109965180D01*
X131553260Y-110025180D02*
X131553260Y-109965180D01*
X128893260Y-110025180D02*
X128893260Y-109965180D01*
X131553260Y-110025180D02*
X128893260Y-110025180D01*
X131553260Y-111295180D02*
X131553260Y-112625180D01*
X131553260Y-112625180D02*
X130223260Y-112625180D01*
X168605000Y-95175000D02*
X171265000Y-95175000D01*
X168605000Y-95115000D02*
X168605000Y-95175000D01*
X171265000Y-95115000D02*
X171265000Y-95175000D01*
X168605000Y-95115000D02*
X171265000Y-95115000D01*
X168605000Y-93845000D02*
X168605000Y-92515000D01*
X168605000Y-92515000D02*
X169935000Y-92515000D01*
X113471000Y-88078000D02*
X110811000Y-88078000D01*
X113471000Y-88138000D02*
X113471000Y-88078000D01*
X110811000Y-88138000D02*
X110811000Y-88078000D01*
X113471000Y-88138000D02*
X110811000Y-88138000D01*
X113471000Y-89408000D02*
X113471000Y-90738000D01*
X113471000Y-90738000D02*
X112141000Y-90738000D01*
X123520000Y-109960000D02*
X120860000Y-109960000D01*
X123520000Y-110020000D02*
X123520000Y-109960000D01*
X120860000Y-110020000D02*
X120860000Y-109960000D01*
X123520000Y-110020000D02*
X120860000Y-110020000D01*
X123520000Y-111290000D02*
X123520000Y-112620000D01*
X123520000Y-112620000D02*
X122190000Y-112620000D01*
X182820000Y-142046000D02*
X185480000Y-142046000D01*
X182820000Y-141986000D02*
X182820000Y-142046000D01*
X185480000Y-141986000D02*
X185480000Y-142046000D01*
X182820000Y-141986000D02*
X185480000Y-141986000D01*
X182820000Y-140716000D02*
X182820000Y-139386000D01*
X182820000Y-139386000D02*
X184150000Y-139386000D01*
X157928000Y-122467680D02*
X160588000Y-122467680D01*
X157928000Y-122407680D02*
X157928000Y-122467680D01*
X160588000Y-122407680D02*
X160588000Y-122467680D01*
X157928000Y-122407680D02*
X160588000Y-122407680D01*
X157928000Y-121137680D02*
X157928000Y-119807680D01*
X157928000Y-119807680D02*
X159258000Y-119807680D01*
X134920000Y-120620000D02*
X136250000Y-120620000D01*
X134920000Y-121950000D02*
X134920000Y-120620000D01*
X134920000Y-123220000D02*
X137580000Y-123220000D01*
X137580000Y-123220000D02*
X137580000Y-123280000D01*
X134920000Y-123220000D02*
X134920000Y-123280000D01*
X134920000Y-123280000D02*
X137580000Y-123280000D01*
X130770000Y-146320000D02*
X132100000Y-146320000D01*
X130770000Y-147650000D02*
X130770000Y-146320000D01*
X130770000Y-148920000D02*
X133430000Y-148920000D01*
X133430000Y-148920000D02*
X133430000Y-148980000D01*
X130770000Y-148920000D02*
X130770000Y-148980000D01*
X130770000Y-148980000D02*
X133430000Y-148980000D01*
X164822500Y-105805848D02*
X164822500Y-106328352D01*
X163402500Y-105805848D02*
X163402500Y-106328352D01*
X164847900Y-100932748D02*
X164847900Y-101455252D01*
X163427900Y-100932748D02*
X163427900Y-101455252D01*
X114069200Y-96646152D02*
X114069200Y-96123648D01*
X115489200Y-96646152D02*
X115489200Y-96123648D01*
X114069200Y-102411252D02*
X114069200Y-101888748D01*
X115489200Y-102411252D02*
X115489200Y-101888748D01*
X128084500Y-98298152D02*
X128084500Y-97775648D01*
X129504500Y-98298152D02*
X129504500Y-97775648D01*
X128109900Y-103327352D02*
X128109900Y-102804848D01*
X129529900Y-103327352D02*
X129529900Y-102804848D01*
X174423140Y-144808308D02*
X174423140Y-145330812D01*
X173003140Y-144808308D02*
X173003140Y-145330812D01*
X148710000Y-128475748D02*
X148710000Y-128998252D01*
X147290000Y-128475748D02*
X147290000Y-128998252D01*
X152602000Y-137152748D02*
X152602000Y-137675252D01*
X151182000Y-137152748D02*
X151182000Y-137675252D01*
X153213748Y-140190000D02*
X153736252Y-140190000D01*
X153213748Y-141610000D02*
X153736252Y-141610000D01*
X150886252Y-145435000D02*
X150363748Y-145435000D01*
X150886252Y-144015000D02*
X150363748Y-144015000D01*
X148335000Y-148513748D02*
X148335000Y-149036252D01*
X146915000Y-148513748D02*
X146915000Y-149036252D01*
X137464000Y-135546748D02*
X137464000Y-136069252D01*
X136044000Y-135546748D02*
X136044000Y-136069252D01*
X122240000Y-129863748D02*
X122240000Y-130386252D01*
X123660000Y-129863748D02*
X123660000Y-130386252D01*
X126490000Y-136038748D02*
X126490000Y-136561252D01*
X127910000Y-136038748D02*
X127910000Y-136561252D01*
X128690000Y-140688748D02*
X128690000Y-141211252D01*
X130110000Y-140688748D02*
X130110000Y-141211252D01*
X156746252Y-73407000D02*
X156223748Y-73407000D01*
X156746252Y-71987000D02*
X156223748Y-71987000D01*
X146187800Y-95326348D02*
X146187800Y-95848852D01*
X144767800Y-95326348D02*
X144767800Y-95848852D01*
X162374840Y-81755532D02*
X162374840Y-81233028D01*
X163794840Y-81755532D02*
X163794840Y-81233028D01*
X162414840Y-87065532D02*
X162414840Y-86543028D01*
X163834840Y-87065532D02*
X163834840Y-86543028D01*
X158884252Y-77037000D02*
X158361748Y-77037000D01*
X158884252Y-75617000D02*
X158361748Y-75617000D01*
X153122000Y-95529548D02*
X153122000Y-96052052D01*
X151702000Y-95529548D02*
X151702000Y-96052052D01*
X149667600Y-95427948D02*
X149667600Y-95950452D01*
X148247600Y-95427948D02*
X148247600Y-95950452D01*
X120940000Y-148213748D02*
X120940000Y-148736252D01*
X122360000Y-148213748D02*
X122360000Y-148736252D01*
X111390000Y-136136748D02*
X111390000Y-136659252D01*
X112810000Y-136136748D02*
X112810000Y-136659252D01*
X172480000Y-128230000D02*
X172480000Y-130890000D01*
X175080000Y-128230000D02*
X172480000Y-128230000D01*
X175080000Y-130890000D02*
X172480000Y-130890000D01*
X175080000Y-128230000D02*
X175080000Y-130890000D01*
X176350000Y-128230000D02*
X177680000Y-128230000D01*
X177680000Y-128230000D02*
X177680000Y-129560000D01*
X160506720Y-132764840D02*
X159176720Y-132764840D01*
X160506720Y-131434840D02*
X160506720Y-132764840D01*
X160506720Y-130164840D02*
X157846720Y-130164840D01*
X157846720Y-130164840D02*
X157846720Y-127564840D01*
X160506720Y-130164840D02*
X160506720Y-127564840D01*
X160506720Y-127564840D02*
X157846720Y-127564840D01*
X141020000Y-142730000D02*
X141020000Y-140070000D01*
X138420000Y-142730000D02*
X141020000Y-142730000D01*
X138420000Y-140070000D02*
X141020000Y-140070000D01*
X138420000Y-142730000D02*
X138420000Y-140070000D01*
X137150000Y-142730000D02*
X135820000Y-142730000D01*
X135820000Y-142730000D02*
X135820000Y-141400000D01*
X110320000Y-142730000D02*
X110320000Y-141400000D01*
X111650000Y-142730000D02*
X110320000Y-142730000D01*
X112920000Y-142730000D02*
X112920000Y-140070000D01*
X112920000Y-140070000D02*
X115520000Y-140070000D01*
X112920000Y-142730000D02*
X115520000Y-142730000D01*
X115520000Y-142730000D02*
X115520000Y-140070000D01*
X184454840Y-85044280D02*
X181794840Y-85044280D01*
X184454840Y-90184280D02*
X184454840Y-85044280D01*
X181794840Y-90184280D02*
X181794840Y-85044280D01*
X184454840Y-90184280D02*
X181794840Y-90184280D01*
X184454840Y-91454280D02*
X184454840Y-92784280D01*
X184454840Y-92784280D02*
X183124840Y-92784280D01*
X178388588Y-85038980D02*
X178911092Y-85038980D01*
X178388588Y-86458980D02*
X178911092Y-86458980D01*
X178363588Y-88747380D02*
X178886092Y-88747380D01*
X178363588Y-90167380D02*
X178886092Y-90167380D01*
X144342800Y-99421100D02*
X144342800Y-103481100D01*
X144342800Y-103481100D02*
X146612800Y-103481100D01*
X146612800Y-103481100D02*
X146612800Y-99421100D01*
X151277000Y-99395700D02*
X151277000Y-103455700D01*
X151277000Y-103455700D02*
X153547000Y-103455700D01*
X153547000Y-103455700D02*
X153547000Y-99395700D01*
X147822600Y-99421100D02*
X147822600Y-103481100D01*
X147822600Y-103481100D02*
X150092600Y-103481100D01*
X150092600Y-103481100D02*
X150092600Y-99421100D01*
X144350000Y-121150000D02*
X144350000Y-122850000D01*
X144350000Y-122850000D02*
X147500000Y-122850000D01*
X144350000Y-121150000D02*
X147500000Y-121150000D01*
X118600000Y-122500000D02*
X121750000Y-122500000D01*
X118600000Y-124200000D02*
X121750000Y-124200000D01*
X118600000Y-122500000D02*
X118600000Y-124200000D01*
X174923072Y-95669680D02*
X174400568Y-95669680D01*
X174923072Y-94249680D02*
X174400568Y-94249680D01*
X118513748Y-107570000D02*
X119036252Y-107570000D01*
X118513748Y-108990000D02*
X119036252Y-108990000D01*
X176393292Y-121067260D02*
X175870788Y-121067260D01*
X176393292Y-119647260D02*
X175870788Y-119647260D01*
X166019040Y-127767008D02*
X166019040Y-128289512D01*
X164599040Y-127767008D02*
X164599040Y-128289512D01*
X170805434Y-139147678D02*
X170282930Y-139147678D01*
X170805434Y-137727678D02*
X170282930Y-137727678D01*
X175771540Y-146908152D02*
X175771540Y-146385648D01*
X177191540Y-146908152D02*
X177191540Y-146385648D01*
X166481845Y-149208235D02*
X165959341Y-149208235D01*
X166481845Y-147788235D02*
X165959341Y-147788235D01*
X166718000Y-135571748D02*
X166718000Y-136094252D01*
X165298000Y-135571748D02*
X165298000Y-136094252D01*
X155339572Y-121512400D02*
X154817068Y-121512400D01*
X155339572Y-120092400D02*
X154817068Y-120092400D01*
X145210000Y-128500748D02*
X145210000Y-129023252D01*
X143790000Y-128500748D02*
X143790000Y-129023252D01*
X145879670Y-139568501D02*
X145357166Y-139568501D01*
X145879670Y-138148501D02*
X145357166Y-138148501D01*
X144911252Y-144040000D02*
X144388748Y-144040000D01*
X144911252Y-145460000D02*
X144388748Y-145460000D01*
X119626748Y-73458000D02*
X120149252Y-73458000D01*
X119626748Y-74878000D02*
X120149252Y-74878000D01*
X119789308Y-85302020D02*
X120311812Y-85302020D01*
X119789308Y-86722020D02*
X120311812Y-86722020D01*
X128860000Y-147786252D02*
X128860000Y-147263748D01*
X127440000Y-147786252D02*
X127440000Y-147263748D01*
X113296800Y-80957252D02*
X113296800Y-80434748D01*
X114716800Y-80957252D02*
X114716800Y-80434748D01*
X140834252Y-70952000D02*
X140311748Y-70952000D01*
X140834252Y-69532000D02*
X140311748Y-69532000D01*
X145037748Y-69557200D02*
X145560252Y-69557200D01*
X145037748Y-70977200D02*
X145560252Y-70977200D01*
X114640000Y-135738748D02*
X114640000Y-136261252D01*
X116060000Y-135738748D02*
X116060000Y-136261252D01*
X167257388Y-86569280D02*
X167779892Y-86569280D01*
X167257388Y-87989280D02*
X167779892Y-87989280D01*
X184904840Y-81245532D02*
X184904840Y-80723028D01*
X186324840Y-81245532D02*
X186324840Y-80723028D01*
X177529840Y-81275532D02*
X177529840Y-80753028D01*
X178949840Y-81275532D02*
X178949840Y-80753028D01*
X152746252Y-77049600D02*
X152223748Y-77049600D01*
X152746252Y-75629600D02*
X152223748Y-75629600D01*
X182364840Y-76385532D02*
X182364840Y-75863028D01*
X183784840Y-76385532D02*
X183784840Y-75863028D01*
X173345440Y-84105532D02*
X173345440Y-83583028D01*
X174765440Y-84105532D02*
X174765440Y-83583028D01*
%LPC*%
D15*
X141600000Y-127800000D03*
X141600000Y-129800000D03*
D16*
X117780000Y-105600000D03*
X125400000Y-97980000D03*
X117780000Y-103060000D03*
X125400000Y-100520000D03*
X117780000Y-100520000D03*
X125400000Y-103060000D03*
X117780000Y-97980000D03*
D17*
X125400000Y-105600000D03*
D18*
X133925000Y-94300000D03*
X131875000Y-94300000D03*
D19*
X164575000Y-95800000D03*
X166625000Y-95800000D03*
D20*
X133675000Y-105075000D03*
X133675000Y-103025000D03*
D21*
X183000000Y-70000000D03*
X113000000Y-70000000D03*
X113000000Y-148000000D03*
X183000000Y-148000000D03*
D22*
X153531200Y-90495600D03*
X152261200Y-90495600D03*
X150991200Y-90495600D03*
X149721200Y-90495600D03*
X148451200Y-90495600D03*
X147181200Y-90495600D03*
X145911200Y-90495600D03*
X144641200Y-90495600D03*
X143371200Y-90495600D03*
X142101200Y-90495600D03*
X140831200Y-90495600D03*
X139561200Y-90495600D03*
X138291200Y-90495600D03*
X137021200Y-90495600D03*
X137021200Y-80895600D03*
X138291200Y-80895600D03*
X139561200Y-80895600D03*
X140831200Y-80895600D03*
X142101200Y-80895600D03*
X143371200Y-80895600D03*
X144641200Y-80895600D03*
X145911200Y-80895600D03*
X147181200Y-80895600D03*
X148451200Y-80895600D03*
X149721200Y-80895600D03*
X150991200Y-80895600D03*
X152261200Y-80895600D03*
X153531200Y-80895600D03*
D15*
X159700000Y-88600000D03*
X159700000Y-90600000D03*
X125500000Y-88600000D03*
X125500000Y-90600000D03*
D23*
X177191540Y-123478260D03*
X177191540Y-124128260D03*
X177191540Y-124778260D03*
X177191540Y-125428260D03*
X172966540Y-125428260D03*
X172966540Y-124778260D03*
X172966540Y-124128260D03*
X172966540Y-123478260D03*
X173725000Y-133550000D03*
X173725000Y-134200000D03*
X173725000Y-134850000D03*
X173725000Y-135500000D03*
X169500000Y-135500000D03*
X169500000Y-134850000D03*
X169500000Y-134200000D03*
X169500000Y-133550000D03*
D24*
X172148500Y-117792500D03*
X158250000Y-144725000D03*
D25*
X168809040Y-128978260D03*
X168809040Y-126928260D03*
X177275620Y-136018220D03*
X177275620Y-133968220D03*
X179324000Y-141233000D03*
X179324000Y-139183000D03*
D20*
X169500000Y-144009000D03*
X169500000Y-146059000D03*
D25*
X162508000Y-136883000D03*
X162508000Y-134833000D03*
D18*
X123475000Y-144000000D03*
X125525000Y-144000000D03*
D26*
X161190000Y-139850000D03*
D27*
X158650000Y-139850000D03*
D26*
X136450000Y-127610000D03*
D28*
X136450000Y-130150000D03*
D29*
X169079040Y-121953260D03*
X166579040Y-121953260D03*
D20*
X153625000Y-147600000D03*
X153625000Y-149650000D03*
D25*
X140500000Y-137008000D03*
X140500000Y-134958000D03*
D18*
X130556000Y-121350000D03*
X128506000Y-121350000D03*
D25*
X119877744Y-131219399D03*
X119877744Y-129169399D03*
D18*
X119272873Y-138806839D03*
X121322873Y-138806839D03*
X117725000Y-144000000D03*
X119775000Y-144000000D03*
D30*
X140340000Y-75000000D03*
X145220000Y-75000000D03*
D16*
X175645000Y-98350000D03*
X168025000Y-105970000D03*
X175645000Y-100890000D03*
X168025000Y-103430000D03*
X175645000Y-103430000D03*
X168025000Y-100890000D03*
X175645000Y-105970000D03*
D31*
X168025000Y-98350000D03*
D32*
X121660000Y-82350000D03*
X120390000Y-82350000D03*
X119120000Y-82350000D03*
X117850000Y-82350000D03*
X117850000Y-77400000D03*
X119120000Y-77400000D03*
X120390000Y-77400000D03*
X121660000Y-77400000D03*
D23*
X156112500Y-124025000D03*
X156112500Y-124675000D03*
X156112500Y-125325000D03*
X156112500Y-125975000D03*
X151887500Y-125975000D03*
X151887500Y-125325000D03*
X151887500Y-124675000D03*
X151887500Y-124025000D03*
X148812500Y-133625000D03*
X148812500Y-134275000D03*
X148812500Y-134925000D03*
X148812500Y-135575000D03*
X144587500Y-135575000D03*
X144587500Y-134925000D03*
X144587500Y-134275000D03*
X144587500Y-133625000D03*
X126275000Y-124500000D03*
X126275000Y-125150000D03*
X126275000Y-125800000D03*
X126275000Y-126450000D03*
X130500000Y-126450000D03*
X130500000Y-125800000D03*
X130500000Y-125150000D03*
X130500000Y-124500000D03*
D33*
X166927040Y-84353480D03*
X166927040Y-82453480D03*
X170347040Y-82453480D03*
X170347040Y-83403480D03*
X170347040Y-84353480D03*
D34*
X183114840Y-82064280D03*
X181214840Y-82064280D03*
X181214840Y-79864280D03*
X182164840Y-79864280D03*
X183114840Y-79864280D03*
D23*
X119300000Y-133525000D03*
X119300000Y-134175000D03*
X119300000Y-134825000D03*
X119300000Y-135475000D03*
X123525000Y-135475000D03*
X123525000Y-134825000D03*
X123525000Y-134175000D03*
X123525000Y-133525000D03*
D24*
X161350000Y-94925000D03*
D28*
X133350000Y-99060000D03*
X130223260Y-111295180D03*
D24*
X169935000Y-93845000D03*
D28*
X112141000Y-89408000D03*
X122190000Y-111290000D03*
D24*
X184150000Y-140716000D03*
X159258000Y-121137680D03*
X136250000Y-121950000D03*
X132100000Y-147650000D03*
D25*
X164112500Y-107092100D03*
X164112500Y-105042100D03*
X164137900Y-102219000D03*
X164137900Y-100169000D03*
D20*
X114779200Y-95359900D03*
X114779200Y-97409900D03*
X114779200Y-101125000D03*
X114779200Y-103175000D03*
X128794500Y-97011900D03*
X128794500Y-99061900D03*
X128819900Y-102041100D03*
X128819900Y-104091100D03*
D25*
X173713140Y-146094560D03*
X173713140Y-144044560D03*
X148000000Y-129762000D03*
X148000000Y-127712000D03*
X151892000Y-138439000D03*
X151892000Y-136389000D03*
D19*
X154500000Y-140900000D03*
X152450000Y-140900000D03*
D18*
X149600000Y-144725000D03*
X151650000Y-144725000D03*
D25*
X147625000Y-149800000D03*
X147625000Y-147750000D03*
X136754000Y-136833000D03*
X136754000Y-134783000D03*
X122950000Y-129100000D03*
X122950000Y-131150000D03*
X127200000Y-135275000D03*
X127200000Y-137325000D03*
X129400000Y-139925000D03*
X129400000Y-141975000D03*
D18*
X155460000Y-72697000D03*
X157510000Y-72697000D03*
D25*
X145477800Y-96612600D03*
X145477800Y-94562600D03*
D20*
X163084840Y-80469280D03*
X163084840Y-82519280D03*
X163124840Y-85779280D03*
X163124840Y-87829280D03*
D18*
X157598000Y-76327000D03*
X159648000Y-76327000D03*
D25*
X152412000Y-96815800D03*
X152412000Y-94765800D03*
X148957600Y-96714200D03*
X148957600Y-94664200D03*
X121650000Y-147450000D03*
X121650000Y-149500000D03*
X112100000Y-135373000D03*
X112100000Y-137423000D03*
D26*
X173810000Y-129560000D03*
D35*
X176350000Y-129560000D03*
D28*
X159176720Y-131434840D03*
D26*
X159176720Y-128894840D03*
X139690000Y-141400000D03*
D27*
X137150000Y-141400000D03*
X111650000Y-141400000D03*
D26*
X114190000Y-141400000D03*
D36*
X109190500Y-127000000D03*
D37*
X109190500Y-129000000D03*
D36*
X109190500Y-125000000D03*
X111190500Y-125000000D03*
X111190500Y-127000000D03*
X111190500Y-129000000D03*
D38*
X110190500Y-121500000D03*
X110190500Y-132500000D03*
D26*
X183124840Y-86374280D03*
X183124840Y-88914280D03*
D28*
X183124840Y-91454280D03*
D36*
X184556400Y-126727200D03*
D37*
X184556400Y-128727200D03*
D36*
X184556400Y-124727200D03*
X186556400Y-124727200D03*
X186556400Y-126727200D03*
X186556400Y-128727200D03*
D38*
X185556400Y-121227200D03*
X185556400Y-132227200D03*
D28*
X115500000Y-121860000D03*
D26*
X115500000Y-124400000D03*
X115500000Y-126940000D03*
X115500000Y-129480000D03*
X115500000Y-132020000D03*
D19*
X179674840Y-85748980D03*
X177624840Y-85748980D03*
X179649840Y-89457380D03*
X177599840Y-89457380D03*
D39*
X145477800Y-99533600D03*
X145477800Y-102508600D03*
X152412000Y-99508200D03*
X152412000Y-102483200D03*
X148957600Y-99533600D03*
X148957600Y-102508600D03*
D29*
X147500000Y-122000000D03*
X145000000Y-122000000D03*
X119250000Y-123350000D03*
X121750000Y-123350000D03*
D18*
X173636820Y-94959680D03*
X175686820Y-94959680D03*
D19*
X119800000Y-108280000D03*
X117750000Y-108280000D03*
D18*
X175107040Y-120357260D03*
X177157040Y-120357260D03*
D25*
X165309040Y-129053260D03*
X165309040Y-127003260D03*
D18*
X169519182Y-138437678D03*
X171569182Y-138437678D03*
D20*
X176481540Y-145621900D03*
X176481540Y-147671900D03*
D18*
X165195593Y-148498235D03*
X167245593Y-148498235D03*
D25*
X166008000Y-136858000D03*
X166008000Y-134808000D03*
D18*
X154053320Y-120802400D03*
X156103320Y-120802400D03*
D25*
X144500000Y-129787000D03*
X144500000Y-127737000D03*
D18*
X144593418Y-138858501D03*
X146643418Y-138858501D03*
X145675000Y-144750000D03*
X143625000Y-144750000D03*
D19*
X120913000Y-74168000D03*
X118863000Y-74168000D03*
X121075560Y-86012020D03*
X119025560Y-86012020D03*
D20*
X128150000Y-148550000D03*
X128150000Y-146500000D03*
X114006800Y-79671000D03*
X114006800Y-81721000D03*
D18*
X139548000Y-70242000D03*
X141598000Y-70242000D03*
D19*
X146324000Y-70267200D03*
X144274000Y-70267200D03*
D25*
X115350000Y-134975000D03*
X115350000Y-137025000D03*
D19*
X168543640Y-87279280D03*
X166493640Y-87279280D03*
D20*
X185614840Y-79959280D03*
X185614840Y-82009280D03*
X178239840Y-79989280D03*
X178239840Y-82039280D03*
D18*
X151460000Y-76339600D03*
X153510000Y-76339600D03*
D20*
X183074840Y-75099280D03*
X183074840Y-77149280D03*
X174055440Y-82819280D03*
X174055440Y-84869280D03*
M02*
