%FSLAX45Y45*%
G04 Gerber Fmt 4.5, Leading zero omitted, Abs format (unit mm)*
G04 Created by KiCad (PCBNEW 6.0.0) date 2022-02-03 14:52:27*
%MOMM*%
%LPD*%
G01*
G04 APERTURE LIST*
%TA.AperFunction,Profile*%
%ADD10C,0.100000*%
%TD*%
%ADD11C,0.200000*%
%ADD12C,0.220000*%
G04 APERTURE END LIST*
D10*
X18800000Y-15200000D02*
X18800000Y-6600000D01*
X10800000Y-15200000D02*
X18800000Y-15200000D01*
X10800000Y-6600000D02*
X10800000Y-15200000D01*
X18800000Y-6600000D02*
X10800000Y-6600000D01*
D11*
D12*
X10909050Y-12040000D02*
X11129050Y-12260000D01*
X11129050Y-12040000D02*
X10909050Y-12260000D01*
X10909050Y-13140000D02*
X11129050Y-13360000D01*
X11129050Y-13140000D02*
X10909050Y-13360000D01*
X18445640Y-12012720D02*
X18665640Y-12232720D01*
X18665640Y-12012720D02*
X18445640Y-12232720D01*
X18445640Y-13112720D02*
X18665640Y-13332720D01*
X18665640Y-13112720D02*
X18445640Y-13332720D01*
D11*
X11052619Y-15515476D02*
X11052619Y-15315476D01*
X11100238Y-15315476D01*
X11128810Y-15325000D01*
X11147857Y-15344048D01*
X11157381Y-15363095D01*
X11166905Y-15401190D01*
X11166905Y-15429762D01*
X11157381Y-15467857D01*
X11147857Y-15486905D01*
X11128810Y-15505952D01*
X11100238Y-15515476D01*
X11052619Y-15515476D01*
X11252619Y-15515476D02*
X11252619Y-15382143D01*
X11252619Y-15420238D02*
X11262143Y-15401190D01*
X11271667Y-15391667D01*
X11290714Y-15382143D01*
X11309762Y-15382143D01*
X11376428Y-15515476D02*
X11376428Y-15382143D01*
X11376428Y-15315476D02*
X11366905Y-15325000D01*
X11376428Y-15334524D01*
X11385952Y-15325000D01*
X11376428Y-15315476D01*
X11376428Y-15334524D01*
X11500238Y-15515476D02*
X11481190Y-15505952D01*
X11471667Y-15486905D01*
X11471667Y-15315476D01*
X11605000Y-15515476D02*
X11585952Y-15505952D01*
X11576428Y-15486905D01*
X11576428Y-15315476D01*
X11833571Y-15515476D02*
X11833571Y-15315476D01*
X11900238Y-15458333D01*
X11966905Y-15315476D01*
X11966905Y-15515476D01*
X12147857Y-15515476D02*
X12147857Y-15410714D01*
X12138333Y-15391667D01*
X12119286Y-15382143D01*
X12081190Y-15382143D01*
X12062143Y-15391667D01*
X12147857Y-15505952D02*
X12128809Y-15515476D01*
X12081190Y-15515476D01*
X12062143Y-15505952D01*
X12052619Y-15486905D01*
X12052619Y-15467857D01*
X12062143Y-15448809D01*
X12081190Y-15439286D01*
X12128809Y-15439286D01*
X12147857Y-15429762D01*
X12243095Y-15382143D02*
X12243095Y-15582143D01*
X12243095Y-15391667D02*
X12262143Y-15382143D01*
X12300238Y-15382143D01*
X12319286Y-15391667D01*
X12328809Y-15401190D01*
X12338333Y-15420238D01*
X12338333Y-15477381D01*
X12328809Y-15496428D01*
X12319286Y-15505952D01*
X12300238Y-15515476D01*
X12262143Y-15515476D01*
X12243095Y-15505952D01*
X12424048Y-15496428D02*
X12433571Y-15505952D01*
X12424048Y-15515476D01*
X12414524Y-15505952D01*
X12424048Y-15496428D01*
X12424048Y-15515476D01*
X12424048Y-15391667D02*
X12433571Y-15401190D01*
X12424048Y-15410714D01*
X12414524Y-15401190D01*
X12424048Y-15391667D01*
X12424048Y-15410714D01*
X10595000Y-15745000D02*
X10795000Y-15945000D01*
X10795000Y-15745000D02*
X10595000Y-15945000D01*
X11043095Y-15754524D02*
X11052619Y-15745000D01*
X11071667Y-15735476D01*
X11119286Y-15735476D01*
X11138333Y-15745000D01*
X11147857Y-15754524D01*
X11157381Y-15773571D01*
X11157381Y-15792619D01*
X11147857Y-15821190D01*
X11033571Y-15935476D01*
X11157381Y-15935476D01*
X11243095Y-15916428D02*
X11252619Y-15925952D01*
X11243095Y-15935476D01*
X11233571Y-15925952D01*
X11243095Y-15916428D01*
X11243095Y-15935476D01*
X11328809Y-15754524D02*
X11338333Y-15745000D01*
X11357381Y-15735476D01*
X11405000Y-15735476D01*
X11424048Y-15745000D01*
X11433571Y-15754524D01*
X11443095Y-15773571D01*
X11443095Y-15792619D01*
X11433571Y-15821190D01*
X11319286Y-15935476D01*
X11443095Y-15935476D01*
X11566905Y-15735476D02*
X11585952Y-15735476D01*
X11605000Y-15745000D01*
X11614524Y-15754524D01*
X11624048Y-15773571D01*
X11633571Y-15811667D01*
X11633571Y-15859286D01*
X11624048Y-15897381D01*
X11614524Y-15916428D01*
X11605000Y-15925952D01*
X11585952Y-15935476D01*
X11566905Y-15935476D01*
X11547857Y-15925952D01*
X11538333Y-15916428D01*
X11528809Y-15897381D01*
X11519286Y-15859286D01*
X11519286Y-15811667D01*
X11528809Y-15773571D01*
X11538333Y-15754524D01*
X11547857Y-15745000D01*
X11566905Y-15735476D01*
X11757381Y-15735476D02*
X11776428Y-15735476D01*
X11795476Y-15745000D01*
X11805000Y-15754524D01*
X11814524Y-15773571D01*
X11824048Y-15811667D01*
X11824048Y-15859286D01*
X11814524Y-15897381D01*
X11805000Y-15916428D01*
X11795476Y-15925952D01*
X11776428Y-15935476D01*
X11757381Y-15935476D01*
X11738333Y-15925952D01*
X11728809Y-15916428D01*
X11719286Y-15897381D01*
X11709762Y-15859286D01*
X11709762Y-15811667D01*
X11719286Y-15773571D01*
X11728809Y-15754524D01*
X11738333Y-15745000D01*
X11757381Y-15735476D01*
X11909762Y-15935476D02*
X11909762Y-15802143D01*
X11909762Y-15821190D02*
X11919286Y-15811667D01*
X11938333Y-15802143D01*
X11966905Y-15802143D01*
X11985952Y-15811667D01*
X11995476Y-15830714D01*
X11995476Y-15935476D01*
X11995476Y-15830714D02*
X12005000Y-15811667D01*
X12024048Y-15802143D01*
X12052619Y-15802143D01*
X12071667Y-15811667D01*
X12081190Y-15830714D01*
X12081190Y-15935476D01*
X12176428Y-15935476D02*
X12176428Y-15802143D01*
X12176428Y-15821190D02*
X12185952Y-15811667D01*
X12205000Y-15802143D01*
X12233571Y-15802143D01*
X12252619Y-15811667D01*
X12262143Y-15830714D01*
X12262143Y-15935476D01*
X12262143Y-15830714D02*
X12271667Y-15811667D01*
X12290714Y-15802143D01*
X12319286Y-15802143D01*
X12338333Y-15811667D01*
X12347857Y-15830714D01*
X12347857Y-15935476D01*
X12738333Y-15725952D02*
X12566905Y-15983095D01*
X12995476Y-15735476D02*
X13014524Y-15735476D01*
X13033571Y-15745000D01*
X13043095Y-15754524D01*
X13052619Y-15773571D01*
X13062143Y-15811667D01*
X13062143Y-15859286D01*
X13052619Y-15897381D01*
X13043095Y-15916428D01*
X13033571Y-15925952D01*
X13014524Y-15935476D01*
X12995476Y-15935476D01*
X12976428Y-15925952D01*
X12966905Y-15916428D01*
X12957381Y-15897381D01*
X12947857Y-15859286D01*
X12947857Y-15811667D01*
X12957381Y-15773571D01*
X12966905Y-15754524D01*
X12976428Y-15745000D01*
X12995476Y-15735476D01*
X13147857Y-15916428D02*
X13157381Y-15925952D01*
X13147857Y-15935476D01*
X13138333Y-15925952D01*
X13147857Y-15916428D01*
X13147857Y-15935476D01*
X13281190Y-15735476D02*
X13300238Y-15735476D01*
X13319286Y-15745000D01*
X13328809Y-15754524D01*
X13338333Y-15773571D01*
X13347857Y-15811667D01*
X13347857Y-15859286D01*
X13338333Y-15897381D01*
X13328809Y-15916428D01*
X13319286Y-15925952D01*
X13300238Y-15935476D01*
X13281190Y-15935476D01*
X13262143Y-15925952D01*
X13252619Y-15916428D01*
X13243095Y-15897381D01*
X13233571Y-15859286D01*
X13233571Y-15811667D01*
X13243095Y-15773571D01*
X13252619Y-15754524D01*
X13262143Y-15745000D01*
X13281190Y-15735476D01*
X13462143Y-15821190D02*
X13443095Y-15811667D01*
X13433571Y-15802143D01*
X13424048Y-15783095D01*
X13424048Y-15773571D01*
X13433571Y-15754524D01*
X13443095Y-15745000D01*
X13462143Y-15735476D01*
X13500238Y-15735476D01*
X13519286Y-15745000D01*
X13528809Y-15754524D01*
X13538333Y-15773571D01*
X13538333Y-15783095D01*
X13528809Y-15802143D01*
X13519286Y-15811667D01*
X13500238Y-15821190D01*
X13462143Y-15821190D01*
X13443095Y-15830714D01*
X13433571Y-15840238D01*
X13424048Y-15859286D01*
X13424048Y-15897381D01*
X13433571Y-15916428D01*
X13443095Y-15925952D01*
X13462143Y-15935476D01*
X13500238Y-15935476D01*
X13519286Y-15925952D01*
X13528809Y-15916428D01*
X13538333Y-15897381D01*
X13538333Y-15859286D01*
X13528809Y-15840238D01*
X13519286Y-15830714D01*
X13500238Y-15821190D01*
X13709762Y-15735476D02*
X13671667Y-15735476D01*
X13652619Y-15745000D01*
X13643095Y-15754524D01*
X13624048Y-15783095D01*
X13614524Y-15821190D01*
X13614524Y-15897381D01*
X13624048Y-15916428D01*
X13633571Y-15925952D01*
X13652619Y-15935476D01*
X13690714Y-15935476D01*
X13709762Y-15925952D01*
X13719286Y-15916428D01*
X13728809Y-15897381D01*
X13728809Y-15849762D01*
X13719286Y-15830714D01*
X13709762Y-15821190D01*
X13690714Y-15811667D01*
X13652619Y-15811667D01*
X13633571Y-15821190D01*
X13624048Y-15830714D01*
X13614524Y-15849762D01*
X13900238Y-15735476D02*
X13862143Y-15735476D01*
X13843095Y-15745000D01*
X13833571Y-15754524D01*
X13814524Y-15783095D01*
X13805000Y-15821190D01*
X13805000Y-15897381D01*
X13814524Y-15916428D01*
X13824048Y-15925952D01*
X13843095Y-15935476D01*
X13881190Y-15935476D01*
X13900238Y-15925952D01*
X13909762Y-15916428D01*
X13919286Y-15897381D01*
X13919286Y-15849762D01*
X13909762Y-15830714D01*
X13900238Y-15821190D01*
X13881190Y-15811667D01*
X13843095Y-15811667D01*
X13824048Y-15821190D01*
X13814524Y-15830714D01*
X13805000Y-15849762D01*
X13995476Y-15735476D02*
X13995476Y-15773571D01*
X14071667Y-15735476D02*
X14071667Y-15773571D01*
X14366905Y-16011667D02*
X14357381Y-16002143D01*
X14338333Y-15973571D01*
X14328809Y-15954524D01*
X14319286Y-15925952D01*
X14309762Y-15878333D01*
X14309762Y-15840238D01*
X14319286Y-15792619D01*
X14328809Y-15764048D01*
X14338333Y-15745000D01*
X14357381Y-15716428D01*
X14366905Y-15706905D01*
X14528809Y-15802143D02*
X14528809Y-15935476D01*
X14481190Y-15725952D02*
X14433571Y-15868809D01*
X14557381Y-15868809D01*
X14785952Y-15935476D02*
X14785952Y-15735476D01*
X14871667Y-15935476D02*
X14871667Y-15830714D01*
X14862143Y-15811667D01*
X14843095Y-15802143D01*
X14814524Y-15802143D01*
X14795476Y-15811667D01*
X14785952Y-15821190D01*
X14995476Y-15935476D02*
X14976428Y-15925952D01*
X14966905Y-15916428D01*
X14957381Y-15897381D01*
X14957381Y-15840238D01*
X14966905Y-15821190D01*
X14976428Y-15811667D01*
X14995476Y-15802143D01*
X15024048Y-15802143D01*
X15043095Y-15811667D01*
X15052619Y-15821190D01*
X15062143Y-15840238D01*
X15062143Y-15897381D01*
X15052619Y-15916428D01*
X15043095Y-15925952D01*
X15024048Y-15935476D01*
X14995476Y-15935476D01*
X15176428Y-15935476D02*
X15157381Y-15925952D01*
X15147857Y-15906905D01*
X15147857Y-15735476D01*
X15328809Y-15925952D02*
X15309762Y-15935476D01*
X15271667Y-15935476D01*
X15252619Y-15925952D01*
X15243095Y-15906905D01*
X15243095Y-15830714D01*
X15252619Y-15811667D01*
X15271667Y-15802143D01*
X15309762Y-15802143D01*
X15328809Y-15811667D01*
X15338333Y-15830714D01*
X15338333Y-15849762D01*
X15243095Y-15868809D01*
X15414524Y-15925952D02*
X15433571Y-15935476D01*
X15471667Y-15935476D01*
X15490714Y-15925952D01*
X15500238Y-15906905D01*
X15500238Y-15897381D01*
X15490714Y-15878333D01*
X15471667Y-15868809D01*
X15443095Y-15868809D01*
X15424048Y-15859286D01*
X15414524Y-15840238D01*
X15414524Y-15830714D01*
X15424048Y-15811667D01*
X15443095Y-15802143D01*
X15471667Y-15802143D01*
X15490714Y-15811667D01*
X15566905Y-16011667D02*
X15576428Y-16002143D01*
X15595476Y-15973571D01*
X15605000Y-15954524D01*
X15614524Y-15925952D01*
X15624048Y-15878333D01*
X15624048Y-15840238D01*
X15614524Y-15792619D01*
X15605000Y-15764048D01*
X15595476Y-15745000D01*
X15576428Y-15716428D01*
X15566905Y-15706905D01*
X15928809Y-16011667D02*
X15919286Y-16002143D01*
X15900238Y-15973571D01*
X15890714Y-15954524D01*
X15881190Y-15925952D01*
X15871667Y-15878333D01*
X15871667Y-15840238D01*
X15881190Y-15792619D01*
X15890714Y-15764048D01*
X15900238Y-15745000D01*
X15919286Y-15716428D01*
X15928809Y-15706905D01*
X16005000Y-15802143D02*
X16005000Y-15935476D01*
X16005000Y-15821190D02*
X16014524Y-15811667D01*
X16033571Y-15802143D01*
X16062143Y-15802143D01*
X16081190Y-15811667D01*
X16090714Y-15830714D01*
X16090714Y-15935476D01*
X16214524Y-15935476D02*
X16195476Y-15925952D01*
X16185952Y-15916428D01*
X16176428Y-15897381D01*
X16176428Y-15840238D01*
X16185952Y-15821190D01*
X16195476Y-15811667D01*
X16214524Y-15802143D01*
X16243095Y-15802143D01*
X16262143Y-15811667D01*
X16271667Y-15821190D01*
X16281190Y-15840238D01*
X16281190Y-15897381D01*
X16271667Y-15916428D01*
X16262143Y-15925952D01*
X16243095Y-15935476D01*
X16214524Y-15935476D01*
X16338333Y-15802143D02*
X16414524Y-15802143D01*
X16366905Y-15735476D02*
X16366905Y-15906905D01*
X16376428Y-15925952D01*
X16395476Y-15935476D01*
X16414524Y-15935476D01*
X16633571Y-15802143D02*
X16633571Y-16002143D01*
X16633571Y-15811667D02*
X16652619Y-15802143D01*
X16690714Y-15802143D01*
X16709762Y-15811667D01*
X16719286Y-15821190D01*
X16728809Y-15840238D01*
X16728809Y-15897381D01*
X16719286Y-15916428D01*
X16709762Y-15925952D01*
X16690714Y-15935476D01*
X16652619Y-15935476D01*
X16633571Y-15925952D01*
X16843095Y-15935476D02*
X16824048Y-15925952D01*
X16814524Y-15906905D01*
X16814524Y-15735476D01*
X17005000Y-15935476D02*
X17005000Y-15830714D01*
X16995476Y-15811667D01*
X16976429Y-15802143D01*
X16938333Y-15802143D01*
X16919286Y-15811667D01*
X17005000Y-15925952D02*
X16985952Y-15935476D01*
X16938333Y-15935476D01*
X16919286Y-15925952D01*
X16909762Y-15906905D01*
X16909762Y-15887857D01*
X16919286Y-15868809D01*
X16938333Y-15859286D01*
X16985952Y-15859286D01*
X17005000Y-15849762D01*
X17071667Y-15802143D02*
X17147857Y-15802143D01*
X17100238Y-15735476D02*
X17100238Y-15906905D01*
X17109762Y-15925952D01*
X17128810Y-15935476D01*
X17147857Y-15935476D01*
X17290714Y-15925952D02*
X17271667Y-15935476D01*
X17233571Y-15935476D01*
X17214524Y-15925952D01*
X17205000Y-15906905D01*
X17205000Y-15830714D01*
X17214524Y-15811667D01*
X17233571Y-15802143D01*
X17271667Y-15802143D01*
X17290714Y-15811667D01*
X17300238Y-15830714D01*
X17300238Y-15849762D01*
X17205000Y-15868809D01*
X17471667Y-15935476D02*
X17471667Y-15735476D01*
X17471667Y-15925952D02*
X17452619Y-15935476D01*
X17414524Y-15935476D01*
X17395476Y-15925952D01*
X17385952Y-15916428D01*
X17376429Y-15897381D01*
X17376429Y-15840238D01*
X17385952Y-15821190D01*
X17395476Y-15811667D01*
X17414524Y-15802143D01*
X17452619Y-15802143D01*
X17471667Y-15811667D01*
X17547857Y-16011667D02*
X17557381Y-16002143D01*
X17576429Y-15973571D01*
X17585952Y-15954524D01*
X17595476Y-15925952D01*
X17605000Y-15878333D01*
X17605000Y-15840238D01*
X17595476Y-15792619D01*
X17585952Y-15764048D01*
X17576429Y-15745000D01*
X17557381Y-15716428D01*
X17547857Y-15706905D01*
M02*
