%TF.GenerationSoftware,KiCad,Pcbnew,(5.1.9)-1*%
%TF.CreationDate,2022-01-14T21:41:21-05:00*%
%TF.ProjectId,mama_board,6d616d61-5f62-46f6-9172-642e6b696361,rev?*%
%TF.SameCoordinates,Original*%
%TF.FileFunction,Legend,Top*%
%TF.FilePolarity,Positive*%
%FSLAX46Y46*%
G04 Gerber Fmt 4.6, Leading zero omitted, Abs format (unit mm)*
G04 Created by KiCad (PCBNEW (5.1.9)-1) date 2022-01-14 21:41:21*
%MOMM*%
%LPD*%
G01*
G04 APERTURE LIST*
%ADD10C,0.150000*%
%ADD11C,0.300000*%
%ADD12C,0.250000*%
%ADD13C,0.010000*%
%ADD14C,0.120000*%
G04 APERTURE END LIST*
D10*
X150286057Y-112374419D02*
X150333676Y-112326800D01*
X150428914Y-112279180D01*
X150667009Y-112279180D01*
X150762247Y-112326800D01*
X150809866Y-112374419D01*
X150857485Y-112469657D01*
X150857485Y-112564895D01*
X150809866Y-112707752D01*
X150238438Y-113279180D01*
X150857485Y-113279180D01*
X151476533Y-112279180D02*
X151571771Y-112279180D01*
X151667009Y-112326800D01*
X151714628Y-112374419D01*
X151762247Y-112469657D01*
X151809866Y-112660133D01*
X151809866Y-112898228D01*
X151762247Y-113088704D01*
X151714628Y-113183942D01*
X151667009Y-113231561D01*
X151571771Y-113279180D01*
X151476533Y-113279180D01*
X151381295Y-113231561D01*
X151333676Y-113183942D01*
X151286057Y-113088704D01*
X151238438Y-112898228D01*
X151238438Y-112660133D01*
X151286057Y-112469657D01*
X151333676Y-112374419D01*
X151381295Y-112326800D01*
X151476533Y-112279180D01*
X152190819Y-112374419D02*
X152238438Y-112326800D01*
X152333676Y-112279180D01*
X152571771Y-112279180D01*
X152667009Y-112326800D01*
X152714628Y-112374419D01*
X152762247Y-112469657D01*
X152762247Y-112564895D01*
X152714628Y-112707752D01*
X152143200Y-113279180D01*
X152762247Y-113279180D01*
X153143200Y-112374419D02*
X153190819Y-112326800D01*
X153286057Y-112279180D01*
X153524152Y-112279180D01*
X153619390Y-112326800D01*
X153667009Y-112374419D01*
X153714628Y-112469657D01*
X153714628Y-112564895D01*
X153667009Y-112707752D01*
X153095580Y-113279180D01*
X153714628Y-113279180D01*
X154143200Y-112898228D02*
X154905104Y-112898228D01*
X155571771Y-112279180D02*
X155667009Y-112279180D01*
X155762247Y-112326800D01*
X155809866Y-112374419D01*
X155857485Y-112469657D01*
X155905104Y-112660133D01*
X155905104Y-112898228D01*
X155857485Y-113088704D01*
X155809866Y-113183942D01*
X155762247Y-113231561D01*
X155667009Y-113279180D01*
X155571771Y-113279180D01*
X155476533Y-113231561D01*
X155428914Y-113183942D01*
X155381295Y-113088704D01*
X155333676Y-112898228D01*
X155333676Y-112660133D01*
X155381295Y-112469657D01*
X155428914Y-112374419D01*
X155476533Y-112326800D01*
X155571771Y-112279180D01*
X156857485Y-113279180D02*
X156286057Y-113279180D01*
X156571771Y-113279180D02*
X156571771Y-112279180D01*
X156476533Y-112422038D01*
X156381295Y-112517276D01*
X156286057Y-112564895D01*
X157286057Y-112898228D02*
X158047961Y-112898228D01*
X159047961Y-113279180D02*
X158476533Y-113279180D01*
X158762247Y-113279180D02*
X158762247Y-112279180D01*
X158667009Y-112422038D01*
X158571771Y-112517276D01*
X158476533Y-112564895D01*
X159905104Y-112612514D02*
X159905104Y-113279180D01*
X159667009Y-112231561D02*
X159428914Y-112945847D01*
X160047961Y-112945847D01*
D11*
X151062228Y-111473371D02*
X150562228Y-110759085D01*
X150205085Y-111473371D02*
X150205085Y-109973371D01*
X150776514Y-109973371D01*
X150919371Y-110044800D01*
X150990800Y-110116228D01*
X151062228Y-110259085D01*
X151062228Y-110473371D01*
X150990800Y-110616228D01*
X150919371Y-110687657D01*
X150776514Y-110759085D01*
X150205085Y-110759085D01*
X151705085Y-111330514D02*
X151776514Y-111401942D01*
X151705085Y-111473371D01*
X151633657Y-111401942D01*
X151705085Y-111330514D01*
X151705085Y-111473371D01*
X153562228Y-111473371D02*
X153562228Y-109973371D01*
X153919371Y-109973371D01*
X154133657Y-110044800D01*
X154276514Y-110187657D01*
X154347942Y-110330514D01*
X154419371Y-110616228D01*
X154419371Y-110830514D01*
X154347942Y-111116228D01*
X154276514Y-111259085D01*
X154133657Y-111401942D01*
X153919371Y-111473371D01*
X153562228Y-111473371D01*
X155705085Y-111473371D02*
X155705085Y-110687657D01*
X155633657Y-110544800D01*
X155490800Y-110473371D01*
X155205085Y-110473371D01*
X155062228Y-110544800D01*
X155705085Y-111401942D02*
X155562228Y-111473371D01*
X155205085Y-111473371D01*
X155062228Y-111401942D01*
X154990800Y-111259085D01*
X154990800Y-111116228D01*
X155062228Y-110973371D01*
X155205085Y-110901942D01*
X155562228Y-110901942D01*
X155705085Y-110830514D01*
X156419371Y-111473371D02*
X156419371Y-109973371D01*
X156562228Y-110901942D02*
X156990800Y-111473371D01*
X156990800Y-110473371D02*
X156419371Y-111044800D01*
X157633657Y-111473371D02*
X157633657Y-109973371D01*
X158276514Y-111473371D02*
X158276514Y-110687657D01*
X158205085Y-110544800D01*
X158062228Y-110473371D01*
X157847942Y-110473371D01*
X157705085Y-110544800D01*
X157633657Y-110616228D01*
X158990800Y-111473371D02*
X158990800Y-110473371D01*
X158990800Y-109973371D02*
X158919371Y-110044800D01*
X158990800Y-110116228D01*
X159062228Y-110044800D01*
X158990800Y-109973371D01*
X158990800Y-110116228D01*
X159919371Y-111473371D02*
X159776514Y-111401942D01*
X159705085Y-111259085D01*
X159705085Y-109973371D01*
X150847942Y-109085771D02*
X150133657Y-109085771D01*
X150133657Y-107585771D01*
X151347942Y-108942914D02*
X151419371Y-109014342D01*
X151347942Y-109085771D01*
X151276514Y-109014342D01*
X151347942Y-108942914D01*
X151347942Y-109085771D01*
X152990800Y-107585771D02*
X153847942Y-107585771D01*
X153419371Y-109085771D02*
X153419371Y-107585771D01*
X154562228Y-109085771D02*
X154419371Y-109014342D01*
X154347942Y-108942914D01*
X154276514Y-108800057D01*
X154276514Y-108371485D01*
X154347942Y-108228628D01*
X154419371Y-108157200D01*
X154562228Y-108085771D01*
X154776514Y-108085771D01*
X154919371Y-108157200D01*
X154990800Y-108228628D01*
X155062228Y-108371485D01*
X155062228Y-108800057D01*
X154990800Y-108942914D01*
X154919371Y-109014342D01*
X154776514Y-109085771D01*
X154562228Y-109085771D01*
X155705085Y-109085771D02*
X155705085Y-108085771D01*
X155705085Y-108228628D02*
X155776514Y-108157200D01*
X155919371Y-108085771D01*
X156133657Y-108085771D01*
X156276514Y-108157200D01*
X156347942Y-108300057D01*
X156347942Y-109085771D01*
X156347942Y-108300057D02*
X156419371Y-108157200D01*
X156562228Y-108085771D01*
X156776514Y-108085771D01*
X156919371Y-108157200D01*
X156990800Y-108300057D01*
X156990800Y-109085771D01*
X157919371Y-109085771D02*
X157776514Y-109014342D01*
X157705085Y-108871485D01*
X157705085Y-107585771D01*
X158490800Y-109085771D02*
X158490800Y-108085771D01*
X158490800Y-107585771D02*
X158419371Y-107657200D01*
X158490800Y-107728628D01*
X158562228Y-107657200D01*
X158490800Y-107585771D01*
X158490800Y-107728628D01*
X159205085Y-108085771D02*
X159205085Y-109085771D01*
X159205085Y-108228628D02*
X159276514Y-108157200D01*
X159419371Y-108085771D01*
X159633657Y-108085771D01*
X159776514Y-108157200D01*
X159847942Y-108300057D01*
X159847942Y-109085771D01*
D10*
X160540700Y-141173200D02*
X160550000Y-151975000D01*
X152622619Y-98460714D02*
X152584523Y-98498809D01*
X152470238Y-98536904D01*
X152394047Y-98536904D01*
X152279761Y-98498809D01*
X152203571Y-98422619D01*
X152165476Y-98346428D01*
X152127380Y-98194047D01*
X152127380Y-98079761D01*
X152165476Y-97927380D01*
X152203571Y-97851190D01*
X152279761Y-97775000D01*
X152394047Y-97736904D01*
X152470238Y-97736904D01*
X152584523Y-97775000D01*
X152622619Y-97813095D01*
X149032142Y-98042857D02*
X149146428Y-98080952D01*
X149184523Y-98119047D01*
X149222619Y-98195238D01*
X149222619Y-98309523D01*
X149184523Y-98385714D01*
X149146428Y-98423809D01*
X149070238Y-98461904D01*
X148765476Y-98461904D01*
X148765476Y-97661904D01*
X149032142Y-97661904D01*
X149108333Y-97700000D01*
X149146428Y-97738095D01*
X149184523Y-97814285D01*
X149184523Y-97890476D01*
X149146428Y-97966666D01*
X149108333Y-98004761D01*
X149032142Y-98042857D01*
X148765476Y-98042857D01*
X145772619Y-98436904D02*
X145505952Y-98055952D01*
X145315476Y-98436904D02*
X145315476Y-97636904D01*
X145620238Y-97636904D01*
X145696428Y-97675000D01*
X145734523Y-97713095D01*
X145772619Y-97789285D01*
X145772619Y-97903571D01*
X145734523Y-97979761D01*
X145696428Y-98017857D01*
X145620238Y-98055952D01*
X145315476Y-98055952D01*
X185638095Y-91050000D02*
X185542857Y-91002380D01*
X185400000Y-91002380D01*
X185257142Y-91050000D01*
X185161904Y-91145238D01*
X185114285Y-91240476D01*
X185066666Y-91430952D01*
X185066666Y-91573809D01*
X185114285Y-91764285D01*
X185161904Y-91859523D01*
X185257142Y-91954761D01*
X185400000Y-92002380D01*
X185495238Y-92002380D01*
X185638095Y-91954761D01*
X185685714Y-91907142D01*
X185685714Y-91573809D01*
X185495238Y-91573809D01*
X186114285Y-92002380D02*
X186114285Y-91002380D01*
X186685714Y-92002380D01*
X186685714Y-91002380D01*
X187161904Y-92002380D02*
X187161904Y-91002380D01*
X187400000Y-91002380D01*
X187542857Y-91050000D01*
X187638095Y-91145238D01*
X187685714Y-91240476D01*
X187733333Y-91430952D01*
X187733333Y-91573809D01*
X187685714Y-91764285D01*
X187638095Y-91859523D01*
X187542857Y-91954761D01*
X187400000Y-92002380D01*
X187161904Y-92002380D01*
X185211904Y-88452380D02*
X185830952Y-88452380D01*
X185497619Y-88833333D01*
X185640476Y-88833333D01*
X185735714Y-88880952D01*
X185783333Y-88928571D01*
X185830952Y-89023809D01*
X185830952Y-89261904D01*
X185783333Y-89357142D01*
X185735714Y-89404761D01*
X185640476Y-89452380D01*
X185354761Y-89452380D01*
X185259523Y-89404761D01*
X185211904Y-89357142D01*
X186164285Y-88452380D02*
X186830952Y-88452380D01*
X186402380Y-89452380D01*
X187069047Y-88452380D02*
X187402380Y-89452380D01*
X187735714Y-88452380D01*
X185984523Y-85752380D02*
X185508333Y-85752380D01*
X185460714Y-86228571D01*
X185508333Y-86180952D01*
X185603571Y-86133333D01*
X185841666Y-86133333D01*
X185936904Y-86180952D01*
X185984523Y-86228571D01*
X186032142Y-86323809D01*
X186032142Y-86561904D01*
X185984523Y-86657142D01*
X185936904Y-86704761D01*
X185841666Y-86752380D01*
X185603571Y-86752380D01*
X185508333Y-86704761D01*
X185460714Y-86657142D01*
X186317857Y-85752380D02*
X186651190Y-86752380D01*
X186984523Y-85752380D01*
D12*
X167553411Y-78350708D02*
X168315316Y-78350708D01*
X167934363Y-78731660D02*
X167934363Y-77969756D01*
X168696268Y-77731660D02*
X169315316Y-77731660D01*
X168981982Y-78112613D01*
X169124840Y-78112613D01*
X169220078Y-78160232D01*
X169267697Y-78207851D01*
X169315316Y-78303089D01*
X169315316Y-78541184D01*
X169267697Y-78636422D01*
X169220078Y-78684041D01*
X169124840Y-78731660D01*
X168839125Y-78731660D01*
X168743887Y-78684041D01*
X168696268Y-78636422D01*
X169648649Y-77731660D02*
X170315316Y-77731660D01*
X169886744Y-78731660D01*
X170553411Y-77731660D02*
X170886744Y-78731660D01*
X171220078Y-77731660D01*
X172791506Y-78731660D02*
X172315316Y-78731660D01*
X172315316Y-77731660D01*
X173124840Y-78731660D02*
X173124840Y-77731660D01*
X173362935Y-77731660D01*
X173505792Y-77779280D01*
X173601030Y-77874518D01*
X173648649Y-77969756D01*
X173696268Y-78160232D01*
X173696268Y-78303089D01*
X173648649Y-78493565D01*
X173601030Y-78588803D01*
X173505792Y-78684041D01*
X173362935Y-78731660D01*
X173124840Y-78731660D01*
X174315316Y-77731660D02*
X174505792Y-77731660D01*
X174601030Y-77779280D01*
X174696268Y-77874518D01*
X174743887Y-78064994D01*
X174743887Y-78398327D01*
X174696268Y-78588803D01*
X174601030Y-78684041D01*
X174505792Y-78731660D01*
X174315316Y-78731660D01*
X174220078Y-78684041D01*
X174124840Y-78588803D01*
X174077220Y-78398327D01*
X174077220Y-78064994D01*
X174124840Y-77874518D01*
X174220078Y-77779280D01*
X174315316Y-77731660D01*
D10*
X161624840Y-88779280D02*
X175624840Y-88779280D01*
X161624840Y-77279280D02*
X161624840Y-88779280D01*
X175624840Y-77279280D02*
X161624840Y-77279280D01*
X175624840Y-88779280D02*
X175624840Y-77279280D01*
D12*
X176625000Y-74096428D02*
X177386904Y-74096428D01*
X177005952Y-74477380D02*
X177005952Y-73715476D01*
X178291666Y-73810714D02*
X178291666Y-74477380D01*
X178053571Y-73429761D02*
X177815476Y-74144047D01*
X178434523Y-74144047D01*
X178815476Y-74382142D02*
X178863095Y-74429761D01*
X178815476Y-74477380D01*
X178767857Y-74429761D01*
X178815476Y-74382142D01*
X178815476Y-74477380D01*
X179196428Y-73477380D02*
X179863095Y-73477380D01*
X179434523Y-74477380D01*
X180101190Y-73477380D02*
X180434523Y-74477380D01*
X180767857Y-73477380D01*
X177910714Y-76227380D02*
X177434523Y-76227380D01*
X177434523Y-75227380D01*
X178244047Y-76227380D02*
X178244047Y-75227380D01*
X178482142Y-75227380D01*
X178625000Y-75275000D01*
X178720238Y-75370238D01*
X178767857Y-75465476D01*
X178815476Y-75655952D01*
X178815476Y-75798809D01*
X178767857Y-75989285D01*
X178720238Y-76084523D01*
X178625000Y-76179761D01*
X178482142Y-76227380D01*
X178244047Y-76227380D01*
X179434523Y-75227380D02*
X179625000Y-75227380D01*
X179720238Y-75275000D01*
X179815476Y-75370238D01*
X179863095Y-75560714D01*
X179863095Y-75894047D01*
X179815476Y-76084523D01*
X179720238Y-76179761D01*
X179625000Y-76227380D01*
X179434523Y-76227380D01*
X179339285Y-76179761D01*
X179244047Y-76084523D01*
X179196428Y-75894047D01*
X179196428Y-75560714D01*
X179244047Y-75370238D01*
X179339285Y-75275000D01*
X179434523Y-75227380D01*
D10*
X176124840Y-72954280D02*
X180624840Y-72954280D01*
X176124840Y-83954280D02*
X176124840Y-72954280D01*
X187124840Y-83954280D02*
X176124840Y-83954280D01*
X187124840Y-72954280D02*
X187124840Y-83954280D01*
X186624840Y-72954280D02*
X187124840Y-72954280D01*
D12*
X130043466Y-150194971D02*
X129710133Y-150194971D01*
X129710133Y-150718780D02*
X129710133Y-149718780D01*
X130186323Y-149718780D01*
X130567276Y-150718780D02*
X130567276Y-149718780D01*
X131519657Y-150718780D02*
X131043466Y-150718780D01*
X131043466Y-149718780D01*
X131710133Y-149718780D02*
X132281561Y-149718780D01*
X131995847Y-150718780D02*
X131995847Y-149718780D01*
X132614895Y-150194971D02*
X132948228Y-150194971D01*
X133091085Y-150718780D02*
X132614895Y-150718780D01*
X132614895Y-149718780D01*
X133091085Y-149718780D01*
X134091085Y-150718780D02*
X133757752Y-150242590D01*
X133519657Y-150718780D02*
X133519657Y-149718780D01*
X133900609Y-149718780D01*
X133995847Y-149766400D01*
X134043466Y-149814019D01*
X134091085Y-149909257D01*
X134091085Y-150052114D01*
X134043466Y-150147352D01*
X133995847Y-150194971D01*
X133900609Y-150242590D01*
X133519657Y-150242590D01*
X156103866Y-147058071D02*
X155770533Y-147058071D01*
X155770533Y-147581880D02*
X155770533Y-146581880D01*
X156246723Y-146581880D01*
X156627676Y-147581880D02*
X156627676Y-146581880D01*
X157580057Y-147581880D02*
X157103866Y-147581880D01*
X157103866Y-146581880D01*
X157770533Y-146581880D02*
X158341961Y-146581880D01*
X158056247Y-147581880D02*
X158056247Y-146581880D01*
X158675295Y-147058071D02*
X159008628Y-147058071D01*
X159151485Y-147581880D02*
X158675295Y-147581880D01*
X158675295Y-146581880D01*
X159151485Y-146581880D01*
X160151485Y-147581880D02*
X159818152Y-147105690D01*
X159580057Y-147581880D02*
X159580057Y-146581880D01*
X159961009Y-146581880D01*
X160056247Y-146629500D01*
X160103866Y-146677119D01*
X160151485Y-146772357D01*
X160151485Y-146915214D01*
X160103866Y-147010452D01*
X160056247Y-147058071D01*
X159961009Y-147105690D01*
X159580057Y-147105690D01*
X182341666Y-143353571D02*
X182008333Y-143353571D01*
X182008333Y-143877380D02*
X182008333Y-142877380D01*
X182484523Y-142877380D01*
X182865476Y-143877380D02*
X182865476Y-142877380D01*
X183817857Y-143877380D02*
X183341666Y-143877380D01*
X183341666Y-142877380D01*
X184008333Y-142877380D02*
X184579761Y-142877380D01*
X184294047Y-143877380D02*
X184294047Y-142877380D01*
X184913095Y-143353571D02*
X185246428Y-143353571D01*
X185389285Y-143877380D02*
X184913095Y-143877380D01*
X184913095Y-142877380D01*
X185389285Y-142877380D01*
X186389285Y-143877380D02*
X186055952Y-143401190D01*
X185817857Y-143877380D02*
X185817857Y-142877380D01*
X186198809Y-142877380D01*
X186294047Y-142925000D01*
X186341666Y-142972619D01*
X186389285Y-143067857D01*
X186389285Y-143210714D01*
X186341666Y-143305952D01*
X186294047Y-143353571D01*
X186198809Y-143401190D01*
X185817857Y-143401190D01*
X163035714Y-139327380D02*
X163607142Y-139327380D01*
X163321428Y-140327380D02*
X163321428Y-139327380D01*
X164511904Y-140327380D02*
X164178571Y-139851190D01*
X163940476Y-140327380D02*
X163940476Y-139327380D01*
X164321428Y-139327380D01*
X164416666Y-139375000D01*
X164464285Y-139422619D01*
X164511904Y-139517857D01*
X164511904Y-139660714D01*
X164464285Y-139755952D01*
X164416666Y-139803571D01*
X164321428Y-139851190D01*
X163940476Y-139851190D01*
X164892857Y-140041666D02*
X165369047Y-140041666D01*
X164797619Y-140327380D02*
X165130952Y-139327380D01*
X165464285Y-140327380D01*
X165797619Y-140327380D02*
X165797619Y-139327380D01*
X166369047Y-140327380D01*
X166369047Y-139327380D01*
X166797619Y-140279761D02*
X166940476Y-140327380D01*
X167178571Y-140327380D01*
X167273809Y-140279761D01*
X167321428Y-140232142D01*
X167369047Y-140136904D01*
X167369047Y-140041666D01*
X167321428Y-139946428D01*
X167273809Y-139898809D01*
X167178571Y-139851190D01*
X166988095Y-139803571D01*
X166892857Y-139755952D01*
X166845238Y-139708333D01*
X166797619Y-139613095D01*
X166797619Y-139517857D01*
X166845238Y-139422619D01*
X166892857Y-139375000D01*
X166988095Y-139327380D01*
X167226190Y-139327380D01*
X167369047Y-139375000D01*
X135185714Y-138252380D02*
X135757142Y-138252380D01*
X135471428Y-139252380D02*
X135471428Y-138252380D01*
X136661904Y-139252380D02*
X136328571Y-138776190D01*
X136090476Y-139252380D02*
X136090476Y-138252380D01*
X136471428Y-138252380D01*
X136566666Y-138300000D01*
X136614285Y-138347619D01*
X136661904Y-138442857D01*
X136661904Y-138585714D01*
X136614285Y-138680952D01*
X136566666Y-138728571D01*
X136471428Y-138776190D01*
X136090476Y-138776190D01*
X137042857Y-138966666D02*
X137519047Y-138966666D01*
X136947619Y-139252380D02*
X137280952Y-138252380D01*
X137614285Y-139252380D01*
X137947619Y-139252380D02*
X137947619Y-138252380D01*
X138519047Y-139252380D01*
X138519047Y-138252380D01*
X138947619Y-139204761D02*
X139090476Y-139252380D01*
X139328571Y-139252380D01*
X139423809Y-139204761D01*
X139471428Y-139157142D01*
X139519047Y-139061904D01*
X139519047Y-138966666D01*
X139471428Y-138871428D01*
X139423809Y-138823809D01*
X139328571Y-138776190D01*
X139138095Y-138728571D01*
X139042857Y-138680952D01*
X138995238Y-138633333D01*
X138947619Y-138538095D01*
X138947619Y-138442857D01*
X138995238Y-138347619D01*
X139042857Y-138300000D01*
X139138095Y-138252380D01*
X139376190Y-138252380D01*
X139519047Y-138300000D01*
X109085714Y-138402380D02*
X109657142Y-138402380D01*
X109371428Y-139402380D02*
X109371428Y-138402380D01*
X110561904Y-139402380D02*
X110228571Y-138926190D01*
X109990476Y-139402380D02*
X109990476Y-138402380D01*
X110371428Y-138402380D01*
X110466666Y-138450000D01*
X110514285Y-138497619D01*
X110561904Y-138592857D01*
X110561904Y-138735714D01*
X110514285Y-138830952D01*
X110466666Y-138878571D01*
X110371428Y-138926190D01*
X109990476Y-138926190D01*
X110942857Y-139116666D02*
X111419047Y-139116666D01*
X110847619Y-139402380D02*
X111180952Y-138402380D01*
X111514285Y-139402380D01*
X111847619Y-139402380D02*
X111847619Y-138402380D01*
X112419047Y-139402380D01*
X112419047Y-138402380D01*
X112847619Y-139354761D02*
X112990476Y-139402380D01*
X113228571Y-139402380D01*
X113323809Y-139354761D01*
X113371428Y-139307142D01*
X113419047Y-139211904D01*
X113419047Y-139116666D01*
X113371428Y-139021428D01*
X113323809Y-138973809D01*
X113228571Y-138926190D01*
X113038095Y-138878571D01*
X112942857Y-138830952D01*
X112895238Y-138783333D01*
X112847619Y-138688095D01*
X112847619Y-138592857D01*
X112895238Y-138497619D01*
X112942857Y-138450000D01*
X113038095Y-138402380D01*
X113276190Y-138402380D01*
X113419047Y-138450000D01*
X138238076Y-127103166D02*
X138714266Y-127103166D01*
X138142838Y-127388880D02*
X138476171Y-126388880D01*
X138809504Y-127388880D01*
X139142838Y-127388880D02*
X139142838Y-126388880D01*
X139476171Y-127103166D01*
X139809504Y-126388880D01*
X139809504Y-127388880D01*
X140285695Y-127388880D02*
X140285695Y-126388880D01*
X140666647Y-126388880D01*
X140761885Y-126436500D01*
X140809504Y-126484119D01*
X140857123Y-126579357D01*
X140857123Y-126722214D01*
X140809504Y-126817452D01*
X140761885Y-126865071D01*
X140666647Y-126912690D01*
X140285695Y-126912690D01*
X157867196Y-126745026D02*
X158343386Y-126745026D01*
X157771958Y-127030740D02*
X158105291Y-126030740D01*
X158438624Y-127030740D01*
X158771958Y-127030740D02*
X158771958Y-126030740D01*
X159105291Y-126745026D01*
X159438624Y-126030740D01*
X159438624Y-127030740D01*
X159914815Y-127030740D02*
X159914815Y-126030740D01*
X160295767Y-126030740D01*
X160391005Y-126078360D01*
X160438624Y-126125979D01*
X160486243Y-126221217D01*
X160486243Y-126364074D01*
X160438624Y-126459312D01*
X160391005Y-126506931D01*
X160295767Y-126554550D01*
X159914815Y-126554550D01*
X178550476Y-129466666D02*
X179026666Y-129466666D01*
X178455238Y-129752380D02*
X178788571Y-128752380D01*
X179121904Y-129752380D01*
X179455238Y-129752380D02*
X179455238Y-128752380D01*
X179788571Y-129466666D01*
X180121904Y-128752380D01*
X180121904Y-129752380D01*
X180598095Y-129752380D02*
X180598095Y-128752380D01*
X180979047Y-128752380D01*
X181074285Y-128800000D01*
X181121904Y-128847619D01*
X181169523Y-128942857D01*
X181169523Y-129085714D01*
X181121904Y-129180952D01*
X181074285Y-129228571D01*
X180979047Y-129276190D01*
X180598095Y-129276190D01*
X160936419Y-117601080D02*
X160936419Y-116601080D01*
X161174514Y-116601080D01*
X161317371Y-116648700D01*
X161412609Y-116743938D01*
X161460228Y-116839176D01*
X161507847Y-117029652D01*
X161507847Y-117172509D01*
X161460228Y-117362985D01*
X161412609Y-117458223D01*
X161317371Y-117553461D01*
X161174514Y-117601080D01*
X160936419Y-117601080D01*
X161936419Y-117077271D02*
X162269752Y-117077271D01*
X162412609Y-117601080D02*
X161936419Y-117601080D01*
X161936419Y-116601080D01*
X162412609Y-116601080D01*
X162698323Y-116601080D02*
X163269752Y-116601080D01*
X162984038Y-117601080D02*
X162984038Y-116601080D01*
X163603085Y-117077271D02*
X163936419Y-117077271D01*
X164079276Y-117601080D02*
X163603085Y-117601080D01*
X163603085Y-116601080D01*
X164079276Y-116601080D01*
X165079276Y-117505842D02*
X165031657Y-117553461D01*
X164888800Y-117601080D01*
X164793561Y-117601080D01*
X164650704Y-117553461D01*
X164555466Y-117458223D01*
X164507847Y-117362985D01*
X164460228Y-117172509D01*
X164460228Y-117029652D01*
X164507847Y-116839176D01*
X164555466Y-116743938D01*
X164650704Y-116648700D01*
X164793561Y-116601080D01*
X164888800Y-116601080D01*
X165031657Y-116648700D01*
X165079276Y-116696319D01*
X165364990Y-116601080D02*
X165936419Y-116601080D01*
X165650704Y-117601080D02*
X165650704Y-116601080D01*
X166460228Y-116601080D02*
X166650704Y-116601080D01*
X166745942Y-116648700D01*
X166841180Y-116743938D01*
X166888800Y-116934414D01*
X166888800Y-117267747D01*
X166841180Y-117458223D01*
X166745942Y-117553461D01*
X166650704Y-117601080D01*
X166460228Y-117601080D01*
X166364990Y-117553461D01*
X166269752Y-117458223D01*
X166222133Y-117267747D01*
X166222133Y-116934414D01*
X166269752Y-116743938D01*
X166364990Y-116648700D01*
X166460228Y-116601080D01*
X167888800Y-117601080D02*
X167555466Y-117124890D01*
X167317371Y-117601080D02*
X167317371Y-116601080D01*
X167698323Y-116601080D01*
X167793561Y-116648700D01*
X167841180Y-116696319D01*
X167888800Y-116791557D01*
X167888800Y-116934414D01*
X167841180Y-117029652D01*
X167793561Y-117077271D01*
X167698323Y-117124890D01*
X167317371Y-117124890D01*
X161460228Y-119255842D02*
X161412609Y-119303461D01*
X161269752Y-119351080D01*
X161174514Y-119351080D01*
X161031657Y-119303461D01*
X160936419Y-119208223D01*
X160888800Y-119112985D01*
X160841180Y-118922509D01*
X160841180Y-118779652D01*
X160888800Y-118589176D01*
X160936419Y-118493938D01*
X161031657Y-118398700D01*
X161174514Y-118351080D01*
X161269752Y-118351080D01*
X161412609Y-118398700D01*
X161460228Y-118446319D01*
X161888800Y-119351080D02*
X161888800Y-118351080D01*
X162936419Y-119351080D02*
X162603085Y-118874890D01*
X162364990Y-119351080D02*
X162364990Y-118351080D01*
X162745942Y-118351080D01*
X162841180Y-118398700D01*
X162888800Y-118446319D01*
X162936419Y-118541557D01*
X162936419Y-118684414D01*
X162888800Y-118779652D01*
X162841180Y-118827271D01*
X162745942Y-118874890D01*
X162364990Y-118874890D01*
X163936419Y-119255842D02*
X163888800Y-119303461D01*
X163745942Y-119351080D01*
X163650704Y-119351080D01*
X163507847Y-119303461D01*
X163412609Y-119208223D01*
X163364990Y-119112985D01*
X163317371Y-118922509D01*
X163317371Y-118779652D01*
X163364990Y-118589176D01*
X163412609Y-118493938D01*
X163507847Y-118398700D01*
X163650704Y-118351080D01*
X163745942Y-118351080D01*
X163888800Y-118398700D01*
X163936419Y-118446319D01*
X164364990Y-118351080D02*
X164364990Y-119160604D01*
X164412609Y-119255842D01*
X164460228Y-119303461D01*
X164555466Y-119351080D01*
X164745942Y-119351080D01*
X164841180Y-119303461D01*
X164888800Y-119255842D01*
X164936419Y-119160604D01*
X164936419Y-118351080D01*
X165412609Y-119351080D02*
X165412609Y-118351080D01*
X165745942Y-118351080D02*
X166317371Y-118351080D01*
X166031657Y-119351080D02*
X166031657Y-118351080D01*
X167317371Y-118351080D02*
X167936419Y-118351080D01*
X167603085Y-118732033D01*
X167745942Y-118732033D01*
X167841180Y-118779652D01*
X167888800Y-118827271D01*
X167936419Y-118922509D01*
X167936419Y-119160604D01*
X167888800Y-119255842D01*
X167841180Y-119303461D01*
X167745942Y-119351080D01*
X167460228Y-119351080D01*
X167364990Y-119303461D01*
X167317371Y-119255842D01*
X135547619Y-117502380D02*
X135547619Y-116502380D01*
X135785714Y-116502380D01*
X135928571Y-116550000D01*
X136023809Y-116645238D01*
X136071428Y-116740476D01*
X136119047Y-116930952D01*
X136119047Y-117073809D01*
X136071428Y-117264285D01*
X136023809Y-117359523D01*
X135928571Y-117454761D01*
X135785714Y-117502380D01*
X135547619Y-117502380D01*
X136547619Y-116978571D02*
X136880952Y-116978571D01*
X137023809Y-117502380D02*
X136547619Y-117502380D01*
X136547619Y-116502380D01*
X137023809Y-116502380D01*
X137309523Y-116502380D02*
X137880952Y-116502380D01*
X137595238Y-117502380D02*
X137595238Y-116502380D01*
X138214285Y-116978571D02*
X138547619Y-116978571D01*
X138690476Y-117502380D02*
X138214285Y-117502380D01*
X138214285Y-116502380D01*
X138690476Y-116502380D01*
X139690476Y-117407142D02*
X139642857Y-117454761D01*
X139500000Y-117502380D01*
X139404761Y-117502380D01*
X139261904Y-117454761D01*
X139166666Y-117359523D01*
X139119047Y-117264285D01*
X139071428Y-117073809D01*
X139071428Y-116930952D01*
X139119047Y-116740476D01*
X139166666Y-116645238D01*
X139261904Y-116550000D01*
X139404761Y-116502380D01*
X139500000Y-116502380D01*
X139642857Y-116550000D01*
X139690476Y-116597619D01*
X139976190Y-116502380D02*
X140547619Y-116502380D01*
X140261904Y-117502380D02*
X140261904Y-116502380D01*
X141071428Y-116502380D02*
X141261904Y-116502380D01*
X141357142Y-116550000D01*
X141452380Y-116645238D01*
X141500000Y-116835714D01*
X141500000Y-117169047D01*
X141452380Y-117359523D01*
X141357142Y-117454761D01*
X141261904Y-117502380D01*
X141071428Y-117502380D01*
X140976190Y-117454761D01*
X140880952Y-117359523D01*
X140833333Y-117169047D01*
X140833333Y-116835714D01*
X140880952Y-116645238D01*
X140976190Y-116550000D01*
X141071428Y-116502380D01*
X142500000Y-117502380D02*
X142166666Y-117026190D01*
X141928571Y-117502380D02*
X141928571Y-116502380D01*
X142309523Y-116502380D01*
X142404761Y-116550000D01*
X142452380Y-116597619D01*
X142500000Y-116692857D01*
X142500000Y-116835714D01*
X142452380Y-116930952D01*
X142404761Y-116978571D01*
X142309523Y-117026190D01*
X141928571Y-117026190D01*
X136071428Y-119157142D02*
X136023809Y-119204761D01*
X135880952Y-119252380D01*
X135785714Y-119252380D01*
X135642857Y-119204761D01*
X135547619Y-119109523D01*
X135500000Y-119014285D01*
X135452380Y-118823809D01*
X135452380Y-118680952D01*
X135500000Y-118490476D01*
X135547619Y-118395238D01*
X135642857Y-118300000D01*
X135785714Y-118252380D01*
X135880952Y-118252380D01*
X136023809Y-118300000D01*
X136071428Y-118347619D01*
X136500000Y-119252380D02*
X136500000Y-118252380D01*
X137547619Y-119252380D02*
X137214285Y-118776190D01*
X136976190Y-119252380D02*
X136976190Y-118252380D01*
X137357142Y-118252380D01*
X137452380Y-118300000D01*
X137500000Y-118347619D01*
X137547619Y-118442857D01*
X137547619Y-118585714D01*
X137500000Y-118680952D01*
X137452380Y-118728571D01*
X137357142Y-118776190D01*
X136976190Y-118776190D01*
X138547619Y-119157142D02*
X138500000Y-119204761D01*
X138357142Y-119252380D01*
X138261904Y-119252380D01*
X138119047Y-119204761D01*
X138023809Y-119109523D01*
X137976190Y-119014285D01*
X137928571Y-118823809D01*
X137928571Y-118680952D01*
X137976190Y-118490476D01*
X138023809Y-118395238D01*
X138119047Y-118300000D01*
X138261904Y-118252380D01*
X138357142Y-118252380D01*
X138500000Y-118300000D01*
X138547619Y-118347619D01*
X138976190Y-118252380D02*
X138976190Y-119061904D01*
X139023809Y-119157142D01*
X139071428Y-119204761D01*
X139166666Y-119252380D01*
X139357142Y-119252380D01*
X139452380Y-119204761D01*
X139500000Y-119157142D01*
X139547619Y-119061904D01*
X139547619Y-118252380D01*
X140023809Y-119252380D02*
X140023809Y-118252380D01*
X140357142Y-118252380D02*
X140928571Y-118252380D01*
X140642857Y-119252380D02*
X140642857Y-118252380D01*
X141976190Y-118347619D02*
X142023809Y-118300000D01*
X142119047Y-118252380D01*
X142357142Y-118252380D01*
X142452380Y-118300000D01*
X142500000Y-118347619D01*
X142547619Y-118442857D01*
X142547619Y-118538095D01*
X142500000Y-118680952D01*
X141928571Y-119252380D01*
X142547619Y-119252380D01*
X109047619Y-117577380D02*
X109047619Y-116577380D01*
X109285714Y-116577380D01*
X109428571Y-116625000D01*
X109523809Y-116720238D01*
X109571428Y-116815476D01*
X109619047Y-117005952D01*
X109619047Y-117148809D01*
X109571428Y-117339285D01*
X109523809Y-117434523D01*
X109428571Y-117529761D01*
X109285714Y-117577380D01*
X109047619Y-117577380D01*
X110047619Y-117053571D02*
X110380952Y-117053571D01*
X110523809Y-117577380D02*
X110047619Y-117577380D01*
X110047619Y-116577380D01*
X110523809Y-116577380D01*
X110809523Y-116577380D02*
X111380952Y-116577380D01*
X111095238Y-117577380D02*
X111095238Y-116577380D01*
X111714285Y-117053571D02*
X112047619Y-117053571D01*
X112190476Y-117577380D02*
X111714285Y-117577380D01*
X111714285Y-116577380D01*
X112190476Y-116577380D01*
X113190476Y-117482142D02*
X113142857Y-117529761D01*
X113000000Y-117577380D01*
X112904761Y-117577380D01*
X112761904Y-117529761D01*
X112666666Y-117434523D01*
X112619047Y-117339285D01*
X112571428Y-117148809D01*
X112571428Y-117005952D01*
X112619047Y-116815476D01*
X112666666Y-116720238D01*
X112761904Y-116625000D01*
X112904761Y-116577380D01*
X113000000Y-116577380D01*
X113142857Y-116625000D01*
X113190476Y-116672619D01*
X113476190Y-116577380D02*
X114047619Y-116577380D01*
X113761904Y-117577380D02*
X113761904Y-116577380D01*
X114571428Y-116577380D02*
X114761904Y-116577380D01*
X114857142Y-116625000D01*
X114952380Y-116720238D01*
X115000000Y-116910714D01*
X115000000Y-117244047D01*
X114952380Y-117434523D01*
X114857142Y-117529761D01*
X114761904Y-117577380D01*
X114571428Y-117577380D01*
X114476190Y-117529761D01*
X114380952Y-117434523D01*
X114333333Y-117244047D01*
X114333333Y-116910714D01*
X114380952Y-116720238D01*
X114476190Y-116625000D01*
X114571428Y-116577380D01*
X116000000Y-117577380D02*
X115666666Y-117101190D01*
X115428571Y-117577380D02*
X115428571Y-116577380D01*
X115809523Y-116577380D01*
X115904761Y-116625000D01*
X115952380Y-116672619D01*
X116000000Y-116767857D01*
X116000000Y-116910714D01*
X115952380Y-117005952D01*
X115904761Y-117053571D01*
X115809523Y-117101190D01*
X115428571Y-117101190D01*
X109571428Y-119232142D02*
X109523809Y-119279761D01*
X109380952Y-119327380D01*
X109285714Y-119327380D01*
X109142857Y-119279761D01*
X109047619Y-119184523D01*
X109000000Y-119089285D01*
X108952380Y-118898809D01*
X108952380Y-118755952D01*
X109000000Y-118565476D01*
X109047619Y-118470238D01*
X109142857Y-118375000D01*
X109285714Y-118327380D01*
X109380952Y-118327380D01*
X109523809Y-118375000D01*
X109571428Y-118422619D01*
X110000000Y-119327380D02*
X110000000Y-118327380D01*
X111047619Y-119327380D02*
X110714285Y-118851190D01*
X110476190Y-119327380D02*
X110476190Y-118327380D01*
X110857142Y-118327380D01*
X110952380Y-118375000D01*
X111000000Y-118422619D01*
X111047619Y-118517857D01*
X111047619Y-118660714D01*
X111000000Y-118755952D01*
X110952380Y-118803571D01*
X110857142Y-118851190D01*
X110476190Y-118851190D01*
X112047619Y-119232142D02*
X112000000Y-119279761D01*
X111857142Y-119327380D01*
X111761904Y-119327380D01*
X111619047Y-119279761D01*
X111523809Y-119184523D01*
X111476190Y-119089285D01*
X111428571Y-118898809D01*
X111428571Y-118755952D01*
X111476190Y-118565476D01*
X111523809Y-118470238D01*
X111619047Y-118375000D01*
X111761904Y-118327380D01*
X111857142Y-118327380D01*
X112000000Y-118375000D01*
X112047619Y-118422619D01*
X112476190Y-118327380D02*
X112476190Y-119136904D01*
X112523809Y-119232142D01*
X112571428Y-119279761D01*
X112666666Y-119327380D01*
X112857142Y-119327380D01*
X112952380Y-119279761D01*
X113000000Y-119232142D01*
X113047619Y-119136904D01*
X113047619Y-118327380D01*
X113523809Y-119327380D02*
X113523809Y-118327380D01*
X113857142Y-118327380D02*
X114428571Y-118327380D01*
X114142857Y-119327380D02*
X114142857Y-118327380D01*
X116047619Y-119327380D02*
X115476190Y-119327380D01*
X115761904Y-119327380D02*
X115761904Y-118327380D01*
X115666666Y-118470238D01*
X115571428Y-118565476D01*
X115476190Y-118613095D01*
D10*
X108000000Y-116000000D02*
X188000000Y-116000000D01*
D12*
X174347619Y-118227380D02*
X174347619Y-117227380D01*
X174728571Y-117227380D01*
X174823809Y-117275000D01*
X174871428Y-117322619D01*
X174919047Y-117417857D01*
X174919047Y-117560714D01*
X174871428Y-117655952D01*
X174823809Y-117703571D01*
X174728571Y-117751190D01*
X174347619Y-117751190D01*
X175347619Y-117703571D02*
X175680952Y-117703571D01*
X175823809Y-118227380D02*
X175347619Y-118227380D01*
X175347619Y-117227380D01*
X175823809Y-117227380D01*
X176204761Y-117941666D02*
X176680952Y-117941666D01*
X176109523Y-118227380D02*
X176442857Y-117227380D01*
X176776190Y-118227380D01*
X177109523Y-118227380D02*
X177109523Y-117227380D01*
X177680952Y-118227380D02*
X177252380Y-117655952D01*
X177680952Y-117227380D02*
X177109523Y-117798809D01*
X177871428Y-118322619D02*
X178633333Y-118322619D01*
X179061904Y-117227380D02*
X179252380Y-117227380D01*
X179347619Y-117275000D01*
X179442857Y-117370238D01*
X179490476Y-117560714D01*
X179490476Y-117894047D01*
X179442857Y-118084523D01*
X179347619Y-118179761D01*
X179252380Y-118227380D01*
X179061904Y-118227380D01*
X178966666Y-118179761D01*
X178871428Y-118084523D01*
X178823809Y-117894047D01*
X178823809Y-117560714D01*
X178871428Y-117370238D01*
X178966666Y-117275000D01*
X179061904Y-117227380D01*
X179919047Y-117227380D02*
X179919047Y-118036904D01*
X179966666Y-118132142D01*
X180014285Y-118179761D01*
X180109523Y-118227380D01*
X180300000Y-118227380D01*
X180395238Y-118179761D01*
X180442857Y-118132142D01*
X180490476Y-118036904D01*
X180490476Y-117227380D01*
X180823809Y-117227380D02*
X181395238Y-117227380D01*
X181109523Y-118227380D02*
X181109523Y-117227380D01*
X153252919Y-117622580D02*
X153252919Y-116622580D01*
X153633871Y-116622580D01*
X153729109Y-116670200D01*
X153776728Y-116717819D01*
X153824347Y-116813057D01*
X153824347Y-116955914D01*
X153776728Y-117051152D01*
X153729109Y-117098771D01*
X153633871Y-117146390D01*
X153252919Y-117146390D01*
X154252919Y-117098771D02*
X154586252Y-117098771D01*
X154729109Y-117622580D02*
X154252919Y-117622580D01*
X154252919Y-116622580D01*
X154729109Y-116622580D01*
X155110061Y-117336866D02*
X155586252Y-117336866D01*
X155014823Y-117622580D02*
X155348157Y-116622580D01*
X155681490Y-117622580D01*
X156014823Y-117622580D02*
X156014823Y-116622580D01*
X156586252Y-117622580D02*
X156157680Y-117051152D01*
X156586252Y-116622580D02*
X156014823Y-117194009D01*
X156776728Y-117717819D02*
X157538633Y-117717819D01*
X157967204Y-116622580D02*
X158157680Y-116622580D01*
X158252919Y-116670200D01*
X158348157Y-116765438D01*
X158395776Y-116955914D01*
X158395776Y-117289247D01*
X158348157Y-117479723D01*
X158252919Y-117574961D01*
X158157680Y-117622580D01*
X157967204Y-117622580D01*
X157871966Y-117574961D01*
X157776728Y-117479723D01*
X157729109Y-117289247D01*
X157729109Y-116955914D01*
X157776728Y-116765438D01*
X157871966Y-116670200D01*
X157967204Y-116622580D01*
X158824347Y-116622580D02*
X158824347Y-117432104D01*
X158871966Y-117527342D01*
X158919585Y-117574961D01*
X159014823Y-117622580D01*
X159205300Y-117622580D01*
X159300538Y-117574961D01*
X159348157Y-117527342D01*
X159395776Y-117432104D01*
X159395776Y-116622580D01*
X159729109Y-116622580D02*
X160300538Y-116622580D01*
X160014823Y-117622580D02*
X160014823Y-116622580D01*
X135295119Y-124645680D02*
X135295119Y-123645680D01*
X135676071Y-123645680D01*
X135771309Y-123693300D01*
X135818928Y-123740919D01*
X135866547Y-123836157D01*
X135866547Y-123979014D01*
X135818928Y-124074252D01*
X135771309Y-124121871D01*
X135676071Y-124169490D01*
X135295119Y-124169490D01*
X136295119Y-124121871D02*
X136628452Y-124121871D01*
X136771309Y-124645680D02*
X136295119Y-124645680D01*
X136295119Y-123645680D01*
X136771309Y-123645680D01*
X137152261Y-124359966D02*
X137628452Y-124359966D01*
X137057023Y-124645680D02*
X137390357Y-123645680D01*
X137723690Y-124645680D01*
X138057023Y-124645680D02*
X138057023Y-123645680D01*
X138628452Y-124645680D02*
X138199880Y-124074252D01*
X138628452Y-123645680D02*
X138057023Y-124217109D01*
X138818928Y-124740919D02*
X139580833Y-124740919D01*
X140009404Y-123645680D02*
X140199880Y-123645680D01*
X140295119Y-123693300D01*
X140390357Y-123788538D01*
X140437976Y-123979014D01*
X140437976Y-124312347D01*
X140390357Y-124502823D01*
X140295119Y-124598061D01*
X140199880Y-124645680D01*
X140009404Y-124645680D01*
X139914166Y-124598061D01*
X139818928Y-124502823D01*
X139771309Y-124312347D01*
X139771309Y-123979014D01*
X139818928Y-123788538D01*
X139914166Y-123693300D01*
X140009404Y-123645680D01*
X140866547Y-123645680D02*
X140866547Y-124455204D01*
X140914166Y-124550442D01*
X140961785Y-124598061D01*
X141057023Y-124645680D01*
X141247500Y-124645680D01*
X141342738Y-124598061D01*
X141390357Y-124550442D01*
X141437976Y-124455204D01*
X141437976Y-123645680D01*
X141771309Y-123645680D02*
X142342738Y-123645680D01*
X142057023Y-124645680D02*
X142057023Y-123645680D01*
D10*
X160500000Y-138425000D02*
X160600000Y-116000000D01*
X134450000Y-152000000D02*
X134500000Y-116000000D01*
D12*
X155826295Y-97759780D02*
X155826295Y-96759780D01*
X156302485Y-97759780D02*
X156302485Y-96759780D01*
X156873914Y-97759780D01*
X156873914Y-96759780D01*
X157207247Y-96759780D02*
X157778676Y-96759780D01*
X157492961Y-97759780D02*
X157492961Y-96759780D01*
X158112009Y-97235971D02*
X158445342Y-97235971D01*
X158588200Y-97759780D02*
X158112009Y-97759780D01*
X158112009Y-96759780D01*
X158588200Y-96759780D01*
X159588200Y-97759780D02*
X159254866Y-97283590D01*
X159016771Y-97759780D02*
X159016771Y-96759780D01*
X159397723Y-96759780D01*
X159492961Y-96807400D01*
X159540580Y-96855019D01*
X159588200Y-96950257D01*
X159588200Y-97093114D01*
X159540580Y-97188352D01*
X159492961Y-97235971D01*
X159397723Y-97283590D01*
X159016771Y-97283590D01*
X160588200Y-97759780D02*
X160254866Y-97283590D01*
X160016771Y-97759780D02*
X160016771Y-96759780D01*
X160397723Y-96759780D01*
X160492961Y-96807400D01*
X160540580Y-96855019D01*
X160588200Y-96950257D01*
X160588200Y-97093114D01*
X160540580Y-97188352D01*
X160492961Y-97235971D01*
X160397723Y-97283590D01*
X160016771Y-97283590D01*
X161016771Y-96759780D02*
X161016771Y-97569304D01*
X161064390Y-97664542D01*
X161112009Y-97712161D01*
X161207247Y-97759780D01*
X161397723Y-97759780D01*
X161492961Y-97712161D01*
X161540580Y-97664542D01*
X161588200Y-97569304D01*
X161588200Y-96759780D01*
X162064390Y-97759780D02*
X162064390Y-96759780D01*
X162445342Y-96759780D01*
X162540580Y-96807400D01*
X162588200Y-96855019D01*
X162635819Y-96950257D01*
X162635819Y-97093114D01*
X162588200Y-97188352D01*
X162540580Y-97235971D01*
X162445342Y-97283590D01*
X162064390Y-97283590D01*
X162921533Y-96759780D02*
X163492961Y-96759780D01*
X163207247Y-97759780D02*
X163207247Y-96759780D01*
X166870476Y-91717142D02*
X166822857Y-91764761D01*
X166680000Y-91812380D01*
X166584761Y-91812380D01*
X166441904Y-91764761D01*
X166346666Y-91669523D01*
X166299047Y-91574285D01*
X166251428Y-91383809D01*
X166251428Y-91240952D01*
X166299047Y-91050476D01*
X166346666Y-90955238D01*
X166441904Y-90860000D01*
X166584761Y-90812380D01*
X166680000Y-90812380D01*
X166822857Y-90860000D01*
X166870476Y-90907619D01*
X167489523Y-90812380D02*
X167680000Y-90812380D01*
X167775238Y-90860000D01*
X167870476Y-90955238D01*
X167918095Y-91145714D01*
X167918095Y-91479047D01*
X167870476Y-91669523D01*
X167775238Y-91764761D01*
X167680000Y-91812380D01*
X167489523Y-91812380D01*
X167394285Y-91764761D01*
X167299047Y-91669523D01*
X167251428Y-91479047D01*
X167251428Y-91145714D01*
X167299047Y-90955238D01*
X167394285Y-90860000D01*
X167489523Y-90812380D01*
X168346666Y-91812380D02*
X168346666Y-90812380D01*
X168680000Y-91526666D01*
X169013333Y-90812380D01*
X169013333Y-91812380D01*
X169489523Y-91812380D02*
X169489523Y-90812380D01*
X169870476Y-90812380D01*
X169965714Y-90860000D01*
X170013333Y-90907619D01*
X170060952Y-91002857D01*
X170060952Y-91145714D01*
X170013333Y-91240952D01*
X169965714Y-91288571D01*
X169870476Y-91336190D01*
X169489523Y-91336190D01*
X171584761Y-91288571D02*
X171727619Y-91336190D01*
X171775238Y-91383809D01*
X171822857Y-91479047D01*
X171822857Y-91621904D01*
X171775238Y-91717142D01*
X171727619Y-91764761D01*
X171632380Y-91812380D01*
X171251428Y-91812380D01*
X171251428Y-90812380D01*
X171584761Y-90812380D01*
X171680000Y-90860000D01*
X171727619Y-90907619D01*
X171775238Y-91002857D01*
X171775238Y-91098095D01*
X171727619Y-91193333D01*
X171680000Y-91240952D01*
X171584761Y-91288571D01*
X171251428Y-91288571D01*
X172251428Y-91812380D02*
X172251428Y-90812380D01*
X172680000Y-91526666D02*
X173156190Y-91526666D01*
X172584761Y-91812380D02*
X172918095Y-90812380D01*
X173251428Y-91812380D01*
X173537142Y-91764761D02*
X173680000Y-91812380D01*
X173918095Y-91812380D01*
X174013333Y-91764761D01*
X174060952Y-91717142D01*
X174108571Y-91621904D01*
X174108571Y-91526666D01*
X174060952Y-91431428D01*
X174013333Y-91383809D01*
X173918095Y-91336190D01*
X173727619Y-91288571D01*
X173632380Y-91240952D01*
X173584761Y-91193333D01*
X173537142Y-91098095D01*
X173537142Y-91002857D01*
X173584761Y-90907619D01*
X173632380Y-90860000D01*
X173727619Y-90812380D01*
X173965714Y-90812380D01*
X174108571Y-90860000D01*
X135290395Y-99639380D02*
X135290395Y-98639380D01*
X135766585Y-99639380D02*
X135766585Y-98639380D01*
X136338014Y-99639380D01*
X136338014Y-98639380D01*
X136671347Y-98639380D02*
X137242776Y-98639380D01*
X136957061Y-99639380D02*
X136957061Y-98639380D01*
X137576109Y-99115571D02*
X137909442Y-99115571D01*
X138052300Y-99639380D02*
X137576109Y-99639380D01*
X137576109Y-98639380D01*
X138052300Y-98639380D01*
X139052300Y-99639380D02*
X138718966Y-99163190D01*
X138480871Y-99639380D02*
X138480871Y-98639380D01*
X138861823Y-98639380D01*
X138957061Y-98687000D01*
X139004680Y-98734619D01*
X139052300Y-98829857D01*
X139052300Y-98972714D01*
X139004680Y-99067952D01*
X138957061Y-99115571D01*
X138861823Y-99163190D01*
X138480871Y-99163190D01*
X140052300Y-99639380D02*
X139718966Y-99163190D01*
X139480871Y-99639380D02*
X139480871Y-98639380D01*
X139861823Y-98639380D01*
X139957061Y-98687000D01*
X140004680Y-98734619D01*
X140052300Y-98829857D01*
X140052300Y-98972714D01*
X140004680Y-99067952D01*
X139957061Y-99115571D01*
X139861823Y-99163190D01*
X139480871Y-99163190D01*
X140480871Y-98639380D02*
X140480871Y-99448904D01*
X140528490Y-99544142D01*
X140576109Y-99591761D01*
X140671347Y-99639380D01*
X140861823Y-99639380D01*
X140957061Y-99591761D01*
X141004680Y-99544142D01*
X141052300Y-99448904D01*
X141052300Y-98639380D01*
X141528490Y-99639380D02*
X141528490Y-98639380D01*
X141909442Y-98639380D01*
X142004680Y-98687000D01*
X142052300Y-98734619D01*
X142099919Y-98829857D01*
X142099919Y-98972714D01*
X142052300Y-99067952D01*
X142004680Y-99115571D01*
X141909442Y-99163190D01*
X141528490Y-99163190D01*
X142385633Y-98639380D02*
X142957061Y-98639380D01*
X142671347Y-99639380D02*
X142671347Y-98639380D01*
X109715476Y-87182142D02*
X109667857Y-87229761D01*
X109525000Y-87277380D01*
X109429761Y-87277380D01*
X109286904Y-87229761D01*
X109191666Y-87134523D01*
X109144047Y-87039285D01*
X109096428Y-86848809D01*
X109096428Y-86705952D01*
X109144047Y-86515476D01*
X109191666Y-86420238D01*
X109286904Y-86325000D01*
X109429761Y-86277380D01*
X109525000Y-86277380D01*
X109667857Y-86325000D01*
X109715476Y-86372619D01*
X110334523Y-86277380D02*
X110525000Y-86277380D01*
X110620238Y-86325000D01*
X110715476Y-86420238D01*
X110763095Y-86610714D01*
X110763095Y-86944047D01*
X110715476Y-87134523D01*
X110620238Y-87229761D01*
X110525000Y-87277380D01*
X110334523Y-87277380D01*
X110239285Y-87229761D01*
X110144047Y-87134523D01*
X110096428Y-86944047D01*
X110096428Y-86610714D01*
X110144047Y-86420238D01*
X110239285Y-86325000D01*
X110334523Y-86277380D01*
X111191666Y-87277380D02*
X111191666Y-86277380D01*
X111525000Y-86991666D01*
X111858333Y-86277380D01*
X111858333Y-87277380D01*
X112334523Y-87277380D02*
X112334523Y-86277380D01*
X112715476Y-86277380D01*
X112810714Y-86325000D01*
X112858333Y-86372619D01*
X112905952Y-86467857D01*
X112905952Y-86610714D01*
X112858333Y-86705952D01*
X112810714Y-86753571D01*
X112715476Y-86801190D01*
X112334523Y-86801190D01*
X114429761Y-86753571D02*
X114572619Y-86801190D01*
X114620238Y-86848809D01*
X114667857Y-86944047D01*
X114667857Y-87086904D01*
X114620238Y-87182142D01*
X114572619Y-87229761D01*
X114477380Y-87277380D01*
X114096428Y-87277380D01*
X114096428Y-86277380D01*
X114429761Y-86277380D01*
X114525000Y-86325000D01*
X114572619Y-86372619D01*
X114620238Y-86467857D01*
X114620238Y-86563095D01*
X114572619Y-86658333D01*
X114525000Y-86705952D01*
X114429761Y-86753571D01*
X114096428Y-86753571D01*
X115096428Y-87277380D02*
X115096428Y-86277380D01*
X115525000Y-86991666D02*
X116001190Y-86991666D01*
X115429761Y-87277380D02*
X115763095Y-86277380D01*
X116096428Y-87277380D01*
X116382142Y-87229761D02*
X116525000Y-87277380D01*
X116763095Y-87277380D01*
X116858333Y-87229761D01*
X116905952Y-87182142D01*
X116953571Y-87086904D01*
X116953571Y-86991666D01*
X116905952Y-86896428D01*
X116858333Y-86848809D01*
X116763095Y-86801190D01*
X116572619Y-86753571D01*
X116477380Y-86705952D01*
X116429761Y-86658333D01*
X116382142Y-86563095D01*
X116382142Y-86467857D01*
X116429761Y-86372619D01*
X116477380Y-86325000D01*
X116572619Y-86277380D01*
X116810714Y-86277380D01*
X116953571Y-86325000D01*
X126428335Y-115689640D02*
X126428335Y-114689640D01*
X126904525Y-115689640D02*
X126904525Y-114689640D01*
X127475954Y-115689640D01*
X127475954Y-114689640D01*
X127809287Y-114689640D02*
X128380716Y-114689640D01*
X128095001Y-115689640D02*
X128095001Y-114689640D01*
X128714049Y-115165831D02*
X129047382Y-115165831D01*
X129190240Y-115689640D02*
X128714049Y-115689640D01*
X128714049Y-114689640D01*
X129190240Y-114689640D01*
X130190240Y-115689640D02*
X129856906Y-115213450D01*
X129618811Y-115689640D02*
X129618811Y-114689640D01*
X129999763Y-114689640D01*
X130095001Y-114737260D01*
X130142620Y-114784879D01*
X130190240Y-114880117D01*
X130190240Y-115022974D01*
X130142620Y-115118212D01*
X130095001Y-115165831D01*
X129999763Y-115213450D01*
X129618811Y-115213450D01*
X131190240Y-115689640D02*
X130856906Y-115213450D01*
X130618811Y-115689640D02*
X130618811Y-114689640D01*
X130999763Y-114689640D01*
X131095001Y-114737260D01*
X131142620Y-114784879D01*
X131190240Y-114880117D01*
X131190240Y-115022974D01*
X131142620Y-115118212D01*
X131095001Y-115165831D01*
X130999763Y-115213450D01*
X130618811Y-115213450D01*
X131618811Y-114689640D02*
X131618811Y-115499164D01*
X131666430Y-115594402D01*
X131714049Y-115642021D01*
X131809287Y-115689640D01*
X131999763Y-115689640D01*
X132095001Y-115642021D01*
X132142620Y-115594402D01*
X132190240Y-115499164D01*
X132190240Y-114689640D01*
X132666430Y-115689640D02*
X132666430Y-114689640D01*
X133047382Y-114689640D01*
X133142620Y-114737260D01*
X133190240Y-114784879D01*
X133237859Y-114880117D01*
X133237859Y-115022974D01*
X133190240Y-115118212D01*
X133142620Y-115165831D01*
X133047382Y-115213450D01*
X132666430Y-115213450D01*
X133523573Y-114689640D02*
X134095001Y-114689640D01*
X133809287Y-115689640D02*
X133809287Y-114689640D01*
X118259956Y-115604562D02*
X118212337Y-115652181D01*
X118069480Y-115699800D01*
X117974241Y-115699800D01*
X117831384Y-115652181D01*
X117736146Y-115556943D01*
X117688527Y-115461705D01*
X117640908Y-115271229D01*
X117640908Y-115128372D01*
X117688527Y-114937896D01*
X117736146Y-114842658D01*
X117831384Y-114747420D01*
X117974241Y-114699800D01*
X118069480Y-114699800D01*
X118212337Y-114747420D01*
X118259956Y-114795039D01*
X118879003Y-114699800D02*
X119069480Y-114699800D01*
X119164718Y-114747420D01*
X119259956Y-114842658D01*
X119307575Y-115033134D01*
X119307575Y-115366467D01*
X119259956Y-115556943D01*
X119164718Y-115652181D01*
X119069480Y-115699800D01*
X118879003Y-115699800D01*
X118783765Y-115652181D01*
X118688527Y-115556943D01*
X118640908Y-115366467D01*
X118640908Y-115033134D01*
X118688527Y-114842658D01*
X118783765Y-114747420D01*
X118879003Y-114699800D01*
X119736146Y-115699800D02*
X119736146Y-114699800D01*
X120069480Y-115414086D01*
X120402813Y-114699800D01*
X120402813Y-115699800D01*
X120879003Y-115699800D02*
X120879003Y-114699800D01*
X121259956Y-114699800D01*
X121355194Y-114747420D01*
X121402813Y-114795039D01*
X121450432Y-114890277D01*
X121450432Y-115033134D01*
X121402813Y-115128372D01*
X121355194Y-115175991D01*
X121259956Y-115223610D01*
X120879003Y-115223610D01*
X122974241Y-115175991D02*
X123117099Y-115223610D01*
X123164718Y-115271229D01*
X123212337Y-115366467D01*
X123212337Y-115509324D01*
X123164718Y-115604562D01*
X123117099Y-115652181D01*
X123021860Y-115699800D01*
X122640908Y-115699800D01*
X122640908Y-114699800D01*
X122974241Y-114699800D01*
X123069480Y-114747420D01*
X123117099Y-114795039D01*
X123164718Y-114890277D01*
X123164718Y-114985515D01*
X123117099Y-115080753D01*
X123069480Y-115128372D01*
X122974241Y-115175991D01*
X122640908Y-115175991D01*
X123640908Y-115699800D02*
X123640908Y-114699800D01*
X124069480Y-115414086D02*
X124545670Y-115414086D01*
X123974241Y-115699800D02*
X124307575Y-114699800D01*
X124640908Y-115699800D01*
X124926622Y-115652181D02*
X125069480Y-115699800D01*
X125307575Y-115699800D01*
X125402813Y-115652181D01*
X125450432Y-115604562D01*
X125498051Y-115509324D01*
X125498051Y-115414086D01*
X125450432Y-115318848D01*
X125402813Y-115271229D01*
X125307575Y-115223610D01*
X125117099Y-115175991D01*
X125021860Y-115128372D01*
X124974241Y-115080753D01*
X124926622Y-114985515D01*
X124926622Y-114890277D01*
X124974241Y-114795039D01*
X125021860Y-114747420D01*
X125117099Y-114699800D01*
X125355194Y-114699800D01*
X125498051Y-114747420D01*
D13*
%TO.C,G\u002A\u002A\u002A*%
G36*
X143915828Y-106215810D02*
G01*
X143937031Y-106250138D01*
X143969466Y-106304988D01*
X144012034Y-106378430D01*
X144063634Y-106468537D01*
X144123166Y-106573380D01*
X144189530Y-106691029D01*
X144261626Y-106819556D01*
X144338352Y-106957033D01*
X144404894Y-107076787D01*
X144484738Y-107220733D01*
X144560795Y-107357789D01*
X144631965Y-107485976D01*
X144697147Y-107603311D01*
X144755238Y-107707816D01*
X144805138Y-107797509D01*
X144845745Y-107870410D01*
X144875959Y-107924539D01*
X144894678Y-107957916D01*
X144900667Y-107968394D01*
X144909114Y-107971201D01*
X144928819Y-107967900D01*
X144961826Y-107957702D01*
X145010180Y-107939817D01*
X145075923Y-107913456D01*
X145161102Y-107877831D01*
X145267760Y-107832152D01*
X145381565Y-107782770D01*
X145488458Y-107736519D01*
X145587265Y-107694396D01*
X145675109Y-107657580D01*
X145749113Y-107627250D01*
X145806398Y-107604585D01*
X145844086Y-107590763D01*
X145859301Y-107586964D01*
X145859399Y-107587034D01*
X145859360Y-107601846D01*
X145856790Y-107642416D01*
X145851859Y-107706798D01*
X145844742Y-107793044D01*
X145835610Y-107899209D01*
X145824635Y-108023346D01*
X145811990Y-108163509D01*
X145797848Y-108317751D01*
X145782380Y-108484127D01*
X145765760Y-108660690D01*
X145748159Y-108845493D01*
X145745212Y-108876226D01*
X145727441Y-109062115D01*
X145710564Y-109240027D01*
X145694758Y-109408020D01*
X145680198Y-109564154D01*
X145667063Y-109706488D01*
X145655528Y-109833082D01*
X145645769Y-109941995D01*
X145637965Y-110031285D01*
X145632291Y-110099013D01*
X145628923Y-110143238D01*
X145628040Y-110162019D01*
X145628145Y-110162538D01*
X145639303Y-110154621D01*
X145669375Y-110129773D01*
X145716513Y-110089605D01*
X145778867Y-110035726D01*
X145854591Y-109969745D01*
X145941835Y-109893272D01*
X146038751Y-109807918D01*
X146143490Y-109715291D01*
X146236122Y-109633079D01*
X146346216Y-109535387D01*
X146450199Y-109443446D01*
X146546200Y-109358890D01*
X146632348Y-109283352D01*
X146706769Y-109218465D01*
X146767594Y-109165861D01*
X146812949Y-109127174D01*
X146840964Y-109104035D01*
X146849706Y-109097809D01*
X146853955Y-109100925D01*
X146860484Y-109111816D01*
X146870198Y-109132795D01*
X146884002Y-109166177D01*
X146902801Y-109214276D01*
X146927501Y-109279404D01*
X146959006Y-109363877D01*
X146998222Y-109470007D01*
X147043506Y-109593166D01*
X147084853Y-109705784D01*
X146966252Y-109842604D01*
X146813232Y-110023611D01*
X146652733Y-110221790D01*
X146487007Y-110433920D01*
X146318306Y-110656782D01*
X146148879Y-110887156D01*
X145980979Y-111121821D01*
X145816857Y-111357558D01*
X145658764Y-111591146D01*
X145508952Y-111819366D01*
X145369672Y-112038997D01*
X145243174Y-112246819D01*
X145131711Y-112439613D01*
X145064384Y-112562873D01*
X144988801Y-112705245D01*
X144942889Y-112638515D01*
X144855367Y-112501790D01*
X144764677Y-112342444D01*
X144672999Y-112165174D01*
X144582514Y-111974674D01*
X144495404Y-111775642D01*
X144413849Y-111572774D01*
X144340031Y-111370765D01*
X144303615Y-111262028D01*
X144237949Y-111047960D01*
X144172222Y-110812794D01*
X144108089Y-110563211D01*
X144047209Y-110305896D01*
X143991237Y-110047531D01*
X143947692Y-109826394D01*
X143908258Y-109615527D01*
X143836607Y-109972531D01*
X143757426Y-110344304D01*
X143674014Y-110690580D01*
X143585620Y-111013476D01*
X143491494Y-111315112D01*
X143390885Y-111597606D01*
X143283043Y-111863077D01*
X143167218Y-112113644D01*
X143042660Y-112351427D01*
X142920537Y-112559377D01*
X142887287Y-112612208D01*
X142858863Y-112655711D01*
X142838714Y-112684711D01*
X142830892Y-112693978D01*
X142820561Y-112685278D01*
X142801331Y-112656679D01*
X142776473Y-112613318D01*
X142761925Y-112585697D01*
X142681030Y-112434968D01*
X142583782Y-112266122D01*
X142472158Y-112081990D01*
X142348132Y-111885403D01*
X142213681Y-111679194D01*
X142070781Y-111466193D01*
X141921408Y-111249232D01*
X141767538Y-111031144D01*
X141611147Y-110814758D01*
X141454211Y-110602908D01*
X141298706Y-110398425D01*
X141146608Y-110204139D01*
X140999893Y-110022884D01*
X140860537Y-109857489D01*
X140847666Y-109842604D01*
X140729065Y-109705784D01*
X140770412Y-109593166D01*
X140817808Y-109464271D01*
X140856631Y-109359236D01*
X140887783Y-109275748D01*
X140912169Y-109211495D01*
X140930693Y-109164164D01*
X140944259Y-109131443D01*
X140953771Y-109111020D01*
X140960133Y-109100582D01*
X140964064Y-109097809D01*
X140976244Y-109106801D01*
X141007327Y-109132689D01*
X141055439Y-109173841D01*
X141118710Y-109228626D01*
X141195267Y-109295411D01*
X141283239Y-109372565D01*
X141380755Y-109458455D01*
X141485942Y-109551451D01*
X141577802Y-109632924D01*
X141687727Y-109730381D01*
X141791373Y-109821924D01*
X141886892Y-109905945D01*
X141972436Y-109980835D01*
X142046156Y-110044983D01*
X142106204Y-110096780D01*
X142150732Y-110134618D01*
X142177890Y-110156887D01*
X142185928Y-110162383D01*
X142185449Y-110148018D01*
X142182459Y-110107887D01*
X142177133Y-110043932D01*
X142169650Y-109958093D01*
X142160186Y-109852309D01*
X142148917Y-109728522D01*
X142136021Y-109588672D01*
X142121675Y-109434699D01*
X142106054Y-109268543D01*
X142089337Y-109092146D01*
X142087177Y-109069517D01*
X143401239Y-109069517D01*
X143406325Y-109071002D01*
X143426776Y-109055940D01*
X143458335Y-109027527D01*
X143462419Y-109023611D01*
X143511655Y-108982626D01*
X143572836Y-108940615D01*
X143628603Y-108908857D01*
X143752824Y-108861687D01*
X143878922Y-108841548D01*
X144004146Y-108848020D01*
X144125743Y-108880685D01*
X144240961Y-108939125D01*
X144340904Y-109017106D01*
X144376523Y-109048838D01*
X144401807Y-109068248D01*
X144412583Y-109072247D01*
X144412361Y-109069973D01*
X144406993Y-109053234D01*
X144394093Y-109012302D01*
X144374407Y-108949562D01*
X144348681Y-108867396D01*
X144317659Y-108768191D01*
X144282088Y-108654328D01*
X144242713Y-108528193D01*
X144200280Y-108392169D01*
X144157759Y-108255781D01*
X144113294Y-108113200D01*
X144071315Y-107978742D01*
X144032546Y-107854722D01*
X143997713Y-107743456D01*
X143967542Y-107647256D01*
X143942760Y-107568438D01*
X143924091Y-107509316D01*
X143912262Y-107472205D01*
X143908008Y-107459424D01*
X143903539Y-107471775D01*
X143891530Y-107508420D01*
X143872703Y-107567072D01*
X143847782Y-107645444D01*
X143817489Y-107741248D01*
X143782548Y-107852199D01*
X143743682Y-107976009D01*
X143701614Y-108110391D01*
X143657166Y-108252739D01*
X143612402Y-108396217D01*
X143569981Y-108532064D01*
X143530647Y-108657901D01*
X143495146Y-108771353D01*
X143464223Y-108870042D01*
X143438622Y-108951590D01*
X143419087Y-109013621D01*
X143406365Y-109053757D01*
X143401239Y-109069517D01*
X142087177Y-109069517D01*
X142071700Y-108907447D01*
X142068706Y-108876226D01*
X142050963Y-108690262D01*
X142034175Y-108512220D01*
X142018514Y-108344045D01*
X142004152Y-108187685D01*
X141991262Y-108045086D01*
X141980016Y-107918195D01*
X141970586Y-107808958D01*
X141963144Y-107719322D01*
X141957862Y-107651233D01*
X141954913Y-107606639D01*
X141954469Y-107587484D01*
X141954646Y-107586907D01*
X141968971Y-107590256D01*
X142005875Y-107603663D01*
X142062472Y-107625948D01*
X142135875Y-107655932D01*
X142223197Y-107692435D01*
X142321550Y-107734277D01*
X142428048Y-107780278D01*
X142430249Y-107781236D01*
X142536771Y-107827540D01*
X142635011Y-107870138D01*
X142722105Y-107907797D01*
X142795192Y-107939284D01*
X142851410Y-107963366D01*
X142887897Y-107978809D01*
X142901790Y-107984382D01*
X142901818Y-107984384D01*
X142909169Y-107972521D01*
X142928919Y-107938206D01*
X142960004Y-107883344D01*
X143001354Y-107809843D01*
X143051904Y-107719612D01*
X143110586Y-107614557D01*
X143176333Y-107496586D01*
X143248079Y-107367607D01*
X143324755Y-107229526D01*
X143399822Y-107094132D01*
X143480297Y-106949212D01*
X143557063Y-106811622D01*
X143629032Y-106683271D01*
X143695116Y-106566072D01*
X143754226Y-106461933D01*
X143805275Y-106372764D01*
X143847174Y-106300476D01*
X143878835Y-106246978D01*
X143899169Y-106214182D01*
X143906959Y-106203933D01*
X143915828Y-106215810D01*
G37*
X143915828Y-106215810D02*
X143937031Y-106250138D01*
X143969466Y-106304988D01*
X144012034Y-106378430D01*
X144063634Y-106468537D01*
X144123166Y-106573380D01*
X144189530Y-106691029D01*
X144261626Y-106819556D01*
X144338352Y-106957033D01*
X144404894Y-107076787D01*
X144484738Y-107220733D01*
X144560795Y-107357789D01*
X144631965Y-107485976D01*
X144697147Y-107603311D01*
X144755238Y-107707816D01*
X144805138Y-107797509D01*
X144845745Y-107870410D01*
X144875959Y-107924539D01*
X144894678Y-107957916D01*
X144900667Y-107968394D01*
X144909114Y-107971201D01*
X144928819Y-107967900D01*
X144961826Y-107957702D01*
X145010180Y-107939817D01*
X145075923Y-107913456D01*
X145161102Y-107877831D01*
X145267760Y-107832152D01*
X145381565Y-107782770D01*
X145488458Y-107736519D01*
X145587265Y-107694396D01*
X145675109Y-107657580D01*
X145749113Y-107627250D01*
X145806398Y-107604585D01*
X145844086Y-107590763D01*
X145859301Y-107586964D01*
X145859399Y-107587034D01*
X145859360Y-107601846D01*
X145856790Y-107642416D01*
X145851859Y-107706798D01*
X145844742Y-107793044D01*
X145835610Y-107899209D01*
X145824635Y-108023346D01*
X145811990Y-108163509D01*
X145797848Y-108317751D01*
X145782380Y-108484127D01*
X145765760Y-108660690D01*
X145748159Y-108845493D01*
X145745212Y-108876226D01*
X145727441Y-109062115D01*
X145710564Y-109240027D01*
X145694758Y-109408020D01*
X145680198Y-109564154D01*
X145667063Y-109706488D01*
X145655528Y-109833082D01*
X145645769Y-109941995D01*
X145637965Y-110031285D01*
X145632291Y-110099013D01*
X145628923Y-110143238D01*
X145628040Y-110162019D01*
X145628145Y-110162538D01*
X145639303Y-110154621D01*
X145669375Y-110129773D01*
X145716513Y-110089605D01*
X145778867Y-110035726D01*
X145854591Y-109969745D01*
X145941835Y-109893272D01*
X146038751Y-109807918D01*
X146143490Y-109715291D01*
X146236122Y-109633079D01*
X146346216Y-109535387D01*
X146450199Y-109443446D01*
X146546200Y-109358890D01*
X146632348Y-109283352D01*
X146706769Y-109218465D01*
X146767594Y-109165861D01*
X146812949Y-109127174D01*
X146840964Y-109104035D01*
X146849706Y-109097809D01*
X146853955Y-109100925D01*
X146860484Y-109111816D01*
X146870198Y-109132795D01*
X146884002Y-109166177D01*
X146902801Y-109214276D01*
X146927501Y-109279404D01*
X146959006Y-109363877D01*
X146998222Y-109470007D01*
X147043506Y-109593166D01*
X147084853Y-109705784D01*
X146966252Y-109842604D01*
X146813232Y-110023611D01*
X146652733Y-110221790D01*
X146487007Y-110433920D01*
X146318306Y-110656782D01*
X146148879Y-110887156D01*
X145980979Y-111121821D01*
X145816857Y-111357558D01*
X145658764Y-111591146D01*
X145508952Y-111819366D01*
X145369672Y-112038997D01*
X145243174Y-112246819D01*
X145131711Y-112439613D01*
X145064384Y-112562873D01*
X144988801Y-112705245D01*
X144942889Y-112638515D01*
X144855367Y-112501790D01*
X144764677Y-112342444D01*
X144672999Y-112165174D01*
X144582514Y-111974674D01*
X144495404Y-111775642D01*
X144413849Y-111572774D01*
X144340031Y-111370765D01*
X144303615Y-111262028D01*
X144237949Y-111047960D01*
X144172222Y-110812794D01*
X144108089Y-110563211D01*
X144047209Y-110305896D01*
X143991237Y-110047531D01*
X143947692Y-109826394D01*
X143908258Y-109615527D01*
X143836607Y-109972531D01*
X143757426Y-110344304D01*
X143674014Y-110690580D01*
X143585620Y-111013476D01*
X143491494Y-111315112D01*
X143390885Y-111597606D01*
X143283043Y-111863077D01*
X143167218Y-112113644D01*
X143042660Y-112351427D01*
X142920537Y-112559377D01*
X142887287Y-112612208D01*
X142858863Y-112655711D01*
X142838714Y-112684711D01*
X142830892Y-112693978D01*
X142820561Y-112685278D01*
X142801331Y-112656679D01*
X142776473Y-112613318D01*
X142761925Y-112585697D01*
X142681030Y-112434968D01*
X142583782Y-112266122D01*
X142472158Y-112081990D01*
X142348132Y-111885403D01*
X142213681Y-111679194D01*
X142070781Y-111466193D01*
X141921408Y-111249232D01*
X141767538Y-111031144D01*
X141611147Y-110814758D01*
X141454211Y-110602908D01*
X141298706Y-110398425D01*
X141146608Y-110204139D01*
X140999893Y-110022884D01*
X140860537Y-109857489D01*
X140847666Y-109842604D01*
X140729065Y-109705784D01*
X140770412Y-109593166D01*
X140817808Y-109464271D01*
X140856631Y-109359236D01*
X140887783Y-109275748D01*
X140912169Y-109211495D01*
X140930693Y-109164164D01*
X140944259Y-109131443D01*
X140953771Y-109111020D01*
X140960133Y-109100582D01*
X140964064Y-109097809D01*
X140976244Y-109106801D01*
X141007327Y-109132689D01*
X141055439Y-109173841D01*
X141118710Y-109228626D01*
X141195267Y-109295411D01*
X141283239Y-109372565D01*
X141380755Y-109458455D01*
X141485942Y-109551451D01*
X141577802Y-109632924D01*
X141687727Y-109730381D01*
X141791373Y-109821924D01*
X141886892Y-109905945D01*
X141972436Y-109980835D01*
X142046156Y-110044983D01*
X142106204Y-110096780D01*
X142150732Y-110134618D01*
X142177890Y-110156887D01*
X142185928Y-110162383D01*
X142185449Y-110148018D01*
X142182459Y-110107887D01*
X142177133Y-110043932D01*
X142169650Y-109958093D01*
X142160186Y-109852309D01*
X142148917Y-109728522D01*
X142136021Y-109588672D01*
X142121675Y-109434699D01*
X142106054Y-109268543D01*
X142089337Y-109092146D01*
X142087177Y-109069517D01*
X143401239Y-109069517D01*
X143406325Y-109071002D01*
X143426776Y-109055940D01*
X143458335Y-109027527D01*
X143462419Y-109023611D01*
X143511655Y-108982626D01*
X143572836Y-108940615D01*
X143628603Y-108908857D01*
X143752824Y-108861687D01*
X143878922Y-108841548D01*
X144004146Y-108848020D01*
X144125743Y-108880685D01*
X144240961Y-108939125D01*
X144340904Y-109017106D01*
X144376523Y-109048838D01*
X144401807Y-109068248D01*
X144412583Y-109072247D01*
X144412361Y-109069973D01*
X144406993Y-109053234D01*
X144394093Y-109012302D01*
X144374407Y-108949562D01*
X144348681Y-108867396D01*
X144317659Y-108768191D01*
X144282088Y-108654328D01*
X144242713Y-108528193D01*
X144200280Y-108392169D01*
X144157759Y-108255781D01*
X144113294Y-108113200D01*
X144071315Y-107978742D01*
X144032546Y-107854722D01*
X143997713Y-107743456D01*
X143967542Y-107647256D01*
X143942760Y-107568438D01*
X143924091Y-107509316D01*
X143912262Y-107472205D01*
X143908008Y-107459424D01*
X143903539Y-107471775D01*
X143891530Y-107508420D01*
X143872703Y-107567072D01*
X143847782Y-107645444D01*
X143817489Y-107741248D01*
X143782548Y-107852199D01*
X143743682Y-107976009D01*
X143701614Y-108110391D01*
X143657166Y-108252739D01*
X143612402Y-108396217D01*
X143569981Y-108532064D01*
X143530647Y-108657901D01*
X143495146Y-108771353D01*
X143464223Y-108870042D01*
X143438622Y-108951590D01*
X143419087Y-109013621D01*
X143406365Y-109053757D01*
X143401239Y-109069517D01*
X142087177Y-109069517D01*
X142071700Y-108907447D01*
X142068706Y-108876226D01*
X142050963Y-108690262D01*
X142034175Y-108512220D01*
X142018514Y-108344045D01*
X142004152Y-108187685D01*
X141991262Y-108045086D01*
X141980016Y-107918195D01*
X141970586Y-107808958D01*
X141963144Y-107719322D01*
X141957862Y-107651233D01*
X141954913Y-107606639D01*
X141954469Y-107587484D01*
X141954646Y-107586907D01*
X141968971Y-107590256D01*
X142005875Y-107603663D01*
X142062472Y-107625948D01*
X142135875Y-107655932D01*
X142223197Y-107692435D01*
X142321550Y-107734277D01*
X142428048Y-107780278D01*
X142430249Y-107781236D01*
X142536771Y-107827540D01*
X142635011Y-107870138D01*
X142722105Y-107907797D01*
X142795192Y-107939284D01*
X142851410Y-107963366D01*
X142887897Y-107978809D01*
X142901790Y-107984382D01*
X142901818Y-107984384D01*
X142909169Y-107972521D01*
X142928919Y-107938206D01*
X142960004Y-107883344D01*
X143001354Y-107809843D01*
X143051904Y-107719612D01*
X143110586Y-107614557D01*
X143176333Y-107496586D01*
X143248079Y-107367607D01*
X143324755Y-107229526D01*
X143399822Y-107094132D01*
X143480297Y-106949212D01*
X143557063Y-106811622D01*
X143629032Y-106683271D01*
X143695116Y-106566072D01*
X143754226Y-106461933D01*
X143805275Y-106372764D01*
X143847174Y-106300476D01*
X143878835Y-106246978D01*
X143899169Y-106214182D01*
X143906959Y-106203933D01*
X143915828Y-106215810D01*
G36*
X139101393Y-109607939D02*
G01*
X139140066Y-109614799D01*
X139200704Y-109626060D01*
X139280638Y-109641210D01*
X139377198Y-109659742D01*
X139487717Y-109681144D01*
X139609524Y-109704909D01*
X139739951Y-109730526D01*
X139742188Y-109730967D01*
X139903354Y-109762947D01*
X140038950Y-109790363D01*
X140150792Y-109813630D01*
X140240695Y-109833159D01*
X140310478Y-109849365D01*
X140361956Y-109862660D01*
X140396947Y-109873457D01*
X140417265Y-109882169D01*
X140422204Y-109885608D01*
X140447147Y-109912453D01*
X140485452Y-109959311D01*
X140534893Y-110023132D01*
X140593247Y-110100866D01*
X140658288Y-110189463D01*
X140727792Y-110285874D01*
X140799533Y-110387048D01*
X140871288Y-110489937D01*
X140940830Y-110591490D01*
X140984546Y-110656467D01*
X141191083Y-110974668D01*
X141393437Y-111303552D01*
X141589308Y-111638858D01*
X141776397Y-111976325D01*
X141952403Y-112311694D01*
X142115026Y-112640703D01*
X142261968Y-112959092D01*
X142389563Y-113259233D01*
X142421732Y-113341260D01*
X142456699Y-113434875D01*
X142492821Y-113535236D01*
X142528460Y-113637498D01*
X142561973Y-113736817D01*
X142591720Y-113828352D01*
X142616060Y-113907258D01*
X142633352Y-113968691D01*
X142640777Y-114000744D01*
X142649293Y-114034030D01*
X142658240Y-114051689D01*
X142660153Y-114052548D01*
X142673508Y-114042468D01*
X142702144Y-114014284D01*
X142743291Y-113971081D01*
X142794176Y-113915946D01*
X142852031Y-113851962D01*
X142914084Y-113782216D01*
X142977564Y-113709793D01*
X143039702Y-113637778D01*
X143097727Y-113569256D01*
X143140098Y-113518079D01*
X143269862Y-113354280D01*
X143389359Y-113192245D01*
X143502834Y-113025624D01*
X143614535Y-112848069D01*
X143728707Y-112653229D01*
X143781623Y-112558942D01*
X143821026Y-112489513D01*
X143856331Y-112430332D01*
X143885240Y-112385010D01*
X143905455Y-112357158D01*
X143914518Y-112350175D01*
X143925052Y-112366292D01*
X143945685Y-112401695D01*
X143973410Y-112451112D01*
X144004356Y-112507672D01*
X144158177Y-112779432D01*
X144314493Y-113029619D01*
X144477420Y-113264450D01*
X144651074Y-113490139D01*
X144672674Y-113516713D01*
X144725561Y-113580421D01*
X144784768Y-113650080D01*
X144847533Y-113722611D01*
X144911090Y-113794936D01*
X144972678Y-113863977D01*
X145029532Y-113926657D01*
X145078889Y-113979896D01*
X145117984Y-114020618D01*
X145144055Y-114045743D01*
X145153765Y-114052548D01*
X145162257Y-114040361D01*
X145171219Y-114010137D01*
X145173141Y-114000744D01*
X145183971Y-113955851D01*
X145203097Y-113889800D01*
X145228879Y-113807434D01*
X145259676Y-113713597D01*
X145293847Y-113613133D01*
X145329751Y-113510886D01*
X145365746Y-113411697D01*
X145400193Y-113320412D01*
X145424355Y-113259233D01*
X145550984Y-112961402D01*
X145695317Y-112648521D01*
X145855035Y-112324883D01*
X146027823Y-111994779D01*
X146211365Y-111662501D01*
X146403344Y-111332342D01*
X146601444Y-111008592D01*
X146803349Y-110695543D01*
X146827990Y-110658501D01*
X146894755Y-110559644D01*
X146965222Y-110457388D01*
X147037169Y-110354778D01*
X147108376Y-110254859D01*
X147176624Y-110160678D01*
X147239690Y-110075278D01*
X147295356Y-110001707D01*
X147341400Y-109943008D01*
X147375603Y-109902228D01*
X147391106Y-109886158D01*
X147405812Y-109878221D01*
X147435581Y-109868132D01*
X147482113Y-109855504D01*
X147547103Y-109839953D01*
X147632248Y-109821094D01*
X147739247Y-109798541D01*
X147869795Y-109771909D01*
X148025590Y-109740813D01*
X148071122Y-109731816D01*
X148201732Y-109706127D01*
X148323767Y-109682273D01*
X148434562Y-109660763D01*
X148531447Y-109642110D01*
X148611755Y-109626824D01*
X148672818Y-109615415D01*
X148711970Y-109608395D01*
X148726541Y-109606274D01*
X148726563Y-109606286D01*
X148723741Y-109619686D01*
X148714714Y-109657291D01*
X148700183Y-109716342D01*
X148680847Y-109794077D01*
X148657407Y-109887738D01*
X148630564Y-109994563D01*
X148601017Y-110111794D01*
X148569466Y-110236668D01*
X148536613Y-110366427D01*
X148503157Y-110498310D01*
X148469798Y-110629557D01*
X148437237Y-110757407D01*
X148406174Y-110879102D01*
X148377310Y-110991880D01*
X148351344Y-111092981D01*
X148328976Y-111179645D01*
X148310908Y-111249113D01*
X148297839Y-111298623D01*
X148290469Y-111325416D01*
X148290151Y-111326481D01*
X148293530Y-111337082D01*
X148310135Y-111353195D01*
X148342117Y-111376232D01*
X148391630Y-111407607D01*
X148460826Y-111448732D01*
X148551858Y-111501021D01*
X148582930Y-111518633D01*
X148665389Y-111565680D01*
X148739168Y-111608570D01*
X148800988Y-111645331D01*
X148847572Y-111673994D01*
X148875641Y-111692588D01*
X148882575Y-111698799D01*
X148871149Y-111707622D01*
X148837818Y-111730694D01*
X148784005Y-111767075D01*
X148711133Y-111815826D01*
X148620623Y-111876007D01*
X148513899Y-111946680D01*
X148392383Y-112026904D01*
X148257497Y-112115740D01*
X148110663Y-112212249D01*
X147953305Y-112315492D01*
X147786845Y-112424528D01*
X147612704Y-112538419D01*
X147477038Y-112627030D01*
X147298018Y-112744004D01*
X147125600Y-112856882D01*
X146961210Y-112964720D01*
X146806271Y-113066575D01*
X146662205Y-113161504D01*
X146530436Y-113248564D01*
X146412387Y-113326813D01*
X146309481Y-113395307D01*
X146223143Y-113453102D01*
X146154795Y-113499257D01*
X146105860Y-113532828D01*
X146077762Y-113552872D01*
X146071218Y-113558466D01*
X146075233Y-113574370D01*
X146086810Y-113613896D01*
X146105054Y-113674145D01*
X146129073Y-113752218D01*
X146157973Y-113845218D01*
X146190860Y-113950245D01*
X146226841Y-114064400D01*
X146239797Y-114105334D01*
X146276373Y-114221683D01*
X146309781Y-114329715D01*
X146339176Y-114426568D01*
X146363716Y-114509382D01*
X146382557Y-114575297D01*
X146394856Y-114621452D01*
X146399770Y-114644987D01*
X146399579Y-114647362D01*
X146384731Y-114647074D01*
X146344222Y-114643633D01*
X146280023Y-114637262D01*
X146194104Y-114628180D01*
X146088433Y-114616609D01*
X145964982Y-114602769D01*
X145825721Y-114586882D01*
X145672618Y-114569167D01*
X145507645Y-114549847D01*
X145332771Y-114529142D01*
X145149966Y-114507273D01*
X145148729Y-114507124D01*
X143906959Y-114357808D01*
X142690636Y-114504411D01*
X142509041Y-114526254D01*
X142334917Y-114547114D01*
X142170308Y-114566748D01*
X142017255Y-114584919D01*
X141877803Y-114601387D01*
X141753994Y-114615911D01*
X141647870Y-114628251D01*
X141561476Y-114638169D01*
X141496854Y-114645423D01*
X141456047Y-114649775D01*
X141441512Y-114651014D01*
X141416314Y-114646837D01*
X141408712Y-114639463D01*
X141412788Y-114624076D01*
X141424416Y-114585068D01*
X141442696Y-114525338D01*
X141466727Y-114447788D01*
X141495611Y-114355316D01*
X141528446Y-114250824D01*
X141564334Y-114137210D01*
X141575726Y-114101261D01*
X141612385Y-113985287D01*
X141646257Y-113877408D01*
X141676441Y-113780546D01*
X141702035Y-113697627D01*
X141722139Y-113631575D01*
X141735851Y-113585316D01*
X141742270Y-113561773D01*
X141742639Y-113559579D01*
X141731197Y-113550202D01*
X141697846Y-113526590D01*
X141644007Y-113489688D01*
X141571106Y-113440439D01*
X141480565Y-113379787D01*
X141373806Y-113308679D01*
X141252253Y-113228056D01*
X141117329Y-113138865D01*
X140970457Y-113042049D01*
X140813060Y-112938552D01*
X140646562Y-112829319D01*
X140472384Y-112715295D01*
X140336941Y-112626790D01*
X140157949Y-112509835D01*
X139985562Y-112397031D01*
X139821203Y-112289315D01*
X139666295Y-112187627D01*
X139522259Y-112092907D01*
X139390517Y-112006094D01*
X139272492Y-111928127D01*
X139169606Y-111859944D01*
X139083282Y-111802487D01*
X139014941Y-111756692D01*
X138966006Y-111723501D01*
X138937899Y-111703852D01*
X138931343Y-111698559D01*
X138942951Y-111689112D01*
X138975593Y-111668074D01*
X139025989Y-111637414D01*
X139090863Y-111599099D01*
X139166936Y-111555097D01*
X139230988Y-111518633D01*
X139328815Y-111462812D01*
X139404177Y-111418567D01*
X139459226Y-111384486D01*
X139496114Y-111359155D01*
X139516994Y-111341163D01*
X139524020Y-111329095D01*
X139523767Y-111326481D01*
X139516832Y-111301447D01*
X139504147Y-111253491D01*
X139486413Y-111185374D01*
X139464330Y-111099855D01*
X139438598Y-110999697D01*
X139409918Y-110887658D01*
X139378989Y-110766500D01*
X139346512Y-110638983D01*
X139313186Y-110507868D01*
X139279713Y-110375914D01*
X139246792Y-110245882D01*
X139215124Y-110120534D01*
X139185409Y-110002628D01*
X139158346Y-109894926D01*
X139134637Y-109800188D01*
X139114981Y-109721175D01*
X139100079Y-109660647D01*
X139090630Y-109621364D01*
X139087335Y-109606087D01*
X139087354Y-109605987D01*
X139101393Y-109607939D01*
G37*
X139101393Y-109607939D02*
X139140066Y-109614799D01*
X139200704Y-109626060D01*
X139280638Y-109641210D01*
X139377198Y-109659742D01*
X139487717Y-109681144D01*
X139609524Y-109704909D01*
X139739951Y-109730526D01*
X139742188Y-109730967D01*
X139903354Y-109762947D01*
X140038950Y-109790363D01*
X140150792Y-109813630D01*
X140240695Y-109833159D01*
X140310478Y-109849365D01*
X140361956Y-109862660D01*
X140396947Y-109873457D01*
X140417265Y-109882169D01*
X140422204Y-109885608D01*
X140447147Y-109912453D01*
X140485452Y-109959311D01*
X140534893Y-110023132D01*
X140593247Y-110100866D01*
X140658288Y-110189463D01*
X140727792Y-110285874D01*
X140799533Y-110387048D01*
X140871288Y-110489937D01*
X140940830Y-110591490D01*
X140984546Y-110656467D01*
X141191083Y-110974668D01*
X141393437Y-111303552D01*
X141589308Y-111638858D01*
X141776397Y-111976325D01*
X141952403Y-112311694D01*
X142115026Y-112640703D01*
X142261968Y-112959092D01*
X142389563Y-113259233D01*
X142421732Y-113341260D01*
X142456699Y-113434875D01*
X142492821Y-113535236D01*
X142528460Y-113637498D01*
X142561973Y-113736817D01*
X142591720Y-113828352D01*
X142616060Y-113907258D01*
X142633352Y-113968691D01*
X142640777Y-114000744D01*
X142649293Y-114034030D01*
X142658240Y-114051689D01*
X142660153Y-114052548D01*
X142673508Y-114042468D01*
X142702144Y-114014284D01*
X142743291Y-113971081D01*
X142794176Y-113915946D01*
X142852031Y-113851962D01*
X142914084Y-113782216D01*
X142977564Y-113709793D01*
X143039702Y-113637778D01*
X143097727Y-113569256D01*
X143140098Y-113518079D01*
X143269862Y-113354280D01*
X143389359Y-113192245D01*
X143502834Y-113025624D01*
X143614535Y-112848069D01*
X143728707Y-112653229D01*
X143781623Y-112558942D01*
X143821026Y-112489513D01*
X143856331Y-112430332D01*
X143885240Y-112385010D01*
X143905455Y-112357158D01*
X143914518Y-112350175D01*
X143925052Y-112366292D01*
X143945685Y-112401695D01*
X143973410Y-112451112D01*
X144004356Y-112507672D01*
X144158177Y-112779432D01*
X144314493Y-113029619D01*
X144477420Y-113264450D01*
X144651074Y-113490139D01*
X144672674Y-113516713D01*
X144725561Y-113580421D01*
X144784768Y-113650080D01*
X144847533Y-113722611D01*
X144911090Y-113794936D01*
X144972678Y-113863977D01*
X145029532Y-113926657D01*
X145078889Y-113979896D01*
X145117984Y-114020618D01*
X145144055Y-114045743D01*
X145153765Y-114052548D01*
X145162257Y-114040361D01*
X145171219Y-114010137D01*
X145173141Y-114000744D01*
X145183971Y-113955851D01*
X145203097Y-113889800D01*
X145228879Y-113807434D01*
X145259676Y-113713597D01*
X145293847Y-113613133D01*
X145329751Y-113510886D01*
X145365746Y-113411697D01*
X145400193Y-113320412D01*
X145424355Y-113259233D01*
X145550984Y-112961402D01*
X145695317Y-112648521D01*
X145855035Y-112324883D01*
X146027823Y-111994779D01*
X146211365Y-111662501D01*
X146403344Y-111332342D01*
X146601444Y-111008592D01*
X146803349Y-110695543D01*
X146827990Y-110658501D01*
X146894755Y-110559644D01*
X146965222Y-110457388D01*
X147037169Y-110354778D01*
X147108376Y-110254859D01*
X147176624Y-110160678D01*
X147239690Y-110075278D01*
X147295356Y-110001707D01*
X147341400Y-109943008D01*
X147375603Y-109902228D01*
X147391106Y-109886158D01*
X147405812Y-109878221D01*
X147435581Y-109868132D01*
X147482113Y-109855504D01*
X147547103Y-109839953D01*
X147632248Y-109821094D01*
X147739247Y-109798541D01*
X147869795Y-109771909D01*
X148025590Y-109740813D01*
X148071122Y-109731816D01*
X148201732Y-109706127D01*
X148323767Y-109682273D01*
X148434562Y-109660763D01*
X148531447Y-109642110D01*
X148611755Y-109626824D01*
X148672818Y-109615415D01*
X148711970Y-109608395D01*
X148726541Y-109606274D01*
X148726563Y-109606286D01*
X148723741Y-109619686D01*
X148714714Y-109657291D01*
X148700183Y-109716342D01*
X148680847Y-109794077D01*
X148657407Y-109887738D01*
X148630564Y-109994563D01*
X148601017Y-110111794D01*
X148569466Y-110236668D01*
X148536613Y-110366427D01*
X148503157Y-110498310D01*
X148469798Y-110629557D01*
X148437237Y-110757407D01*
X148406174Y-110879102D01*
X148377310Y-110991880D01*
X148351344Y-111092981D01*
X148328976Y-111179645D01*
X148310908Y-111249113D01*
X148297839Y-111298623D01*
X148290469Y-111325416D01*
X148290151Y-111326481D01*
X148293530Y-111337082D01*
X148310135Y-111353195D01*
X148342117Y-111376232D01*
X148391630Y-111407607D01*
X148460826Y-111448732D01*
X148551858Y-111501021D01*
X148582930Y-111518633D01*
X148665389Y-111565680D01*
X148739168Y-111608570D01*
X148800988Y-111645331D01*
X148847572Y-111673994D01*
X148875641Y-111692588D01*
X148882575Y-111698799D01*
X148871149Y-111707622D01*
X148837818Y-111730694D01*
X148784005Y-111767075D01*
X148711133Y-111815826D01*
X148620623Y-111876007D01*
X148513899Y-111946680D01*
X148392383Y-112026904D01*
X148257497Y-112115740D01*
X148110663Y-112212249D01*
X147953305Y-112315492D01*
X147786845Y-112424528D01*
X147612704Y-112538419D01*
X147477038Y-112627030D01*
X147298018Y-112744004D01*
X147125600Y-112856882D01*
X146961210Y-112964720D01*
X146806271Y-113066575D01*
X146662205Y-113161504D01*
X146530436Y-113248564D01*
X146412387Y-113326813D01*
X146309481Y-113395307D01*
X146223143Y-113453102D01*
X146154795Y-113499257D01*
X146105860Y-113532828D01*
X146077762Y-113552872D01*
X146071218Y-113558466D01*
X146075233Y-113574370D01*
X146086810Y-113613896D01*
X146105054Y-113674145D01*
X146129073Y-113752218D01*
X146157973Y-113845218D01*
X146190860Y-113950245D01*
X146226841Y-114064400D01*
X146239797Y-114105334D01*
X146276373Y-114221683D01*
X146309781Y-114329715D01*
X146339176Y-114426568D01*
X146363716Y-114509382D01*
X146382557Y-114575297D01*
X146394856Y-114621452D01*
X146399770Y-114644987D01*
X146399579Y-114647362D01*
X146384731Y-114647074D01*
X146344222Y-114643633D01*
X146280023Y-114637262D01*
X146194104Y-114628180D01*
X146088433Y-114616609D01*
X145964982Y-114602769D01*
X145825721Y-114586882D01*
X145672618Y-114569167D01*
X145507645Y-114549847D01*
X145332771Y-114529142D01*
X145149966Y-114507273D01*
X145148729Y-114507124D01*
X143906959Y-114357808D01*
X142690636Y-114504411D01*
X142509041Y-114526254D01*
X142334917Y-114547114D01*
X142170308Y-114566748D01*
X142017255Y-114584919D01*
X141877803Y-114601387D01*
X141753994Y-114615911D01*
X141647870Y-114628251D01*
X141561476Y-114638169D01*
X141496854Y-114645423D01*
X141456047Y-114649775D01*
X141441512Y-114651014D01*
X141416314Y-114646837D01*
X141408712Y-114639463D01*
X141412788Y-114624076D01*
X141424416Y-114585068D01*
X141442696Y-114525338D01*
X141466727Y-114447788D01*
X141495611Y-114355316D01*
X141528446Y-114250824D01*
X141564334Y-114137210D01*
X141575726Y-114101261D01*
X141612385Y-113985287D01*
X141646257Y-113877408D01*
X141676441Y-113780546D01*
X141702035Y-113697627D01*
X141722139Y-113631575D01*
X141735851Y-113585316D01*
X141742270Y-113561773D01*
X141742639Y-113559579D01*
X141731197Y-113550202D01*
X141697846Y-113526590D01*
X141644007Y-113489688D01*
X141571106Y-113440439D01*
X141480565Y-113379787D01*
X141373806Y-113308679D01*
X141252253Y-113228056D01*
X141117329Y-113138865D01*
X140970457Y-113042049D01*
X140813060Y-112938552D01*
X140646562Y-112829319D01*
X140472384Y-112715295D01*
X140336941Y-112626790D01*
X140157949Y-112509835D01*
X139985562Y-112397031D01*
X139821203Y-112289315D01*
X139666295Y-112187627D01*
X139522259Y-112092907D01*
X139390517Y-112006094D01*
X139272492Y-111928127D01*
X139169606Y-111859944D01*
X139083282Y-111802487D01*
X139014941Y-111756692D01*
X138966006Y-111723501D01*
X138937899Y-111703852D01*
X138931343Y-111698559D01*
X138942951Y-111689112D01*
X138975593Y-111668074D01*
X139025989Y-111637414D01*
X139090863Y-111599099D01*
X139166936Y-111555097D01*
X139230988Y-111518633D01*
X139328815Y-111462812D01*
X139404177Y-111418567D01*
X139459226Y-111384486D01*
X139496114Y-111359155D01*
X139516994Y-111341163D01*
X139524020Y-111329095D01*
X139523767Y-111326481D01*
X139516832Y-111301447D01*
X139504147Y-111253491D01*
X139486413Y-111185374D01*
X139464330Y-111099855D01*
X139438598Y-110999697D01*
X139409918Y-110887658D01*
X139378989Y-110766500D01*
X139346512Y-110638983D01*
X139313186Y-110507868D01*
X139279713Y-110375914D01*
X139246792Y-110245882D01*
X139215124Y-110120534D01*
X139185409Y-110002628D01*
X139158346Y-109894926D01*
X139134637Y-109800188D01*
X139114981Y-109721175D01*
X139100079Y-109660647D01*
X139090630Y-109621364D01*
X139087335Y-109606087D01*
X139087354Y-109605987D01*
X139101393Y-109607939D01*
D14*
%TO.C,U11*%
X122590000Y-106930000D02*
X124240000Y-106930000D01*
X124240000Y-106930000D02*
X124240000Y-96650000D01*
X124240000Y-96650000D02*
X118940000Y-96650000D01*
X118940000Y-96650000D02*
X118940000Y-106930000D01*
X118940000Y-106930000D02*
X120590000Y-106930000D01*
X120590000Y-106930000D02*
G75*
G02*
X122590000Y-106930000I1000000J0D01*
G01*
%TO.C,R28*%
X133161252Y-93590000D02*
X132638748Y-93590000D01*
X133161252Y-95010000D02*
X132638748Y-95010000D01*
%TO.C,R27*%
X165338748Y-96510000D02*
X165861252Y-96510000D01*
X165338748Y-95090000D02*
X165861252Y-95090000D01*
%TO.C,R26*%
X134385000Y-104311252D02*
X134385000Y-103788748D01*
X132965000Y-104311252D02*
X132965000Y-103788748D01*
%TO.C,U5*%
X135816200Y-85695600D02*
X135816200Y-89555600D01*
X135816200Y-89555600D02*
X136461200Y-89555600D01*
X135816200Y-85695600D02*
X135816200Y-81835600D01*
X135816200Y-81835600D02*
X136461200Y-81835600D01*
X154736200Y-85695600D02*
X154736200Y-89555600D01*
X154736200Y-89555600D02*
X154091200Y-89555600D01*
X154736200Y-85695600D02*
X154736200Y-81835600D01*
X154736200Y-81835600D02*
X154091200Y-81835600D01*
X154091200Y-81835600D02*
X154091200Y-79995600D01*
%TO.C,U9*%
X175079040Y-122843260D02*
X172154040Y-122843260D01*
X175079040Y-122843260D02*
X176579040Y-122843260D01*
X175079040Y-126063260D02*
X173579040Y-126063260D01*
X175079040Y-126063260D02*
X176579040Y-126063260D01*
%TO.C,U8*%
X171612500Y-132915000D02*
X168687500Y-132915000D01*
X171612500Y-132915000D02*
X173112500Y-132915000D01*
X171612500Y-136135000D02*
X170112500Y-136135000D01*
X171612500Y-136135000D02*
X173112500Y-136135000D01*
%TO.C,TP6*%
X170818500Y-116462500D02*
X172148500Y-116462500D01*
X170818500Y-117792500D02*
X170818500Y-116462500D01*
X170818500Y-119062500D02*
X173478500Y-119062500D01*
X173478500Y-119062500D02*
X173478500Y-119122500D01*
X170818500Y-119062500D02*
X170818500Y-119122500D01*
X170818500Y-119122500D02*
X173478500Y-119122500D01*
%TO.C,TP3*%
X156920000Y-143395000D02*
X158250000Y-143395000D01*
X156920000Y-144725000D02*
X156920000Y-143395000D01*
X156920000Y-145995000D02*
X159580000Y-145995000D01*
X159580000Y-145995000D02*
X159580000Y-146055000D01*
X156920000Y-145995000D02*
X156920000Y-146055000D01*
X156920000Y-146055000D02*
X159580000Y-146055000D01*
%TO.C,R25*%
X168099040Y-127692008D02*
X168099040Y-128214512D01*
X169519040Y-127692008D02*
X169519040Y-128214512D01*
%TO.C,R24*%
X176565620Y-134731968D02*
X176565620Y-135254472D01*
X177985620Y-134731968D02*
X177985620Y-135254472D01*
%TO.C,R23*%
X178614000Y-139946748D02*
X178614000Y-140469252D01*
X180034000Y-139946748D02*
X180034000Y-140469252D01*
%TO.C,R21*%
X170210000Y-145295252D02*
X170210000Y-144772748D01*
X168790000Y-145295252D02*
X168790000Y-144772748D01*
%TO.C,R20*%
X161798000Y-135596748D02*
X161798000Y-136119252D01*
X163218000Y-135596748D02*
X163218000Y-136119252D01*
%TO.C,R3*%
X124761252Y-143290000D02*
X124238748Y-143290000D01*
X124761252Y-144710000D02*
X124238748Y-144710000D01*
%TO.C,JP5*%
X157320000Y-141180000D02*
X157320000Y-139850000D01*
X158650000Y-141180000D02*
X157320000Y-141180000D01*
X159920000Y-141180000D02*
X159920000Y-138520000D01*
X159920000Y-138520000D02*
X162520000Y-138520000D01*
X159920000Y-141180000D02*
X162520000Y-141180000D01*
X162520000Y-141180000D02*
X162520000Y-138520000D01*
%TO.C,JP2*%
X137780000Y-131480000D02*
X136450000Y-131480000D01*
X137780000Y-130150000D02*
X137780000Y-131480000D01*
X137780000Y-128880000D02*
X135120000Y-128880000D01*
X135120000Y-128880000D02*
X135120000Y-126280000D01*
X137780000Y-128880000D02*
X137780000Y-126280000D01*
X137780000Y-126280000D02*
X135120000Y-126280000D01*
%TO.C,D6*%
X165929040Y-121103260D02*
X169079040Y-121103260D01*
X165929040Y-122803260D02*
X169079040Y-122803260D01*
X165929040Y-121103260D02*
X165929040Y-122803260D01*
%TO.C,C20*%
X154335000Y-148886252D02*
X154335000Y-148363748D01*
X152915000Y-148886252D02*
X152915000Y-148363748D01*
%TO.C,C18*%
X139790000Y-135721748D02*
X139790000Y-136244252D01*
X141210000Y-135721748D02*
X141210000Y-136244252D01*
%TO.C,C17*%
X129792252Y-122060000D02*
X129269748Y-122060000D01*
X129792252Y-120640000D02*
X129269748Y-120640000D01*
%TO.C,C16*%
X119167744Y-129933147D02*
X119167744Y-130455651D01*
X120587744Y-129933147D02*
X120587744Y-130455651D01*
%TO.C,C15*%
X120559125Y-138096839D02*
X120036621Y-138096839D01*
X120559125Y-139516839D02*
X120036621Y-139516839D01*
%TO.C,C8*%
X119011252Y-143290000D02*
X118488748Y-143290000D01*
X119011252Y-144710000D02*
X118488748Y-144710000D01*
%TO.C,Y1*%
X145980000Y-77525000D02*
X139580000Y-77525000D01*
X145980000Y-72475000D02*
X139580000Y-72475000D01*
X139580000Y-72475000D02*
G75*
G03*
X139580000Y-77525000I0J-2525000D01*
G01*
X145980000Y-72475000D02*
G75*
G02*
X145980000Y-77525000I0J-2525000D01*
G01*
%TO.C,U12*%
X170835000Y-97020000D02*
X169185000Y-97020000D01*
X169185000Y-97020000D02*
X169185000Y-107300000D01*
X169185000Y-107300000D02*
X174485000Y-107300000D01*
X174485000Y-107300000D02*
X174485000Y-97020000D01*
X174485000Y-97020000D02*
X172835000Y-97020000D01*
X172835000Y-97020000D02*
G75*
G02*
X170835000Y-97020000I-1000000J0D01*
G01*
%TO.C,U10*%
X117195000Y-79875000D02*
X117195000Y-81825000D01*
X117195000Y-79875000D02*
X117195000Y-77925000D01*
X122315000Y-79875000D02*
X122315000Y-81825000D01*
X122315000Y-79875000D02*
X122315000Y-76425000D01*
%TO.C,U7*%
X154000000Y-126610000D02*
X155500000Y-126610000D01*
X154000000Y-126610000D02*
X152500000Y-126610000D01*
X154000000Y-123390000D02*
X155500000Y-123390000D01*
X154000000Y-123390000D02*
X151075000Y-123390000D01*
%TO.C,U6*%
X146700000Y-136210000D02*
X148200000Y-136210000D01*
X146700000Y-136210000D02*
X145200000Y-136210000D01*
X146700000Y-132990000D02*
X148200000Y-132990000D01*
X146700000Y-132990000D02*
X143775000Y-132990000D01*
%TO.C,U4*%
X128387500Y-123865000D02*
X125462500Y-123865000D01*
X128387500Y-123865000D02*
X129887500Y-123865000D01*
X128387500Y-127085000D02*
X126887500Y-127085000D01*
X128387500Y-127085000D02*
X129887500Y-127085000D01*
%TO.C,U3*%
X169517040Y-81843480D02*
X167757040Y-81843480D01*
X167757040Y-84913480D02*
X170187040Y-84913480D01*
%TO.C,U2*%
X180554840Y-80064280D02*
X180554840Y-81864280D01*
X183774840Y-81864280D02*
X183774840Y-79414280D01*
%TO.C,U1*%
X121412500Y-132890000D02*
X118487500Y-132890000D01*
X121412500Y-132890000D02*
X122912500Y-132890000D01*
X121412500Y-136110000D02*
X119912500Y-136110000D01*
X121412500Y-136110000D02*
X122912500Y-136110000D01*
%TO.C,TP12*%
X160020000Y-96255000D02*
X162680000Y-96255000D01*
X160020000Y-96195000D02*
X160020000Y-96255000D01*
X162680000Y-96195000D02*
X162680000Y-96255000D01*
X160020000Y-96195000D02*
X162680000Y-96195000D01*
X160020000Y-94925000D02*
X160020000Y-93595000D01*
X160020000Y-93595000D02*
X161350000Y-93595000D01*
%TO.C,TP11*%
X134680000Y-97730000D02*
X132020000Y-97730000D01*
X134680000Y-97790000D02*
X134680000Y-97730000D01*
X132020000Y-97790000D02*
X132020000Y-97730000D01*
X134680000Y-97790000D02*
X132020000Y-97790000D01*
X134680000Y-99060000D02*
X134680000Y-100390000D01*
X134680000Y-100390000D02*
X133350000Y-100390000D01*
%TO.C,TP10*%
X131553260Y-109965180D02*
X128893260Y-109965180D01*
X131553260Y-110025180D02*
X131553260Y-109965180D01*
X128893260Y-110025180D02*
X128893260Y-109965180D01*
X131553260Y-110025180D02*
X128893260Y-110025180D01*
X131553260Y-111295180D02*
X131553260Y-112625180D01*
X131553260Y-112625180D02*
X130223260Y-112625180D01*
%TO.C,TP9*%
X168605000Y-95175000D02*
X171265000Y-95175000D01*
X168605000Y-95115000D02*
X168605000Y-95175000D01*
X171265000Y-95115000D02*
X171265000Y-95175000D01*
X168605000Y-95115000D02*
X171265000Y-95115000D01*
X168605000Y-93845000D02*
X168605000Y-92515000D01*
X168605000Y-92515000D02*
X169935000Y-92515000D01*
%TO.C,TP8*%
X113471000Y-88078000D02*
X110811000Y-88078000D01*
X113471000Y-88138000D02*
X113471000Y-88078000D01*
X110811000Y-88138000D02*
X110811000Y-88078000D01*
X113471000Y-88138000D02*
X110811000Y-88138000D01*
X113471000Y-89408000D02*
X113471000Y-90738000D01*
X113471000Y-90738000D02*
X112141000Y-90738000D01*
%TO.C,TP7*%
X123520000Y-109960000D02*
X120860000Y-109960000D01*
X123520000Y-110020000D02*
X123520000Y-109960000D01*
X120860000Y-110020000D02*
X120860000Y-109960000D01*
X123520000Y-110020000D02*
X120860000Y-110020000D01*
X123520000Y-111290000D02*
X123520000Y-112620000D01*
X123520000Y-112620000D02*
X122190000Y-112620000D01*
%TO.C,TP5*%
X182820000Y-142046000D02*
X185480000Y-142046000D01*
X182820000Y-141986000D02*
X182820000Y-142046000D01*
X185480000Y-141986000D02*
X185480000Y-142046000D01*
X182820000Y-141986000D02*
X185480000Y-141986000D01*
X182820000Y-140716000D02*
X182820000Y-139386000D01*
X182820000Y-139386000D02*
X184150000Y-139386000D01*
%TO.C,TP4*%
X157928000Y-122467680D02*
X160588000Y-122467680D01*
X157928000Y-122407680D02*
X157928000Y-122467680D01*
X160588000Y-122407680D02*
X160588000Y-122467680D01*
X157928000Y-122407680D02*
X160588000Y-122407680D01*
X157928000Y-121137680D02*
X157928000Y-119807680D01*
X157928000Y-119807680D02*
X159258000Y-119807680D01*
%TO.C,TP2*%
X134920000Y-120620000D02*
X136250000Y-120620000D01*
X134920000Y-121950000D02*
X134920000Y-120620000D01*
X134920000Y-123220000D02*
X137580000Y-123220000D01*
X137580000Y-123220000D02*
X137580000Y-123280000D01*
X134920000Y-123220000D02*
X134920000Y-123280000D01*
X134920000Y-123280000D02*
X137580000Y-123280000D01*
%TO.C,TP1*%
X130770000Y-146320000D02*
X132100000Y-146320000D01*
X130770000Y-147650000D02*
X130770000Y-146320000D01*
X130770000Y-148920000D02*
X133430000Y-148920000D01*
X133430000Y-148920000D02*
X133430000Y-148980000D01*
X130770000Y-148920000D02*
X130770000Y-148980000D01*
X130770000Y-148980000D02*
X133430000Y-148980000D01*
%TO.C,R37*%
X164822500Y-105805848D02*
X164822500Y-106328352D01*
X163402500Y-105805848D02*
X163402500Y-106328352D01*
%TO.C,R36*%
X164847900Y-100932748D02*
X164847900Y-101455252D01*
X163427900Y-100932748D02*
X163427900Y-101455252D01*
%TO.C,R35*%
X114069200Y-96646152D02*
X114069200Y-96123648D01*
X115489200Y-96646152D02*
X115489200Y-96123648D01*
%TO.C,R34*%
X114069200Y-102411252D02*
X114069200Y-101888748D01*
X115489200Y-102411252D02*
X115489200Y-101888748D01*
%TO.C,R33*%
X128084500Y-98298152D02*
X128084500Y-97775648D01*
X129504500Y-98298152D02*
X129504500Y-97775648D01*
%TO.C,R32*%
X128109900Y-103327352D02*
X128109900Y-102804848D01*
X129529900Y-103327352D02*
X129529900Y-102804848D01*
%TO.C,R22*%
X174423140Y-144808308D02*
X174423140Y-145330812D01*
X173003140Y-144808308D02*
X173003140Y-145330812D01*
%TO.C,R19*%
X148710000Y-128475748D02*
X148710000Y-128998252D01*
X147290000Y-128475748D02*
X147290000Y-128998252D01*
%TO.C,R18*%
X152602000Y-137152748D02*
X152602000Y-137675252D01*
X151182000Y-137152748D02*
X151182000Y-137675252D01*
%TO.C,R17*%
X153213748Y-140190000D02*
X153736252Y-140190000D01*
X153213748Y-141610000D02*
X153736252Y-141610000D01*
%TO.C,R16*%
X150886252Y-145435000D02*
X150363748Y-145435000D01*
X150886252Y-144015000D02*
X150363748Y-144015000D01*
%TO.C,R15*%
X148335000Y-148513748D02*
X148335000Y-149036252D01*
X146915000Y-148513748D02*
X146915000Y-149036252D01*
%TO.C,R14*%
X137464000Y-135546748D02*
X137464000Y-136069252D01*
X136044000Y-135546748D02*
X136044000Y-136069252D01*
%TO.C,R13*%
X122240000Y-129863748D02*
X122240000Y-130386252D01*
X123660000Y-129863748D02*
X123660000Y-130386252D01*
%TO.C,R12*%
X126490000Y-136038748D02*
X126490000Y-136561252D01*
X127910000Y-136038748D02*
X127910000Y-136561252D01*
%TO.C,R11*%
X128690000Y-140688748D02*
X128690000Y-141211252D01*
X130110000Y-140688748D02*
X130110000Y-141211252D01*
%TO.C,R10*%
X156746252Y-73407000D02*
X156223748Y-73407000D01*
X156746252Y-71987000D02*
X156223748Y-71987000D01*
%TO.C,R9*%
X146187800Y-95326348D02*
X146187800Y-95848852D01*
X144767800Y-95326348D02*
X144767800Y-95848852D01*
%TO.C,R8*%
X162374840Y-81755532D02*
X162374840Y-81233028D01*
X163794840Y-81755532D02*
X163794840Y-81233028D01*
%TO.C,R7*%
X162414840Y-87065532D02*
X162414840Y-86543028D01*
X163834840Y-87065532D02*
X163834840Y-86543028D01*
%TO.C,R6*%
X158884252Y-77037000D02*
X158361748Y-77037000D01*
X158884252Y-75617000D02*
X158361748Y-75617000D01*
%TO.C,R5*%
X153122000Y-95529548D02*
X153122000Y-96052052D01*
X151702000Y-95529548D02*
X151702000Y-96052052D01*
%TO.C,R4*%
X149667600Y-95427948D02*
X149667600Y-95950452D01*
X148247600Y-95427948D02*
X148247600Y-95950452D01*
%TO.C,R2*%
X120940000Y-148213748D02*
X120940000Y-148736252D01*
X122360000Y-148213748D02*
X122360000Y-148736252D01*
%TO.C,R1*%
X111390000Y-136136748D02*
X111390000Y-136659252D01*
X112810000Y-136136748D02*
X112810000Y-136659252D01*
%TO.C,JP6*%
X172480000Y-128230000D02*
X172480000Y-130890000D01*
X175080000Y-128230000D02*
X172480000Y-128230000D01*
X175080000Y-130890000D02*
X172480000Y-130890000D01*
X175080000Y-128230000D02*
X175080000Y-130890000D01*
X176350000Y-128230000D02*
X177680000Y-128230000D01*
X177680000Y-128230000D02*
X177680000Y-129560000D01*
%TO.C,JP4*%
X160506720Y-132764840D02*
X159176720Y-132764840D01*
X160506720Y-131434840D02*
X160506720Y-132764840D01*
X160506720Y-130164840D02*
X157846720Y-130164840D01*
X157846720Y-130164840D02*
X157846720Y-127564840D01*
X160506720Y-130164840D02*
X160506720Y-127564840D01*
X160506720Y-127564840D02*
X157846720Y-127564840D01*
%TO.C,JP3*%
X141020000Y-142730000D02*
X141020000Y-140070000D01*
X138420000Y-142730000D02*
X141020000Y-142730000D01*
X138420000Y-140070000D02*
X141020000Y-140070000D01*
X138420000Y-142730000D02*
X138420000Y-140070000D01*
X137150000Y-142730000D02*
X135820000Y-142730000D01*
X135820000Y-142730000D02*
X135820000Y-141400000D01*
%TO.C,JP1*%
X110320000Y-142730000D02*
X110320000Y-141400000D01*
X111650000Y-142730000D02*
X110320000Y-142730000D01*
X112920000Y-142730000D02*
X112920000Y-140070000D01*
X112920000Y-140070000D02*
X115520000Y-140070000D01*
X112920000Y-142730000D02*
X115520000Y-142730000D01*
X115520000Y-142730000D02*
X115520000Y-140070000D01*
%TO.C,J7*%
X184454840Y-85044280D02*
X181794840Y-85044280D01*
X184454840Y-90184280D02*
X184454840Y-85044280D01*
X181794840Y-90184280D02*
X181794840Y-85044280D01*
X184454840Y-90184280D02*
X181794840Y-90184280D01*
X184454840Y-91454280D02*
X184454840Y-92784280D01*
X184454840Y-92784280D02*
X183124840Y-92784280D01*
%TO.C,F3*%
X178388588Y-85038980D02*
X178911092Y-85038980D01*
X178388588Y-86458980D02*
X178911092Y-86458980D01*
%TO.C,F1*%
X178363588Y-88747380D02*
X178886092Y-88747380D01*
X178363588Y-90167380D02*
X178886092Y-90167380D01*
%TO.C,D5*%
X144342800Y-99421100D02*
X144342800Y-103481100D01*
X144342800Y-103481100D02*
X146612800Y-103481100D01*
X146612800Y-103481100D02*
X146612800Y-99421100D01*
%TO.C,D4*%
X151277000Y-99395700D02*
X151277000Y-103455700D01*
X151277000Y-103455700D02*
X153547000Y-103455700D01*
X153547000Y-103455700D02*
X153547000Y-99395700D01*
%TO.C,D3*%
X147822600Y-99421100D02*
X147822600Y-103481100D01*
X147822600Y-103481100D02*
X150092600Y-103481100D01*
X150092600Y-103481100D02*
X150092600Y-99421100D01*
%TO.C,D2*%
X144350000Y-121150000D02*
X144350000Y-122850000D01*
X144350000Y-122850000D02*
X147500000Y-122850000D01*
X144350000Y-121150000D02*
X147500000Y-121150000D01*
%TO.C,D1*%
X118600000Y-122500000D02*
X121750000Y-122500000D01*
X118600000Y-124200000D02*
X121750000Y-124200000D01*
X118600000Y-122500000D02*
X118600000Y-124200000D01*
%TO.C,C31*%
X174923072Y-95669680D02*
X174400568Y-95669680D01*
X174923072Y-94249680D02*
X174400568Y-94249680D01*
%TO.C,C30*%
X118513748Y-107570000D02*
X119036252Y-107570000D01*
X118513748Y-108990000D02*
X119036252Y-108990000D01*
%TO.C,C29*%
X176393292Y-121067260D02*
X175870788Y-121067260D01*
X176393292Y-119647260D02*
X175870788Y-119647260D01*
%TO.C,C28*%
X166019040Y-127767008D02*
X166019040Y-128289512D01*
X164599040Y-127767008D02*
X164599040Y-128289512D01*
%TO.C,C27*%
X170805434Y-139147678D02*
X170282930Y-139147678D01*
X170805434Y-137727678D02*
X170282930Y-137727678D01*
%TO.C,C26*%
X175771540Y-146908152D02*
X175771540Y-146385648D01*
X177191540Y-146908152D02*
X177191540Y-146385648D01*
%TO.C,C25*%
X166481845Y-149208235D02*
X165959341Y-149208235D01*
X166481845Y-147788235D02*
X165959341Y-147788235D01*
%TO.C,C24*%
X166718000Y-135571748D02*
X166718000Y-136094252D01*
X165298000Y-135571748D02*
X165298000Y-136094252D01*
%TO.C,C23*%
X155339572Y-121512400D02*
X154817068Y-121512400D01*
X155339572Y-120092400D02*
X154817068Y-120092400D01*
%TO.C,C22*%
X145210000Y-128500748D02*
X145210000Y-129023252D01*
X143790000Y-128500748D02*
X143790000Y-129023252D01*
%TO.C,C21*%
X145879670Y-139568501D02*
X145357166Y-139568501D01*
X145879670Y-138148501D02*
X145357166Y-138148501D01*
%TO.C,C19*%
X144911252Y-144040000D02*
X144388748Y-144040000D01*
X144911252Y-145460000D02*
X144388748Y-145460000D01*
%TO.C,C14*%
X119626748Y-73458000D02*
X120149252Y-73458000D01*
X119626748Y-74878000D02*
X120149252Y-74878000D01*
%TO.C,C13*%
X119789308Y-85302020D02*
X120311812Y-85302020D01*
X119789308Y-86722020D02*
X120311812Y-86722020D01*
%TO.C,C12*%
X128860000Y-147786252D02*
X128860000Y-147263748D01*
X127440000Y-147786252D02*
X127440000Y-147263748D01*
%TO.C,C11*%
X113296800Y-80957252D02*
X113296800Y-80434748D01*
X114716800Y-80957252D02*
X114716800Y-80434748D01*
%TO.C,C10*%
X140834252Y-70952000D02*
X140311748Y-70952000D01*
X140834252Y-69532000D02*
X140311748Y-69532000D01*
%TO.C,C9*%
X145037748Y-69557200D02*
X145560252Y-69557200D01*
X145037748Y-70977200D02*
X145560252Y-70977200D01*
%TO.C,C7*%
X114640000Y-135738748D02*
X114640000Y-136261252D01*
X116060000Y-135738748D02*
X116060000Y-136261252D01*
%TO.C,C6*%
X167257388Y-86569280D02*
X167779892Y-86569280D01*
X167257388Y-87989280D02*
X167779892Y-87989280D01*
%TO.C,C5*%
X184904840Y-81245532D02*
X184904840Y-80723028D01*
X186324840Y-81245532D02*
X186324840Y-80723028D01*
%TO.C,C4*%
X177529840Y-81275532D02*
X177529840Y-80753028D01*
X178949840Y-81275532D02*
X178949840Y-80753028D01*
%TO.C,C3*%
X152746252Y-77049600D02*
X152223748Y-77049600D01*
X152746252Y-75629600D02*
X152223748Y-75629600D01*
%TO.C,C2*%
X182364840Y-76385532D02*
X182364840Y-75863028D01*
X183784840Y-76385532D02*
X183784840Y-75863028D01*
%TO.C,C1*%
X173345440Y-84105532D02*
X173345440Y-83583028D01*
X174765440Y-84105532D02*
X174765440Y-83583028D01*
%TO.C,U11*%
D10*
X122811904Y-107392380D02*
X122811904Y-108201904D01*
X122859523Y-108297142D01*
X122907142Y-108344761D01*
X123002380Y-108392380D01*
X123192857Y-108392380D01*
X123288095Y-108344761D01*
X123335714Y-108297142D01*
X123383333Y-108201904D01*
X123383333Y-107392380D01*
X124383333Y-108392380D02*
X123811904Y-108392380D01*
X124097619Y-108392380D02*
X124097619Y-107392380D01*
X124002380Y-107535238D01*
X123907142Y-107630476D01*
X123811904Y-107678095D01*
X125335714Y-108392380D02*
X124764285Y-108392380D01*
X125050000Y-108392380D02*
X125050000Y-107392380D01*
X124954761Y-107535238D01*
X124859523Y-107630476D01*
X124764285Y-107678095D01*
%TO.C,R28*%
X135711962Y-94826080D02*
X135378629Y-94349890D01*
X135140534Y-94826080D02*
X135140534Y-93826080D01*
X135521486Y-93826080D01*
X135616724Y-93873700D01*
X135664343Y-93921319D01*
X135711962Y-94016557D01*
X135711962Y-94159414D01*
X135664343Y-94254652D01*
X135616724Y-94302271D01*
X135521486Y-94349890D01*
X135140534Y-94349890D01*
X136092915Y-93921319D02*
X136140534Y-93873700D01*
X136235772Y-93826080D01*
X136473867Y-93826080D01*
X136569105Y-93873700D01*
X136616724Y-93921319D01*
X136664343Y-94016557D01*
X136664343Y-94111795D01*
X136616724Y-94254652D01*
X136045296Y-94826080D01*
X136664343Y-94826080D01*
X137235772Y-94254652D02*
X137140534Y-94207033D01*
X137092915Y-94159414D01*
X137045296Y-94064176D01*
X137045296Y-94016557D01*
X137092915Y-93921319D01*
X137140534Y-93873700D01*
X137235772Y-93826080D01*
X137426248Y-93826080D01*
X137521486Y-93873700D01*
X137569105Y-93921319D01*
X137616724Y-94016557D01*
X137616724Y-94064176D01*
X137569105Y-94159414D01*
X137521486Y-94207033D01*
X137426248Y-94254652D01*
X137235772Y-94254652D01*
X137140534Y-94302271D01*
X137092915Y-94349890D01*
X137045296Y-94445128D01*
X137045296Y-94635604D01*
X137092915Y-94730842D01*
X137140534Y-94778461D01*
X137235772Y-94826080D01*
X137426248Y-94826080D01*
X137521486Y-94778461D01*
X137569105Y-94730842D01*
X137616724Y-94635604D01*
X137616724Y-94445128D01*
X137569105Y-94349890D01*
X137521486Y-94302271D01*
X137426248Y-94254652D01*
%TO.C,R27*%
X164957142Y-94602380D02*
X164623809Y-94126190D01*
X164385714Y-94602380D02*
X164385714Y-93602380D01*
X164766666Y-93602380D01*
X164861904Y-93650000D01*
X164909523Y-93697619D01*
X164957142Y-93792857D01*
X164957142Y-93935714D01*
X164909523Y-94030952D01*
X164861904Y-94078571D01*
X164766666Y-94126190D01*
X164385714Y-94126190D01*
X165338095Y-93697619D02*
X165385714Y-93650000D01*
X165480952Y-93602380D01*
X165719047Y-93602380D01*
X165814285Y-93650000D01*
X165861904Y-93697619D01*
X165909523Y-93792857D01*
X165909523Y-93888095D01*
X165861904Y-94030952D01*
X165290476Y-94602380D01*
X165909523Y-94602380D01*
X166242857Y-93602380D02*
X166909523Y-93602380D01*
X166480952Y-94602380D01*
%TO.C,R26*%
X133057142Y-107127380D02*
X132723809Y-106651190D01*
X132485714Y-107127380D02*
X132485714Y-106127380D01*
X132866666Y-106127380D01*
X132961904Y-106175000D01*
X133009523Y-106222619D01*
X133057142Y-106317857D01*
X133057142Y-106460714D01*
X133009523Y-106555952D01*
X132961904Y-106603571D01*
X132866666Y-106651190D01*
X132485714Y-106651190D01*
X133438095Y-106222619D02*
X133485714Y-106175000D01*
X133580952Y-106127380D01*
X133819047Y-106127380D01*
X133914285Y-106175000D01*
X133961904Y-106222619D01*
X134009523Y-106317857D01*
X134009523Y-106413095D01*
X133961904Y-106555952D01*
X133390476Y-107127380D01*
X134009523Y-107127380D01*
X134866666Y-106127380D02*
X134676190Y-106127380D01*
X134580952Y-106175000D01*
X134533333Y-106222619D01*
X134438095Y-106365476D01*
X134390476Y-106555952D01*
X134390476Y-106936904D01*
X134438095Y-107032142D01*
X134485714Y-107079761D01*
X134580952Y-107127380D01*
X134771428Y-107127380D01*
X134866666Y-107079761D01*
X134914285Y-107032142D01*
X134961904Y-106936904D01*
X134961904Y-106698809D01*
X134914285Y-106603571D01*
X134866666Y-106555952D01*
X134771428Y-106508333D01*
X134580952Y-106508333D01*
X134485714Y-106555952D01*
X134438095Y-106603571D01*
X134390476Y-106698809D01*
%TO.C,U5*%
X155113095Y-84977380D02*
X155113095Y-85786904D01*
X155160714Y-85882142D01*
X155208333Y-85929761D01*
X155303571Y-85977380D01*
X155494047Y-85977380D01*
X155589285Y-85929761D01*
X155636904Y-85882142D01*
X155684523Y-85786904D01*
X155684523Y-84977380D01*
X156636904Y-84977380D02*
X156160714Y-84977380D01*
X156113095Y-85453571D01*
X156160714Y-85405952D01*
X156255952Y-85358333D01*
X156494047Y-85358333D01*
X156589285Y-85405952D01*
X156636904Y-85453571D01*
X156684523Y-85548809D01*
X156684523Y-85786904D01*
X156636904Y-85882142D01*
X156589285Y-85929761D01*
X156494047Y-85977380D01*
X156255952Y-85977380D01*
X156160714Y-85929761D01*
X156113095Y-85882142D01*
%TO.C,U9*%
X174317135Y-121455640D02*
X174317135Y-122265164D01*
X174364754Y-122360402D01*
X174412373Y-122408021D01*
X174507611Y-122455640D01*
X174698087Y-122455640D01*
X174793325Y-122408021D01*
X174840944Y-122360402D01*
X174888563Y-122265164D01*
X174888563Y-121455640D01*
X175412373Y-122455640D02*
X175602849Y-122455640D01*
X175698087Y-122408021D01*
X175745706Y-122360402D01*
X175840944Y-122217545D01*
X175888563Y-122027069D01*
X175888563Y-121646117D01*
X175840944Y-121550879D01*
X175793325Y-121503260D01*
X175698087Y-121455640D01*
X175507611Y-121455640D01*
X175412373Y-121503260D01*
X175364754Y-121550879D01*
X175317135Y-121646117D01*
X175317135Y-121884212D01*
X175364754Y-121979450D01*
X175412373Y-122027069D01*
X175507611Y-122074688D01*
X175698087Y-122074688D01*
X175793325Y-122027069D01*
X175840944Y-121979450D01*
X175888563Y-121884212D01*
%TO.C,U8*%
X168963095Y-131552380D02*
X168963095Y-132361904D01*
X169010714Y-132457142D01*
X169058333Y-132504761D01*
X169153571Y-132552380D01*
X169344047Y-132552380D01*
X169439285Y-132504761D01*
X169486904Y-132457142D01*
X169534523Y-132361904D01*
X169534523Y-131552380D01*
X170153571Y-131980952D02*
X170058333Y-131933333D01*
X170010714Y-131885714D01*
X169963095Y-131790476D01*
X169963095Y-131742857D01*
X170010714Y-131647619D01*
X170058333Y-131600000D01*
X170153571Y-131552380D01*
X170344047Y-131552380D01*
X170439285Y-131600000D01*
X170486904Y-131647619D01*
X170534523Y-131742857D01*
X170534523Y-131790476D01*
X170486904Y-131885714D01*
X170439285Y-131933333D01*
X170344047Y-131980952D01*
X170153571Y-131980952D01*
X170058333Y-132028571D01*
X170010714Y-132076190D01*
X169963095Y-132171428D01*
X169963095Y-132361904D01*
X170010714Y-132457142D01*
X170058333Y-132504761D01*
X170153571Y-132552380D01*
X170344047Y-132552380D01*
X170439285Y-132504761D01*
X170486904Y-132457142D01*
X170534523Y-132361904D01*
X170534523Y-132171428D01*
X170486904Y-132076190D01*
X170439285Y-132028571D01*
X170344047Y-131980952D01*
%TO.C,TP6*%
X170913095Y-119827380D02*
X171484523Y-119827380D01*
X171198809Y-120827380D02*
X171198809Y-119827380D01*
X171817857Y-120827380D02*
X171817857Y-119827380D01*
X172198809Y-119827380D01*
X172294047Y-119875000D01*
X172341666Y-119922619D01*
X172389285Y-120017857D01*
X172389285Y-120160714D01*
X172341666Y-120255952D01*
X172294047Y-120303571D01*
X172198809Y-120351190D01*
X171817857Y-120351190D01*
X173246428Y-119827380D02*
X173055952Y-119827380D01*
X172960714Y-119875000D01*
X172913095Y-119922619D01*
X172817857Y-120065476D01*
X172770238Y-120255952D01*
X172770238Y-120636904D01*
X172817857Y-120732142D01*
X172865476Y-120779761D01*
X172960714Y-120827380D01*
X173151190Y-120827380D01*
X173246428Y-120779761D01*
X173294047Y-120732142D01*
X173341666Y-120636904D01*
X173341666Y-120398809D01*
X173294047Y-120303571D01*
X173246428Y-120255952D01*
X173151190Y-120208333D01*
X172960714Y-120208333D01*
X172865476Y-120255952D01*
X172817857Y-120303571D01*
X172770238Y-120398809D01*
%TO.C,TP3*%
X156963095Y-141752380D02*
X157534523Y-141752380D01*
X157248809Y-142752380D02*
X157248809Y-141752380D01*
X157867857Y-142752380D02*
X157867857Y-141752380D01*
X158248809Y-141752380D01*
X158344047Y-141800000D01*
X158391666Y-141847619D01*
X158439285Y-141942857D01*
X158439285Y-142085714D01*
X158391666Y-142180952D01*
X158344047Y-142228571D01*
X158248809Y-142276190D01*
X157867857Y-142276190D01*
X158772619Y-141752380D02*
X159391666Y-141752380D01*
X159058333Y-142133333D01*
X159201190Y-142133333D01*
X159296428Y-142180952D01*
X159344047Y-142228571D01*
X159391666Y-142323809D01*
X159391666Y-142561904D01*
X159344047Y-142657142D01*
X159296428Y-142704761D01*
X159201190Y-142752380D01*
X158915476Y-142752380D01*
X158820238Y-142704761D01*
X158772619Y-142657142D01*
%TO.C,R25*%
X168166182Y-125905640D02*
X167832849Y-125429450D01*
X167594754Y-125905640D02*
X167594754Y-124905640D01*
X167975706Y-124905640D01*
X168070944Y-124953260D01*
X168118563Y-125000879D01*
X168166182Y-125096117D01*
X168166182Y-125238974D01*
X168118563Y-125334212D01*
X168070944Y-125381831D01*
X167975706Y-125429450D01*
X167594754Y-125429450D01*
X168547135Y-125000879D02*
X168594754Y-124953260D01*
X168689992Y-124905640D01*
X168928087Y-124905640D01*
X169023325Y-124953260D01*
X169070944Y-125000879D01*
X169118563Y-125096117D01*
X169118563Y-125191355D01*
X169070944Y-125334212D01*
X168499516Y-125905640D01*
X169118563Y-125905640D01*
X170023325Y-124905640D02*
X169547135Y-124905640D01*
X169499516Y-125381831D01*
X169547135Y-125334212D01*
X169642373Y-125286593D01*
X169880468Y-125286593D01*
X169975706Y-125334212D01*
X170023325Y-125381831D01*
X170070944Y-125477069D01*
X170070944Y-125715164D01*
X170023325Y-125810402D01*
X169975706Y-125858021D01*
X169880468Y-125905640D01*
X169642373Y-125905640D01*
X169547135Y-125858021D01*
X169499516Y-125810402D01*
%TO.C,R24*%
X176632762Y-132920600D02*
X176299429Y-132444410D01*
X176061334Y-132920600D02*
X176061334Y-131920600D01*
X176442286Y-131920600D01*
X176537524Y-131968220D01*
X176585143Y-132015839D01*
X176632762Y-132111077D01*
X176632762Y-132253934D01*
X176585143Y-132349172D01*
X176537524Y-132396791D01*
X176442286Y-132444410D01*
X176061334Y-132444410D01*
X177013715Y-132015839D02*
X177061334Y-131968220D01*
X177156572Y-131920600D01*
X177394667Y-131920600D01*
X177489905Y-131968220D01*
X177537524Y-132015839D01*
X177585143Y-132111077D01*
X177585143Y-132206315D01*
X177537524Y-132349172D01*
X176966096Y-132920600D01*
X177585143Y-132920600D01*
X178442286Y-132253934D02*
X178442286Y-132920600D01*
X178204191Y-131872981D02*
X177966096Y-132587267D01*
X178585143Y-132587267D01*
%TO.C,R23*%
X178681142Y-138185380D02*
X178347809Y-137709190D01*
X178109714Y-138185380D02*
X178109714Y-137185380D01*
X178490666Y-137185380D01*
X178585904Y-137233000D01*
X178633523Y-137280619D01*
X178681142Y-137375857D01*
X178681142Y-137518714D01*
X178633523Y-137613952D01*
X178585904Y-137661571D01*
X178490666Y-137709190D01*
X178109714Y-137709190D01*
X179062095Y-137280619D02*
X179109714Y-137233000D01*
X179204952Y-137185380D01*
X179443047Y-137185380D01*
X179538285Y-137233000D01*
X179585904Y-137280619D01*
X179633523Y-137375857D01*
X179633523Y-137471095D01*
X179585904Y-137613952D01*
X179014476Y-138185380D01*
X179633523Y-138185380D01*
X179966857Y-137185380D02*
X180585904Y-137185380D01*
X180252571Y-137566333D01*
X180395428Y-137566333D01*
X180490666Y-137613952D01*
X180538285Y-137661571D01*
X180585904Y-137756809D01*
X180585904Y-137994904D01*
X180538285Y-138090142D01*
X180490666Y-138137761D01*
X180395428Y-138185380D01*
X180109714Y-138185380D01*
X180014476Y-138137761D01*
X179966857Y-138090142D01*
%TO.C,R21*%
X168857142Y-142986380D02*
X168523809Y-142510190D01*
X168285714Y-142986380D02*
X168285714Y-141986380D01*
X168666666Y-141986380D01*
X168761904Y-142034000D01*
X168809523Y-142081619D01*
X168857142Y-142176857D01*
X168857142Y-142319714D01*
X168809523Y-142414952D01*
X168761904Y-142462571D01*
X168666666Y-142510190D01*
X168285714Y-142510190D01*
X169238095Y-142081619D02*
X169285714Y-142034000D01*
X169380952Y-141986380D01*
X169619047Y-141986380D01*
X169714285Y-142034000D01*
X169761904Y-142081619D01*
X169809523Y-142176857D01*
X169809523Y-142272095D01*
X169761904Y-142414952D01*
X169190476Y-142986380D01*
X169809523Y-142986380D01*
X170761904Y-142986380D02*
X170190476Y-142986380D01*
X170476190Y-142986380D02*
X170476190Y-141986380D01*
X170380952Y-142129238D01*
X170285714Y-142224476D01*
X170190476Y-142272095D01*
%TO.C,R20*%
X161865142Y-133310380D02*
X161531809Y-132834190D01*
X161293714Y-133310380D02*
X161293714Y-132310380D01*
X161674666Y-132310380D01*
X161769904Y-132358000D01*
X161817523Y-132405619D01*
X161865142Y-132500857D01*
X161865142Y-132643714D01*
X161817523Y-132738952D01*
X161769904Y-132786571D01*
X161674666Y-132834190D01*
X161293714Y-132834190D01*
X162246095Y-132405619D02*
X162293714Y-132358000D01*
X162388952Y-132310380D01*
X162627047Y-132310380D01*
X162722285Y-132358000D01*
X162769904Y-132405619D01*
X162817523Y-132500857D01*
X162817523Y-132596095D01*
X162769904Y-132738952D01*
X162198476Y-133310380D01*
X162817523Y-133310380D01*
X163436571Y-132310380D02*
X163531809Y-132310380D01*
X163627047Y-132358000D01*
X163674666Y-132405619D01*
X163722285Y-132500857D01*
X163769904Y-132691333D01*
X163769904Y-132929428D01*
X163722285Y-133119904D01*
X163674666Y-133215142D01*
X163627047Y-133262761D01*
X163531809Y-133310380D01*
X163436571Y-133310380D01*
X163341333Y-133262761D01*
X163293714Y-133215142D01*
X163246095Y-133119904D01*
X163198476Y-132929428D01*
X163198476Y-132691333D01*
X163246095Y-132500857D01*
X163293714Y-132405619D01*
X163341333Y-132358000D01*
X163436571Y-132310380D01*
%TO.C,R3*%
X124333333Y-142902380D02*
X124000000Y-142426190D01*
X123761904Y-142902380D02*
X123761904Y-141902380D01*
X124142857Y-141902380D01*
X124238095Y-141950000D01*
X124285714Y-141997619D01*
X124333333Y-142092857D01*
X124333333Y-142235714D01*
X124285714Y-142330952D01*
X124238095Y-142378571D01*
X124142857Y-142426190D01*
X123761904Y-142426190D01*
X124666666Y-141902380D02*
X125285714Y-141902380D01*
X124952380Y-142283333D01*
X125095238Y-142283333D01*
X125190476Y-142330952D01*
X125238095Y-142378571D01*
X125285714Y-142473809D01*
X125285714Y-142711904D01*
X125238095Y-142807142D01*
X125190476Y-142854761D01*
X125095238Y-142902380D01*
X124809523Y-142902380D01*
X124714285Y-142854761D01*
X124666666Y-142807142D01*
%TO.C,JP5*%
X157841666Y-136827380D02*
X157841666Y-137541666D01*
X157794047Y-137684523D01*
X157698809Y-137779761D01*
X157555952Y-137827380D01*
X157460714Y-137827380D01*
X158317857Y-137827380D02*
X158317857Y-136827380D01*
X158698809Y-136827380D01*
X158794047Y-136875000D01*
X158841666Y-136922619D01*
X158889285Y-137017857D01*
X158889285Y-137160714D01*
X158841666Y-137255952D01*
X158794047Y-137303571D01*
X158698809Y-137351190D01*
X158317857Y-137351190D01*
X159794047Y-136827380D02*
X159317857Y-136827380D01*
X159270238Y-137303571D01*
X159317857Y-137255952D01*
X159413095Y-137208333D01*
X159651190Y-137208333D01*
X159746428Y-137255952D01*
X159794047Y-137303571D01*
X159841666Y-137398809D01*
X159841666Y-137636904D01*
X159794047Y-137732142D01*
X159746428Y-137779761D01*
X159651190Y-137827380D01*
X159413095Y-137827380D01*
X159317857Y-137779761D01*
X159270238Y-137732142D01*
%TO.C,JP2*%
X132116666Y-128727380D02*
X132116666Y-129441666D01*
X132069047Y-129584523D01*
X131973809Y-129679761D01*
X131830952Y-129727380D01*
X131735714Y-129727380D01*
X132592857Y-129727380D02*
X132592857Y-128727380D01*
X132973809Y-128727380D01*
X133069047Y-128775000D01*
X133116666Y-128822619D01*
X133164285Y-128917857D01*
X133164285Y-129060714D01*
X133116666Y-129155952D01*
X133069047Y-129203571D01*
X132973809Y-129251190D01*
X132592857Y-129251190D01*
X133545238Y-128822619D02*
X133592857Y-128775000D01*
X133688095Y-128727380D01*
X133926190Y-128727380D01*
X134021428Y-128775000D01*
X134069047Y-128822619D01*
X134116666Y-128917857D01*
X134116666Y-129013095D01*
X134069047Y-129155952D01*
X133497619Y-129727380D01*
X134116666Y-129727380D01*
%TO.C,D6*%
X167120344Y-120769640D02*
X167120344Y-119769640D01*
X167358440Y-119769640D01*
X167501297Y-119817260D01*
X167596535Y-119912498D01*
X167644154Y-120007736D01*
X167691773Y-120198212D01*
X167691773Y-120341069D01*
X167644154Y-120531545D01*
X167596535Y-120626783D01*
X167501297Y-120722021D01*
X167358440Y-120769640D01*
X167120344Y-120769640D01*
X168548916Y-119769640D02*
X168358440Y-119769640D01*
X168263201Y-119817260D01*
X168215582Y-119864879D01*
X168120344Y-120007736D01*
X168072725Y-120198212D01*
X168072725Y-120579164D01*
X168120344Y-120674402D01*
X168167963Y-120722021D01*
X168263201Y-120769640D01*
X168453678Y-120769640D01*
X168548916Y-120722021D01*
X168596535Y-120674402D01*
X168644154Y-120579164D01*
X168644154Y-120341069D01*
X168596535Y-120245831D01*
X168548916Y-120198212D01*
X168453678Y-120150593D01*
X168263201Y-120150593D01*
X168167963Y-120198212D01*
X168120344Y-120245831D01*
X168072725Y-120341069D01*
%TO.C,C20*%
X155457142Y-148907142D02*
X155409523Y-148954761D01*
X155266666Y-149002380D01*
X155171428Y-149002380D01*
X155028571Y-148954761D01*
X154933333Y-148859523D01*
X154885714Y-148764285D01*
X154838095Y-148573809D01*
X154838095Y-148430952D01*
X154885714Y-148240476D01*
X154933333Y-148145238D01*
X155028571Y-148050000D01*
X155171428Y-148002380D01*
X155266666Y-148002380D01*
X155409523Y-148050000D01*
X155457142Y-148097619D01*
X155838095Y-148097619D02*
X155885714Y-148050000D01*
X155980952Y-148002380D01*
X156219047Y-148002380D01*
X156314285Y-148050000D01*
X156361904Y-148097619D01*
X156409523Y-148192857D01*
X156409523Y-148288095D01*
X156361904Y-148430952D01*
X155790476Y-149002380D01*
X156409523Y-149002380D01*
X157028571Y-148002380D02*
X157123809Y-148002380D01*
X157219047Y-148050000D01*
X157266666Y-148097619D01*
X157314285Y-148192857D01*
X157361904Y-148383333D01*
X157361904Y-148621428D01*
X157314285Y-148811904D01*
X157266666Y-148907142D01*
X157219047Y-148954761D01*
X157123809Y-149002380D01*
X157028571Y-149002380D01*
X156933333Y-148954761D01*
X156885714Y-148907142D01*
X156838095Y-148811904D01*
X156790476Y-148621428D01*
X156790476Y-148383333D01*
X156838095Y-148192857D01*
X156885714Y-148097619D01*
X156933333Y-148050000D01*
X157028571Y-148002380D01*
%TO.C,C18*%
X139857142Y-133365142D02*
X139809523Y-133412761D01*
X139666666Y-133460380D01*
X139571428Y-133460380D01*
X139428571Y-133412761D01*
X139333333Y-133317523D01*
X139285714Y-133222285D01*
X139238095Y-133031809D01*
X139238095Y-132888952D01*
X139285714Y-132698476D01*
X139333333Y-132603238D01*
X139428571Y-132508000D01*
X139571428Y-132460380D01*
X139666666Y-132460380D01*
X139809523Y-132508000D01*
X139857142Y-132555619D01*
X140809523Y-133460380D02*
X140238095Y-133460380D01*
X140523809Y-133460380D02*
X140523809Y-132460380D01*
X140428571Y-132603238D01*
X140333333Y-132698476D01*
X140238095Y-132746095D01*
X141380952Y-132888952D02*
X141285714Y-132841333D01*
X141238095Y-132793714D01*
X141190476Y-132698476D01*
X141190476Y-132650857D01*
X141238095Y-132555619D01*
X141285714Y-132508000D01*
X141380952Y-132460380D01*
X141571428Y-132460380D01*
X141666666Y-132508000D01*
X141714285Y-132555619D01*
X141761904Y-132650857D01*
X141761904Y-132698476D01*
X141714285Y-132793714D01*
X141666666Y-132841333D01*
X141571428Y-132888952D01*
X141380952Y-132888952D01*
X141285714Y-132936571D01*
X141238095Y-132984190D01*
X141190476Y-133079428D01*
X141190476Y-133269904D01*
X141238095Y-133365142D01*
X141285714Y-133412761D01*
X141380952Y-133460380D01*
X141571428Y-133460380D01*
X141666666Y-133412761D01*
X141714285Y-133365142D01*
X141761904Y-133269904D01*
X141761904Y-133079428D01*
X141714285Y-132984190D01*
X141666666Y-132936571D01*
X141571428Y-132888952D01*
%TO.C,C17*%
X125755162Y-121723422D02*
X125707543Y-121771041D01*
X125564686Y-121818660D01*
X125469448Y-121818660D01*
X125326591Y-121771041D01*
X125231353Y-121675803D01*
X125183734Y-121580565D01*
X125136115Y-121390089D01*
X125136115Y-121247232D01*
X125183734Y-121056756D01*
X125231353Y-120961518D01*
X125326591Y-120866280D01*
X125469448Y-120818660D01*
X125564686Y-120818660D01*
X125707543Y-120866280D01*
X125755162Y-120913899D01*
X126707543Y-121818660D02*
X126136115Y-121818660D01*
X126421829Y-121818660D02*
X126421829Y-120818660D01*
X126326591Y-120961518D01*
X126231353Y-121056756D01*
X126136115Y-121104375D01*
X127040877Y-120818660D02*
X127707543Y-120818660D01*
X127278972Y-121818660D01*
%TO.C,C16*%
X119234886Y-128051541D02*
X119187267Y-128099160D01*
X119044410Y-128146779D01*
X118949172Y-128146779D01*
X118806315Y-128099160D01*
X118711077Y-128003922D01*
X118663458Y-127908684D01*
X118615839Y-127718208D01*
X118615839Y-127575351D01*
X118663458Y-127384875D01*
X118711077Y-127289637D01*
X118806315Y-127194399D01*
X118949172Y-127146779D01*
X119044410Y-127146779D01*
X119187267Y-127194399D01*
X119234886Y-127242018D01*
X120187267Y-128146779D02*
X119615839Y-128146779D01*
X119901553Y-128146779D02*
X119901553Y-127146779D01*
X119806315Y-127289637D01*
X119711077Y-127384875D01*
X119615839Y-127432494D01*
X121044410Y-127146779D02*
X120853934Y-127146779D01*
X120758696Y-127194399D01*
X120711077Y-127242018D01*
X120615839Y-127384875D01*
X120568220Y-127575351D01*
X120568220Y-127956303D01*
X120615839Y-128051541D01*
X120663458Y-128099160D01*
X120758696Y-128146779D01*
X120949172Y-128146779D01*
X121044410Y-128099160D01*
X121092029Y-128051541D01*
X121139648Y-127956303D01*
X121139648Y-127718208D01*
X121092029Y-127622970D01*
X121044410Y-127575351D01*
X120949172Y-127527732D01*
X120758696Y-127527732D01*
X120663458Y-127575351D01*
X120615839Y-127622970D01*
X120568220Y-127718208D01*
%TO.C,C15*%
X119632142Y-137607142D02*
X119584523Y-137654761D01*
X119441666Y-137702380D01*
X119346428Y-137702380D01*
X119203571Y-137654761D01*
X119108333Y-137559523D01*
X119060714Y-137464285D01*
X119013095Y-137273809D01*
X119013095Y-137130952D01*
X119060714Y-136940476D01*
X119108333Y-136845238D01*
X119203571Y-136750000D01*
X119346428Y-136702380D01*
X119441666Y-136702380D01*
X119584523Y-136750000D01*
X119632142Y-136797619D01*
X120584523Y-137702380D02*
X120013095Y-137702380D01*
X120298809Y-137702380D02*
X120298809Y-136702380D01*
X120203571Y-136845238D01*
X120108333Y-136940476D01*
X120013095Y-136988095D01*
X121489285Y-136702380D02*
X121013095Y-136702380D01*
X120965476Y-137178571D01*
X121013095Y-137130952D01*
X121108333Y-137083333D01*
X121346428Y-137083333D01*
X121441666Y-137130952D01*
X121489285Y-137178571D01*
X121536904Y-137273809D01*
X121536904Y-137511904D01*
X121489285Y-137607142D01*
X121441666Y-137654761D01*
X121346428Y-137702380D01*
X121108333Y-137702380D01*
X121013095Y-137654761D01*
X120965476Y-137607142D01*
%TO.C,C8*%
X118583333Y-142807142D02*
X118535714Y-142854761D01*
X118392857Y-142902380D01*
X118297619Y-142902380D01*
X118154761Y-142854761D01*
X118059523Y-142759523D01*
X118011904Y-142664285D01*
X117964285Y-142473809D01*
X117964285Y-142330952D01*
X118011904Y-142140476D01*
X118059523Y-142045238D01*
X118154761Y-141950000D01*
X118297619Y-141902380D01*
X118392857Y-141902380D01*
X118535714Y-141950000D01*
X118583333Y-141997619D01*
X119154761Y-142330952D02*
X119059523Y-142283333D01*
X119011904Y-142235714D01*
X118964285Y-142140476D01*
X118964285Y-142092857D01*
X119011904Y-141997619D01*
X119059523Y-141950000D01*
X119154761Y-141902380D01*
X119345238Y-141902380D01*
X119440476Y-141950000D01*
X119488095Y-141997619D01*
X119535714Y-142092857D01*
X119535714Y-142140476D01*
X119488095Y-142235714D01*
X119440476Y-142283333D01*
X119345238Y-142330952D01*
X119154761Y-142330952D01*
X119059523Y-142378571D01*
X119011904Y-142426190D01*
X118964285Y-142521428D01*
X118964285Y-142711904D01*
X119011904Y-142807142D01*
X119059523Y-142854761D01*
X119154761Y-142902380D01*
X119345238Y-142902380D01*
X119440476Y-142854761D01*
X119488095Y-142807142D01*
X119535714Y-142711904D01*
X119535714Y-142521428D01*
X119488095Y-142426190D01*
X119440476Y-142378571D01*
X119345238Y-142330952D01*
%TO.C,Y1*%
X142303809Y-78501190D02*
X142303809Y-78977380D01*
X141970476Y-77977380D02*
X142303809Y-78501190D01*
X142637142Y-77977380D01*
X143494285Y-78977380D02*
X142922857Y-78977380D01*
X143208571Y-78977380D02*
X143208571Y-77977380D01*
X143113333Y-78120238D01*
X143018095Y-78215476D01*
X142922857Y-78263095D01*
%TO.C,U12*%
X170086904Y-95702380D02*
X170086904Y-96511904D01*
X170134523Y-96607142D01*
X170182142Y-96654761D01*
X170277380Y-96702380D01*
X170467857Y-96702380D01*
X170563095Y-96654761D01*
X170610714Y-96607142D01*
X170658333Y-96511904D01*
X170658333Y-95702380D01*
X171658333Y-96702380D02*
X171086904Y-96702380D01*
X171372619Y-96702380D02*
X171372619Y-95702380D01*
X171277380Y-95845238D01*
X171182142Y-95940476D01*
X171086904Y-95988095D01*
X172039285Y-95797619D02*
X172086904Y-95750000D01*
X172182142Y-95702380D01*
X172420238Y-95702380D01*
X172515476Y-95750000D01*
X172563095Y-95797619D01*
X172610714Y-95892857D01*
X172610714Y-95988095D01*
X172563095Y-96130952D01*
X171991666Y-96702380D01*
X172610714Y-96702380D01*
%TO.C,U10*%
X122834904Y-79178180D02*
X122834904Y-79987704D01*
X122882523Y-80082942D01*
X122930142Y-80130561D01*
X123025380Y-80178180D01*
X123215857Y-80178180D01*
X123311095Y-80130561D01*
X123358714Y-80082942D01*
X123406333Y-79987704D01*
X123406333Y-79178180D01*
X124406333Y-80178180D02*
X123834904Y-80178180D01*
X124120619Y-80178180D02*
X124120619Y-79178180D01*
X124025380Y-79321038D01*
X123930142Y-79416276D01*
X123834904Y-79463895D01*
X125025380Y-79178180D02*
X125120619Y-79178180D01*
X125215857Y-79225800D01*
X125263476Y-79273419D01*
X125311095Y-79368657D01*
X125358714Y-79559133D01*
X125358714Y-79797228D01*
X125311095Y-79987704D01*
X125263476Y-80082942D01*
X125215857Y-80130561D01*
X125120619Y-80178180D01*
X125025380Y-80178180D01*
X124930142Y-80130561D01*
X124882523Y-80082942D01*
X124834904Y-79987704D01*
X124787285Y-79797228D01*
X124787285Y-79559133D01*
X124834904Y-79368657D01*
X124882523Y-79273419D01*
X124930142Y-79225800D01*
X125025380Y-79178180D01*
%TO.C,U7*%
X153238095Y-122002380D02*
X153238095Y-122811904D01*
X153285714Y-122907142D01*
X153333333Y-122954761D01*
X153428571Y-123002380D01*
X153619047Y-123002380D01*
X153714285Y-122954761D01*
X153761904Y-122907142D01*
X153809523Y-122811904D01*
X153809523Y-122002380D01*
X154190476Y-122002380D02*
X154857142Y-122002380D01*
X154428571Y-123002380D01*
%TO.C,U6*%
X147888095Y-131652380D02*
X147888095Y-132461904D01*
X147935714Y-132557142D01*
X147983333Y-132604761D01*
X148078571Y-132652380D01*
X148269047Y-132652380D01*
X148364285Y-132604761D01*
X148411904Y-132557142D01*
X148459523Y-132461904D01*
X148459523Y-131652380D01*
X149364285Y-131652380D02*
X149173809Y-131652380D01*
X149078571Y-131700000D01*
X149030952Y-131747619D01*
X148935714Y-131890476D01*
X148888095Y-132080952D01*
X148888095Y-132461904D01*
X148935714Y-132557142D01*
X148983333Y-132604761D01*
X149078571Y-132652380D01*
X149269047Y-132652380D01*
X149364285Y-132604761D01*
X149411904Y-132557142D01*
X149459523Y-132461904D01*
X149459523Y-132223809D01*
X149411904Y-132128571D01*
X149364285Y-132080952D01*
X149269047Y-132033333D01*
X149078571Y-132033333D01*
X148983333Y-132080952D01*
X148935714Y-132128571D01*
X148888095Y-132223809D01*
%TO.C,U4*%
X127584295Y-122578880D02*
X127584295Y-123388404D01*
X127631914Y-123483642D01*
X127679533Y-123531261D01*
X127774771Y-123578880D01*
X127965247Y-123578880D01*
X128060485Y-123531261D01*
X128108104Y-123483642D01*
X128155723Y-123388404D01*
X128155723Y-122578880D01*
X129060485Y-122912214D02*
X129060485Y-123578880D01*
X128822390Y-122531261D02*
X128584295Y-123245547D01*
X129203342Y-123245547D01*
%TO.C,U3*%
X165963095Y-80427380D02*
X165963095Y-81236904D01*
X166010714Y-81332142D01*
X166058333Y-81379761D01*
X166153571Y-81427380D01*
X166344047Y-81427380D01*
X166439285Y-81379761D01*
X166486904Y-81332142D01*
X166534523Y-81236904D01*
X166534523Y-80427380D01*
X166915476Y-80427380D02*
X167534523Y-80427380D01*
X167201190Y-80808333D01*
X167344047Y-80808333D01*
X167439285Y-80855952D01*
X167486904Y-80903571D01*
X167534523Y-80998809D01*
X167534523Y-81236904D01*
X167486904Y-81332142D01*
X167439285Y-81379761D01*
X167344047Y-81427380D01*
X167058333Y-81427380D01*
X166963095Y-81379761D01*
X166915476Y-81332142D01*
%TO.C,U2*%
X180438095Y-77702380D02*
X180438095Y-78511904D01*
X180485714Y-78607142D01*
X180533333Y-78654761D01*
X180628571Y-78702380D01*
X180819047Y-78702380D01*
X180914285Y-78654761D01*
X180961904Y-78607142D01*
X181009523Y-78511904D01*
X181009523Y-77702380D01*
X181438095Y-77797619D02*
X181485714Y-77750000D01*
X181580952Y-77702380D01*
X181819047Y-77702380D01*
X181914285Y-77750000D01*
X181961904Y-77797619D01*
X182009523Y-77892857D01*
X182009523Y-77988095D01*
X181961904Y-78130952D01*
X181390476Y-78702380D01*
X182009523Y-78702380D01*
%TO.C,U1*%
X120610459Y-131490039D02*
X120610459Y-132299563D01*
X120658078Y-132394801D01*
X120705697Y-132442420D01*
X120800935Y-132490039D01*
X120991411Y-132490039D01*
X121086649Y-132442420D01*
X121134268Y-132394801D01*
X121181887Y-132299563D01*
X121181887Y-131490039D01*
X122181887Y-132490039D02*
X121610459Y-132490039D01*
X121896173Y-132490039D02*
X121896173Y-131490039D01*
X121800935Y-131632897D01*
X121705697Y-131728135D01*
X121610459Y-131775754D01*
%TO.C,TP12*%
X159611904Y-91927380D02*
X160183333Y-91927380D01*
X159897619Y-92927380D02*
X159897619Y-91927380D01*
X160516666Y-92927380D02*
X160516666Y-91927380D01*
X160897619Y-91927380D01*
X160992857Y-91975000D01*
X161040476Y-92022619D01*
X161088095Y-92117857D01*
X161088095Y-92260714D01*
X161040476Y-92355952D01*
X160992857Y-92403571D01*
X160897619Y-92451190D01*
X160516666Y-92451190D01*
X162040476Y-92927380D02*
X161469047Y-92927380D01*
X161754761Y-92927380D02*
X161754761Y-91927380D01*
X161659523Y-92070238D01*
X161564285Y-92165476D01*
X161469047Y-92213095D01*
X162421428Y-92022619D02*
X162469047Y-91975000D01*
X162564285Y-91927380D01*
X162802380Y-91927380D01*
X162897619Y-91975000D01*
X162945238Y-92022619D01*
X162992857Y-92117857D01*
X162992857Y-92213095D01*
X162945238Y-92355952D01*
X162373809Y-92927380D01*
X162992857Y-92927380D01*
%TO.C,TP11*%
X131611904Y-101163680D02*
X132183333Y-101163680D01*
X131897619Y-102163680D02*
X131897619Y-101163680D01*
X132516666Y-102163680D02*
X132516666Y-101163680D01*
X132897619Y-101163680D01*
X132992857Y-101211300D01*
X133040476Y-101258919D01*
X133088095Y-101354157D01*
X133088095Y-101497014D01*
X133040476Y-101592252D01*
X132992857Y-101639871D01*
X132897619Y-101687490D01*
X132516666Y-101687490D01*
X134040476Y-102163680D02*
X133469047Y-102163680D01*
X133754761Y-102163680D02*
X133754761Y-101163680D01*
X133659523Y-101306538D01*
X133564285Y-101401776D01*
X133469047Y-101449395D01*
X134992857Y-102163680D02*
X134421428Y-102163680D01*
X134707142Y-102163680D02*
X134707142Y-101163680D01*
X134611904Y-101306538D01*
X134516666Y-101401776D01*
X134421428Y-101449395D01*
%TO.C,TP10*%
X128477544Y-113125000D02*
X129048973Y-113125000D01*
X128763259Y-114125000D02*
X128763259Y-113125000D01*
X129382306Y-114125000D02*
X129382306Y-113125000D01*
X129763259Y-113125000D01*
X129858497Y-113172620D01*
X129906116Y-113220239D01*
X129953735Y-113315477D01*
X129953735Y-113458334D01*
X129906116Y-113553572D01*
X129858497Y-113601191D01*
X129763259Y-113648810D01*
X129382306Y-113648810D01*
X130906116Y-114125000D02*
X130334687Y-114125000D01*
X130620401Y-114125000D02*
X130620401Y-113125000D01*
X130525163Y-113267858D01*
X130429925Y-113363096D01*
X130334687Y-113410715D01*
X131525163Y-113125000D02*
X131620401Y-113125000D01*
X131715640Y-113172620D01*
X131763259Y-113220239D01*
X131810878Y-113315477D01*
X131858497Y-113505953D01*
X131858497Y-113744048D01*
X131810878Y-113934524D01*
X131763259Y-114029762D01*
X131715640Y-114077381D01*
X131620401Y-114125000D01*
X131525163Y-114125000D01*
X131429925Y-114077381D01*
X131382306Y-114029762D01*
X131334687Y-113934524D01*
X131287068Y-113744048D01*
X131287068Y-113505953D01*
X131334687Y-113315477D01*
X131382306Y-113220239D01*
X131429925Y-113172620D01*
X131525163Y-113125000D01*
%TO.C,TP9*%
X165398095Y-92297380D02*
X165969523Y-92297380D01*
X165683809Y-93297380D02*
X165683809Y-92297380D01*
X166302857Y-93297380D02*
X166302857Y-92297380D01*
X166683809Y-92297380D01*
X166779047Y-92345000D01*
X166826666Y-92392619D01*
X166874285Y-92487857D01*
X166874285Y-92630714D01*
X166826666Y-92725952D01*
X166779047Y-92773571D01*
X166683809Y-92821190D01*
X166302857Y-92821190D01*
X167350476Y-93297380D02*
X167540952Y-93297380D01*
X167636190Y-93249761D01*
X167683809Y-93202142D01*
X167779047Y-93059285D01*
X167826666Y-92868809D01*
X167826666Y-92487857D01*
X167779047Y-92392619D01*
X167731428Y-92345000D01*
X167636190Y-92297380D01*
X167445714Y-92297380D01*
X167350476Y-92345000D01*
X167302857Y-92392619D01*
X167255238Y-92487857D01*
X167255238Y-92725952D01*
X167302857Y-92821190D01*
X167350476Y-92868809D01*
X167445714Y-92916428D01*
X167636190Y-92916428D01*
X167731428Y-92868809D01*
X167779047Y-92821190D01*
X167826666Y-92725952D01*
%TO.C,TP8*%
X110879095Y-91460380D02*
X111450523Y-91460380D01*
X111164809Y-92460380D02*
X111164809Y-91460380D01*
X111783857Y-92460380D02*
X111783857Y-91460380D01*
X112164809Y-91460380D01*
X112260047Y-91508000D01*
X112307666Y-91555619D01*
X112355285Y-91650857D01*
X112355285Y-91793714D01*
X112307666Y-91888952D01*
X112260047Y-91936571D01*
X112164809Y-91984190D01*
X111783857Y-91984190D01*
X112926714Y-91888952D02*
X112831476Y-91841333D01*
X112783857Y-91793714D01*
X112736238Y-91698476D01*
X112736238Y-91650857D01*
X112783857Y-91555619D01*
X112831476Y-91508000D01*
X112926714Y-91460380D01*
X113117190Y-91460380D01*
X113212428Y-91508000D01*
X113260047Y-91555619D01*
X113307666Y-91650857D01*
X113307666Y-91698476D01*
X113260047Y-91793714D01*
X113212428Y-91841333D01*
X113117190Y-91888952D01*
X112926714Y-91888952D01*
X112831476Y-91936571D01*
X112783857Y-91984190D01*
X112736238Y-92079428D01*
X112736238Y-92269904D01*
X112783857Y-92365142D01*
X112831476Y-92412761D01*
X112926714Y-92460380D01*
X113117190Y-92460380D01*
X113212428Y-92412761D01*
X113260047Y-92365142D01*
X113307666Y-92269904D01*
X113307666Y-92079428D01*
X113260047Y-91984190D01*
X113212428Y-91936571D01*
X113117190Y-91888952D01*
%TO.C,TP7*%
X120881615Y-113213900D02*
X121453043Y-113213900D01*
X121167329Y-114213900D02*
X121167329Y-113213900D01*
X121786377Y-114213900D02*
X121786377Y-113213900D01*
X122167329Y-113213900D01*
X122262567Y-113261520D01*
X122310186Y-113309139D01*
X122357805Y-113404377D01*
X122357805Y-113547234D01*
X122310186Y-113642472D01*
X122262567Y-113690091D01*
X122167329Y-113737710D01*
X121786377Y-113737710D01*
X122691139Y-113213900D02*
X123357805Y-113213900D01*
X122929234Y-114213900D01*
%TO.C,TP5*%
X182938095Y-137727380D02*
X183509523Y-137727380D01*
X183223809Y-138727380D02*
X183223809Y-137727380D01*
X183842857Y-138727380D02*
X183842857Y-137727380D01*
X184223809Y-137727380D01*
X184319047Y-137775000D01*
X184366666Y-137822619D01*
X184414285Y-137917857D01*
X184414285Y-138060714D01*
X184366666Y-138155952D01*
X184319047Y-138203571D01*
X184223809Y-138251190D01*
X183842857Y-138251190D01*
X185319047Y-137727380D02*
X184842857Y-137727380D01*
X184795238Y-138203571D01*
X184842857Y-138155952D01*
X184938095Y-138108333D01*
X185176190Y-138108333D01*
X185271428Y-138155952D01*
X185319047Y-138203571D01*
X185366666Y-138298809D01*
X185366666Y-138536904D01*
X185319047Y-138632142D01*
X185271428Y-138679761D01*
X185176190Y-138727380D01*
X184938095Y-138727380D01*
X184842857Y-138679761D01*
X184795238Y-138632142D01*
%TO.C,TP4*%
X157805595Y-118349780D02*
X158377023Y-118349780D01*
X158091309Y-119349780D02*
X158091309Y-118349780D01*
X158710357Y-119349780D02*
X158710357Y-118349780D01*
X159091309Y-118349780D01*
X159186547Y-118397400D01*
X159234166Y-118445019D01*
X159281785Y-118540257D01*
X159281785Y-118683114D01*
X159234166Y-118778352D01*
X159186547Y-118825971D01*
X159091309Y-118873590D01*
X158710357Y-118873590D01*
X160138928Y-118683114D02*
X160138928Y-119349780D01*
X159900833Y-118302161D02*
X159662738Y-119016447D01*
X160281785Y-119016447D01*
%TO.C,TP2*%
X137637995Y-121372380D02*
X138209423Y-121372380D01*
X137923709Y-122372380D02*
X137923709Y-121372380D01*
X138542757Y-122372380D02*
X138542757Y-121372380D01*
X138923709Y-121372380D01*
X139018947Y-121420000D01*
X139066566Y-121467619D01*
X139114185Y-121562857D01*
X139114185Y-121705714D01*
X139066566Y-121800952D01*
X139018947Y-121848571D01*
X138923709Y-121896190D01*
X138542757Y-121896190D01*
X139495138Y-121467619D02*
X139542757Y-121420000D01*
X139637995Y-121372380D01*
X139876090Y-121372380D01*
X139971328Y-121420000D01*
X140018947Y-121467619D01*
X140066566Y-121562857D01*
X140066566Y-121658095D01*
X140018947Y-121800952D01*
X139447519Y-122372380D01*
X140066566Y-122372380D01*
%TO.C,TP1*%
X130763095Y-144652380D02*
X131334523Y-144652380D01*
X131048809Y-145652380D02*
X131048809Y-144652380D01*
X131667857Y-145652380D02*
X131667857Y-144652380D01*
X132048809Y-144652380D01*
X132144047Y-144700000D01*
X132191666Y-144747619D01*
X132239285Y-144842857D01*
X132239285Y-144985714D01*
X132191666Y-145080952D01*
X132144047Y-145128571D01*
X132048809Y-145176190D01*
X131667857Y-145176190D01*
X133191666Y-145652380D02*
X132620238Y-145652380D01*
X132905952Y-145652380D02*
X132905952Y-144652380D01*
X132810714Y-144795238D01*
X132715476Y-144890476D01*
X132620238Y-144938095D01*
%TO.C,R37*%
X160972262Y-106497380D02*
X160638929Y-106021190D01*
X160400834Y-106497380D02*
X160400834Y-105497380D01*
X160781786Y-105497380D01*
X160877024Y-105545000D01*
X160924643Y-105592619D01*
X160972262Y-105687857D01*
X160972262Y-105830714D01*
X160924643Y-105925952D01*
X160877024Y-105973571D01*
X160781786Y-106021190D01*
X160400834Y-106021190D01*
X161305596Y-105497380D02*
X161924643Y-105497380D01*
X161591310Y-105878333D01*
X161734167Y-105878333D01*
X161829405Y-105925952D01*
X161877024Y-105973571D01*
X161924643Y-106068809D01*
X161924643Y-106306904D01*
X161877024Y-106402142D01*
X161829405Y-106449761D01*
X161734167Y-106497380D01*
X161448453Y-106497380D01*
X161353215Y-106449761D01*
X161305596Y-106402142D01*
X162257977Y-105497380D02*
X162924643Y-105497380D01*
X162496072Y-106497380D01*
%TO.C,R36*%
X163497142Y-99127380D02*
X163163809Y-98651190D01*
X162925714Y-99127380D02*
X162925714Y-98127380D01*
X163306666Y-98127380D01*
X163401904Y-98175000D01*
X163449523Y-98222619D01*
X163497142Y-98317857D01*
X163497142Y-98460714D01*
X163449523Y-98555952D01*
X163401904Y-98603571D01*
X163306666Y-98651190D01*
X162925714Y-98651190D01*
X163830476Y-98127380D02*
X164449523Y-98127380D01*
X164116190Y-98508333D01*
X164259047Y-98508333D01*
X164354285Y-98555952D01*
X164401904Y-98603571D01*
X164449523Y-98698809D01*
X164449523Y-98936904D01*
X164401904Y-99032142D01*
X164354285Y-99079761D01*
X164259047Y-99127380D01*
X163973333Y-99127380D01*
X163878095Y-99079761D01*
X163830476Y-99032142D01*
X165306666Y-98127380D02*
X165116190Y-98127380D01*
X165020952Y-98175000D01*
X164973333Y-98222619D01*
X164878095Y-98365476D01*
X164830476Y-98555952D01*
X164830476Y-98936904D01*
X164878095Y-99032142D01*
X164925714Y-99079761D01*
X165020952Y-99127380D01*
X165211428Y-99127380D01*
X165306666Y-99079761D01*
X165354285Y-99032142D01*
X165401904Y-98936904D01*
X165401904Y-98698809D01*
X165354285Y-98603571D01*
X165306666Y-98555952D01*
X165211428Y-98508333D01*
X165020952Y-98508333D01*
X164925714Y-98555952D01*
X164878095Y-98603571D01*
X164830476Y-98698809D01*
%TO.C,R35*%
X114136342Y-94237480D02*
X113803009Y-93761290D01*
X113564914Y-94237480D02*
X113564914Y-93237480D01*
X113945866Y-93237480D01*
X114041104Y-93285100D01*
X114088723Y-93332719D01*
X114136342Y-93427957D01*
X114136342Y-93570814D01*
X114088723Y-93666052D01*
X114041104Y-93713671D01*
X113945866Y-93761290D01*
X113564914Y-93761290D01*
X114469676Y-93237480D02*
X115088723Y-93237480D01*
X114755390Y-93618433D01*
X114898247Y-93618433D01*
X114993485Y-93666052D01*
X115041104Y-93713671D01*
X115088723Y-93808909D01*
X115088723Y-94047004D01*
X115041104Y-94142242D01*
X114993485Y-94189861D01*
X114898247Y-94237480D01*
X114612533Y-94237480D01*
X114517295Y-94189861D01*
X114469676Y-94142242D01*
X115993485Y-93237480D02*
X115517295Y-93237480D01*
X115469676Y-93713671D01*
X115517295Y-93666052D01*
X115612533Y-93618433D01*
X115850628Y-93618433D01*
X115945866Y-93666052D01*
X115993485Y-93713671D01*
X116041104Y-93808909D01*
X116041104Y-94047004D01*
X115993485Y-94142242D01*
X115945866Y-94189861D01*
X115850628Y-94237480D01*
X115612533Y-94237480D01*
X115517295Y-94189861D01*
X115469676Y-94142242D01*
%TO.C,R34*%
X114237142Y-100102380D02*
X113903809Y-99626190D01*
X113665714Y-100102380D02*
X113665714Y-99102380D01*
X114046666Y-99102380D01*
X114141904Y-99150000D01*
X114189523Y-99197619D01*
X114237142Y-99292857D01*
X114237142Y-99435714D01*
X114189523Y-99530952D01*
X114141904Y-99578571D01*
X114046666Y-99626190D01*
X113665714Y-99626190D01*
X114570476Y-99102380D02*
X115189523Y-99102380D01*
X114856190Y-99483333D01*
X114999047Y-99483333D01*
X115094285Y-99530952D01*
X115141904Y-99578571D01*
X115189523Y-99673809D01*
X115189523Y-99911904D01*
X115141904Y-100007142D01*
X115094285Y-100054761D01*
X114999047Y-100102380D01*
X114713333Y-100102380D01*
X114618095Y-100054761D01*
X114570476Y-100007142D01*
X116046666Y-99435714D02*
X116046666Y-100102380D01*
X115808571Y-99054761D02*
X115570476Y-99769047D01*
X116189523Y-99769047D01*
%TO.C,R33*%
X128177042Y-95927380D02*
X127843709Y-95451190D01*
X127605614Y-95927380D02*
X127605614Y-94927380D01*
X127986566Y-94927380D01*
X128081804Y-94975000D01*
X128129423Y-95022619D01*
X128177042Y-95117857D01*
X128177042Y-95260714D01*
X128129423Y-95355952D01*
X128081804Y-95403571D01*
X127986566Y-95451190D01*
X127605614Y-95451190D01*
X128510376Y-94927380D02*
X129129423Y-94927380D01*
X128796090Y-95308333D01*
X128938947Y-95308333D01*
X129034185Y-95355952D01*
X129081804Y-95403571D01*
X129129423Y-95498809D01*
X129129423Y-95736904D01*
X129081804Y-95832142D01*
X129034185Y-95879761D01*
X128938947Y-95927380D01*
X128653233Y-95927380D01*
X128557995Y-95879761D01*
X128510376Y-95832142D01*
X129462757Y-94927380D02*
X130081804Y-94927380D01*
X129748471Y-95308333D01*
X129891328Y-95308333D01*
X129986566Y-95355952D01*
X130034185Y-95403571D01*
X130081804Y-95498809D01*
X130081804Y-95736904D01*
X130034185Y-95832142D01*
X129986566Y-95879761D01*
X129891328Y-95927380D01*
X129605614Y-95927380D01*
X129510376Y-95879761D01*
X129462757Y-95832142D01*
%TO.C,R32*%
X128151642Y-106125680D02*
X127818309Y-105649490D01*
X127580214Y-106125680D02*
X127580214Y-105125680D01*
X127961166Y-105125680D01*
X128056404Y-105173300D01*
X128104023Y-105220919D01*
X128151642Y-105316157D01*
X128151642Y-105459014D01*
X128104023Y-105554252D01*
X128056404Y-105601871D01*
X127961166Y-105649490D01*
X127580214Y-105649490D01*
X128484976Y-105125680D02*
X129104023Y-105125680D01*
X128770690Y-105506633D01*
X128913547Y-105506633D01*
X129008785Y-105554252D01*
X129056404Y-105601871D01*
X129104023Y-105697109D01*
X129104023Y-105935204D01*
X129056404Y-106030442D01*
X129008785Y-106078061D01*
X128913547Y-106125680D01*
X128627833Y-106125680D01*
X128532595Y-106078061D01*
X128484976Y-106030442D01*
X129484976Y-105220919D02*
X129532595Y-105173300D01*
X129627833Y-105125680D01*
X129865928Y-105125680D01*
X129961166Y-105173300D01*
X130008785Y-105220919D01*
X130056404Y-105316157D01*
X130056404Y-105411395D01*
X130008785Y-105554252D01*
X129437357Y-106125680D01*
X130056404Y-106125680D01*
%TO.C,R22*%
X173009322Y-142974320D02*
X172675989Y-142498130D01*
X172437894Y-142974320D02*
X172437894Y-141974320D01*
X172818846Y-141974320D01*
X172914084Y-142021940D01*
X172961703Y-142069559D01*
X173009322Y-142164797D01*
X173009322Y-142307654D01*
X172961703Y-142402892D01*
X172914084Y-142450511D01*
X172818846Y-142498130D01*
X172437894Y-142498130D01*
X173390275Y-142069559D02*
X173437894Y-142021940D01*
X173533132Y-141974320D01*
X173771227Y-141974320D01*
X173866465Y-142021940D01*
X173914084Y-142069559D01*
X173961703Y-142164797D01*
X173961703Y-142260035D01*
X173914084Y-142402892D01*
X173342656Y-142974320D01*
X173961703Y-142974320D01*
X174342656Y-142069559D02*
X174390275Y-142021940D01*
X174485513Y-141974320D01*
X174723608Y-141974320D01*
X174818846Y-142021940D01*
X174866465Y-142069559D01*
X174914084Y-142164797D01*
X174914084Y-142260035D01*
X174866465Y-142402892D01*
X174295037Y-142974320D01*
X174914084Y-142974320D01*
%TO.C,R19*%
X147357142Y-126714380D02*
X147023809Y-126238190D01*
X146785714Y-126714380D02*
X146785714Y-125714380D01*
X147166666Y-125714380D01*
X147261904Y-125762000D01*
X147309523Y-125809619D01*
X147357142Y-125904857D01*
X147357142Y-126047714D01*
X147309523Y-126142952D01*
X147261904Y-126190571D01*
X147166666Y-126238190D01*
X146785714Y-126238190D01*
X148309523Y-126714380D02*
X147738095Y-126714380D01*
X148023809Y-126714380D02*
X148023809Y-125714380D01*
X147928571Y-125857238D01*
X147833333Y-125952476D01*
X147738095Y-126000095D01*
X148785714Y-126714380D02*
X148976190Y-126714380D01*
X149071428Y-126666761D01*
X149119047Y-126619142D01*
X149214285Y-126476285D01*
X149261904Y-126285809D01*
X149261904Y-125904857D01*
X149214285Y-125809619D01*
X149166666Y-125762000D01*
X149071428Y-125714380D01*
X148880952Y-125714380D01*
X148785714Y-125762000D01*
X148738095Y-125809619D01*
X148690476Y-125904857D01*
X148690476Y-126142952D01*
X148738095Y-126238190D01*
X148785714Y-126285809D01*
X148880952Y-126333428D01*
X149071428Y-126333428D01*
X149166666Y-126285809D01*
X149214285Y-126238190D01*
X149261904Y-126142952D01*
%TO.C,R18*%
X151199142Y-135291380D02*
X150865809Y-134815190D01*
X150627714Y-135291380D02*
X150627714Y-134291380D01*
X151008666Y-134291380D01*
X151103904Y-134339000D01*
X151151523Y-134386619D01*
X151199142Y-134481857D01*
X151199142Y-134624714D01*
X151151523Y-134719952D01*
X151103904Y-134767571D01*
X151008666Y-134815190D01*
X150627714Y-134815190D01*
X152151523Y-135291380D02*
X151580095Y-135291380D01*
X151865809Y-135291380D02*
X151865809Y-134291380D01*
X151770571Y-134434238D01*
X151675333Y-134529476D01*
X151580095Y-134577095D01*
X152722952Y-134719952D02*
X152627714Y-134672333D01*
X152580095Y-134624714D01*
X152532476Y-134529476D01*
X152532476Y-134481857D01*
X152580095Y-134386619D01*
X152627714Y-134339000D01*
X152722952Y-134291380D01*
X152913428Y-134291380D01*
X153008666Y-134339000D01*
X153056285Y-134386619D01*
X153103904Y-134481857D01*
X153103904Y-134529476D01*
X153056285Y-134624714D01*
X153008666Y-134672333D01*
X152913428Y-134719952D01*
X152722952Y-134719952D01*
X152627714Y-134767571D01*
X152580095Y-134815190D01*
X152532476Y-134910428D01*
X152532476Y-135100904D01*
X152580095Y-135196142D01*
X152627714Y-135243761D01*
X152722952Y-135291380D01*
X152913428Y-135291380D01*
X153008666Y-135243761D01*
X153056285Y-135196142D01*
X153103904Y-135100904D01*
X153103904Y-134910428D01*
X153056285Y-134815190D01*
X153008666Y-134767571D01*
X152913428Y-134719952D01*
%TO.C,R17*%
X149482142Y-141352380D02*
X149148809Y-140876190D01*
X148910714Y-141352380D02*
X148910714Y-140352380D01*
X149291666Y-140352380D01*
X149386904Y-140400000D01*
X149434523Y-140447619D01*
X149482142Y-140542857D01*
X149482142Y-140685714D01*
X149434523Y-140780952D01*
X149386904Y-140828571D01*
X149291666Y-140876190D01*
X148910714Y-140876190D01*
X150434523Y-141352380D02*
X149863095Y-141352380D01*
X150148809Y-141352380D02*
X150148809Y-140352380D01*
X150053571Y-140495238D01*
X149958333Y-140590476D01*
X149863095Y-140638095D01*
X150767857Y-140352380D02*
X151434523Y-140352380D01*
X151005952Y-141352380D01*
%TO.C,R16*%
X150007142Y-143477380D02*
X149673809Y-143001190D01*
X149435714Y-143477380D02*
X149435714Y-142477380D01*
X149816666Y-142477380D01*
X149911904Y-142525000D01*
X149959523Y-142572619D01*
X150007142Y-142667857D01*
X150007142Y-142810714D01*
X149959523Y-142905952D01*
X149911904Y-142953571D01*
X149816666Y-143001190D01*
X149435714Y-143001190D01*
X150959523Y-143477380D02*
X150388095Y-143477380D01*
X150673809Y-143477380D02*
X150673809Y-142477380D01*
X150578571Y-142620238D01*
X150483333Y-142715476D01*
X150388095Y-142763095D01*
X151816666Y-142477380D02*
X151626190Y-142477380D01*
X151530952Y-142525000D01*
X151483333Y-142572619D01*
X151388095Y-142715476D01*
X151340476Y-142905952D01*
X151340476Y-143286904D01*
X151388095Y-143382142D01*
X151435714Y-143429761D01*
X151530952Y-143477380D01*
X151721428Y-143477380D01*
X151816666Y-143429761D01*
X151864285Y-143382142D01*
X151911904Y-143286904D01*
X151911904Y-143048809D01*
X151864285Y-142953571D01*
X151816666Y-142905952D01*
X151721428Y-142858333D01*
X151530952Y-142858333D01*
X151435714Y-142905952D01*
X151388095Y-142953571D01*
X151340476Y-143048809D01*
%TO.C,R15*%
X149514322Y-149207480D02*
X149180989Y-148731290D01*
X148942894Y-149207480D02*
X148942894Y-148207480D01*
X149323846Y-148207480D01*
X149419084Y-148255100D01*
X149466703Y-148302719D01*
X149514322Y-148397957D01*
X149514322Y-148540814D01*
X149466703Y-148636052D01*
X149419084Y-148683671D01*
X149323846Y-148731290D01*
X148942894Y-148731290D01*
X150466703Y-149207480D02*
X149895275Y-149207480D01*
X150180989Y-149207480D02*
X150180989Y-148207480D01*
X150085751Y-148350338D01*
X149990513Y-148445576D01*
X149895275Y-148493195D01*
X151371465Y-148207480D02*
X150895275Y-148207480D01*
X150847656Y-148683671D01*
X150895275Y-148636052D01*
X150990513Y-148588433D01*
X151228608Y-148588433D01*
X151323846Y-148636052D01*
X151371465Y-148683671D01*
X151419084Y-148778909D01*
X151419084Y-149017004D01*
X151371465Y-149112242D01*
X151323846Y-149159861D01*
X151228608Y-149207480D01*
X150990513Y-149207480D01*
X150895275Y-149159861D01*
X150847656Y-149112242D01*
%TO.C,R14*%
X135911142Y-133510380D02*
X135577809Y-133034190D01*
X135339714Y-133510380D02*
X135339714Y-132510380D01*
X135720666Y-132510380D01*
X135815904Y-132558000D01*
X135863523Y-132605619D01*
X135911142Y-132700857D01*
X135911142Y-132843714D01*
X135863523Y-132938952D01*
X135815904Y-132986571D01*
X135720666Y-133034190D01*
X135339714Y-133034190D01*
X136863523Y-133510380D02*
X136292095Y-133510380D01*
X136577809Y-133510380D02*
X136577809Y-132510380D01*
X136482571Y-132653238D01*
X136387333Y-132748476D01*
X136292095Y-132796095D01*
X137720666Y-132843714D02*
X137720666Y-133510380D01*
X137482571Y-132462761D02*
X137244476Y-133177047D01*
X137863523Y-133177047D01*
%TO.C,R13*%
X122307142Y-128002380D02*
X121973809Y-127526190D01*
X121735714Y-128002380D02*
X121735714Y-127002380D01*
X122116666Y-127002380D01*
X122211904Y-127050000D01*
X122259523Y-127097619D01*
X122307142Y-127192857D01*
X122307142Y-127335714D01*
X122259523Y-127430952D01*
X122211904Y-127478571D01*
X122116666Y-127526190D01*
X121735714Y-127526190D01*
X123259523Y-128002380D02*
X122688095Y-128002380D01*
X122973809Y-128002380D02*
X122973809Y-127002380D01*
X122878571Y-127145238D01*
X122783333Y-127240476D01*
X122688095Y-127288095D01*
X123592857Y-127002380D02*
X124211904Y-127002380D01*
X123878571Y-127383333D01*
X124021428Y-127383333D01*
X124116666Y-127430952D01*
X124164285Y-127478571D01*
X124211904Y-127573809D01*
X124211904Y-127811904D01*
X124164285Y-127907142D01*
X124116666Y-127954761D01*
X124021428Y-128002380D01*
X123735714Y-128002380D01*
X123640476Y-127954761D01*
X123592857Y-127907142D01*
%TO.C,R12*%
X126457142Y-133977380D02*
X126123809Y-133501190D01*
X125885714Y-133977380D02*
X125885714Y-132977380D01*
X126266666Y-132977380D01*
X126361904Y-133025000D01*
X126409523Y-133072619D01*
X126457142Y-133167857D01*
X126457142Y-133310714D01*
X126409523Y-133405952D01*
X126361904Y-133453571D01*
X126266666Y-133501190D01*
X125885714Y-133501190D01*
X127409523Y-133977380D02*
X126838095Y-133977380D01*
X127123809Y-133977380D02*
X127123809Y-132977380D01*
X127028571Y-133120238D01*
X126933333Y-133215476D01*
X126838095Y-133263095D01*
X127790476Y-133072619D02*
X127838095Y-133025000D01*
X127933333Y-132977380D01*
X128171428Y-132977380D01*
X128266666Y-133025000D01*
X128314285Y-133072619D01*
X128361904Y-133167857D01*
X128361904Y-133263095D01*
X128314285Y-133405952D01*
X127742857Y-133977380D01*
X128361904Y-133977380D01*
%TO.C,R11*%
X128807142Y-138852380D02*
X128473809Y-138376190D01*
X128235714Y-138852380D02*
X128235714Y-137852380D01*
X128616666Y-137852380D01*
X128711904Y-137900000D01*
X128759523Y-137947619D01*
X128807142Y-138042857D01*
X128807142Y-138185714D01*
X128759523Y-138280952D01*
X128711904Y-138328571D01*
X128616666Y-138376190D01*
X128235714Y-138376190D01*
X129759523Y-138852380D02*
X129188095Y-138852380D01*
X129473809Y-138852380D02*
X129473809Y-137852380D01*
X129378571Y-137995238D01*
X129283333Y-138090476D01*
X129188095Y-138138095D01*
X130711904Y-138852380D02*
X130140476Y-138852380D01*
X130426190Y-138852380D02*
X130426190Y-137852380D01*
X130330952Y-137995238D01*
X130235714Y-138090476D01*
X130140476Y-138138095D01*
%TO.C,R10*%
X159250142Y-73223380D02*
X158916809Y-72747190D01*
X158678714Y-73223380D02*
X158678714Y-72223380D01*
X159059666Y-72223380D01*
X159154904Y-72271000D01*
X159202523Y-72318619D01*
X159250142Y-72413857D01*
X159250142Y-72556714D01*
X159202523Y-72651952D01*
X159154904Y-72699571D01*
X159059666Y-72747190D01*
X158678714Y-72747190D01*
X160202523Y-73223380D02*
X159631095Y-73223380D01*
X159916809Y-73223380D02*
X159916809Y-72223380D01*
X159821571Y-72366238D01*
X159726333Y-72461476D01*
X159631095Y-72509095D01*
X160821571Y-72223380D02*
X160916809Y-72223380D01*
X161012047Y-72271000D01*
X161059666Y-72318619D01*
X161107285Y-72413857D01*
X161154904Y-72604333D01*
X161154904Y-72842428D01*
X161107285Y-73032904D01*
X161059666Y-73128142D01*
X161012047Y-73175761D01*
X160916809Y-73223380D01*
X160821571Y-73223380D01*
X160726333Y-73175761D01*
X160678714Y-73128142D01*
X160631095Y-73032904D01*
X160583476Y-72842428D01*
X160583476Y-72604333D01*
X160631095Y-72413857D01*
X160678714Y-72318619D01*
X160726333Y-72271000D01*
X160821571Y-72223380D01*
%TO.C,R9*%
X143216333Y-95956380D02*
X142883000Y-95480190D01*
X142644904Y-95956380D02*
X142644904Y-94956380D01*
X143025857Y-94956380D01*
X143121095Y-95004000D01*
X143168714Y-95051619D01*
X143216333Y-95146857D01*
X143216333Y-95289714D01*
X143168714Y-95384952D01*
X143121095Y-95432571D01*
X143025857Y-95480190D01*
X142644904Y-95480190D01*
X143692523Y-95956380D02*
X143883000Y-95956380D01*
X143978238Y-95908761D01*
X144025857Y-95861142D01*
X144121095Y-95718285D01*
X144168714Y-95527809D01*
X144168714Y-95146857D01*
X144121095Y-95051619D01*
X144073476Y-95004000D01*
X143978238Y-94956380D01*
X143787761Y-94956380D01*
X143692523Y-95004000D01*
X143644904Y-95051619D01*
X143597285Y-95146857D01*
X143597285Y-95384952D01*
X143644904Y-95480190D01*
X143692523Y-95527809D01*
X143787761Y-95575428D01*
X143978238Y-95575428D01*
X144073476Y-95527809D01*
X144121095Y-95480190D01*
X144168714Y-95384952D01*
%TO.C,R8*%
X162934973Y-79422260D02*
X162601640Y-78946070D01*
X162363544Y-79422260D02*
X162363544Y-78422260D01*
X162744497Y-78422260D01*
X162839735Y-78469880D01*
X162887354Y-78517499D01*
X162934973Y-78612737D01*
X162934973Y-78755594D01*
X162887354Y-78850832D01*
X162839735Y-78898451D01*
X162744497Y-78946070D01*
X162363544Y-78946070D01*
X163506401Y-78850832D02*
X163411163Y-78803213D01*
X163363544Y-78755594D01*
X163315925Y-78660356D01*
X163315925Y-78612737D01*
X163363544Y-78517499D01*
X163411163Y-78469880D01*
X163506401Y-78422260D01*
X163696878Y-78422260D01*
X163792116Y-78469880D01*
X163839735Y-78517499D01*
X163887354Y-78612737D01*
X163887354Y-78660356D01*
X163839735Y-78755594D01*
X163792116Y-78803213D01*
X163696878Y-78850832D01*
X163506401Y-78850832D01*
X163411163Y-78898451D01*
X163363544Y-78946070D01*
X163315925Y-79041308D01*
X163315925Y-79231784D01*
X163363544Y-79327022D01*
X163411163Y-79374641D01*
X163506401Y-79422260D01*
X163696878Y-79422260D01*
X163792116Y-79374641D01*
X163839735Y-79327022D01*
X163887354Y-79231784D01*
X163887354Y-79041308D01*
X163839735Y-78946070D01*
X163792116Y-78898451D01*
X163696878Y-78850832D01*
%TO.C,R7*%
X162974973Y-84756660D02*
X162641640Y-84280470D01*
X162403544Y-84756660D02*
X162403544Y-83756660D01*
X162784497Y-83756660D01*
X162879735Y-83804280D01*
X162927354Y-83851899D01*
X162974973Y-83947137D01*
X162974973Y-84089994D01*
X162927354Y-84185232D01*
X162879735Y-84232851D01*
X162784497Y-84280470D01*
X162403544Y-84280470D01*
X163308306Y-83756660D02*
X163974973Y-83756660D01*
X163546401Y-84756660D01*
%TO.C,R6*%
X158383333Y-75127380D02*
X158050000Y-74651190D01*
X157811904Y-75127380D02*
X157811904Y-74127380D01*
X158192857Y-74127380D01*
X158288095Y-74175000D01*
X158335714Y-74222619D01*
X158383333Y-74317857D01*
X158383333Y-74460714D01*
X158335714Y-74555952D01*
X158288095Y-74603571D01*
X158192857Y-74651190D01*
X157811904Y-74651190D01*
X159240476Y-74127380D02*
X159050000Y-74127380D01*
X158954761Y-74175000D01*
X158907142Y-74222619D01*
X158811904Y-74365476D01*
X158764285Y-74555952D01*
X158764285Y-74936904D01*
X158811904Y-75032142D01*
X158859523Y-75079761D01*
X158954761Y-75127380D01*
X159145238Y-75127380D01*
X159240476Y-75079761D01*
X159288095Y-75032142D01*
X159335714Y-74936904D01*
X159335714Y-74698809D01*
X159288095Y-74603571D01*
X159240476Y-74555952D01*
X159145238Y-74508333D01*
X158954761Y-74508333D01*
X158859523Y-74555952D01*
X158811904Y-74603571D01*
X158764285Y-74698809D01*
%TO.C,R5*%
X154265333Y-96273880D02*
X153932000Y-95797690D01*
X153693904Y-96273880D02*
X153693904Y-95273880D01*
X154074857Y-95273880D01*
X154170095Y-95321500D01*
X154217714Y-95369119D01*
X154265333Y-95464357D01*
X154265333Y-95607214D01*
X154217714Y-95702452D01*
X154170095Y-95750071D01*
X154074857Y-95797690D01*
X153693904Y-95797690D01*
X155170095Y-95273880D02*
X154693904Y-95273880D01*
X154646285Y-95750071D01*
X154693904Y-95702452D01*
X154789142Y-95654833D01*
X155027238Y-95654833D01*
X155122476Y-95702452D01*
X155170095Y-95750071D01*
X155217714Y-95845309D01*
X155217714Y-96083404D01*
X155170095Y-96178642D01*
X155122476Y-96226261D01*
X155027238Y-96273880D01*
X154789142Y-96273880D01*
X154693904Y-96226261D01*
X154646285Y-96178642D01*
%TO.C,R4*%
X148804333Y-93606880D02*
X148471000Y-93130690D01*
X148232904Y-93606880D02*
X148232904Y-92606880D01*
X148613857Y-92606880D01*
X148709095Y-92654500D01*
X148756714Y-92702119D01*
X148804333Y-92797357D01*
X148804333Y-92940214D01*
X148756714Y-93035452D01*
X148709095Y-93083071D01*
X148613857Y-93130690D01*
X148232904Y-93130690D01*
X149661476Y-92940214D02*
X149661476Y-93606880D01*
X149423380Y-92559261D02*
X149185285Y-93273547D01*
X149804333Y-93273547D01*
%TO.C,R2*%
X121483333Y-146352380D02*
X121150000Y-145876190D01*
X120911904Y-146352380D02*
X120911904Y-145352380D01*
X121292857Y-145352380D01*
X121388095Y-145400000D01*
X121435714Y-145447619D01*
X121483333Y-145542857D01*
X121483333Y-145685714D01*
X121435714Y-145780952D01*
X121388095Y-145828571D01*
X121292857Y-145876190D01*
X120911904Y-145876190D01*
X121864285Y-145447619D02*
X121911904Y-145400000D01*
X122007142Y-145352380D01*
X122245238Y-145352380D01*
X122340476Y-145400000D01*
X122388095Y-145447619D01*
X122435714Y-145542857D01*
X122435714Y-145638095D01*
X122388095Y-145780952D01*
X121816666Y-146352380D01*
X122435714Y-146352380D01*
%TO.C,R1*%
X109833333Y-136850380D02*
X109500000Y-136374190D01*
X109261904Y-136850380D02*
X109261904Y-135850380D01*
X109642857Y-135850380D01*
X109738095Y-135898000D01*
X109785714Y-135945619D01*
X109833333Y-136040857D01*
X109833333Y-136183714D01*
X109785714Y-136278952D01*
X109738095Y-136326571D01*
X109642857Y-136374190D01*
X109261904Y-136374190D01*
X110785714Y-136850380D02*
X110214285Y-136850380D01*
X110500000Y-136850380D02*
X110500000Y-135850380D01*
X110404761Y-135993238D01*
X110309523Y-136088476D01*
X110214285Y-136136095D01*
%TO.C,JP6*%
X174264446Y-126408880D02*
X174264446Y-127123166D01*
X174216827Y-127266023D01*
X174121589Y-127361261D01*
X173978732Y-127408880D01*
X173883494Y-127408880D01*
X174740637Y-127408880D02*
X174740637Y-126408880D01*
X175121589Y-126408880D01*
X175216827Y-126456500D01*
X175264446Y-126504119D01*
X175312065Y-126599357D01*
X175312065Y-126742214D01*
X175264446Y-126837452D01*
X175216827Y-126885071D01*
X175121589Y-126932690D01*
X174740637Y-126932690D01*
X176169208Y-126408880D02*
X175978732Y-126408880D01*
X175883494Y-126456500D01*
X175835875Y-126504119D01*
X175740637Y-126646976D01*
X175693018Y-126837452D01*
X175693018Y-127218404D01*
X175740637Y-127313642D01*
X175788256Y-127361261D01*
X175883494Y-127408880D01*
X176073970Y-127408880D01*
X176169208Y-127361261D01*
X176216827Y-127313642D01*
X176264446Y-127218404D01*
X176264446Y-126980309D01*
X176216827Y-126885071D01*
X176169208Y-126837452D01*
X176073970Y-126789833D01*
X175883494Y-126789833D01*
X175788256Y-126837452D01*
X175740637Y-126885071D01*
X175693018Y-126980309D01*
%TO.C,JP4*%
X155168386Y-129490220D02*
X155168386Y-130204506D01*
X155120767Y-130347363D01*
X155025529Y-130442601D01*
X154882672Y-130490220D01*
X154787434Y-130490220D01*
X155644577Y-130490220D02*
X155644577Y-129490220D01*
X156025529Y-129490220D01*
X156120767Y-129537840D01*
X156168386Y-129585459D01*
X156216005Y-129680697D01*
X156216005Y-129823554D01*
X156168386Y-129918792D01*
X156120767Y-129966411D01*
X156025529Y-130014030D01*
X155644577Y-130014030D01*
X157073148Y-129823554D02*
X157073148Y-130490220D01*
X156835053Y-129442601D02*
X156596958Y-130156887D01*
X157216005Y-130156887D01*
%TO.C,JP3*%
X140766666Y-138252380D02*
X140766666Y-138966666D01*
X140719047Y-139109523D01*
X140623809Y-139204761D01*
X140480952Y-139252380D01*
X140385714Y-139252380D01*
X141242857Y-139252380D02*
X141242857Y-138252380D01*
X141623809Y-138252380D01*
X141719047Y-138300000D01*
X141766666Y-138347619D01*
X141814285Y-138442857D01*
X141814285Y-138585714D01*
X141766666Y-138680952D01*
X141719047Y-138728571D01*
X141623809Y-138776190D01*
X141242857Y-138776190D01*
X142147619Y-138252380D02*
X142766666Y-138252380D01*
X142433333Y-138633333D01*
X142576190Y-138633333D01*
X142671428Y-138680952D01*
X142719047Y-138728571D01*
X142766666Y-138823809D01*
X142766666Y-139061904D01*
X142719047Y-139157142D01*
X142671428Y-139204761D01*
X142576190Y-139252380D01*
X142290476Y-139252380D01*
X142195238Y-139204761D01*
X142147619Y-139157142D01*
%TO.C,JP1*%
X115166666Y-138302380D02*
X115166666Y-139016666D01*
X115119047Y-139159523D01*
X115023809Y-139254761D01*
X114880952Y-139302380D01*
X114785714Y-139302380D01*
X115642857Y-139302380D02*
X115642857Y-138302380D01*
X116023809Y-138302380D01*
X116119047Y-138350000D01*
X116166666Y-138397619D01*
X116214285Y-138492857D01*
X116214285Y-138635714D01*
X116166666Y-138730952D01*
X116119047Y-138778571D01*
X116023809Y-138826190D01*
X115642857Y-138826190D01*
X117166666Y-139302380D02*
X116595238Y-139302380D01*
X116880952Y-139302380D02*
X116880952Y-138302380D01*
X116785714Y-138445238D01*
X116690476Y-138540476D01*
X116595238Y-138588095D01*
%TO.C,J7*%
X182791506Y-93602380D02*
X182791506Y-94316666D01*
X182743887Y-94459523D01*
X182648649Y-94554761D01*
X182505792Y-94602380D01*
X182410554Y-94602380D01*
X183172459Y-93602380D02*
X183839125Y-93602380D01*
X183410554Y-94602380D01*
%TO.C,F3*%
X178266666Y-87528571D02*
X177933333Y-87528571D01*
X177933333Y-88052380D02*
X177933333Y-87052380D01*
X178409523Y-87052380D01*
X178695238Y-87052380D02*
X179314285Y-87052380D01*
X178980952Y-87433333D01*
X179123809Y-87433333D01*
X179219047Y-87480952D01*
X179266666Y-87528571D01*
X179314285Y-87623809D01*
X179314285Y-87861904D01*
X179266666Y-87957142D01*
X179219047Y-88004761D01*
X179123809Y-88052380D01*
X178838095Y-88052380D01*
X178742857Y-88004761D01*
X178695238Y-87957142D01*
%TO.C,F1*%
X178341666Y-91103571D02*
X178008333Y-91103571D01*
X178008333Y-91627380D02*
X178008333Y-90627380D01*
X178484523Y-90627380D01*
X179389285Y-91627380D02*
X178817857Y-91627380D01*
X179103571Y-91627380D02*
X179103571Y-90627380D01*
X179008333Y-90770238D01*
X178913095Y-90865476D01*
X178817857Y-90913095D01*
%TO.C,D5*%
X142390904Y-101480880D02*
X142390904Y-100480880D01*
X142629000Y-100480880D01*
X142771857Y-100528500D01*
X142867095Y-100623738D01*
X142914714Y-100718976D01*
X142962333Y-100909452D01*
X142962333Y-101052309D01*
X142914714Y-101242785D01*
X142867095Y-101338023D01*
X142771857Y-101433261D01*
X142629000Y-101480880D01*
X142390904Y-101480880D01*
X143867095Y-100480880D02*
X143390904Y-100480880D01*
X143343285Y-100957071D01*
X143390904Y-100909452D01*
X143486142Y-100861833D01*
X143724238Y-100861833D01*
X143819476Y-100909452D01*
X143867095Y-100957071D01*
X143914714Y-101052309D01*
X143914714Y-101290404D01*
X143867095Y-101385642D01*
X143819476Y-101433261D01*
X143724238Y-101480880D01*
X143486142Y-101480880D01*
X143390904Y-101433261D01*
X143343285Y-101385642D01*
%TO.C,D4*%
X154011404Y-101417380D02*
X154011404Y-100417380D01*
X154249500Y-100417380D01*
X154392357Y-100465000D01*
X154487595Y-100560238D01*
X154535214Y-100655476D01*
X154582833Y-100845952D01*
X154582833Y-100988809D01*
X154535214Y-101179285D01*
X154487595Y-101274523D01*
X154392357Y-101369761D01*
X154249500Y-101417380D01*
X154011404Y-101417380D01*
X155439976Y-100750714D02*
X155439976Y-101417380D01*
X155201880Y-100369761D02*
X154963785Y-101084047D01*
X155582833Y-101084047D01*
%TO.C,D3*%
X148232904Y-105989380D02*
X148232904Y-104989380D01*
X148471000Y-104989380D01*
X148613857Y-105037000D01*
X148709095Y-105132238D01*
X148756714Y-105227476D01*
X148804333Y-105417952D01*
X148804333Y-105560809D01*
X148756714Y-105751285D01*
X148709095Y-105846523D01*
X148613857Y-105941761D01*
X148471000Y-105989380D01*
X148232904Y-105989380D01*
X149137666Y-104989380D02*
X149756714Y-104989380D01*
X149423380Y-105370333D01*
X149566238Y-105370333D01*
X149661476Y-105417952D01*
X149709095Y-105465571D01*
X149756714Y-105560809D01*
X149756714Y-105798904D01*
X149709095Y-105894142D01*
X149661476Y-105941761D01*
X149566238Y-105989380D01*
X149280523Y-105989380D01*
X149185285Y-105941761D01*
X149137666Y-105894142D01*
%TO.C,D2*%
X145511904Y-120602380D02*
X145511904Y-119602380D01*
X145750000Y-119602380D01*
X145892857Y-119650000D01*
X145988095Y-119745238D01*
X146035714Y-119840476D01*
X146083333Y-120030952D01*
X146083333Y-120173809D01*
X146035714Y-120364285D01*
X145988095Y-120459523D01*
X145892857Y-120554761D01*
X145750000Y-120602380D01*
X145511904Y-120602380D01*
X146464285Y-119697619D02*
X146511904Y-119650000D01*
X146607142Y-119602380D01*
X146845238Y-119602380D01*
X146940476Y-119650000D01*
X146988095Y-119697619D01*
X147035714Y-119792857D01*
X147035714Y-119888095D01*
X146988095Y-120030952D01*
X146416666Y-120602380D01*
X147035714Y-120602380D01*
%TO.C,D1*%
X119711904Y-121852380D02*
X119711904Y-120852380D01*
X119950000Y-120852380D01*
X120092857Y-120900000D01*
X120188095Y-120995238D01*
X120235714Y-121090476D01*
X120283333Y-121280952D01*
X120283333Y-121423809D01*
X120235714Y-121614285D01*
X120188095Y-121709523D01*
X120092857Y-121804761D01*
X119950000Y-121852380D01*
X119711904Y-121852380D01*
X121235714Y-121852380D02*
X120664285Y-121852380D01*
X120950000Y-121852380D02*
X120950000Y-120852380D01*
X120854761Y-120995238D01*
X120759523Y-121090476D01*
X120664285Y-121138095D01*
%TO.C,C31*%
X177451782Y-95215982D02*
X177404163Y-95263601D01*
X177261306Y-95311220D01*
X177166068Y-95311220D01*
X177023211Y-95263601D01*
X176927973Y-95168363D01*
X176880354Y-95073125D01*
X176832735Y-94882649D01*
X176832735Y-94739792D01*
X176880354Y-94549316D01*
X176927973Y-94454078D01*
X177023211Y-94358840D01*
X177166068Y-94311220D01*
X177261306Y-94311220D01*
X177404163Y-94358840D01*
X177451782Y-94406459D01*
X177785116Y-94311220D02*
X178404163Y-94311220D01*
X178070830Y-94692173D01*
X178213687Y-94692173D01*
X178308925Y-94739792D01*
X178356544Y-94787411D01*
X178404163Y-94882649D01*
X178404163Y-95120744D01*
X178356544Y-95215982D01*
X178308925Y-95263601D01*
X178213687Y-95311220D01*
X177927973Y-95311220D01*
X177832735Y-95263601D01*
X177785116Y-95215982D01*
X179356544Y-95311220D02*
X178785116Y-95311220D01*
X179070830Y-95311220D02*
X179070830Y-94311220D01*
X178975592Y-94454078D01*
X178880354Y-94549316D01*
X178785116Y-94596935D01*
%TO.C,C30*%
X114737142Y-108657142D02*
X114689523Y-108704761D01*
X114546666Y-108752380D01*
X114451428Y-108752380D01*
X114308571Y-108704761D01*
X114213333Y-108609523D01*
X114165714Y-108514285D01*
X114118095Y-108323809D01*
X114118095Y-108180952D01*
X114165714Y-107990476D01*
X114213333Y-107895238D01*
X114308571Y-107800000D01*
X114451428Y-107752380D01*
X114546666Y-107752380D01*
X114689523Y-107800000D01*
X114737142Y-107847619D01*
X115070476Y-107752380D02*
X115689523Y-107752380D01*
X115356190Y-108133333D01*
X115499047Y-108133333D01*
X115594285Y-108180952D01*
X115641904Y-108228571D01*
X115689523Y-108323809D01*
X115689523Y-108561904D01*
X115641904Y-108657142D01*
X115594285Y-108704761D01*
X115499047Y-108752380D01*
X115213333Y-108752380D01*
X115118095Y-108704761D01*
X115070476Y-108657142D01*
X116308571Y-107752380D02*
X116403809Y-107752380D01*
X116499047Y-107800000D01*
X116546666Y-107847619D01*
X116594285Y-107942857D01*
X116641904Y-108133333D01*
X116641904Y-108371428D01*
X116594285Y-108561904D01*
X116546666Y-108657142D01*
X116499047Y-108704761D01*
X116403809Y-108752380D01*
X116308571Y-108752380D01*
X116213333Y-108704761D01*
X116165714Y-108657142D01*
X116118095Y-108561904D01*
X116070476Y-108371428D01*
X116070476Y-108133333D01*
X116118095Y-107942857D01*
X116165714Y-107847619D01*
X116213333Y-107800000D01*
X116308571Y-107752380D01*
%TO.C,C29*%
X179062142Y-120697262D02*
X179014523Y-120744881D01*
X178871666Y-120792500D01*
X178776428Y-120792500D01*
X178633571Y-120744881D01*
X178538333Y-120649643D01*
X178490714Y-120554405D01*
X178443095Y-120363929D01*
X178443095Y-120221072D01*
X178490714Y-120030596D01*
X178538333Y-119935358D01*
X178633571Y-119840120D01*
X178776428Y-119792500D01*
X178871666Y-119792500D01*
X179014523Y-119840120D01*
X179062142Y-119887739D01*
X179443095Y-119887739D02*
X179490714Y-119840120D01*
X179585952Y-119792500D01*
X179824047Y-119792500D01*
X179919285Y-119840120D01*
X179966904Y-119887739D01*
X180014523Y-119982977D01*
X180014523Y-120078215D01*
X179966904Y-120221072D01*
X179395476Y-120792500D01*
X180014523Y-120792500D01*
X180490714Y-120792500D02*
X180681190Y-120792500D01*
X180776428Y-120744881D01*
X180824047Y-120697262D01*
X180919285Y-120554405D01*
X180966904Y-120363929D01*
X180966904Y-119982977D01*
X180919285Y-119887739D01*
X180871666Y-119840120D01*
X180776428Y-119792500D01*
X180585952Y-119792500D01*
X180490714Y-119840120D01*
X180443095Y-119887739D01*
X180395476Y-119982977D01*
X180395476Y-120221072D01*
X180443095Y-120316310D01*
X180490714Y-120363929D01*
X180585952Y-120411548D01*
X180776428Y-120411548D01*
X180871666Y-120363929D01*
X180919285Y-120316310D01*
X180966904Y-120221072D01*
%TO.C,C28*%
X164666182Y-125910402D02*
X164618563Y-125958021D01*
X164475706Y-126005640D01*
X164380468Y-126005640D01*
X164237611Y-125958021D01*
X164142373Y-125862783D01*
X164094754Y-125767545D01*
X164047135Y-125577069D01*
X164047135Y-125434212D01*
X164094754Y-125243736D01*
X164142373Y-125148498D01*
X164237611Y-125053260D01*
X164380468Y-125005640D01*
X164475706Y-125005640D01*
X164618563Y-125053260D01*
X164666182Y-125100879D01*
X165047135Y-125100879D02*
X165094754Y-125053260D01*
X165189992Y-125005640D01*
X165428087Y-125005640D01*
X165523325Y-125053260D01*
X165570944Y-125100879D01*
X165618563Y-125196117D01*
X165618563Y-125291355D01*
X165570944Y-125434212D01*
X164999516Y-126005640D01*
X165618563Y-126005640D01*
X166189992Y-125434212D02*
X166094754Y-125386593D01*
X166047135Y-125338974D01*
X165999516Y-125243736D01*
X165999516Y-125196117D01*
X166047135Y-125100879D01*
X166094754Y-125053260D01*
X166189992Y-125005640D01*
X166380468Y-125005640D01*
X166475706Y-125053260D01*
X166523325Y-125100879D01*
X166570944Y-125196117D01*
X166570944Y-125243736D01*
X166523325Y-125338974D01*
X166475706Y-125386593D01*
X166380468Y-125434212D01*
X166189992Y-125434212D01*
X166094754Y-125481831D01*
X166047135Y-125529450D01*
X165999516Y-125624688D01*
X165999516Y-125815164D01*
X166047135Y-125910402D01*
X166094754Y-125958021D01*
X166189992Y-126005640D01*
X166380468Y-126005640D01*
X166475706Y-125958021D01*
X166523325Y-125910402D01*
X166570944Y-125815164D01*
X166570944Y-125624688D01*
X166523325Y-125529450D01*
X166475706Y-125481831D01*
X166380468Y-125434212D01*
%TO.C,C27*%
X169901324Y-137294820D02*
X169853705Y-137342439D01*
X169710848Y-137390058D01*
X169615610Y-137390058D01*
X169472753Y-137342439D01*
X169377515Y-137247201D01*
X169329896Y-137151963D01*
X169282277Y-136961487D01*
X169282277Y-136818630D01*
X169329896Y-136628154D01*
X169377515Y-136532916D01*
X169472753Y-136437678D01*
X169615610Y-136390058D01*
X169710848Y-136390058D01*
X169853705Y-136437678D01*
X169901324Y-136485297D01*
X170282277Y-136485297D02*
X170329896Y-136437678D01*
X170425134Y-136390058D01*
X170663229Y-136390058D01*
X170758467Y-136437678D01*
X170806086Y-136485297D01*
X170853705Y-136580535D01*
X170853705Y-136675773D01*
X170806086Y-136818630D01*
X170234658Y-137390058D01*
X170853705Y-137390058D01*
X171187039Y-136390058D02*
X171853705Y-136390058D01*
X171425134Y-137390058D01*
%TO.C,C26*%
X175871902Y-149665962D02*
X175824283Y-149713581D01*
X175681426Y-149761200D01*
X175586188Y-149761200D01*
X175443331Y-149713581D01*
X175348093Y-149618343D01*
X175300474Y-149523105D01*
X175252855Y-149332629D01*
X175252855Y-149189772D01*
X175300474Y-148999296D01*
X175348093Y-148904058D01*
X175443331Y-148808820D01*
X175586188Y-148761200D01*
X175681426Y-148761200D01*
X175824283Y-148808820D01*
X175871902Y-148856439D01*
X176252855Y-148856439D02*
X176300474Y-148808820D01*
X176395712Y-148761200D01*
X176633807Y-148761200D01*
X176729045Y-148808820D01*
X176776664Y-148856439D01*
X176824283Y-148951677D01*
X176824283Y-149046915D01*
X176776664Y-149189772D01*
X176205236Y-149761200D01*
X176824283Y-149761200D01*
X177681426Y-148761200D02*
X177490950Y-148761200D01*
X177395712Y-148808820D01*
X177348093Y-148856439D01*
X177252855Y-148999296D01*
X177205236Y-149189772D01*
X177205236Y-149570724D01*
X177252855Y-149665962D01*
X177300474Y-149713581D01*
X177395712Y-149761200D01*
X177586188Y-149761200D01*
X177681426Y-149713581D01*
X177729045Y-149665962D01*
X177776664Y-149570724D01*
X177776664Y-149332629D01*
X177729045Y-149237391D01*
X177681426Y-149189772D01*
X177586188Y-149142153D01*
X177395712Y-149142153D01*
X177300474Y-149189772D01*
X177252855Y-149237391D01*
X177205236Y-149332629D01*
%TO.C,C25*%
X165582142Y-147307142D02*
X165534523Y-147354761D01*
X165391666Y-147402380D01*
X165296428Y-147402380D01*
X165153571Y-147354761D01*
X165058333Y-147259523D01*
X165010714Y-147164285D01*
X164963095Y-146973809D01*
X164963095Y-146830952D01*
X165010714Y-146640476D01*
X165058333Y-146545238D01*
X165153571Y-146450000D01*
X165296428Y-146402380D01*
X165391666Y-146402380D01*
X165534523Y-146450000D01*
X165582142Y-146497619D01*
X165963095Y-146497619D02*
X166010714Y-146450000D01*
X166105952Y-146402380D01*
X166344047Y-146402380D01*
X166439285Y-146450000D01*
X166486904Y-146497619D01*
X166534523Y-146592857D01*
X166534523Y-146688095D01*
X166486904Y-146830952D01*
X165915476Y-147402380D01*
X166534523Y-147402380D01*
X167439285Y-146402380D02*
X166963095Y-146402380D01*
X166915476Y-146878571D01*
X166963095Y-146830952D01*
X167058333Y-146783333D01*
X167296428Y-146783333D01*
X167391666Y-146830952D01*
X167439285Y-146878571D01*
X167486904Y-146973809D01*
X167486904Y-147211904D01*
X167439285Y-147307142D01*
X167391666Y-147354761D01*
X167296428Y-147402380D01*
X167058333Y-147402380D01*
X166963095Y-147354761D01*
X166915476Y-147307142D01*
%TO.C,C24*%
X165865142Y-133215142D02*
X165817523Y-133262761D01*
X165674666Y-133310380D01*
X165579428Y-133310380D01*
X165436571Y-133262761D01*
X165341333Y-133167523D01*
X165293714Y-133072285D01*
X165246095Y-132881809D01*
X165246095Y-132738952D01*
X165293714Y-132548476D01*
X165341333Y-132453238D01*
X165436571Y-132358000D01*
X165579428Y-132310380D01*
X165674666Y-132310380D01*
X165817523Y-132358000D01*
X165865142Y-132405619D01*
X166246095Y-132405619D02*
X166293714Y-132358000D01*
X166388952Y-132310380D01*
X166627047Y-132310380D01*
X166722285Y-132358000D01*
X166769904Y-132405619D01*
X166817523Y-132500857D01*
X166817523Y-132596095D01*
X166769904Y-132738952D01*
X166198476Y-133310380D01*
X166817523Y-133310380D01*
X167674666Y-132643714D02*
X167674666Y-133310380D01*
X167436571Y-132262761D02*
X167198476Y-132977047D01*
X167817523Y-132977047D01*
%TO.C,C23*%
X154170142Y-119495842D02*
X154122523Y-119543461D01*
X153979666Y-119591080D01*
X153884428Y-119591080D01*
X153741571Y-119543461D01*
X153646333Y-119448223D01*
X153598714Y-119352985D01*
X153551095Y-119162509D01*
X153551095Y-119019652D01*
X153598714Y-118829176D01*
X153646333Y-118733938D01*
X153741571Y-118638700D01*
X153884428Y-118591080D01*
X153979666Y-118591080D01*
X154122523Y-118638700D01*
X154170142Y-118686319D01*
X154551095Y-118686319D02*
X154598714Y-118638700D01*
X154693952Y-118591080D01*
X154932047Y-118591080D01*
X155027285Y-118638700D01*
X155074904Y-118686319D01*
X155122523Y-118781557D01*
X155122523Y-118876795D01*
X155074904Y-119019652D01*
X154503476Y-119591080D01*
X155122523Y-119591080D01*
X155455857Y-118591080D02*
X156074904Y-118591080D01*
X155741571Y-118972033D01*
X155884428Y-118972033D01*
X155979666Y-119019652D01*
X156027285Y-119067271D01*
X156074904Y-119162509D01*
X156074904Y-119400604D01*
X156027285Y-119495842D01*
X155979666Y-119543461D01*
X155884428Y-119591080D01*
X155598714Y-119591080D01*
X155503476Y-119543461D01*
X155455857Y-119495842D01*
%TO.C,C22*%
X143857142Y-126619142D02*
X143809523Y-126666761D01*
X143666666Y-126714380D01*
X143571428Y-126714380D01*
X143428571Y-126666761D01*
X143333333Y-126571523D01*
X143285714Y-126476285D01*
X143238095Y-126285809D01*
X143238095Y-126142952D01*
X143285714Y-125952476D01*
X143333333Y-125857238D01*
X143428571Y-125762000D01*
X143571428Y-125714380D01*
X143666666Y-125714380D01*
X143809523Y-125762000D01*
X143857142Y-125809619D01*
X144238095Y-125809619D02*
X144285714Y-125762000D01*
X144380952Y-125714380D01*
X144619047Y-125714380D01*
X144714285Y-125762000D01*
X144761904Y-125809619D01*
X144809523Y-125904857D01*
X144809523Y-126000095D01*
X144761904Y-126142952D01*
X144190476Y-126714380D01*
X144809523Y-126714380D01*
X145190476Y-125809619D02*
X145238095Y-125762000D01*
X145333333Y-125714380D01*
X145571428Y-125714380D01*
X145666666Y-125762000D01*
X145714285Y-125809619D01*
X145761904Y-125904857D01*
X145761904Y-126000095D01*
X145714285Y-126142952D01*
X145142857Y-126714380D01*
X145761904Y-126714380D01*
%TO.C,C21*%
X145025560Y-137615643D02*
X144977941Y-137663262D01*
X144835084Y-137710881D01*
X144739846Y-137710881D01*
X144596989Y-137663262D01*
X144501751Y-137568024D01*
X144454132Y-137472786D01*
X144406513Y-137282310D01*
X144406513Y-137139453D01*
X144454132Y-136948977D01*
X144501751Y-136853739D01*
X144596989Y-136758501D01*
X144739846Y-136710881D01*
X144835084Y-136710881D01*
X144977941Y-136758501D01*
X145025560Y-136806120D01*
X145406513Y-136806120D02*
X145454132Y-136758501D01*
X145549370Y-136710881D01*
X145787465Y-136710881D01*
X145882703Y-136758501D01*
X145930322Y-136806120D01*
X145977941Y-136901358D01*
X145977941Y-136996596D01*
X145930322Y-137139453D01*
X145358894Y-137710881D01*
X145977941Y-137710881D01*
X146930322Y-137710881D02*
X146358894Y-137710881D01*
X146644608Y-137710881D02*
X146644608Y-136710881D01*
X146549370Y-136853739D01*
X146454132Y-136948977D01*
X146358894Y-136996596D01*
%TO.C,C19*%
X143807142Y-143407142D02*
X143759523Y-143454761D01*
X143616666Y-143502380D01*
X143521428Y-143502380D01*
X143378571Y-143454761D01*
X143283333Y-143359523D01*
X143235714Y-143264285D01*
X143188095Y-143073809D01*
X143188095Y-142930952D01*
X143235714Y-142740476D01*
X143283333Y-142645238D01*
X143378571Y-142550000D01*
X143521428Y-142502380D01*
X143616666Y-142502380D01*
X143759523Y-142550000D01*
X143807142Y-142597619D01*
X144759523Y-143502380D02*
X144188095Y-143502380D01*
X144473809Y-143502380D02*
X144473809Y-142502380D01*
X144378571Y-142645238D01*
X144283333Y-142740476D01*
X144188095Y-142788095D01*
X145235714Y-143502380D02*
X145426190Y-143502380D01*
X145521428Y-143454761D01*
X145569047Y-143407142D01*
X145664285Y-143264285D01*
X145711904Y-143073809D01*
X145711904Y-142692857D01*
X145664285Y-142597619D01*
X145616666Y-142550000D01*
X145521428Y-142502380D01*
X145330952Y-142502380D01*
X145235714Y-142550000D01*
X145188095Y-142597619D01*
X145140476Y-142692857D01*
X145140476Y-142930952D01*
X145188095Y-143026190D01*
X145235714Y-143073809D01*
X145330952Y-143121428D01*
X145521428Y-143121428D01*
X145616666Y-143073809D01*
X145664285Y-143026190D01*
X145711904Y-142930952D01*
%TO.C,C14*%
X115943142Y-74525142D02*
X115895523Y-74572761D01*
X115752666Y-74620380D01*
X115657428Y-74620380D01*
X115514571Y-74572761D01*
X115419333Y-74477523D01*
X115371714Y-74382285D01*
X115324095Y-74191809D01*
X115324095Y-74048952D01*
X115371714Y-73858476D01*
X115419333Y-73763238D01*
X115514571Y-73668000D01*
X115657428Y-73620380D01*
X115752666Y-73620380D01*
X115895523Y-73668000D01*
X115943142Y-73715619D01*
X116895523Y-74620380D02*
X116324095Y-74620380D01*
X116609809Y-74620380D02*
X116609809Y-73620380D01*
X116514571Y-73763238D01*
X116419333Y-73858476D01*
X116324095Y-73906095D01*
X117752666Y-73953714D02*
X117752666Y-74620380D01*
X117514571Y-73572761D02*
X117276476Y-74287047D01*
X117895523Y-74287047D01*
%TO.C,C13*%
X119367062Y-84738482D02*
X119319443Y-84786101D01*
X119176586Y-84833720D01*
X119081348Y-84833720D01*
X118938491Y-84786101D01*
X118843253Y-84690863D01*
X118795634Y-84595625D01*
X118748015Y-84405149D01*
X118748015Y-84262292D01*
X118795634Y-84071816D01*
X118843253Y-83976578D01*
X118938491Y-83881340D01*
X119081348Y-83833720D01*
X119176586Y-83833720D01*
X119319443Y-83881340D01*
X119367062Y-83928959D01*
X120319443Y-84833720D02*
X119748015Y-84833720D01*
X120033729Y-84833720D02*
X120033729Y-83833720D01*
X119938491Y-83976578D01*
X119843253Y-84071816D01*
X119748015Y-84119435D01*
X120652777Y-83833720D02*
X121271824Y-83833720D01*
X120938491Y-84214673D01*
X121081348Y-84214673D01*
X121176586Y-84262292D01*
X121224205Y-84309911D01*
X121271824Y-84405149D01*
X121271824Y-84643244D01*
X121224205Y-84738482D01*
X121176586Y-84786101D01*
X121081348Y-84833720D01*
X120795634Y-84833720D01*
X120700396Y-84786101D01*
X120652777Y-84738482D01*
%TO.C,C12*%
X127557142Y-145407142D02*
X127509523Y-145454761D01*
X127366666Y-145502380D01*
X127271428Y-145502380D01*
X127128571Y-145454761D01*
X127033333Y-145359523D01*
X126985714Y-145264285D01*
X126938095Y-145073809D01*
X126938095Y-144930952D01*
X126985714Y-144740476D01*
X127033333Y-144645238D01*
X127128571Y-144550000D01*
X127271428Y-144502380D01*
X127366666Y-144502380D01*
X127509523Y-144550000D01*
X127557142Y-144597619D01*
X128509523Y-145502380D02*
X127938095Y-145502380D01*
X128223809Y-145502380D02*
X128223809Y-144502380D01*
X128128571Y-144645238D01*
X128033333Y-144740476D01*
X127938095Y-144788095D01*
X128890476Y-144597619D02*
X128938095Y-144550000D01*
X129033333Y-144502380D01*
X129271428Y-144502380D01*
X129366666Y-144550000D01*
X129414285Y-144597619D01*
X129461904Y-144692857D01*
X129461904Y-144788095D01*
X129414285Y-144930952D01*
X128842857Y-145502380D01*
X129461904Y-145502380D01*
%TO.C,C11*%
X113262342Y-78504142D02*
X113214723Y-78551761D01*
X113071866Y-78599380D01*
X112976628Y-78599380D01*
X112833771Y-78551761D01*
X112738533Y-78456523D01*
X112690914Y-78361285D01*
X112643295Y-78170809D01*
X112643295Y-78027952D01*
X112690914Y-77837476D01*
X112738533Y-77742238D01*
X112833771Y-77647000D01*
X112976628Y-77599380D01*
X113071866Y-77599380D01*
X113214723Y-77647000D01*
X113262342Y-77694619D01*
X114214723Y-78599380D02*
X113643295Y-78599380D01*
X113929009Y-78599380D02*
X113929009Y-77599380D01*
X113833771Y-77742238D01*
X113738533Y-77837476D01*
X113643295Y-77885095D01*
X115167104Y-78599380D02*
X114595676Y-78599380D01*
X114881390Y-78599380D02*
X114881390Y-77599380D01*
X114786152Y-77742238D01*
X114690914Y-77837476D01*
X114595676Y-77885095D01*
%TO.C,C10*%
X136532142Y-70607142D02*
X136484523Y-70654761D01*
X136341666Y-70702380D01*
X136246428Y-70702380D01*
X136103571Y-70654761D01*
X136008333Y-70559523D01*
X135960714Y-70464285D01*
X135913095Y-70273809D01*
X135913095Y-70130952D01*
X135960714Y-69940476D01*
X136008333Y-69845238D01*
X136103571Y-69750000D01*
X136246428Y-69702380D01*
X136341666Y-69702380D01*
X136484523Y-69750000D01*
X136532142Y-69797619D01*
X137484523Y-70702380D02*
X136913095Y-70702380D01*
X137198809Y-70702380D02*
X137198809Y-69702380D01*
X137103571Y-69845238D01*
X137008333Y-69940476D01*
X136913095Y-69988095D01*
X138103571Y-69702380D02*
X138198809Y-69702380D01*
X138294047Y-69750000D01*
X138341666Y-69797619D01*
X138389285Y-69892857D01*
X138436904Y-70083333D01*
X138436904Y-70321428D01*
X138389285Y-70511904D01*
X138341666Y-70607142D01*
X138294047Y-70654761D01*
X138198809Y-70702380D01*
X138103571Y-70702380D01*
X138008333Y-70654761D01*
X137960714Y-70607142D01*
X137913095Y-70511904D01*
X137865476Y-70321428D01*
X137865476Y-70083333D01*
X137913095Y-69892857D01*
X137960714Y-69797619D01*
X138008333Y-69750000D01*
X138103571Y-69702380D01*
%TO.C,C9*%
X147983333Y-70632142D02*
X147935714Y-70679761D01*
X147792857Y-70727380D01*
X147697619Y-70727380D01*
X147554761Y-70679761D01*
X147459523Y-70584523D01*
X147411904Y-70489285D01*
X147364285Y-70298809D01*
X147364285Y-70155952D01*
X147411904Y-69965476D01*
X147459523Y-69870238D01*
X147554761Y-69775000D01*
X147697619Y-69727380D01*
X147792857Y-69727380D01*
X147935714Y-69775000D01*
X147983333Y-69822619D01*
X148459523Y-70727380D02*
X148650000Y-70727380D01*
X148745238Y-70679761D01*
X148792857Y-70632142D01*
X148888095Y-70489285D01*
X148935714Y-70298809D01*
X148935714Y-69917857D01*
X148888095Y-69822619D01*
X148840476Y-69775000D01*
X148745238Y-69727380D01*
X148554761Y-69727380D01*
X148459523Y-69775000D01*
X148411904Y-69822619D01*
X148364285Y-69917857D01*
X148364285Y-70155952D01*
X148411904Y-70251190D01*
X148459523Y-70298809D01*
X148554761Y-70346428D01*
X148745238Y-70346428D01*
X148840476Y-70298809D01*
X148888095Y-70251190D01*
X148935714Y-70155952D01*
%TO.C,C7*%
X117058333Y-136432142D02*
X117010714Y-136479761D01*
X116867857Y-136527380D01*
X116772619Y-136527380D01*
X116629761Y-136479761D01*
X116534523Y-136384523D01*
X116486904Y-136289285D01*
X116439285Y-136098809D01*
X116439285Y-135955952D01*
X116486904Y-135765476D01*
X116534523Y-135670238D01*
X116629761Y-135575000D01*
X116772619Y-135527380D01*
X116867857Y-135527380D01*
X117010714Y-135575000D01*
X117058333Y-135622619D01*
X117391666Y-135527380D02*
X118058333Y-135527380D01*
X117629761Y-136527380D01*
%TO.C,C6*%
X166958173Y-86107142D02*
X166910554Y-86154761D01*
X166767697Y-86202380D01*
X166672459Y-86202380D01*
X166529601Y-86154761D01*
X166434363Y-86059523D01*
X166386744Y-85964285D01*
X166339125Y-85773809D01*
X166339125Y-85630952D01*
X166386744Y-85440476D01*
X166434363Y-85345238D01*
X166529601Y-85250000D01*
X166672459Y-85202380D01*
X166767697Y-85202380D01*
X166910554Y-85250000D01*
X166958173Y-85297619D01*
X167815316Y-85202380D02*
X167624840Y-85202380D01*
X167529601Y-85250000D01*
X167481982Y-85297619D01*
X167386744Y-85440476D01*
X167339125Y-85630952D01*
X167339125Y-86011904D01*
X167386744Y-86107142D01*
X167434363Y-86154761D01*
X167529601Y-86202380D01*
X167720078Y-86202380D01*
X167815316Y-86154761D01*
X167862935Y-86107142D01*
X167910554Y-86011904D01*
X167910554Y-85773809D01*
X167862935Y-85678571D01*
X167815316Y-85630952D01*
X167720078Y-85583333D01*
X167529601Y-85583333D01*
X167434363Y-85630952D01*
X167386744Y-85678571D01*
X167339125Y-85773809D01*
%TO.C,C5*%
X185741013Y-78731382D02*
X185693394Y-78779001D01*
X185550537Y-78826620D01*
X185455299Y-78826620D01*
X185312441Y-78779001D01*
X185217203Y-78683763D01*
X185169584Y-78588525D01*
X185121965Y-78398049D01*
X185121965Y-78255192D01*
X185169584Y-78064716D01*
X185217203Y-77969478D01*
X185312441Y-77874240D01*
X185455299Y-77826620D01*
X185550537Y-77826620D01*
X185693394Y-77874240D01*
X185741013Y-77921859D01*
X186645775Y-77826620D02*
X186169584Y-77826620D01*
X186121965Y-78302811D01*
X186169584Y-78255192D01*
X186264822Y-78207573D01*
X186502918Y-78207573D01*
X186598156Y-78255192D01*
X186645775Y-78302811D01*
X186693394Y-78398049D01*
X186693394Y-78636144D01*
X186645775Y-78731382D01*
X186598156Y-78779001D01*
X186502918Y-78826620D01*
X186264822Y-78826620D01*
X186169584Y-78779001D01*
X186121965Y-78731382D01*
%TO.C,C4*%
X178133173Y-78791422D02*
X178085554Y-78839041D01*
X177942697Y-78886660D01*
X177847459Y-78886660D01*
X177704601Y-78839041D01*
X177609363Y-78743803D01*
X177561744Y-78648565D01*
X177514125Y-78458089D01*
X177514125Y-78315232D01*
X177561744Y-78124756D01*
X177609363Y-78029518D01*
X177704601Y-77934280D01*
X177847459Y-77886660D01*
X177942697Y-77886660D01*
X178085554Y-77934280D01*
X178133173Y-77981899D01*
X178990316Y-78219994D02*
X178990316Y-78886660D01*
X178752220Y-77839041D02*
X178514125Y-78553327D01*
X179133173Y-78553327D01*
%TO.C,C3*%
X152309533Y-78347842D02*
X152261914Y-78395461D01*
X152119057Y-78443080D01*
X152023819Y-78443080D01*
X151880961Y-78395461D01*
X151785723Y-78300223D01*
X151738104Y-78204985D01*
X151690485Y-78014509D01*
X151690485Y-77871652D01*
X151738104Y-77681176D01*
X151785723Y-77585938D01*
X151880961Y-77490700D01*
X152023819Y-77443080D01*
X152119057Y-77443080D01*
X152261914Y-77490700D01*
X152309533Y-77538319D01*
X152642866Y-77443080D02*
X153261914Y-77443080D01*
X152928580Y-77824033D01*
X153071438Y-77824033D01*
X153166676Y-77871652D01*
X153214295Y-77919271D01*
X153261914Y-78014509D01*
X153261914Y-78252604D01*
X153214295Y-78347842D01*
X153166676Y-78395461D01*
X153071438Y-78443080D01*
X152785723Y-78443080D01*
X152690485Y-78395461D01*
X152642866Y-78347842D01*
%TO.C,C2*%
X184998173Y-75421422D02*
X184950554Y-75469041D01*
X184807697Y-75516660D01*
X184712459Y-75516660D01*
X184569601Y-75469041D01*
X184474363Y-75373803D01*
X184426744Y-75278565D01*
X184379125Y-75088089D01*
X184379125Y-74945232D01*
X184426744Y-74754756D01*
X184474363Y-74659518D01*
X184569601Y-74564280D01*
X184712459Y-74516660D01*
X184807697Y-74516660D01*
X184950554Y-74564280D01*
X184998173Y-74611899D01*
X185379125Y-74611899D02*
X185426744Y-74564280D01*
X185521982Y-74516660D01*
X185760078Y-74516660D01*
X185855316Y-74564280D01*
X185902935Y-74611899D01*
X185950554Y-74707137D01*
X185950554Y-74802375D01*
X185902935Y-74945232D01*
X185331506Y-75516660D01*
X185950554Y-75516660D01*
%TO.C,C1*%
X173958173Y-81636422D02*
X173910554Y-81684041D01*
X173767697Y-81731660D01*
X173672459Y-81731660D01*
X173529601Y-81684041D01*
X173434363Y-81588803D01*
X173386744Y-81493565D01*
X173339125Y-81303089D01*
X173339125Y-81160232D01*
X173386744Y-80969756D01*
X173434363Y-80874518D01*
X173529601Y-80779280D01*
X173672459Y-80731660D01*
X173767697Y-80731660D01*
X173910554Y-80779280D01*
X173958173Y-80826899D01*
X174910554Y-81731660D02*
X174339125Y-81731660D01*
X174624840Y-81731660D02*
X174624840Y-80731660D01*
X174529601Y-80874518D01*
X174434363Y-80969756D01*
X174339125Y-81017375D01*
%TD*%
M02*
