G04 #@! TF.GenerationSoftware,KiCad,Pcbnew,6.0.0*
G04 #@! TF.CreationDate,2022-02-03T14:52:20-05:00*
G04 #@! TF.ProjectId,mama_board,6d616d61-5f62-46f6-9172-642e6b696361,rev?*
G04 #@! TF.SameCoordinates,Original*
G04 #@! TF.FileFunction,Legend,Bot*
G04 #@! TF.FilePolarity,Positive*
%FSLAX46Y46*%
G04 Gerber Fmt 4.6, Leading zero omitted, Abs format (unit mm)*
G04 Created by KiCad (PCBNEW 6.0.0) date 2022-02-03 14:52:20*
%MOMM*%
%LPD*%
G01*
G04 APERTURE LIST*
G04 Aperture macros list*
%AMRoundRect*
0 Rectangle with rounded corners*
0 $1 Rounding radius*
0 $2 $3 $4 $5 $6 $7 $8 $9 X,Y pos of 4 corners*
0 Add a 4 corners polygon primitive as box body*
4,1,4,$2,$3,$4,$5,$6,$7,$8,$9,$2,$3,0*
0 Add four circle primitives for the rounded corners*
1,1,$1+$1,$2,$3*
1,1,$1+$1,$4,$5*
1,1,$1+$1,$6,$7*
1,1,$1+$1,$8,$9*
0 Add four rect primitives between the rounded corners*
20,1,$1+$1,$2,$3,$4,$5,0*
20,1,$1+$1,$4,$5,$6,$7,0*
20,1,$1+$1,$6,$7,$8,$9,0*
20,1,$1+$1,$8,$9,$2,$3,0*%
G04 Aperture macros list end*
%ADD10C,0.150000*%
%ADD11C,0.120000*%
%ADD12C,1.625600*%
%ADD13O,1.701600X1.701600*%
%ADD14RoundRect,0.050800X0.800000X0.800000X-0.800000X0.800000X-0.800000X-0.800000X0.800000X-0.800000X0*%
%ADD15C,7.101600*%
%ADD16RoundRect,0.050800X-0.850000X-0.850000X0.850000X-0.850000X0.850000X0.850000X-0.850000X0.850000X0*%
%ADD17O,1.801600X1.801600*%
%ADD18RoundRect,0.050800X0.850000X-0.850000X0.850000X0.850000X-0.850000X0.850000X-0.850000X-0.850000X0*%
%ADD19RoundRect,0.050800X0.850000X0.850000X-0.850000X0.850000X-0.850000X-0.850000X0.850000X-0.850000X0*%
%ADD20C,1.601600*%
%ADD21RoundRect,0.050800X-0.800000X-0.800000X0.800000X-0.800000X0.800000X0.800000X-0.800000X0.800000X0*%
%ADD22RoundRect,0.050800X-0.850000X0.850000X-0.850000X-0.850000X0.850000X-0.850000X0.850000X0.850000X0*%
%ADD23C,1.301600*%
%ADD24RoundRect,0.050800X0.600000X-0.600000X0.600000X0.600000X-0.600000X0.600000X-0.600000X-0.600000X0*%
%ADD25C,2.301600*%
G04 APERTURE END LIST*
D10*
X182451261Y-128408180D02*
X182927452Y-128408180D01*
X182975071Y-128884371D01*
X182927452Y-128836752D01*
X182832214Y-128789133D01*
X182594119Y-128789133D01*
X182498880Y-128836752D01*
X182451261Y-128884371D01*
X182403642Y-128979609D01*
X182403642Y-129217704D01*
X182451261Y-129312942D01*
X182498880Y-129360561D01*
X182594119Y-129408180D01*
X182832214Y-129408180D01*
X182927452Y-129360561D01*
X182975071Y-129312942D01*
X181975071Y-129312942D02*
X181927452Y-129360561D01*
X181975071Y-129408180D01*
X182022690Y-129360561D01*
X181975071Y-129312942D01*
X181975071Y-129408180D01*
X181070309Y-128741514D02*
X181070309Y-129408180D01*
X181308404Y-128360561D02*
X181546500Y-129074847D01*
X180927452Y-129074847D01*
X180689357Y-128408180D02*
X180356023Y-129408180D01*
X180022690Y-128408180D01*
X118000000Y-134000000D02*
X117500000Y-134000000D01*
X117500000Y-134500000D02*
X117500000Y-134000000D01*
X117500000Y-134000000D02*
X122000000Y-138000000D01*
X112380976Y-127452380D02*
X112857166Y-127452380D01*
X112857166Y-126452380D01*
X112976214Y-129452380D02*
X112976214Y-128452380D01*
X112976214Y-128928571D02*
X112404785Y-128928571D01*
X112404785Y-129452380D02*
X112404785Y-128452380D01*
X182392224Y-124498480D02*
X182487462Y-124450860D01*
X182630320Y-124450860D01*
X182773177Y-124498480D01*
X182868415Y-124593718D01*
X182916034Y-124688956D01*
X182963653Y-124879432D01*
X182963653Y-125022289D01*
X182916034Y-125212765D01*
X182868415Y-125308003D01*
X182773177Y-125403241D01*
X182630320Y-125450860D01*
X182535081Y-125450860D01*
X182392224Y-125403241D01*
X182344605Y-125355622D01*
X182344605Y-125022289D01*
X182535081Y-125022289D01*
X181916034Y-125450860D02*
X181916034Y-124450860D01*
X181344605Y-125450860D01*
X181344605Y-124450860D01*
X180868415Y-125450860D02*
X180868415Y-124450860D01*
X180630320Y-124450860D01*
X180487462Y-124498480D01*
X180392224Y-124593718D01*
X180344605Y-124688956D01*
X180296986Y-124879432D01*
X180296986Y-125022289D01*
X180344605Y-125212765D01*
X180392224Y-125308003D01*
X180487462Y-125403241D01*
X180630320Y-125450860D01*
X180868415Y-125450860D01*
X182898895Y-126470160D02*
X182279847Y-126470160D01*
X182613180Y-126851113D01*
X182470323Y-126851113D01*
X182375085Y-126898732D01*
X182327466Y-126946351D01*
X182279847Y-127041589D01*
X182279847Y-127279684D01*
X182327466Y-127374922D01*
X182375085Y-127422541D01*
X182470323Y-127470160D01*
X182756038Y-127470160D01*
X182851276Y-127422541D01*
X182898895Y-127374922D01*
X181946514Y-126470160D02*
X181279847Y-126470160D01*
X181708419Y-127470160D01*
X181041752Y-126470160D02*
X180708419Y-127470160D01*
X180375085Y-126470160D01*
X182142857Y-137069660D02*
X182142857Y-136069660D01*
X181761904Y-136069660D01*
X181666666Y-136117280D01*
X181619047Y-136164899D01*
X181571428Y-136260137D01*
X181571428Y-136402994D01*
X181619047Y-136498232D01*
X181666666Y-136545851D01*
X181761904Y-136593470D01*
X182142857Y-136593470D01*
X180952380Y-136069660D02*
X180761904Y-136069660D01*
X180666666Y-136117280D01*
X180571428Y-136212518D01*
X180523809Y-136402994D01*
X180523809Y-136736327D01*
X180571428Y-136926803D01*
X180666666Y-137022041D01*
X180761904Y-137069660D01*
X180952380Y-137069660D01*
X181047619Y-137022041D01*
X181142857Y-136926803D01*
X181190476Y-136736327D01*
X181190476Y-136402994D01*
X181142857Y-136212518D01*
X181047619Y-136117280D01*
X180952380Y-136069660D01*
X180190476Y-136069660D02*
X179952380Y-137069660D01*
X179761904Y-136355375D01*
X179571428Y-137069660D01*
X179333333Y-136069660D01*
X178952380Y-136545851D02*
X178619047Y-136545851D01*
X178476190Y-137069660D02*
X178952380Y-137069660D01*
X178952380Y-136069660D01*
X178476190Y-136069660D01*
X177476190Y-137069660D02*
X177809523Y-136593470D01*
X178047619Y-137069660D02*
X178047619Y-136069660D01*
X177666666Y-136069660D01*
X177571428Y-136117280D01*
X177523809Y-136164899D01*
X177476190Y-136260137D01*
X177476190Y-136402994D01*
X177523809Y-136498232D01*
X177571428Y-136545851D01*
X177666666Y-136593470D01*
X178047619Y-136593470D01*
X175952380Y-136545851D02*
X175809523Y-136593470D01*
X175761904Y-136641089D01*
X175714285Y-136736327D01*
X175714285Y-136879184D01*
X175761904Y-136974422D01*
X175809523Y-137022041D01*
X175904761Y-137069660D01*
X176285714Y-137069660D01*
X176285714Y-136069660D01*
X175952380Y-136069660D01*
X175857142Y-136117280D01*
X175809523Y-136164899D01*
X175761904Y-136260137D01*
X175761904Y-136355375D01*
X175809523Y-136450613D01*
X175857142Y-136498232D01*
X175952380Y-136545851D01*
X176285714Y-136545851D01*
X175095238Y-136069660D02*
X174904761Y-136069660D01*
X174809523Y-136117280D01*
X174714285Y-136212518D01*
X174666666Y-136402994D01*
X174666666Y-136736327D01*
X174714285Y-136926803D01*
X174809523Y-137022041D01*
X174904761Y-137069660D01*
X175095238Y-137069660D01*
X175190476Y-137022041D01*
X175285714Y-136926803D01*
X175333333Y-136736327D01*
X175333333Y-136402994D01*
X175285714Y-136212518D01*
X175190476Y-136117280D01*
X175095238Y-136069660D01*
X174285714Y-136783946D02*
X173809523Y-136783946D01*
X174380952Y-137069660D02*
X174047619Y-136069660D01*
X173714285Y-137069660D01*
X172809523Y-137069660D02*
X173142857Y-136593470D01*
X173380952Y-137069660D02*
X173380952Y-136069660D01*
X173000000Y-136069660D01*
X172904761Y-136117280D01*
X172857142Y-136164899D01*
X172809523Y-136260137D01*
X172809523Y-136402994D01*
X172857142Y-136498232D01*
X172904761Y-136545851D01*
X173000000Y-136593470D01*
X173380952Y-136593470D01*
X172380952Y-137069660D02*
X172380952Y-136069660D01*
X172142857Y-136069660D01*
X172000000Y-136117280D01*
X171904761Y-136212518D01*
X171857142Y-136307756D01*
X171809523Y-136498232D01*
X171809523Y-136641089D01*
X171857142Y-136831565D01*
X171904761Y-136926803D01*
X172000000Y-137022041D01*
X172142857Y-137069660D01*
X172380952Y-137069660D01*
X186000000Y-136422280D02*
X186000000Y-135422280D01*
X185000000Y-136422280D02*
X186000000Y-136422280D01*
X185500000Y-135922280D02*
X186000000Y-135422280D01*
X186000000Y-135422280D02*
X186500000Y-135922280D01*
X185000000Y-136422280D02*
X182500000Y-136422280D01*
X109500000Y-136000000D02*
X110000000Y-135500000D01*
X110000000Y-135500000D02*
X110500000Y-136000000D01*
X110000000Y-138000000D02*
X110000000Y-135500000D01*
X113142857Y-139357142D02*
X113190476Y-139404761D01*
X113333333Y-139452380D01*
X113428571Y-139452380D01*
X113571428Y-139404761D01*
X113666666Y-139309523D01*
X113714285Y-139214285D01*
X113761904Y-139023809D01*
X113761904Y-138880952D01*
X113714285Y-138690476D01*
X113666666Y-138595238D01*
X113571428Y-138500000D01*
X113428571Y-138452380D01*
X113333333Y-138452380D01*
X113190476Y-138500000D01*
X113142857Y-138547619D01*
X112761904Y-139166666D02*
X112285714Y-139166666D01*
X112857142Y-139452380D02*
X112523809Y-138452380D01*
X112190476Y-139452380D01*
X111857142Y-139452380D02*
X111857142Y-138452380D01*
X111285714Y-139452380D01*
X111285714Y-138452380D01*
X110476190Y-138928571D02*
X110333333Y-138976190D01*
X110285714Y-139023809D01*
X110238095Y-139119047D01*
X110238095Y-139261904D01*
X110285714Y-139357142D01*
X110333333Y-139404761D01*
X110428571Y-139452380D01*
X110809523Y-139452380D01*
X110809523Y-138452380D01*
X110476190Y-138452380D01*
X110380952Y-138500000D01*
X110333333Y-138547619D01*
X110285714Y-138642857D01*
X110285714Y-138738095D01*
X110333333Y-138833333D01*
X110380952Y-138880952D01*
X110476190Y-138928571D01*
X110809523Y-138928571D01*
X109809523Y-138452380D02*
X109809523Y-139261904D01*
X109761904Y-139357142D01*
X109714285Y-139404761D01*
X109619047Y-139452380D01*
X109428571Y-139452380D01*
X109333333Y-139404761D01*
X109285714Y-139357142D01*
X109238095Y-139261904D01*
X109238095Y-138452380D01*
X108809523Y-139404761D02*
X108666666Y-139452380D01*
X108428571Y-139452380D01*
X108333333Y-139404761D01*
X108285714Y-139357142D01*
X108238095Y-139261904D01*
X108238095Y-139166666D01*
X108285714Y-139071428D01*
X108333333Y-139023809D01*
X108428571Y-138976190D01*
X108619047Y-138928571D01*
X108714285Y-138880952D01*
X108761904Y-138833333D01*
X108809523Y-138738095D01*
X108809523Y-138642857D01*
X108761904Y-138547619D01*
X108714285Y-138500000D01*
X108619047Y-138452380D01*
X108380952Y-138452380D01*
X108238095Y-138500000D01*
X162457140Y-112594201D02*
X162314283Y-112641820D01*
X162076188Y-112641820D01*
X161980950Y-112594201D01*
X161933331Y-112546582D01*
X161885712Y-112451344D01*
X161885712Y-112356106D01*
X161933331Y-112260868D01*
X161980950Y-112213249D01*
X162076188Y-112165630D01*
X162266664Y-112118011D01*
X162361902Y-112070392D01*
X162409521Y-112022773D01*
X162457140Y-111927535D01*
X162457140Y-111832297D01*
X162409521Y-111737059D01*
X162361902Y-111689440D01*
X162266664Y-111641820D01*
X162028569Y-111641820D01*
X161885712Y-111689440D01*
X161457140Y-112641820D02*
X161457140Y-111641820D01*
X160980950Y-112641820D02*
X160980950Y-111641820D01*
X160599998Y-111641820D01*
X160504760Y-111689440D01*
X160457140Y-111737059D01*
X160409521Y-111832297D01*
X160409521Y-111975154D01*
X160457140Y-112070392D01*
X160504760Y-112118011D01*
X160599998Y-112165630D01*
X160980950Y-112165630D01*
X159980950Y-112641820D02*
X159980950Y-111641820D01*
X159647617Y-112356106D01*
X159314283Y-111641820D01*
X159314283Y-112641820D01*
X158171426Y-111641820D02*
X157552379Y-111641820D01*
X157885712Y-112022773D01*
X157742855Y-112022773D01*
X157647617Y-112070392D01*
X157599998Y-112118011D01*
X157552379Y-112213249D01*
X157552379Y-112451344D01*
X157599998Y-112546582D01*
X157647617Y-112594201D01*
X157742855Y-112641820D01*
X158028569Y-112641820D01*
X158123807Y-112594201D01*
X158171426Y-112546582D01*
X179452380Y-73599761D02*
X179309523Y-73647380D01*
X179071428Y-73647380D01*
X178976190Y-73599761D01*
X178928571Y-73552142D01*
X178880952Y-73456904D01*
X178880952Y-73361666D01*
X178928571Y-73266428D01*
X178976190Y-73218809D01*
X179071428Y-73171190D01*
X179261904Y-73123571D01*
X179357142Y-73075952D01*
X179404761Y-73028333D01*
X179452380Y-72933095D01*
X179452380Y-72837857D01*
X179404761Y-72742619D01*
X179357142Y-72695000D01*
X179261904Y-72647380D01*
X179023809Y-72647380D01*
X178880952Y-72695000D01*
X178452380Y-73647380D02*
X178452380Y-72647380D01*
X177976190Y-73647380D02*
X177976190Y-72647380D01*
X177595238Y-72647380D01*
X177500000Y-72695000D01*
X177452380Y-72742619D01*
X177404761Y-72837857D01*
X177404761Y-72980714D01*
X177452380Y-73075952D01*
X177500000Y-73123571D01*
X177595238Y-73171190D01*
X177976190Y-73171190D01*
X176976190Y-73647380D02*
X176976190Y-72647380D01*
X176642857Y-73361666D01*
X176309523Y-72647380D01*
X176309523Y-73647380D01*
X175119047Y-72742619D02*
X175071428Y-72695000D01*
X174976190Y-72647380D01*
X174738095Y-72647380D01*
X174642857Y-72695000D01*
X174595238Y-72742619D01*
X174547619Y-72837857D01*
X174547619Y-72933095D01*
X174595238Y-73075952D01*
X175166666Y-73647380D01*
X174547619Y-73647380D01*
X145102380Y-73604761D02*
X144959523Y-73652380D01*
X144721428Y-73652380D01*
X144626190Y-73604761D01*
X144578571Y-73557142D01*
X144530952Y-73461904D01*
X144530952Y-73366666D01*
X144578571Y-73271428D01*
X144626190Y-73223809D01*
X144721428Y-73176190D01*
X144911904Y-73128571D01*
X145007142Y-73080952D01*
X145054761Y-73033333D01*
X145102380Y-72938095D01*
X145102380Y-72842857D01*
X145054761Y-72747619D01*
X145007142Y-72700000D01*
X144911904Y-72652380D01*
X144673809Y-72652380D01*
X144530952Y-72700000D01*
X144102380Y-73652380D02*
X144102380Y-72652380D01*
X143626190Y-73652380D02*
X143626190Y-72652380D01*
X143245238Y-72652380D01*
X143150000Y-72700000D01*
X143102380Y-72747619D01*
X143054761Y-72842857D01*
X143054761Y-72985714D01*
X143102380Y-73080952D01*
X143150000Y-73128571D01*
X143245238Y-73176190D01*
X143626190Y-73176190D01*
X142626190Y-73652380D02*
X142626190Y-72652380D01*
X142292857Y-73366666D01*
X141959523Y-72652380D01*
X141959523Y-73652380D01*
X140197619Y-73652380D02*
X140769047Y-73652380D01*
X140483333Y-73652380D02*
X140483333Y-72652380D01*
X140578571Y-72795238D01*
X140673809Y-72890476D01*
X140769047Y-72938095D01*
X133000000Y-111000000D02*
X163000000Y-111000000D01*
X163000000Y-146000000D02*
X133000000Y-146000000D01*
X163000000Y-111000000D02*
X163000000Y-146000000D01*
X133000000Y-111000000D02*
X133000000Y-146000000D01*
X150000000Y-72000000D02*
X180000000Y-72000000D01*
X180000000Y-107000000D02*
X150000000Y-107000000D01*
X180000000Y-72000000D02*
X180000000Y-107000000D01*
X150000000Y-72000000D02*
X150000000Y-107000000D01*
X116000000Y-72000000D02*
X146000000Y-72000000D01*
X116000000Y-72000000D02*
X116000000Y-107000000D01*
X146000000Y-107000000D02*
X116000000Y-107000000D01*
X146000000Y-72000000D02*
X146000000Y-107000000D01*
X116000000Y-72000000D02*
X146000000Y-72000000D01*
X143838095Y-127966666D02*
X143361904Y-127966666D01*
X143933333Y-128252380D02*
X143600000Y-127252380D01*
X143266666Y-128252380D01*
X143290476Y-130157142D02*
X143338095Y-130204761D01*
X143480952Y-130252380D01*
X143576190Y-130252380D01*
X143719047Y-130204761D01*
X143814285Y-130109523D01*
X143861904Y-130014285D01*
X143909523Y-129823809D01*
X143909523Y-129680952D01*
X143861904Y-129490476D01*
X143814285Y-129395238D01*
X143719047Y-129300000D01*
X143576190Y-129252380D01*
X143480952Y-129252380D01*
X143338095Y-129300000D01*
X143290476Y-129347619D01*
X161938095Y-88766666D02*
X161461904Y-88766666D01*
X162033333Y-89052380D02*
X161700000Y-88052380D01*
X161366666Y-89052380D01*
X161390476Y-90957142D02*
X161438095Y-91004761D01*
X161580952Y-91052380D01*
X161676190Y-91052380D01*
X161819047Y-91004761D01*
X161914285Y-90909523D01*
X161961904Y-90814285D01*
X162009523Y-90623809D01*
X162009523Y-90480952D01*
X161961904Y-90290476D01*
X161914285Y-90195238D01*
X161819047Y-90100000D01*
X161676190Y-90052380D01*
X161580952Y-90052380D01*
X161438095Y-90100000D01*
X161390476Y-90147619D01*
X127738095Y-88766666D02*
X127261904Y-88766666D01*
X127833333Y-89052380D02*
X127500000Y-88052380D01*
X127166666Y-89052380D01*
X127190476Y-90957142D02*
X127238095Y-91004761D01*
X127380952Y-91052380D01*
X127476190Y-91052380D01*
X127619047Y-91004761D01*
X127714285Y-90909523D01*
X127761904Y-90814285D01*
X127809523Y-90623809D01*
X127809523Y-90480952D01*
X127761904Y-90290476D01*
X127714285Y-90195238D01*
X127619047Y-90100000D01*
X127476190Y-90052380D01*
X127380952Y-90052380D01*
X127238095Y-90100000D01*
X127190476Y-90147619D01*
X131190476Y-139312380D02*
X131190476Y-138312380D01*
X130809523Y-138312380D01*
X130714285Y-138360000D01*
X130666666Y-138407619D01*
X130619047Y-138502857D01*
X130619047Y-138645714D01*
X130666666Y-138740952D01*
X130714285Y-138788571D01*
X130809523Y-138836190D01*
X131190476Y-138836190D01*
X130190476Y-139312380D02*
X130190476Y-138645714D01*
X130190476Y-138836190D02*
X130142857Y-138740952D01*
X130095238Y-138693333D01*
X130000000Y-138645714D01*
X129904761Y-138645714D01*
X129428571Y-139312380D02*
X129523809Y-139264761D01*
X129571428Y-139217142D01*
X129619047Y-139121904D01*
X129619047Y-138836190D01*
X129571428Y-138740952D01*
X129523809Y-138693333D01*
X129428571Y-138645714D01*
X129285714Y-138645714D01*
X129190476Y-138693333D01*
X129142857Y-138740952D01*
X129095238Y-138836190D01*
X129095238Y-139121904D01*
X129142857Y-139217142D01*
X129190476Y-139264761D01*
X129285714Y-139312380D01*
X129428571Y-139312380D01*
X128238095Y-138645714D02*
X128238095Y-139455238D01*
X128285714Y-139550476D01*
X128333333Y-139598095D01*
X128428571Y-139645714D01*
X128571428Y-139645714D01*
X128666666Y-139598095D01*
X128238095Y-139264761D02*
X128333333Y-139312380D01*
X128523809Y-139312380D01*
X128619047Y-139264761D01*
X128666666Y-139217142D01*
X128714285Y-139121904D01*
X128714285Y-138836190D01*
X128666666Y-138740952D01*
X128619047Y-138693333D01*
X128523809Y-138645714D01*
X128333333Y-138645714D01*
X128238095Y-138693333D01*
X127761904Y-139312380D02*
X127761904Y-138645714D01*
X127761904Y-138836190D02*
X127714285Y-138740952D01*
X127666666Y-138693333D01*
X127571428Y-138645714D01*
X127476190Y-138645714D01*
X126714285Y-139312380D02*
X126714285Y-138788571D01*
X126761904Y-138693333D01*
X126857142Y-138645714D01*
X127047619Y-138645714D01*
X127142857Y-138693333D01*
X126714285Y-139264761D02*
X126809523Y-139312380D01*
X127047619Y-139312380D01*
X127142857Y-139264761D01*
X127190476Y-139169523D01*
X127190476Y-139074285D01*
X127142857Y-138979047D01*
X127047619Y-138931428D01*
X126809523Y-138931428D01*
X126714285Y-138883809D01*
X126238095Y-139312380D02*
X126238095Y-138645714D01*
X126238095Y-138740952D02*
X126190476Y-138693333D01*
X126095238Y-138645714D01*
X125952380Y-138645714D01*
X125857142Y-138693333D01*
X125809523Y-138788571D01*
X125809523Y-139312380D01*
X125809523Y-138788571D02*
X125761904Y-138693333D01*
X125666666Y-138645714D01*
X125523809Y-138645714D01*
X125428571Y-138693333D01*
X125380952Y-138788571D01*
X125380952Y-139312380D01*
X124904761Y-139312380D02*
X124904761Y-138645714D01*
X124904761Y-138740952D02*
X124857142Y-138693333D01*
X124761904Y-138645714D01*
X124619047Y-138645714D01*
X124523809Y-138693333D01*
X124476190Y-138788571D01*
X124476190Y-139312380D01*
X124476190Y-138788571D02*
X124428571Y-138693333D01*
X124333333Y-138645714D01*
X124190476Y-138645714D01*
X124095238Y-138693333D01*
X124047619Y-138788571D01*
X124047619Y-139312380D01*
X123571428Y-139312380D02*
X123571428Y-138645714D01*
X123571428Y-138312380D02*
X123619047Y-138360000D01*
X123571428Y-138407619D01*
X123523809Y-138360000D01*
X123571428Y-138312380D01*
X123571428Y-138407619D01*
X123095238Y-138645714D02*
X123095238Y-139312380D01*
X123095238Y-138740952D02*
X123047619Y-138693333D01*
X122952380Y-138645714D01*
X122809523Y-138645714D01*
X122714285Y-138693333D01*
X122666666Y-138788571D01*
X122666666Y-139312380D01*
X121761904Y-138645714D02*
X121761904Y-139455238D01*
X121809523Y-139550476D01*
X121857142Y-139598095D01*
X121952380Y-139645714D01*
X122095238Y-139645714D01*
X122190476Y-139598095D01*
X121761904Y-139264761D02*
X121857142Y-139312380D01*
X122047619Y-139312380D01*
X122142857Y-139264761D01*
X122190476Y-139217142D01*
X122238095Y-139121904D01*
X122238095Y-138836190D01*
X122190476Y-138740952D01*
X122142857Y-138693333D01*
X122047619Y-138645714D01*
X121857142Y-138645714D01*
X121761904Y-138693333D01*
X120523809Y-139312380D02*
X120523809Y-138312380D01*
X120523809Y-138788571D02*
X119952380Y-138788571D01*
X119952380Y-139312380D02*
X119952380Y-138312380D01*
X119095238Y-139264761D02*
X119190476Y-139312380D01*
X119380952Y-139312380D01*
X119476190Y-139264761D01*
X119523809Y-139169523D01*
X119523809Y-138788571D01*
X119476190Y-138693333D01*
X119380952Y-138645714D01*
X119190476Y-138645714D01*
X119095238Y-138693333D01*
X119047619Y-138788571D01*
X119047619Y-138883809D01*
X119523809Y-138979047D01*
X118190476Y-139312380D02*
X118190476Y-138788571D01*
X118238095Y-138693333D01*
X118333333Y-138645714D01*
X118523809Y-138645714D01*
X118619047Y-138693333D01*
X118190476Y-139264761D02*
X118285714Y-139312380D01*
X118523809Y-139312380D01*
X118619047Y-139264761D01*
X118666666Y-139169523D01*
X118666666Y-139074285D01*
X118619047Y-138979047D01*
X118523809Y-138931428D01*
X118285714Y-138931428D01*
X118190476Y-138883809D01*
X117285714Y-139312380D02*
X117285714Y-138312380D01*
X117285714Y-139264761D02*
X117380952Y-139312380D01*
X117571428Y-139312380D01*
X117666666Y-139264761D01*
X117714285Y-139217142D01*
X117761904Y-139121904D01*
X117761904Y-138836190D01*
X117714285Y-138740952D01*
X117666666Y-138693333D01*
X117571428Y-138645714D01*
X117380952Y-138645714D01*
X117285714Y-138693333D01*
X116428571Y-139264761D02*
X116523809Y-139312380D01*
X116714285Y-139312380D01*
X116809523Y-139264761D01*
X116857142Y-139169523D01*
X116857142Y-138788571D01*
X116809523Y-138693333D01*
X116714285Y-138645714D01*
X116523809Y-138645714D01*
X116428571Y-138693333D01*
X116380952Y-138788571D01*
X116380952Y-138883809D01*
X116857142Y-138979047D01*
X115952380Y-139312380D02*
X115952380Y-138645714D01*
X115952380Y-138836190D02*
X115904761Y-138740952D01*
X115857142Y-138693333D01*
X115761904Y-138645714D01*
X115666666Y-138645714D01*
D11*
X150600000Y-123300000D02*
X150600000Y-126300000D01*
X144600000Y-123300000D02*
X150600000Y-123300000D01*
X144600000Y-129300000D02*
X144600000Y-123300000D01*
X150600000Y-129300000D02*
X144600000Y-129300000D01*
X150600000Y-126300000D02*
X150600000Y-129300000D01*
X152100000Y-121300000D02*
X152100000Y-126300000D01*
X152100000Y-126300000D02*
X155100000Y-126300000D01*
X155100000Y-121300000D02*
X152100000Y-121300000D01*
X155100000Y-126300000D02*
X155100000Y-121300000D01*
X140100000Y-126300000D02*
X140100000Y-131300000D01*
X143100000Y-126300000D02*
X140100000Y-126300000D01*
X143100000Y-131300000D02*
X143100000Y-126300000D01*
X140100000Y-131300000D02*
X143100000Y-131300000D01*
X139600000Y-120800000D02*
X139600000Y-131800000D01*
X155600000Y-120800000D02*
X139600000Y-120800000D01*
X155600000Y-131800000D02*
X155600000Y-120800000D01*
X155600000Y-131800000D02*
X147600000Y-131800000D01*
X147600000Y-131800000D02*
X139600000Y-131800000D01*
X168700000Y-84100000D02*
X168700000Y-87100000D01*
X162700000Y-84100000D02*
X168700000Y-84100000D01*
X162700000Y-90100000D02*
X162700000Y-84100000D01*
X168700000Y-90100000D02*
X162700000Y-90100000D01*
X168700000Y-87100000D02*
X168700000Y-90100000D01*
X170200000Y-82100000D02*
X170200000Y-87100000D01*
X170200000Y-87100000D02*
X173200000Y-87100000D01*
X173200000Y-82100000D02*
X170200000Y-82100000D01*
X173200000Y-87100000D02*
X173200000Y-82100000D01*
X158200000Y-87100000D02*
X158200000Y-92100000D01*
X161200000Y-87100000D02*
X158200000Y-87100000D01*
X161200000Y-92100000D02*
X161200000Y-87100000D01*
X158200000Y-92100000D02*
X161200000Y-92100000D01*
X157700000Y-81600000D02*
X157700000Y-92600000D01*
X173700000Y-81600000D02*
X157700000Y-81600000D01*
X173700000Y-92600000D02*
X173700000Y-81600000D01*
X173700000Y-92600000D02*
X165700000Y-92600000D01*
X165700000Y-92600000D02*
X157700000Y-92600000D01*
X134500000Y-84100000D02*
X134500000Y-87100000D01*
X128500000Y-84100000D02*
X134500000Y-84100000D01*
X128500000Y-90100000D02*
X128500000Y-84100000D01*
X134500000Y-90100000D02*
X128500000Y-90100000D01*
X134500000Y-87100000D02*
X134500000Y-90100000D01*
X136000000Y-82100000D02*
X136000000Y-87100000D01*
X136000000Y-87100000D02*
X139000000Y-87100000D01*
X139000000Y-82100000D02*
X136000000Y-82100000D01*
X139000000Y-87100000D02*
X139000000Y-82100000D01*
X124000000Y-87100000D02*
X124000000Y-92100000D01*
X127000000Y-87100000D02*
X124000000Y-87100000D01*
X127000000Y-92100000D02*
X127000000Y-87100000D01*
X124000000Y-92100000D02*
X127000000Y-92100000D01*
X123500000Y-81600000D02*
X123500000Y-92600000D01*
X139500000Y-81600000D02*
X123500000Y-81600000D01*
X139500000Y-92600000D02*
X139500000Y-81600000D01*
X139500000Y-92600000D02*
X131500000Y-92600000D01*
X131500000Y-92600000D02*
X123500000Y-92600000D01*
D10*
X112190500Y-135000000D02*
X108190500Y-135000000D01*
X112190500Y-119000000D02*
X112190500Y-135000000D01*
X108190500Y-119000000D02*
X112190500Y-119000000D01*
X108190500Y-126000000D02*
X108190500Y-119000000D01*
X108490500Y-126000000D02*
X108190500Y-126000000D01*
X108490500Y-128000000D02*
X108490500Y-126000000D01*
X108190500Y-128000000D02*
X108490500Y-128000000D01*
X108190500Y-135000000D02*
X108190500Y-128000000D01*
X187556400Y-134727200D02*
X183556400Y-134727200D01*
X187556400Y-118727200D02*
X187556400Y-134727200D01*
X183556400Y-118727200D02*
X187556400Y-118727200D01*
X183556400Y-125727200D02*
X183556400Y-118727200D01*
X183856400Y-125727200D02*
X183556400Y-125727200D01*
X183856400Y-127727200D02*
X183856400Y-125727200D01*
X183556400Y-127727200D02*
X183856400Y-127727200D01*
X183556400Y-134727200D02*
X183556400Y-127727200D01*
D11*
X116830000Y-120530000D02*
X115500000Y-120530000D01*
X116830000Y-121860000D02*
X116830000Y-120530000D01*
X116830000Y-123130000D02*
X114170000Y-123130000D01*
X114170000Y-123130000D02*
X114170000Y-133350000D01*
X116830000Y-123130000D02*
X116830000Y-133350000D01*
X116830000Y-133350000D02*
X114170000Y-133350000D01*
%LPC*%
D12*
X141600000Y-127800000D03*
X141600000Y-129800000D03*
D13*
X117780000Y-105600000D03*
X125400000Y-97980000D03*
X117780000Y-103060000D03*
X125400000Y-100520000D03*
X117780000Y-100520000D03*
X125400000Y-103060000D03*
X117780000Y-97980000D03*
D14*
X125400000Y-105600000D03*
D15*
X183000000Y-70000000D03*
X113000000Y-70000000D03*
X113000000Y-148000000D03*
X183000000Y-148000000D03*
D12*
X159700000Y-88600000D03*
X159700000Y-90600000D03*
X125500000Y-88600000D03*
X125500000Y-90600000D03*
D16*
X172148500Y-117792500D03*
X158250000Y-144725000D03*
D17*
X161190000Y-139850000D03*
D18*
X158650000Y-139850000D03*
D17*
X136450000Y-127610000D03*
D19*
X136450000Y-130150000D03*
D20*
X140340000Y-75000000D03*
X145220000Y-75000000D03*
D13*
X175645000Y-98350000D03*
X168025000Y-105970000D03*
X175645000Y-100890000D03*
X168025000Y-103430000D03*
X175645000Y-103430000D03*
X168025000Y-100890000D03*
X175645000Y-105970000D03*
D21*
X168025000Y-98350000D03*
D16*
X161350000Y-94925000D03*
D19*
X133350000Y-99060000D03*
X130223260Y-111295180D03*
D16*
X169935000Y-93845000D03*
D19*
X112141000Y-89408000D03*
X122190000Y-111290000D03*
D16*
X184150000Y-140716000D03*
X159258000Y-121137680D03*
X136250000Y-121950000D03*
X132100000Y-147650000D03*
D17*
X173810000Y-129560000D03*
D22*
X176350000Y-129560000D03*
D19*
X159176720Y-131434840D03*
D17*
X159176720Y-128894840D03*
X139690000Y-141400000D03*
D18*
X137150000Y-141400000D03*
X111650000Y-141400000D03*
D17*
X114190000Y-141400000D03*
D23*
X109190500Y-127000000D03*
D24*
X109190500Y-129000000D03*
D23*
X109190500Y-125000000D03*
X111190500Y-125000000D03*
X111190500Y-127000000D03*
X111190500Y-129000000D03*
D25*
X110190500Y-121500000D03*
X110190500Y-132500000D03*
D17*
X183124840Y-86374280D03*
X183124840Y-88914280D03*
D19*
X183124840Y-91454280D03*
D23*
X184556400Y-126727200D03*
D24*
X184556400Y-128727200D03*
D23*
X184556400Y-124727200D03*
X186556400Y-124727200D03*
X186556400Y-126727200D03*
X186556400Y-128727200D03*
D25*
X185556400Y-121227200D03*
X185556400Y-132227200D03*
D19*
X115500000Y-121860000D03*
D17*
X115500000Y-124400000D03*
X115500000Y-126940000D03*
X115500000Y-129480000D03*
X115500000Y-132020000D03*
M02*
