M48
; DRILL file {KiCad 6.0.0} date Thu 03 Feb 2022 02:52:26 PM EST
; FORMAT={-:-/ absolute / metric / decimal}
; #@! TF.CreationDate,2022-02-03T14:52:26-05:00
; #@! TF.GenerationSoftware,Kicad,Pcbnew,6.0.0
; #@! TF.FileFunction,Plated,1,4,PTH
FMAT,2
METRIC
; #@! TA.AperFunction,Plated,PTH,ViaDrill
T1C0.400
; #@! TA.AperFunction,Plated,PTH,ComponentDrill
T2C0.680
; #@! TA.AperFunction,Plated,PTH,ComponentDrill
T3C0.762
; #@! TA.AperFunction,Plated,PTH,ComponentDrill
T4C0.800
; #@! TA.AperFunction,Plated,PTH,ComponentDrill
T5C1.000
; #@! TA.AperFunction,Plated,PTH,ComponentDrill
T6C3.500
%
G90
G05
T1
X109.91Y-75.73
X109.91Y-77.01
X112.4Y-104.3
X112.5Y-80.7
X112.537Y-81.724
X115.57Y-80.518
X117.4Y-95.4
X118.35Y-131.25
X118.593Y-109.741
X118.863Y-71.644
X118.863Y-72.644
X119.055Y-88.616
X119.267Y-140.4
X119.812Y-109.804
X120.035Y-149.509
X120.908Y-72.644
X121.077Y-87.506
X121.323Y-140.4
X121.41Y-132.04
X122.098Y-137.155
X123.109Y-82.352
X124.35Y-131.15
X124.6Y-126.05
X126.528Y-148.544
X127.828Y-141.981
X128.514Y-119.954
X130.475Y-105.175
X130.48Y-104.12
X130.548Y-119.979
X131.526Y-122.916
X133.925Y-92.675
X136.291Y-75.89
X136.307Y-71.798
X136.317Y-72.954
X136.332Y-77.389
X136.337Y-74.295
X137.46Y-71.775
X139.548Y-68.657
X142.108Y-92.23
X143.54Y-92.53
X144.57Y-92.5
X144.593Y-140.208
X144.648Y-79.276
X145.478Y-104.394
X146.116Y-149.796
X146.213Y-129.779
X146.32Y-68.71
X146.643Y-140.208
X147.655Y-136.982
X148.194Y-71.661
X148.91Y-104.353
X149.23Y-74.27
X149.25Y-72.766
X149.266Y-75.855
X149.271Y-77.343
X149.276Y-71.666
X149.446Y-129.758
X150.368Y-125.73
X151.132Y-104.353
X151.458Y-74.874
X152.116Y-149.644
X153.515Y-68.897
X154.051Y-119.101
X155.306Y-122.504
X155.575Y-92.583
X155.824Y-90.452
X155.85Y-140.9
X157.435Y-69.597
X157.445Y-70.927
X161.138Y-117.18
X162.65Y-100.2
X163.111Y-89.168
X164.535Y-80.469
X164.855Y-89.179
X165.656Y-107.091
X166.469Y-89.184
X166.99Y-129.047
X169.519Y-139.957
X169.915Y-81.119
X169.995Y-87.299
X170.299Y-128.993
X170.875Y-81.091
X170.942Y-144.018
X171.061Y-125.437
X171.35Y-132.36
X171.569Y-139.934
X172.512Y-136.876
X173.647Y-93.14
X174.3Y-87.375
X175.125Y-119.087
X175.677Y-93.157
X175.821Y-87.399
X175.854Y-89.459
X176.63Y-79.999
X177.105Y-84.064
X177.157Y-119.087
X177.218Y-87.399
X177.343Y-94.828
X177.78Y-141.239
X178.125Y-84.084
X178.184Y-147.663
X178.247Y-121.9
X179.65Y-79.85
X179.675Y-78.875
X181.505Y-74.194
X182.537Y-125.311
X184.125Y-83.198
X184.585Y-77.178
X184.594Y-78.372
X185.603Y-78.364
X185.611Y-83.147
T2
X109.191Y-125.0
X109.191Y-127.0
X109.191Y-129.0
X111.191Y-125.0
X111.191Y-127.0
X111.191Y-129.0
X184.556Y-124.727
X184.556Y-126.727
X184.556Y-128.727
X186.556Y-124.727
X186.556Y-126.727
X186.556Y-128.727
T3
X125.5Y-88.6
X125.5Y-90.6
X141.6Y-127.8
X141.6Y-129.8
X159.7Y-88.6
X159.7Y-90.6
T4
X117.78Y-97.98
X117.78Y-100.52
X117.78Y-103.06
X117.78Y-105.6
X125.4Y-97.98
X125.4Y-100.52
X125.4Y-103.06
X125.4Y-105.6
X140.34Y-75.0
X145.22Y-75.0
X168.025Y-98.35
X168.025Y-100.89
X168.025Y-103.43
X168.025Y-105.97
X175.645Y-98.35
X175.645Y-100.89
X175.645Y-103.43
X175.645Y-105.97
T5
X111.65Y-141.4
X112.141Y-89.408
X114.19Y-141.4
X115.5Y-121.86
X115.5Y-124.4
X115.5Y-126.94
X115.5Y-129.48
X115.5Y-132.02
X122.19Y-111.29
X130.223Y-111.295
X132.1Y-147.65
X133.35Y-99.06
X136.25Y-121.95
X136.45Y-127.61
X136.45Y-130.15
X137.15Y-141.4
X139.69Y-141.4
X158.25Y-144.725
X158.65Y-139.85
X159.177Y-128.895
X159.177Y-131.435
X159.258Y-121.138
X161.19Y-139.85
X161.35Y-94.925
X169.935Y-93.845
X172.148Y-117.792
X173.81Y-129.56
X176.35Y-129.56
X183.125Y-86.374
X183.125Y-88.914
X183.125Y-91.454
X184.15Y-140.716
T6
X113.0Y-70.0
X113.0Y-148.0
X183.0Y-70.0
X183.0Y-148.0
T0
M30
