G04 #@! TF.GenerationSoftware,KiCad,Pcbnew,6.0.0*
G04 #@! TF.CreationDate,2022-02-03T14:52:19-05:00*
G04 #@! TF.ProjectId,mama_board,6d616d61-5f62-46f6-9172-642e6b696361,rev?*
G04 #@! TF.SameCoordinates,Original*
G04 #@! TF.FileFunction,Paste,Top*
G04 #@! TF.FilePolarity,Positive*
%FSLAX46Y46*%
G04 Gerber Fmt 4.6, Leading zero omitted, Abs format (unit mm)*
G04 Created by KiCad (PCBNEW 6.0.0) date 2022-02-03 14:52:19*
%MOMM*%
%LPD*%
G01*
G04 APERTURE LIST*
G04 Aperture macros list*
%AMRoundRect*
0 Rectangle with rounded corners*
0 $1 Rounding radius*
0 $2 $3 $4 $5 $6 $7 $8 $9 X,Y pos of 4 corners*
0 Add a 4 corners polygon primitive as box body*
4,1,4,$2,$3,$4,$5,$6,$7,$8,$9,$2,$3,0*
0 Add four circle primitives for the rounded corners*
1,1,$1+$1,$2,$3*
1,1,$1+$1,$4,$5*
1,1,$1+$1,$6,$7*
1,1,$1+$1,$8,$9*
0 Add four rect primitives between the rounded corners*
20,1,$1+$1,$2,$3,$4,$5,0*
20,1,$1+$1,$4,$5,$6,$7,0*
20,1,$1+$1,$6,$7,$8,$9,0*
20,1,$1+$1,$8,$9,$2,$3,0*%
G04 Aperture macros list end*
%ADD10RoundRect,0.249999X0.325001X0.450001X-0.325001X0.450001X-0.325001X-0.450001X0.325001X-0.450001X0*%
%ADD11RoundRect,0.249999X-0.325001X-0.450001X0.325001X-0.450001X0.325001X0.450001X-0.325001X0.450001X0*%
%ADD12RoundRect,0.249999X0.450001X-0.325001X0.450001X0.325001X-0.450001X0.325001X-0.450001X-0.325001X0*%
%ADD13RoundRect,0.150000X-0.150000X0.750000X-0.150000X-0.750000X0.150000X-0.750000X0.150000X0.750000X0*%
%ADD14RoundRect,0.100000X-0.712500X-0.100000X0.712500X-0.100000X0.712500X0.100000X-0.712500X0.100000X0*%
%ADD15RoundRect,0.249999X-0.450001X0.325001X-0.450001X-0.325001X0.450001X-0.325001X0.450001X0.325001X0*%
%ADD16R,1.000000X1.000000*%
%ADD17RoundRect,0.150000X-0.150000X0.825000X-0.150000X-0.825000X0.150000X-0.825000X0.150000X0.825000X0*%
%ADD18R,2.000000X0.650000*%
%ADD19R,0.650000X1.060000*%
%ADD20RoundRect,0.250000X0.625000X-0.462500X0.625000X0.462500X-0.625000X0.462500X-0.625000X-0.462500X0*%
G04 APERTURE END LIST*
D10*
X133925000Y-94300000D03*
X131875000Y-94300000D03*
D11*
X164575000Y-95800000D03*
X166625000Y-95800000D03*
D12*
X133675000Y-105075000D03*
X133675000Y-103025000D03*
D13*
X153531200Y-90495600D03*
X152261200Y-90495600D03*
X150991200Y-90495600D03*
X149721200Y-90495600D03*
X148451200Y-90495600D03*
X147181200Y-90495600D03*
X145911200Y-90495600D03*
X144641200Y-90495600D03*
X143371200Y-90495600D03*
X142101200Y-90495600D03*
X140831200Y-90495600D03*
X139561200Y-90495600D03*
X138291200Y-90495600D03*
X137021200Y-90495600D03*
X137021200Y-80895600D03*
X138291200Y-80895600D03*
X139561200Y-80895600D03*
X140831200Y-80895600D03*
X142101200Y-80895600D03*
X143371200Y-80895600D03*
X144641200Y-80895600D03*
X145911200Y-80895600D03*
X147181200Y-80895600D03*
X148451200Y-80895600D03*
X149721200Y-80895600D03*
X150991200Y-80895600D03*
X152261200Y-80895600D03*
X153531200Y-80895600D03*
D14*
X177191540Y-123478260D03*
X177191540Y-124128260D03*
X177191540Y-124778260D03*
X177191540Y-125428260D03*
X172966540Y-125428260D03*
X172966540Y-124778260D03*
X172966540Y-124128260D03*
X172966540Y-123478260D03*
X173725000Y-133550000D03*
X173725000Y-134200000D03*
X173725000Y-134850000D03*
X173725000Y-135500000D03*
X169500000Y-135500000D03*
X169500000Y-134850000D03*
X169500000Y-134200000D03*
X169500000Y-133550000D03*
D15*
X168809040Y-128978260D03*
X168809040Y-126928260D03*
X177275620Y-136018220D03*
X177275620Y-133968220D03*
X179324000Y-141233000D03*
X179324000Y-139183000D03*
D12*
X169500000Y-144009000D03*
X169500000Y-146059000D03*
D15*
X162508000Y-136883000D03*
X162508000Y-134833000D03*
D10*
X123475000Y-144000000D03*
X125525000Y-144000000D03*
D16*
X169079040Y-121953260D03*
X166579040Y-121953260D03*
D12*
X153625000Y-147600000D03*
X153625000Y-149650000D03*
D15*
X140500000Y-137008000D03*
X140500000Y-134958000D03*
D10*
X130556000Y-121350000D03*
X128506000Y-121350000D03*
D15*
X119877744Y-131219399D03*
X119877744Y-129169399D03*
D10*
X119272873Y-138806839D03*
X121322873Y-138806839D03*
X117725000Y-144000000D03*
X119775000Y-144000000D03*
D17*
X121660000Y-82350000D03*
X120390000Y-82350000D03*
X119120000Y-82350000D03*
X117850000Y-82350000D03*
X117850000Y-77400000D03*
X119120000Y-77400000D03*
X120390000Y-77400000D03*
X121660000Y-77400000D03*
D14*
X156112500Y-124025000D03*
X156112500Y-124675000D03*
X156112500Y-125325000D03*
X156112500Y-125975000D03*
X151887500Y-125975000D03*
X151887500Y-125325000D03*
X151887500Y-124675000D03*
X151887500Y-124025000D03*
X148812500Y-133625000D03*
X148812500Y-134275000D03*
X148812500Y-134925000D03*
X148812500Y-135575000D03*
X144587500Y-135575000D03*
X144587500Y-134925000D03*
X144587500Y-134275000D03*
X144587500Y-133625000D03*
X126275000Y-124500000D03*
X126275000Y-125150000D03*
X126275000Y-125800000D03*
X126275000Y-126450000D03*
X130500000Y-126450000D03*
X130500000Y-125800000D03*
X130500000Y-125150000D03*
X130500000Y-124500000D03*
D18*
X166927040Y-84353480D03*
X166927040Y-82453480D03*
X170347040Y-82453480D03*
X170347040Y-83403480D03*
X170347040Y-84353480D03*
D19*
X183114840Y-82064280D03*
X181214840Y-82064280D03*
X181214840Y-79864280D03*
X182164840Y-79864280D03*
X183114840Y-79864280D03*
D14*
X119300000Y-133525000D03*
X119300000Y-134175000D03*
X119300000Y-134825000D03*
X119300000Y-135475000D03*
X123525000Y-135475000D03*
X123525000Y-134825000D03*
X123525000Y-134175000D03*
X123525000Y-133525000D03*
D15*
X164112500Y-107092100D03*
X164112500Y-105042100D03*
X164137900Y-102219000D03*
X164137900Y-100169000D03*
D12*
X114779200Y-95359900D03*
X114779200Y-97409900D03*
X114779200Y-101125000D03*
X114779200Y-103175000D03*
X128794500Y-97011900D03*
X128794500Y-99061900D03*
X128819900Y-102041100D03*
X128819900Y-104091100D03*
D15*
X173713140Y-146094560D03*
X173713140Y-144044560D03*
X148000000Y-129762000D03*
X148000000Y-127712000D03*
X151892000Y-138439000D03*
X151892000Y-136389000D03*
D11*
X154500000Y-140900000D03*
X152450000Y-140900000D03*
D10*
X149600000Y-144725000D03*
X151650000Y-144725000D03*
D15*
X147625000Y-149800000D03*
X147625000Y-147750000D03*
X136754000Y-136833000D03*
X136754000Y-134783000D03*
X122950000Y-129100000D03*
X122950000Y-131150000D03*
X127200000Y-135275000D03*
X127200000Y-137325000D03*
X129400000Y-139925000D03*
X129400000Y-141975000D03*
D10*
X155460000Y-72697000D03*
X157510000Y-72697000D03*
D15*
X145477800Y-96612600D03*
X145477800Y-94562600D03*
D12*
X163084840Y-80469280D03*
X163084840Y-82519280D03*
X163124840Y-85779280D03*
X163124840Y-87829280D03*
D10*
X157598000Y-76327000D03*
X159648000Y-76327000D03*
D15*
X152412000Y-96815800D03*
X152412000Y-94765800D03*
X148957600Y-96714200D03*
X148957600Y-94664200D03*
X121650000Y-147450000D03*
X121650000Y-149500000D03*
X112100000Y-135373000D03*
X112100000Y-137423000D03*
D11*
X179674840Y-85748980D03*
X177624840Y-85748980D03*
X179649840Y-89457380D03*
X177599840Y-89457380D03*
D20*
X145477800Y-99533600D03*
X145477800Y-102508600D03*
X152412000Y-99508200D03*
X152412000Y-102483200D03*
X148957600Y-99533600D03*
X148957600Y-102508600D03*
D16*
X147500000Y-122000000D03*
X145000000Y-122000000D03*
X119250000Y-123350000D03*
X121750000Y-123350000D03*
D10*
X173636820Y-94959680D03*
X175686820Y-94959680D03*
D11*
X119800000Y-108280000D03*
X117750000Y-108280000D03*
D10*
X175107040Y-120357260D03*
X177157040Y-120357260D03*
D15*
X165309040Y-129053260D03*
X165309040Y-127003260D03*
D10*
X169519182Y-138437678D03*
X171569182Y-138437678D03*
D12*
X176481540Y-145621900D03*
X176481540Y-147671900D03*
D10*
X165195593Y-148498235D03*
X167245593Y-148498235D03*
D15*
X166008000Y-136858000D03*
X166008000Y-134808000D03*
D10*
X154053320Y-120802400D03*
X156103320Y-120802400D03*
D15*
X144500000Y-129787000D03*
X144500000Y-127737000D03*
D10*
X144593418Y-138858501D03*
X146643418Y-138858501D03*
X145675000Y-144750000D03*
X143625000Y-144750000D03*
D11*
X120913000Y-74168000D03*
X118863000Y-74168000D03*
X121075560Y-86012020D03*
X119025560Y-86012020D03*
D12*
X128150000Y-148550000D03*
X128150000Y-146500000D03*
X114006800Y-79671000D03*
X114006800Y-81721000D03*
D10*
X139548000Y-70242000D03*
X141598000Y-70242000D03*
D11*
X146324000Y-70267200D03*
X144274000Y-70267200D03*
D15*
X115350000Y-134975000D03*
X115350000Y-137025000D03*
D11*
X168543640Y-87279280D03*
X166493640Y-87279280D03*
D12*
X185614840Y-79959280D03*
X185614840Y-82009280D03*
X178239840Y-79989280D03*
X178239840Y-82039280D03*
D10*
X151460000Y-76339600D03*
X153510000Y-76339600D03*
D12*
X183074840Y-75099280D03*
X183074840Y-77149280D03*
X174055440Y-82819280D03*
X174055440Y-84869280D03*
M02*
