%FSLAX45Y45*%
G04 Gerber Fmt 4.5, Leading zero omitted, Abs format (unit mm)*
G04 Created by KiCad (PCBNEW 6.0.0) date 2022-02-03 14:52:27*
%MOMM*%
%LPD*%
G01*
G04 APERTURE LIST*
%TA.AperFunction,Profile*%
%ADD10C,0.100000*%
%TD*%
%ADD11C,0.200000*%
%ADD12C,0.040000*%
%ADD13C,0.068000*%
%ADD14C,0.076200*%
%ADD15C,0.080000*%
%ADD16C,0.100000*%
%ADD17C,0.350000*%
G04 APERTURE END LIST*
D10*
X18800000Y-15200000D02*
X18800000Y-6600000D01*
X10800000Y-15200000D02*
X18800000Y-15200000D01*
X10800000Y-6600000D02*
X10800000Y-15200000D01*
X18800000Y-6600000D02*
X10800000Y-6600000D01*
D11*
D12*
X10971000Y-7553000D02*
X11011000Y-7593000D01*
X11011000Y-7553000D02*
X10971000Y-7593000D01*
X10971000Y-7681000D02*
X11011000Y-7721000D01*
X11011000Y-7681000D02*
X10971000Y-7721000D01*
X11220000Y-10410000D02*
X11260000Y-10450000D01*
X11260000Y-10410000D02*
X11220000Y-10450000D01*
X11230000Y-8050000D02*
X11270000Y-8090000D01*
X11270000Y-8050000D02*
X11230000Y-8090000D01*
X11233724Y-8152450D02*
X11273724Y-8192450D01*
X11273724Y-8152450D02*
X11233724Y-8192450D01*
X11537000Y-8031800D02*
X11577000Y-8071800D01*
X11577000Y-8031800D02*
X11537000Y-8071800D01*
X11720000Y-9520000D02*
X11760000Y-9560000D01*
X11760000Y-9520000D02*
X11720000Y-9560000D01*
X11815000Y-13105000D02*
X11855000Y-13145000D01*
X11855000Y-13105000D02*
X11815000Y-13145000D01*
X11839260Y-10954070D02*
X11879260Y-10994070D01*
X11879260Y-10954070D02*
X11839260Y-10994070D01*
X11866300Y-7144400D02*
X11906300Y-7184400D01*
X11906300Y-7144400D02*
X11866300Y-7184400D01*
X11866300Y-7244400D02*
X11906300Y-7284400D01*
X11906300Y-7244400D02*
X11866300Y-7284400D01*
X11885488Y-8841552D02*
X11925488Y-8881552D01*
X11925488Y-8841552D02*
X11885488Y-8881552D01*
X11906668Y-14020000D02*
X11946668Y-14060000D01*
X11946668Y-14020000D02*
X11906668Y-14060000D01*
X11961180Y-10960420D02*
X12001180Y-11000420D01*
X12001180Y-10960420D02*
X11961180Y-11000420D01*
X11983532Y-14930948D02*
X12023532Y-14970948D01*
X12023532Y-14930948D02*
X11983532Y-14970948D01*
X12070850Y-7244400D02*
X12110850Y-7284400D01*
X12110850Y-7244400D02*
X12070850Y-7284400D01*
X12087672Y-8730554D02*
X12127672Y-8770554D01*
X12127672Y-8730554D02*
X12087672Y-8770554D01*
X12112287Y-14020000D02*
X12152287Y-14060000D01*
X12152287Y-14020000D02*
X12112287Y-14060000D01*
X12121000Y-13184000D02*
X12161000Y-13224000D01*
X12161000Y-13184000D02*
X12121000Y-13224000D01*
X12189780Y-13695492D02*
X12229780Y-13735492D01*
X12229780Y-13695492D02*
X12189780Y-13735492D01*
X12290872Y-8215188D02*
X12330872Y-8255188D01*
X12330872Y-8215188D02*
X12290872Y-8255188D01*
X12415000Y-13095000D02*
X12455000Y-13135000D01*
X12455000Y-13095000D02*
X12415000Y-13135000D01*
X12440000Y-12585000D02*
X12480000Y-12625000D01*
X12480000Y-12585000D02*
X12440000Y-12625000D01*
X12632756Y-14834428D02*
X12672756Y-14874428D01*
X12672756Y-14834428D02*
X12632756Y-14874428D01*
X12762804Y-14178092D02*
X12802804Y-14218092D01*
X12802804Y-14178092D02*
X12762804Y-14218092D01*
X12831384Y-11975404D02*
X12871384Y-12015404D01*
X12871384Y-11975404D02*
X12831384Y-12015404D01*
X13027500Y-10497500D02*
X13067500Y-10537500D01*
X13067500Y-10497500D02*
X13027500Y-10537500D01*
X13028000Y-10392000D02*
X13068000Y-10432000D01*
X13068000Y-10392000D02*
X13028000Y-10432000D01*
X13034838Y-11977944D02*
X13074838Y-12017944D01*
X13074838Y-11977944D02*
X13034838Y-12017944D01*
X13132628Y-12271568D02*
X13172628Y-12311568D01*
X13172628Y-12271568D02*
X13132628Y-12311568D01*
X13372500Y-9247500D02*
X13412500Y-9287500D01*
X13412500Y-9247500D02*
X13372500Y-9287500D01*
X13609132Y-7569012D02*
X13649132Y-7609012D01*
X13649132Y-7569012D02*
X13609132Y-7609012D01*
X13610656Y-7159818D02*
X13650656Y-7199818D01*
X13650656Y-7159818D02*
X13610656Y-7199818D01*
X13611672Y-7275388D02*
X13651672Y-7315388D01*
X13651672Y-7275388D02*
X13611672Y-7315388D01*
X13613196Y-7718872D02*
X13653196Y-7758872D01*
X13653196Y-7718872D02*
X13613196Y-7758872D01*
X13613704Y-7409500D02*
X13653704Y-7449500D01*
X13653704Y-7409500D02*
X13613704Y-7449500D01*
X13725972Y-7157532D02*
X13765972Y-7197532D01*
X13765972Y-7157532D02*
X13725972Y-7197532D01*
X13934836Y-6845666D02*
X13974836Y-6885666D01*
X13974836Y-6845666D02*
X13934836Y-6885666D01*
X14190800Y-9203000D02*
X14230800Y-9243000D01*
X14230800Y-9203000D02*
X14190800Y-9243000D01*
X14334000Y-9233000D02*
X14374000Y-9273000D01*
X14374000Y-9233000D02*
X14334000Y-9273000D01*
X14437000Y-9230000D02*
X14477000Y-9270000D01*
X14477000Y-9230000D02*
X14437000Y-9270000D01*
X14439342Y-14000800D02*
X14479342Y-14040800D01*
X14479342Y-14000800D02*
X14439342Y-14040800D01*
X14444800Y-7907600D02*
X14484800Y-7947600D01*
X14484800Y-7907600D02*
X14444800Y-7947600D01*
X14527850Y-10419400D02*
X14567850Y-10459400D01*
X14567850Y-10419400D02*
X14527850Y-10459400D01*
X14591604Y-14959650D02*
X14631604Y-14999650D01*
X14631604Y-14959650D02*
X14591604Y-14999650D01*
X14601256Y-12957876D02*
X14641256Y-12997876D01*
X14641256Y-12957876D02*
X14601256Y-12997876D01*
X14612000Y-6851000D02*
X14652000Y-6891000D01*
X14652000Y-6851000D02*
X14612000Y-6891000D01*
X14644342Y-14000800D02*
X14684342Y-14040800D01*
X14684342Y-14000800D02*
X14644342Y-14040800D01*
X14745528Y-13678220D02*
X14785528Y-13718220D01*
X14785528Y-13678220D02*
X14745528Y-13718220D01*
X14799376Y-7146102D02*
X14839376Y-7186102D01*
X14839376Y-7146102D02*
X14799376Y-7186102D01*
X14870981Y-10415268D02*
X14910981Y-10455268D01*
X14910981Y-10415268D02*
X14870981Y-10455268D01*
X14903008Y-7406960D02*
X14943008Y-7446960D01*
X14943008Y-7406960D02*
X14903008Y-7446960D01*
X14905040Y-7256592D02*
X14945040Y-7296592D01*
X14945040Y-7256592D02*
X14905040Y-7296592D01*
X14906564Y-7565456D02*
X14946564Y-7605456D01*
X14946564Y-7565456D02*
X14906564Y-7605456D01*
X14907072Y-7714300D02*
X14947072Y-7754300D01*
X14947072Y-7714300D02*
X14907072Y-7754300D01*
X14907580Y-7146610D02*
X14947580Y-7186610D01*
X14947580Y-7146610D02*
X14907580Y-7186610D01*
X14924598Y-12955844D02*
X14964598Y-12995844D01*
X14964598Y-12955844D02*
X14924598Y-12995844D01*
X15016800Y-12553000D02*
X15056800Y-12593000D01*
X15056800Y-12553000D02*
X15016800Y-12593000D01*
X15093231Y-10415268D02*
X15133231Y-10455268D01*
X15133231Y-10415268D02*
X15093231Y-10455268D01*
X15125766Y-7467412D02*
X15165766Y-7507412D01*
X15165766Y-7467412D02*
X15125766Y-7507412D01*
X15191552Y-14944410D02*
X15231552Y-14984410D01*
X15231552Y-14944410D02*
X15191552Y-14984410D01*
X15331500Y-6869700D02*
X15371500Y-6909700D01*
X15371500Y-6869700D02*
X15331500Y-6909700D01*
X15385100Y-11890060D02*
X15425100Y-11930060D01*
X15425100Y-11890060D02*
X15385100Y-11930060D01*
X15510576Y-12230420D02*
X15550576Y-12270420D01*
X15550576Y-12230420D02*
X15510576Y-12270420D01*
X15537500Y-9238300D02*
X15577500Y-9278300D01*
X15577500Y-9238300D02*
X15537500Y-9278300D01*
X15562400Y-9025200D02*
X15602400Y-9065200D01*
X15602400Y-9025200D02*
X15562400Y-9065200D01*
X15565000Y-14070000D02*
X15605000Y-14110000D01*
X15605000Y-14070000D02*
X15565000Y-14110000D01*
X15723500Y-6939700D02*
X15763500Y-6979700D01*
X15763500Y-6939700D02*
X15723500Y-6979700D01*
X15724500Y-7072700D02*
X15764500Y-7112700D01*
X15764500Y-7072700D02*
X15724500Y-7112700D01*
X16093760Y-11698036D02*
X16133760Y-11738036D01*
X16133760Y-11698036D02*
X16093760Y-11738036D01*
X16245000Y-10000000D02*
X16285000Y-10040000D01*
X16285000Y-10000000D02*
X16245000Y-10040000D01*
X16291118Y-8896848D02*
X16331118Y-8936848D01*
X16331118Y-8896848D02*
X16291118Y-8936848D01*
X16433484Y-8026928D02*
X16473484Y-8066928D01*
X16473484Y-8026928D02*
X16433484Y-8066928D01*
X16465484Y-8897928D02*
X16505484Y-8937928D01*
X16505484Y-8897928D02*
X16465484Y-8937928D01*
X16545626Y-10689148D02*
X16585626Y-10729148D01*
X16585626Y-10689148D02*
X16545626Y-10729148D01*
X16626906Y-8898372D02*
X16666906Y-8938372D01*
X16666906Y-8898372D02*
X16626906Y-8938372D01*
X16678976Y-12884724D02*
X16718976Y-12924724D01*
X16718976Y-12884724D02*
X16678976Y-12924724D01*
X16931918Y-13975724D02*
X16971918Y-14015724D01*
X16971918Y-13975724D02*
X16931918Y-14015724D01*
X16971484Y-8091928D02*
X17011484Y-8131928D01*
X17011484Y-8091928D02*
X16971484Y-8131928D01*
X16979484Y-8709928D02*
X17019484Y-8749928D01*
X17019484Y-8709928D02*
X16979484Y-8749928D01*
X17009904Y-12879326D02*
X17049904Y-12919326D01*
X17049904Y-12879326D02*
X17009904Y-12919326D01*
X17067484Y-8089128D02*
X17107484Y-8129128D01*
X17107484Y-8089128D02*
X17067484Y-8129128D01*
X17074200Y-14381800D02*
X17114200Y-14421800D01*
X17114200Y-14381800D02*
X17074200Y-14421800D01*
X17086104Y-12523726D02*
X17126104Y-12563726D01*
X17126104Y-12523726D02*
X17086104Y-12563726D01*
X17115000Y-13216000D02*
X17155000Y-13256000D01*
X17155000Y-13216000D02*
X17115000Y-13256000D01*
X17136918Y-13973418D02*
X17176918Y-14013418D01*
X17176918Y-13973418D02*
X17136918Y-14013418D01*
X17231172Y-13667552D02*
X17271172Y-13707552D01*
X17271172Y-13667552D02*
X17231172Y-13707552D01*
X17344682Y-9293968D02*
X17384682Y-9333968D01*
X17384682Y-9293968D02*
X17344682Y-9333968D01*
X17410000Y-8717500D02*
X17450000Y-8757500D01*
X17450000Y-8717500D02*
X17410000Y-8757500D01*
X17492504Y-11888726D02*
X17532504Y-11928726D01*
X17532504Y-11888726D02*
X17492504Y-11928726D01*
X17547656Y-9295704D02*
X17587656Y-9335704D01*
X17587656Y-9295704D02*
X17547656Y-9335704D01*
X17562134Y-8719886D02*
X17602134Y-8759886D01*
X17602134Y-8719886D02*
X17562134Y-8759886D01*
X17565436Y-8925880D02*
X17605436Y-8965880D01*
X17605436Y-8925880D02*
X17565436Y-8965880D01*
X17642984Y-7979928D02*
X17682984Y-8019928D01*
X17682984Y-7979928D02*
X17642984Y-8019928D01*
X17690484Y-8386428D02*
X17730484Y-8426428D01*
X17730484Y-8386428D02*
X17690484Y-8426428D01*
X17695704Y-11888726D02*
X17735704Y-11928726D01*
X17735704Y-11888726D02*
X17695704Y-11928726D01*
X17701794Y-8719900D02*
X17741794Y-8759900D01*
X17741794Y-8719900D02*
X17701794Y-8759900D01*
X17714280Y-9462836D02*
X17754280Y-9502836D01*
X17754280Y-9462836D02*
X17714280Y-9502836D01*
X17757968Y-14103924D02*
X17797968Y-14143924D01*
X17797968Y-14103924D02*
X17757968Y-14143924D01*
X17792484Y-8388428D02*
X17832484Y-8428428D01*
X17832484Y-8388428D02*
X17792484Y-8428428D01*
X17798354Y-14746290D02*
X17838354Y-14786290D01*
X17838354Y-14746290D02*
X17798354Y-14786290D01*
X17804704Y-12169968D02*
X17844704Y-12209968D01*
X17844704Y-12169968D02*
X17804704Y-12209968D01*
X17945000Y-7965000D02*
X17985000Y-8005000D01*
X17985000Y-7965000D02*
X17945000Y-8005000D01*
X17947500Y-7867500D02*
X17987500Y-7907500D01*
X17987500Y-7867500D02*
X17947500Y-7907500D01*
X18130484Y-7399428D02*
X18170484Y-7439428D01*
X18170484Y-7399428D02*
X18130484Y-7439428D01*
X18233710Y-12511090D02*
X18273710Y-12551090D01*
X18273710Y-12511090D02*
X18233710Y-12551090D01*
X18392460Y-8299770D02*
X18432460Y-8339770D01*
X18432460Y-8299770D02*
X18392460Y-8339770D01*
X18438484Y-7697790D02*
X18478484Y-7737790D01*
X18478484Y-7697790D02*
X18438484Y-7737790D01*
X18439450Y-7817170D02*
X18479450Y-7857170D01*
X18479450Y-7817170D02*
X18439450Y-7857170D01*
X18540288Y-7816408D02*
X18580288Y-7856408D01*
X18580288Y-7816408D02*
X18540288Y-7856408D01*
X18541050Y-8294690D02*
X18581050Y-8334690D01*
X18581050Y-8294690D02*
X18541050Y-8334690D01*
D13*
X10953050Y-12500000D02*
G75*
G03*
X10953050Y-12500000I-34000J0D01*
G01*
X10953050Y-12700000D02*
G75*
G03*
X10953050Y-12700000I-34000J0D01*
G01*
X10953050Y-12900000D02*
G75*
G03*
X10953050Y-12900000I-34000J0D01*
G01*
X11153050Y-12500000D02*
G75*
G03*
X11153050Y-12500000I-34000J0D01*
G01*
X11153050Y-12700000D02*
G75*
G03*
X11153050Y-12700000I-34000J0D01*
G01*
X11153050Y-12900000D02*
G75*
G03*
X11153050Y-12900000I-34000J0D01*
G01*
X18489640Y-12472720D02*
G75*
G03*
X18489640Y-12472720I-34000J0D01*
G01*
X18489640Y-12672720D02*
G75*
G03*
X18489640Y-12672720I-34000J0D01*
G01*
X18489640Y-12872720D02*
G75*
G03*
X18489640Y-12872720I-34000J0D01*
G01*
X18689640Y-12472720D02*
G75*
G03*
X18689640Y-12472720I-34000J0D01*
G01*
X18689640Y-12672720D02*
G75*
G03*
X18689640Y-12672720I-34000J0D01*
G01*
X18689640Y-12872720D02*
G75*
G03*
X18689640Y-12872720I-34000J0D01*
G01*
D14*
X12550000Y-8821900D02*
X12550000Y-8898100D01*
X12511900Y-8860000D02*
X12588100Y-8860000D01*
X12550000Y-9021900D02*
X12550000Y-9098100D01*
X12511900Y-9060000D02*
X12588100Y-9060000D01*
X14160000Y-12741900D02*
X14160000Y-12818100D01*
X14121900Y-12780000D02*
X14198100Y-12780000D01*
X14160000Y-12941900D02*
X14160000Y-13018100D01*
X14121900Y-12980000D02*
X14198100Y-12980000D01*
X15970000Y-8821900D02*
X15970000Y-8898100D01*
X15931900Y-8860000D02*
X16008100Y-8860000D01*
X15970000Y-9021900D02*
X15970000Y-9098100D01*
X15931900Y-9060000D02*
X16008100Y-9060000D01*
D15*
X11806284Y-9826285D02*
X11806284Y-9769716D01*
X11749715Y-9769716D01*
X11749715Y-9826285D01*
X11806284Y-9826285D01*
X11806284Y-10080285D02*
X11806284Y-10023716D01*
X11749715Y-10023716D01*
X11749715Y-10080285D01*
X11806284Y-10080285D01*
X11806284Y-10334285D02*
X11806284Y-10277716D01*
X11749715Y-10277716D01*
X11749715Y-10334285D01*
X11806284Y-10334285D01*
X11806284Y-10588285D02*
X11806284Y-10531716D01*
X11749715Y-10531716D01*
X11749715Y-10588285D01*
X11806284Y-10588285D01*
X12568284Y-9826285D02*
X12568284Y-9769716D01*
X12511715Y-9769716D01*
X12511715Y-9826285D01*
X12568284Y-9826285D01*
X12568284Y-10080285D02*
X12568284Y-10023716D01*
X12511715Y-10023716D01*
X12511715Y-10080285D01*
X12568284Y-10080285D01*
X12568284Y-10334285D02*
X12568284Y-10277716D01*
X12511715Y-10277716D01*
X12511715Y-10334285D01*
X12568284Y-10334285D01*
X12568284Y-10588285D02*
X12568284Y-10531716D01*
X12511715Y-10531716D01*
X12511715Y-10588285D01*
X12568284Y-10588285D01*
X14062284Y-7528284D02*
X14062284Y-7471715D01*
X14005715Y-7471715D01*
X14005715Y-7528284D01*
X14062284Y-7528284D01*
X14550284Y-7528284D02*
X14550284Y-7471715D01*
X14493715Y-7471715D01*
X14493715Y-7528284D01*
X14550284Y-7528284D01*
X16830785Y-9863285D02*
X16830785Y-9806716D01*
X16774215Y-9806716D01*
X16774215Y-9863285D01*
X16830785Y-9863285D01*
X16830785Y-10117285D02*
X16830785Y-10060716D01*
X16774215Y-10060716D01*
X16774215Y-10117285D01*
X16830785Y-10117285D01*
X16830785Y-10371285D02*
X16830785Y-10314716D01*
X16774215Y-10314716D01*
X16774215Y-10371285D01*
X16830785Y-10371285D01*
X16830785Y-10625285D02*
X16830785Y-10568716D01*
X16774215Y-10568716D01*
X16774215Y-10625285D01*
X16830785Y-10625285D01*
X17592785Y-9863285D02*
X17592785Y-9806716D01*
X17536216Y-9806716D01*
X17536216Y-9863285D01*
X17592785Y-9863285D01*
X17592785Y-10117285D02*
X17592785Y-10060716D01*
X17536216Y-10060716D01*
X17536216Y-10117285D01*
X17592785Y-10117285D01*
X17592785Y-10371285D02*
X17592785Y-10314716D01*
X17536216Y-10314716D01*
X17536216Y-10371285D01*
X17592785Y-10371285D01*
X17592785Y-10625285D02*
X17592785Y-10568716D01*
X17536216Y-10568716D01*
X17536216Y-10625285D01*
X17592785Y-10625285D01*
D16*
X11165000Y-14190000D02*
X11215000Y-14140000D01*
X11165000Y-14090000D01*
X11115000Y-14140000D01*
X11165000Y-14190000D01*
X11214100Y-8990800D02*
X11264100Y-8940800D01*
X11214100Y-8890800D01*
X11164100Y-8940800D01*
X11214100Y-8990800D01*
X11419000Y-14190000D02*
X11469000Y-14140000D01*
X11419000Y-14090000D01*
X11369000Y-14140000D01*
X11419000Y-14190000D01*
X11550000Y-12236000D02*
X11600000Y-12186000D01*
X11550000Y-12136000D01*
X11500000Y-12186000D01*
X11550000Y-12236000D01*
X11550000Y-12490000D02*
X11600000Y-12440000D01*
X11550000Y-12390000D01*
X11500000Y-12440000D01*
X11550000Y-12490000D01*
X11550000Y-12744000D02*
X11600000Y-12694000D01*
X11550000Y-12644000D01*
X11500000Y-12694000D01*
X11550000Y-12744000D01*
X11550000Y-12998000D02*
X11600000Y-12948000D01*
X11550000Y-12898000D01*
X11500000Y-12948000D01*
X11550000Y-12998000D01*
X11550000Y-13252000D02*
X11600000Y-13202000D01*
X11550000Y-13152000D01*
X11500000Y-13202000D01*
X11550000Y-13252000D01*
X12219000Y-11179000D02*
X12269000Y-11129000D01*
X12219000Y-11079000D01*
X12169000Y-11129000D01*
X12219000Y-11179000D01*
X13022326Y-11179518D02*
X13072326Y-11129518D01*
X13022326Y-11079518D01*
X12972326Y-11129518D01*
X13022326Y-11179518D01*
X13210000Y-14815000D02*
X13260000Y-14765000D01*
X13210000Y-14715000D01*
X13160000Y-14765000D01*
X13210000Y-14815000D01*
X13335000Y-9956000D02*
X13385000Y-9906000D01*
X13335000Y-9856000D01*
X13285000Y-9906000D01*
X13335000Y-9956000D01*
X13625000Y-12245000D02*
X13675000Y-12195000D01*
X13625000Y-12145000D01*
X13575000Y-12195000D01*
X13625000Y-12245000D01*
X13645000Y-12811000D02*
X13695000Y-12761000D01*
X13645000Y-12711000D01*
X13595000Y-12761000D01*
X13645000Y-12811000D01*
X13645000Y-13065000D02*
X13695000Y-13015000D01*
X13645000Y-12965000D01*
X13595000Y-13015000D01*
X13645000Y-13065000D01*
X13715000Y-14190000D02*
X13765000Y-14140000D01*
X13715000Y-14090000D01*
X13665000Y-14140000D01*
X13715000Y-14190000D01*
X13969000Y-14190000D02*
X14019000Y-14140000D01*
X13969000Y-14090000D01*
X13919000Y-14140000D01*
X13969000Y-14190000D01*
X15825000Y-14522500D02*
X15875000Y-14472500D01*
X15825000Y-14422500D01*
X15775000Y-14472500D01*
X15825000Y-14522500D01*
X15865000Y-14035000D02*
X15915000Y-13985000D01*
X15865000Y-13935000D01*
X15815000Y-13985000D01*
X15865000Y-14035000D01*
X15917672Y-12939484D02*
X15967672Y-12889484D01*
X15917672Y-12839484D01*
X15867672Y-12889484D01*
X15917672Y-12939484D01*
X15917672Y-13193484D02*
X15967672Y-13143484D01*
X15917672Y-13093484D01*
X15867672Y-13143484D01*
X15917672Y-13193484D01*
X15925800Y-12163768D02*
X15975800Y-12113768D01*
X15925800Y-12063768D01*
X15875800Y-12113768D01*
X15925800Y-12163768D01*
X16119000Y-14035000D02*
X16169000Y-13985000D01*
X16119000Y-13935000D01*
X16069000Y-13985000D01*
X16119000Y-14035000D01*
X16135000Y-9542500D02*
X16185000Y-9492500D01*
X16135000Y-9442500D01*
X16085000Y-9492500D01*
X16135000Y-9542500D01*
X16993500Y-9434500D02*
X17043500Y-9384500D01*
X16993500Y-9334500D01*
X16943500Y-9384500D01*
X16993500Y-9434500D01*
X17214850Y-11829250D02*
X17264850Y-11779250D01*
X17214850Y-11729250D01*
X17164850Y-11779250D01*
X17214850Y-11829250D01*
X17381000Y-13006000D02*
X17431000Y-12956000D01*
X17381000Y-12906000D01*
X17331000Y-12956000D01*
X17381000Y-13006000D01*
X17635000Y-13006000D02*
X17685000Y-12956000D01*
X17635000Y-12906000D01*
X17585000Y-12956000D01*
X17635000Y-13006000D01*
X18312484Y-8687428D02*
X18362484Y-8637428D01*
X18312484Y-8587428D01*
X18262484Y-8637428D01*
X18312484Y-8687428D01*
X18312484Y-8941428D02*
X18362484Y-8891428D01*
X18312484Y-8841428D01*
X18262484Y-8891428D01*
X18312484Y-8941428D01*
X18312484Y-9195428D02*
X18362484Y-9145428D01*
X18312484Y-9095428D01*
X18262484Y-9145428D01*
X18312484Y-9195428D01*
X18415000Y-14121600D02*
X18465000Y-14071600D01*
X18415000Y-14021600D01*
X18365000Y-14071600D01*
X18415000Y-14121600D01*
D17*
X11125000Y-6825000D02*
X11475000Y-7175000D01*
X11475000Y-6825000D02*
X11125000Y-7175000D01*
X11475000Y-7000000D02*
G75*
G03*
X11475000Y-7000000I-175000J0D01*
G01*
X11125000Y-14625000D02*
X11475000Y-14975000D01*
X11475000Y-14625000D02*
X11125000Y-14975000D01*
X11475000Y-14800000D02*
G75*
G03*
X11475000Y-14800000I-175000J0D01*
G01*
X18125000Y-6825000D02*
X18475000Y-7175000D01*
X18475000Y-6825000D02*
X18125000Y-7175000D01*
X18475000Y-7000000D02*
G75*
G03*
X18475000Y-7000000I-175000J0D01*
G01*
X18125000Y-14625000D02*
X18475000Y-14975000D01*
X18475000Y-14625000D02*
X18125000Y-14975000D01*
X18475000Y-14800000D02*
G75*
G03*
X18475000Y-14800000I-175000J0D01*
G01*
D11*
X11052619Y-15515476D02*
X11052619Y-15315476D01*
X11100238Y-15315476D01*
X11128810Y-15325000D01*
X11147857Y-15344048D01*
X11157381Y-15363095D01*
X11166905Y-15401190D01*
X11166905Y-15429762D01*
X11157381Y-15467857D01*
X11147857Y-15486905D01*
X11128810Y-15505952D01*
X11100238Y-15515476D01*
X11052619Y-15515476D01*
X11252619Y-15515476D02*
X11252619Y-15382143D01*
X11252619Y-15420238D02*
X11262143Y-15401190D01*
X11271667Y-15391667D01*
X11290714Y-15382143D01*
X11309762Y-15382143D01*
X11376428Y-15515476D02*
X11376428Y-15382143D01*
X11376428Y-15315476D02*
X11366905Y-15325000D01*
X11376428Y-15334524D01*
X11385952Y-15325000D01*
X11376428Y-15315476D01*
X11376428Y-15334524D01*
X11500238Y-15515476D02*
X11481190Y-15505952D01*
X11471667Y-15486905D01*
X11471667Y-15315476D01*
X11605000Y-15515476D02*
X11585952Y-15505952D01*
X11576428Y-15486905D01*
X11576428Y-15315476D01*
X11833571Y-15515476D02*
X11833571Y-15315476D01*
X11900238Y-15458333D01*
X11966905Y-15315476D01*
X11966905Y-15515476D01*
X12147857Y-15515476D02*
X12147857Y-15410714D01*
X12138333Y-15391667D01*
X12119286Y-15382143D01*
X12081190Y-15382143D01*
X12062143Y-15391667D01*
X12147857Y-15505952D02*
X12128809Y-15515476D01*
X12081190Y-15515476D01*
X12062143Y-15505952D01*
X12052619Y-15486905D01*
X12052619Y-15467857D01*
X12062143Y-15448809D01*
X12081190Y-15439286D01*
X12128809Y-15439286D01*
X12147857Y-15429762D01*
X12243095Y-15382143D02*
X12243095Y-15582143D01*
X12243095Y-15391667D02*
X12262143Y-15382143D01*
X12300238Y-15382143D01*
X12319286Y-15391667D01*
X12328809Y-15401190D01*
X12338333Y-15420238D01*
X12338333Y-15477381D01*
X12328809Y-15496428D01*
X12319286Y-15505952D01*
X12300238Y-15515476D01*
X12262143Y-15515476D01*
X12243095Y-15505952D01*
X12424048Y-15496428D02*
X12433571Y-15505952D01*
X12424048Y-15515476D01*
X12414524Y-15505952D01*
X12424048Y-15496428D01*
X12424048Y-15515476D01*
X12424048Y-15391667D02*
X12433571Y-15401190D01*
X12424048Y-15410714D01*
X12414524Y-15401190D01*
X12424048Y-15391667D01*
X12424048Y-15410714D01*
D12*
X10755000Y-15825000D02*
X10795000Y-15865000D01*
X10795000Y-15825000D02*
X10755000Y-15865000D01*
D11*
X11090714Y-15735476D02*
X11109762Y-15735476D01*
X11128810Y-15745000D01*
X11138333Y-15754524D01*
X11147857Y-15773571D01*
X11157381Y-15811667D01*
X11157381Y-15859286D01*
X11147857Y-15897381D01*
X11138333Y-15916428D01*
X11128810Y-15925952D01*
X11109762Y-15935476D01*
X11090714Y-15935476D01*
X11071667Y-15925952D01*
X11062143Y-15916428D01*
X11052619Y-15897381D01*
X11043095Y-15859286D01*
X11043095Y-15811667D01*
X11052619Y-15773571D01*
X11062143Y-15754524D01*
X11071667Y-15745000D01*
X11090714Y-15735476D01*
X11243095Y-15916428D02*
X11252619Y-15925952D01*
X11243095Y-15935476D01*
X11233571Y-15925952D01*
X11243095Y-15916428D01*
X11243095Y-15935476D01*
X11424048Y-15802143D02*
X11424048Y-15935476D01*
X11376428Y-15725952D02*
X11328809Y-15868809D01*
X11452619Y-15868809D01*
X11566905Y-15735476D02*
X11585952Y-15735476D01*
X11605000Y-15745000D01*
X11614524Y-15754524D01*
X11624048Y-15773571D01*
X11633571Y-15811667D01*
X11633571Y-15859286D01*
X11624048Y-15897381D01*
X11614524Y-15916428D01*
X11605000Y-15925952D01*
X11585952Y-15935476D01*
X11566905Y-15935476D01*
X11547857Y-15925952D01*
X11538333Y-15916428D01*
X11528809Y-15897381D01*
X11519286Y-15859286D01*
X11519286Y-15811667D01*
X11528809Y-15773571D01*
X11538333Y-15754524D01*
X11547857Y-15745000D01*
X11566905Y-15735476D01*
X11757381Y-15735476D02*
X11776428Y-15735476D01*
X11795476Y-15745000D01*
X11805000Y-15754524D01*
X11814524Y-15773571D01*
X11824048Y-15811667D01*
X11824048Y-15859286D01*
X11814524Y-15897381D01*
X11805000Y-15916428D01*
X11795476Y-15925952D01*
X11776428Y-15935476D01*
X11757381Y-15935476D01*
X11738333Y-15925952D01*
X11728809Y-15916428D01*
X11719286Y-15897381D01*
X11709762Y-15859286D01*
X11709762Y-15811667D01*
X11719286Y-15773571D01*
X11728809Y-15754524D01*
X11738333Y-15745000D01*
X11757381Y-15735476D01*
X11909762Y-15935476D02*
X11909762Y-15802143D01*
X11909762Y-15821190D02*
X11919286Y-15811667D01*
X11938333Y-15802143D01*
X11966905Y-15802143D01*
X11985952Y-15811667D01*
X11995476Y-15830714D01*
X11995476Y-15935476D01*
X11995476Y-15830714D02*
X12005000Y-15811667D01*
X12024048Y-15802143D01*
X12052619Y-15802143D01*
X12071667Y-15811667D01*
X12081190Y-15830714D01*
X12081190Y-15935476D01*
X12176428Y-15935476D02*
X12176428Y-15802143D01*
X12176428Y-15821190D02*
X12185952Y-15811667D01*
X12205000Y-15802143D01*
X12233571Y-15802143D01*
X12252619Y-15811667D01*
X12262143Y-15830714D01*
X12262143Y-15935476D01*
X12262143Y-15830714D02*
X12271667Y-15811667D01*
X12290714Y-15802143D01*
X12319286Y-15802143D01*
X12338333Y-15811667D01*
X12347857Y-15830714D01*
X12347857Y-15935476D01*
X12738333Y-15725952D02*
X12566905Y-15983095D01*
X12995476Y-15735476D02*
X13014524Y-15735476D01*
X13033571Y-15745000D01*
X13043095Y-15754524D01*
X13052619Y-15773571D01*
X13062143Y-15811667D01*
X13062143Y-15859286D01*
X13052619Y-15897381D01*
X13043095Y-15916428D01*
X13033571Y-15925952D01*
X13014524Y-15935476D01*
X12995476Y-15935476D01*
X12976428Y-15925952D01*
X12966905Y-15916428D01*
X12957381Y-15897381D01*
X12947857Y-15859286D01*
X12947857Y-15811667D01*
X12957381Y-15773571D01*
X12966905Y-15754524D01*
X12976428Y-15745000D01*
X12995476Y-15735476D01*
X13147857Y-15916428D02*
X13157381Y-15925952D01*
X13147857Y-15935476D01*
X13138333Y-15925952D01*
X13147857Y-15916428D01*
X13147857Y-15935476D01*
X13281190Y-15735476D02*
X13300238Y-15735476D01*
X13319286Y-15745000D01*
X13328809Y-15754524D01*
X13338333Y-15773571D01*
X13347857Y-15811667D01*
X13347857Y-15859286D01*
X13338333Y-15897381D01*
X13328809Y-15916428D01*
X13319286Y-15925952D01*
X13300238Y-15935476D01*
X13281190Y-15935476D01*
X13262143Y-15925952D01*
X13252619Y-15916428D01*
X13243095Y-15897381D01*
X13233571Y-15859286D01*
X13233571Y-15811667D01*
X13243095Y-15773571D01*
X13252619Y-15754524D01*
X13262143Y-15745000D01*
X13281190Y-15735476D01*
X13538333Y-15935476D02*
X13424048Y-15935476D01*
X13481190Y-15935476D02*
X13481190Y-15735476D01*
X13462143Y-15764048D01*
X13443095Y-15783095D01*
X13424048Y-15792619D01*
X13719286Y-15735476D02*
X13624048Y-15735476D01*
X13614524Y-15830714D01*
X13624048Y-15821190D01*
X13643095Y-15811667D01*
X13690714Y-15811667D01*
X13709762Y-15821190D01*
X13719286Y-15830714D01*
X13728809Y-15849762D01*
X13728809Y-15897381D01*
X13719286Y-15916428D01*
X13709762Y-15925952D01*
X13690714Y-15935476D01*
X13643095Y-15935476D01*
X13624048Y-15925952D01*
X13614524Y-15916428D01*
X13795476Y-15735476D02*
X13928809Y-15735476D01*
X13843095Y-15935476D01*
X13995476Y-15735476D02*
X13995476Y-15773571D01*
X14071667Y-15735476D02*
X14071667Y-15773571D01*
X14366905Y-16011667D02*
X14357381Y-16002143D01*
X14338333Y-15973571D01*
X14328809Y-15954524D01*
X14319286Y-15925952D01*
X14309762Y-15878333D01*
X14309762Y-15840238D01*
X14319286Y-15792619D01*
X14328809Y-15764048D01*
X14338333Y-15745000D01*
X14357381Y-15716428D01*
X14366905Y-15706905D01*
X14547857Y-15935476D02*
X14433571Y-15935476D01*
X14490714Y-15935476D02*
X14490714Y-15735476D01*
X14471667Y-15764048D01*
X14452619Y-15783095D01*
X14433571Y-15792619D01*
X14738333Y-15935476D02*
X14624048Y-15935476D01*
X14681190Y-15935476D02*
X14681190Y-15735476D01*
X14662143Y-15764048D01*
X14643095Y-15783095D01*
X14624048Y-15792619D01*
X14928809Y-15935476D02*
X14814524Y-15935476D01*
X14871667Y-15935476D02*
X14871667Y-15735476D01*
X14852619Y-15764048D01*
X14833571Y-15783095D01*
X14814524Y-15792619D01*
X15166905Y-15935476D02*
X15166905Y-15735476D01*
X15252619Y-15935476D02*
X15252619Y-15830714D01*
X15243095Y-15811667D01*
X15224048Y-15802143D01*
X15195476Y-15802143D01*
X15176428Y-15811667D01*
X15166905Y-15821190D01*
X15376428Y-15935476D02*
X15357381Y-15925952D01*
X15347857Y-15916428D01*
X15338333Y-15897381D01*
X15338333Y-15840238D01*
X15347857Y-15821190D01*
X15357381Y-15811667D01*
X15376428Y-15802143D01*
X15405000Y-15802143D01*
X15424048Y-15811667D01*
X15433571Y-15821190D01*
X15443095Y-15840238D01*
X15443095Y-15897381D01*
X15433571Y-15916428D01*
X15424048Y-15925952D01*
X15405000Y-15935476D01*
X15376428Y-15935476D01*
X15557381Y-15935476D02*
X15538333Y-15925952D01*
X15528809Y-15906905D01*
X15528809Y-15735476D01*
X15709762Y-15925952D02*
X15690714Y-15935476D01*
X15652619Y-15935476D01*
X15633571Y-15925952D01*
X15624048Y-15906905D01*
X15624048Y-15830714D01*
X15633571Y-15811667D01*
X15652619Y-15802143D01*
X15690714Y-15802143D01*
X15709762Y-15811667D01*
X15719286Y-15830714D01*
X15719286Y-15849762D01*
X15624048Y-15868809D01*
X15795476Y-15925952D02*
X15814524Y-15935476D01*
X15852619Y-15935476D01*
X15871667Y-15925952D01*
X15881190Y-15906905D01*
X15881190Y-15897381D01*
X15871667Y-15878333D01*
X15852619Y-15868809D01*
X15824048Y-15868809D01*
X15805000Y-15859286D01*
X15795476Y-15840238D01*
X15795476Y-15830714D01*
X15805000Y-15811667D01*
X15824048Y-15802143D01*
X15852619Y-15802143D01*
X15871667Y-15811667D01*
X15947857Y-16011667D02*
X15957381Y-16002143D01*
X15976428Y-15973571D01*
X15985952Y-15954524D01*
X15995476Y-15925952D01*
X16005000Y-15878333D01*
X16005000Y-15840238D01*
X15995476Y-15792619D01*
X15985952Y-15764048D01*
X15976428Y-15745000D01*
X15957381Y-15716428D01*
X15947857Y-15706905D01*
D13*
X10795000Y-16109000D02*
G75*
G03*
X10795000Y-16109000I-34000J0D01*
G01*
D11*
X11090714Y-15999476D02*
X11109762Y-15999476D01*
X11128810Y-16009000D01*
X11138333Y-16018524D01*
X11147857Y-16037571D01*
X11157381Y-16075667D01*
X11157381Y-16123286D01*
X11147857Y-16161381D01*
X11138333Y-16180428D01*
X11128810Y-16189952D01*
X11109762Y-16199476D01*
X11090714Y-16199476D01*
X11071667Y-16189952D01*
X11062143Y-16180428D01*
X11052619Y-16161381D01*
X11043095Y-16123286D01*
X11043095Y-16075667D01*
X11052619Y-16037571D01*
X11062143Y-16018524D01*
X11071667Y-16009000D01*
X11090714Y-15999476D01*
X11243095Y-16180428D02*
X11252619Y-16189952D01*
X11243095Y-16199476D01*
X11233571Y-16189952D01*
X11243095Y-16180428D01*
X11243095Y-16199476D01*
X11424048Y-15999476D02*
X11385952Y-15999476D01*
X11366905Y-16009000D01*
X11357381Y-16018524D01*
X11338333Y-16047095D01*
X11328809Y-16085190D01*
X11328809Y-16161381D01*
X11338333Y-16180428D01*
X11347857Y-16189952D01*
X11366905Y-16199476D01*
X11405000Y-16199476D01*
X11424048Y-16189952D01*
X11433571Y-16180428D01*
X11443095Y-16161381D01*
X11443095Y-16113762D01*
X11433571Y-16094714D01*
X11424048Y-16085190D01*
X11405000Y-16075667D01*
X11366905Y-16075667D01*
X11347857Y-16085190D01*
X11338333Y-16094714D01*
X11328809Y-16113762D01*
X11557381Y-16085190D02*
X11538333Y-16075667D01*
X11528809Y-16066143D01*
X11519286Y-16047095D01*
X11519286Y-16037571D01*
X11528809Y-16018524D01*
X11538333Y-16009000D01*
X11557381Y-15999476D01*
X11595476Y-15999476D01*
X11614524Y-16009000D01*
X11624048Y-16018524D01*
X11633571Y-16037571D01*
X11633571Y-16047095D01*
X11624048Y-16066143D01*
X11614524Y-16075667D01*
X11595476Y-16085190D01*
X11557381Y-16085190D01*
X11538333Y-16094714D01*
X11528809Y-16104238D01*
X11519286Y-16123286D01*
X11519286Y-16161381D01*
X11528809Y-16180428D01*
X11538333Y-16189952D01*
X11557381Y-16199476D01*
X11595476Y-16199476D01*
X11614524Y-16189952D01*
X11624048Y-16180428D01*
X11633571Y-16161381D01*
X11633571Y-16123286D01*
X11624048Y-16104238D01*
X11614524Y-16094714D01*
X11595476Y-16085190D01*
X11757381Y-15999476D02*
X11776428Y-15999476D01*
X11795476Y-16009000D01*
X11805000Y-16018524D01*
X11814524Y-16037571D01*
X11824048Y-16075667D01*
X11824048Y-16123286D01*
X11814524Y-16161381D01*
X11805000Y-16180428D01*
X11795476Y-16189952D01*
X11776428Y-16199476D01*
X11757381Y-16199476D01*
X11738333Y-16189952D01*
X11728809Y-16180428D01*
X11719286Y-16161381D01*
X11709762Y-16123286D01*
X11709762Y-16075667D01*
X11719286Y-16037571D01*
X11728809Y-16018524D01*
X11738333Y-16009000D01*
X11757381Y-15999476D01*
X11909762Y-16199476D02*
X11909762Y-16066143D01*
X11909762Y-16085190D02*
X11919286Y-16075667D01*
X11938333Y-16066143D01*
X11966905Y-16066143D01*
X11985952Y-16075667D01*
X11995476Y-16094714D01*
X11995476Y-16199476D01*
X11995476Y-16094714D02*
X12005000Y-16075667D01*
X12024048Y-16066143D01*
X12052619Y-16066143D01*
X12071667Y-16075667D01*
X12081190Y-16094714D01*
X12081190Y-16199476D01*
X12176428Y-16199476D02*
X12176428Y-16066143D01*
X12176428Y-16085190D02*
X12185952Y-16075667D01*
X12205000Y-16066143D01*
X12233571Y-16066143D01*
X12252619Y-16075667D01*
X12262143Y-16094714D01*
X12262143Y-16199476D01*
X12262143Y-16094714D02*
X12271667Y-16075667D01*
X12290714Y-16066143D01*
X12319286Y-16066143D01*
X12338333Y-16075667D01*
X12347857Y-16094714D01*
X12347857Y-16199476D01*
X12738333Y-15989952D02*
X12566905Y-16247095D01*
X12995476Y-15999476D02*
X13014524Y-15999476D01*
X13033571Y-16009000D01*
X13043095Y-16018524D01*
X13052619Y-16037571D01*
X13062143Y-16075667D01*
X13062143Y-16123286D01*
X13052619Y-16161381D01*
X13043095Y-16180428D01*
X13033571Y-16189952D01*
X13014524Y-16199476D01*
X12995476Y-16199476D01*
X12976428Y-16189952D01*
X12966905Y-16180428D01*
X12957381Y-16161381D01*
X12947857Y-16123286D01*
X12947857Y-16075667D01*
X12957381Y-16037571D01*
X12966905Y-16018524D01*
X12976428Y-16009000D01*
X12995476Y-15999476D01*
X13147857Y-16180428D02*
X13157381Y-16189952D01*
X13147857Y-16199476D01*
X13138333Y-16189952D01*
X13147857Y-16180428D01*
X13147857Y-16199476D01*
X13281190Y-15999476D02*
X13300238Y-15999476D01*
X13319286Y-16009000D01*
X13328809Y-16018524D01*
X13338333Y-16037571D01*
X13347857Y-16075667D01*
X13347857Y-16123286D01*
X13338333Y-16161381D01*
X13328809Y-16180428D01*
X13319286Y-16189952D01*
X13300238Y-16199476D01*
X13281190Y-16199476D01*
X13262143Y-16189952D01*
X13252619Y-16180428D01*
X13243095Y-16161381D01*
X13233571Y-16123286D01*
X13233571Y-16075667D01*
X13243095Y-16037571D01*
X13252619Y-16018524D01*
X13262143Y-16009000D01*
X13281190Y-15999476D01*
X13424048Y-16018524D02*
X13433571Y-16009000D01*
X13452619Y-15999476D01*
X13500238Y-15999476D01*
X13519286Y-16009000D01*
X13528809Y-16018524D01*
X13538333Y-16037571D01*
X13538333Y-16056619D01*
X13528809Y-16085190D01*
X13414524Y-16199476D01*
X13538333Y-16199476D01*
X13709762Y-15999476D02*
X13671667Y-15999476D01*
X13652619Y-16009000D01*
X13643095Y-16018524D01*
X13624048Y-16047095D01*
X13614524Y-16085190D01*
X13614524Y-16161381D01*
X13624048Y-16180428D01*
X13633571Y-16189952D01*
X13652619Y-16199476D01*
X13690714Y-16199476D01*
X13709762Y-16189952D01*
X13719286Y-16180428D01*
X13728809Y-16161381D01*
X13728809Y-16113762D01*
X13719286Y-16094714D01*
X13709762Y-16085190D01*
X13690714Y-16075667D01*
X13652619Y-16075667D01*
X13633571Y-16085190D01*
X13624048Y-16094714D01*
X13614524Y-16113762D01*
X13843095Y-16085190D02*
X13824048Y-16075667D01*
X13814524Y-16066143D01*
X13805000Y-16047095D01*
X13805000Y-16037571D01*
X13814524Y-16018524D01*
X13824048Y-16009000D01*
X13843095Y-15999476D01*
X13881190Y-15999476D01*
X13900238Y-16009000D01*
X13909762Y-16018524D01*
X13919286Y-16037571D01*
X13919286Y-16047095D01*
X13909762Y-16066143D01*
X13900238Y-16075667D01*
X13881190Y-16085190D01*
X13843095Y-16085190D01*
X13824048Y-16094714D01*
X13814524Y-16104238D01*
X13805000Y-16123286D01*
X13805000Y-16161381D01*
X13814524Y-16180428D01*
X13824048Y-16189952D01*
X13843095Y-16199476D01*
X13881190Y-16199476D01*
X13900238Y-16189952D01*
X13909762Y-16180428D01*
X13919286Y-16161381D01*
X13919286Y-16123286D01*
X13909762Y-16104238D01*
X13900238Y-16094714D01*
X13881190Y-16085190D01*
X13995476Y-15999476D02*
X13995476Y-16037571D01*
X14071667Y-15999476D02*
X14071667Y-16037571D01*
X14366905Y-16275667D02*
X14357381Y-16266143D01*
X14338333Y-16237571D01*
X14328809Y-16218524D01*
X14319286Y-16189952D01*
X14309762Y-16142333D01*
X14309762Y-16104238D01*
X14319286Y-16056619D01*
X14328809Y-16028048D01*
X14338333Y-16009000D01*
X14357381Y-15980428D01*
X14366905Y-15970905D01*
X14547857Y-16199476D02*
X14433571Y-16199476D01*
X14490714Y-16199476D02*
X14490714Y-15999476D01*
X14471667Y-16028048D01*
X14452619Y-16047095D01*
X14433571Y-16056619D01*
X14624048Y-16018524D02*
X14633571Y-16009000D01*
X14652619Y-15999476D01*
X14700238Y-15999476D01*
X14719286Y-16009000D01*
X14728809Y-16018524D01*
X14738333Y-16037571D01*
X14738333Y-16056619D01*
X14728809Y-16085190D01*
X14614524Y-16199476D01*
X14738333Y-16199476D01*
X14976428Y-16199476D02*
X14976428Y-15999476D01*
X15062143Y-16199476D02*
X15062143Y-16094714D01*
X15052619Y-16075667D01*
X15033571Y-16066143D01*
X15005000Y-16066143D01*
X14985952Y-16075667D01*
X14976428Y-16085190D01*
X15185952Y-16199476D02*
X15166905Y-16189952D01*
X15157381Y-16180428D01*
X15147857Y-16161381D01*
X15147857Y-16104238D01*
X15157381Y-16085190D01*
X15166905Y-16075667D01*
X15185952Y-16066143D01*
X15214524Y-16066143D01*
X15233571Y-16075667D01*
X15243095Y-16085190D01*
X15252619Y-16104238D01*
X15252619Y-16161381D01*
X15243095Y-16180428D01*
X15233571Y-16189952D01*
X15214524Y-16199476D01*
X15185952Y-16199476D01*
X15366905Y-16199476D02*
X15347857Y-16189952D01*
X15338333Y-16170905D01*
X15338333Y-15999476D01*
X15519286Y-16189952D02*
X15500238Y-16199476D01*
X15462143Y-16199476D01*
X15443095Y-16189952D01*
X15433571Y-16170905D01*
X15433571Y-16094714D01*
X15443095Y-16075667D01*
X15462143Y-16066143D01*
X15500238Y-16066143D01*
X15519286Y-16075667D01*
X15528809Y-16094714D01*
X15528809Y-16113762D01*
X15433571Y-16132809D01*
X15605000Y-16189952D02*
X15624048Y-16199476D01*
X15662143Y-16199476D01*
X15681190Y-16189952D01*
X15690714Y-16170905D01*
X15690714Y-16161381D01*
X15681190Y-16142333D01*
X15662143Y-16132809D01*
X15633571Y-16132809D01*
X15614524Y-16123286D01*
X15605000Y-16104238D01*
X15605000Y-16094714D01*
X15614524Y-16075667D01*
X15633571Y-16066143D01*
X15662143Y-16066143D01*
X15681190Y-16075667D01*
X15757381Y-16275667D02*
X15766905Y-16266143D01*
X15785952Y-16237571D01*
X15795476Y-16218524D01*
X15805000Y-16189952D01*
X15814524Y-16142333D01*
X15814524Y-16104238D01*
X15805000Y-16056619D01*
X15795476Y-16028048D01*
X15785952Y-16009000D01*
X15766905Y-15980428D01*
X15757381Y-15970905D01*
D14*
X10756900Y-16334900D02*
X10756900Y-16411100D01*
X10718800Y-16373000D02*
X10795000Y-16373000D01*
D11*
X11090714Y-16263476D02*
X11109762Y-16263476D01*
X11128810Y-16273000D01*
X11138333Y-16282524D01*
X11147857Y-16301571D01*
X11157381Y-16339667D01*
X11157381Y-16387286D01*
X11147857Y-16425381D01*
X11138333Y-16444428D01*
X11128810Y-16453952D01*
X11109762Y-16463476D01*
X11090714Y-16463476D01*
X11071667Y-16453952D01*
X11062143Y-16444428D01*
X11052619Y-16425381D01*
X11043095Y-16387286D01*
X11043095Y-16339667D01*
X11052619Y-16301571D01*
X11062143Y-16282524D01*
X11071667Y-16273000D01*
X11090714Y-16263476D01*
X11243095Y-16444428D02*
X11252619Y-16453952D01*
X11243095Y-16463476D01*
X11233571Y-16453952D01*
X11243095Y-16444428D01*
X11243095Y-16463476D01*
X11319286Y-16263476D02*
X11452619Y-16263476D01*
X11366905Y-16463476D01*
X11614524Y-16263476D02*
X11576428Y-16263476D01*
X11557381Y-16273000D01*
X11547857Y-16282524D01*
X11528809Y-16311095D01*
X11519286Y-16349190D01*
X11519286Y-16425381D01*
X11528809Y-16444428D01*
X11538333Y-16453952D01*
X11557381Y-16463476D01*
X11595476Y-16463476D01*
X11614524Y-16453952D01*
X11624048Y-16444428D01*
X11633571Y-16425381D01*
X11633571Y-16377762D01*
X11624048Y-16358714D01*
X11614524Y-16349190D01*
X11595476Y-16339667D01*
X11557381Y-16339667D01*
X11538333Y-16349190D01*
X11528809Y-16358714D01*
X11519286Y-16377762D01*
X11709762Y-16282524D02*
X11719286Y-16273000D01*
X11738333Y-16263476D01*
X11785952Y-16263476D01*
X11805000Y-16273000D01*
X11814524Y-16282524D01*
X11824048Y-16301571D01*
X11824048Y-16320619D01*
X11814524Y-16349190D01*
X11700238Y-16463476D01*
X11824048Y-16463476D01*
X11909762Y-16463476D02*
X11909762Y-16330143D01*
X11909762Y-16349190D02*
X11919286Y-16339667D01*
X11938333Y-16330143D01*
X11966905Y-16330143D01*
X11985952Y-16339667D01*
X11995476Y-16358714D01*
X11995476Y-16463476D01*
X11995476Y-16358714D02*
X12005000Y-16339667D01*
X12024048Y-16330143D01*
X12052619Y-16330143D01*
X12071667Y-16339667D01*
X12081190Y-16358714D01*
X12081190Y-16463476D01*
X12176428Y-16463476D02*
X12176428Y-16330143D01*
X12176428Y-16349190D02*
X12185952Y-16339667D01*
X12205000Y-16330143D01*
X12233571Y-16330143D01*
X12252619Y-16339667D01*
X12262143Y-16358714D01*
X12262143Y-16463476D01*
X12262143Y-16358714D02*
X12271667Y-16339667D01*
X12290714Y-16330143D01*
X12319286Y-16330143D01*
X12338333Y-16339667D01*
X12347857Y-16358714D01*
X12347857Y-16463476D01*
X12738333Y-16253952D02*
X12566905Y-16511095D01*
X12995476Y-16263476D02*
X13014524Y-16263476D01*
X13033571Y-16273000D01*
X13043095Y-16282524D01*
X13052619Y-16301571D01*
X13062143Y-16339667D01*
X13062143Y-16387286D01*
X13052619Y-16425381D01*
X13043095Y-16444428D01*
X13033571Y-16453952D01*
X13014524Y-16463476D01*
X12995476Y-16463476D01*
X12976428Y-16453952D01*
X12966905Y-16444428D01*
X12957381Y-16425381D01*
X12947857Y-16387286D01*
X12947857Y-16339667D01*
X12957381Y-16301571D01*
X12966905Y-16282524D01*
X12976428Y-16273000D01*
X12995476Y-16263476D01*
X13147857Y-16444428D02*
X13157381Y-16453952D01*
X13147857Y-16463476D01*
X13138333Y-16453952D01*
X13147857Y-16444428D01*
X13147857Y-16463476D01*
X13281190Y-16263476D02*
X13300238Y-16263476D01*
X13319286Y-16273000D01*
X13328809Y-16282524D01*
X13338333Y-16301571D01*
X13347857Y-16339667D01*
X13347857Y-16387286D01*
X13338333Y-16425381D01*
X13328809Y-16444428D01*
X13319286Y-16453952D01*
X13300238Y-16463476D01*
X13281190Y-16463476D01*
X13262143Y-16453952D01*
X13252619Y-16444428D01*
X13243095Y-16425381D01*
X13233571Y-16387286D01*
X13233571Y-16339667D01*
X13243095Y-16301571D01*
X13252619Y-16282524D01*
X13262143Y-16273000D01*
X13281190Y-16263476D01*
X13414524Y-16263476D02*
X13538333Y-16263476D01*
X13471667Y-16339667D01*
X13500238Y-16339667D01*
X13519286Y-16349190D01*
X13528809Y-16358714D01*
X13538333Y-16377762D01*
X13538333Y-16425381D01*
X13528809Y-16444428D01*
X13519286Y-16453952D01*
X13500238Y-16463476D01*
X13443095Y-16463476D01*
X13424048Y-16453952D01*
X13414524Y-16444428D01*
X13662143Y-16263476D02*
X13681190Y-16263476D01*
X13700238Y-16273000D01*
X13709762Y-16282524D01*
X13719286Y-16301571D01*
X13728809Y-16339667D01*
X13728809Y-16387286D01*
X13719286Y-16425381D01*
X13709762Y-16444428D01*
X13700238Y-16453952D01*
X13681190Y-16463476D01*
X13662143Y-16463476D01*
X13643095Y-16453952D01*
X13633571Y-16444428D01*
X13624048Y-16425381D01*
X13614524Y-16387286D01*
X13614524Y-16339667D01*
X13624048Y-16301571D01*
X13633571Y-16282524D01*
X13643095Y-16273000D01*
X13662143Y-16263476D01*
X13852619Y-16263476D02*
X13871667Y-16263476D01*
X13890714Y-16273000D01*
X13900238Y-16282524D01*
X13909762Y-16301571D01*
X13919286Y-16339667D01*
X13919286Y-16387286D01*
X13909762Y-16425381D01*
X13900238Y-16444428D01*
X13890714Y-16453952D01*
X13871667Y-16463476D01*
X13852619Y-16463476D01*
X13833571Y-16453952D01*
X13824048Y-16444428D01*
X13814524Y-16425381D01*
X13805000Y-16387286D01*
X13805000Y-16339667D01*
X13814524Y-16301571D01*
X13824048Y-16282524D01*
X13833571Y-16273000D01*
X13852619Y-16263476D01*
X13995476Y-16263476D02*
X13995476Y-16301571D01*
X14071667Y-16263476D02*
X14071667Y-16301571D01*
X14366905Y-16539667D02*
X14357381Y-16530143D01*
X14338333Y-16501571D01*
X14328809Y-16482524D01*
X14319286Y-16453952D01*
X14309762Y-16406333D01*
X14309762Y-16368238D01*
X14319286Y-16320619D01*
X14328809Y-16292048D01*
X14338333Y-16273000D01*
X14357381Y-16244428D01*
X14366905Y-16234905D01*
X14528809Y-16263476D02*
X14490714Y-16263476D01*
X14471667Y-16273000D01*
X14462143Y-16282524D01*
X14443095Y-16311095D01*
X14433571Y-16349190D01*
X14433571Y-16425381D01*
X14443095Y-16444428D01*
X14452619Y-16453952D01*
X14471667Y-16463476D01*
X14509762Y-16463476D01*
X14528809Y-16453952D01*
X14538333Y-16444428D01*
X14547857Y-16425381D01*
X14547857Y-16377762D01*
X14538333Y-16358714D01*
X14528809Y-16349190D01*
X14509762Y-16339667D01*
X14471667Y-16339667D01*
X14452619Y-16349190D01*
X14443095Y-16358714D01*
X14433571Y-16377762D01*
X14785952Y-16463476D02*
X14785952Y-16263476D01*
X14871667Y-16463476D02*
X14871667Y-16358714D01*
X14862143Y-16339667D01*
X14843095Y-16330143D01*
X14814524Y-16330143D01*
X14795476Y-16339667D01*
X14785952Y-16349190D01*
X14995476Y-16463476D02*
X14976428Y-16453952D01*
X14966905Y-16444428D01*
X14957381Y-16425381D01*
X14957381Y-16368238D01*
X14966905Y-16349190D01*
X14976428Y-16339667D01*
X14995476Y-16330143D01*
X15024048Y-16330143D01*
X15043095Y-16339667D01*
X15052619Y-16349190D01*
X15062143Y-16368238D01*
X15062143Y-16425381D01*
X15052619Y-16444428D01*
X15043095Y-16453952D01*
X15024048Y-16463476D01*
X14995476Y-16463476D01*
X15176428Y-16463476D02*
X15157381Y-16453952D01*
X15147857Y-16434905D01*
X15147857Y-16263476D01*
X15328809Y-16453952D02*
X15309762Y-16463476D01*
X15271667Y-16463476D01*
X15252619Y-16453952D01*
X15243095Y-16434905D01*
X15243095Y-16358714D01*
X15252619Y-16339667D01*
X15271667Y-16330143D01*
X15309762Y-16330143D01*
X15328809Y-16339667D01*
X15338333Y-16358714D01*
X15338333Y-16377762D01*
X15243095Y-16396809D01*
X15414524Y-16453952D02*
X15433571Y-16463476D01*
X15471667Y-16463476D01*
X15490714Y-16453952D01*
X15500238Y-16434905D01*
X15500238Y-16425381D01*
X15490714Y-16406333D01*
X15471667Y-16396809D01*
X15443095Y-16396809D01*
X15424048Y-16387286D01*
X15414524Y-16368238D01*
X15414524Y-16358714D01*
X15424048Y-16339667D01*
X15443095Y-16330143D01*
X15471667Y-16330143D01*
X15490714Y-16339667D01*
X15566905Y-16539667D02*
X15576428Y-16530143D01*
X15595476Y-16501571D01*
X15605000Y-16482524D01*
X15614524Y-16453952D01*
X15624048Y-16406333D01*
X15624048Y-16368238D01*
X15614524Y-16320619D01*
X15605000Y-16292048D01*
X15595476Y-16273000D01*
X15576428Y-16244428D01*
X15566905Y-16234905D01*
D15*
X10783285Y-16665284D02*
X10783285Y-16608715D01*
X10726716Y-16608715D01*
X10726716Y-16665284D01*
X10783285Y-16665284D01*
D11*
X11090714Y-16527476D02*
X11109762Y-16527476D01*
X11128810Y-16537000D01*
X11138333Y-16546524D01*
X11147857Y-16565571D01*
X11157381Y-16603667D01*
X11157381Y-16651286D01*
X11147857Y-16689381D01*
X11138333Y-16708428D01*
X11128810Y-16717952D01*
X11109762Y-16727476D01*
X11090714Y-16727476D01*
X11071667Y-16717952D01*
X11062143Y-16708428D01*
X11052619Y-16689381D01*
X11043095Y-16651286D01*
X11043095Y-16603667D01*
X11052619Y-16565571D01*
X11062143Y-16546524D01*
X11071667Y-16537000D01*
X11090714Y-16527476D01*
X11243095Y-16708428D02*
X11252619Y-16717952D01*
X11243095Y-16727476D01*
X11233571Y-16717952D01*
X11243095Y-16708428D01*
X11243095Y-16727476D01*
X11366905Y-16613190D02*
X11347857Y-16603667D01*
X11338333Y-16594143D01*
X11328809Y-16575095D01*
X11328809Y-16565571D01*
X11338333Y-16546524D01*
X11347857Y-16537000D01*
X11366905Y-16527476D01*
X11405000Y-16527476D01*
X11424048Y-16537000D01*
X11433571Y-16546524D01*
X11443095Y-16565571D01*
X11443095Y-16575095D01*
X11433571Y-16594143D01*
X11424048Y-16603667D01*
X11405000Y-16613190D01*
X11366905Y-16613190D01*
X11347857Y-16622714D01*
X11338333Y-16632238D01*
X11328809Y-16651286D01*
X11328809Y-16689381D01*
X11338333Y-16708428D01*
X11347857Y-16717952D01*
X11366905Y-16727476D01*
X11405000Y-16727476D01*
X11424048Y-16717952D01*
X11433571Y-16708428D01*
X11443095Y-16689381D01*
X11443095Y-16651286D01*
X11433571Y-16632238D01*
X11424048Y-16622714D01*
X11405000Y-16613190D01*
X11566905Y-16527476D02*
X11585952Y-16527476D01*
X11605000Y-16537000D01*
X11614524Y-16546524D01*
X11624048Y-16565571D01*
X11633571Y-16603667D01*
X11633571Y-16651286D01*
X11624048Y-16689381D01*
X11614524Y-16708428D01*
X11605000Y-16717952D01*
X11585952Y-16727476D01*
X11566905Y-16727476D01*
X11547857Y-16717952D01*
X11538333Y-16708428D01*
X11528809Y-16689381D01*
X11519286Y-16651286D01*
X11519286Y-16603667D01*
X11528809Y-16565571D01*
X11538333Y-16546524D01*
X11547857Y-16537000D01*
X11566905Y-16527476D01*
X11757381Y-16527476D02*
X11776428Y-16527476D01*
X11795476Y-16537000D01*
X11805000Y-16546524D01*
X11814524Y-16565571D01*
X11824048Y-16603667D01*
X11824048Y-16651286D01*
X11814524Y-16689381D01*
X11805000Y-16708428D01*
X11795476Y-16717952D01*
X11776428Y-16727476D01*
X11757381Y-16727476D01*
X11738333Y-16717952D01*
X11728809Y-16708428D01*
X11719286Y-16689381D01*
X11709762Y-16651286D01*
X11709762Y-16603667D01*
X11719286Y-16565571D01*
X11728809Y-16546524D01*
X11738333Y-16537000D01*
X11757381Y-16527476D01*
X11909762Y-16727476D02*
X11909762Y-16594143D01*
X11909762Y-16613190D02*
X11919286Y-16603667D01*
X11938333Y-16594143D01*
X11966905Y-16594143D01*
X11985952Y-16603667D01*
X11995476Y-16622714D01*
X11995476Y-16727476D01*
X11995476Y-16622714D02*
X12005000Y-16603667D01*
X12024048Y-16594143D01*
X12052619Y-16594143D01*
X12071667Y-16603667D01*
X12081190Y-16622714D01*
X12081190Y-16727476D01*
X12176428Y-16727476D02*
X12176428Y-16594143D01*
X12176428Y-16613190D02*
X12185952Y-16603667D01*
X12205000Y-16594143D01*
X12233571Y-16594143D01*
X12252619Y-16603667D01*
X12262143Y-16622714D01*
X12262143Y-16727476D01*
X12262143Y-16622714D02*
X12271667Y-16603667D01*
X12290714Y-16594143D01*
X12319286Y-16594143D01*
X12338333Y-16603667D01*
X12347857Y-16622714D01*
X12347857Y-16727476D01*
X12738333Y-16517952D02*
X12566905Y-16775095D01*
X12995476Y-16527476D02*
X13014524Y-16527476D01*
X13033571Y-16537000D01*
X13043095Y-16546524D01*
X13052619Y-16565571D01*
X13062143Y-16603667D01*
X13062143Y-16651286D01*
X13052619Y-16689381D01*
X13043095Y-16708428D01*
X13033571Y-16717952D01*
X13014524Y-16727476D01*
X12995476Y-16727476D01*
X12976428Y-16717952D01*
X12966905Y-16708428D01*
X12957381Y-16689381D01*
X12947857Y-16651286D01*
X12947857Y-16603667D01*
X12957381Y-16565571D01*
X12966905Y-16546524D01*
X12976428Y-16537000D01*
X12995476Y-16527476D01*
X13147857Y-16708428D02*
X13157381Y-16717952D01*
X13147857Y-16727476D01*
X13138333Y-16717952D01*
X13147857Y-16708428D01*
X13147857Y-16727476D01*
X13281190Y-16527476D02*
X13300238Y-16527476D01*
X13319286Y-16537000D01*
X13328809Y-16546524D01*
X13338333Y-16565571D01*
X13347857Y-16603667D01*
X13347857Y-16651286D01*
X13338333Y-16689381D01*
X13328809Y-16708428D01*
X13319286Y-16717952D01*
X13300238Y-16727476D01*
X13281190Y-16727476D01*
X13262143Y-16717952D01*
X13252619Y-16708428D01*
X13243095Y-16689381D01*
X13233571Y-16651286D01*
X13233571Y-16603667D01*
X13243095Y-16565571D01*
X13252619Y-16546524D01*
X13262143Y-16537000D01*
X13281190Y-16527476D01*
X13414524Y-16527476D02*
X13538333Y-16527476D01*
X13471667Y-16603667D01*
X13500238Y-16603667D01*
X13519286Y-16613190D01*
X13528809Y-16622714D01*
X13538333Y-16641762D01*
X13538333Y-16689381D01*
X13528809Y-16708428D01*
X13519286Y-16717952D01*
X13500238Y-16727476D01*
X13443095Y-16727476D01*
X13424048Y-16717952D01*
X13414524Y-16708428D01*
X13728809Y-16727476D02*
X13614524Y-16727476D01*
X13671667Y-16727476D02*
X13671667Y-16527476D01*
X13652619Y-16556048D01*
X13633571Y-16575095D01*
X13614524Y-16584619D01*
X13909762Y-16527476D02*
X13814524Y-16527476D01*
X13805000Y-16622714D01*
X13814524Y-16613190D01*
X13833571Y-16603667D01*
X13881190Y-16603667D01*
X13900238Y-16613190D01*
X13909762Y-16622714D01*
X13919286Y-16641762D01*
X13919286Y-16689381D01*
X13909762Y-16708428D01*
X13900238Y-16717952D01*
X13881190Y-16727476D01*
X13833571Y-16727476D01*
X13814524Y-16717952D01*
X13805000Y-16708428D01*
X13995476Y-16527476D02*
X13995476Y-16565571D01*
X14071667Y-16527476D02*
X14071667Y-16565571D01*
X14366905Y-16803667D02*
X14357381Y-16794143D01*
X14338333Y-16765571D01*
X14328809Y-16746524D01*
X14319286Y-16717952D01*
X14309762Y-16670333D01*
X14309762Y-16632238D01*
X14319286Y-16584619D01*
X14328809Y-16556048D01*
X14338333Y-16537000D01*
X14357381Y-16508428D01*
X14366905Y-16498905D01*
X14547857Y-16727476D02*
X14433571Y-16727476D01*
X14490714Y-16727476D02*
X14490714Y-16527476D01*
X14471667Y-16556048D01*
X14452619Y-16575095D01*
X14433571Y-16584619D01*
X14662143Y-16613190D02*
X14643095Y-16603667D01*
X14633571Y-16594143D01*
X14624048Y-16575095D01*
X14624048Y-16565571D01*
X14633571Y-16546524D01*
X14643095Y-16537000D01*
X14662143Y-16527476D01*
X14700238Y-16527476D01*
X14719286Y-16537000D01*
X14728809Y-16546524D01*
X14738333Y-16565571D01*
X14738333Y-16575095D01*
X14728809Y-16594143D01*
X14719286Y-16603667D01*
X14700238Y-16613190D01*
X14662143Y-16613190D01*
X14643095Y-16622714D01*
X14633571Y-16632238D01*
X14624048Y-16651286D01*
X14624048Y-16689381D01*
X14633571Y-16708428D01*
X14643095Y-16717952D01*
X14662143Y-16727476D01*
X14700238Y-16727476D01*
X14719286Y-16717952D01*
X14728809Y-16708428D01*
X14738333Y-16689381D01*
X14738333Y-16651286D01*
X14728809Y-16632238D01*
X14719286Y-16622714D01*
X14700238Y-16613190D01*
X14976428Y-16727476D02*
X14976428Y-16527476D01*
X15062143Y-16727476D02*
X15062143Y-16622714D01*
X15052619Y-16603667D01*
X15033571Y-16594143D01*
X15005000Y-16594143D01*
X14985952Y-16603667D01*
X14976428Y-16613190D01*
X15185952Y-16727476D02*
X15166905Y-16717952D01*
X15157381Y-16708428D01*
X15147857Y-16689381D01*
X15147857Y-16632238D01*
X15157381Y-16613190D01*
X15166905Y-16603667D01*
X15185952Y-16594143D01*
X15214524Y-16594143D01*
X15233571Y-16603667D01*
X15243095Y-16613190D01*
X15252619Y-16632238D01*
X15252619Y-16689381D01*
X15243095Y-16708428D01*
X15233571Y-16717952D01*
X15214524Y-16727476D01*
X15185952Y-16727476D01*
X15366905Y-16727476D02*
X15347857Y-16717952D01*
X15338333Y-16698905D01*
X15338333Y-16527476D01*
X15519286Y-16717952D02*
X15500238Y-16727476D01*
X15462143Y-16727476D01*
X15443095Y-16717952D01*
X15433571Y-16698905D01*
X15433571Y-16622714D01*
X15443095Y-16603667D01*
X15462143Y-16594143D01*
X15500238Y-16594143D01*
X15519286Y-16603667D01*
X15528809Y-16622714D01*
X15528809Y-16641762D01*
X15433571Y-16660809D01*
X15605000Y-16717952D02*
X15624048Y-16727476D01*
X15662143Y-16727476D01*
X15681190Y-16717952D01*
X15690714Y-16698905D01*
X15690714Y-16689381D01*
X15681190Y-16670333D01*
X15662143Y-16660809D01*
X15633571Y-16660809D01*
X15614524Y-16651286D01*
X15605000Y-16632238D01*
X15605000Y-16622714D01*
X15614524Y-16603667D01*
X15633571Y-16594143D01*
X15662143Y-16594143D01*
X15681190Y-16603667D01*
X15757381Y-16803667D02*
X15766905Y-16794143D01*
X15785952Y-16765571D01*
X15795476Y-16746524D01*
X15805000Y-16717952D01*
X15814524Y-16670333D01*
X15814524Y-16632238D01*
X15805000Y-16584619D01*
X15795476Y-16556048D01*
X15785952Y-16537000D01*
X15766905Y-16508428D01*
X15757381Y-16498905D01*
D16*
X10745000Y-16951000D02*
X10795000Y-16901000D01*
X10745000Y-16851000D01*
X10695000Y-16901000D01*
X10745000Y-16951000D01*
D11*
X11157381Y-16991476D02*
X11043095Y-16991476D01*
X11100238Y-16991476D02*
X11100238Y-16791476D01*
X11081190Y-16820048D01*
X11062143Y-16839095D01*
X11043095Y-16848619D01*
X11243095Y-16972429D02*
X11252619Y-16981952D01*
X11243095Y-16991476D01*
X11233571Y-16981952D01*
X11243095Y-16972429D01*
X11243095Y-16991476D01*
X11376428Y-16791476D02*
X11395476Y-16791476D01*
X11414524Y-16801000D01*
X11424048Y-16810524D01*
X11433571Y-16829571D01*
X11443095Y-16867667D01*
X11443095Y-16915286D01*
X11433571Y-16953381D01*
X11424048Y-16972429D01*
X11414524Y-16981952D01*
X11395476Y-16991476D01*
X11376428Y-16991476D01*
X11357381Y-16981952D01*
X11347857Y-16972429D01*
X11338333Y-16953381D01*
X11328809Y-16915286D01*
X11328809Y-16867667D01*
X11338333Y-16829571D01*
X11347857Y-16810524D01*
X11357381Y-16801000D01*
X11376428Y-16791476D01*
X11566905Y-16791476D02*
X11585952Y-16791476D01*
X11605000Y-16801000D01*
X11614524Y-16810524D01*
X11624048Y-16829571D01*
X11633571Y-16867667D01*
X11633571Y-16915286D01*
X11624048Y-16953381D01*
X11614524Y-16972429D01*
X11605000Y-16981952D01*
X11585952Y-16991476D01*
X11566905Y-16991476D01*
X11547857Y-16981952D01*
X11538333Y-16972429D01*
X11528809Y-16953381D01*
X11519286Y-16915286D01*
X11519286Y-16867667D01*
X11528809Y-16829571D01*
X11538333Y-16810524D01*
X11547857Y-16801000D01*
X11566905Y-16791476D01*
X11757381Y-16791476D02*
X11776428Y-16791476D01*
X11795476Y-16801000D01*
X11805000Y-16810524D01*
X11814524Y-16829571D01*
X11824048Y-16867667D01*
X11824048Y-16915286D01*
X11814524Y-16953381D01*
X11805000Y-16972429D01*
X11795476Y-16981952D01*
X11776428Y-16991476D01*
X11757381Y-16991476D01*
X11738333Y-16981952D01*
X11728809Y-16972429D01*
X11719286Y-16953381D01*
X11709762Y-16915286D01*
X11709762Y-16867667D01*
X11719286Y-16829571D01*
X11728809Y-16810524D01*
X11738333Y-16801000D01*
X11757381Y-16791476D01*
X11909762Y-16991476D02*
X11909762Y-16858143D01*
X11909762Y-16877190D02*
X11919286Y-16867667D01*
X11938333Y-16858143D01*
X11966905Y-16858143D01*
X11985952Y-16867667D01*
X11995476Y-16886714D01*
X11995476Y-16991476D01*
X11995476Y-16886714D02*
X12005000Y-16867667D01*
X12024048Y-16858143D01*
X12052619Y-16858143D01*
X12071667Y-16867667D01*
X12081190Y-16886714D01*
X12081190Y-16991476D01*
X12176428Y-16991476D02*
X12176428Y-16858143D01*
X12176428Y-16877190D02*
X12185952Y-16867667D01*
X12205000Y-16858143D01*
X12233571Y-16858143D01*
X12252619Y-16867667D01*
X12262143Y-16886714D01*
X12262143Y-16991476D01*
X12262143Y-16886714D02*
X12271667Y-16867667D01*
X12290714Y-16858143D01*
X12319286Y-16858143D01*
X12338333Y-16867667D01*
X12347857Y-16886714D01*
X12347857Y-16991476D01*
X12738333Y-16781952D02*
X12566905Y-17039095D01*
X12995476Y-16791476D02*
X13014524Y-16791476D01*
X13033571Y-16801000D01*
X13043095Y-16810524D01*
X13052619Y-16829571D01*
X13062143Y-16867667D01*
X13062143Y-16915286D01*
X13052619Y-16953381D01*
X13043095Y-16972429D01*
X13033571Y-16981952D01*
X13014524Y-16991476D01*
X12995476Y-16991476D01*
X12976428Y-16981952D01*
X12966905Y-16972429D01*
X12957381Y-16953381D01*
X12947857Y-16915286D01*
X12947857Y-16867667D01*
X12957381Y-16829571D01*
X12966905Y-16810524D01*
X12976428Y-16801000D01*
X12995476Y-16791476D01*
X13147857Y-16972429D02*
X13157381Y-16981952D01*
X13147857Y-16991476D01*
X13138333Y-16981952D01*
X13147857Y-16972429D01*
X13147857Y-16991476D01*
X13281190Y-16791476D02*
X13300238Y-16791476D01*
X13319286Y-16801000D01*
X13328809Y-16810524D01*
X13338333Y-16829571D01*
X13347857Y-16867667D01*
X13347857Y-16915286D01*
X13338333Y-16953381D01*
X13328809Y-16972429D01*
X13319286Y-16981952D01*
X13300238Y-16991476D01*
X13281190Y-16991476D01*
X13262143Y-16981952D01*
X13252619Y-16972429D01*
X13243095Y-16953381D01*
X13233571Y-16915286D01*
X13233571Y-16867667D01*
X13243095Y-16829571D01*
X13252619Y-16810524D01*
X13262143Y-16801000D01*
X13281190Y-16791476D01*
X13414524Y-16791476D02*
X13538333Y-16791476D01*
X13471667Y-16867667D01*
X13500238Y-16867667D01*
X13519286Y-16877190D01*
X13528809Y-16886714D01*
X13538333Y-16905762D01*
X13538333Y-16953381D01*
X13528809Y-16972429D01*
X13519286Y-16981952D01*
X13500238Y-16991476D01*
X13443095Y-16991476D01*
X13424048Y-16981952D01*
X13414524Y-16972429D01*
X13633571Y-16991476D02*
X13671667Y-16991476D01*
X13690714Y-16981952D01*
X13700238Y-16972429D01*
X13719286Y-16943857D01*
X13728809Y-16905762D01*
X13728809Y-16829571D01*
X13719286Y-16810524D01*
X13709762Y-16801000D01*
X13690714Y-16791476D01*
X13652619Y-16791476D01*
X13633571Y-16801000D01*
X13624048Y-16810524D01*
X13614524Y-16829571D01*
X13614524Y-16877190D01*
X13624048Y-16896238D01*
X13633571Y-16905762D01*
X13652619Y-16915286D01*
X13690714Y-16915286D01*
X13709762Y-16905762D01*
X13719286Y-16896238D01*
X13728809Y-16877190D01*
X13900238Y-16858143D02*
X13900238Y-16991476D01*
X13852619Y-16781952D02*
X13805000Y-16924810D01*
X13928809Y-16924810D01*
X13995476Y-16791476D02*
X13995476Y-16829571D01*
X14071667Y-16791476D02*
X14071667Y-16829571D01*
X14366905Y-17067667D02*
X14357381Y-17058143D01*
X14338333Y-17029571D01*
X14328809Y-17010524D01*
X14319286Y-16981952D01*
X14309762Y-16934333D01*
X14309762Y-16896238D01*
X14319286Y-16848619D01*
X14328809Y-16820048D01*
X14338333Y-16801000D01*
X14357381Y-16772428D01*
X14366905Y-16762905D01*
X14424048Y-16791476D02*
X14547857Y-16791476D01*
X14481190Y-16867667D01*
X14509762Y-16867667D01*
X14528809Y-16877190D01*
X14538333Y-16886714D01*
X14547857Y-16905762D01*
X14547857Y-16953381D01*
X14538333Y-16972429D01*
X14528809Y-16981952D01*
X14509762Y-16991476D01*
X14452619Y-16991476D01*
X14433571Y-16981952D01*
X14424048Y-16972429D01*
X14624048Y-16810524D02*
X14633571Y-16801000D01*
X14652619Y-16791476D01*
X14700238Y-16791476D01*
X14719286Y-16801000D01*
X14728809Y-16810524D01*
X14738333Y-16829571D01*
X14738333Y-16848619D01*
X14728809Y-16877190D01*
X14614524Y-16991476D01*
X14738333Y-16991476D01*
X14976428Y-16991476D02*
X14976428Y-16791476D01*
X15062143Y-16991476D02*
X15062143Y-16886714D01*
X15052619Y-16867667D01*
X15033571Y-16858143D01*
X15005000Y-16858143D01*
X14985952Y-16867667D01*
X14976428Y-16877190D01*
X15185952Y-16991476D02*
X15166905Y-16981952D01*
X15157381Y-16972429D01*
X15147857Y-16953381D01*
X15147857Y-16896238D01*
X15157381Y-16877190D01*
X15166905Y-16867667D01*
X15185952Y-16858143D01*
X15214524Y-16858143D01*
X15233571Y-16867667D01*
X15243095Y-16877190D01*
X15252619Y-16896238D01*
X15252619Y-16953381D01*
X15243095Y-16972429D01*
X15233571Y-16981952D01*
X15214524Y-16991476D01*
X15185952Y-16991476D01*
X15366905Y-16991476D02*
X15347857Y-16981952D01*
X15338333Y-16962905D01*
X15338333Y-16791476D01*
X15519286Y-16981952D02*
X15500238Y-16991476D01*
X15462143Y-16991476D01*
X15443095Y-16981952D01*
X15433571Y-16962905D01*
X15433571Y-16886714D01*
X15443095Y-16867667D01*
X15462143Y-16858143D01*
X15500238Y-16858143D01*
X15519286Y-16867667D01*
X15528809Y-16886714D01*
X15528809Y-16905762D01*
X15433571Y-16924810D01*
X15605000Y-16981952D02*
X15624048Y-16991476D01*
X15662143Y-16991476D01*
X15681190Y-16981952D01*
X15690714Y-16962905D01*
X15690714Y-16953381D01*
X15681190Y-16934333D01*
X15662143Y-16924810D01*
X15633571Y-16924810D01*
X15614524Y-16915286D01*
X15605000Y-16896238D01*
X15605000Y-16886714D01*
X15614524Y-16867667D01*
X15633571Y-16858143D01*
X15662143Y-16858143D01*
X15681190Y-16867667D01*
X15757381Y-17067667D02*
X15766905Y-17058143D01*
X15785952Y-17029571D01*
X15795476Y-17010524D01*
X15805000Y-16981952D01*
X15814524Y-16934333D01*
X15814524Y-16896238D01*
X15805000Y-16848619D01*
X15795476Y-16820048D01*
X15785952Y-16801000D01*
X15766905Y-16772428D01*
X15757381Y-16762905D01*
X10595000Y-17065000D02*
X10795000Y-17265000D01*
X10795000Y-17065000D02*
X10595000Y-17265000D01*
X10795000Y-17165000D02*
G75*
G03*
X10795000Y-17165000I-100000J0D01*
G01*
X11033571Y-17055476D02*
X11157381Y-17055476D01*
X11090714Y-17131667D01*
X11119286Y-17131667D01*
X11138333Y-17141190D01*
X11147857Y-17150714D01*
X11157381Y-17169762D01*
X11157381Y-17217381D01*
X11147857Y-17236429D01*
X11138333Y-17245952D01*
X11119286Y-17255476D01*
X11062143Y-17255476D01*
X11043095Y-17245952D01*
X11033571Y-17236429D01*
X11243095Y-17236429D02*
X11252619Y-17245952D01*
X11243095Y-17255476D01*
X11233571Y-17245952D01*
X11243095Y-17236429D01*
X11243095Y-17255476D01*
X11433571Y-17055476D02*
X11338333Y-17055476D01*
X11328809Y-17150714D01*
X11338333Y-17141190D01*
X11357381Y-17131667D01*
X11405000Y-17131667D01*
X11424048Y-17141190D01*
X11433571Y-17150714D01*
X11443095Y-17169762D01*
X11443095Y-17217381D01*
X11433571Y-17236429D01*
X11424048Y-17245952D01*
X11405000Y-17255476D01*
X11357381Y-17255476D01*
X11338333Y-17245952D01*
X11328809Y-17236429D01*
X11566905Y-17055476D02*
X11585952Y-17055476D01*
X11605000Y-17065000D01*
X11614524Y-17074524D01*
X11624048Y-17093571D01*
X11633571Y-17131667D01*
X11633571Y-17179286D01*
X11624048Y-17217381D01*
X11614524Y-17236429D01*
X11605000Y-17245952D01*
X11585952Y-17255476D01*
X11566905Y-17255476D01*
X11547857Y-17245952D01*
X11538333Y-17236429D01*
X11528809Y-17217381D01*
X11519286Y-17179286D01*
X11519286Y-17131667D01*
X11528809Y-17093571D01*
X11538333Y-17074524D01*
X11547857Y-17065000D01*
X11566905Y-17055476D01*
X11757381Y-17055476D02*
X11776428Y-17055476D01*
X11795476Y-17065000D01*
X11805000Y-17074524D01*
X11814524Y-17093571D01*
X11824048Y-17131667D01*
X11824048Y-17179286D01*
X11814524Y-17217381D01*
X11805000Y-17236429D01*
X11795476Y-17245952D01*
X11776428Y-17255476D01*
X11757381Y-17255476D01*
X11738333Y-17245952D01*
X11728809Y-17236429D01*
X11719286Y-17217381D01*
X11709762Y-17179286D01*
X11709762Y-17131667D01*
X11719286Y-17093571D01*
X11728809Y-17074524D01*
X11738333Y-17065000D01*
X11757381Y-17055476D01*
X11909762Y-17255476D02*
X11909762Y-17122143D01*
X11909762Y-17141190D02*
X11919286Y-17131667D01*
X11938333Y-17122143D01*
X11966905Y-17122143D01*
X11985952Y-17131667D01*
X11995476Y-17150714D01*
X11995476Y-17255476D01*
X11995476Y-17150714D02*
X12005000Y-17131667D01*
X12024048Y-17122143D01*
X12052619Y-17122143D01*
X12071667Y-17131667D01*
X12081190Y-17150714D01*
X12081190Y-17255476D01*
X12176428Y-17255476D02*
X12176428Y-17122143D01*
X12176428Y-17141190D02*
X12185952Y-17131667D01*
X12205000Y-17122143D01*
X12233571Y-17122143D01*
X12252619Y-17131667D01*
X12262143Y-17150714D01*
X12262143Y-17255476D01*
X12262143Y-17150714D02*
X12271667Y-17131667D01*
X12290714Y-17122143D01*
X12319286Y-17122143D01*
X12338333Y-17131667D01*
X12347857Y-17150714D01*
X12347857Y-17255476D01*
X12738333Y-17045952D02*
X12566905Y-17303095D01*
X12995476Y-17055476D02*
X13014524Y-17055476D01*
X13033571Y-17065000D01*
X13043095Y-17074524D01*
X13052619Y-17093571D01*
X13062143Y-17131667D01*
X13062143Y-17179286D01*
X13052619Y-17217381D01*
X13043095Y-17236429D01*
X13033571Y-17245952D01*
X13014524Y-17255476D01*
X12995476Y-17255476D01*
X12976428Y-17245952D01*
X12966905Y-17236429D01*
X12957381Y-17217381D01*
X12947857Y-17179286D01*
X12947857Y-17131667D01*
X12957381Y-17093571D01*
X12966905Y-17074524D01*
X12976428Y-17065000D01*
X12995476Y-17055476D01*
X13147857Y-17236429D02*
X13157381Y-17245952D01*
X13147857Y-17255476D01*
X13138333Y-17245952D01*
X13147857Y-17236429D01*
X13147857Y-17255476D01*
X13347857Y-17255476D02*
X13233571Y-17255476D01*
X13290714Y-17255476D02*
X13290714Y-17055476D01*
X13271667Y-17084048D01*
X13252619Y-17103095D01*
X13233571Y-17112619D01*
X13414524Y-17055476D02*
X13538333Y-17055476D01*
X13471667Y-17131667D01*
X13500238Y-17131667D01*
X13519286Y-17141190D01*
X13528809Y-17150714D01*
X13538333Y-17169762D01*
X13538333Y-17217381D01*
X13528809Y-17236429D01*
X13519286Y-17245952D01*
X13500238Y-17255476D01*
X13443095Y-17255476D01*
X13424048Y-17245952D01*
X13414524Y-17236429D01*
X13605000Y-17055476D02*
X13738333Y-17055476D01*
X13652619Y-17255476D01*
X13843095Y-17141190D02*
X13824048Y-17131667D01*
X13814524Y-17122143D01*
X13805000Y-17103095D01*
X13805000Y-17093571D01*
X13814524Y-17074524D01*
X13824048Y-17065000D01*
X13843095Y-17055476D01*
X13881190Y-17055476D01*
X13900238Y-17065000D01*
X13909762Y-17074524D01*
X13919286Y-17093571D01*
X13919286Y-17103095D01*
X13909762Y-17122143D01*
X13900238Y-17131667D01*
X13881190Y-17141190D01*
X13843095Y-17141190D01*
X13824048Y-17150714D01*
X13814524Y-17160238D01*
X13805000Y-17179286D01*
X13805000Y-17217381D01*
X13814524Y-17236429D01*
X13824048Y-17245952D01*
X13843095Y-17255476D01*
X13881190Y-17255476D01*
X13900238Y-17245952D01*
X13909762Y-17236429D01*
X13919286Y-17217381D01*
X13919286Y-17179286D01*
X13909762Y-17160238D01*
X13900238Y-17150714D01*
X13881190Y-17141190D01*
X13995476Y-17055476D02*
X13995476Y-17093571D01*
X14071667Y-17055476D02*
X14071667Y-17093571D01*
X14366905Y-17331667D02*
X14357381Y-17322143D01*
X14338333Y-17293571D01*
X14328809Y-17274524D01*
X14319286Y-17245952D01*
X14309762Y-17198333D01*
X14309762Y-17160238D01*
X14319286Y-17112619D01*
X14328809Y-17084048D01*
X14338333Y-17065000D01*
X14357381Y-17036429D01*
X14366905Y-17026905D01*
X14528809Y-17122143D02*
X14528809Y-17255476D01*
X14481190Y-17045952D02*
X14433571Y-17188810D01*
X14557381Y-17188810D01*
X14785952Y-17255476D02*
X14785952Y-17055476D01*
X14871667Y-17255476D02*
X14871667Y-17150714D01*
X14862143Y-17131667D01*
X14843095Y-17122143D01*
X14814524Y-17122143D01*
X14795476Y-17131667D01*
X14785952Y-17141190D01*
X14995476Y-17255476D02*
X14976428Y-17245952D01*
X14966905Y-17236429D01*
X14957381Y-17217381D01*
X14957381Y-17160238D01*
X14966905Y-17141190D01*
X14976428Y-17131667D01*
X14995476Y-17122143D01*
X15024048Y-17122143D01*
X15043095Y-17131667D01*
X15052619Y-17141190D01*
X15062143Y-17160238D01*
X15062143Y-17217381D01*
X15052619Y-17236429D01*
X15043095Y-17245952D01*
X15024048Y-17255476D01*
X14995476Y-17255476D01*
X15176428Y-17255476D02*
X15157381Y-17245952D01*
X15147857Y-17226905D01*
X15147857Y-17055476D01*
X15328809Y-17245952D02*
X15309762Y-17255476D01*
X15271667Y-17255476D01*
X15252619Y-17245952D01*
X15243095Y-17226905D01*
X15243095Y-17150714D01*
X15252619Y-17131667D01*
X15271667Y-17122143D01*
X15309762Y-17122143D01*
X15328809Y-17131667D01*
X15338333Y-17150714D01*
X15338333Y-17169762D01*
X15243095Y-17188810D01*
X15414524Y-17245952D02*
X15433571Y-17255476D01*
X15471667Y-17255476D01*
X15490714Y-17245952D01*
X15500238Y-17226905D01*
X15500238Y-17217381D01*
X15490714Y-17198333D01*
X15471667Y-17188810D01*
X15443095Y-17188810D01*
X15424048Y-17179286D01*
X15414524Y-17160238D01*
X15414524Y-17150714D01*
X15424048Y-17131667D01*
X15443095Y-17122143D01*
X15471667Y-17122143D01*
X15490714Y-17131667D01*
X15566905Y-17331667D02*
X15576428Y-17322143D01*
X15595476Y-17293571D01*
X15605000Y-17274524D01*
X15614524Y-17245952D01*
X15624048Y-17198333D01*
X15624048Y-17160238D01*
X15614524Y-17112619D01*
X15605000Y-17084048D01*
X15595476Y-17065000D01*
X15576428Y-17036429D01*
X15566905Y-17026905D01*
M02*
