%TF.GenerationSoftware,KiCad,Pcbnew,(5.1.9)-1*%
%TF.CreationDate,2022-01-14T21:41:21-05:00*%
%TF.ProjectId,mama_board,6d616d61-5f62-46f6-9172-642e6b696361,rev?*%
%TF.SameCoordinates,Original*%
%TF.FileFunction,Soldermask,Top*%
%TF.FilePolarity,Negative*%
%FSLAX46Y46*%
G04 Gerber Fmt 4.6, Leading zero omitted, Abs format (unit mm)*
G04 Created by KiCad (PCBNEW (5.1.9)-1) date 2022-01-14 21:41:21*
%MOMM*%
%LPD*%
G01*
G04 APERTURE LIST*
%ADD10C,1.625600*%
%ADD11O,1.701600X1.701600*%
%ADD12C,7.101600*%
%ADD13O,1.801600X1.801600*%
%ADD14C,1.601600*%
%ADD15C,1.301600*%
%ADD16C,2.301600*%
G04 APERTURE END LIST*
D10*
%TO.C,U15*%
X141600000Y-127800000D03*
X141600000Y-129800000D03*
%TD*%
D11*
%TO.C,U11*%
X117780000Y-105600000D03*
X125400000Y-97980000D03*
X117780000Y-103060000D03*
X125400000Y-100520000D03*
X117780000Y-100520000D03*
X125400000Y-103060000D03*
X117780000Y-97980000D03*
G36*
G01*
X126250800Y-104800000D02*
X126250800Y-106400000D01*
G75*
G02*
X126200000Y-106450800I-50800J0D01*
G01*
X124600000Y-106450800D01*
G75*
G02*
X124549200Y-106400000I0J50800D01*
G01*
X124549200Y-104800000D01*
G75*
G02*
X124600000Y-104749200I50800J0D01*
G01*
X126200000Y-104749200D01*
G75*
G02*
X126250800Y-104800000I0J-50800D01*
G01*
G37*
%TD*%
%TO.C,R28*%
G36*
G01*
X134550800Y-93821285D02*
X134550800Y-94778715D01*
G75*
G02*
X134278715Y-95050800I-272085J0D01*
G01*
X133571285Y-95050800D01*
G75*
G02*
X133299200Y-94778715I0J272085D01*
G01*
X133299200Y-93821285D01*
G75*
G02*
X133571285Y-93549200I272085J0D01*
G01*
X134278715Y-93549200D01*
G75*
G02*
X134550800Y-93821285I0J-272085D01*
G01*
G37*
G36*
G01*
X132500800Y-93821285D02*
X132500800Y-94778715D01*
G75*
G02*
X132228715Y-95050800I-272085J0D01*
G01*
X131521285Y-95050800D01*
G75*
G02*
X131249200Y-94778715I0J272085D01*
G01*
X131249200Y-93821285D01*
G75*
G02*
X131521285Y-93549200I272085J0D01*
G01*
X132228715Y-93549200D01*
G75*
G02*
X132500800Y-93821285I0J-272085D01*
G01*
G37*
%TD*%
%TO.C,R27*%
G36*
G01*
X163949200Y-96278715D02*
X163949200Y-95321285D01*
G75*
G02*
X164221285Y-95049200I272085J0D01*
G01*
X164928715Y-95049200D01*
G75*
G02*
X165200800Y-95321285I0J-272085D01*
G01*
X165200800Y-96278715D01*
G75*
G02*
X164928715Y-96550800I-272085J0D01*
G01*
X164221285Y-96550800D01*
G75*
G02*
X163949200Y-96278715I0J272085D01*
G01*
G37*
G36*
G01*
X165999200Y-96278715D02*
X165999200Y-95321285D01*
G75*
G02*
X166271285Y-95049200I272085J0D01*
G01*
X166978715Y-95049200D01*
G75*
G02*
X167250800Y-95321285I0J-272085D01*
G01*
X167250800Y-96278715D01*
G75*
G02*
X166978715Y-96550800I-272085J0D01*
G01*
X166271285Y-96550800D01*
G75*
G02*
X165999200Y-96278715I0J272085D01*
G01*
G37*
%TD*%
%TO.C,R26*%
G36*
G01*
X134153715Y-105700800D02*
X133196285Y-105700800D01*
G75*
G02*
X132924200Y-105428715I0J272085D01*
G01*
X132924200Y-104721285D01*
G75*
G02*
X133196285Y-104449200I272085J0D01*
G01*
X134153715Y-104449200D01*
G75*
G02*
X134425800Y-104721285I0J-272085D01*
G01*
X134425800Y-105428715D01*
G75*
G02*
X134153715Y-105700800I-272085J0D01*
G01*
G37*
G36*
G01*
X134153715Y-103650800D02*
X133196285Y-103650800D01*
G75*
G02*
X132924200Y-103378715I0J272085D01*
G01*
X132924200Y-102671285D01*
G75*
G02*
X133196285Y-102399200I272085J0D01*
G01*
X134153715Y-102399200D01*
G75*
G02*
X134425800Y-102671285I0J-272085D01*
G01*
X134425800Y-103378715D01*
G75*
G02*
X134153715Y-103650800I-272085J0D01*
G01*
G37*
%TD*%
D12*
%TO.C,REF\u002A\u002A*%
X183000000Y-70000000D03*
%TD*%
%TO.C,REF\u002A\u002A*%
X113000000Y-70000000D03*
%TD*%
%TO.C,REF\u002A\u002A*%
X113000000Y-148000000D03*
%TD*%
%TO.C,REF\u002A\u002A*%
X183000000Y-148000000D03*
%TD*%
%TO.C,U5*%
G36*
G01*
X153355800Y-89544800D02*
X153706600Y-89544800D01*
G75*
G02*
X153882000Y-89720200I0J-175400D01*
G01*
X153882000Y-91271000D01*
G75*
G02*
X153706600Y-91446400I-175400J0D01*
G01*
X153355800Y-91446400D01*
G75*
G02*
X153180400Y-91271000I0J175400D01*
G01*
X153180400Y-89720200D01*
G75*
G02*
X153355800Y-89544800I175400J0D01*
G01*
G37*
G36*
G01*
X152085800Y-89544800D02*
X152436600Y-89544800D01*
G75*
G02*
X152612000Y-89720200I0J-175400D01*
G01*
X152612000Y-91271000D01*
G75*
G02*
X152436600Y-91446400I-175400J0D01*
G01*
X152085800Y-91446400D01*
G75*
G02*
X151910400Y-91271000I0J175400D01*
G01*
X151910400Y-89720200D01*
G75*
G02*
X152085800Y-89544800I175400J0D01*
G01*
G37*
G36*
G01*
X150815800Y-89544800D02*
X151166600Y-89544800D01*
G75*
G02*
X151342000Y-89720200I0J-175400D01*
G01*
X151342000Y-91271000D01*
G75*
G02*
X151166600Y-91446400I-175400J0D01*
G01*
X150815800Y-91446400D01*
G75*
G02*
X150640400Y-91271000I0J175400D01*
G01*
X150640400Y-89720200D01*
G75*
G02*
X150815800Y-89544800I175400J0D01*
G01*
G37*
G36*
G01*
X149545800Y-89544800D02*
X149896600Y-89544800D01*
G75*
G02*
X150072000Y-89720200I0J-175400D01*
G01*
X150072000Y-91271000D01*
G75*
G02*
X149896600Y-91446400I-175400J0D01*
G01*
X149545800Y-91446400D01*
G75*
G02*
X149370400Y-91271000I0J175400D01*
G01*
X149370400Y-89720200D01*
G75*
G02*
X149545800Y-89544800I175400J0D01*
G01*
G37*
G36*
G01*
X148275800Y-89544800D02*
X148626600Y-89544800D01*
G75*
G02*
X148802000Y-89720200I0J-175400D01*
G01*
X148802000Y-91271000D01*
G75*
G02*
X148626600Y-91446400I-175400J0D01*
G01*
X148275800Y-91446400D01*
G75*
G02*
X148100400Y-91271000I0J175400D01*
G01*
X148100400Y-89720200D01*
G75*
G02*
X148275800Y-89544800I175400J0D01*
G01*
G37*
G36*
G01*
X147005800Y-89544800D02*
X147356600Y-89544800D01*
G75*
G02*
X147532000Y-89720200I0J-175400D01*
G01*
X147532000Y-91271000D01*
G75*
G02*
X147356600Y-91446400I-175400J0D01*
G01*
X147005800Y-91446400D01*
G75*
G02*
X146830400Y-91271000I0J175400D01*
G01*
X146830400Y-89720200D01*
G75*
G02*
X147005800Y-89544800I175400J0D01*
G01*
G37*
G36*
G01*
X145735800Y-89544800D02*
X146086600Y-89544800D01*
G75*
G02*
X146262000Y-89720200I0J-175400D01*
G01*
X146262000Y-91271000D01*
G75*
G02*
X146086600Y-91446400I-175400J0D01*
G01*
X145735800Y-91446400D01*
G75*
G02*
X145560400Y-91271000I0J175400D01*
G01*
X145560400Y-89720200D01*
G75*
G02*
X145735800Y-89544800I175400J0D01*
G01*
G37*
G36*
G01*
X144465800Y-89544800D02*
X144816600Y-89544800D01*
G75*
G02*
X144992000Y-89720200I0J-175400D01*
G01*
X144992000Y-91271000D01*
G75*
G02*
X144816600Y-91446400I-175400J0D01*
G01*
X144465800Y-91446400D01*
G75*
G02*
X144290400Y-91271000I0J175400D01*
G01*
X144290400Y-89720200D01*
G75*
G02*
X144465800Y-89544800I175400J0D01*
G01*
G37*
G36*
G01*
X143195800Y-89544800D02*
X143546600Y-89544800D01*
G75*
G02*
X143722000Y-89720200I0J-175400D01*
G01*
X143722000Y-91271000D01*
G75*
G02*
X143546600Y-91446400I-175400J0D01*
G01*
X143195800Y-91446400D01*
G75*
G02*
X143020400Y-91271000I0J175400D01*
G01*
X143020400Y-89720200D01*
G75*
G02*
X143195800Y-89544800I175400J0D01*
G01*
G37*
G36*
G01*
X141925800Y-89544800D02*
X142276600Y-89544800D01*
G75*
G02*
X142452000Y-89720200I0J-175400D01*
G01*
X142452000Y-91271000D01*
G75*
G02*
X142276600Y-91446400I-175400J0D01*
G01*
X141925800Y-91446400D01*
G75*
G02*
X141750400Y-91271000I0J175400D01*
G01*
X141750400Y-89720200D01*
G75*
G02*
X141925800Y-89544800I175400J0D01*
G01*
G37*
G36*
G01*
X140655800Y-89544800D02*
X141006600Y-89544800D01*
G75*
G02*
X141182000Y-89720200I0J-175400D01*
G01*
X141182000Y-91271000D01*
G75*
G02*
X141006600Y-91446400I-175400J0D01*
G01*
X140655800Y-91446400D01*
G75*
G02*
X140480400Y-91271000I0J175400D01*
G01*
X140480400Y-89720200D01*
G75*
G02*
X140655800Y-89544800I175400J0D01*
G01*
G37*
G36*
G01*
X139385800Y-89544800D02*
X139736600Y-89544800D01*
G75*
G02*
X139912000Y-89720200I0J-175400D01*
G01*
X139912000Y-91271000D01*
G75*
G02*
X139736600Y-91446400I-175400J0D01*
G01*
X139385800Y-91446400D01*
G75*
G02*
X139210400Y-91271000I0J175400D01*
G01*
X139210400Y-89720200D01*
G75*
G02*
X139385800Y-89544800I175400J0D01*
G01*
G37*
G36*
G01*
X138115800Y-89544800D02*
X138466600Y-89544800D01*
G75*
G02*
X138642000Y-89720200I0J-175400D01*
G01*
X138642000Y-91271000D01*
G75*
G02*
X138466600Y-91446400I-175400J0D01*
G01*
X138115800Y-91446400D01*
G75*
G02*
X137940400Y-91271000I0J175400D01*
G01*
X137940400Y-89720200D01*
G75*
G02*
X138115800Y-89544800I175400J0D01*
G01*
G37*
G36*
G01*
X136845800Y-89544800D02*
X137196600Y-89544800D01*
G75*
G02*
X137372000Y-89720200I0J-175400D01*
G01*
X137372000Y-91271000D01*
G75*
G02*
X137196600Y-91446400I-175400J0D01*
G01*
X136845800Y-91446400D01*
G75*
G02*
X136670400Y-91271000I0J175400D01*
G01*
X136670400Y-89720200D01*
G75*
G02*
X136845800Y-89544800I175400J0D01*
G01*
G37*
G36*
G01*
X136845800Y-79944800D02*
X137196600Y-79944800D01*
G75*
G02*
X137372000Y-80120200I0J-175400D01*
G01*
X137372000Y-81671000D01*
G75*
G02*
X137196600Y-81846400I-175400J0D01*
G01*
X136845800Y-81846400D01*
G75*
G02*
X136670400Y-81671000I0J175400D01*
G01*
X136670400Y-80120200D01*
G75*
G02*
X136845800Y-79944800I175400J0D01*
G01*
G37*
G36*
G01*
X138115800Y-79944800D02*
X138466600Y-79944800D01*
G75*
G02*
X138642000Y-80120200I0J-175400D01*
G01*
X138642000Y-81671000D01*
G75*
G02*
X138466600Y-81846400I-175400J0D01*
G01*
X138115800Y-81846400D01*
G75*
G02*
X137940400Y-81671000I0J175400D01*
G01*
X137940400Y-80120200D01*
G75*
G02*
X138115800Y-79944800I175400J0D01*
G01*
G37*
G36*
G01*
X139385800Y-79944800D02*
X139736600Y-79944800D01*
G75*
G02*
X139912000Y-80120200I0J-175400D01*
G01*
X139912000Y-81671000D01*
G75*
G02*
X139736600Y-81846400I-175400J0D01*
G01*
X139385800Y-81846400D01*
G75*
G02*
X139210400Y-81671000I0J175400D01*
G01*
X139210400Y-80120200D01*
G75*
G02*
X139385800Y-79944800I175400J0D01*
G01*
G37*
G36*
G01*
X140655800Y-79944800D02*
X141006600Y-79944800D01*
G75*
G02*
X141182000Y-80120200I0J-175400D01*
G01*
X141182000Y-81671000D01*
G75*
G02*
X141006600Y-81846400I-175400J0D01*
G01*
X140655800Y-81846400D01*
G75*
G02*
X140480400Y-81671000I0J175400D01*
G01*
X140480400Y-80120200D01*
G75*
G02*
X140655800Y-79944800I175400J0D01*
G01*
G37*
G36*
G01*
X141925800Y-79944800D02*
X142276600Y-79944800D01*
G75*
G02*
X142452000Y-80120200I0J-175400D01*
G01*
X142452000Y-81671000D01*
G75*
G02*
X142276600Y-81846400I-175400J0D01*
G01*
X141925800Y-81846400D01*
G75*
G02*
X141750400Y-81671000I0J175400D01*
G01*
X141750400Y-80120200D01*
G75*
G02*
X141925800Y-79944800I175400J0D01*
G01*
G37*
G36*
G01*
X143195800Y-79944800D02*
X143546600Y-79944800D01*
G75*
G02*
X143722000Y-80120200I0J-175400D01*
G01*
X143722000Y-81671000D01*
G75*
G02*
X143546600Y-81846400I-175400J0D01*
G01*
X143195800Y-81846400D01*
G75*
G02*
X143020400Y-81671000I0J175400D01*
G01*
X143020400Y-80120200D01*
G75*
G02*
X143195800Y-79944800I175400J0D01*
G01*
G37*
G36*
G01*
X144465800Y-79944800D02*
X144816600Y-79944800D01*
G75*
G02*
X144992000Y-80120200I0J-175400D01*
G01*
X144992000Y-81671000D01*
G75*
G02*
X144816600Y-81846400I-175400J0D01*
G01*
X144465800Y-81846400D01*
G75*
G02*
X144290400Y-81671000I0J175400D01*
G01*
X144290400Y-80120200D01*
G75*
G02*
X144465800Y-79944800I175400J0D01*
G01*
G37*
G36*
G01*
X145735800Y-79944800D02*
X146086600Y-79944800D01*
G75*
G02*
X146262000Y-80120200I0J-175400D01*
G01*
X146262000Y-81671000D01*
G75*
G02*
X146086600Y-81846400I-175400J0D01*
G01*
X145735800Y-81846400D01*
G75*
G02*
X145560400Y-81671000I0J175400D01*
G01*
X145560400Y-80120200D01*
G75*
G02*
X145735800Y-79944800I175400J0D01*
G01*
G37*
G36*
G01*
X147005800Y-79944800D02*
X147356600Y-79944800D01*
G75*
G02*
X147532000Y-80120200I0J-175400D01*
G01*
X147532000Y-81671000D01*
G75*
G02*
X147356600Y-81846400I-175400J0D01*
G01*
X147005800Y-81846400D01*
G75*
G02*
X146830400Y-81671000I0J175400D01*
G01*
X146830400Y-80120200D01*
G75*
G02*
X147005800Y-79944800I175400J0D01*
G01*
G37*
G36*
G01*
X148275800Y-79944800D02*
X148626600Y-79944800D01*
G75*
G02*
X148802000Y-80120200I0J-175400D01*
G01*
X148802000Y-81671000D01*
G75*
G02*
X148626600Y-81846400I-175400J0D01*
G01*
X148275800Y-81846400D01*
G75*
G02*
X148100400Y-81671000I0J175400D01*
G01*
X148100400Y-80120200D01*
G75*
G02*
X148275800Y-79944800I175400J0D01*
G01*
G37*
G36*
G01*
X149545800Y-79944800D02*
X149896600Y-79944800D01*
G75*
G02*
X150072000Y-80120200I0J-175400D01*
G01*
X150072000Y-81671000D01*
G75*
G02*
X149896600Y-81846400I-175400J0D01*
G01*
X149545800Y-81846400D01*
G75*
G02*
X149370400Y-81671000I0J175400D01*
G01*
X149370400Y-80120200D01*
G75*
G02*
X149545800Y-79944800I175400J0D01*
G01*
G37*
G36*
G01*
X150815800Y-79944800D02*
X151166600Y-79944800D01*
G75*
G02*
X151342000Y-80120200I0J-175400D01*
G01*
X151342000Y-81671000D01*
G75*
G02*
X151166600Y-81846400I-175400J0D01*
G01*
X150815800Y-81846400D01*
G75*
G02*
X150640400Y-81671000I0J175400D01*
G01*
X150640400Y-80120200D01*
G75*
G02*
X150815800Y-79944800I175400J0D01*
G01*
G37*
G36*
G01*
X152085800Y-79944800D02*
X152436600Y-79944800D01*
G75*
G02*
X152612000Y-80120200I0J-175400D01*
G01*
X152612000Y-81671000D01*
G75*
G02*
X152436600Y-81846400I-175400J0D01*
G01*
X152085800Y-81846400D01*
G75*
G02*
X151910400Y-81671000I0J175400D01*
G01*
X151910400Y-80120200D01*
G75*
G02*
X152085800Y-79944800I175400J0D01*
G01*
G37*
G36*
G01*
X153355800Y-79944800D02*
X153706600Y-79944800D01*
G75*
G02*
X153882000Y-80120200I0J-175400D01*
G01*
X153882000Y-81671000D01*
G75*
G02*
X153706600Y-81846400I-175400J0D01*
G01*
X153355800Y-81846400D01*
G75*
G02*
X153180400Y-81671000I0J175400D01*
G01*
X153180400Y-80120200D01*
G75*
G02*
X153355800Y-79944800I175400J0D01*
G01*
G37*
%TD*%
D10*
%TO.C,U14*%
X159700000Y-88600000D03*
X159700000Y-90600000D03*
%TD*%
%TO.C,U13*%
X125500000Y-88600000D03*
X125500000Y-90600000D03*
%TD*%
%TO.C,U9*%
G36*
G01*
X176328240Y-123603660D02*
X176328240Y-123352860D01*
G75*
G02*
X176453640Y-123227460I125400J0D01*
G01*
X177929440Y-123227460D01*
G75*
G02*
X178054840Y-123352860I0J-125400D01*
G01*
X178054840Y-123603660D01*
G75*
G02*
X177929440Y-123729060I-125400J0D01*
G01*
X176453640Y-123729060D01*
G75*
G02*
X176328240Y-123603660I0J125400D01*
G01*
G37*
G36*
G01*
X176328240Y-124253660D02*
X176328240Y-124002860D01*
G75*
G02*
X176453640Y-123877460I125400J0D01*
G01*
X177929440Y-123877460D01*
G75*
G02*
X178054840Y-124002860I0J-125400D01*
G01*
X178054840Y-124253660D01*
G75*
G02*
X177929440Y-124379060I-125400J0D01*
G01*
X176453640Y-124379060D01*
G75*
G02*
X176328240Y-124253660I0J125400D01*
G01*
G37*
G36*
G01*
X176328240Y-124903660D02*
X176328240Y-124652860D01*
G75*
G02*
X176453640Y-124527460I125400J0D01*
G01*
X177929440Y-124527460D01*
G75*
G02*
X178054840Y-124652860I0J-125400D01*
G01*
X178054840Y-124903660D01*
G75*
G02*
X177929440Y-125029060I-125400J0D01*
G01*
X176453640Y-125029060D01*
G75*
G02*
X176328240Y-124903660I0J125400D01*
G01*
G37*
G36*
G01*
X176328240Y-125553660D02*
X176328240Y-125302860D01*
G75*
G02*
X176453640Y-125177460I125400J0D01*
G01*
X177929440Y-125177460D01*
G75*
G02*
X178054840Y-125302860I0J-125400D01*
G01*
X178054840Y-125553660D01*
G75*
G02*
X177929440Y-125679060I-125400J0D01*
G01*
X176453640Y-125679060D01*
G75*
G02*
X176328240Y-125553660I0J125400D01*
G01*
G37*
G36*
G01*
X172103240Y-125553660D02*
X172103240Y-125302860D01*
G75*
G02*
X172228640Y-125177460I125400J0D01*
G01*
X173704440Y-125177460D01*
G75*
G02*
X173829840Y-125302860I0J-125400D01*
G01*
X173829840Y-125553660D01*
G75*
G02*
X173704440Y-125679060I-125400J0D01*
G01*
X172228640Y-125679060D01*
G75*
G02*
X172103240Y-125553660I0J125400D01*
G01*
G37*
G36*
G01*
X172103240Y-124903660D02*
X172103240Y-124652860D01*
G75*
G02*
X172228640Y-124527460I125400J0D01*
G01*
X173704440Y-124527460D01*
G75*
G02*
X173829840Y-124652860I0J-125400D01*
G01*
X173829840Y-124903660D01*
G75*
G02*
X173704440Y-125029060I-125400J0D01*
G01*
X172228640Y-125029060D01*
G75*
G02*
X172103240Y-124903660I0J125400D01*
G01*
G37*
G36*
G01*
X172103240Y-124253660D02*
X172103240Y-124002860D01*
G75*
G02*
X172228640Y-123877460I125400J0D01*
G01*
X173704440Y-123877460D01*
G75*
G02*
X173829840Y-124002860I0J-125400D01*
G01*
X173829840Y-124253660D01*
G75*
G02*
X173704440Y-124379060I-125400J0D01*
G01*
X172228640Y-124379060D01*
G75*
G02*
X172103240Y-124253660I0J125400D01*
G01*
G37*
G36*
G01*
X172103240Y-123603660D02*
X172103240Y-123352860D01*
G75*
G02*
X172228640Y-123227460I125400J0D01*
G01*
X173704440Y-123227460D01*
G75*
G02*
X173829840Y-123352860I0J-125400D01*
G01*
X173829840Y-123603660D01*
G75*
G02*
X173704440Y-123729060I-125400J0D01*
G01*
X172228640Y-123729060D01*
G75*
G02*
X172103240Y-123603660I0J125400D01*
G01*
G37*
%TD*%
%TO.C,U8*%
G36*
G01*
X172861700Y-133675400D02*
X172861700Y-133424600D01*
G75*
G02*
X172987100Y-133299200I125400J0D01*
G01*
X174462900Y-133299200D01*
G75*
G02*
X174588300Y-133424600I0J-125400D01*
G01*
X174588300Y-133675400D01*
G75*
G02*
X174462900Y-133800800I-125400J0D01*
G01*
X172987100Y-133800800D01*
G75*
G02*
X172861700Y-133675400I0J125400D01*
G01*
G37*
G36*
G01*
X172861700Y-134325400D02*
X172861700Y-134074600D01*
G75*
G02*
X172987100Y-133949200I125400J0D01*
G01*
X174462900Y-133949200D01*
G75*
G02*
X174588300Y-134074600I0J-125400D01*
G01*
X174588300Y-134325400D01*
G75*
G02*
X174462900Y-134450800I-125400J0D01*
G01*
X172987100Y-134450800D01*
G75*
G02*
X172861700Y-134325400I0J125400D01*
G01*
G37*
G36*
G01*
X172861700Y-134975400D02*
X172861700Y-134724600D01*
G75*
G02*
X172987100Y-134599200I125400J0D01*
G01*
X174462900Y-134599200D01*
G75*
G02*
X174588300Y-134724600I0J-125400D01*
G01*
X174588300Y-134975400D01*
G75*
G02*
X174462900Y-135100800I-125400J0D01*
G01*
X172987100Y-135100800D01*
G75*
G02*
X172861700Y-134975400I0J125400D01*
G01*
G37*
G36*
G01*
X172861700Y-135625400D02*
X172861700Y-135374600D01*
G75*
G02*
X172987100Y-135249200I125400J0D01*
G01*
X174462900Y-135249200D01*
G75*
G02*
X174588300Y-135374600I0J-125400D01*
G01*
X174588300Y-135625400D01*
G75*
G02*
X174462900Y-135750800I-125400J0D01*
G01*
X172987100Y-135750800D01*
G75*
G02*
X172861700Y-135625400I0J125400D01*
G01*
G37*
G36*
G01*
X168636700Y-135625400D02*
X168636700Y-135374600D01*
G75*
G02*
X168762100Y-135249200I125400J0D01*
G01*
X170237900Y-135249200D01*
G75*
G02*
X170363300Y-135374600I0J-125400D01*
G01*
X170363300Y-135625400D01*
G75*
G02*
X170237900Y-135750800I-125400J0D01*
G01*
X168762100Y-135750800D01*
G75*
G02*
X168636700Y-135625400I0J125400D01*
G01*
G37*
G36*
G01*
X168636700Y-134975400D02*
X168636700Y-134724600D01*
G75*
G02*
X168762100Y-134599200I125400J0D01*
G01*
X170237900Y-134599200D01*
G75*
G02*
X170363300Y-134724600I0J-125400D01*
G01*
X170363300Y-134975400D01*
G75*
G02*
X170237900Y-135100800I-125400J0D01*
G01*
X168762100Y-135100800D01*
G75*
G02*
X168636700Y-134975400I0J125400D01*
G01*
G37*
G36*
G01*
X168636700Y-134325400D02*
X168636700Y-134074600D01*
G75*
G02*
X168762100Y-133949200I125400J0D01*
G01*
X170237900Y-133949200D01*
G75*
G02*
X170363300Y-134074600I0J-125400D01*
G01*
X170363300Y-134325400D01*
G75*
G02*
X170237900Y-134450800I-125400J0D01*
G01*
X168762100Y-134450800D01*
G75*
G02*
X168636700Y-134325400I0J125400D01*
G01*
G37*
G36*
G01*
X168636700Y-133675400D02*
X168636700Y-133424600D01*
G75*
G02*
X168762100Y-133299200I125400J0D01*
G01*
X170237900Y-133299200D01*
G75*
G02*
X170363300Y-133424600I0J-125400D01*
G01*
X170363300Y-133675400D01*
G75*
G02*
X170237900Y-133800800I-125400J0D01*
G01*
X168762100Y-133800800D01*
G75*
G02*
X168636700Y-133675400I0J125400D01*
G01*
G37*
%TD*%
%TO.C,TP6*%
G36*
G01*
X171247700Y-118642500D02*
X171247700Y-116942500D01*
G75*
G02*
X171298500Y-116891700I50800J0D01*
G01*
X172998500Y-116891700D01*
G75*
G02*
X173049300Y-116942500I0J-50800D01*
G01*
X173049300Y-118642500D01*
G75*
G02*
X172998500Y-118693300I-50800J0D01*
G01*
X171298500Y-118693300D01*
G75*
G02*
X171247700Y-118642500I0J50800D01*
G01*
G37*
%TD*%
%TO.C,TP3*%
G36*
G01*
X157349200Y-145575000D02*
X157349200Y-143875000D01*
G75*
G02*
X157400000Y-143824200I50800J0D01*
G01*
X159100000Y-143824200D01*
G75*
G02*
X159150800Y-143875000I0J-50800D01*
G01*
X159150800Y-145575000D01*
G75*
G02*
X159100000Y-145625800I-50800J0D01*
G01*
X157400000Y-145625800D01*
G75*
G02*
X157349200Y-145575000I0J50800D01*
G01*
G37*
%TD*%
%TO.C,R25*%
G36*
G01*
X168330325Y-128352460D02*
X169287755Y-128352460D01*
G75*
G02*
X169559840Y-128624545I0J-272085D01*
G01*
X169559840Y-129331975D01*
G75*
G02*
X169287755Y-129604060I-272085J0D01*
G01*
X168330325Y-129604060D01*
G75*
G02*
X168058240Y-129331975I0J272085D01*
G01*
X168058240Y-128624545D01*
G75*
G02*
X168330325Y-128352460I272085J0D01*
G01*
G37*
G36*
G01*
X168330325Y-126302460D02*
X169287755Y-126302460D01*
G75*
G02*
X169559840Y-126574545I0J-272085D01*
G01*
X169559840Y-127281975D01*
G75*
G02*
X169287755Y-127554060I-272085J0D01*
G01*
X168330325Y-127554060D01*
G75*
G02*
X168058240Y-127281975I0J272085D01*
G01*
X168058240Y-126574545D01*
G75*
G02*
X168330325Y-126302460I272085J0D01*
G01*
G37*
%TD*%
%TO.C,R24*%
G36*
G01*
X176796905Y-135392420D02*
X177754335Y-135392420D01*
G75*
G02*
X178026420Y-135664505I0J-272085D01*
G01*
X178026420Y-136371935D01*
G75*
G02*
X177754335Y-136644020I-272085J0D01*
G01*
X176796905Y-136644020D01*
G75*
G02*
X176524820Y-136371935I0J272085D01*
G01*
X176524820Y-135664505D01*
G75*
G02*
X176796905Y-135392420I272085J0D01*
G01*
G37*
G36*
G01*
X176796905Y-133342420D02*
X177754335Y-133342420D01*
G75*
G02*
X178026420Y-133614505I0J-272085D01*
G01*
X178026420Y-134321935D01*
G75*
G02*
X177754335Y-134594020I-272085J0D01*
G01*
X176796905Y-134594020D01*
G75*
G02*
X176524820Y-134321935I0J272085D01*
G01*
X176524820Y-133614505D01*
G75*
G02*
X176796905Y-133342420I272085J0D01*
G01*
G37*
%TD*%
%TO.C,R23*%
G36*
G01*
X178845285Y-140607200D02*
X179802715Y-140607200D01*
G75*
G02*
X180074800Y-140879285I0J-272085D01*
G01*
X180074800Y-141586715D01*
G75*
G02*
X179802715Y-141858800I-272085J0D01*
G01*
X178845285Y-141858800D01*
G75*
G02*
X178573200Y-141586715I0J272085D01*
G01*
X178573200Y-140879285D01*
G75*
G02*
X178845285Y-140607200I272085J0D01*
G01*
G37*
G36*
G01*
X178845285Y-138557200D02*
X179802715Y-138557200D01*
G75*
G02*
X180074800Y-138829285I0J-272085D01*
G01*
X180074800Y-139536715D01*
G75*
G02*
X179802715Y-139808800I-272085J0D01*
G01*
X178845285Y-139808800D01*
G75*
G02*
X178573200Y-139536715I0J272085D01*
G01*
X178573200Y-138829285D01*
G75*
G02*
X178845285Y-138557200I272085J0D01*
G01*
G37*
%TD*%
%TO.C,R21*%
G36*
G01*
X169978715Y-144634800D02*
X169021285Y-144634800D01*
G75*
G02*
X168749200Y-144362715I0J272085D01*
G01*
X168749200Y-143655285D01*
G75*
G02*
X169021285Y-143383200I272085J0D01*
G01*
X169978715Y-143383200D01*
G75*
G02*
X170250800Y-143655285I0J-272085D01*
G01*
X170250800Y-144362715D01*
G75*
G02*
X169978715Y-144634800I-272085J0D01*
G01*
G37*
G36*
G01*
X169978715Y-146684800D02*
X169021285Y-146684800D01*
G75*
G02*
X168749200Y-146412715I0J272085D01*
G01*
X168749200Y-145705285D01*
G75*
G02*
X169021285Y-145433200I272085J0D01*
G01*
X169978715Y-145433200D01*
G75*
G02*
X170250800Y-145705285I0J-272085D01*
G01*
X170250800Y-146412715D01*
G75*
G02*
X169978715Y-146684800I-272085J0D01*
G01*
G37*
%TD*%
%TO.C,R20*%
G36*
G01*
X162029285Y-136257200D02*
X162986715Y-136257200D01*
G75*
G02*
X163258800Y-136529285I0J-272085D01*
G01*
X163258800Y-137236715D01*
G75*
G02*
X162986715Y-137508800I-272085J0D01*
G01*
X162029285Y-137508800D01*
G75*
G02*
X161757200Y-137236715I0J272085D01*
G01*
X161757200Y-136529285D01*
G75*
G02*
X162029285Y-136257200I272085J0D01*
G01*
G37*
G36*
G01*
X162029285Y-134207200D02*
X162986715Y-134207200D01*
G75*
G02*
X163258800Y-134479285I0J-272085D01*
G01*
X163258800Y-135186715D01*
G75*
G02*
X162986715Y-135458800I-272085J0D01*
G01*
X162029285Y-135458800D01*
G75*
G02*
X161757200Y-135186715I0J272085D01*
G01*
X161757200Y-134479285D01*
G75*
G02*
X162029285Y-134207200I272085J0D01*
G01*
G37*
%TD*%
%TO.C,R3*%
G36*
G01*
X124100800Y-143521285D02*
X124100800Y-144478715D01*
G75*
G02*
X123828715Y-144750800I-272085J0D01*
G01*
X123121285Y-144750800D01*
G75*
G02*
X122849200Y-144478715I0J272085D01*
G01*
X122849200Y-143521285D01*
G75*
G02*
X123121285Y-143249200I272085J0D01*
G01*
X123828715Y-143249200D01*
G75*
G02*
X124100800Y-143521285I0J-272085D01*
G01*
G37*
G36*
G01*
X126150800Y-143521285D02*
X126150800Y-144478715D01*
G75*
G02*
X125878715Y-144750800I-272085J0D01*
G01*
X125171285Y-144750800D01*
G75*
G02*
X124899200Y-144478715I0J272085D01*
G01*
X124899200Y-143521285D01*
G75*
G02*
X125171285Y-143249200I272085J0D01*
G01*
X125878715Y-143249200D01*
G75*
G02*
X126150800Y-143521285I0J-272085D01*
G01*
G37*
%TD*%
D13*
%TO.C,JP5*%
X161190000Y-139850000D03*
G36*
G01*
X159500000Y-140750800D02*
X157800000Y-140750800D01*
G75*
G02*
X157749200Y-140700000I0J50800D01*
G01*
X157749200Y-139000000D01*
G75*
G02*
X157800000Y-138949200I50800J0D01*
G01*
X159500000Y-138949200D01*
G75*
G02*
X159550800Y-139000000I0J-50800D01*
G01*
X159550800Y-140700000D01*
G75*
G02*
X159500000Y-140750800I-50800J0D01*
G01*
G37*
%TD*%
%TO.C,JP2*%
X136450000Y-127610000D03*
G36*
G01*
X137350800Y-129300000D02*
X137350800Y-131000000D01*
G75*
G02*
X137300000Y-131050800I-50800J0D01*
G01*
X135600000Y-131050800D01*
G75*
G02*
X135549200Y-131000000I0J50800D01*
G01*
X135549200Y-129300000D01*
G75*
G02*
X135600000Y-129249200I50800J0D01*
G01*
X137300000Y-129249200D01*
G75*
G02*
X137350800Y-129300000I0J-50800D01*
G01*
G37*
%TD*%
%TO.C,D6*%
G36*
G01*
X168528240Y-122453260D02*
X168528240Y-121453260D01*
G75*
G02*
X168579040Y-121402460I50800J0D01*
G01*
X169579040Y-121402460D01*
G75*
G02*
X169629840Y-121453260I0J-50800D01*
G01*
X169629840Y-122453260D01*
G75*
G02*
X169579040Y-122504060I-50800J0D01*
G01*
X168579040Y-122504060D01*
G75*
G02*
X168528240Y-122453260I0J50800D01*
G01*
G37*
G36*
G01*
X166028240Y-122453260D02*
X166028240Y-121453260D01*
G75*
G02*
X166079040Y-121402460I50800J0D01*
G01*
X167079040Y-121402460D01*
G75*
G02*
X167129840Y-121453260I0J-50800D01*
G01*
X167129840Y-122453260D01*
G75*
G02*
X167079040Y-122504060I-50800J0D01*
G01*
X166079040Y-122504060D01*
G75*
G02*
X166028240Y-122453260I0J50800D01*
G01*
G37*
%TD*%
%TO.C,C20*%
G36*
G01*
X154103715Y-148225800D02*
X153146285Y-148225800D01*
G75*
G02*
X152874200Y-147953715I0J272085D01*
G01*
X152874200Y-147246285D01*
G75*
G02*
X153146285Y-146974200I272085J0D01*
G01*
X154103715Y-146974200D01*
G75*
G02*
X154375800Y-147246285I0J-272085D01*
G01*
X154375800Y-147953715D01*
G75*
G02*
X154103715Y-148225800I-272085J0D01*
G01*
G37*
G36*
G01*
X154103715Y-150275800D02*
X153146285Y-150275800D01*
G75*
G02*
X152874200Y-150003715I0J272085D01*
G01*
X152874200Y-149296285D01*
G75*
G02*
X153146285Y-149024200I272085J0D01*
G01*
X154103715Y-149024200D01*
G75*
G02*
X154375800Y-149296285I0J-272085D01*
G01*
X154375800Y-150003715D01*
G75*
G02*
X154103715Y-150275800I-272085J0D01*
G01*
G37*
%TD*%
%TO.C,C18*%
G36*
G01*
X140021285Y-136382200D02*
X140978715Y-136382200D01*
G75*
G02*
X141250800Y-136654285I0J-272085D01*
G01*
X141250800Y-137361715D01*
G75*
G02*
X140978715Y-137633800I-272085J0D01*
G01*
X140021285Y-137633800D01*
G75*
G02*
X139749200Y-137361715I0J272085D01*
G01*
X139749200Y-136654285D01*
G75*
G02*
X140021285Y-136382200I272085J0D01*
G01*
G37*
G36*
G01*
X140021285Y-134332200D02*
X140978715Y-134332200D01*
G75*
G02*
X141250800Y-134604285I0J-272085D01*
G01*
X141250800Y-135311715D01*
G75*
G02*
X140978715Y-135583800I-272085J0D01*
G01*
X140021285Y-135583800D01*
G75*
G02*
X139749200Y-135311715I0J272085D01*
G01*
X139749200Y-134604285D01*
G75*
G02*
X140021285Y-134332200I272085J0D01*
G01*
G37*
%TD*%
%TO.C,C17*%
G36*
G01*
X131181800Y-120871285D02*
X131181800Y-121828715D01*
G75*
G02*
X130909715Y-122100800I-272085J0D01*
G01*
X130202285Y-122100800D01*
G75*
G02*
X129930200Y-121828715I0J272085D01*
G01*
X129930200Y-120871285D01*
G75*
G02*
X130202285Y-120599200I272085J0D01*
G01*
X130909715Y-120599200D01*
G75*
G02*
X131181800Y-120871285I0J-272085D01*
G01*
G37*
G36*
G01*
X129131800Y-120871285D02*
X129131800Y-121828715D01*
G75*
G02*
X128859715Y-122100800I-272085J0D01*
G01*
X128152285Y-122100800D01*
G75*
G02*
X127880200Y-121828715I0J272085D01*
G01*
X127880200Y-120871285D01*
G75*
G02*
X128152285Y-120599200I272085J0D01*
G01*
X128859715Y-120599200D01*
G75*
G02*
X129131800Y-120871285I0J-272085D01*
G01*
G37*
%TD*%
%TO.C,C16*%
G36*
G01*
X119399029Y-130593599D02*
X120356459Y-130593599D01*
G75*
G02*
X120628544Y-130865684I0J-272085D01*
G01*
X120628544Y-131573114D01*
G75*
G02*
X120356459Y-131845199I-272085J0D01*
G01*
X119399029Y-131845199D01*
G75*
G02*
X119126944Y-131573114I0J272085D01*
G01*
X119126944Y-130865684D01*
G75*
G02*
X119399029Y-130593599I272085J0D01*
G01*
G37*
G36*
G01*
X119399029Y-128543599D02*
X120356459Y-128543599D01*
G75*
G02*
X120628544Y-128815684I0J-272085D01*
G01*
X120628544Y-129523114D01*
G75*
G02*
X120356459Y-129795199I-272085J0D01*
G01*
X119399029Y-129795199D01*
G75*
G02*
X119126944Y-129523114I0J272085D01*
G01*
X119126944Y-128815684D01*
G75*
G02*
X119399029Y-128543599I272085J0D01*
G01*
G37*
%TD*%
%TO.C,C15*%
G36*
G01*
X119898673Y-138328124D02*
X119898673Y-139285554D01*
G75*
G02*
X119626588Y-139557639I-272085J0D01*
G01*
X118919158Y-139557639D01*
G75*
G02*
X118647073Y-139285554I0J272085D01*
G01*
X118647073Y-138328124D01*
G75*
G02*
X118919158Y-138056039I272085J0D01*
G01*
X119626588Y-138056039D01*
G75*
G02*
X119898673Y-138328124I0J-272085D01*
G01*
G37*
G36*
G01*
X121948673Y-138328124D02*
X121948673Y-139285554D01*
G75*
G02*
X121676588Y-139557639I-272085J0D01*
G01*
X120969158Y-139557639D01*
G75*
G02*
X120697073Y-139285554I0J272085D01*
G01*
X120697073Y-138328124D01*
G75*
G02*
X120969158Y-138056039I272085J0D01*
G01*
X121676588Y-138056039D01*
G75*
G02*
X121948673Y-138328124I0J-272085D01*
G01*
G37*
%TD*%
%TO.C,C8*%
G36*
G01*
X118350800Y-143521285D02*
X118350800Y-144478715D01*
G75*
G02*
X118078715Y-144750800I-272085J0D01*
G01*
X117371285Y-144750800D01*
G75*
G02*
X117099200Y-144478715I0J272085D01*
G01*
X117099200Y-143521285D01*
G75*
G02*
X117371285Y-143249200I272085J0D01*
G01*
X118078715Y-143249200D01*
G75*
G02*
X118350800Y-143521285I0J-272085D01*
G01*
G37*
G36*
G01*
X120400800Y-143521285D02*
X120400800Y-144478715D01*
G75*
G02*
X120128715Y-144750800I-272085J0D01*
G01*
X119421285Y-144750800D01*
G75*
G02*
X119149200Y-144478715I0J272085D01*
G01*
X119149200Y-143521285D01*
G75*
G02*
X119421285Y-143249200I272085J0D01*
G01*
X120128715Y-143249200D01*
G75*
G02*
X120400800Y-143521285I0J-272085D01*
G01*
G37*
%TD*%
D14*
%TO.C,Y1*%
X140340000Y-75000000D03*
X145220000Y-75000000D03*
%TD*%
D11*
%TO.C,U12*%
X175645000Y-98350000D03*
X168025000Y-105970000D03*
X175645000Y-100890000D03*
X168025000Y-103430000D03*
X175645000Y-103430000D03*
X168025000Y-100890000D03*
X175645000Y-105970000D03*
G36*
G01*
X167174200Y-99150000D02*
X167174200Y-97550000D01*
G75*
G02*
X167225000Y-97499200I50800J0D01*
G01*
X168825000Y-97499200D01*
G75*
G02*
X168875800Y-97550000I0J-50800D01*
G01*
X168875800Y-99150000D01*
G75*
G02*
X168825000Y-99200800I-50800J0D01*
G01*
X167225000Y-99200800D01*
G75*
G02*
X167174200Y-99150000I0J50800D01*
G01*
G37*
%TD*%
%TO.C,U10*%
G36*
G01*
X121484600Y-81324200D02*
X121835400Y-81324200D01*
G75*
G02*
X122010800Y-81499600I0J-175400D01*
G01*
X122010800Y-83200400D01*
G75*
G02*
X121835400Y-83375800I-175400J0D01*
G01*
X121484600Y-83375800D01*
G75*
G02*
X121309200Y-83200400I0J175400D01*
G01*
X121309200Y-81499600D01*
G75*
G02*
X121484600Y-81324200I175400J0D01*
G01*
G37*
G36*
G01*
X120214600Y-81324200D02*
X120565400Y-81324200D01*
G75*
G02*
X120740800Y-81499600I0J-175400D01*
G01*
X120740800Y-83200400D01*
G75*
G02*
X120565400Y-83375800I-175400J0D01*
G01*
X120214600Y-83375800D01*
G75*
G02*
X120039200Y-83200400I0J175400D01*
G01*
X120039200Y-81499600D01*
G75*
G02*
X120214600Y-81324200I175400J0D01*
G01*
G37*
G36*
G01*
X118944600Y-81324200D02*
X119295400Y-81324200D01*
G75*
G02*
X119470800Y-81499600I0J-175400D01*
G01*
X119470800Y-83200400D01*
G75*
G02*
X119295400Y-83375800I-175400J0D01*
G01*
X118944600Y-83375800D01*
G75*
G02*
X118769200Y-83200400I0J175400D01*
G01*
X118769200Y-81499600D01*
G75*
G02*
X118944600Y-81324200I175400J0D01*
G01*
G37*
G36*
G01*
X117674600Y-81324200D02*
X118025400Y-81324200D01*
G75*
G02*
X118200800Y-81499600I0J-175400D01*
G01*
X118200800Y-83200400D01*
G75*
G02*
X118025400Y-83375800I-175400J0D01*
G01*
X117674600Y-83375800D01*
G75*
G02*
X117499200Y-83200400I0J175400D01*
G01*
X117499200Y-81499600D01*
G75*
G02*
X117674600Y-81324200I175400J0D01*
G01*
G37*
G36*
G01*
X117674600Y-76374200D02*
X118025400Y-76374200D01*
G75*
G02*
X118200800Y-76549600I0J-175400D01*
G01*
X118200800Y-78250400D01*
G75*
G02*
X118025400Y-78425800I-175400J0D01*
G01*
X117674600Y-78425800D01*
G75*
G02*
X117499200Y-78250400I0J175400D01*
G01*
X117499200Y-76549600D01*
G75*
G02*
X117674600Y-76374200I175400J0D01*
G01*
G37*
G36*
G01*
X118944600Y-76374200D02*
X119295400Y-76374200D01*
G75*
G02*
X119470800Y-76549600I0J-175400D01*
G01*
X119470800Y-78250400D01*
G75*
G02*
X119295400Y-78425800I-175400J0D01*
G01*
X118944600Y-78425800D01*
G75*
G02*
X118769200Y-78250400I0J175400D01*
G01*
X118769200Y-76549600D01*
G75*
G02*
X118944600Y-76374200I175400J0D01*
G01*
G37*
G36*
G01*
X120214600Y-76374200D02*
X120565400Y-76374200D01*
G75*
G02*
X120740800Y-76549600I0J-175400D01*
G01*
X120740800Y-78250400D01*
G75*
G02*
X120565400Y-78425800I-175400J0D01*
G01*
X120214600Y-78425800D01*
G75*
G02*
X120039200Y-78250400I0J175400D01*
G01*
X120039200Y-76549600D01*
G75*
G02*
X120214600Y-76374200I175400J0D01*
G01*
G37*
G36*
G01*
X121484600Y-76374200D02*
X121835400Y-76374200D01*
G75*
G02*
X122010800Y-76549600I0J-175400D01*
G01*
X122010800Y-78250400D01*
G75*
G02*
X121835400Y-78425800I-175400J0D01*
G01*
X121484600Y-78425800D01*
G75*
G02*
X121309200Y-78250400I0J175400D01*
G01*
X121309200Y-76549600D01*
G75*
G02*
X121484600Y-76374200I175400J0D01*
G01*
G37*
%TD*%
%TO.C,U7*%
G36*
G01*
X155249200Y-124150400D02*
X155249200Y-123899600D01*
G75*
G02*
X155374600Y-123774200I125400J0D01*
G01*
X156850400Y-123774200D01*
G75*
G02*
X156975800Y-123899600I0J-125400D01*
G01*
X156975800Y-124150400D01*
G75*
G02*
X156850400Y-124275800I-125400J0D01*
G01*
X155374600Y-124275800D01*
G75*
G02*
X155249200Y-124150400I0J125400D01*
G01*
G37*
G36*
G01*
X155249200Y-124800400D02*
X155249200Y-124549600D01*
G75*
G02*
X155374600Y-124424200I125400J0D01*
G01*
X156850400Y-124424200D01*
G75*
G02*
X156975800Y-124549600I0J-125400D01*
G01*
X156975800Y-124800400D01*
G75*
G02*
X156850400Y-124925800I-125400J0D01*
G01*
X155374600Y-124925800D01*
G75*
G02*
X155249200Y-124800400I0J125400D01*
G01*
G37*
G36*
G01*
X155249200Y-125450400D02*
X155249200Y-125199600D01*
G75*
G02*
X155374600Y-125074200I125400J0D01*
G01*
X156850400Y-125074200D01*
G75*
G02*
X156975800Y-125199600I0J-125400D01*
G01*
X156975800Y-125450400D01*
G75*
G02*
X156850400Y-125575800I-125400J0D01*
G01*
X155374600Y-125575800D01*
G75*
G02*
X155249200Y-125450400I0J125400D01*
G01*
G37*
G36*
G01*
X155249200Y-126100400D02*
X155249200Y-125849600D01*
G75*
G02*
X155374600Y-125724200I125400J0D01*
G01*
X156850400Y-125724200D01*
G75*
G02*
X156975800Y-125849600I0J-125400D01*
G01*
X156975800Y-126100400D01*
G75*
G02*
X156850400Y-126225800I-125400J0D01*
G01*
X155374600Y-126225800D01*
G75*
G02*
X155249200Y-126100400I0J125400D01*
G01*
G37*
G36*
G01*
X151024200Y-126100400D02*
X151024200Y-125849600D01*
G75*
G02*
X151149600Y-125724200I125400J0D01*
G01*
X152625400Y-125724200D01*
G75*
G02*
X152750800Y-125849600I0J-125400D01*
G01*
X152750800Y-126100400D01*
G75*
G02*
X152625400Y-126225800I-125400J0D01*
G01*
X151149600Y-126225800D01*
G75*
G02*
X151024200Y-126100400I0J125400D01*
G01*
G37*
G36*
G01*
X151024200Y-125450400D02*
X151024200Y-125199600D01*
G75*
G02*
X151149600Y-125074200I125400J0D01*
G01*
X152625400Y-125074200D01*
G75*
G02*
X152750800Y-125199600I0J-125400D01*
G01*
X152750800Y-125450400D01*
G75*
G02*
X152625400Y-125575800I-125400J0D01*
G01*
X151149600Y-125575800D01*
G75*
G02*
X151024200Y-125450400I0J125400D01*
G01*
G37*
G36*
G01*
X151024200Y-124800400D02*
X151024200Y-124549600D01*
G75*
G02*
X151149600Y-124424200I125400J0D01*
G01*
X152625400Y-124424200D01*
G75*
G02*
X152750800Y-124549600I0J-125400D01*
G01*
X152750800Y-124800400D01*
G75*
G02*
X152625400Y-124925800I-125400J0D01*
G01*
X151149600Y-124925800D01*
G75*
G02*
X151024200Y-124800400I0J125400D01*
G01*
G37*
G36*
G01*
X151024200Y-124150400D02*
X151024200Y-123899600D01*
G75*
G02*
X151149600Y-123774200I125400J0D01*
G01*
X152625400Y-123774200D01*
G75*
G02*
X152750800Y-123899600I0J-125400D01*
G01*
X152750800Y-124150400D01*
G75*
G02*
X152625400Y-124275800I-125400J0D01*
G01*
X151149600Y-124275800D01*
G75*
G02*
X151024200Y-124150400I0J125400D01*
G01*
G37*
%TD*%
%TO.C,U6*%
G36*
G01*
X147949200Y-133750400D02*
X147949200Y-133499600D01*
G75*
G02*
X148074600Y-133374200I125400J0D01*
G01*
X149550400Y-133374200D01*
G75*
G02*
X149675800Y-133499600I0J-125400D01*
G01*
X149675800Y-133750400D01*
G75*
G02*
X149550400Y-133875800I-125400J0D01*
G01*
X148074600Y-133875800D01*
G75*
G02*
X147949200Y-133750400I0J125400D01*
G01*
G37*
G36*
G01*
X147949200Y-134400400D02*
X147949200Y-134149600D01*
G75*
G02*
X148074600Y-134024200I125400J0D01*
G01*
X149550400Y-134024200D01*
G75*
G02*
X149675800Y-134149600I0J-125400D01*
G01*
X149675800Y-134400400D01*
G75*
G02*
X149550400Y-134525800I-125400J0D01*
G01*
X148074600Y-134525800D01*
G75*
G02*
X147949200Y-134400400I0J125400D01*
G01*
G37*
G36*
G01*
X147949200Y-135050400D02*
X147949200Y-134799600D01*
G75*
G02*
X148074600Y-134674200I125400J0D01*
G01*
X149550400Y-134674200D01*
G75*
G02*
X149675800Y-134799600I0J-125400D01*
G01*
X149675800Y-135050400D01*
G75*
G02*
X149550400Y-135175800I-125400J0D01*
G01*
X148074600Y-135175800D01*
G75*
G02*
X147949200Y-135050400I0J125400D01*
G01*
G37*
G36*
G01*
X147949200Y-135700400D02*
X147949200Y-135449600D01*
G75*
G02*
X148074600Y-135324200I125400J0D01*
G01*
X149550400Y-135324200D01*
G75*
G02*
X149675800Y-135449600I0J-125400D01*
G01*
X149675800Y-135700400D01*
G75*
G02*
X149550400Y-135825800I-125400J0D01*
G01*
X148074600Y-135825800D01*
G75*
G02*
X147949200Y-135700400I0J125400D01*
G01*
G37*
G36*
G01*
X143724200Y-135700400D02*
X143724200Y-135449600D01*
G75*
G02*
X143849600Y-135324200I125400J0D01*
G01*
X145325400Y-135324200D01*
G75*
G02*
X145450800Y-135449600I0J-125400D01*
G01*
X145450800Y-135700400D01*
G75*
G02*
X145325400Y-135825800I-125400J0D01*
G01*
X143849600Y-135825800D01*
G75*
G02*
X143724200Y-135700400I0J125400D01*
G01*
G37*
G36*
G01*
X143724200Y-135050400D02*
X143724200Y-134799600D01*
G75*
G02*
X143849600Y-134674200I125400J0D01*
G01*
X145325400Y-134674200D01*
G75*
G02*
X145450800Y-134799600I0J-125400D01*
G01*
X145450800Y-135050400D01*
G75*
G02*
X145325400Y-135175800I-125400J0D01*
G01*
X143849600Y-135175800D01*
G75*
G02*
X143724200Y-135050400I0J125400D01*
G01*
G37*
G36*
G01*
X143724200Y-134400400D02*
X143724200Y-134149600D01*
G75*
G02*
X143849600Y-134024200I125400J0D01*
G01*
X145325400Y-134024200D01*
G75*
G02*
X145450800Y-134149600I0J-125400D01*
G01*
X145450800Y-134400400D01*
G75*
G02*
X145325400Y-134525800I-125400J0D01*
G01*
X143849600Y-134525800D01*
G75*
G02*
X143724200Y-134400400I0J125400D01*
G01*
G37*
G36*
G01*
X143724200Y-133750400D02*
X143724200Y-133499600D01*
G75*
G02*
X143849600Y-133374200I125400J0D01*
G01*
X145325400Y-133374200D01*
G75*
G02*
X145450800Y-133499600I0J-125400D01*
G01*
X145450800Y-133750400D01*
G75*
G02*
X145325400Y-133875800I-125400J0D01*
G01*
X143849600Y-133875800D01*
G75*
G02*
X143724200Y-133750400I0J125400D01*
G01*
G37*
%TD*%
%TO.C,U4*%
G36*
G01*
X125411700Y-124625400D02*
X125411700Y-124374600D01*
G75*
G02*
X125537100Y-124249200I125400J0D01*
G01*
X127012900Y-124249200D01*
G75*
G02*
X127138300Y-124374600I0J-125400D01*
G01*
X127138300Y-124625400D01*
G75*
G02*
X127012900Y-124750800I-125400J0D01*
G01*
X125537100Y-124750800D01*
G75*
G02*
X125411700Y-124625400I0J125400D01*
G01*
G37*
G36*
G01*
X125411700Y-125275400D02*
X125411700Y-125024600D01*
G75*
G02*
X125537100Y-124899200I125400J0D01*
G01*
X127012900Y-124899200D01*
G75*
G02*
X127138300Y-125024600I0J-125400D01*
G01*
X127138300Y-125275400D01*
G75*
G02*
X127012900Y-125400800I-125400J0D01*
G01*
X125537100Y-125400800D01*
G75*
G02*
X125411700Y-125275400I0J125400D01*
G01*
G37*
G36*
G01*
X125411700Y-125925400D02*
X125411700Y-125674600D01*
G75*
G02*
X125537100Y-125549200I125400J0D01*
G01*
X127012900Y-125549200D01*
G75*
G02*
X127138300Y-125674600I0J-125400D01*
G01*
X127138300Y-125925400D01*
G75*
G02*
X127012900Y-126050800I-125400J0D01*
G01*
X125537100Y-126050800D01*
G75*
G02*
X125411700Y-125925400I0J125400D01*
G01*
G37*
G36*
G01*
X125411700Y-126575400D02*
X125411700Y-126324600D01*
G75*
G02*
X125537100Y-126199200I125400J0D01*
G01*
X127012900Y-126199200D01*
G75*
G02*
X127138300Y-126324600I0J-125400D01*
G01*
X127138300Y-126575400D01*
G75*
G02*
X127012900Y-126700800I-125400J0D01*
G01*
X125537100Y-126700800D01*
G75*
G02*
X125411700Y-126575400I0J125400D01*
G01*
G37*
G36*
G01*
X129636700Y-126575400D02*
X129636700Y-126324600D01*
G75*
G02*
X129762100Y-126199200I125400J0D01*
G01*
X131237900Y-126199200D01*
G75*
G02*
X131363300Y-126324600I0J-125400D01*
G01*
X131363300Y-126575400D01*
G75*
G02*
X131237900Y-126700800I-125400J0D01*
G01*
X129762100Y-126700800D01*
G75*
G02*
X129636700Y-126575400I0J125400D01*
G01*
G37*
G36*
G01*
X129636700Y-125925400D02*
X129636700Y-125674600D01*
G75*
G02*
X129762100Y-125549200I125400J0D01*
G01*
X131237900Y-125549200D01*
G75*
G02*
X131363300Y-125674600I0J-125400D01*
G01*
X131363300Y-125925400D01*
G75*
G02*
X131237900Y-126050800I-125400J0D01*
G01*
X129762100Y-126050800D01*
G75*
G02*
X129636700Y-125925400I0J125400D01*
G01*
G37*
G36*
G01*
X129636700Y-125275400D02*
X129636700Y-125024600D01*
G75*
G02*
X129762100Y-124899200I125400J0D01*
G01*
X131237900Y-124899200D01*
G75*
G02*
X131363300Y-125024600I0J-125400D01*
G01*
X131363300Y-125275400D01*
G75*
G02*
X131237900Y-125400800I-125400J0D01*
G01*
X129762100Y-125400800D01*
G75*
G02*
X129636700Y-125275400I0J125400D01*
G01*
G37*
G36*
G01*
X129636700Y-124625400D02*
X129636700Y-124374600D01*
G75*
G02*
X129762100Y-124249200I125400J0D01*
G01*
X131237900Y-124249200D01*
G75*
G02*
X131363300Y-124374600I0J-125400D01*
G01*
X131363300Y-124625400D01*
G75*
G02*
X131237900Y-124750800I-125400J0D01*
G01*
X129762100Y-124750800D01*
G75*
G02*
X129636700Y-124625400I0J125400D01*
G01*
G37*
%TD*%
%TO.C,U3*%
G36*
G01*
X167977840Y-84028480D02*
X167977840Y-84678480D01*
G75*
G02*
X167927040Y-84729280I-50800J0D01*
G01*
X165927040Y-84729280D01*
G75*
G02*
X165876240Y-84678480I0J50800D01*
G01*
X165876240Y-84028480D01*
G75*
G02*
X165927040Y-83977680I50800J0D01*
G01*
X167927040Y-83977680D01*
G75*
G02*
X167977840Y-84028480I0J-50800D01*
G01*
G37*
G36*
G01*
X167977840Y-82128480D02*
X167977840Y-82778480D01*
G75*
G02*
X167927040Y-82829280I-50800J0D01*
G01*
X165927040Y-82829280D01*
G75*
G02*
X165876240Y-82778480I0J50800D01*
G01*
X165876240Y-82128480D01*
G75*
G02*
X165927040Y-82077680I50800J0D01*
G01*
X167927040Y-82077680D01*
G75*
G02*
X167977840Y-82128480I0J-50800D01*
G01*
G37*
G36*
G01*
X171397840Y-82128480D02*
X171397840Y-82778480D01*
G75*
G02*
X171347040Y-82829280I-50800J0D01*
G01*
X169347040Y-82829280D01*
G75*
G02*
X169296240Y-82778480I0J50800D01*
G01*
X169296240Y-82128480D01*
G75*
G02*
X169347040Y-82077680I50800J0D01*
G01*
X171347040Y-82077680D01*
G75*
G02*
X171397840Y-82128480I0J-50800D01*
G01*
G37*
G36*
G01*
X171397840Y-83078480D02*
X171397840Y-83728480D01*
G75*
G02*
X171347040Y-83779280I-50800J0D01*
G01*
X169347040Y-83779280D01*
G75*
G02*
X169296240Y-83728480I0J50800D01*
G01*
X169296240Y-83078480D01*
G75*
G02*
X169347040Y-83027680I50800J0D01*
G01*
X171347040Y-83027680D01*
G75*
G02*
X171397840Y-83078480I0J-50800D01*
G01*
G37*
G36*
G01*
X171397840Y-84028480D02*
X171397840Y-84678480D01*
G75*
G02*
X171347040Y-84729280I-50800J0D01*
G01*
X169347040Y-84729280D01*
G75*
G02*
X169296240Y-84678480I0J50800D01*
G01*
X169296240Y-84028480D01*
G75*
G02*
X169347040Y-83977680I50800J0D01*
G01*
X171347040Y-83977680D01*
G75*
G02*
X171397840Y-84028480I0J-50800D01*
G01*
G37*
%TD*%
%TO.C,U2*%
G36*
G01*
X182789840Y-81483480D02*
X183439840Y-81483480D01*
G75*
G02*
X183490640Y-81534280I0J-50800D01*
G01*
X183490640Y-82594280D01*
G75*
G02*
X183439840Y-82645080I-50800J0D01*
G01*
X182789840Y-82645080D01*
G75*
G02*
X182739040Y-82594280I0J50800D01*
G01*
X182739040Y-81534280D01*
G75*
G02*
X182789840Y-81483480I50800J0D01*
G01*
G37*
G36*
G01*
X180889840Y-81483480D02*
X181539840Y-81483480D01*
G75*
G02*
X181590640Y-81534280I0J-50800D01*
G01*
X181590640Y-82594280D01*
G75*
G02*
X181539840Y-82645080I-50800J0D01*
G01*
X180889840Y-82645080D01*
G75*
G02*
X180839040Y-82594280I0J50800D01*
G01*
X180839040Y-81534280D01*
G75*
G02*
X180889840Y-81483480I50800J0D01*
G01*
G37*
G36*
G01*
X180889840Y-79283480D02*
X181539840Y-79283480D01*
G75*
G02*
X181590640Y-79334280I0J-50800D01*
G01*
X181590640Y-80394280D01*
G75*
G02*
X181539840Y-80445080I-50800J0D01*
G01*
X180889840Y-80445080D01*
G75*
G02*
X180839040Y-80394280I0J50800D01*
G01*
X180839040Y-79334280D01*
G75*
G02*
X180889840Y-79283480I50800J0D01*
G01*
G37*
G36*
G01*
X181839840Y-79283480D02*
X182489840Y-79283480D01*
G75*
G02*
X182540640Y-79334280I0J-50800D01*
G01*
X182540640Y-80394280D01*
G75*
G02*
X182489840Y-80445080I-50800J0D01*
G01*
X181839840Y-80445080D01*
G75*
G02*
X181789040Y-80394280I0J50800D01*
G01*
X181789040Y-79334280D01*
G75*
G02*
X181839840Y-79283480I50800J0D01*
G01*
G37*
G36*
G01*
X182789840Y-79283480D02*
X183439840Y-79283480D01*
G75*
G02*
X183490640Y-79334280I0J-50800D01*
G01*
X183490640Y-80394280D01*
G75*
G02*
X183439840Y-80445080I-50800J0D01*
G01*
X182789840Y-80445080D01*
G75*
G02*
X182739040Y-80394280I0J50800D01*
G01*
X182739040Y-79334280D01*
G75*
G02*
X182789840Y-79283480I50800J0D01*
G01*
G37*
%TD*%
%TO.C,U1*%
G36*
G01*
X118436700Y-133650400D02*
X118436700Y-133399600D01*
G75*
G02*
X118562100Y-133274200I125400J0D01*
G01*
X120037900Y-133274200D01*
G75*
G02*
X120163300Y-133399600I0J-125400D01*
G01*
X120163300Y-133650400D01*
G75*
G02*
X120037900Y-133775800I-125400J0D01*
G01*
X118562100Y-133775800D01*
G75*
G02*
X118436700Y-133650400I0J125400D01*
G01*
G37*
G36*
G01*
X118436700Y-134300400D02*
X118436700Y-134049600D01*
G75*
G02*
X118562100Y-133924200I125400J0D01*
G01*
X120037900Y-133924200D01*
G75*
G02*
X120163300Y-134049600I0J-125400D01*
G01*
X120163300Y-134300400D01*
G75*
G02*
X120037900Y-134425800I-125400J0D01*
G01*
X118562100Y-134425800D01*
G75*
G02*
X118436700Y-134300400I0J125400D01*
G01*
G37*
G36*
G01*
X118436700Y-134950400D02*
X118436700Y-134699600D01*
G75*
G02*
X118562100Y-134574200I125400J0D01*
G01*
X120037900Y-134574200D01*
G75*
G02*
X120163300Y-134699600I0J-125400D01*
G01*
X120163300Y-134950400D01*
G75*
G02*
X120037900Y-135075800I-125400J0D01*
G01*
X118562100Y-135075800D01*
G75*
G02*
X118436700Y-134950400I0J125400D01*
G01*
G37*
G36*
G01*
X118436700Y-135600400D02*
X118436700Y-135349600D01*
G75*
G02*
X118562100Y-135224200I125400J0D01*
G01*
X120037900Y-135224200D01*
G75*
G02*
X120163300Y-135349600I0J-125400D01*
G01*
X120163300Y-135600400D01*
G75*
G02*
X120037900Y-135725800I-125400J0D01*
G01*
X118562100Y-135725800D01*
G75*
G02*
X118436700Y-135600400I0J125400D01*
G01*
G37*
G36*
G01*
X122661700Y-135600400D02*
X122661700Y-135349600D01*
G75*
G02*
X122787100Y-135224200I125400J0D01*
G01*
X124262900Y-135224200D01*
G75*
G02*
X124388300Y-135349600I0J-125400D01*
G01*
X124388300Y-135600400D01*
G75*
G02*
X124262900Y-135725800I-125400J0D01*
G01*
X122787100Y-135725800D01*
G75*
G02*
X122661700Y-135600400I0J125400D01*
G01*
G37*
G36*
G01*
X122661700Y-134950400D02*
X122661700Y-134699600D01*
G75*
G02*
X122787100Y-134574200I125400J0D01*
G01*
X124262900Y-134574200D01*
G75*
G02*
X124388300Y-134699600I0J-125400D01*
G01*
X124388300Y-134950400D01*
G75*
G02*
X124262900Y-135075800I-125400J0D01*
G01*
X122787100Y-135075800D01*
G75*
G02*
X122661700Y-134950400I0J125400D01*
G01*
G37*
G36*
G01*
X122661700Y-134300400D02*
X122661700Y-134049600D01*
G75*
G02*
X122787100Y-133924200I125400J0D01*
G01*
X124262900Y-133924200D01*
G75*
G02*
X124388300Y-134049600I0J-125400D01*
G01*
X124388300Y-134300400D01*
G75*
G02*
X124262900Y-134425800I-125400J0D01*
G01*
X122787100Y-134425800D01*
G75*
G02*
X122661700Y-134300400I0J125400D01*
G01*
G37*
G36*
G01*
X122661700Y-133650400D02*
X122661700Y-133399600D01*
G75*
G02*
X122787100Y-133274200I125400J0D01*
G01*
X124262900Y-133274200D01*
G75*
G02*
X124388300Y-133399600I0J-125400D01*
G01*
X124388300Y-133650400D01*
G75*
G02*
X124262900Y-133775800I-125400J0D01*
G01*
X122787100Y-133775800D01*
G75*
G02*
X122661700Y-133650400I0J125400D01*
G01*
G37*
%TD*%
%TO.C,TP12*%
G36*
G01*
X160449200Y-95775000D02*
X160449200Y-94075000D01*
G75*
G02*
X160500000Y-94024200I50800J0D01*
G01*
X162200000Y-94024200D01*
G75*
G02*
X162250800Y-94075000I0J-50800D01*
G01*
X162250800Y-95775000D01*
G75*
G02*
X162200000Y-95825800I-50800J0D01*
G01*
X160500000Y-95825800D01*
G75*
G02*
X160449200Y-95775000I0J50800D01*
G01*
G37*
%TD*%
%TO.C,TP11*%
G36*
G01*
X134250800Y-98210000D02*
X134250800Y-99910000D01*
G75*
G02*
X134200000Y-99960800I-50800J0D01*
G01*
X132500000Y-99960800D01*
G75*
G02*
X132449200Y-99910000I0J50800D01*
G01*
X132449200Y-98210000D01*
G75*
G02*
X132500000Y-98159200I50800J0D01*
G01*
X134200000Y-98159200D01*
G75*
G02*
X134250800Y-98210000I0J-50800D01*
G01*
G37*
%TD*%
%TO.C,TP10*%
G36*
G01*
X131124060Y-110445180D02*
X131124060Y-112145180D01*
G75*
G02*
X131073260Y-112195980I-50800J0D01*
G01*
X129373260Y-112195980D01*
G75*
G02*
X129322460Y-112145180I0J50800D01*
G01*
X129322460Y-110445180D01*
G75*
G02*
X129373260Y-110394380I50800J0D01*
G01*
X131073260Y-110394380D01*
G75*
G02*
X131124060Y-110445180I0J-50800D01*
G01*
G37*
%TD*%
%TO.C,TP9*%
G36*
G01*
X169034200Y-94695000D02*
X169034200Y-92995000D01*
G75*
G02*
X169085000Y-92944200I50800J0D01*
G01*
X170785000Y-92944200D01*
G75*
G02*
X170835800Y-92995000I0J-50800D01*
G01*
X170835800Y-94695000D01*
G75*
G02*
X170785000Y-94745800I-50800J0D01*
G01*
X169085000Y-94745800D01*
G75*
G02*
X169034200Y-94695000I0J50800D01*
G01*
G37*
%TD*%
%TO.C,TP8*%
G36*
G01*
X113041800Y-88558000D02*
X113041800Y-90258000D01*
G75*
G02*
X112991000Y-90308800I-50800J0D01*
G01*
X111291000Y-90308800D01*
G75*
G02*
X111240200Y-90258000I0J50800D01*
G01*
X111240200Y-88558000D01*
G75*
G02*
X111291000Y-88507200I50800J0D01*
G01*
X112991000Y-88507200D01*
G75*
G02*
X113041800Y-88558000I0J-50800D01*
G01*
G37*
%TD*%
%TO.C,TP7*%
G36*
G01*
X123090800Y-110440000D02*
X123090800Y-112140000D01*
G75*
G02*
X123040000Y-112190800I-50800J0D01*
G01*
X121340000Y-112190800D01*
G75*
G02*
X121289200Y-112140000I0J50800D01*
G01*
X121289200Y-110440000D01*
G75*
G02*
X121340000Y-110389200I50800J0D01*
G01*
X123040000Y-110389200D01*
G75*
G02*
X123090800Y-110440000I0J-50800D01*
G01*
G37*
%TD*%
%TO.C,TP5*%
G36*
G01*
X183249200Y-141566000D02*
X183249200Y-139866000D01*
G75*
G02*
X183300000Y-139815200I50800J0D01*
G01*
X185000000Y-139815200D01*
G75*
G02*
X185050800Y-139866000I0J-50800D01*
G01*
X185050800Y-141566000D01*
G75*
G02*
X185000000Y-141616800I-50800J0D01*
G01*
X183300000Y-141616800D01*
G75*
G02*
X183249200Y-141566000I0J50800D01*
G01*
G37*
%TD*%
%TO.C,TP4*%
G36*
G01*
X158357200Y-121987680D02*
X158357200Y-120287680D01*
G75*
G02*
X158408000Y-120236880I50800J0D01*
G01*
X160108000Y-120236880D01*
G75*
G02*
X160158800Y-120287680I0J-50800D01*
G01*
X160158800Y-121987680D01*
G75*
G02*
X160108000Y-122038480I-50800J0D01*
G01*
X158408000Y-122038480D01*
G75*
G02*
X158357200Y-121987680I0J50800D01*
G01*
G37*
%TD*%
%TO.C,TP2*%
G36*
G01*
X135349200Y-122800000D02*
X135349200Y-121100000D01*
G75*
G02*
X135400000Y-121049200I50800J0D01*
G01*
X137100000Y-121049200D01*
G75*
G02*
X137150800Y-121100000I0J-50800D01*
G01*
X137150800Y-122800000D01*
G75*
G02*
X137100000Y-122850800I-50800J0D01*
G01*
X135400000Y-122850800D01*
G75*
G02*
X135349200Y-122800000I0J50800D01*
G01*
G37*
%TD*%
%TO.C,TP1*%
G36*
G01*
X131199200Y-148500000D02*
X131199200Y-146800000D01*
G75*
G02*
X131250000Y-146749200I50800J0D01*
G01*
X132950000Y-146749200D01*
G75*
G02*
X133000800Y-146800000I0J-50800D01*
G01*
X133000800Y-148500000D01*
G75*
G02*
X132950000Y-148550800I-50800J0D01*
G01*
X131250000Y-148550800D01*
G75*
G02*
X131199200Y-148500000I0J50800D01*
G01*
G37*
%TD*%
%TO.C,R37*%
G36*
G01*
X163633785Y-106466300D02*
X164591215Y-106466300D01*
G75*
G02*
X164863300Y-106738385I0J-272085D01*
G01*
X164863300Y-107445815D01*
G75*
G02*
X164591215Y-107717900I-272085J0D01*
G01*
X163633785Y-107717900D01*
G75*
G02*
X163361700Y-107445815I0J272085D01*
G01*
X163361700Y-106738385D01*
G75*
G02*
X163633785Y-106466300I272085J0D01*
G01*
G37*
G36*
G01*
X163633785Y-104416300D02*
X164591215Y-104416300D01*
G75*
G02*
X164863300Y-104688385I0J-272085D01*
G01*
X164863300Y-105395815D01*
G75*
G02*
X164591215Y-105667900I-272085J0D01*
G01*
X163633785Y-105667900D01*
G75*
G02*
X163361700Y-105395815I0J272085D01*
G01*
X163361700Y-104688385D01*
G75*
G02*
X163633785Y-104416300I272085J0D01*
G01*
G37*
%TD*%
%TO.C,R36*%
G36*
G01*
X163659185Y-101593200D02*
X164616615Y-101593200D01*
G75*
G02*
X164888700Y-101865285I0J-272085D01*
G01*
X164888700Y-102572715D01*
G75*
G02*
X164616615Y-102844800I-272085J0D01*
G01*
X163659185Y-102844800D01*
G75*
G02*
X163387100Y-102572715I0J272085D01*
G01*
X163387100Y-101865285D01*
G75*
G02*
X163659185Y-101593200I272085J0D01*
G01*
G37*
G36*
G01*
X163659185Y-99543200D02*
X164616615Y-99543200D01*
G75*
G02*
X164888700Y-99815285I0J-272085D01*
G01*
X164888700Y-100522715D01*
G75*
G02*
X164616615Y-100794800I-272085J0D01*
G01*
X163659185Y-100794800D01*
G75*
G02*
X163387100Y-100522715I0J272085D01*
G01*
X163387100Y-99815285D01*
G75*
G02*
X163659185Y-99543200I272085J0D01*
G01*
G37*
%TD*%
%TO.C,R35*%
G36*
G01*
X115257915Y-95985700D02*
X114300485Y-95985700D01*
G75*
G02*
X114028400Y-95713615I0J272085D01*
G01*
X114028400Y-95006185D01*
G75*
G02*
X114300485Y-94734100I272085J0D01*
G01*
X115257915Y-94734100D01*
G75*
G02*
X115530000Y-95006185I0J-272085D01*
G01*
X115530000Y-95713615D01*
G75*
G02*
X115257915Y-95985700I-272085J0D01*
G01*
G37*
G36*
G01*
X115257915Y-98035700D02*
X114300485Y-98035700D01*
G75*
G02*
X114028400Y-97763615I0J272085D01*
G01*
X114028400Y-97056185D01*
G75*
G02*
X114300485Y-96784100I272085J0D01*
G01*
X115257915Y-96784100D01*
G75*
G02*
X115530000Y-97056185I0J-272085D01*
G01*
X115530000Y-97763615D01*
G75*
G02*
X115257915Y-98035700I-272085J0D01*
G01*
G37*
%TD*%
%TO.C,R34*%
G36*
G01*
X115257915Y-101750800D02*
X114300485Y-101750800D01*
G75*
G02*
X114028400Y-101478715I0J272085D01*
G01*
X114028400Y-100771285D01*
G75*
G02*
X114300485Y-100499200I272085J0D01*
G01*
X115257915Y-100499200D01*
G75*
G02*
X115530000Y-100771285I0J-272085D01*
G01*
X115530000Y-101478715D01*
G75*
G02*
X115257915Y-101750800I-272085J0D01*
G01*
G37*
G36*
G01*
X115257915Y-103800800D02*
X114300485Y-103800800D01*
G75*
G02*
X114028400Y-103528715I0J272085D01*
G01*
X114028400Y-102821285D01*
G75*
G02*
X114300485Y-102549200I272085J0D01*
G01*
X115257915Y-102549200D01*
G75*
G02*
X115530000Y-102821285I0J-272085D01*
G01*
X115530000Y-103528715D01*
G75*
G02*
X115257915Y-103800800I-272085J0D01*
G01*
G37*
%TD*%
%TO.C,R33*%
G36*
G01*
X129273215Y-97637700D02*
X128315785Y-97637700D01*
G75*
G02*
X128043700Y-97365615I0J272085D01*
G01*
X128043700Y-96658185D01*
G75*
G02*
X128315785Y-96386100I272085J0D01*
G01*
X129273215Y-96386100D01*
G75*
G02*
X129545300Y-96658185I0J-272085D01*
G01*
X129545300Y-97365615D01*
G75*
G02*
X129273215Y-97637700I-272085J0D01*
G01*
G37*
G36*
G01*
X129273215Y-99687700D02*
X128315785Y-99687700D01*
G75*
G02*
X128043700Y-99415615I0J272085D01*
G01*
X128043700Y-98708185D01*
G75*
G02*
X128315785Y-98436100I272085J0D01*
G01*
X129273215Y-98436100D01*
G75*
G02*
X129545300Y-98708185I0J-272085D01*
G01*
X129545300Y-99415615D01*
G75*
G02*
X129273215Y-99687700I-272085J0D01*
G01*
G37*
%TD*%
%TO.C,R32*%
G36*
G01*
X129298615Y-102666900D02*
X128341185Y-102666900D01*
G75*
G02*
X128069100Y-102394815I0J272085D01*
G01*
X128069100Y-101687385D01*
G75*
G02*
X128341185Y-101415300I272085J0D01*
G01*
X129298615Y-101415300D01*
G75*
G02*
X129570700Y-101687385I0J-272085D01*
G01*
X129570700Y-102394815D01*
G75*
G02*
X129298615Y-102666900I-272085J0D01*
G01*
G37*
G36*
G01*
X129298615Y-104716900D02*
X128341185Y-104716900D01*
G75*
G02*
X128069100Y-104444815I0J272085D01*
G01*
X128069100Y-103737385D01*
G75*
G02*
X128341185Y-103465300I272085J0D01*
G01*
X129298615Y-103465300D01*
G75*
G02*
X129570700Y-103737385I0J-272085D01*
G01*
X129570700Y-104444815D01*
G75*
G02*
X129298615Y-104716900I-272085J0D01*
G01*
G37*
%TD*%
%TO.C,R22*%
G36*
G01*
X173234425Y-145468760D02*
X174191855Y-145468760D01*
G75*
G02*
X174463940Y-145740845I0J-272085D01*
G01*
X174463940Y-146448275D01*
G75*
G02*
X174191855Y-146720360I-272085J0D01*
G01*
X173234425Y-146720360D01*
G75*
G02*
X172962340Y-146448275I0J272085D01*
G01*
X172962340Y-145740845D01*
G75*
G02*
X173234425Y-145468760I272085J0D01*
G01*
G37*
G36*
G01*
X173234425Y-143418760D02*
X174191855Y-143418760D01*
G75*
G02*
X174463940Y-143690845I0J-272085D01*
G01*
X174463940Y-144398275D01*
G75*
G02*
X174191855Y-144670360I-272085J0D01*
G01*
X173234425Y-144670360D01*
G75*
G02*
X172962340Y-144398275I0J272085D01*
G01*
X172962340Y-143690845D01*
G75*
G02*
X173234425Y-143418760I272085J0D01*
G01*
G37*
%TD*%
%TO.C,R19*%
G36*
G01*
X147521285Y-129136200D02*
X148478715Y-129136200D01*
G75*
G02*
X148750800Y-129408285I0J-272085D01*
G01*
X148750800Y-130115715D01*
G75*
G02*
X148478715Y-130387800I-272085J0D01*
G01*
X147521285Y-130387800D01*
G75*
G02*
X147249200Y-130115715I0J272085D01*
G01*
X147249200Y-129408285D01*
G75*
G02*
X147521285Y-129136200I272085J0D01*
G01*
G37*
G36*
G01*
X147521285Y-127086200D02*
X148478715Y-127086200D01*
G75*
G02*
X148750800Y-127358285I0J-272085D01*
G01*
X148750800Y-128065715D01*
G75*
G02*
X148478715Y-128337800I-272085J0D01*
G01*
X147521285Y-128337800D01*
G75*
G02*
X147249200Y-128065715I0J272085D01*
G01*
X147249200Y-127358285D01*
G75*
G02*
X147521285Y-127086200I272085J0D01*
G01*
G37*
%TD*%
%TO.C,R18*%
G36*
G01*
X151413285Y-137813200D02*
X152370715Y-137813200D01*
G75*
G02*
X152642800Y-138085285I0J-272085D01*
G01*
X152642800Y-138792715D01*
G75*
G02*
X152370715Y-139064800I-272085J0D01*
G01*
X151413285Y-139064800D01*
G75*
G02*
X151141200Y-138792715I0J272085D01*
G01*
X151141200Y-138085285D01*
G75*
G02*
X151413285Y-137813200I272085J0D01*
G01*
G37*
G36*
G01*
X151413285Y-135763200D02*
X152370715Y-135763200D01*
G75*
G02*
X152642800Y-136035285I0J-272085D01*
G01*
X152642800Y-136742715D01*
G75*
G02*
X152370715Y-137014800I-272085J0D01*
G01*
X151413285Y-137014800D01*
G75*
G02*
X151141200Y-136742715I0J272085D01*
G01*
X151141200Y-136035285D01*
G75*
G02*
X151413285Y-135763200I272085J0D01*
G01*
G37*
%TD*%
%TO.C,R17*%
G36*
G01*
X153874200Y-141378715D02*
X153874200Y-140421285D01*
G75*
G02*
X154146285Y-140149200I272085J0D01*
G01*
X154853715Y-140149200D01*
G75*
G02*
X155125800Y-140421285I0J-272085D01*
G01*
X155125800Y-141378715D01*
G75*
G02*
X154853715Y-141650800I-272085J0D01*
G01*
X154146285Y-141650800D01*
G75*
G02*
X153874200Y-141378715I0J272085D01*
G01*
G37*
G36*
G01*
X151824200Y-141378715D02*
X151824200Y-140421285D01*
G75*
G02*
X152096285Y-140149200I272085J0D01*
G01*
X152803715Y-140149200D01*
G75*
G02*
X153075800Y-140421285I0J-272085D01*
G01*
X153075800Y-141378715D01*
G75*
G02*
X152803715Y-141650800I-272085J0D01*
G01*
X152096285Y-141650800D01*
G75*
G02*
X151824200Y-141378715I0J272085D01*
G01*
G37*
%TD*%
%TO.C,R16*%
G36*
G01*
X150225800Y-144246285D02*
X150225800Y-145203715D01*
G75*
G02*
X149953715Y-145475800I-272085J0D01*
G01*
X149246285Y-145475800D01*
G75*
G02*
X148974200Y-145203715I0J272085D01*
G01*
X148974200Y-144246285D01*
G75*
G02*
X149246285Y-143974200I272085J0D01*
G01*
X149953715Y-143974200D01*
G75*
G02*
X150225800Y-144246285I0J-272085D01*
G01*
G37*
G36*
G01*
X152275800Y-144246285D02*
X152275800Y-145203715D01*
G75*
G02*
X152003715Y-145475800I-272085J0D01*
G01*
X151296285Y-145475800D01*
G75*
G02*
X151024200Y-145203715I0J272085D01*
G01*
X151024200Y-144246285D01*
G75*
G02*
X151296285Y-143974200I272085J0D01*
G01*
X152003715Y-143974200D01*
G75*
G02*
X152275800Y-144246285I0J-272085D01*
G01*
G37*
%TD*%
%TO.C,R15*%
G36*
G01*
X147146285Y-149174200D02*
X148103715Y-149174200D01*
G75*
G02*
X148375800Y-149446285I0J-272085D01*
G01*
X148375800Y-150153715D01*
G75*
G02*
X148103715Y-150425800I-272085J0D01*
G01*
X147146285Y-150425800D01*
G75*
G02*
X146874200Y-150153715I0J272085D01*
G01*
X146874200Y-149446285D01*
G75*
G02*
X147146285Y-149174200I272085J0D01*
G01*
G37*
G36*
G01*
X147146285Y-147124200D02*
X148103715Y-147124200D01*
G75*
G02*
X148375800Y-147396285I0J-272085D01*
G01*
X148375800Y-148103715D01*
G75*
G02*
X148103715Y-148375800I-272085J0D01*
G01*
X147146285Y-148375800D01*
G75*
G02*
X146874200Y-148103715I0J272085D01*
G01*
X146874200Y-147396285D01*
G75*
G02*
X147146285Y-147124200I272085J0D01*
G01*
G37*
%TD*%
%TO.C,R14*%
G36*
G01*
X136275285Y-136207200D02*
X137232715Y-136207200D01*
G75*
G02*
X137504800Y-136479285I0J-272085D01*
G01*
X137504800Y-137186715D01*
G75*
G02*
X137232715Y-137458800I-272085J0D01*
G01*
X136275285Y-137458800D01*
G75*
G02*
X136003200Y-137186715I0J272085D01*
G01*
X136003200Y-136479285D01*
G75*
G02*
X136275285Y-136207200I272085J0D01*
G01*
G37*
G36*
G01*
X136275285Y-134157200D02*
X137232715Y-134157200D01*
G75*
G02*
X137504800Y-134429285I0J-272085D01*
G01*
X137504800Y-135136715D01*
G75*
G02*
X137232715Y-135408800I-272085J0D01*
G01*
X136275285Y-135408800D01*
G75*
G02*
X136003200Y-135136715I0J272085D01*
G01*
X136003200Y-134429285D01*
G75*
G02*
X136275285Y-134157200I272085J0D01*
G01*
G37*
%TD*%
%TO.C,R13*%
G36*
G01*
X122471285Y-128474200D02*
X123428715Y-128474200D01*
G75*
G02*
X123700800Y-128746285I0J-272085D01*
G01*
X123700800Y-129453715D01*
G75*
G02*
X123428715Y-129725800I-272085J0D01*
G01*
X122471285Y-129725800D01*
G75*
G02*
X122199200Y-129453715I0J272085D01*
G01*
X122199200Y-128746285D01*
G75*
G02*
X122471285Y-128474200I272085J0D01*
G01*
G37*
G36*
G01*
X122471285Y-130524200D02*
X123428715Y-130524200D01*
G75*
G02*
X123700800Y-130796285I0J-272085D01*
G01*
X123700800Y-131503715D01*
G75*
G02*
X123428715Y-131775800I-272085J0D01*
G01*
X122471285Y-131775800D01*
G75*
G02*
X122199200Y-131503715I0J272085D01*
G01*
X122199200Y-130796285D01*
G75*
G02*
X122471285Y-130524200I272085J0D01*
G01*
G37*
%TD*%
%TO.C,R12*%
G36*
G01*
X126721285Y-134649200D02*
X127678715Y-134649200D01*
G75*
G02*
X127950800Y-134921285I0J-272085D01*
G01*
X127950800Y-135628715D01*
G75*
G02*
X127678715Y-135900800I-272085J0D01*
G01*
X126721285Y-135900800D01*
G75*
G02*
X126449200Y-135628715I0J272085D01*
G01*
X126449200Y-134921285D01*
G75*
G02*
X126721285Y-134649200I272085J0D01*
G01*
G37*
G36*
G01*
X126721285Y-136699200D02*
X127678715Y-136699200D01*
G75*
G02*
X127950800Y-136971285I0J-272085D01*
G01*
X127950800Y-137678715D01*
G75*
G02*
X127678715Y-137950800I-272085J0D01*
G01*
X126721285Y-137950800D01*
G75*
G02*
X126449200Y-137678715I0J272085D01*
G01*
X126449200Y-136971285D01*
G75*
G02*
X126721285Y-136699200I272085J0D01*
G01*
G37*
%TD*%
%TO.C,R11*%
G36*
G01*
X128921285Y-139299200D02*
X129878715Y-139299200D01*
G75*
G02*
X130150800Y-139571285I0J-272085D01*
G01*
X130150800Y-140278715D01*
G75*
G02*
X129878715Y-140550800I-272085J0D01*
G01*
X128921285Y-140550800D01*
G75*
G02*
X128649200Y-140278715I0J272085D01*
G01*
X128649200Y-139571285D01*
G75*
G02*
X128921285Y-139299200I272085J0D01*
G01*
G37*
G36*
G01*
X128921285Y-141349200D02*
X129878715Y-141349200D01*
G75*
G02*
X130150800Y-141621285I0J-272085D01*
G01*
X130150800Y-142328715D01*
G75*
G02*
X129878715Y-142600800I-272085J0D01*
G01*
X128921285Y-142600800D01*
G75*
G02*
X128649200Y-142328715I0J272085D01*
G01*
X128649200Y-141621285D01*
G75*
G02*
X128921285Y-141349200I272085J0D01*
G01*
G37*
%TD*%
%TO.C,R10*%
G36*
G01*
X156085800Y-72218285D02*
X156085800Y-73175715D01*
G75*
G02*
X155813715Y-73447800I-272085J0D01*
G01*
X155106285Y-73447800D01*
G75*
G02*
X154834200Y-73175715I0J272085D01*
G01*
X154834200Y-72218285D01*
G75*
G02*
X155106285Y-71946200I272085J0D01*
G01*
X155813715Y-71946200D01*
G75*
G02*
X156085800Y-72218285I0J-272085D01*
G01*
G37*
G36*
G01*
X158135800Y-72218285D02*
X158135800Y-73175715D01*
G75*
G02*
X157863715Y-73447800I-272085J0D01*
G01*
X157156285Y-73447800D01*
G75*
G02*
X156884200Y-73175715I0J272085D01*
G01*
X156884200Y-72218285D01*
G75*
G02*
X157156285Y-71946200I272085J0D01*
G01*
X157863715Y-71946200D01*
G75*
G02*
X158135800Y-72218285I0J-272085D01*
G01*
G37*
%TD*%
%TO.C,R9*%
G36*
G01*
X144999085Y-95986800D02*
X145956515Y-95986800D01*
G75*
G02*
X146228600Y-96258885I0J-272085D01*
G01*
X146228600Y-96966315D01*
G75*
G02*
X145956515Y-97238400I-272085J0D01*
G01*
X144999085Y-97238400D01*
G75*
G02*
X144727000Y-96966315I0J272085D01*
G01*
X144727000Y-96258885D01*
G75*
G02*
X144999085Y-95986800I272085J0D01*
G01*
G37*
G36*
G01*
X144999085Y-93936800D02*
X145956515Y-93936800D01*
G75*
G02*
X146228600Y-94208885I0J-272085D01*
G01*
X146228600Y-94916315D01*
G75*
G02*
X145956515Y-95188400I-272085J0D01*
G01*
X144999085Y-95188400D01*
G75*
G02*
X144727000Y-94916315I0J272085D01*
G01*
X144727000Y-94208885D01*
G75*
G02*
X144999085Y-93936800I272085J0D01*
G01*
G37*
%TD*%
%TO.C,R8*%
G36*
G01*
X163563555Y-81095080D02*
X162606125Y-81095080D01*
G75*
G02*
X162334040Y-80822995I0J272085D01*
G01*
X162334040Y-80115565D01*
G75*
G02*
X162606125Y-79843480I272085J0D01*
G01*
X163563555Y-79843480D01*
G75*
G02*
X163835640Y-80115565I0J-272085D01*
G01*
X163835640Y-80822995D01*
G75*
G02*
X163563555Y-81095080I-272085J0D01*
G01*
G37*
G36*
G01*
X163563555Y-83145080D02*
X162606125Y-83145080D01*
G75*
G02*
X162334040Y-82872995I0J272085D01*
G01*
X162334040Y-82165565D01*
G75*
G02*
X162606125Y-81893480I272085J0D01*
G01*
X163563555Y-81893480D01*
G75*
G02*
X163835640Y-82165565I0J-272085D01*
G01*
X163835640Y-82872995D01*
G75*
G02*
X163563555Y-83145080I-272085J0D01*
G01*
G37*
%TD*%
%TO.C,R7*%
G36*
G01*
X163603555Y-86405080D02*
X162646125Y-86405080D01*
G75*
G02*
X162374040Y-86132995I0J272085D01*
G01*
X162374040Y-85425565D01*
G75*
G02*
X162646125Y-85153480I272085J0D01*
G01*
X163603555Y-85153480D01*
G75*
G02*
X163875640Y-85425565I0J-272085D01*
G01*
X163875640Y-86132995D01*
G75*
G02*
X163603555Y-86405080I-272085J0D01*
G01*
G37*
G36*
G01*
X163603555Y-88455080D02*
X162646125Y-88455080D01*
G75*
G02*
X162374040Y-88182995I0J272085D01*
G01*
X162374040Y-87475565D01*
G75*
G02*
X162646125Y-87203480I272085J0D01*
G01*
X163603555Y-87203480D01*
G75*
G02*
X163875640Y-87475565I0J-272085D01*
G01*
X163875640Y-88182995D01*
G75*
G02*
X163603555Y-88455080I-272085J0D01*
G01*
G37*
%TD*%
%TO.C,R6*%
G36*
G01*
X158223800Y-75848285D02*
X158223800Y-76805715D01*
G75*
G02*
X157951715Y-77077800I-272085J0D01*
G01*
X157244285Y-77077800D01*
G75*
G02*
X156972200Y-76805715I0J272085D01*
G01*
X156972200Y-75848285D01*
G75*
G02*
X157244285Y-75576200I272085J0D01*
G01*
X157951715Y-75576200D01*
G75*
G02*
X158223800Y-75848285I0J-272085D01*
G01*
G37*
G36*
G01*
X160273800Y-75848285D02*
X160273800Y-76805715D01*
G75*
G02*
X160001715Y-77077800I-272085J0D01*
G01*
X159294285Y-77077800D01*
G75*
G02*
X159022200Y-76805715I0J272085D01*
G01*
X159022200Y-75848285D01*
G75*
G02*
X159294285Y-75576200I272085J0D01*
G01*
X160001715Y-75576200D01*
G75*
G02*
X160273800Y-75848285I0J-272085D01*
G01*
G37*
%TD*%
%TO.C,R5*%
G36*
G01*
X151933285Y-96190000D02*
X152890715Y-96190000D01*
G75*
G02*
X153162800Y-96462085I0J-272085D01*
G01*
X153162800Y-97169515D01*
G75*
G02*
X152890715Y-97441600I-272085J0D01*
G01*
X151933285Y-97441600D01*
G75*
G02*
X151661200Y-97169515I0J272085D01*
G01*
X151661200Y-96462085D01*
G75*
G02*
X151933285Y-96190000I272085J0D01*
G01*
G37*
G36*
G01*
X151933285Y-94140000D02*
X152890715Y-94140000D01*
G75*
G02*
X153162800Y-94412085I0J-272085D01*
G01*
X153162800Y-95119515D01*
G75*
G02*
X152890715Y-95391600I-272085J0D01*
G01*
X151933285Y-95391600D01*
G75*
G02*
X151661200Y-95119515I0J272085D01*
G01*
X151661200Y-94412085D01*
G75*
G02*
X151933285Y-94140000I272085J0D01*
G01*
G37*
%TD*%
%TO.C,R4*%
G36*
G01*
X148478885Y-96088400D02*
X149436315Y-96088400D01*
G75*
G02*
X149708400Y-96360485I0J-272085D01*
G01*
X149708400Y-97067915D01*
G75*
G02*
X149436315Y-97340000I-272085J0D01*
G01*
X148478885Y-97340000D01*
G75*
G02*
X148206800Y-97067915I0J272085D01*
G01*
X148206800Y-96360485D01*
G75*
G02*
X148478885Y-96088400I272085J0D01*
G01*
G37*
G36*
G01*
X148478885Y-94038400D02*
X149436315Y-94038400D01*
G75*
G02*
X149708400Y-94310485I0J-272085D01*
G01*
X149708400Y-95017915D01*
G75*
G02*
X149436315Y-95290000I-272085J0D01*
G01*
X148478885Y-95290000D01*
G75*
G02*
X148206800Y-95017915I0J272085D01*
G01*
X148206800Y-94310485D01*
G75*
G02*
X148478885Y-94038400I272085J0D01*
G01*
G37*
%TD*%
%TO.C,R2*%
G36*
G01*
X121171285Y-146824200D02*
X122128715Y-146824200D01*
G75*
G02*
X122400800Y-147096285I0J-272085D01*
G01*
X122400800Y-147803715D01*
G75*
G02*
X122128715Y-148075800I-272085J0D01*
G01*
X121171285Y-148075800D01*
G75*
G02*
X120899200Y-147803715I0J272085D01*
G01*
X120899200Y-147096285D01*
G75*
G02*
X121171285Y-146824200I272085J0D01*
G01*
G37*
G36*
G01*
X121171285Y-148874200D02*
X122128715Y-148874200D01*
G75*
G02*
X122400800Y-149146285I0J-272085D01*
G01*
X122400800Y-149853715D01*
G75*
G02*
X122128715Y-150125800I-272085J0D01*
G01*
X121171285Y-150125800D01*
G75*
G02*
X120899200Y-149853715I0J272085D01*
G01*
X120899200Y-149146285D01*
G75*
G02*
X121171285Y-148874200I272085J0D01*
G01*
G37*
%TD*%
%TO.C,R1*%
G36*
G01*
X111621285Y-134747200D02*
X112578715Y-134747200D01*
G75*
G02*
X112850800Y-135019285I0J-272085D01*
G01*
X112850800Y-135726715D01*
G75*
G02*
X112578715Y-135998800I-272085J0D01*
G01*
X111621285Y-135998800D01*
G75*
G02*
X111349200Y-135726715I0J272085D01*
G01*
X111349200Y-135019285D01*
G75*
G02*
X111621285Y-134747200I272085J0D01*
G01*
G37*
G36*
G01*
X111621285Y-136797200D02*
X112578715Y-136797200D01*
G75*
G02*
X112850800Y-137069285I0J-272085D01*
G01*
X112850800Y-137776715D01*
G75*
G02*
X112578715Y-138048800I-272085J0D01*
G01*
X111621285Y-138048800D01*
G75*
G02*
X111349200Y-137776715I0J272085D01*
G01*
X111349200Y-137069285D01*
G75*
G02*
X111621285Y-136797200I272085J0D01*
G01*
G37*
%TD*%
D13*
%TO.C,JP6*%
X173810000Y-129560000D03*
G36*
G01*
X175500000Y-128659200D02*
X177200000Y-128659200D01*
G75*
G02*
X177250800Y-128710000I0J-50800D01*
G01*
X177250800Y-130410000D01*
G75*
G02*
X177200000Y-130460800I-50800J0D01*
G01*
X175500000Y-130460800D01*
G75*
G02*
X175449200Y-130410000I0J50800D01*
G01*
X175449200Y-128710000D01*
G75*
G02*
X175500000Y-128659200I50800J0D01*
G01*
G37*
%TD*%
%TO.C,JP4*%
G36*
G01*
X160077520Y-130584840D02*
X160077520Y-132284840D01*
G75*
G02*
X160026720Y-132335640I-50800J0D01*
G01*
X158326720Y-132335640D01*
G75*
G02*
X158275920Y-132284840I0J50800D01*
G01*
X158275920Y-130584840D01*
G75*
G02*
X158326720Y-130534040I50800J0D01*
G01*
X160026720Y-130534040D01*
G75*
G02*
X160077520Y-130584840I0J-50800D01*
G01*
G37*
X159176720Y-128894840D03*
%TD*%
%TO.C,JP3*%
X139690000Y-141400000D03*
G36*
G01*
X138000000Y-142300800D02*
X136300000Y-142300800D01*
G75*
G02*
X136249200Y-142250000I0J50800D01*
G01*
X136249200Y-140550000D01*
G75*
G02*
X136300000Y-140499200I50800J0D01*
G01*
X138000000Y-140499200D01*
G75*
G02*
X138050800Y-140550000I0J-50800D01*
G01*
X138050800Y-142250000D01*
G75*
G02*
X138000000Y-142300800I-50800J0D01*
G01*
G37*
%TD*%
%TO.C,JP1*%
G36*
G01*
X112500000Y-142300800D02*
X110800000Y-142300800D01*
G75*
G02*
X110749200Y-142250000I0J50800D01*
G01*
X110749200Y-140550000D01*
G75*
G02*
X110800000Y-140499200I50800J0D01*
G01*
X112500000Y-140499200D01*
G75*
G02*
X112550800Y-140550000I0J-50800D01*
G01*
X112550800Y-142250000D01*
G75*
G02*
X112500000Y-142300800I-50800J0D01*
G01*
G37*
X114190000Y-141400000D03*
%TD*%
D15*
%TO.C,J10*%
X109190500Y-127000000D03*
G36*
G01*
X109790500Y-129650800D02*
X108590500Y-129650800D01*
G75*
G02*
X108539700Y-129600000I0J50800D01*
G01*
X108539700Y-128400000D01*
G75*
G02*
X108590500Y-128349200I50800J0D01*
G01*
X109790500Y-128349200D01*
G75*
G02*
X109841300Y-128400000I0J-50800D01*
G01*
X109841300Y-129600000D01*
G75*
G02*
X109790500Y-129650800I-50800J0D01*
G01*
G37*
X109190500Y-125000000D03*
X111190500Y-125000000D03*
X111190500Y-127000000D03*
X111190500Y-129000000D03*
D16*
X110190500Y-121500000D03*
X110190500Y-132500000D03*
%TD*%
D13*
%TO.C,J7*%
X183124840Y-86374280D03*
X183124840Y-88914280D03*
G36*
G01*
X184025640Y-90604280D02*
X184025640Y-92304280D01*
G75*
G02*
X183974840Y-92355080I-50800J0D01*
G01*
X182274840Y-92355080D01*
G75*
G02*
X182224040Y-92304280I0J50800D01*
G01*
X182224040Y-90604280D01*
G75*
G02*
X182274840Y-90553480I50800J0D01*
G01*
X183974840Y-90553480D01*
G75*
G02*
X184025640Y-90604280I0J-50800D01*
G01*
G37*
%TD*%
D15*
%TO.C,J4*%
X184556400Y-126727200D03*
G36*
G01*
X185156400Y-129378000D02*
X183956400Y-129378000D01*
G75*
G02*
X183905600Y-129327200I0J50800D01*
G01*
X183905600Y-128127200D01*
G75*
G02*
X183956400Y-128076400I50800J0D01*
G01*
X185156400Y-128076400D01*
G75*
G02*
X185207200Y-128127200I0J-50800D01*
G01*
X185207200Y-129327200D01*
G75*
G02*
X185156400Y-129378000I-50800J0D01*
G01*
G37*
X184556400Y-124727200D03*
X186556400Y-124727200D03*
X186556400Y-126727200D03*
X186556400Y-128727200D03*
D16*
X185556400Y-121227200D03*
X185556400Y-132227200D03*
%TD*%
%TO.C,J1*%
G36*
G01*
X116400800Y-121010000D02*
X116400800Y-122710000D01*
G75*
G02*
X116350000Y-122760800I-50800J0D01*
G01*
X114650000Y-122760800D01*
G75*
G02*
X114599200Y-122710000I0J50800D01*
G01*
X114599200Y-121010000D01*
G75*
G02*
X114650000Y-120959200I50800J0D01*
G01*
X116350000Y-120959200D01*
G75*
G02*
X116400800Y-121010000I0J-50800D01*
G01*
G37*
D13*
X115500000Y-124400000D03*
X115500000Y-126940000D03*
X115500000Y-129480000D03*
X115500000Y-132020000D03*
%TD*%
%TO.C,F3*%
G36*
G01*
X179049040Y-86227695D02*
X179049040Y-85270265D01*
G75*
G02*
X179321125Y-84998180I272085J0D01*
G01*
X180028555Y-84998180D01*
G75*
G02*
X180300640Y-85270265I0J-272085D01*
G01*
X180300640Y-86227695D01*
G75*
G02*
X180028555Y-86499780I-272085J0D01*
G01*
X179321125Y-86499780D01*
G75*
G02*
X179049040Y-86227695I0J272085D01*
G01*
G37*
G36*
G01*
X176999040Y-86227695D02*
X176999040Y-85270265D01*
G75*
G02*
X177271125Y-84998180I272085J0D01*
G01*
X177978555Y-84998180D01*
G75*
G02*
X178250640Y-85270265I0J-272085D01*
G01*
X178250640Y-86227695D01*
G75*
G02*
X177978555Y-86499780I-272085J0D01*
G01*
X177271125Y-86499780D01*
G75*
G02*
X176999040Y-86227695I0J272085D01*
G01*
G37*
%TD*%
%TO.C,F1*%
G36*
G01*
X179024040Y-89936095D02*
X179024040Y-88978665D01*
G75*
G02*
X179296125Y-88706580I272085J0D01*
G01*
X180003555Y-88706580D01*
G75*
G02*
X180275640Y-88978665I0J-272085D01*
G01*
X180275640Y-89936095D01*
G75*
G02*
X180003555Y-90208180I-272085J0D01*
G01*
X179296125Y-90208180D01*
G75*
G02*
X179024040Y-89936095I0J272085D01*
G01*
G37*
G36*
G01*
X176974040Y-89936095D02*
X176974040Y-88978665D01*
G75*
G02*
X177246125Y-88706580I272085J0D01*
G01*
X177953555Y-88706580D01*
G75*
G02*
X178225640Y-88978665I0J-272085D01*
G01*
X178225640Y-89936095D01*
G75*
G02*
X177953555Y-90208180I-272085J0D01*
G01*
X177246125Y-90208180D01*
G75*
G02*
X176974040Y-89936095I0J272085D01*
G01*
G37*
%TD*%
%TO.C,D5*%
G36*
G01*
X146135776Y-100296900D02*
X144819824Y-100296900D01*
G75*
G02*
X144552000Y-100029076I0J267824D01*
G01*
X144552000Y-99038124D01*
G75*
G02*
X144819824Y-98770300I267824J0D01*
G01*
X146135776Y-98770300D01*
G75*
G02*
X146403600Y-99038124I0J-267824D01*
G01*
X146403600Y-100029076D01*
G75*
G02*
X146135776Y-100296900I-267824J0D01*
G01*
G37*
G36*
G01*
X146135776Y-103271900D02*
X144819824Y-103271900D01*
G75*
G02*
X144552000Y-103004076I0J267824D01*
G01*
X144552000Y-102013124D01*
G75*
G02*
X144819824Y-101745300I267824J0D01*
G01*
X146135776Y-101745300D01*
G75*
G02*
X146403600Y-102013124I0J-267824D01*
G01*
X146403600Y-103004076D01*
G75*
G02*
X146135776Y-103271900I-267824J0D01*
G01*
G37*
%TD*%
%TO.C,D4*%
G36*
G01*
X153069976Y-100271500D02*
X151754024Y-100271500D01*
G75*
G02*
X151486200Y-100003676I0J267824D01*
G01*
X151486200Y-99012724D01*
G75*
G02*
X151754024Y-98744900I267824J0D01*
G01*
X153069976Y-98744900D01*
G75*
G02*
X153337800Y-99012724I0J-267824D01*
G01*
X153337800Y-100003676D01*
G75*
G02*
X153069976Y-100271500I-267824J0D01*
G01*
G37*
G36*
G01*
X153069976Y-103246500D02*
X151754024Y-103246500D01*
G75*
G02*
X151486200Y-102978676I0J267824D01*
G01*
X151486200Y-101987724D01*
G75*
G02*
X151754024Y-101719900I267824J0D01*
G01*
X153069976Y-101719900D01*
G75*
G02*
X153337800Y-101987724I0J-267824D01*
G01*
X153337800Y-102978676D01*
G75*
G02*
X153069976Y-103246500I-267824J0D01*
G01*
G37*
%TD*%
%TO.C,D3*%
G36*
G01*
X149615576Y-100296900D02*
X148299624Y-100296900D01*
G75*
G02*
X148031800Y-100029076I0J267824D01*
G01*
X148031800Y-99038124D01*
G75*
G02*
X148299624Y-98770300I267824J0D01*
G01*
X149615576Y-98770300D01*
G75*
G02*
X149883400Y-99038124I0J-267824D01*
G01*
X149883400Y-100029076D01*
G75*
G02*
X149615576Y-100296900I-267824J0D01*
G01*
G37*
G36*
G01*
X149615576Y-103271900D02*
X148299624Y-103271900D01*
G75*
G02*
X148031800Y-103004076I0J267824D01*
G01*
X148031800Y-102013124D01*
G75*
G02*
X148299624Y-101745300I267824J0D01*
G01*
X149615576Y-101745300D01*
G75*
G02*
X149883400Y-102013124I0J-267824D01*
G01*
X149883400Y-103004076D01*
G75*
G02*
X149615576Y-103271900I-267824J0D01*
G01*
G37*
%TD*%
%TO.C,D2*%
G36*
G01*
X146949200Y-122500000D02*
X146949200Y-121500000D01*
G75*
G02*
X147000000Y-121449200I50800J0D01*
G01*
X148000000Y-121449200D01*
G75*
G02*
X148050800Y-121500000I0J-50800D01*
G01*
X148050800Y-122500000D01*
G75*
G02*
X148000000Y-122550800I-50800J0D01*
G01*
X147000000Y-122550800D01*
G75*
G02*
X146949200Y-122500000I0J50800D01*
G01*
G37*
G36*
G01*
X144449200Y-122500000D02*
X144449200Y-121500000D01*
G75*
G02*
X144500000Y-121449200I50800J0D01*
G01*
X145500000Y-121449200D01*
G75*
G02*
X145550800Y-121500000I0J-50800D01*
G01*
X145550800Y-122500000D01*
G75*
G02*
X145500000Y-122550800I-50800J0D01*
G01*
X144500000Y-122550800D01*
G75*
G02*
X144449200Y-122500000I0J50800D01*
G01*
G37*
%TD*%
%TO.C,D1*%
G36*
G01*
X118699200Y-123850000D02*
X118699200Y-122850000D01*
G75*
G02*
X118750000Y-122799200I50800J0D01*
G01*
X119750000Y-122799200D01*
G75*
G02*
X119800800Y-122850000I0J-50800D01*
G01*
X119800800Y-123850000D01*
G75*
G02*
X119750000Y-123900800I-50800J0D01*
G01*
X118750000Y-123900800D01*
G75*
G02*
X118699200Y-123850000I0J50800D01*
G01*
G37*
G36*
G01*
X121199200Y-123850000D02*
X121199200Y-122850000D01*
G75*
G02*
X121250000Y-122799200I50800J0D01*
G01*
X122250000Y-122799200D01*
G75*
G02*
X122300800Y-122850000I0J-50800D01*
G01*
X122300800Y-123850000D01*
G75*
G02*
X122250000Y-123900800I-50800J0D01*
G01*
X121250000Y-123900800D01*
G75*
G02*
X121199200Y-123850000I0J50800D01*
G01*
G37*
%TD*%
%TO.C,C31*%
G36*
G01*
X174262620Y-94480965D02*
X174262620Y-95438395D01*
G75*
G02*
X173990535Y-95710480I-272085J0D01*
G01*
X173283105Y-95710480D01*
G75*
G02*
X173011020Y-95438395I0J272085D01*
G01*
X173011020Y-94480965D01*
G75*
G02*
X173283105Y-94208880I272085J0D01*
G01*
X173990535Y-94208880D01*
G75*
G02*
X174262620Y-94480965I0J-272085D01*
G01*
G37*
G36*
G01*
X176312620Y-94480965D02*
X176312620Y-95438395D01*
G75*
G02*
X176040535Y-95710480I-272085J0D01*
G01*
X175333105Y-95710480D01*
G75*
G02*
X175061020Y-95438395I0J272085D01*
G01*
X175061020Y-94480965D01*
G75*
G02*
X175333105Y-94208880I272085J0D01*
G01*
X176040535Y-94208880D01*
G75*
G02*
X176312620Y-94480965I0J-272085D01*
G01*
G37*
%TD*%
%TO.C,C30*%
G36*
G01*
X119174200Y-108758715D02*
X119174200Y-107801285D01*
G75*
G02*
X119446285Y-107529200I272085J0D01*
G01*
X120153715Y-107529200D01*
G75*
G02*
X120425800Y-107801285I0J-272085D01*
G01*
X120425800Y-108758715D01*
G75*
G02*
X120153715Y-109030800I-272085J0D01*
G01*
X119446285Y-109030800D01*
G75*
G02*
X119174200Y-108758715I0J272085D01*
G01*
G37*
G36*
G01*
X117124200Y-108758715D02*
X117124200Y-107801285D01*
G75*
G02*
X117396285Y-107529200I272085J0D01*
G01*
X118103715Y-107529200D01*
G75*
G02*
X118375800Y-107801285I0J-272085D01*
G01*
X118375800Y-108758715D01*
G75*
G02*
X118103715Y-109030800I-272085J0D01*
G01*
X117396285Y-109030800D01*
G75*
G02*
X117124200Y-108758715I0J272085D01*
G01*
G37*
%TD*%
%TO.C,C29*%
G36*
G01*
X175732840Y-119878545D02*
X175732840Y-120835975D01*
G75*
G02*
X175460755Y-121108060I-272085J0D01*
G01*
X174753325Y-121108060D01*
G75*
G02*
X174481240Y-120835975I0J272085D01*
G01*
X174481240Y-119878545D01*
G75*
G02*
X174753325Y-119606460I272085J0D01*
G01*
X175460755Y-119606460D01*
G75*
G02*
X175732840Y-119878545I0J-272085D01*
G01*
G37*
G36*
G01*
X177782840Y-119878545D02*
X177782840Y-120835975D01*
G75*
G02*
X177510755Y-121108060I-272085J0D01*
G01*
X176803325Y-121108060D01*
G75*
G02*
X176531240Y-120835975I0J272085D01*
G01*
X176531240Y-119878545D01*
G75*
G02*
X176803325Y-119606460I272085J0D01*
G01*
X177510755Y-119606460D01*
G75*
G02*
X177782840Y-119878545I0J-272085D01*
G01*
G37*
%TD*%
%TO.C,C28*%
G36*
G01*
X164830325Y-128427460D02*
X165787755Y-128427460D01*
G75*
G02*
X166059840Y-128699545I0J-272085D01*
G01*
X166059840Y-129406975D01*
G75*
G02*
X165787755Y-129679060I-272085J0D01*
G01*
X164830325Y-129679060D01*
G75*
G02*
X164558240Y-129406975I0J272085D01*
G01*
X164558240Y-128699545D01*
G75*
G02*
X164830325Y-128427460I272085J0D01*
G01*
G37*
G36*
G01*
X164830325Y-126377460D02*
X165787755Y-126377460D01*
G75*
G02*
X166059840Y-126649545I0J-272085D01*
G01*
X166059840Y-127356975D01*
G75*
G02*
X165787755Y-127629060I-272085J0D01*
G01*
X164830325Y-127629060D01*
G75*
G02*
X164558240Y-127356975I0J272085D01*
G01*
X164558240Y-126649545D01*
G75*
G02*
X164830325Y-126377460I272085J0D01*
G01*
G37*
%TD*%
%TO.C,C27*%
G36*
G01*
X170144982Y-137958963D02*
X170144982Y-138916393D01*
G75*
G02*
X169872897Y-139188478I-272085J0D01*
G01*
X169165467Y-139188478D01*
G75*
G02*
X168893382Y-138916393I0J272085D01*
G01*
X168893382Y-137958963D01*
G75*
G02*
X169165467Y-137686878I272085J0D01*
G01*
X169872897Y-137686878D01*
G75*
G02*
X170144982Y-137958963I0J-272085D01*
G01*
G37*
G36*
G01*
X172194982Y-137958963D02*
X172194982Y-138916393D01*
G75*
G02*
X171922897Y-139188478I-272085J0D01*
G01*
X171215467Y-139188478D01*
G75*
G02*
X170943382Y-138916393I0J272085D01*
G01*
X170943382Y-137958963D01*
G75*
G02*
X171215467Y-137686878I272085J0D01*
G01*
X171922897Y-137686878D01*
G75*
G02*
X172194982Y-137958963I0J-272085D01*
G01*
G37*
%TD*%
%TO.C,C26*%
G36*
G01*
X176960255Y-146247700D02*
X176002825Y-146247700D01*
G75*
G02*
X175730740Y-145975615I0J272085D01*
G01*
X175730740Y-145268185D01*
G75*
G02*
X176002825Y-144996100I272085J0D01*
G01*
X176960255Y-144996100D01*
G75*
G02*
X177232340Y-145268185I0J-272085D01*
G01*
X177232340Y-145975615D01*
G75*
G02*
X176960255Y-146247700I-272085J0D01*
G01*
G37*
G36*
G01*
X176960255Y-148297700D02*
X176002825Y-148297700D01*
G75*
G02*
X175730740Y-148025615I0J272085D01*
G01*
X175730740Y-147318185D01*
G75*
G02*
X176002825Y-147046100I272085J0D01*
G01*
X176960255Y-147046100D01*
G75*
G02*
X177232340Y-147318185I0J-272085D01*
G01*
X177232340Y-148025615D01*
G75*
G02*
X176960255Y-148297700I-272085J0D01*
G01*
G37*
%TD*%
%TO.C,C25*%
G36*
G01*
X165821393Y-148019520D02*
X165821393Y-148976950D01*
G75*
G02*
X165549308Y-149249035I-272085J0D01*
G01*
X164841878Y-149249035D01*
G75*
G02*
X164569793Y-148976950I0J272085D01*
G01*
X164569793Y-148019520D01*
G75*
G02*
X164841878Y-147747435I272085J0D01*
G01*
X165549308Y-147747435D01*
G75*
G02*
X165821393Y-148019520I0J-272085D01*
G01*
G37*
G36*
G01*
X167871393Y-148019520D02*
X167871393Y-148976950D01*
G75*
G02*
X167599308Y-149249035I-272085J0D01*
G01*
X166891878Y-149249035D01*
G75*
G02*
X166619793Y-148976950I0J272085D01*
G01*
X166619793Y-148019520D01*
G75*
G02*
X166891878Y-147747435I272085J0D01*
G01*
X167599308Y-147747435D01*
G75*
G02*
X167871393Y-148019520I0J-272085D01*
G01*
G37*
%TD*%
%TO.C,C24*%
G36*
G01*
X165529285Y-136232200D02*
X166486715Y-136232200D01*
G75*
G02*
X166758800Y-136504285I0J-272085D01*
G01*
X166758800Y-137211715D01*
G75*
G02*
X166486715Y-137483800I-272085J0D01*
G01*
X165529285Y-137483800D01*
G75*
G02*
X165257200Y-137211715I0J272085D01*
G01*
X165257200Y-136504285D01*
G75*
G02*
X165529285Y-136232200I272085J0D01*
G01*
G37*
G36*
G01*
X165529285Y-134182200D02*
X166486715Y-134182200D01*
G75*
G02*
X166758800Y-134454285I0J-272085D01*
G01*
X166758800Y-135161715D01*
G75*
G02*
X166486715Y-135433800I-272085J0D01*
G01*
X165529285Y-135433800D01*
G75*
G02*
X165257200Y-135161715I0J272085D01*
G01*
X165257200Y-134454285D01*
G75*
G02*
X165529285Y-134182200I272085J0D01*
G01*
G37*
%TD*%
%TO.C,C23*%
G36*
G01*
X154679120Y-120323685D02*
X154679120Y-121281115D01*
G75*
G02*
X154407035Y-121553200I-272085J0D01*
G01*
X153699605Y-121553200D01*
G75*
G02*
X153427520Y-121281115I0J272085D01*
G01*
X153427520Y-120323685D01*
G75*
G02*
X153699605Y-120051600I272085J0D01*
G01*
X154407035Y-120051600D01*
G75*
G02*
X154679120Y-120323685I0J-272085D01*
G01*
G37*
G36*
G01*
X156729120Y-120323685D02*
X156729120Y-121281115D01*
G75*
G02*
X156457035Y-121553200I-272085J0D01*
G01*
X155749605Y-121553200D01*
G75*
G02*
X155477520Y-121281115I0J272085D01*
G01*
X155477520Y-120323685D01*
G75*
G02*
X155749605Y-120051600I272085J0D01*
G01*
X156457035Y-120051600D01*
G75*
G02*
X156729120Y-120323685I0J-272085D01*
G01*
G37*
%TD*%
%TO.C,C22*%
G36*
G01*
X144021285Y-129161200D02*
X144978715Y-129161200D01*
G75*
G02*
X145250800Y-129433285I0J-272085D01*
G01*
X145250800Y-130140715D01*
G75*
G02*
X144978715Y-130412800I-272085J0D01*
G01*
X144021285Y-130412800D01*
G75*
G02*
X143749200Y-130140715I0J272085D01*
G01*
X143749200Y-129433285D01*
G75*
G02*
X144021285Y-129161200I272085J0D01*
G01*
G37*
G36*
G01*
X144021285Y-127111200D02*
X144978715Y-127111200D01*
G75*
G02*
X145250800Y-127383285I0J-272085D01*
G01*
X145250800Y-128090715D01*
G75*
G02*
X144978715Y-128362800I-272085J0D01*
G01*
X144021285Y-128362800D01*
G75*
G02*
X143749200Y-128090715I0J272085D01*
G01*
X143749200Y-127383285D01*
G75*
G02*
X144021285Y-127111200I272085J0D01*
G01*
G37*
%TD*%
%TO.C,C21*%
G36*
G01*
X145219218Y-138379786D02*
X145219218Y-139337216D01*
G75*
G02*
X144947133Y-139609301I-272085J0D01*
G01*
X144239703Y-139609301D01*
G75*
G02*
X143967618Y-139337216I0J272085D01*
G01*
X143967618Y-138379786D01*
G75*
G02*
X144239703Y-138107701I272085J0D01*
G01*
X144947133Y-138107701D01*
G75*
G02*
X145219218Y-138379786I0J-272085D01*
G01*
G37*
G36*
G01*
X147269218Y-138379786D02*
X147269218Y-139337216D01*
G75*
G02*
X146997133Y-139609301I-272085J0D01*
G01*
X146289703Y-139609301D01*
G75*
G02*
X146017618Y-139337216I0J272085D01*
G01*
X146017618Y-138379786D01*
G75*
G02*
X146289703Y-138107701I272085J0D01*
G01*
X146997133Y-138107701D01*
G75*
G02*
X147269218Y-138379786I0J-272085D01*
G01*
G37*
%TD*%
%TO.C,C19*%
G36*
G01*
X146300800Y-144271285D02*
X146300800Y-145228715D01*
G75*
G02*
X146028715Y-145500800I-272085J0D01*
G01*
X145321285Y-145500800D01*
G75*
G02*
X145049200Y-145228715I0J272085D01*
G01*
X145049200Y-144271285D01*
G75*
G02*
X145321285Y-143999200I272085J0D01*
G01*
X146028715Y-143999200D01*
G75*
G02*
X146300800Y-144271285I0J-272085D01*
G01*
G37*
G36*
G01*
X144250800Y-144271285D02*
X144250800Y-145228715D01*
G75*
G02*
X143978715Y-145500800I-272085J0D01*
G01*
X143271285Y-145500800D01*
G75*
G02*
X142999200Y-145228715I0J272085D01*
G01*
X142999200Y-144271285D01*
G75*
G02*
X143271285Y-143999200I272085J0D01*
G01*
X143978715Y-143999200D01*
G75*
G02*
X144250800Y-144271285I0J-272085D01*
G01*
G37*
%TD*%
%TO.C,C14*%
G36*
G01*
X120287200Y-74646715D02*
X120287200Y-73689285D01*
G75*
G02*
X120559285Y-73417200I272085J0D01*
G01*
X121266715Y-73417200D01*
G75*
G02*
X121538800Y-73689285I0J-272085D01*
G01*
X121538800Y-74646715D01*
G75*
G02*
X121266715Y-74918800I-272085J0D01*
G01*
X120559285Y-74918800D01*
G75*
G02*
X120287200Y-74646715I0J272085D01*
G01*
G37*
G36*
G01*
X118237200Y-74646715D02*
X118237200Y-73689285D01*
G75*
G02*
X118509285Y-73417200I272085J0D01*
G01*
X119216715Y-73417200D01*
G75*
G02*
X119488800Y-73689285I0J-272085D01*
G01*
X119488800Y-74646715D01*
G75*
G02*
X119216715Y-74918800I-272085J0D01*
G01*
X118509285Y-74918800D01*
G75*
G02*
X118237200Y-74646715I0J272085D01*
G01*
G37*
%TD*%
%TO.C,C13*%
G36*
G01*
X120449760Y-86490735D02*
X120449760Y-85533305D01*
G75*
G02*
X120721845Y-85261220I272085J0D01*
G01*
X121429275Y-85261220D01*
G75*
G02*
X121701360Y-85533305I0J-272085D01*
G01*
X121701360Y-86490735D01*
G75*
G02*
X121429275Y-86762820I-272085J0D01*
G01*
X120721845Y-86762820D01*
G75*
G02*
X120449760Y-86490735I0J272085D01*
G01*
G37*
G36*
G01*
X118399760Y-86490735D02*
X118399760Y-85533305D01*
G75*
G02*
X118671845Y-85261220I272085J0D01*
G01*
X119379275Y-85261220D01*
G75*
G02*
X119651360Y-85533305I0J-272085D01*
G01*
X119651360Y-86490735D01*
G75*
G02*
X119379275Y-86762820I-272085J0D01*
G01*
X118671845Y-86762820D01*
G75*
G02*
X118399760Y-86490735I0J272085D01*
G01*
G37*
%TD*%
%TO.C,C12*%
G36*
G01*
X128628715Y-149175800D02*
X127671285Y-149175800D01*
G75*
G02*
X127399200Y-148903715I0J272085D01*
G01*
X127399200Y-148196285D01*
G75*
G02*
X127671285Y-147924200I272085J0D01*
G01*
X128628715Y-147924200D01*
G75*
G02*
X128900800Y-148196285I0J-272085D01*
G01*
X128900800Y-148903715D01*
G75*
G02*
X128628715Y-149175800I-272085J0D01*
G01*
G37*
G36*
G01*
X128628715Y-147125800D02*
X127671285Y-147125800D01*
G75*
G02*
X127399200Y-146853715I0J272085D01*
G01*
X127399200Y-146146285D01*
G75*
G02*
X127671285Y-145874200I272085J0D01*
G01*
X128628715Y-145874200D01*
G75*
G02*
X128900800Y-146146285I0J-272085D01*
G01*
X128900800Y-146853715D01*
G75*
G02*
X128628715Y-147125800I-272085J0D01*
G01*
G37*
%TD*%
%TO.C,C11*%
G36*
G01*
X114485515Y-80296800D02*
X113528085Y-80296800D01*
G75*
G02*
X113256000Y-80024715I0J272085D01*
G01*
X113256000Y-79317285D01*
G75*
G02*
X113528085Y-79045200I272085J0D01*
G01*
X114485515Y-79045200D01*
G75*
G02*
X114757600Y-79317285I0J-272085D01*
G01*
X114757600Y-80024715D01*
G75*
G02*
X114485515Y-80296800I-272085J0D01*
G01*
G37*
G36*
G01*
X114485515Y-82346800D02*
X113528085Y-82346800D01*
G75*
G02*
X113256000Y-82074715I0J272085D01*
G01*
X113256000Y-81367285D01*
G75*
G02*
X113528085Y-81095200I272085J0D01*
G01*
X114485515Y-81095200D01*
G75*
G02*
X114757600Y-81367285I0J-272085D01*
G01*
X114757600Y-82074715D01*
G75*
G02*
X114485515Y-82346800I-272085J0D01*
G01*
G37*
%TD*%
%TO.C,C10*%
G36*
G01*
X140173800Y-69763285D02*
X140173800Y-70720715D01*
G75*
G02*
X139901715Y-70992800I-272085J0D01*
G01*
X139194285Y-70992800D01*
G75*
G02*
X138922200Y-70720715I0J272085D01*
G01*
X138922200Y-69763285D01*
G75*
G02*
X139194285Y-69491200I272085J0D01*
G01*
X139901715Y-69491200D01*
G75*
G02*
X140173800Y-69763285I0J-272085D01*
G01*
G37*
G36*
G01*
X142223800Y-69763285D02*
X142223800Y-70720715D01*
G75*
G02*
X141951715Y-70992800I-272085J0D01*
G01*
X141244285Y-70992800D01*
G75*
G02*
X140972200Y-70720715I0J272085D01*
G01*
X140972200Y-69763285D01*
G75*
G02*
X141244285Y-69491200I272085J0D01*
G01*
X141951715Y-69491200D01*
G75*
G02*
X142223800Y-69763285I0J-272085D01*
G01*
G37*
%TD*%
%TO.C,C9*%
G36*
G01*
X145698200Y-70745915D02*
X145698200Y-69788485D01*
G75*
G02*
X145970285Y-69516400I272085J0D01*
G01*
X146677715Y-69516400D01*
G75*
G02*
X146949800Y-69788485I0J-272085D01*
G01*
X146949800Y-70745915D01*
G75*
G02*
X146677715Y-71018000I-272085J0D01*
G01*
X145970285Y-71018000D01*
G75*
G02*
X145698200Y-70745915I0J272085D01*
G01*
G37*
G36*
G01*
X143648200Y-70745915D02*
X143648200Y-69788485D01*
G75*
G02*
X143920285Y-69516400I272085J0D01*
G01*
X144627715Y-69516400D01*
G75*
G02*
X144899800Y-69788485I0J-272085D01*
G01*
X144899800Y-70745915D01*
G75*
G02*
X144627715Y-71018000I-272085J0D01*
G01*
X143920285Y-71018000D01*
G75*
G02*
X143648200Y-70745915I0J272085D01*
G01*
G37*
%TD*%
%TO.C,C7*%
G36*
G01*
X114871285Y-134349200D02*
X115828715Y-134349200D01*
G75*
G02*
X116100800Y-134621285I0J-272085D01*
G01*
X116100800Y-135328715D01*
G75*
G02*
X115828715Y-135600800I-272085J0D01*
G01*
X114871285Y-135600800D01*
G75*
G02*
X114599200Y-135328715I0J272085D01*
G01*
X114599200Y-134621285D01*
G75*
G02*
X114871285Y-134349200I272085J0D01*
G01*
G37*
G36*
G01*
X114871285Y-136399200D02*
X115828715Y-136399200D01*
G75*
G02*
X116100800Y-136671285I0J-272085D01*
G01*
X116100800Y-137378715D01*
G75*
G02*
X115828715Y-137650800I-272085J0D01*
G01*
X114871285Y-137650800D01*
G75*
G02*
X114599200Y-137378715I0J272085D01*
G01*
X114599200Y-136671285D01*
G75*
G02*
X114871285Y-136399200I272085J0D01*
G01*
G37*
%TD*%
%TO.C,C6*%
G36*
G01*
X167917840Y-87757995D02*
X167917840Y-86800565D01*
G75*
G02*
X168189925Y-86528480I272085J0D01*
G01*
X168897355Y-86528480D01*
G75*
G02*
X169169440Y-86800565I0J-272085D01*
G01*
X169169440Y-87757995D01*
G75*
G02*
X168897355Y-88030080I-272085J0D01*
G01*
X168189925Y-88030080D01*
G75*
G02*
X167917840Y-87757995I0J272085D01*
G01*
G37*
G36*
G01*
X165867840Y-87757995D02*
X165867840Y-86800565D01*
G75*
G02*
X166139925Y-86528480I272085J0D01*
G01*
X166847355Y-86528480D01*
G75*
G02*
X167119440Y-86800565I0J-272085D01*
G01*
X167119440Y-87757995D01*
G75*
G02*
X166847355Y-88030080I-272085J0D01*
G01*
X166139925Y-88030080D01*
G75*
G02*
X165867840Y-87757995I0J272085D01*
G01*
G37*
%TD*%
%TO.C,C5*%
G36*
G01*
X186093555Y-80585080D02*
X185136125Y-80585080D01*
G75*
G02*
X184864040Y-80312995I0J272085D01*
G01*
X184864040Y-79605565D01*
G75*
G02*
X185136125Y-79333480I272085J0D01*
G01*
X186093555Y-79333480D01*
G75*
G02*
X186365640Y-79605565I0J-272085D01*
G01*
X186365640Y-80312995D01*
G75*
G02*
X186093555Y-80585080I-272085J0D01*
G01*
G37*
G36*
G01*
X186093555Y-82635080D02*
X185136125Y-82635080D01*
G75*
G02*
X184864040Y-82362995I0J272085D01*
G01*
X184864040Y-81655565D01*
G75*
G02*
X185136125Y-81383480I272085J0D01*
G01*
X186093555Y-81383480D01*
G75*
G02*
X186365640Y-81655565I0J-272085D01*
G01*
X186365640Y-82362995D01*
G75*
G02*
X186093555Y-82635080I-272085J0D01*
G01*
G37*
%TD*%
%TO.C,C4*%
G36*
G01*
X178718555Y-80615080D02*
X177761125Y-80615080D01*
G75*
G02*
X177489040Y-80342995I0J272085D01*
G01*
X177489040Y-79635565D01*
G75*
G02*
X177761125Y-79363480I272085J0D01*
G01*
X178718555Y-79363480D01*
G75*
G02*
X178990640Y-79635565I0J-272085D01*
G01*
X178990640Y-80342995D01*
G75*
G02*
X178718555Y-80615080I-272085J0D01*
G01*
G37*
G36*
G01*
X178718555Y-82665080D02*
X177761125Y-82665080D01*
G75*
G02*
X177489040Y-82392995I0J272085D01*
G01*
X177489040Y-81685565D01*
G75*
G02*
X177761125Y-81413480I272085J0D01*
G01*
X178718555Y-81413480D01*
G75*
G02*
X178990640Y-81685565I0J-272085D01*
G01*
X178990640Y-82392995D01*
G75*
G02*
X178718555Y-82665080I-272085J0D01*
G01*
G37*
%TD*%
%TO.C,C3*%
G36*
G01*
X152085800Y-75860885D02*
X152085800Y-76818315D01*
G75*
G02*
X151813715Y-77090400I-272085J0D01*
G01*
X151106285Y-77090400D01*
G75*
G02*
X150834200Y-76818315I0J272085D01*
G01*
X150834200Y-75860885D01*
G75*
G02*
X151106285Y-75588800I272085J0D01*
G01*
X151813715Y-75588800D01*
G75*
G02*
X152085800Y-75860885I0J-272085D01*
G01*
G37*
G36*
G01*
X154135800Y-75860885D02*
X154135800Y-76818315D01*
G75*
G02*
X153863715Y-77090400I-272085J0D01*
G01*
X153156285Y-77090400D01*
G75*
G02*
X152884200Y-76818315I0J272085D01*
G01*
X152884200Y-75860885D01*
G75*
G02*
X153156285Y-75588800I272085J0D01*
G01*
X153863715Y-75588800D01*
G75*
G02*
X154135800Y-75860885I0J-272085D01*
G01*
G37*
%TD*%
%TO.C,C2*%
G36*
G01*
X183553555Y-75725080D02*
X182596125Y-75725080D01*
G75*
G02*
X182324040Y-75452995I0J272085D01*
G01*
X182324040Y-74745565D01*
G75*
G02*
X182596125Y-74473480I272085J0D01*
G01*
X183553555Y-74473480D01*
G75*
G02*
X183825640Y-74745565I0J-272085D01*
G01*
X183825640Y-75452995D01*
G75*
G02*
X183553555Y-75725080I-272085J0D01*
G01*
G37*
G36*
G01*
X183553555Y-77775080D02*
X182596125Y-77775080D01*
G75*
G02*
X182324040Y-77502995I0J272085D01*
G01*
X182324040Y-76795565D01*
G75*
G02*
X182596125Y-76523480I272085J0D01*
G01*
X183553555Y-76523480D01*
G75*
G02*
X183825640Y-76795565I0J-272085D01*
G01*
X183825640Y-77502995D01*
G75*
G02*
X183553555Y-77775080I-272085J0D01*
G01*
G37*
%TD*%
%TO.C,C1*%
G36*
G01*
X174534155Y-83445080D02*
X173576725Y-83445080D01*
G75*
G02*
X173304640Y-83172995I0J272085D01*
G01*
X173304640Y-82465565D01*
G75*
G02*
X173576725Y-82193480I272085J0D01*
G01*
X174534155Y-82193480D01*
G75*
G02*
X174806240Y-82465565I0J-272085D01*
G01*
X174806240Y-83172995D01*
G75*
G02*
X174534155Y-83445080I-272085J0D01*
G01*
G37*
G36*
G01*
X174534155Y-85495080D02*
X173576725Y-85495080D01*
G75*
G02*
X173304640Y-85222995I0J272085D01*
G01*
X173304640Y-84515565D01*
G75*
G02*
X173576725Y-84243480I272085J0D01*
G01*
X174534155Y-84243480D01*
G75*
G02*
X174806240Y-84515565I0J-272085D01*
G01*
X174806240Y-85222995D01*
G75*
G02*
X174534155Y-85495080I-272085J0D01*
G01*
G37*
%TD*%
M02*
