G04 #@! TF.GenerationSoftware,KiCad,Pcbnew,(6.0.1)*
G04 #@! TF.CreationDate,2022-05-21T23:11:01-04:00*
G04 #@! TF.ProjectId,payload2020_papa_board,7061796c-6f61-4643-9230-32305f706170,rev?*
G04 #@! TF.SameCoordinates,Original*
G04 #@! TF.FileFunction,Legend,Bot*
G04 #@! TF.FilePolarity,Positive*
%FSLAX46Y46*%
G04 Gerber Fmt 4.6, Leading zero omitted, Abs format (unit mm)*
G04 Created by KiCad (PCBNEW (6.0.1)) date 2022-05-21 23:11:01*
%MOMM*%
%LPD*%
G01*
G04 APERTURE LIST*
%ADD10C,0.120000*%
%ADD11C,0.150000*%
%ADD12C,0.100000*%
G04 APERTURE END LIST*
D10*
X10160000Y-1905000D02*
X48006000Y-1905000D01*
X48006000Y-1905000D02*
X48006000Y-31877000D01*
X48006000Y-31877000D02*
X10160000Y-31877000D01*
X10160000Y-31877000D02*
X10160000Y-1905000D01*
D11*
X44885904Y-30678428D02*
X44124000Y-30678428D01*
X44504952Y-31059380D02*
X44504952Y-30297476D01*
X43171619Y-30059380D02*
X43647809Y-30059380D01*
X43695428Y-30535571D01*
X43647809Y-30487952D01*
X43552571Y-30440333D01*
X43314476Y-30440333D01*
X43219238Y-30487952D01*
X43171619Y-30535571D01*
X43124000Y-30630809D01*
X43124000Y-30868904D01*
X43171619Y-30964142D01*
X43219238Y-31011761D01*
X43314476Y-31059380D01*
X43552571Y-31059380D01*
X43647809Y-31011761D01*
X43695428Y-30964142D01*
X42838285Y-30059380D02*
X42504952Y-31059380D01*
X42171619Y-30059380D01*
X40504952Y-31059380D02*
X40838285Y-30583190D01*
X41076380Y-31059380D02*
X41076380Y-30059380D01*
X40695428Y-30059380D01*
X40600190Y-30107000D01*
X40552571Y-30154619D01*
X40504952Y-30249857D01*
X40504952Y-30392714D01*
X40552571Y-30487952D01*
X40600190Y-30535571D01*
X40695428Y-30583190D01*
X41076380Y-30583190D01*
X39695428Y-31011761D02*
X39790666Y-31059380D01*
X39981142Y-31059380D01*
X40076380Y-31011761D01*
X40124000Y-30916523D01*
X40124000Y-30535571D01*
X40076380Y-30440333D01*
X39981142Y-30392714D01*
X39790666Y-30392714D01*
X39695428Y-30440333D01*
X39647809Y-30535571D01*
X39647809Y-30630809D01*
X40124000Y-30726047D01*
X38790666Y-30392714D02*
X38790666Y-31202238D01*
X38838285Y-31297476D01*
X38885904Y-31345095D01*
X38981142Y-31392714D01*
X39124000Y-31392714D01*
X39219238Y-31345095D01*
X38790666Y-31011761D02*
X38885904Y-31059380D01*
X39076380Y-31059380D01*
X39171619Y-31011761D01*
X39219238Y-30964142D01*
X39266857Y-30868904D01*
X39266857Y-30583190D01*
X39219238Y-30487952D01*
X39171619Y-30440333D01*
X39076380Y-30392714D01*
X38885904Y-30392714D01*
X38790666Y-30440333D01*
X37885904Y-30392714D02*
X37885904Y-31059380D01*
X38314476Y-30392714D02*
X38314476Y-30916523D01*
X38266857Y-31011761D01*
X38171619Y-31059380D01*
X38028761Y-31059380D01*
X37933523Y-31011761D01*
X37885904Y-30964142D01*
X37266857Y-31059380D02*
X37362095Y-31011761D01*
X37409714Y-30916523D01*
X37409714Y-30059380D01*
X36457333Y-31059380D02*
X36457333Y-30535571D01*
X36504952Y-30440333D01*
X36600190Y-30392714D01*
X36790666Y-30392714D01*
X36885904Y-30440333D01*
X36457333Y-31011761D02*
X36552571Y-31059380D01*
X36790666Y-31059380D01*
X36885904Y-31011761D01*
X36933523Y-30916523D01*
X36933523Y-30821285D01*
X36885904Y-30726047D01*
X36790666Y-30678428D01*
X36552571Y-30678428D01*
X36457333Y-30630809D01*
X36124000Y-30392714D02*
X35743047Y-30392714D01*
X35981142Y-30059380D02*
X35981142Y-30916523D01*
X35933523Y-31011761D01*
X35838285Y-31059380D01*
X35743047Y-31059380D01*
X35266857Y-31059380D02*
X35362095Y-31011761D01*
X35409714Y-30964142D01*
X35457333Y-30868904D01*
X35457333Y-30583190D01*
X35409714Y-30487952D01*
X35362095Y-30440333D01*
X35266857Y-30392714D01*
X35124000Y-30392714D01*
X35028761Y-30440333D01*
X34981142Y-30487952D01*
X34933523Y-30583190D01*
X34933523Y-30868904D01*
X34981142Y-30964142D01*
X35028761Y-31011761D01*
X35124000Y-31059380D01*
X35266857Y-31059380D01*
X34504952Y-31059380D02*
X34504952Y-30392714D01*
X34504952Y-30583190D02*
X34457333Y-30487952D01*
X34409714Y-30440333D01*
X34314476Y-30392714D01*
X34219238Y-30392714D01*
X17165438Y-71048571D02*
X17022580Y-71096190D01*
X16974961Y-71143809D01*
X16927342Y-71239047D01*
X16927342Y-71381904D01*
X16974961Y-71477142D01*
X17022580Y-71524761D01*
X17117819Y-71572380D01*
X17498771Y-71572380D01*
X17498771Y-70572380D01*
X17165438Y-70572380D01*
X17070200Y-70620000D01*
X17022580Y-70667619D01*
X16974961Y-70762857D01*
X16974961Y-70858095D01*
X17022580Y-70953333D01*
X17070200Y-71000952D01*
X17165438Y-71048571D01*
X17498771Y-71048571D01*
X16546390Y-71286666D02*
X16070200Y-71286666D01*
X16641628Y-71572380D02*
X16308295Y-70572380D01*
X15974961Y-71572380D01*
X15784485Y-70572380D02*
X15213057Y-70572380D01*
X15498771Y-71572380D02*
X15498771Y-70572380D01*
X15022580Y-70572380D02*
X14451152Y-70572380D01*
X14736866Y-71572380D02*
X14736866Y-70572380D01*
X13689247Y-70905714D02*
X13689247Y-71572380D01*
X13927342Y-70524761D02*
X14165438Y-71239047D01*
X13546390Y-71239047D01*
X17470238Y-63428571D02*
X17327380Y-63476190D01*
X17279761Y-63523809D01*
X17232142Y-63619047D01*
X17232142Y-63761904D01*
X17279761Y-63857142D01*
X17327380Y-63904761D01*
X17422619Y-63952380D01*
X17803571Y-63952380D01*
X17803571Y-62952380D01*
X17470238Y-62952380D01*
X17375000Y-63000000D01*
X17327380Y-63047619D01*
X17279761Y-63142857D01*
X17279761Y-63238095D01*
X17327380Y-63333333D01*
X17375000Y-63380952D01*
X17470238Y-63428571D01*
X17803571Y-63428571D01*
X16851190Y-63666666D02*
X16375000Y-63666666D01*
X16946428Y-63952380D02*
X16613095Y-62952380D01*
X16279761Y-63952380D01*
X16089285Y-62952380D02*
X15517857Y-62952380D01*
X15803571Y-63952380D02*
X15803571Y-62952380D01*
X15327380Y-62952380D02*
X14755952Y-62952380D01*
X15041666Y-63952380D02*
X15041666Y-62952380D01*
X14517857Y-62952380D02*
X13898809Y-62952380D01*
X14232142Y-63333333D01*
X14089285Y-63333333D01*
X13994047Y-63380952D01*
X13946428Y-63428571D01*
X13898809Y-63523809D01*
X13898809Y-63761904D01*
X13946428Y-63857142D01*
X13994047Y-63904761D01*
X14089285Y-63952380D01*
X14375000Y-63952380D01*
X14470238Y-63904761D01*
X14517857Y-63857142D01*
X17470238Y-56443571D02*
X17327380Y-56491190D01*
X17279761Y-56538809D01*
X17232142Y-56634047D01*
X17232142Y-56776904D01*
X17279761Y-56872142D01*
X17327380Y-56919761D01*
X17422619Y-56967380D01*
X17803571Y-56967380D01*
X17803571Y-55967380D01*
X17470238Y-55967380D01*
X17375000Y-56015000D01*
X17327380Y-56062619D01*
X17279761Y-56157857D01*
X17279761Y-56253095D01*
X17327380Y-56348333D01*
X17375000Y-56395952D01*
X17470238Y-56443571D01*
X17803571Y-56443571D01*
X16851190Y-56681666D02*
X16375000Y-56681666D01*
X16946428Y-56967380D02*
X16613095Y-55967380D01*
X16279761Y-56967380D01*
X16089285Y-55967380D02*
X15517857Y-55967380D01*
X15803571Y-56967380D02*
X15803571Y-55967380D01*
X15327380Y-55967380D02*
X14755952Y-55967380D01*
X15041666Y-56967380D02*
X15041666Y-55967380D01*
X14470238Y-56062619D02*
X14422619Y-56015000D01*
X14327380Y-55967380D01*
X14089285Y-55967380D01*
X13994047Y-56015000D01*
X13946428Y-56062619D01*
X13898809Y-56157857D01*
X13898809Y-56253095D01*
X13946428Y-56395952D01*
X14517857Y-56967380D01*
X13898809Y-56967380D01*
X17267038Y-46486771D02*
X17124180Y-46534390D01*
X17076561Y-46582009D01*
X17028942Y-46677247D01*
X17028942Y-46820104D01*
X17076561Y-46915342D01*
X17124180Y-46962961D01*
X17219419Y-47010580D01*
X17600371Y-47010580D01*
X17600371Y-46010580D01*
X17267038Y-46010580D01*
X17171800Y-46058200D01*
X17124180Y-46105819D01*
X17076561Y-46201057D01*
X17076561Y-46296295D01*
X17124180Y-46391533D01*
X17171800Y-46439152D01*
X17267038Y-46486771D01*
X17600371Y-46486771D01*
X16647990Y-46724866D02*
X16171800Y-46724866D01*
X16743228Y-47010580D02*
X16409895Y-46010580D01*
X16076561Y-47010580D01*
X15886085Y-46010580D02*
X15314657Y-46010580D01*
X15600371Y-47010580D02*
X15600371Y-46010580D01*
X15124180Y-46010580D02*
X14552752Y-46010580D01*
X14838466Y-47010580D02*
X14838466Y-46010580D01*
X13695609Y-47010580D02*
X14267038Y-47010580D01*
X13981323Y-47010580D02*
X13981323Y-46010580D01*
X14076561Y-46153438D01*
X14171800Y-46248676D01*
X14267038Y-46296295D01*
X42177457Y-73147180D02*
X42177457Y-72147180D01*
X41844123Y-72861466D01*
X41510790Y-72147180D01*
X41510790Y-73147180D01*
X40606028Y-73147180D02*
X40606028Y-72623371D01*
X40653647Y-72528133D01*
X40748885Y-72480514D01*
X40939361Y-72480514D01*
X41034600Y-72528133D01*
X40606028Y-73099561D02*
X40701266Y-73147180D01*
X40939361Y-73147180D01*
X41034600Y-73099561D01*
X41082219Y-73004323D01*
X41082219Y-72909085D01*
X41034600Y-72813847D01*
X40939361Y-72766228D01*
X40701266Y-72766228D01*
X40606028Y-72718609D01*
X40129838Y-73147180D02*
X40129838Y-72480514D01*
X40129838Y-72575752D02*
X40082219Y-72528133D01*
X39986980Y-72480514D01*
X39844123Y-72480514D01*
X39748885Y-72528133D01*
X39701266Y-72623371D01*
X39701266Y-73147180D01*
X39701266Y-72623371D02*
X39653647Y-72528133D01*
X39558409Y-72480514D01*
X39415552Y-72480514D01*
X39320314Y-72528133D01*
X39272695Y-72623371D01*
X39272695Y-73147180D01*
X38367933Y-73147180D02*
X38367933Y-72623371D01*
X38415552Y-72528133D01*
X38510790Y-72480514D01*
X38701266Y-72480514D01*
X38796504Y-72528133D01*
X38367933Y-73099561D02*
X38463171Y-73147180D01*
X38701266Y-73147180D01*
X38796504Y-73099561D01*
X38844123Y-73004323D01*
X38844123Y-72909085D01*
X38796504Y-72813847D01*
X38701266Y-72766228D01*
X38463171Y-72766228D01*
X38367933Y-72718609D01*
X37129838Y-73147180D02*
X37129838Y-72147180D01*
X36748885Y-72147180D01*
X36653647Y-72194800D01*
X36606028Y-72242419D01*
X36558409Y-72337657D01*
X36558409Y-72480514D01*
X36606028Y-72575752D01*
X36653647Y-72623371D01*
X36748885Y-72670990D01*
X37129838Y-72670990D01*
X36225076Y-72147180D02*
X35986980Y-73147180D01*
X35796504Y-72432895D01*
X35606028Y-73147180D01*
X35367933Y-72147180D01*
X34415552Y-73147180D02*
X34748885Y-72670990D01*
X34986980Y-73147180D02*
X34986980Y-72147180D01*
X34606028Y-72147180D01*
X34510790Y-72194800D01*
X34463171Y-72242419D01*
X34415552Y-72337657D01*
X34415552Y-72480514D01*
X34463171Y-72575752D01*
X34510790Y-72623371D01*
X34606028Y-72670990D01*
X34986980Y-72670990D01*
X33272695Y-73099561D02*
X33129838Y-73147180D01*
X32891742Y-73147180D01*
X32796504Y-73099561D01*
X32748885Y-73051942D01*
X32701266Y-72956704D01*
X32701266Y-72861466D01*
X32748885Y-72766228D01*
X32796504Y-72718609D01*
X32891742Y-72670990D01*
X33082219Y-72623371D01*
X33177457Y-72575752D01*
X33225076Y-72528133D01*
X33272695Y-72432895D01*
X33272695Y-72337657D01*
X33225076Y-72242419D01*
X33177457Y-72194800D01*
X33082219Y-72147180D01*
X32844123Y-72147180D01*
X32701266Y-72194800D01*
X32367933Y-72480514D02*
X32177457Y-73147180D01*
X31986980Y-72670990D01*
X31796504Y-73147180D01*
X31606028Y-72480514D01*
X31225076Y-73147180D02*
X31225076Y-72480514D01*
X31225076Y-72147180D02*
X31272695Y-72194800D01*
X31225076Y-72242419D01*
X31177457Y-72194800D01*
X31225076Y-72147180D01*
X31225076Y-72242419D01*
X30891742Y-72480514D02*
X30510790Y-72480514D01*
X30748885Y-72147180D02*
X30748885Y-73004323D01*
X30701266Y-73099561D01*
X30606028Y-73147180D01*
X30510790Y-73147180D01*
X29748885Y-73099561D02*
X29844123Y-73147180D01*
X30034600Y-73147180D01*
X30129838Y-73099561D01*
X30177457Y-73051942D01*
X30225076Y-72956704D01*
X30225076Y-72670990D01*
X30177457Y-72575752D01*
X30129838Y-72528133D01*
X30034600Y-72480514D01*
X29844123Y-72480514D01*
X29748885Y-72528133D01*
X29320314Y-73147180D02*
X29320314Y-72147180D01*
X28891742Y-73147180D02*
X28891742Y-72623371D01*
X28939361Y-72528133D01*
X29034600Y-72480514D01*
X29177457Y-72480514D01*
X29272695Y-72528133D01*
X29320314Y-72575752D01*
X3807952Y-55082428D02*
X3046047Y-55082428D01*
X3427000Y-55463380D02*
X3427000Y-54701476D01*
X3807952Y-58682428D02*
X3046047Y-58682428D01*
X3857952Y-62432428D02*
X3096047Y-62432428D01*
X3477000Y-62813380D02*
X3477000Y-62051476D01*
X3857952Y-66032428D02*
X3096047Y-66032428D01*
X3857952Y-69732428D02*
X3096047Y-69732428D01*
X3477000Y-70113380D02*
X3477000Y-69351476D01*
D12*
X11048428Y-44521428D02*
X10286523Y-44521428D01*
X10667476Y-44902380D02*
X10667476Y-44140476D01*
X9477000Y-44378571D02*
X9334142Y-44426190D01*
X9286523Y-44473809D01*
X9238904Y-44569047D01*
X9238904Y-44711904D01*
X9286523Y-44807142D01*
X9334142Y-44854761D01*
X9429380Y-44902380D01*
X9810333Y-44902380D01*
X9810333Y-43902380D01*
X9477000Y-43902380D01*
X9381761Y-43950000D01*
X9334142Y-43997619D01*
X9286523Y-44092857D01*
X9286523Y-44188095D01*
X9334142Y-44283333D01*
X9381761Y-44330952D01*
X9477000Y-44378571D01*
X9810333Y-44378571D01*
X8857952Y-44616666D02*
X8381761Y-44616666D01*
X8953190Y-44902380D02*
X8619857Y-43902380D01*
X8286523Y-44902380D01*
X8096047Y-43902380D02*
X7524619Y-43902380D01*
X7810333Y-44902380D02*
X7810333Y-43902380D01*
X7334142Y-43902380D02*
X6762714Y-43902380D01*
X7048428Y-44902380D02*
X7048428Y-43902380D01*
D11*
X3807952Y-51232428D02*
X3046047Y-51232428D01*
D12*
X38972666Y-67000428D02*
X38210761Y-67000428D01*
X38591714Y-67381380D02*
X38591714Y-66619476D01*
X37258380Y-66381380D02*
X37734571Y-66381380D01*
X37782190Y-66857571D01*
X37734571Y-66809952D01*
X37639333Y-66762333D01*
X37401238Y-66762333D01*
X37306000Y-66809952D01*
X37258380Y-66857571D01*
X37210761Y-66952809D01*
X37210761Y-67190904D01*
X37258380Y-67286142D01*
X37306000Y-67333761D01*
X37401238Y-67381380D01*
X37639333Y-67381380D01*
X37734571Y-67333761D01*
X37782190Y-67286142D01*
X36925047Y-66381380D02*
X36591714Y-67381380D01*
X36258380Y-66381380D01*
X36163142Y-67476619D02*
X35401238Y-67476619D01*
X35163142Y-67381380D02*
X35163142Y-66381380D01*
X34829809Y-67095666D01*
X34496476Y-66381380D01*
X34496476Y-67381380D01*
X34067904Y-67095666D02*
X33591714Y-67095666D01*
X34163142Y-67381380D02*
X33829809Y-66381380D01*
X33496476Y-67381380D01*
X33163142Y-67381380D02*
X33163142Y-66381380D01*
X32829809Y-67095666D01*
X32496476Y-66381380D01*
X32496476Y-67381380D01*
X32067904Y-67095666D02*
X31591714Y-67095666D01*
X32163142Y-67381380D02*
X31829809Y-66381380D01*
X31496476Y-67381380D01*
D11*
X3807952Y-47632428D02*
X3046047Y-47632428D01*
X3427000Y-48013380D02*
X3427000Y-47251476D01*
X43144914Y-13508028D02*
X42383009Y-13508028D01*
X42763961Y-13888980D02*
X42763961Y-13127076D01*
X41430628Y-12888980D02*
X41906819Y-12888980D01*
X41954438Y-13365171D01*
X41906819Y-13317552D01*
X41811580Y-13269933D01*
X41573485Y-13269933D01*
X41478247Y-13317552D01*
X41430628Y-13365171D01*
X41383009Y-13460409D01*
X41383009Y-13698504D01*
X41430628Y-13793742D01*
X41478247Y-13841361D01*
X41573485Y-13888980D01*
X41811580Y-13888980D01*
X41906819Y-13841361D01*
X41954438Y-13793742D01*
X41097295Y-12888980D02*
X40763961Y-13888980D01*
X40430628Y-12888980D01*
X3857952Y-73382428D02*
X3096047Y-73382428D01*
X69146666Y-60547142D02*
X69194285Y-60594761D01*
X69337142Y-60642380D01*
X69432380Y-60642380D01*
X69575238Y-60594761D01*
X69670476Y-60499523D01*
X69718095Y-60404285D01*
X69765714Y-60213809D01*
X69765714Y-60070952D01*
X69718095Y-59880476D01*
X69670476Y-59785238D01*
X69575238Y-59690000D01*
X69432380Y-59642380D01*
X69337142Y-59642380D01*
X69194285Y-59690000D01*
X69146666Y-59737619D01*
X68670476Y-60642380D02*
X68480000Y-60642380D01*
X68384761Y-60594761D01*
X68337142Y-60547142D01*
X68241904Y-60404285D01*
X68194285Y-60213809D01*
X68194285Y-59832857D01*
X68241904Y-59737619D01*
X68289523Y-59690000D01*
X68384761Y-59642380D01*
X68575238Y-59642380D01*
X68670476Y-59690000D01*
X68718095Y-59737619D01*
X68765714Y-59832857D01*
X68765714Y-60070952D01*
X68718095Y-60166190D01*
X68670476Y-60213809D01*
X68575238Y-60261428D01*
X68384761Y-60261428D01*
X68289523Y-60213809D01*
X68241904Y-60166190D01*
X68194285Y-60070952D01*
X61602857Y-60417142D02*
X61650476Y-60464761D01*
X61793333Y-60512380D01*
X61888571Y-60512380D01*
X62031428Y-60464761D01*
X62126666Y-60369523D01*
X62174285Y-60274285D01*
X62221904Y-60083809D01*
X62221904Y-59940952D01*
X62174285Y-59750476D01*
X62126666Y-59655238D01*
X62031428Y-59560000D01*
X61888571Y-59512380D01*
X61793333Y-59512380D01*
X61650476Y-59560000D01*
X61602857Y-59607619D01*
X60650476Y-60512380D02*
X61221904Y-60512380D01*
X60936190Y-60512380D02*
X60936190Y-59512380D01*
X61031428Y-59655238D01*
X61126666Y-59750476D01*
X61221904Y-59798095D01*
X60031428Y-59512380D02*
X59936190Y-59512380D01*
X59840952Y-59560000D01*
X59793333Y-59607619D01*
X59745714Y-59702857D01*
X59698095Y-59893333D01*
X59698095Y-60131428D01*
X59745714Y-60321904D01*
X59793333Y-60417142D01*
X59840952Y-60464761D01*
X59936190Y-60512380D01*
X60031428Y-60512380D01*
X60126666Y-60464761D01*
X60174285Y-60417142D01*
X60221904Y-60321904D01*
X60269523Y-60131428D01*
X60269523Y-59893333D01*
X60221904Y-59702857D01*
X60174285Y-59607619D01*
X60126666Y-59560000D01*
X60031428Y-59512380D01*
X60260075Y-65967040D02*
X60260075Y-66776564D01*
X60212456Y-66871802D01*
X60164837Y-66919421D01*
X60069599Y-66967040D01*
X59879122Y-66967040D01*
X59783884Y-66919421D01*
X59736265Y-66871802D01*
X59688646Y-66776564D01*
X59688646Y-65967040D01*
X58688646Y-66967040D02*
X59260075Y-66967040D01*
X58974360Y-66967040D02*
X58974360Y-65967040D01*
X59069599Y-66109898D01*
X59164837Y-66205136D01*
X59260075Y-66252755D01*
X58069599Y-65967040D02*
X57974360Y-65967040D01*
X57879122Y-66014660D01*
X57831503Y-66062279D01*
X57783884Y-66157517D01*
X57736265Y-66347993D01*
X57736265Y-66586088D01*
X57783884Y-66776564D01*
X57831503Y-66871802D01*
X57879122Y-66919421D01*
X57974360Y-66967040D01*
X58069599Y-66967040D01*
X58164837Y-66919421D01*
X58212456Y-66871802D01*
X58260075Y-66776564D01*
X58307694Y-66586088D01*
X58307694Y-66347993D01*
X58260075Y-66157517D01*
X58212456Y-66062279D01*
X58164837Y-66014660D01*
X58069599Y-65967040D01*
X18740380Y-17823904D02*
X17740380Y-17823904D01*
X17740380Y-18062000D01*
X17788000Y-18204857D01*
X17883238Y-18300095D01*
X17978476Y-18347714D01*
X18168952Y-18395333D01*
X18311809Y-18395333D01*
X18502285Y-18347714D01*
X18597523Y-18300095D01*
X18692761Y-18204857D01*
X18740380Y-18062000D01*
X18740380Y-17823904D01*
X17835619Y-18776285D02*
X17788000Y-18823904D01*
X17740380Y-18919142D01*
X17740380Y-19157238D01*
X17788000Y-19252476D01*
X17835619Y-19300095D01*
X17930857Y-19347714D01*
X18026095Y-19347714D01*
X18168952Y-19300095D01*
X18740380Y-18728666D01*
X18740380Y-19347714D01*
X15824166Y-18252380D02*
X16300357Y-18252380D01*
X16300357Y-17252380D01*
X15538452Y-17347619D02*
X15490833Y-17300000D01*
X15395595Y-17252380D01*
X15157500Y-17252380D01*
X15062261Y-17300000D01*
X15014642Y-17347619D01*
X14967023Y-17442857D01*
X14967023Y-17538095D01*
X15014642Y-17680952D01*
X15586071Y-18252380D01*
X14967023Y-18252380D01*
X30047266Y-21771342D02*
X30094885Y-21818961D01*
X30237742Y-21866580D01*
X30332980Y-21866580D01*
X30475838Y-21818961D01*
X30571076Y-21723723D01*
X30618695Y-21628485D01*
X30666314Y-21438009D01*
X30666314Y-21295152D01*
X30618695Y-21104676D01*
X30571076Y-21009438D01*
X30475838Y-20914200D01*
X30332980Y-20866580D01*
X30237742Y-20866580D01*
X30094885Y-20914200D01*
X30047266Y-20961819D01*
X29190123Y-21199914D02*
X29190123Y-21866580D01*
X29428219Y-20818961D02*
X29666314Y-21533247D01*
X29047266Y-21533247D01*
X30069186Y-19679242D02*
X30116805Y-19726861D01*
X30259662Y-19774480D01*
X30354900Y-19774480D01*
X30497758Y-19726861D01*
X30592996Y-19631623D01*
X30640615Y-19536385D01*
X30688234Y-19345909D01*
X30688234Y-19203052D01*
X30640615Y-19012576D01*
X30592996Y-18917338D01*
X30497758Y-18822100D01*
X30354900Y-18774480D01*
X30259662Y-18774480D01*
X30116805Y-18822100D01*
X30069186Y-18869719D01*
X29164424Y-18774480D02*
X29640615Y-18774480D01*
X29688234Y-19250671D01*
X29640615Y-19203052D01*
X29545377Y-19155433D01*
X29307281Y-19155433D01*
X29212043Y-19203052D01*
X29164424Y-19250671D01*
X29116805Y-19345909D01*
X29116805Y-19584004D01*
X29164424Y-19679242D01*
X29212043Y-19726861D01*
X29307281Y-19774480D01*
X29545377Y-19774480D01*
X29640615Y-19726861D01*
X29688234Y-19679242D01*
X23534666Y-5965142D02*
X23582285Y-6012761D01*
X23725142Y-6060380D01*
X23820380Y-6060380D01*
X23963238Y-6012761D01*
X24058476Y-5917523D01*
X24106095Y-5822285D01*
X24153714Y-5631809D01*
X24153714Y-5488952D01*
X24106095Y-5298476D01*
X24058476Y-5203238D01*
X23963238Y-5108000D01*
X23820380Y-5060380D01*
X23725142Y-5060380D01*
X23582285Y-5108000D01*
X23534666Y-5155619D01*
X22677523Y-5060380D02*
X22868000Y-5060380D01*
X22963238Y-5108000D01*
X23010857Y-5155619D01*
X23106095Y-5298476D01*
X23153714Y-5488952D01*
X23153714Y-5869904D01*
X23106095Y-5965142D01*
X23058476Y-6012761D01*
X22963238Y-6060380D01*
X22772761Y-6060380D01*
X22677523Y-6012761D01*
X22629904Y-5965142D01*
X22582285Y-5869904D01*
X22582285Y-5631809D01*
X22629904Y-5536571D01*
X22677523Y-5488952D01*
X22772761Y-5441333D01*
X22963238Y-5441333D01*
X23058476Y-5488952D01*
X23106095Y-5536571D01*
X23153714Y-5631809D01*
X27329404Y-10862380D02*
X27329404Y-11671904D01*
X27281785Y-11767142D01*
X27234166Y-11814761D01*
X27138928Y-11862380D01*
X26948452Y-11862380D01*
X26853214Y-11814761D01*
X26805595Y-11767142D01*
X26757976Y-11671904D01*
X26757976Y-10862380D01*
X26377023Y-10862380D02*
X25757976Y-10862380D01*
X26091309Y-11243333D01*
X25948452Y-11243333D01*
X25853214Y-11290952D01*
X25805595Y-11338571D01*
X25757976Y-11433809D01*
X25757976Y-11671904D01*
X25805595Y-11767142D01*
X25853214Y-11814761D01*
X25948452Y-11862380D01*
X26234166Y-11862380D01*
X26329404Y-11814761D01*
X26377023Y-11767142D01*
X45118257Y-76272342D02*
X45165876Y-76319961D01*
X45308733Y-76367580D01*
X45403971Y-76367580D01*
X45546828Y-76319961D01*
X45642066Y-76224723D01*
X45689685Y-76129485D01*
X45737304Y-75939009D01*
X45737304Y-75796152D01*
X45689685Y-75605676D01*
X45642066Y-75510438D01*
X45546828Y-75415200D01*
X45403971Y-75367580D01*
X45308733Y-75367580D01*
X45165876Y-75415200D01*
X45118257Y-75462819D01*
X44737304Y-75462819D02*
X44689685Y-75415200D01*
X44594447Y-75367580D01*
X44356352Y-75367580D01*
X44261114Y-75415200D01*
X44213495Y-75462819D01*
X44165876Y-75558057D01*
X44165876Y-75653295D01*
X44213495Y-75796152D01*
X44784923Y-76367580D01*
X44165876Y-76367580D01*
X43832542Y-75367580D02*
X43165876Y-75367580D01*
X43594447Y-76367580D01*
X48487012Y-66737768D02*
X48534631Y-66785387D01*
X48677488Y-66833006D01*
X48772726Y-66833006D01*
X48915583Y-66785387D01*
X49010821Y-66690149D01*
X49058440Y-66594911D01*
X49106059Y-66404435D01*
X49106059Y-66261578D01*
X49058440Y-66071102D01*
X49010821Y-65975864D01*
X48915583Y-65880626D01*
X48772726Y-65833006D01*
X48677488Y-65833006D01*
X48534631Y-65880626D01*
X48487012Y-65928245D01*
X48106059Y-65928245D02*
X48058440Y-65880626D01*
X47963202Y-65833006D01*
X47725107Y-65833006D01*
X47629869Y-65880626D01*
X47582250Y-65928245D01*
X47534631Y-66023483D01*
X47534631Y-66118721D01*
X47582250Y-66261578D01*
X48153678Y-66833006D01*
X47534631Y-66833006D01*
X46963202Y-66261578D02*
X47058440Y-66213959D01*
X47106059Y-66166340D01*
X47153678Y-66071102D01*
X47153678Y-66023483D01*
X47106059Y-65928245D01*
X47058440Y-65880626D01*
X46963202Y-65833006D01*
X46772726Y-65833006D01*
X46677488Y-65880626D01*
X46629869Y-65928245D01*
X46582250Y-66023483D01*
X46582250Y-66071102D01*
X46629869Y-66166340D01*
X46677488Y-66213959D01*
X46772726Y-66261578D01*
X46963202Y-66261578D01*
X47058440Y-66309197D01*
X47106059Y-66356816D01*
X47153678Y-66452054D01*
X47153678Y-66642530D01*
X47106059Y-66737768D01*
X47058440Y-66785387D01*
X46963202Y-66833006D01*
X46772726Y-66833006D01*
X46677488Y-66785387D01*
X46629869Y-66737768D01*
X46582250Y-66642530D01*
X46582250Y-66452054D01*
X46629869Y-66356816D01*
X46677488Y-66309197D01*
X46772726Y-66261578D01*
X45186504Y-65867980D02*
X45186504Y-66677504D01*
X45138885Y-66772742D01*
X45091266Y-66820361D01*
X44996028Y-66867980D01*
X44805552Y-66867980D01*
X44710314Y-66820361D01*
X44662695Y-66772742D01*
X44615076Y-66677504D01*
X44615076Y-65867980D01*
X43710314Y-66201314D02*
X43710314Y-66867980D01*
X43948409Y-65820361D02*
X44186504Y-66534647D01*
X43567457Y-66534647D01*
X55069977Y-61956902D02*
X55117596Y-62004521D01*
X55260453Y-62052140D01*
X55355691Y-62052140D01*
X55498548Y-62004521D01*
X55593786Y-61909283D01*
X55641405Y-61814045D01*
X55689024Y-61623569D01*
X55689024Y-61480712D01*
X55641405Y-61290236D01*
X55593786Y-61194998D01*
X55498548Y-61099760D01*
X55355691Y-61052140D01*
X55260453Y-61052140D01*
X55117596Y-61099760D01*
X55069977Y-61147379D01*
X54117596Y-62052140D02*
X54689024Y-62052140D01*
X54403310Y-62052140D02*
X54403310Y-61052140D01*
X54498548Y-61194998D01*
X54593786Y-61290236D01*
X54689024Y-61337855D01*
X53784262Y-61052140D02*
X53165215Y-61052140D01*
X53498548Y-61433093D01*
X53355691Y-61433093D01*
X53260453Y-61480712D01*
X53212834Y-61528331D01*
X53165215Y-61623569D01*
X53165215Y-61861664D01*
X53212834Y-61956902D01*
X53260453Y-62004521D01*
X53355691Y-62052140D01*
X53641405Y-62052140D01*
X53736643Y-62004521D01*
X53784262Y-61956902D01*
X56701190Y-53676190D02*
X56701190Y-54152380D01*
X57034523Y-53152380D02*
X56701190Y-53676190D01*
X56367857Y-53152380D01*
X55510714Y-54152380D02*
X56082142Y-54152380D01*
X55796428Y-54152380D02*
X55796428Y-53152380D01*
X55891666Y-53295238D01*
X55986904Y-53390476D01*
X56082142Y-53438095D01*
X60078857Y-74418142D02*
X60126476Y-74465761D01*
X60269333Y-74513380D01*
X60364571Y-74513380D01*
X60507428Y-74465761D01*
X60602666Y-74370523D01*
X60650285Y-74275285D01*
X60697904Y-74084809D01*
X60697904Y-73941952D01*
X60650285Y-73751476D01*
X60602666Y-73656238D01*
X60507428Y-73561000D01*
X60364571Y-73513380D01*
X60269333Y-73513380D01*
X60126476Y-73561000D01*
X60078857Y-73608619D01*
X59126476Y-74513380D02*
X59697904Y-74513380D01*
X59412190Y-74513380D02*
X59412190Y-73513380D01*
X59507428Y-73656238D01*
X59602666Y-73751476D01*
X59697904Y-73799095D01*
X58269333Y-73846714D02*
X58269333Y-74513380D01*
X58507428Y-73465761D02*
X58745523Y-74180047D01*
X58126476Y-74180047D01*
X65801144Y-10181020D02*
X65801144Y-10990544D01*
X65753525Y-11085782D01*
X65705906Y-11133401D01*
X65610668Y-11181020D01*
X65420192Y-11181020D01*
X65324954Y-11133401D01*
X65277335Y-11085782D01*
X65229716Y-10990544D01*
X65229716Y-10181020D01*
X64277335Y-10181020D02*
X64753525Y-10181020D01*
X64801144Y-10657211D01*
X64753525Y-10609592D01*
X64658287Y-10561973D01*
X64420192Y-10561973D01*
X64324954Y-10609592D01*
X64277335Y-10657211D01*
X64229716Y-10752449D01*
X64229716Y-10990544D01*
X64277335Y-11085782D01*
X64324954Y-11133401D01*
X64420192Y-11181020D01*
X64658287Y-11181020D01*
X64753525Y-11133401D01*
X64801144Y-11085782D01*
X59102737Y-2382460D02*
X59436070Y-1906270D01*
X59674165Y-2382460D02*
X59674165Y-1382460D01*
X59293213Y-1382460D01*
X59197975Y-1430080D01*
X59150356Y-1477699D01*
X59102737Y-1572937D01*
X59102737Y-1715794D01*
X59150356Y-1811032D01*
X59197975Y-1858651D01*
X59293213Y-1906270D01*
X59674165Y-1906270D01*
X58721784Y-1477699D02*
X58674165Y-1430080D01*
X58578927Y-1382460D01*
X58340832Y-1382460D01*
X58245594Y-1430080D01*
X58197975Y-1477699D01*
X58150356Y-1572937D01*
X58150356Y-1668175D01*
X58197975Y-1811032D01*
X58769403Y-2382460D01*
X58150356Y-2382460D01*
X57293213Y-1715794D02*
X57293213Y-2382460D01*
X57531308Y-1334841D02*
X57769403Y-2049127D01*
X57150356Y-2049127D01*
X69270784Y-14829220D02*
X69270784Y-15638744D01*
X69223165Y-15733982D01*
X69175546Y-15781601D01*
X69080308Y-15829220D01*
X68889832Y-15829220D01*
X68794594Y-15781601D01*
X68746975Y-15733982D01*
X68699356Y-15638744D01*
X68699356Y-14829220D01*
X68318403Y-14829220D02*
X67651737Y-14829220D01*
X68080308Y-15829220D01*
X68787657Y-7269942D02*
X68835276Y-7317561D01*
X68978133Y-7365180D01*
X69073371Y-7365180D01*
X69216228Y-7317561D01*
X69311466Y-7222323D01*
X69359085Y-7127085D01*
X69406704Y-6936609D01*
X69406704Y-6793752D01*
X69359085Y-6603276D01*
X69311466Y-6508038D01*
X69216228Y-6412800D01*
X69073371Y-6365180D01*
X68978133Y-6365180D01*
X68835276Y-6412800D01*
X68787657Y-6460419D01*
X67835276Y-7365180D02*
X68406704Y-7365180D01*
X68120990Y-7365180D02*
X68120990Y-6365180D01*
X68216228Y-6508038D01*
X68311466Y-6603276D01*
X68406704Y-6650895D01*
X67454323Y-6460419D02*
X67406704Y-6412800D01*
X67311466Y-6365180D01*
X67073371Y-6365180D01*
X66978133Y-6412800D01*
X66930514Y-6460419D01*
X66882895Y-6555657D01*
X66882895Y-6650895D01*
X66930514Y-6793752D01*
X67501942Y-7365180D01*
X66882895Y-7365180D01*
X72974437Y-8390842D02*
X73022056Y-8438461D01*
X73164913Y-8486080D01*
X73260151Y-8486080D01*
X73403008Y-8438461D01*
X73498246Y-8343223D01*
X73545865Y-8247985D01*
X73593484Y-8057509D01*
X73593484Y-7914652D01*
X73545865Y-7724176D01*
X73498246Y-7628938D01*
X73403008Y-7533700D01*
X73260151Y-7486080D01*
X73164913Y-7486080D01*
X73022056Y-7533700D01*
X72974437Y-7581319D01*
X72022056Y-8486080D02*
X72593484Y-8486080D01*
X72307770Y-8486080D02*
X72307770Y-7486080D01*
X72403008Y-7628938D01*
X72498246Y-7724176D01*
X72593484Y-7771795D01*
X71164913Y-7486080D02*
X71355389Y-7486080D01*
X71450627Y-7533700D01*
X71498246Y-7581319D01*
X71593484Y-7724176D01*
X71641103Y-7914652D01*
X71641103Y-8295604D01*
X71593484Y-8390842D01*
X71545865Y-8438461D01*
X71450627Y-8486080D01*
X71260151Y-8486080D01*
X71164913Y-8438461D01*
X71117294Y-8390842D01*
X71069675Y-8295604D01*
X71069675Y-8057509D01*
X71117294Y-7962271D01*
X71164913Y-7914652D01*
X71260151Y-7867033D01*
X71450627Y-7867033D01*
X71545865Y-7914652D01*
X71593484Y-7962271D01*
X71641103Y-8057509D01*
X69422657Y-21448222D02*
X69470276Y-21495841D01*
X69613133Y-21543460D01*
X69708371Y-21543460D01*
X69851228Y-21495841D01*
X69946466Y-21400603D01*
X69994085Y-21305365D01*
X70041704Y-21114889D01*
X70041704Y-20972032D01*
X69994085Y-20781556D01*
X69946466Y-20686318D01*
X69851228Y-20591080D01*
X69708371Y-20543460D01*
X69613133Y-20543460D01*
X69470276Y-20591080D01*
X69422657Y-20638699D01*
X68470276Y-21543460D02*
X69041704Y-21543460D01*
X68755990Y-21543460D02*
X68755990Y-20543460D01*
X68851228Y-20686318D01*
X68946466Y-20781556D01*
X69041704Y-20829175D01*
X67565514Y-20543460D02*
X68041704Y-20543460D01*
X68089323Y-21019651D01*
X68041704Y-20972032D01*
X67946466Y-20924413D01*
X67708371Y-20924413D01*
X67613133Y-20972032D01*
X67565514Y-21019651D01*
X67517895Y-21114889D01*
X67517895Y-21352984D01*
X67565514Y-21448222D01*
X67613133Y-21495841D01*
X67708371Y-21543460D01*
X67946466Y-21543460D01*
X68041704Y-21495841D01*
X68089323Y-21448222D01*
X71553666Y-48342742D02*
X71601285Y-48390361D01*
X71744142Y-48437980D01*
X71839380Y-48437980D01*
X71982238Y-48390361D01*
X72077476Y-48295123D01*
X72125095Y-48199885D01*
X72172714Y-48009409D01*
X72172714Y-47866552D01*
X72125095Y-47676076D01*
X72077476Y-47580838D01*
X71982238Y-47485600D01*
X71839380Y-47437980D01*
X71744142Y-47437980D01*
X71601285Y-47485600D01*
X71553666Y-47533219D01*
X71220333Y-47437980D02*
X70601285Y-47437980D01*
X70934619Y-47818933D01*
X70791761Y-47818933D01*
X70696523Y-47866552D01*
X70648904Y-47914171D01*
X70601285Y-48009409D01*
X70601285Y-48247504D01*
X70648904Y-48342742D01*
X70696523Y-48390361D01*
X70791761Y-48437980D01*
X71077476Y-48437980D01*
X71172714Y-48390361D01*
X71220333Y-48342742D01*
X58916666Y-32432142D02*
X58964285Y-32479761D01*
X59107142Y-32527380D01*
X59202380Y-32527380D01*
X59345238Y-32479761D01*
X59440476Y-32384523D01*
X59488095Y-32289285D01*
X59535714Y-32098809D01*
X59535714Y-31955952D01*
X59488095Y-31765476D01*
X59440476Y-31670238D01*
X59345238Y-31575000D01*
X59202380Y-31527380D01*
X59107142Y-31527380D01*
X58964285Y-31575000D01*
X58916666Y-31622619D01*
X58345238Y-31955952D02*
X58440476Y-31908333D01*
X58488095Y-31860714D01*
X58535714Y-31765476D01*
X58535714Y-31717857D01*
X58488095Y-31622619D01*
X58440476Y-31575000D01*
X58345238Y-31527380D01*
X58154761Y-31527380D01*
X58059523Y-31575000D01*
X58011904Y-31622619D01*
X57964285Y-31717857D01*
X57964285Y-31765476D01*
X58011904Y-31860714D01*
X58059523Y-31908333D01*
X58154761Y-31955952D01*
X58345238Y-31955952D01*
X58440476Y-32003571D01*
X58488095Y-32051190D01*
X58535714Y-32146428D01*
X58535714Y-32336904D01*
X58488095Y-32432142D01*
X58440476Y-32479761D01*
X58345238Y-32527380D01*
X58154761Y-32527380D01*
X58059523Y-32479761D01*
X58011904Y-32432142D01*
X57964285Y-32336904D01*
X57964285Y-32146428D01*
X58011904Y-32051190D01*
X58059523Y-32003571D01*
X58154761Y-31955952D01*
X51442857Y-48617142D02*
X51490476Y-48664761D01*
X51633333Y-48712380D01*
X51728571Y-48712380D01*
X51871428Y-48664761D01*
X51966666Y-48569523D01*
X52014285Y-48474285D01*
X52061904Y-48283809D01*
X52061904Y-48140952D01*
X52014285Y-47950476D01*
X51966666Y-47855238D01*
X51871428Y-47760000D01*
X51728571Y-47712380D01*
X51633333Y-47712380D01*
X51490476Y-47760000D01*
X51442857Y-47807619D01*
X50490476Y-48712380D02*
X51061904Y-48712380D01*
X50776190Y-48712380D02*
X50776190Y-47712380D01*
X50871428Y-47855238D01*
X50966666Y-47950476D01*
X51061904Y-47998095D01*
X49538095Y-48712380D02*
X50109523Y-48712380D01*
X49823809Y-48712380D02*
X49823809Y-47712380D01*
X49919047Y-47855238D01*
X50014285Y-47950476D01*
X50109523Y-47998095D01*
X72995057Y-31578742D02*
X73042676Y-31626361D01*
X73185533Y-31673980D01*
X73280771Y-31673980D01*
X73423628Y-31626361D01*
X73518866Y-31531123D01*
X73566485Y-31435885D01*
X73614104Y-31245409D01*
X73614104Y-31102552D01*
X73566485Y-30912076D01*
X73518866Y-30816838D01*
X73423628Y-30721600D01*
X73280771Y-30673980D01*
X73185533Y-30673980D01*
X73042676Y-30721600D01*
X72995057Y-30769219D01*
X72614104Y-30769219D02*
X72566485Y-30721600D01*
X72471247Y-30673980D01*
X72233152Y-30673980D01*
X72137914Y-30721600D01*
X72090295Y-30769219D01*
X72042676Y-30864457D01*
X72042676Y-30959695D01*
X72090295Y-31102552D01*
X72661723Y-31673980D01*
X72042676Y-31673980D01*
X71566485Y-31673980D02*
X71376009Y-31673980D01*
X71280771Y-31626361D01*
X71233152Y-31578742D01*
X71137914Y-31435885D01*
X71090295Y-31245409D01*
X71090295Y-30864457D01*
X71137914Y-30769219D01*
X71185533Y-30721600D01*
X71280771Y-30673980D01*
X71471247Y-30673980D01*
X71566485Y-30721600D01*
X71614104Y-30769219D01*
X71661723Y-30864457D01*
X71661723Y-31102552D01*
X71614104Y-31197790D01*
X71566485Y-31245409D01*
X71471247Y-31293028D01*
X71280771Y-31293028D01*
X71185533Y-31245409D01*
X71137914Y-31197790D01*
X71090295Y-31102552D01*
X78166666Y-56602380D02*
X78500000Y-56126190D01*
X78738095Y-56602380D02*
X78738095Y-55602380D01*
X78357142Y-55602380D01*
X78261904Y-55650000D01*
X78214285Y-55697619D01*
X78166666Y-55792857D01*
X78166666Y-55935714D01*
X78214285Y-56030952D01*
X78261904Y-56078571D01*
X78357142Y-56126190D01*
X78738095Y-56126190D01*
X77309523Y-55602380D02*
X77500000Y-55602380D01*
X77595238Y-55650000D01*
X77642857Y-55697619D01*
X77738095Y-55840476D01*
X77785714Y-56030952D01*
X77785714Y-56411904D01*
X77738095Y-56507142D01*
X77690476Y-56554761D01*
X77595238Y-56602380D01*
X77404761Y-56602380D01*
X77309523Y-56554761D01*
X77261904Y-56507142D01*
X77214285Y-56411904D01*
X77214285Y-56173809D01*
X77261904Y-56078571D01*
X77309523Y-56030952D01*
X77404761Y-55983333D01*
X77595238Y-55983333D01*
X77690476Y-56030952D01*
X77738095Y-56078571D01*
X77785714Y-56173809D01*
X77922380Y-50157142D02*
X77446190Y-49823809D01*
X77922380Y-49585714D02*
X76922380Y-49585714D01*
X76922380Y-49966666D01*
X76970000Y-50061904D01*
X77017619Y-50109523D01*
X77112857Y-50157142D01*
X77255714Y-50157142D01*
X77350952Y-50109523D01*
X77398571Y-50061904D01*
X77446190Y-49966666D01*
X77446190Y-49585714D01*
X77922380Y-51109523D02*
X77922380Y-50538095D01*
X77922380Y-50823809D02*
X76922380Y-50823809D01*
X77065238Y-50728571D01*
X77160476Y-50633333D01*
X77208095Y-50538095D01*
X76922380Y-51728571D02*
X76922380Y-51823809D01*
X76970000Y-51919047D01*
X77017619Y-51966666D01*
X77112857Y-52014285D01*
X77303333Y-52061904D01*
X77541428Y-52061904D01*
X77731904Y-52014285D01*
X77827142Y-51966666D01*
X77874761Y-51919047D01*
X77922380Y-51823809D01*
X77922380Y-51728571D01*
X77874761Y-51633333D01*
X77827142Y-51585714D01*
X77731904Y-51538095D01*
X77541428Y-51490476D01*
X77303333Y-51490476D01*
X77112857Y-51538095D01*
X77017619Y-51585714D01*
X76970000Y-51633333D01*
X76922380Y-51728571D01*
X74761904Y-40027380D02*
X74761904Y-40836904D01*
X74714285Y-40932142D01*
X74666666Y-40979761D01*
X74571428Y-41027380D01*
X74380952Y-41027380D01*
X74285714Y-40979761D01*
X74238095Y-40932142D01*
X74190476Y-40836904D01*
X74190476Y-40027380D01*
X73571428Y-40455952D02*
X73666666Y-40408333D01*
X73714285Y-40360714D01*
X73761904Y-40265476D01*
X73761904Y-40217857D01*
X73714285Y-40122619D01*
X73666666Y-40075000D01*
X73571428Y-40027380D01*
X73380952Y-40027380D01*
X73285714Y-40075000D01*
X73238095Y-40122619D01*
X73190476Y-40217857D01*
X73190476Y-40265476D01*
X73238095Y-40360714D01*
X73285714Y-40408333D01*
X73380952Y-40455952D01*
X73571428Y-40455952D01*
X73666666Y-40503571D01*
X73714285Y-40551190D01*
X73761904Y-40646428D01*
X73761904Y-40836904D01*
X73714285Y-40932142D01*
X73666666Y-40979761D01*
X73571428Y-41027380D01*
X73380952Y-41027380D01*
X73285714Y-40979761D01*
X73238095Y-40932142D01*
X73190476Y-40836904D01*
X73190476Y-40646428D01*
X73238095Y-40551190D01*
X73285714Y-40503571D01*
X73380952Y-40455952D01*
X19216666Y-8124142D02*
X19264285Y-8171761D01*
X19407142Y-8219380D01*
X19502380Y-8219380D01*
X19645238Y-8171761D01*
X19740476Y-8076523D01*
X19788095Y-7981285D01*
X19835714Y-7790809D01*
X19835714Y-7647952D01*
X19788095Y-7457476D01*
X19740476Y-7362238D01*
X19645238Y-7267000D01*
X19502380Y-7219380D01*
X19407142Y-7219380D01*
X19264285Y-7267000D01*
X19216666Y-7314619D01*
X18883333Y-7219380D02*
X18216666Y-7219380D01*
X18645238Y-8219380D01*
X11818857Y-32984380D02*
X12152190Y-32508190D01*
X12390285Y-32984380D02*
X12390285Y-31984380D01*
X12009333Y-31984380D01*
X11914095Y-32032000D01*
X11866476Y-32079619D01*
X11818857Y-32174857D01*
X11818857Y-32317714D01*
X11866476Y-32412952D01*
X11914095Y-32460571D01*
X12009333Y-32508190D01*
X12390285Y-32508190D01*
X11485523Y-31984380D02*
X10866476Y-31984380D01*
X11199809Y-32365333D01*
X11056952Y-32365333D01*
X10961714Y-32412952D01*
X10914095Y-32460571D01*
X10866476Y-32555809D01*
X10866476Y-32793904D01*
X10914095Y-32889142D01*
X10961714Y-32936761D01*
X11056952Y-32984380D01*
X11342666Y-32984380D01*
X11437904Y-32936761D01*
X11485523Y-32889142D01*
X10247428Y-31984380D02*
X10152190Y-31984380D01*
X10056952Y-32032000D01*
X10009333Y-32079619D01*
X9961714Y-32174857D01*
X9914095Y-32365333D01*
X9914095Y-32603428D01*
X9961714Y-32793904D01*
X10009333Y-32889142D01*
X10056952Y-32936761D01*
X10152190Y-32984380D01*
X10247428Y-32984380D01*
X10342666Y-32936761D01*
X10390285Y-32889142D01*
X10437904Y-32793904D01*
X10485523Y-32603428D01*
X10485523Y-32365333D01*
X10437904Y-32174857D01*
X10390285Y-32079619D01*
X10342666Y-32032000D01*
X10247428Y-31984380D01*
X9911904Y-38922380D02*
X9340476Y-38922380D01*
X9626190Y-39922380D02*
X9626190Y-38922380D01*
X9007142Y-39922380D02*
X9007142Y-38922380D01*
X8626190Y-38922380D01*
X8530952Y-38970000D01*
X8483333Y-39017619D01*
X8435714Y-39112857D01*
X8435714Y-39255714D01*
X8483333Y-39350952D01*
X8530952Y-39398571D01*
X8626190Y-39446190D01*
X9007142Y-39446190D01*
X8102380Y-38922380D02*
X7483333Y-38922380D01*
X7816666Y-39303333D01*
X7673809Y-39303333D01*
X7578571Y-39350952D01*
X7530952Y-39398571D01*
X7483333Y-39493809D01*
X7483333Y-39731904D01*
X7530952Y-39827142D01*
X7578571Y-39874761D01*
X7673809Y-39922380D01*
X7959523Y-39922380D01*
X8054761Y-39874761D01*
X8102380Y-39827142D01*
X45965904Y-10350380D02*
X45394476Y-10350380D01*
X45680190Y-11350380D02*
X45680190Y-10350380D01*
X45061142Y-11350380D02*
X45061142Y-10350380D01*
X44680190Y-10350380D01*
X44584952Y-10398000D01*
X44537333Y-10445619D01*
X44489714Y-10540857D01*
X44489714Y-10683714D01*
X44537333Y-10778952D01*
X44584952Y-10826571D01*
X44680190Y-10874190D01*
X45061142Y-10874190D01*
X43632571Y-10350380D02*
X43823047Y-10350380D01*
X43918285Y-10398000D01*
X43965904Y-10445619D01*
X44061142Y-10588476D01*
X44108761Y-10778952D01*
X44108761Y-11159904D01*
X44061142Y-11255142D01*
X44013523Y-11302761D01*
X43918285Y-11350380D01*
X43727809Y-11350380D01*
X43632571Y-11302761D01*
X43584952Y-11255142D01*
X43537333Y-11159904D01*
X43537333Y-10921809D01*
X43584952Y-10826571D01*
X43632571Y-10778952D01*
X43727809Y-10731333D01*
X43918285Y-10731333D01*
X44013523Y-10778952D01*
X44061142Y-10826571D01*
X44108761Y-10921809D01*
X12042857Y-37152380D02*
X12376190Y-36676190D01*
X12614285Y-37152380D02*
X12614285Y-36152380D01*
X12233333Y-36152380D01*
X12138095Y-36200000D01*
X12090476Y-36247619D01*
X12042857Y-36342857D01*
X12042857Y-36485714D01*
X12090476Y-36580952D01*
X12138095Y-36628571D01*
X12233333Y-36676190D01*
X12614285Y-36676190D01*
X11661904Y-36247619D02*
X11614285Y-36200000D01*
X11519047Y-36152380D01*
X11280952Y-36152380D01*
X11185714Y-36200000D01*
X11138095Y-36247619D01*
X11090476Y-36342857D01*
X11090476Y-36438095D01*
X11138095Y-36580952D01*
X11709523Y-37152380D01*
X11090476Y-37152380D01*
X10614285Y-37152380D02*
X10423809Y-37152380D01*
X10328571Y-37104761D01*
X10280952Y-37057142D01*
X10185714Y-36914285D01*
X10138095Y-36723809D01*
X10138095Y-36342857D01*
X10185714Y-36247619D01*
X10233333Y-36200000D01*
X10328571Y-36152380D01*
X10519047Y-36152380D01*
X10614285Y-36200000D01*
X10661904Y-36247619D01*
X10709523Y-36342857D01*
X10709523Y-36580952D01*
X10661904Y-36676190D01*
X10614285Y-36723809D01*
X10519047Y-36771428D01*
X10328571Y-36771428D01*
X10233333Y-36723809D01*
X10185714Y-36676190D01*
X10138095Y-36580952D01*
X29308166Y-7489142D02*
X29355785Y-7536761D01*
X29498642Y-7584380D01*
X29593880Y-7584380D01*
X29736738Y-7536761D01*
X29831976Y-7441523D01*
X29879595Y-7346285D01*
X29927214Y-7155809D01*
X29927214Y-7012952D01*
X29879595Y-6822476D01*
X29831976Y-6727238D01*
X29736738Y-6632000D01*
X29593880Y-6584380D01*
X29498642Y-6584380D01*
X29355785Y-6632000D01*
X29308166Y-6679619D01*
X28927214Y-6679619D02*
X28879595Y-6632000D01*
X28784357Y-6584380D01*
X28546261Y-6584380D01*
X28451023Y-6632000D01*
X28403404Y-6679619D01*
X28355785Y-6774857D01*
X28355785Y-6870095D01*
X28403404Y-7012952D01*
X28974833Y-7584380D01*
X28355785Y-7584380D01*
X32615095Y-7796380D02*
X32615095Y-6796380D01*
X32377000Y-6796380D01*
X32234142Y-6844000D01*
X32138904Y-6939238D01*
X32091285Y-7034476D01*
X32043666Y-7224952D01*
X32043666Y-7367809D01*
X32091285Y-7558285D01*
X32138904Y-7653523D01*
X32234142Y-7748761D01*
X32377000Y-7796380D01*
X32615095Y-7796380D01*
X31186523Y-6796380D02*
X31377000Y-6796380D01*
X31472238Y-6844000D01*
X31519857Y-6891619D01*
X31615095Y-7034476D01*
X31662714Y-7224952D01*
X31662714Y-7605904D01*
X31615095Y-7701142D01*
X31567476Y-7748761D01*
X31472238Y-7796380D01*
X31281761Y-7796380D01*
X31186523Y-7748761D01*
X31138904Y-7701142D01*
X31091285Y-7605904D01*
X31091285Y-7367809D01*
X31138904Y-7272571D01*
X31186523Y-7224952D01*
X31281761Y-7177333D01*
X31472238Y-7177333D01*
X31567476Y-7224952D01*
X31615095Y-7272571D01*
X31662714Y-7367809D01*
X14633333Y-65702380D02*
X14633333Y-66416666D01*
X14680952Y-66559523D01*
X14776190Y-66654761D01*
X14919047Y-66702380D01*
X15014285Y-66702380D01*
X14109523Y-66702380D02*
X13919047Y-66702380D01*
X13823809Y-66654761D01*
X13776190Y-66607142D01*
X13680952Y-66464285D01*
X13633333Y-66273809D01*
X13633333Y-65892857D01*
X13680952Y-65797619D01*
X13728571Y-65750000D01*
X13823809Y-65702380D01*
X14014285Y-65702380D01*
X14109523Y-65750000D01*
X14157142Y-65797619D01*
X14204761Y-65892857D01*
X14204761Y-66130952D01*
X14157142Y-66226190D01*
X14109523Y-66273809D01*
X14014285Y-66321428D01*
X13823809Y-66321428D01*
X13728571Y-66273809D01*
X13680952Y-66226190D01*
X13633333Y-66130952D01*
X26487380Y-25517699D02*
X26011190Y-25184366D01*
X26487380Y-24946270D02*
X25487380Y-24946270D01*
X25487380Y-25327223D01*
X25535000Y-25422461D01*
X25582619Y-25470080D01*
X25677857Y-25517699D01*
X25820714Y-25517699D01*
X25915952Y-25470080D01*
X25963571Y-25422461D01*
X26011190Y-25327223D01*
X26011190Y-24946270D01*
X25487380Y-25851032D02*
X25487380Y-26470080D01*
X25868333Y-26136746D01*
X25868333Y-26279604D01*
X25915952Y-26374842D01*
X25963571Y-26422461D01*
X26058809Y-26470080D01*
X26296904Y-26470080D01*
X26392142Y-26422461D01*
X26439761Y-26374842D01*
X26487380Y-26279604D01*
X26487380Y-25993889D01*
X26439761Y-25898651D01*
X26392142Y-25851032D01*
X14683333Y-51002380D02*
X14683333Y-51716666D01*
X14730952Y-51859523D01*
X14826190Y-51954761D01*
X14969047Y-52002380D01*
X15064285Y-52002380D01*
X13683333Y-52002380D02*
X14254761Y-52002380D01*
X13969047Y-52002380D02*
X13969047Y-51002380D01*
X14064285Y-51145238D01*
X14159523Y-51240476D01*
X14254761Y-51288095D01*
X37218857Y-68798380D02*
X37552190Y-68322190D01*
X37790285Y-68798380D02*
X37790285Y-67798380D01*
X37409333Y-67798380D01*
X37314095Y-67846000D01*
X37266476Y-67893619D01*
X37218857Y-67988857D01*
X37218857Y-68131714D01*
X37266476Y-68226952D01*
X37314095Y-68274571D01*
X37409333Y-68322190D01*
X37790285Y-68322190D01*
X36266476Y-68798380D02*
X36837904Y-68798380D01*
X36552190Y-68798380D02*
X36552190Y-67798380D01*
X36647428Y-67941238D01*
X36742666Y-68036476D01*
X36837904Y-68084095D01*
X35790285Y-68798380D02*
X35599809Y-68798380D01*
X35504571Y-68750761D01*
X35456952Y-68703142D01*
X35361714Y-68560285D01*
X35314095Y-68369809D01*
X35314095Y-67988857D01*
X35361714Y-67893619D01*
X35409333Y-67846000D01*
X35504571Y-67798380D01*
X35695047Y-67798380D01*
X35790285Y-67846000D01*
X35837904Y-67893619D01*
X35885523Y-67988857D01*
X35885523Y-68226952D01*
X35837904Y-68322190D01*
X35790285Y-68369809D01*
X35695047Y-68417428D01*
X35504571Y-68417428D01*
X35409333Y-68369809D01*
X35361714Y-68322190D01*
X35314095Y-68226952D01*
X66212666Y-2362380D02*
X66546000Y-1886190D01*
X66784095Y-2362380D02*
X66784095Y-1362380D01*
X66403142Y-1362380D01*
X66307904Y-1410000D01*
X66260285Y-1457619D01*
X66212666Y-1552857D01*
X66212666Y-1695714D01*
X66260285Y-1790952D01*
X66307904Y-1838571D01*
X66403142Y-1886190D01*
X66784095Y-1886190D01*
X65831714Y-1457619D02*
X65784095Y-1410000D01*
X65688857Y-1362380D01*
X65450761Y-1362380D01*
X65355523Y-1410000D01*
X65307904Y-1457619D01*
X65260285Y-1552857D01*
X65260285Y-1648095D01*
X65307904Y-1790952D01*
X65879333Y-2362380D01*
X65260285Y-2362380D01*
X15559523Y-73052380D02*
X15559523Y-73766666D01*
X15607142Y-73909523D01*
X15702380Y-74004761D01*
X15845238Y-74052380D01*
X15940476Y-74052380D01*
X14559523Y-74052380D02*
X15130952Y-74052380D01*
X14845238Y-74052380D02*
X14845238Y-73052380D01*
X14940476Y-73195238D01*
X15035714Y-73290476D01*
X15130952Y-73338095D01*
X13940476Y-73052380D02*
X13845238Y-73052380D01*
X13750000Y-73100000D01*
X13702380Y-73147619D01*
X13654761Y-73242857D01*
X13607142Y-73433333D01*
X13607142Y-73671428D01*
X13654761Y-73861904D01*
X13702380Y-73957142D01*
X13750000Y-74004761D01*
X13845238Y-74052380D01*
X13940476Y-74052380D01*
X14035714Y-74004761D01*
X14083333Y-73957142D01*
X14130952Y-73861904D01*
X14178571Y-73671428D01*
X14178571Y-73433333D01*
X14130952Y-73242857D01*
X14083333Y-73147619D01*
X14035714Y-73100000D01*
X13940476Y-73052380D01*
X18733333Y-49578571D02*
X19066666Y-49578571D01*
X19066666Y-50102380D02*
X19066666Y-49102380D01*
X18590476Y-49102380D01*
X17685714Y-50102380D02*
X18257142Y-50102380D01*
X17971428Y-50102380D02*
X17971428Y-49102380D01*
X18066666Y-49245238D01*
X18161904Y-49340476D01*
X18257142Y-49388095D01*
X34789904Y-63480380D02*
X34218476Y-63480380D01*
X34504190Y-64480380D02*
X34504190Y-63480380D01*
X33885142Y-64480380D02*
X33885142Y-63480380D01*
X33504190Y-63480380D01*
X33408952Y-63528000D01*
X33361333Y-63575619D01*
X33313714Y-63670857D01*
X33313714Y-63813714D01*
X33361333Y-63908952D01*
X33408952Y-63956571D01*
X33504190Y-64004190D01*
X33885142Y-64004190D01*
X32361333Y-64480380D02*
X32932761Y-64480380D01*
X32647047Y-64480380D02*
X32647047Y-63480380D01*
X32742285Y-63623238D01*
X32837523Y-63718476D01*
X32932761Y-63766095D01*
X14783333Y-58502380D02*
X14783333Y-59216666D01*
X14830952Y-59359523D01*
X14926190Y-59454761D01*
X15069047Y-59502380D01*
X15164285Y-59502380D01*
X14402380Y-58502380D02*
X13735714Y-58502380D01*
X14164285Y-59502380D01*
D10*
X66689248Y-57578000D02*
X67211752Y-57578000D01*
X66689248Y-59048000D02*
X67211752Y-59048000D01*
X59955152Y-58971800D02*
X59432648Y-58971800D01*
X59955152Y-57501800D02*
X59432648Y-57501800D01*
X52138900Y-69184200D02*
X52138900Y-71134200D01*
X57258900Y-69184200D02*
X57258900Y-67234200D01*
X57258900Y-69184200D02*
X57258900Y-71134200D01*
X52138900Y-69184200D02*
X52138900Y-65734200D01*
X21745500Y-16138500D02*
X21745500Y-20198500D01*
X19475500Y-16138500D02*
X21745500Y-16138500D01*
X19475500Y-20198500D02*
X19475500Y-16138500D01*
X20127500Y-12212000D02*
G75*
G03*
X20127500Y-12212000I-4470000J0D01*
G01*
X26687248Y-20708000D02*
X27209752Y-20708000D01*
X26687248Y-22178000D02*
X27209752Y-22178000D01*
X26665748Y-19892000D02*
X27188252Y-19892000D01*
X26665748Y-18422000D02*
X27188252Y-18422000D01*
X25028500Y-8430752D02*
X25028500Y-7908248D01*
X23558500Y-8430752D02*
X23558500Y-7908248D01*
X26567500Y-17526000D02*
X28517500Y-17526000D01*
X26567500Y-12406000D02*
X28517500Y-12406000D01*
X26567500Y-17526000D02*
X23117500Y-17526000D01*
X26567500Y-12406000D02*
X24617500Y-12406000D01*
X44732752Y-74669000D02*
X44210248Y-74669000D01*
X44732752Y-73199000D02*
X44210248Y-73199000D01*
X48223555Y-68954014D02*
X48223555Y-69476518D01*
X46753555Y-68954014D02*
X46753555Y-69476518D01*
X45994000Y-68636000D02*
X45994000Y-71086000D01*
X42774000Y-70436000D02*
X42774000Y-68636000D01*
X54722752Y-64178800D02*
X54200248Y-64178800D01*
X54722752Y-62708800D02*
X54200248Y-62708800D01*
X66495200Y-56240600D02*
X60095200Y-56240600D01*
X66495200Y-51190600D02*
X60095200Y-51190600D01*
X66495200Y-56240600D02*
G75*
G03*
X66495200Y-51190600I0J2525000D01*
G01*
X60095200Y-51190600D02*
G75*
G03*
X60095200Y-56240600I0J-2525000D01*
G01*
X58690840Y-71143352D02*
X58690840Y-70620848D01*
X60160840Y-71143352D02*
X60160840Y-70620848D01*
X63552000Y-14497200D02*
X63552000Y-16312200D01*
X52027000Y-10637200D02*
X52027000Y-6777200D01*
X63797000Y-6777200D02*
X63552000Y-6777200D01*
X52027000Y-14497200D02*
X52272000Y-14497200D01*
X63797000Y-14497200D02*
X63552000Y-14497200D01*
X63797000Y-10637200D02*
X63797000Y-14497200D01*
X52027000Y-6777200D02*
X52272000Y-6777200D01*
X63797000Y-10637200D02*
X63797000Y-6777200D01*
X52027000Y-10637200D02*
X52027000Y-14497200D01*
X62213224Y-2588880D02*
X61759096Y-2588880D01*
X62213224Y-1118880D02*
X61759096Y-1118880D01*
X69703000Y-15336200D02*
X69703000Y-17286200D01*
X74823000Y-15336200D02*
X74823000Y-13386200D01*
X74823000Y-15336200D02*
X74823000Y-18786200D01*
X69703000Y-15336200D02*
X69703000Y-13386200D01*
X64921460Y-6635708D02*
X64921460Y-7158212D01*
X66391460Y-6635708D02*
X66391460Y-7158212D01*
X72018348Y-8954780D02*
X72540852Y-8954780D01*
X72018348Y-10424780D02*
X72540852Y-10424780D01*
X72383248Y-20401800D02*
X72905752Y-20401800D01*
X72383248Y-21871800D02*
X72905752Y-21871800D01*
X71648252Y-50345600D02*
X71125748Y-50345600D01*
X71648252Y-48925600D02*
X71125748Y-48925600D01*
X61832532Y-31369120D02*
X61310028Y-31369120D01*
X61832532Y-32789120D02*
X61310028Y-32789120D01*
X54564948Y-47503200D02*
X55087452Y-47503200D01*
X54564948Y-48923200D02*
X55087452Y-48923200D01*
X72613452Y-32161600D02*
X72090948Y-32161600D01*
X72613452Y-33581600D02*
X72090948Y-33581600D01*
X78231932Y-53771920D02*
X77709428Y-53771920D01*
X78231932Y-55191920D02*
X77709428Y-55191920D01*
X74902400Y-50593548D02*
X74902400Y-51116052D01*
X76322400Y-50593548D02*
X76322400Y-51116052D01*
X72682440Y-44285560D02*
X72682440Y-46100560D01*
X54807440Y-36565560D02*
X55052440Y-36565560D01*
X72927440Y-40425560D02*
X72927440Y-36565560D01*
X54807440Y-40425560D02*
X54807440Y-44285560D01*
X72927440Y-44285560D02*
X72682440Y-44285560D01*
X72927440Y-40425560D02*
X72927440Y-44285560D01*
X54807440Y-44285560D02*
X55052440Y-44285560D01*
X54807440Y-40425560D02*
X54807440Y-36565560D01*
X72927440Y-36565560D02*
X72682440Y-36565560D01*
X22155500Y-7055748D02*
X22155500Y-8478252D01*
X20335500Y-7055748D02*
X20335500Y-8478252D01*
X7923000Y-31981064D02*
X7923000Y-31526936D01*
X9393000Y-31981064D02*
X9393000Y-31526936D01*
X9980000Y-40470000D02*
X8650000Y-40470000D01*
X9980000Y-43070000D02*
X9980000Y-43130000D01*
X9980000Y-43070000D02*
X7320000Y-43070000D01*
X9980000Y-43130000D02*
X7320000Y-43130000D01*
X7320000Y-43070000D02*
X7320000Y-43130000D01*
X9980000Y-41800000D02*
X9980000Y-40470000D01*
X43374000Y-14498000D02*
X43374000Y-14558000D01*
X46034000Y-13228000D02*
X46034000Y-11898000D01*
X46034000Y-14558000D02*
X43374000Y-14558000D01*
X46034000Y-11898000D02*
X44704000Y-11898000D01*
X46034000Y-14498000D02*
X46034000Y-14558000D01*
X46034000Y-14498000D02*
X43374000Y-14498000D01*
X9393000Y-37061064D02*
X9393000Y-36606936D01*
X7923000Y-37061064D02*
X7923000Y-36606936D01*
X27695500Y-8430752D02*
X27695500Y-7908248D01*
X26225500Y-8430752D02*
X26225500Y-7908248D01*
X34337000Y-8029000D02*
X34337000Y-10299000D01*
X30277000Y-8029000D02*
X34337000Y-8029000D01*
X34337000Y-10299000D02*
X30277000Y-10299000D01*
X11260000Y-65940000D02*
X12860000Y-65940000D01*
X8900000Y-66100000D02*
X7300000Y-66100000D01*
X7300000Y-66100000D02*
X7300000Y-65100000D01*
X9400000Y-63300000D02*
X5040000Y-63300000D01*
X7300000Y-65100000D02*
X5040000Y-65100000D01*
X11260000Y-60740000D02*
X11260000Y-61660000D01*
X7300000Y-65100000D02*
X8900000Y-65100000D01*
X8900000Y-65100000D02*
X8900000Y-66100000D01*
X12860000Y-66860000D02*
X5040000Y-66860000D01*
X12860000Y-60740000D02*
X12860000Y-61660000D01*
X11260000Y-65660000D02*
X12475000Y-65660000D01*
X7300000Y-65600000D02*
X5040000Y-65600000D01*
X8900000Y-61500000D02*
X7300000Y-61500000D01*
X8900000Y-62500000D02*
X8900000Y-61500000D01*
X9400000Y-64300000D02*
X9400000Y-63300000D01*
X11260000Y-66860000D02*
X11260000Y-65940000D01*
X5040000Y-64300000D02*
X9400000Y-64300000D01*
X7300000Y-61500000D02*
X7300000Y-62500000D01*
X11260000Y-61660000D02*
X11260000Y-61940000D01*
X5040000Y-66860000D02*
X5040000Y-60740000D01*
X11260000Y-65660000D02*
X11260000Y-65940000D01*
X12860000Y-61660000D02*
X11260000Y-61660000D01*
X7300000Y-62500000D02*
X8900000Y-62500000D01*
X12860000Y-65940000D02*
X12860000Y-66860000D01*
X5040000Y-60740000D02*
X12860000Y-60740000D01*
X24834815Y-25684366D02*
X24834815Y-25230238D01*
X23364815Y-25684366D02*
X23364815Y-25230238D01*
X8900000Y-47700000D02*
X8900000Y-46700000D01*
X5040000Y-45940000D02*
X12860000Y-45940000D01*
X12860000Y-52060000D02*
X5040000Y-52060000D01*
X7300000Y-51300000D02*
X7300000Y-50300000D01*
X8900000Y-46700000D02*
X7300000Y-46700000D01*
X5040000Y-52060000D02*
X5040000Y-45940000D01*
X11260000Y-50860000D02*
X11260000Y-51140000D01*
X11260000Y-51140000D02*
X12860000Y-51140000D01*
X11260000Y-52060000D02*
X11260000Y-51140000D01*
X9400000Y-48500000D02*
X5040000Y-48500000D01*
X5040000Y-49500000D02*
X9400000Y-49500000D01*
X7300000Y-50300000D02*
X5040000Y-50300000D01*
X8900000Y-51300000D02*
X7300000Y-51300000D01*
X7300000Y-47700000D02*
X8900000Y-47700000D01*
X8900000Y-50300000D02*
X8900000Y-51300000D01*
X11260000Y-46860000D02*
X11260000Y-47140000D01*
X9400000Y-49500000D02*
X9400000Y-48500000D01*
X7300000Y-50800000D02*
X5040000Y-50800000D01*
X12860000Y-46860000D02*
X11260000Y-46860000D01*
X11260000Y-50860000D02*
X12475000Y-50860000D01*
X11260000Y-45940000D02*
X11260000Y-46860000D01*
X12860000Y-51140000D02*
X12860000Y-52060000D01*
X12860000Y-45940000D02*
X12860000Y-46860000D01*
X7300000Y-50300000D02*
X8900000Y-50300000D01*
X7300000Y-46700000D02*
X7300000Y-47700000D01*
X40109781Y-68928844D02*
X39655653Y-68928844D01*
X40109781Y-67458844D02*
X39655653Y-67458844D01*
X66273064Y-4295000D02*
X65818936Y-4295000D01*
X66273064Y-2825000D02*
X65818936Y-2825000D01*
X7300000Y-68850000D02*
X7300000Y-69850000D01*
X8900000Y-69850000D02*
X8900000Y-68850000D01*
X5040000Y-74210000D02*
X5040000Y-68090000D01*
X11260000Y-73010000D02*
X12475000Y-73010000D01*
X12860000Y-74210000D02*
X5040000Y-74210000D01*
X9400000Y-71650000D02*
X9400000Y-70650000D01*
X5040000Y-68090000D02*
X12860000Y-68090000D01*
X7300000Y-72450000D02*
X5040000Y-72450000D01*
X11260000Y-74210000D02*
X11260000Y-73290000D01*
X7300000Y-72450000D02*
X8900000Y-72450000D01*
X8900000Y-73450000D02*
X7300000Y-73450000D01*
X12860000Y-73290000D02*
X12860000Y-74210000D01*
X12860000Y-68090000D02*
X12860000Y-69010000D01*
X7300000Y-69850000D02*
X8900000Y-69850000D01*
X12860000Y-69010000D02*
X11260000Y-69010000D01*
X8900000Y-68850000D02*
X7300000Y-68850000D01*
X7300000Y-72950000D02*
X5040000Y-72950000D01*
X5040000Y-71650000D02*
X9400000Y-71650000D01*
X8900000Y-72450000D02*
X8900000Y-73450000D01*
X11260000Y-73290000D02*
X12860000Y-73290000D01*
X11260000Y-69010000D02*
X11260000Y-69290000D01*
X11260000Y-73010000D02*
X11260000Y-73290000D01*
X9400000Y-70650000D02*
X5040000Y-70650000D01*
X11260000Y-68090000D02*
X11260000Y-69010000D01*
X7300000Y-73450000D02*
X7300000Y-72450000D01*
X7156000Y-28628000D02*
X7156000Y-34748000D01*
X7156000Y-34748000D02*
X3036000Y-34748000D01*
X7156000Y-28628000D02*
X5096000Y-28628000D01*
X4064000Y-28628000D02*
X3004000Y-28628000D01*
X3004000Y-28628000D02*
X3004000Y-29688000D01*
X5096000Y-30688000D02*
X5096000Y-28628000D01*
X3036000Y-30688000D02*
X3036000Y-34748000D01*
X5096000Y-30688000D02*
X3036000Y-30688000D01*
X18138748Y-48710000D02*
X18661252Y-48710000D01*
X18138748Y-47290000D02*
X18661252Y-47290000D01*
X37906000Y-65298000D02*
X35246000Y-65298000D01*
X37906000Y-64028000D02*
X37906000Y-62698000D01*
X37906000Y-65358000D02*
X35246000Y-65358000D01*
X37906000Y-65298000D02*
X37906000Y-65358000D01*
X37906000Y-62698000D02*
X36576000Y-62698000D01*
X35246000Y-65298000D02*
X35246000Y-65358000D01*
X8900000Y-57750000D02*
X8900000Y-58750000D01*
X11260000Y-58590000D02*
X12860000Y-58590000D01*
X11260000Y-58310000D02*
X11260000Y-58590000D01*
X5040000Y-59510000D02*
X5040000Y-53390000D01*
X9400000Y-55950000D02*
X5040000Y-55950000D01*
X11260000Y-54310000D02*
X11260000Y-54590000D01*
X8900000Y-55150000D02*
X8900000Y-54150000D01*
X7300000Y-57750000D02*
X8900000Y-57750000D01*
X8900000Y-58750000D02*
X7300000Y-58750000D01*
X11260000Y-58310000D02*
X12475000Y-58310000D01*
X7300000Y-54150000D02*
X7300000Y-55150000D01*
X5040000Y-56950000D02*
X9400000Y-56950000D01*
X7300000Y-58250000D02*
X5040000Y-58250000D01*
X5040000Y-53390000D02*
X12860000Y-53390000D01*
X12860000Y-58590000D02*
X12860000Y-59510000D01*
X11260000Y-53390000D02*
X11260000Y-54310000D01*
X8900000Y-54150000D02*
X7300000Y-54150000D01*
X7300000Y-57750000D02*
X5040000Y-57750000D01*
X12860000Y-53390000D02*
X12860000Y-54310000D01*
X9400000Y-56950000D02*
X9400000Y-55950000D01*
X11260000Y-59510000D02*
X11260000Y-58590000D01*
X7300000Y-58750000D02*
X7300000Y-57750000D01*
X12860000Y-59510000D02*
X5040000Y-59510000D01*
X12860000Y-54310000D02*
X11260000Y-54310000D01*
X7300000Y-55150000D02*
X8900000Y-55150000D01*
M02*
