M48
; DRILL file {KiCad (6.0.1)} date Sat May 21 23:10:10 2022
; FORMAT={-:-/ absolute / inch / decimal}
; #@! TF.CreationDate,2022-05-21T23:10:10-04:00
; #@! TF.GenerationSoftware,Kicad,Pcbnew,(6.0.1)
; #@! TF.FileFunction,Plated,1,4,PTH
FMAT,2
INCH
; #@! TA.AperFunction,Plated,PTH,ComponentDrill
T1C0.0118
; #@! TA.AperFunction,Plated,PTH,ViaDrill
T2C0.0150
; #@! TA.AperFunction,Plated,PTH,ViaDrill
T3C0.0157
; #@! TA.AperFunction,Plated,PTH,ComponentDrill
T4C0.0197
; #@! TA.AperFunction,Plated,PTH,ComponentDrill
T5C0.0268
; #@! TA.AperFunction,Plated,PTH,ComponentDrill
T6C0.0295
; #@! TA.AperFunction,Plated,PTH,ComponentDrill
T7C0.0315
; #@! TA.AperFunction,Plated,PTH,ComponentDrill
T8C0.0394
; #@! TA.AperFunction,Plated,PTH,ComponentDrill
T9C0.0512
; #@! TA.AperFunction,Plated,PTH,ComponentDrill
T10C0.1378
%
G90
G05
T1
X0.6654Y-1.5168
X0.6654Y-1.568
X0.6654Y-1.6192
X0.7166Y-1.5168
X0.7166Y-1.568
X0.7166Y-1.6192
X0.7678Y-1.5168
X0.7678Y-1.568
X0.7678Y-1.6192
X0.819Y-1.5168
X0.819Y-1.568
X0.819Y-1.6192
X0.8701Y-1.5168
X0.8701Y-1.568
X0.8701Y-1.6192
T2
X0.51Y-2.911
X0.5863Y-1.3844
X0.7865Y-1.946
X0.8845Y-1.7095
X0.8889Y-2.754
X1.0629Y-1.8438
X1.0629Y-1.8838
X1.0631Y-1.9272
X1.3492Y-1.0407
X1.4281Y-0.9016
X1.4985Y-0.3002
X1.6753Y-0.3356
X1.9219Y-0.2682
X1.9224Y-0.2297
X1.9369Y-2.7408
X2.0009Y-0.6942
X2.0059Y-3.1832
X2.0359Y-0.6942
X2.0798Y-0.6953
X2.118Y-1.8348
X2.1949Y-1.2622
X2.1969Y-1.1182
X2.2303Y-2.4213
X2.2409Y-1.9502
X2.2489Y-1.1222
X2.2549Y-0.6982
X2.3009Y-0.6972
X2.3091Y-2.2386
X2.3399Y-1.3397
X2.3469Y-0.6962
X2.4889Y-1.472
X2.4909Y-1.6922
X2.5509Y-1.0862
X2.5709Y-2.8362
X2.5848Y-0.3795
X2.6389Y-1.6922
X2.6768Y-2.2402
X2.7496Y-0.2282
X2.9389Y-0.3807
X2.9574Y-1.2931
X3.1079Y-2.0212
T3
X0.07Y-0.5308
X0.07Y-0.6108
X0.07Y-0.9608
X0.07Y-1.0508
X0.07Y-1.1608
X0.07Y-1.2608
X0.0709Y-0.3402
X0.0709Y-0.4402
X0.0709Y-1.3402
X0.0709Y-1.4402
X0.0709Y-1.5402
X0.0709Y-1.6402
X0.0709Y-1.7402
X0.0709Y-1.8402
X0.0709Y-1.9402
X0.0709Y-2.0402
X0.0709Y-2.1402
X0.0709Y-2.2402
X0.0709Y-2.3402
X0.0709Y-2.4402
X0.0709Y-2.5402
X0.0709Y-2.6402
X0.0709Y-2.7402
X0.0709Y-2.8402
X0.17Y-0.5308
X0.17Y-0.6108
X0.17Y-0.9608
X0.17Y-1.0508
X0.17Y-1.4408
X0.17Y-1.5408
X0.17Y-1.6408
X0.1709Y-0.3402
X0.1709Y-0.4402
X0.1709Y-1.7402
X0.1709Y-1.8402
X0.1709Y-1.9402
X0.1709Y-2.0402
X0.1709Y-2.1402
X0.1709Y-2.2402
X0.1709Y-2.3402
X0.1709Y-2.4402
X0.1709Y-2.5402
X0.1709Y-2.6402
X0.1709Y-2.7402
X0.1709Y-2.8402
X0.2709Y-0.0402
X0.34Y-1.0928
X0.37Y-0.1408
X0.3709Y-0.0402
X0.3709Y-3.0402
X0.3709Y-3.1402
X0.4202Y-1.4895
X0.47Y-0.1408
X0.4709Y-0.0402
X0.4709Y-3.0402
X0.4709Y-3.1402
X0.5699Y-2.8493
X0.57Y-0.1408
X0.5709Y-0.0402
X0.582Y-1.9448
X0.67Y-0.1408
X0.6709Y-0.0402
X0.702Y-0.9788
X0.77Y-0.1408
X0.77Y-0.2208
X0.7709Y-0.0402
X0.78Y-1.3808
X0.81Y-0.8508
X0.824Y-1.9688
X0.835Y-0.1808
X0.868Y-1.0408
X0.87Y-0.1408
X0.8709Y-0.0402
X0.97Y-0.1408
X0.97Y-0.2158
X0.9709Y-0.0402
X1.02Y-0.5108
X1.02Y-0.5608
X1.02Y-0.6108
X1.02Y-0.6608
X1.0631Y-1.9683
X1.07Y-0.1408
X1.07Y-0.2158
X1.07Y-0.5108
X1.07Y-0.5608
X1.07Y-0.6108
X1.07Y-0.6608
X1.0709Y-0.0402
X1.083Y-0.9048
X1.16Y-0.7158
X1.17Y-0.1408
X1.1709Y-0.0402
X1.1709Y-3.1402
X1.186Y-2.9931
X1.2Y-1.9248
X1.214Y-1.8528
X1.22Y-0.5108
X1.22Y-0.5658
X1.22Y-0.6158
X1.22Y-0.6658
X1.22Y-1.7208
X1.265Y-2.995
X1.27Y-0.1408
X1.2709Y-0.0402
X1.2709Y-3.1402
X1.32Y-1.8208
X1.37Y-0.1408
X1.37Y-0.2008
X1.3709Y-0.0402
X1.3829Y-0.8533
X1.3839Y-0.9016
X1.4272Y-0.8533
X1.4665Y-1.1938
X1.47Y-0.1408
X1.47Y-0.2008
X1.4709Y-0.0402
X1.52Y-1.9508
X1.52Y-2.3308
X1.53Y-2.7408
X1.56Y-2.4708
X1.57Y-0.1408
X1.57Y-0.2008
X1.5709Y-0.0402
X1.59Y-1.9508
X1.59Y-2.3308
X1.67Y-0.1408
X1.67Y-0.2008
X1.6709Y-0.0402
X1.8563Y-1.5728
X1.872Y-2.8986
X1.9Y-1.7308
X1.96Y-1.2108
X1.96Y-1.4708
X1.9823Y-2.5404
X2.035Y-2.4658
X2.0709Y-3.0402
X2.0709Y-3.1402
X2.1236Y-1.7924
X2.135Y-1.4258
X2.15Y-1.9658
X2.195Y-2.9108
X2.2299Y-0.1372
X2.2509Y-1.3302
X2.2697Y-2.563
X2.2709Y-3.1402
X2.2802Y-0.1366
X2.32Y-2.3808
X2.33Y-0.1363
X2.3709Y-3.1402
X2.38Y-0.136
X2.384Y-1.1948
X2.3858Y-2.7028
X2.4009Y-2.4802
X2.4039Y-2.8322
X2.4709Y-3.1402
X2.63Y-2.5608
X2.6369Y-1.0902
X2.6476Y-1.8465
X2.6509Y-0.2102
X2.6609Y-1.9702
X2.6709Y-3.0402
X2.6709Y-3.1402
X2.68Y-2.4558
X2.75Y-1.9008
X2.7589Y-1.1882
X2.7709Y-0.0402
X2.7709Y-3.0402
X2.7709Y-3.1402
X2.79Y-0.5808
X2.84Y-2.9308
X2.8709Y-0.0402
X2.91Y-2.2908
X2.9317Y-1.4863
X2.9689Y-0.7708
X2.977Y-0.6608
X2.99Y-1.1908
X3.01Y-0.8108
X3.052Y-0.6568
X3.0709Y-0.3402
X3.0709Y-0.4402
X3.0709Y-0.5402
X3.0709Y-0.7402
X3.0709Y-1.2402
X3.0709Y-1.3402
X3.0709Y-1.4402
X3.0709Y-2.4402
X3.0709Y-2.7402
X3.0709Y-2.8402
X3.108Y-2.0728
X3.1709Y-0.3402
X3.1709Y-0.4402
X3.1709Y-0.5402
X3.1709Y-0.6402
X3.1709Y-0.7402
X3.1709Y-0.8402
X3.1709Y-1.1402
X3.1709Y-1.2402
X3.1709Y-1.3402
X3.1709Y-1.4402
X3.1709Y-1.5402
X3.1709Y-2.3402
X3.1709Y-2.4402
X3.1709Y-2.5402
X3.1709Y-2.6402
X3.1709Y-2.7402
X3.1709Y-2.8402
T4
X0.0541Y-0.1583
X0.0541Y-3.0717
X0.0844Y-0.0852
X0.0844Y-0.2313
X0.0844Y-2.9986
X0.0844Y-3.1447
X0.0982Y-0.7787
X0.1285Y-0.7057
X0.1285Y-0.8518
X0.1575Y-0.0549
X0.1575Y-0.2616
X0.1575Y-2.9683
X0.1575Y-3.175
X0.2016Y-0.6754
X0.2016Y-0.8821
X0.2306Y-0.0852
X0.2306Y-0.2313
X0.2306Y-2.9986
X0.2306Y-3.1447
X0.2608Y-0.1583
X0.2608Y-3.0717
X0.2747Y-0.7057
X0.2747Y-0.8518
X0.3049Y-0.7787
X0.9518Y-2.1787
X0.982Y-2.1057
X0.982Y-2.2518
X1.0551Y-2.0754
X1.0551Y-2.2821
X1.1282Y-2.1057
X1.1282Y-2.2518
X1.1585Y-2.1787
X1.9675Y-2.2402
X1.9978Y-2.1671
X1.9978Y-2.3132
X2.0709Y-2.1368
X2.0709Y-2.3435
X2.1439Y-2.1671
X2.1439Y-2.3132
X2.1742Y-2.2402
X2.9675Y-0.1583
X2.9675Y-0.9902
X2.9675Y-3.0717
X2.9978Y-0.0852
X2.9978Y-0.2313
X2.9978Y-0.9171
X2.9978Y-1.0632
X2.9978Y-2.9986
X2.9978Y-3.1447
X3.0709Y-0.0549
X3.0709Y-0.2616
X3.0709Y-0.8868
X3.0709Y-1.0935
X3.0709Y-2.9683
X3.0709Y-3.175
X3.1439Y-0.0852
X3.1439Y-0.2313
X3.1439Y-0.9171
X3.1439Y-1.0632
X3.1439Y-2.9986
X3.1439Y-3.1447
X3.1742Y-0.1583
X3.1742Y-0.9902
X3.1742Y-3.0717
T5
X1.4066Y-2.0706
X1.4066Y-2.1493
X1.4066Y-2.2281
X1.4854Y-2.0706
X1.4854Y-2.1493
X1.4854Y-2.2281
X1.4913Y-1.3894
X1.4913Y-1.4682
X1.57Y-1.3894
X1.57Y-1.4682
X1.6487Y-1.3894
X1.6487Y-1.4682
X1.7116Y-2.0686
X1.7116Y-2.1473
X1.7116Y-2.2261
X1.7904Y-2.0686
X1.7904Y-2.1473
X1.7904Y-2.2261
T6
X0.4488Y-1.8898
X0.4488Y-1.9685
X0.4488Y-2.1831
X0.4488Y-2.2618
X0.4488Y-2.4724
X0.4488Y-2.5512
X0.4488Y-2.7618
X0.4488Y-2.8406
T7
X0.1613Y-1.1688
X0.1613Y-1.2476
X0.1613Y-1.3263
X0.24Y-1.1688
X0.24Y-1.2476
X0.24Y-1.3263
X2.3959Y-2.1148
X2.588Y-2.1148
X3.0559Y-1.6602
X3.0559Y-1.7389
X3.0559Y-1.8176
X3.1346Y-1.6602
X3.1346Y-1.7389
X3.1346Y-1.8176
T8
X0.3406Y-1.6457
X0.6855Y-2.081
X1.24Y-1.1558
X1.391Y-1.6818
X1.44Y-2.5208
X1.491Y-1.6818
X1.591Y-1.6818
X1.691Y-1.6818
X1.76Y-0.5208
X1.791Y-1.6818
X3.0709Y-2.5402
X3.0709Y-2.6402
T9
X0.6164Y-0.3824
X0.6164Y-0.5792
T10
X0.1575Y-0.1583
X0.1575Y-3.0717
X0.2016Y-0.7787
X1.0551Y-2.1787
X2.0709Y-2.2402
X3.0709Y-0.1583
X3.0709Y-0.9894
X3.0709Y-3.0717
T0
M30
