G04 #@! TF.GenerationSoftware,KiCad,Pcbnew,(5.1.6)-1*
G04 #@! TF.CreationDate,2021-11-24T18:58:49-05:00*
G04 #@! TF.ProjectId,payload2020_papa_board,7061796c-6f61-4643-9230-32305f706170,rev?*
G04 #@! TF.SameCoordinates,Original*
G04 #@! TF.FileFunction,Soldermask,Top*
G04 #@! TF.FilePolarity,Negative*
%FSLAX46Y46*%
G04 Gerber Fmt 4.6, Leading zero omitted, Abs format (unit mm)*
G04 Created by KiCad (PCBNEW (5.1.6)-1) date 2021-11-24 18:58:49*
%MOMM*%
%LPD*%
G01*
G04 APERTURE LIST*
%ADD10C,0.100000*%
G04 APERTURE END LIST*
D10*
G36*
X120240420Y-111598800D02*
G01*
X120140420Y-111598800D01*
X120140420Y-111948800D01*
X120240420Y-111948800D01*
X120240420Y-111598800D01*
G37*
X120240420Y-111598800D02*
X120140420Y-111598800D01*
X120140420Y-111948800D01*
X120240420Y-111948800D01*
X120240420Y-111598800D01*
G36*
X120240420Y-110498800D02*
G01*
X120140420Y-110498800D01*
X120140420Y-110148800D01*
X120240420Y-110148800D01*
X120240420Y-110498800D01*
G37*
X120240420Y-110498800D02*
X120140420Y-110498800D01*
X120140420Y-110148800D01*
X120240420Y-110148800D01*
X120240420Y-110498800D01*
G36*
X122700420Y-110498800D02*
G01*
X122800420Y-110498800D01*
X122800420Y-110148800D01*
X122700420Y-110148800D01*
X122700420Y-110498800D01*
G37*
X122700420Y-110498800D02*
X122800420Y-110498800D01*
X122800420Y-110148800D01*
X122700420Y-110148800D01*
X122700420Y-110498800D01*
G36*
X122700420Y-111598800D02*
G01*
X122800420Y-111598800D01*
X122800420Y-111948800D01*
X122700420Y-111948800D01*
X122700420Y-111598800D01*
G37*
X122700420Y-111598800D02*
X122800420Y-111598800D01*
X122800420Y-111948800D01*
X122700420Y-111948800D01*
X122700420Y-111598800D01*
G36*
X180889787Y-142403462D02*
G01*
X180889790Y-142403463D01*
X180889789Y-142403463D01*
X181536029Y-142671144D01*
X182117631Y-143059758D01*
X182612242Y-143554369D01*
X183000856Y-144135971D01*
X183132223Y-144453120D01*
X183268538Y-144782213D01*
X183405000Y-145468256D01*
X183405000Y-146167744D01*
X183268538Y-146853787D01*
X183268537Y-146853789D01*
X183000856Y-147500029D01*
X182612242Y-148081631D01*
X182117631Y-148576242D01*
X181536029Y-148964856D01*
X181079068Y-149154135D01*
X180889787Y-149232538D01*
X180203744Y-149369000D01*
X179504256Y-149369000D01*
X178818213Y-149232538D01*
X178628932Y-149154135D01*
X178171971Y-148964856D01*
X177590369Y-148576242D01*
X177095758Y-148081631D01*
X176707144Y-147500029D01*
X176439463Y-146853789D01*
X176439462Y-146853787D01*
X176303000Y-146167744D01*
X176303000Y-145468256D01*
X176439462Y-144782213D01*
X176575777Y-144453120D01*
X176707144Y-144135971D01*
X177095758Y-143554369D01*
X177590369Y-143059758D01*
X178171971Y-142671144D01*
X178818211Y-142403463D01*
X178818210Y-142403463D01*
X178818213Y-142403462D01*
X179504256Y-142267000D01*
X180203744Y-142267000D01*
X180889787Y-142403462D01*
G37*
G36*
X106889787Y-142403462D02*
G01*
X106889790Y-142403463D01*
X106889789Y-142403463D01*
X107536029Y-142671144D01*
X108117631Y-143059758D01*
X108612242Y-143554369D01*
X109000856Y-144135971D01*
X109132223Y-144453120D01*
X109268538Y-144782213D01*
X109405000Y-145468256D01*
X109405000Y-146167744D01*
X109268538Y-146853787D01*
X109268537Y-146853789D01*
X109000856Y-147500029D01*
X108612242Y-148081631D01*
X108117631Y-148576242D01*
X107536029Y-148964856D01*
X107079068Y-149154135D01*
X106889787Y-149232538D01*
X106203744Y-149369000D01*
X105504256Y-149369000D01*
X104818213Y-149232538D01*
X104628932Y-149154135D01*
X104171971Y-148964856D01*
X103590369Y-148576242D01*
X103095758Y-148081631D01*
X102707144Y-147500029D01*
X102439463Y-146853789D01*
X102439462Y-146853787D01*
X102303000Y-146167744D01*
X102303000Y-145468256D01*
X102439462Y-144782213D01*
X102575777Y-144453120D01*
X102707144Y-144135971D01*
X103095758Y-143554369D01*
X103590369Y-143059758D01*
X104171971Y-142671144D01*
X104818211Y-142403463D01*
X104818210Y-142403463D01*
X104818213Y-142403462D01*
X105504256Y-142267000D01*
X106203744Y-142267000D01*
X106889787Y-142403462D01*
G37*
G36*
X172244521Y-146624204D02*
G01*
X172281618Y-146635457D01*
X172315799Y-146653727D01*
X172345763Y-146678317D01*
X172370353Y-146708281D01*
X172388623Y-146742462D01*
X172399876Y-146779559D01*
X172404280Y-146824273D01*
X172404280Y-147917327D01*
X172399876Y-147962041D01*
X172388623Y-147999138D01*
X172370353Y-148033319D01*
X172345763Y-148063283D01*
X172315799Y-148087873D01*
X172281618Y-148106143D01*
X172244521Y-148117396D01*
X172199807Y-148121800D01*
X171306753Y-148121800D01*
X171262039Y-148117396D01*
X171224942Y-148106143D01*
X171190761Y-148087873D01*
X171160797Y-148063283D01*
X171136207Y-148033319D01*
X171117937Y-147999138D01*
X171106684Y-147962041D01*
X171102280Y-147917327D01*
X171102280Y-146824273D01*
X171106684Y-146779559D01*
X171117937Y-146742462D01*
X171136207Y-146708281D01*
X171160797Y-146678317D01*
X171190761Y-146653727D01*
X171224942Y-146635457D01*
X171262039Y-146624204D01*
X171306753Y-146619800D01*
X172199807Y-146619800D01*
X172244521Y-146624204D01*
G37*
G36*
X170244521Y-146624204D02*
G01*
X170281618Y-146635457D01*
X170315799Y-146653727D01*
X170345763Y-146678317D01*
X170370353Y-146708281D01*
X170388623Y-146742462D01*
X170399876Y-146779559D01*
X170404280Y-146824273D01*
X170404280Y-147917327D01*
X170399876Y-147962041D01*
X170388623Y-147999138D01*
X170370353Y-148033319D01*
X170345763Y-148063283D01*
X170315799Y-148087873D01*
X170281618Y-148106143D01*
X170244521Y-148117396D01*
X170199807Y-148121800D01*
X169306753Y-148121800D01*
X169262039Y-148117396D01*
X169224942Y-148106143D01*
X169190761Y-148087873D01*
X169160797Y-148063283D01*
X169136207Y-148033319D01*
X169117937Y-147999138D01*
X169106684Y-147962041D01*
X169102280Y-147917327D01*
X169102280Y-146824273D01*
X169106684Y-146779559D01*
X169117937Y-146742462D01*
X169136207Y-146708281D01*
X169160797Y-146678317D01*
X169190761Y-146653727D01*
X169224942Y-146635457D01*
X169262039Y-146624204D01*
X169306753Y-146619800D01*
X170199807Y-146619800D01*
X170244521Y-146624204D01*
G37*
G36*
X153579000Y-147186600D02*
G01*
X152027000Y-147186600D01*
X152027000Y-145084600D01*
X153579000Y-145084600D01*
X153579000Y-147186600D01*
G37*
G36*
X167329000Y-147186600D02*
G01*
X165777000Y-147186600D01*
X165777000Y-145084600D01*
X167329000Y-145084600D01*
X167329000Y-147186600D01*
G37*
G36*
X172244521Y-143271404D02*
G01*
X172281618Y-143282657D01*
X172315799Y-143300927D01*
X172345763Y-143325517D01*
X172370353Y-143355481D01*
X172388623Y-143389662D01*
X172399876Y-143426759D01*
X172404280Y-143471473D01*
X172404280Y-144564527D01*
X172399876Y-144609241D01*
X172388623Y-144646338D01*
X172370353Y-144680519D01*
X172345763Y-144710483D01*
X172315799Y-144735073D01*
X172281618Y-144753343D01*
X172244521Y-144764596D01*
X172199807Y-144769000D01*
X171306753Y-144769000D01*
X171262039Y-144764596D01*
X171224942Y-144753343D01*
X171190761Y-144735073D01*
X171160797Y-144710483D01*
X171136207Y-144680519D01*
X171117937Y-144646338D01*
X171106684Y-144609241D01*
X171102280Y-144564527D01*
X171102280Y-143471473D01*
X171106684Y-143426759D01*
X171117937Y-143389662D01*
X171136207Y-143355481D01*
X171160797Y-143325517D01*
X171190761Y-143300927D01*
X171224942Y-143282657D01*
X171262039Y-143271404D01*
X171306753Y-143267000D01*
X172199807Y-143267000D01*
X172244521Y-143271404D01*
G37*
G36*
X170244521Y-143271404D02*
G01*
X170281618Y-143282657D01*
X170315799Y-143300927D01*
X170345763Y-143325517D01*
X170370353Y-143355481D01*
X170388623Y-143389662D01*
X170399876Y-143426759D01*
X170404280Y-143471473D01*
X170404280Y-144564527D01*
X170399876Y-144609241D01*
X170388623Y-144646338D01*
X170370353Y-144680519D01*
X170345763Y-144710483D01*
X170315799Y-144735073D01*
X170281618Y-144753343D01*
X170244521Y-144764596D01*
X170199807Y-144769000D01*
X169306753Y-144769000D01*
X169262039Y-144764596D01*
X169224942Y-144753343D01*
X169190761Y-144735073D01*
X169160797Y-144710483D01*
X169136207Y-144680519D01*
X169117937Y-144646338D01*
X169106684Y-144609241D01*
X169102280Y-144564527D01*
X169102280Y-143471473D01*
X169106684Y-143426759D01*
X169117937Y-143389662D01*
X169136207Y-143355481D01*
X169160797Y-143325517D01*
X169190761Y-143300927D01*
X169224942Y-143282657D01*
X169262039Y-143271404D01*
X169306753Y-143267000D01*
X170199807Y-143267000D01*
X170244521Y-143271404D01*
G37*
G36*
X116936823Y-143180554D02*
G01*
X116974212Y-143191896D01*
X117008666Y-143210311D01*
X117038865Y-143235095D01*
X117063649Y-143265294D01*
X117082064Y-143299748D01*
X117093406Y-143337137D01*
X117097840Y-143382155D01*
X117097840Y-144247085D01*
X117093406Y-144292103D01*
X117082064Y-144329492D01*
X117063649Y-144363946D01*
X117038865Y-144394145D01*
X117008666Y-144418929D01*
X116974212Y-144437344D01*
X116936823Y-144448686D01*
X116891805Y-144453120D01*
X115751875Y-144453120D01*
X115706857Y-144448686D01*
X115669468Y-144437344D01*
X115635014Y-144418929D01*
X115604815Y-144394145D01*
X115580031Y-144363946D01*
X115561616Y-144329492D01*
X115550274Y-144292103D01*
X115545840Y-144247085D01*
X115545840Y-143382155D01*
X115550274Y-143337137D01*
X115561616Y-143299748D01*
X115580031Y-143265294D01*
X115604815Y-143235095D01*
X115635014Y-143210311D01*
X115669468Y-143191896D01*
X115706857Y-143180554D01*
X115751875Y-143176120D01*
X116891805Y-143176120D01*
X116936823Y-143180554D01*
G37*
G36*
X159011164Y-142725085D02*
G01*
X159034613Y-142732198D01*
X159058999Y-142734600D01*
X163334000Y-142734600D01*
X163334000Y-144336600D01*
X159055743Y-144336600D01*
X159054836Y-144336115D01*
X159031387Y-144329002D01*
X159007001Y-144326600D01*
X157958999Y-144326600D01*
X157934613Y-144329002D01*
X157911164Y-144336115D01*
X157910257Y-144336600D01*
X154732000Y-144336600D01*
X154732000Y-142734600D01*
X157907001Y-142734600D01*
X157931387Y-142732198D01*
X157954836Y-142725085D01*
X157955743Y-142724600D01*
X159010257Y-142724600D01*
X159011164Y-142725085D01*
G37*
G36*
X119713180Y-143060540D02*
G01*
X118051180Y-143060540D01*
X118051180Y-142308540D01*
X119713180Y-142308540D01*
X119713180Y-143060540D01*
G37*
G36*
X122413180Y-143060540D02*
G01*
X120751180Y-143060540D01*
X120751180Y-140408540D01*
X122413180Y-140408540D01*
X122413180Y-143060540D01*
G37*
G36*
X116936823Y-141105554D02*
G01*
X116974212Y-141116896D01*
X117008666Y-141135311D01*
X117038865Y-141160095D01*
X117063649Y-141190294D01*
X117082064Y-141224748D01*
X117093406Y-141262137D01*
X117097840Y-141307155D01*
X117097840Y-142172085D01*
X117093406Y-142217103D01*
X117082064Y-142254492D01*
X117063649Y-142288946D01*
X117038865Y-142319145D01*
X117008666Y-142343929D01*
X116974212Y-142362344D01*
X116936823Y-142373686D01*
X116891805Y-142378120D01*
X115751875Y-142378120D01*
X115706857Y-142373686D01*
X115669468Y-142362344D01*
X115635014Y-142343929D01*
X115604815Y-142319145D01*
X115580031Y-142288946D01*
X115561616Y-142254492D01*
X115550274Y-142217103D01*
X115545840Y-142172085D01*
X115545840Y-141307155D01*
X115550274Y-141262137D01*
X115561616Y-141224748D01*
X115580031Y-141190294D01*
X115604815Y-141160095D01*
X115635014Y-141135311D01*
X115669468Y-141116896D01*
X115706857Y-141105554D01*
X115751875Y-141101120D01*
X116891805Y-141101120D01*
X116936823Y-141105554D01*
G37*
G36*
X172173274Y-139953465D02*
G01*
X172210967Y-139964899D01*
X172245703Y-139983466D01*
X172276148Y-140008452D01*
X172301134Y-140038897D01*
X172319701Y-140073633D01*
X172331135Y-140111326D01*
X172335600Y-140156661D01*
X172335600Y-141243339D01*
X172331135Y-141288674D01*
X172319701Y-141326367D01*
X172301134Y-141361103D01*
X172276148Y-141391548D01*
X172245703Y-141416534D01*
X172210967Y-141435101D01*
X172173274Y-141446535D01*
X172127939Y-141451000D01*
X171291261Y-141451000D01*
X171245926Y-141446535D01*
X171208233Y-141435101D01*
X171173497Y-141416534D01*
X171143052Y-141391548D01*
X171118066Y-141361103D01*
X171099499Y-141326367D01*
X171088065Y-141288674D01*
X171083600Y-141243339D01*
X171083600Y-140156661D01*
X171088065Y-140111326D01*
X171099499Y-140073633D01*
X171118066Y-140038897D01*
X171143052Y-140008452D01*
X171173497Y-139983466D01*
X171208233Y-139964899D01*
X171245926Y-139953465D01*
X171291261Y-139949000D01*
X172127939Y-139949000D01*
X172173274Y-139953465D01*
G37*
G36*
X170123274Y-139953465D02*
G01*
X170160967Y-139964899D01*
X170195703Y-139983466D01*
X170226148Y-140008452D01*
X170251134Y-140038897D01*
X170269701Y-140073633D01*
X170281135Y-140111326D01*
X170285600Y-140156661D01*
X170285600Y-141243339D01*
X170281135Y-141288674D01*
X170269701Y-141326367D01*
X170251134Y-141361103D01*
X170226148Y-141391548D01*
X170195703Y-141416534D01*
X170160967Y-141435101D01*
X170123274Y-141446535D01*
X170077939Y-141451000D01*
X169241261Y-141451000D01*
X169195926Y-141446535D01*
X169158233Y-141435101D01*
X169123497Y-141416534D01*
X169093052Y-141391548D01*
X169068066Y-141361103D01*
X169049499Y-141326367D01*
X169038065Y-141288674D01*
X169033600Y-141243339D01*
X169033600Y-140156661D01*
X169038065Y-140111326D01*
X169049499Y-140073633D01*
X169068066Y-140038897D01*
X169093052Y-140008452D01*
X169123497Y-139983466D01*
X169158233Y-139964899D01*
X169195926Y-139953465D01*
X169241261Y-139949000D01*
X170077939Y-139949000D01*
X170123274Y-139953465D01*
G37*
G36*
X119713180Y-141160540D02*
G01*
X118051180Y-141160540D01*
X118051180Y-140408540D01*
X119713180Y-140408540D01*
X119713180Y-141160540D01*
G37*
G36*
X179302161Y-139169304D02*
G01*
X179339258Y-139180557D01*
X179373439Y-139198827D01*
X179403403Y-139223417D01*
X179427993Y-139253381D01*
X179446263Y-139287562D01*
X179457516Y-139324659D01*
X179461920Y-139369373D01*
X179461920Y-140462427D01*
X179457516Y-140507141D01*
X179446263Y-140544238D01*
X179427993Y-140578419D01*
X179403403Y-140608383D01*
X179373439Y-140632973D01*
X179339258Y-140651243D01*
X179302161Y-140662496D01*
X179257447Y-140666900D01*
X178364393Y-140666900D01*
X178319679Y-140662496D01*
X178282582Y-140651243D01*
X178248401Y-140632973D01*
X178218437Y-140608383D01*
X178193847Y-140578419D01*
X178175577Y-140544238D01*
X178164324Y-140507141D01*
X178159920Y-140462427D01*
X178159920Y-139369373D01*
X178164324Y-139324659D01*
X178175577Y-139287562D01*
X178193847Y-139253381D01*
X178218437Y-139223417D01*
X178248401Y-139198827D01*
X178282582Y-139180557D01*
X178319679Y-139169304D01*
X178364393Y-139164900D01*
X179257447Y-139164900D01*
X179302161Y-139169304D01*
G37*
G36*
X181302161Y-139169304D02*
G01*
X181339258Y-139180557D01*
X181373439Y-139198827D01*
X181403403Y-139223417D01*
X181427993Y-139253381D01*
X181446263Y-139287562D01*
X181457516Y-139324659D01*
X181461920Y-139369373D01*
X181461920Y-140462427D01*
X181457516Y-140507141D01*
X181446263Y-140544238D01*
X181427993Y-140578419D01*
X181403403Y-140608383D01*
X181373439Y-140632973D01*
X181339258Y-140651243D01*
X181302161Y-140662496D01*
X181257447Y-140666900D01*
X180364393Y-140666900D01*
X180319679Y-140662496D01*
X180282582Y-140651243D01*
X180248401Y-140632973D01*
X180218437Y-140608383D01*
X180193847Y-140578419D01*
X180175577Y-140544238D01*
X180164324Y-140507141D01*
X180159920Y-140462427D01*
X180159920Y-139369373D01*
X180164324Y-139324659D01*
X180175577Y-139287562D01*
X180193847Y-139253381D01*
X180218437Y-139223417D01*
X180248401Y-139198827D01*
X180282582Y-139180557D01*
X180319679Y-139169304D01*
X180364393Y-139164900D01*
X181257447Y-139164900D01*
X181302161Y-139169304D01*
G37*
G36*
X114189600Y-137360189D02*
G01*
X114222652Y-137370215D01*
X114253103Y-137386492D01*
X114279799Y-137408401D01*
X114301708Y-137435097D01*
X114317985Y-137465548D01*
X114328011Y-137498600D01*
X114332000Y-137539103D01*
X114332000Y-138975297D01*
X114328011Y-139015800D01*
X114317985Y-139048852D01*
X114301708Y-139079303D01*
X114279799Y-139105999D01*
X114253103Y-139127908D01*
X114222652Y-139144185D01*
X114189600Y-139154211D01*
X114149097Y-139158200D01*
X112462903Y-139158200D01*
X112422400Y-139154211D01*
X112389348Y-139144185D01*
X112358897Y-139127908D01*
X112332201Y-139105999D01*
X112310292Y-139079303D01*
X112294015Y-139048852D01*
X112283989Y-139015800D01*
X112280000Y-138975297D01*
X112280000Y-137539103D01*
X112283989Y-137498600D01*
X112294015Y-137465548D01*
X112310292Y-137435097D01*
X112332201Y-137408401D01*
X112358897Y-137386492D01*
X112389348Y-137370215D01*
X112422400Y-137360189D01*
X112462903Y-137356200D01*
X114149097Y-137356200D01*
X114189600Y-137360189D01*
G37*
G36*
X167329000Y-138886600D02*
G01*
X165777000Y-138886600D01*
X165777000Y-136784600D01*
X167329000Y-136784600D01*
X167329000Y-138886600D01*
G37*
G36*
X153579000Y-138886600D02*
G01*
X152027000Y-138886600D01*
X152027000Y-136784600D01*
X153579000Y-136784600D01*
X153579000Y-138886600D01*
G37*
G36*
X119221604Y-136873295D02*
G01*
X119257635Y-136884226D01*
X119290847Y-136901977D01*
X119319955Y-136925865D01*
X119343843Y-136954973D01*
X119361594Y-136988185D01*
X119372525Y-137024216D01*
X119376820Y-137067829D01*
X119376820Y-138522171D01*
X119372525Y-138565784D01*
X119361594Y-138601815D01*
X119343843Y-138635027D01*
X119319955Y-138664135D01*
X119290847Y-138688023D01*
X119257635Y-138705774D01*
X119221604Y-138716705D01*
X119177991Y-138721000D01*
X118173649Y-138721000D01*
X118130036Y-138716705D01*
X118094005Y-138705774D01*
X118060793Y-138688023D01*
X118031685Y-138664135D01*
X118007797Y-138635027D01*
X117990046Y-138601815D01*
X117979115Y-138565784D01*
X117974820Y-138522171D01*
X117974820Y-137067829D01*
X117979115Y-137024216D01*
X117990046Y-136988185D01*
X118007797Y-136954973D01*
X118031685Y-136925865D01*
X118060793Y-136901977D01*
X118094005Y-136884226D01*
X118130036Y-136873295D01*
X118173649Y-136869000D01*
X119177991Y-136869000D01*
X119221604Y-136873295D01*
G37*
G36*
X122321604Y-136873295D02*
G01*
X122357635Y-136884226D01*
X122390847Y-136901977D01*
X122419955Y-136925865D01*
X122443843Y-136954973D01*
X122461594Y-136988185D01*
X122472525Y-137024216D01*
X122476820Y-137067829D01*
X122476820Y-138522171D01*
X122472525Y-138565784D01*
X122461594Y-138601815D01*
X122443843Y-138635027D01*
X122419955Y-138664135D01*
X122390847Y-138688023D01*
X122357635Y-138705774D01*
X122321604Y-138716705D01*
X122277991Y-138721000D01*
X121273649Y-138721000D01*
X121230036Y-138716705D01*
X121194005Y-138705774D01*
X121160793Y-138688023D01*
X121131685Y-138664135D01*
X121107797Y-138635027D01*
X121090046Y-138601815D01*
X121079115Y-138565784D01*
X121074820Y-138522171D01*
X121074820Y-137067829D01*
X121079115Y-137024216D01*
X121090046Y-136988185D01*
X121107797Y-136954973D01*
X121131685Y-136925865D01*
X121160793Y-136901977D01*
X121194005Y-136884226D01*
X121230036Y-136873295D01*
X121273649Y-136869000D01*
X122277991Y-136869000D01*
X122321604Y-136873295D01*
G37*
G36*
X172198674Y-136473665D02*
G01*
X172236367Y-136485099D01*
X172271103Y-136503666D01*
X172301548Y-136528652D01*
X172326534Y-136559097D01*
X172345101Y-136593833D01*
X172356535Y-136631526D01*
X172361000Y-136676861D01*
X172361000Y-137763539D01*
X172356535Y-137808874D01*
X172345101Y-137846567D01*
X172326534Y-137881303D01*
X172301548Y-137911748D01*
X172271103Y-137936734D01*
X172236367Y-137955301D01*
X172198674Y-137966735D01*
X172153339Y-137971200D01*
X171316661Y-137971200D01*
X171271326Y-137966735D01*
X171233633Y-137955301D01*
X171198897Y-137936734D01*
X171168452Y-137911748D01*
X171143466Y-137881303D01*
X171124899Y-137846567D01*
X171113465Y-137808874D01*
X171109000Y-137763539D01*
X171109000Y-136676861D01*
X171113465Y-136631526D01*
X171124899Y-136593833D01*
X171143466Y-136559097D01*
X171168452Y-136528652D01*
X171198897Y-136503666D01*
X171233633Y-136485099D01*
X171271326Y-136473665D01*
X171316661Y-136469200D01*
X172153339Y-136469200D01*
X172198674Y-136473665D01*
G37*
G36*
X170148674Y-136473665D02*
G01*
X170186367Y-136485099D01*
X170221103Y-136503666D01*
X170251548Y-136528652D01*
X170276534Y-136559097D01*
X170295101Y-136593833D01*
X170306535Y-136631526D01*
X170311000Y-136676861D01*
X170311000Y-137763539D01*
X170306535Y-137808874D01*
X170295101Y-137846567D01*
X170276534Y-137881303D01*
X170251548Y-137911748D01*
X170221103Y-137936734D01*
X170186367Y-137955301D01*
X170148674Y-137966735D01*
X170103339Y-137971200D01*
X169266661Y-137971200D01*
X169221326Y-137966735D01*
X169183633Y-137955301D01*
X169148897Y-137936734D01*
X169118452Y-137911748D01*
X169093466Y-137881303D01*
X169074899Y-137846567D01*
X169063465Y-137808874D01*
X169059000Y-137763539D01*
X169059000Y-136676861D01*
X169063465Y-136631526D01*
X169074899Y-136593833D01*
X169093466Y-136559097D01*
X169118452Y-136528652D01*
X169148897Y-136503666D01*
X169183633Y-136485099D01*
X169221326Y-136473665D01*
X169266661Y-136469200D01*
X170103339Y-136469200D01*
X170148674Y-136473665D01*
G37*
G36*
X181450600Y-136747400D02*
G01*
X180448600Y-136747400D01*
X180448600Y-135845400D01*
X181450600Y-135845400D01*
X181450600Y-136747400D01*
G37*
G36*
X130529787Y-129723462D02*
G01*
X130529790Y-129723463D01*
X130529789Y-129723463D01*
X131176029Y-129991144D01*
X131757631Y-130379758D01*
X132252242Y-130874369D01*
X132640856Y-131455971D01*
X132759245Y-131741788D01*
X132908538Y-132102213D01*
X133045000Y-132788256D01*
X133045000Y-133487744D01*
X132908538Y-134173787D01*
X132908537Y-134173789D01*
X132640856Y-134820029D01*
X132252242Y-135401631D01*
X131757631Y-135896242D01*
X131176029Y-136284856D01*
X130904357Y-136397386D01*
X130529787Y-136552538D01*
X129843744Y-136689000D01*
X129144256Y-136689000D01*
X128458213Y-136552538D01*
X128083643Y-136397386D01*
X127811971Y-136284856D01*
X127230369Y-135896242D01*
X126735758Y-135401631D01*
X126347144Y-134820029D01*
X126079463Y-134173789D01*
X126079462Y-134173787D01*
X125943000Y-133487744D01*
X125943000Y-132788256D01*
X126079462Y-132102213D01*
X126228755Y-131741788D01*
X126347144Y-131455971D01*
X126735758Y-130874369D01*
X127230369Y-130379758D01*
X127811971Y-129991144D01*
X128458211Y-129723463D01*
X128458210Y-129723463D01*
X128458213Y-129723462D01*
X129144256Y-129587000D01*
X129843744Y-129587000D01*
X130529787Y-129723462D01*
G37*
G36*
X113541442Y-134862718D02*
G01*
X113607627Y-134869237D01*
X113777466Y-134920757D01*
X113933991Y-135004422D01*
X113969729Y-135033752D01*
X114071186Y-135117014D01*
X114154448Y-135218471D01*
X114183778Y-135254209D01*
X114267443Y-135410734D01*
X114318963Y-135580573D01*
X114336359Y-135757200D01*
X114318963Y-135933827D01*
X114267443Y-136103666D01*
X114183778Y-136260191D01*
X114163536Y-136284856D01*
X114071186Y-136397386D01*
X113983679Y-136469200D01*
X113933991Y-136509978D01*
X113933989Y-136509979D01*
X113783979Y-136590162D01*
X113777466Y-136593643D01*
X113607627Y-136645163D01*
X113541443Y-136651681D01*
X113475260Y-136658200D01*
X113136740Y-136658200D01*
X113070557Y-136651681D01*
X113004373Y-136645163D01*
X112834534Y-136593643D01*
X112828022Y-136590162D01*
X112678011Y-136509979D01*
X112678009Y-136509978D01*
X112628321Y-136469200D01*
X112540814Y-136397386D01*
X112448464Y-136284856D01*
X112428222Y-136260191D01*
X112344557Y-136103666D01*
X112293037Y-135933827D01*
X112275641Y-135757200D01*
X112293037Y-135580573D01*
X112344557Y-135410734D01*
X112428222Y-135254209D01*
X112457552Y-135218471D01*
X112540814Y-135117014D01*
X112642271Y-135033752D01*
X112678009Y-135004422D01*
X112834534Y-134920757D01*
X113004373Y-134869237D01*
X113070558Y-134862718D01*
X113136740Y-134856200D01*
X113475260Y-134856200D01*
X113541442Y-134862718D01*
G37*
G36*
X179450600Y-135797400D02*
G01*
X178448600Y-135797400D01*
X178448600Y-134895400D01*
X179450600Y-134895400D01*
X179450600Y-135797400D01*
G37*
G36*
X181450600Y-134847400D02*
G01*
X180448600Y-134847400D01*
X180448600Y-133945400D01*
X181450600Y-133945400D01*
X181450600Y-134847400D01*
G37*
G36*
X170208961Y-133030124D02*
G01*
X170246058Y-133041377D01*
X170280239Y-133059647D01*
X170310203Y-133084237D01*
X170334793Y-133114201D01*
X170353063Y-133148382D01*
X170364316Y-133185479D01*
X170368720Y-133230193D01*
X170368720Y-134323247D01*
X170364316Y-134367961D01*
X170353063Y-134405058D01*
X170334793Y-134439239D01*
X170310203Y-134469203D01*
X170280239Y-134493793D01*
X170246058Y-134512063D01*
X170208961Y-134523316D01*
X170164247Y-134527720D01*
X169271193Y-134527720D01*
X169226479Y-134523316D01*
X169189382Y-134512063D01*
X169155201Y-134493793D01*
X169125237Y-134469203D01*
X169100647Y-134439239D01*
X169082377Y-134405058D01*
X169071124Y-134367961D01*
X169066720Y-134323247D01*
X169066720Y-133230193D01*
X169071124Y-133185479D01*
X169082377Y-133148382D01*
X169100647Y-133114201D01*
X169125237Y-133084237D01*
X169155201Y-133059647D01*
X169189382Y-133041377D01*
X169226479Y-133030124D01*
X169271193Y-133025720D01*
X170164247Y-133025720D01*
X170208961Y-133030124D01*
G37*
G36*
X172208961Y-133030124D02*
G01*
X172246058Y-133041377D01*
X172280239Y-133059647D01*
X172310203Y-133084237D01*
X172334793Y-133114201D01*
X172353063Y-133148382D01*
X172364316Y-133185479D01*
X172368720Y-133230193D01*
X172368720Y-134323247D01*
X172364316Y-134367961D01*
X172353063Y-134405058D01*
X172334793Y-134439239D01*
X172310203Y-134469203D01*
X172280239Y-134493793D01*
X172246058Y-134512063D01*
X172208961Y-134523316D01*
X172164247Y-134527720D01*
X171271193Y-134527720D01*
X171226479Y-134523316D01*
X171189382Y-134512063D01*
X171155201Y-134493793D01*
X171125237Y-134469203D01*
X171100647Y-134439239D01*
X171082377Y-134405058D01*
X171071124Y-134367961D01*
X171066720Y-134323247D01*
X171066720Y-133230193D01*
X171071124Y-133185479D01*
X171082377Y-133148382D01*
X171100647Y-133114201D01*
X171125237Y-133084237D01*
X171155201Y-133059647D01*
X171189382Y-133041377D01*
X171226479Y-133030124D01*
X171271193Y-133025720D01*
X172164247Y-133025720D01*
X172208961Y-133030124D01*
G37*
G36*
X113541443Y-132362719D02*
G01*
X113607627Y-132369237D01*
X113777466Y-132420757D01*
X113933991Y-132504422D01*
X113952612Y-132519704D01*
X114071186Y-132617014D01*
X114133225Y-132692610D01*
X114183778Y-132754209D01*
X114267443Y-132910734D01*
X114318963Y-133080573D01*
X114336359Y-133257200D01*
X114318963Y-133433827D01*
X114267443Y-133603666D01*
X114183778Y-133760191D01*
X114154448Y-133795929D01*
X114071186Y-133897386D01*
X113969729Y-133980648D01*
X113933991Y-134009978D01*
X113777466Y-134093643D01*
X113607627Y-134145163D01*
X113541443Y-134151681D01*
X113475260Y-134158200D01*
X113136740Y-134158200D01*
X113070557Y-134151681D01*
X113004373Y-134145163D01*
X112834534Y-134093643D01*
X112678009Y-134009978D01*
X112642271Y-133980648D01*
X112540814Y-133897386D01*
X112457552Y-133795929D01*
X112428222Y-133760191D01*
X112344557Y-133603666D01*
X112293037Y-133433827D01*
X112275641Y-133257200D01*
X112293037Y-133080573D01*
X112344557Y-132910734D01*
X112428222Y-132754209D01*
X112478775Y-132692610D01*
X112540814Y-132617014D01*
X112659388Y-132519704D01*
X112678009Y-132504422D01*
X112834534Y-132420757D01*
X113004373Y-132369237D01*
X113070557Y-132362719D01*
X113136740Y-132356200D01*
X113475260Y-132356200D01*
X113541443Y-132362719D01*
G37*
G36*
X177243161Y-132449404D02*
G01*
X177280258Y-132460657D01*
X177314439Y-132478927D01*
X177344403Y-132503517D01*
X177368993Y-132533481D01*
X177387263Y-132567662D01*
X177398516Y-132604759D01*
X177402920Y-132649473D01*
X177402920Y-133542527D01*
X177398516Y-133587241D01*
X177387263Y-133624338D01*
X177368993Y-133658519D01*
X177344403Y-133688483D01*
X177314439Y-133713073D01*
X177280258Y-133731343D01*
X177243161Y-133742596D01*
X177198447Y-133747000D01*
X176105393Y-133747000D01*
X176060679Y-133742596D01*
X176023582Y-133731343D01*
X175989401Y-133713073D01*
X175959437Y-133688483D01*
X175934847Y-133658519D01*
X175916577Y-133624338D01*
X175905324Y-133587241D01*
X175900920Y-133542527D01*
X175900920Y-132649473D01*
X175905324Y-132604759D01*
X175916577Y-132567662D01*
X175934847Y-132533481D01*
X175959437Y-132503517D01*
X175989401Y-132478927D01*
X176023582Y-132460657D01*
X176060679Y-132449404D01*
X176105393Y-132445000D01*
X177198447Y-132445000D01*
X177243161Y-132449404D01*
G37*
G36*
X160083783Y-131190834D02*
G01*
X160121172Y-131202176D01*
X160155626Y-131220591D01*
X160185825Y-131245375D01*
X160210609Y-131275574D01*
X160229024Y-131310028D01*
X160240366Y-131347417D01*
X160244800Y-131392435D01*
X160244800Y-132532365D01*
X160240366Y-132577383D01*
X160229024Y-132614772D01*
X160210609Y-132649226D01*
X160185825Y-132679425D01*
X160155626Y-132704209D01*
X160121172Y-132722624D01*
X160083783Y-132733966D01*
X160038765Y-132738400D01*
X159173835Y-132738400D01*
X159128817Y-132733966D01*
X159091428Y-132722624D01*
X159056974Y-132704209D01*
X159026775Y-132679425D01*
X159001991Y-132649226D01*
X158983576Y-132614772D01*
X158972234Y-132577383D01*
X158967800Y-132532365D01*
X158967800Y-131392435D01*
X158972234Y-131347417D01*
X158983576Y-131310028D01*
X159001991Y-131275574D01*
X159026775Y-131245375D01*
X159056974Y-131220591D01*
X159091428Y-131202176D01*
X159128817Y-131190834D01*
X159173835Y-131186400D01*
X160038765Y-131186400D01*
X160083783Y-131190834D01*
G37*
G36*
X158008783Y-131190834D02*
G01*
X158046172Y-131202176D01*
X158080626Y-131220591D01*
X158110825Y-131245375D01*
X158135609Y-131275574D01*
X158154024Y-131310028D01*
X158165366Y-131347417D01*
X158169800Y-131392435D01*
X158169800Y-132532365D01*
X158165366Y-132577383D01*
X158154024Y-132614772D01*
X158135609Y-132649226D01*
X158110825Y-132679425D01*
X158080626Y-132704209D01*
X158046172Y-132722624D01*
X158008783Y-132733966D01*
X157963765Y-132738400D01*
X157098835Y-132738400D01*
X157053817Y-132733966D01*
X157016428Y-132722624D01*
X156981974Y-132704209D01*
X156951775Y-132679425D01*
X156926991Y-132649226D01*
X156908576Y-132614772D01*
X156897234Y-132577383D01*
X156892800Y-132532365D01*
X156892800Y-131392435D01*
X156897234Y-131347417D01*
X156908576Y-131310028D01*
X156926991Y-131275574D01*
X156951775Y-131245375D01*
X156981974Y-131220591D01*
X157016428Y-131202176D01*
X157053817Y-131190834D01*
X157098835Y-131186400D01*
X157963765Y-131186400D01*
X158008783Y-131190834D01*
G37*
G36*
X181748181Y-130492664D02*
G01*
X181785278Y-130503917D01*
X181819459Y-130522187D01*
X181849423Y-130546777D01*
X181874013Y-130576741D01*
X181892283Y-130610922D01*
X181903536Y-130648019D01*
X181907940Y-130692733D01*
X181907940Y-131785787D01*
X181903536Y-131830501D01*
X181892283Y-131867598D01*
X181874013Y-131901779D01*
X181849423Y-131931743D01*
X181819459Y-131956333D01*
X181785278Y-131974603D01*
X181748181Y-131985856D01*
X181703467Y-131990260D01*
X180810413Y-131990260D01*
X180765699Y-131985856D01*
X180728602Y-131974603D01*
X180694421Y-131956333D01*
X180664457Y-131931743D01*
X180639867Y-131901779D01*
X180621597Y-131867598D01*
X180610344Y-131830501D01*
X180605940Y-131785787D01*
X180605940Y-130692733D01*
X180610344Y-130648019D01*
X180621597Y-130610922D01*
X180639867Y-130576741D01*
X180664457Y-130546777D01*
X180694421Y-130522187D01*
X180728602Y-130503917D01*
X180765699Y-130492664D01*
X180810413Y-130488260D01*
X181703467Y-130488260D01*
X181748181Y-130492664D01*
G37*
G36*
X179748181Y-130492664D02*
G01*
X179785278Y-130503917D01*
X179819459Y-130522187D01*
X179849423Y-130546777D01*
X179874013Y-130576741D01*
X179892283Y-130610922D01*
X179903536Y-130648019D01*
X179907940Y-130692733D01*
X179907940Y-131785787D01*
X179903536Y-131830501D01*
X179892283Y-131867598D01*
X179874013Y-131901779D01*
X179849423Y-131931743D01*
X179819459Y-131956333D01*
X179785278Y-131974603D01*
X179748181Y-131985856D01*
X179703467Y-131990260D01*
X178810413Y-131990260D01*
X178765699Y-131985856D01*
X178728602Y-131974603D01*
X178694421Y-131956333D01*
X178664457Y-131931743D01*
X178639867Y-131901779D01*
X178621597Y-131867598D01*
X178610344Y-131830501D01*
X178605940Y-131785787D01*
X178605940Y-130692733D01*
X178610344Y-130648019D01*
X178621597Y-130610922D01*
X178639867Y-130576741D01*
X178664457Y-130546777D01*
X178694421Y-130522187D01*
X178728602Y-130503917D01*
X178765699Y-130492664D01*
X178810413Y-130488260D01*
X179703467Y-130488260D01*
X179748181Y-130492664D01*
G37*
G36*
X177243161Y-130449404D02*
G01*
X177280258Y-130460657D01*
X177314439Y-130478927D01*
X177344403Y-130503517D01*
X177368993Y-130533481D01*
X177387263Y-130567662D01*
X177398516Y-130604759D01*
X177402920Y-130649473D01*
X177402920Y-131542527D01*
X177398516Y-131587241D01*
X177387263Y-131624338D01*
X177368993Y-131658519D01*
X177344403Y-131688483D01*
X177314439Y-131713073D01*
X177280258Y-131731343D01*
X177243161Y-131742596D01*
X177198447Y-131747000D01*
X176105393Y-131747000D01*
X176060679Y-131742596D01*
X176023582Y-131731343D01*
X175989401Y-131713073D01*
X175959437Y-131688483D01*
X175934847Y-131658519D01*
X175916577Y-131624338D01*
X175905324Y-131587241D01*
X175900920Y-131542527D01*
X175900920Y-130649473D01*
X175905324Y-130604759D01*
X175916577Y-130567662D01*
X175934847Y-130533481D01*
X175959437Y-130503517D01*
X175989401Y-130478927D01*
X176023582Y-130460657D01*
X176060679Y-130449404D01*
X176105393Y-130445000D01*
X177198447Y-130445000D01*
X177243161Y-130449404D01*
G37*
G36*
X113541443Y-129862719D02*
G01*
X113607627Y-129869237D01*
X113777466Y-129920757D01*
X113933991Y-130004422D01*
X113969729Y-130033752D01*
X114071186Y-130117014D01*
X114154448Y-130218471D01*
X114183778Y-130254209D01*
X114267443Y-130410734D01*
X114318963Y-130580573D01*
X114336359Y-130757200D01*
X114318963Y-130933827D01*
X114267443Y-131103666D01*
X114183778Y-131260191D01*
X114179027Y-131265980D01*
X114071186Y-131397386D01*
X113997202Y-131458102D01*
X113933991Y-131509978D01*
X113933989Y-131509979D01*
X113803825Y-131579554D01*
X113777466Y-131593643D01*
X113607627Y-131645163D01*
X113541442Y-131651682D01*
X113475260Y-131658200D01*
X113136740Y-131658200D01*
X113070558Y-131651682D01*
X113004373Y-131645163D01*
X112834534Y-131593643D01*
X112808176Y-131579554D01*
X112678011Y-131509979D01*
X112678009Y-131509978D01*
X112614798Y-131458102D01*
X112540814Y-131397386D01*
X112432973Y-131265980D01*
X112428222Y-131260191D01*
X112344557Y-131103666D01*
X112293037Y-130933827D01*
X112275641Y-130757200D01*
X112293037Y-130580573D01*
X112344557Y-130410734D01*
X112428222Y-130254209D01*
X112457552Y-130218471D01*
X112540814Y-130117014D01*
X112642271Y-130033752D01*
X112678009Y-130004422D01*
X112834534Y-129920757D01*
X113004373Y-129869237D01*
X113070557Y-129862719D01*
X113136740Y-129856200D01*
X113475260Y-129856200D01*
X113541443Y-129862719D01*
G37*
G36*
X172226641Y-129488604D02*
G01*
X172263738Y-129499857D01*
X172297919Y-129518127D01*
X172327883Y-129542717D01*
X172352473Y-129572681D01*
X172370743Y-129606862D01*
X172381996Y-129643959D01*
X172386400Y-129688673D01*
X172386400Y-130781727D01*
X172381996Y-130826441D01*
X172370743Y-130863538D01*
X172352473Y-130897719D01*
X172327883Y-130927683D01*
X172297919Y-130952273D01*
X172263738Y-130970543D01*
X172226641Y-130981796D01*
X172181927Y-130986200D01*
X171288873Y-130986200D01*
X171244159Y-130981796D01*
X171207062Y-130970543D01*
X171172881Y-130952273D01*
X171142917Y-130927683D01*
X171118327Y-130897719D01*
X171100057Y-130863538D01*
X171088804Y-130826441D01*
X171084400Y-130781727D01*
X171084400Y-129688673D01*
X171088804Y-129643959D01*
X171100057Y-129606862D01*
X171118327Y-129572681D01*
X171142917Y-129542717D01*
X171172881Y-129518127D01*
X171207062Y-129499857D01*
X171244159Y-129488604D01*
X171288873Y-129484200D01*
X172181927Y-129484200D01*
X172226641Y-129488604D01*
G37*
G36*
X170226641Y-129488604D02*
G01*
X170263738Y-129499857D01*
X170297919Y-129518127D01*
X170327883Y-129542717D01*
X170352473Y-129572681D01*
X170370743Y-129606862D01*
X170381996Y-129643959D01*
X170386400Y-129688673D01*
X170386400Y-130781727D01*
X170381996Y-130826441D01*
X170370743Y-130863538D01*
X170352473Y-130897719D01*
X170327883Y-130927683D01*
X170297919Y-130952273D01*
X170263738Y-130970543D01*
X170226641Y-130981796D01*
X170181927Y-130986200D01*
X169288873Y-130986200D01*
X169244159Y-130981796D01*
X169207062Y-130970543D01*
X169172881Y-130952273D01*
X169142917Y-130927683D01*
X169118327Y-130897719D01*
X169100057Y-130863538D01*
X169088804Y-130826441D01*
X169084400Y-130781727D01*
X169084400Y-129688673D01*
X169088804Y-129643959D01*
X169100057Y-129606862D01*
X169118327Y-129572681D01*
X169142917Y-129542717D01*
X169172881Y-129518127D01*
X169207062Y-129499857D01*
X169244159Y-129488604D01*
X169288873Y-129484200D01*
X170181927Y-129484200D01*
X170226641Y-129488604D01*
G37*
G36*
X113541443Y-127362719D02*
G01*
X113607627Y-127369237D01*
X113777466Y-127420757D01*
X113933991Y-127504422D01*
X113969729Y-127533752D01*
X114071186Y-127617014D01*
X114154448Y-127718471D01*
X114183778Y-127754209D01*
X114267443Y-127910734D01*
X114318963Y-128080573D01*
X114336359Y-128257200D01*
X114318963Y-128433827D01*
X114267443Y-128603666D01*
X114183778Y-128760191D01*
X114163549Y-128784840D01*
X114071186Y-128897386D01*
X113969729Y-128980648D01*
X113933991Y-129009978D01*
X113777466Y-129093643D01*
X113607627Y-129145163D01*
X113541443Y-129151681D01*
X113475260Y-129158200D01*
X113136740Y-129158200D01*
X113070557Y-129151681D01*
X113004373Y-129145163D01*
X112834534Y-129093643D01*
X112678009Y-129009978D01*
X112642271Y-128980648D01*
X112540814Y-128897386D01*
X112448451Y-128784840D01*
X112428222Y-128760191D01*
X112344557Y-128603666D01*
X112293037Y-128433827D01*
X112275641Y-128257200D01*
X112293037Y-128080573D01*
X112344557Y-127910734D01*
X112428222Y-127754209D01*
X112457552Y-127718471D01*
X112540814Y-127617014D01*
X112642271Y-127533752D01*
X112678009Y-127504422D01*
X112834534Y-127420757D01*
X113004373Y-127369237D01*
X113070557Y-127362719D01*
X113136740Y-127356200D01*
X113475260Y-127356200D01*
X113541443Y-127362719D01*
G37*
G36*
X138806949Y-126761916D02*
G01*
X138918134Y-126784032D01*
X139127603Y-126870797D01*
X139316120Y-126996760D01*
X139476440Y-127157080D01*
X139602403Y-127345597D01*
X139689168Y-127555066D01*
X139733400Y-127777436D01*
X139733400Y-128004164D01*
X139689168Y-128226534D01*
X139653585Y-128312438D01*
X139609263Y-128419443D01*
X139602403Y-128436003D01*
X139476440Y-128624520D01*
X139316120Y-128784840D01*
X139127603Y-128910803D01*
X138918134Y-128997568D01*
X138855739Y-129009979D01*
X138695765Y-129041800D01*
X138469035Y-129041800D01*
X138309061Y-129009979D01*
X138246666Y-128997568D01*
X138037197Y-128910803D01*
X137848680Y-128784840D01*
X137688360Y-128624520D01*
X137562397Y-128436003D01*
X137555538Y-128419443D01*
X137511215Y-128312438D01*
X137475632Y-128226534D01*
X137431400Y-128004164D01*
X137431400Y-127777436D01*
X137475632Y-127555066D01*
X137562397Y-127345597D01*
X137688360Y-127157080D01*
X137848680Y-126996760D01*
X138037197Y-126870797D01*
X138246666Y-126784032D01*
X138357851Y-126761916D01*
X138469035Y-126739800D01*
X138695765Y-126739800D01*
X138806949Y-126761916D01*
G37*
G36*
X146553949Y-126711116D02*
G01*
X146665134Y-126733232D01*
X146874603Y-126819997D01*
X147063120Y-126945960D01*
X147223440Y-127106280D01*
X147349403Y-127294797D01*
X147436168Y-127504266D01*
X147480400Y-127726636D01*
X147480400Y-127953364D01*
X147436168Y-128175734D01*
X147349403Y-128385203D01*
X147223440Y-128573720D01*
X147063120Y-128734040D01*
X146874603Y-128860003D01*
X146665134Y-128946768D01*
X146553949Y-128968884D01*
X146442765Y-128991000D01*
X146216035Y-128991000D01*
X146104851Y-128968884D01*
X145993666Y-128946768D01*
X145784197Y-128860003D01*
X145595680Y-128734040D01*
X145435360Y-128573720D01*
X145309397Y-128385203D01*
X145222632Y-128175734D01*
X145178400Y-127953364D01*
X145178400Y-127726636D01*
X145222632Y-127504266D01*
X145309397Y-127294797D01*
X145435360Y-127106280D01*
X145595680Y-126945960D01*
X145784197Y-126819997D01*
X145993666Y-126733232D01*
X146104851Y-126711116D01*
X146216035Y-126689000D01*
X146442765Y-126689000D01*
X146553949Y-126711116D01*
G37*
G36*
X181721181Y-127137504D02*
G01*
X181758278Y-127148757D01*
X181792459Y-127167027D01*
X181822423Y-127191617D01*
X181847013Y-127221581D01*
X181865283Y-127255762D01*
X181876536Y-127292859D01*
X181880940Y-127337573D01*
X181880940Y-128230627D01*
X181876536Y-128275341D01*
X181865283Y-128312438D01*
X181847013Y-128346619D01*
X181822423Y-128376583D01*
X181792459Y-128401173D01*
X181758278Y-128419443D01*
X181721181Y-128430696D01*
X181676467Y-128435100D01*
X180583413Y-128435100D01*
X180538699Y-128430696D01*
X180501602Y-128419443D01*
X180467421Y-128401173D01*
X180437457Y-128376583D01*
X180412867Y-128346619D01*
X180394597Y-128312438D01*
X180383344Y-128275341D01*
X180378940Y-128230627D01*
X180378940Y-127337573D01*
X180383344Y-127292859D01*
X180394597Y-127255762D01*
X180412867Y-127221581D01*
X180437457Y-127191617D01*
X180467421Y-127167027D01*
X180501602Y-127148757D01*
X180538699Y-127137504D01*
X180583413Y-127133100D01*
X181676467Y-127133100D01*
X181721181Y-127137504D01*
G37*
G36*
X178862794Y-127174105D02*
G01*
X178900487Y-127185539D01*
X178935223Y-127204106D01*
X178965668Y-127229092D01*
X178990654Y-127259537D01*
X179009221Y-127294273D01*
X179020655Y-127331966D01*
X179025120Y-127377301D01*
X179025120Y-128213979D01*
X179020655Y-128259314D01*
X179009221Y-128297007D01*
X178990654Y-128331743D01*
X178965668Y-128362188D01*
X178935223Y-128387174D01*
X178900487Y-128405741D01*
X178862794Y-128417175D01*
X178817459Y-128421640D01*
X177730781Y-128421640D01*
X177685446Y-128417175D01*
X177647753Y-128405741D01*
X177613017Y-128387174D01*
X177582572Y-128362188D01*
X177557586Y-128331743D01*
X177539019Y-128297007D01*
X177527585Y-128259314D01*
X177523120Y-128213979D01*
X177523120Y-127377301D01*
X177527585Y-127331966D01*
X177539019Y-127294273D01*
X177557586Y-127259537D01*
X177582572Y-127229092D01*
X177613017Y-127204106D01*
X177647753Y-127185539D01*
X177685446Y-127174105D01*
X177730781Y-127169640D01*
X178817459Y-127169640D01*
X178862794Y-127174105D01*
G37*
G36*
X155489787Y-121283462D02*
G01*
X155489790Y-121283463D01*
X155489789Y-121283463D01*
X156136029Y-121551144D01*
X156717631Y-121939758D01*
X157212242Y-122434369D01*
X157600856Y-123015971D01*
X157700776Y-123257200D01*
X157868538Y-123662213D01*
X158005000Y-124348256D01*
X158005000Y-125047744D01*
X157868538Y-125733787D01*
X157868537Y-125733789D01*
X157600856Y-126380029D01*
X157212242Y-126961631D01*
X156717631Y-127456242D01*
X156136029Y-127844856D01*
X155679068Y-128034135D01*
X155489787Y-128112538D01*
X154803744Y-128249000D01*
X154104256Y-128249000D01*
X153418213Y-128112538D01*
X153228932Y-128034135D01*
X152771971Y-127844856D01*
X152190369Y-127456242D01*
X151695758Y-126961631D01*
X151307144Y-126380029D01*
X151039463Y-125733789D01*
X151039462Y-125733787D01*
X150903000Y-125047744D01*
X150903000Y-124348256D01*
X151039462Y-123662213D01*
X151207224Y-123257200D01*
X151307144Y-123015971D01*
X151695758Y-122434369D01*
X152190369Y-121939758D01*
X152771971Y-121551144D01*
X153418211Y-121283463D01*
X153418210Y-121283463D01*
X153418213Y-121283462D01*
X154104256Y-121147000D01*
X154803744Y-121147000D01*
X155489787Y-121283462D01*
G37*
G36*
X113541442Y-124862718D02*
G01*
X113607627Y-124869237D01*
X113777466Y-124920757D01*
X113933991Y-125004422D01*
X113969729Y-125033752D01*
X114071186Y-125117014D01*
X114149587Y-125212547D01*
X114183778Y-125254209D01*
X114267443Y-125410734D01*
X114318963Y-125580573D01*
X114336359Y-125757200D01*
X114318963Y-125933827D01*
X114267443Y-126103666D01*
X114183778Y-126260191D01*
X114157737Y-126291922D01*
X114071186Y-126397386D01*
X113969729Y-126480648D01*
X113933991Y-126509978D01*
X113777466Y-126593643D01*
X113607627Y-126645163D01*
X113541443Y-126651681D01*
X113475260Y-126658200D01*
X113136740Y-126658200D01*
X113070557Y-126651681D01*
X113004373Y-126645163D01*
X112834534Y-126593643D01*
X112678009Y-126509978D01*
X112642271Y-126480648D01*
X112540814Y-126397386D01*
X112454263Y-126291922D01*
X112428222Y-126260191D01*
X112344557Y-126103666D01*
X112293037Y-125933827D01*
X112275641Y-125757200D01*
X112293037Y-125580573D01*
X112344557Y-125410734D01*
X112428222Y-125254209D01*
X112462413Y-125212547D01*
X112540814Y-125117014D01*
X112642271Y-125033752D01*
X112678009Y-125004422D01*
X112834534Y-124920757D01*
X113004373Y-124869237D01*
X113070558Y-124862718D01*
X113136740Y-124856200D01*
X113475260Y-124856200D01*
X113541442Y-124862718D01*
G37*
G36*
X181721181Y-125137504D02*
G01*
X181758278Y-125148757D01*
X181792459Y-125167027D01*
X181822423Y-125191617D01*
X181847013Y-125221581D01*
X181865283Y-125255762D01*
X181876536Y-125292859D01*
X181880940Y-125337573D01*
X181880940Y-126230627D01*
X181876536Y-126275341D01*
X181865283Y-126312438D01*
X181847013Y-126346619D01*
X181822423Y-126376583D01*
X181792459Y-126401173D01*
X181758278Y-126419443D01*
X181721181Y-126430696D01*
X181676467Y-126435100D01*
X180583413Y-126435100D01*
X180538699Y-126430696D01*
X180501602Y-126419443D01*
X180467421Y-126401173D01*
X180437457Y-126376583D01*
X180412867Y-126346619D01*
X180394597Y-126312438D01*
X180383344Y-126275341D01*
X180378940Y-126230627D01*
X180378940Y-125337573D01*
X180383344Y-125292859D01*
X180394597Y-125255762D01*
X180412867Y-125221581D01*
X180437457Y-125191617D01*
X180467421Y-125167027D01*
X180501602Y-125148757D01*
X180538699Y-125137504D01*
X180583413Y-125133100D01*
X181676467Y-125133100D01*
X181721181Y-125137504D01*
G37*
G36*
X178862794Y-125124105D02*
G01*
X178900487Y-125135539D01*
X178935223Y-125154106D01*
X178965668Y-125179092D01*
X178990654Y-125209537D01*
X179009221Y-125244273D01*
X179020655Y-125281966D01*
X179025120Y-125327301D01*
X179025120Y-126163979D01*
X179020655Y-126209314D01*
X179009221Y-126247007D01*
X178990654Y-126281743D01*
X178965668Y-126312188D01*
X178935223Y-126337174D01*
X178900487Y-126355741D01*
X178862794Y-126367175D01*
X178817459Y-126371640D01*
X177730781Y-126371640D01*
X177685446Y-126367175D01*
X177647753Y-126355741D01*
X177613017Y-126337174D01*
X177582572Y-126312188D01*
X177557586Y-126281743D01*
X177539019Y-126247007D01*
X177527585Y-126209314D01*
X177523120Y-126163979D01*
X177523120Y-125327301D01*
X177527585Y-125281966D01*
X177539019Y-125244273D01*
X177557586Y-125209537D01*
X177582572Y-125179092D01*
X177613017Y-125154106D01*
X177647753Y-125135539D01*
X177685446Y-125124105D01*
X177730781Y-125119640D01*
X178817459Y-125119640D01*
X178862794Y-125124105D01*
G37*
G36*
X137749023Y-123760189D02*
G01*
X137772290Y-123764817D01*
X137890764Y-123813891D01*
X137997388Y-123885135D01*
X138088065Y-123975812D01*
X138159310Y-124082438D01*
X138208383Y-124200910D01*
X138223296Y-124275882D01*
X138233400Y-124326682D01*
X138233400Y-124454918D01*
X138208383Y-124580690D01*
X138159309Y-124699164D01*
X138088065Y-124805788D01*
X137997388Y-124896465D01*
X137890764Y-124967709D01*
X137890763Y-124967710D01*
X137890762Y-124967710D01*
X137772290Y-125016783D01*
X137646519Y-125041800D01*
X137518281Y-125041800D01*
X137392510Y-125016783D01*
X137274038Y-124967710D01*
X137274037Y-124967710D01*
X137274036Y-124967709D01*
X137167412Y-124896465D01*
X137076735Y-124805788D01*
X137005491Y-124699164D01*
X136956417Y-124580690D01*
X136931400Y-124454918D01*
X136931400Y-124326682D01*
X136941505Y-124275882D01*
X136956417Y-124200910D01*
X137005490Y-124082438D01*
X137076735Y-123975812D01*
X137167412Y-123885135D01*
X137274036Y-123813891D01*
X137392510Y-123764817D01*
X137415777Y-123760189D01*
X137518281Y-123739800D01*
X137646519Y-123739800D01*
X137749023Y-123760189D01*
G37*
G36*
X140233400Y-125041800D02*
G01*
X138931400Y-125041800D01*
X138931400Y-123739800D01*
X140233400Y-123739800D01*
X140233400Y-125041800D01*
G37*
G36*
X145519290Y-123714017D02*
G01*
X145637764Y-123763091D01*
X145744388Y-123834335D01*
X145835065Y-123925012D01*
X145891838Y-124009978D01*
X145906310Y-124031638D01*
X145955383Y-124150110D01*
X145980400Y-124275881D01*
X145980400Y-124404119D01*
X145970295Y-124454919D01*
X145955383Y-124529890D01*
X145906309Y-124648364D01*
X145835065Y-124754988D01*
X145744388Y-124845665D01*
X145637764Y-124916909D01*
X145637763Y-124916910D01*
X145637762Y-124916910D01*
X145519290Y-124965983D01*
X145393519Y-124991000D01*
X145265281Y-124991000D01*
X145139510Y-124965983D01*
X145021038Y-124916910D01*
X145021037Y-124916910D01*
X145021036Y-124916909D01*
X144914412Y-124845665D01*
X144823735Y-124754988D01*
X144752491Y-124648364D01*
X144703417Y-124529890D01*
X144688505Y-124454919D01*
X144678400Y-124404119D01*
X144678400Y-124275881D01*
X144703417Y-124150110D01*
X144752490Y-124031638D01*
X144766963Y-124009978D01*
X144823735Y-123925012D01*
X144914412Y-123834335D01*
X145021036Y-123763091D01*
X145139510Y-123714017D01*
X145265281Y-123689000D01*
X145393519Y-123689000D01*
X145519290Y-123714017D01*
G37*
G36*
X147980400Y-124991000D02*
G01*
X146678400Y-124991000D01*
X146678400Y-123689000D01*
X147980400Y-123689000D01*
X147980400Y-124991000D01*
G37*
G36*
X113541443Y-122362719D02*
G01*
X113607627Y-122369237D01*
X113777466Y-122420757D01*
X113933991Y-122504422D01*
X113965024Y-122529890D01*
X114071186Y-122617014D01*
X114154448Y-122718471D01*
X114183778Y-122754209D01*
X114267443Y-122910734D01*
X114318963Y-123080573D01*
X114336359Y-123257200D01*
X114318963Y-123433827D01*
X114267443Y-123603666D01*
X114183778Y-123760191D01*
X114154448Y-123795929D01*
X114071186Y-123897386D01*
X113975622Y-123975812D01*
X113933991Y-124009978D01*
X113777466Y-124093643D01*
X113607627Y-124145163D01*
X113557398Y-124150110D01*
X113475260Y-124158200D01*
X113136740Y-124158200D01*
X113054602Y-124150110D01*
X113004373Y-124145163D01*
X112834534Y-124093643D01*
X112678009Y-124009978D01*
X112636378Y-123975812D01*
X112540814Y-123897386D01*
X112457552Y-123795929D01*
X112428222Y-123760191D01*
X112344557Y-123603666D01*
X112293037Y-123433827D01*
X112275641Y-123257200D01*
X112293037Y-123080573D01*
X112344557Y-122910734D01*
X112428222Y-122754209D01*
X112457552Y-122718471D01*
X112540814Y-122617014D01*
X112646976Y-122529890D01*
X112678009Y-122504422D01*
X112834534Y-122420757D01*
X113004373Y-122369237D01*
X113070557Y-122362719D01*
X113136740Y-122356200D01*
X113475260Y-122356200D01*
X113541443Y-122362719D01*
G37*
G36*
X137763608Y-121763090D02*
G01*
X137772290Y-121764817D01*
X137890764Y-121813891D01*
X137997388Y-121885135D01*
X138088065Y-121975812D01*
X138120402Y-122024207D01*
X138159310Y-122082438D01*
X138208383Y-122200910D01*
X138233400Y-122326681D01*
X138233400Y-122454919D01*
X138223553Y-122504422D01*
X138208383Y-122580690D01*
X138159309Y-122699164D01*
X138088065Y-122805788D01*
X137997388Y-122896465D01*
X137890764Y-122967709D01*
X137890763Y-122967710D01*
X137890762Y-122967710D01*
X137772290Y-123016783D01*
X137646519Y-123041800D01*
X137518281Y-123041800D01*
X137392510Y-123016783D01*
X137274038Y-122967710D01*
X137274037Y-122967710D01*
X137274036Y-122967709D01*
X137167412Y-122896465D01*
X137076735Y-122805788D01*
X137005491Y-122699164D01*
X136956417Y-122580690D01*
X136941247Y-122504422D01*
X136931400Y-122454919D01*
X136931400Y-122326681D01*
X136956417Y-122200910D01*
X137005490Y-122082438D01*
X137044399Y-122024207D01*
X137076735Y-121975812D01*
X137167412Y-121885135D01*
X137274036Y-121813891D01*
X137392510Y-121764817D01*
X137401192Y-121763090D01*
X137518281Y-121739800D01*
X137646519Y-121739800D01*
X137763608Y-121763090D01*
G37*
G36*
X139763608Y-121763090D02*
G01*
X139772290Y-121764817D01*
X139890764Y-121813891D01*
X139997388Y-121885135D01*
X140088065Y-121975812D01*
X140120402Y-122024207D01*
X140159310Y-122082438D01*
X140208383Y-122200910D01*
X140233400Y-122326681D01*
X140233400Y-122454919D01*
X140223553Y-122504422D01*
X140208383Y-122580690D01*
X140159309Y-122699164D01*
X140088065Y-122805788D01*
X139997388Y-122896465D01*
X139890764Y-122967709D01*
X139890763Y-122967710D01*
X139890762Y-122967710D01*
X139772290Y-123016783D01*
X139646519Y-123041800D01*
X139518281Y-123041800D01*
X139392510Y-123016783D01*
X139274038Y-122967710D01*
X139274037Y-122967710D01*
X139274036Y-122967709D01*
X139167412Y-122896465D01*
X139076735Y-122805788D01*
X139005491Y-122699164D01*
X138956417Y-122580690D01*
X138941247Y-122504422D01*
X138931400Y-122454919D01*
X138931400Y-122326681D01*
X138956417Y-122200910D01*
X139005490Y-122082438D01*
X139044399Y-122024207D01*
X139076735Y-121975812D01*
X139167412Y-121885135D01*
X139274036Y-121813891D01*
X139392510Y-121764817D01*
X139401192Y-121763090D01*
X139518281Y-121739800D01*
X139646519Y-121739800D01*
X139763608Y-121763090D01*
G37*
G36*
X147519290Y-121714017D02*
G01*
X147599502Y-121747242D01*
X147637764Y-121763091D01*
X147744388Y-121834335D01*
X147835065Y-121925012D01*
X147901346Y-122024208D01*
X147906310Y-122031638D01*
X147955383Y-122150110D01*
X147980400Y-122275881D01*
X147980400Y-122404119D01*
X147970295Y-122454919D01*
X147955383Y-122529890D01*
X147906309Y-122648364D01*
X147835065Y-122754988D01*
X147744388Y-122845665D01*
X147637764Y-122916909D01*
X147637763Y-122916910D01*
X147637762Y-122916910D01*
X147519290Y-122965983D01*
X147393519Y-122991000D01*
X147265281Y-122991000D01*
X147139510Y-122965983D01*
X147021038Y-122916910D01*
X147021037Y-122916910D01*
X147021036Y-122916909D01*
X146914412Y-122845665D01*
X146823735Y-122754988D01*
X146752491Y-122648364D01*
X146703417Y-122529890D01*
X146688505Y-122454919D01*
X146678400Y-122404119D01*
X146678400Y-122275881D01*
X146703417Y-122150110D01*
X146752490Y-122031638D01*
X146757455Y-122024208D01*
X146823735Y-121925012D01*
X146914412Y-121834335D01*
X147021036Y-121763091D01*
X147059299Y-121747242D01*
X147139510Y-121714017D01*
X147265281Y-121689000D01*
X147393519Y-121689000D01*
X147519290Y-121714017D01*
G37*
G36*
X145519290Y-121714017D02*
G01*
X145599502Y-121747242D01*
X145637764Y-121763091D01*
X145744388Y-121834335D01*
X145835065Y-121925012D01*
X145901346Y-122024208D01*
X145906310Y-122031638D01*
X145955383Y-122150110D01*
X145980400Y-122275881D01*
X145980400Y-122404119D01*
X145970295Y-122454919D01*
X145955383Y-122529890D01*
X145906309Y-122648364D01*
X145835065Y-122754988D01*
X145744388Y-122845665D01*
X145637764Y-122916909D01*
X145637763Y-122916910D01*
X145637762Y-122916910D01*
X145519290Y-122965983D01*
X145393519Y-122991000D01*
X145265281Y-122991000D01*
X145139510Y-122965983D01*
X145021038Y-122916910D01*
X145021037Y-122916910D01*
X145021036Y-122916909D01*
X144914412Y-122845665D01*
X144823735Y-122754988D01*
X144752491Y-122648364D01*
X144703417Y-122529890D01*
X144688505Y-122454919D01*
X144678400Y-122404119D01*
X144678400Y-122275881D01*
X144703417Y-122150110D01*
X144752490Y-122031638D01*
X144757455Y-122024208D01*
X144823735Y-121925012D01*
X144914412Y-121834335D01*
X145021036Y-121763091D01*
X145059299Y-121747242D01*
X145139510Y-121714017D01*
X145265281Y-121689000D01*
X145393519Y-121689000D01*
X145519290Y-121714017D01*
G37*
G36*
X167822842Y-120743381D02*
G01*
X167968614Y-120803762D01*
X167968616Y-120803763D01*
X168099808Y-120891422D01*
X168211378Y-121002992D01*
X168278647Y-121103668D01*
X168299038Y-121134186D01*
X168359419Y-121279958D01*
X168390200Y-121434707D01*
X168390200Y-121592493D01*
X168359419Y-121747242D01*
X168299038Y-121893014D01*
X168299037Y-121893016D01*
X168211378Y-122024208D01*
X168099808Y-122135778D01*
X167968616Y-122223437D01*
X167968615Y-122223438D01*
X167968614Y-122223438D01*
X167822842Y-122283819D01*
X167668093Y-122314600D01*
X167510307Y-122314600D01*
X167355558Y-122283819D01*
X167209786Y-122223438D01*
X167209785Y-122223438D01*
X167209784Y-122223437D01*
X167078592Y-122135778D01*
X166967022Y-122024208D01*
X166879363Y-121893016D01*
X166879362Y-121893014D01*
X166818981Y-121747242D01*
X166788200Y-121592493D01*
X166788200Y-121434707D01*
X166818981Y-121279958D01*
X166879362Y-121134186D01*
X166899753Y-121103668D01*
X166967022Y-121002992D01*
X167078592Y-120891422D01*
X167209784Y-120803763D01*
X167209786Y-120803762D01*
X167355558Y-120743381D01*
X167510307Y-120712600D01*
X167668093Y-120712600D01*
X167822842Y-120743381D01*
G37*
G36*
X162942842Y-120743381D02*
G01*
X163088614Y-120803762D01*
X163088616Y-120803763D01*
X163219808Y-120891422D01*
X163331378Y-121002992D01*
X163398647Y-121103668D01*
X163419038Y-121134186D01*
X163479419Y-121279958D01*
X163510200Y-121434707D01*
X163510200Y-121592493D01*
X163479419Y-121747242D01*
X163419038Y-121893014D01*
X163419037Y-121893016D01*
X163331378Y-122024208D01*
X163219808Y-122135778D01*
X163088616Y-122223437D01*
X163088615Y-122223438D01*
X163088614Y-122223438D01*
X162942842Y-122283819D01*
X162788093Y-122314600D01*
X162630307Y-122314600D01*
X162475558Y-122283819D01*
X162329786Y-122223438D01*
X162329785Y-122223438D01*
X162329784Y-122223437D01*
X162198592Y-122135778D01*
X162087022Y-122024208D01*
X161999363Y-121893016D01*
X161999362Y-121893014D01*
X161938981Y-121747242D01*
X161908200Y-121592493D01*
X161908200Y-121434707D01*
X161938981Y-121279958D01*
X161999362Y-121134186D01*
X162019753Y-121103668D01*
X162087022Y-121002992D01*
X162198592Y-120891422D01*
X162329784Y-120803763D01*
X162329786Y-120803762D01*
X162475558Y-120743381D01*
X162630307Y-120712600D01*
X162788093Y-120712600D01*
X162942842Y-120743381D01*
G37*
G36*
X113541443Y-119862719D02*
G01*
X113607627Y-119869237D01*
X113777466Y-119920757D01*
X113777468Y-119920758D01*
X113786051Y-119925346D01*
X113933991Y-120004422D01*
X113958752Y-120024743D01*
X114071186Y-120117014D01*
X114154448Y-120218471D01*
X114183778Y-120254209D01*
X114267443Y-120410734D01*
X114318963Y-120580573D01*
X114336359Y-120757200D01*
X114318963Y-120933827D01*
X114267443Y-121103666D01*
X114183778Y-121260191D01*
X114164680Y-121283462D01*
X114071186Y-121397386D01*
X113969729Y-121480648D01*
X113933991Y-121509978D01*
X113933989Y-121509979D01*
X113779618Y-121592493D01*
X113777466Y-121593643D01*
X113607627Y-121645163D01*
X113541443Y-121651681D01*
X113475260Y-121658200D01*
X113136740Y-121658200D01*
X113070557Y-121651681D01*
X113004373Y-121645163D01*
X112834534Y-121593643D01*
X112832383Y-121592493D01*
X112678011Y-121509979D01*
X112678009Y-121509978D01*
X112642271Y-121480648D01*
X112540814Y-121397386D01*
X112447320Y-121283462D01*
X112428222Y-121260191D01*
X112344557Y-121103666D01*
X112293037Y-120933827D01*
X112275641Y-120757200D01*
X112293037Y-120580573D01*
X112344557Y-120410734D01*
X112428222Y-120254209D01*
X112457552Y-120218471D01*
X112540814Y-120117014D01*
X112653248Y-120024743D01*
X112678009Y-120004422D01*
X112825949Y-119925346D01*
X112834532Y-119920758D01*
X112834534Y-119920757D01*
X113004373Y-119869237D01*
X113070557Y-119862719D01*
X113136740Y-119856200D01*
X113475260Y-119856200D01*
X113541443Y-119862719D01*
G37*
G36*
X137772290Y-119764817D02*
G01*
X137884512Y-119811301D01*
X137890764Y-119813891D01*
X137997388Y-119885135D01*
X138088065Y-119975812D01*
X138134560Y-120045396D01*
X138159310Y-120082438D01*
X138208383Y-120200910D01*
X138228852Y-120303814D01*
X138233400Y-120326682D01*
X138233400Y-120454918D01*
X138208383Y-120580690D01*
X138159309Y-120699164D01*
X138088065Y-120805788D01*
X137997388Y-120896465D01*
X137890764Y-120967709D01*
X137890763Y-120967710D01*
X137890762Y-120967710D01*
X137772290Y-121016783D01*
X137646519Y-121041800D01*
X137518281Y-121041800D01*
X137392510Y-121016783D01*
X137274038Y-120967710D01*
X137274037Y-120967710D01*
X137274036Y-120967709D01*
X137167412Y-120896465D01*
X137076735Y-120805788D01*
X137005491Y-120699164D01*
X136956417Y-120580690D01*
X136931400Y-120454918D01*
X136931400Y-120326682D01*
X136935949Y-120303814D01*
X136956417Y-120200910D01*
X137005490Y-120082438D01*
X137030241Y-120045396D01*
X137076735Y-119975812D01*
X137167412Y-119885135D01*
X137274036Y-119813891D01*
X137280289Y-119811301D01*
X137392510Y-119764817D01*
X137518281Y-119739800D01*
X137646519Y-119739800D01*
X137772290Y-119764817D01*
G37*
G36*
X139772290Y-119764817D02*
G01*
X139884512Y-119811301D01*
X139890764Y-119813891D01*
X139997388Y-119885135D01*
X140088065Y-119975812D01*
X140134560Y-120045396D01*
X140159310Y-120082438D01*
X140208383Y-120200910D01*
X140228852Y-120303814D01*
X140233400Y-120326682D01*
X140233400Y-120454918D01*
X140208383Y-120580690D01*
X140159309Y-120699164D01*
X140088065Y-120805788D01*
X139997388Y-120896465D01*
X139890764Y-120967709D01*
X139890763Y-120967710D01*
X139890762Y-120967710D01*
X139772290Y-121016783D01*
X139646519Y-121041800D01*
X139518281Y-121041800D01*
X139392510Y-121016783D01*
X139274038Y-120967710D01*
X139274037Y-120967710D01*
X139274036Y-120967709D01*
X139167412Y-120896465D01*
X139076735Y-120805788D01*
X139005491Y-120699164D01*
X138956417Y-120580690D01*
X138931400Y-120454918D01*
X138931400Y-120326682D01*
X138935949Y-120303814D01*
X138956417Y-120200910D01*
X139005490Y-120082438D01*
X139030241Y-120045396D01*
X139076735Y-119975812D01*
X139167412Y-119885135D01*
X139274036Y-119813891D01*
X139280289Y-119811301D01*
X139392510Y-119764817D01*
X139518281Y-119739800D01*
X139646519Y-119739800D01*
X139772290Y-119764817D01*
G37*
G36*
X147447875Y-119699812D02*
G01*
X147519290Y-119714017D01*
X147637764Y-119763091D01*
X147744388Y-119834335D01*
X147835065Y-119925012D01*
X147889496Y-120006473D01*
X147906310Y-120031638D01*
X147955383Y-120150110D01*
X147980400Y-120275881D01*
X147980400Y-120404119D01*
X147955383Y-120529890D01*
X147906309Y-120648364D01*
X147835065Y-120754988D01*
X147744388Y-120845665D01*
X147637764Y-120916909D01*
X147637763Y-120916910D01*
X147637762Y-120916910D01*
X147519290Y-120965983D01*
X147393519Y-120991000D01*
X147265281Y-120991000D01*
X147139510Y-120965983D01*
X147021038Y-120916910D01*
X147021037Y-120916910D01*
X147021036Y-120916909D01*
X146914412Y-120845665D01*
X146823735Y-120754988D01*
X146752491Y-120648364D01*
X146703417Y-120529890D01*
X146678400Y-120404119D01*
X146678400Y-120275881D01*
X146703417Y-120150110D01*
X146752490Y-120031638D01*
X146769305Y-120006473D01*
X146823735Y-119925012D01*
X146914412Y-119834335D01*
X147021036Y-119763091D01*
X147139510Y-119714017D01*
X147210925Y-119699812D01*
X147265281Y-119689000D01*
X147393519Y-119689000D01*
X147447875Y-119699812D01*
G37*
G36*
X145447875Y-119699812D02*
G01*
X145519290Y-119714017D01*
X145637764Y-119763091D01*
X145744388Y-119834335D01*
X145835065Y-119925012D01*
X145889496Y-120006473D01*
X145906310Y-120031638D01*
X145955383Y-120150110D01*
X145980400Y-120275881D01*
X145980400Y-120404119D01*
X145955383Y-120529890D01*
X145906309Y-120648364D01*
X145835065Y-120754988D01*
X145744388Y-120845665D01*
X145637764Y-120916909D01*
X145637763Y-120916910D01*
X145637762Y-120916910D01*
X145519290Y-120965983D01*
X145393519Y-120991000D01*
X145265281Y-120991000D01*
X145139510Y-120965983D01*
X145021038Y-120916910D01*
X145021037Y-120916910D01*
X145021036Y-120916909D01*
X144914412Y-120845665D01*
X144823735Y-120754988D01*
X144752491Y-120648364D01*
X144703417Y-120529890D01*
X144678400Y-120404119D01*
X144678400Y-120275881D01*
X144703417Y-120150110D01*
X144752490Y-120031638D01*
X144769305Y-120006473D01*
X144823735Y-119925012D01*
X144914412Y-119834335D01*
X145021036Y-119763091D01*
X145139510Y-119714017D01*
X145210925Y-119699812D01*
X145265281Y-119689000D01*
X145393519Y-119689000D01*
X145447875Y-119699812D01*
G37*
G36*
X128068114Y-118560271D02*
G01*
X128103907Y-118571129D01*
X128136899Y-118588764D01*
X128165810Y-118612490D01*
X128189536Y-118641401D01*
X128207171Y-118674393D01*
X128218029Y-118710186D01*
X128222300Y-118753551D01*
X128222300Y-120260449D01*
X128218029Y-120303814D01*
X128207171Y-120339607D01*
X128189536Y-120372599D01*
X128165810Y-120401510D01*
X128136899Y-120425236D01*
X128103907Y-120442871D01*
X128068114Y-120453729D01*
X128024749Y-120458000D01*
X126992851Y-120458000D01*
X126949486Y-120453729D01*
X126913693Y-120442871D01*
X126880701Y-120425236D01*
X126851790Y-120401510D01*
X126828064Y-120372599D01*
X126810429Y-120339607D01*
X126799571Y-120303814D01*
X126795300Y-120260449D01*
X126795300Y-118753551D01*
X126799571Y-118710186D01*
X126810429Y-118674393D01*
X126828064Y-118641401D01*
X126851790Y-118612490D01*
X126880701Y-118588764D01*
X126913693Y-118571129D01*
X126949486Y-118560271D01*
X126992851Y-118556000D01*
X128024749Y-118556000D01*
X128068114Y-118560271D01*
G37*
G36*
X124943114Y-118560271D02*
G01*
X124978907Y-118571129D01*
X125011899Y-118588764D01*
X125040810Y-118612490D01*
X125064536Y-118641401D01*
X125082171Y-118674393D01*
X125093029Y-118710186D01*
X125097300Y-118753551D01*
X125097300Y-120260449D01*
X125093029Y-120303814D01*
X125082171Y-120339607D01*
X125064536Y-120372599D01*
X125040810Y-120401510D01*
X125011899Y-120425236D01*
X124978907Y-120442871D01*
X124943114Y-120453729D01*
X124899749Y-120458000D01*
X123867851Y-120458000D01*
X123824486Y-120453729D01*
X123788693Y-120442871D01*
X123755701Y-120425236D01*
X123726790Y-120401510D01*
X123703064Y-120372599D01*
X123685429Y-120339607D01*
X123674571Y-120303814D01*
X123670300Y-120260449D01*
X123670300Y-118753551D01*
X123674571Y-118710186D01*
X123685429Y-118674393D01*
X123703064Y-118641401D01*
X123726790Y-118612490D01*
X123755701Y-118588764D01*
X123788693Y-118571129D01*
X123824486Y-118560271D01*
X123867851Y-118556000D01*
X124899749Y-118556000D01*
X124943114Y-118560271D01*
G37*
G36*
X119882341Y-118752204D02*
G01*
X119919438Y-118763457D01*
X119953619Y-118781727D01*
X119983583Y-118806317D01*
X120008173Y-118836281D01*
X120026443Y-118870462D01*
X120037696Y-118907559D01*
X120042100Y-118952273D01*
X120042100Y-119845327D01*
X120037696Y-119890041D01*
X120026443Y-119927138D01*
X120008173Y-119961319D01*
X119983583Y-119991283D01*
X119953619Y-120015873D01*
X119919438Y-120034143D01*
X119882341Y-120045396D01*
X119837627Y-120049800D01*
X118744573Y-120049800D01*
X118699859Y-120045396D01*
X118662762Y-120034143D01*
X118628581Y-120015873D01*
X118598617Y-119991283D01*
X118574027Y-119961319D01*
X118555757Y-119927138D01*
X118544504Y-119890041D01*
X118540100Y-119845327D01*
X118540100Y-118952273D01*
X118544504Y-118907559D01*
X118555757Y-118870462D01*
X118574027Y-118836281D01*
X118598617Y-118806317D01*
X118628581Y-118781727D01*
X118662762Y-118763457D01*
X118699859Y-118752204D01*
X118744573Y-118747800D01*
X119837627Y-118747800D01*
X119882341Y-118752204D01*
G37*
G36*
X122541721Y-118742804D02*
G01*
X122578818Y-118754057D01*
X122612999Y-118772327D01*
X122642963Y-118796917D01*
X122667553Y-118826881D01*
X122685823Y-118861062D01*
X122697076Y-118898159D01*
X122701480Y-118942873D01*
X122701480Y-119835927D01*
X122697076Y-119880641D01*
X122685823Y-119917738D01*
X122667553Y-119951919D01*
X122642963Y-119981883D01*
X122612999Y-120006473D01*
X122578818Y-120024743D01*
X122541721Y-120035996D01*
X122497007Y-120040400D01*
X121403953Y-120040400D01*
X121359239Y-120035996D01*
X121322142Y-120024743D01*
X121287961Y-120006473D01*
X121257997Y-119981883D01*
X121233407Y-119951919D01*
X121215137Y-119917738D01*
X121203884Y-119880641D01*
X121199480Y-119835927D01*
X121199480Y-118942873D01*
X121203884Y-118898159D01*
X121215137Y-118861062D01*
X121233407Y-118826881D01*
X121257997Y-118796917D01*
X121287961Y-118772327D01*
X121322142Y-118754057D01*
X121359239Y-118742804D01*
X121403953Y-118738400D01*
X122497007Y-118738400D01*
X122541721Y-118742804D01*
G37*
G36*
X117349961Y-118673464D02*
G01*
X117387058Y-118684717D01*
X117421239Y-118702987D01*
X117451203Y-118727577D01*
X117475793Y-118757541D01*
X117494063Y-118791722D01*
X117505316Y-118828819D01*
X117509720Y-118873533D01*
X117509720Y-119766587D01*
X117505316Y-119811301D01*
X117494063Y-119848398D01*
X117475793Y-119882579D01*
X117451203Y-119912543D01*
X117421239Y-119937133D01*
X117387058Y-119955403D01*
X117349961Y-119966656D01*
X117305247Y-119971060D01*
X116212193Y-119971060D01*
X116167479Y-119966656D01*
X116130382Y-119955403D01*
X116096201Y-119937133D01*
X116066237Y-119912543D01*
X116041647Y-119882579D01*
X116023377Y-119848398D01*
X116012124Y-119811301D01*
X116007720Y-119766587D01*
X116007720Y-118873533D01*
X116012124Y-118828819D01*
X116023377Y-118791722D01*
X116041647Y-118757541D01*
X116066237Y-118727577D01*
X116096201Y-118702987D01*
X116130382Y-118684717D01*
X116167479Y-118673464D01*
X116212193Y-118669060D01*
X117305247Y-118669060D01*
X117349961Y-118673464D01*
G37*
G36*
X113541442Y-117362718D02*
G01*
X113607627Y-117369237D01*
X113777466Y-117420757D01*
X113933991Y-117504422D01*
X113942475Y-117511385D01*
X114071186Y-117617014D01*
X114139371Y-117700099D01*
X114183778Y-117754209D01*
X114183779Y-117754211D01*
X114252274Y-117882354D01*
X114267443Y-117910734D01*
X114318963Y-118080573D01*
X114336359Y-118257200D01*
X114318963Y-118433827D01*
X114267443Y-118603666D01*
X114183778Y-118760191D01*
X114164145Y-118784114D01*
X114071186Y-118897386D01*
X113987420Y-118966130D01*
X113933991Y-119009978D01*
X113777466Y-119093643D01*
X113607627Y-119145163D01*
X113541443Y-119151681D01*
X113475260Y-119158200D01*
X113136740Y-119158200D01*
X113070557Y-119151681D01*
X113004373Y-119145163D01*
X112834534Y-119093643D01*
X112678009Y-119009978D01*
X112624580Y-118966130D01*
X112540814Y-118897386D01*
X112447855Y-118784114D01*
X112428222Y-118760191D01*
X112344557Y-118603666D01*
X112293037Y-118433827D01*
X112275641Y-118257200D01*
X112293037Y-118080573D01*
X112344557Y-117910734D01*
X112359727Y-117882354D01*
X112428221Y-117754211D01*
X112428222Y-117754209D01*
X112472629Y-117700099D01*
X112540814Y-117617014D01*
X112669525Y-117511385D01*
X112678009Y-117504422D01*
X112834534Y-117420757D01*
X113004373Y-117369237D01*
X113070558Y-117362718D01*
X113136740Y-117356200D01*
X113475260Y-117356200D01*
X113541442Y-117362718D01*
G37*
G36*
X119882341Y-116752204D02*
G01*
X119919438Y-116763457D01*
X119953619Y-116781727D01*
X119983583Y-116806317D01*
X120008173Y-116836281D01*
X120026443Y-116870462D01*
X120037696Y-116907559D01*
X120042100Y-116952273D01*
X120042100Y-117845327D01*
X120037696Y-117890041D01*
X120026443Y-117927138D01*
X120008173Y-117961319D01*
X119983583Y-117991283D01*
X119953619Y-118015873D01*
X119919438Y-118034143D01*
X119882341Y-118045396D01*
X119837627Y-118049800D01*
X118744573Y-118049800D01*
X118699859Y-118045396D01*
X118662762Y-118034143D01*
X118628581Y-118015873D01*
X118598617Y-117991283D01*
X118574027Y-117961319D01*
X118555757Y-117927138D01*
X118544504Y-117890041D01*
X118540100Y-117845327D01*
X118540100Y-116952273D01*
X118544504Y-116907559D01*
X118555757Y-116870462D01*
X118574027Y-116836281D01*
X118598617Y-116806317D01*
X118628581Y-116781727D01*
X118662762Y-116763457D01*
X118699859Y-116752204D01*
X118744573Y-116747800D01*
X119837627Y-116747800D01*
X119882341Y-116752204D01*
G37*
G36*
X138783240Y-115757200D02*
G01*
X138918134Y-115784032D01*
X139004961Y-115819997D01*
X139095328Y-115857428D01*
X139127603Y-115870797D01*
X139316120Y-115996760D01*
X139476440Y-116157080D01*
X139602403Y-116345597D01*
X139602404Y-116345599D01*
X139689168Y-116555067D01*
X139733400Y-116777435D01*
X139733400Y-117004165D01*
X139711284Y-117115349D01*
X139689168Y-117226534D01*
X139602403Y-117436003D01*
X139476440Y-117624520D01*
X139316120Y-117784840D01*
X139127603Y-117910803D01*
X139127602Y-117910804D01*
X139127601Y-117910804D01*
X139066250Y-117936216D01*
X138918134Y-117997568D01*
X138873365Y-118006473D01*
X138695765Y-118041800D01*
X138469035Y-118041800D01*
X138291435Y-118006473D01*
X138246666Y-117997568D01*
X138098550Y-117936216D01*
X138037199Y-117910804D01*
X138037198Y-117910804D01*
X138037197Y-117910803D01*
X137848680Y-117784840D01*
X137688360Y-117624520D01*
X137562397Y-117436003D01*
X137475632Y-117226534D01*
X137453516Y-117115349D01*
X137431400Y-117004165D01*
X137431400Y-116777435D01*
X137475632Y-116555067D01*
X137562396Y-116345599D01*
X137562397Y-116345597D01*
X137688360Y-116157080D01*
X137848680Y-115996760D01*
X138037197Y-115870797D01*
X138069473Y-115857428D01*
X138159839Y-115819997D01*
X138246666Y-115784032D01*
X138381560Y-115757200D01*
X138469035Y-115739800D01*
X138695765Y-115739800D01*
X138783240Y-115757200D01*
G37*
G36*
X122541721Y-116742804D02*
G01*
X122578818Y-116754057D01*
X122612999Y-116772327D01*
X122642963Y-116796917D01*
X122667553Y-116826881D01*
X122685823Y-116861062D01*
X122697076Y-116898159D01*
X122701480Y-116942873D01*
X122701480Y-117835927D01*
X122697076Y-117880641D01*
X122685823Y-117917738D01*
X122667553Y-117951919D01*
X122642963Y-117981883D01*
X122612999Y-118006473D01*
X122578818Y-118024743D01*
X122541721Y-118035996D01*
X122497007Y-118040400D01*
X121403953Y-118040400D01*
X121359239Y-118035996D01*
X121322142Y-118024743D01*
X121287961Y-118006473D01*
X121257997Y-117981883D01*
X121233407Y-117951919D01*
X121215137Y-117917738D01*
X121203884Y-117880641D01*
X121199480Y-117835927D01*
X121199480Y-116942873D01*
X121203884Y-116898159D01*
X121215137Y-116861062D01*
X121233407Y-116826881D01*
X121257997Y-116796917D01*
X121287961Y-116772327D01*
X121322142Y-116754057D01*
X121359239Y-116742804D01*
X121403953Y-116738400D01*
X122497007Y-116738400D01*
X122541721Y-116742804D01*
G37*
G36*
X146553949Y-115711116D02*
G01*
X146665134Y-115733232D01*
X146874603Y-115819997D01*
X147063120Y-115945960D01*
X147223440Y-116106280D01*
X147326280Y-116260191D01*
X147349404Y-116294799D01*
X147436168Y-116504267D01*
X147480400Y-116726635D01*
X147480400Y-116953365D01*
X147436168Y-117175733D01*
X147361417Y-117356200D01*
X147349403Y-117385203D01*
X147223440Y-117573720D01*
X147063120Y-117734040D01*
X146874603Y-117860003D01*
X146665134Y-117946768D01*
X146593821Y-117960953D01*
X146442765Y-117991000D01*
X146216035Y-117991000D01*
X146064979Y-117960953D01*
X145993666Y-117946768D01*
X145784197Y-117860003D01*
X145595680Y-117734040D01*
X145435360Y-117573720D01*
X145309397Y-117385203D01*
X145297384Y-117356200D01*
X145222632Y-117175733D01*
X145178400Y-116953365D01*
X145178400Y-116726635D01*
X145222632Y-116504267D01*
X145309396Y-116294799D01*
X145332520Y-116260191D01*
X145435360Y-116106280D01*
X145595680Y-115945960D01*
X145784197Y-115819997D01*
X145993666Y-115733232D01*
X146104851Y-115711116D01*
X146216035Y-115689000D01*
X146442765Y-115689000D01*
X146553949Y-115711116D01*
G37*
G36*
X117349961Y-116673464D02*
G01*
X117387058Y-116684717D01*
X117421239Y-116702987D01*
X117451203Y-116727577D01*
X117475793Y-116757541D01*
X117494063Y-116791722D01*
X117505316Y-116828819D01*
X117509720Y-116873533D01*
X117509720Y-117766587D01*
X117505316Y-117811301D01*
X117494063Y-117848398D01*
X117475793Y-117882579D01*
X117451203Y-117912543D01*
X117421239Y-117937133D01*
X117387058Y-117955403D01*
X117349961Y-117966656D01*
X117305247Y-117971060D01*
X116212193Y-117971060D01*
X116167479Y-117966656D01*
X116130382Y-117955403D01*
X116096201Y-117937133D01*
X116066237Y-117912543D01*
X116041647Y-117882579D01*
X116023377Y-117848398D01*
X116012124Y-117811301D01*
X116007720Y-117766587D01*
X116007720Y-116873533D01*
X116012124Y-116828819D01*
X116023377Y-116791722D01*
X116041647Y-116757541D01*
X116066237Y-116727577D01*
X116096201Y-116702987D01*
X116130382Y-116684717D01*
X116167479Y-116673464D01*
X116212193Y-116669060D01*
X117305247Y-116669060D01*
X117349961Y-116673464D01*
G37*
G36*
X125090922Y-115856461D02*
G01*
X125125841Y-115867054D01*
X125158023Y-115884256D01*
X125186233Y-115907407D01*
X125209384Y-115935617D01*
X125226586Y-115967799D01*
X125237179Y-116002718D01*
X125241360Y-116045175D01*
X125241360Y-117511385D01*
X125237179Y-117553842D01*
X125226586Y-117588761D01*
X125209384Y-117620943D01*
X125186233Y-117649153D01*
X125158023Y-117672304D01*
X125125841Y-117689506D01*
X125090922Y-117700099D01*
X125048465Y-117704280D01*
X123907255Y-117704280D01*
X123864798Y-117700099D01*
X123829879Y-117689506D01*
X123797697Y-117672304D01*
X123769487Y-117649153D01*
X123746336Y-117620943D01*
X123729134Y-117588761D01*
X123718541Y-117553842D01*
X123714360Y-117511385D01*
X123714360Y-116045175D01*
X123718541Y-116002718D01*
X123729134Y-115967799D01*
X123746336Y-115935617D01*
X123769487Y-115907407D01*
X123797697Y-115884256D01*
X123829879Y-115867054D01*
X123864798Y-115856461D01*
X123907255Y-115852280D01*
X125048465Y-115852280D01*
X125090922Y-115856461D01*
G37*
G36*
X128065922Y-115856461D02*
G01*
X128100841Y-115867054D01*
X128133023Y-115884256D01*
X128161233Y-115907407D01*
X128184384Y-115935617D01*
X128201586Y-115967799D01*
X128212179Y-116002718D01*
X128216360Y-116045175D01*
X128216360Y-117511385D01*
X128212179Y-117553842D01*
X128201586Y-117588761D01*
X128184384Y-117620943D01*
X128161233Y-117649153D01*
X128133023Y-117672304D01*
X128100841Y-117689506D01*
X128065922Y-117700099D01*
X128023465Y-117704280D01*
X126882255Y-117704280D01*
X126839798Y-117700099D01*
X126804879Y-117689506D01*
X126772697Y-117672304D01*
X126744487Y-117649153D01*
X126721336Y-117620943D01*
X126704134Y-117588761D01*
X126693541Y-117553842D01*
X126689360Y-117511385D01*
X126689360Y-116045175D01*
X126693541Y-116002718D01*
X126704134Y-115967799D01*
X126721336Y-115935617D01*
X126744487Y-115907407D01*
X126772697Y-115884256D01*
X126804879Y-115867054D01*
X126839798Y-115856461D01*
X126882255Y-115852280D01*
X128023465Y-115852280D01*
X128065922Y-115856461D01*
G37*
G36*
X113541442Y-114862718D02*
G01*
X113607627Y-114869237D01*
X113777466Y-114920757D01*
X113933991Y-115004422D01*
X113966091Y-115030766D01*
X114071186Y-115117014D01*
X114154448Y-115218471D01*
X114183778Y-115254209D01*
X114267443Y-115410734D01*
X114318963Y-115580573D01*
X114336359Y-115757200D01*
X114318963Y-115933827D01*
X114267443Y-116103666D01*
X114183778Y-116260191D01*
X114155377Y-116294797D01*
X114071186Y-116397386D01*
X113969729Y-116480648D01*
X113933991Y-116509978D01*
X113777466Y-116593643D01*
X113607627Y-116645163D01*
X113541443Y-116651681D01*
X113475260Y-116658200D01*
X113136740Y-116658200D01*
X113070557Y-116651681D01*
X113004373Y-116645163D01*
X112834534Y-116593643D01*
X112678009Y-116509978D01*
X112642271Y-116480648D01*
X112540814Y-116397386D01*
X112456623Y-116294797D01*
X112428222Y-116260191D01*
X112344557Y-116103666D01*
X112293037Y-115933827D01*
X112275641Y-115757200D01*
X112293037Y-115580573D01*
X112344557Y-115410734D01*
X112428222Y-115254209D01*
X112457552Y-115218471D01*
X112540814Y-115117014D01*
X112645909Y-115030766D01*
X112678009Y-115004422D01*
X112834534Y-114920757D01*
X113004373Y-114869237D01*
X113070558Y-114862718D01*
X113136740Y-114856200D01*
X113475260Y-114856200D01*
X113541442Y-114862718D01*
G37*
G36*
X117413461Y-113778884D02*
G01*
X117450558Y-113790137D01*
X117484739Y-113808407D01*
X117514703Y-113832997D01*
X117539293Y-113862961D01*
X117557563Y-113897142D01*
X117568816Y-113934239D01*
X117573220Y-113978953D01*
X117573220Y-114872007D01*
X117568816Y-114916721D01*
X117557563Y-114953818D01*
X117539293Y-114987999D01*
X117514703Y-115017963D01*
X117484739Y-115042553D01*
X117450558Y-115060823D01*
X117413461Y-115072076D01*
X117368747Y-115076480D01*
X116275693Y-115076480D01*
X116230979Y-115072076D01*
X116193882Y-115060823D01*
X116159701Y-115042553D01*
X116129737Y-115017963D01*
X116105147Y-114987999D01*
X116086877Y-114953818D01*
X116075624Y-114916721D01*
X116071220Y-114872007D01*
X116071220Y-113978953D01*
X116075624Y-113934239D01*
X116086877Y-113897142D01*
X116105147Y-113862961D01*
X116129737Y-113832997D01*
X116159701Y-113808407D01*
X116193882Y-113790137D01*
X116230979Y-113778884D01*
X116275693Y-113774480D01*
X117368747Y-113774480D01*
X117413461Y-113778884D01*
G37*
G36*
X123649254Y-114757400D02*
G01*
X119291586Y-114757400D01*
X119291586Y-113182200D01*
X123649254Y-113182200D01*
X123649254Y-114757400D01*
G37*
G36*
X181684766Y-113267899D02*
G01*
X181816888Y-113322626D01*
X181816890Y-113322627D01*
X181935798Y-113402079D01*
X182036921Y-113503202D01*
X182036922Y-113503204D01*
X182116374Y-113622112D01*
X182171101Y-113754234D01*
X182199000Y-113894494D01*
X182199000Y-114037506D01*
X182171101Y-114177766D01*
X182116374Y-114309888D01*
X182116373Y-114309890D01*
X182036921Y-114428798D01*
X181935798Y-114529921D01*
X181816890Y-114609373D01*
X181816889Y-114609374D01*
X181816888Y-114609374D01*
X181684766Y-114664101D01*
X181544506Y-114692000D01*
X181401494Y-114692000D01*
X181261234Y-114664101D01*
X181129112Y-114609374D01*
X181129111Y-114609374D01*
X181129110Y-114609373D01*
X181010202Y-114529921D01*
X180909079Y-114428798D01*
X180829627Y-114309890D01*
X180829626Y-114309888D01*
X180774899Y-114177766D01*
X180747000Y-114037506D01*
X180747000Y-113894494D01*
X180774899Y-113754234D01*
X180829626Y-113622112D01*
X180909078Y-113503204D01*
X180909079Y-113503202D01*
X181010202Y-113402079D01*
X181129110Y-113322627D01*
X181129112Y-113322626D01*
X181261234Y-113267899D01*
X181401494Y-113240000D01*
X181544506Y-113240000D01*
X181684766Y-113267899D01*
G37*
G36*
X179684766Y-113267899D02*
G01*
X179816888Y-113322626D01*
X179816890Y-113322627D01*
X179935798Y-113402079D01*
X180036921Y-113503202D01*
X180036922Y-113503204D01*
X180116374Y-113622112D01*
X180171101Y-113754234D01*
X180199000Y-113894494D01*
X180199000Y-114037506D01*
X180171101Y-114177766D01*
X180116374Y-114309888D01*
X180116373Y-114309890D01*
X180036921Y-114428798D01*
X179935798Y-114529921D01*
X179816890Y-114609373D01*
X179816889Y-114609374D01*
X179816888Y-114609374D01*
X179684766Y-114664101D01*
X179544506Y-114692000D01*
X179401494Y-114692000D01*
X179261234Y-114664101D01*
X179129112Y-114609374D01*
X179129111Y-114609374D01*
X179129110Y-114609373D01*
X179010202Y-114529921D01*
X178909079Y-114428798D01*
X178829627Y-114309890D01*
X178829626Y-114309888D01*
X178774899Y-114177766D01*
X178747000Y-114037506D01*
X178747000Y-113894494D01*
X178774899Y-113754234D01*
X178829626Y-113622112D01*
X178909078Y-113503204D01*
X178909079Y-113503202D01*
X179010202Y-113402079D01*
X179129110Y-113322627D01*
X179129112Y-113322626D01*
X179261234Y-113267899D01*
X179401494Y-113240000D01*
X179544506Y-113240000D01*
X179684766Y-113267899D01*
G37*
G36*
X127405420Y-113382080D02*
G01*
X126203420Y-113382080D01*
X126203420Y-112180080D01*
X127405420Y-112180080D01*
X127405420Y-113382080D01*
G37*
G36*
X117413461Y-111778884D02*
G01*
X117450558Y-111790137D01*
X117484739Y-111808407D01*
X117514703Y-111832997D01*
X117539293Y-111862961D01*
X117557563Y-111897142D01*
X117568816Y-111934239D01*
X117573220Y-111978953D01*
X117573220Y-112872007D01*
X117568816Y-112916721D01*
X117557563Y-112953818D01*
X117539293Y-112987999D01*
X117514703Y-113017963D01*
X117484739Y-113042553D01*
X117450558Y-113060823D01*
X117413461Y-113072076D01*
X117368747Y-113076480D01*
X116275693Y-113076480D01*
X116230979Y-113072076D01*
X116193882Y-113060823D01*
X116159701Y-113042553D01*
X116129737Y-113017963D01*
X116105147Y-112987999D01*
X116086877Y-112953818D01*
X116075624Y-112916721D01*
X116071220Y-112872007D01*
X116071220Y-111978953D01*
X116075624Y-111934239D01*
X116086877Y-111897142D01*
X116105147Y-111862961D01*
X116129737Y-111832997D01*
X116159701Y-111808407D01*
X116193882Y-111790137D01*
X116230979Y-111778884D01*
X116275693Y-111774480D01*
X117368747Y-111774480D01*
X117413461Y-111778884D01*
G37*
G36*
X181684766Y-111267899D02*
G01*
X181795715Y-111313856D01*
X181816890Y-111322627D01*
X181935798Y-111402079D01*
X182036921Y-111503202D01*
X182036922Y-111503204D01*
X182116374Y-111622112D01*
X182171101Y-111754234D01*
X182199000Y-111894494D01*
X182199000Y-112037506D01*
X182171101Y-112177766D01*
X182139192Y-112254800D01*
X182116373Y-112309890D01*
X182036921Y-112428798D01*
X181935798Y-112529921D01*
X181816890Y-112609373D01*
X181816889Y-112609374D01*
X181816888Y-112609374D01*
X181684766Y-112664101D01*
X181544506Y-112692000D01*
X181401494Y-112692000D01*
X181261234Y-112664101D01*
X181129112Y-112609374D01*
X181129111Y-112609374D01*
X181129110Y-112609373D01*
X181010202Y-112529921D01*
X180909079Y-112428798D01*
X180829627Y-112309890D01*
X180806808Y-112254800D01*
X180774899Y-112177766D01*
X180747000Y-112037506D01*
X180747000Y-111894494D01*
X180774899Y-111754234D01*
X180829626Y-111622112D01*
X180909078Y-111503204D01*
X180909079Y-111503202D01*
X181010202Y-111402079D01*
X181129110Y-111322627D01*
X181150285Y-111313856D01*
X181261234Y-111267899D01*
X181401494Y-111240000D01*
X181544506Y-111240000D01*
X181684766Y-111267899D01*
G37*
G36*
X179684766Y-111267899D02*
G01*
X179795715Y-111313856D01*
X179816890Y-111322627D01*
X179935798Y-111402079D01*
X180036921Y-111503202D01*
X180036922Y-111503204D01*
X180116374Y-111622112D01*
X180171101Y-111754234D01*
X180199000Y-111894494D01*
X180199000Y-112037506D01*
X180171101Y-112177766D01*
X180139192Y-112254800D01*
X180116373Y-112309890D01*
X180036921Y-112428798D01*
X179935798Y-112529921D01*
X179816890Y-112609373D01*
X179816889Y-112609374D01*
X179816888Y-112609374D01*
X179684766Y-112664101D01*
X179544506Y-112692000D01*
X179401494Y-112692000D01*
X179261234Y-112664101D01*
X179129112Y-112609374D01*
X179129111Y-112609374D01*
X179129110Y-112609373D01*
X179010202Y-112529921D01*
X178909079Y-112428798D01*
X178829627Y-112309890D01*
X178806808Y-112254800D01*
X178774899Y-112177766D01*
X178747000Y-112037506D01*
X178747000Y-111894494D01*
X178774899Y-111754234D01*
X178829626Y-111622112D01*
X178909078Y-111503204D01*
X178909079Y-111503202D01*
X179010202Y-111402079D01*
X179129110Y-111322627D01*
X179150285Y-111313856D01*
X179261234Y-111267899D01*
X179401494Y-111240000D01*
X179544506Y-111240000D01*
X179684766Y-111267899D01*
G37*
G36*
X122751420Y-112254800D02*
G01*
X120189420Y-112254800D01*
X120189420Y-109842800D01*
X122751420Y-109842800D01*
X122751420Y-112254800D01*
G37*
G36*
X142378912Y-109619327D02*
G01*
X142528212Y-109649024D01*
X142692184Y-109716944D01*
X142839754Y-109815547D01*
X142965253Y-109941046D01*
X143063856Y-110088616D01*
X143131776Y-110252588D01*
X143160915Y-110399084D01*
X143163434Y-110411745D01*
X143166400Y-110426659D01*
X143166400Y-110604141D01*
X143131776Y-110778212D01*
X143063856Y-110942184D01*
X142965253Y-111089754D01*
X142839754Y-111215253D01*
X142692184Y-111313856D01*
X142528212Y-111381776D01*
X142378912Y-111411473D01*
X142354142Y-111416400D01*
X142176658Y-111416400D01*
X142151888Y-111411473D01*
X142002588Y-111381776D01*
X141838616Y-111313856D01*
X141691046Y-111215253D01*
X141565547Y-111089754D01*
X141466944Y-110942184D01*
X141399024Y-110778212D01*
X141364400Y-110604141D01*
X141364400Y-110426659D01*
X141367367Y-110411745D01*
X141369885Y-110399084D01*
X141399024Y-110252588D01*
X141466944Y-110088616D01*
X141565547Y-109941046D01*
X141691046Y-109815547D01*
X141838616Y-109716944D01*
X142002588Y-109649024D01*
X142151888Y-109619327D01*
X142176658Y-109614400D01*
X142354142Y-109614400D01*
X142378912Y-109619327D01*
G37*
G36*
X148246400Y-111416400D02*
G01*
X146444400Y-111416400D01*
X146444400Y-109614400D01*
X148246400Y-109614400D01*
X148246400Y-111416400D01*
G37*
G36*
X144918912Y-109619327D02*
G01*
X145068212Y-109649024D01*
X145232184Y-109716944D01*
X145379754Y-109815547D01*
X145505253Y-109941046D01*
X145603856Y-110088616D01*
X145671776Y-110252588D01*
X145700915Y-110399084D01*
X145703434Y-110411745D01*
X145706400Y-110426659D01*
X145706400Y-110604141D01*
X145671776Y-110778212D01*
X145603856Y-110942184D01*
X145505253Y-111089754D01*
X145379754Y-111215253D01*
X145232184Y-111313856D01*
X145068212Y-111381776D01*
X144918912Y-111411473D01*
X144894142Y-111416400D01*
X144716658Y-111416400D01*
X144691888Y-111411473D01*
X144542588Y-111381776D01*
X144378616Y-111313856D01*
X144231046Y-111215253D01*
X144105547Y-111089754D01*
X144006944Y-110942184D01*
X143939024Y-110778212D01*
X143904400Y-110604141D01*
X143904400Y-110426659D01*
X143907367Y-110411745D01*
X143909885Y-110399084D01*
X143939024Y-110252588D01*
X144006944Y-110088616D01*
X144105547Y-109941046D01*
X144231046Y-109815547D01*
X144378616Y-109716944D01*
X144542588Y-109649024D01*
X144691888Y-109619327D01*
X144716658Y-109614400D01*
X144894142Y-109614400D01*
X144918912Y-109619327D01*
G37*
G36*
X139838912Y-109619327D02*
G01*
X139988212Y-109649024D01*
X140152184Y-109716944D01*
X140299754Y-109815547D01*
X140425253Y-109941046D01*
X140523856Y-110088616D01*
X140591776Y-110252588D01*
X140620915Y-110399084D01*
X140623434Y-110411745D01*
X140626400Y-110426659D01*
X140626400Y-110604141D01*
X140591776Y-110778212D01*
X140523856Y-110942184D01*
X140425253Y-111089754D01*
X140299754Y-111215253D01*
X140152184Y-111313856D01*
X139988212Y-111381776D01*
X139838912Y-111411473D01*
X139814142Y-111416400D01*
X139636658Y-111416400D01*
X139611888Y-111411473D01*
X139462588Y-111381776D01*
X139298616Y-111313856D01*
X139151046Y-111215253D01*
X139025547Y-111089754D01*
X138926944Y-110942184D01*
X138859024Y-110778212D01*
X138824400Y-110604141D01*
X138824400Y-110426659D01*
X138827367Y-110411745D01*
X138829885Y-110399084D01*
X138859024Y-110252588D01*
X138926944Y-110088616D01*
X139025547Y-109941046D01*
X139151046Y-109815547D01*
X139298616Y-109716944D01*
X139462588Y-109649024D01*
X139611888Y-109619327D01*
X139636658Y-109614400D01*
X139814142Y-109614400D01*
X139838912Y-109619327D01*
G37*
G36*
X137298912Y-109619327D02*
G01*
X137448212Y-109649024D01*
X137612184Y-109716944D01*
X137759754Y-109815547D01*
X137885253Y-109941046D01*
X137983856Y-110088616D01*
X138051776Y-110252588D01*
X138080915Y-110399084D01*
X138083434Y-110411745D01*
X138086400Y-110426659D01*
X138086400Y-110604141D01*
X138051776Y-110778212D01*
X137983856Y-110942184D01*
X137885253Y-111089754D01*
X137759754Y-111215253D01*
X137612184Y-111313856D01*
X137448212Y-111381776D01*
X137298912Y-111411473D01*
X137274142Y-111416400D01*
X137096658Y-111416400D01*
X137071888Y-111411473D01*
X136922588Y-111381776D01*
X136758616Y-111313856D01*
X136611046Y-111215253D01*
X136485547Y-111089754D01*
X136386944Y-110942184D01*
X136319024Y-110778212D01*
X136284400Y-110604141D01*
X136284400Y-110426659D01*
X136287367Y-110411745D01*
X136289885Y-110399084D01*
X136319024Y-110252588D01*
X136386944Y-110088616D01*
X136485547Y-109941046D01*
X136611046Y-109815547D01*
X136758616Y-109716944D01*
X136922588Y-109649024D01*
X137071888Y-109619327D01*
X137096658Y-109614400D01*
X137274142Y-109614400D01*
X137298912Y-109619327D01*
G37*
G36*
X130641614Y-109387471D02*
G01*
X130677407Y-109398329D01*
X130710399Y-109415964D01*
X130739310Y-109439690D01*
X130763036Y-109468601D01*
X130780671Y-109501593D01*
X130791529Y-109537386D01*
X130795800Y-109580751D01*
X130795800Y-110612649D01*
X130791529Y-110656014D01*
X130780671Y-110691807D01*
X130763036Y-110724799D01*
X130739310Y-110753710D01*
X130710399Y-110777436D01*
X130677407Y-110795071D01*
X130641614Y-110805929D01*
X130598249Y-110810200D01*
X129091351Y-110810200D01*
X129047986Y-110805929D01*
X129012193Y-110795071D01*
X128979201Y-110777436D01*
X128950290Y-110753710D01*
X128926564Y-110724799D01*
X128908929Y-110691807D01*
X128898071Y-110656014D01*
X128893800Y-110612649D01*
X128893800Y-109580751D01*
X128898071Y-109537386D01*
X128908929Y-109501593D01*
X128926564Y-109468601D01*
X128950290Y-109439690D01*
X128979201Y-109415964D01*
X129012193Y-109398329D01*
X129047986Y-109387471D01*
X129091351Y-109383200D01*
X130598249Y-109383200D01*
X130641614Y-109387471D01*
G37*
G36*
X182199000Y-110692000D02*
G01*
X180747000Y-110692000D01*
X180747000Y-109240000D01*
X182199000Y-109240000D01*
X182199000Y-110692000D01*
G37*
G36*
X179684766Y-109267899D02*
G01*
X179816888Y-109322626D01*
X179816890Y-109322627D01*
X179935798Y-109402079D01*
X180036921Y-109503202D01*
X180111221Y-109614400D01*
X180116374Y-109622112D01*
X180171101Y-109754234D01*
X180199000Y-109894494D01*
X180199000Y-110037506D01*
X180171101Y-110177766D01*
X180140108Y-110252589D01*
X180116373Y-110309890D01*
X180036921Y-110428798D01*
X179935798Y-110529921D01*
X179816890Y-110609373D01*
X179816889Y-110609374D01*
X179816888Y-110609374D01*
X179684766Y-110664101D01*
X179544506Y-110692000D01*
X179401494Y-110692000D01*
X179261234Y-110664101D01*
X179129112Y-110609374D01*
X179129111Y-110609374D01*
X179129110Y-110609373D01*
X179010202Y-110529921D01*
X178909079Y-110428798D01*
X178829627Y-110309890D01*
X178805892Y-110252589D01*
X178774899Y-110177766D01*
X178747000Y-110037506D01*
X178747000Y-109894494D01*
X178774899Y-109754234D01*
X178829626Y-109622112D01*
X178834779Y-109614400D01*
X178909079Y-109503202D01*
X179010202Y-109402079D01*
X179129110Y-109322627D01*
X179129112Y-109322626D01*
X179261234Y-109267899D01*
X179401494Y-109240000D01*
X179544506Y-109240000D01*
X179684766Y-109267899D01*
G37*
G36*
X117488003Y-109345214D02*
G01*
X117525392Y-109356556D01*
X117559846Y-109374971D01*
X117590045Y-109399755D01*
X117614829Y-109429954D01*
X117633244Y-109464408D01*
X117644586Y-109501797D01*
X117649020Y-109546815D01*
X117649020Y-110411745D01*
X117644586Y-110456763D01*
X117633244Y-110494152D01*
X117614829Y-110528606D01*
X117590045Y-110558805D01*
X117559846Y-110583589D01*
X117525392Y-110602004D01*
X117488003Y-110613346D01*
X117442985Y-110617780D01*
X116303055Y-110617780D01*
X116258037Y-110613346D01*
X116220648Y-110602004D01*
X116186194Y-110583589D01*
X116155995Y-110558805D01*
X116131211Y-110528606D01*
X116112796Y-110494152D01*
X116101454Y-110456763D01*
X116097020Y-110411745D01*
X116097020Y-109546815D01*
X116101454Y-109501797D01*
X116112796Y-109464408D01*
X116131211Y-109429954D01*
X116155995Y-109399755D01*
X116186194Y-109374971D01*
X116220648Y-109356556D01*
X116258037Y-109345214D01*
X116303055Y-109340780D01*
X117442985Y-109340780D01*
X117488003Y-109345214D01*
G37*
G36*
X127405420Y-110582080D02*
G01*
X126203420Y-110582080D01*
X126203420Y-109380080D01*
X127405420Y-109380080D01*
X127405420Y-110582080D01*
G37*
G36*
X123649254Y-108915400D02*
G01*
X119291586Y-108915400D01*
X119291586Y-107340200D01*
X123649254Y-107340200D01*
X123649254Y-108915400D01*
G37*
G36*
X117488003Y-107270214D02*
G01*
X117525392Y-107281556D01*
X117559846Y-107299971D01*
X117590045Y-107324755D01*
X117614829Y-107354954D01*
X117633244Y-107389408D01*
X117644586Y-107426797D01*
X117649020Y-107471815D01*
X117649020Y-108336745D01*
X117644586Y-108381763D01*
X117633244Y-108419152D01*
X117614829Y-108453606D01*
X117590045Y-108483805D01*
X117559846Y-108508589D01*
X117525392Y-108527004D01*
X117488003Y-108538346D01*
X117442985Y-108542780D01*
X116303055Y-108542780D01*
X116258037Y-108538346D01*
X116220648Y-108527004D01*
X116186194Y-108508589D01*
X116155995Y-108483805D01*
X116131211Y-108453606D01*
X116112796Y-108419152D01*
X116101454Y-108381763D01*
X116097020Y-108336745D01*
X116097020Y-107471815D01*
X116101454Y-107426797D01*
X116112796Y-107389408D01*
X116131211Y-107354954D01*
X116155995Y-107324755D01*
X116186194Y-107299971D01*
X116220648Y-107281556D01*
X116258037Y-107270214D01*
X116303055Y-107265780D01*
X117442985Y-107265780D01*
X117488003Y-107270214D01*
G37*
G36*
X130641614Y-106262471D02*
G01*
X130677407Y-106273329D01*
X130710399Y-106290964D01*
X130739310Y-106314690D01*
X130763036Y-106343601D01*
X130780671Y-106376593D01*
X130791529Y-106412386D01*
X130795800Y-106455751D01*
X130795800Y-107487649D01*
X130791529Y-107531014D01*
X130780671Y-107566807D01*
X130763036Y-107599799D01*
X130739310Y-107628710D01*
X130710399Y-107652436D01*
X130677407Y-107670071D01*
X130641614Y-107680929D01*
X130598249Y-107685200D01*
X129091351Y-107685200D01*
X129047986Y-107680929D01*
X129012193Y-107670071D01*
X128979201Y-107652436D01*
X128950290Y-107628710D01*
X128926564Y-107599799D01*
X128908929Y-107566807D01*
X128898071Y-107531014D01*
X128893800Y-107487649D01*
X128893800Y-106455751D01*
X128898071Y-106412386D01*
X128908929Y-106376593D01*
X128926564Y-106343601D01*
X128950290Y-106314690D01*
X128979201Y-106290964D01*
X129012193Y-106273329D01*
X129047986Y-106262471D01*
X129091351Y-106258200D01*
X130598249Y-106258200D01*
X130641614Y-106262471D01*
G37*
G36*
X127293382Y-105773361D02*
G01*
X127328301Y-105783954D01*
X127360483Y-105801156D01*
X127388693Y-105824307D01*
X127411844Y-105852517D01*
X127429046Y-105884699D01*
X127439639Y-105919618D01*
X127443820Y-105962075D01*
X127443820Y-107103285D01*
X127439639Y-107145742D01*
X127429046Y-107180661D01*
X127411844Y-107212843D01*
X127388693Y-107241053D01*
X127360483Y-107264204D01*
X127328301Y-107281406D01*
X127293382Y-107291999D01*
X127250925Y-107296180D01*
X124884715Y-107296180D01*
X124842258Y-107291999D01*
X124807339Y-107281406D01*
X124775157Y-107264204D01*
X124746947Y-107241053D01*
X124723796Y-107212843D01*
X124706594Y-107180661D01*
X124696001Y-107145742D01*
X124691820Y-107103285D01*
X124691820Y-105962075D01*
X124696001Y-105919618D01*
X124706594Y-105884699D01*
X124723796Y-105852517D01*
X124746947Y-105824307D01*
X124775157Y-105801156D01*
X124807339Y-105783954D01*
X124842258Y-105773361D01*
X124884715Y-105769180D01*
X127250925Y-105769180D01*
X127293382Y-105773361D01*
G37*
G36*
X171120662Y-104777681D02*
G01*
X171155581Y-104788274D01*
X171187763Y-104805476D01*
X171215973Y-104828627D01*
X171239124Y-104856837D01*
X171256326Y-104889019D01*
X171266919Y-104923938D01*
X171271100Y-104966395D01*
X171271100Y-106107605D01*
X171266919Y-106150062D01*
X171256326Y-106184981D01*
X171239124Y-106217163D01*
X171215973Y-106245373D01*
X171187763Y-106268524D01*
X171155581Y-106285726D01*
X171120662Y-106296319D01*
X171078205Y-106300500D01*
X169611995Y-106300500D01*
X169569538Y-106296319D01*
X169534619Y-106285726D01*
X169502437Y-106268524D01*
X169474227Y-106245373D01*
X169451076Y-106217163D01*
X169433874Y-106184981D01*
X169423281Y-106150062D01*
X169419100Y-106107605D01*
X169419100Y-104966395D01*
X169423281Y-104923938D01*
X169433874Y-104889019D01*
X169451076Y-104856837D01*
X169474227Y-104828627D01*
X169502437Y-104805476D01*
X169534619Y-104788274D01*
X169569538Y-104777681D01*
X169611995Y-104773500D01*
X171078205Y-104773500D01*
X171120662Y-104777681D01*
G37*
G36*
X174346462Y-104653881D02*
G01*
X174381381Y-104664474D01*
X174413563Y-104681676D01*
X174441773Y-104704827D01*
X174464924Y-104733037D01*
X174482126Y-104765219D01*
X174492719Y-104800138D01*
X174496900Y-104842595D01*
X174496900Y-105983805D01*
X174492719Y-106026262D01*
X174482126Y-106061181D01*
X174464924Y-106093363D01*
X174441773Y-106121573D01*
X174413563Y-106144724D01*
X174381381Y-106161926D01*
X174346462Y-106172519D01*
X174304005Y-106176700D01*
X172837795Y-106176700D01*
X172795338Y-106172519D01*
X172760419Y-106161926D01*
X172728237Y-106144724D01*
X172700027Y-106121573D01*
X172676876Y-106093363D01*
X172659674Y-106061181D01*
X172649081Y-106026262D01*
X172644900Y-105983805D01*
X172644900Y-104842595D01*
X172649081Y-104800138D01*
X172659674Y-104765219D01*
X172676876Y-104733037D01*
X172700027Y-104704827D01*
X172728237Y-104681676D01*
X172760419Y-104664474D01*
X172795338Y-104653881D01*
X172837795Y-104649700D01*
X174304005Y-104649700D01*
X174346462Y-104653881D01*
G37*
G36*
X167437662Y-104650681D02*
G01*
X167472581Y-104661274D01*
X167504763Y-104678476D01*
X167532973Y-104701627D01*
X167556124Y-104729837D01*
X167573326Y-104762019D01*
X167583919Y-104796938D01*
X167588100Y-104839395D01*
X167588100Y-105980605D01*
X167583919Y-106023062D01*
X167573326Y-106057981D01*
X167556124Y-106090163D01*
X167532973Y-106118373D01*
X167504763Y-106141524D01*
X167472581Y-106158726D01*
X167437662Y-106169319D01*
X167395205Y-106173500D01*
X165928995Y-106173500D01*
X165886538Y-106169319D01*
X165851619Y-106158726D01*
X165819437Y-106141524D01*
X165791227Y-106118373D01*
X165768076Y-106090163D01*
X165750874Y-106057981D01*
X165740281Y-106023062D01*
X165736100Y-105980605D01*
X165736100Y-104839395D01*
X165740281Y-104796938D01*
X165750874Y-104762019D01*
X165768076Y-104729837D01*
X165791227Y-104701627D01*
X165819437Y-104678476D01*
X165851619Y-104661274D01*
X165886538Y-104650681D01*
X165928995Y-104646500D01*
X167395205Y-104646500D01*
X167437662Y-104650681D01*
G37*
G36*
X140383000Y-105740200D02*
G01*
X139081000Y-105740200D01*
X139081000Y-104438200D01*
X140383000Y-104438200D01*
X140383000Y-105740200D01*
G37*
G36*
X143921890Y-104463217D02*
G01*
X144040364Y-104512291D01*
X144146988Y-104583535D01*
X144237665Y-104674212D01*
X144276971Y-104733037D01*
X144308910Y-104780838D01*
X144340390Y-104856837D01*
X144357983Y-104899310D01*
X144383000Y-105025082D01*
X144383000Y-105153318D01*
X144357983Y-105279090D01*
X144308909Y-105397564D01*
X144237665Y-105504188D01*
X144146988Y-105594865D01*
X144040364Y-105666109D01*
X144040363Y-105666110D01*
X144040362Y-105666110D01*
X143921890Y-105715183D01*
X143796119Y-105740200D01*
X143667881Y-105740200D01*
X143542110Y-105715183D01*
X143423638Y-105666110D01*
X143423637Y-105666110D01*
X143423636Y-105666109D01*
X143317012Y-105594865D01*
X143226335Y-105504188D01*
X143155091Y-105397564D01*
X143106017Y-105279090D01*
X143081000Y-105153318D01*
X143081000Y-105025082D01*
X143106017Y-104899310D01*
X143123610Y-104856837D01*
X143155090Y-104780838D01*
X143187030Y-104733037D01*
X143226335Y-104674212D01*
X143317012Y-104583535D01*
X143423636Y-104512291D01*
X143542110Y-104463217D01*
X143667881Y-104438200D01*
X143796119Y-104438200D01*
X143921890Y-104463217D01*
G37*
G36*
X141921890Y-104463217D02*
G01*
X142040364Y-104512291D01*
X142146988Y-104583535D01*
X142237665Y-104674212D01*
X142276971Y-104733037D01*
X142308910Y-104780838D01*
X142340390Y-104856837D01*
X142357983Y-104899310D01*
X142383000Y-105025082D01*
X142383000Y-105153318D01*
X142357983Y-105279090D01*
X142308909Y-105397564D01*
X142237665Y-105504188D01*
X142146988Y-105594865D01*
X142040364Y-105666109D01*
X142040363Y-105666110D01*
X142040362Y-105666110D01*
X141921890Y-105715183D01*
X141796119Y-105740200D01*
X141667881Y-105740200D01*
X141542110Y-105715183D01*
X141423638Y-105666110D01*
X141423637Y-105666110D01*
X141423636Y-105666109D01*
X141317012Y-105594865D01*
X141226335Y-105504188D01*
X141155091Y-105397564D01*
X141106017Y-105279090D01*
X141081000Y-105153318D01*
X141081000Y-105025082D01*
X141106017Y-104899310D01*
X141123610Y-104856837D01*
X141155090Y-104780838D01*
X141187030Y-104733037D01*
X141226335Y-104674212D01*
X141317012Y-104583535D01*
X141423636Y-104512291D01*
X141542110Y-104463217D01*
X141667881Y-104438200D01*
X141796119Y-104438200D01*
X141921890Y-104463217D01*
G37*
G36*
X118704503Y-104084714D02*
G01*
X118741892Y-104096056D01*
X118776346Y-104114471D01*
X118806545Y-104139255D01*
X118831329Y-104169454D01*
X118849744Y-104203908D01*
X118861086Y-104241297D01*
X118865520Y-104286315D01*
X118865520Y-105426245D01*
X118861086Y-105471263D01*
X118849744Y-105508652D01*
X118831329Y-105543106D01*
X118806545Y-105573305D01*
X118776346Y-105598089D01*
X118741892Y-105616504D01*
X118704503Y-105627846D01*
X118659485Y-105632280D01*
X117794555Y-105632280D01*
X117749537Y-105627846D01*
X117712148Y-105616504D01*
X117677694Y-105598089D01*
X117647495Y-105573305D01*
X117622711Y-105543106D01*
X117604296Y-105508652D01*
X117592954Y-105471263D01*
X117588520Y-105426245D01*
X117588520Y-104286315D01*
X117592954Y-104241297D01*
X117604296Y-104203908D01*
X117622711Y-104169454D01*
X117647495Y-104139255D01*
X117677694Y-104114471D01*
X117712148Y-104096056D01*
X117749537Y-104084714D01*
X117794555Y-104080280D01*
X118659485Y-104080280D01*
X118704503Y-104084714D01*
G37*
G36*
X120779503Y-104084714D02*
G01*
X120816892Y-104096056D01*
X120851346Y-104114471D01*
X120881545Y-104139255D01*
X120906329Y-104169454D01*
X120924744Y-104203908D01*
X120936086Y-104241297D01*
X120940520Y-104286315D01*
X120940520Y-105426245D01*
X120936086Y-105471263D01*
X120924744Y-105508652D01*
X120906329Y-105543106D01*
X120881545Y-105573305D01*
X120851346Y-105598089D01*
X120816892Y-105616504D01*
X120779503Y-105627846D01*
X120734485Y-105632280D01*
X119869555Y-105632280D01*
X119824537Y-105627846D01*
X119787148Y-105616504D01*
X119752694Y-105598089D01*
X119722495Y-105573305D01*
X119697711Y-105543106D01*
X119679296Y-105508652D01*
X119667954Y-105471263D01*
X119663520Y-105426245D01*
X119663520Y-104286315D01*
X119667954Y-104241297D01*
X119679296Y-104203908D01*
X119697711Y-104169454D01*
X119722495Y-104139255D01*
X119752694Y-104114471D01*
X119787148Y-104096056D01*
X119824537Y-104084714D01*
X119869555Y-104080280D01*
X120734485Y-104080280D01*
X120779503Y-104084714D01*
G37*
G36*
X147377630Y-102944618D02*
G01*
X147567734Y-102982432D01*
X147777203Y-103069197D01*
X147965720Y-103195160D01*
X148126040Y-103355480D01*
X148252003Y-103543997D01*
X148338768Y-103753466D01*
X148383000Y-103975836D01*
X148383000Y-104202564D01*
X148338768Y-104424934D01*
X148252003Y-104634403D01*
X148126040Y-104822920D01*
X147965720Y-104983240D01*
X147777203Y-105109203D01*
X147567734Y-105195968D01*
X147456549Y-105218084D01*
X147345365Y-105240200D01*
X147118635Y-105240200D01*
X147007451Y-105218084D01*
X146896266Y-105195968D01*
X146686797Y-105109203D01*
X146498280Y-104983240D01*
X146337960Y-104822920D01*
X146211997Y-104634403D01*
X146125232Y-104424934D01*
X146081000Y-104202564D01*
X146081000Y-103975836D01*
X146125232Y-103753466D01*
X146211997Y-103543997D01*
X146337960Y-103355480D01*
X146498280Y-103195160D01*
X146686797Y-103069197D01*
X146896266Y-102982432D01*
X147086370Y-102944618D01*
X147118635Y-102938200D01*
X147345365Y-102938200D01*
X147377630Y-102944618D01*
G37*
G36*
X136377630Y-102944618D02*
G01*
X136567734Y-102982432D01*
X136777203Y-103069197D01*
X136965720Y-103195160D01*
X137126040Y-103355480D01*
X137252003Y-103543997D01*
X137338768Y-103753466D01*
X137383000Y-103975836D01*
X137383000Y-104202564D01*
X137338768Y-104424934D01*
X137252003Y-104634403D01*
X137126040Y-104822920D01*
X136965720Y-104983240D01*
X136777203Y-105109203D01*
X136567734Y-105195968D01*
X136456549Y-105218084D01*
X136345365Y-105240200D01*
X136118635Y-105240200D01*
X136007451Y-105218084D01*
X135896266Y-105195968D01*
X135686797Y-105109203D01*
X135498280Y-104983240D01*
X135337960Y-104822920D01*
X135211997Y-104634403D01*
X135125232Y-104424934D01*
X135081000Y-104202564D01*
X135081000Y-103975836D01*
X135125232Y-103753466D01*
X135211997Y-103543997D01*
X135337960Y-103355480D01*
X135498280Y-103195160D01*
X135686797Y-103069197D01*
X135896266Y-102982432D01*
X136086370Y-102944618D01*
X136118635Y-102938200D01*
X136345365Y-102938200D01*
X136377630Y-102944618D01*
G37*
G36*
X127293382Y-102798361D02*
G01*
X127328301Y-102808954D01*
X127360483Y-102826156D01*
X127388693Y-102849307D01*
X127411844Y-102877517D01*
X127429046Y-102909699D01*
X127439639Y-102944618D01*
X127443820Y-102987075D01*
X127443820Y-104128285D01*
X127439639Y-104170742D01*
X127429046Y-104205661D01*
X127411844Y-104237843D01*
X127388693Y-104266053D01*
X127360483Y-104289204D01*
X127328301Y-104306406D01*
X127293382Y-104316999D01*
X127250925Y-104321180D01*
X124884715Y-104321180D01*
X124842258Y-104316999D01*
X124807339Y-104306406D01*
X124775157Y-104289204D01*
X124746947Y-104266053D01*
X124723796Y-104237843D01*
X124706594Y-104205661D01*
X124696001Y-104170742D01*
X124691820Y-104128285D01*
X124691820Y-102987075D01*
X124696001Y-102944618D01*
X124706594Y-102909699D01*
X124723796Y-102877517D01*
X124746947Y-102849307D01*
X124775157Y-102826156D01*
X124807339Y-102808954D01*
X124842258Y-102798361D01*
X124884715Y-102794180D01*
X127250925Y-102794180D01*
X127293382Y-102798361D01*
G37*
G36*
X139921890Y-102463217D02*
G01*
X140040364Y-102512291D01*
X140146988Y-102583535D01*
X140237665Y-102674212D01*
X140308910Y-102780838D01*
X140357983Y-102899310D01*
X140383000Y-103025081D01*
X140383000Y-103153319D01*
X140372434Y-103206440D01*
X140357983Y-103279090D01*
X140308909Y-103397564D01*
X140237665Y-103504188D01*
X140146988Y-103594865D01*
X140040364Y-103666109D01*
X140040363Y-103666110D01*
X140040362Y-103666110D01*
X139921890Y-103715183D01*
X139796119Y-103740200D01*
X139667881Y-103740200D01*
X139542110Y-103715183D01*
X139423638Y-103666110D01*
X139423637Y-103666110D01*
X139423636Y-103666109D01*
X139317012Y-103594865D01*
X139226335Y-103504188D01*
X139155091Y-103397564D01*
X139106017Y-103279090D01*
X139091566Y-103206440D01*
X139081000Y-103153319D01*
X139081000Y-103025081D01*
X139106017Y-102899310D01*
X139155090Y-102780838D01*
X139226335Y-102674212D01*
X139317012Y-102583535D01*
X139423636Y-102512291D01*
X139542110Y-102463217D01*
X139667881Y-102438200D01*
X139796119Y-102438200D01*
X139921890Y-102463217D01*
G37*
G36*
X143921890Y-102463217D02*
G01*
X144040364Y-102512291D01*
X144146988Y-102583535D01*
X144237665Y-102674212D01*
X144308910Y-102780838D01*
X144357983Y-102899310D01*
X144383000Y-103025081D01*
X144383000Y-103153319D01*
X144372434Y-103206440D01*
X144357983Y-103279090D01*
X144308909Y-103397564D01*
X144237665Y-103504188D01*
X144146988Y-103594865D01*
X144040364Y-103666109D01*
X144040363Y-103666110D01*
X144040362Y-103666110D01*
X143921890Y-103715183D01*
X143796119Y-103740200D01*
X143667881Y-103740200D01*
X143542110Y-103715183D01*
X143423638Y-103666110D01*
X143423637Y-103666110D01*
X143423636Y-103666109D01*
X143317012Y-103594865D01*
X143226335Y-103504188D01*
X143155091Y-103397564D01*
X143106017Y-103279090D01*
X143091566Y-103206440D01*
X143081000Y-103153319D01*
X143081000Y-103025081D01*
X143106017Y-102899310D01*
X143155090Y-102780838D01*
X143226335Y-102674212D01*
X143317012Y-102583535D01*
X143423636Y-102512291D01*
X143542110Y-102463217D01*
X143667881Y-102438200D01*
X143796119Y-102438200D01*
X143921890Y-102463217D01*
G37*
G36*
X141921890Y-102463217D02*
G01*
X142040364Y-102512291D01*
X142146988Y-102583535D01*
X142237665Y-102674212D01*
X142308910Y-102780838D01*
X142357983Y-102899310D01*
X142383000Y-103025081D01*
X142383000Y-103153319D01*
X142372434Y-103206440D01*
X142357983Y-103279090D01*
X142308909Y-103397564D01*
X142237665Y-103504188D01*
X142146988Y-103594865D01*
X142040364Y-103666109D01*
X142040363Y-103666110D01*
X142040362Y-103666110D01*
X141921890Y-103715183D01*
X141796119Y-103740200D01*
X141667881Y-103740200D01*
X141542110Y-103715183D01*
X141423638Y-103666110D01*
X141423637Y-103666110D01*
X141423636Y-103666109D01*
X141317012Y-103594865D01*
X141226335Y-103504188D01*
X141155091Y-103397564D01*
X141106017Y-103279090D01*
X141091566Y-103206440D01*
X141081000Y-103153319D01*
X141081000Y-103025081D01*
X141106017Y-102899310D01*
X141155090Y-102780838D01*
X141226335Y-102674212D01*
X141317012Y-102583535D01*
X141423636Y-102512291D01*
X141542110Y-102463217D01*
X141667881Y-102438200D01*
X141796119Y-102438200D01*
X141921890Y-102463217D01*
G37*
G36*
X171120662Y-101802681D02*
G01*
X171155581Y-101813274D01*
X171187763Y-101830476D01*
X171215973Y-101853627D01*
X171239124Y-101881837D01*
X171256326Y-101914019D01*
X171266919Y-101948938D01*
X171271100Y-101991395D01*
X171271100Y-103132605D01*
X171266919Y-103175062D01*
X171256326Y-103209981D01*
X171239124Y-103242163D01*
X171215973Y-103270373D01*
X171187763Y-103293524D01*
X171155581Y-103310726D01*
X171120662Y-103321319D01*
X171078205Y-103325500D01*
X169611995Y-103325500D01*
X169569538Y-103321319D01*
X169534619Y-103310726D01*
X169502437Y-103293524D01*
X169474227Y-103270373D01*
X169451076Y-103242163D01*
X169433874Y-103209981D01*
X169423281Y-103175062D01*
X169419100Y-103132605D01*
X169419100Y-101991395D01*
X169423281Y-101948938D01*
X169433874Y-101914019D01*
X169451076Y-101881837D01*
X169474227Y-101853627D01*
X169502437Y-101830476D01*
X169534619Y-101813274D01*
X169569538Y-101802681D01*
X169611995Y-101798500D01*
X171078205Y-101798500D01*
X171120662Y-101802681D01*
G37*
G36*
X174346462Y-101678881D02*
G01*
X174381381Y-101689474D01*
X174413563Y-101706676D01*
X174441773Y-101729827D01*
X174464924Y-101758037D01*
X174482126Y-101790219D01*
X174492719Y-101825138D01*
X174496900Y-101867595D01*
X174496900Y-103008805D01*
X174492719Y-103051262D01*
X174482126Y-103086181D01*
X174464924Y-103118363D01*
X174441773Y-103146573D01*
X174413563Y-103169724D01*
X174381381Y-103186926D01*
X174346462Y-103197519D01*
X174304005Y-103201700D01*
X172837795Y-103201700D01*
X172795338Y-103197519D01*
X172760419Y-103186926D01*
X172728237Y-103169724D01*
X172700027Y-103146573D01*
X172676876Y-103118363D01*
X172659674Y-103086181D01*
X172649081Y-103051262D01*
X172644900Y-103008805D01*
X172644900Y-101867595D01*
X172649081Y-101825138D01*
X172659674Y-101790219D01*
X172676876Y-101758037D01*
X172700027Y-101729827D01*
X172728237Y-101706676D01*
X172760419Y-101689474D01*
X172795338Y-101678881D01*
X172837795Y-101674700D01*
X174304005Y-101674700D01*
X174346462Y-101678881D01*
G37*
G36*
X167437662Y-101675681D02*
G01*
X167472581Y-101686274D01*
X167504763Y-101703476D01*
X167532973Y-101726627D01*
X167556124Y-101754837D01*
X167573326Y-101787019D01*
X167583919Y-101821938D01*
X167588100Y-101864395D01*
X167588100Y-103005605D01*
X167583919Y-103048062D01*
X167573326Y-103082981D01*
X167556124Y-103115163D01*
X167532973Y-103143373D01*
X167504763Y-103166524D01*
X167472581Y-103183726D01*
X167437662Y-103194319D01*
X167395205Y-103198500D01*
X165928995Y-103198500D01*
X165886538Y-103194319D01*
X165851619Y-103183726D01*
X165819437Y-103166524D01*
X165791227Y-103143373D01*
X165768076Y-103115163D01*
X165750874Y-103082981D01*
X165740281Y-103048062D01*
X165736100Y-103005605D01*
X165736100Y-101864395D01*
X165740281Y-101821938D01*
X165750874Y-101787019D01*
X165768076Y-101754837D01*
X165791227Y-101726627D01*
X165819437Y-101703476D01*
X165851619Y-101686274D01*
X165886538Y-101675681D01*
X165928995Y-101671500D01*
X167395205Y-101671500D01*
X167437662Y-101675681D01*
G37*
G36*
X170936341Y-98286404D02*
G01*
X170973438Y-98297657D01*
X171007619Y-98315927D01*
X171037583Y-98340517D01*
X171062173Y-98370481D01*
X171080443Y-98404662D01*
X171091696Y-98441759D01*
X171096100Y-98486473D01*
X171096100Y-99379527D01*
X171091696Y-99424241D01*
X171080443Y-99461338D01*
X171062173Y-99495519D01*
X171037583Y-99525483D01*
X171007619Y-99550073D01*
X170973438Y-99568343D01*
X170936341Y-99579596D01*
X170891627Y-99584000D01*
X169798573Y-99584000D01*
X169753859Y-99579596D01*
X169716762Y-99568343D01*
X169682581Y-99550073D01*
X169652617Y-99525483D01*
X169628027Y-99495519D01*
X169609757Y-99461338D01*
X169598504Y-99424241D01*
X169594100Y-99379527D01*
X169594100Y-98486473D01*
X169598504Y-98441759D01*
X169609757Y-98404662D01*
X169628027Y-98370481D01*
X169652617Y-98340517D01*
X169682581Y-98315927D01*
X169716762Y-98297657D01*
X169753859Y-98286404D01*
X169798573Y-98282000D01*
X170891627Y-98282000D01*
X170936341Y-98286404D01*
G37*
G36*
X174060541Y-98184804D02*
G01*
X174097638Y-98196057D01*
X174131819Y-98214327D01*
X174161783Y-98238917D01*
X174186373Y-98268881D01*
X174204643Y-98303062D01*
X174215896Y-98340159D01*
X174220300Y-98384873D01*
X174220300Y-99277927D01*
X174215896Y-99322641D01*
X174204643Y-99359738D01*
X174186373Y-99393919D01*
X174161783Y-99423883D01*
X174131819Y-99448473D01*
X174097638Y-99466743D01*
X174060541Y-99477996D01*
X174015827Y-99482400D01*
X172922773Y-99482400D01*
X172878059Y-99477996D01*
X172840962Y-99466743D01*
X172806781Y-99448473D01*
X172776817Y-99423883D01*
X172752227Y-99393919D01*
X172733957Y-99359738D01*
X172722704Y-99322641D01*
X172718300Y-99277927D01*
X172718300Y-98384873D01*
X172722704Y-98340159D01*
X172733957Y-98303062D01*
X172752227Y-98268881D01*
X172776817Y-98238917D01*
X172806781Y-98214327D01*
X172840962Y-98196057D01*
X172878059Y-98184804D01*
X172922773Y-98180400D01*
X174015827Y-98180400D01*
X174060541Y-98184804D01*
G37*
G36*
X167253341Y-98159404D02*
G01*
X167290438Y-98170657D01*
X167324619Y-98188927D01*
X167354583Y-98213517D01*
X167379173Y-98243481D01*
X167397443Y-98277662D01*
X167408696Y-98314759D01*
X167413100Y-98359473D01*
X167413100Y-99252527D01*
X167408696Y-99297241D01*
X167397443Y-99334338D01*
X167379173Y-99368519D01*
X167354583Y-99398483D01*
X167324619Y-99423073D01*
X167290438Y-99441343D01*
X167253341Y-99452596D01*
X167208627Y-99457000D01*
X166115573Y-99457000D01*
X166070859Y-99452596D01*
X166033762Y-99441343D01*
X165999581Y-99423073D01*
X165969617Y-99398483D01*
X165945027Y-99368519D01*
X165926757Y-99334338D01*
X165915504Y-99297241D01*
X165911100Y-99252527D01*
X165911100Y-98359473D01*
X165915504Y-98314759D01*
X165926757Y-98277662D01*
X165945027Y-98243481D01*
X165969617Y-98213517D01*
X165999581Y-98188927D01*
X166033762Y-98170657D01*
X166070859Y-98159404D01*
X166115573Y-98155000D01*
X167208627Y-98155000D01*
X167253341Y-98159404D01*
G37*
G36*
X104866366Y-97930099D02*
G01*
X104998488Y-97984826D01*
X104998490Y-97984827D01*
X105117398Y-98064279D01*
X105218521Y-98165402D01*
X105297973Y-98284310D01*
X105297974Y-98284312D01*
X105352701Y-98416434D01*
X105380600Y-98556694D01*
X105380600Y-98699706D01*
X105352701Y-98839966D01*
X105297974Y-98972088D01*
X105297973Y-98972090D01*
X105218521Y-99090998D01*
X105117398Y-99192121D01*
X104998490Y-99271573D01*
X104998489Y-99271574D01*
X104998488Y-99271574D01*
X104866366Y-99326301D01*
X104726106Y-99354200D01*
X104583094Y-99354200D01*
X104442834Y-99326301D01*
X104310712Y-99271574D01*
X104310711Y-99271574D01*
X104310710Y-99271573D01*
X104191802Y-99192121D01*
X104090679Y-99090998D01*
X104011227Y-98972090D01*
X104011226Y-98972088D01*
X103956499Y-98839966D01*
X103928600Y-98699706D01*
X103928600Y-98556694D01*
X103956499Y-98416434D01*
X104011226Y-98284312D01*
X104011227Y-98284310D01*
X104090679Y-98165402D01*
X104191802Y-98064279D01*
X104310710Y-97984827D01*
X104310712Y-97984826D01*
X104442834Y-97930099D01*
X104583094Y-97902200D01*
X104726106Y-97902200D01*
X104866366Y-97930099D01*
G37*
G36*
X106866366Y-97930099D02*
G01*
X106998488Y-97984826D01*
X106998490Y-97984827D01*
X107117398Y-98064279D01*
X107218521Y-98165402D01*
X107297973Y-98284310D01*
X107297974Y-98284312D01*
X107352701Y-98416434D01*
X107380600Y-98556694D01*
X107380600Y-98699706D01*
X107352701Y-98839966D01*
X107297974Y-98972088D01*
X107297973Y-98972090D01*
X107218521Y-99090998D01*
X107117398Y-99192121D01*
X106998490Y-99271573D01*
X106998489Y-99271574D01*
X106998488Y-99271574D01*
X106866366Y-99326301D01*
X106726106Y-99354200D01*
X106583094Y-99354200D01*
X106442834Y-99326301D01*
X106310712Y-99271574D01*
X106310711Y-99271574D01*
X106310710Y-99271573D01*
X106191802Y-99192121D01*
X106090679Y-99090998D01*
X106011227Y-98972090D01*
X106011226Y-98972088D01*
X105956499Y-98839966D01*
X105928600Y-98699706D01*
X105928600Y-98556694D01*
X105956499Y-98416434D01*
X106011226Y-98284312D01*
X106011227Y-98284310D01*
X106090679Y-98165402D01*
X106191802Y-98064279D01*
X106310710Y-97984827D01*
X106310712Y-97984826D01*
X106442834Y-97930099D01*
X106583094Y-97902200D01*
X106726106Y-97902200D01*
X106866366Y-97930099D01*
G37*
G36*
X170936341Y-96286404D02*
G01*
X170973438Y-96297657D01*
X171007619Y-96315927D01*
X171037583Y-96340517D01*
X171062173Y-96370481D01*
X171080443Y-96404662D01*
X171091696Y-96441759D01*
X171096100Y-96486473D01*
X171096100Y-97379527D01*
X171091696Y-97424241D01*
X171080443Y-97461338D01*
X171062173Y-97495519D01*
X171037583Y-97525483D01*
X171007619Y-97550073D01*
X170973438Y-97568343D01*
X170936341Y-97579596D01*
X170891627Y-97584000D01*
X169798573Y-97584000D01*
X169753859Y-97579596D01*
X169716762Y-97568343D01*
X169682581Y-97550073D01*
X169652617Y-97525483D01*
X169628027Y-97495519D01*
X169609757Y-97461338D01*
X169598504Y-97424241D01*
X169594100Y-97379527D01*
X169594100Y-96486473D01*
X169598504Y-96441759D01*
X169609757Y-96404662D01*
X169628027Y-96370481D01*
X169652617Y-96340517D01*
X169682581Y-96315927D01*
X169716762Y-96297657D01*
X169753859Y-96286404D01*
X169798573Y-96282000D01*
X170891627Y-96282000D01*
X170936341Y-96286404D01*
G37*
G36*
X174060541Y-96184804D02*
G01*
X174097638Y-96196057D01*
X174131819Y-96214327D01*
X174161783Y-96238917D01*
X174186373Y-96268881D01*
X174204643Y-96303062D01*
X174215896Y-96340159D01*
X174220300Y-96384873D01*
X174220300Y-97277927D01*
X174215896Y-97322641D01*
X174204643Y-97359738D01*
X174186373Y-97393919D01*
X174161783Y-97423883D01*
X174131819Y-97448473D01*
X174097638Y-97466743D01*
X174060541Y-97477996D01*
X174015827Y-97482400D01*
X172922773Y-97482400D01*
X172878059Y-97477996D01*
X172840962Y-97466743D01*
X172806781Y-97448473D01*
X172776817Y-97423883D01*
X172752227Y-97393919D01*
X172733957Y-97359738D01*
X172722704Y-97322641D01*
X172718300Y-97277927D01*
X172718300Y-96384873D01*
X172722704Y-96340159D01*
X172733957Y-96303062D01*
X172752227Y-96268881D01*
X172776817Y-96238917D01*
X172806781Y-96214327D01*
X172840962Y-96196057D01*
X172878059Y-96184804D01*
X172922773Y-96180400D01*
X174015827Y-96180400D01*
X174060541Y-96184804D01*
G37*
G36*
X167253341Y-96159404D02*
G01*
X167290438Y-96170657D01*
X167324619Y-96188927D01*
X167354583Y-96213517D01*
X167379173Y-96243481D01*
X167397443Y-96277662D01*
X167408696Y-96314759D01*
X167413100Y-96359473D01*
X167413100Y-97252527D01*
X167408696Y-97297241D01*
X167397443Y-97334338D01*
X167379173Y-97368519D01*
X167354583Y-97398483D01*
X167324619Y-97423073D01*
X167290438Y-97441343D01*
X167253341Y-97452596D01*
X167208627Y-97457000D01*
X166115573Y-97457000D01*
X166070859Y-97452596D01*
X166033762Y-97441343D01*
X165999581Y-97423073D01*
X165969617Y-97398483D01*
X165945027Y-97368519D01*
X165926757Y-97334338D01*
X165915504Y-97297241D01*
X165911100Y-97252527D01*
X165911100Y-96359473D01*
X165915504Y-96314759D01*
X165926757Y-96277662D01*
X165945027Y-96243481D01*
X165969617Y-96213517D01*
X165999581Y-96188927D01*
X166033762Y-96170657D01*
X166070859Y-96159404D01*
X166115573Y-96155000D01*
X167208627Y-96155000D01*
X167253341Y-96159404D01*
G37*
G36*
X104866366Y-95930099D02*
G01*
X104998488Y-95984826D01*
X104998490Y-95984827D01*
X105117398Y-96064279D01*
X105218521Y-96165402D01*
X105297973Y-96284310D01*
X105297974Y-96284312D01*
X105352701Y-96416434D01*
X105380600Y-96556694D01*
X105380600Y-96699706D01*
X105352701Y-96839966D01*
X105312380Y-96937308D01*
X105297973Y-96972090D01*
X105218521Y-97090998D01*
X105117398Y-97192121D01*
X104998490Y-97271573D01*
X104998489Y-97271574D01*
X104998488Y-97271574D01*
X104866366Y-97326301D01*
X104726106Y-97354200D01*
X104583094Y-97354200D01*
X104442834Y-97326301D01*
X104310712Y-97271574D01*
X104310711Y-97271574D01*
X104310710Y-97271573D01*
X104191802Y-97192121D01*
X104090679Y-97090998D01*
X104011227Y-96972090D01*
X103996820Y-96937308D01*
X103956499Y-96839966D01*
X103928600Y-96699706D01*
X103928600Y-96556694D01*
X103956499Y-96416434D01*
X104011226Y-96284312D01*
X104011227Y-96284310D01*
X104090679Y-96165402D01*
X104191802Y-96064279D01*
X104310710Y-95984827D01*
X104310712Y-95984826D01*
X104442834Y-95930099D01*
X104583094Y-95902200D01*
X104726106Y-95902200D01*
X104866366Y-95930099D01*
G37*
G36*
X106866366Y-95930099D02*
G01*
X106998488Y-95984826D01*
X106998490Y-95984827D01*
X107117398Y-96064279D01*
X107218521Y-96165402D01*
X107297973Y-96284310D01*
X107297974Y-96284312D01*
X107352701Y-96416434D01*
X107380600Y-96556694D01*
X107380600Y-96699706D01*
X107352701Y-96839966D01*
X107312380Y-96937308D01*
X107297973Y-96972090D01*
X107218521Y-97090998D01*
X107117398Y-97192121D01*
X106998490Y-97271573D01*
X106998489Y-97271574D01*
X106998488Y-97271574D01*
X106866366Y-97326301D01*
X106726106Y-97354200D01*
X106583094Y-97354200D01*
X106442834Y-97326301D01*
X106310712Y-97271574D01*
X106310711Y-97271574D01*
X106310710Y-97271573D01*
X106191802Y-97192121D01*
X106090679Y-97090998D01*
X106011227Y-96972090D01*
X105996820Y-96937308D01*
X105956499Y-96839966D01*
X105928600Y-96699706D01*
X105928600Y-96556694D01*
X105956499Y-96416434D01*
X106011226Y-96284312D01*
X106011227Y-96284310D01*
X106090679Y-96165402D01*
X106191802Y-96064279D01*
X106310710Y-95984827D01*
X106310712Y-95984826D01*
X106442834Y-95930099D01*
X106583094Y-95902200D01*
X106726106Y-95902200D01*
X106866366Y-95930099D01*
G37*
G36*
X131888034Y-95749225D02*
G01*
X131925727Y-95760659D01*
X131960463Y-95779226D01*
X131990908Y-95804212D01*
X132015894Y-95834657D01*
X132034461Y-95869393D01*
X132045895Y-95907086D01*
X132050360Y-95952421D01*
X132050360Y-96789099D01*
X132045895Y-96834434D01*
X132034461Y-96872127D01*
X132015894Y-96906863D01*
X131990908Y-96937308D01*
X131960463Y-96962294D01*
X131925727Y-96980861D01*
X131888034Y-96992295D01*
X131842699Y-96996760D01*
X130756021Y-96996760D01*
X130710686Y-96992295D01*
X130672993Y-96980861D01*
X130638257Y-96962294D01*
X130607812Y-96937308D01*
X130582826Y-96906863D01*
X130564259Y-96872127D01*
X130552825Y-96834434D01*
X130548360Y-96789099D01*
X130548360Y-95952421D01*
X130552825Y-95907086D01*
X130564259Y-95869393D01*
X130582826Y-95834657D01*
X130607812Y-95804212D01*
X130638257Y-95779226D01*
X130672993Y-95760659D01*
X130710686Y-95749225D01*
X130756021Y-95744760D01*
X131842699Y-95744760D01*
X131888034Y-95749225D01*
G37*
G36*
X180889787Y-89533462D02*
G01*
X180889790Y-89533463D01*
X180889789Y-89533463D01*
X181536029Y-89801144D01*
X182117631Y-90189758D01*
X182612242Y-90684369D01*
X183000856Y-91265971D01*
X183096569Y-91497044D01*
X183268538Y-91912213D01*
X183405000Y-92598256D01*
X183405000Y-93297744D01*
X183268538Y-93983787D01*
X183235197Y-94064279D01*
X183000856Y-94630029D01*
X182612242Y-95211631D01*
X182117631Y-95706242D01*
X181536029Y-96094856D01*
X181199026Y-96234447D01*
X180889787Y-96362538D01*
X180203744Y-96499000D01*
X179504256Y-96499000D01*
X178818213Y-96362538D01*
X178508974Y-96234447D01*
X178171971Y-96094856D01*
X177590369Y-95706242D01*
X177095758Y-95211631D01*
X176707144Y-94630029D01*
X176472803Y-94064279D01*
X176439462Y-93983787D01*
X176303000Y-93297744D01*
X176303000Y-92598256D01*
X176439462Y-91912213D01*
X176611431Y-91497044D01*
X176707144Y-91265971D01*
X177095758Y-90684369D01*
X177590369Y-90189758D01*
X178171971Y-89801144D01*
X178818211Y-89533463D01*
X178818210Y-89533463D01*
X178818213Y-89533462D01*
X179504256Y-89397000D01*
X180203744Y-89397000D01*
X180889787Y-89533462D01*
G37*
G36*
X137551580Y-95603220D02*
G01*
X135889580Y-95603220D01*
X135889580Y-92951220D01*
X137551580Y-92951220D01*
X137551580Y-95603220D01*
G37*
G36*
X134851580Y-95603220D02*
G01*
X133189580Y-95603220D01*
X133189580Y-94851220D01*
X134851580Y-94851220D01*
X134851580Y-95603220D01*
G37*
G36*
X106866366Y-93930099D02*
G01*
X106995984Y-93983789D01*
X106998490Y-93984827D01*
X107117398Y-94064279D01*
X107218521Y-94165402D01*
X107218522Y-94165404D01*
X107297974Y-94284312D01*
X107352701Y-94416434D01*
X107380600Y-94556694D01*
X107380600Y-94699706D01*
X107352701Y-94839966D01*
X107308465Y-94946760D01*
X107297973Y-94972090D01*
X107218521Y-95090998D01*
X107117398Y-95192121D01*
X106998490Y-95271573D01*
X106998489Y-95271574D01*
X106998488Y-95271574D01*
X106866366Y-95326301D01*
X106726106Y-95354200D01*
X106583094Y-95354200D01*
X106442834Y-95326301D01*
X106310712Y-95271574D01*
X106310711Y-95271574D01*
X106310710Y-95271573D01*
X106191802Y-95192121D01*
X106090679Y-95090998D01*
X106011227Y-94972090D01*
X106000735Y-94946760D01*
X105956499Y-94839966D01*
X105928600Y-94699706D01*
X105928600Y-94556694D01*
X105956499Y-94416434D01*
X106011226Y-94284312D01*
X106090678Y-94165404D01*
X106090679Y-94165402D01*
X106191802Y-94064279D01*
X106310710Y-93984827D01*
X106313216Y-93983789D01*
X106442834Y-93930099D01*
X106583094Y-93902200D01*
X106726106Y-93902200D01*
X106866366Y-93930099D01*
G37*
G36*
X105380600Y-95354200D02*
G01*
X103928600Y-95354200D01*
X103928600Y-93902200D01*
X105380600Y-93902200D01*
X105380600Y-95354200D01*
G37*
G36*
X131888034Y-93699225D02*
G01*
X131925727Y-93710659D01*
X131960463Y-93729226D01*
X131990908Y-93754212D01*
X132015894Y-93784657D01*
X132034461Y-93819393D01*
X132045895Y-93857086D01*
X132050360Y-93902421D01*
X132050360Y-94739099D01*
X132045895Y-94784434D01*
X132034461Y-94822127D01*
X132015894Y-94856863D01*
X131990908Y-94887308D01*
X131960463Y-94912294D01*
X131925727Y-94930861D01*
X131888034Y-94942295D01*
X131842699Y-94946760D01*
X130756021Y-94946760D01*
X130710686Y-94942295D01*
X130672993Y-94930861D01*
X130638257Y-94912294D01*
X130607812Y-94887308D01*
X130582826Y-94856863D01*
X130564259Y-94822127D01*
X130552825Y-94784434D01*
X130548360Y-94739099D01*
X130548360Y-93902421D01*
X130552825Y-93857086D01*
X130564259Y-93819393D01*
X130582826Y-93784657D01*
X130607812Y-93754212D01*
X130638257Y-93729226D01*
X130672993Y-93710659D01*
X130710686Y-93699225D01*
X130756021Y-93694760D01*
X131842699Y-93694760D01*
X131888034Y-93699225D01*
G37*
G36*
X134851580Y-93703220D02*
G01*
X133189580Y-93703220D01*
X133189580Y-92951220D01*
X134851580Y-92951220D01*
X134851580Y-93703220D01*
G37*
G36*
X168280339Y-86611477D02*
G01*
X168289948Y-86614392D01*
X168298812Y-86619130D01*
X168306577Y-86625503D01*
X168312950Y-86633268D01*
X168317688Y-86642132D01*
X168320603Y-86651741D01*
X168322192Y-86667880D01*
X168322192Y-88959889D01*
X168324594Y-88984275D01*
X168331707Y-89007724D01*
X168343258Y-89029335D01*
X168358803Y-89048277D01*
X168377745Y-89063822D01*
X168399356Y-89075373D01*
X168422805Y-89082486D01*
X168447191Y-89084888D01*
X168680694Y-89084888D01*
X168682085Y-89085025D01*
X168706589Y-89085025D01*
X168730623Y-89080246D01*
X168753262Y-89070869D01*
X168762963Y-89064387D01*
X168759758Y-89068293D01*
X168748207Y-89089904D01*
X168741094Y-89113353D01*
X168738692Y-89137739D01*
X168738692Y-93255600D01*
X168737103Y-93271739D01*
X168734188Y-93281348D01*
X168729450Y-93290212D01*
X168723077Y-93297977D01*
X168715312Y-93304350D01*
X168706448Y-93309088D01*
X168696839Y-93312003D01*
X168680700Y-93313592D01*
X166959980Y-93313592D01*
X166943841Y-93312003D01*
X166934232Y-93309088D01*
X166925368Y-93304350D01*
X166917603Y-93297977D01*
X166911230Y-93290212D01*
X166906492Y-93281348D01*
X166903577Y-93271739D01*
X166901988Y-93255600D01*
X166901988Y-89137739D01*
X166899586Y-89113353D01*
X166892473Y-89089904D01*
X166880922Y-89068293D01*
X166878614Y-89065481D01*
X166898504Y-89076112D01*
X166921953Y-89083225D01*
X166946339Y-89085627D01*
X166958595Y-89085025D01*
X166959986Y-89084888D01*
X167193489Y-89084888D01*
X167217875Y-89082486D01*
X167241324Y-89075373D01*
X167262935Y-89063822D01*
X167281877Y-89048277D01*
X167297422Y-89029335D01*
X167308973Y-89007724D01*
X167316086Y-88984275D01*
X167318488Y-88959889D01*
X167318488Y-86667880D01*
X167320077Y-86651741D01*
X167322992Y-86642132D01*
X167327730Y-86633268D01*
X167334103Y-86625503D01*
X167341868Y-86619130D01*
X167350732Y-86614392D01*
X167360341Y-86611477D01*
X167376480Y-86609888D01*
X168264200Y-86609888D01*
X168280339Y-86611477D01*
G37*
G36*
X172654263Y-90795594D02*
G01*
X172691652Y-90806936D01*
X172726106Y-90825351D01*
X172756305Y-90850135D01*
X172781089Y-90880334D01*
X172799504Y-90914788D01*
X172810846Y-90952177D01*
X172815280Y-90997195D01*
X172815280Y-91862125D01*
X172810846Y-91907143D01*
X172799504Y-91944532D01*
X172781089Y-91978986D01*
X172756305Y-92009185D01*
X172726106Y-92033969D01*
X172691652Y-92052384D01*
X172654263Y-92063726D01*
X172609245Y-92068160D01*
X171469315Y-92068160D01*
X171424297Y-92063726D01*
X171386908Y-92052384D01*
X171352454Y-92033969D01*
X171322255Y-92009185D01*
X171297471Y-91978986D01*
X171279056Y-91944532D01*
X171267714Y-91907143D01*
X171263280Y-91862125D01*
X171263280Y-90997195D01*
X171267714Y-90952177D01*
X171279056Y-90914788D01*
X171297471Y-90880334D01*
X171322255Y-90850135D01*
X171352454Y-90825351D01*
X171386908Y-90806936D01*
X171424297Y-90795594D01*
X171469315Y-90791160D01*
X172609245Y-90791160D01*
X172654263Y-90795594D01*
G37*
G36*
X134357464Y-89804555D02*
G01*
X134393495Y-89815486D01*
X134426707Y-89833237D01*
X134455815Y-89857125D01*
X134479703Y-89886233D01*
X134497454Y-89919445D01*
X134508385Y-89955476D01*
X134512680Y-89999089D01*
X134512680Y-91453431D01*
X134508385Y-91497044D01*
X134497454Y-91533075D01*
X134479703Y-91566287D01*
X134455815Y-91595395D01*
X134426707Y-91619283D01*
X134393495Y-91637034D01*
X134357464Y-91647965D01*
X134313851Y-91652260D01*
X133309509Y-91652260D01*
X133265896Y-91647965D01*
X133229865Y-91637034D01*
X133196653Y-91619283D01*
X133167545Y-91595395D01*
X133143657Y-91566287D01*
X133125906Y-91533075D01*
X133114975Y-91497044D01*
X133110680Y-91453431D01*
X133110680Y-89999089D01*
X133114975Y-89955476D01*
X133125906Y-89919445D01*
X133143657Y-89886233D01*
X133167545Y-89857125D01*
X133196653Y-89833237D01*
X133229865Y-89815486D01*
X133265896Y-89804555D01*
X133309509Y-89800260D01*
X134313851Y-89800260D01*
X134357464Y-89804555D01*
G37*
G36*
X137457464Y-89804555D02*
G01*
X137493495Y-89815486D01*
X137526707Y-89833237D01*
X137555815Y-89857125D01*
X137579703Y-89886233D01*
X137597454Y-89919445D01*
X137608385Y-89955476D01*
X137612680Y-89999089D01*
X137612680Y-91453431D01*
X137608385Y-91497044D01*
X137597454Y-91533075D01*
X137579703Y-91566287D01*
X137555815Y-91595395D01*
X137526707Y-91619283D01*
X137493495Y-91637034D01*
X137457464Y-91647965D01*
X137413851Y-91652260D01*
X136409509Y-91652260D01*
X136365896Y-91647965D01*
X136329865Y-91637034D01*
X136296653Y-91619283D01*
X136267545Y-91595395D01*
X136243657Y-91566287D01*
X136225906Y-91533075D01*
X136214975Y-91497044D01*
X136210680Y-91453431D01*
X136210680Y-89999089D01*
X136214975Y-89955476D01*
X136225906Y-89919445D01*
X136243657Y-89886233D01*
X136267545Y-89857125D01*
X136296653Y-89833237D01*
X136329865Y-89815486D01*
X136365896Y-89804555D01*
X136409509Y-89800260D01*
X137413851Y-89800260D01*
X137457464Y-89804555D01*
G37*
G36*
X155119642Y-88586981D02*
G01*
X155265414Y-88647362D01*
X155265416Y-88647363D01*
X155396608Y-88735022D01*
X155508178Y-88846592D01*
X155592563Y-88972884D01*
X155595838Y-88977786D01*
X155656219Y-89123558D01*
X155687000Y-89278307D01*
X155687000Y-89436093D01*
X155656219Y-89590842D01*
X155602116Y-89721458D01*
X155595837Y-89736616D01*
X155508178Y-89867808D01*
X155396608Y-89979378D01*
X155265416Y-90067037D01*
X155265415Y-90067038D01*
X155265414Y-90067038D01*
X155119642Y-90127419D01*
X154964893Y-90158200D01*
X154807107Y-90158200D01*
X154652358Y-90127419D01*
X154506586Y-90067038D01*
X154506585Y-90067038D01*
X154506584Y-90067037D01*
X154375392Y-89979378D01*
X154263822Y-89867808D01*
X154176163Y-89736616D01*
X154169884Y-89721458D01*
X154115781Y-89590842D01*
X154085000Y-89436093D01*
X154085000Y-89278307D01*
X154115781Y-89123558D01*
X154176162Y-88977786D01*
X154179437Y-88972884D01*
X154263822Y-88846592D01*
X154375392Y-88735022D01*
X154506584Y-88647363D01*
X154506586Y-88647362D01*
X154652358Y-88586981D01*
X154807107Y-88556200D01*
X154964893Y-88556200D01*
X155119642Y-88586981D01*
G37*
G36*
X159999642Y-88586981D02*
G01*
X160145414Y-88647362D01*
X160145416Y-88647363D01*
X160276608Y-88735022D01*
X160388178Y-88846592D01*
X160472563Y-88972884D01*
X160475838Y-88977786D01*
X160536219Y-89123558D01*
X160567000Y-89278307D01*
X160567000Y-89436093D01*
X160536219Y-89590842D01*
X160482116Y-89721458D01*
X160475837Y-89736616D01*
X160388178Y-89867808D01*
X160276608Y-89979378D01*
X160145416Y-90067037D01*
X160145415Y-90067038D01*
X160145414Y-90067038D01*
X159999642Y-90127419D01*
X159844893Y-90158200D01*
X159687107Y-90158200D01*
X159532358Y-90127419D01*
X159386586Y-90067038D01*
X159386585Y-90067038D01*
X159386584Y-90067037D01*
X159255392Y-89979378D01*
X159143822Y-89867808D01*
X159056163Y-89736616D01*
X159049884Y-89721458D01*
X158995781Y-89590842D01*
X158965000Y-89436093D01*
X158965000Y-89278307D01*
X158995781Y-89123558D01*
X159056162Y-88977786D01*
X159059437Y-88972884D01*
X159143822Y-88846592D01*
X159255392Y-88735022D01*
X159386584Y-88647363D01*
X159386586Y-88647362D01*
X159532358Y-88586981D01*
X159687107Y-88556200D01*
X159844893Y-88556200D01*
X159999642Y-88586981D01*
G37*
G36*
X172654263Y-88720594D02*
G01*
X172691652Y-88731936D01*
X172726106Y-88750351D01*
X172756305Y-88775135D01*
X172781089Y-88805334D01*
X172799504Y-88839788D01*
X172810846Y-88877177D01*
X172815280Y-88922195D01*
X172815280Y-89787125D01*
X172810846Y-89832143D01*
X172799504Y-89869532D01*
X172781089Y-89903986D01*
X172756305Y-89934185D01*
X172726106Y-89958969D01*
X172691652Y-89977384D01*
X172654263Y-89988726D01*
X172609245Y-89993160D01*
X171469315Y-89993160D01*
X171424297Y-89988726D01*
X171386908Y-89977384D01*
X171352454Y-89958969D01*
X171322255Y-89934185D01*
X171297471Y-89903986D01*
X171279056Y-89869532D01*
X171267714Y-89832143D01*
X171263280Y-89787125D01*
X171263280Y-88922195D01*
X171267714Y-88877177D01*
X171279056Y-88839788D01*
X171297471Y-88805334D01*
X171322255Y-88775135D01*
X171352454Y-88750351D01*
X171386908Y-88731936D01*
X171424297Y-88720594D01*
X171469315Y-88716160D01*
X172609245Y-88716160D01*
X172654263Y-88720594D01*
G37*
G36*
X169821340Y-89012740D02*
G01*
X168863691Y-89012740D01*
X168839305Y-89015142D01*
X168815856Y-89022255D01*
X168795506Y-89033132D01*
X168804579Y-89019555D01*
X168813957Y-88996917D01*
X168818738Y-88972884D01*
X168819340Y-88960628D01*
X168819340Y-86610740D01*
X169821340Y-86610740D01*
X169821340Y-89012740D01*
G37*
G36*
X166821340Y-88960628D02*
G01*
X166823742Y-88985014D01*
X166830855Y-89008463D01*
X166842406Y-89030074D01*
X166844714Y-89032886D01*
X166824824Y-89022255D01*
X166801375Y-89015142D01*
X166776989Y-89012740D01*
X165819340Y-89012740D01*
X165819340Y-86610740D01*
X166821340Y-86610740D01*
X166821340Y-88960628D01*
G37*
G36*
X106889787Y-81083462D02*
G01*
X106889790Y-81083463D01*
X106889789Y-81083463D01*
X107536029Y-81351144D01*
X108117631Y-81739758D01*
X108612242Y-82234369D01*
X109000856Y-82815971D01*
X109000856Y-82815972D01*
X109268538Y-83462213D01*
X109405000Y-84148256D01*
X109405000Y-84847744D01*
X109268538Y-85533787D01*
X109268537Y-85533789D01*
X109000856Y-86180029D01*
X108612242Y-86761631D01*
X108117631Y-87256242D01*
X107536029Y-87644856D01*
X107079068Y-87834135D01*
X106889787Y-87912538D01*
X106203744Y-88049000D01*
X105504256Y-88049000D01*
X104818213Y-87912538D01*
X104628932Y-87834135D01*
X104171971Y-87644856D01*
X103590369Y-87256242D01*
X103095758Y-86761631D01*
X102707144Y-86180029D01*
X102439463Y-85533789D01*
X102439462Y-85533787D01*
X102303000Y-84847744D01*
X102303000Y-84148256D01*
X102439462Y-83462213D01*
X102707144Y-82815972D01*
X102707144Y-82815971D01*
X103095758Y-82234369D01*
X103590369Y-81739758D01*
X104171971Y-81351144D01*
X104818211Y-81083463D01*
X104818210Y-81083463D01*
X104818213Y-81083462D01*
X105504256Y-80947000D01*
X106203744Y-80947000D01*
X106889787Y-81083462D01*
G37*
G36*
X166798043Y-83960294D02*
G01*
X166835432Y-83971636D01*
X166869886Y-83990051D01*
X166900085Y-84014835D01*
X166924869Y-84045034D01*
X166943284Y-84079488D01*
X166954626Y-84116877D01*
X166959060Y-84161895D01*
X166959060Y-85301825D01*
X166954626Y-85346843D01*
X166943284Y-85384232D01*
X166924869Y-85418686D01*
X166900085Y-85448885D01*
X166869886Y-85473669D01*
X166835432Y-85492084D01*
X166798043Y-85503426D01*
X166753025Y-85507860D01*
X165888095Y-85507860D01*
X165843077Y-85503426D01*
X165805688Y-85492084D01*
X165771234Y-85473669D01*
X165741035Y-85448885D01*
X165716251Y-85418686D01*
X165697836Y-85384232D01*
X165686494Y-85346843D01*
X165682060Y-85301825D01*
X165682060Y-84161895D01*
X165686494Y-84116877D01*
X165697836Y-84079488D01*
X165716251Y-84045034D01*
X165741035Y-84014835D01*
X165771234Y-83990051D01*
X165805688Y-83971636D01*
X165843077Y-83960294D01*
X165888095Y-83955860D01*
X166753025Y-83955860D01*
X166798043Y-83960294D01*
G37*
G36*
X168873043Y-83960294D02*
G01*
X168910432Y-83971636D01*
X168944886Y-83990051D01*
X168975085Y-84014835D01*
X168999869Y-84045034D01*
X169018284Y-84079488D01*
X169029626Y-84116877D01*
X169034060Y-84161895D01*
X169034060Y-85301825D01*
X169029626Y-85346843D01*
X169018284Y-85384232D01*
X168999869Y-85418686D01*
X168975085Y-85448885D01*
X168944886Y-85473669D01*
X168910432Y-85492084D01*
X168873043Y-85503426D01*
X168828025Y-85507860D01*
X167963095Y-85507860D01*
X167918077Y-85503426D01*
X167880688Y-85492084D01*
X167846234Y-85473669D01*
X167816035Y-85448885D01*
X167791251Y-85418686D01*
X167772836Y-85384232D01*
X167761494Y-85346843D01*
X167757060Y-85301825D01*
X167757060Y-84161895D01*
X167761494Y-84116877D01*
X167772836Y-84079488D01*
X167791251Y-84045034D01*
X167816035Y-84014835D01*
X167846234Y-83990051D01*
X167880688Y-83971636D01*
X167918077Y-83960294D01*
X167963095Y-83955860D01*
X168828025Y-83955860D01*
X168873043Y-83960294D01*
G37*
G36*
X139240540Y-81305240D02*
G01*
X135338540Y-81305240D01*
X135338540Y-79203240D01*
X139240540Y-79203240D01*
X139240540Y-81305240D01*
G37*
G36*
X143439183Y-75391854D02*
G01*
X143476572Y-75403196D01*
X143511026Y-75421611D01*
X143541225Y-75446395D01*
X143566009Y-75476594D01*
X143584424Y-75511048D01*
X143595766Y-75548437D01*
X143600200Y-75593455D01*
X143600200Y-76458385D01*
X143595766Y-76503403D01*
X143584424Y-76540792D01*
X143566009Y-76575246D01*
X143541225Y-76605445D01*
X143511026Y-76630229D01*
X143476572Y-76648644D01*
X143439183Y-76659986D01*
X143394165Y-76664420D01*
X142254235Y-76664420D01*
X142209217Y-76659986D01*
X142171828Y-76648644D01*
X142137374Y-76630229D01*
X142107175Y-76605445D01*
X142082391Y-76575246D01*
X142063976Y-76540792D01*
X142052634Y-76503403D01*
X142048200Y-76458385D01*
X142048200Y-75593455D01*
X142052634Y-75548437D01*
X142063976Y-75511048D01*
X142082391Y-75476594D01*
X142107175Y-75446395D01*
X142137374Y-75421611D01*
X142171828Y-75403196D01*
X142209217Y-75391854D01*
X142254235Y-75387420D01*
X143394165Y-75387420D01*
X143439183Y-75391854D01*
G37*
G36*
X106889787Y-68403462D02*
G01*
X106889790Y-68403463D01*
X106889789Y-68403463D01*
X107536029Y-68671144D01*
X108117631Y-69059758D01*
X108612242Y-69554369D01*
X109000856Y-70135971D01*
X109190135Y-70592932D01*
X109268538Y-70782213D01*
X109405000Y-71468256D01*
X109405000Y-72167744D01*
X109268538Y-72853787D01*
X109268537Y-72853789D01*
X109000856Y-73500029D01*
X108612242Y-74081631D01*
X108117631Y-74576242D01*
X107536029Y-74964856D01*
X107079068Y-75154135D01*
X106889787Y-75232538D01*
X106203744Y-75369000D01*
X105504256Y-75369000D01*
X104818213Y-75232538D01*
X104628932Y-75154135D01*
X104171971Y-74964856D01*
X103590369Y-74576242D01*
X103095758Y-74081631D01*
X102707144Y-73500029D01*
X102439463Y-72853789D01*
X102439462Y-72853787D01*
X102303000Y-72167744D01*
X102303000Y-71468256D01*
X102439462Y-70782213D01*
X102517865Y-70592932D01*
X102707144Y-70135971D01*
X103095758Y-69554369D01*
X103590369Y-69059758D01*
X104171971Y-68671144D01*
X104818211Y-68403463D01*
X104818210Y-68403463D01*
X104818213Y-68403462D01*
X105504256Y-68267000D01*
X106203744Y-68267000D01*
X106889787Y-68403462D01*
G37*
G36*
X180889787Y-68403462D02*
G01*
X180889790Y-68403463D01*
X180889789Y-68403463D01*
X181536029Y-68671144D01*
X182117631Y-69059758D01*
X182612242Y-69554369D01*
X183000856Y-70135971D01*
X183190135Y-70592932D01*
X183268538Y-70782213D01*
X183405000Y-71468256D01*
X183405000Y-72167744D01*
X183268538Y-72853787D01*
X183268537Y-72853789D01*
X183000856Y-73500029D01*
X182612242Y-74081631D01*
X182117631Y-74576242D01*
X181536029Y-74964856D01*
X181079068Y-75154135D01*
X180889787Y-75232538D01*
X180203744Y-75369000D01*
X179504256Y-75369000D01*
X178818213Y-75232538D01*
X178628932Y-75154135D01*
X178171971Y-74964856D01*
X177590369Y-74576242D01*
X177095758Y-74081631D01*
X176707144Y-73500029D01*
X176439463Y-72853789D01*
X176439462Y-72853787D01*
X176303000Y-72167744D01*
X176303000Y-71468256D01*
X176439462Y-70782213D01*
X176517865Y-70592932D01*
X176707144Y-70135971D01*
X177095758Y-69554369D01*
X177590369Y-69059758D01*
X178171971Y-68671144D01*
X178818211Y-68403463D01*
X178818210Y-68403463D01*
X178818213Y-68403462D01*
X179504256Y-68267000D01*
X180203744Y-68267000D01*
X180889787Y-68403462D01*
G37*
G36*
X135790540Y-75005240D02*
G01*
X134188540Y-75005240D01*
X134188540Y-72903240D01*
X135790540Y-72903240D01*
X135790540Y-75005240D01*
G37*
G36*
X138090540Y-75005240D02*
G01*
X136488540Y-75005240D01*
X136488540Y-72903240D01*
X138090540Y-72903240D01*
X138090540Y-75005240D01*
G37*
G36*
X140390540Y-75005240D02*
G01*
X138788540Y-75005240D01*
X138788540Y-72903240D01*
X140390540Y-72903240D01*
X140390540Y-75005240D01*
G37*
G36*
X143439183Y-73316854D02*
G01*
X143476572Y-73328196D01*
X143511026Y-73346611D01*
X143541225Y-73371395D01*
X143566009Y-73401594D01*
X143584424Y-73436048D01*
X143595766Y-73473437D01*
X143600200Y-73518455D01*
X143600200Y-74383385D01*
X143595766Y-74428403D01*
X143584424Y-74465792D01*
X143566009Y-74500246D01*
X143541225Y-74530445D01*
X143511026Y-74555229D01*
X143476572Y-74573644D01*
X143439183Y-74584986D01*
X143394165Y-74589420D01*
X142254235Y-74589420D01*
X142209217Y-74584986D01*
X142171828Y-74573644D01*
X142137374Y-74555229D01*
X142107175Y-74530445D01*
X142082391Y-74500246D01*
X142063976Y-74465792D01*
X142052634Y-74428403D01*
X142048200Y-74383385D01*
X142048200Y-73518455D01*
X142052634Y-73473437D01*
X142063976Y-73436048D01*
X142082391Y-73401594D01*
X142107175Y-73371395D01*
X142137374Y-73346611D01*
X142171828Y-73328196D01*
X142209217Y-73316854D01*
X142254235Y-73312420D01*
X143394165Y-73312420D01*
X143439183Y-73316854D01*
G37*
G36*
X136733423Y-69896314D02*
G01*
X136770812Y-69907656D01*
X136805266Y-69926071D01*
X136835465Y-69950855D01*
X136860249Y-69981054D01*
X136878664Y-70015508D01*
X136890006Y-70052897D01*
X136894440Y-70097915D01*
X136894440Y-71237845D01*
X136890006Y-71282863D01*
X136878664Y-71320252D01*
X136860249Y-71354706D01*
X136835465Y-71384905D01*
X136805266Y-71409689D01*
X136770812Y-71428104D01*
X136733423Y-71439446D01*
X136688405Y-71443880D01*
X135823475Y-71443880D01*
X135778457Y-71439446D01*
X135741068Y-71428104D01*
X135706614Y-71409689D01*
X135676415Y-71384905D01*
X135651631Y-71354706D01*
X135633216Y-71320252D01*
X135621874Y-71282863D01*
X135617440Y-71237845D01*
X135617440Y-70097915D01*
X135621874Y-70052897D01*
X135633216Y-70015508D01*
X135651631Y-69981054D01*
X135676415Y-69950855D01*
X135706614Y-69926071D01*
X135741068Y-69907656D01*
X135778457Y-69896314D01*
X135823475Y-69891880D01*
X136688405Y-69891880D01*
X136733423Y-69896314D01*
G37*
G36*
X138808423Y-69896314D02*
G01*
X138845812Y-69907656D01*
X138880266Y-69926071D01*
X138910465Y-69950855D01*
X138935249Y-69981054D01*
X138953664Y-70015508D01*
X138965006Y-70052897D01*
X138969440Y-70097915D01*
X138969440Y-71237845D01*
X138965006Y-71282863D01*
X138953664Y-71320252D01*
X138935249Y-71354706D01*
X138910465Y-71384905D01*
X138880266Y-71409689D01*
X138845812Y-71428104D01*
X138808423Y-71439446D01*
X138763405Y-71443880D01*
X137898475Y-71443880D01*
X137853457Y-71439446D01*
X137816068Y-71428104D01*
X137781614Y-71409689D01*
X137751415Y-71384905D01*
X137726631Y-71354706D01*
X137708216Y-71320252D01*
X137696874Y-71282863D01*
X137692440Y-71237845D01*
X137692440Y-70097915D01*
X137696874Y-70052897D01*
X137708216Y-70015508D01*
X137726631Y-69981054D01*
X137751415Y-69950855D01*
X137781614Y-69926071D01*
X137816068Y-69907656D01*
X137853457Y-69896314D01*
X137898475Y-69891880D01*
X138763405Y-69891880D01*
X138808423Y-69896314D01*
G37*
M02*
