G04 #@! TF.GenerationSoftware,KiCad,Pcbnew,(6.0.1)*
G04 #@! TF.CreationDate,2022-05-21T23:11:01-04:00*
G04 #@! TF.ProjectId,payload2020_papa_board,7061796c-6f61-4643-9230-32305f706170,rev?*
G04 #@! TF.SameCoordinates,Original*
G04 #@! TF.FileFunction,Soldermask,Top*
G04 #@! TF.FilePolarity,Negative*
%FSLAX46Y46*%
G04 Gerber Fmt 4.6, Leading zero omitted, Abs format (unit mm)*
G04 Created by KiCad (PCBNEW (6.0.1)) date 2022-05-21 23:11:01*
%MOMM*%
%LPD*%
G01*
G04 APERTURE LIST*
G04 Aperture macros list*
%AMRoundRect*
0 Rectangle with rounded corners*
0 $1 Rounding radius*
0 $2 $3 $4 $5 $6 $7 $8 $9 X,Y pos of 4 corners*
0 Add a 4 corners polygon primitive as box body*
4,1,4,$2,$3,$4,$5,$6,$7,$8,$9,$2,$3,0*
0 Add four circle primitives for the rounded corners*
1,1,$1+$1,$2,$3*
1,1,$1+$1,$4,$5*
1,1,$1+$1,$6,$7*
1,1,$1+$1,$8,$9*
0 Add four rect primitives between the rounded corners*
20,1,$1+$1,$2,$3,$4,$5,0*
20,1,$1+$1,$4,$5,$6,$7,0*
20,1,$1+$1,$6,$7,$8,$9,0*
20,1,$1+$1,$8,$9,$2,$3,0*%
G04 Aperture macros list end*
%ADD10C,0.902000*%
%ADD11C,7.102000*%
%ADD12RoundRect,0.051000X-0.850000X0.850000X-0.850000X-0.850000X0.850000X-0.850000X0.850000X0.850000X0*%
%ADD13O,1.802000X1.802000*%
%ADD14C,2.302000*%
%ADD15RoundRect,0.051000X0.600000X-0.600000X0.600000X0.600000X-0.600000X0.600000X-0.600000X-0.600000X0*%
%ADD16C,1.302000*%
%ADD17RoundRect,0.301000X0.475000X-0.337500X0.475000X0.337500X-0.475000X0.337500X-0.475000X-0.337500X0*%
%ADD18RoundRect,0.051000X0.550000X-0.550000X0.550000X0.550000X-0.550000X0.550000X-0.550000X-0.550000X0*%
%ADD19RoundRect,0.301000X-1.075000X0.462500X-1.075000X-0.462500X1.075000X-0.462500X1.075000X0.462500X0*%
%ADD20RoundRect,0.300999X-0.450001X0.350001X-0.450001X-0.350001X0.450001X-0.350001X0.450001X0.350001X0*%
%ADD21RoundRect,0.300999X0.450001X-0.350001X0.450001X0.350001X-0.450001X0.350001X-0.450001X-0.350001X0*%
%ADD22R,3.100000X3.000000*%
%ADD23RoundRect,0.151000X-0.100000X0.687500X-0.100000X-0.687500X0.100000X-0.687500X0.100000X0.687500X0*%
%ADD24RoundRect,0.301000X-0.475000X0.337500X-0.475000X-0.337500X0.475000X-0.337500X0.475000X0.337500X0*%
%ADD25RoundRect,0.051000X0.780000X0.325000X-0.780000X0.325000X-0.780000X-0.325000X0.780000X-0.325000X0*%
%ADD26RoundRect,0.051000X-0.600000X-0.600000X0.600000X-0.600000X0.600000X0.600000X-0.600000X0.600000X0*%
%ADD27RoundRect,0.301000X0.337500X0.475000X-0.337500X0.475000X-0.337500X-0.475000X0.337500X-0.475000X0*%
%ADD28RoundRect,0.051000X-0.750000X1.000000X-0.750000X-1.000000X0.750000X-1.000000X0.750000X1.000000X0*%
%ADD29RoundRect,0.051000X-1.900000X1.000000X-1.900000X-1.000000X1.900000X-1.000000X1.900000X1.000000X0*%
%ADD30RoundRect,0.300999X-0.400001X-0.625001X0.400001X-0.625001X0.400001X0.625001X-0.400001X0.625001X0*%
%ADD31RoundRect,0.300997X0.412503X0.650003X-0.412503X0.650003X-0.412503X-0.650003X0.412503X-0.650003X0*%
%ADD32RoundRect,0.300997X-0.650003X0.412503X-0.650003X-0.412503X0.650003X-0.412503X0.650003X0.412503X0*%
%ADD33RoundRect,0.051000X-0.675000X-0.675000X0.675000X-0.675000X0.675000X0.675000X-0.675000X0.675000X0*%
%ADD34O,1.452000X1.452000*%
%ADD35RoundRect,0.301000X0.625000X-0.462500X0.625000X0.462500X-0.625000X0.462500X-0.625000X-0.462500X0*%
%ADD36RoundRect,0.301000X-0.450000X0.325000X-0.450000X-0.325000X0.450000X-0.325000X0.450000X0.325000X0*%
%ADD37RoundRect,0.301001X0.462499X0.624999X-0.462499X0.624999X-0.462499X-0.624999X0.462499X-0.624999X0*%
%ADD38RoundRect,0.301000X0.450000X-0.350000X0.450000X0.350000X-0.450000X0.350000X-0.450000X-0.350000X0*%
%ADD39RoundRect,0.301000X0.350000X0.450000X-0.350000X0.450000X-0.350000X-0.450000X0.350000X-0.450000X0*%
%ADD40RoundRect,0.301000X-0.350000X-0.450000X0.350000X-0.450000X0.350000X0.450000X-0.350000X0.450000X0*%
%ADD41RoundRect,0.301000X-0.450000X0.350000X-0.450000X-0.350000X0.450000X-0.350000X0.450000X0.350000X0*%
%ADD42RoundRect,0.051000X-0.850000X-0.850000X0.850000X-0.850000X0.850000X0.850000X-0.850000X0.850000X0*%
%ADD43RoundRect,0.301000X-0.337500X-0.475000X0.337500X-0.475000X0.337500X0.475000X-0.337500X0.475000X0*%
%ADD44RoundRect,0.051000X0.400000X0.750000X-0.400000X0.750000X-0.400000X-0.750000X0.400000X-0.750000X0*%
%ADD45RoundRect,0.051000X0.725000X1.000000X-0.725000X1.000000X-0.725000X-1.000000X0.725000X-1.000000X0*%
%ADD46C,2.702000*%
%ADD47C,1.602000*%
%ADD48RoundRect,0.051000X0.850000X0.850000X-0.850000X0.850000X-0.850000X-0.850000X0.850000X-0.850000X0*%
%ADD49RoundRect,0.301000X0.625000X-0.350000X0.625000X0.350000X-0.625000X0.350000X-0.625000X-0.350000X0*%
%ADD50O,1.852000X1.302000*%
%ADD51RoundRect,0.051000X0.675000X0.675000X-0.675000X0.675000X-0.675000X-0.675000X0.675000X-0.675000X0*%
G04 APERTURE END LIST*
D10*
X6976155Y-17923845D03*
X2495000Y-19780000D03*
X6976155Y-21636155D03*
X3263845Y-17923845D03*
X3263845Y-21636155D03*
X5120000Y-17155000D03*
D11*
X5120000Y-19780000D03*
D10*
X7745000Y-19780000D03*
X5120000Y-22405000D03*
X26800000Y-57965000D03*
X29425000Y-55340000D03*
D11*
X26800000Y-55340000D03*
D10*
X26800000Y-52715000D03*
X24943845Y-57196155D03*
X24943845Y-53483845D03*
X28656155Y-57196155D03*
X24175000Y-55340000D03*
X28656155Y-53483845D03*
D12*
X45491400Y-42717400D03*
D13*
X42951400Y-42717400D03*
X40411400Y-42717400D03*
X37871400Y-42717400D03*
X35331400Y-42717400D03*
D14*
X44475400Y-49042000D03*
X44475400Y-60042000D03*
D15*
X45475400Y-56542000D03*
D16*
X45475400Y-54542000D03*
X45475400Y-52542000D03*
X43475400Y-56542000D03*
X43475400Y-54542000D03*
X43475400Y-52542000D03*
D14*
X36728400Y-49092800D03*
X36728400Y-60092800D03*
D15*
X37728400Y-56592800D03*
D16*
X37728400Y-54592800D03*
X37728400Y-52592800D03*
X35728400Y-56592800D03*
X35728400Y-54592800D03*
X35728400Y-52592800D03*
D17*
X14904083Y-38757210D03*
X14904083Y-36682210D03*
D18*
X24835483Y-41559010D03*
X24835483Y-38759010D03*
D19*
X24098883Y-32335610D03*
X24098883Y-35310610D03*
D20*
X19981543Y-46167330D03*
X19981543Y-48167330D03*
D21*
X17322163Y-48176730D03*
X17322163Y-46176730D03*
D22*
X19501483Y-39826730D03*
D23*
X21451483Y-36964230D03*
X20801483Y-36964230D03*
X20151483Y-36964230D03*
X19501483Y-36964230D03*
X18851483Y-36964230D03*
X18201483Y-36964230D03*
X17551483Y-36964230D03*
X17551483Y-42689230D03*
X18201483Y-42689230D03*
X18851483Y-42689230D03*
X19501483Y-42689230D03*
X20151483Y-42689230D03*
X20801483Y-42689230D03*
X21451483Y-42689230D03*
D24*
X14467840Y-73941620D03*
X14467840Y-76016620D03*
D25*
X19728180Y-74886540D03*
X19728180Y-73936540D03*
X19728180Y-72986540D03*
X17028180Y-72986540D03*
X17028180Y-74886540D03*
D14*
X45378000Y-36291200D03*
X34378000Y-36291200D03*
D26*
X37878000Y-37291200D03*
D16*
X39878000Y-37291200D03*
X41878000Y-37291200D03*
X37878000Y-35291200D03*
X39878000Y-35291200D03*
X41878000Y-35291200D03*
D27*
X36742400Y-7655640D03*
X34667400Y-7655640D03*
D25*
X41331860Y-27352900D03*
X41331860Y-26402900D03*
X41331860Y-25452900D03*
X38631860Y-25452900D03*
X38631860Y-27352900D03*
D28*
X38001000Y-10942000D03*
X35701000Y-10942000D03*
D29*
X35701000Y-17242000D03*
D28*
X33401000Y-10942000D03*
D24*
X41235660Y-10938680D03*
X41235660Y-13013680D03*
D30*
X16821820Y-69997000D03*
X19921820Y-69997000D03*
X38422960Y-22851940D03*
X41522960Y-22851940D03*
D31*
X25539863Y-48284930D03*
X22414863Y-48284930D03*
D32*
X27875863Y-35749630D03*
X27875863Y-38874630D03*
D33*
X79619000Y-42168000D03*
D34*
X79619000Y-44168000D03*
X79619000Y-46168000D03*
X77619000Y-42168000D03*
X77619000Y-44168000D03*
X77619000Y-46168000D03*
D27*
X18333083Y-33634210D03*
X16258083Y-33634210D03*
D35*
X68491100Y-37739000D03*
X68491100Y-34764000D03*
X71716900Y-37615200D03*
X71716900Y-34640200D03*
X64808100Y-37612000D03*
X64808100Y-34637000D03*
D20*
X68491100Y-29135000D03*
X68491100Y-31135000D03*
X71615300Y-29033400D03*
X71615300Y-31033400D03*
X64808100Y-29008000D03*
X64808100Y-31008000D03*
D36*
X35910640Y-26446440D03*
X35910640Y-28496440D03*
D37*
X25483923Y-45556210D03*
X22508923Y-45556210D03*
D20*
X14853283Y-41203410D03*
X14853283Y-43203410D03*
X14789783Y-46097990D03*
X14789783Y-48097990D03*
D38*
X69596000Y-61837000D03*
X69596000Y-59837000D03*
D39*
X70596000Y-74442000D03*
X68596000Y-74442000D03*
D40*
X28464000Y-50312000D03*
X30464000Y-50312000D03*
D41*
X75311000Y-57567000D03*
X75311000Y-59567000D03*
D10*
X75375000Y-78020000D03*
X79856155Y-79876155D03*
X78000000Y-80645000D03*
X78000000Y-75395000D03*
X79856155Y-76163845D03*
X80625000Y-78020000D03*
X76143845Y-76163845D03*
D11*
X78000000Y-78020000D03*
D10*
X76143845Y-79876155D03*
X76143845Y-27006155D03*
X79856155Y-27006155D03*
X78000000Y-27775000D03*
X75375000Y-25150000D03*
X80625000Y-25150000D03*
X79856155Y-23293845D03*
X78000000Y-22525000D03*
X76143845Y-23293845D03*
D11*
X78000000Y-25130000D03*
X4000000Y-78020000D03*
D10*
X4000000Y-75395000D03*
X6625000Y-78020000D03*
X4000000Y-80645000D03*
X5856155Y-76163845D03*
X2143845Y-76163845D03*
X5856155Y-79876155D03*
X2143845Y-79876155D03*
X1375000Y-78020000D03*
D42*
X78000000Y-64520000D03*
D13*
X78000000Y-67060000D03*
D10*
X54456155Y-58756155D03*
X52600000Y-54275000D03*
X50743845Y-58756155D03*
X52600000Y-59525000D03*
X54456155Y-55043845D03*
X50743845Y-55043845D03*
X55225000Y-56900000D03*
X49975000Y-56900000D03*
D11*
X52600000Y-56900000D03*
D43*
X28702000Y-45486000D03*
X30777000Y-45486000D03*
D10*
X76143845Y-2163845D03*
D11*
X78000000Y-4020000D03*
D10*
X76143845Y-5876155D03*
X79856155Y-5876155D03*
X78000000Y-1395000D03*
X75375000Y-4020000D03*
X78000000Y-6645000D03*
X79856155Y-2163845D03*
X80625000Y-4020000D03*
D42*
X17411063Y-52856930D03*
D38*
X60706000Y-60837000D03*
X60706000Y-58837000D03*
D27*
X55524152Y-64500000D03*
X53449152Y-64500000D03*
D44*
X61069159Y-75775096D03*
X59969159Y-75775096D03*
X58859159Y-75775096D03*
X57769159Y-75775096D03*
X56669159Y-75765096D03*
X55569159Y-75775096D03*
X54469159Y-75775096D03*
X53369159Y-75775096D03*
D45*
X64739159Y-70075096D03*
X50989159Y-78375096D03*
X64739159Y-78375096D03*
X50989159Y-70075096D03*
D42*
X31496000Y-29357000D03*
D40*
X29005460Y-10885760D03*
X31005460Y-10885760D03*
D10*
X5856155Y-2163845D03*
X4000000Y-1395000D03*
X4000000Y-6645000D03*
X2143845Y-5876155D03*
X2143845Y-2163845D03*
X6625000Y-4020000D03*
X1375000Y-4020000D03*
D11*
X4000000Y-4020000D03*
D10*
X5856155Y-5876155D03*
D40*
X12585063Y-29869930D03*
X14585063Y-29869930D03*
D41*
X41529000Y-18467000D03*
X41529000Y-20467000D03*
D46*
X15657500Y-14712000D03*
X15657500Y-9712000D03*
D47*
X65735200Y-53715600D03*
X60855200Y-53715600D03*
D48*
X8650000Y-41800000D03*
X44704000Y-13228000D03*
D49*
X11400000Y-64800000D03*
D50*
X11400000Y-62800000D03*
D49*
X11400000Y-50000000D03*
D50*
X11400000Y-48000000D03*
D49*
X11400000Y-72150000D03*
D50*
X11400000Y-70150000D03*
D51*
X4096000Y-29688000D03*
D34*
X4096000Y-31688000D03*
X4096000Y-33688000D03*
X6096000Y-29688000D03*
X6096000Y-31688000D03*
X6096000Y-33688000D03*
D48*
X36576000Y-64028000D03*
D49*
X11400000Y-57450000D03*
D50*
X11400000Y-55450000D03*
G36*
X58217638Y-75004434D02*
G01*
X58265105Y-75044102D01*
X58333820Y-75052733D01*
X58396450Y-75022769D01*
X58409949Y-75007191D01*
X58411839Y-75006537D01*
X58413350Y-75007847D01*
X58413422Y-75008891D01*
X58410159Y-75025295D01*
X58410159Y-76524897D01*
X58413925Y-76543833D01*
X58413282Y-76545727D01*
X58411320Y-76546117D01*
X58410680Y-76545758D01*
X58363213Y-76506090D01*
X58294498Y-76497459D01*
X58231868Y-76527423D01*
X58218369Y-76543001D01*
X58216479Y-76543655D01*
X58214968Y-76542345D01*
X58214896Y-76541301D01*
X58218159Y-76524897D01*
X58218159Y-75025295D01*
X58214393Y-75006359D01*
X58215036Y-75004465D01*
X58216998Y-75004075D01*
X58217638Y-75004434D01*
G37*
G36*
X53818426Y-75008397D02*
G01*
X53870105Y-75051585D01*
X53938820Y-75060216D01*
X54001450Y-75030252D01*
X54019507Y-75009414D01*
X54021397Y-75008760D01*
X54022908Y-75010070D01*
X54022980Y-75011114D01*
X54020159Y-75025295D01*
X54020159Y-76524897D01*
X54023137Y-76539870D01*
X54022494Y-76541764D01*
X54020532Y-76542154D01*
X54019892Y-76541795D01*
X53968213Y-76498607D01*
X53899498Y-76489976D01*
X53836868Y-76519940D01*
X53818811Y-76540778D01*
X53816921Y-76541432D01*
X53815410Y-76540122D01*
X53815338Y-76539078D01*
X53818159Y-76524897D01*
X53818159Y-75025295D01*
X53815181Y-75010322D01*
X53815824Y-75008428D01*
X53817786Y-75008038D01*
X53818426Y-75008397D01*
G37*
G36*
X54918426Y-75008397D02*
G01*
X54970105Y-75051585D01*
X55038820Y-75060216D01*
X55101450Y-75030252D01*
X55119507Y-75009414D01*
X55121397Y-75008760D01*
X55122908Y-75010070D01*
X55122980Y-75011114D01*
X55120159Y-75025295D01*
X55120159Y-76524897D01*
X55123137Y-76539870D01*
X55122494Y-76541764D01*
X55120532Y-76542154D01*
X55119892Y-76541795D01*
X55068213Y-76498607D01*
X54999498Y-76489976D01*
X54936868Y-76519940D01*
X54918811Y-76540778D01*
X54916921Y-76541432D01*
X54915410Y-76540122D01*
X54915338Y-76539078D01*
X54918159Y-76524897D01*
X54918159Y-75025295D01*
X54915181Y-75010322D01*
X54915824Y-75008428D01*
X54917786Y-75008038D01*
X54918426Y-75008397D01*
G37*
G36*
X60418426Y-75008397D02*
G01*
X60470105Y-75051585D01*
X60538820Y-75060216D01*
X60601450Y-75030252D01*
X60619507Y-75009414D01*
X60621397Y-75008760D01*
X60622908Y-75010070D01*
X60622980Y-75011114D01*
X60620159Y-75025295D01*
X60620159Y-76524897D01*
X60623137Y-76539870D01*
X60622494Y-76541764D01*
X60620532Y-76542154D01*
X60619892Y-76541795D01*
X60568213Y-76498607D01*
X60499498Y-76489976D01*
X60436868Y-76519940D01*
X60418811Y-76540778D01*
X60416921Y-76541432D01*
X60415410Y-76540122D01*
X60415338Y-76539078D01*
X60418159Y-76524897D01*
X60418159Y-75025295D01*
X60415181Y-75010322D01*
X60415824Y-75008428D01*
X60417786Y-75008038D01*
X60418426Y-75008397D01*
G37*
G36*
X59522610Y-75010850D02*
G01*
X59522778Y-75012125D01*
X59520159Y-75025295D01*
X59520159Y-76524897D01*
X59522778Y-76538067D01*
X59522135Y-76539961D01*
X59520173Y-76540351D01*
X59519153Y-76539568D01*
X59516590Y-76535731D01*
X59463213Y-76491124D01*
X59394498Y-76482493D01*
X59331868Y-76512457D01*
X59311820Y-76535593D01*
X59309165Y-76539568D01*
X59307371Y-76540453D01*
X59305708Y-76539342D01*
X59305540Y-76538067D01*
X59308159Y-76524897D01*
X59308159Y-75025295D01*
X59305540Y-75012125D01*
X59306183Y-75010231D01*
X59308145Y-75009841D01*
X59309165Y-75010624D01*
X59311728Y-75014461D01*
X59365105Y-75059068D01*
X59433820Y-75067699D01*
X59496450Y-75037735D01*
X59516498Y-75014599D01*
X59519153Y-75010624D01*
X59520947Y-75009739D01*
X59522610Y-75010850D01*
G37*
G36*
X56222609Y-75000850D02*
G01*
X56222778Y-75002125D01*
X56220159Y-75015295D01*
X56220159Y-76514897D01*
X56223664Y-76532518D01*
X56223021Y-76534412D01*
X56221059Y-76534802D01*
X56220419Y-76534443D01*
X56171555Y-76493607D01*
X56102839Y-76484976D01*
X56040209Y-76514940D01*
X56020161Y-76538076D01*
X56019165Y-76539568D01*
X56017372Y-76540453D01*
X56015709Y-76539342D01*
X56015540Y-76538067D01*
X56018159Y-76524897D01*
X56018159Y-75025295D01*
X56014654Y-75007674D01*
X56015297Y-75005780D01*
X56017259Y-75005390D01*
X56017899Y-75005749D01*
X56066763Y-75046585D01*
X56135479Y-75055216D01*
X56198109Y-75025252D01*
X56218157Y-75002116D01*
X56219153Y-75000624D01*
X56220946Y-74999739D01*
X56222609Y-75000850D01*
G37*
G36*
X57119165Y-75000624D02*
G01*
X57120069Y-75001978D01*
X57173446Y-75046585D01*
X57242161Y-75055216D01*
X57304791Y-75025251D01*
X57319802Y-75007928D01*
X57321692Y-75007274D01*
X57323203Y-75008584D01*
X57323275Y-75009628D01*
X57320159Y-75025295D01*
X57320159Y-76524897D01*
X57322778Y-76538067D01*
X57322135Y-76539961D01*
X57320173Y-76540351D01*
X57319153Y-76539568D01*
X57318249Y-76538214D01*
X57264872Y-76493607D01*
X57196157Y-76484976D01*
X57133527Y-76514941D01*
X57118516Y-76532264D01*
X57116626Y-76532918D01*
X57115115Y-76531608D01*
X57115043Y-76530564D01*
X57118159Y-76514897D01*
X57118159Y-75015295D01*
X57115540Y-75002125D01*
X57116183Y-75000231D01*
X57118145Y-74999841D01*
X57119165Y-75000624D01*
G37*
G36*
X20524848Y-74308205D02*
G01*
X20525238Y-74310167D01*
X20524879Y-74310807D01*
X20481691Y-74362486D01*
X20473060Y-74431201D01*
X20503024Y-74493831D01*
X20523862Y-74511888D01*
X20524516Y-74513778D01*
X20523206Y-74515289D01*
X20522162Y-74515361D01*
X20507981Y-74512540D01*
X18948379Y-74512540D01*
X18933406Y-74515518D01*
X18931512Y-74514875D01*
X18931122Y-74512913D01*
X18931481Y-74512273D01*
X18974669Y-74460594D01*
X18983300Y-74391879D01*
X18953336Y-74329249D01*
X18932498Y-74311192D01*
X18931844Y-74309302D01*
X18933154Y-74307791D01*
X18934198Y-74307719D01*
X18948379Y-74310540D01*
X20507981Y-74310540D01*
X20522954Y-74307562D01*
X20524848Y-74308205D01*
G37*
G36*
X20524848Y-73358205D02*
G01*
X20525238Y-73360167D01*
X20524879Y-73360807D01*
X20481691Y-73412486D01*
X20473060Y-73481201D01*
X20503024Y-73543831D01*
X20523862Y-73561888D01*
X20524516Y-73563778D01*
X20523206Y-73565289D01*
X20522162Y-73565361D01*
X20507981Y-73562540D01*
X18948379Y-73562540D01*
X18933406Y-73565518D01*
X18931512Y-73564875D01*
X18931122Y-73562913D01*
X18931481Y-73562273D01*
X18974669Y-73510594D01*
X18983300Y-73441879D01*
X18953336Y-73379249D01*
X18932498Y-73361192D01*
X18931844Y-73359302D01*
X18933154Y-73357791D01*
X18934198Y-73357719D01*
X18948379Y-73360540D01*
X20507981Y-73360540D01*
X20522954Y-73357562D01*
X20524848Y-73358205D01*
G37*
G36*
X21030374Y-41924604D02*
G01*
X21077427Y-41963927D01*
X21146143Y-41972560D01*
X21208772Y-41942597D01*
X21216283Y-41933927D01*
X21218173Y-41933273D01*
X21219685Y-41934583D01*
X21219458Y-41936348D01*
X21213862Y-41944724D01*
X21202483Y-42001929D01*
X21202483Y-43376531D01*
X21213862Y-43433736D01*
X21225538Y-43451210D01*
X21225669Y-43453206D01*
X21224006Y-43454317D01*
X21222592Y-43453856D01*
X21175539Y-43414533D01*
X21106823Y-43405900D01*
X21044194Y-43435863D01*
X21036683Y-43444533D01*
X21034793Y-43445187D01*
X21033281Y-43443877D01*
X21033508Y-43442112D01*
X21039104Y-43433736D01*
X21050483Y-43376531D01*
X21050483Y-42001929D01*
X21039104Y-41944724D01*
X21027428Y-41927250D01*
X21027297Y-41925254D01*
X21028960Y-41924143D01*
X21030374Y-41924604D01*
G37*
G36*
X19730374Y-41924604D02*
G01*
X19777427Y-41963927D01*
X19846143Y-41972560D01*
X19908772Y-41942597D01*
X19916283Y-41933927D01*
X19918173Y-41933273D01*
X19919685Y-41934583D01*
X19919458Y-41936348D01*
X19913862Y-41944724D01*
X19902483Y-42001929D01*
X19902483Y-43376531D01*
X19913862Y-43433736D01*
X19925538Y-43451210D01*
X19925669Y-43453206D01*
X19924006Y-43454317D01*
X19922592Y-43453856D01*
X19875539Y-43414533D01*
X19806823Y-43405900D01*
X19744194Y-43435863D01*
X19736683Y-43444533D01*
X19734793Y-43445187D01*
X19733281Y-43443877D01*
X19733508Y-43442112D01*
X19739104Y-43433736D01*
X19750483Y-43376531D01*
X19750483Y-42001929D01*
X19739104Y-41944724D01*
X19727428Y-41927250D01*
X19727297Y-41925254D01*
X19728960Y-41924143D01*
X19730374Y-41924604D01*
G37*
G36*
X19080374Y-41924604D02*
G01*
X19127427Y-41963927D01*
X19196143Y-41972560D01*
X19258772Y-41942597D01*
X19266283Y-41933927D01*
X19268173Y-41933273D01*
X19269685Y-41934583D01*
X19269458Y-41936348D01*
X19263862Y-41944724D01*
X19252483Y-42001929D01*
X19252483Y-43376531D01*
X19263862Y-43433736D01*
X19275538Y-43451210D01*
X19275669Y-43453206D01*
X19274006Y-43454317D01*
X19272592Y-43453856D01*
X19225539Y-43414533D01*
X19156823Y-43405900D01*
X19094194Y-43435863D01*
X19086683Y-43444533D01*
X19084793Y-43445187D01*
X19083281Y-43443877D01*
X19083508Y-43442112D01*
X19089104Y-43433736D01*
X19100483Y-43376531D01*
X19100483Y-42001929D01*
X19089104Y-41944724D01*
X19077428Y-41927250D01*
X19077297Y-41925254D01*
X19078960Y-41924143D01*
X19080374Y-41924604D01*
G37*
G36*
X17780374Y-41924604D02*
G01*
X17827427Y-41963927D01*
X17896143Y-41972560D01*
X17958772Y-41942597D01*
X17966283Y-41933927D01*
X17968173Y-41933273D01*
X17969685Y-41934583D01*
X17969458Y-41936348D01*
X17963862Y-41944724D01*
X17952483Y-42001929D01*
X17952483Y-43376531D01*
X17963862Y-43433736D01*
X17975538Y-43451210D01*
X17975669Y-43453206D01*
X17974006Y-43454317D01*
X17972592Y-43453856D01*
X17925539Y-43414533D01*
X17856823Y-43405900D01*
X17794194Y-43435863D01*
X17786683Y-43444533D01*
X17784793Y-43445187D01*
X17783281Y-43443877D01*
X17783508Y-43442112D01*
X17789104Y-43433736D01*
X17800483Y-43376531D01*
X17800483Y-42001929D01*
X17789104Y-41944724D01*
X17777428Y-41927250D01*
X17777297Y-41925254D01*
X17778960Y-41924143D01*
X17780374Y-41924604D01*
G37*
G36*
X18430374Y-41924604D02*
G01*
X18477427Y-41963927D01*
X18546143Y-41972560D01*
X18608772Y-41942597D01*
X18616283Y-41933927D01*
X18618173Y-41933273D01*
X18619685Y-41934583D01*
X18619458Y-41936348D01*
X18613862Y-41944724D01*
X18602483Y-42001929D01*
X18602483Y-43376531D01*
X18613862Y-43433736D01*
X18625538Y-43451210D01*
X18625669Y-43453206D01*
X18624006Y-43454317D01*
X18622592Y-43453856D01*
X18575539Y-43414533D01*
X18506823Y-43405900D01*
X18444194Y-43435863D01*
X18436683Y-43444533D01*
X18434793Y-43445187D01*
X18433281Y-43443877D01*
X18433508Y-43442112D01*
X18439104Y-43433736D01*
X18450483Y-43376531D01*
X18450483Y-42001929D01*
X18439104Y-41944724D01*
X18427428Y-41927250D01*
X18427297Y-41925254D01*
X18428960Y-41924143D01*
X18430374Y-41924604D01*
G37*
G36*
X20380374Y-41924604D02*
G01*
X20427427Y-41963927D01*
X20496143Y-41972560D01*
X20558772Y-41942597D01*
X20566283Y-41933927D01*
X20568173Y-41933273D01*
X20569685Y-41934583D01*
X20569458Y-41936348D01*
X20563862Y-41944724D01*
X20552483Y-42001929D01*
X20552483Y-43376531D01*
X20563862Y-43433736D01*
X20575538Y-43451210D01*
X20575669Y-43453206D01*
X20574006Y-43454317D01*
X20572592Y-43453856D01*
X20525539Y-43414533D01*
X20456823Y-43405900D01*
X20394194Y-43435863D01*
X20386683Y-43444533D01*
X20384793Y-43445187D01*
X20383281Y-43443877D01*
X20383508Y-43442112D01*
X20389104Y-43433736D01*
X20400483Y-43376531D01*
X20400483Y-42001929D01*
X20389104Y-41944724D01*
X20377428Y-41927250D01*
X20377297Y-41925254D01*
X20378960Y-41924143D01*
X20380374Y-41924604D01*
G37*
G36*
X19080374Y-36199604D02*
G01*
X19127427Y-36238927D01*
X19196143Y-36247560D01*
X19258772Y-36217597D01*
X19266283Y-36208927D01*
X19268173Y-36208273D01*
X19269685Y-36209583D01*
X19269458Y-36211348D01*
X19263862Y-36219724D01*
X19252483Y-36276929D01*
X19252483Y-37651531D01*
X19263862Y-37708736D01*
X19275538Y-37726210D01*
X19275669Y-37728206D01*
X19274006Y-37729317D01*
X19272592Y-37728856D01*
X19225539Y-37689533D01*
X19156823Y-37680900D01*
X19094194Y-37710863D01*
X19086683Y-37719533D01*
X19084793Y-37720187D01*
X19083281Y-37718877D01*
X19083508Y-37717112D01*
X19089104Y-37708736D01*
X19100483Y-37651531D01*
X19100483Y-36276929D01*
X19089104Y-36219724D01*
X19077428Y-36202250D01*
X19077297Y-36200254D01*
X19078960Y-36199143D01*
X19080374Y-36199604D01*
G37*
G36*
X19730374Y-36199604D02*
G01*
X19777427Y-36238927D01*
X19846143Y-36247560D01*
X19908772Y-36217597D01*
X19916283Y-36208927D01*
X19918173Y-36208273D01*
X19919685Y-36209583D01*
X19919458Y-36211348D01*
X19913862Y-36219724D01*
X19902483Y-36276929D01*
X19902483Y-37651531D01*
X19913862Y-37708736D01*
X19925538Y-37726210D01*
X19925669Y-37728206D01*
X19924006Y-37729317D01*
X19922592Y-37728856D01*
X19875539Y-37689533D01*
X19806823Y-37680900D01*
X19744194Y-37710863D01*
X19736683Y-37719533D01*
X19734793Y-37720187D01*
X19733281Y-37718877D01*
X19733508Y-37717112D01*
X19739104Y-37708736D01*
X19750483Y-37651531D01*
X19750483Y-36276929D01*
X19739104Y-36219724D01*
X19727428Y-36202250D01*
X19727297Y-36200254D01*
X19728960Y-36199143D01*
X19730374Y-36199604D01*
G37*
G36*
X20380374Y-36199604D02*
G01*
X20427427Y-36238927D01*
X20496143Y-36247560D01*
X20558772Y-36217597D01*
X20566283Y-36208927D01*
X20568173Y-36208273D01*
X20569685Y-36209583D01*
X20569458Y-36211348D01*
X20563862Y-36219724D01*
X20552483Y-36276929D01*
X20552483Y-37651531D01*
X20563862Y-37708736D01*
X20575538Y-37726210D01*
X20575669Y-37728206D01*
X20574006Y-37729317D01*
X20572592Y-37728856D01*
X20525539Y-37689533D01*
X20456823Y-37680900D01*
X20394194Y-37710863D01*
X20386683Y-37719533D01*
X20384793Y-37720187D01*
X20383281Y-37718877D01*
X20383508Y-37717112D01*
X20389104Y-37708736D01*
X20400483Y-37651531D01*
X20400483Y-36276929D01*
X20389104Y-36219724D01*
X20377428Y-36202250D01*
X20377297Y-36200254D01*
X20378960Y-36199143D01*
X20380374Y-36199604D01*
G37*
G36*
X21030374Y-36199604D02*
G01*
X21077427Y-36238927D01*
X21146143Y-36247560D01*
X21208772Y-36217597D01*
X21216283Y-36208927D01*
X21218173Y-36208273D01*
X21219685Y-36209583D01*
X21219458Y-36211348D01*
X21213862Y-36219724D01*
X21202483Y-36276929D01*
X21202483Y-37651531D01*
X21213862Y-37708736D01*
X21225538Y-37726210D01*
X21225669Y-37728206D01*
X21224006Y-37729317D01*
X21222592Y-37728856D01*
X21175539Y-37689533D01*
X21106823Y-37680900D01*
X21044194Y-37710863D01*
X21036683Y-37719533D01*
X21034793Y-37720187D01*
X21033281Y-37718877D01*
X21033508Y-37717112D01*
X21039104Y-37708736D01*
X21050483Y-37651531D01*
X21050483Y-36276929D01*
X21039104Y-36219724D01*
X21027428Y-36202250D01*
X21027297Y-36200254D01*
X21028960Y-36199143D01*
X21030374Y-36199604D01*
G37*
G36*
X18430374Y-36199604D02*
G01*
X18477427Y-36238927D01*
X18546143Y-36247560D01*
X18608772Y-36217597D01*
X18616283Y-36208927D01*
X18618173Y-36208273D01*
X18619685Y-36209583D01*
X18619458Y-36211348D01*
X18613862Y-36219724D01*
X18602483Y-36276929D01*
X18602483Y-37651531D01*
X18613862Y-37708736D01*
X18625538Y-37726210D01*
X18625669Y-37728206D01*
X18624006Y-37729317D01*
X18622592Y-37728856D01*
X18575539Y-37689533D01*
X18506823Y-37680900D01*
X18444194Y-37710863D01*
X18436683Y-37719533D01*
X18434793Y-37720187D01*
X18433281Y-37718877D01*
X18433508Y-37717112D01*
X18439104Y-37708736D01*
X18450483Y-37651531D01*
X18450483Y-36276929D01*
X18439104Y-36219724D01*
X18427428Y-36202250D01*
X18427297Y-36200254D01*
X18428960Y-36199143D01*
X18430374Y-36199604D01*
G37*
G36*
X17780374Y-36199604D02*
G01*
X17827427Y-36238927D01*
X17896143Y-36247560D01*
X17958772Y-36217597D01*
X17966283Y-36208927D01*
X17968173Y-36208273D01*
X17969685Y-36209583D01*
X17969458Y-36211348D01*
X17963862Y-36219724D01*
X17952483Y-36276929D01*
X17952483Y-37651531D01*
X17963862Y-37708736D01*
X17975538Y-37726210D01*
X17975669Y-37728206D01*
X17974006Y-37729317D01*
X17972592Y-37728856D01*
X17925539Y-37689533D01*
X17856823Y-37680900D01*
X17794194Y-37710863D01*
X17786683Y-37719533D01*
X17784793Y-37720187D01*
X17783281Y-37718877D01*
X17783508Y-37717112D01*
X17789104Y-37708736D01*
X17800483Y-37651531D01*
X17800483Y-36276929D01*
X17789104Y-36219724D01*
X17777428Y-36202250D01*
X17777297Y-36200254D01*
X17778960Y-36199143D01*
X17780374Y-36199604D01*
G37*
G36*
X42128528Y-26774565D02*
G01*
X42128918Y-26776527D01*
X42128559Y-26777167D01*
X42085371Y-26828846D01*
X42076740Y-26897561D01*
X42106704Y-26960191D01*
X42127542Y-26978248D01*
X42128196Y-26980138D01*
X42126886Y-26981649D01*
X42125842Y-26981721D01*
X42111661Y-26978900D01*
X40552059Y-26978900D01*
X40537086Y-26981878D01*
X40535192Y-26981235D01*
X40534802Y-26979273D01*
X40535161Y-26978633D01*
X40578349Y-26926954D01*
X40586980Y-26858239D01*
X40557016Y-26795609D01*
X40536178Y-26777552D01*
X40535524Y-26775662D01*
X40536834Y-26774151D01*
X40537878Y-26774079D01*
X40552059Y-26776900D01*
X42111661Y-26776900D01*
X42126634Y-26773922D01*
X42128528Y-26774565D01*
G37*
G36*
X42128528Y-25824565D02*
G01*
X42128918Y-25826527D01*
X42128559Y-25827167D01*
X42085371Y-25878846D01*
X42076740Y-25947561D01*
X42106704Y-26010191D01*
X42127542Y-26028248D01*
X42128196Y-26030138D01*
X42126886Y-26031649D01*
X42125842Y-26031721D01*
X42111661Y-26028900D01*
X40552059Y-26028900D01*
X40537086Y-26031878D01*
X40535192Y-26031235D01*
X40534802Y-26029273D01*
X40535161Y-26028633D01*
X40578349Y-25976954D01*
X40586980Y-25908239D01*
X40557016Y-25845609D01*
X40536178Y-25827552D01*
X40535524Y-25825662D01*
X40536834Y-25824151D01*
X40537878Y-25824079D01*
X40552059Y-25826900D01*
X42111661Y-25826900D01*
X42126634Y-25823922D01*
X42128528Y-25824565D01*
G37*
M02*
