G04 #@! TF.GenerationSoftware,KiCad,Pcbnew,(5.1.6)-1*
G04 #@! TF.CreationDate,2021-11-24T18:58:49-05:00*
G04 #@! TF.ProjectId,payload2020_papa_board,7061796c-6f61-4643-9230-32305f706170,rev?*
G04 #@! TF.SameCoordinates,Original*
G04 #@! TF.FileFunction,Soldermask,Bot*
G04 #@! TF.FilePolarity,Negative*
%FSLAX46Y46*%
G04 Gerber Fmt 4.6, Leading zero omitted, Abs format (unit mm)*
G04 Created by KiCad (PCBNEW (5.1.6)-1) date 2021-11-24 18:58:49*
%MOMM*%
%LPD*%
G01*
G04 APERTURE LIST*
%ADD10C,0.100000*%
G04 APERTURE END LIST*
D10*
G36*
X180889787Y-142403462D02*
G01*
X180889790Y-142403463D01*
X180889789Y-142403463D01*
X181536029Y-142671144D01*
X182117631Y-143059758D01*
X182612242Y-143554369D01*
X183000856Y-144135971D01*
X183000856Y-144135972D01*
X183268538Y-144782213D01*
X183405000Y-145468256D01*
X183405000Y-146167744D01*
X183268538Y-146853787D01*
X183268537Y-146853789D01*
X183000856Y-147500029D01*
X182612242Y-148081631D01*
X182117631Y-148576242D01*
X181536029Y-148964856D01*
X181079068Y-149154135D01*
X180889787Y-149232538D01*
X180203744Y-149369000D01*
X179504256Y-149369000D01*
X178818213Y-149232538D01*
X178628932Y-149154135D01*
X178171971Y-148964856D01*
X177590369Y-148576242D01*
X177095758Y-148081631D01*
X176707144Y-147500029D01*
X176439463Y-146853789D01*
X176439462Y-146853787D01*
X176303000Y-146167744D01*
X176303000Y-145468256D01*
X176439462Y-144782213D01*
X176707144Y-144135972D01*
X176707144Y-144135971D01*
X177095758Y-143554369D01*
X177590369Y-143059758D01*
X178171971Y-142671144D01*
X178818211Y-142403463D01*
X178818210Y-142403463D01*
X178818213Y-142403462D01*
X179504256Y-142267000D01*
X180203744Y-142267000D01*
X180889787Y-142403462D01*
G37*
G36*
X106889787Y-142403462D02*
G01*
X106889790Y-142403463D01*
X106889789Y-142403463D01*
X107536029Y-142671144D01*
X108117631Y-143059758D01*
X108612242Y-143554369D01*
X109000856Y-144135971D01*
X109000856Y-144135972D01*
X109268538Y-144782213D01*
X109405000Y-145468256D01*
X109405000Y-146167744D01*
X109268538Y-146853787D01*
X109268537Y-146853789D01*
X109000856Y-147500029D01*
X108612242Y-148081631D01*
X108117631Y-148576242D01*
X107536029Y-148964856D01*
X107079068Y-149154135D01*
X106889787Y-149232538D01*
X106203744Y-149369000D01*
X105504256Y-149369000D01*
X104818213Y-149232538D01*
X104628932Y-149154135D01*
X104171971Y-148964856D01*
X103590369Y-148576242D01*
X103095758Y-148081631D01*
X102707144Y-147500029D01*
X102439463Y-146853789D01*
X102439462Y-146853787D01*
X102303000Y-146167744D01*
X102303000Y-145468256D01*
X102439462Y-144782213D01*
X102707144Y-144135972D01*
X102707144Y-144135971D01*
X103095758Y-143554369D01*
X103590369Y-143059758D01*
X104171971Y-142671144D01*
X104818211Y-142403463D01*
X104818210Y-142403463D01*
X104818213Y-142403462D01*
X105504256Y-142267000D01*
X106203744Y-142267000D01*
X106889787Y-142403462D01*
G37*
G36*
X148441241Y-140799404D02*
G01*
X148478338Y-140810657D01*
X148512519Y-140828927D01*
X148542483Y-140853517D01*
X148567073Y-140883481D01*
X148585343Y-140917662D01*
X148596596Y-140954759D01*
X148601000Y-140999473D01*
X148601000Y-141892527D01*
X148596596Y-141937241D01*
X148585343Y-141974338D01*
X148567073Y-142008519D01*
X148542483Y-142038483D01*
X148512519Y-142063073D01*
X148478338Y-142081343D01*
X148441241Y-142092596D01*
X148396527Y-142097000D01*
X147303473Y-142097000D01*
X147258759Y-142092596D01*
X147221662Y-142081343D01*
X147187481Y-142063073D01*
X147157517Y-142038483D01*
X147132927Y-142008519D01*
X147114657Y-141974338D01*
X147103404Y-141937241D01*
X147099000Y-141892527D01*
X147099000Y-140999473D01*
X147103404Y-140954759D01*
X147114657Y-140917662D01*
X147132927Y-140883481D01*
X147157517Y-140853517D01*
X147187481Y-140828927D01*
X147221662Y-140810657D01*
X147258759Y-140799404D01*
X147303473Y-140795000D01*
X148396527Y-140795000D01*
X148441241Y-140799404D01*
G37*
G36*
X141994000Y-142016000D02*
G01*
X135492000Y-142016000D01*
X135492000Y-136114000D01*
X141994000Y-136114000D01*
X141994000Y-142016000D01*
G37*
G36*
X146194000Y-141996000D02*
G01*
X143892000Y-141996000D01*
X143892000Y-140694000D01*
X146194000Y-140694000D01*
X146194000Y-141996000D01*
G37*
G36*
X158717828Y-138433964D02*
G01*
X158738909Y-138440360D01*
X158758345Y-138450748D01*
X158775376Y-138464724D01*
X158789352Y-138481755D01*
X158799740Y-138501191D01*
X158806136Y-138522272D01*
X158808900Y-138550340D01*
X158808900Y-140364060D01*
X158806136Y-140392128D01*
X158799740Y-140413209D01*
X158789352Y-140432645D01*
X158775376Y-140449676D01*
X158758345Y-140463652D01*
X158738909Y-140474040D01*
X158717828Y-140480436D01*
X158689760Y-140483200D01*
X158226040Y-140483200D01*
X158197972Y-140480436D01*
X158176891Y-140474040D01*
X158157455Y-140463652D01*
X158140424Y-140449676D01*
X158126448Y-140432645D01*
X158116060Y-140413209D01*
X158109664Y-140392128D01*
X158106900Y-140364060D01*
X158106900Y-138550340D01*
X158109664Y-138522272D01*
X158116060Y-138501191D01*
X158126448Y-138481755D01*
X158140424Y-138464724D01*
X158157455Y-138450748D01*
X158176891Y-138440360D01*
X158197972Y-138433964D01*
X158226040Y-138431200D01*
X158689760Y-138431200D01*
X158717828Y-138433964D01*
G37*
G36*
X154907828Y-138433964D02*
G01*
X154928909Y-138440360D01*
X154948345Y-138450748D01*
X154965376Y-138464724D01*
X154979352Y-138481755D01*
X154989740Y-138501191D01*
X154996136Y-138522272D01*
X154998900Y-138550340D01*
X154998900Y-140364060D01*
X154996136Y-140392128D01*
X154989740Y-140413209D01*
X154979352Y-140432645D01*
X154965376Y-140449676D01*
X154948345Y-140463652D01*
X154928909Y-140474040D01*
X154907828Y-140480436D01*
X154879760Y-140483200D01*
X154416040Y-140483200D01*
X154387972Y-140480436D01*
X154366891Y-140474040D01*
X154347455Y-140463652D01*
X154330424Y-140449676D01*
X154316448Y-140432645D01*
X154306060Y-140413209D01*
X154299664Y-140392128D01*
X154296900Y-140364060D01*
X154296900Y-138550340D01*
X154299664Y-138522272D01*
X154306060Y-138501191D01*
X154316448Y-138481755D01*
X154330424Y-138464724D01*
X154347455Y-138450748D01*
X154366891Y-138440360D01*
X154387972Y-138433964D01*
X154416040Y-138431200D01*
X154879760Y-138431200D01*
X154907828Y-138433964D01*
G37*
G36*
X157447828Y-138433964D02*
G01*
X157468909Y-138440360D01*
X157488345Y-138450748D01*
X157505376Y-138464724D01*
X157519352Y-138481755D01*
X157529740Y-138501191D01*
X157536136Y-138522272D01*
X157538900Y-138550340D01*
X157538900Y-140364060D01*
X157536136Y-140392128D01*
X157529740Y-140413209D01*
X157519352Y-140432645D01*
X157505376Y-140449676D01*
X157488345Y-140463652D01*
X157468909Y-140474040D01*
X157447828Y-140480436D01*
X157419760Y-140483200D01*
X156956040Y-140483200D01*
X156927972Y-140480436D01*
X156906891Y-140474040D01*
X156887455Y-140463652D01*
X156870424Y-140449676D01*
X156856448Y-140432645D01*
X156846060Y-140413209D01*
X156839664Y-140392128D01*
X156836900Y-140364060D01*
X156836900Y-138550340D01*
X156839664Y-138522272D01*
X156846060Y-138501191D01*
X156856448Y-138481755D01*
X156870424Y-138464724D01*
X156887455Y-138450748D01*
X156906891Y-138440360D01*
X156927972Y-138433964D01*
X156956040Y-138431200D01*
X157419760Y-138431200D01*
X157447828Y-138433964D01*
G37*
G36*
X156177828Y-138433964D02*
G01*
X156198909Y-138440360D01*
X156218345Y-138450748D01*
X156235376Y-138464724D01*
X156249352Y-138481755D01*
X156259740Y-138501191D01*
X156266136Y-138522272D01*
X156268900Y-138550340D01*
X156268900Y-140364060D01*
X156266136Y-140392128D01*
X156259740Y-140413209D01*
X156249352Y-140432645D01*
X156235376Y-140449676D01*
X156218345Y-140463652D01*
X156198909Y-140474040D01*
X156177828Y-140480436D01*
X156149760Y-140483200D01*
X155686040Y-140483200D01*
X155657972Y-140480436D01*
X155636891Y-140474040D01*
X155617455Y-140463652D01*
X155600424Y-140449676D01*
X155586448Y-140432645D01*
X155576060Y-140413209D01*
X155569664Y-140392128D01*
X155566900Y-140364060D01*
X155566900Y-138550340D01*
X155569664Y-138522272D01*
X155576060Y-138501191D01*
X155586448Y-138481755D01*
X155600424Y-138464724D01*
X155617455Y-138450748D01*
X155636891Y-138440360D01*
X155657972Y-138433964D01*
X155686040Y-138431200D01*
X156149760Y-138431200D01*
X156177828Y-138433964D01*
G37*
G36*
X161894823Y-139083534D02*
G01*
X161932212Y-139094876D01*
X161966666Y-139113291D01*
X161996865Y-139138075D01*
X162021649Y-139168274D01*
X162040064Y-139202728D01*
X162051406Y-139240117D01*
X162055840Y-139285135D01*
X162055840Y-140150065D01*
X162051406Y-140195083D01*
X162040064Y-140232472D01*
X162021649Y-140266926D01*
X161996865Y-140297125D01*
X161966666Y-140321909D01*
X161932212Y-140340324D01*
X161894823Y-140351666D01*
X161849805Y-140356100D01*
X160709875Y-140356100D01*
X160664857Y-140351666D01*
X160627468Y-140340324D01*
X160593014Y-140321909D01*
X160562815Y-140297125D01*
X160538031Y-140266926D01*
X160519616Y-140232472D01*
X160508274Y-140195083D01*
X160503840Y-140150065D01*
X160503840Y-139285135D01*
X160508274Y-139240117D01*
X160519616Y-139202728D01*
X160538031Y-139168274D01*
X160562815Y-139138075D01*
X160593014Y-139113291D01*
X160627468Y-139094876D01*
X160664857Y-139083534D01*
X160709875Y-139079100D01*
X161849805Y-139079100D01*
X161894823Y-139083534D01*
G37*
G36*
X148441241Y-138799404D02*
G01*
X148478338Y-138810657D01*
X148512519Y-138828927D01*
X148542483Y-138853517D01*
X148567073Y-138883481D01*
X148585343Y-138917662D01*
X148596596Y-138954759D01*
X148601000Y-138999473D01*
X148601000Y-139892527D01*
X148596596Y-139937241D01*
X148585343Y-139974338D01*
X148567073Y-140008519D01*
X148542483Y-140038483D01*
X148512519Y-140063073D01*
X148478338Y-140081343D01*
X148441241Y-140092596D01*
X148396527Y-140097000D01*
X147303473Y-140097000D01*
X147258759Y-140092596D01*
X147221662Y-140081343D01*
X147187481Y-140063073D01*
X147157517Y-140038483D01*
X147132927Y-140008519D01*
X147114657Y-139974338D01*
X147103404Y-139937241D01*
X147099000Y-139892527D01*
X147099000Y-138999473D01*
X147103404Y-138954759D01*
X147114657Y-138917662D01*
X147132927Y-138883481D01*
X147157517Y-138853517D01*
X147187481Y-138828927D01*
X147221662Y-138810657D01*
X147258759Y-138799404D01*
X147303473Y-138795000D01*
X148396527Y-138795000D01*
X148441241Y-138799404D01*
G37*
G36*
X146194000Y-139716000D02*
G01*
X143892000Y-139716000D01*
X143892000Y-138414000D01*
X146194000Y-138414000D01*
X146194000Y-139716000D01*
G37*
G36*
X114189600Y-137360189D02*
G01*
X114222652Y-137370215D01*
X114253103Y-137386492D01*
X114279799Y-137408401D01*
X114301708Y-137435097D01*
X114317985Y-137465548D01*
X114328011Y-137498600D01*
X114332000Y-137539103D01*
X114332000Y-138975297D01*
X114328011Y-139015800D01*
X114317985Y-139048852D01*
X114301708Y-139079303D01*
X114279799Y-139105999D01*
X114253103Y-139127908D01*
X114222652Y-139144185D01*
X114189600Y-139154211D01*
X114149097Y-139158200D01*
X112462903Y-139158200D01*
X112422400Y-139154211D01*
X112389348Y-139144185D01*
X112358897Y-139127908D01*
X112332201Y-139105999D01*
X112310292Y-139079303D01*
X112294015Y-139048852D01*
X112283989Y-139015800D01*
X112280000Y-138975297D01*
X112280000Y-137539103D01*
X112283989Y-137498600D01*
X112294015Y-137465548D01*
X112310292Y-137435097D01*
X112332201Y-137408401D01*
X112358897Y-137386492D01*
X112389348Y-137370215D01*
X112422400Y-137360189D01*
X112462903Y-137356200D01*
X114149097Y-137356200D01*
X114189600Y-137360189D01*
G37*
G36*
X161894823Y-137008534D02*
G01*
X161932212Y-137019876D01*
X161966666Y-137038291D01*
X161996865Y-137063075D01*
X162021649Y-137093274D01*
X162040064Y-137127728D01*
X162051406Y-137165117D01*
X162055840Y-137210135D01*
X162055840Y-138075065D01*
X162051406Y-138120083D01*
X162040064Y-138157472D01*
X162021649Y-138191926D01*
X161996865Y-138222125D01*
X161966666Y-138246909D01*
X161932212Y-138265324D01*
X161894823Y-138276666D01*
X161849805Y-138281100D01*
X160709875Y-138281100D01*
X160664857Y-138276666D01*
X160627468Y-138265324D01*
X160593014Y-138246909D01*
X160562815Y-138222125D01*
X160538031Y-138191926D01*
X160519616Y-138157472D01*
X160508274Y-138120083D01*
X160503840Y-138075065D01*
X160503840Y-137210135D01*
X160508274Y-137165117D01*
X160519616Y-137127728D01*
X160538031Y-137093274D01*
X160562815Y-137063075D01*
X160593014Y-137038291D01*
X160627468Y-137019876D01*
X160664857Y-137008534D01*
X160709875Y-137004100D01*
X161849805Y-137004100D01*
X161894823Y-137008534D01*
G37*
G36*
X146194000Y-137436000D02*
G01*
X143892000Y-137436000D01*
X143892000Y-136134000D01*
X146194000Y-136134000D01*
X146194000Y-137436000D01*
G37*
G36*
X130529787Y-129723462D02*
G01*
X130529790Y-129723463D01*
X130529789Y-129723463D01*
X131176029Y-129991144D01*
X131757631Y-130379758D01*
X132252242Y-130874369D01*
X132640856Y-131455971D01*
X132822365Y-131894172D01*
X132908538Y-132102213D01*
X133045000Y-132788256D01*
X133045000Y-133487744D01*
X132908538Y-134173787D01*
X132908537Y-134173789D01*
X132640856Y-134820029D01*
X132252242Y-135401631D01*
X131757631Y-135896242D01*
X131176029Y-136284856D01*
X130904357Y-136397386D01*
X130529787Y-136552538D01*
X129843744Y-136689000D01*
X129144256Y-136689000D01*
X128458213Y-136552538D01*
X128083643Y-136397386D01*
X127811971Y-136284856D01*
X127230369Y-135896242D01*
X126735758Y-135401631D01*
X126347144Y-134820029D01*
X126079463Y-134173789D01*
X126079462Y-134173787D01*
X125943000Y-133487744D01*
X125943000Y-132788256D01*
X126079462Y-132102213D01*
X126165635Y-131894172D01*
X126347144Y-131455971D01*
X126735758Y-130874369D01*
X127230369Y-130379758D01*
X127811971Y-129991144D01*
X128458211Y-129723463D01*
X128458210Y-129723463D01*
X128458213Y-129723462D01*
X129144256Y-129587000D01*
X129843744Y-129587000D01*
X130529787Y-129723462D01*
G37*
G36*
X113541442Y-134862718D02*
G01*
X113607627Y-134869237D01*
X113777466Y-134920757D01*
X113933991Y-135004422D01*
X113969729Y-135033752D01*
X114071186Y-135117014D01*
X114154448Y-135218471D01*
X114183778Y-135254209D01*
X114267443Y-135410734D01*
X114318963Y-135580573D01*
X114336359Y-135757200D01*
X114318963Y-135933827D01*
X114267443Y-136103666D01*
X114183778Y-136260191D01*
X114163536Y-136284856D01*
X114071186Y-136397386D01*
X113969729Y-136480648D01*
X113933991Y-136509978D01*
X113777466Y-136593643D01*
X113607627Y-136645163D01*
X113541443Y-136651681D01*
X113475260Y-136658200D01*
X113136740Y-136658200D01*
X113070557Y-136651681D01*
X113004373Y-136645163D01*
X112834534Y-136593643D01*
X112678009Y-136509978D01*
X112642271Y-136480648D01*
X112540814Y-136397386D01*
X112448464Y-136284856D01*
X112428222Y-136260191D01*
X112344557Y-136103666D01*
X112293037Y-135933827D01*
X112275641Y-135757200D01*
X112293037Y-135580573D01*
X112344557Y-135410734D01*
X112428222Y-135254209D01*
X112457552Y-135218471D01*
X112540814Y-135117014D01*
X112642271Y-135033752D01*
X112678009Y-135004422D01*
X112834534Y-134920757D01*
X113004373Y-134869237D01*
X113070558Y-134862718D01*
X113136740Y-134856200D01*
X113475260Y-134856200D01*
X113541442Y-134862718D01*
G37*
G36*
X150098181Y-134500204D02*
G01*
X150135278Y-134511457D01*
X150169459Y-134529727D01*
X150199423Y-134554317D01*
X150224013Y-134584281D01*
X150242283Y-134618462D01*
X150253536Y-134655559D01*
X150257940Y-134700273D01*
X150257940Y-135593327D01*
X150253536Y-135638041D01*
X150242283Y-135675138D01*
X150224013Y-135709319D01*
X150199423Y-135739283D01*
X150169459Y-135763873D01*
X150135278Y-135782143D01*
X150098181Y-135793396D01*
X150053467Y-135797800D01*
X148960413Y-135797800D01*
X148915699Y-135793396D01*
X148878602Y-135782143D01*
X148844421Y-135763873D01*
X148814457Y-135739283D01*
X148789867Y-135709319D01*
X148771597Y-135675138D01*
X148760344Y-135638041D01*
X148755940Y-135593327D01*
X148755940Y-134700273D01*
X148760344Y-134655559D01*
X148771597Y-134618462D01*
X148789867Y-134584281D01*
X148814457Y-134554317D01*
X148844421Y-134529727D01*
X148878602Y-134511457D01*
X148915699Y-134500204D01*
X148960413Y-134495800D01*
X150053467Y-134495800D01*
X150098181Y-134500204D01*
G37*
G36*
X157447828Y-133483964D02*
G01*
X157468909Y-133490360D01*
X157488345Y-133500748D01*
X157505376Y-133514724D01*
X157519352Y-133531755D01*
X157529740Y-133551191D01*
X157536136Y-133572272D01*
X157538900Y-133600340D01*
X157538900Y-135414060D01*
X157536136Y-135442128D01*
X157529740Y-135463209D01*
X157519352Y-135482645D01*
X157505376Y-135499676D01*
X157488345Y-135513652D01*
X157468909Y-135524040D01*
X157447828Y-135530436D01*
X157419760Y-135533200D01*
X156956040Y-135533200D01*
X156927972Y-135530436D01*
X156906891Y-135524040D01*
X156887455Y-135513652D01*
X156870424Y-135499676D01*
X156856448Y-135482645D01*
X156846060Y-135463209D01*
X156839664Y-135442128D01*
X156836900Y-135414060D01*
X156836900Y-133600340D01*
X156839664Y-133572272D01*
X156846060Y-133551191D01*
X156856448Y-133531755D01*
X156870424Y-133514724D01*
X156887455Y-133500748D01*
X156906891Y-133490360D01*
X156927972Y-133483964D01*
X156956040Y-133481200D01*
X157419760Y-133481200D01*
X157447828Y-133483964D01*
G37*
G36*
X158717828Y-133483964D02*
G01*
X158738909Y-133490360D01*
X158758345Y-133500748D01*
X158775376Y-133514724D01*
X158789352Y-133531755D01*
X158799740Y-133551191D01*
X158806136Y-133572272D01*
X158808900Y-133600340D01*
X158808900Y-135414060D01*
X158806136Y-135442128D01*
X158799740Y-135463209D01*
X158789352Y-135482645D01*
X158775376Y-135499676D01*
X158758345Y-135513652D01*
X158738909Y-135524040D01*
X158717828Y-135530436D01*
X158689760Y-135533200D01*
X158226040Y-135533200D01*
X158197972Y-135530436D01*
X158176891Y-135524040D01*
X158157455Y-135513652D01*
X158140424Y-135499676D01*
X158126448Y-135482645D01*
X158116060Y-135463209D01*
X158109664Y-135442128D01*
X158106900Y-135414060D01*
X158106900Y-133600340D01*
X158109664Y-133572272D01*
X158116060Y-133551191D01*
X158126448Y-133531755D01*
X158140424Y-133514724D01*
X158157455Y-133500748D01*
X158176891Y-133490360D01*
X158197972Y-133483964D01*
X158226040Y-133481200D01*
X158689760Y-133481200D01*
X158717828Y-133483964D01*
G37*
G36*
X156177828Y-133483964D02*
G01*
X156198909Y-133490360D01*
X156218345Y-133500748D01*
X156235376Y-133514724D01*
X156249352Y-133531755D01*
X156259740Y-133551191D01*
X156266136Y-133572272D01*
X156268900Y-133600340D01*
X156268900Y-135414060D01*
X156266136Y-135442128D01*
X156259740Y-135463209D01*
X156249352Y-135482645D01*
X156235376Y-135499676D01*
X156218345Y-135513652D01*
X156198909Y-135524040D01*
X156177828Y-135530436D01*
X156149760Y-135533200D01*
X155686040Y-135533200D01*
X155657972Y-135530436D01*
X155636891Y-135524040D01*
X155617455Y-135513652D01*
X155600424Y-135499676D01*
X155586448Y-135482645D01*
X155576060Y-135463209D01*
X155569664Y-135442128D01*
X155566900Y-135414060D01*
X155566900Y-133600340D01*
X155569664Y-133572272D01*
X155576060Y-133551191D01*
X155586448Y-133531755D01*
X155600424Y-133514724D01*
X155617455Y-133500748D01*
X155636891Y-133490360D01*
X155657972Y-133483964D01*
X155686040Y-133481200D01*
X156149760Y-133481200D01*
X156177828Y-133483964D01*
G37*
G36*
X154907828Y-133483964D02*
G01*
X154928909Y-133490360D01*
X154948345Y-133500748D01*
X154965376Y-133514724D01*
X154979352Y-133531755D01*
X154989740Y-133551191D01*
X154996136Y-133572272D01*
X154998900Y-133600340D01*
X154998900Y-135414060D01*
X154996136Y-135442128D01*
X154989740Y-135463209D01*
X154979352Y-135482645D01*
X154965376Y-135499676D01*
X154948345Y-135513652D01*
X154928909Y-135524040D01*
X154907828Y-135530436D01*
X154879760Y-135533200D01*
X154416040Y-135533200D01*
X154387972Y-135530436D01*
X154366891Y-135524040D01*
X154347455Y-135513652D01*
X154330424Y-135499676D01*
X154316448Y-135482645D01*
X154306060Y-135463209D01*
X154299664Y-135442128D01*
X154296900Y-135414060D01*
X154296900Y-133600340D01*
X154299664Y-133572272D01*
X154306060Y-133551191D01*
X154316448Y-133531755D01*
X154330424Y-133514724D01*
X154347455Y-133500748D01*
X154366891Y-133490360D01*
X154387972Y-133483964D01*
X154416040Y-133481200D01*
X154879760Y-133481200D01*
X154907828Y-133483964D01*
G37*
G36*
X113541443Y-132362719D02*
G01*
X113607627Y-132369237D01*
X113777466Y-132420757D01*
X113933991Y-132504422D01*
X113964825Y-132529727D01*
X114071186Y-132617014D01*
X114139514Y-132700273D01*
X114183778Y-132754209D01*
X114267443Y-132910734D01*
X114318963Y-133080573D01*
X114336359Y-133257200D01*
X114318963Y-133433827D01*
X114267443Y-133603666D01*
X114183778Y-133760191D01*
X114180756Y-133763873D01*
X114071186Y-133897386D01*
X113969729Y-133980648D01*
X113933991Y-134009978D01*
X113933989Y-134009979D01*
X113782892Y-134090743D01*
X113777466Y-134093643D01*
X113607627Y-134145163D01*
X113541443Y-134151681D01*
X113475260Y-134158200D01*
X113136740Y-134158200D01*
X113070557Y-134151681D01*
X113004373Y-134145163D01*
X112834534Y-134093643D01*
X112829109Y-134090743D01*
X112678011Y-134009979D01*
X112678009Y-134009978D01*
X112642271Y-133980648D01*
X112540814Y-133897386D01*
X112431244Y-133763873D01*
X112428222Y-133760191D01*
X112344557Y-133603666D01*
X112293037Y-133433827D01*
X112275641Y-133257200D01*
X112293037Y-133080573D01*
X112344557Y-132910734D01*
X112428222Y-132754209D01*
X112472486Y-132700273D01*
X112540814Y-132617014D01*
X112647175Y-132529727D01*
X112678009Y-132504422D01*
X112834534Y-132420757D01*
X113004373Y-132369237D01*
X113070557Y-132362719D01*
X113136740Y-132356200D01*
X113475260Y-132356200D01*
X113541443Y-132362719D01*
G37*
G36*
X138079481Y-132651664D02*
G01*
X138116578Y-132662917D01*
X138150759Y-132681187D01*
X138180723Y-132705777D01*
X138205313Y-132735741D01*
X138223583Y-132769922D01*
X138234836Y-132807019D01*
X138239240Y-132851733D01*
X138239240Y-133944787D01*
X138234836Y-133989501D01*
X138223583Y-134026598D01*
X138205313Y-134060779D01*
X138180723Y-134090743D01*
X138150759Y-134115333D01*
X138116578Y-134133603D01*
X138079481Y-134144856D01*
X138034767Y-134149260D01*
X137141713Y-134149260D01*
X137096999Y-134144856D01*
X137059902Y-134133603D01*
X137025721Y-134115333D01*
X136995757Y-134090743D01*
X136971167Y-134060779D01*
X136952897Y-134026598D01*
X136941644Y-133989501D01*
X136937240Y-133944787D01*
X136937240Y-132851733D01*
X136941644Y-132807019D01*
X136952897Y-132769922D01*
X136971167Y-132735741D01*
X136995757Y-132705777D01*
X137025721Y-132681187D01*
X137059902Y-132662917D01*
X137096999Y-132651664D01*
X137141713Y-132647260D01*
X138034767Y-132647260D01*
X138079481Y-132651664D01*
G37*
G36*
X140079481Y-132651664D02*
G01*
X140116578Y-132662917D01*
X140150759Y-132681187D01*
X140180723Y-132705777D01*
X140205313Y-132735741D01*
X140223583Y-132769922D01*
X140234836Y-132807019D01*
X140239240Y-132851733D01*
X140239240Y-133944787D01*
X140234836Y-133989501D01*
X140223583Y-134026598D01*
X140205313Y-134060779D01*
X140180723Y-134090743D01*
X140150759Y-134115333D01*
X140116578Y-134133603D01*
X140079481Y-134144856D01*
X140034767Y-134149260D01*
X139141713Y-134149260D01*
X139096999Y-134144856D01*
X139059902Y-134133603D01*
X139025721Y-134115333D01*
X138995757Y-134090743D01*
X138971167Y-134060779D01*
X138952897Y-134026598D01*
X138941644Y-133989501D01*
X138937240Y-133944787D01*
X138937240Y-132851733D01*
X138941644Y-132807019D01*
X138952897Y-132769922D01*
X138971167Y-132735741D01*
X138995757Y-132705777D01*
X139025721Y-132681187D01*
X139059902Y-132662917D01*
X139096999Y-132651664D01*
X139141713Y-132647260D01*
X140034767Y-132647260D01*
X140079481Y-132651664D01*
G37*
G36*
X150098181Y-132500204D02*
G01*
X150135278Y-132511457D01*
X150169459Y-132529727D01*
X150199423Y-132554317D01*
X150224013Y-132584281D01*
X150242283Y-132618462D01*
X150253536Y-132655559D01*
X150257940Y-132700273D01*
X150257940Y-133593327D01*
X150253536Y-133638041D01*
X150242283Y-133675138D01*
X150224013Y-133709319D01*
X150199423Y-133739283D01*
X150169459Y-133763873D01*
X150135278Y-133782143D01*
X150098181Y-133793396D01*
X150053467Y-133797800D01*
X148960413Y-133797800D01*
X148915699Y-133793396D01*
X148878602Y-133782143D01*
X148844421Y-133763873D01*
X148814457Y-133739283D01*
X148789867Y-133709319D01*
X148771597Y-133675138D01*
X148760344Y-133638041D01*
X148755940Y-133593327D01*
X148755940Y-132700273D01*
X148760344Y-132655559D01*
X148771597Y-132618462D01*
X148789867Y-132584281D01*
X148814457Y-132554317D01*
X148844421Y-132529727D01*
X148878602Y-132511457D01*
X148915699Y-132500204D01*
X148960413Y-132495800D01*
X150053467Y-132495800D01*
X150098181Y-132500204D01*
G37*
G36*
X155755483Y-130470234D02*
G01*
X155792872Y-130481576D01*
X155827326Y-130499991D01*
X155857525Y-130524775D01*
X155882309Y-130554974D01*
X155900724Y-130589428D01*
X155912066Y-130626817D01*
X155916500Y-130671835D01*
X155916500Y-131811765D01*
X155912066Y-131856783D01*
X155900724Y-131894172D01*
X155882309Y-131928626D01*
X155857525Y-131958825D01*
X155827326Y-131983609D01*
X155792872Y-132002024D01*
X155755483Y-132013366D01*
X155710465Y-132017800D01*
X154845535Y-132017800D01*
X154800517Y-132013366D01*
X154763128Y-132002024D01*
X154728674Y-131983609D01*
X154698475Y-131958825D01*
X154673691Y-131928626D01*
X154655276Y-131894172D01*
X154643934Y-131856783D01*
X154639500Y-131811765D01*
X154639500Y-130671835D01*
X154643934Y-130626817D01*
X154655276Y-130589428D01*
X154673691Y-130554974D01*
X154698475Y-130524775D01*
X154728674Y-130499991D01*
X154763128Y-130481576D01*
X154800517Y-130470234D01*
X154845535Y-130465800D01*
X155710465Y-130465800D01*
X155755483Y-130470234D01*
G37*
G36*
X157830483Y-130470234D02*
G01*
X157867872Y-130481576D01*
X157902326Y-130499991D01*
X157932525Y-130524775D01*
X157957309Y-130554974D01*
X157975724Y-130589428D01*
X157987066Y-130626817D01*
X157991500Y-130671835D01*
X157991500Y-131811765D01*
X157987066Y-131856783D01*
X157975724Y-131894172D01*
X157957309Y-131928626D01*
X157932525Y-131958825D01*
X157902326Y-131983609D01*
X157867872Y-132002024D01*
X157830483Y-132013366D01*
X157785465Y-132017800D01*
X156920535Y-132017800D01*
X156875517Y-132013366D01*
X156838128Y-132002024D01*
X156803674Y-131983609D01*
X156773475Y-131958825D01*
X156748691Y-131928626D01*
X156730276Y-131894172D01*
X156718934Y-131856783D01*
X156714500Y-131811765D01*
X156714500Y-130671835D01*
X156718934Y-130626817D01*
X156730276Y-130589428D01*
X156748691Y-130554974D01*
X156773475Y-130524775D01*
X156803674Y-130499991D01*
X156838128Y-130481576D01*
X156875517Y-130470234D01*
X156920535Y-130465800D01*
X157785465Y-130465800D01*
X157830483Y-130470234D01*
G37*
G36*
X113541443Y-129862719D02*
G01*
X113607627Y-129869237D01*
X113777466Y-129920757D01*
X113933991Y-130004422D01*
X113969729Y-130033752D01*
X114071186Y-130117014D01*
X114154448Y-130218471D01*
X114183778Y-130254209D01*
X114267443Y-130410734D01*
X114318963Y-130580573D01*
X114336359Y-130757200D01*
X114318963Y-130933827D01*
X114267443Y-131103666D01*
X114183778Y-131260191D01*
X114154448Y-131295929D01*
X114071186Y-131397386D01*
X113969729Y-131480648D01*
X113933991Y-131509978D01*
X113777466Y-131593643D01*
X113607627Y-131645163D01*
X113541442Y-131651682D01*
X113475260Y-131658200D01*
X113136740Y-131658200D01*
X113070558Y-131651682D01*
X113004373Y-131645163D01*
X112834534Y-131593643D01*
X112678009Y-131509978D01*
X112642271Y-131480648D01*
X112540814Y-131397386D01*
X112457552Y-131295929D01*
X112428222Y-131260191D01*
X112344557Y-131103666D01*
X112293037Y-130933827D01*
X112275641Y-130757200D01*
X112293037Y-130580573D01*
X112344557Y-130410734D01*
X112428222Y-130254209D01*
X112457552Y-130218471D01*
X112540814Y-130117014D01*
X112642271Y-130033752D01*
X112678009Y-130004422D01*
X112834534Y-129920757D01*
X113004373Y-129869237D01*
X113070557Y-129862719D01*
X113136740Y-129856200D01*
X113475260Y-129856200D01*
X113541443Y-129862719D01*
G37*
G36*
X117933278Y-129834865D02*
G01*
X117970965Y-129846298D01*
X118005703Y-129864865D01*
X118036149Y-129889851D01*
X118061135Y-129920297D01*
X118079702Y-129955035D01*
X118091135Y-129992722D01*
X118095600Y-130038060D01*
X118095600Y-130874740D01*
X118091135Y-130920078D01*
X118079702Y-130957765D01*
X118061135Y-130992503D01*
X118036149Y-131022949D01*
X118005703Y-131047935D01*
X117970965Y-131066502D01*
X117933278Y-131077935D01*
X117887940Y-131082400D01*
X116801260Y-131082400D01*
X116755922Y-131077935D01*
X116718235Y-131066502D01*
X116683497Y-131047935D01*
X116653051Y-131022949D01*
X116628065Y-130992503D01*
X116609498Y-130957765D01*
X116598065Y-130920078D01*
X116593600Y-130874740D01*
X116593600Y-130038060D01*
X116598065Y-129992722D01*
X116609498Y-129955035D01*
X116628065Y-129920297D01*
X116653051Y-129889851D01*
X116683497Y-129864865D01*
X116718235Y-129846298D01*
X116755922Y-129834865D01*
X116801260Y-129830400D01*
X117887940Y-129830400D01*
X117933278Y-129834865D01*
G37*
G36*
X113541443Y-127362719D02*
G01*
X113607627Y-127369237D01*
X113777466Y-127420757D01*
X113933991Y-127504422D01*
X113969729Y-127533752D01*
X114071186Y-127617014D01*
X114154448Y-127718471D01*
X114183778Y-127754209D01*
X114267443Y-127910734D01*
X114318963Y-128080573D01*
X114336359Y-128257200D01*
X114318963Y-128433827D01*
X114267443Y-128603666D01*
X114183778Y-128760191D01*
X114163549Y-128784840D01*
X114071186Y-128897386D01*
X114003805Y-128952683D01*
X113933991Y-129009978D01*
X113777466Y-129093643D01*
X113607627Y-129145163D01*
X113541443Y-129151681D01*
X113475260Y-129158200D01*
X113136740Y-129158200D01*
X113070557Y-129151681D01*
X113004373Y-129145163D01*
X112834534Y-129093643D01*
X112678009Y-129009978D01*
X112608195Y-128952683D01*
X112540814Y-128897386D01*
X112448451Y-128784840D01*
X112428222Y-128760191D01*
X112344557Y-128603666D01*
X112293037Y-128433827D01*
X112275641Y-128257200D01*
X112293037Y-128080573D01*
X112344557Y-127910734D01*
X112428222Y-127754209D01*
X112457552Y-127718471D01*
X112540814Y-127617014D01*
X112642271Y-127533752D01*
X112678009Y-127504422D01*
X112834534Y-127420757D01*
X113004373Y-127369237D01*
X113070557Y-127362719D01*
X113136740Y-127356200D01*
X113475260Y-127356200D01*
X113541443Y-127362719D01*
G37*
G36*
X138756218Y-126751825D02*
G01*
X138918134Y-126784032D01*
X139127603Y-126870797D01*
X139316120Y-126996760D01*
X139476440Y-127157080D01*
X139602403Y-127345597D01*
X139689168Y-127555066D01*
X139733400Y-127777436D01*
X139733400Y-128004164D01*
X139689168Y-128226534D01*
X139602403Y-128436003D01*
X139476440Y-128624520D01*
X139316120Y-128784840D01*
X139127603Y-128910803D01*
X138918134Y-128997568D01*
X138855739Y-129009979D01*
X138695765Y-129041800D01*
X138469035Y-129041800D01*
X138309061Y-129009979D01*
X138246666Y-128997568D01*
X138037197Y-128910803D01*
X137848680Y-128784840D01*
X137688360Y-128624520D01*
X137562397Y-128436003D01*
X137475632Y-128226534D01*
X137431400Y-128004164D01*
X137431400Y-127777436D01*
X137475632Y-127555066D01*
X137562397Y-127345597D01*
X137688360Y-127157080D01*
X137848680Y-126996760D01*
X138037197Y-126870797D01*
X138246666Y-126784032D01*
X138408582Y-126751825D01*
X138469035Y-126739800D01*
X138695765Y-126739800D01*
X138756218Y-126751825D01*
G37*
G36*
X117933278Y-127784865D02*
G01*
X117970965Y-127796298D01*
X118005703Y-127814865D01*
X118036149Y-127839851D01*
X118061135Y-127870297D01*
X118079702Y-127905035D01*
X118091135Y-127942722D01*
X118095600Y-127988060D01*
X118095600Y-128824740D01*
X118091135Y-128870078D01*
X118079702Y-128907765D01*
X118061135Y-128942503D01*
X118036149Y-128972949D01*
X118005703Y-128997935D01*
X117970965Y-129016502D01*
X117933278Y-129027935D01*
X117887940Y-129032400D01*
X116801260Y-129032400D01*
X116755922Y-129027935D01*
X116718235Y-129016502D01*
X116683497Y-128997935D01*
X116653051Y-128972949D01*
X116628065Y-128942503D01*
X116609498Y-128907765D01*
X116598065Y-128870078D01*
X116593600Y-128824740D01*
X116593600Y-127988060D01*
X116598065Y-127942722D01*
X116609498Y-127905035D01*
X116628065Y-127870297D01*
X116653051Y-127839851D01*
X116683497Y-127814865D01*
X116718235Y-127796298D01*
X116755922Y-127784865D01*
X116801260Y-127780400D01*
X117887940Y-127780400D01*
X117933278Y-127784865D01*
G37*
G36*
X146553949Y-126711116D02*
G01*
X146665134Y-126733232D01*
X146769855Y-126776609D01*
X146844240Y-126807420D01*
X146874603Y-126819997D01*
X147063120Y-126945960D01*
X147223440Y-127106280D01*
X147349403Y-127294797D01*
X147436168Y-127504266D01*
X147480400Y-127726636D01*
X147480400Y-127953364D01*
X147436168Y-128175734D01*
X147349403Y-128385203D01*
X147223440Y-128573720D01*
X147063120Y-128734040D01*
X146874603Y-128860003D01*
X146874602Y-128860004D01*
X146874601Y-128860004D01*
X146850280Y-128870078D01*
X146665134Y-128946768D01*
X146553949Y-128968884D01*
X146442765Y-128991000D01*
X146216035Y-128991000D01*
X146104851Y-128968884D01*
X145993666Y-128946768D01*
X145808520Y-128870078D01*
X145784199Y-128860004D01*
X145784198Y-128860004D01*
X145784197Y-128860003D01*
X145595680Y-128734040D01*
X145435360Y-128573720D01*
X145309397Y-128385203D01*
X145222632Y-128175734D01*
X145178400Y-127953364D01*
X145178400Y-127726636D01*
X145222632Y-127504266D01*
X145309397Y-127294797D01*
X145435360Y-127106280D01*
X145595680Y-126945960D01*
X145784197Y-126819997D01*
X145814561Y-126807420D01*
X145888945Y-126776609D01*
X145993666Y-126733232D01*
X146104851Y-126711116D01*
X146216035Y-126689000D01*
X146442765Y-126689000D01*
X146553949Y-126711116D01*
G37*
G36*
X155489787Y-121283462D02*
G01*
X155489790Y-121283463D01*
X155489789Y-121283463D01*
X156136029Y-121551144D01*
X156717631Y-121939758D01*
X157212242Y-122434369D01*
X157600856Y-123015971D01*
X157700776Y-123257200D01*
X157868538Y-123662213D01*
X158005000Y-124348256D01*
X158005000Y-125047744D01*
X157868538Y-125733787D01*
X157868537Y-125733789D01*
X157600856Y-126380029D01*
X157212242Y-126961631D01*
X156717631Y-127456242D01*
X156136029Y-127844856D01*
X155679068Y-128034135D01*
X155489787Y-128112538D01*
X154803744Y-128249000D01*
X154104256Y-128249000D01*
X153418213Y-128112538D01*
X153228932Y-128034135D01*
X152771971Y-127844856D01*
X152190369Y-127456242D01*
X151695758Y-126961631D01*
X151307144Y-126380029D01*
X151039463Y-125733789D01*
X151039462Y-125733787D01*
X150903000Y-125047744D01*
X150903000Y-124348256D01*
X151039462Y-123662213D01*
X151207224Y-123257200D01*
X151307144Y-123015971D01*
X151695758Y-122434369D01*
X152190369Y-121939758D01*
X152771971Y-121551144D01*
X153418211Y-121283463D01*
X153418210Y-121283463D01*
X153418213Y-121283462D01*
X154104256Y-121147000D01*
X154803744Y-121147000D01*
X155489787Y-121283462D01*
G37*
G36*
X168244483Y-125339434D02*
G01*
X168281872Y-125350776D01*
X168316326Y-125369191D01*
X168346525Y-125393975D01*
X168371309Y-125424174D01*
X168389724Y-125458628D01*
X168401066Y-125496017D01*
X168405500Y-125541035D01*
X168405500Y-126680965D01*
X168401066Y-126725983D01*
X168389724Y-126763372D01*
X168371309Y-126797826D01*
X168346525Y-126828025D01*
X168316326Y-126852809D01*
X168281872Y-126871224D01*
X168244483Y-126882566D01*
X168199465Y-126887000D01*
X167334535Y-126887000D01*
X167289517Y-126882566D01*
X167252128Y-126871224D01*
X167217674Y-126852809D01*
X167187475Y-126828025D01*
X167162691Y-126797826D01*
X167144276Y-126763372D01*
X167132934Y-126725983D01*
X167128500Y-126680965D01*
X167128500Y-125541035D01*
X167132934Y-125496017D01*
X167144276Y-125458628D01*
X167162691Y-125424174D01*
X167187475Y-125393975D01*
X167217674Y-125369191D01*
X167252128Y-125350776D01*
X167289517Y-125339434D01*
X167334535Y-125335000D01*
X168199465Y-125335000D01*
X168244483Y-125339434D01*
G37*
G36*
X170319483Y-125339434D02*
G01*
X170356872Y-125350776D01*
X170391326Y-125369191D01*
X170421525Y-125393975D01*
X170446309Y-125424174D01*
X170464724Y-125458628D01*
X170476066Y-125496017D01*
X170480500Y-125541035D01*
X170480500Y-126680965D01*
X170476066Y-126725983D01*
X170464724Y-126763372D01*
X170446309Y-126797826D01*
X170421525Y-126828025D01*
X170391326Y-126852809D01*
X170356872Y-126871224D01*
X170319483Y-126882566D01*
X170274465Y-126887000D01*
X169409535Y-126887000D01*
X169364517Y-126882566D01*
X169327128Y-126871224D01*
X169292674Y-126852809D01*
X169262475Y-126828025D01*
X169237691Y-126797826D01*
X169219276Y-126763372D01*
X169207934Y-126725983D01*
X169203500Y-126680965D01*
X169203500Y-125541035D01*
X169207934Y-125496017D01*
X169219276Y-125458628D01*
X169237691Y-125424174D01*
X169262475Y-125393975D01*
X169292674Y-125369191D01*
X169327128Y-125350776D01*
X169364517Y-125339434D01*
X169409535Y-125335000D01*
X170274465Y-125335000D01*
X170319483Y-125339434D01*
G37*
G36*
X163062883Y-125263234D02*
G01*
X163100272Y-125274576D01*
X163134726Y-125292991D01*
X163164925Y-125317775D01*
X163189709Y-125347974D01*
X163208124Y-125382428D01*
X163219466Y-125419817D01*
X163223900Y-125464835D01*
X163223900Y-126604765D01*
X163219466Y-126649783D01*
X163208124Y-126687172D01*
X163189709Y-126721626D01*
X163164925Y-126751825D01*
X163134726Y-126776609D01*
X163100272Y-126795024D01*
X163062883Y-126806366D01*
X163017865Y-126810800D01*
X162152935Y-126810800D01*
X162107917Y-126806366D01*
X162070528Y-126795024D01*
X162036074Y-126776609D01*
X162005875Y-126751825D01*
X161981091Y-126721626D01*
X161962676Y-126687172D01*
X161951334Y-126649783D01*
X161946900Y-126604765D01*
X161946900Y-125464835D01*
X161951334Y-125419817D01*
X161962676Y-125382428D01*
X161981091Y-125347974D01*
X162005875Y-125317775D01*
X162036074Y-125292991D01*
X162070528Y-125274576D01*
X162107917Y-125263234D01*
X162152935Y-125258800D01*
X163017865Y-125258800D01*
X163062883Y-125263234D01*
G37*
G36*
X160987883Y-125263234D02*
G01*
X161025272Y-125274576D01*
X161059726Y-125292991D01*
X161089925Y-125317775D01*
X161114709Y-125347974D01*
X161133124Y-125382428D01*
X161144466Y-125419817D01*
X161148900Y-125464835D01*
X161148900Y-126604765D01*
X161144466Y-126649783D01*
X161133124Y-126687172D01*
X161114709Y-126721626D01*
X161089925Y-126751825D01*
X161059726Y-126776609D01*
X161025272Y-126795024D01*
X160987883Y-126806366D01*
X160942865Y-126810800D01*
X160077935Y-126810800D01*
X160032917Y-126806366D01*
X159995528Y-126795024D01*
X159961074Y-126776609D01*
X159930875Y-126751825D01*
X159906091Y-126721626D01*
X159887676Y-126687172D01*
X159876334Y-126649783D01*
X159871900Y-126604765D01*
X159871900Y-125464835D01*
X159876334Y-125419817D01*
X159887676Y-125382428D01*
X159906091Y-125347974D01*
X159930875Y-125317775D01*
X159961074Y-125292991D01*
X159995528Y-125274576D01*
X160032917Y-125263234D01*
X160077935Y-125258800D01*
X160942865Y-125258800D01*
X160987883Y-125263234D01*
G37*
G36*
X113541442Y-124862718D02*
G01*
X113607627Y-124869237D01*
X113777466Y-124920757D01*
X113777468Y-124920758D01*
X113839032Y-124953665D01*
X113933991Y-125004422D01*
X113969729Y-125033752D01*
X114071186Y-125117014D01*
X114132209Y-125191372D01*
X114183778Y-125254209D01*
X114183779Y-125254211D01*
X114251438Y-125380790D01*
X114267443Y-125410734D01*
X114318963Y-125580573D01*
X114336359Y-125757200D01*
X114318963Y-125933827D01*
X114267443Y-126103666D01*
X114183778Y-126260191D01*
X114154448Y-126295929D01*
X114071186Y-126397386D01*
X113969729Y-126480648D01*
X113933991Y-126509978D01*
X113777466Y-126593643D01*
X113607627Y-126645163D01*
X113541443Y-126651681D01*
X113475260Y-126658200D01*
X113136740Y-126658200D01*
X113070557Y-126651681D01*
X113004373Y-126645163D01*
X112834534Y-126593643D01*
X112678009Y-126509978D01*
X112642271Y-126480648D01*
X112540814Y-126397386D01*
X112457552Y-126295929D01*
X112428222Y-126260191D01*
X112344557Y-126103666D01*
X112293037Y-125933827D01*
X112275641Y-125757200D01*
X112293037Y-125580573D01*
X112344557Y-125410734D01*
X112360563Y-125380790D01*
X112428221Y-125254211D01*
X112428222Y-125254209D01*
X112479791Y-125191372D01*
X112540814Y-125117014D01*
X112642271Y-125033752D01*
X112678009Y-125004422D01*
X112772968Y-124953665D01*
X112834532Y-124920758D01*
X112834534Y-124920757D01*
X113004373Y-124869237D01*
X113070558Y-124862718D01*
X113136740Y-124856200D01*
X113475260Y-124856200D01*
X113541442Y-124862718D01*
G37*
G36*
X117933278Y-124923665D02*
G01*
X117970965Y-124935098D01*
X118005703Y-124953665D01*
X118036149Y-124978651D01*
X118061135Y-125009097D01*
X118079702Y-125043835D01*
X118091135Y-125081522D01*
X118095600Y-125126860D01*
X118095600Y-125963540D01*
X118091135Y-126008878D01*
X118079702Y-126046565D01*
X118061135Y-126081303D01*
X118036149Y-126111749D01*
X118005703Y-126136735D01*
X117970965Y-126155302D01*
X117933278Y-126166735D01*
X117887940Y-126171200D01*
X116801260Y-126171200D01*
X116755922Y-126166735D01*
X116718235Y-126155302D01*
X116683497Y-126136735D01*
X116653051Y-126111749D01*
X116628065Y-126081303D01*
X116609498Y-126046565D01*
X116598065Y-126008878D01*
X116593600Y-125963540D01*
X116593600Y-125126860D01*
X116598065Y-125081522D01*
X116609498Y-125043835D01*
X116628065Y-125009097D01*
X116653051Y-124978651D01*
X116683497Y-124953665D01*
X116718235Y-124935098D01*
X116755922Y-124923665D01*
X116801260Y-124919200D01*
X117887940Y-124919200D01*
X117933278Y-124923665D01*
G37*
G36*
X140233400Y-125041800D02*
G01*
X138931400Y-125041800D01*
X138931400Y-123739800D01*
X140233400Y-123739800D01*
X140233400Y-125041800D01*
G37*
G36*
X137749023Y-123760189D02*
G01*
X137772290Y-123764817D01*
X137890764Y-123813891D01*
X137997388Y-123885135D01*
X138088065Y-123975812D01*
X138154562Y-124075331D01*
X138159310Y-124082438D01*
X138208383Y-124200910D01*
X138223296Y-124275882D01*
X138233400Y-124326682D01*
X138233400Y-124454918D01*
X138208383Y-124580690D01*
X138159309Y-124699164D01*
X138088065Y-124805788D01*
X137997388Y-124896465D01*
X137890764Y-124967709D01*
X137890763Y-124967710D01*
X137890762Y-124967710D01*
X137772290Y-125016783D01*
X137646519Y-125041800D01*
X137518281Y-125041800D01*
X137392510Y-125016783D01*
X137274038Y-124967710D01*
X137274037Y-124967710D01*
X137274036Y-124967709D01*
X137167412Y-124896465D01*
X137076735Y-124805788D01*
X137005491Y-124699164D01*
X136956417Y-124580690D01*
X136931400Y-124454918D01*
X136931400Y-124326682D01*
X136941505Y-124275882D01*
X136956417Y-124200910D01*
X137005490Y-124082438D01*
X137010239Y-124075331D01*
X137076735Y-123975812D01*
X137167412Y-123885135D01*
X137274036Y-123813891D01*
X137392510Y-123764817D01*
X137415777Y-123760189D01*
X137518281Y-123739800D01*
X137646519Y-123739800D01*
X137749023Y-123760189D01*
G37*
G36*
X145519290Y-123714017D02*
G01*
X145637764Y-123763091D01*
X145744388Y-123834335D01*
X145835065Y-123925012D01*
X145891838Y-124009978D01*
X145906310Y-124031638D01*
X145955383Y-124150110D01*
X145980400Y-124275881D01*
X145980400Y-124404119D01*
X145970295Y-124454919D01*
X145955383Y-124529890D01*
X145906309Y-124648364D01*
X145835065Y-124754988D01*
X145744388Y-124845665D01*
X145637764Y-124916909D01*
X145637763Y-124916910D01*
X145637762Y-124916910D01*
X145519290Y-124965983D01*
X145393519Y-124991000D01*
X145265281Y-124991000D01*
X145139510Y-124965983D01*
X145021038Y-124916910D01*
X145021037Y-124916910D01*
X145021036Y-124916909D01*
X144914412Y-124845665D01*
X144823735Y-124754988D01*
X144752491Y-124648364D01*
X144703417Y-124529890D01*
X144688505Y-124454919D01*
X144678400Y-124404119D01*
X144678400Y-124275881D01*
X144703417Y-124150110D01*
X144752490Y-124031638D01*
X144766963Y-124009978D01*
X144823735Y-123925012D01*
X144914412Y-123834335D01*
X145021036Y-123763091D01*
X145139510Y-123714017D01*
X145265281Y-123689000D01*
X145393519Y-123689000D01*
X145519290Y-123714017D01*
G37*
G36*
X147980400Y-124991000D02*
G01*
X146678400Y-124991000D01*
X146678400Y-123689000D01*
X147980400Y-123689000D01*
X147980400Y-124991000D01*
G37*
G36*
X113541443Y-122362719D02*
G01*
X113607627Y-122369237D01*
X113777466Y-122420757D01*
X113933991Y-122504422D01*
X113965024Y-122529890D01*
X114071186Y-122617014D01*
X114154448Y-122718471D01*
X114183778Y-122754209D01*
X114267443Y-122910734D01*
X114318963Y-123080573D01*
X114336359Y-123257200D01*
X114318963Y-123433827D01*
X114267443Y-123603666D01*
X114183778Y-123760191D01*
X114154448Y-123795929D01*
X114071186Y-123897386D01*
X113975622Y-123975812D01*
X113933991Y-124009978D01*
X113777466Y-124093643D01*
X113607627Y-124145163D01*
X113557398Y-124150110D01*
X113475260Y-124158200D01*
X113136740Y-124158200D01*
X113054602Y-124150110D01*
X113004373Y-124145163D01*
X112834534Y-124093643D01*
X112678009Y-124009978D01*
X112636378Y-123975812D01*
X112540814Y-123897386D01*
X112457552Y-123795929D01*
X112428222Y-123760191D01*
X112344557Y-123603666D01*
X112293037Y-123433827D01*
X112275641Y-123257200D01*
X112293037Y-123080573D01*
X112344557Y-122910734D01*
X112428222Y-122754209D01*
X112457552Y-122718471D01*
X112540814Y-122617014D01*
X112646976Y-122529890D01*
X112678009Y-122504422D01*
X112834534Y-122420757D01*
X113004373Y-122369237D01*
X113070557Y-122362719D01*
X113136740Y-122356200D01*
X113475260Y-122356200D01*
X113541443Y-122362719D01*
G37*
G36*
X117933278Y-122873665D02*
G01*
X117970965Y-122885098D01*
X118005703Y-122903665D01*
X118036149Y-122928651D01*
X118061135Y-122959097D01*
X118079702Y-122993835D01*
X118091135Y-123031522D01*
X118095600Y-123076860D01*
X118095600Y-123913540D01*
X118091135Y-123958878D01*
X118079702Y-123996565D01*
X118061135Y-124031303D01*
X118036149Y-124061749D01*
X118005703Y-124086735D01*
X117970965Y-124105302D01*
X117933278Y-124116735D01*
X117887940Y-124121200D01*
X116801260Y-124121200D01*
X116755922Y-124116735D01*
X116718235Y-124105302D01*
X116683497Y-124086735D01*
X116653051Y-124061749D01*
X116628065Y-124031303D01*
X116609498Y-123996565D01*
X116598065Y-123958878D01*
X116593600Y-123913540D01*
X116593600Y-123076860D01*
X116598065Y-123031522D01*
X116609498Y-122993835D01*
X116628065Y-122959097D01*
X116653051Y-122928651D01*
X116683497Y-122903665D01*
X116718235Y-122885098D01*
X116755922Y-122873665D01*
X116801260Y-122869200D01*
X117887940Y-122869200D01*
X117933278Y-122873665D01*
G37*
G36*
X139763608Y-121763090D02*
G01*
X139772290Y-121764817D01*
X139890764Y-121813891D01*
X139997388Y-121885135D01*
X140088065Y-121975812D01*
X140120402Y-122024207D01*
X140159310Y-122082438D01*
X140208383Y-122200910D01*
X140233400Y-122326681D01*
X140233400Y-122454919D01*
X140223553Y-122504422D01*
X140208383Y-122580690D01*
X140159309Y-122699164D01*
X140088065Y-122805788D01*
X139997388Y-122896465D01*
X139890764Y-122967709D01*
X139890763Y-122967710D01*
X139890762Y-122967710D01*
X139772290Y-123016783D01*
X139646519Y-123041800D01*
X139518281Y-123041800D01*
X139392510Y-123016783D01*
X139274038Y-122967710D01*
X139274037Y-122967710D01*
X139274036Y-122967709D01*
X139167412Y-122896465D01*
X139076735Y-122805788D01*
X139005491Y-122699164D01*
X138956417Y-122580690D01*
X138941247Y-122504422D01*
X138931400Y-122454919D01*
X138931400Y-122326681D01*
X138956417Y-122200910D01*
X139005490Y-122082438D01*
X139044399Y-122024207D01*
X139076735Y-121975812D01*
X139167412Y-121885135D01*
X139274036Y-121813891D01*
X139392510Y-121764817D01*
X139401192Y-121763090D01*
X139518281Y-121739800D01*
X139646519Y-121739800D01*
X139763608Y-121763090D01*
G37*
G36*
X137763608Y-121763090D02*
G01*
X137772290Y-121764817D01*
X137890764Y-121813891D01*
X137997388Y-121885135D01*
X138088065Y-121975812D01*
X138120402Y-122024207D01*
X138159310Y-122082438D01*
X138208383Y-122200910D01*
X138233400Y-122326681D01*
X138233400Y-122454919D01*
X138223553Y-122504422D01*
X138208383Y-122580690D01*
X138159309Y-122699164D01*
X138088065Y-122805788D01*
X137997388Y-122896465D01*
X137890764Y-122967709D01*
X137890763Y-122967710D01*
X137890762Y-122967710D01*
X137772290Y-123016783D01*
X137646519Y-123041800D01*
X137518281Y-123041800D01*
X137392510Y-123016783D01*
X137274038Y-122967710D01*
X137274037Y-122967710D01*
X137274036Y-122967709D01*
X137167412Y-122896465D01*
X137076735Y-122805788D01*
X137005491Y-122699164D01*
X136956417Y-122580690D01*
X136941247Y-122504422D01*
X136931400Y-122454919D01*
X136931400Y-122326681D01*
X136956417Y-122200910D01*
X137005490Y-122082438D01*
X137044399Y-122024207D01*
X137076735Y-121975812D01*
X137167412Y-121885135D01*
X137274036Y-121813891D01*
X137392510Y-121764817D01*
X137401192Y-121763090D01*
X137518281Y-121739800D01*
X137646519Y-121739800D01*
X137763608Y-121763090D01*
G37*
G36*
X181313354Y-121533385D02*
G01*
X181351047Y-121544819D01*
X181385783Y-121563386D01*
X181416228Y-121588372D01*
X181441214Y-121618817D01*
X181459781Y-121653553D01*
X181471215Y-121691246D01*
X181475680Y-121736581D01*
X181475680Y-122823259D01*
X181471215Y-122868594D01*
X181459781Y-122906287D01*
X181441214Y-122941023D01*
X181416228Y-122971468D01*
X181385783Y-122996454D01*
X181351047Y-123015021D01*
X181313354Y-123026455D01*
X181268019Y-123030920D01*
X180431341Y-123030920D01*
X180386006Y-123026455D01*
X180348313Y-123015021D01*
X180313577Y-122996454D01*
X180283132Y-122971468D01*
X180258146Y-122941023D01*
X180239579Y-122906287D01*
X180228145Y-122868594D01*
X180223680Y-122823259D01*
X180223680Y-121736581D01*
X180228145Y-121691246D01*
X180239579Y-121653553D01*
X180258146Y-121618817D01*
X180283132Y-121588372D01*
X180313577Y-121563386D01*
X180348313Y-121544819D01*
X180386006Y-121533385D01*
X180431341Y-121528920D01*
X181268019Y-121528920D01*
X181313354Y-121533385D01*
G37*
G36*
X179263354Y-121533385D02*
G01*
X179301047Y-121544819D01*
X179335783Y-121563386D01*
X179366228Y-121588372D01*
X179391214Y-121618817D01*
X179409781Y-121653553D01*
X179421215Y-121691246D01*
X179425680Y-121736581D01*
X179425680Y-122823259D01*
X179421215Y-122868594D01*
X179409781Y-122906287D01*
X179391214Y-122941023D01*
X179366228Y-122971468D01*
X179335783Y-122996454D01*
X179301047Y-123015021D01*
X179263354Y-123026455D01*
X179218019Y-123030920D01*
X178381341Y-123030920D01*
X178336006Y-123026455D01*
X178298313Y-123015021D01*
X178263577Y-122996454D01*
X178233132Y-122971468D01*
X178208146Y-122941023D01*
X178189579Y-122906287D01*
X178178145Y-122868594D01*
X178173680Y-122823259D01*
X178173680Y-121736581D01*
X178178145Y-121691246D01*
X178189579Y-121653553D01*
X178208146Y-121618817D01*
X178233132Y-121588372D01*
X178263577Y-121563386D01*
X178298313Y-121544819D01*
X178336006Y-121533385D01*
X178381341Y-121528920D01*
X179218019Y-121528920D01*
X179263354Y-121533385D01*
G37*
G36*
X145519290Y-121714017D02*
G01*
X145601320Y-121747995D01*
X145637764Y-121763091D01*
X145744388Y-121834335D01*
X145835065Y-121925012D01*
X145901346Y-122024208D01*
X145906310Y-122031638D01*
X145955383Y-122150110D01*
X145980400Y-122275881D01*
X145980400Y-122404119D01*
X145970295Y-122454919D01*
X145955383Y-122529890D01*
X145906309Y-122648364D01*
X145835065Y-122754988D01*
X145744388Y-122845665D01*
X145637764Y-122916909D01*
X145637763Y-122916910D01*
X145637762Y-122916910D01*
X145519290Y-122965983D01*
X145393519Y-122991000D01*
X145265281Y-122991000D01*
X145139510Y-122965983D01*
X145021038Y-122916910D01*
X145021037Y-122916910D01*
X145021036Y-122916909D01*
X144914412Y-122845665D01*
X144823735Y-122754988D01*
X144752491Y-122648364D01*
X144703417Y-122529890D01*
X144688505Y-122454919D01*
X144678400Y-122404119D01*
X144678400Y-122275881D01*
X144703417Y-122150110D01*
X144752490Y-122031638D01*
X144757455Y-122024208D01*
X144823735Y-121925012D01*
X144914412Y-121834335D01*
X145021036Y-121763091D01*
X145057481Y-121747995D01*
X145139510Y-121714017D01*
X145265281Y-121689000D01*
X145393519Y-121689000D01*
X145519290Y-121714017D01*
G37*
G36*
X147519290Y-121714017D02*
G01*
X147601320Y-121747995D01*
X147637764Y-121763091D01*
X147744388Y-121834335D01*
X147835065Y-121925012D01*
X147901346Y-122024208D01*
X147906310Y-122031638D01*
X147955383Y-122150110D01*
X147980400Y-122275881D01*
X147980400Y-122404119D01*
X147970295Y-122454919D01*
X147955383Y-122529890D01*
X147906309Y-122648364D01*
X147835065Y-122754988D01*
X147744388Y-122845665D01*
X147637764Y-122916909D01*
X147637763Y-122916910D01*
X147637762Y-122916910D01*
X147519290Y-122965983D01*
X147393519Y-122991000D01*
X147265281Y-122991000D01*
X147139510Y-122965983D01*
X147021038Y-122916910D01*
X147021037Y-122916910D01*
X147021036Y-122916909D01*
X146914412Y-122845665D01*
X146823735Y-122754988D01*
X146752491Y-122648364D01*
X146703417Y-122529890D01*
X146688505Y-122454919D01*
X146678400Y-122404119D01*
X146678400Y-122275881D01*
X146703417Y-122150110D01*
X146752490Y-122031638D01*
X146757455Y-122024208D01*
X146823735Y-121925012D01*
X146914412Y-121834335D01*
X147021036Y-121763091D01*
X147057481Y-121747995D01*
X147139510Y-121714017D01*
X147265281Y-121689000D01*
X147393519Y-121689000D01*
X147519290Y-121714017D01*
G37*
G36*
X162942842Y-120743381D02*
G01*
X163088614Y-120803762D01*
X163088616Y-120803763D01*
X163219808Y-120891422D01*
X163331378Y-121002992D01*
X163410318Y-121121135D01*
X163419038Y-121134186D01*
X163479419Y-121279958D01*
X163510200Y-121434707D01*
X163510200Y-121592493D01*
X163479419Y-121747242D01*
X163419038Y-121893014D01*
X163419037Y-121893016D01*
X163331378Y-122024208D01*
X163219808Y-122135778D01*
X163088616Y-122223437D01*
X163088615Y-122223438D01*
X163088614Y-122223438D01*
X162942842Y-122283819D01*
X162788093Y-122314600D01*
X162630307Y-122314600D01*
X162475558Y-122283819D01*
X162329786Y-122223438D01*
X162329785Y-122223438D01*
X162329784Y-122223437D01*
X162198592Y-122135778D01*
X162087022Y-122024208D01*
X161999363Y-121893016D01*
X161999362Y-121893014D01*
X161938981Y-121747242D01*
X161908200Y-121592493D01*
X161908200Y-121434707D01*
X161938981Y-121279958D01*
X161999362Y-121134186D01*
X162008082Y-121121135D01*
X162087022Y-121002992D01*
X162198592Y-120891422D01*
X162329784Y-120803763D01*
X162329786Y-120803762D01*
X162475558Y-120743381D01*
X162630307Y-120712600D01*
X162788093Y-120712600D01*
X162942842Y-120743381D01*
G37*
G36*
X167822842Y-120743381D02*
G01*
X167968614Y-120803762D01*
X167968616Y-120803763D01*
X168099808Y-120891422D01*
X168211378Y-121002992D01*
X168290318Y-121121135D01*
X168299038Y-121134186D01*
X168359419Y-121279958D01*
X168390200Y-121434707D01*
X168390200Y-121592493D01*
X168359419Y-121747242D01*
X168299038Y-121893014D01*
X168299037Y-121893016D01*
X168211378Y-122024208D01*
X168099808Y-122135778D01*
X167968616Y-122223437D01*
X167968615Y-122223438D01*
X167968614Y-122223438D01*
X167822842Y-122283819D01*
X167668093Y-122314600D01*
X167510307Y-122314600D01*
X167355558Y-122283819D01*
X167209786Y-122223438D01*
X167209785Y-122223438D01*
X167209784Y-122223437D01*
X167078592Y-122135778D01*
X166967022Y-122024208D01*
X166879363Y-121893016D01*
X166879362Y-121893014D01*
X166818981Y-121747242D01*
X166788200Y-121592493D01*
X166788200Y-121434707D01*
X166818981Y-121279958D01*
X166879362Y-121134186D01*
X166888082Y-121121135D01*
X166967022Y-121002992D01*
X167078592Y-120891422D01*
X167209784Y-120803763D01*
X167209786Y-120803762D01*
X167355558Y-120743381D01*
X167510307Y-120712600D01*
X167668093Y-120712600D01*
X167822842Y-120743381D01*
G37*
G36*
X113541443Y-119862719D02*
G01*
X113607627Y-119869237D01*
X113777466Y-119920757D01*
X113777468Y-119920758D01*
X113800466Y-119933051D01*
X113933991Y-120004422D01*
X113967140Y-120031627D01*
X114071186Y-120117014D01*
X114154448Y-120218471D01*
X114183778Y-120254209D01*
X114267443Y-120410734D01*
X114318963Y-120580573D01*
X114336359Y-120757200D01*
X114318963Y-120933827D01*
X114271244Y-121091135D01*
X114267442Y-121103668D01*
X114258106Y-121121135D01*
X114183778Y-121260191D01*
X114164680Y-121283462D01*
X114071186Y-121397386D01*
X113969729Y-121480648D01*
X113933991Y-121509978D01*
X113933989Y-121509979D01*
X113779618Y-121592493D01*
X113777466Y-121593643D01*
X113607627Y-121645163D01*
X113559713Y-121649882D01*
X113475260Y-121658200D01*
X113136740Y-121658200D01*
X113052287Y-121649882D01*
X113004373Y-121645163D01*
X112834534Y-121593643D01*
X112832383Y-121592493D01*
X112678011Y-121509979D01*
X112678009Y-121509978D01*
X112642271Y-121480648D01*
X112540814Y-121397386D01*
X112447320Y-121283462D01*
X112428222Y-121260191D01*
X112353894Y-121121135D01*
X112344558Y-121103668D01*
X112340756Y-121091135D01*
X112293037Y-120933827D01*
X112275641Y-120757200D01*
X112293037Y-120580573D01*
X112344557Y-120410734D01*
X112428222Y-120254209D01*
X112457552Y-120218471D01*
X112540814Y-120117014D01*
X112644860Y-120031627D01*
X112678009Y-120004422D01*
X112811534Y-119933051D01*
X112834532Y-119920758D01*
X112834534Y-119920757D01*
X113004373Y-119869237D01*
X113070557Y-119862719D01*
X113136740Y-119856200D01*
X113475260Y-119856200D01*
X113541443Y-119862719D01*
G37*
G36*
X117958678Y-119878065D02*
G01*
X117996365Y-119889498D01*
X118031103Y-119908065D01*
X118061549Y-119933051D01*
X118086535Y-119963497D01*
X118105102Y-119998235D01*
X118116535Y-120035922D01*
X118121000Y-120081260D01*
X118121000Y-120917940D01*
X118116535Y-120963278D01*
X118105102Y-121000965D01*
X118086535Y-121035703D01*
X118061549Y-121066149D01*
X118031103Y-121091135D01*
X117996365Y-121109702D01*
X117958678Y-121121135D01*
X117913340Y-121125600D01*
X116826660Y-121125600D01*
X116781322Y-121121135D01*
X116743635Y-121109702D01*
X116708897Y-121091135D01*
X116678451Y-121066149D01*
X116653465Y-121035703D01*
X116634898Y-121000965D01*
X116623465Y-120963278D01*
X116619000Y-120917940D01*
X116619000Y-120081260D01*
X116623465Y-120035922D01*
X116634898Y-119998235D01*
X116653465Y-119963497D01*
X116678451Y-119933051D01*
X116708897Y-119908065D01*
X116743635Y-119889498D01*
X116781322Y-119878065D01*
X116826660Y-119873600D01*
X117913340Y-119873600D01*
X117958678Y-119878065D01*
G37*
G36*
X137763608Y-119763090D02*
G01*
X137772290Y-119764817D01*
X137890764Y-119813891D01*
X137954084Y-119856200D01*
X137997388Y-119885135D01*
X138088065Y-119975812D01*
X138159310Y-120082438D01*
X138208383Y-120200910D01*
X138227961Y-120299335D01*
X138233400Y-120326682D01*
X138233400Y-120454918D01*
X138208383Y-120580690D01*
X138159309Y-120699164D01*
X138088065Y-120805788D01*
X137997388Y-120896465D01*
X137890764Y-120967709D01*
X137890763Y-120967710D01*
X137890762Y-120967710D01*
X137772290Y-121016783D01*
X137646519Y-121041800D01*
X137518281Y-121041800D01*
X137392510Y-121016783D01*
X137274038Y-120967710D01*
X137274037Y-120967710D01*
X137274036Y-120967709D01*
X137167412Y-120896465D01*
X137076735Y-120805788D01*
X137005491Y-120699164D01*
X136956417Y-120580690D01*
X136931400Y-120454918D01*
X136931400Y-120326682D01*
X136936840Y-120299335D01*
X136956417Y-120200910D01*
X137005490Y-120082438D01*
X137076735Y-119975812D01*
X137167412Y-119885135D01*
X137210716Y-119856200D01*
X137274036Y-119813891D01*
X137392510Y-119764817D01*
X137401192Y-119763090D01*
X137518281Y-119739800D01*
X137646519Y-119739800D01*
X137763608Y-119763090D01*
G37*
G36*
X139763608Y-119763090D02*
G01*
X139772290Y-119764817D01*
X139890764Y-119813891D01*
X139954084Y-119856200D01*
X139997388Y-119885135D01*
X140088065Y-119975812D01*
X140159310Y-120082438D01*
X140208383Y-120200910D01*
X140227961Y-120299335D01*
X140233400Y-120326682D01*
X140233400Y-120454918D01*
X140208383Y-120580690D01*
X140159309Y-120699164D01*
X140088065Y-120805788D01*
X139997388Y-120896465D01*
X139890764Y-120967709D01*
X139890763Y-120967710D01*
X139890762Y-120967710D01*
X139772290Y-121016783D01*
X139646519Y-121041800D01*
X139518281Y-121041800D01*
X139392510Y-121016783D01*
X139274038Y-120967710D01*
X139274037Y-120967710D01*
X139274036Y-120967709D01*
X139167412Y-120896465D01*
X139076735Y-120805788D01*
X139005491Y-120699164D01*
X138956417Y-120580690D01*
X138931400Y-120454918D01*
X138931400Y-120326682D01*
X138936840Y-120299335D01*
X138956417Y-120200910D01*
X139005490Y-120082438D01*
X139076735Y-119975812D01*
X139167412Y-119885135D01*
X139210716Y-119856200D01*
X139274036Y-119813891D01*
X139392510Y-119764817D01*
X139401192Y-119763090D01*
X139518281Y-119739800D01*
X139646519Y-119739800D01*
X139763608Y-119763090D01*
G37*
G36*
X145519290Y-119714017D02*
G01*
X145637764Y-119763091D01*
X145744388Y-119834335D01*
X145835065Y-119925012D01*
X145869009Y-119975812D01*
X145906310Y-120031638D01*
X145955383Y-120150110D01*
X145980400Y-120275881D01*
X145980400Y-120404119D01*
X145970295Y-120454919D01*
X145955383Y-120529890D01*
X145906309Y-120648364D01*
X145835065Y-120754988D01*
X145744388Y-120845665D01*
X145637764Y-120916909D01*
X145637763Y-120916910D01*
X145637762Y-120916910D01*
X145519290Y-120965983D01*
X145393519Y-120991000D01*
X145265281Y-120991000D01*
X145139510Y-120965983D01*
X145021038Y-120916910D01*
X145021037Y-120916910D01*
X145021036Y-120916909D01*
X144914412Y-120845665D01*
X144823735Y-120754988D01*
X144752491Y-120648364D01*
X144703417Y-120529890D01*
X144688505Y-120454919D01*
X144678400Y-120404119D01*
X144678400Y-120275881D01*
X144703417Y-120150110D01*
X144752490Y-120031638D01*
X144789792Y-119975812D01*
X144823735Y-119925012D01*
X144914412Y-119834335D01*
X145021036Y-119763091D01*
X145139510Y-119714017D01*
X145265281Y-119689000D01*
X145393519Y-119689000D01*
X145519290Y-119714017D01*
G37*
G36*
X147519290Y-119714017D02*
G01*
X147637764Y-119763091D01*
X147744388Y-119834335D01*
X147835065Y-119925012D01*
X147869009Y-119975812D01*
X147906310Y-120031638D01*
X147955383Y-120150110D01*
X147980400Y-120275881D01*
X147980400Y-120404119D01*
X147970295Y-120454919D01*
X147955383Y-120529890D01*
X147906309Y-120648364D01*
X147835065Y-120754988D01*
X147744388Y-120845665D01*
X147637764Y-120916909D01*
X147637763Y-120916910D01*
X147637762Y-120916910D01*
X147519290Y-120965983D01*
X147393519Y-120991000D01*
X147265281Y-120991000D01*
X147139510Y-120965983D01*
X147021038Y-120916910D01*
X147021037Y-120916910D01*
X147021036Y-120916909D01*
X146914412Y-120845665D01*
X146823735Y-120754988D01*
X146752491Y-120648364D01*
X146703417Y-120529890D01*
X146688505Y-120454919D01*
X146678400Y-120404119D01*
X146678400Y-120275881D01*
X146703417Y-120150110D01*
X146752490Y-120031638D01*
X146789792Y-119975812D01*
X146823735Y-119925012D01*
X146914412Y-119834335D01*
X147021036Y-119763091D01*
X147139510Y-119714017D01*
X147265281Y-119689000D01*
X147393519Y-119689000D01*
X147519290Y-119714017D01*
G37*
G36*
X178055074Y-119056265D02*
G01*
X178092767Y-119067699D01*
X178127503Y-119086266D01*
X178157948Y-119111252D01*
X178182934Y-119141697D01*
X178201501Y-119176433D01*
X178212935Y-119214126D01*
X178217400Y-119259461D01*
X178217400Y-120096139D01*
X178212935Y-120141474D01*
X178201501Y-120179167D01*
X178182934Y-120213903D01*
X178157948Y-120244348D01*
X178127503Y-120269334D01*
X178092767Y-120287901D01*
X178055074Y-120299335D01*
X178009739Y-120303800D01*
X176923061Y-120303800D01*
X176877726Y-120299335D01*
X176840033Y-120287901D01*
X176805297Y-120269334D01*
X176774852Y-120244348D01*
X176749866Y-120213903D01*
X176731299Y-120179167D01*
X176719865Y-120141474D01*
X176715400Y-120096139D01*
X176715400Y-119259461D01*
X176719865Y-119214126D01*
X176731299Y-119176433D01*
X176749866Y-119141697D01*
X176774852Y-119111252D01*
X176805297Y-119086266D01*
X176840033Y-119067699D01*
X176877726Y-119056265D01*
X176923061Y-119051800D01*
X178009739Y-119051800D01*
X178055074Y-119056265D01*
G37*
G36*
X113541442Y-117362718D02*
G01*
X113607627Y-117369237D01*
X113777466Y-117420757D01*
X113933991Y-117504422D01*
X113969729Y-117533752D01*
X114071186Y-117617014D01*
X114154448Y-117718471D01*
X114183778Y-117754209D01*
X114267443Y-117910734D01*
X114318963Y-118080573D01*
X114336359Y-118257200D01*
X114318963Y-118433827D01*
X114267443Y-118603666D01*
X114183778Y-118760191D01*
X114154448Y-118795929D01*
X114071186Y-118897386D01*
X113969729Y-118980648D01*
X113933991Y-119009978D01*
X113777466Y-119093643D01*
X113607627Y-119145163D01*
X113541443Y-119151681D01*
X113475260Y-119158200D01*
X113136740Y-119158200D01*
X113070557Y-119151681D01*
X113004373Y-119145163D01*
X112834534Y-119093643D01*
X112678009Y-119009978D01*
X112642271Y-118980648D01*
X112540814Y-118897386D01*
X112457552Y-118795929D01*
X112428222Y-118760191D01*
X112344557Y-118603666D01*
X112293037Y-118433827D01*
X112275641Y-118257200D01*
X112293037Y-118080573D01*
X112344557Y-117910734D01*
X112428222Y-117754209D01*
X112457552Y-117718471D01*
X112540814Y-117617014D01*
X112642271Y-117533752D01*
X112678009Y-117504422D01*
X112834534Y-117420757D01*
X113004373Y-117369237D01*
X113070558Y-117362718D01*
X113136740Y-117356200D01*
X113475260Y-117356200D01*
X113541442Y-117362718D01*
G37*
G36*
X117958678Y-117828065D02*
G01*
X117996365Y-117839498D01*
X118031103Y-117858065D01*
X118061549Y-117883051D01*
X118086535Y-117913497D01*
X118105102Y-117948235D01*
X118116535Y-117985922D01*
X118121000Y-118031260D01*
X118121000Y-118867940D01*
X118116535Y-118913278D01*
X118105102Y-118950965D01*
X118086535Y-118985703D01*
X118061549Y-119016149D01*
X118031103Y-119041135D01*
X117996365Y-119059702D01*
X117958678Y-119071135D01*
X117913340Y-119075600D01*
X116826660Y-119075600D01*
X116781322Y-119071135D01*
X116743635Y-119059702D01*
X116708897Y-119041135D01*
X116678451Y-119016149D01*
X116653465Y-118985703D01*
X116634898Y-118950965D01*
X116623465Y-118913278D01*
X116619000Y-118867940D01*
X116619000Y-118031260D01*
X116623465Y-117985922D01*
X116634898Y-117948235D01*
X116653465Y-117913497D01*
X116678451Y-117883051D01*
X116708897Y-117858065D01*
X116743635Y-117839498D01*
X116781322Y-117828065D01*
X116826660Y-117823600D01*
X117913340Y-117823600D01*
X117958678Y-117828065D01*
G37*
G36*
X178055074Y-117006265D02*
G01*
X178092767Y-117017699D01*
X178127503Y-117036266D01*
X178157948Y-117061252D01*
X178182934Y-117091697D01*
X178201501Y-117126433D01*
X178212935Y-117164126D01*
X178217400Y-117209461D01*
X178217400Y-118046139D01*
X178212935Y-118091474D01*
X178201501Y-118129167D01*
X178182934Y-118163903D01*
X178157948Y-118194348D01*
X178127503Y-118219334D01*
X178092767Y-118237901D01*
X178055074Y-118249335D01*
X178009739Y-118253800D01*
X176923061Y-118253800D01*
X176877726Y-118249335D01*
X176840033Y-118237901D01*
X176805297Y-118219334D01*
X176774852Y-118194348D01*
X176749866Y-118163903D01*
X176731299Y-118129167D01*
X176719865Y-118091474D01*
X176715400Y-118046139D01*
X176715400Y-117209461D01*
X176719865Y-117164126D01*
X176731299Y-117126433D01*
X176749866Y-117091697D01*
X176774852Y-117061252D01*
X176805297Y-117036266D01*
X176840033Y-117017699D01*
X176877726Y-117006265D01*
X176923061Y-117001800D01*
X178009739Y-117001800D01*
X178055074Y-117006265D01*
G37*
G36*
X172679674Y-116687065D02*
G01*
X172717367Y-116698499D01*
X172752103Y-116717066D01*
X172782548Y-116742052D01*
X172807534Y-116772497D01*
X172826101Y-116807233D01*
X172837535Y-116844926D01*
X172842000Y-116890261D01*
X172842000Y-117976939D01*
X172837535Y-118022274D01*
X172826101Y-118059967D01*
X172807534Y-118094703D01*
X172782548Y-118125148D01*
X172752103Y-118150134D01*
X172717367Y-118168701D01*
X172679674Y-118180135D01*
X172634339Y-118184600D01*
X171797661Y-118184600D01*
X171752326Y-118180135D01*
X171714633Y-118168701D01*
X171679897Y-118150134D01*
X171649452Y-118125148D01*
X171624466Y-118094703D01*
X171605899Y-118059967D01*
X171594465Y-118022274D01*
X171590000Y-117976939D01*
X171590000Y-116890261D01*
X171594465Y-116844926D01*
X171605899Y-116807233D01*
X171624466Y-116772497D01*
X171649452Y-116742052D01*
X171679897Y-116717066D01*
X171714633Y-116698499D01*
X171752326Y-116687065D01*
X171797661Y-116682600D01*
X172634339Y-116682600D01*
X172679674Y-116687065D01*
G37*
G36*
X174729674Y-116687065D02*
G01*
X174767367Y-116698499D01*
X174802103Y-116717066D01*
X174832548Y-116742052D01*
X174857534Y-116772497D01*
X174876101Y-116807233D01*
X174887535Y-116844926D01*
X174892000Y-116890261D01*
X174892000Y-117976939D01*
X174887535Y-118022274D01*
X174876101Y-118059967D01*
X174857534Y-118094703D01*
X174832548Y-118125148D01*
X174802103Y-118150134D01*
X174767367Y-118168701D01*
X174729674Y-118180135D01*
X174684339Y-118184600D01*
X173847661Y-118184600D01*
X173802326Y-118180135D01*
X173764633Y-118168701D01*
X173729897Y-118150134D01*
X173699452Y-118125148D01*
X173674466Y-118094703D01*
X173655899Y-118059967D01*
X173644465Y-118022274D01*
X173640000Y-117976939D01*
X173640000Y-116890261D01*
X173644465Y-116844926D01*
X173655899Y-116807233D01*
X173674466Y-116772497D01*
X173699452Y-116742052D01*
X173729897Y-116717066D01*
X173764633Y-116698499D01*
X173802326Y-116687065D01*
X173847661Y-116682600D01*
X174684339Y-116682600D01*
X174729674Y-116687065D01*
G37*
G36*
X138783240Y-115757200D02*
G01*
X138918134Y-115784032D01*
X139127603Y-115870797D01*
X139316120Y-115996760D01*
X139476440Y-116157080D01*
X139602403Y-116345597D01*
X139688950Y-116554539D01*
X139689168Y-116555067D01*
X139730370Y-116762200D01*
X139733400Y-116777436D01*
X139733400Y-117004164D01*
X139689168Y-117226534D01*
X139602403Y-117436003D01*
X139476440Y-117624520D01*
X139316120Y-117784840D01*
X139127603Y-117910803D01*
X139127602Y-117910804D01*
X139127601Y-117910804D01*
X139121099Y-117913497D01*
X138918134Y-117997568D01*
X138822539Y-118016583D01*
X138695765Y-118041800D01*
X138469035Y-118041800D01*
X138342261Y-118016583D01*
X138246666Y-117997568D01*
X138043701Y-117913497D01*
X138037199Y-117910804D01*
X138037198Y-117910804D01*
X138037197Y-117910803D01*
X137848680Y-117784840D01*
X137688360Y-117624520D01*
X137562397Y-117436003D01*
X137475632Y-117226534D01*
X137431400Y-117004164D01*
X137431400Y-116777436D01*
X137434431Y-116762200D01*
X137475632Y-116555067D01*
X137475851Y-116554539D01*
X137562397Y-116345597D01*
X137688360Y-116157080D01*
X137848680Y-115996760D01*
X138037197Y-115870797D01*
X138246666Y-115784032D01*
X138381560Y-115757200D01*
X138469035Y-115739800D01*
X138695765Y-115739800D01*
X138783240Y-115757200D01*
G37*
G36*
X146553949Y-115711116D02*
G01*
X146665134Y-115733232D01*
X146874603Y-115819997D01*
X147063120Y-115945960D01*
X147223440Y-116106280D01*
X147349403Y-116294797D01*
X147436168Y-116504266D01*
X147446168Y-116554539D01*
X147480400Y-116726635D01*
X147480400Y-116953365D01*
X147463910Y-117036266D01*
X147436168Y-117175734D01*
X147417470Y-117220875D01*
X147361417Y-117356200D01*
X147349403Y-117385203D01*
X147223440Y-117573720D01*
X147063120Y-117734040D01*
X146874603Y-117860003D01*
X146665134Y-117946768D01*
X146570836Y-117965525D01*
X146442765Y-117991000D01*
X146216035Y-117991000D01*
X146087964Y-117965525D01*
X145993666Y-117946768D01*
X145784197Y-117860003D01*
X145595680Y-117734040D01*
X145435360Y-117573720D01*
X145309397Y-117385203D01*
X145297384Y-117356200D01*
X145241330Y-117220875D01*
X145222632Y-117175734D01*
X145194890Y-117036266D01*
X145178400Y-116953365D01*
X145178400Y-116726635D01*
X145212632Y-116554539D01*
X145222632Y-116504266D01*
X145309397Y-116294797D01*
X145435360Y-116106280D01*
X145595680Y-115945960D01*
X145784197Y-115819997D01*
X145993666Y-115733232D01*
X146104851Y-115711116D01*
X146216035Y-115689000D01*
X146442765Y-115689000D01*
X146553949Y-115711116D01*
G37*
G36*
X158168874Y-115264665D02*
G01*
X158206567Y-115276099D01*
X158241303Y-115294666D01*
X158271748Y-115319652D01*
X158296734Y-115350097D01*
X158315301Y-115384833D01*
X158326735Y-115422526D01*
X158331200Y-115467861D01*
X158331200Y-116554539D01*
X158326735Y-116599874D01*
X158315301Y-116637567D01*
X158296734Y-116672303D01*
X158271748Y-116702748D01*
X158241303Y-116727734D01*
X158206567Y-116746301D01*
X158168874Y-116757735D01*
X158123539Y-116762200D01*
X157286861Y-116762200D01*
X157241526Y-116757735D01*
X157203833Y-116746301D01*
X157169097Y-116727734D01*
X157138652Y-116702748D01*
X157113666Y-116672303D01*
X157095099Y-116637567D01*
X157083665Y-116599874D01*
X157079200Y-116554539D01*
X157079200Y-115467861D01*
X157083665Y-115422526D01*
X157095099Y-115384833D01*
X157113666Y-115350097D01*
X157138652Y-115319652D01*
X157169097Y-115294666D01*
X157203833Y-115276099D01*
X157241526Y-115264665D01*
X157286861Y-115260200D01*
X158123539Y-115260200D01*
X158168874Y-115264665D01*
G37*
G36*
X156118874Y-115264665D02*
G01*
X156156567Y-115276099D01*
X156191303Y-115294666D01*
X156221748Y-115319652D01*
X156246734Y-115350097D01*
X156265301Y-115384833D01*
X156276735Y-115422526D01*
X156281200Y-115467861D01*
X156281200Y-116554539D01*
X156276735Y-116599874D01*
X156265301Y-116637567D01*
X156246734Y-116672303D01*
X156221748Y-116702748D01*
X156191303Y-116727734D01*
X156156567Y-116746301D01*
X156118874Y-116757735D01*
X156073539Y-116762200D01*
X155236861Y-116762200D01*
X155191526Y-116757735D01*
X155153833Y-116746301D01*
X155119097Y-116727734D01*
X155088652Y-116702748D01*
X155063666Y-116672303D01*
X155045099Y-116637567D01*
X155033665Y-116599874D01*
X155029200Y-116554539D01*
X155029200Y-115467861D01*
X155033665Y-115422526D01*
X155045099Y-115384833D01*
X155063666Y-115350097D01*
X155088652Y-115319652D01*
X155119097Y-115294666D01*
X155153833Y-115276099D01*
X155191526Y-115264665D01*
X155236861Y-115260200D01*
X156073539Y-115260200D01*
X156118874Y-115264665D01*
G37*
G36*
X113541442Y-114862718D02*
G01*
X113607627Y-114869237D01*
X113777466Y-114920757D01*
X113933991Y-115004422D01*
X113969729Y-115033752D01*
X114071186Y-115117014D01*
X114154448Y-115218471D01*
X114183778Y-115254209D01*
X114267443Y-115410734D01*
X114318963Y-115580573D01*
X114336359Y-115757200D01*
X114318963Y-115933827D01*
X114267443Y-116103666D01*
X114183778Y-116260191D01*
X114155377Y-116294797D01*
X114071186Y-116397386D01*
X113969729Y-116480648D01*
X113933991Y-116509978D01*
X113777466Y-116593643D01*
X113607627Y-116645163D01*
X113541443Y-116651681D01*
X113475260Y-116658200D01*
X113136740Y-116658200D01*
X113070557Y-116651681D01*
X113004373Y-116645163D01*
X112834534Y-116593643D01*
X112678009Y-116509978D01*
X112642271Y-116480648D01*
X112540814Y-116397386D01*
X112456623Y-116294797D01*
X112428222Y-116260191D01*
X112344557Y-116103666D01*
X112293037Y-115933827D01*
X112275641Y-115757200D01*
X112293037Y-115580573D01*
X112344557Y-115410734D01*
X112428222Y-115254209D01*
X112457552Y-115218471D01*
X112540814Y-115117014D01*
X112642271Y-115033752D01*
X112678009Y-115004422D01*
X112834534Y-114920757D01*
X113004373Y-114869237D01*
X113070558Y-114862718D01*
X113136740Y-114856200D01*
X113475260Y-114856200D01*
X113541442Y-114862718D01*
G37*
G36*
X179684766Y-113267899D02*
G01*
X179816888Y-113322626D01*
X179816890Y-113322627D01*
X179935798Y-113402079D01*
X180036921Y-113503202D01*
X180036922Y-113503204D01*
X180116374Y-113622112D01*
X180171101Y-113754234D01*
X180199000Y-113894494D01*
X180199000Y-114037506D01*
X180171101Y-114177766D01*
X180116374Y-114309888D01*
X180116373Y-114309890D01*
X180036921Y-114428798D01*
X179935798Y-114529921D01*
X179816890Y-114609373D01*
X179816889Y-114609374D01*
X179816888Y-114609374D01*
X179684766Y-114664101D01*
X179544506Y-114692000D01*
X179401494Y-114692000D01*
X179261234Y-114664101D01*
X179129112Y-114609374D01*
X179129111Y-114609374D01*
X179129110Y-114609373D01*
X179010202Y-114529921D01*
X178909079Y-114428798D01*
X178829627Y-114309890D01*
X178829626Y-114309888D01*
X178774899Y-114177766D01*
X178747000Y-114037506D01*
X178747000Y-113894494D01*
X178774899Y-113754234D01*
X178829626Y-113622112D01*
X178909078Y-113503204D01*
X178909079Y-113503202D01*
X179010202Y-113402079D01*
X179129110Y-113322627D01*
X179129112Y-113322626D01*
X179261234Y-113267899D01*
X179401494Y-113240000D01*
X179544506Y-113240000D01*
X179684766Y-113267899D01*
G37*
G36*
X181684766Y-113267899D02*
G01*
X181816888Y-113322626D01*
X181816890Y-113322627D01*
X181935798Y-113402079D01*
X182036921Y-113503202D01*
X182036922Y-113503204D01*
X182116374Y-113622112D01*
X182171101Y-113754234D01*
X182199000Y-113894494D01*
X182199000Y-114037506D01*
X182171101Y-114177766D01*
X182116374Y-114309888D01*
X182116373Y-114309890D01*
X182036921Y-114428798D01*
X181935798Y-114529921D01*
X181816890Y-114609373D01*
X181816889Y-114609374D01*
X181816888Y-114609374D01*
X181684766Y-114664101D01*
X181544506Y-114692000D01*
X181401494Y-114692000D01*
X181261234Y-114664101D01*
X181129112Y-114609374D01*
X181129111Y-114609374D01*
X181129110Y-114609373D01*
X181010202Y-114529921D01*
X180909079Y-114428798D01*
X180829627Y-114309890D01*
X180829626Y-114309888D01*
X180774899Y-114177766D01*
X180747000Y-114037506D01*
X180747000Y-113894494D01*
X180774899Y-113754234D01*
X180829626Y-113622112D01*
X180909078Y-113503204D01*
X180909079Y-113503202D01*
X181010202Y-113402079D01*
X181129110Y-113322627D01*
X181129112Y-113322626D01*
X181261234Y-113267899D01*
X181401494Y-113240000D01*
X181544506Y-113240000D01*
X181684766Y-113267899D01*
G37*
G36*
X169156368Y-111800324D02*
G01*
X169177449Y-111806720D01*
X169196885Y-111817108D01*
X169213916Y-111831084D01*
X169227892Y-111848115D01*
X169238280Y-111867551D01*
X169244676Y-111888632D01*
X169247440Y-111916700D01*
X169247440Y-113830420D01*
X169244676Y-113858488D01*
X169238280Y-113879569D01*
X169227892Y-113899005D01*
X169213916Y-113916036D01*
X169196885Y-113930012D01*
X169177449Y-113940400D01*
X169156368Y-113946796D01*
X169128300Y-113949560D01*
X168664580Y-113949560D01*
X168636512Y-113946796D01*
X168615431Y-113940400D01*
X168595995Y-113930012D01*
X168578964Y-113916036D01*
X168564988Y-113899005D01*
X168554600Y-113879569D01*
X168548204Y-113858488D01*
X168545440Y-113830420D01*
X168545440Y-111916700D01*
X168548204Y-111888632D01*
X168554600Y-111867551D01*
X168564988Y-111848115D01*
X168578964Y-111831084D01*
X168595995Y-111817108D01*
X168615431Y-111806720D01*
X168636512Y-111800324D01*
X168664580Y-111797560D01*
X169128300Y-111797560D01*
X169156368Y-111800324D01*
G37*
G36*
X160266368Y-111800324D02*
G01*
X160287449Y-111806720D01*
X160306885Y-111817108D01*
X160323916Y-111831084D01*
X160337892Y-111848115D01*
X160348280Y-111867551D01*
X160354676Y-111888632D01*
X160357440Y-111916700D01*
X160357440Y-113830420D01*
X160354676Y-113858488D01*
X160348280Y-113879569D01*
X160337892Y-113899005D01*
X160323916Y-113916036D01*
X160306885Y-113930012D01*
X160287449Y-113940400D01*
X160266368Y-113946796D01*
X160238300Y-113949560D01*
X159774580Y-113949560D01*
X159746512Y-113946796D01*
X159725431Y-113940400D01*
X159705995Y-113930012D01*
X159688964Y-113916036D01*
X159674988Y-113899005D01*
X159664600Y-113879569D01*
X159658204Y-113858488D01*
X159655440Y-113830420D01*
X159655440Y-111916700D01*
X159658204Y-111888632D01*
X159664600Y-111867551D01*
X159674988Y-111848115D01*
X159688964Y-111831084D01*
X159705995Y-111817108D01*
X159725431Y-111806720D01*
X159746512Y-111800324D01*
X159774580Y-111797560D01*
X160238300Y-111797560D01*
X160266368Y-111800324D01*
G37*
G36*
X170426368Y-111800324D02*
G01*
X170447449Y-111806720D01*
X170466885Y-111817108D01*
X170483916Y-111831084D01*
X170497892Y-111848115D01*
X170508280Y-111867551D01*
X170514676Y-111888632D01*
X170517440Y-111916700D01*
X170517440Y-113830420D01*
X170514676Y-113858488D01*
X170508280Y-113879569D01*
X170497892Y-113899005D01*
X170483916Y-113916036D01*
X170466885Y-113930012D01*
X170447449Y-113940400D01*
X170426368Y-113946796D01*
X170398300Y-113949560D01*
X169934580Y-113949560D01*
X169906512Y-113946796D01*
X169885431Y-113940400D01*
X169865995Y-113930012D01*
X169848964Y-113916036D01*
X169834988Y-113899005D01*
X169824600Y-113879569D01*
X169818204Y-113858488D01*
X169815440Y-113830420D01*
X169815440Y-111916700D01*
X169818204Y-111888632D01*
X169824600Y-111867551D01*
X169834988Y-111848115D01*
X169848964Y-111831084D01*
X169865995Y-111817108D01*
X169885431Y-111806720D01*
X169906512Y-111800324D01*
X169934580Y-111797560D01*
X170398300Y-111797560D01*
X170426368Y-111800324D01*
G37*
G36*
X171696368Y-111800324D02*
G01*
X171717449Y-111806720D01*
X171736885Y-111817108D01*
X171753916Y-111831084D01*
X171767892Y-111848115D01*
X171778280Y-111867551D01*
X171784676Y-111888632D01*
X171787440Y-111916700D01*
X171787440Y-113830420D01*
X171784676Y-113858488D01*
X171778280Y-113879569D01*
X171767892Y-113899005D01*
X171753916Y-113916036D01*
X171736885Y-113930012D01*
X171717449Y-113940400D01*
X171696368Y-113946796D01*
X171668300Y-113949560D01*
X171204580Y-113949560D01*
X171176512Y-113946796D01*
X171155431Y-113940400D01*
X171135995Y-113930012D01*
X171118964Y-113916036D01*
X171104988Y-113899005D01*
X171094600Y-113879569D01*
X171088204Y-113858488D01*
X171085440Y-113830420D01*
X171085440Y-111916700D01*
X171088204Y-111888632D01*
X171094600Y-111867551D01*
X171104988Y-111848115D01*
X171118964Y-111831084D01*
X171135995Y-111817108D01*
X171155431Y-111806720D01*
X171176512Y-111800324D01*
X171204580Y-111797560D01*
X171668300Y-111797560D01*
X171696368Y-111800324D01*
G37*
G36*
X166616368Y-111800324D02*
G01*
X166637449Y-111806720D01*
X166656885Y-111817108D01*
X166673916Y-111831084D01*
X166687892Y-111848115D01*
X166698280Y-111867551D01*
X166704676Y-111888632D01*
X166707440Y-111916700D01*
X166707440Y-113830420D01*
X166704676Y-113858488D01*
X166698280Y-113879569D01*
X166687892Y-113899005D01*
X166673916Y-113916036D01*
X166656885Y-113930012D01*
X166637449Y-113940400D01*
X166616368Y-113946796D01*
X166588300Y-113949560D01*
X166124580Y-113949560D01*
X166096512Y-113946796D01*
X166075431Y-113940400D01*
X166055995Y-113930012D01*
X166038964Y-113916036D01*
X166024988Y-113899005D01*
X166014600Y-113879569D01*
X166008204Y-113858488D01*
X166005440Y-113830420D01*
X166005440Y-111916700D01*
X166008204Y-111888632D01*
X166014600Y-111867551D01*
X166024988Y-111848115D01*
X166038964Y-111831084D01*
X166055995Y-111817108D01*
X166075431Y-111806720D01*
X166096512Y-111800324D01*
X166124580Y-111797560D01*
X166588300Y-111797560D01*
X166616368Y-111800324D01*
G37*
G36*
X157726368Y-111800324D02*
G01*
X157747449Y-111806720D01*
X157766885Y-111817108D01*
X157783916Y-111831084D01*
X157797892Y-111848115D01*
X157808280Y-111867551D01*
X157814676Y-111888632D01*
X157817440Y-111916700D01*
X157817440Y-113830420D01*
X157814676Y-113858488D01*
X157808280Y-113879569D01*
X157797892Y-113899005D01*
X157783916Y-113916036D01*
X157766885Y-113930012D01*
X157747449Y-113940400D01*
X157726368Y-113946796D01*
X157698300Y-113949560D01*
X157234580Y-113949560D01*
X157206512Y-113946796D01*
X157185431Y-113940400D01*
X157165995Y-113930012D01*
X157148964Y-113916036D01*
X157134988Y-113899005D01*
X157124600Y-113879569D01*
X157118204Y-113858488D01*
X157115440Y-113830420D01*
X157115440Y-111916700D01*
X157118204Y-111888632D01*
X157124600Y-111867551D01*
X157134988Y-111848115D01*
X157148964Y-111831084D01*
X157165995Y-111817108D01*
X157185431Y-111806720D01*
X157206512Y-111800324D01*
X157234580Y-111797560D01*
X157698300Y-111797560D01*
X157726368Y-111800324D01*
G37*
G36*
X158996368Y-111800324D02*
G01*
X159017449Y-111806720D01*
X159036885Y-111817108D01*
X159053916Y-111831084D01*
X159067892Y-111848115D01*
X159078280Y-111867551D01*
X159084676Y-111888632D01*
X159087440Y-111916700D01*
X159087440Y-113830420D01*
X159084676Y-113858488D01*
X159078280Y-113879569D01*
X159067892Y-113899005D01*
X159053916Y-113916036D01*
X159036885Y-113930012D01*
X159017449Y-113940400D01*
X158996368Y-113946796D01*
X158968300Y-113949560D01*
X158504580Y-113949560D01*
X158476512Y-113946796D01*
X158455431Y-113940400D01*
X158435995Y-113930012D01*
X158418964Y-113916036D01*
X158404988Y-113899005D01*
X158394600Y-113879569D01*
X158388204Y-113858488D01*
X158385440Y-113830420D01*
X158385440Y-111916700D01*
X158388204Y-111888632D01*
X158394600Y-111867551D01*
X158404988Y-111848115D01*
X158418964Y-111831084D01*
X158435995Y-111817108D01*
X158455431Y-111806720D01*
X158476512Y-111800324D01*
X158504580Y-111797560D01*
X158968300Y-111797560D01*
X158996368Y-111800324D01*
G37*
G36*
X174236368Y-111800324D02*
G01*
X174257449Y-111806720D01*
X174276885Y-111817108D01*
X174293916Y-111831084D01*
X174307892Y-111848115D01*
X174318280Y-111867551D01*
X174324676Y-111888632D01*
X174327440Y-111916700D01*
X174327440Y-113830420D01*
X174324676Y-113858488D01*
X174318280Y-113879569D01*
X174307892Y-113899005D01*
X174293916Y-113916036D01*
X174276885Y-113930012D01*
X174257449Y-113940400D01*
X174236368Y-113946796D01*
X174208300Y-113949560D01*
X173744580Y-113949560D01*
X173716512Y-113946796D01*
X173695431Y-113940400D01*
X173675995Y-113930012D01*
X173658964Y-113916036D01*
X173644988Y-113899005D01*
X173634600Y-113879569D01*
X173628204Y-113858488D01*
X173625440Y-113830420D01*
X173625440Y-111916700D01*
X173628204Y-111888632D01*
X173634600Y-111867551D01*
X173644988Y-111848115D01*
X173658964Y-111831084D01*
X173675995Y-111817108D01*
X173695431Y-111806720D01*
X173716512Y-111800324D01*
X173744580Y-111797560D01*
X174208300Y-111797560D01*
X174236368Y-111800324D01*
G37*
G36*
X172966368Y-111800324D02*
G01*
X172987449Y-111806720D01*
X173006885Y-111817108D01*
X173023916Y-111831084D01*
X173037892Y-111848115D01*
X173048280Y-111867551D01*
X173054676Y-111888632D01*
X173057440Y-111916700D01*
X173057440Y-113830420D01*
X173054676Y-113858488D01*
X173048280Y-113879569D01*
X173037892Y-113899005D01*
X173023916Y-113916036D01*
X173006885Y-113930012D01*
X172987449Y-113940400D01*
X172966368Y-113946796D01*
X172938300Y-113949560D01*
X172474580Y-113949560D01*
X172446512Y-113946796D01*
X172425431Y-113940400D01*
X172405995Y-113930012D01*
X172388964Y-113916036D01*
X172374988Y-113899005D01*
X172364600Y-113879569D01*
X172358204Y-113858488D01*
X172355440Y-113830420D01*
X172355440Y-111916700D01*
X172358204Y-111888632D01*
X172364600Y-111867551D01*
X172374988Y-111848115D01*
X172388964Y-111831084D01*
X172405995Y-111817108D01*
X172425431Y-111806720D01*
X172446512Y-111800324D01*
X172474580Y-111797560D01*
X172938300Y-111797560D01*
X172966368Y-111800324D01*
G37*
G36*
X164076368Y-111800324D02*
G01*
X164097449Y-111806720D01*
X164116885Y-111817108D01*
X164133916Y-111831084D01*
X164147892Y-111848115D01*
X164158280Y-111867551D01*
X164164676Y-111888632D01*
X164167440Y-111916700D01*
X164167440Y-113830420D01*
X164164676Y-113858488D01*
X164158280Y-113879569D01*
X164147892Y-113899005D01*
X164133916Y-113916036D01*
X164116885Y-113930012D01*
X164097449Y-113940400D01*
X164076368Y-113946796D01*
X164048300Y-113949560D01*
X163584580Y-113949560D01*
X163556512Y-113946796D01*
X163535431Y-113940400D01*
X163515995Y-113930012D01*
X163498964Y-113916036D01*
X163484988Y-113899005D01*
X163474600Y-113879569D01*
X163468204Y-113858488D01*
X163465440Y-113830420D01*
X163465440Y-111916700D01*
X163468204Y-111888632D01*
X163474600Y-111867551D01*
X163484988Y-111848115D01*
X163498964Y-111831084D01*
X163515995Y-111817108D01*
X163535431Y-111806720D01*
X163556512Y-111800324D01*
X163584580Y-111797560D01*
X164048300Y-111797560D01*
X164076368Y-111800324D01*
G37*
G36*
X162806368Y-111800324D02*
G01*
X162827449Y-111806720D01*
X162846885Y-111817108D01*
X162863916Y-111831084D01*
X162877892Y-111848115D01*
X162888280Y-111867551D01*
X162894676Y-111888632D01*
X162897440Y-111916700D01*
X162897440Y-113830420D01*
X162894676Y-113858488D01*
X162888280Y-113879569D01*
X162877892Y-113899005D01*
X162863916Y-113916036D01*
X162846885Y-113930012D01*
X162827449Y-113940400D01*
X162806368Y-113946796D01*
X162778300Y-113949560D01*
X162314580Y-113949560D01*
X162286512Y-113946796D01*
X162265431Y-113940400D01*
X162245995Y-113930012D01*
X162228964Y-113916036D01*
X162214988Y-113899005D01*
X162204600Y-113879569D01*
X162198204Y-113858488D01*
X162195440Y-113830420D01*
X162195440Y-111916700D01*
X162198204Y-111888632D01*
X162204600Y-111867551D01*
X162214988Y-111848115D01*
X162228964Y-111831084D01*
X162245995Y-111817108D01*
X162265431Y-111806720D01*
X162286512Y-111800324D01*
X162314580Y-111797560D01*
X162778300Y-111797560D01*
X162806368Y-111800324D01*
G37*
G36*
X161536368Y-111800324D02*
G01*
X161557449Y-111806720D01*
X161576885Y-111817108D01*
X161593916Y-111831084D01*
X161607892Y-111848115D01*
X161618280Y-111867551D01*
X161624676Y-111888632D01*
X161627440Y-111916700D01*
X161627440Y-113830420D01*
X161624676Y-113858488D01*
X161618280Y-113879569D01*
X161607892Y-113899005D01*
X161593916Y-113916036D01*
X161576885Y-113930012D01*
X161557449Y-113940400D01*
X161536368Y-113946796D01*
X161508300Y-113949560D01*
X161044580Y-113949560D01*
X161016512Y-113946796D01*
X160995431Y-113940400D01*
X160975995Y-113930012D01*
X160958964Y-113916036D01*
X160944988Y-113899005D01*
X160934600Y-113879569D01*
X160928204Y-113858488D01*
X160925440Y-113830420D01*
X160925440Y-111916700D01*
X160928204Y-111888632D01*
X160934600Y-111867551D01*
X160944988Y-111848115D01*
X160958964Y-111831084D01*
X160975995Y-111817108D01*
X160995431Y-111806720D01*
X161016512Y-111800324D01*
X161044580Y-111797560D01*
X161508300Y-111797560D01*
X161536368Y-111800324D01*
G37*
G36*
X167886368Y-111800324D02*
G01*
X167907449Y-111806720D01*
X167926885Y-111817108D01*
X167943916Y-111831084D01*
X167957892Y-111848115D01*
X167968280Y-111867551D01*
X167974676Y-111888632D01*
X167977440Y-111916700D01*
X167977440Y-113830420D01*
X167974676Y-113858488D01*
X167968280Y-113879569D01*
X167957892Y-113899005D01*
X167943916Y-113916036D01*
X167926885Y-113930012D01*
X167907449Y-113940400D01*
X167886368Y-113946796D01*
X167858300Y-113949560D01*
X167394580Y-113949560D01*
X167366512Y-113946796D01*
X167345431Y-113940400D01*
X167325995Y-113930012D01*
X167308964Y-113916036D01*
X167294988Y-113899005D01*
X167284600Y-113879569D01*
X167278204Y-113858488D01*
X167275440Y-113830420D01*
X167275440Y-111916700D01*
X167278204Y-111888632D01*
X167284600Y-111867551D01*
X167294988Y-111848115D01*
X167308964Y-111831084D01*
X167325995Y-111817108D01*
X167345431Y-111806720D01*
X167366512Y-111800324D01*
X167394580Y-111797560D01*
X167858300Y-111797560D01*
X167886368Y-111800324D01*
G37*
G36*
X165346368Y-111800324D02*
G01*
X165367449Y-111806720D01*
X165386885Y-111817108D01*
X165403916Y-111831084D01*
X165417892Y-111848115D01*
X165428280Y-111867551D01*
X165434676Y-111888632D01*
X165437440Y-111916700D01*
X165437440Y-113830420D01*
X165434676Y-113858488D01*
X165428280Y-113879569D01*
X165417892Y-113899005D01*
X165403916Y-113916036D01*
X165386885Y-113930012D01*
X165367449Y-113940400D01*
X165346368Y-113946796D01*
X165318300Y-113949560D01*
X164854580Y-113949560D01*
X164826512Y-113946796D01*
X164805431Y-113940400D01*
X164785995Y-113930012D01*
X164768964Y-113916036D01*
X164754988Y-113899005D01*
X164744600Y-113879569D01*
X164738204Y-113858488D01*
X164735440Y-113830420D01*
X164735440Y-111916700D01*
X164738204Y-111888632D01*
X164744600Y-111867551D01*
X164754988Y-111848115D01*
X164768964Y-111831084D01*
X164785995Y-111817108D01*
X164805431Y-111806720D01*
X164826512Y-111800324D01*
X164854580Y-111797560D01*
X165318300Y-111797560D01*
X165346368Y-111800324D01*
G37*
G36*
X181684766Y-111267899D02*
G01*
X181795715Y-111313856D01*
X181816890Y-111322627D01*
X181935798Y-111402079D01*
X182036921Y-111503202D01*
X182036922Y-111503204D01*
X182116374Y-111622112D01*
X182171101Y-111754234D01*
X182199000Y-111894494D01*
X182199000Y-112037506D01*
X182171101Y-112177766D01*
X182116374Y-112309888D01*
X182116373Y-112309890D01*
X182036921Y-112428798D01*
X181935798Y-112529921D01*
X181816890Y-112609373D01*
X181816889Y-112609374D01*
X181816888Y-112609374D01*
X181684766Y-112664101D01*
X181544506Y-112692000D01*
X181401494Y-112692000D01*
X181261234Y-112664101D01*
X181129112Y-112609374D01*
X181129111Y-112609374D01*
X181129110Y-112609373D01*
X181010202Y-112529921D01*
X180909079Y-112428798D01*
X180829627Y-112309890D01*
X180829626Y-112309888D01*
X180774899Y-112177766D01*
X180747000Y-112037506D01*
X180747000Y-111894494D01*
X180774899Y-111754234D01*
X180829626Y-111622112D01*
X180909078Y-111503204D01*
X180909079Y-111503202D01*
X181010202Y-111402079D01*
X181129110Y-111322627D01*
X181150285Y-111313856D01*
X181261234Y-111267899D01*
X181401494Y-111240000D01*
X181544506Y-111240000D01*
X181684766Y-111267899D01*
G37*
G36*
X179684766Y-111267899D02*
G01*
X179795715Y-111313856D01*
X179816890Y-111322627D01*
X179935798Y-111402079D01*
X180036921Y-111503202D01*
X180036922Y-111503204D01*
X180116374Y-111622112D01*
X180171101Y-111754234D01*
X180199000Y-111894494D01*
X180199000Y-112037506D01*
X180171101Y-112177766D01*
X180116374Y-112309888D01*
X180116373Y-112309890D01*
X180036921Y-112428798D01*
X179935798Y-112529921D01*
X179816890Y-112609373D01*
X179816889Y-112609374D01*
X179816888Y-112609374D01*
X179684766Y-112664101D01*
X179544506Y-112692000D01*
X179401494Y-112692000D01*
X179261234Y-112664101D01*
X179129112Y-112609374D01*
X179129111Y-112609374D01*
X179129110Y-112609373D01*
X179010202Y-112529921D01*
X178909079Y-112428798D01*
X178829627Y-112309890D01*
X178829626Y-112309888D01*
X178774899Y-112177766D01*
X178747000Y-112037506D01*
X178747000Y-111894494D01*
X178774899Y-111754234D01*
X178829626Y-111622112D01*
X178909078Y-111503204D01*
X178909079Y-111503202D01*
X179010202Y-111402079D01*
X179129110Y-111322627D01*
X179150285Y-111313856D01*
X179261234Y-111267899D01*
X179401494Y-111240000D01*
X179544506Y-111240000D01*
X179684766Y-111267899D01*
G37*
G36*
X137298912Y-109619327D02*
G01*
X137448212Y-109649024D01*
X137612184Y-109716944D01*
X137759754Y-109815547D01*
X137885253Y-109941046D01*
X137983856Y-110088616D01*
X138051776Y-110252588D01*
X138086400Y-110426659D01*
X138086400Y-110604141D01*
X138051776Y-110778212D01*
X137983856Y-110942184D01*
X137885253Y-111089754D01*
X137759754Y-111215253D01*
X137612184Y-111313856D01*
X137448212Y-111381776D01*
X137298912Y-111411473D01*
X137274142Y-111416400D01*
X137096658Y-111416400D01*
X137071888Y-111411473D01*
X136922588Y-111381776D01*
X136758616Y-111313856D01*
X136611046Y-111215253D01*
X136485547Y-111089754D01*
X136386944Y-110942184D01*
X136319024Y-110778212D01*
X136284400Y-110604141D01*
X136284400Y-110426659D01*
X136319024Y-110252588D01*
X136386944Y-110088616D01*
X136485547Y-109941046D01*
X136611046Y-109815547D01*
X136758616Y-109716944D01*
X136922588Y-109649024D01*
X137071888Y-109619327D01*
X137096658Y-109614400D01*
X137274142Y-109614400D01*
X137298912Y-109619327D01*
G37*
G36*
X148246400Y-111416400D02*
G01*
X146444400Y-111416400D01*
X146444400Y-109614400D01*
X148246400Y-109614400D01*
X148246400Y-111416400D01*
G37*
G36*
X144918912Y-109619327D02*
G01*
X145068212Y-109649024D01*
X145232184Y-109716944D01*
X145379754Y-109815547D01*
X145505253Y-109941046D01*
X145603856Y-110088616D01*
X145671776Y-110252588D01*
X145706400Y-110426659D01*
X145706400Y-110604141D01*
X145671776Y-110778212D01*
X145603856Y-110942184D01*
X145505253Y-111089754D01*
X145379754Y-111215253D01*
X145232184Y-111313856D01*
X145068212Y-111381776D01*
X144918912Y-111411473D01*
X144894142Y-111416400D01*
X144716658Y-111416400D01*
X144691888Y-111411473D01*
X144542588Y-111381776D01*
X144378616Y-111313856D01*
X144231046Y-111215253D01*
X144105547Y-111089754D01*
X144006944Y-110942184D01*
X143939024Y-110778212D01*
X143904400Y-110604141D01*
X143904400Y-110426659D01*
X143939024Y-110252588D01*
X144006944Y-110088616D01*
X144105547Y-109941046D01*
X144231046Y-109815547D01*
X144378616Y-109716944D01*
X144542588Y-109649024D01*
X144691888Y-109619327D01*
X144716658Y-109614400D01*
X144894142Y-109614400D01*
X144918912Y-109619327D01*
G37*
G36*
X142378912Y-109619327D02*
G01*
X142528212Y-109649024D01*
X142692184Y-109716944D01*
X142839754Y-109815547D01*
X142965253Y-109941046D01*
X143063856Y-110088616D01*
X143131776Y-110252588D01*
X143166400Y-110426659D01*
X143166400Y-110604141D01*
X143131776Y-110778212D01*
X143063856Y-110942184D01*
X142965253Y-111089754D01*
X142839754Y-111215253D01*
X142692184Y-111313856D01*
X142528212Y-111381776D01*
X142378912Y-111411473D01*
X142354142Y-111416400D01*
X142176658Y-111416400D01*
X142151888Y-111411473D01*
X142002588Y-111381776D01*
X141838616Y-111313856D01*
X141691046Y-111215253D01*
X141565547Y-111089754D01*
X141466944Y-110942184D01*
X141399024Y-110778212D01*
X141364400Y-110604141D01*
X141364400Y-110426659D01*
X141399024Y-110252588D01*
X141466944Y-110088616D01*
X141565547Y-109941046D01*
X141691046Y-109815547D01*
X141838616Y-109716944D01*
X142002588Y-109649024D01*
X142151888Y-109619327D01*
X142176658Y-109614400D01*
X142354142Y-109614400D01*
X142378912Y-109619327D01*
G37*
G36*
X139838912Y-109619327D02*
G01*
X139988212Y-109649024D01*
X140152184Y-109716944D01*
X140299754Y-109815547D01*
X140425253Y-109941046D01*
X140523856Y-110088616D01*
X140591776Y-110252588D01*
X140626400Y-110426659D01*
X140626400Y-110604141D01*
X140591776Y-110778212D01*
X140523856Y-110942184D01*
X140425253Y-111089754D01*
X140299754Y-111215253D01*
X140152184Y-111313856D01*
X139988212Y-111381776D01*
X139838912Y-111411473D01*
X139814142Y-111416400D01*
X139636658Y-111416400D01*
X139611888Y-111411473D01*
X139462588Y-111381776D01*
X139298616Y-111313856D01*
X139151046Y-111215253D01*
X139025547Y-111089754D01*
X138926944Y-110942184D01*
X138859024Y-110778212D01*
X138824400Y-110604141D01*
X138824400Y-110426659D01*
X138859024Y-110252588D01*
X138926944Y-110088616D01*
X139025547Y-109941046D01*
X139151046Y-109815547D01*
X139298616Y-109716944D01*
X139462588Y-109649024D01*
X139611888Y-109619327D01*
X139636658Y-109614400D01*
X139814142Y-109614400D01*
X139838912Y-109619327D01*
G37*
G36*
X179684766Y-109267899D02*
G01*
X179816888Y-109322626D01*
X179816890Y-109322627D01*
X179935798Y-109402079D01*
X180036921Y-109503202D01*
X180036922Y-109503204D01*
X180116374Y-109622112D01*
X180171101Y-109754234D01*
X180199000Y-109894494D01*
X180199000Y-110037506D01*
X180171101Y-110177766D01*
X180140108Y-110252589D01*
X180116373Y-110309890D01*
X180036921Y-110428798D01*
X179935798Y-110529921D01*
X179816890Y-110609373D01*
X179816889Y-110609374D01*
X179816888Y-110609374D01*
X179684766Y-110664101D01*
X179544506Y-110692000D01*
X179401494Y-110692000D01*
X179261234Y-110664101D01*
X179129112Y-110609374D01*
X179129111Y-110609374D01*
X179129110Y-110609373D01*
X179010202Y-110529921D01*
X178909079Y-110428798D01*
X178829627Y-110309890D01*
X178805892Y-110252589D01*
X178774899Y-110177766D01*
X178747000Y-110037506D01*
X178747000Y-109894494D01*
X178774899Y-109754234D01*
X178829626Y-109622112D01*
X178909078Y-109503204D01*
X178909079Y-109503202D01*
X179010202Y-109402079D01*
X179129110Y-109322627D01*
X179129112Y-109322626D01*
X179261234Y-109267899D01*
X179401494Y-109240000D01*
X179544506Y-109240000D01*
X179684766Y-109267899D01*
G37*
G36*
X182199000Y-110692000D02*
G01*
X180747000Y-110692000D01*
X180747000Y-109240000D01*
X182199000Y-109240000D01*
X182199000Y-110692000D01*
G37*
G36*
X111081241Y-104941204D02*
G01*
X111118338Y-104952457D01*
X111152519Y-104970727D01*
X111182483Y-104995317D01*
X111207073Y-105025281D01*
X111225343Y-105059462D01*
X111236596Y-105096559D01*
X111241000Y-105141273D01*
X111241000Y-106034327D01*
X111236596Y-106079041D01*
X111225343Y-106116138D01*
X111207073Y-106150319D01*
X111182483Y-106180283D01*
X111152519Y-106204873D01*
X111118338Y-106223143D01*
X111081241Y-106234396D01*
X111036527Y-106238800D01*
X109943473Y-106238800D01*
X109898759Y-106234396D01*
X109861662Y-106223143D01*
X109827481Y-106204873D01*
X109797517Y-106180283D01*
X109772927Y-106150319D01*
X109754657Y-106116138D01*
X109743404Y-106079041D01*
X109739000Y-106034327D01*
X109739000Y-105141273D01*
X109743404Y-105096559D01*
X109754657Y-105059462D01*
X109772927Y-105025281D01*
X109797517Y-104995317D01*
X109827481Y-104970727D01*
X109861662Y-104952457D01*
X109898759Y-104941204D01*
X109943473Y-104936800D01*
X111036527Y-104936800D01*
X111081241Y-104941204D01*
G37*
G36*
X140383000Y-105740200D02*
G01*
X139081000Y-105740200D01*
X139081000Y-104438200D01*
X140383000Y-104438200D01*
X140383000Y-105740200D01*
G37*
G36*
X141921890Y-104463217D02*
G01*
X142030725Y-104508298D01*
X142040364Y-104512291D01*
X142146988Y-104583535D01*
X142237665Y-104674212D01*
X142308909Y-104780836D01*
X142357983Y-104899310D01*
X142383000Y-105025082D01*
X142383000Y-105153318D01*
X142357983Y-105279090D01*
X142308909Y-105397564D01*
X142237665Y-105504188D01*
X142146988Y-105594865D01*
X142040364Y-105666109D01*
X142040363Y-105666110D01*
X142040362Y-105666110D01*
X141921890Y-105715183D01*
X141796119Y-105740200D01*
X141667881Y-105740200D01*
X141542110Y-105715183D01*
X141423638Y-105666110D01*
X141423637Y-105666110D01*
X141423636Y-105666109D01*
X141317012Y-105594865D01*
X141226335Y-105504188D01*
X141155091Y-105397564D01*
X141106017Y-105279090D01*
X141081000Y-105153318D01*
X141081000Y-105025082D01*
X141106017Y-104899310D01*
X141155091Y-104780836D01*
X141226335Y-104674212D01*
X141317012Y-104583535D01*
X141423636Y-104512291D01*
X141433276Y-104508298D01*
X141542110Y-104463217D01*
X141667881Y-104438200D01*
X141796119Y-104438200D01*
X141921890Y-104463217D01*
G37*
G36*
X143921890Y-104463217D02*
G01*
X144030725Y-104508298D01*
X144040364Y-104512291D01*
X144146988Y-104583535D01*
X144237665Y-104674212D01*
X144308909Y-104780836D01*
X144357983Y-104899310D01*
X144383000Y-105025082D01*
X144383000Y-105153318D01*
X144357983Y-105279090D01*
X144308909Y-105397564D01*
X144237665Y-105504188D01*
X144146988Y-105594865D01*
X144040364Y-105666109D01*
X144040363Y-105666110D01*
X144040362Y-105666110D01*
X143921890Y-105715183D01*
X143796119Y-105740200D01*
X143667881Y-105740200D01*
X143542110Y-105715183D01*
X143423638Y-105666110D01*
X143423637Y-105666110D01*
X143423636Y-105666109D01*
X143317012Y-105594865D01*
X143226335Y-105504188D01*
X143155091Y-105397564D01*
X143106017Y-105279090D01*
X143081000Y-105153318D01*
X143081000Y-105025082D01*
X143106017Y-104899310D01*
X143155091Y-104780836D01*
X143226335Y-104674212D01*
X143317012Y-104583535D01*
X143423636Y-104512291D01*
X143433276Y-104508298D01*
X143542110Y-104463217D01*
X143667881Y-104438200D01*
X143796119Y-104438200D01*
X143921890Y-104463217D01*
G37*
G36*
X136417039Y-102952457D02*
G01*
X136567734Y-102982432D01*
X136777203Y-103069197D01*
X136965720Y-103195160D01*
X137126040Y-103355480D01*
X137252003Y-103543997D01*
X137322911Y-103715183D01*
X137338768Y-103753467D01*
X137383000Y-103975835D01*
X137383000Y-104202565D01*
X137378907Y-104223143D01*
X137338768Y-104424934D01*
X137252003Y-104634403D01*
X137126040Y-104822920D01*
X136965720Y-104983240D01*
X136777203Y-105109203D01*
X136567734Y-105195968D01*
X136456549Y-105218084D01*
X136345365Y-105240200D01*
X136118635Y-105240200D01*
X136007451Y-105218084D01*
X135896266Y-105195968D01*
X135686797Y-105109203D01*
X135498280Y-104983240D01*
X135337960Y-104822920D01*
X135211997Y-104634403D01*
X135125232Y-104424934D01*
X135085093Y-104223143D01*
X135081000Y-104202565D01*
X135081000Y-103975835D01*
X135125232Y-103753467D01*
X135141090Y-103715183D01*
X135211997Y-103543997D01*
X135337960Y-103355480D01*
X135498280Y-103195160D01*
X135686797Y-103069197D01*
X135896266Y-102982432D01*
X136046961Y-102952457D01*
X136118635Y-102938200D01*
X136345365Y-102938200D01*
X136417039Y-102952457D01*
G37*
G36*
X147417039Y-102952457D02*
G01*
X147567734Y-102982432D01*
X147777203Y-103069197D01*
X147965720Y-103195160D01*
X148126040Y-103355480D01*
X148252003Y-103543997D01*
X148322911Y-103715183D01*
X148338768Y-103753467D01*
X148383000Y-103975835D01*
X148383000Y-104202565D01*
X148378907Y-104223143D01*
X148338768Y-104424934D01*
X148252003Y-104634403D01*
X148126040Y-104822920D01*
X147965720Y-104983240D01*
X147777203Y-105109203D01*
X147567734Y-105195968D01*
X147456549Y-105218084D01*
X147345365Y-105240200D01*
X147118635Y-105240200D01*
X147007451Y-105218084D01*
X146896266Y-105195968D01*
X146686797Y-105109203D01*
X146498280Y-104983240D01*
X146337960Y-104822920D01*
X146211997Y-104634403D01*
X146125232Y-104424934D01*
X146085093Y-104223143D01*
X146081000Y-104202565D01*
X146081000Y-103975835D01*
X146125232Y-103753467D01*
X146141090Y-103715183D01*
X146211997Y-103543997D01*
X146337960Y-103355480D01*
X146498280Y-103195160D01*
X146686797Y-103069197D01*
X146896266Y-102982432D01*
X147046961Y-102952457D01*
X147118635Y-102938200D01*
X147345365Y-102938200D01*
X147417039Y-102952457D01*
G37*
G36*
X158996368Y-102500324D02*
G01*
X159017449Y-102506720D01*
X159036885Y-102517108D01*
X159053916Y-102531084D01*
X159067892Y-102548115D01*
X159078280Y-102567551D01*
X159084676Y-102588632D01*
X159087440Y-102616700D01*
X159087440Y-104530420D01*
X159084676Y-104558488D01*
X159078280Y-104579569D01*
X159067892Y-104599005D01*
X159053916Y-104616036D01*
X159036885Y-104630012D01*
X159017449Y-104640400D01*
X158996368Y-104646796D01*
X158968300Y-104649560D01*
X158504580Y-104649560D01*
X158476512Y-104646796D01*
X158455431Y-104640400D01*
X158435995Y-104630012D01*
X158418964Y-104616036D01*
X158404988Y-104599005D01*
X158394600Y-104579569D01*
X158388204Y-104558488D01*
X158385440Y-104530420D01*
X158385440Y-102616700D01*
X158388204Y-102588632D01*
X158394600Y-102567551D01*
X158404988Y-102548115D01*
X158418964Y-102531084D01*
X158435995Y-102517108D01*
X158455431Y-102506720D01*
X158476512Y-102500324D01*
X158504580Y-102497560D01*
X158968300Y-102497560D01*
X158996368Y-102500324D01*
G37*
G36*
X172966368Y-102500324D02*
G01*
X172987449Y-102506720D01*
X173006885Y-102517108D01*
X173023916Y-102531084D01*
X173037892Y-102548115D01*
X173048280Y-102567551D01*
X173054676Y-102588632D01*
X173057440Y-102616700D01*
X173057440Y-104530420D01*
X173054676Y-104558488D01*
X173048280Y-104579569D01*
X173037892Y-104599005D01*
X173023916Y-104616036D01*
X173006885Y-104630012D01*
X172987449Y-104640400D01*
X172966368Y-104646796D01*
X172938300Y-104649560D01*
X172474580Y-104649560D01*
X172446512Y-104646796D01*
X172425431Y-104640400D01*
X172405995Y-104630012D01*
X172388964Y-104616036D01*
X172374988Y-104599005D01*
X172364600Y-104579569D01*
X172358204Y-104558488D01*
X172355440Y-104530420D01*
X172355440Y-102616700D01*
X172358204Y-102588632D01*
X172364600Y-102567551D01*
X172374988Y-102548115D01*
X172388964Y-102531084D01*
X172405995Y-102517108D01*
X172425431Y-102506720D01*
X172446512Y-102500324D01*
X172474580Y-102497560D01*
X172938300Y-102497560D01*
X172966368Y-102500324D01*
G37*
G36*
X170426368Y-102500324D02*
G01*
X170447449Y-102506720D01*
X170466885Y-102517108D01*
X170483916Y-102531084D01*
X170497892Y-102548115D01*
X170508280Y-102567551D01*
X170514676Y-102588632D01*
X170517440Y-102616700D01*
X170517440Y-104530420D01*
X170514676Y-104558488D01*
X170508280Y-104579569D01*
X170497892Y-104599005D01*
X170483916Y-104616036D01*
X170466885Y-104630012D01*
X170447449Y-104640400D01*
X170426368Y-104646796D01*
X170398300Y-104649560D01*
X169934580Y-104649560D01*
X169906512Y-104646796D01*
X169885431Y-104640400D01*
X169865995Y-104630012D01*
X169848964Y-104616036D01*
X169834988Y-104599005D01*
X169824600Y-104579569D01*
X169818204Y-104558488D01*
X169815440Y-104530420D01*
X169815440Y-102616700D01*
X169818204Y-102588632D01*
X169824600Y-102567551D01*
X169834988Y-102548115D01*
X169848964Y-102531084D01*
X169865995Y-102517108D01*
X169885431Y-102506720D01*
X169906512Y-102500324D01*
X169934580Y-102497560D01*
X170398300Y-102497560D01*
X170426368Y-102500324D01*
G37*
G36*
X171696368Y-102500324D02*
G01*
X171717449Y-102506720D01*
X171736885Y-102517108D01*
X171753916Y-102531084D01*
X171767892Y-102548115D01*
X171778280Y-102567551D01*
X171784676Y-102588632D01*
X171787440Y-102616700D01*
X171787440Y-104530420D01*
X171784676Y-104558488D01*
X171778280Y-104579569D01*
X171767892Y-104599005D01*
X171753916Y-104616036D01*
X171736885Y-104630012D01*
X171717449Y-104640400D01*
X171696368Y-104646796D01*
X171668300Y-104649560D01*
X171204580Y-104649560D01*
X171176512Y-104646796D01*
X171155431Y-104640400D01*
X171135995Y-104630012D01*
X171118964Y-104616036D01*
X171104988Y-104599005D01*
X171094600Y-104579569D01*
X171088204Y-104558488D01*
X171085440Y-104530420D01*
X171085440Y-102616700D01*
X171088204Y-102588632D01*
X171094600Y-102567551D01*
X171104988Y-102548115D01*
X171118964Y-102531084D01*
X171135995Y-102517108D01*
X171155431Y-102506720D01*
X171176512Y-102500324D01*
X171204580Y-102497560D01*
X171668300Y-102497560D01*
X171696368Y-102500324D01*
G37*
G36*
X160266368Y-102500324D02*
G01*
X160287449Y-102506720D01*
X160306885Y-102517108D01*
X160323916Y-102531084D01*
X160337892Y-102548115D01*
X160348280Y-102567551D01*
X160354676Y-102588632D01*
X160357440Y-102616700D01*
X160357440Y-104530420D01*
X160354676Y-104558488D01*
X160348280Y-104579569D01*
X160337892Y-104599005D01*
X160323916Y-104616036D01*
X160306885Y-104630012D01*
X160287449Y-104640400D01*
X160266368Y-104646796D01*
X160238300Y-104649560D01*
X159774580Y-104649560D01*
X159746512Y-104646796D01*
X159725431Y-104640400D01*
X159705995Y-104630012D01*
X159688964Y-104616036D01*
X159674988Y-104599005D01*
X159664600Y-104579569D01*
X159658204Y-104558488D01*
X159655440Y-104530420D01*
X159655440Y-102616700D01*
X159658204Y-102588632D01*
X159664600Y-102567551D01*
X159674988Y-102548115D01*
X159688964Y-102531084D01*
X159705995Y-102517108D01*
X159725431Y-102506720D01*
X159746512Y-102500324D01*
X159774580Y-102497560D01*
X160238300Y-102497560D01*
X160266368Y-102500324D01*
G37*
G36*
X161536368Y-102500324D02*
G01*
X161557449Y-102506720D01*
X161576885Y-102517108D01*
X161593916Y-102531084D01*
X161607892Y-102548115D01*
X161618280Y-102567551D01*
X161624676Y-102588632D01*
X161627440Y-102616700D01*
X161627440Y-104530420D01*
X161624676Y-104558488D01*
X161618280Y-104579569D01*
X161607892Y-104599005D01*
X161593916Y-104616036D01*
X161576885Y-104630012D01*
X161557449Y-104640400D01*
X161536368Y-104646796D01*
X161508300Y-104649560D01*
X161044580Y-104649560D01*
X161016512Y-104646796D01*
X160995431Y-104640400D01*
X160975995Y-104630012D01*
X160958964Y-104616036D01*
X160944988Y-104599005D01*
X160934600Y-104579569D01*
X160928204Y-104558488D01*
X160925440Y-104530420D01*
X160925440Y-102616700D01*
X160928204Y-102588632D01*
X160934600Y-102567551D01*
X160944988Y-102548115D01*
X160958964Y-102531084D01*
X160975995Y-102517108D01*
X160995431Y-102506720D01*
X161016512Y-102500324D01*
X161044580Y-102497560D01*
X161508300Y-102497560D01*
X161536368Y-102500324D01*
G37*
G36*
X162806368Y-102500324D02*
G01*
X162827449Y-102506720D01*
X162846885Y-102517108D01*
X162863916Y-102531084D01*
X162877892Y-102548115D01*
X162888280Y-102567551D01*
X162894676Y-102588632D01*
X162897440Y-102616700D01*
X162897440Y-104530420D01*
X162894676Y-104558488D01*
X162888280Y-104579569D01*
X162877892Y-104599005D01*
X162863916Y-104616036D01*
X162846885Y-104630012D01*
X162827449Y-104640400D01*
X162806368Y-104646796D01*
X162778300Y-104649560D01*
X162314580Y-104649560D01*
X162286512Y-104646796D01*
X162265431Y-104640400D01*
X162245995Y-104630012D01*
X162228964Y-104616036D01*
X162214988Y-104599005D01*
X162204600Y-104579569D01*
X162198204Y-104558488D01*
X162195440Y-104530420D01*
X162195440Y-102616700D01*
X162198204Y-102588632D01*
X162204600Y-102567551D01*
X162214988Y-102548115D01*
X162228964Y-102531084D01*
X162245995Y-102517108D01*
X162265431Y-102506720D01*
X162286512Y-102500324D01*
X162314580Y-102497560D01*
X162778300Y-102497560D01*
X162806368Y-102500324D01*
G37*
G36*
X174236368Y-102500324D02*
G01*
X174257449Y-102506720D01*
X174276885Y-102517108D01*
X174293916Y-102531084D01*
X174307892Y-102548115D01*
X174318280Y-102567551D01*
X174324676Y-102588632D01*
X174327440Y-102616700D01*
X174327440Y-104530420D01*
X174324676Y-104558488D01*
X174318280Y-104579569D01*
X174307892Y-104599005D01*
X174293916Y-104616036D01*
X174276885Y-104630012D01*
X174257449Y-104640400D01*
X174236368Y-104646796D01*
X174208300Y-104649560D01*
X173744580Y-104649560D01*
X173716512Y-104646796D01*
X173695431Y-104640400D01*
X173675995Y-104630012D01*
X173658964Y-104616036D01*
X173644988Y-104599005D01*
X173634600Y-104579569D01*
X173628204Y-104558488D01*
X173625440Y-104530420D01*
X173625440Y-102616700D01*
X173628204Y-102588632D01*
X173634600Y-102567551D01*
X173644988Y-102548115D01*
X173658964Y-102531084D01*
X173675995Y-102517108D01*
X173695431Y-102506720D01*
X173716512Y-102500324D01*
X173744580Y-102497560D01*
X174208300Y-102497560D01*
X174236368Y-102500324D01*
G37*
G36*
X164076368Y-102500324D02*
G01*
X164097449Y-102506720D01*
X164116885Y-102517108D01*
X164133916Y-102531084D01*
X164147892Y-102548115D01*
X164158280Y-102567551D01*
X164164676Y-102588632D01*
X164167440Y-102616700D01*
X164167440Y-104530420D01*
X164164676Y-104558488D01*
X164158280Y-104579569D01*
X164147892Y-104599005D01*
X164133916Y-104616036D01*
X164116885Y-104630012D01*
X164097449Y-104640400D01*
X164076368Y-104646796D01*
X164048300Y-104649560D01*
X163584580Y-104649560D01*
X163556512Y-104646796D01*
X163535431Y-104640400D01*
X163515995Y-104630012D01*
X163498964Y-104616036D01*
X163484988Y-104599005D01*
X163474600Y-104579569D01*
X163468204Y-104558488D01*
X163465440Y-104530420D01*
X163465440Y-102616700D01*
X163468204Y-102588632D01*
X163474600Y-102567551D01*
X163484988Y-102548115D01*
X163498964Y-102531084D01*
X163515995Y-102517108D01*
X163535431Y-102506720D01*
X163556512Y-102500324D01*
X163584580Y-102497560D01*
X164048300Y-102497560D01*
X164076368Y-102500324D01*
G37*
G36*
X165346368Y-102500324D02*
G01*
X165367449Y-102506720D01*
X165386885Y-102517108D01*
X165403916Y-102531084D01*
X165417892Y-102548115D01*
X165428280Y-102567551D01*
X165434676Y-102588632D01*
X165437440Y-102616700D01*
X165437440Y-104530420D01*
X165434676Y-104558488D01*
X165428280Y-104579569D01*
X165417892Y-104599005D01*
X165403916Y-104616036D01*
X165386885Y-104630012D01*
X165367449Y-104640400D01*
X165346368Y-104646796D01*
X165318300Y-104649560D01*
X164854580Y-104649560D01*
X164826512Y-104646796D01*
X164805431Y-104640400D01*
X164785995Y-104630012D01*
X164768964Y-104616036D01*
X164754988Y-104599005D01*
X164744600Y-104579569D01*
X164738204Y-104558488D01*
X164735440Y-104530420D01*
X164735440Y-102616700D01*
X164738204Y-102588632D01*
X164744600Y-102567551D01*
X164754988Y-102548115D01*
X164768964Y-102531084D01*
X164785995Y-102517108D01*
X164805431Y-102506720D01*
X164826512Y-102500324D01*
X164854580Y-102497560D01*
X165318300Y-102497560D01*
X165346368Y-102500324D01*
G37*
G36*
X166616368Y-102500324D02*
G01*
X166637449Y-102506720D01*
X166656885Y-102517108D01*
X166673916Y-102531084D01*
X166687892Y-102548115D01*
X166698280Y-102567551D01*
X166704676Y-102588632D01*
X166707440Y-102616700D01*
X166707440Y-104530420D01*
X166704676Y-104558488D01*
X166698280Y-104579569D01*
X166687892Y-104599005D01*
X166673916Y-104616036D01*
X166656885Y-104630012D01*
X166637449Y-104640400D01*
X166616368Y-104646796D01*
X166588300Y-104649560D01*
X166124580Y-104649560D01*
X166096512Y-104646796D01*
X166075431Y-104640400D01*
X166055995Y-104630012D01*
X166038964Y-104616036D01*
X166024988Y-104599005D01*
X166014600Y-104579569D01*
X166008204Y-104558488D01*
X166005440Y-104530420D01*
X166005440Y-102616700D01*
X166008204Y-102588632D01*
X166014600Y-102567551D01*
X166024988Y-102548115D01*
X166038964Y-102531084D01*
X166055995Y-102517108D01*
X166075431Y-102506720D01*
X166096512Y-102500324D01*
X166124580Y-102497560D01*
X166588300Y-102497560D01*
X166616368Y-102500324D01*
G37*
G36*
X167886368Y-102500324D02*
G01*
X167907449Y-102506720D01*
X167926885Y-102517108D01*
X167943916Y-102531084D01*
X167957892Y-102548115D01*
X167968280Y-102567551D01*
X167974676Y-102588632D01*
X167977440Y-102616700D01*
X167977440Y-104530420D01*
X167974676Y-104558488D01*
X167968280Y-104579569D01*
X167957892Y-104599005D01*
X167943916Y-104616036D01*
X167926885Y-104630012D01*
X167907449Y-104640400D01*
X167886368Y-104646796D01*
X167858300Y-104649560D01*
X167394580Y-104649560D01*
X167366512Y-104646796D01*
X167345431Y-104640400D01*
X167325995Y-104630012D01*
X167308964Y-104616036D01*
X167294988Y-104599005D01*
X167284600Y-104579569D01*
X167278204Y-104558488D01*
X167275440Y-104530420D01*
X167275440Y-102616700D01*
X167278204Y-102588632D01*
X167284600Y-102567551D01*
X167294988Y-102548115D01*
X167308964Y-102531084D01*
X167325995Y-102517108D01*
X167345431Y-102506720D01*
X167366512Y-102500324D01*
X167394580Y-102497560D01*
X167858300Y-102497560D01*
X167886368Y-102500324D01*
G37*
G36*
X169156368Y-102500324D02*
G01*
X169177449Y-102506720D01*
X169196885Y-102517108D01*
X169213916Y-102531084D01*
X169227892Y-102548115D01*
X169238280Y-102567551D01*
X169244676Y-102588632D01*
X169247440Y-102616700D01*
X169247440Y-104530420D01*
X169244676Y-104558488D01*
X169238280Y-104579569D01*
X169227892Y-104599005D01*
X169213916Y-104616036D01*
X169196885Y-104630012D01*
X169177449Y-104640400D01*
X169156368Y-104646796D01*
X169128300Y-104649560D01*
X168664580Y-104649560D01*
X168636512Y-104646796D01*
X168615431Y-104640400D01*
X168595995Y-104630012D01*
X168578964Y-104616036D01*
X168564988Y-104599005D01*
X168554600Y-104579569D01*
X168548204Y-104558488D01*
X168545440Y-104530420D01*
X168545440Y-102616700D01*
X168548204Y-102588632D01*
X168554600Y-102567551D01*
X168564988Y-102548115D01*
X168578964Y-102531084D01*
X168595995Y-102517108D01*
X168615431Y-102506720D01*
X168636512Y-102500324D01*
X168664580Y-102497560D01*
X169128300Y-102497560D01*
X169156368Y-102500324D01*
G37*
G36*
X157726368Y-102500324D02*
G01*
X157747449Y-102506720D01*
X157766885Y-102517108D01*
X157783916Y-102531084D01*
X157797892Y-102548115D01*
X157808280Y-102567551D01*
X157814676Y-102588632D01*
X157817440Y-102616700D01*
X157817440Y-104530420D01*
X157814676Y-104558488D01*
X157808280Y-104579569D01*
X157797892Y-104599005D01*
X157783916Y-104616036D01*
X157766885Y-104630012D01*
X157747449Y-104640400D01*
X157726368Y-104646796D01*
X157698300Y-104649560D01*
X157234580Y-104649560D01*
X157206512Y-104646796D01*
X157185431Y-104640400D01*
X157165995Y-104630012D01*
X157148964Y-104616036D01*
X157134988Y-104599005D01*
X157124600Y-104579569D01*
X157118204Y-104558488D01*
X157115440Y-104530420D01*
X157115440Y-102616700D01*
X157118204Y-102588632D01*
X157124600Y-102567551D01*
X157134988Y-102548115D01*
X157148964Y-102531084D01*
X157165995Y-102517108D01*
X157185431Y-102506720D01*
X157206512Y-102500324D01*
X157234580Y-102497560D01*
X157698300Y-102497560D01*
X157726368Y-102500324D01*
G37*
G36*
X111081241Y-102941204D02*
G01*
X111118338Y-102952457D01*
X111152519Y-102970727D01*
X111182483Y-102995317D01*
X111207073Y-103025281D01*
X111225343Y-103059462D01*
X111236596Y-103096559D01*
X111241000Y-103141273D01*
X111241000Y-104034327D01*
X111236596Y-104079041D01*
X111225343Y-104116138D01*
X111207073Y-104150319D01*
X111182483Y-104180283D01*
X111152519Y-104204873D01*
X111118338Y-104223143D01*
X111081241Y-104234396D01*
X111036527Y-104238800D01*
X109943473Y-104238800D01*
X109898759Y-104234396D01*
X109861662Y-104223143D01*
X109827481Y-104204873D01*
X109797517Y-104180283D01*
X109772927Y-104150319D01*
X109754657Y-104116138D01*
X109743404Y-104079041D01*
X109739000Y-104034327D01*
X109739000Y-103141273D01*
X109743404Y-103096559D01*
X109754657Y-103059462D01*
X109772927Y-103025281D01*
X109797517Y-102995317D01*
X109827481Y-102970727D01*
X109861662Y-102952457D01*
X109898759Y-102941204D01*
X109943473Y-102936800D01*
X111036527Y-102936800D01*
X111081241Y-102941204D01*
G37*
G36*
X139921890Y-102463217D02*
G01*
X140012942Y-102500932D01*
X140040364Y-102512291D01*
X140146988Y-102583535D01*
X140237665Y-102674212D01*
X140308909Y-102780836D01*
X140357983Y-102899310D01*
X140383000Y-103025082D01*
X140383000Y-103153318D01*
X140357983Y-103279090D01*
X140308909Y-103397564D01*
X140237665Y-103504188D01*
X140146988Y-103594865D01*
X140040364Y-103666109D01*
X140040363Y-103666110D01*
X140040362Y-103666110D01*
X139921890Y-103715183D01*
X139796119Y-103740200D01*
X139667881Y-103740200D01*
X139542110Y-103715183D01*
X139423638Y-103666110D01*
X139423637Y-103666110D01*
X139423636Y-103666109D01*
X139317012Y-103594865D01*
X139226335Y-103504188D01*
X139155091Y-103397564D01*
X139106017Y-103279090D01*
X139081000Y-103153318D01*
X139081000Y-103025082D01*
X139106017Y-102899310D01*
X139155091Y-102780836D01*
X139226335Y-102674212D01*
X139317012Y-102583535D01*
X139423636Y-102512291D01*
X139451059Y-102500932D01*
X139542110Y-102463217D01*
X139667881Y-102438200D01*
X139796119Y-102438200D01*
X139921890Y-102463217D01*
G37*
G36*
X143921890Y-102463217D02*
G01*
X144012942Y-102500932D01*
X144040364Y-102512291D01*
X144146988Y-102583535D01*
X144237665Y-102674212D01*
X144308909Y-102780836D01*
X144357983Y-102899310D01*
X144383000Y-103025082D01*
X144383000Y-103153318D01*
X144357983Y-103279090D01*
X144308909Y-103397564D01*
X144237665Y-103504188D01*
X144146988Y-103594865D01*
X144040364Y-103666109D01*
X144040363Y-103666110D01*
X144040362Y-103666110D01*
X143921890Y-103715183D01*
X143796119Y-103740200D01*
X143667881Y-103740200D01*
X143542110Y-103715183D01*
X143423638Y-103666110D01*
X143423637Y-103666110D01*
X143423636Y-103666109D01*
X143317012Y-103594865D01*
X143226335Y-103504188D01*
X143155091Y-103397564D01*
X143106017Y-103279090D01*
X143081000Y-103153318D01*
X143081000Y-103025082D01*
X143106017Y-102899310D01*
X143155091Y-102780836D01*
X143226335Y-102674212D01*
X143317012Y-102583535D01*
X143423636Y-102512291D01*
X143451059Y-102500932D01*
X143542110Y-102463217D01*
X143667881Y-102438200D01*
X143796119Y-102438200D01*
X143921890Y-102463217D01*
G37*
G36*
X141921890Y-102463217D02*
G01*
X142012942Y-102500932D01*
X142040364Y-102512291D01*
X142146988Y-102583535D01*
X142237665Y-102674212D01*
X142308909Y-102780836D01*
X142357983Y-102899310D01*
X142383000Y-103025082D01*
X142383000Y-103153318D01*
X142357983Y-103279090D01*
X142308909Y-103397564D01*
X142237665Y-103504188D01*
X142146988Y-103594865D01*
X142040364Y-103666109D01*
X142040363Y-103666110D01*
X142040362Y-103666110D01*
X141921890Y-103715183D01*
X141796119Y-103740200D01*
X141667881Y-103740200D01*
X141542110Y-103715183D01*
X141423638Y-103666110D01*
X141423637Y-103666110D01*
X141423636Y-103666109D01*
X141317012Y-103594865D01*
X141226335Y-103504188D01*
X141155091Y-103397564D01*
X141106017Y-103279090D01*
X141081000Y-103153318D01*
X141081000Y-103025082D01*
X141106017Y-102899310D01*
X141155091Y-102780836D01*
X141226335Y-102674212D01*
X141317012Y-102583535D01*
X141423636Y-102512291D01*
X141451059Y-102500932D01*
X141542110Y-102463217D01*
X141667881Y-102438200D01*
X141796119Y-102438200D01*
X141921890Y-102463217D01*
G37*
G36*
X173644874Y-99923065D02*
G01*
X173682567Y-99934499D01*
X173717303Y-99953066D01*
X173747748Y-99978052D01*
X173772734Y-100008497D01*
X173791301Y-100043233D01*
X173802735Y-100080926D01*
X173807200Y-100126261D01*
X173807200Y-101212939D01*
X173802735Y-101258274D01*
X173791301Y-101295967D01*
X173772734Y-101330703D01*
X173747748Y-101361148D01*
X173717303Y-101386134D01*
X173682567Y-101404701D01*
X173644874Y-101416135D01*
X173599539Y-101420600D01*
X172762861Y-101420600D01*
X172717526Y-101416135D01*
X172679833Y-101404701D01*
X172645097Y-101386134D01*
X172614652Y-101361148D01*
X172589666Y-101330703D01*
X172571099Y-101295967D01*
X172559665Y-101258274D01*
X172555200Y-101212939D01*
X172555200Y-100126261D01*
X172559665Y-100080926D01*
X172571099Y-100043233D01*
X172589666Y-100008497D01*
X172614652Y-99978052D01*
X172645097Y-99953066D01*
X172679833Y-99934499D01*
X172717526Y-99923065D01*
X172762861Y-99918600D01*
X173599539Y-99918600D01*
X173644874Y-99923065D01*
G37*
G36*
X175694874Y-99923065D02*
G01*
X175732567Y-99934499D01*
X175767303Y-99953066D01*
X175797748Y-99978052D01*
X175822734Y-100008497D01*
X175841301Y-100043233D01*
X175852735Y-100080926D01*
X175857200Y-100126261D01*
X175857200Y-101212939D01*
X175852735Y-101258274D01*
X175841301Y-101295967D01*
X175822734Y-101330703D01*
X175797748Y-101361148D01*
X175767303Y-101386134D01*
X175732567Y-101404701D01*
X175694874Y-101416135D01*
X175649539Y-101420600D01*
X174812861Y-101420600D01*
X174767526Y-101416135D01*
X174729833Y-101404701D01*
X174695097Y-101386134D01*
X174664652Y-101361148D01*
X174639666Y-101330703D01*
X174621099Y-101295967D01*
X174609665Y-101258274D01*
X174605200Y-101212939D01*
X174605200Y-100126261D01*
X174609665Y-100080926D01*
X174621099Y-100043233D01*
X174639666Y-100008497D01*
X174664652Y-99978052D01*
X174695097Y-99953066D01*
X174729833Y-99934499D01*
X174767526Y-99923065D01*
X174812861Y-99918600D01*
X175649539Y-99918600D01*
X175694874Y-99923065D01*
G37*
G36*
X111081241Y-99937404D02*
G01*
X111118338Y-99948657D01*
X111152519Y-99966927D01*
X111182483Y-99991517D01*
X111207073Y-100021481D01*
X111225343Y-100055662D01*
X111236596Y-100092759D01*
X111241000Y-100137473D01*
X111241000Y-101030527D01*
X111236596Y-101075241D01*
X111225343Y-101112338D01*
X111207073Y-101146519D01*
X111182483Y-101176483D01*
X111152519Y-101201073D01*
X111118338Y-101219343D01*
X111081241Y-101230596D01*
X111036527Y-101235000D01*
X109943473Y-101235000D01*
X109898759Y-101230596D01*
X109861662Y-101219343D01*
X109827481Y-101201073D01*
X109797517Y-101176483D01*
X109772927Y-101146519D01*
X109754657Y-101112338D01*
X109743404Y-101075241D01*
X109739000Y-101030527D01*
X109739000Y-100137473D01*
X109743404Y-100092759D01*
X109754657Y-100055662D01*
X109772927Y-100021481D01*
X109797517Y-99991517D01*
X109827481Y-99966927D01*
X109861662Y-99948657D01*
X109898759Y-99937404D01*
X109943473Y-99933000D01*
X111036527Y-99933000D01*
X111081241Y-99937404D01*
G37*
G36*
X162863954Y-99130585D02*
G01*
X162901647Y-99142019D01*
X162936383Y-99160586D01*
X162966828Y-99185572D01*
X162991814Y-99216017D01*
X163010381Y-99250753D01*
X163021815Y-99288446D01*
X163026280Y-99333781D01*
X163026280Y-100420459D01*
X163021815Y-100465794D01*
X163010381Y-100503487D01*
X162991814Y-100538223D01*
X162966828Y-100568668D01*
X162936383Y-100593654D01*
X162901647Y-100612221D01*
X162863954Y-100623655D01*
X162818619Y-100628120D01*
X161981941Y-100628120D01*
X161936606Y-100623655D01*
X161898913Y-100612221D01*
X161864177Y-100593654D01*
X161833732Y-100568668D01*
X161808746Y-100538223D01*
X161790179Y-100503487D01*
X161778745Y-100465794D01*
X161774280Y-100420459D01*
X161774280Y-99333781D01*
X161778745Y-99288446D01*
X161790179Y-99250753D01*
X161808746Y-99216017D01*
X161833732Y-99185572D01*
X161864177Y-99160586D01*
X161898913Y-99142019D01*
X161936606Y-99130585D01*
X161981941Y-99126120D01*
X162818619Y-99126120D01*
X162863954Y-99130585D01*
G37*
G36*
X164913954Y-99130585D02*
G01*
X164951647Y-99142019D01*
X164986383Y-99160586D01*
X165016828Y-99185572D01*
X165041814Y-99216017D01*
X165060381Y-99250753D01*
X165071815Y-99288446D01*
X165076280Y-99333781D01*
X165076280Y-100420459D01*
X165071815Y-100465794D01*
X165060381Y-100503487D01*
X165041814Y-100538223D01*
X165016828Y-100568668D01*
X164986383Y-100593654D01*
X164951647Y-100612221D01*
X164913954Y-100623655D01*
X164868619Y-100628120D01*
X164031941Y-100628120D01*
X163986606Y-100623655D01*
X163948913Y-100612221D01*
X163914177Y-100593654D01*
X163883732Y-100568668D01*
X163858746Y-100538223D01*
X163840179Y-100503487D01*
X163828745Y-100465794D01*
X163824280Y-100420459D01*
X163824280Y-99333781D01*
X163828745Y-99288446D01*
X163840179Y-99250753D01*
X163858746Y-99216017D01*
X163883732Y-99185572D01*
X163914177Y-99160586D01*
X163948913Y-99142019D01*
X163986606Y-99130585D01*
X164031941Y-99126120D01*
X164868619Y-99126120D01*
X164913954Y-99130585D01*
G37*
G36*
X104866366Y-97930099D02*
G01*
X104983732Y-97978714D01*
X104998490Y-97984827D01*
X105117398Y-98064279D01*
X105218521Y-98165402D01*
X105218522Y-98165404D01*
X105297974Y-98284312D01*
X105352701Y-98416434D01*
X105380600Y-98556694D01*
X105380600Y-98699706D01*
X105352701Y-98839966D01*
X105301427Y-98963752D01*
X105297973Y-98972090D01*
X105218521Y-99090998D01*
X105117398Y-99192121D01*
X104998490Y-99271573D01*
X104998489Y-99271574D01*
X104998488Y-99271574D01*
X104866366Y-99326301D01*
X104726106Y-99354200D01*
X104583094Y-99354200D01*
X104442834Y-99326301D01*
X104310712Y-99271574D01*
X104310711Y-99271574D01*
X104310710Y-99271573D01*
X104191802Y-99192121D01*
X104090679Y-99090998D01*
X104011227Y-98972090D01*
X104007773Y-98963752D01*
X103956499Y-98839966D01*
X103928600Y-98699706D01*
X103928600Y-98556694D01*
X103956499Y-98416434D01*
X104011226Y-98284312D01*
X104090678Y-98165404D01*
X104090679Y-98165402D01*
X104191802Y-98064279D01*
X104310710Y-97984827D01*
X104325468Y-97978714D01*
X104442834Y-97930099D01*
X104583094Y-97902200D01*
X104726106Y-97902200D01*
X104866366Y-97930099D01*
G37*
G36*
X106866366Y-97930099D02*
G01*
X106983732Y-97978714D01*
X106998490Y-97984827D01*
X107117398Y-98064279D01*
X107218521Y-98165402D01*
X107218522Y-98165404D01*
X107297974Y-98284312D01*
X107352701Y-98416434D01*
X107380600Y-98556694D01*
X107380600Y-98699706D01*
X107352701Y-98839966D01*
X107301427Y-98963752D01*
X107297973Y-98972090D01*
X107218521Y-99090998D01*
X107117398Y-99192121D01*
X106998490Y-99271573D01*
X106998489Y-99271574D01*
X106998488Y-99271574D01*
X106866366Y-99326301D01*
X106726106Y-99354200D01*
X106583094Y-99354200D01*
X106442834Y-99326301D01*
X106310712Y-99271574D01*
X106310711Y-99271574D01*
X106310710Y-99271573D01*
X106191802Y-99192121D01*
X106090679Y-99090998D01*
X106011227Y-98972090D01*
X106007773Y-98963752D01*
X105956499Y-98839966D01*
X105928600Y-98699706D01*
X105928600Y-98556694D01*
X105956499Y-98416434D01*
X106011226Y-98284312D01*
X106090678Y-98165404D01*
X106090679Y-98165402D01*
X106191802Y-98064279D01*
X106310710Y-97984827D01*
X106325468Y-97978714D01*
X106442834Y-97930099D01*
X106583094Y-97902200D01*
X106726106Y-97902200D01*
X106866366Y-97930099D01*
G37*
G36*
X111081241Y-97937404D02*
G01*
X111118338Y-97948657D01*
X111152519Y-97966927D01*
X111182483Y-97991517D01*
X111207073Y-98021481D01*
X111225343Y-98055662D01*
X111236596Y-98092759D01*
X111241000Y-98137473D01*
X111241000Y-99030527D01*
X111236596Y-99075241D01*
X111225343Y-99112338D01*
X111207073Y-99146519D01*
X111182483Y-99176483D01*
X111152519Y-99201073D01*
X111118338Y-99219343D01*
X111081241Y-99230596D01*
X111036527Y-99235000D01*
X109943473Y-99235000D01*
X109898759Y-99230596D01*
X109861662Y-99219343D01*
X109827481Y-99201073D01*
X109797517Y-99176483D01*
X109772927Y-99146519D01*
X109754657Y-99112338D01*
X109743404Y-99075241D01*
X109739000Y-99030527D01*
X109739000Y-98137473D01*
X109743404Y-98092759D01*
X109754657Y-98055662D01*
X109772927Y-98021481D01*
X109797517Y-97991517D01*
X109827481Y-97966927D01*
X109861662Y-97948657D01*
X109898759Y-97937404D01*
X109943473Y-97933000D01*
X111036527Y-97933000D01*
X111081241Y-97937404D01*
G37*
G36*
X104866366Y-95930099D02*
G01*
X104998488Y-95984826D01*
X104998490Y-95984827D01*
X105117398Y-96064279D01*
X105218521Y-96165402D01*
X105218522Y-96165404D01*
X105297974Y-96284312D01*
X105352701Y-96416434D01*
X105380600Y-96556694D01*
X105380600Y-96699706D01*
X105352701Y-96839966D01*
X105297974Y-96972088D01*
X105297973Y-96972090D01*
X105218521Y-97090998D01*
X105117398Y-97192121D01*
X104998490Y-97271573D01*
X104998489Y-97271574D01*
X104998488Y-97271574D01*
X104866366Y-97326301D01*
X104726106Y-97354200D01*
X104583094Y-97354200D01*
X104442834Y-97326301D01*
X104310712Y-97271574D01*
X104310711Y-97271574D01*
X104310710Y-97271573D01*
X104191802Y-97192121D01*
X104090679Y-97090998D01*
X104011227Y-96972090D01*
X104011226Y-96972088D01*
X103956499Y-96839966D01*
X103928600Y-96699706D01*
X103928600Y-96556694D01*
X103956499Y-96416434D01*
X104011226Y-96284312D01*
X104090678Y-96165404D01*
X104090679Y-96165402D01*
X104191802Y-96064279D01*
X104310710Y-95984827D01*
X104310712Y-95984826D01*
X104442834Y-95930099D01*
X104583094Y-95902200D01*
X104726106Y-95902200D01*
X104866366Y-95930099D01*
G37*
G36*
X106866366Y-95930099D02*
G01*
X106998488Y-95984826D01*
X106998490Y-95984827D01*
X107117398Y-96064279D01*
X107218521Y-96165402D01*
X107218522Y-96165404D01*
X107297974Y-96284312D01*
X107352701Y-96416434D01*
X107380600Y-96556694D01*
X107380600Y-96699706D01*
X107352701Y-96839966D01*
X107297974Y-96972088D01*
X107297973Y-96972090D01*
X107218521Y-97090998D01*
X107117398Y-97192121D01*
X106998490Y-97271573D01*
X106998489Y-97271574D01*
X106998488Y-97271574D01*
X106866366Y-97326301D01*
X106726106Y-97354200D01*
X106583094Y-97354200D01*
X106442834Y-97326301D01*
X106310712Y-97271574D01*
X106310711Y-97271574D01*
X106310710Y-97271573D01*
X106191802Y-97192121D01*
X106090679Y-97090998D01*
X106011227Y-96972090D01*
X106011226Y-96972088D01*
X105956499Y-96839966D01*
X105928600Y-96699706D01*
X105928600Y-96556694D01*
X105956499Y-96416434D01*
X106011226Y-96284312D01*
X106090678Y-96165404D01*
X106090679Y-96165402D01*
X106191802Y-96064279D01*
X106310710Y-95984827D01*
X106310712Y-95984826D01*
X106442834Y-95930099D01*
X106583094Y-95902200D01*
X106726106Y-95902200D01*
X106866366Y-95930099D01*
G37*
G36*
X180889787Y-89533462D02*
G01*
X181028314Y-89590842D01*
X181536029Y-89801144D01*
X182117631Y-90189758D01*
X182612242Y-90684369D01*
X183000856Y-91265971D01*
X183089460Y-91479880D01*
X183268538Y-91912213D01*
X183405000Y-92598256D01*
X183405000Y-93297744D01*
X183268538Y-93983787D01*
X183235197Y-94064279D01*
X183000856Y-94630029D01*
X182612242Y-95211631D01*
X182117631Y-95706242D01*
X181536029Y-96094856D01*
X181079068Y-96284135D01*
X180889787Y-96362538D01*
X180203744Y-96499000D01*
X179504256Y-96499000D01*
X178818213Y-96362538D01*
X178628932Y-96284135D01*
X178171971Y-96094856D01*
X177590369Y-95706242D01*
X177095758Y-95211631D01*
X176707144Y-94630029D01*
X176472803Y-94064279D01*
X176439462Y-93983787D01*
X176303000Y-93297744D01*
X176303000Y-92598256D01*
X176439462Y-91912213D01*
X176618540Y-91479880D01*
X176707144Y-91265971D01*
X177095758Y-90684369D01*
X177590369Y-90189758D01*
X178171971Y-89801144D01*
X178679686Y-89590842D01*
X178818213Y-89533462D01*
X179504256Y-89397000D01*
X180203744Y-89397000D01*
X180889787Y-89533462D01*
G37*
G36*
X121356083Y-94427634D02*
G01*
X121393472Y-94438976D01*
X121427926Y-94457391D01*
X121458125Y-94482175D01*
X121482909Y-94512374D01*
X121501324Y-94546828D01*
X121512666Y-94584217D01*
X121517100Y-94629235D01*
X121517100Y-95769165D01*
X121512666Y-95814183D01*
X121501324Y-95851572D01*
X121482909Y-95886026D01*
X121458125Y-95916225D01*
X121427926Y-95941009D01*
X121393472Y-95959424D01*
X121356083Y-95970766D01*
X121311065Y-95975200D01*
X120446135Y-95975200D01*
X120401117Y-95970766D01*
X120363728Y-95959424D01*
X120329274Y-95941009D01*
X120299075Y-95916225D01*
X120274291Y-95886026D01*
X120255876Y-95851572D01*
X120244534Y-95814183D01*
X120240100Y-95769165D01*
X120240100Y-94629235D01*
X120244534Y-94584217D01*
X120255876Y-94546828D01*
X120274291Y-94512374D01*
X120299075Y-94482175D01*
X120329274Y-94457391D01*
X120363728Y-94438976D01*
X120401117Y-94427634D01*
X120446135Y-94423200D01*
X121311065Y-94423200D01*
X121356083Y-94427634D01*
G37*
G36*
X123431083Y-94427634D02*
G01*
X123468472Y-94438976D01*
X123502926Y-94457391D01*
X123533125Y-94482175D01*
X123557909Y-94512374D01*
X123576324Y-94546828D01*
X123587666Y-94584217D01*
X123592100Y-94629235D01*
X123592100Y-95769165D01*
X123587666Y-95814183D01*
X123576324Y-95851572D01*
X123557909Y-95886026D01*
X123533125Y-95916225D01*
X123502926Y-95941009D01*
X123468472Y-95959424D01*
X123431083Y-95970766D01*
X123386065Y-95975200D01*
X122521135Y-95975200D01*
X122476117Y-95970766D01*
X122438728Y-95959424D01*
X122404274Y-95941009D01*
X122374075Y-95916225D01*
X122349291Y-95886026D01*
X122330876Y-95851572D01*
X122319534Y-95814183D01*
X122315100Y-95769165D01*
X122315100Y-94629235D01*
X122319534Y-94584217D01*
X122330876Y-94546828D01*
X122349291Y-94512374D01*
X122374075Y-94482175D01*
X122404274Y-94457391D01*
X122438728Y-94438976D01*
X122476117Y-94427634D01*
X122521135Y-94423200D01*
X123386065Y-94423200D01*
X123431083Y-94427634D01*
G37*
G36*
X106866366Y-93930099D02*
G01*
X106995984Y-93983789D01*
X106998490Y-93984827D01*
X107117398Y-94064279D01*
X107218521Y-94165402D01*
X107218522Y-94165404D01*
X107297974Y-94284312D01*
X107352701Y-94416434D01*
X107380600Y-94556694D01*
X107380600Y-94699706D01*
X107352701Y-94839966D01*
X107297974Y-94972088D01*
X107297973Y-94972090D01*
X107218521Y-95090998D01*
X107117398Y-95192121D01*
X106998490Y-95271573D01*
X106998489Y-95271574D01*
X106998488Y-95271574D01*
X106866366Y-95326301D01*
X106726106Y-95354200D01*
X106583094Y-95354200D01*
X106442834Y-95326301D01*
X106310712Y-95271574D01*
X106310711Y-95271574D01*
X106310710Y-95271573D01*
X106191802Y-95192121D01*
X106090679Y-95090998D01*
X106011227Y-94972090D01*
X106011226Y-94972088D01*
X105956499Y-94839966D01*
X105928600Y-94699706D01*
X105928600Y-94556694D01*
X105956499Y-94416434D01*
X106011226Y-94284312D01*
X106090678Y-94165404D01*
X106090679Y-94165402D01*
X106191802Y-94064279D01*
X106310710Y-93984827D01*
X106313216Y-93983789D01*
X106442834Y-93930099D01*
X106583094Y-93902200D01*
X106726106Y-93902200D01*
X106866366Y-93930099D01*
G37*
G36*
X105380600Y-95354200D02*
G01*
X103928600Y-95354200D01*
X103928600Y-93902200D01*
X105380600Y-93902200D01*
X105380600Y-95354200D01*
G37*
G36*
X154104483Y-93665634D02*
G01*
X154141872Y-93676976D01*
X154176326Y-93695391D01*
X154206525Y-93720175D01*
X154231309Y-93750374D01*
X154249724Y-93784828D01*
X154261066Y-93822217D01*
X154265500Y-93867235D01*
X154265500Y-95007165D01*
X154261066Y-95052183D01*
X154249724Y-95089572D01*
X154231309Y-95124026D01*
X154206525Y-95154225D01*
X154176326Y-95179009D01*
X154141872Y-95197424D01*
X154104483Y-95208766D01*
X154059465Y-95213200D01*
X153194535Y-95213200D01*
X153149517Y-95208766D01*
X153112128Y-95197424D01*
X153077674Y-95179009D01*
X153047475Y-95154225D01*
X153022691Y-95124026D01*
X153004276Y-95089572D01*
X152992934Y-95052183D01*
X152988500Y-95007165D01*
X152988500Y-93867235D01*
X152992934Y-93822217D01*
X153004276Y-93784828D01*
X153022691Y-93750374D01*
X153047475Y-93720175D01*
X153077674Y-93695391D01*
X153112128Y-93676976D01*
X153149517Y-93665634D01*
X153194535Y-93661200D01*
X154059465Y-93661200D01*
X154104483Y-93665634D01*
G37*
G36*
X156179483Y-93665634D02*
G01*
X156216872Y-93676976D01*
X156251326Y-93695391D01*
X156281525Y-93720175D01*
X156306309Y-93750374D01*
X156324724Y-93784828D01*
X156336066Y-93822217D01*
X156340500Y-93867235D01*
X156340500Y-95007165D01*
X156336066Y-95052183D01*
X156324724Y-95089572D01*
X156306309Y-95124026D01*
X156281525Y-95154225D01*
X156251326Y-95179009D01*
X156216872Y-95197424D01*
X156179483Y-95208766D01*
X156134465Y-95213200D01*
X155269535Y-95213200D01*
X155224517Y-95208766D01*
X155187128Y-95197424D01*
X155152674Y-95179009D01*
X155122475Y-95154225D01*
X155097691Y-95124026D01*
X155079276Y-95089572D01*
X155067934Y-95052183D01*
X155063500Y-95007165D01*
X155063500Y-93867235D01*
X155067934Y-93822217D01*
X155079276Y-93784828D01*
X155097691Y-93750374D01*
X155122475Y-93720175D01*
X155152674Y-93695391D01*
X155187128Y-93676976D01*
X155224517Y-93665634D01*
X155269535Y-93661200D01*
X156134465Y-93661200D01*
X156179483Y-93665634D01*
G37*
G36*
X159989483Y-93665634D02*
G01*
X160026872Y-93676976D01*
X160061326Y-93695391D01*
X160091525Y-93720175D01*
X160116309Y-93750374D01*
X160134724Y-93784828D01*
X160146066Y-93822217D01*
X160150500Y-93867235D01*
X160150500Y-95007165D01*
X160146066Y-95052183D01*
X160134724Y-95089572D01*
X160116309Y-95124026D01*
X160091525Y-95154225D01*
X160061326Y-95179009D01*
X160026872Y-95197424D01*
X159989483Y-95208766D01*
X159944465Y-95213200D01*
X159079535Y-95213200D01*
X159034517Y-95208766D01*
X158997128Y-95197424D01*
X158962674Y-95179009D01*
X158932475Y-95154225D01*
X158907691Y-95124026D01*
X158889276Y-95089572D01*
X158877934Y-95052183D01*
X158873500Y-95007165D01*
X158873500Y-93867235D01*
X158877934Y-93822217D01*
X158889276Y-93784828D01*
X158907691Y-93750374D01*
X158932475Y-93720175D01*
X158962674Y-93695391D01*
X158997128Y-93676976D01*
X159034517Y-93665634D01*
X159079535Y-93661200D01*
X159944465Y-93661200D01*
X159989483Y-93665634D01*
G37*
G36*
X162064483Y-93665634D02*
G01*
X162101872Y-93676976D01*
X162136326Y-93695391D01*
X162166525Y-93720175D01*
X162191309Y-93750374D01*
X162209724Y-93784828D01*
X162221066Y-93822217D01*
X162225500Y-93867235D01*
X162225500Y-95007165D01*
X162221066Y-95052183D01*
X162209724Y-95089572D01*
X162191309Y-95124026D01*
X162166525Y-95154225D01*
X162136326Y-95179009D01*
X162101872Y-95197424D01*
X162064483Y-95208766D01*
X162019465Y-95213200D01*
X161154535Y-95213200D01*
X161109517Y-95208766D01*
X161072128Y-95197424D01*
X161037674Y-95179009D01*
X161007475Y-95154225D01*
X160982691Y-95124026D01*
X160964276Y-95089572D01*
X160952934Y-95052183D01*
X160948500Y-95007165D01*
X160948500Y-93867235D01*
X160952934Y-93822217D01*
X160964276Y-93784828D01*
X160982691Y-93750374D01*
X161007475Y-93720175D01*
X161037674Y-93695391D01*
X161072128Y-93676976D01*
X161109517Y-93665634D01*
X161154535Y-93661200D01*
X162019465Y-93661200D01*
X162064483Y-93665634D01*
G37*
G36*
X122276800Y-93030200D02*
G01*
X112774800Y-93030200D01*
X112774800Y-82128200D01*
X122276800Y-82128200D01*
X122276800Y-93030200D01*
G37*
G36*
X129026800Y-91840200D02*
G01*
X124324800Y-91840200D01*
X124324800Y-90938200D01*
X129026800Y-90938200D01*
X129026800Y-91840200D01*
G37*
G36*
X133265601Y-90182284D02*
G01*
X133302698Y-90193537D01*
X133336879Y-90211807D01*
X133366843Y-90236397D01*
X133391433Y-90266361D01*
X133409703Y-90300542D01*
X133420956Y-90337639D01*
X133425360Y-90382353D01*
X133425360Y-91275407D01*
X133420956Y-91320121D01*
X133409703Y-91357218D01*
X133391433Y-91391399D01*
X133366843Y-91421363D01*
X133336879Y-91445953D01*
X133302698Y-91464223D01*
X133265601Y-91475476D01*
X133220887Y-91479880D01*
X132127833Y-91479880D01*
X132083119Y-91475476D01*
X132046022Y-91464223D01*
X132011841Y-91445953D01*
X131981877Y-91421363D01*
X131957287Y-91391399D01*
X131939017Y-91357218D01*
X131927764Y-91320121D01*
X131923360Y-91275407D01*
X131923360Y-90382353D01*
X131927764Y-90337639D01*
X131939017Y-90300542D01*
X131957287Y-90266361D01*
X131981877Y-90236397D01*
X132011841Y-90211807D01*
X132046022Y-90193537D01*
X132083119Y-90182284D01*
X132127833Y-90177880D01*
X133220887Y-90177880D01*
X133265601Y-90182284D01*
G37*
G36*
X135803061Y-90143164D02*
G01*
X135840158Y-90154417D01*
X135874339Y-90172687D01*
X135904303Y-90197277D01*
X135928893Y-90227241D01*
X135947163Y-90261422D01*
X135958416Y-90298519D01*
X135962820Y-90343233D01*
X135962820Y-91236287D01*
X135958416Y-91281001D01*
X135947163Y-91318098D01*
X135928893Y-91352279D01*
X135904303Y-91382243D01*
X135874339Y-91406833D01*
X135840158Y-91425103D01*
X135803061Y-91436356D01*
X135758347Y-91440760D01*
X134665293Y-91440760D01*
X134620579Y-91436356D01*
X134583482Y-91425103D01*
X134549301Y-91406833D01*
X134519337Y-91382243D01*
X134494747Y-91352279D01*
X134476477Y-91318098D01*
X134465224Y-91281001D01*
X134460820Y-91236287D01*
X134460820Y-90343233D01*
X134465224Y-90298519D01*
X134476477Y-90261422D01*
X134494747Y-90227241D01*
X134519337Y-90197277D01*
X134549301Y-90172687D01*
X134583482Y-90154417D01*
X134620579Y-90143164D01*
X134665293Y-90138760D01*
X135758347Y-90138760D01*
X135803061Y-90143164D01*
G37*
G36*
X129026800Y-90570200D02*
G01*
X124324800Y-90570200D01*
X124324800Y-89668200D01*
X129026800Y-89668200D01*
X129026800Y-90570200D01*
G37*
G36*
X159999642Y-88586981D02*
G01*
X160145414Y-88647362D01*
X160145416Y-88647363D01*
X160276608Y-88735022D01*
X160388178Y-88846592D01*
X160475837Y-88977784D01*
X160475838Y-88977786D01*
X160536219Y-89123558D01*
X160567000Y-89278307D01*
X160567000Y-89436093D01*
X160536219Y-89590842D01*
X160475838Y-89736614D01*
X160475837Y-89736616D01*
X160388178Y-89867808D01*
X160276608Y-89979378D01*
X160145416Y-90067037D01*
X160145415Y-90067038D01*
X160145414Y-90067038D01*
X159999642Y-90127419D01*
X159844893Y-90158200D01*
X159687107Y-90158200D01*
X159532358Y-90127419D01*
X159386586Y-90067038D01*
X159386585Y-90067038D01*
X159386584Y-90067037D01*
X159255392Y-89979378D01*
X159143822Y-89867808D01*
X159056163Y-89736616D01*
X159056162Y-89736614D01*
X158995781Y-89590842D01*
X158965000Y-89436093D01*
X158965000Y-89278307D01*
X158995781Y-89123558D01*
X159056162Y-88977786D01*
X159056163Y-88977784D01*
X159143822Y-88846592D01*
X159255392Y-88735022D01*
X159386584Y-88647363D01*
X159386586Y-88647362D01*
X159532358Y-88586981D01*
X159687107Y-88556200D01*
X159844893Y-88556200D01*
X159999642Y-88586981D01*
G37*
G36*
X155119642Y-88586981D02*
G01*
X155265414Y-88647362D01*
X155265416Y-88647363D01*
X155396608Y-88735022D01*
X155508178Y-88846592D01*
X155595837Y-88977784D01*
X155595838Y-88977786D01*
X155656219Y-89123558D01*
X155687000Y-89278307D01*
X155687000Y-89436093D01*
X155656219Y-89590842D01*
X155595838Y-89736614D01*
X155595837Y-89736616D01*
X155508178Y-89867808D01*
X155396608Y-89979378D01*
X155265416Y-90067037D01*
X155265415Y-90067038D01*
X155265414Y-90067038D01*
X155119642Y-90127419D01*
X154964893Y-90158200D01*
X154807107Y-90158200D01*
X154652358Y-90127419D01*
X154506586Y-90067038D01*
X154506585Y-90067038D01*
X154506584Y-90067037D01*
X154375392Y-89979378D01*
X154263822Y-89867808D01*
X154176163Y-89736616D01*
X154176162Y-89736614D01*
X154115781Y-89590842D01*
X154085000Y-89436093D01*
X154085000Y-89278307D01*
X154115781Y-89123558D01*
X154176162Y-88977786D01*
X154176163Y-88977784D01*
X154263822Y-88846592D01*
X154375392Y-88735022D01*
X154506584Y-88647363D01*
X154506586Y-88647362D01*
X154652358Y-88586981D01*
X154807107Y-88556200D01*
X154964893Y-88556200D01*
X155119642Y-88586981D01*
G37*
G36*
X176013483Y-88163234D02*
G01*
X176050872Y-88174576D01*
X176085326Y-88192991D01*
X176115525Y-88217775D01*
X176140309Y-88247974D01*
X176158724Y-88282428D01*
X176170066Y-88319817D01*
X176174500Y-88364835D01*
X176174500Y-89504765D01*
X176170066Y-89549783D01*
X176158724Y-89587172D01*
X176140309Y-89621626D01*
X176115525Y-89651825D01*
X176085326Y-89676609D01*
X176050872Y-89695024D01*
X176013483Y-89706366D01*
X175968465Y-89710800D01*
X175103535Y-89710800D01*
X175058517Y-89706366D01*
X175021128Y-89695024D01*
X174986674Y-89676609D01*
X174956475Y-89651825D01*
X174931691Y-89621626D01*
X174913276Y-89587172D01*
X174901934Y-89549783D01*
X174897500Y-89504765D01*
X174897500Y-88364835D01*
X174901934Y-88319817D01*
X174913276Y-88282428D01*
X174931691Y-88247974D01*
X174956475Y-88217775D01*
X174986674Y-88192991D01*
X175021128Y-88174576D01*
X175058517Y-88163234D01*
X175103535Y-88158800D01*
X175968465Y-88158800D01*
X176013483Y-88163234D01*
G37*
G36*
X173938483Y-88163234D02*
G01*
X173975872Y-88174576D01*
X174010326Y-88192991D01*
X174040525Y-88217775D01*
X174065309Y-88247974D01*
X174083724Y-88282428D01*
X174095066Y-88319817D01*
X174099500Y-88364835D01*
X174099500Y-89504765D01*
X174095066Y-89549783D01*
X174083724Y-89587172D01*
X174065309Y-89621626D01*
X174040525Y-89651825D01*
X174010326Y-89676609D01*
X173975872Y-89695024D01*
X173938483Y-89706366D01*
X173893465Y-89710800D01*
X173028535Y-89710800D01*
X172983517Y-89706366D01*
X172946128Y-89695024D01*
X172911674Y-89676609D01*
X172881475Y-89651825D01*
X172856691Y-89621626D01*
X172838276Y-89587172D01*
X172826934Y-89549783D01*
X172822500Y-89504765D01*
X172822500Y-88364835D01*
X172826934Y-88319817D01*
X172838276Y-88282428D01*
X172856691Y-88247974D01*
X172881475Y-88217775D01*
X172911674Y-88192991D01*
X172946128Y-88174576D01*
X172983517Y-88163234D01*
X173028535Y-88158800D01*
X173893465Y-88158800D01*
X173938483Y-88163234D01*
G37*
G36*
X133265601Y-88182284D02*
G01*
X133302698Y-88193537D01*
X133336879Y-88211807D01*
X133366843Y-88236397D01*
X133391433Y-88266361D01*
X133409703Y-88300542D01*
X133420956Y-88337639D01*
X133425360Y-88382353D01*
X133425360Y-89275407D01*
X133420956Y-89320121D01*
X133409703Y-89357218D01*
X133391433Y-89391399D01*
X133366843Y-89421363D01*
X133336879Y-89445953D01*
X133302698Y-89464223D01*
X133265601Y-89475476D01*
X133220887Y-89479880D01*
X132127833Y-89479880D01*
X132083119Y-89475476D01*
X132046022Y-89464223D01*
X132011841Y-89445953D01*
X131981877Y-89421363D01*
X131957287Y-89391399D01*
X131939017Y-89357218D01*
X131927764Y-89320121D01*
X131923360Y-89275407D01*
X131923360Y-88382353D01*
X131927764Y-88337639D01*
X131939017Y-88300542D01*
X131957287Y-88266361D01*
X131981877Y-88236397D01*
X132011841Y-88211807D01*
X132046022Y-88193537D01*
X132083119Y-88182284D01*
X132127833Y-88177880D01*
X133220887Y-88177880D01*
X133265601Y-88182284D01*
G37*
G36*
X135803061Y-88143164D02*
G01*
X135840158Y-88154417D01*
X135874339Y-88172687D01*
X135904303Y-88197277D01*
X135928893Y-88227241D01*
X135947163Y-88261422D01*
X135958416Y-88298519D01*
X135962820Y-88343233D01*
X135962820Y-89236287D01*
X135958416Y-89281001D01*
X135947163Y-89318098D01*
X135928893Y-89352279D01*
X135904303Y-89382243D01*
X135874339Y-89406833D01*
X135840158Y-89425103D01*
X135803061Y-89436356D01*
X135758347Y-89440760D01*
X134665293Y-89440760D01*
X134620579Y-89436356D01*
X134583482Y-89425103D01*
X134549301Y-89406833D01*
X134519337Y-89382243D01*
X134494747Y-89352279D01*
X134476477Y-89318098D01*
X134465224Y-89281001D01*
X134460820Y-89236287D01*
X134460820Y-88343233D01*
X134465224Y-88298519D01*
X134476477Y-88261422D01*
X134494747Y-88227241D01*
X134519337Y-88197277D01*
X134549301Y-88172687D01*
X134583482Y-88154417D01*
X134620579Y-88143164D01*
X134665293Y-88138760D01*
X135758347Y-88138760D01*
X135803061Y-88143164D01*
G37*
G36*
X129026800Y-89300200D02*
G01*
X124324800Y-89300200D01*
X124324800Y-88398200D01*
X129026800Y-88398200D01*
X129026800Y-89300200D01*
G37*
G36*
X106889787Y-81083462D02*
G01*
X106889790Y-81083463D01*
X106889789Y-81083463D01*
X107536029Y-81351144D01*
X108117631Y-81739758D01*
X108612242Y-82234369D01*
X109000856Y-82815971D01*
X109000856Y-82815972D01*
X109268538Y-83462213D01*
X109405000Y-84148256D01*
X109405000Y-84847744D01*
X109268538Y-85533787D01*
X109268537Y-85533789D01*
X109000856Y-86180029D01*
X108612242Y-86761631D01*
X108117631Y-87256242D01*
X107536029Y-87644856D01*
X107079068Y-87834135D01*
X106889787Y-87912538D01*
X106203744Y-88049000D01*
X105504256Y-88049000D01*
X104818213Y-87912538D01*
X104628932Y-87834135D01*
X104171971Y-87644856D01*
X103590369Y-87256242D01*
X103095758Y-86761631D01*
X102707144Y-86180029D01*
X102439463Y-85533789D01*
X102439462Y-85533787D01*
X102303000Y-84847744D01*
X102303000Y-84148256D01*
X102439462Y-83462213D01*
X102707144Y-82815972D01*
X102707144Y-82815971D01*
X103095758Y-82234369D01*
X103590369Y-81739758D01*
X104171971Y-81351144D01*
X104818211Y-81083463D01*
X104818210Y-81083463D01*
X104818213Y-81083462D01*
X105504256Y-80947000D01*
X106203744Y-80947000D01*
X106889787Y-81083462D01*
G37*
G36*
X129026800Y-88030200D02*
G01*
X124324800Y-88030200D01*
X124324800Y-87128200D01*
X129026800Y-87128200D01*
X129026800Y-88030200D01*
G37*
G36*
X143825962Y-84964981D02*
G01*
X143860881Y-84975574D01*
X143893063Y-84992776D01*
X143921273Y-85015927D01*
X143944424Y-85044137D01*
X143961626Y-85076319D01*
X143972219Y-85111238D01*
X143976400Y-85153695D01*
X143976400Y-86619905D01*
X143972219Y-86662362D01*
X143961626Y-86697281D01*
X143944424Y-86729463D01*
X143921273Y-86757673D01*
X143893063Y-86780824D01*
X143860881Y-86798026D01*
X143825962Y-86808619D01*
X143783505Y-86812800D01*
X142642295Y-86812800D01*
X142599838Y-86808619D01*
X142564919Y-86798026D01*
X142532737Y-86780824D01*
X142504527Y-86757673D01*
X142481376Y-86729463D01*
X142464174Y-86697281D01*
X142453581Y-86662362D01*
X142449400Y-86619905D01*
X142449400Y-85153695D01*
X142453581Y-85111238D01*
X142464174Y-85076319D01*
X142481376Y-85044137D01*
X142504527Y-85015927D01*
X142532737Y-84992776D01*
X142564919Y-84975574D01*
X142599838Y-84964981D01*
X142642295Y-84960800D01*
X143783505Y-84960800D01*
X143825962Y-84964981D01*
G37*
G36*
X146800962Y-84964981D02*
G01*
X146835881Y-84975574D01*
X146868063Y-84992776D01*
X146896273Y-85015927D01*
X146919424Y-85044137D01*
X146936626Y-85076319D01*
X146947219Y-85111238D01*
X146951400Y-85153695D01*
X146951400Y-86619905D01*
X146947219Y-86662362D01*
X146936626Y-86697281D01*
X146919424Y-86729463D01*
X146896273Y-86757673D01*
X146868063Y-86780824D01*
X146835881Y-86798026D01*
X146800962Y-86808619D01*
X146758505Y-86812800D01*
X145617295Y-86812800D01*
X145574838Y-86808619D01*
X145539919Y-86798026D01*
X145507737Y-86780824D01*
X145479527Y-86757673D01*
X145456376Y-86729463D01*
X145439174Y-86697281D01*
X145428581Y-86662362D01*
X145424400Y-86619905D01*
X145424400Y-85153695D01*
X145428581Y-85111238D01*
X145439174Y-85076319D01*
X145456376Y-85044137D01*
X145479527Y-85015927D01*
X145507737Y-84992776D01*
X145539919Y-84975574D01*
X145574838Y-84964981D01*
X145617295Y-84960800D01*
X146758505Y-84960800D01*
X146800962Y-84964981D01*
G37*
G36*
X129026800Y-86760200D02*
G01*
X124324800Y-86760200D01*
X124324800Y-85858200D01*
X129026800Y-85858200D01*
X129026800Y-86760200D01*
G37*
G36*
X131780583Y-85390474D02*
G01*
X131817972Y-85401816D01*
X131852426Y-85420231D01*
X131882625Y-85445015D01*
X131907409Y-85475214D01*
X131925824Y-85509668D01*
X131937166Y-85547057D01*
X131941600Y-85592075D01*
X131941600Y-86457005D01*
X131937166Y-86502023D01*
X131925824Y-86539412D01*
X131907409Y-86573866D01*
X131882625Y-86604065D01*
X131852426Y-86628849D01*
X131817972Y-86647264D01*
X131780583Y-86658606D01*
X131735565Y-86663040D01*
X130595635Y-86663040D01*
X130550617Y-86658606D01*
X130513228Y-86647264D01*
X130478774Y-86628849D01*
X130448575Y-86604065D01*
X130423791Y-86573866D01*
X130405376Y-86539412D01*
X130394034Y-86502023D01*
X130389600Y-86457005D01*
X130389600Y-85592075D01*
X130394034Y-85547057D01*
X130405376Y-85509668D01*
X130423791Y-85475214D01*
X130448575Y-85445015D01*
X130478774Y-85420231D01*
X130513228Y-85401816D01*
X130550617Y-85390474D01*
X130595635Y-85386040D01*
X131735565Y-85386040D01*
X131780583Y-85390474D01*
G37*
G36*
X176281928Y-84585964D02*
G01*
X176303009Y-84592360D01*
X176322445Y-84602748D01*
X176339476Y-84616724D01*
X176353452Y-84633755D01*
X176363840Y-84653191D01*
X176370236Y-84674272D01*
X176373000Y-84702340D01*
X176373000Y-86516060D01*
X176370236Y-86544128D01*
X176363840Y-86565209D01*
X176353452Y-86584645D01*
X176339476Y-86601676D01*
X176322445Y-86615652D01*
X176303009Y-86626040D01*
X176281928Y-86632436D01*
X176253860Y-86635200D01*
X175790140Y-86635200D01*
X175762072Y-86632436D01*
X175740991Y-86626040D01*
X175721555Y-86615652D01*
X175704524Y-86601676D01*
X175690548Y-86584645D01*
X175680160Y-86565209D01*
X175673764Y-86544128D01*
X175671000Y-86516060D01*
X175671000Y-84702340D01*
X175673764Y-84674272D01*
X175680160Y-84653191D01*
X175690548Y-84633755D01*
X175704524Y-84616724D01*
X175721555Y-84602748D01*
X175740991Y-84592360D01*
X175762072Y-84585964D01*
X175790140Y-84583200D01*
X176253860Y-84583200D01*
X176281928Y-84585964D01*
G37*
G36*
X175011928Y-84585964D02*
G01*
X175033009Y-84592360D01*
X175052445Y-84602748D01*
X175069476Y-84616724D01*
X175083452Y-84633755D01*
X175093840Y-84653191D01*
X175100236Y-84674272D01*
X175103000Y-84702340D01*
X175103000Y-86516060D01*
X175100236Y-86544128D01*
X175093840Y-86565209D01*
X175083452Y-86584645D01*
X175069476Y-86601676D01*
X175052445Y-86615652D01*
X175033009Y-86626040D01*
X175011928Y-86632436D01*
X174983860Y-86635200D01*
X174520140Y-86635200D01*
X174492072Y-86632436D01*
X174470991Y-86626040D01*
X174451555Y-86615652D01*
X174434524Y-86601676D01*
X174420548Y-86584645D01*
X174410160Y-86565209D01*
X174403764Y-86544128D01*
X174401000Y-86516060D01*
X174401000Y-84702340D01*
X174403764Y-84674272D01*
X174410160Y-84653191D01*
X174420548Y-84633755D01*
X174434524Y-84616724D01*
X174451555Y-84602748D01*
X174470991Y-84592360D01*
X174492072Y-84585964D01*
X174520140Y-84583200D01*
X174983860Y-84583200D01*
X175011928Y-84585964D01*
G37*
G36*
X172471928Y-84585964D02*
G01*
X172493009Y-84592360D01*
X172512445Y-84602748D01*
X172529476Y-84616724D01*
X172543452Y-84633755D01*
X172553840Y-84653191D01*
X172560236Y-84674272D01*
X172563000Y-84702340D01*
X172563000Y-86516060D01*
X172560236Y-86544128D01*
X172553840Y-86565209D01*
X172543452Y-86584645D01*
X172529476Y-86601676D01*
X172512445Y-86615652D01*
X172493009Y-86626040D01*
X172471928Y-86632436D01*
X172443860Y-86635200D01*
X171980140Y-86635200D01*
X171952072Y-86632436D01*
X171930991Y-86626040D01*
X171911555Y-86615652D01*
X171894524Y-86601676D01*
X171880548Y-86584645D01*
X171870160Y-86565209D01*
X171863764Y-86544128D01*
X171861000Y-86516060D01*
X171861000Y-84702340D01*
X171863764Y-84674272D01*
X171870160Y-84653191D01*
X171880548Y-84633755D01*
X171894524Y-84616724D01*
X171911555Y-84602748D01*
X171930991Y-84592360D01*
X171952072Y-84585964D01*
X171980140Y-84583200D01*
X172443860Y-84583200D01*
X172471928Y-84585964D01*
G37*
G36*
X173741928Y-84585964D02*
G01*
X173763009Y-84592360D01*
X173782445Y-84602748D01*
X173799476Y-84616724D01*
X173813452Y-84633755D01*
X173823840Y-84653191D01*
X173830236Y-84674272D01*
X173833000Y-84702340D01*
X173833000Y-86516060D01*
X173830236Y-86544128D01*
X173823840Y-86565209D01*
X173813452Y-86584645D01*
X173799476Y-86601676D01*
X173782445Y-86615652D01*
X173763009Y-86626040D01*
X173741928Y-86632436D01*
X173713860Y-86635200D01*
X173250140Y-86635200D01*
X173222072Y-86632436D01*
X173200991Y-86626040D01*
X173181555Y-86615652D01*
X173164524Y-86601676D01*
X173150548Y-86584645D01*
X173140160Y-86565209D01*
X173133764Y-86544128D01*
X173131000Y-86516060D01*
X173131000Y-84702340D01*
X173133764Y-84674272D01*
X173140160Y-84653191D01*
X173150548Y-84633755D01*
X173164524Y-84616724D01*
X173181555Y-84602748D01*
X173200991Y-84592360D01*
X173222072Y-84585964D01*
X173250140Y-84583200D01*
X173713860Y-84583200D01*
X173741928Y-84585964D01*
G37*
G36*
X129026800Y-85490200D02*
G01*
X124324800Y-85490200D01*
X124324800Y-84588200D01*
X129026800Y-84588200D01*
X129026800Y-85490200D01*
G37*
G36*
X131780583Y-83315474D02*
G01*
X131817972Y-83326816D01*
X131852426Y-83345231D01*
X131882625Y-83370015D01*
X131907409Y-83400214D01*
X131925824Y-83434668D01*
X131937166Y-83472057D01*
X131941600Y-83517075D01*
X131941600Y-84382005D01*
X131937166Y-84427023D01*
X131925824Y-84464412D01*
X131907409Y-84498866D01*
X131882625Y-84529065D01*
X131852426Y-84553849D01*
X131817972Y-84572264D01*
X131780583Y-84583606D01*
X131735565Y-84588040D01*
X130595635Y-84588040D01*
X130550617Y-84583606D01*
X130513228Y-84572264D01*
X130478774Y-84553849D01*
X130448575Y-84529065D01*
X130423791Y-84498866D01*
X130405376Y-84464412D01*
X130394034Y-84427023D01*
X130389600Y-84382005D01*
X130389600Y-83517075D01*
X130394034Y-83472057D01*
X130405376Y-83434668D01*
X130423791Y-83400214D01*
X130448575Y-83370015D01*
X130478774Y-83345231D01*
X130513228Y-83326816D01*
X130550617Y-83315474D01*
X130595635Y-83311040D01*
X131735565Y-83311040D01*
X131780583Y-83315474D01*
G37*
G36*
X129026800Y-84220200D02*
G01*
X124324800Y-84220200D01*
X124324800Y-83318200D01*
X129026800Y-83318200D01*
X129026800Y-84220200D01*
G37*
G36*
X162565928Y-82011964D02*
G01*
X162587009Y-82018360D01*
X162606445Y-82028748D01*
X162623476Y-82042724D01*
X162637452Y-82059755D01*
X162647840Y-82079191D01*
X162654236Y-82100272D01*
X162657000Y-82128340D01*
X162657000Y-84042060D01*
X162654236Y-84070128D01*
X162647840Y-84091209D01*
X162637452Y-84110645D01*
X162623476Y-84127676D01*
X162606445Y-84141652D01*
X162587009Y-84152040D01*
X162565928Y-84158436D01*
X162537860Y-84161200D01*
X162074140Y-84161200D01*
X162046072Y-84158436D01*
X162024991Y-84152040D01*
X162005555Y-84141652D01*
X161988524Y-84127676D01*
X161974548Y-84110645D01*
X161964160Y-84091209D01*
X161957764Y-84070128D01*
X161955000Y-84042060D01*
X161955000Y-82128340D01*
X161957764Y-82100272D01*
X161964160Y-82079191D01*
X161974548Y-82059755D01*
X161988524Y-82042724D01*
X162005555Y-82028748D01*
X162024991Y-82018360D01*
X162046072Y-82011964D01*
X162074140Y-82009200D01*
X162537860Y-82009200D01*
X162565928Y-82011964D01*
G37*
G36*
X163835928Y-82011964D02*
G01*
X163857009Y-82018360D01*
X163876445Y-82028748D01*
X163893476Y-82042724D01*
X163907452Y-82059755D01*
X163917840Y-82079191D01*
X163924236Y-82100272D01*
X163927000Y-82128340D01*
X163927000Y-84042060D01*
X163924236Y-84070128D01*
X163917840Y-84091209D01*
X163907452Y-84110645D01*
X163893476Y-84127676D01*
X163876445Y-84141652D01*
X163857009Y-84152040D01*
X163835928Y-84158436D01*
X163807860Y-84161200D01*
X163344140Y-84161200D01*
X163316072Y-84158436D01*
X163294991Y-84152040D01*
X163275555Y-84141652D01*
X163258524Y-84127676D01*
X163244548Y-84110645D01*
X163234160Y-84091209D01*
X163227764Y-84070128D01*
X163225000Y-84042060D01*
X163225000Y-82128340D01*
X163227764Y-82100272D01*
X163234160Y-82079191D01*
X163244548Y-82059755D01*
X163258524Y-82042724D01*
X163275555Y-82028748D01*
X163294991Y-82018360D01*
X163316072Y-82011964D01*
X163344140Y-82009200D01*
X163807860Y-82009200D01*
X163835928Y-82011964D01*
G37*
G36*
X165105928Y-82011964D02*
G01*
X165127009Y-82018360D01*
X165146445Y-82028748D01*
X165163476Y-82042724D01*
X165177452Y-82059755D01*
X165187840Y-82079191D01*
X165194236Y-82100272D01*
X165197000Y-82128340D01*
X165197000Y-84042060D01*
X165194236Y-84070128D01*
X165187840Y-84091209D01*
X165177452Y-84110645D01*
X165163476Y-84127676D01*
X165146445Y-84141652D01*
X165127009Y-84152040D01*
X165105928Y-84158436D01*
X165077860Y-84161200D01*
X164614140Y-84161200D01*
X164586072Y-84158436D01*
X164564991Y-84152040D01*
X164545555Y-84141652D01*
X164528524Y-84127676D01*
X164514548Y-84110645D01*
X164504160Y-84091209D01*
X164497764Y-84070128D01*
X164495000Y-84042060D01*
X164495000Y-82128340D01*
X164497764Y-82100272D01*
X164504160Y-82079191D01*
X164514548Y-82059755D01*
X164528524Y-82042724D01*
X164545555Y-82028748D01*
X164564991Y-82018360D01*
X164586072Y-82011964D01*
X164614140Y-82009200D01*
X165077860Y-82009200D01*
X165105928Y-82011964D01*
G37*
G36*
X161295928Y-82011964D02*
G01*
X161317009Y-82018360D01*
X161336445Y-82028748D01*
X161353476Y-82042724D01*
X161367452Y-82059755D01*
X161377840Y-82079191D01*
X161384236Y-82100272D01*
X161387000Y-82128340D01*
X161387000Y-84042060D01*
X161384236Y-84070128D01*
X161377840Y-84091209D01*
X161367452Y-84110645D01*
X161353476Y-84127676D01*
X161336445Y-84141652D01*
X161317009Y-84152040D01*
X161295928Y-84158436D01*
X161267860Y-84161200D01*
X160804140Y-84161200D01*
X160776072Y-84158436D01*
X160754991Y-84152040D01*
X160735555Y-84141652D01*
X160718524Y-84127676D01*
X160704548Y-84110645D01*
X160694160Y-84091209D01*
X160687764Y-84070128D01*
X160685000Y-84042060D01*
X160685000Y-82128340D01*
X160687764Y-82100272D01*
X160694160Y-82079191D01*
X160704548Y-82059755D01*
X160718524Y-82042724D01*
X160735555Y-82028748D01*
X160754991Y-82018360D01*
X160776072Y-82011964D01*
X160804140Y-82009200D01*
X161267860Y-82009200D01*
X161295928Y-82011964D01*
G37*
G36*
X158755928Y-82011964D02*
G01*
X158777009Y-82018360D01*
X158796445Y-82028748D01*
X158813476Y-82042724D01*
X158827452Y-82059755D01*
X158837840Y-82079191D01*
X158844236Y-82100272D01*
X158847000Y-82128340D01*
X158847000Y-84042060D01*
X158844236Y-84070128D01*
X158837840Y-84091209D01*
X158827452Y-84110645D01*
X158813476Y-84127676D01*
X158796445Y-84141652D01*
X158777009Y-84152040D01*
X158755928Y-84158436D01*
X158727860Y-84161200D01*
X158264140Y-84161200D01*
X158236072Y-84158436D01*
X158214991Y-84152040D01*
X158195555Y-84141652D01*
X158178524Y-84127676D01*
X158164548Y-84110645D01*
X158154160Y-84091209D01*
X158147764Y-84070128D01*
X158145000Y-84042060D01*
X158145000Y-82128340D01*
X158147764Y-82100272D01*
X158154160Y-82079191D01*
X158164548Y-82059755D01*
X158178524Y-82042724D01*
X158195555Y-82028748D01*
X158214991Y-82018360D01*
X158236072Y-82011964D01*
X158264140Y-82009200D01*
X158727860Y-82009200D01*
X158755928Y-82011964D01*
G37*
G36*
X157485928Y-82011964D02*
G01*
X157507009Y-82018360D01*
X157526445Y-82028748D01*
X157543476Y-82042724D01*
X157557452Y-82059755D01*
X157567840Y-82079191D01*
X157574236Y-82100272D01*
X157577000Y-82128340D01*
X157577000Y-84042060D01*
X157574236Y-84070128D01*
X157567840Y-84091209D01*
X157557452Y-84110645D01*
X157543476Y-84127676D01*
X157526445Y-84141652D01*
X157507009Y-84152040D01*
X157485928Y-84158436D01*
X157457860Y-84161200D01*
X156994140Y-84161200D01*
X156966072Y-84158436D01*
X156944991Y-84152040D01*
X156925555Y-84141652D01*
X156908524Y-84127676D01*
X156894548Y-84110645D01*
X156884160Y-84091209D01*
X156877764Y-84070128D01*
X156875000Y-84042060D01*
X156875000Y-82128340D01*
X156877764Y-82100272D01*
X156884160Y-82079191D01*
X156894548Y-82059755D01*
X156908524Y-82042724D01*
X156925555Y-82028748D01*
X156944991Y-82018360D01*
X156966072Y-82011964D01*
X156994140Y-82009200D01*
X157457860Y-82009200D01*
X157485928Y-82011964D01*
G37*
G36*
X156215928Y-82011964D02*
G01*
X156237009Y-82018360D01*
X156256445Y-82028748D01*
X156273476Y-82042724D01*
X156287452Y-82059755D01*
X156297840Y-82079191D01*
X156304236Y-82100272D01*
X156307000Y-82128340D01*
X156307000Y-84042060D01*
X156304236Y-84070128D01*
X156297840Y-84091209D01*
X156287452Y-84110645D01*
X156273476Y-84127676D01*
X156256445Y-84141652D01*
X156237009Y-84152040D01*
X156215928Y-84158436D01*
X156187860Y-84161200D01*
X155724140Y-84161200D01*
X155696072Y-84158436D01*
X155674991Y-84152040D01*
X155655555Y-84141652D01*
X155638524Y-84127676D01*
X155624548Y-84110645D01*
X155614160Y-84091209D01*
X155607764Y-84070128D01*
X155605000Y-84042060D01*
X155605000Y-82128340D01*
X155607764Y-82100272D01*
X155614160Y-82079191D01*
X155624548Y-82059755D01*
X155638524Y-82042724D01*
X155655555Y-82028748D01*
X155674991Y-82018360D01*
X155696072Y-82011964D01*
X155724140Y-82009200D01*
X156187860Y-82009200D01*
X156215928Y-82011964D01*
G37*
G36*
X154945928Y-82011964D02*
G01*
X154967009Y-82018360D01*
X154986445Y-82028748D01*
X155003476Y-82042724D01*
X155017452Y-82059755D01*
X155027840Y-82079191D01*
X155034236Y-82100272D01*
X155037000Y-82128340D01*
X155037000Y-84042060D01*
X155034236Y-84070128D01*
X155027840Y-84091209D01*
X155017452Y-84110645D01*
X155003476Y-84127676D01*
X154986445Y-84141652D01*
X154967009Y-84152040D01*
X154945928Y-84158436D01*
X154917860Y-84161200D01*
X154454140Y-84161200D01*
X154426072Y-84158436D01*
X154404991Y-84152040D01*
X154385555Y-84141652D01*
X154368524Y-84127676D01*
X154354548Y-84110645D01*
X154344160Y-84091209D01*
X154337764Y-84070128D01*
X154335000Y-84042060D01*
X154335000Y-82128340D01*
X154337764Y-82100272D01*
X154344160Y-82079191D01*
X154354548Y-82059755D01*
X154368524Y-82042724D01*
X154385555Y-82028748D01*
X154404991Y-82018360D01*
X154426072Y-82011964D01*
X154454140Y-82009200D01*
X154917860Y-82009200D01*
X154945928Y-82011964D01*
G37*
G36*
X160025928Y-82011964D02*
G01*
X160047009Y-82018360D01*
X160066445Y-82028748D01*
X160083476Y-82042724D01*
X160097452Y-82059755D01*
X160107840Y-82079191D01*
X160114236Y-82100272D01*
X160117000Y-82128340D01*
X160117000Y-84042060D01*
X160114236Y-84070128D01*
X160107840Y-84091209D01*
X160097452Y-84110645D01*
X160083476Y-84127676D01*
X160066445Y-84141652D01*
X160047009Y-84152040D01*
X160025928Y-84158436D01*
X159997860Y-84161200D01*
X159534140Y-84161200D01*
X159506072Y-84158436D01*
X159484991Y-84152040D01*
X159465555Y-84141652D01*
X159448524Y-84127676D01*
X159434548Y-84110645D01*
X159424160Y-84091209D01*
X159417764Y-84070128D01*
X159415000Y-84042060D01*
X159415000Y-82128340D01*
X159417764Y-82100272D01*
X159424160Y-82079191D01*
X159434548Y-82059755D01*
X159448524Y-82042724D01*
X159465555Y-82028748D01*
X159484991Y-82018360D01*
X159506072Y-82011964D01*
X159534140Y-82009200D01*
X159997860Y-82009200D01*
X160025928Y-82011964D01*
G37*
G36*
X172471928Y-79635964D02*
G01*
X172493009Y-79642360D01*
X172512445Y-79652748D01*
X172529476Y-79666724D01*
X172543452Y-79683755D01*
X172553840Y-79703191D01*
X172560236Y-79724272D01*
X172563000Y-79752340D01*
X172563000Y-81566060D01*
X172560236Y-81594128D01*
X172553840Y-81615209D01*
X172543452Y-81634645D01*
X172529476Y-81651676D01*
X172512445Y-81665652D01*
X172493009Y-81676040D01*
X172471928Y-81682436D01*
X172443860Y-81685200D01*
X171980140Y-81685200D01*
X171952072Y-81682436D01*
X171930991Y-81676040D01*
X171911555Y-81665652D01*
X171894524Y-81651676D01*
X171880548Y-81634645D01*
X171870160Y-81615209D01*
X171863764Y-81594128D01*
X171861000Y-81566060D01*
X171861000Y-79752340D01*
X171863764Y-79724272D01*
X171870160Y-79703191D01*
X171880548Y-79683755D01*
X171894524Y-79666724D01*
X171911555Y-79652748D01*
X171930991Y-79642360D01*
X171952072Y-79635964D01*
X171980140Y-79633200D01*
X172443860Y-79633200D01*
X172471928Y-79635964D01*
G37*
G36*
X173741928Y-79635964D02*
G01*
X173763009Y-79642360D01*
X173782445Y-79652748D01*
X173799476Y-79666724D01*
X173813452Y-79683755D01*
X173823840Y-79703191D01*
X173830236Y-79724272D01*
X173833000Y-79752340D01*
X173833000Y-81566060D01*
X173830236Y-81594128D01*
X173823840Y-81615209D01*
X173813452Y-81634645D01*
X173799476Y-81651676D01*
X173782445Y-81665652D01*
X173763009Y-81676040D01*
X173741928Y-81682436D01*
X173713860Y-81685200D01*
X173250140Y-81685200D01*
X173222072Y-81682436D01*
X173200991Y-81676040D01*
X173181555Y-81665652D01*
X173164524Y-81651676D01*
X173150548Y-81634645D01*
X173140160Y-81615209D01*
X173133764Y-81594128D01*
X173131000Y-81566060D01*
X173131000Y-79752340D01*
X173133764Y-79724272D01*
X173140160Y-79703191D01*
X173150548Y-79683755D01*
X173164524Y-79666724D01*
X173181555Y-79652748D01*
X173200991Y-79642360D01*
X173222072Y-79635964D01*
X173250140Y-79633200D01*
X173713860Y-79633200D01*
X173741928Y-79635964D01*
G37*
G36*
X176281928Y-79635964D02*
G01*
X176303009Y-79642360D01*
X176322445Y-79652748D01*
X176339476Y-79666724D01*
X176353452Y-79683755D01*
X176363840Y-79703191D01*
X176370236Y-79724272D01*
X176373000Y-79752340D01*
X176373000Y-81566060D01*
X176370236Y-81594128D01*
X176363840Y-81615209D01*
X176353452Y-81634645D01*
X176339476Y-81651676D01*
X176322445Y-81665652D01*
X176303009Y-81676040D01*
X176281928Y-81682436D01*
X176253860Y-81685200D01*
X175790140Y-81685200D01*
X175762072Y-81682436D01*
X175740991Y-81676040D01*
X175721555Y-81665652D01*
X175704524Y-81651676D01*
X175690548Y-81634645D01*
X175680160Y-81615209D01*
X175673764Y-81594128D01*
X175671000Y-81566060D01*
X175671000Y-79752340D01*
X175673764Y-79724272D01*
X175680160Y-79703191D01*
X175690548Y-79683755D01*
X175704524Y-79666724D01*
X175721555Y-79652748D01*
X175740991Y-79642360D01*
X175762072Y-79635964D01*
X175790140Y-79633200D01*
X176253860Y-79633200D01*
X176281928Y-79635964D01*
G37*
G36*
X175011928Y-79635964D02*
G01*
X175033009Y-79642360D01*
X175052445Y-79652748D01*
X175069476Y-79666724D01*
X175083452Y-79683755D01*
X175093840Y-79703191D01*
X175100236Y-79724272D01*
X175103000Y-79752340D01*
X175103000Y-81566060D01*
X175100236Y-81594128D01*
X175093840Y-81615209D01*
X175083452Y-81634645D01*
X175069476Y-81651676D01*
X175052445Y-81665652D01*
X175033009Y-81676040D01*
X175011928Y-81682436D01*
X174983860Y-81685200D01*
X174520140Y-81685200D01*
X174492072Y-81682436D01*
X174470991Y-81676040D01*
X174451555Y-81665652D01*
X174434524Y-81651676D01*
X174420548Y-81634645D01*
X174410160Y-81615209D01*
X174403764Y-81594128D01*
X174401000Y-81566060D01*
X174401000Y-79752340D01*
X174403764Y-79724272D01*
X174410160Y-79703191D01*
X174420548Y-79683755D01*
X174434524Y-79666724D01*
X174451555Y-79652748D01*
X174470991Y-79642360D01*
X174492072Y-79635964D01*
X174520140Y-79633200D01*
X174983860Y-79633200D01*
X175011928Y-79635964D01*
G37*
G36*
X124066083Y-78933634D02*
G01*
X124103472Y-78944976D01*
X124137926Y-78963391D01*
X124168125Y-78988175D01*
X124192909Y-79018374D01*
X124211324Y-79052828D01*
X124222666Y-79090217D01*
X124227100Y-79135235D01*
X124227100Y-80275165D01*
X124222666Y-80320183D01*
X124211324Y-80357572D01*
X124192909Y-80392026D01*
X124168125Y-80422225D01*
X124137926Y-80447009D01*
X124103472Y-80465424D01*
X124066083Y-80476766D01*
X124021065Y-80481200D01*
X123156135Y-80481200D01*
X123111117Y-80476766D01*
X123073728Y-80465424D01*
X123039274Y-80447009D01*
X123009075Y-80422225D01*
X122984291Y-80392026D01*
X122965876Y-80357572D01*
X122954534Y-80320183D01*
X122950100Y-80275165D01*
X122950100Y-79135235D01*
X122954534Y-79090217D01*
X122965876Y-79052828D01*
X122984291Y-79018374D01*
X123009075Y-78988175D01*
X123039274Y-78963391D01*
X123073728Y-78944976D01*
X123111117Y-78933634D01*
X123156135Y-78929200D01*
X124021065Y-78929200D01*
X124066083Y-78933634D01*
G37*
G36*
X121991083Y-78933634D02*
G01*
X122028472Y-78944976D01*
X122062926Y-78963391D01*
X122093125Y-78988175D01*
X122117909Y-79018374D01*
X122136324Y-79052828D01*
X122147666Y-79090217D01*
X122152100Y-79135235D01*
X122152100Y-80275165D01*
X122147666Y-80320183D01*
X122136324Y-80357572D01*
X122117909Y-80392026D01*
X122093125Y-80422225D01*
X122062926Y-80447009D01*
X122028472Y-80465424D01*
X121991083Y-80476766D01*
X121946065Y-80481200D01*
X121081135Y-80481200D01*
X121036117Y-80476766D01*
X120998728Y-80465424D01*
X120964274Y-80447009D01*
X120934075Y-80422225D01*
X120909291Y-80392026D01*
X120890876Y-80357572D01*
X120879534Y-80320183D01*
X120875100Y-80275165D01*
X120875100Y-79135235D01*
X120879534Y-79090217D01*
X120890876Y-79052828D01*
X120909291Y-79018374D01*
X120934075Y-78988175D01*
X120964274Y-78963391D01*
X120998728Y-78944976D01*
X121036117Y-78933634D01*
X121081135Y-78929200D01*
X121946065Y-78929200D01*
X121991083Y-78933634D01*
G37*
G36*
X144728600Y-78700200D02*
G01*
X140126600Y-78700200D01*
X140126600Y-73598200D01*
X144728600Y-73598200D01*
X144728600Y-78700200D01*
G37*
G36*
X134228600Y-78700200D02*
G01*
X129626600Y-78700200D01*
X129626600Y-73598200D01*
X134228600Y-73598200D01*
X134228600Y-78700200D01*
G37*
G36*
X175648583Y-76716214D02*
G01*
X175685972Y-76727556D01*
X175720426Y-76745971D01*
X175750625Y-76770755D01*
X175775409Y-76800954D01*
X175793824Y-76835408D01*
X175805166Y-76872797D01*
X175809600Y-76917815D01*
X175809600Y-78057745D01*
X175805166Y-78102763D01*
X175793824Y-78140152D01*
X175775409Y-78174606D01*
X175750625Y-78204805D01*
X175720426Y-78229589D01*
X175685972Y-78248004D01*
X175648583Y-78259346D01*
X175603565Y-78263780D01*
X174738635Y-78263780D01*
X174693617Y-78259346D01*
X174656228Y-78248004D01*
X174621774Y-78229589D01*
X174591575Y-78204805D01*
X174566791Y-78174606D01*
X174548376Y-78140152D01*
X174537034Y-78102763D01*
X174532600Y-78057745D01*
X174532600Y-76917815D01*
X174537034Y-76872797D01*
X174548376Y-76835408D01*
X174566791Y-76800954D01*
X174591575Y-76770755D01*
X174621774Y-76745971D01*
X174656228Y-76727556D01*
X174693617Y-76716214D01*
X174738635Y-76711780D01*
X175603565Y-76711780D01*
X175648583Y-76716214D01*
G37*
G36*
X173573583Y-76716214D02*
G01*
X173610972Y-76727556D01*
X173645426Y-76745971D01*
X173675625Y-76770755D01*
X173700409Y-76800954D01*
X173718824Y-76835408D01*
X173730166Y-76872797D01*
X173734600Y-76917815D01*
X173734600Y-78057745D01*
X173730166Y-78102763D01*
X173718824Y-78140152D01*
X173700409Y-78174606D01*
X173675625Y-78204805D01*
X173645426Y-78229589D01*
X173610972Y-78248004D01*
X173573583Y-78259346D01*
X173528565Y-78263780D01*
X172663635Y-78263780D01*
X172618617Y-78259346D01*
X172581228Y-78248004D01*
X172546774Y-78229589D01*
X172516575Y-78204805D01*
X172491791Y-78174606D01*
X172473376Y-78140152D01*
X172462034Y-78102763D01*
X172457600Y-78057745D01*
X172457600Y-76917815D01*
X172462034Y-76872797D01*
X172473376Y-76835408D01*
X172491791Y-76800954D01*
X172516575Y-76770755D01*
X172546774Y-76745971D01*
X172581228Y-76727556D01*
X172618617Y-76716214D01*
X172663635Y-76711780D01*
X173528565Y-76711780D01*
X173573583Y-76716214D01*
G37*
G36*
X168125443Y-75098394D02*
G01*
X168162832Y-75109736D01*
X168197286Y-75128151D01*
X168227485Y-75152935D01*
X168252269Y-75183134D01*
X168270684Y-75217588D01*
X168282026Y-75254977D01*
X168286460Y-75299995D01*
X168286460Y-76164925D01*
X168282026Y-76209943D01*
X168270684Y-76247332D01*
X168252269Y-76281786D01*
X168227485Y-76311985D01*
X168197286Y-76336769D01*
X168162832Y-76355184D01*
X168125443Y-76366526D01*
X168080425Y-76370960D01*
X166940495Y-76370960D01*
X166895477Y-76366526D01*
X166858088Y-76355184D01*
X166823634Y-76336769D01*
X166793435Y-76311985D01*
X166768651Y-76281786D01*
X166750236Y-76247332D01*
X166738894Y-76209943D01*
X166734460Y-76164925D01*
X166734460Y-75299995D01*
X166738894Y-75254977D01*
X166750236Y-75217588D01*
X166768651Y-75183134D01*
X166793435Y-75152935D01*
X166823634Y-75128151D01*
X166858088Y-75109736D01*
X166895477Y-75098394D01*
X166940495Y-75093960D01*
X168080425Y-75093960D01*
X168125443Y-75098394D01*
G37*
G36*
X126028600Y-76084200D02*
G01*
X122426600Y-76084200D01*
X122426600Y-74182200D01*
X126028600Y-74182200D01*
X126028600Y-76084200D01*
G37*
G36*
X121028600Y-76084200D02*
G01*
X117426600Y-76084200D01*
X117426600Y-74182200D01*
X121028600Y-74182200D01*
X121028600Y-76084200D01*
G37*
G36*
X106889787Y-68403462D02*
G01*
X106889790Y-68403463D01*
X106889789Y-68403463D01*
X107536029Y-68671144D01*
X108117631Y-69059758D01*
X108612242Y-69554369D01*
X109000856Y-70135971D01*
X109104928Y-70387223D01*
X109268538Y-70782213D01*
X109405000Y-71468256D01*
X109405000Y-72167744D01*
X109268538Y-72853787D01*
X109268537Y-72853789D01*
X109000856Y-73500029D01*
X108612242Y-74081631D01*
X108117631Y-74576242D01*
X107536029Y-74964856D01*
X107224344Y-75093960D01*
X106889787Y-75232538D01*
X106203744Y-75369000D01*
X105504256Y-75369000D01*
X104818213Y-75232538D01*
X104483656Y-75093960D01*
X104171971Y-74964856D01*
X103590369Y-74576242D01*
X103095758Y-74081631D01*
X102707144Y-73500029D01*
X102439463Y-72853789D01*
X102439462Y-72853787D01*
X102303000Y-72167744D01*
X102303000Y-71468256D01*
X102439462Y-70782213D01*
X102603072Y-70387223D01*
X102707144Y-70135971D01*
X103095758Y-69554369D01*
X103590369Y-69059758D01*
X104171971Y-68671144D01*
X104818211Y-68403463D01*
X104818210Y-68403463D01*
X104818213Y-68403462D01*
X105504256Y-68267000D01*
X106203744Y-68267000D01*
X106889787Y-68403462D01*
G37*
G36*
X180889787Y-68403462D02*
G01*
X180889790Y-68403463D01*
X180889789Y-68403463D01*
X181536029Y-68671144D01*
X182117631Y-69059758D01*
X182612242Y-69554369D01*
X183000856Y-70135971D01*
X183104928Y-70387223D01*
X183268538Y-70782213D01*
X183405000Y-71468256D01*
X183405000Y-72167744D01*
X183268538Y-72853787D01*
X183268537Y-72853789D01*
X183000856Y-73500029D01*
X182612242Y-74081631D01*
X182117631Y-74576242D01*
X181536029Y-74964856D01*
X181224344Y-75093960D01*
X180889787Y-75232538D01*
X180203744Y-75369000D01*
X179504256Y-75369000D01*
X178818213Y-75232538D01*
X178483656Y-75093960D01*
X178171971Y-74964856D01*
X177590369Y-74576242D01*
X177095758Y-74081631D01*
X176707144Y-73500029D01*
X176439463Y-72853789D01*
X176439462Y-72853787D01*
X176303000Y-72167744D01*
X176303000Y-71468256D01*
X176439462Y-70782213D01*
X176603072Y-70387223D01*
X176707144Y-70135971D01*
X177095758Y-69554369D01*
X177590369Y-69059758D01*
X178171971Y-68671144D01*
X178818211Y-68403463D01*
X178818210Y-68403463D01*
X178818213Y-68403462D01*
X179504256Y-68267000D01*
X180203744Y-68267000D01*
X180889787Y-68403462D01*
G37*
G36*
X160025928Y-72711964D02*
G01*
X160047009Y-72718360D01*
X160066445Y-72728748D01*
X160083476Y-72742724D01*
X160097452Y-72759755D01*
X160107840Y-72779191D01*
X160114236Y-72800272D01*
X160117000Y-72828340D01*
X160117000Y-74742060D01*
X160114236Y-74770128D01*
X160107840Y-74791209D01*
X160097452Y-74810645D01*
X160083476Y-74827676D01*
X160066445Y-74841652D01*
X160047009Y-74852040D01*
X160025928Y-74858436D01*
X159997860Y-74861200D01*
X159534140Y-74861200D01*
X159506072Y-74858436D01*
X159484991Y-74852040D01*
X159465555Y-74841652D01*
X159448524Y-74827676D01*
X159434548Y-74810645D01*
X159424160Y-74791209D01*
X159417764Y-74770128D01*
X159415000Y-74742060D01*
X159415000Y-72828340D01*
X159417764Y-72800272D01*
X159424160Y-72779191D01*
X159434548Y-72759755D01*
X159448524Y-72742724D01*
X159465555Y-72728748D01*
X159484991Y-72718360D01*
X159506072Y-72711964D01*
X159534140Y-72709200D01*
X159997860Y-72709200D01*
X160025928Y-72711964D01*
G37*
G36*
X161295928Y-72711964D02*
G01*
X161317009Y-72718360D01*
X161336445Y-72728748D01*
X161353476Y-72742724D01*
X161367452Y-72759755D01*
X161377840Y-72779191D01*
X161384236Y-72800272D01*
X161387000Y-72828340D01*
X161387000Y-74742060D01*
X161384236Y-74770128D01*
X161377840Y-74791209D01*
X161367452Y-74810645D01*
X161353476Y-74827676D01*
X161336445Y-74841652D01*
X161317009Y-74852040D01*
X161295928Y-74858436D01*
X161267860Y-74861200D01*
X160804140Y-74861200D01*
X160776072Y-74858436D01*
X160754991Y-74852040D01*
X160735555Y-74841652D01*
X160718524Y-74827676D01*
X160704548Y-74810645D01*
X160694160Y-74791209D01*
X160687764Y-74770128D01*
X160685000Y-74742060D01*
X160685000Y-72828340D01*
X160687764Y-72800272D01*
X160694160Y-72779191D01*
X160704548Y-72759755D01*
X160718524Y-72742724D01*
X160735555Y-72728748D01*
X160754991Y-72718360D01*
X160776072Y-72711964D01*
X160804140Y-72709200D01*
X161267860Y-72709200D01*
X161295928Y-72711964D01*
G37*
G36*
X158755928Y-72711964D02*
G01*
X158777009Y-72718360D01*
X158796445Y-72728748D01*
X158813476Y-72742724D01*
X158827452Y-72759755D01*
X158837840Y-72779191D01*
X158844236Y-72800272D01*
X158847000Y-72828340D01*
X158847000Y-74742060D01*
X158844236Y-74770128D01*
X158837840Y-74791209D01*
X158827452Y-74810645D01*
X158813476Y-74827676D01*
X158796445Y-74841652D01*
X158777009Y-74852040D01*
X158755928Y-74858436D01*
X158727860Y-74861200D01*
X158264140Y-74861200D01*
X158236072Y-74858436D01*
X158214991Y-74852040D01*
X158195555Y-74841652D01*
X158178524Y-74827676D01*
X158164548Y-74810645D01*
X158154160Y-74791209D01*
X158147764Y-74770128D01*
X158145000Y-74742060D01*
X158145000Y-72828340D01*
X158147764Y-72800272D01*
X158154160Y-72779191D01*
X158164548Y-72759755D01*
X158178524Y-72742724D01*
X158195555Y-72728748D01*
X158214991Y-72718360D01*
X158236072Y-72711964D01*
X158264140Y-72709200D01*
X158727860Y-72709200D01*
X158755928Y-72711964D01*
G37*
G36*
X157485928Y-72711964D02*
G01*
X157507009Y-72718360D01*
X157526445Y-72728748D01*
X157543476Y-72742724D01*
X157557452Y-72759755D01*
X157567840Y-72779191D01*
X157574236Y-72800272D01*
X157577000Y-72828340D01*
X157577000Y-74742060D01*
X157574236Y-74770128D01*
X157567840Y-74791209D01*
X157557452Y-74810645D01*
X157543476Y-74827676D01*
X157526445Y-74841652D01*
X157507009Y-74852040D01*
X157485928Y-74858436D01*
X157457860Y-74861200D01*
X156994140Y-74861200D01*
X156966072Y-74858436D01*
X156944991Y-74852040D01*
X156925555Y-74841652D01*
X156908524Y-74827676D01*
X156894548Y-74810645D01*
X156884160Y-74791209D01*
X156877764Y-74770128D01*
X156875000Y-74742060D01*
X156875000Y-72828340D01*
X156877764Y-72800272D01*
X156884160Y-72779191D01*
X156894548Y-72759755D01*
X156908524Y-72742724D01*
X156925555Y-72728748D01*
X156944991Y-72718360D01*
X156966072Y-72711964D01*
X156994140Y-72709200D01*
X157457860Y-72709200D01*
X157485928Y-72711964D01*
G37*
G36*
X156215928Y-72711964D02*
G01*
X156237009Y-72718360D01*
X156256445Y-72728748D01*
X156273476Y-72742724D01*
X156287452Y-72759755D01*
X156297840Y-72779191D01*
X156304236Y-72800272D01*
X156307000Y-72828340D01*
X156307000Y-74742060D01*
X156304236Y-74770128D01*
X156297840Y-74791209D01*
X156287452Y-74810645D01*
X156273476Y-74827676D01*
X156256445Y-74841652D01*
X156237009Y-74852040D01*
X156215928Y-74858436D01*
X156187860Y-74861200D01*
X155724140Y-74861200D01*
X155696072Y-74858436D01*
X155674991Y-74852040D01*
X155655555Y-74841652D01*
X155638524Y-74827676D01*
X155624548Y-74810645D01*
X155614160Y-74791209D01*
X155607764Y-74770128D01*
X155605000Y-74742060D01*
X155605000Y-72828340D01*
X155607764Y-72800272D01*
X155614160Y-72779191D01*
X155624548Y-72759755D01*
X155638524Y-72742724D01*
X155655555Y-72728748D01*
X155674991Y-72718360D01*
X155696072Y-72711964D01*
X155724140Y-72709200D01*
X156187860Y-72709200D01*
X156215928Y-72711964D01*
G37*
G36*
X162565928Y-72711964D02*
G01*
X162587009Y-72718360D01*
X162606445Y-72728748D01*
X162623476Y-72742724D01*
X162637452Y-72759755D01*
X162647840Y-72779191D01*
X162654236Y-72800272D01*
X162657000Y-72828340D01*
X162657000Y-74742060D01*
X162654236Y-74770128D01*
X162647840Y-74791209D01*
X162637452Y-74810645D01*
X162623476Y-74827676D01*
X162606445Y-74841652D01*
X162587009Y-74852040D01*
X162565928Y-74858436D01*
X162537860Y-74861200D01*
X162074140Y-74861200D01*
X162046072Y-74858436D01*
X162024991Y-74852040D01*
X162005555Y-74841652D01*
X161988524Y-74827676D01*
X161974548Y-74810645D01*
X161964160Y-74791209D01*
X161957764Y-74770128D01*
X161955000Y-74742060D01*
X161955000Y-72828340D01*
X161957764Y-72800272D01*
X161964160Y-72779191D01*
X161974548Y-72759755D01*
X161988524Y-72742724D01*
X162005555Y-72728748D01*
X162024991Y-72718360D01*
X162046072Y-72711964D01*
X162074140Y-72709200D01*
X162537860Y-72709200D01*
X162565928Y-72711964D01*
G37*
G36*
X154945928Y-72711964D02*
G01*
X154967009Y-72718360D01*
X154986445Y-72728748D01*
X155003476Y-72742724D01*
X155017452Y-72759755D01*
X155027840Y-72779191D01*
X155034236Y-72800272D01*
X155037000Y-72828340D01*
X155037000Y-74742060D01*
X155034236Y-74770128D01*
X155027840Y-74791209D01*
X155017452Y-74810645D01*
X155003476Y-74827676D01*
X154986445Y-74841652D01*
X154967009Y-74852040D01*
X154945928Y-74858436D01*
X154917860Y-74861200D01*
X154454140Y-74861200D01*
X154426072Y-74858436D01*
X154404991Y-74852040D01*
X154385555Y-74841652D01*
X154368524Y-74827676D01*
X154354548Y-74810645D01*
X154344160Y-74791209D01*
X154337764Y-74770128D01*
X154335000Y-74742060D01*
X154335000Y-72828340D01*
X154337764Y-72800272D01*
X154344160Y-72779191D01*
X154354548Y-72759755D01*
X154368524Y-72742724D01*
X154385555Y-72728748D01*
X154404991Y-72718360D01*
X154426072Y-72711964D01*
X154454140Y-72709200D01*
X154917860Y-72709200D01*
X154945928Y-72711964D01*
G37*
G36*
X163835928Y-72711964D02*
G01*
X163857009Y-72718360D01*
X163876445Y-72728748D01*
X163893476Y-72742724D01*
X163907452Y-72759755D01*
X163917840Y-72779191D01*
X163924236Y-72800272D01*
X163927000Y-72828340D01*
X163927000Y-74742060D01*
X163924236Y-74770128D01*
X163917840Y-74791209D01*
X163907452Y-74810645D01*
X163893476Y-74827676D01*
X163876445Y-74841652D01*
X163857009Y-74852040D01*
X163835928Y-74858436D01*
X163807860Y-74861200D01*
X163344140Y-74861200D01*
X163316072Y-74858436D01*
X163294991Y-74852040D01*
X163275555Y-74841652D01*
X163258524Y-74827676D01*
X163244548Y-74810645D01*
X163234160Y-74791209D01*
X163227764Y-74770128D01*
X163225000Y-74742060D01*
X163225000Y-72828340D01*
X163227764Y-72800272D01*
X163234160Y-72779191D01*
X163244548Y-72759755D01*
X163258524Y-72742724D01*
X163275555Y-72728748D01*
X163294991Y-72718360D01*
X163316072Y-72711964D01*
X163344140Y-72709200D01*
X163807860Y-72709200D01*
X163835928Y-72711964D01*
G37*
G36*
X165105928Y-72711964D02*
G01*
X165127009Y-72718360D01*
X165146445Y-72728748D01*
X165163476Y-72742724D01*
X165177452Y-72759755D01*
X165187840Y-72779191D01*
X165194236Y-72800272D01*
X165197000Y-72828340D01*
X165197000Y-74742060D01*
X165194236Y-74770128D01*
X165187840Y-74791209D01*
X165177452Y-74810645D01*
X165163476Y-74827676D01*
X165146445Y-74841652D01*
X165127009Y-74852040D01*
X165105928Y-74858436D01*
X165077860Y-74861200D01*
X164614140Y-74861200D01*
X164586072Y-74858436D01*
X164564991Y-74852040D01*
X164545555Y-74841652D01*
X164528524Y-74827676D01*
X164514548Y-74810645D01*
X164504160Y-74791209D01*
X164497764Y-74770128D01*
X164495000Y-74742060D01*
X164495000Y-72828340D01*
X164497764Y-72800272D01*
X164504160Y-72779191D01*
X164514548Y-72759755D01*
X164528524Y-72742724D01*
X164545555Y-72728748D01*
X164564991Y-72718360D01*
X164586072Y-72711964D01*
X164614140Y-72709200D01*
X165077860Y-72709200D01*
X165105928Y-72711964D01*
G37*
G36*
X168125443Y-73023394D02*
G01*
X168162832Y-73034736D01*
X168197286Y-73053151D01*
X168227485Y-73077935D01*
X168252269Y-73108134D01*
X168270684Y-73142588D01*
X168282026Y-73179977D01*
X168286460Y-73224995D01*
X168286460Y-74089925D01*
X168282026Y-74134943D01*
X168270684Y-74172332D01*
X168252269Y-74206786D01*
X168227485Y-74236985D01*
X168197286Y-74261769D01*
X168162832Y-74280184D01*
X168125443Y-74291526D01*
X168080425Y-74295960D01*
X166940495Y-74295960D01*
X166895477Y-74291526D01*
X166858088Y-74280184D01*
X166823634Y-74261769D01*
X166793435Y-74236985D01*
X166768651Y-74206786D01*
X166750236Y-74172332D01*
X166738894Y-74134943D01*
X166734460Y-74089925D01*
X166734460Y-73224995D01*
X166738894Y-73179977D01*
X166750236Y-73142588D01*
X166768651Y-73108134D01*
X166793435Y-73077935D01*
X166823634Y-73053151D01*
X166858088Y-73034736D01*
X166895477Y-73023394D01*
X166940495Y-73018960D01*
X168080425Y-73018960D01*
X168125443Y-73023394D01*
G37*
G36*
X163331401Y-68905284D02*
G01*
X163368498Y-68916537D01*
X163402679Y-68934807D01*
X163432643Y-68959397D01*
X163457233Y-68989361D01*
X163475503Y-69023542D01*
X163486756Y-69060639D01*
X163491160Y-69105353D01*
X163491160Y-70198407D01*
X163486756Y-70243121D01*
X163475503Y-70280218D01*
X163457233Y-70314399D01*
X163432643Y-70344363D01*
X163402679Y-70368953D01*
X163368498Y-70387223D01*
X163331401Y-70398476D01*
X163286687Y-70402880D01*
X162393633Y-70402880D01*
X162348919Y-70398476D01*
X162311822Y-70387223D01*
X162277641Y-70368953D01*
X162247677Y-70344363D01*
X162223087Y-70314399D01*
X162204817Y-70280218D01*
X162193564Y-70243121D01*
X162189160Y-70198407D01*
X162189160Y-69105353D01*
X162193564Y-69060639D01*
X162204817Y-69023542D01*
X162223087Y-68989361D01*
X162247677Y-68959397D01*
X162277641Y-68934807D01*
X162311822Y-68916537D01*
X162348919Y-68905284D01*
X162393633Y-68900880D01*
X163286687Y-68900880D01*
X163331401Y-68905284D01*
G37*
G36*
X165331401Y-68905284D02*
G01*
X165368498Y-68916537D01*
X165402679Y-68934807D01*
X165432643Y-68959397D01*
X165457233Y-68989361D01*
X165475503Y-69023542D01*
X165486756Y-69060639D01*
X165491160Y-69105353D01*
X165491160Y-70198407D01*
X165486756Y-70243121D01*
X165475503Y-70280218D01*
X165457233Y-70314399D01*
X165432643Y-70344363D01*
X165402679Y-70368953D01*
X165368498Y-70387223D01*
X165331401Y-70398476D01*
X165286687Y-70402880D01*
X164393633Y-70402880D01*
X164348919Y-70398476D01*
X164311822Y-70387223D01*
X164277641Y-70368953D01*
X164247677Y-70344363D01*
X164223087Y-70314399D01*
X164204817Y-70280218D01*
X164193564Y-70243121D01*
X164189160Y-70198407D01*
X164189160Y-69105353D01*
X164193564Y-69060639D01*
X164204817Y-69023542D01*
X164223087Y-68989361D01*
X164247677Y-68959397D01*
X164277641Y-68934807D01*
X164311822Y-68916537D01*
X164348919Y-68905284D01*
X164393633Y-68900880D01*
X165286687Y-68900880D01*
X165331401Y-68905284D01*
G37*
M02*
