%FSLAX45Y45*%
G04 Gerber Fmt 4.5, Leading zero omitted, Abs format (unit mm)*
G04 Created by KiCad (PCBNEW (6.0.1)) date 2022-05-22 14:08:44*
%MOMM*%
%LPD*%
G01*
G04 APERTURE LIST*
%TA.AperFunction,Profile*%
%ADD10C,0.050000*%
%TD*%
%ADD11C,0.200000*%
%ADD12C,0.220000*%
G04 APERTURE END LIST*
D10*
X3350000Y-7702000D02*
X4850000Y-7702000D01*
X3350000Y-7702000D02*
X3350000Y-8202000D01*
X4850000Y-7702000D02*
X4850000Y-8202000D01*
X4850000Y-8202000D02*
X8200000Y-8202000D01*
X0Y-2000D02*
X8200000Y-2000D01*
X8200000Y-2000D02*
X8200000Y-8202000D01*
X3350000Y-8202000D02*
X0Y-8202000D01*
X0Y-8202000D02*
X0Y-2000D01*
D11*
D12*
X3327800Y-3519120D02*
X3547800Y-3739120D01*
X3547800Y-3519120D02*
X3327800Y-3739120D01*
X3562840Y-4799280D02*
X3782840Y-5019280D01*
X3782840Y-4799280D02*
X3562840Y-5019280D01*
X3562840Y-5899280D02*
X3782840Y-6119280D01*
X3782840Y-5899280D02*
X3562840Y-6119280D01*
X4337540Y-4794200D02*
X4557540Y-5014200D01*
X4557540Y-4794200D02*
X4337540Y-5014200D01*
X4337540Y-5894200D02*
X4557540Y-6114200D01*
X4557540Y-5894200D02*
X4337540Y-6114200D01*
X4427800Y-3519120D02*
X4647800Y-3739120D01*
X4647800Y-3519120D02*
X4427800Y-3739120D01*
D11*
X255119Y-8514976D02*
X255119Y-8314976D01*
X302738Y-8314976D01*
X331310Y-8324500D01*
X350357Y-8343548D01*
X359881Y-8362595D01*
X369405Y-8400690D01*
X369405Y-8429262D01*
X359881Y-8467357D01*
X350357Y-8486405D01*
X331310Y-8505452D01*
X302738Y-8514976D01*
X255119Y-8514976D01*
X455119Y-8514976D02*
X455119Y-8381643D01*
X455119Y-8419738D02*
X464643Y-8400690D01*
X474167Y-8391167D01*
X493214Y-8381643D01*
X512262Y-8381643D01*
X578929Y-8514976D02*
X578929Y-8381643D01*
X578929Y-8314976D02*
X569405Y-8324500D01*
X578929Y-8334024D01*
X588452Y-8324500D01*
X578929Y-8314976D01*
X578929Y-8334024D01*
X702738Y-8514976D02*
X683690Y-8505452D01*
X674167Y-8486405D01*
X674167Y-8314976D01*
X807500Y-8514976D02*
X788452Y-8505452D01*
X778928Y-8486405D01*
X778928Y-8314976D01*
X1036071Y-8514976D02*
X1036071Y-8314976D01*
X1102738Y-8457833D01*
X1169405Y-8314976D01*
X1169405Y-8514976D01*
X1350357Y-8514976D02*
X1350357Y-8410214D01*
X1340833Y-8391167D01*
X1321786Y-8381643D01*
X1283690Y-8381643D01*
X1264643Y-8391167D01*
X1350357Y-8505452D02*
X1331310Y-8514976D01*
X1283690Y-8514976D01*
X1264643Y-8505452D01*
X1255119Y-8486405D01*
X1255119Y-8467357D01*
X1264643Y-8448310D01*
X1283690Y-8438786D01*
X1331310Y-8438786D01*
X1350357Y-8429262D01*
X1445595Y-8381643D02*
X1445595Y-8581643D01*
X1445595Y-8391167D02*
X1464643Y-8381643D01*
X1502738Y-8381643D01*
X1521786Y-8391167D01*
X1531309Y-8400690D01*
X1540833Y-8419738D01*
X1540833Y-8476881D01*
X1531309Y-8495929D01*
X1521786Y-8505452D01*
X1502738Y-8514976D01*
X1464643Y-8514976D01*
X1445595Y-8505452D01*
X1626548Y-8495929D02*
X1636071Y-8505452D01*
X1626548Y-8514976D01*
X1617024Y-8505452D01*
X1626548Y-8495929D01*
X1626548Y-8514976D01*
X1626548Y-8391167D02*
X1636071Y-8400690D01*
X1626548Y-8410214D01*
X1617024Y-8400690D01*
X1626548Y-8391167D01*
X1626548Y-8410214D01*
X-202500Y-8744500D02*
X-2500Y-8944500D01*
X-2500Y-8744500D02*
X-202500Y-8944500D01*
X245595Y-8754024D02*
X255119Y-8744500D01*
X274167Y-8734976D01*
X321786Y-8734976D01*
X340833Y-8744500D01*
X350357Y-8754024D01*
X359881Y-8773071D01*
X359881Y-8792119D01*
X350357Y-8820690D01*
X236071Y-8934976D01*
X359881Y-8934976D01*
X445595Y-8915929D02*
X455119Y-8925452D01*
X445595Y-8934976D01*
X436071Y-8925452D01*
X445595Y-8915929D01*
X445595Y-8934976D01*
X531310Y-8754024D02*
X540833Y-8744500D01*
X559881Y-8734976D01*
X607500Y-8734976D01*
X626548Y-8744500D01*
X636071Y-8754024D01*
X645595Y-8773071D01*
X645595Y-8792119D01*
X636071Y-8820690D01*
X521786Y-8934976D01*
X645595Y-8934976D01*
X769405Y-8734976D02*
X788452Y-8734976D01*
X807500Y-8744500D01*
X817024Y-8754024D01*
X826548Y-8773071D01*
X836071Y-8811167D01*
X836071Y-8858786D01*
X826548Y-8896881D01*
X817024Y-8915929D01*
X807500Y-8925452D01*
X788452Y-8934976D01*
X769405Y-8934976D01*
X750357Y-8925452D01*
X740833Y-8915929D01*
X731309Y-8896881D01*
X721786Y-8858786D01*
X721786Y-8811167D01*
X731309Y-8773071D01*
X740833Y-8754024D01*
X750357Y-8744500D01*
X769405Y-8734976D01*
X959881Y-8734976D02*
X978928Y-8734976D01*
X997976Y-8744500D01*
X1007500Y-8754024D01*
X1017024Y-8773071D01*
X1026548Y-8811167D01*
X1026548Y-8858786D01*
X1017024Y-8896881D01*
X1007500Y-8915929D01*
X997976Y-8925452D01*
X978928Y-8934976D01*
X959881Y-8934976D01*
X940833Y-8925452D01*
X931309Y-8915929D01*
X921786Y-8896881D01*
X912262Y-8858786D01*
X912262Y-8811167D01*
X921786Y-8773071D01*
X931309Y-8754024D01*
X940833Y-8744500D01*
X959881Y-8734976D01*
X1112262Y-8934976D02*
X1112262Y-8801643D01*
X1112262Y-8820690D02*
X1121786Y-8811167D01*
X1140833Y-8801643D01*
X1169405Y-8801643D01*
X1188452Y-8811167D01*
X1197976Y-8830214D01*
X1197976Y-8934976D01*
X1197976Y-8830214D02*
X1207500Y-8811167D01*
X1226548Y-8801643D01*
X1255119Y-8801643D01*
X1274167Y-8811167D01*
X1283690Y-8830214D01*
X1283690Y-8934976D01*
X1378929Y-8934976D02*
X1378929Y-8801643D01*
X1378929Y-8820690D02*
X1388452Y-8811167D01*
X1407500Y-8801643D01*
X1436071Y-8801643D01*
X1455119Y-8811167D01*
X1464643Y-8830214D01*
X1464643Y-8934976D01*
X1464643Y-8830214D02*
X1474167Y-8811167D01*
X1493214Y-8801643D01*
X1521786Y-8801643D01*
X1540833Y-8811167D01*
X1550357Y-8830214D01*
X1550357Y-8934976D01*
X1940833Y-8725452D02*
X1769405Y-8982595D01*
X2197976Y-8734976D02*
X2217024Y-8734976D01*
X2236071Y-8744500D01*
X2245595Y-8754024D01*
X2255119Y-8773071D01*
X2264643Y-8811167D01*
X2264643Y-8858786D01*
X2255119Y-8896881D01*
X2245595Y-8915929D01*
X2236071Y-8925452D01*
X2217024Y-8934976D01*
X2197976Y-8934976D01*
X2178929Y-8925452D01*
X2169405Y-8915929D01*
X2159881Y-8896881D01*
X2150357Y-8858786D01*
X2150357Y-8811167D01*
X2159881Y-8773071D01*
X2169405Y-8754024D01*
X2178929Y-8744500D01*
X2197976Y-8734976D01*
X2350357Y-8915929D02*
X2359881Y-8925452D01*
X2350357Y-8934976D01*
X2340833Y-8925452D01*
X2350357Y-8915929D01*
X2350357Y-8934976D01*
X2483690Y-8734976D02*
X2502738Y-8734976D01*
X2521786Y-8744500D01*
X2531310Y-8754024D01*
X2540833Y-8773071D01*
X2550357Y-8811167D01*
X2550357Y-8858786D01*
X2540833Y-8896881D01*
X2531310Y-8915929D01*
X2521786Y-8925452D01*
X2502738Y-8934976D01*
X2483690Y-8934976D01*
X2464643Y-8925452D01*
X2455119Y-8915929D01*
X2445595Y-8896881D01*
X2436071Y-8858786D01*
X2436071Y-8811167D01*
X2445595Y-8773071D01*
X2455119Y-8754024D01*
X2464643Y-8744500D01*
X2483690Y-8734976D01*
X2664643Y-8820690D02*
X2645595Y-8811167D01*
X2636071Y-8801643D01*
X2626548Y-8782595D01*
X2626548Y-8773071D01*
X2636071Y-8754024D01*
X2645595Y-8744500D01*
X2664643Y-8734976D01*
X2702738Y-8734976D01*
X2721786Y-8744500D01*
X2731310Y-8754024D01*
X2740833Y-8773071D01*
X2740833Y-8782595D01*
X2731310Y-8801643D01*
X2721786Y-8811167D01*
X2702738Y-8820690D01*
X2664643Y-8820690D01*
X2645595Y-8830214D01*
X2636071Y-8839738D01*
X2626548Y-8858786D01*
X2626548Y-8896881D01*
X2636071Y-8915929D01*
X2645595Y-8925452D01*
X2664643Y-8934976D01*
X2702738Y-8934976D01*
X2721786Y-8925452D01*
X2731310Y-8915929D01*
X2740833Y-8896881D01*
X2740833Y-8858786D01*
X2731310Y-8839738D01*
X2721786Y-8830214D01*
X2702738Y-8820690D01*
X2912262Y-8734976D02*
X2874167Y-8734976D01*
X2855119Y-8744500D01*
X2845595Y-8754024D01*
X2826548Y-8782595D01*
X2817024Y-8820690D01*
X2817024Y-8896881D01*
X2826548Y-8915929D01*
X2836071Y-8925452D01*
X2855119Y-8934976D01*
X2893214Y-8934976D01*
X2912262Y-8925452D01*
X2921786Y-8915929D01*
X2931309Y-8896881D01*
X2931309Y-8849262D01*
X2921786Y-8830214D01*
X2912262Y-8820690D01*
X2893214Y-8811167D01*
X2855119Y-8811167D01*
X2836071Y-8820690D01*
X2826548Y-8830214D01*
X2817024Y-8849262D01*
X3102738Y-8734976D02*
X3064643Y-8734976D01*
X3045595Y-8744500D01*
X3036071Y-8754024D01*
X3017024Y-8782595D01*
X3007500Y-8820690D01*
X3007500Y-8896881D01*
X3017024Y-8915929D01*
X3026548Y-8925452D01*
X3045595Y-8934976D01*
X3083690Y-8934976D01*
X3102738Y-8925452D01*
X3112262Y-8915929D01*
X3121786Y-8896881D01*
X3121786Y-8849262D01*
X3112262Y-8830214D01*
X3102738Y-8820690D01*
X3083690Y-8811167D01*
X3045595Y-8811167D01*
X3026548Y-8820690D01*
X3017024Y-8830214D01*
X3007500Y-8849262D01*
X3197976Y-8734976D02*
X3197976Y-8773071D01*
X3274167Y-8734976D02*
X3274167Y-8773071D01*
X3569405Y-9011167D02*
X3559881Y-9001643D01*
X3540833Y-8973071D01*
X3531309Y-8954024D01*
X3521786Y-8925452D01*
X3512262Y-8877833D01*
X3512262Y-8839738D01*
X3521786Y-8792119D01*
X3531309Y-8763548D01*
X3540833Y-8744500D01*
X3559881Y-8715929D01*
X3569405Y-8706405D01*
X3731309Y-8734976D02*
X3693214Y-8734976D01*
X3674167Y-8744500D01*
X3664643Y-8754024D01*
X3645595Y-8782595D01*
X3636071Y-8820690D01*
X3636071Y-8896881D01*
X3645595Y-8915929D01*
X3655119Y-8925452D01*
X3674167Y-8934976D01*
X3712262Y-8934976D01*
X3731309Y-8925452D01*
X3740833Y-8915929D01*
X3750357Y-8896881D01*
X3750357Y-8849262D01*
X3740833Y-8830214D01*
X3731309Y-8820690D01*
X3712262Y-8811167D01*
X3674167Y-8811167D01*
X3655119Y-8820690D01*
X3645595Y-8830214D01*
X3636071Y-8849262D01*
X3988452Y-8934976D02*
X3988452Y-8734976D01*
X4074167Y-8934976D02*
X4074167Y-8830214D01*
X4064643Y-8811167D01*
X4045595Y-8801643D01*
X4017024Y-8801643D01*
X3997976Y-8811167D01*
X3988452Y-8820690D01*
X4197976Y-8934976D02*
X4178928Y-8925452D01*
X4169405Y-8915929D01*
X4159881Y-8896881D01*
X4159881Y-8839738D01*
X4169405Y-8820690D01*
X4178928Y-8811167D01*
X4197976Y-8801643D01*
X4226548Y-8801643D01*
X4245595Y-8811167D01*
X4255119Y-8820690D01*
X4264643Y-8839738D01*
X4264643Y-8896881D01*
X4255119Y-8915929D01*
X4245595Y-8925452D01*
X4226548Y-8934976D01*
X4197976Y-8934976D01*
X4378929Y-8934976D02*
X4359881Y-8925452D01*
X4350357Y-8906405D01*
X4350357Y-8734976D01*
X4531310Y-8925452D02*
X4512262Y-8934976D01*
X4474167Y-8934976D01*
X4455119Y-8925452D01*
X4445595Y-8906405D01*
X4445595Y-8830214D01*
X4455119Y-8811167D01*
X4474167Y-8801643D01*
X4512262Y-8801643D01*
X4531310Y-8811167D01*
X4540833Y-8830214D01*
X4540833Y-8849262D01*
X4445595Y-8868310D01*
X4617024Y-8925452D02*
X4636071Y-8934976D01*
X4674167Y-8934976D01*
X4693214Y-8925452D01*
X4702738Y-8906405D01*
X4702738Y-8896881D01*
X4693214Y-8877833D01*
X4674167Y-8868310D01*
X4645595Y-8868310D01*
X4626548Y-8858786D01*
X4617024Y-8839738D01*
X4617024Y-8830214D01*
X4626548Y-8811167D01*
X4645595Y-8801643D01*
X4674167Y-8801643D01*
X4693214Y-8811167D01*
X4769405Y-9011167D02*
X4778929Y-9001643D01*
X4797976Y-8973071D01*
X4807500Y-8954024D01*
X4817024Y-8925452D01*
X4826548Y-8877833D01*
X4826548Y-8839738D01*
X4817024Y-8792119D01*
X4807500Y-8763548D01*
X4797976Y-8744500D01*
X4778929Y-8715929D01*
X4769405Y-8706405D01*
X5131310Y-9011167D02*
X5121786Y-9001643D01*
X5102738Y-8973071D01*
X5093214Y-8954024D01*
X5083690Y-8925452D01*
X5074167Y-8877833D01*
X5074167Y-8839738D01*
X5083690Y-8792119D01*
X5093214Y-8763548D01*
X5102738Y-8744500D01*
X5121786Y-8715929D01*
X5131310Y-8706405D01*
X5207500Y-8801643D02*
X5207500Y-8934976D01*
X5207500Y-8820690D02*
X5217024Y-8811167D01*
X5236071Y-8801643D01*
X5264643Y-8801643D01*
X5283690Y-8811167D01*
X5293214Y-8830214D01*
X5293214Y-8934976D01*
X5417024Y-8934976D02*
X5397976Y-8925452D01*
X5388452Y-8915929D01*
X5378929Y-8896881D01*
X5378929Y-8839738D01*
X5388452Y-8820690D01*
X5397976Y-8811167D01*
X5417024Y-8801643D01*
X5445595Y-8801643D01*
X5464643Y-8811167D01*
X5474167Y-8820690D01*
X5483690Y-8839738D01*
X5483690Y-8896881D01*
X5474167Y-8915929D01*
X5464643Y-8925452D01*
X5445595Y-8934976D01*
X5417024Y-8934976D01*
X5540833Y-8801643D02*
X5617024Y-8801643D01*
X5569405Y-8734976D02*
X5569405Y-8906405D01*
X5578929Y-8925452D01*
X5597976Y-8934976D01*
X5617024Y-8934976D01*
X5836071Y-8801643D02*
X5836071Y-9001643D01*
X5836071Y-8811167D02*
X5855119Y-8801643D01*
X5893214Y-8801643D01*
X5912262Y-8811167D01*
X5921786Y-8820690D01*
X5931309Y-8839738D01*
X5931309Y-8896881D01*
X5921786Y-8915929D01*
X5912262Y-8925452D01*
X5893214Y-8934976D01*
X5855119Y-8934976D01*
X5836071Y-8925452D01*
X6045595Y-8934976D02*
X6026548Y-8925452D01*
X6017024Y-8906405D01*
X6017024Y-8734976D01*
X6207500Y-8934976D02*
X6207500Y-8830214D01*
X6197976Y-8811167D01*
X6178928Y-8801643D01*
X6140833Y-8801643D01*
X6121786Y-8811167D01*
X6207500Y-8925452D02*
X6188452Y-8934976D01*
X6140833Y-8934976D01*
X6121786Y-8925452D01*
X6112262Y-8906405D01*
X6112262Y-8887357D01*
X6121786Y-8868310D01*
X6140833Y-8858786D01*
X6188452Y-8858786D01*
X6207500Y-8849262D01*
X6274167Y-8801643D02*
X6350357Y-8801643D01*
X6302738Y-8734976D02*
X6302738Y-8906405D01*
X6312262Y-8925452D01*
X6331309Y-8934976D01*
X6350357Y-8934976D01*
X6493214Y-8925452D02*
X6474167Y-8934976D01*
X6436071Y-8934976D01*
X6417024Y-8925452D01*
X6407500Y-8906405D01*
X6407500Y-8830214D01*
X6417024Y-8811167D01*
X6436071Y-8801643D01*
X6474167Y-8801643D01*
X6493214Y-8811167D01*
X6502738Y-8830214D01*
X6502738Y-8849262D01*
X6407500Y-8868310D01*
X6674167Y-8934976D02*
X6674167Y-8734976D01*
X6674167Y-8925452D02*
X6655119Y-8934976D01*
X6617024Y-8934976D01*
X6597976Y-8925452D01*
X6588452Y-8915929D01*
X6578928Y-8896881D01*
X6578928Y-8839738D01*
X6588452Y-8820690D01*
X6597976Y-8811167D01*
X6617024Y-8801643D01*
X6655119Y-8801643D01*
X6674167Y-8811167D01*
X6750357Y-9011167D02*
X6759881Y-9001643D01*
X6778928Y-8973071D01*
X6788452Y-8954024D01*
X6797976Y-8925452D01*
X6807500Y-8877833D01*
X6807500Y-8839738D01*
X6797976Y-8792119D01*
X6788452Y-8763548D01*
X6778928Y-8744500D01*
X6759881Y-8715929D01*
X6750357Y-8706405D01*
M02*
