G04 #@! TF.GenerationSoftware,KiCad,Pcbnew,(6.0.1)*
G04 #@! TF.CreationDate,2022-05-22T14:08:20-04:00*
G04 #@! TF.ProjectId,payload2020_papa_board,7061796c-6f61-4643-9230-32305f706170,rev?*
G04 #@! TF.SameCoordinates,Original*
G04 #@! TF.FileFunction,Soldermask,Bot*
G04 #@! TF.FilePolarity,Negative*
%FSLAX46Y46*%
G04 Gerber Fmt 4.6, Leading zero omitted, Abs format (unit mm)*
G04 Created by KiCad (PCBNEW (6.0.1)) date 2022-05-22 14:08:20*
%MOMM*%
%LPD*%
G01*
G04 APERTURE LIST*
G04 Aperture macros list*
%AMRoundRect*
0 Rectangle with rounded corners*
0 $1 Rounding radius*
0 $2 $3 $4 $5 $6 $7 $8 $9 X,Y pos of 4 corners*
0 Add a 4 corners polygon primitive as box body*
4,1,4,$2,$3,$4,$5,$6,$7,$8,$9,$2,$3,0*
0 Add four circle primitives for the rounded corners*
1,1,$1+$1,$2,$3*
1,1,$1+$1,$4,$5*
1,1,$1+$1,$6,$7*
1,1,$1+$1,$8,$9*
0 Add four rect primitives between the rounded corners*
20,1,$1+$1,$2,$3,$4,$5,0*
20,1,$1+$1,$4,$5,$6,$7,0*
20,1,$1+$1,$6,$7,$8,$9,0*
20,1,$1+$1,$8,$9,$2,$3,0*%
G04 Aperture macros list end*
%ADD10RoundRect,0.051000X-0.850000X0.850000X-0.850000X-0.850000X0.850000X-0.850000X0.850000X0.850000X0*%
%ADD11O,1.802000X1.802000*%
%ADD12C,2.302000*%
%ADD13RoundRect,0.051000X0.600000X-0.600000X0.600000X0.600000X-0.600000X0.600000X-0.600000X-0.600000X0*%
%ADD14C,1.302000*%
%ADD15RoundRect,0.051000X-0.600000X-0.600000X0.600000X-0.600000X0.600000X0.600000X-0.600000X0.600000X0*%
%ADD16RoundRect,0.051000X-0.675000X-0.675000X0.675000X-0.675000X0.675000X0.675000X-0.675000X0.675000X0*%
%ADD17O,1.452000X1.452000*%
%ADD18C,0.902000*%
%ADD19C,7.102000*%
%ADD20RoundRect,0.051000X-0.850000X-0.850000X0.850000X-0.850000X0.850000X0.850000X-0.850000X0.850000X0*%
%ADD21RoundRect,0.301000X-0.337500X-0.475000X0.337500X-0.475000X0.337500X0.475000X-0.337500X0.475000X0*%
%ADD22RoundRect,0.301000X0.337500X0.475000X-0.337500X0.475000X-0.337500X-0.475000X0.337500X-0.475000X0*%
%ADD23RoundRect,0.201000X-0.150000X0.825000X-0.150000X-0.825000X0.150000X-0.825000X0.150000X0.825000X0*%
%ADD24RoundRect,0.301001X-0.624999X0.462499X-0.624999X-0.462499X0.624999X-0.462499X0.624999X0.462499X0*%
%ADD25RoundRect,0.051000X2.700000X-2.450000X2.700000X2.450000X-2.700000X2.450000X-2.700000X-2.450000X0*%
%ADD26RoundRect,0.301000X0.475000X-0.337500X0.475000X0.337500X-0.475000X0.337500X-0.475000X-0.337500X0*%
%ADD27RoundRect,0.201000X-0.825000X-0.150000X0.825000X-0.150000X0.825000X0.150000X-0.825000X0.150000X0*%
%ADD28RoundRect,0.301000X-0.475000X0.337500X-0.475000X-0.337500X0.475000X-0.337500X0.475000X0.337500X0*%
%ADD29RoundRect,0.051000X0.325000X-0.780000X0.325000X0.780000X-0.325000X0.780000X-0.325000X-0.780000X0*%
%ADD30C,1.602000*%
%ADD31RoundRect,0.201000X0.150000X-0.875000X0.150000X0.875000X-0.150000X0.875000X-0.150000X-0.875000X0*%
%ADD32RoundRect,0.300999X0.350001X0.450001X-0.350001X0.450001X-0.350001X-0.450001X0.350001X-0.450001X0*%
%ADD33RoundRect,0.201000X0.150000X-0.825000X0.150000X0.825000X-0.150000X0.825000X-0.150000X-0.825000X0*%
%ADD34RoundRect,0.301000X0.325000X0.450000X-0.325000X0.450000X-0.325000X-0.450000X0.325000X-0.450000X0*%
%ADD35RoundRect,0.301000X-0.325000X-0.450000X0.325000X-0.450000X0.325000X0.450000X-0.325000X0.450000X0*%
%ADD36RoundRect,0.301000X-0.450000X0.325000X-0.450000X-0.325000X0.450000X-0.325000X0.450000X0.325000X0*%
%ADD37RoundRect,0.301000X-0.650000X0.412500X-0.650000X-0.412500X0.650000X-0.412500X0.650000X0.412500X0*%
%ADD38RoundRect,0.301000X0.450000X-0.350000X0.450000X0.350000X-0.450000X0.350000X-0.450000X-0.350000X0*%
%ADD39RoundRect,0.051000X0.850000X0.850000X-0.850000X0.850000X-0.850000X-0.850000X0.850000X-0.850000X0*%
%ADD40RoundRect,0.301001X0.462499X0.624999X-0.462499X0.624999X-0.462499X-0.624999X0.462499X-0.624999X0*%
%ADD41RoundRect,0.301000X0.625000X-0.350000X0.625000X0.350000X-0.625000X0.350000X-0.625000X-0.350000X0*%
%ADD42O,1.852000X1.302000*%
%ADD43RoundRect,0.301000X0.350000X0.450000X-0.350000X0.450000X-0.350000X-0.450000X0.350000X-0.450000X0*%
%ADD44RoundRect,0.051000X0.675000X0.675000X-0.675000X0.675000X-0.675000X-0.675000X0.675000X-0.675000X0*%
G04 APERTURE END LIST*
D10*
X45491400Y-42717400D03*
D11*
X42951400Y-42717400D03*
X40411400Y-42717400D03*
X37871400Y-42717400D03*
X35331400Y-42717400D03*
D12*
X44475400Y-49042000D03*
X44475400Y-60042000D03*
D13*
X45475400Y-56542000D03*
D14*
X45475400Y-54542000D03*
X45475400Y-52542000D03*
X43475400Y-56542000D03*
X43475400Y-54542000D03*
X43475400Y-52542000D03*
D12*
X36728400Y-49092800D03*
X36728400Y-60092800D03*
D13*
X37728400Y-56592800D03*
D14*
X37728400Y-54592800D03*
X37728400Y-52592800D03*
X35728400Y-56592800D03*
X35728400Y-54592800D03*
X35728400Y-52592800D03*
D12*
X45378000Y-36291200D03*
X34378000Y-36291200D03*
D15*
X37878000Y-37291200D03*
D14*
X39878000Y-37291200D03*
X41878000Y-37291200D03*
X37878000Y-35291200D03*
X39878000Y-35291200D03*
X41878000Y-35291200D03*
D16*
X79619000Y-42168000D03*
D17*
X79619000Y-44168000D03*
X79619000Y-46168000D03*
X77619000Y-42168000D03*
X77619000Y-44168000D03*
X77619000Y-46168000D03*
D18*
X75375000Y-78020000D03*
X79856155Y-79876155D03*
X78000000Y-80645000D03*
X78000000Y-75395000D03*
X79856155Y-76163845D03*
X80625000Y-78020000D03*
X76143845Y-76163845D03*
D19*
X78000000Y-78020000D03*
D18*
X76143845Y-79876155D03*
X2495000Y-19780000D03*
X7745000Y-19780000D03*
X5120000Y-22405000D03*
D19*
X5120000Y-19780000D03*
D18*
X6976155Y-17923845D03*
X6976155Y-21636155D03*
X5120000Y-17155000D03*
X3263845Y-21636155D03*
X3263845Y-17923845D03*
X76143845Y-27006155D03*
X79856155Y-27006155D03*
X78000000Y-27775000D03*
X75375000Y-25150000D03*
X80625000Y-25150000D03*
X79856155Y-23293845D03*
X78000000Y-22525000D03*
X76143845Y-23293845D03*
D19*
X78000000Y-25130000D03*
D18*
X4000000Y-75395000D03*
X6625000Y-78020000D03*
X4000000Y-80645000D03*
X5856155Y-76163845D03*
X2143845Y-76163845D03*
X5856155Y-79876155D03*
D19*
X4000000Y-78020000D03*
D18*
X2143845Y-79876155D03*
X1375000Y-78020000D03*
D20*
X78000000Y-64520000D03*
D11*
X78000000Y-67060000D03*
D18*
X54456155Y-58756155D03*
X52600000Y-54275000D03*
X50743845Y-58756155D03*
X52600000Y-59525000D03*
X54456155Y-55043845D03*
X50743845Y-55043845D03*
X55225000Y-56900000D03*
X49975000Y-56900000D03*
D19*
X52600000Y-56900000D03*
D18*
X76143845Y-2163845D03*
D19*
X78000000Y-4020000D03*
D18*
X76143845Y-5876155D03*
X79856155Y-5876155D03*
X78000000Y-1395000D03*
X75375000Y-4020000D03*
X78000000Y-6645000D03*
X79856155Y-2163845D03*
X80625000Y-4020000D03*
D20*
X27178000Y-64272000D03*
D11*
X27178000Y-66812000D03*
X27178000Y-69352000D03*
X27178000Y-71892000D03*
D20*
X17411063Y-52856930D03*
X31496000Y-29357000D03*
D18*
X5856155Y-2163845D03*
X4000000Y-1395000D03*
X4000000Y-6645000D03*
X2143845Y-5876155D03*
X2143845Y-2163845D03*
X6625000Y-4020000D03*
X1375000Y-4020000D03*
D19*
X4000000Y-4020000D03*
D18*
X5856155Y-5876155D03*
X24943845Y-53483845D03*
X26800000Y-52715000D03*
X24175000Y-55340000D03*
X28656155Y-53483845D03*
X24943845Y-57196155D03*
D19*
X26800000Y-55340000D03*
D18*
X26800000Y-57965000D03*
X28656155Y-57196155D03*
X29425000Y-55340000D03*
D21*
X65913000Y-58313000D03*
X67988000Y-58313000D03*
D22*
X60731400Y-58236800D03*
X58656400Y-58236800D03*
D23*
X52793900Y-66709200D03*
X54063900Y-66709200D03*
X55333900Y-66709200D03*
X56603900Y-66709200D03*
X56603900Y-71659200D03*
X55333900Y-71659200D03*
X54063900Y-71659200D03*
X52793900Y-71659200D03*
D24*
X25728000Y-17111000D03*
X25728000Y-20086000D03*
D25*
X17130700Y-20612000D03*
X17130700Y-8812000D03*
D21*
X31028500Y-21443000D03*
X33103500Y-21443000D03*
X31007000Y-19157000D03*
X33082000Y-19157000D03*
D26*
X29411000Y-9207000D03*
X29411000Y-7132000D03*
D27*
X29210000Y-16871000D03*
X29210000Y-15601000D03*
X29210000Y-14331000D03*
X29210000Y-13061000D03*
X34160000Y-13061000D03*
X34160000Y-14331000D03*
X34160000Y-15601000D03*
X34160000Y-16871000D03*
D22*
X45509000Y-73934000D03*
X43434000Y-73934000D03*
D28*
X47488555Y-68177766D03*
X47488555Y-70252766D03*
D29*
X45334000Y-70886000D03*
X44384000Y-70886000D03*
X43434000Y-70886000D03*
X43434000Y-68186000D03*
X45334000Y-68186000D03*
D22*
X55499000Y-63443800D03*
X53424000Y-63443800D03*
D30*
X65735200Y-53715600D03*
X60855200Y-53715600D03*
D26*
X59425840Y-71919600D03*
X59425840Y-69844600D03*
D31*
X62992000Y-15287200D03*
X61722000Y-15287200D03*
X60452000Y-15287200D03*
X59182000Y-15287200D03*
X57912000Y-15287200D03*
X56642000Y-15287200D03*
X55372000Y-15287200D03*
X54102000Y-15287200D03*
X52832000Y-15287200D03*
X52832000Y-5987200D03*
X54102000Y-5987200D03*
X55372000Y-5987200D03*
X56642000Y-5987200D03*
X57912000Y-5987200D03*
X59182000Y-5987200D03*
X60452000Y-5987200D03*
X61722000Y-5987200D03*
X62992000Y-5987200D03*
D32*
X62986160Y-1853880D03*
X60986160Y-1853880D03*
D33*
X74168000Y-17811200D03*
X72898000Y-17811200D03*
X71628000Y-17811200D03*
X70358000Y-17811200D03*
X70358000Y-12861200D03*
X71628000Y-12861200D03*
X72898000Y-12861200D03*
X74168000Y-12861200D03*
D28*
X65656460Y-5859460D03*
X65656460Y-7934460D03*
D21*
X71242100Y-9689780D03*
X73317100Y-9689780D03*
X71607000Y-21136800D03*
X73682000Y-21136800D03*
D34*
X72412000Y-49635600D03*
X70362000Y-49635600D03*
X62596280Y-32079120D03*
X60546280Y-32079120D03*
D35*
X53801200Y-48213200D03*
X55851200Y-48213200D03*
D34*
X73377200Y-32871600D03*
X71327200Y-32871600D03*
X77733000Y-54356000D03*
X75683000Y-54356000D03*
D36*
X75612400Y-49829800D03*
X75612400Y-51879800D03*
D31*
X72122440Y-45075560D03*
X70852440Y-45075560D03*
X69582440Y-45075560D03*
X68312440Y-45075560D03*
X67042440Y-45075560D03*
X65772440Y-45075560D03*
X64502440Y-45075560D03*
X63232440Y-45075560D03*
X61962440Y-45075560D03*
X60692440Y-45075560D03*
X59422440Y-45075560D03*
X58152440Y-45075560D03*
X56882440Y-45075560D03*
X55612440Y-45075560D03*
X55612440Y-35775560D03*
X56882440Y-35775560D03*
X58152440Y-35775560D03*
X59422440Y-35775560D03*
X60692440Y-35775560D03*
X61962440Y-35775560D03*
X63232440Y-35775560D03*
X64502440Y-35775560D03*
X65772440Y-35775560D03*
X67042440Y-35775560D03*
X68312440Y-35775560D03*
X69582440Y-35775560D03*
X70852440Y-35775560D03*
X72122440Y-35775560D03*
D37*
X26363000Y-6204500D03*
X26363000Y-9329500D03*
D38*
X8658000Y-32754000D03*
X8658000Y-30754000D03*
D39*
X8650000Y-41800000D03*
X44704000Y-13228000D03*
D38*
X8658000Y-37834000D03*
X8658000Y-35834000D03*
D26*
X32078000Y-9207000D03*
X32078000Y-7132000D03*
D40*
X38482000Y-9164000D03*
X35507000Y-9164000D03*
D41*
X11400000Y-64800000D03*
D42*
X11400000Y-62800000D03*
D38*
X29217315Y-26457302D03*
X29217315Y-24457302D03*
D41*
X11400000Y-50000000D03*
D42*
X11400000Y-48000000D03*
D43*
X40882717Y-68193844D03*
X38882717Y-68193844D03*
X67046000Y-3560000D03*
X65046000Y-3560000D03*
D41*
X11400000Y-72150000D03*
D42*
X11400000Y-70150000D03*
D44*
X4096000Y-29688000D03*
D17*
X4096000Y-31688000D03*
X4096000Y-33688000D03*
X6096000Y-29688000D03*
X6096000Y-31688000D03*
X6096000Y-33688000D03*
D35*
X17375000Y-48000000D03*
X19425000Y-48000000D03*
D39*
X36576000Y-64028000D03*
D41*
X11400000Y-57450000D03*
D42*
X11400000Y-55450000D03*
G36*
X44758267Y-70089301D02*
G01*
X44809946Y-70132489D01*
X44878661Y-70141120D01*
X44941291Y-70111156D01*
X44959348Y-70090318D01*
X44961238Y-70089664D01*
X44962749Y-70090974D01*
X44962821Y-70092018D01*
X44960000Y-70106199D01*
X44960000Y-71665801D01*
X44962978Y-71680774D01*
X44962335Y-71682668D01*
X44960373Y-71683058D01*
X44959733Y-71682699D01*
X44908054Y-71639511D01*
X44839339Y-71630880D01*
X44776709Y-71660844D01*
X44758652Y-71681682D01*
X44756762Y-71682336D01*
X44755251Y-71681026D01*
X44755179Y-71679982D01*
X44758000Y-71665801D01*
X44758000Y-70106199D01*
X44755022Y-70091226D01*
X44755665Y-70089332D01*
X44757627Y-70088942D01*
X44758267Y-70089301D01*
G37*
G36*
X43808267Y-70089301D02*
G01*
X43859946Y-70132489D01*
X43928661Y-70141120D01*
X43991291Y-70111156D01*
X44009348Y-70090318D01*
X44011238Y-70089664D01*
X44012749Y-70090974D01*
X44012821Y-70092018D01*
X44010000Y-70106199D01*
X44010000Y-71665801D01*
X44012978Y-71680774D01*
X44012335Y-71682668D01*
X44010373Y-71683058D01*
X44009733Y-71682699D01*
X43958054Y-71639511D01*
X43889339Y-71630880D01*
X43826709Y-71660844D01*
X43808652Y-71681682D01*
X43806762Y-71682336D01*
X43805251Y-71681026D01*
X43805179Y-71679982D01*
X43808000Y-71665801D01*
X43808000Y-70106199D01*
X43805022Y-70091226D01*
X43805665Y-70089332D01*
X43807627Y-70088942D01*
X43808267Y-70089301D01*
G37*
M02*
