M48
; DRILL file {KiCad (5.1.6)-1} date 11/24/21 18:58:55
; FORMAT={-:-/ absolute / inch / decimal}
; #@! TF.CreationDate,2021-11-24T18:58:55-05:00
; #@! TF.GenerationSoftware,Kicad,Pcbnew,(5.1.6)-1
; #@! TF.FileFunction,Plated,1,4,PTH
FMAT,2
INCH
T1C0.0150
T2C0.0157
T3C0.0268
T4C0.0315
T5C0.0374
T6C0.0394
T7C0.1378
%
G90
G05
T1
X4.35Y-3.816
X4.3804Y-4.3434
X4.3804Y-4.4034
X4.3809Y-4.2844
X4.4644Y-4.4844
X4.52Y-5.5802
X4.5209Y-4.6984
X4.5829Y-5.4254
X4.6009Y-4.1884
X4.801Y-4.7553
X4.8422Y-3.058
X4.8888Y-3.0585
X4.8989Y-5.4232
X4.899Y-4.5135
X4.978Y-3.864
X5.056Y-4.119
X5.057Y-4.159
X5.0775Y-4.6478
X5.0775Y-4.6878
X5.0777Y-4.7312
X5.1047Y-3.7129
X5.12Y-3.18
X5.152Y-3.598
X5.222Y-3.866
X5.223Y-3.639
X5.249Y-3.435
X5.271Y-2.751
X5.449Y-2.714
X5.498Y-2.781
X5.5584Y-5.2511
X5.6749Y-2.8164
X5.7494Y-2.9519
X5.75Y-3.4616
X5.7502Y-2.909
X5.7865Y-2.9517
X5.7865Y-2.9978
X5.8224Y-5.239
X5.9319Y-2.9374
X5.9324Y-2.8989
X5.9469Y-5.4054
X5.9477Y-5.3201
X5.9499Y-5.6194
X5.9557Y-3.7135
X5.9639Y-4.3859
X6.0109Y-3.3634
X6.0159Y-5.8524
X6.0389Y-4.2794
X6.0459Y-3.3634
X6.0529Y-4.5674
X6.0898Y-3.3645
X6.1355Y-5.196
X6.1619Y-3.9734
X6.1969Y-5.5824
X6.2049Y-3.9314
X6.2069Y-3.7874
X6.2289Y-4.3714
X6.2589Y-3.7914
X6.2619Y-4.6154
X6.2629Y-4.8574
X6.2629Y-4.8994
X6.2629Y-4.9394
X6.2629Y-4.9814
X6.2649Y-3.3674
X6.3109Y-3.3664
X6.3409Y-5.1954
X6.3499Y-4.0089
X6.3569Y-3.3654
X6.4139Y-5.5014
X6.4149Y-5.4184
X6.4287Y-3.719
X6.4989Y-4.1412
X6.5009Y-4.3614
X6.548Y-3.167
X6.5609Y-3.7554
X6.5809Y-5.5054
X6.5948Y-3.0487
X6.5954Y-2.8281
X6.6199Y-5.7534
X6.6296Y-3.255
X6.6489Y-4.3614
X6.6692Y-2.8974
X6.7147Y-3.6003
X6.7489Y-4.8404
X6.7489Y-4.8824
X6.7489Y-4.9224
X6.7489Y-4.9644
X6.7494Y-3.9684
X6.7596Y-2.8974
X6.7599Y-5.4804
X6.7609Y-5.2014
X6.7609Y-5.3444
X6.7989Y-4.9134
X6.8512Y-4.3011
X6.8849Y-4.5214
X6.8919Y-5.3084
X6.9369Y-4.5454
X6.9489Y-3.0499
X6.9589Y-3.9634
X6.9709Y-4.2894
X7.0109Y-4.2894
X7.0179Y-5.0984
X7.0289Y-5.4304
X7.1179Y-4.6904
X7.1316Y-4.8801
X7.2079Y-4.0679
X7.2079Y-4.1114
X7.2079Y-4.1559
T2
X4.434Y-3.248
X4.434Y-3.358
X4.434Y-3.478
X4.434Y-3.598
X4.48Y-2.846
X4.48Y-2.891
X4.48Y-2.936
X4.48Y-2.981
X4.48Y-3.026
X4.48Y-3.071
X4.5189Y-3.4176
X4.5189Y-3.536
X4.5189Y-3.6503
X4.5198Y-3.3029
X4.54Y-2.846
X4.54Y-2.891
X4.54Y-2.936
X4.54Y-2.981
X4.54Y-3.026
X4.54Y-3.071
X4.5799Y-5.5185
X4.5993Y-4.1282
X4.603Y-2.845
X4.603Y-2.89
X4.603Y-2.935
X4.603Y-2.98
X4.603Y-3.025
X4.603Y-3.07
X4.614Y-3.248
X4.614Y-3.358
X4.614Y-3.478
X4.614Y-3.598
X4.664Y-2.845
X4.664Y-2.89
X4.664Y-3.025
X4.664Y-3.07
X4.7057Y-4.4
X4.7069Y-4.3372
X4.7123Y-3.4173
X4.7128Y-3.536
X4.7133Y-3.3029
X4.7133Y-3.6492
X4.723Y-2.844
X4.723Y-3.069
X4.782Y-2.844
X4.782Y-3.069
X4.792Y-4.1509
X4.7929Y-2.931
X4.7929Y-2.9824
X4.794Y-3.248
X4.794Y-3.358
X4.794Y-3.478
X4.794Y-3.598
X4.8611Y-4.3992
X4.8615Y-4.3402
X4.8989Y-4.3402
X4.9003Y-4.3992
X4.935Y-4.3394
X4.935Y-4.3994
X5.0563Y-4.075
X5.118Y-3.448
X5.4462Y-3.7513
X5.5794Y-3.428
X5.6236Y-5.2509
X5.638Y-3.314
X5.748Y-2.9978
X5.75Y-3.3244
X5.8237Y-5.6351
X5.9499Y-5.4794
X5.9499Y-5.5784
X5.95Y-5.529
X6.045Y-5.135
X6.1369Y-4.2994
X6.239Y-5.09
X6.2399Y-2.8064
X6.2902Y-2.8058
X6.34Y-2.8055
X6.39Y-2.8052
X6.394Y-3.864
X6.4009Y-5.1504
X6.5589Y-4.6474
X6.6469Y-3.7594
X6.6709Y-4.6394
X6.6982Y-4.5194
X6.7472Y-4.5186
X6.7609Y-5.7484
X6.7689Y-3.8574
X6.8209Y-3.656
X6.9417Y-4.1555
X6.9451Y-4.7612
X6.9789Y-3.5014
X6.987Y-3.33
X7.062Y-3.326
X7.118Y-4.736
T3
X5.4166Y-4.7398
X5.4166Y-4.8185
X5.4166Y-4.8973
X5.4954Y-4.7398
X5.4954Y-4.8185
X5.4954Y-4.8973
X5.5013Y-4.0586
X5.5013Y-4.1374
X5.58Y-4.0586
X5.58Y-4.1374
X5.6587Y-4.0586
X5.6587Y-4.1374
X5.7216Y-4.7378
X5.7216Y-4.8165
X5.7216Y-4.8953
X5.8004Y-4.7378
X5.8004Y-4.8165
X5.8004Y-4.8953
T4
X7.0659Y-4.3294
X7.0659Y-4.4081
X7.0659Y-4.4869
X7.1446Y-4.3294
X7.1446Y-4.4081
X7.1446Y-4.4869
X4.1203Y-3.7255
X4.1203Y-3.8043
X4.1203Y-3.883
X4.199Y-3.7255
X4.199Y-3.8043
X4.199Y-3.883
X6.0979Y-3.518
X6.29Y-3.518
X6.4059Y-4.784
X6.598Y-4.784
T5
X4.4609Y-4.5574
X4.4609Y-4.6558
X4.4609Y-4.7542
X4.4609Y-4.8526
X4.4609Y-4.9511
X4.4609Y-5.0495
X4.4609Y-5.1479
X4.4609Y-5.2463
X4.4609Y-5.3448
X4.4609Y-5.4432
T6
X5.401Y-4.351
X5.501Y-4.351
X5.601Y-4.351
X5.701Y-4.351
X5.801Y-4.351
T7
X4.1675Y-3.3267
X4.1675Y-2.8275
X5.0982Y-5.2417
X7.0809Y-2.8275
X7.0809Y-5.7409
X7.0809Y-3.6594
X4.1675Y-5.7409
X6.0809Y-4.9094
T0
M30
