%FSLAX45Y45*%
G04 Gerber Fmt 4.5, Leading zero omitted, Abs format (unit mm)*
G04 Created by KiCad (PCBNEW (6.0.1)) date 2022-05-22 14:08:44*
%MOMM*%
%LPD*%
G01*
G04 APERTURE LIST*
%TA.AperFunction,Profile*%
%ADD10C,0.050000*%
%TD*%
%ADD11C,0.200000*%
%ADD12C,0.030000*%
%ADD13C,0.038100*%
%ADD14C,0.040000*%
%ADD15C,0.050000*%
%ADD16C,0.068000*%
%ADD17C,0.075000*%
%ADD18C,0.080000*%
%ADD19C,0.100000*%
%ADD20C,0.350000*%
G04 APERTURE END LIST*
D10*
X3350000Y-7702000D02*
X4850000Y-7702000D01*
X3350000Y-7702000D02*
X3350000Y-8202000D01*
X4850000Y-7702000D02*
X4850000Y-8202000D01*
X4850000Y-8202000D02*
X8200000Y-8202000D01*
X0Y-2000D02*
X8200000Y-2000D01*
X8200000Y-2000D02*
X8200000Y-8202000D01*
X3350000Y-8202000D02*
X0Y-8202000D01*
X0Y-8202000D02*
X0Y-2000D01*
D11*
D12*
X1675148Y-3837673D02*
X1705148Y-3867673D01*
X1705148Y-3837673D02*
X1675148Y-3867673D01*
X1675148Y-3967673D02*
X1705148Y-3997673D01*
X1705148Y-3967673D02*
X1675148Y-3997673D01*
X1675148Y-4097673D02*
X1705148Y-4127673D01*
X1705148Y-4097673D02*
X1675148Y-4127673D01*
X1805148Y-3837673D02*
X1835148Y-3867673D01*
X1835148Y-3837673D02*
X1805148Y-3867673D01*
X1805148Y-3967673D02*
X1835148Y-3997673D01*
X1835148Y-3967673D02*
X1805148Y-3997673D01*
X1805148Y-4097673D02*
X1835148Y-4127673D01*
X1835148Y-4097673D02*
X1805148Y-4127673D01*
X1935148Y-3837673D02*
X1965148Y-3867673D01*
X1965148Y-3837673D02*
X1935148Y-3867673D01*
X1935148Y-3967673D02*
X1965148Y-3997673D01*
X1965148Y-3967673D02*
X1935148Y-3997673D01*
X1935148Y-4097673D02*
X1965148Y-4127673D01*
X1965148Y-4097673D02*
X1935148Y-4127673D01*
X2065148Y-3837673D02*
X2095148Y-3867673D01*
X2095148Y-3837673D02*
X2065148Y-3867673D01*
X2065148Y-3967673D02*
X2095148Y-3997673D01*
X2095148Y-3967673D02*
X2065148Y-3997673D01*
X2065148Y-4097673D02*
X2095148Y-4127673D01*
X2095148Y-4097673D02*
X2065148Y-4127673D01*
X2195148Y-3837673D02*
X2225148Y-3867673D01*
X2225148Y-3837673D02*
X2195148Y-3867673D01*
X2195148Y-3967673D02*
X2225148Y-3997673D01*
X2225148Y-3967673D02*
X2195148Y-3997673D01*
X2195148Y-4097673D02*
X2225148Y-4127673D01*
X2225148Y-4097673D02*
X2195148Y-4127673D01*
D13*
X1314450Y-7393908D02*
G75*
G03*
X1314450Y-7393908I-19050J0D01*
G01*
X1508356Y-3516253D02*
G75*
G03*
X1508356Y-3516253I-19050J0D01*
G01*
X2016696Y-4942793D02*
G75*
G03*
X2016696Y-4942793I-19050J0D01*
G01*
X2276770Y-6995052D02*
G75*
G03*
X2276770Y-6995052I-19050J0D01*
G01*
X2279650Y-4267200D02*
G75*
G03*
X2279650Y-4267200I-19050J0D01*
G01*
X2718920Y-4784729D02*
G75*
G03*
X2718920Y-4784729I-19050J0D01*
G01*
X2719428Y-4894965D02*
G75*
G03*
X2719428Y-4894965I-19050J0D01*
G01*
X3446116Y-2643334D02*
G75*
G03*
X3446116Y-2643334I-19050J0D01*
G01*
X3646550Y-2290000D02*
G75*
G03*
X3646550Y-2290000I-19050J0D01*
G01*
X3825116Y-762516D02*
G75*
G03*
X3825116Y-762516I-19050J0D01*
G01*
X4159250Y-914400D02*
G75*
G03*
X4159250Y-914400I-19050J0D01*
G01*
X4900590Y-681120D02*
G75*
G03*
X4900590Y-681120I-19050J0D01*
G01*
X4901860Y-583330D02*
G75*
G03*
X4901860Y-583330I-19050J0D01*
G01*
X4938690Y-6961600D02*
G75*
G03*
X4938690Y-6961600I-19050J0D01*
G01*
X5101250Y-1763160D02*
G75*
G03*
X5101250Y-1763160I-19050J0D01*
G01*
X5113950Y-8085220D02*
G75*
G03*
X5113950Y-8085220I-19050J0D01*
G01*
X5190150Y-1763160D02*
G75*
G03*
X5190150Y-1763160I-19050J0D01*
G01*
X5301624Y-1766052D02*
G75*
G03*
X5301624Y-1766052I-19050J0D01*
G01*
X5398770Y-4660360D02*
G75*
G03*
X5398770Y-4660360I-19050J0D01*
G01*
X5403850Y-3403600D02*
G75*
G03*
X5403850Y-3403600I-19050J0D01*
G01*
X5599090Y-2840120D02*
G75*
G03*
X5599090Y-2840120I-19050J0D01*
G01*
X5710850Y-4953400D02*
G75*
G03*
X5710850Y-4953400I-19050J0D01*
G01*
X5731170Y-2850280D02*
G75*
G03*
X5731170Y-2850280I-19050J0D01*
G01*
X5734050Y-5816600D02*
G75*
G03*
X5734050Y-5816600I-19050J0D01*
G01*
X5746410Y-1773320D02*
G75*
G03*
X5746410Y-1773320I-19050J0D01*
G01*
X5759450Y-6146800D02*
G75*
G03*
X5759450Y-6146800I-19050J0D01*
G01*
X5863250Y-1770780D02*
G75*
G03*
X5863250Y-1770780I-19050J0D01*
G01*
X5962310Y-3402730D02*
G75*
G03*
X5962310Y-3402730I-19050J0D01*
G01*
X5980090Y-1768240D02*
G75*
G03*
X5980090Y-1768240I-19050J0D01*
G01*
X6340770Y-3738904D02*
G75*
G03*
X6340770Y-3738904I-19050J0D01*
G01*
X6343650Y-7010400D02*
G75*
G03*
X6343650Y-7010400I-19050J0D01*
G01*
X6345850Y-4298080D02*
G75*
G03*
X6345850Y-4298080I-19050J0D01*
G01*
X6496050Y-2743200D02*
G75*
G03*
X6496050Y-2743200I-19050J0D01*
G01*
X6721770Y-4298080D02*
G75*
G03*
X6721770Y-4298080I-19050J0D01*
G01*
X6775450Y-812800D02*
G75*
G03*
X6775450Y-812800I-19050J0D01*
G01*
X6818050Y-5690000D02*
G75*
G03*
X6818050Y-5690000I-19050J0D01*
G01*
X7003034Y-579596D02*
G75*
G03*
X7003034Y-579596I-19050J0D01*
G01*
X7483856Y-966946D02*
G75*
G03*
X7483856Y-966946I-19050J0D01*
G01*
X7530935Y-3284467D02*
G75*
G03*
X7530935Y-3284467I-19050J0D01*
G01*
X7913030Y-5133740D02*
G75*
G03*
X7913030Y-5133740I-19050J0D01*
G01*
D14*
X177800Y-1328200D02*
X177800Y-1368200D01*
X157800Y-1348200D02*
X197800Y-1348200D01*
X177800Y-1531400D02*
X177800Y-1571400D01*
X157800Y-1551400D02*
X197800Y-1551400D01*
X177800Y-2420400D02*
X177800Y-2460400D01*
X157800Y-2440400D02*
X197800Y-2440400D01*
X177800Y-2649000D02*
X177800Y-2689000D01*
X157800Y-2669000D02*
X197800Y-2669000D01*
X177800Y-2928400D02*
X177800Y-2968400D01*
X157800Y-2948400D02*
X197800Y-2948400D01*
X177800Y-3182400D02*
X177800Y-3222400D01*
X157800Y-3202400D02*
X197800Y-3202400D01*
X180000Y-844000D02*
X180000Y-884000D01*
X160000Y-864000D02*
X200000Y-864000D01*
X180000Y-1098000D02*
X180000Y-1138000D01*
X160000Y-1118000D02*
X200000Y-1118000D01*
X180000Y-3384000D02*
X180000Y-3424000D01*
X160000Y-3404000D02*
X200000Y-3404000D01*
X180000Y-3638000D02*
X180000Y-3678000D01*
X160000Y-3658000D02*
X200000Y-3658000D01*
X180000Y-3892000D02*
X180000Y-3932000D01*
X160000Y-3912000D02*
X200000Y-3912000D01*
X180000Y-4146000D02*
X180000Y-4186000D01*
X160000Y-4166000D02*
X200000Y-4166000D01*
X180000Y-4400000D02*
X180000Y-4440000D01*
X160000Y-4420000D02*
X200000Y-4420000D01*
X180000Y-4654000D02*
X180000Y-4694000D01*
X160000Y-4674000D02*
X200000Y-4674000D01*
X180000Y-4908000D02*
X180000Y-4948000D01*
X160000Y-4928000D02*
X200000Y-4928000D01*
X180000Y-5162000D02*
X180000Y-5202000D01*
X160000Y-5182000D02*
X200000Y-5182000D01*
X180000Y-5416000D02*
X180000Y-5456000D01*
X160000Y-5436000D02*
X200000Y-5436000D01*
X180000Y-5670000D02*
X180000Y-5710000D01*
X160000Y-5690000D02*
X200000Y-5690000D01*
X180000Y-5924000D02*
X180000Y-5964000D01*
X160000Y-5944000D02*
X200000Y-5944000D01*
X180000Y-6178000D02*
X180000Y-6218000D01*
X160000Y-6198000D02*
X200000Y-6198000D01*
X180000Y-6432000D02*
X180000Y-6472000D01*
X160000Y-6452000D02*
X200000Y-6452000D01*
X180000Y-6686000D02*
X180000Y-6726000D01*
X160000Y-6706000D02*
X200000Y-6706000D01*
X180000Y-6940000D02*
X180000Y-6980000D01*
X160000Y-6960000D02*
X200000Y-6960000D01*
X180000Y-7194000D02*
X180000Y-7234000D01*
X160000Y-7214000D02*
X200000Y-7214000D01*
X431800Y-1328200D02*
X431800Y-1368200D01*
X411800Y-1348200D02*
X451800Y-1348200D01*
X431800Y-1531400D02*
X431800Y-1571400D01*
X411800Y-1551400D02*
X451800Y-1551400D01*
X431800Y-2420400D02*
X431800Y-2460400D01*
X411800Y-2440400D02*
X451800Y-2440400D01*
X431800Y-2649000D02*
X431800Y-2689000D01*
X411800Y-2669000D02*
X451800Y-2669000D01*
X431800Y-3639600D02*
X431800Y-3679600D01*
X411800Y-3659600D02*
X451800Y-3659600D01*
X431800Y-3893600D02*
X431800Y-3933600D01*
X411800Y-3913600D02*
X451800Y-3913600D01*
X431800Y-4147600D02*
X431800Y-4187600D01*
X411800Y-4167600D02*
X451800Y-4167600D01*
X434000Y-844000D02*
X434000Y-884000D01*
X414000Y-864000D02*
X454000Y-864000D01*
X434000Y-1098000D02*
X434000Y-1138000D01*
X414000Y-1118000D02*
X454000Y-1118000D01*
X434000Y-4400000D02*
X434000Y-4440000D01*
X414000Y-4420000D02*
X454000Y-4420000D01*
X434000Y-4654000D02*
X434000Y-4694000D01*
X414000Y-4674000D02*
X454000Y-4674000D01*
X434000Y-4908000D02*
X434000Y-4948000D01*
X414000Y-4928000D02*
X454000Y-4928000D01*
X434000Y-5162000D02*
X434000Y-5202000D01*
X414000Y-5182000D02*
X454000Y-5182000D01*
X434000Y-5416000D02*
X434000Y-5456000D01*
X414000Y-5436000D02*
X454000Y-5436000D01*
X434000Y-5670000D02*
X434000Y-5710000D01*
X414000Y-5690000D02*
X454000Y-5690000D01*
X434000Y-5924000D02*
X434000Y-5964000D01*
X414000Y-5944000D02*
X454000Y-5944000D01*
X434000Y-6178000D02*
X434000Y-6218000D01*
X414000Y-6198000D02*
X454000Y-6198000D01*
X434000Y-6432000D02*
X434000Y-6472000D01*
X414000Y-6452000D02*
X454000Y-6452000D01*
X434000Y-6686000D02*
X434000Y-6726000D01*
X414000Y-6706000D02*
X454000Y-6706000D01*
X434000Y-6940000D02*
X434000Y-6980000D01*
X414000Y-6960000D02*
X454000Y-6960000D01*
X434000Y-7194000D02*
X434000Y-7234000D01*
X414000Y-7214000D02*
X454000Y-7214000D01*
X688000Y-82000D02*
X688000Y-122000D01*
X668000Y-102000D02*
X708000Y-102000D01*
X863600Y-2672400D02*
X863600Y-2712400D01*
X843600Y-2692400D02*
X883600Y-2692400D01*
X939800Y-337600D02*
X939800Y-377600D01*
X919800Y-357600D02*
X959800Y-357600D01*
X942000Y-82000D02*
X942000Y-122000D01*
X922000Y-102000D02*
X962000Y-102000D01*
X942000Y-7702000D02*
X942000Y-7742000D01*
X922000Y-7722000D02*
X962000Y-7722000D01*
X942000Y-7956000D02*
X942000Y-7996000D01*
X922000Y-7976000D02*
X962000Y-7976000D01*
X1067400Y-3763400D02*
X1067400Y-3803400D01*
X1047400Y-3783400D02*
X1087400Y-3783400D01*
X1193800Y-337600D02*
X1193800Y-377600D01*
X1173800Y-357600D02*
X1213800Y-357600D01*
X1196000Y-82000D02*
X1196000Y-122000D01*
X1176000Y-102000D02*
X1216000Y-102000D01*
X1196000Y-7702000D02*
X1196000Y-7742000D01*
X1176000Y-7722000D02*
X1216000Y-7722000D01*
X1196000Y-7956000D02*
X1196000Y-7996000D01*
X1176000Y-7976000D02*
X1216000Y-7976000D01*
X1447546Y-7217190D02*
X1447546Y-7257190D01*
X1427546Y-7237190D02*
X1467546Y-7237190D01*
X1447800Y-337600D02*
X1447800Y-377600D01*
X1427800Y-357600D02*
X1467800Y-357600D01*
X1450000Y-82000D02*
X1450000Y-122000D01*
X1430000Y-102000D02*
X1470000Y-102000D01*
X1478280Y-4919760D02*
X1478280Y-4959760D01*
X1458280Y-4939760D02*
X1498280Y-4939760D01*
X1701800Y-337600D02*
X1701800Y-377600D01*
X1681800Y-357600D02*
X1721800Y-357600D01*
X1704000Y-82000D02*
X1704000Y-122000D01*
X1684000Y-102000D02*
X1724000Y-102000D01*
X1930400Y-2466120D02*
X1930400Y-2506120D01*
X1910400Y-2486120D02*
X1950400Y-2486120D01*
X1955800Y-337600D02*
X1955800Y-377600D01*
X1935800Y-357600D02*
X1975800Y-357600D01*
X1955800Y-540800D02*
X1955800Y-580800D01*
X1935800Y-560800D02*
X1975800Y-560800D01*
X1958000Y-82000D02*
X1958000Y-122000D01*
X1938000Y-102000D02*
X1978000Y-102000D01*
X1981200Y-3487200D02*
X1981200Y-3527200D01*
X1961200Y-3507200D02*
X2001200Y-3507200D01*
X2092960Y-4980720D02*
X2092960Y-5020720D01*
X2072960Y-5000720D02*
X2112960Y-5000720D01*
X2120900Y-439200D02*
X2120900Y-479200D01*
X2100900Y-459200D02*
X2140900Y-459200D01*
X2204720Y-2623600D02*
X2204720Y-2663600D01*
X2184720Y-2643600D02*
X2224720Y-2643600D01*
X2209800Y-337600D02*
X2209800Y-377600D01*
X2189800Y-357600D02*
X2229800Y-357600D01*
X2212000Y-82000D02*
X2212000Y-122000D01*
X2192000Y-102000D02*
X2232000Y-102000D01*
X2463800Y-337600D02*
X2463800Y-377600D01*
X2443800Y-357600D02*
X2483800Y-357600D01*
X2466000Y-82000D02*
X2466000Y-122000D01*
X2446000Y-102000D02*
X2486000Y-102000D01*
X2569150Y-2141000D02*
X2569150Y-2181000D01*
X2549150Y-2161000D02*
X2589150Y-2161000D01*
X2641600Y-437200D02*
X2641600Y-477200D01*
X2621600Y-457200D02*
X2661600Y-457200D01*
X2692400Y-4653600D02*
X2692400Y-4693600D01*
X2672400Y-4673600D02*
X2712400Y-4673600D01*
X2692400Y-4983800D02*
X2692400Y-5023800D01*
X2672400Y-5003800D02*
X2712400Y-5003800D01*
X2717800Y-337600D02*
X2717800Y-377600D01*
X2697800Y-357600D02*
X2737800Y-357600D01*
X2720000Y-82000D02*
X2720000Y-122000D01*
X2700000Y-102000D02*
X2740000Y-102000D01*
X2946400Y-538800D02*
X2946400Y-578800D01*
X2926400Y-558800D02*
X2966400Y-558800D01*
X2971800Y-337600D02*
X2971800Y-377600D01*
X2951800Y-357600D02*
X2991800Y-357600D01*
X2971800Y-3866200D02*
X2971800Y-3906200D01*
X2951800Y-3886200D02*
X2991800Y-3886200D01*
X2974000Y-82000D02*
X2974000Y-122000D01*
X2954000Y-102000D02*
X2994000Y-102000D01*
X2974000Y-7956000D02*
X2974000Y-7996000D01*
X2954000Y-7976000D02*
X2994000Y-7976000D01*
X3012500Y-7582500D02*
X3012500Y-7622500D01*
X2992500Y-7602500D02*
X3032500Y-7602500D01*
X3073400Y-5136200D02*
X3073400Y-5176200D01*
X3053400Y-5156200D02*
X3093400Y-5156200D01*
X3083560Y-4686080D02*
X3083560Y-4726080D01*
X3063560Y-4706080D02*
X3103560Y-4706080D01*
X3098800Y-4350800D02*
X3098800Y-4390800D01*
X3078800Y-4370800D02*
X3118800Y-4370800D01*
X3102550Y-1277400D02*
X3102550Y-1317400D01*
X3082550Y-1297400D02*
X3122550Y-1297400D01*
X3102550Y-1404400D02*
X3102550Y-1444400D01*
X3082550Y-1424400D02*
X3122550Y-1424400D01*
X3102550Y-1531400D02*
X3102550Y-1571400D01*
X3082550Y-1551400D02*
X3122550Y-1551400D01*
X3102550Y-1658400D02*
X3102550Y-1698400D01*
X3082550Y-1678400D02*
X3122550Y-1678400D01*
X3124200Y-538800D02*
X3124200Y-578800D01*
X3104200Y-558800D02*
X3144200Y-558800D01*
X3213100Y-7587300D02*
X3213100Y-7627300D01*
X3193100Y-7607300D02*
X3233100Y-7607300D01*
X3225800Y-337600D02*
X3225800Y-377600D01*
X3205800Y-357600D02*
X3245800Y-357600D01*
X3228000Y-82000D02*
X3228000Y-122000D01*
X3208000Y-102000D02*
X3248000Y-102000D01*
X3228000Y-7956000D02*
X3228000Y-7996000D01*
X3208000Y-7976000D02*
X3248000Y-7976000D01*
X3229550Y-1277400D02*
X3229550Y-1317400D01*
X3209550Y-1297400D02*
X3249550Y-1297400D01*
X3229550Y-1404400D02*
X3229550Y-1444400D01*
X3209550Y-1424400D02*
X3249550Y-1424400D01*
X3229550Y-1531400D02*
X3229550Y-1571400D01*
X3209550Y-1551400D02*
X3249550Y-1551400D01*
X3229550Y-1658400D02*
X3229550Y-1698400D01*
X3209550Y-1678400D02*
X3249550Y-1678400D01*
X3262570Y-2278160D02*
X3262570Y-2318160D01*
X3242570Y-2298160D02*
X3282570Y-2298160D01*
X3352800Y-4604800D02*
X3352800Y-4644800D01*
X3332800Y-4624800D02*
X3372800Y-4624800D01*
X3378200Y-2824800D02*
X3378200Y-2864800D01*
X3358200Y-2844800D02*
X3398200Y-2844800D01*
X3479800Y-337600D02*
X3479800Y-377600D01*
X3459800Y-357600D02*
X3499800Y-357600D01*
X3479800Y-490000D02*
X3479800Y-530000D01*
X3459800Y-510000D02*
X3499800Y-510000D01*
X3482000Y-82000D02*
X3482000Y-122000D01*
X3462000Y-102000D02*
X3502000Y-102000D01*
X3512500Y-2147500D02*
X3512500Y-2187500D01*
X3492500Y-2167500D02*
X3532500Y-2167500D01*
X3515000Y-2270000D02*
X3515000Y-2310000D01*
X3495000Y-2290000D02*
X3535000Y-2290000D01*
X3625000Y-2147500D02*
X3625000Y-2187500D01*
X3605000Y-2167500D02*
X3645000Y-2167500D01*
X3733800Y-337600D02*
X3733800Y-377600D01*
X3713800Y-357600D02*
X3753800Y-357600D01*
X3733800Y-490000D02*
X3733800Y-530000D01*
X3713800Y-510000D02*
X3753800Y-510000D01*
X3736000Y-82000D02*
X3736000Y-122000D01*
X3716000Y-102000D02*
X3756000Y-102000D01*
X3860800Y-4935000D02*
X3860800Y-4975000D01*
X3840800Y-4955000D02*
X3880800Y-4955000D01*
X3860800Y-5900200D02*
X3860800Y-5940200D01*
X3840800Y-5920200D02*
X3880800Y-5920200D01*
X3886200Y-6941600D02*
X3886200Y-6981600D01*
X3866200Y-6961600D02*
X3906200Y-6961600D01*
X3962400Y-6255800D02*
X3962400Y-6295800D01*
X3942400Y-6275800D02*
X3982400Y-6275800D01*
X3987800Y-337600D02*
X3987800Y-377600D01*
X3967800Y-357600D02*
X4007800Y-357600D01*
X3987800Y-490000D02*
X3987800Y-530000D01*
X3967800Y-510000D02*
X4007800Y-510000D01*
X3990000Y-82000D02*
X3990000Y-122000D01*
X3970000Y-102000D02*
X4010000Y-102000D01*
X4013200Y-742000D02*
X4013200Y-782000D01*
X3993200Y-762000D02*
X4033200Y-762000D01*
X4013200Y-894400D02*
X4013200Y-934400D01*
X3993200Y-914400D02*
X4033200Y-914400D01*
X4038600Y-4935000D02*
X4038600Y-4975000D01*
X4018600Y-4955000D02*
X4058600Y-4955000D01*
X4038600Y-5900200D02*
X4038600Y-5940200D01*
X4018600Y-5920200D02*
X4058600Y-5920200D01*
X4241800Y-337600D02*
X4241800Y-377600D01*
X4221800Y-357600D02*
X4261800Y-357600D01*
X4241800Y-490000D02*
X4241800Y-530000D01*
X4221800Y-510000D02*
X4261800Y-510000D01*
X4244000Y-82000D02*
X4244000Y-122000D01*
X4224000Y-102000D02*
X4264000Y-102000D01*
X4715000Y-3975000D02*
X4715000Y-4015000D01*
X4695000Y-3995000D02*
X4735000Y-3995000D01*
X4755000Y-7342500D02*
X4755000Y-7382500D01*
X4735000Y-7362500D02*
X4775000Y-7362500D01*
X4826000Y-4376200D02*
X4826000Y-4416200D01*
X4806000Y-4396200D02*
X4846000Y-4396200D01*
X4876800Y-3713800D02*
X4876800Y-3753800D01*
X4856800Y-3733800D02*
X4896800Y-3733800D01*
X5177500Y-6430000D02*
X5177500Y-6470000D01*
X5157500Y-6450000D02*
X5197500Y-6450000D01*
X5181600Y-6330000D02*
X5181600Y-6370000D01*
X5161600Y-6350000D02*
X5201600Y-6350000D01*
X5260000Y-7702000D02*
X5260000Y-7742000D01*
X5240000Y-7722000D02*
X5280000Y-7722000D01*
X5260000Y-7956000D02*
X5260000Y-7996000D01*
X5240000Y-7976000D02*
X5280000Y-7976000D01*
X5394000Y-4532790D02*
X5394000Y-4572790D01*
X5374000Y-4552790D02*
X5414000Y-4552790D01*
X5422900Y-3601500D02*
X5422900Y-3641500D01*
X5402900Y-3621500D02*
X5442900Y-3621500D01*
X5435600Y-3180400D02*
X5435600Y-3220400D01*
X5415600Y-3200400D02*
X5455600Y-3200400D01*
X5461000Y-4973100D02*
X5461000Y-5013100D01*
X5441000Y-4993100D02*
X5481000Y-4993100D01*
X5575300Y-7373400D02*
X5575300Y-7413400D01*
X5555300Y-7393400D02*
X5595300Y-7393400D01*
X5663946Y-328456D02*
X5663946Y-368456D01*
X5643946Y-348456D02*
X5683946Y-348456D01*
X5717200Y-3358600D02*
X5717200Y-3398600D01*
X5697200Y-3378600D02*
X5737200Y-3378600D01*
X5765000Y-6490000D02*
X5765000Y-6530000D01*
X5745000Y-6510000D02*
X5785000Y-6510000D01*
X5768000Y-7956000D02*
X5768000Y-7996000D01*
X5748000Y-7976000D02*
X5788000Y-7976000D01*
X5791708Y-326932D02*
X5791708Y-366932D01*
X5771708Y-346932D02*
X5811708Y-346932D01*
X5918200Y-326170D02*
X5918200Y-366170D01*
X5898200Y-346170D02*
X5938200Y-346170D01*
X6022000Y-7956000D02*
X6022000Y-7996000D01*
X6002000Y-7976000D02*
X6042000Y-7976000D01*
X6045200Y-325408D02*
X6045200Y-365408D01*
X6025200Y-345408D02*
X6065200Y-345408D01*
X6055360Y-3014760D02*
X6055360Y-3054760D01*
X6035360Y-3034760D02*
X6075360Y-3034760D01*
X6098200Y-6330000D02*
X6098200Y-6370000D01*
X6078200Y-6350000D02*
X6118200Y-6350000D01*
X6105820Y-7173680D02*
X6105820Y-7213680D01*
X6085820Y-7193680D02*
X6125820Y-7193680D01*
X6121400Y-6965000D02*
X6121400Y-7005000D01*
X6101400Y-6985000D02*
X6141400Y-6985000D01*
X6276000Y-7956000D02*
X6276000Y-7996000D01*
X6256000Y-7976000D02*
X6296000Y-7976000D01*
X6280350Y-5986700D02*
X6280350Y-6026700D01*
X6260350Y-6006700D02*
X6300350Y-6006700D01*
X6604000Y-2723200D02*
X6604000Y-2763200D01*
X6584000Y-2743200D02*
X6624000Y-2743200D01*
X6629400Y-7828600D02*
X6629400Y-7868600D01*
X6609400Y-7848600D02*
X6649400Y-7848600D01*
X6680200Y-4808000D02*
X6680200Y-4848000D01*
X6660200Y-4828000D02*
X6700200Y-4828000D01*
X6680200Y-6484400D02*
X6680200Y-6524400D01*
X6660200Y-6504400D02*
X6700200Y-6504400D01*
X6705600Y-7523800D02*
X6705600Y-7563800D01*
X6685600Y-7543800D02*
X6725600Y-7543800D01*
X6725000Y-4670000D02*
X6725000Y-4710000D01*
X6705000Y-4690000D02*
X6745000Y-4690000D01*
X6733200Y-513800D02*
X6733200Y-553800D01*
X6713200Y-533800D02*
X6753200Y-533800D01*
X6784000Y-7702000D02*
X6784000Y-7742000D01*
X6764000Y-7722000D02*
X6804000Y-7722000D01*
X6784000Y-7956000D02*
X6784000Y-7996000D01*
X6764000Y-7976000D02*
X6804000Y-7976000D01*
X6807200Y-4933000D02*
X6807200Y-4973000D01*
X6787200Y-4953000D02*
X6827200Y-4953000D01*
X6807200Y-6217700D02*
X6807200Y-6257700D01*
X6787200Y-6237700D02*
X6827200Y-6237700D01*
X6832600Y-3078800D02*
X6832600Y-3118800D01*
X6812600Y-3098800D02*
X6852600Y-3098800D01*
X7038000Y-82000D02*
X7038000Y-122000D01*
X7018000Y-102000D02*
X7058000Y-102000D01*
X7038000Y-7702000D02*
X7038000Y-7742000D01*
X7018000Y-7722000D02*
X7058000Y-7722000D01*
X7038000Y-7956000D02*
X7038000Y-7996000D01*
X7018000Y-7976000D02*
X7058000Y-7976000D01*
X7086600Y-1455200D02*
X7086600Y-1495200D01*
X7066600Y-1475200D02*
X7106600Y-1475200D01*
X7292000Y-82000D02*
X7292000Y-122000D01*
X7272000Y-102000D02*
X7312000Y-102000D01*
X7442200Y-5745800D02*
X7442200Y-5785800D01*
X7422200Y-5765800D02*
X7462200Y-5765800D01*
X7540920Y-1937800D02*
X7540920Y-1977800D01*
X7520920Y-1957800D02*
X7560920Y-1957800D01*
X7561580Y-1658400D02*
X7561580Y-1698400D01*
X7541580Y-1678400D02*
X7581580Y-1678400D01*
X7594600Y-3004600D02*
X7594600Y-3044600D01*
X7574600Y-3024600D02*
X7614600Y-3024600D01*
X7645400Y-2039400D02*
X7645400Y-2079400D01*
X7625400Y-2059400D02*
X7665400Y-2059400D01*
X7752080Y-1648240D02*
X7752080Y-1688240D01*
X7732080Y-1668240D02*
X7772080Y-1668240D01*
X7800000Y-844000D02*
X7800000Y-884000D01*
X7780000Y-864000D02*
X7820000Y-864000D01*
X7800000Y-1098000D02*
X7800000Y-1138000D01*
X7780000Y-1118000D02*
X7820000Y-1118000D01*
X7800000Y-1352000D02*
X7800000Y-1392000D01*
X7780000Y-1372000D02*
X7820000Y-1372000D01*
X7800000Y-1860000D02*
X7800000Y-1900000D01*
X7780000Y-1880000D02*
X7820000Y-1880000D01*
X7800000Y-3130000D02*
X7800000Y-3170000D01*
X7780000Y-3150000D02*
X7820000Y-3150000D01*
X7800000Y-3384000D02*
X7800000Y-3424000D01*
X7780000Y-3404000D02*
X7820000Y-3404000D01*
X7800000Y-3638000D02*
X7800000Y-3678000D01*
X7780000Y-3658000D02*
X7820000Y-3658000D01*
X7800000Y-6178000D02*
X7800000Y-6218000D01*
X7780000Y-6198000D02*
X7820000Y-6198000D01*
X7800000Y-6940000D02*
X7800000Y-6980000D01*
X7780000Y-6960000D02*
X7820000Y-6960000D01*
X7800000Y-7194000D02*
X7800000Y-7234000D01*
X7780000Y-7214000D02*
X7820000Y-7214000D01*
X7899400Y-5415600D02*
X7899400Y-5455600D01*
X7879400Y-5435600D02*
X7919400Y-5435600D01*
X8054000Y-844000D02*
X8054000Y-884000D01*
X8034000Y-864000D02*
X8074000Y-864000D01*
X8054000Y-1098000D02*
X8054000Y-1138000D01*
X8034000Y-1118000D02*
X8074000Y-1118000D01*
X8054000Y-1352000D02*
X8054000Y-1392000D01*
X8034000Y-1372000D02*
X8074000Y-1372000D01*
X8054000Y-1606000D02*
X8054000Y-1646000D01*
X8034000Y-1626000D02*
X8074000Y-1626000D01*
X8054000Y-1860000D02*
X8054000Y-1900000D01*
X8034000Y-1880000D02*
X8074000Y-1880000D01*
X8054000Y-2114000D02*
X8054000Y-2154000D01*
X8034000Y-2134000D02*
X8074000Y-2134000D01*
X8054000Y-2876000D02*
X8054000Y-2916000D01*
X8034000Y-2896000D02*
X8074000Y-2896000D01*
X8054000Y-3130000D02*
X8054000Y-3170000D01*
X8034000Y-3150000D02*
X8074000Y-3150000D01*
X8054000Y-3384000D02*
X8054000Y-3424000D01*
X8034000Y-3404000D02*
X8074000Y-3404000D01*
X8054000Y-3638000D02*
X8054000Y-3678000D01*
X8034000Y-3658000D02*
X8074000Y-3658000D01*
X8054000Y-3892000D02*
X8054000Y-3932000D01*
X8034000Y-3912000D02*
X8074000Y-3912000D01*
X8054000Y-5924000D02*
X8054000Y-5964000D01*
X8034000Y-5944000D02*
X8074000Y-5944000D01*
X8054000Y-6178000D02*
X8054000Y-6218000D01*
X8034000Y-6198000D02*
X8074000Y-6198000D01*
X8054000Y-6432000D02*
X8054000Y-6472000D01*
X8034000Y-6452000D02*
X8074000Y-6452000D01*
X8054000Y-6686000D02*
X8054000Y-6726000D01*
X8034000Y-6706000D02*
X8074000Y-6706000D01*
X8054000Y-6940000D02*
X8054000Y-6980000D01*
X8034000Y-6960000D02*
X8074000Y-6960000D01*
X8054000Y-7194000D02*
X8054000Y-7234000D01*
X8034000Y-7214000D02*
X8074000Y-7214000D01*
D15*
X155178Y-419678D02*
X155178Y-384322D01*
X119822Y-384322D01*
X119822Y-419678D01*
X155178Y-419678D01*
X155178Y-7819678D02*
X155178Y-7784322D01*
X119822Y-7784322D01*
X119822Y-7819678D01*
X155178Y-7819678D01*
X232062Y-234062D02*
X232062Y-198707D01*
X196707Y-198707D01*
X196707Y-234062D01*
X232062Y-234062D01*
X232062Y-605293D02*
X232062Y-569938D01*
X196707Y-569938D01*
X196707Y-605293D01*
X232062Y-605293D01*
X232062Y-7634062D02*
X232062Y-7598707D01*
X196707Y-7598707D01*
X196707Y-7634062D01*
X232062Y-7634062D01*
X232062Y-8005293D02*
X232062Y-7969938D01*
X196707Y-7969938D01*
X196707Y-8005293D01*
X232062Y-8005293D01*
X267178Y-1995678D02*
X267178Y-1960322D01*
X231822Y-1960322D01*
X231822Y-1995678D01*
X267178Y-1995678D01*
X344062Y-1810062D02*
X344062Y-1774707D01*
X308707Y-1774707D01*
X308707Y-1810062D01*
X344062Y-1810062D01*
X344062Y-2181293D02*
X344062Y-2145938D01*
X308707Y-2145938D01*
X308707Y-2181293D01*
X344062Y-2181293D01*
X417678Y-157178D02*
X417678Y-121822D01*
X382322Y-121822D01*
X382322Y-157178D01*
X417678Y-157178D01*
X417678Y-682178D02*
X417678Y-646822D01*
X382322Y-646822D01*
X382322Y-682178D01*
X417678Y-682178D01*
X417678Y-7557178D02*
X417678Y-7521822D01*
X382322Y-7521822D01*
X382322Y-7557178D01*
X417678Y-7557178D01*
X417678Y-8082178D02*
X417678Y-8046822D01*
X382322Y-8046822D01*
X382322Y-8082178D01*
X417678Y-8082178D01*
X529678Y-1733178D02*
X529678Y-1697822D01*
X494322Y-1697822D01*
X494322Y-1733178D01*
X529678Y-1733178D01*
X529678Y-2258178D02*
X529678Y-2222822D01*
X494322Y-2222822D01*
X494322Y-2258178D01*
X529678Y-2258178D01*
X603293Y-234062D02*
X603293Y-198707D01*
X567938Y-198707D01*
X567938Y-234062D01*
X603293Y-234062D01*
X603293Y-605293D02*
X603293Y-569938D01*
X567938Y-569938D01*
X567938Y-605293D01*
X603293Y-605293D01*
X603293Y-7634062D02*
X603293Y-7598707D01*
X567938Y-7598707D01*
X567938Y-7634062D01*
X603293Y-7634062D01*
X603293Y-8005293D02*
X603293Y-7969938D01*
X567938Y-7969938D01*
X567938Y-8005293D01*
X603293Y-8005293D01*
X680178Y-419678D02*
X680178Y-384322D01*
X644822Y-384322D01*
X644822Y-419678D01*
X680178Y-419678D01*
X680178Y-7819678D02*
X680178Y-7784322D01*
X644822Y-7784322D01*
X644822Y-7819678D01*
X680178Y-7819678D01*
X715293Y-1810062D02*
X715293Y-1774707D01*
X679938Y-1774707D01*
X679938Y-1810062D01*
X715293Y-1810062D01*
X715293Y-2181293D02*
X715293Y-2145938D01*
X679938Y-2145938D01*
X679938Y-2181293D01*
X715293Y-2181293D01*
X792178Y-1995678D02*
X792178Y-1960322D01*
X756822Y-1960322D01*
X756822Y-1995678D01*
X792178Y-1995678D01*
X2435178Y-5551678D02*
X2435178Y-5516322D01*
X2399822Y-5516322D01*
X2399822Y-5551678D01*
X2435178Y-5551678D01*
X2512062Y-5366062D02*
X2512062Y-5330707D01*
X2476707Y-5330707D01*
X2476707Y-5366062D01*
X2512062Y-5366062D01*
X2512062Y-5737293D02*
X2512062Y-5701938D01*
X2476707Y-5701938D01*
X2476707Y-5737293D01*
X2512062Y-5737293D01*
X2697678Y-5289178D02*
X2697678Y-5253822D01*
X2662322Y-5253822D01*
X2662322Y-5289178D01*
X2697678Y-5289178D01*
X2697678Y-5814178D02*
X2697678Y-5778822D01*
X2662322Y-5778822D01*
X2662322Y-5814178D01*
X2697678Y-5814178D01*
X2883293Y-5366062D02*
X2883293Y-5330707D01*
X2847938Y-5330707D01*
X2847938Y-5366062D01*
X2883293Y-5366062D01*
X2883293Y-5737293D02*
X2883293Y-5701938D01*
X2847938Y-5701938D01*
X2847938Y-5737293D01*
X2883293Y-5737293D01*
X2960178Y-5551678D02*
X2960178Y-5516322D01*
X2924822Y-5516322D01*
X2924822Y-5551678D01*
X2960178Y-5551678D01*
X5015178Y-5707678D02*
X5015178Y-5672322D01*
X4979822Y-5672322D01*
X4979822Y-5707678D01*
X5015178Y-5707678D01*
X5092062Y-5522062D02*
X5092062Y-5486707D01*
X5056707Y-5486707D01*
X5056707Y-5522062D01*
X5092062Y-5522062D01*
X5092062Y-5893293D02*
X5092062Y-5857938D01*
X5056707Y-5857938D01*
X5056707Y-5893293D01*
X5092062Y-5893293D01*
X5277678Y-5445178D02*
X5277678Y-5409822D01*
X5242322Y-5409822D01*
X5242322Y-5445178D01*
X5277678Y-5445178D01*
X5277678Y-5970178D02*
X5277678Y-5934822D01*
X5242322Y-5934822D01*
X5242322Y-5970178D01*
X5277678Y-5970178D01*
X5463293Y-5522062D02*
X5463293Y-5486707D01*
X5427938Y-5486707D01*
X5427938Y-5522062D01*
X5463293Y-5522062D01*
X5463293Y-5893293D02*
X5463293Y-5857938D01*
X5427938Y-5857938D01*
X5427938Y-5893293D01*
X5463293Y-5893293D01*
X5540178Y-5707678D02*
X5540178Y-5672322D01*
X5504822Y-5672322D01*
X5504822Y-5707678D01*
X5540178Y-5707678D01*
X7555178Y-419678D02*
X7555178Y-384322D01*
X7519822Y-384322D01*
X7519822Y-419678D01*
X7555178Y-419678D01*
X7555178Y-2532678D02*
X7555178Y-2497322D01*
X7519822Y-2497322D01*
X7519822Y-2532678D01*
X7555178Y-2532678D01*
X7555178Y-7819678D02*
X7555178Y-7784322D01*
X7519822Y-7784322D01*
X7519822Y-7819678D01*
X7555178Y-7819678D01*
X7632062Y-234062D02*
X7632062Y-198707D01*
X7596707Y-198707D01*
X7596707Y-234062D01*
X7632062Y-234062D01*
X7632062Y-605293D02*
X7632062Y-569938D01*
X7596707Y-569938D01*
X7596707Y-605293D01*
X7632062Y-605293D01*
X7632062Y-2347062D02*
X7632062Y-2311707D01*
X7596707Y-2311707D01*
X7596707Y-2347062D01*
X7632062Y-2347062D01*
X7632062Y-2718293D02*
X7632062Y-2682938D01*
X7596707Y-2682938D01*
X7596707Y-2718293D01*
X7632062Y-2718293D01*
X7632062Y-7634062D02*
X7632062Y-7598707D01*
X7596707Y-7598707D01*
X7596707Y-7634062D01*
X7632062Y-7634062D01*
X7632062Y-8005293D02*
X7632062Y-7969938D01*
X7596707Y-7969938D01*
X7596707Y-8005293D01*
X7632062Y-8005293D01*
X7817678Y-157178D02*
X7817678Y-121822D01*
X7782322Y-121822D01*
X7782322Y-157178D01*
X7817678Y-157178D01*
X7817678Y-682178D02*
X7817678Y-646822D01*
X7782322Y-646822D01*
X7782322Y-682178D01*
X7817678Y-682178D01*
X7817678Y-2270178D02*
X7817678Y-2234822D01*
X7782322Y-2234822D01*
X7782322Y-2270178D01*
X7817678Y-2270178D01*
X7817678Y-2795178D02*
X7817678Y-2759822D01*
X7782322Y-2759822D01*
X7782322Y-2795178D01*
X7817678Y-2795178D01*
X7817678Y-7557178D02*
X7817678Y-7521822D01*
X7782322Y-7521822D01*
X7782322Y-7557178D01*
X7817678Y-7557178D01*
X7817678Y-8082178D02*
X7817678Y-8046822D01*
X7782322Y-8046822D01*
X7782322Y-8082178D01*
X7817678Y-8082178D01*
X8003293Y-234062D02*
X8003293Y-198707D01*
X7967938Y-198707D01*
X7967938Y-234062D01*
X8003293Y-234062D01*
X8003293Y-605293D02*
X8003293Y-569938D01*
X7967938Y-569938D01*
X7967938Y-605293D01*
X8003293Y-605293D01*
X8003293Y-2347062D02*
X8003293Y-2311707D01*
X7967938Y-2311707D01*
X7967938Y-2347062D01*
X8003293Y-2347062D01*
X8003293Y-2718293D02*
X8003293Y-2682938D01*
X7967938Y-2682938D01*
X7967938Y-2718293D01*
X8003293Y-2718293D01*
X8003293Y-7634062D02*
X8003293Y-7598707D01*
X7967938Y-7598707D01*
X7967938Y-7634062D01*
X8003293Y-7634062D01*
X8003293Y-8005293D02*
X8003293Y-7969938D01*
X7967938Y-7969938D01*
X7967938Y-8005293D01*
X8003293Y-8005293D01*
X8080178Y-419678D02*
X8080178Y-384322D01*
X8044822Y-384322D01*
X8044822Y-419678D01*
X8080178Y-419678D01*
X8080178Y-2532678D02*
X8080178Y-2497322D01*
X8044822Y-2497322D01*
X8044822Y-2532678D01*
X8080178Y-2532678D01*
X8080178Y-7819678D02*
X8080178Y-7784322D01*
X8044822Y-7784322D01*
X8044822Y-7819678D01*
X8080178Y-7819678D01*
D16*
X3572840Y-5293280D02*
X3606840Y-5259280D01*
X3572840Y-5225280D01*
X3538840Y-5259280D01*
X3572840Y-5293280D01*
X3572840Y-5493280D02*
X3606840Y-5459280D01*
X3572840Y-5425280D01*
X3538840Y-5459280D01*
X3572840Y-5493280D01*
X3572840Y-5693280D02*
X3606840Y-5659280D01*
X3572840Y-5625280D01*
X3538840Y-5659280D01*
X3572840Y-5693280D01*
X3772840Y-5293280D02*
X3806840Y-5259280D01*
X3772840Y-5225280D01*
X3738840Y-5259280D01*
X3772840Y-5293280D01*
X3772840Y-5493280D02*
X3806840Y-5459280D01*
X3772840Y-5425280D01*
X3738840Y-5459280D01*
X3772840Y-5493280D01*
X3772840Y-5693280D02*
X3806840Y-5659280D01*
X3772840Y-5625280D01*
X3738840Y-5659280D01*
X3772840Y-5693280D01*
X3787800Y-3563120D02*
X3821800Y-3529120D01*
X3787800Y-3495120D01*
X3753800Y-3529120D01*
X3787800Y-3563120D01*
X3787800Y-3763120D02*
X3821800Y-3729120D01*
X3787800Y-3695120D01*
X3753800Y-3729120D01*
X3787800Y-3763120D01*
X3987800Y-3563120D02*
X4021800Y-3529120D01*
X3987800Y-3495120D01*
X3953800Y-3529120D01*
X3987800Y-3563120D01*
X3987800Y-3763120D02*
X4021800Y-3729120D01*
X3987800Y-3695120D01*
X3953800Y-3729120D01*
X3987800Y-3763120D01*
X4187800Y-3563120D02*
X4221800Y-3529120D01*
X4187800Y-3495120D01*
X4153800Y-3529120D01*
X4187800Y-3563120D01*
X4187800Y-3763120D02*
X4221800Y-3729120D01*
X4187800Y-3695120D01*
X4153800Y-3729120D01*
X4187800Y-3763120D01*
X4347540Y-5288200D02*
X4381540Y-5254200D01*
X4347540Y-5220200D01*
X4313540Y-5254200D01*
X4347540Y-5288200D01*
X4347540Y-5488200D02*
X4381540Y-5454200D01*
X4347540Y-5420200D01*
X4313540Y-5454200D01*
X4347540Y-5488200D01*
X4347540Y-5688200D02*
X4381540Y-5654200D01*
X4347540Y-5620200D01*
X4313540Y-5654200D01*
X4347540Y-5688200D01*
X4547540Y-5288200D02*
X4581540Y-5254200D01*
X4547540Y-5220200D01*
X4513540Y-5254200D01*
X4547540Y-5288200D01*
X4547540Y-5488200D02*
X4581540Y-5454200D01*
X4547540Y-5420200D01*
X4513540Y-5454200D01*
X4547540Y-5488200D01*
X4547540Y-5688200D02*
X4581540Y-5654200D01*
X4547540Y-5620200D01*
X4513540Y-5654200D01*
X4547540Y-5688200D01*
D17*
X1102500Y-4762500D02*
X1177500Y-4837500D01*
X1177500Y-4762500D02*
X1102500Y-4837500D01*
X1177500Y-4800000D02*
G75*
G03*
X1177500Y-4800000I-37500J0D01*
G01*
X1102500Y-4962500D02*
X1177500Y-5037500D01*
X1177500Y-4962500D02*
X1102500Y-5037500D01*
X1177500Y-5000000D02*
G75*
G03*
X1177500Y-5000000I-37500J0D01*
G01*
X1102500Y-5507500D02*
X1177500Y-5582500D01*
X1177500Y-5507500D02*
X1102500Y-5582500D01*
X1177500Y-5545000D02*
G75*
G03*
X1177500Y-5545000I-37500J0D01*
G01*
X1102500Y-5707500D02*
X1177500Y-5782500D01*
X1177500Y-5707500D02*
X1102500Y-5782500D01*
X1177500Y-5745000D02*
G75*
G03*
X1177500Y-5745000I-37500J0D01*
G01*
X1102500Y-6242500D02*
X1177500Y-6317500D01*
X1177500Y-6242500D02*
X1102500Y-6317500D01*
X1177500Y-6280000D02*
G75*
G03*
X1177500Y-6280000I-37500J0D01*
G01*
X1102500Y-6442500D02*
X1177500Y-6517500D01*
X1177500Y-6442500D02*
X1102500Y-6517500D01*
X1177500Y-6480000D02*
G75*
G03*
X1177500Y-6480000I-37500J0D01*
G01*
X1102500Y-6977500D02*
X1177500Y-7052500D01*
X1177500Y-6977500D02*
X1102500Y-7052500D01*
X1177500Y-7015000D02*
G75*
G03*
X1177500Y-7015000I-37500J0D01*
G01*
X1102500Y-7177500D02*
X1177500Y-7252500D01*
X1177500Y-7177500D02*
X1102500Y-7252500D01*
X1177500Y-7215000D02*
G75*
G03*
X1177500Y-7215000I-37500J0D01*
G01*
D18*
X369600Y-2928800D02*
X449600Y-3008800D01*
X449600Y-2928800D02*
X369600Y-3008800D01*
X409600Y-2928800D02*
X409600Y-3008800D01*
X369600Y-2968800D02*
X449600Y-2968800D01*
X369600Y-3128800D02*
X449600Y-3208800D01*
X449600Y-3128800D02*
X369600Y-3208800D01*
X409600Y-3128800D02*
X409600Y-3208800D01*
X369600Y-3168800D02*
X449600Y-3168800D01*
X369600Y-3328800D02*
X449600Y-3408800D01*
X449600Y-3328800D02*
X369600Y-3408800D01*
X409600Y-3328800D02*
X409600Y-3408800D01*
X369600Y-3368800D02*
X449600Y-3368800D01*
X569600Y-2928800D02*
X649600Y-3008800D01*
X649600Y-2928800D02*
X569600Y-3008800D01*
X609600Y-2928800D02*
X609600Y-3008800D01*
X569600Y-2968800D02*
X649600Y-2968800D01*
X569600Y-3128800D02*
X649600Y-3208800D01*
X649600Y-3128800D02*
X569600Y-3208800D01*
X609600Y-3128800D02*
X609600Y-3208800D01*
X569600Y-3168800D02*
X649600Y-3168800D01*
X569600Y-3328800D02*
X649600Y-3408800D01*
X649600Y-3328800D02*
X569600Y-3408800D01*
X609600Y-3328800D02*
X609600Y-3408800D01*
X569600Y-3368800D02*
X649600Y-3368800D01*
X6045520Y-5331560D02*
X6125520Y-5411560D01*
X6125520Y-5331560D02*
X6045520Y-5411560D01*
X6085520Y-5331560D02*
X6085520Y-5411560D01*
X6045520Y-5371560D02*
X6125520Y-5371560D01*
X6533520Y-5331560D02*
X6613520Y-5411560D01*
X6613520Y-5331560D02*
X6533520Y-5411560D01*
X6573520Y-5331560D02*
X6573520Y-5411560D01*
X6533520Y-5371560D02*
X6613520Y-5371560D01*
X7721900Y-4176800D02*
X7801900Y-4256800D01*
X7801900Y-4176800D02*
X7721900Y-4256800D01*
X7761900Y-4176800D02*
X7761900Y-4256800D01*
X7721900Y-4216800D02*
X7801900Y-4216800D01*
X7721900Y-4376800D02*
X7801900Y-4456800D01*
X7801900Y-4376800D02*
X7721900Y-4456800D01*
X7761900Y-4376800D02*
X7761900Y-4456800D01*
X7721900Y-4416800D02*
X7801900Y-4416800D01*
X7721900Y-4576800D02*
X7801900Y-4656800D01*
X7801900Y-4576800D02*
X7721900Y-4656800D01*
X7761900Y-4576800D02*
X7761900Y-4656800D01*
X7721900Y-4616800D02*
X7801900Y-4616800D01*
X7921900Y-4176800D02*
X8001900Y-4256800D01*
X8001900Y-4176800D02*
X7921900Y-4256800D01*
X7961900Y-4176800D02*
X7961900Y-4256800D01*
X7921900Y-4216800D02*
X8001900Y-4216800D01*
X7921900Y-4376800D02*
X8001900Y-4456800D01*
X8001900Y-4376800D02*
X7921900Y-4456800D01*
X7961900Y-4376800D02*
X7961900Y-4456800D01*
X7921900Y-4416800D02*
X8001900Y-4416800D01*
X7921900Y-4576800D02*
X8001900Y-4656800D01*
X8001900Y-4576800D02*
X7921900Y-4656800D01*
X7961900Y-4576800D02*
X7961900Y-4656800D01*
X7921900Y-4616800D02*
X8001900Y-4616800D01*
D19*
X815000Y-4130000D02*
X915000Y-4230000D01*
X915000Y-4130000D02*
X815000Y-4230000D01*
X900356Y-4215356D02*
X900356Y-4144644D01*
X829644Y-4144644D01*
X829644Y-4215356D01*
X900356Y-4215356D01*
X1691106Y-5235693D02*
X1791106Y-5335693D01*
X1791106Y-5235693D02*
X1691106Y-5335693D01*
X1776462Y-5321049D02*
X1776462Y-5250337D01*
X1705751Y-5250337D01*
X1705751Y-5321049D01*
X1776462Y-5321049D01*
X2667800Y-6377200D02*
X2767800Y-6477200D01*
X2767800Y-6377200D02*
X2667800Y-6477200D01*
X2753156Y-6462556D02*
X2753156Y-6391844D01*
X2682444Y-6391844D01*
X2682444Y-6462556D01*
X2753156Y-6462556D01*
X2667800Y-6631200D02*
X2767800Y-6731200D01*
X2767800Y-6631200D02*
X2667800Y-6731200D01*
X2753156Y-6716556D02*
X2753156Y-6645844D01*
X2682444Y-6645844D01*
X2682444Y-6716556D01*
X2753156Y-6716556D01*
X2667800Y-6885200D02*
X2767800Y-6985200D01*
X2767800Y-6885200D02*
X2667800Y-6985200D01*
X2753156Y-6970556D02*
X2753156Y-6899844D01*
X2682444Y-6899844D01*
X2682444Y-6970556D01*
X2753156Y-6970556D01*
X2667800Y-7139200D02*
X2767800Y-7239200D01*
X2767800Y-7139200D02*
X2667800Y-7239200D01*
X2753156Y-7224556D02*
X2753156Y-7153844D01*
X2682444Y-7153844D01*
X2682444Y-7224556D01*
X2753156Y-7224556D01*
X3099600Y-2885700D02*
X3199600Y-2985700D01*
X3199600Y-2885700D02*
X3099600Y-2985700D01*
X3184956Y-2971056D02*
X3184956Y-2900344D01*
X3114244Y-2900344D01*
X3114244Y-2971056D01*
X3184956Y-2971056D01*
X3483140Y-4221740D02*
X3583140Y-4321740D01*
X3583140Y-4221740D02*
X3483140Y-4321740D01*
X3568496Y-4307096D02*
X3568496Y-4236384D01*
X3497784Y-4236384D01*
X3497784Y-4307096D01*
X3568496Y-4307096D01*
X3607600Y-6352800D02*
X3707600Y-6452800D01*
X3707600Y-6352800D02*
X3607600Y-6452800D01*
X3692956Y-6438156D02*
X3692956Y-6367444D01*
X3622244Y-6367444D01*
X3622244Y-6438156D01*
X3692956Y-6438156D01*
X3737140Y-4221740D02*
X3837140Y-4321740D01*
X3837140Y-4221740D02*
X3737140Y-4321740D01*
X3822496Y-4307096D02*
X3822496Y-4236384D01*
X3751784Y-4236384D01*
X3751784Y-4307096D01*
X3822496Y-4307096D01*
X3991140Y-4221740D02*
X4091140Y-4321740D01*
X4091140Y-4221740D02*
X3991140Y-4321740D01*
X4076496Y-4307096D02*
X4076496Y-4236384D01*
X4005784Y-4236384D01*
X4005784Y-4307096D01*
X4076496Y-4307096D01*
X4245140Y-4221740D02*
X4345140Y-4321740D01*
X4345140Y-4221740D02*
X4245140Y-4321740D01*
X4330496Y-4307096D02*
X4330496Y-4236384D01*
X4259784Y-4236384D01*
X4259784Y-4307096D01*
X4330496Y-4307096D01*
X4420400Y-1272800D02*
X4520400Y-1372800D01*
X4520400Y-1272800D02*
X4420400Y-1372800D01*
X4505756Y-1358156D02*
X4505756Y-1287444D01*
X4435044Y-1287444D01*
X4435044Y-1358156D01*
X4505756Y-1358156D01*
X4499140Y-4221740D02*
X4599140Y-4321740D01*
X4599140Y-4221740D02*
X4499140Y-4321740D01*
X4584496Y-4307096D02*
X4584496Y-4236384D01*
X4513784Y-4236384D01*
X4513784Y-4307096D01*
X4584496Y-4307096D01*
X7750000Y-6402000D02*
X7850000Y-6502000D01*
X7850000Y-6402000D02*
X7750000Y-6502000D01*
X7835356Y-6487356D02*
X7835356Y-6416644D01*
X7764644Y-6416644D01*
X7764644Y-6487356D01*
X7835356Y-6487356D01*
X7750000Y-6656000D02*
X7850000Y-6756000D01*
X7850000Y-6656000D02*
X7750000Y-6756000D01*
X7835356Y-6741356D02*
X7835356Y-6670644D01*
X7764644Y-6670644D01*
X7764644Y-6741356D01*
X7835356Y-6741356D01*
D20*
X225000Y-227000D02*
X575000Y-577000D01*
X575000Y-227000D02*
X225000Y-577000D01*
X400000Y-577000D02*
X575000Y-402000D01*
X400000Y-227000D01*
X225000Y-402000D01*
X400000Y-577000D01*
X225000Y-7627000D02*
X575000Y-7977000D01*
X575000Y-7627000D02*
X225000Y-7977000D01*
X400000Y-7977000D02*
X575000Y-7802000D01*
X400000Y-7627000D01*
X225000Y-7802000D01*
X400000Y-7977000D01*
X337000Y-1803000D02*
X687000Y-2153000D01*
X687000Y-1803000D02*
X337000Y-2153000D01*
X512000Y-2153000D02*
X687000Y-1978000D01*
X512000Y-1803000D01*
X337000Y-1978000D01*
X512000Y-2153000D01*
X2505000Y-5359000D02*
X2855000Y-5709000D01*
X2855000Y-5359000D02*
X2505000Y-5709000D01*
X2680000Y-5709000D02*
X2855000Y-5534000D01*
X2680000Y-5359000D01*
X2505000Y-5534000D01*
X2680000Y-5709000D01*
X5085000Y-5515000D02*
X5435000Y-5865000D01*
X5435000Y-5515000D02*
X5085000Y-5865000D01*
X5260000Y-5865000D02*
X5435000Y-5690000D01*
X5260000Y-5515000D01*
X5085000Y-5690000D01*
X5260000Y-5865000D01*
X7625000Y-227000D02*
X7975000Y-577000D01*
X7975000Y-227000D02*
X7625000Y-577000D01*
X7800000Y-577000D02*
X7975000Y-402000D01*
X7800000Y-227000D01*
X7625000Y-402000D01*
X7800000Y-577000D01*
X7625000Y-2338000D02*
X7975000Y-2688000D01*
X7975000Y-2338000D02*
X7625000Y-2688000D01*
X7800000Y-2688000D02*
X7975000Y-2513000D01*
X7800000Y-2338000D01*
X7625000Y-2513000D01*
X7800000Y-2688000D01*
X7625000Y-7627000D02*
X7975000Y-7977000D01*
X7975000Y-7627000D02*
X7625000Y-7977000D01*
X7800000Y-7977000D02*
X7975000Y-7802000D01*
X7800000Y-7627000D01*
X7625000Y-7802000D01*
X7800000Y-7977000D01*
D11*
X255119Y-8514976D02*
X255119Y-8314976D01*
X302738Y-8314976D01*
X331310Y-8324500D01*
X350357Y-8343548D01*
X359881Y-8362595D01*
X369405Y-8400690D01*
X369405Y-8429262D01*
X359881Y-8467357D01*
X350357Y-8486405D01*
X331310Y-8505452D01*
X302738Y-8514976D01*
X255119Y-8514976D01*
X455119Y-8514976D02*
X455119Y-8381643D01*
X455119Y-8419738D02*
X464643Y-8400690D01*
X474167Y-8391167D01*
X493214Y-8381643D01*
X512262Y-8381643D01*
X578929Y-8514976D02*
X578929Y-8381643D01*
X578929Y-8314976D02*
X569405Y-8324500D01*
X578929Y-8334024D01*
X588452Y-8324500D01*
X578929Y-8314976D01*
X578929Y-8334024D01*
X702738Y-8514976D02*
X683690Y-8505452D01*
X674167Y-8486405D01*
X674167Y-8314976D01*
X807500Y-8514976D02*
X788452Y-8505452D01*
X778928Y-8486405D01*
X778928Y-8314976D01*
X1036071Y-8514976D02*
X1036071Y-8314976D01*
X1102738Y-8457833D01*
X1169405Y-8314976D01*
X1169405Y-8514976D01*
X1350357Y-8514976D02*
X1350357Y-8410214D01*
X1340833Y-8391167D01*
X1321786Y-8381643D01*
X1283690Y-8381643D01*
X1264643Y-8391167D01*
X1350357Y-8505452D02*
X1331310Y-8514976D01*
X1283690Y-8514976D01*
X1264643Y-8505452D01*
X1255119Y-8486405D01*
X1255119Y-8467357D01*
X1264643Y-8448310D01*
X1283690Y-8438786D01*
X1331310Y-8438786D01*
X1350357Y-8429262D01*
X1445595Y-8381643D02*
X1445595Y-8581643D01*
X1445595Y-8391167D02*
X1464643Y-8381643D01*
X1502738Y-8381643D01*
X1521786Y-8391167D01*
X1531309Y-8400690D01*
X1540833Y-8419738D01*
X1540833Y-8476881D01*
X1531309Y-8495929D01*
X1521786Y-8505452D01*
X1502738Y-8514976D01*
X1464643Y-8514976D01*
X1445595Y-8505452D01*
X1626548Y-8495929D02*
X1636071Y-8505452D01*
X1626548Y-8514976D01*
X1617024Y-8505452D01*
X1626548Y-8495929D01*
X1626548Y-8514976D01*
X1626548Y-8391167D02*
X1636071Y-8400690D01*
X1626548Y-8410214D01*
X1617024Y-8400690D01*
X1626548Y-8391167D01*
X1626548Y-8410214D01*
D12*
X-32500Y-8829500D02*
X-2500Y-8859500D01*
X-2500Y-8829500D02*
X-32500Y-8859500D01*
D11*
X293214Y-8734976D02*
X312262Y-8734976D01*
X331310Y-8744500D01*
X340833Y-8754024D01*
X350357Y-8773071D01*
X359881Y-8811167D01*
X359881Y-8858786D01*
X350357Y-8896881D01*
X340833Y-8915929D01*
X331310Y-8925452D01*
X312262Y-8934976D01*
X293214Y-8934976D01*
X274167Y-8925452D01*
X264643Y-8915929D01*
X255119Y-8896881D01*
X245595Y-8858786D01*
X245595Y-8811167D01*
X255119Y-8773071D01*
X264643Y-8754024D01*
X274167Y-8744500D01*
X293214Y-8734976D01*
X445595Y-8915929D02*
X455119Y-8925452D01*
X445595Y-8934976D01*
X436071Y-8925452D01*
X445595Y-8915929D01*
X445595Y-8934976D01*
X521786Y-8734976D02*
X645595Y-8734976D01*
X578929Y-8811167D01*
X607500Y-8811167D01*
X626548Y-8820690D01*
X636071Y-8830214D01*
X645595Y-8849262D01*
X645595Y-8896881D01*
X636071Y-8915929D01*
X626548Y-8925452D01*
X607500Y-8934976D01*
X550357Y-8934976D01*
X531310Y-8925452D01*
X521786Y-8915929D01*
X769405Y-8734976D02*
X788452Y-8734976D01*
X807500Y-8744500D01*
X817024Y-8754024D01*
X826548Y-8773071D01*
X836071Y-8811167D01*
X836071Y-8858786D01*
X826548Y-8896881D01*
X817024Y-8915929D01*
X807500Y-8925452D01*
X788452Y-8934976D01*
X769405Y-8934976D01*
X750357Y-8925452D01*
X740833Y-8915929D01*
X731309Y-8896881D01*
X721786Y-8858786D01*
X721786Y-8811167D01*
X731309Y-8773071D01*
X740833Y-8754024D01*
X750357Y-8744500D01*
X769405Y-8734976D01*
X959881Y-8734976D02*
X978928Y-8734976D01*
X997976Y-8744500D01*
X1007500Y-8754024D01*
X1017024Y-8773071D01*
X1026548Y-8811167D01*
X1026548Y-8858786D01*
X1017024Y-8896881D01*
X1007500Y-8915929D01*
X997976Y-8925452D01*
X978928Y-8934976D01*
X959881Y-8934976D01*
X940833Y-8925452D01*
X931309Y-8915929D01*
X921786Y-8896881D01*
X912262Y-8858786D01*
X912262Y-8811167D01*
X921786Y-8773071D01*
X931309Y-8754024D01*
X940833Y-8744500D01*
X959881Y-8734976D01*
X1112262Y-8934976D02*
X1112262Y-8801643D01*
X1112262Y-8820690D02*
X1121786Y-8811167D01*
X1140833Y-8801643D01*
X1169405Y-8801643D01*
X1188452Y-8811167D01*
X1197976Y-8830214D01*
X1197976Y-8934976D01*
X1197976Y-8830214D02*
X1207500Y-8811167D01*
X1226548Y-8801643D01*
X1255119Y-8801643D01*
X1274167Y-8811167D01*
X1283690Y-8830214D01*
X1283690Y-8934976D01*
X1378929Y-8934976D02*
X1378929Y-8801643D01*
X1378929Y-8820690D02*
X1388452Y-8811167D01*
X1407500Y-8801643D01*
X1436071Y-8801643D01*
X1455119Y-8811167D01*
X1464643Y-8830214D01*
X1464643Y-8934976D01*
X1464643Y-8830214D02*
X1474167Y-8811167D01*
X1493214Y-8801643D01*
X1521786Y-8801643D01*
X1540833Y-8811167D01*
X1550357Y-8830214D01*
X1550357Y-8934976D01*
X1940833Y-8725452D02*
X1769405Y-8982595D01*
X2197976Y-8734976D02*
X2217024Y-8734976D01*
X2236071Y-8744500D01*
X2245595Y-8754024D01*
X2255119Y-8773071D01*
X2264643Y-8811167D01*
X2264643Y-8858786D01*
X2255119Y-8896881D01*
X2245595Y-8915929D01*
X2236071Y-8925452D01*
X2217024Y-8934976D01*
X2197976Y-8934976D01*
X2178929Y-8925452D01*
X2169405Y-8915929D01*
X2159881Y-8896881D01*
X2150357Y-8858786D01*
X2150357Y-8811167D01*
X2159881Y-8773071D01*
X2169405Y-8754024D01*
X2178929Y-8744500D01*
X2197976Y-8734976D01*
X2350357Y-8915929D02*
X2359881Y-8925452D01*
X2350357Y-8934976D01*
X2340833Y-8925452D01*
X2350357Y-8915929D01*
X2350357Y-8934976D01*
X2483690Y-8734976D02*
X2502738Y-8734976D01*
X2521786Y-8744500D01*
X2531310Y-8754024D01*
X2540833Y-8773071D01*
X2550357Y-8811167D01*
X2550357Y-8858786D01*
X2540833Y-8896881D01*
X2531310Y-8915929D01*
X2521786Y-8925452D01*
X2502738Y-8934976D01*
X2483690Y-8934976D01*
X2464643Y-8925452D01*
X2455119Y-8915929D01*
X2445595Y-8896881D01*
X2436071Y-8858786D01*
X2436071Y-8811167D01*
X2445595Y-8773071D01*
X2455119Y-8754024D01*
X2464643Y-8744500D01*
X2483690Y-8734976D01*
X2740833Y-8934976D02*
X2626548Y-8934976D01*
X2683690Y-8934976D02*
X2683690Y-8734976D01*
X2664643Y-8763548D01*
X2645595Y-8782595D01*
X2626548Y-8792119D01*
X2931309Y-8934976D02*
X2817024Y-8934976D01*
X2874167Y-8934976D02*
X2874167Y-8734976D01*
X2855119Y-8763548D01*
X2836071Y-8782595D01*
X2817024Y-8792119D01*
X3045595Y-8820690D02*
X3026548Y-8811167D01*
X3017024Y-8801643D01*
X3007500Y-8782595D01*
X3007500Y-8773071D01*
X3017024Y-8754024D01*
X3026548Y-8744500D01*
X3045595Y-8734976D01*
X3083690Y-8734976D01*
X3102738Y-8744500D01*
X3112262Y-8754024D01*
X3121786Y-8773071D01*
X3121786Y-8782595D01*
X3112262Y-8801643D01*
X3102738Y-8811167D01*
X3083690Y-8820690D01*
X3045595Y-8820690D01*
X3026548Y-8830214D01*
X3017024Y-8839738D01*
X3007500Y-8858786D01*
X3007500Y-8896881D01*
X3017024Y-8915929D01*
X3026548Y-8925452D01*
X3045595Y-8934976D01*
X3083690Y-8934976D01*
X3102738Y-8925452D01*
X3112262Y-8915929D01*
X3121786Y-8896881D01*
X3121786Y-8858786D01*
X3112262Y-8839738D01*
X3102738Y-8830214D01*
X3083690Y-8820690D01*
X3197976Y-8734976D02*
X3197976Y-8773071D01*
X3274167Y-8734976D02*
X3274167Y-8773071D01*
X3569405Y-9011167D02*
X3559881Y-9001643D01*
X3540833Y-8973071D01*
X3531309Y-8954024D01*
X3521786Y-8925452D01*
X3512262Y-8877833D01*
X3512262Y-8839738D01*
X3521786Y-8792119D01*
X3531309Y-8763548D01*
X3540833Y-8744500D01*
X3559881Y-8715929D01*
X3569405Y-8706405D01*
X3750357Y-8934976D02*
X3636071Y-8934976D01*
X3693214Y-8934976D02*
X3693214Y-8734976D01*
X3674167Y-8763548D01*
X3655119Y-8782595D01*
X3636071Y-8792119D01*
X3931309Y-8734976D02*
X3836071Y-8734976D01*
X3826548Y-8830214D01*
X3836071Y-8820690D01*
X3855119Y-8811167D01*
X3902738Y-8811167D01*
X3921786Y-8820690D01*
X3931309Y-8830214D01*
X3940833Y-8849262D01*
X3940833Y-8896881D01*
X3931309Y-8915929D01*
X3921786Y-8925452D01*
X3902738Y-8934976D01*
X3855119Y-8934976D01*
X3836071Y-8925452D01*
X3826548Y-8915929D01*
X4178928Y-8934976D02*
X4178928Y-8734976D01*
X4264643Y-8934976D02*
X4264643Y-8830214D01*
X4255119Y-8811167D01*
X4236071Y-8801643D01*
X4207500Y-8801643D01*
X4188452Y-8811167D01*
X4178928Y-8820690D01*
X4388452Y-8934976D02*
X4369405Y-8925452D01*
X4359881Y-8915929D01*
X4350357Y-8896881D01*
X4350357Y-8839738D01*
X4359881Y-8820690D01*
X4369405Y-8811167D01*
X4388452Y-8801643D01*
X4417024Y-8801643D01*
X4436071Y-8811167D01*
X4445595Y-8820690D01*
X4455119Y-8839738D01*
X4455119Y-8896881D01*
X4445595Y-8915929D01*
X4436071Y-8925452D01*
X4417024Y-8934976D01*
X4388452Y-8934976D01*
X4569405Y-8934976D02*
X4550357Y-8925452D01*
X4540833Y-8906405D01*
X4540833Y-8734976D01*
X4721786Y-8925452D02*
X4702738Y-8934976D01*
X4664643Y-8934976D01*
X4645595Y-8925452D01*
X4636071Y-8906405D01*
X4636071Y-8830214D01*
X4645595Y-8811167D01*
X4664643Y-8801643D01*
X4702738Y-8801643D01*
X4721786Y-8811167D01*
X4731310Y-8830214D01*
X4731310Y-8849262D01*
X4636071Y-8868310D01*
X4807500Y-8925452D02*
X4826548Y-8934976D01*
X4864643Y-8934976D01*
X4883690Y-8925452D01*
X4893214Y-8906405D01*
X4893214Y-8896881D01*
X4883690Y-8877833D01*
X4864643Y-8868310D01*
X4836071Y-8868310D01*
X4817024Y-8858786D01*
X4807500Y-8839738D01*
X4807500Y-8830214D01*
X4817024Y-8811167D01*
X4836071Y-8801643D01*
X4864643Y-8801643D01*
X4883690Y-8811167D01*
X4959881Y-9011167D02*
X4969405Y-9001643D01*
X4988452Y-8973071D01*
X4997976Y-8954024D01*
X5007500Y-8925452D01*
X5017024Y-8877833D01*
X5017024Y-8839738D01*
X5007500Y-8792119D01*
X4997976Y-8763548D01*
X4988452Y-8744500D01*
X4969405Y-8715929D01*
X4959881Y-8706405D01*
D13*
X-2500Y-9108500D02*
G75*
G03*
X-2500Y-9108500I-19050J0D01*
G01*
D11*
X293214Y-8998976D02*
X312262Y-8998976D01*
X331310Y-9008500D01*
X340833Y-9018024D01*
X350357Y-9037071D01*
X359881Y-9075167D01*
X359881Y-9122786D01*
X350357Y-9160881D01*
X340833Y-9179929D01*
X331310Y-9189452D01*
X312262Y-9198976D01*
X293214Y-9198976D01*
X274167Y-9189452D01*
X264643Y-9179929D01*
X255119Y-9160881D01*
X245595Y-9122786D01*
X245595Y-9075167D01*
X255119Y-9037071D01*
X264643Y-9018024D01*
X274167Y-9008500D01*
X293214Y-8998976D01*
X445595Y-9179929D02*
X455119Y-9189452D01*
X445595Y-9198976D01*
X436071Y-9189452D01*
X445595Y-9179929D01*
X445595Y-9198976D01*
X521786Y-8998976D02*
X645595Y-8998976D01*
X578929Y-9075167D01*
X607500Y-9075167D01*
X626548Y-9084690D01*
X636071Y-9094214D01*
X645595Y-9113262D01*
X645595Y-9160881D01*
X636071Y-9179929D01*
X626548Y-9189452D01*
X607500Y-9198976D01*
X550357Y-9198976D01*
X531310Y-9189452D01*
X521786Y-9179929D01*
X759881Y-9084690D02*
X740833Y-9075167D01*
X731309Y-9065643D01*
X721786Y-9046595D01*
X721786Y-9037071D01*
X731309Y-9018024D01*
X740833Y-9008500D01*
X759881Y-8998976D01*
X797976Y-8998976D01*
X817024Y-9008500D01*
X826548Y-9018024D01*
X836071Y-9037071D01*
X836071Y-9046595D01*
X826548Y-9065643D01*
X817024Y-9075167D01*
X797976Y-9084690D01*
X759881Y-9084690D01*
X740833Y-9094214D01*
X731309Y-9103738D01*
X721786Y-9122786D01*
X721786Y-9160881D01*
X731309Y-9179929D01*
X740833Y-9189452D01*
X759881Y-9198976D01*
X797976Y-9198976D01*
X817024Y-9189452D01*
X826548Y-9179929D01*
X836071Y-9160881D01*
X836071Y-9122786D01*
X826548Y-9103738D01*
X817024Y-9094214D01*
X797976Y-9084690D01*
X1026548Y-9198976D02*
X912262Y-9198976D01*
X969405Y-9198976D02*
X969405Y-8998976D01*
X950357Y-9027548D01*
X931309Y-9046595D01*
X912262Y-9056119D01*
X1112262Y-9198976D02*
X1112262Y-9065643D01*
X1112262Y-9084690D02*
X1121786Y-9075167D01*
X1140833Y-9065643D01*
X1169405Y-9065643D01*
X1188452Y-9075167D01*
X1197976Y-9094214D01*
X1197976Y-9198976D01*
X1197976Y-9094214D02*
X1207500Y-9075167D01*
X1226548Y-9065643D01*
X1255119Y-9065643D01*
X1274167Y-9075167D01*
X1283690Y-9094214D01*
X1283690Y-9198976D01*
X1378929Y-9198976D02*
X1378929Y-9065643D01*
X1378929Y-9084690D02*
X1388452Y-9075167D01*
X1407500Y-9065643D01*
X1436071Y-9065643D01*
X1455119Y-9075167D01*
X1464643Y-9094214D01*
X1464643Y-9198976D01*
X1464643Y-9094214D02*
X1474167Y-9075167D01*
X1493214Y-9065643D01*
X1521786Y-9065643D01*
X1540833Y-9075167D01*
X1550357Y-9094214D01*
X1550357Y-9198976D01*
X1940833Y-8989452D02*
X1769405Y-9246595D01*
X2197976Y-8998976D02*
X2217024Y-8998976D01*
X2236071Y-9008500D01*
X2245595Y-9018024D01*
X2255119Y-9037071D01*
X2264643Y-9075167D01*
X2264643Y-9122786D01*
X2255119Y-9160881D01*
X2245595Y-9179929D01*
X2236071Y-9189452D01*
X2217024Y-9198976D01*
X2197976Y-9198976D01*
X2178929Y-9189452D01*
X2169405Y-9179929D01*
X2159881Y-9160881D01*
X2150357Y-9122786D01*
X2150357Y-9075167D01*
X2159881Y-9037071D01*
X2169405Y-9018024D01*
X2178929Y-9008500D01*
X2197976Y-8998976D01*
X2350357Y-9179929D02*
X2359881Y-9189452D01*
X2350357Y-9198976D01*
X2340833Y-9189452D01*
X2350357Y-9179929D01*
X2350357Y-9198976D01*
X2483690Y-8998976D02*
X2502738Y-8998976D01*
X2521786Y-9008500D01*
X2531310Y-9018024D01*
X2540833Y-9037071D01*
X2550357Y-9075167D01*
X2550357Y-9122786D01*
X2540833Y-9160881D01*
X2531310Y-9179929D01*
X2521786Y-9189452D01*
X2502738Y-9198976D01*
X2483690Y-9198976D01*
X2464643Y-9189452D01*
X2455119Y-9179929D01*
X2445595Y-9160881D01*
X2436071Y-9122786D01*
X2436071Y-9075167D01*
X2445595Y-9037071D01*
X2455119Y-9018024D01*
X2464643Y-9008500D01*
X2483690Y-8998976D01*
X2740833Y-9198976D02*
X2626548Y-9198976D01*
X2683690Y-9198976D02*
X2683690Y-8998976D01*
X2664643Y-9027548D01*
X2645595Y-9046595D01*
X2626548Y-9056119D01*
X2921786Y-8998976D02*
X2826548Y-8998976D01*
X2817024Y-9094214D01*
X2826548Y-9084690D01*
X2845595Y-9075167D01*
X2893214Y-9075167D01*
X2912262Y-9084690D01*
X2921786Y-9094214D01*
X2931309Y-9113262D01*
X2931309Y-9160881D01*
X2921786Y-9179929D01*
X2912262Y-9189452D01*
X2893214Y-9198976D01*
X2845595Y-9198976D01*
X2826548Y-9189452D01*
X2817024Y-9179929D01*
X3055119Y-8998976D02*
X3074167Y-8998976D01*
X3093214Y-9008500D01*
X3102738Y-9018024D01*
X3112262Y-9037071D01*
X3121786Y-9075167D01*
X3121786Y-9122786D01*
X3112262Y-9160881D01*
X3102738Y-9179929D01*
X3093214Y-9189452D01*
X3074167Y-9198976D01*
X3055119Y-9198976D01*
X3036071Y-9189452D01*
X3026548Y-9179929D01*
X3017024Y-9160881D01*
X3007500Y-9122786D01*
X3007500Y-9075167D01*
X3017024Y-9037071D01*
X3026548Y-9018024D01*
X3036071Y-9008500D01*
X3055119Y-8998976D01*
X3197976Y-8998976D02*
X3197976Y-9037071D01*
X3274167Y-8998976D02*
X3274167Y-9037071D01*
X3569405Y-9275167D02*
X3559881Y-9265643D01*
X3540833Y-9237071D01*
X3531309Y-9218024D01*
X3521786Y-9189452D01*
X3512262Y-9141833D01*
X3512262Y-9103738D01*
X3521786Y-9056119D01*
X3531309Y-9027548D01*
X3540833Y-9008500D01*
X3559881Y-8979929D01*
X3569405Y-8970405D01*
X3731309Y-9065643D02*
X3731309Y-9198976D01*
X3683690Y-8989452D02*
X3636071Y-9132310D01*
X3759881Y-9132310D01*
X3874167Y-8998976D02*
X3893214Y-8998976D01*
X3912262Y-9008500D01*
X3921786Y-9018024D01*
X3931309Y-9037071D01*
X3940833Y-9075167D01*
X3940833Y-9122786D01*
X3931309Y-9160881D01*
X3921786Y-9179929D01*
X3912262Y-9189452D01*
X3893214Y-9198976D01*
X3874167Y-9198976D01*
X3855119Y-9189452D01*
X3845595Y-9179929D01*
X3836071Y-9160881D01*
X3826548Y-9122786D01*
X3826548Y-9075167D01*
X3836071Y-9037071D01*
X3845595Y-9018024D01*
X3855119Y-9008500D01*
X3874167Y-8998976D01*
X4178928Y-9198976D02*
X4178928Y-8998976D01*
X4264643Y-9198976D02*
X4264643Y-9094214D01*
X4255119Y-9075167D01*
X4236071Y-9065643D01*
X4207500Y-9065643D01*
X4188452Y-9075167D01*
X4178928Y-9084690D01*
X4388452Y-9198976D02*
X4369405Y-9189452D01*
X4359881Y-9179929D01*
X4350357Y-9160881D01*
X4350357Y-9103738D01*
X4359881Y-9084690D01*
X4369405Y-9075167D01*
X4388452Y-9065643D01*
X4417024Y-9065643D01*
X4436071Y-9075167D01*
X4445595Y-9084690D01*
X4455119Y-9103738D01*
X4455119Y-9160881D01*
X4445595Y-9179929D01*
X4436071Y-9189452D01*
X4417024Y-9198976D01*
X4388452Y-9198976D01*
X4569405Y-9198976D02*
X4550357Y-9189452D01*
X4540833Y-9170405D01*
X4540833Y-8998976D01*
X4721786Y-9189452D02*
X4702738Y-9198976D01*
X4664643Y-9198976D01*
X4645595Y-9189452D01*
X4636071Y-9170405D01*
X4636071Y-9094214D01*
X4645595Y-9075167D01*
X4664643Y-9065643D01*
X4702738Y-9065643D01*
X4721786Y-9075167D01*
X4731310Y-9094214D01*
X4731310Y-9113262D01*
X4636071Y-9132310D01*
X4807500Y-9189452D02*
X4826548Y-9198976D01*
X4864643Y-9198976D01*
X4883690Y-9189452D01*
X4893214Y-9170405D01*
X4893214Y-9160881D01*
X4883690Y-9141833D01*
X4864643Y-9132310D01*
X4836071Y-9132310D01*
X4817024Y-9122786D01*
X4807500Y-9103738D01*
X4807500Y-9094214D01*
X4817024Y-9075167D01*
X4836071Y-9065643D01*
X4864643Y-9065643D01*
X4883690Y-9075167D01*
X4959881Y-9275167D02*
X4969405Y-9265643D01*
X4988452Y-9237071D01*
X4997976Y-9218024D01*
X5007500Y-9189452D01*
X5017024Y-9141833D01*
X5017024Y-9103738D01*
X5007500Y-9056119D01*
X4997976Y-9027548D01*
X4988452Y-9008500D01*
X4969405Y-8979929D01*
X4959881Y-8970405D01*
D14*
X-22500Y-9352500D02*
X-22500Y-9392500D01*
X-42500Y-9372500D02*
X-2500Y-9372500D01*
D11*
X293214Y-9262976D02*
X312262Y-9262976D01*
X331310Y-9272500D01*
X340833Y-9282024D01*
X350357Y-9301071D01*
X359881Y-9339167D01*
X359881Y-9386786D01*
X350357Y-9424881D01*
X340833Y-9443929D01*
X331310Y-9453452D01*
X312262Y-9462976D01*
X293214Y-9462976D01*
X274167Y-9453452D01*
X264643Y-9443929D01*
X255119Y-9424881D01*
X245595Y-9386786D01*
X245595Y-9339167D01*
X255119Y-9301071D01*
X264643Y-9282024D01*
X274167Y-9272500D01*
X293214Y-9262976D01*
X445595Y-9443929D02*
X455119Y-9453452D01*
X445595Y-9462976D01*
X436071Y-9453452D01*
X445595Y-9443929D01*
X445595Y-9462976D01*
X626548Y-9329643D02*
X626548Y-9462976D01*
X578929Y-9253452D02*
X531310Y-9396310D01*
X655119Y-9396310D01*
X769405Y-9262976D02*
X788452Y-9262976D01*
X807500Y-9272500D01*
X817024Y-9282024D01*
X826548Y-9301071D01*
X836071Y-9339167D01*
X836071Y-9386786D01*
X826548Y-9424881D01*
X817024Y-9443929D01*
X807500Y-9453452D01*
X788452Y-9462976D01*
X769405Y-9462976D01*
X750357Y-9453452D01*
X740833Y-9443929D01*
X731309Y-9424881D01*
X721786Y-9386786D01*
X721786Y-9339167D01*
X731309Y-9301071D01*
X740833Y-9282024D01*
X750357Y-9272500D01*
X769405Y-9262976D01*
X959881Y-9262976D02*
X978928Y-9262976D01*
X997976Y-9272500D01*
X1007500Y-9282024D01*
X1017024Y-9301071D01*
X1026548Y-9339167D01*
X1026548Y-9386786D01*
X1017024Y-9424881D01*
X1007500Y-9443929D01*
X997976Y-9453452D01*
X978928Y-9462976D01*
X959881Y-9462976D01*
X940833Y-9453452D01*
X931309Y-9443929D01*
X921786Y-9424881D01*
X912262Y-9386786D01*
X912262Y-9339167D01*
X921786Y-9301071D01*
X931309Y-9282024D01*
X940833Y-9272500D01*
X959881Y-9262976D01*
X1112262Y-9462976D02*
X1112262Y-9329643D01*
X1112262Y-9348690D02*
X1121786Y-9339167D01*
X1140833Y-9329643D01*
X1169405Y-9329643D01*
X1188452Y-9339167D01*
X1197976Y-9358214D01*
X1197976Y-9462976D01*
X1197976Y-9358214D02*
X1207500Y-9339167D01*
X1226548Y-9329643D01*
X1255119Y-9329643D01*
X1274167Y-9339167D01*
X1283690Y-9358214D01*
X1283690Y-9462976D01*
X1378929Y-9462976D02*
X1378929Y-9329643D01*
X1378929Y-9348690D02*
X1388452Y-9339167D01*
X1407500Y-9329643D01*
X1436071Y-9329643D01*
X1455119Y-9339167D01*
X1464643Y-9358214D01*
X1464643Y-9462976D01*
X1464643Y-9358214D02*
X1474167Y-9339167D01*
X1493214Y-9329643D01*
X1521786Y-9329643D01*
X1540833Y-9339167D01*
X1550357Y-9358214D01*
X1550357Y-9462976D01*
X1940833Y-9253452D02*
X1769405Y-9510595D01*
X2197976Y-9262976D02*
X2217024Y-9262976D01*
X2236071Y-9272500D01*
X2245595Y-9282024D01*
X2255119Y-9301071D01*
X2264643Y-9339167D01*
X2264643Y-9386786D01*
X2255119Y-9424881D01*
X2245595Y-9443929D01*
X2236071Y-9453452D01*
X2217024Y-9462976D01*
X2197976Y-9462976D01*
X2178929Y-9453452D01*
X2169405Y-9443929D01*
X2159881Y-9424881D01*
X2150357Y-9386786D01*
X2150357Y-9339167D01*
X2159881Y-9301071D01*
X2169405Y-9282024D01*
X2178929Y-9272500D01*
X2197976Y-9262976D01*
X2350357Y-9443929D02*
X2359881Y-9453452D01*
X2350357Y-9462976D01*
X2340833Y-9453452D01*
X2350357Y-9443929D01*
X2350357Y-9462976D01*
X2483690Y-9262976D02*
X2502738Y-9262976D01*
X2521786Y-9272500D01*
X2531310Y-9282024D01*
X2540833Y-9301071D01*
X2550357Y-9339167D01*
X2550357Y-9386786D01*
X2540833Y-9424881D01*
X2531310Y-9443929D01*
X2521786Y-9453452D01*
X2502738Y-9462976D01*
X2483690Y-9462976D01*
X2464643Y-9453452D01*
X2455119Y-9443929D01*
X2445595Y-9424881D01*
X2436071Y-9386786D01*
X2436071Y-9339167D01*
X2445595Y-9301071D01*
X2455119Y-9282024D01*
X2464643Y-9272500D01*
X2483690Y-9262976D01*
X2740833Y-9462976D02*
X2626548Y-9462976D01*
X2683690Y-9462976D02*
X2683690Y-9262976D01*
X2664643Y-9291548D01*
X2645595Y-9310595D01*
X2626548Y-9320119D01*
X2921786Y-9262976D02*
X2826548Y-9262976D01*
X2817024Y-9358214D01*
X2826548Y-9348690D01*
X2845595Y-9339167D01*
X2893214Y-9339167D01*
X2912262Y-9348690D01*
X2921786Y-9358214D01*
X2931309Y-9377262D01*
X2931309Y-9424881D01*
X2921786Y-9443929D01*
X2912262Y-9453452D01*
X2893214Y-9462976D01*
X2845595Y-9462976D01*
X2826548Y-9453452D01*
X2817024Y-9443929D01*
X2997976Y-9262976D02*
X3131309Y-9262976D01*
X3045595Y-9462976D01*
X3197976Y-9262976D02*
X3197976Y-9301071D01*
X3274167Y-9262976D02*
X3274167Y-9301071D01*
X3569405Y-9539167D02*
X3559881Y-9529643D01*
X3540833Y-9501071D01*
X3531309Y-9482024D01*
X3521786Y-9453452D01*
X3512262Y-9405833D01*
X3512262Y-9367738D01*
X3521786Y-9320119D01*
X3531309Y-9291548D01*
X3540833Y-9272500D01*
X3559881Y-9243929D01*
X3569405Y-9234405D01*
X3636071Y-9282024D02*
X3645595Y-9272500D01*
X3664643Y-9262976D01*
X3712262Y-9262976D01*
X3731309Y-9272500D01*
X3740833Y-9282024D01*
X3750357Y-9301071D01*
X3750357Y-9320119D01*
X3740833Y-9348690D01*
X3626548Y-9462976D01*
X3750357Y-9462976D01*
X3874167Y-9262976D02*
X3893214Y-9262976D01*
X3912262Y-9272500D01*
X3921786Y-9282024D01*
X3931309Y-9301071D01*
X3940833Y-9339167D01*
X3940833Y-9386786D01*
X3931309Y-9424881D01*
X3921786Y-9443929D01*
X3912262Y-9453452D01*
X3893214Y-9462976D01*
X3874167Y-9462976D01*
X3855119Y-9453452D01*
X3845595Y-9443929D01*
X3836071Y-9424881D01*
X3826548Y-9386786D01*
X3826548Y-9339167D01*
X3836071Y-9301071D01*
X3845595Y-9282024D01*
X3855119Y-9272500D01*
X3874167Y-9262976D01*
X4112262Y-9262976D02*
X4074167Y-9262976D01*
X4055119Y-9272500D01*
X4045595Y-9282024D01*
X4026548Y-9310595D01*
X4017024Y-9348690D01*
X4017024Y-9424881D01*
X4026548Y-9443929D01*
X4036071Y-9453452D01*
X4055119Y-9462976D01*
X4093214Y-9462976D01*
X4112262Y-9453452D01*
X4121786Y-9443929D01*
X4131309Y-9424881D01*
X4131309Y-9377262D01*
X4121786Y-9358214D01*
X4112262Y-9348690D01*
X4093214Y-9339167D01*
X4055119Y-9339167D01*
X4036071Y-9348690D01*
X4026548Y-9358214D01*
X4017024Y-9377262D01*
X4369405Y-9462976D02*
X4369405Y-9262976D01*
X4455119Y-9462976D02*
X4455119Y-9358214D01*
X4445595Y-9339167D01*
X4426548Y-9329643D01*
X4397976Y-9329643D01*
X4378929Y-9339167D01*
X4369405Y-9348690D01*
X4578929Y-9462976D02*
X4559881Y-9453452D01*
X4550357Y-9443929D01*
X4540833Y-9424881D01*
X4540833Y-9367738D01*
X4550357Y-9348690D01*
X4559881Y-9339167D01*
X4578929Y-9329643D01*
X4607500Y-9329643D01*
X4626548Y-9339167D01*
X4636071Y-9348690D01*
X4645595Y-9367738D01*
X4645595Y-9424881D01*
X4636071Y-9443929D01*
X4626548Y-9453452D01*
X4607500Y-9462976D01*
X4578929Y-9462976D01*
X4759881Y-9462976D02*
X4740833Y-9453452D01*
X4731310Y-9434405D01*
X4731310Y-9262976D01*
X4912262Y-9453452D02*
X4893214Y-9462976D01*
X4855119Y-9462976D01*
X4836071Y-9453452D01*
X4826548Y-9434405D01*
X4826548Y-9358214D01*
X4836071Y-9339167D01*
X4855119Y-9329643D01*
X4893214Y-9329643D01*
X4912262Y-9339167D01*
X4921786Y-9358214D01*
X4921786Y-9377262D01*
X4826548Y-9396310D01*
X4997976Y-9453452D02*
X5017024Y-9462976D01*
X5055119Y-9462976D01*
X5074167Y-9453452D01*
X5083690Y-9434405D01*
X5083690Y-9424881D01*
X5074167Y-9405833D01*
X5055119Y-9396310D01*
X5026548Y-9396310D01*
X5007500Y-9386786D01*
X4997976Y-9367738D01*
X4997976Y-9358214D01*
X5007500Y-9339167D01*
X5026548Y-9329643D01*
X5055119Y-9329643D01*
X5074167Y-9339167D01*
X5150357Y-9539167D02*
X5159881Y-9529643D01*
X5178929Y-9501071D01*
X5188452Y-9482024D01*
X5197976Y-9453452D01*
X5207500Y-9405833D01*
X5207500Y-9367738D01*
X5197976Y-9320119D01*
X5188452Y-9291548D01*
X5178929Y-9272500D01*
X5159881Y-9243929D01*
X5150357Y-9234405D01*
D15*
X-9822Y-9654178D02*
X-9822Y-9618822D01*
X-45178Y-9618822D01*
X-45178Y-9654178D01*
X-9822Y-9654178D01*
D11*
X293214Y-9526976D02*
X312262Y-9526976D01*
X331310Y-9536500D01*
X340833Y-9546024D01*
X350357Y-9565071D01*
X359881Y-9603167D01*
X359881Y-9650786D01*
X350357Y-9688881D01*
X340833Y-9707929D01*
X331310Y-9717452D01*
X312262Y-9726976D01*
X293214Y-9726976D01*
X274167Y-9717452D01*
X264643Y-9707929D01*
X255119Y-9688881D01*
X245595Y-9650786D01*
X245595Y-9603167D01*
X255119Y-9565071D01*
X264643Y-9546024D01*
X274167Y-9536500D01*
X293214Y-9526976D01*
X445595Y-9707929D02*
X455119Y-9717452D01*
X445595Y-9726976D01*
X436071Y-9717452D01*
X445595Y-9707929D01*
X445595Y-9726976D01*
X636071Y-9526976D02*
X540833Y-9526976D01*
X531310Y-9622214D01*
X540833Y-9612690D01*
X559881Y-9603167D01*
X607500Y-9603167D01*
X626548Y-9612690D01*
X636071Y-9622214D01*
X645595Y-9641262D01*
X645595Y-9688881D01*
X636071Y-9707929D01*
X626548Y-9717452D01*
X607500Y-9726976D01*
X559881Y-9726976D01*
X540833Y-9717452D01*
X531310Y-9707929D01*
X769405Y-9526976D02*
X788452Y-9526976D01*
X807500Y-9536500D01*
X817024Y-9546024D01*
X826548Y-9565071D01*
X836071Y-9603167D01*
X836071Y-9650786D01*
X826548Y-9688881D01*
X817024Y-9707929D01*
X807500Y-9717452D01*
X788452Y-9726976D01*
X769405Y-9726976D01*
X750357Y-9717452D01*
X740833Y-9707929D01*
X731309Y-9688881D01*
X721786Y-9650786D01*
X721786Y-9603167D01*
X731309Y-9565071D01*
X740833Y-9546024D01*
X750357Y-9536500D01*
X769405Y-9526976D01*
X959881Y-9526976D02*
X978928Y-9526976D01*
X997976Y-9536500D01*
X1007500Y-9546024D01*
X1017024Y-9565071D01*
X1026548Y-9603167D01*
X1026548Y-9650786D01*
X1017024Y-9688881D01*
X1007500Y-9707929D01*
X997976Y-9717452D01*
X978928Y-9726976D01*
X959881Y-9726976D01*
X940833Y-9717452D01*
X931309Y-9707929D01*
X921786Y-9688881D01*
X912262Y-9650786D01*
X912262Y-9603167D01*
X921786Y-9565071D01*
X931309Y-9546024D01*
X940833Y-9536500D01*
X959881Y-9526976D01*
X1112262Y-9726976D02*
X1112262Y-9593643D01*
X1112262Y-9612690D02*
X1121786Y-9603167D01*
X1140833Y-9593643D01*
X1169405Y-9593643D01*
X1188452Y-9603167D01*
X1197976Y-9622214D01*
X1197976Y-9726976D01*
X1197976Y-9622214D02*
X1207500Y-9603167D01*
X1226548Y-9593643D01*
X1255119Y-9593643D01*
X1274167Y-9603167D01*
X1283690Y-9622214D01*
X1283690Y-9726976D01*
X1378929Y-9726976D02*
X1378929Y-9593643D01*
X1378929Y-9612690D02*
X1388452Y-9603167D01*
X1407500Y-9593643D01*
X1436071Y-9593643D01*
X1455119Y-9603167D01*
X1464643Y-9622214D01*
X1464643Y-9726976D01*
X1464643Y-9622214D02*
X1474167Y-9603167D01*
X1493214Y-9593643D01*
X1521786Y-9593643D01*
X1540833Y-9603167D01*
X1550357Y-9622214D01*
X1550357Y-9726976D01*
X1940833Y-9517452D02*
X1769405Y-9774595D01*
X2197976Y-9526976D02*
X2217024Y-9526976D01*
X2236071Y-9536500D01*
X2245595Y-9546024D01*
X2255119Y-9565071D01*
X2264643Y-9603167D01*
X2264643Y-9650786D01*
X2255119Y-9688881D01*
X2245595Y-9707929D01*
X2236071Y-9717452D01*
X2217024Y-9726976D01*
X2197976Y-9726976D01*
X2178929Y-9717452D01*
X2169405Y-9707929D01*
X2159881Y-9688881D01*
X2150357Y-9650786D01*
X2150357Y-9603167D01*
X2159881Y-9565071D01*
X2169405Y-9546024D01*
X2178929Y-9536500D01*
X2197976Y-9526976D01*
X2350357Y-9707929D02*
X2359881Y-9717452D01*
X2350357Y-9726976D01*
X2340833Y-9717452D01*
X2350357Y-9707929D01*
X2350357Y-9726976D01*
X2483690Y-9526976D02*
X2502738Y-9526976D01*
X2521786Y-9536500D01*
X2531310Y-9546024D01*
X2540833Y-9565071D01*
X2550357Y-9603167D01*
X2550357Y-9650786D01*
X2540833Y-9688881D01*
X2531310Y-9707929D01*
X2521786Y-9717452D01*
X2502738Y-9726976D01*
X2483690Y-9726976D01*
X2464643Y-9717452D01*
X2455119Y-9707929D01*
X2445595Y-9688881D01*
X2436071Y-9650786D01*
X2436071Y-9603167D01*
X2445595Y-9565071D01*
X2455119Y-9546024D01*
X2464643Y-9536500D01*
X2483690Y-9526976D01*
X2740833Y-9726976D02*
X2626548Y-9726976D01*
X2683690Y-9726976D02*
X2683690Y-9526976D01*
X2664643Y-9555548D01*
X2645595Y-9574595D01*
X2626548Y-9584119D01*
X2836071Y-9726976D02*
X2874167Y-9726976D01*
X2893214Y-9717452D01*
X2902738Y-9707929D01*
X2921786Y-9679357D01*
X2931309Y-9641262D01*
X2931309Y-9565071D01*
X2921786Y-9546024D01*
X2912262Y-9536500D01*
X2893214Y-9526976D01*
X2855119Y-9526976D01*
X2836071Y-9536500D01*
X2826548Y-9546024D01*
X2817024Y-9565071D01*
X2817024Y-9612690D01*
X2826548Y-9631738D01*
X2836071Y-9641262D01*
X2855119Y-9650786D01*
X2893214Y-9650786D01*
X2912262Y-9641262D01*
X2921786Y-9631738D01*
X2931309Y-9612690D01*
X2997976Y-9526976D02*
X3131309Y-9526976D01*
X3045595Y-9726976D01*
X3197976Y-9526976D02*
X3197976Y-9565071D01*
X3274167Y-9526976D02*
X3274167Y-9565071D01*
X3569405Y-9803167D02*
X3559881Y-9793643D01*
X3540833Y-9765071D01*
X3531309Y-9746024D01*
X3521786Y-9717452D01*
X3512262Y-9669833D01*
X3512262Y-9631738D01*
X3521786Y-9584119D01*
X3531309Y-9555548D01*
X3540833Y-9536500D01*
X3559881Y-9507929D01*
X3569405Y-9498405D01*
X3731309Y-9526976D02*
X3693214Y-9526976D01*
X3674167Y-9536500D01*
X3664643Y-9546024D01*
X3645595Y-9574595D01*
X3636071Y-9612690D01*
X3636071Y-9688881D01*
X3645595Y-9707929D01*
X3655119Y-9717452D01*
X3674167Y-9726976D01*
X3712262Y-9726976D01*
X3731309Y-9717452D01*
X3740833Y-9707929D01*
X3750357Y-9688881D01*
X3750357Y-9641262D01*
X3740833Y-9622214D01*
X3731309Y-9612690D01*
X3712262Y-9603167D01*
X3674167Y-9603167D01*
X3655119Y-9612690D01*
X3645595Y-9622214D01*
X3636071Y-9641262D01*
X3921786Y-9593643D02*
X3921786Y-9726976D01*
X3874167Y-9517452D02*
X3826548Y-9660310D01*
X3950357Y-9660310D01*
X4178928Y-9726976D02*
X4178928Y-9526976D01*
X4264643Y-9726976D02*
X4264643Y-9622214D01*
X4255119Y-9603167D01*
X4236071Y-9593643D01*
X4207500Y-9593643D01*
X4188452Y-9603167D01*
X4178928Y-9612690D01*
X4388452Y-9726976D02*
X4369405Y-9717452D01*
X4359881Y-9707929D01*
X4350357Y-9688881D01*
X4350357Y-9631738D01*
X4359881Y-9612690D01*
X4369405Y-9603167D01*
X4388452Y-9593643D01*
X4417024Y-9593643D01*
X4436071Y-9603167D01*
X4445595Y-9612690D01*
X4455119Y-9631738D01*
X4455119Y-9688881D01*
X4445595Y-9707929D01*
X4436071Y-9717452D01*
X4417024Y-9726976D01*
X4388452Y-9726976D01*
X4569405Y-9726976D02*
X4550357Y-9717452D01*
X4540833Y-9698405D01*
X4540833Y-9526976D01*
X4721786Y-9717452D02*
X4702738Y-9726976D01*
X4664643Y-9726976D01*
X4645595Y-9717452D01*
X4636071Y-9698405D01*
X4636071Y-9622214D01*
X4645595Y-9603167D01*
X4664643Y-9593643D01*
X4702738Y-9593643D01*
X4721786Y-9603167D01*
X4731310Y-9622214D01*
X4731310Y-9641262D01*
X4636071Y-9660310D01*
X4807500Y-9717452D02*
X4826548Y-9726976D01*
X4864643Y-9726976D01*
X4883690Y-9717452D01*
X4893214Y-9698405D01*
X4893214Y-9688881D01*
X4883690Y-9669833D01*
X4864643Y-9660310D01*
X4836071Y-9660310D01*
X4817024Y-9650786D01*
X4807500Y-9631738D01*
X4807500Y-9622214D01*
X4817024Y-9603167D01*
X4836071Y-9593643D01*
X4864643Y-9593643D01*
X4883690Y-9603167D01*
X4959881Y-9803167D02*
X4969405Y-9793643D01*
X4988452Y-9765071D01*
X4997976Y-9746024D01*
X5007500Y-9717452D01*
X5017024Y-9669833D01*
X5017024Y-9631738D01*
X5007500Y-9584119D01*
X4997976Y-9555548D01*
X4988452Y-9536500D01*
X4969405Y-9507929D01*
X4959881Y-9498405D01*
D16*
X-36500Y-9934500D02*
X-2500Y-9900500D01*
X-36500Y-9866500D01*
X-70500Y-9900500D01*
X-36500Y-9934500D01*
D11*
X293214Y-9790976D02*
X312262Y-9790976D01*
X331310Y-9800500D01*
X340833Y-9810024D01*
X350357Y-9829071D01*
X359881Y-9867167D01*
X359881Y-9914786D01*
X350357Y-9952881D01*
X340833Y-9971929D01*
X331310Y-9981452D01*
X312262Y-9990976D01*
X293214Y-9990976D01*
X274167Y-9981452D01*
X264643Y-9971929D01*
X255119Y-9952881D01*
X245595Y-9914786D01*
X245595Y-9867167D01*
X255119Y-9829071D01*
X264643Y-9810024D01*
X274167Y-9800500D01*
X293214Y-9790976D01*
X445595Y-9971929D02*
X455119Y-9981452D01*
X445595Y-9990976D01*
X436071Y-9981452D01*
X445595Y-9971929D01*
X445595Y-9990976D01*
X626548Y-9790976D02*
X588452Y-9790976D01*
X569405Y-9800500D01*
X559881Y-9810024D01*
X540833Y-9838595D01*
X531310Y-9876690D01*
X531310Y-9952881D01*
X540833Y-9971929D01*
X550357Y-9981452D01*
X569405Y-9990976D01*
X607500Y-9990976D01*
X626548Y-9981452D01*
X636071Y-9971929D01*
X645595Y-9952881D01*
X645595Y-9905262D01*
X636071Y-9886214D01*
X626548Y-9876690D01*
X607500Y-9867167D01*
X569405Y-9867167D01*
X550357Y-9876690D01*
X540833Y-9886214D01*
X531310Y-9905262D01*
X759881Y-9876690D02*
X740833Y-9867167D01*
X731309Y-9857643D01*
X721786Y-9838595D01*
X721786Y-9829071D01*
X731309Y-9810024D01*
X740833Y-9800500D01*
X759881Y-9790976D01*
X797976Y-9790976D01*
X817024Y-9800500D01*
X826548Y-9810024D01*
X836071Y-9829071D01*
X836071Y-9838595D01*
X826548Y-9857643D01*
X817024Y-9867167D01*
X797976Y-9876690D01*
X759881Y-9876690D01*
X740833Y-9886214D01*
X731309Y-9895738D01*
X721786Y-9914786D01*
X721786Y-9952881D01*
X731309Y-9971929D01*
X740833Y-9981452D01*
X759881Y-9990976D01*
X797976Y-9990976D01*
X817024Y-9981452D01*
X826548Y-9971929D01*
X836071Y-9952881D01*
X836071Y-9914786D01*
X826548Y-9895738D01*
X817024Y-9886214D01*
X797976Y-9876690D01*
X959881Y-9790976D02*
X978928Y-9790976D01*
X997976Y-9800500D01*
X1007500Y-9810024D01*
X1017024Y-9829071D01*
X1026548Y-9867167D01*
X1026548Y-9914786D01*
X1017024Y-9952881D01*
X1007500Y-9971929D01*
X997976Y-9981452D01*
X978928Y-9990976D01*
X959881Y-9990976D01*
X940833Y-9981452D01*
X931309Y-9971929D01*
X921786Y-9952881D01*
X912262Y-9914786D01*
X912262Y-9867167D01*
X921786Y-9829071D01*
X931309Y-9810024D01*
X940833Y-9800500D01*
X959881Y-9790976D01*
X1112262Y-9990976D02*
X1112262Y-9857643D01*
X1112262Y-9876690D02*
X1121786Y-9867167D01*
X1140833Y-9857643D01*
X1169405Y-9857643D01*
X1188452Y-9867167D01*
X1197976Y-9886214D01*
X1197976Y-9990976D01*
X1197976Y-9886214D02*
X1207500Y-9867167D01*
X1226548Y-9857643D01*
X1255119Y-9857643D01*
X1274167Y-9867167D01*
X1283690Y-9886214D01*
X1283690Y-9990976D01*
X1378929Y-9990976D02*
X1378929Y-9857643D01*
X1378929Y-9876690D02*
X1388452Y-9867167D01*
X1407500Y-9857643D01*
X1436071Y-9857643D01*
X1455119Y-9867167D01*
X1464643Y-9886214D01*
X1464643Y-9990976D01*
X1464643Y-9886214D02*
X1474167Y-9867167D01*
X1493214Y-9857643D01*
X1521786Y-9857643D01*
X1540833Y-9867167D01*
X1550357Y-9886214D01*
X1550357Y-9990976D01*
X1940833Y-9781452D02*
X1769405Y-10038595D01*
X2197976Y-9790976D02*
X2217024Y-9790976D01*
X2236071Y-9800500D01*
X2245595Y-9810024D01*
X2255119Y-9829071D01*
X2264643Y-9867167D01*
X2264643Y-9914786D01*
X2255119Y-9952881D01*
X2245595Y-9971929D01*
X2236071Y-9981452D01*
X2217024Y-9990976D01*
X2197976Y-9990976D01*
X2178929Y-9981452D01*
X2169405Y-9971929D01*
X2159881Y-9952881D01*
X2150357Y-9914786D01*
X2150357Y-9867167D01*
X2159881Y-9829071D01*
X2169405Y-9810024D01*
X2178929Y-9800500D01*
X2197976Y-9790976D01*
X2350357Y-9971929D02*
X2359881Y-9981452D01*
X2350357Y-9990976D01*
X2340833Y-9981452D01*
X2350357Y-9971929D01*
X2350357Y-9990976D01*
X2483690Y-9790976D02*
X2502738Y-9790976D01*
X2521786Y-9800500D01*
X2531310Y-9810024D01*
X2540833Y-9829071D01*
X2550357Y-9867167D01*
X2550357Y-9914786D01*
X2540833Y-9952881D01*
X2531310Y-9971929D01*
X2521786Y-9981452D01*
X2502738Y-9990976D01*
X2483690Y-9990976D01*
X2464643Y-9981452D01*
X2455119Y-9971929D01*
X2445595Y-9952881D01*
X2436071Y-9914786D01*
X2436071Y-9867167D01*
X2445595Y-9829071D01*
X2455119Y-9810024D01*
X2464643Y-9800500D01*
X2483690Y-9790976D01*
X2626548Y-9810024D02*
X2636071Y-9800500D01*
X2655119Y-9790976D01*
X2702738Y-9790976D01*
X2721786Y-9800500D01*
X2731310Y-9810024D01*
X2740833Y-9829071D01*
X2740833Y-9848119D01*
X2731310Y-9876690D01*
X2617024Y-9990976D01*
X2740833Y-9990976D01*
X2912262Y-9790976D02*
X2874167Y-9790976D01*
X2855119Y-9800500D01*
X2845595Y-9810024D01*
X2826548Y-9838595D01*
X2817024Y-9876690D01*
X2817024Y-9952881D01*
X2826548Y-9971929D01*
X2836071Y-9981452D01*
X2855119Y-9990976D01*
X2893214Y-9990976D01*
X2912262Y-9981452D01*
X2921786Y-9971929D01*
X2931309Y-9952881D01*
X2931309Y-9905262D01*
X2921786Y-9886214D01*
X2912262Y-9876690D01*
X2893214Y-9867167D01*
X2855119Y-9867167D01*
X2836071Y-9876690D01*
X2826548Y-9886214D01*
X2817024Y-9905262D01*
X3045595Y-9876690D02*
X3026548Y-9867167D01*
X3017024Y-9857643D01*
X3007500Y-9838595D01*
X3007500Y-9829071D01*
X3017024Y-9810024D01*
X3026548Y-9800500D01*
X3045595Y-9790976D01*
X3083690Y-9790976D01*
X3102738Y-9800500D01*
X3112262Y-9810024D01*
X3121786Y-9829071D01*
X3121786Y-9838595D01*
X3112262Y-9857643D01*
X3102738Y-9867167D01*
X3083690Y-9876690D01*
X3045595Y-9876690D01*
X3026548Y-9886214D01*
X3017024Y-9895738D01*
X3007500Y-9914786D01*
X3007500Y-9952881D01*
X3017024Y-9971929D01*
X3026548Y-9981452D01*
X3045595Y-9990976D01*
X3083690Y-9990976D01*
X3102738Y-9981452D01*
X3112262Y-9971929D01*
X3121786Y-9952881D01*
X3121786Y-9914786D01*
X3112262Y-9895738D01*
X3102738Y-9886214D01*
X3083690Y-9876690D01*
X3197976Y-9790976D02*
X3197976Y-9829071D01*
X3274167Y-9790976D02*
X3274167Y-9829071D01*
X3569405Y-10067167D02*
X3559881Y-10057643D01*
X3540833Y-10029071D01*
X3531309Y-10010024D01*
X3521786Y-9981452D01*
X3512262Y-9933833D01*
X3512262Y-9895738D01*
X3521786Y-9848119D01*
X3531309Y-9819548D01*
X3540833Y-9800500D01*
X3559881Y-9771929D01*
X3569405Y-9762405D01*
X3750357Y-9990976D02*
X3636071Y-9990976D01*
X3693214Y-9990976D02*
X3693214Y-9790976D01*
X3674167Y-9819548D01*
X3655119Y-9838595D01*
X3636071Y-9848119D01*
X3864643Y-9876690D02*
X3845595Y-9867167D01*
X3836071Y-9857643D01*
X3826548Y-9838595D01*
X3826548Y-9829071D01*
X3836071Y-9810024D01*
X3845595Y-9800500D01*
X3864643Y-9790976D01*
X3902738Y-9790976D01*
X3921786Y-9800500D01*
X3931309Y-9810024D01*
X3940833Y-9829071D01*
X3940833Y-9838595D01*
X3931309Y-9857643D01*
X3921786Y-9867167D01*
X3902738Y-9876690D01*
X3864643Y-9876690D01*
X3845595Y-9886214D01*
X3836071Y-9895738D01*
X3826548Y-9914786D01*
X3826548Y-9952881D01*
X3836071Y-9971929D01*
X3845595Y-9981452D01*
X3864643Y-9990976D01*
X3902738Y-9990976D01*
X3921786Y-9981452D01*
X3931309Y-9971929D01*
X3940833Y-9952881D01*
X3940833Y-9914786D01*
X3931309Y-9895738D01*
X3921786Y-9886214D01*
X3902738Y-9876690D01*
X4178928Y-9990976D02*
X4178928Y-9790976D01*
X4264643Y-9990976D02*
X4264643Y-9886214D01*
X4255119Y-9867167D01*
X4236071Y-9857643D01*
X4207500Y-9857643D01*
X4188452Y-9867167D01*
X4178928Y-9876690D01*
X4388452Y-9990976D02*
X4369405Y-9981452D01*
X4359881Y-9971929D01*
X4350357Y-9952881D01*
X4350357Y-9895738D01*
X4359881Y-9876690D01*
X4369405Y-9867167D01*
X4388452Y-9857643D01*
X4417024Y-9857643D01*
X4436071Y-9867167D01*
X4445595Y-9876690D01*
X4455119Y-9895738D01*
X4455119Y-9952881D01*
X4445595Y-9971929D01*
X4436071Y-9981452D01*
X4417024Y-9990976D01*
X4388452Y-9990976D01*
X4569405Y-9990976D02*
X4550357Y-9981452D01*
X4540833Y-9962405D01*
X4540833Y-9790976D01*
X4721786Y-9981452D02*
X4702738Y-9990976D01*
X4664643Y-9990976D01*
X4645595Y-9981452D01*
X4636071Y-9962405D01*
X4636071Y-9886214D01*
X4645595Y-9867167D01*
X4664643Y-9857643D01*
X4702738Y-9857643D01*
X4721786Y-9867167D01*
X4731310Y-9886214D01*
X4731310Y-9905262D01*
X4636071Y-9924310D01*
X4807500Y-9981452D02*
X4826548Y-9990976D01*
X4864643Y-9990976D01*
X4883690Y-9981452D01*
X4893214Y-9962405D01*
X4893214Y-9952881D01*
X4883690Y-9933833D01*
X4864643Y-9924310D01*
X4836071Y-9924310D01*
X4817024Y-9914786D01*
X4807500Y-9895738D01*
X4807500Y-9886214D01*
X4817024Y-9867167D01*
X4836071Y-9857643D01*
X4864643Y-9857643D01*
X4883690Y-9867167D01*
X4959881Y-10067167D02*
X4969405Y-10057643D01*
X4988452Y-10029071D01*
X4997976Y-10010024D01*
X5007500Y-9981452D01*
X5017024Y-9933833D01*
X5017024Y-9895738D01*
X5007500Y-9848119D01*
X4997976Y-9819548D01*
X4988452Y-9800500D01*
X4969405Y-9771929D01*
X4959881Y-9762405D01*
D17*
X-77500Y-10127000D02*
X-2500Y-10202000D01*
X-2500Y-10127000D02*
X-77500Y-10202000D01*
X-2500Y-10164500D02*
G75*
G03*
X-2500Y-10164500I-37500J0D01*
G01*
D11*
X293214Y-10054976D02*
X312262Y-10054976D01*
X331310Y-10064500D01*
X340833Y-10074024D01*
X350357Y-10093071D01*
X359881Y-10131167D01*
X359881Y-10178786D01*
X350357Y-10216881D01*
X340833Y-10235929D01*
X331310Y-10245452D01*
X312262Y-10254976D01*
X293214Y-10254976D01*
X274167Y-10245452D01*
X264643Y-10235929D01*
X255119Y-10216881D01*
X245595Y-10178786D01*
X245595Y-10131167D01*
X255119Y-10093071D01*
X264643Y-10074024D01*
X274167Y-10064500D01*
X293214Y-10054976D01*
X445595Y-10235929D02*
X455119Y-10245452D01*
X445595Y-10254976D01*
X436071Y-10245452D01*
X445595Y-10235929D01*
X445595Y-10254976D01*
X521786Y-10054976D02*
X655119Y-10054976D01*
X569405Y-10254976D01*
X826548Y-10054976D02*
X731309Y-10054976D01*
X721786Y-10150214D01*
X731309Y-10140690D01*
X750357Y-10131167D01*
X797976Y-10131167D01*
X817024Y-10140690D01*
X826548Y-10150214D01*
X836071Y-10169262D01*
X836071Y-10216881D01*
X826548Y-10235929D01*
X817024Y-10245452D01*
X797976Y-10254976D01*
X750357Y-10254976D01*
X731309Y-10245452D01*
X721786Y-10235929D01*
X959881Y-10054976D02*
X978928Y-10054976D01*
X997976Y-10064500D01*
X1007500Y-10074024D01*
X1017024Y-10093071D01*
X1026548Y-10131167D01*
X1026548Y-10178786D01*
X1017024Y-10216881D01*
X1007500Y-10235929D01*
X997976Y-10245452D01*
X978928Y-10254976D01*
X959881Y-10254976D01*
X940833Y-10245452D01*
X931309Y-10235929D01*
X921786Y-10216881D01*
X912262Y-10178786D01*
X912262Y-10131167D01*
X921786Y-10093071D01*
X931309Y-10074024D01*
X940833Y-10064500D01*
X959881Y-10054976D01*
X1112262Y-10254976D02*
X1112262Y-10121643D01*
X1112262Y-10140690D02*
X1121786Y-10131167D01*
X1140833Y-10121643D01*
X1169405Y-10121643D01*
X1188452Y-10131167D01*
X1197976Y-10150214D01*
X1197976Y-10254976D01*
X1197976Y-10150214D02*
X1207500Y-10131167D01*
X1226548Y-10121643D01*
X1255119Y-10121643D01*
X1274167Y-10131167D01*
X1283690Y-10150214D01*
X1283690Y-10254976D01*
X1378929Y-10254976D02*
X1378929Y-10121643D01*
X1378929Y-10140690D02*
X1388452Y-10131167D01*
X1407500Y-10121643D01*
X1436071Y-10121643D01*
X1455119Y-10131167D01*
X1464643Y-10150214D01*
X1464643Y-10254976D01*
X1464643Y-10150214D02*
X1474167Y-10131167D01*
X1493214Y-10121643D01*
X1521786Y-10121643D01*
X1540833Y-10131167D01*
X1550357Y-10150214D01*
X1550357Y-10254976D01*
X1940833Y-10045452D02*
X1769405Y-10302595D01*
X2197976Y-10054976D02*
X2217024Y-10054976D01*
X2236071Y-10064500D01*
X2245595Y-10074024D01*
X2255119Y-10093071D01*
X2264643Y-10131167D01*
X2264643Y-10178786D01*
X2255119Y-10216881D01*
X2245595Y-10235929D01*
X2236071Y-10245452D01*
X2217024Y-10254976D01*
X2197976Y-10254976D01*
X2178929Y-10245452D01*
X2169405Y-10235929D01*
X2159881Y-10216881D01*
X2150357Y-10178786D01*
X2150357Y-10131167D01*
X2159881Y-10093071D01*
X2169405Y-10074024D01*
X2178929Y-10064500D01*
X2197976Y-10054976D01*
X2350357Y-10235929D02*
X2359881Y-10245452D01*
X2350357Y-10254976D01*
X2340833Y-10245452D01*
X2350357Y-10235929D01*
X2350357Y-10254976D01*
X2483690Y-10054976D02*
X2502738Y-10054976D01*
X2521786Y-10064500D01*
X2531310Y-10074024D01*
X2540833Y-10093071D01*
X2550357Y-10131167D01*
X2550357Y-10178786D01*
X2540833Y-10216881D01*
X2531310Y-10235929D01*
X2521786Y-10245452D01*
X2502738Y-10254976D01*
X2483690Y-10254976D01*
X2464643Y-10245452D01*
X2455119Y-10235929D01*
X2445595Y-10216881D01*
X2436071Y-10178786D01*
X2436071Y-10131167D01*
X2445595Y-10093071D01*
X2455119Y-10074024D01*
X2464643Y-10064500D01*
X2483690Y-10054976D01*
X2626548Y-10074024D02*
X2636071Y-10064500D01*
X2655119Y-10054976D01*
X2702738Y-10054976D01*
X2721786Y-10064500D01*
X2731310Y-10074024D01*
X2740833Y-10093071D01*
X2740833Y-10112119D01*
X2731310Y-10140690D01*
X2617024Y-10254976D01*
X2740833Y-10254976D01*
X2836071Y-10254976D02*
X2874167Y-10254976D01*
X2893214Y-10245452D01*
X2902738Y-10235929D01*
X2921786Y-10207357D01*
X2931309Y-10169262D01*
X2931309Y-10093071D01*
X2921786Y-10074024D01*
X2912262Y-10064500D01*
X2893214Y-10054976D01*
X2855119Y-10054976D01*
X2836071Y-10064500D01*
X2826548Y-10074024D01*
X2817024Y-10093071D01*
X2817024Y-10140690D01*
X2826548Y-10159738D01*
X2836071Y-10169262D01*
X2855119Y-10178786D01*
X2893214Y-10178786D01*
X2912262Y-10169262D01*
X2921786Y-10159738D01*
X2931309Y-10140690D01*
X3112262Y-10054976D02*
X3017024Y-10054976D01*
X3007500Y-10150214D01*
X3017024Y-10140690D01*
X3036071Y-10131167D01*
X3083690Y-10131167D01*
X3102738Y-10140690D01*
X3112262Y-10150214D01*
X3121786Y-10169262D01*
X3121786Y-10216881D01*
X3112262Y-10235929D01*
X3102738Y-10245452D01*
X3083690Y-10254976D01*
X3036071Y-10254976D01*
X3017024Y-10245452D01*
X3007500Y-10235929D01*
X3197976Y-10054976D02*
X3197976Y-10093071D01*
X3274167Y-10054976D02*
X3274167Y-10093071D01*
X3569405Y-10331167D02*
X3559881Y-10321643D01*
X3540833Y-10293071D01*
X3531309Y-10274024D01*
X3521786Y-10245452D01*
X3512262Y-10197833D01*
X3512262Y-10159738D01*
X3521786Y-10112119D01*
X3531309Y-10083548D01*
X3540833Y-10064500D01*
X3559881Y-10035929D01*
X3569405Y-10026405D01*
X3674167Y-10140690D02*
X3655119Y-10131167D01*
X3645595Y-10121643D01*
X3636071Y-10102595D01*
X3636071Y-10093071D01*
X3645595Y-10074024D01*
X3655119Y-10064500D01*
X3674167Y-10054976D01*
X3712262Y-10054976D01*
X3731309Y-10064500D01*
X3740833Y-10074024D01*
X3750357Y-10093071D01*
X3750357Y-10102595D01*
X3740833Y-10121643D01*
X3731309Y-10131167D01*
X3712262Y-10140690D01*
X3674167Y-10140690D01*
X3655119Y-10150214D01*
X3645595Y-10159738D01*
X3636071Y-10178786D01*
X3636071Y-10216881D01*
X3645595Y-10235929D01*
X3655119Y-10245452D01*
X3674167Y-10254976D01*
X3712262Y-10254976D01*
X3731309Y-10245452D01*
X3740833Y-10235929D01*
X3750357Y-10216881D01*
X3750357Y-10178786D01*
X3740833Y-10159738D01*
X3731309Y-10150214D01*
X3712262Y-10140690D01*
X3988452Y-10254976D02*
X3988452Y-10054976D01*
X4074167Y-10254976D02*
X4074167Y-10150214D01*
X4064643Y-10131167D01*
X4045595Y-10121643D01*
X4017024Y-10121643D01*
X3997976Y-10131167D01*
X3988452Y-10140690D01*
X4197976Y-10254976D02*
X4178928Y-10245452D01*
X4169405Y-10235929D01*
X4159881Y-10216881D01*
X4159881Y-10159738D01*
X4169405Y-10140690D01*
X4178928Y-10131167D01*
X4197976Y-10121643D01*
X4226548Y-10121643D01*
X4245595Y-10131167D01*
X4255119Y-10140690D01*
X4264643Y-10159738D01*
X4264643Y-10216881D01*
X4255119Y-10235929D01*
X4245595Y-10245452D01*
X4226548Y-10254976D01*
X4197976Y-10254976D01*
X4378929Y-10254976D02*
X4359881Y-10245452D01*
X4350357Y-10226405D01*
X4350357Y-10054976D01*
X4531310Y-10245452D02*
X4512262Y-10254976D01*
X4474167Y-10254976D01*
X4455119Y-10245452D01*
X4445595Y-10226405D01*
X4445595Y-10150214D01*
X4455119Y-10131167D01*
X4474167Y-10121643D01*
X4512262Y-10121643D01*
X4531310Y-10131167D01*
X4540833Y-10150214D01*
X4540833Y-10169262D01*
X4445595Y-10188310D01*
X4617024Y-10245452D02*
X4636071Y-10254976D01*
X4674167Y-10254976D01*
X4693214Y-10245452D01*
X4702738Y-10226405D01*
X4702738Y-10216881D01*
X4693214Y-10197833D01*
X4674167Y-10188310D01*
X4645595Y-10188310D01*
X4626548Y-10178786D01*
X4617024Y-10159738D01*
X4617024Y-10150214D01*
X4626548Y-10131167D01*
X4645595Y-10121643D01*
X4674167Y-10121643D01*
X4693214Y-10131167D01*
X4769405Y-10331167D02*
X4778929Y-10321643D01*
X4797976Y-10293071D01*
X4807500Y-10274024D01*
X4817024Y-10245452D01*
X4826548Y-10197833D01*
X4826548Y-10159738D01*
X4817024Y-10112119D01*
X4807500Y-10083548D01*
X4797976Y-10064500D01*
X4778929Y-10035929D01*
X4769405Y-10026405D01*
D18*
X-82500Y-10388500D02*
X-2500Y-10468500D01*
X-2500Y-10388500D02*
X-82500Y-10468500D01*
X-42500Y-10388500D02*
X-42500Y-10468500D01*
X-82500Y-10428500D02*
X-2500Y-10428500D01*
D11*
X293214Y-10318976D02*
X312262Y-10318976D01*
X331310Y-10328500D01*
X340833Y-10338024D01*
X350357Y-10357071D01*
X359881Y-10395167D01*
X359881Y-10442786D01*
X350357Y-10480881D01*
X340833Y-10499929D01*
X331310Y-10509452D01*
X312262Y-10518976D01*
X293214Y-10518976D01*
X274167Y-10509452D01*
X264643Y-10499929D01*
X255119Y-10480881D01*
X245595Y-10442786D01*
X245595Y-10395167D01*
X255119Y-10357071D01*
X264643Y-10338024D01*
X274167Y-10328500D01*
X293214Y-10318976D01*
X445595Y-10499929D02*
X455119Y-10509452D01*
X445595Y-10518976D01*
X436071Y-10509452D01*
X445595Y-10499929D01*
X445595Y-10518976D01*
X569405Y-10404690D02*
X550357Y-10395167D01*
X540833Y-10385643D01*
X531310Y-10366595D01*
X531310Y-10357071D01*
X540833Y-10338024D01*
X550357Y-10328500D01*
X569405Y-10318976D01*
X607500Y-10318976D01*
X626548Y-10328500D01*
X636071Y-10338024D01*
X645595Y-10357071D01*
X645595Y-10366595D01*
X636071Y-10385643D01*
X626548Y-10395167D01*
X607500Y-10404690D01*
X569405Y-10404690D01*
X550357Y-10414214D01*
X540833Y-10423738D01*
X531310Y-10442786D01*
X531310Y-10480881D01*
X540833Y-10499929D01*
X550357Y-10509452D01*
X569405Y-10518976D01*
X607500Y-10518976D01*
X626548Y-10509452D01*
X636071Y-10499929D01*
X645595Y-10480881D01*
X645595Y-10442786D01*
X636071Y-10423738D01*
X626548Y-10414214D01*
X607500Y-10404690D01*
X769405Y-10318976D02*
X788452Y-10318976D01*
X807500Y-10328500D01*
X817024Y-10338024D01*
X826548Y-10357071D01*
X836071Y-10395167D01*
X836071Y-10442786D01*
X826548Y-10480881D01*
X817024Y-10499929D01*
X807500Y-10509452D01*
X788452Y-10518976D01*
X769405Y-10518976D01*
X750357Y-10509452D01*
X740833Y-10499929D01*
X731309Y-10480881D01*
X721786Y-10442786D01*
X721786Y-10395167D01*
X731309Y-10357071D01*
X740833Y-10338024D01*
X750357Y-10328500D01*
X769405Y-10318976D01*
X959881Y-10318976D02*
X978928Y-10318976D01*
X997976Y-10328500D01*
X1007500Y-10338024D01*
X1017024Y-10357071D01*
X1026548Y-10395167D01*
X1026548Y-10442786D01*
X1017024Y-10480881D01*
X1007500Y-10499929D01*
X997976Y-10509452D01*
X978928Y-10518976D01*
X959881Y-10518976D01*
X940833Y-10509452D01*
X931309Y-10499929D01*
X921786Y-10480881D01*
X912262Y-10442786D01*
X912262Y-10395167D01*
X921786Y-10357071D01*
X931309Y-10338024D01*
X940833Y-10328500D01*
X959881Y-10318976D01*
X1112262Y-10518976D02*
X1112262Y-10385643D01*
X1112262Y-10404690D02*
X1121786Y-10395167D01*
X1140833Y-10385643D01*
X1169405Y-10385643D01*
X1188452Y-10395167D01*
X1197976Y-10414214D01*
X1197976Y-10518976D01*
X1197976Y-10414214D02*
X1207500Y-10395167D01*
X1226548Y-10385643D01*
X1255119Y-10385643D01*
X1274167Y-10395167D01*
X1283690Y-10414214D01*
X1283690Y-10518976D01*
X1378929Y-10518976D02*
X1378929Y-10385643D01*
X1378929Y-10404690D02*
X1388452Y-10395167D01*
X1407500Y-10385643D01*
X1436071Y-10385643D01*
X1455119Y-10395167D01*
X1464643Y-10414214D01*
X1464643Y-10518976D01*
X1464643Y-10414214D02*
X1474167Y-10395167D01*
X1493214Y-10385643D01*
X1521786Y-10385643D01*
X1540833Y-10395167D01*
X1550357Y-10414214D01*
X1550357Y-10518976D01*
X1940833Y-10309452D02*
X1769405Y-10566595D01*
X2197976Y-10318976D02*
X2217024Y-10318976D01*
X2236071Y-10328500D01*
X2245595Y-10338024D01*
X2255119Y-10357071D01*
X2264643Y-10395167D01*
X2264643Y-10442786D01*
X2255119Y-10480881D01*
X2245595Y-10499929D01*
X2236071Y-10509452D01*
X2217024Y-10518976D01*
X2197976Y-10518976D01*
X2178929Y-10509452D01*
X2169405Y-10499929D01*
X2159881Y-10480881D01*
X2150357Y-10442786D01*
X2150357Y-10395167D01*
X2159881Y-10357071D01*
X2169405Y-10338024D01*
X2178929Y-10328500D01*
X2197976Y-10318976D01*
X2350357Y-10499929D02*
X2359881Y-10509452D01*
X2350357Y-10518976D01*
X2340833Y-10509452D01*
X2350357Y-10499929D01*
X2350357Y-10518976D01*
X2483690Y-10318976D02*
X2502738Y-10318976D01*
X2521786Y-10328500D01*
X2531310Y-10338024D01*
X2540833Y-10357071D01*
X2550357Y-10395167D01*
X2550357Y-10442786D01*
X2540833Y-10480881D01*
X2531310Y-10499929D01*
X2521786Y-10509452D01*
X2502738Y-10518976D01*
X2483690Y-10518976D01*
X2464643Y-10509452D01*
X2455119Y-10499929D01*
X2445595Y-10480881D01*
X2436071Y-10442786D01*
X2436071Y-10395167D01*
X2445595Y-10357071D01*
X2455119Y-10338024D01*
X2464643Y-10328500D01*
X2483690Y-10318976D01*
X2617024Y-10318976D02*
X2740833Y-10318976D01*
X2674167Y-10395167D01*
X2702738Y-10395167D01*
X2721786Y-10404690D01*
X2731310Y-10414214D01*
X2740833Y-10433262D01*
X2740833Y-10480881D01*
X2731310Y-10499929D01*
X2721786Y-10509452D01*
X2702738Y-10518976D01*
X2645595Y-10518976D01*
X2626548Y-10509452D01*
X2617024Y-10499929D01*
X2931309Y-10518976D02*
X2817024Y-10518976D01*
X2874167Y-10518976D02*
X2874167Y-10318976D01*
X2855119Y-10347548D01*
X2836071Y-10366595D01*
X2817024Y-10376119D01*
X3112262Y-10318976D02*
X3017024Y-10318976D01*
X3007500Y-10414214D01*
X3017024Y-10404690D01*
X3036071Y-10395167D01*
X3083690Y-10395167D01*
X3102738Y-10404690D01*
X3112262Y-10414214D01*
X3121786Y-10433262D01*
X3121786Y-10480881D01*
X3112262Y-10499929D01*
X3102738Y-10509452D01*
X3083690Y-10518976D01*
X3036071Y-10518976D01*
X3017024Y-10509452D01*
X3007500Y-10499929D01*
X3197976Y-10318976D02*
X3197976Y-10357071D01*
X3274167Y-10318976D02*
X3274167Y-10357071D01*
X3569405Y-10595167D02*
X3559881Y-10585643D01*
X3540833Y-10557071D01*
X3531309Y-10538024D01*
X3521786Y-10509452D01*
X3512262Y-10461833D01*
X3512262Y-10423738D01*
X3521786Y-10376119D01*
X3531309Y-10347548D01*
X3540833Y-10328500D01*
X3559881Y-10299929D01*
X3569405Y-10290405D01*
X3750357Y-10518976D02*
X3636071Y-10518976D01*
X3693214Y-10518976D02*
X3693214Y-10318976D01*
X3674167Y-10347548D01*
X3655119Y-10366595D01*
X3636071Y-10376119D01*
X3921786Y-10385643D02*
X3921786Y-10518976D01*
X3874167Y-10309452D02*
X3826548Y-10452310D01*
X3950357Y-10452310D01*
X4178928Y-10518976D02*
X4178928Y-10318976D01*
X4264643Y-10518976D02*
X4264643Y-10414214D01*
X4255119Y-10395167D01*
X4236071Y-10385643D01*
X4207500Y-10385643D01*
X4188452Y-10395167D01*
X4178928Y-10404690D01*
X4388452Y-10518976D02*
X4369405Y-10509452D01*
X4359881Y-10499929D01*
X4350357Y-10480881D01*
X4350357Y-10423738D01*
X4359881Y-10404690D01*
X4369405Y-10395167D01*
X4388452Y-10385643D01*
X4417024Y-10385643D01*
X4436071Y-10395167D01*
X4445595Y-10404690D01*
X4455119Y-10423738D01*
X4455119Y-10480881D01*
X4445595Y-10499929D01*
X4436071Y-10509452D01*
X4417024Y-10518976D01*
X4388452Y-10518976D01*
X4569405Y-10518976D02*
X4550357Y-10509452D01*
X4540833Y-10490405D01*
X4540833Y-10318976D01*
X4721786Y-10509452D02*
X4702738Y-10518976D01*
X4664643Y-10518976D01*
X4645595Y-10509452D01*
X4636071Y-10490405D01*
X4636071Y-10414214D01*
X4645595Y-10395167D01*
X4664643Y-10385643D01*
X4702738Y-10385643D01*
X4721786Y-10395167D01*
X4731310Y-10414214D01*
X4731310Y-10433262D01*
X4636071Y-10452310D01*
X4807500Y-10509452D02*
X4826548Y-10518976D01*
X4864643Y-10518976D01*
X4883690Y-10509452D01*
X4893214Y-10490405D01*
X4893214Y-10480881D01*
X4883690Y-10461833D01*
X4864643Y-10452310D01*
X4836071Y-10452310D01*
X4817024Y-10442786D01*
X4807500Y-10423738D01*
X4807500Y-10414214D01*
X4817024Y-10395167D01*
X4836071Y-10385643D01*
X4864643Y-10385643D01*
X4883690Y-10395167D01*
X4959881Y-10595167D02*
X4969405Y-10585643D01*
X4988452Y-10557071D01*
X4997976Y-10538024D01*
X5007500Y-10509452D01*
X5017024Y-10461833D01*
X5017024Y-10423738D01*
X5007500Y-10376119D01*
X4997976Y-10347548D01*
X4988452Y-10328500D01*
X4969405Y-10299929D01*
X4959881Y-10290405D01*
D19*
X-102500Y-10642500D02*
X-2500Y-10742500D01*
X-2500Y-10642500D02*
X-102500Y-10742500D01*
X-17144Y-10727856D02*
X-17144Y-10657144D01*
X-87856Y-10657144D01*
X-87856Y-10727856D01*
X-17144Y-10727856D01*
D11*
X359881Y-10782976D02*
X245595Y-10782976D01*
X302738Y-10782976D02*
X302738Y-10582976D01*
X283690Y-10611548D01*
X264643Y-10630595D01*
X245595Y-10640119D01*
X445595Y-10763929D02*
X455119Y-10773452D01*
X445595Y-10782976D01*
X436071Y-10773452D01*
X445595Y-10763929D01*
X445595Y-10782976D01*
X578929Y-10582976D02*
X597976Y-10582976D01*
X617024Y-10592500D01*
X626548Y-10602024D01*
X636071Y-10621071D01*
X645595Y-10659167D01*
X645595Y-10706786D01*
X636071Y-10744881D01*
X626548Y-10763929D01*
X617024Y-10773452D01*
X597976Y-10782976D01*
X578929Y-10782976D01*
X559881Y-10773452D01*
X550357Y-10763929D01*
X540833Y-10744881D01*
X531310Y-10706786D01*
X531310Y-10659167D01*
X540833Y-10621071D01*
X550357Y-10602024D01*
X559881Y-10592500D01*
X578929Y-10582976D01*
X769405Y-10582976D02*
X788452Y-10582976D01*
X807500Y-10592500D01*
X817024Y-10602024D01*
X826548Y-10621071D01*
X836071Y-10659167D01*
X836071Y-10706786D01*
X826548Y-10744881D01*
X817024Y-10763929D01*
X807500Y-10773452D01*
X788452Y-10782976D01*
X769405Y-10782976D01*
X750357Y-10773452D01*
X740833Y-10763929D01*
X731309Y-10744881D01*
X721786Y-10706786D01*
X721786Y-10659167D01*
X731309Y-10621071D01*
X740833Y-10602024D01*
X750357Y-10592500D01*
X769405Y-10582976D01*
X959881Y-10582976D02*
X978928Y-10582976D01*
X997976Y-10592500D01*
X1007500Y-10602024D01*
X1017024Y-10621071D01*
X1026548Y-10659167D01*
X1026548Y-10706786D01*
X1017024Y-10744881D01*
X1007500Y-10763929D01*
X997976Y-10773452D01*
X978928Y-10782976D01*
X959881Y-10782976D01*
X940833Y-10773452D01*
X931309Y-10763929D01*
X921786Y-10744881D01*
X912262Y-10706786D01*
X912262Y-10659167D01*
X921786Y-10621071D01*
X931309Y-10602024D01*
X940833Y-10592500D01*
X959881Y-10582976D01*
X1112262Y-10782976D02*
X1112262Y-10649643D01*
X1112262Y-10668690D02*
X1121786Y-10659167D01*
X1140833Y-10649643D01*
X1169405Y-10649643D01*
X1188452Y-10659167D01*
X1197976Y-10678214D01*
X1197976Y-10782976D01*
X1197976Y-10678214D02*
X1207500Y-10659167D01*
X1226548Y-10649643D01*
X1255119Y-10649643D01*
X1274167Y-10659167D01*
X1283690Y-10678214D01*
X1283690Y-10782976D01*
X1378929Y-10782976D02*
X1378929Y-10649643D01*
X1378929Y-10668690D02*
X1388452Y-10659167D01*
X1407500Y-10649643D01*
X1436071Y-10649643D01*
X1455119Y-10659167D01*
X1464643Y-10678214D01*
X1464643Y-10782976D01*
X1464643Y-10678214D02*
X1474167Y-10659167D01*
X1493214Y-10649643D01*
X1521786Y-10649643D01*
X1540833Y-10659167D01*
X1550357Y-10678214D01*
X1550357Y-10782976D01*
X1940833Y-10573452D02*
X1769405Y-10830595D01*
X2197976Y-10582976D02*
X2217024Y-10582976D01*
X2236071Y-10592500D01*
X2245595Y-10602024D01*
X2255119Y-10621071D01*
X2264643Y-10659167D01*
X2264643Y-10706786D01*
X2255119Y-10744881D01*
X2245595Y-10763929D01*
X2236071Y-10773452D01*
X2217024Y-10782976D01*
X2197976Y-10782976D01*
X2178929Y-10773452D01*
X2169405Y-10763929D01*
X2159881Y-10744881D01*
X2150357Y-10706786D01*
X2150357Y-10659167D01*
X2159881Y-10621071D01*
X2169405Y-10602024D01*
X2178929Y-10592500D01*
X2197976Y-10582976D01*
X2350357Y-10763929D02*
X2359881Y-10773452D01*
X2350357Y-10782976D01*
X2340833Y-10773452D01*
X2350357Y-10763929D01*
X2350357Y-10782976D01*
X2483690Y-10582976D02*
X2502738Y-10582976D01*
X2521786Y-10592500D01*
X2531310Y-10602024D01*
X2540833Y-10621071D01*
X2550357Y-10659167D01*
X2550357Y-10706786D01*
X2540833Y-10744881D01*
X2531310Y-10763929D01*
X2521786Y-10773452D01*
X2502738Y-10782976D01*
X2483690Y-10782976D01*
X2464643Y-10773452D01*
X2455119Y-10763929D01*
X2445595Y-10744881D01*
X2436071Y-10706786D01*
X2436071Y-10659167D01*
X2445595Y-10621071D01*
X2455119Y-10602024D01*
X2464643Y-10592500D01*
X2483690Y-10582976D01*
X2617024Y-10582976D02*
X2740833Y-10582976D01*
X2674167Y-10659167D01*
X2702738Y-10659167D01*
X2721786Y-10668690D01*
X2731310Y-10678214D01*
X2740833Y-10697262D01*
X2740833Y-10744881D01*
X2731310Y-10763929D01*
X2721786Y-10773452D01*
X2702738Y-10782976D01*
X2645595Y-10782976D01*
X2626548Y-10773452D01*
X2617024Y-10763929D01*
X2836071Y-10782976D02*
X2874167Y-10782976D01*
X2893214Y-10773452D01*
X2902738Y-10763929D01*
X2921786Y-10735357D01*
X2931309Y-10697262D01*
X2931309Y-10621071D01*
X2921786Y-10602024D01*
X2912262Y-10592500D01*
X2893214Y-10582976D01*
X2855119Y-10582976D01*
X2836071Y-10592500D01*
X2826548Y-10602024D01*
X2817024Y-10621071D01*
X2817024Y-10668690D01*
X2826548Y-10687738D01*
X2836071Y-10697262D01*
X2855119Y-10706786D01*
X2893214Y-10706786D01*
X2912262Y-10697262D01*
X2921786Y-10687738D01*
X2931309Y-10668690D01*
X3102738Y-10649643D02*
X3102738Y-10782976D01*
X3055119Y-10573452D02*
X3007500Y-10716310D01*
X3131309Y-10716310D01*
X3197976Y-10582976D02*
X3197976Y-10621071D01*
X3274167Y-10582976D02*
X3274167Y-10621071D01*
X3569405Y-10859167D02*
X3559881Y-10849643D01*
X3540833Y-10821071D01*
X3531309Y-10802024D01*
X3521786Y-10773452D01*
X3512262Y-10725833D01*
X3512262Y-10687738D01*
X3521786Y-10640119D01*
X3531309Y-10611548D01*
X3540833Y-10592500D01*
X3559881Y-10563929D01*
X3569405Y-10554405D01*
X3750357Y-10782976D02*
X3636071Y-10782976D01*
X3693214Y-10782976D02*
X3693214Y-10582976D01*
X3674167Y-10611548D01*
X3655119Y-10630595D01*
X3636071Y-10640119D01*
X3921786Y-10582976D02*
X3883690Y-10582976D01*
X3864643Y-10592500D01*
X3855119Y-10602024D01*
X3836071Y-10630595D01*
X3826548Y-10668690D01*
X3826548Y-10744881D01*
X3836071Y-10763929D01*
X3845595Y-10773452D01*
X3864643Y-10782976D01*
X3902738Y-10782976D01*
X3921786Y-10773452D01*
X3931309Y-10763929D01*
X3940833Y-10744881D01*
X3940833Y-10697262D01*
X3931309Y-10678214D01*
X3921786Y-10668690D01*
X3902738Y-10659167D01*
X3864643Y-10659167D01*
X3845595Y-10668690D01*
X3836071Y-10678214D01*
X3826548Y-10697262D01*
X4178928Y-10782976D02*
X4178928Y-10582976D01*
X4264643Y-10782976D02*
X4264643Y-10678214D01*
X4255119Y-10659167D01*
X4236071Y-10649643D01*
X4207500Y-10649643D01*
X4188452Y-10659167D01*
X4178928Y-10668690D01*
X4388452Y-10782976D02*
X4369405Y-10773452D01*
X4359881Y-10763929D01*
X4350357Y-10744881D01*
X4350357Y-10687738D01*
X4359881Y-10668690D01*
X4369405Y-10659167D01*
X4388452Y-10649643D01*
X4417024Y-10649643D01*
X4436071Y-10659167D01*
X4445595Y-10668690D01*
X4455119Y-10687738D01*
X4455119Y-10744881D01*
X4445595Y-10763929D01*
X4436071Y-10773452D01*
X4417024Y-10782976D01*
X4388452Y-10782976D01*
X4569405Y-10782976D02*
X4550357Y-10773452D01*
X4540833Y-10754405D01*
X4540833Y-10582976D01*
X4721786Y-10773452D02*
X4702738Y-10782976D01*
X4664643Y-10782976D01*
X4645595Y-10773452D01*
X4636071Y-10754405D01*
X4636071Y-10678214D01*
X4645595Y-10659167D01*
X4664643Y-10649643D01*
X4702738Y-10649643D01*
X4721786Y-10659167D01*
X4731310Y-10678214D01*
X4731310Y-10697262D01*
X4636071Y-10716310D01*
X4807500Y-10773452D02*
X4826548Y-10782976D01*
X4864643Y-10782976D01*
X4883690Y-10773452D01*
X4893214Y-10754405D01*
X4893214Y-10744881D01*
X4883690Y-10725833D01*
X4864643Y-10716310D01*
X4836071Y-10716310D01*
X4817024Y-10706786D01*
X4807500Y-10687738D01*
X4807500Y-10678214D01*
X4817024Y-10659167D01*
X4836071Y-10649643D01*
X4864643Y-10649643D01*
X4883690Y-10659167D01*
X4959881Y-10859167D02*
X4969405Y-10849643D01*
X4988452Y-10821071D01*
X4997976Y-10802024D01*
X5007500Y-10773452D01*
X5017024Y-10725833D01*
X5017024Y-10687738D01*
X5007500Y-10640119D01*
X4997976Y-10611548D01*
X4988452Y-10592500D01*
X4969405Y-10563929D01*
X4959881Y-10554405D01*
X-202500Y-10856500D02*
X-2500Y-11056500D01*
X-2500Y-10856500D02*
X-202500Y-11056500D01*
X-102500Y-11056500D02*
X-2500Y-10956500D01*
X-102500Y-10856500D01*
X-202500Y-10956500D01*
X-102500Y-11056500D01*
X236071Y-10846976D02*
X359881Y-10846976D01*
X293214Y-10923167D01*
X321786Y-10923167D01*
X340833Y-10932690D01*
X350357Y-10942214D01*
X359881Y-10961262D01*
X359881Y-11008881D01*
X350357Y-11027929D01*
X340833Y-11037452D01*
X321786Y-11046976D01*
X264643Y-11046976D01*
X245595Y-11037452D01*
X236071Y-11027929D01*
X445595Y-11027929D02*
X455119Y-11037452D01*
X445595Y-11046976D01*
X436071Y-11037452D01*
X445595Y-11027929D01*
X445595Y-11046976D01*
X636071Y-10846976D02*
X540833Y-10846976D01*
X531310Y-10942214D01*
X540833Y-10932690D01*
X559881Y-10923167D01*
X607500Y-10923167D01*
X626548Y-10932690D01*
X636071Y-10942214D01*
X645595Y-10961262D01*
X645595Y-11008881D01*
X636071Y-11027929D01*
X626548Y-11037452D01*
X607500Y-11046976D01*
X559881Y-11046976D01*
X540833Y-11037452D01*
X531310Y-11027929D01*
X769405Y-10846976D02*
X788452Y-10846976D01*
X807500Y-10856500D01*
X817024Y-10866024D01*
X826548Y-10885071D01*
X836071Y-10923167D01*
X836071Y-10970786D01*
X826548Y-11008881D01*
X817024Y-11027929D01*
X807500Y-11037452D01*
X788452Y-11046976D01*
X769405Y-11046976D01*
X750357Y-11037452D01*
X740833Y-11027929D01*
X731309Y-11008881D01*
X721786Y-10970786D01*
X721786Y-10923167D01*
X731309Y-10885071D01*
X740833Y-10866024D01*
X750357Y-10856500D01*
X769405Y-10846976D01*
X959881Y-10846976D02*
X978928Y-10846976D01*
X997976Y-10856500D01*
X1007500Y-10866024D01*
X1017024Y-10885071D01*
X1026548Y-10923167D01*
X1026548Y-10970786D01*
X1017024Y-11008881D01*
X1007500Y-11027929D01*
X997976Y-11037452D01*
X978928Y-11046976D01*
X959881Y-11046976D01*
X940833Y-11037452D01*
X931309Y-11027929D01*
X921786Y-11008881D01*
X912262Y-10970786D01*
X912262Y-10923167D01*
X921786Y-10885071D01*
X931309Y-10866024D01*
X940833Y-10856500D01*
X959881Y-10846976D01*
X1112262Y-11046976D02*
X1112262Y-10913643D01*
X1112262Y-10932690D02*
X1121786Y-10923167D01*
X1140833Y-10913643D01*
X1169405Y-10913643D01*
X1188452Y-10923167D01*
X1197976Y-10942214D01*
X1197976Y-11046976D01*
X1197976Y-10942214D02*
X1207500Y-10923167D01*
X1226548Y-10913643D01*
X1255119Y-10913643D01*
X1274167Y-10923167D01*
X1283690Y-10942214D01*
X1283690Y-11046976D01*
X1378929Y-11046976D02*
X1378929Y-10913643D01*
X1378929Y-10932690D02*
X1388452Y-10923167D01*
X1407500Y-10913643D01*
X1436071Y-10913643D01*
X1455119Y-10923167D01*
X1464643Y-10942214D01*
X1464643Y-11046976D01*
X1464643Y-10942214D02*
X1474167Y-10923167D01*
X1493214Y-10913643D01*
X1521786Y-10913643D01*
X1540833Y-10923167D01*
X1550357Y-10942214D01*
X1550357Y-11046976D01*
X1940833Y-10837452D02*
X1769405Y-11094595D01*
X2197976Y-10846976D02*
X2217024Y-10846976D01*
X2236071Y-10856500D01*
X2245595Y-10866024D01*
X2255119Y-10885071D01*
X2264643Y-10923167D01*
X2264643Y-10970786D01*
X2255119Y-11008881D01*
X2245595Y-11027929D01*
X2236071Y-11037452D01*
X2217024Y-11046976D01*
X2197976Y-11046976D01*
X2178929Y-11037452D01*
X2169405Y-11027929D01*
X2159881Y-11008881D01*
X2150357Y-10970786D01*
X2150357Y-10923167D01*
X2159881Y-10885071D01*
X2169405Y-10866024D01*
X2178929Y-10856500D01*
X2197976Y-10846976D01*
X2350357Y-11027929D02*
X2359881Y-11037452D01*
X2350357Y-11046976D01*
X2340833Y-11037452D01*
X2350357Y-11027929D01*
X2350357Y-11046976D01*
X2550357Y-11046976D02*
X2436071Y-11046976D01*
X2493214Y-11046976D02*
X2493214Y-10846976D01*
X2474167Y-10875548D01*
X2455119Y-10894595D01*
X2436071Y-10904119D01*
X2617024Y-10846976D02*
X2740833Y-10846976D01*
X2674167Y-10923167D01*
X2702738Y-10923167D01*
X2721786Y-10932690D01*
X2731310Y-10942214D01*
X2740833Y-10961262D01*
X2740833Y-11008881D01*
X2731310Y-11027929D01*
X2721786Y-11037452D01*
X2702738Y-11046976D01*
X2645595Y-11046976D01*
X2626548Y-11037452D01*
X2617024Y-11027929D01*
X2807500Y-10846976D02*
X2940833Y-10846976D01*
X2855119Y-11046976D01*
X3045595Y-10932690D02*
X3026548Y-10923167D01*
X3017024Y-10913643D01*
X3007500Y-10894595D01*
X3007500Y-10885071D01*
X3017024Y-10866024D01*
X3026548Y-10856500D01*
X3045595Y-10846976D01*
X3083690Y-10846976D01*
X3102738Y-10856500D01*
X3112262Y-10866024D01*
X3121786Y-10885071D01*
X3121786Y-10894595D01*
X3112262Y-10913643D01*
X3102738Y-10923167D01*
X3083690Y-10932690D01*
X3045595Y-10932690D01*
X3026548Y-10942214D01*
X3017024Y-10951738D01*
X3007500Y-10970786D01*
X3007500Y-11008881D01*
X3017024Y-11027929D01*
X3026548Y-11037452D01*
X3045595Y-11046976D01*
X3083690Y-11046976D01*
X3102738Y-11037452D01*
X3112262Y-11027929D01*
X3121786Y-11008881D01*
X3121786Y-10970786D01*
X3112262Y-10951738D01*
X3102738Y-10942214D01*
X3083690Y-10932690D01*
X3197976Y-10846976D02*
X3197976Y-10885071D01*
X3274167Y-10846976D02*
X3274167Y-10885071D01*
X3569405Y-11123167D02*
X3559881Y-11113643D01*
X3540833Y-11085071D01*
X3531309Y-11066024D01*
X3521786Y-11037452D01*
X3512262Y-10989833D01*
X3512262Y-10951738D01*
X3521786Y-10904119D01*
X3531309Y-10875548D01*
X3540833Y-10856500D01*
X3559881Y-10827929D01*
X3569405Y-10818405D01*
X3674167Y-10932690D02*
X3655119Y-10923167D01*
X3645595Y-10913643D01*
X3636071Y-10894595D01*
X3636071Y-10885071D01*
X3645595Y-10866024D01*
X3655119Y-10856500D01*
X3674167Y-10846976D01*
X3712262Y-10846976D01*
X3731309Y-10856500D01*
X3740833Y-10866024D01*
X3750357Y-10885071D01*
X3750357Y-10894595D01*
X3740833Y-10913643D01*
X3731309Y-10923167D01*
X3712262Y-10932690D01*
X3674167Y-10932690D01*
X3655119Y-10942214D01*
X3645595Y-10951738D01*
X3636071Y-10970786D01*
X3636071Y-11008881D01*
X3645595Y-11027929D01*
X3655119Y-11037452D01*
X3674167Y-11046976D01*
X3712262Y-11046976D01*
X3731309Y-11037452D01*
X3740833Y-11027929D01*
X3750357Y-11008881D01*
X3750357Y-10970786D01*
X3740833Y-10951738D01*
X3731309Y-10942214D01*
X3712262Y-10932690D01*
X3988452Y-11046976D02*
X3988452Y-10846976D01*
X4074167Y-11046976D02*
X4074167Y-10942214D01*
X4064643Y-10923167D01*
X4045595Y-10913643D01*
X4017024Y-10913643D01*
X3997976Y-10923167D01*
X3988452Y-10932690D01*
X4197976Y-11046976D02*
X4178928Y-11037452D01*
X4169405Y-11027929D01*
X4159881Y-11008881D01*
X4159881Y-10951738D01*
X4169405Y-10932690D01*
X4178928Y-10923167D01*
X4197976Y-10913643D01*
X4226548Y-10913643D01*
X4245595Y-10923167D01*
X4255119Y-10932690D01*
X4264643Y-10951738D01*
X4264643Y-11008881D01*
X4255119Y-11027929D01*
X4245595Y-11037452D01*
X4226548Y-11046976D01*
X4197976Y-11046976D01*
X4378929Y-11046976D02*
X4359881Y-11037452D01*
X4350357Y-11018405D01*
X4350357Y-10846976D01*
X4531310Y-11037452D02*
X4512262Y-11046976D01*
X4474167Y-11046976D01*
X4455119Y-11037452D01*
X4445595Y-11018405D01*
X4445595Y-10942214D01*
X4455119Y-10923167D01*
X4474167Y-10913643D01*
X4512262Y-10913643D01*
X4531310Y-10923167D01*
X4540833Y-10942214D01*
X4540833Y-10961262D01*
X4445595Y-10980310D01*
X4617024Y-11037452D02*
X4636071Y-11046976D01*
X4674167Y-11046976D01*
X4693214Y-11037452D01*
X4702738Y-11018405D01*
X4702738Y-11008881D01*
X4693214Y-10989833D01*
X4674167Y-10980310D01*
X4645595Y-10980310D01*
X4626548Y-10970786D01*
X4617024Y-10951738D01*
X4617024Y-10942214D01*
X4626548Y-10923167D01*
X4645595Y-10913643D01*
X4674167Y-10913643D01*
X4693214Y-10923167D01*
X4769405Y-11123167D02*
X4778929Y-11113643D01*
X4797976Y-11085071D01*
X4807500Y-11066024D01*
X4817024Y-11037452D01*
X4826548Y-10989833D01*
X4826548Y-10951738D01*
X4817024Y-10904119D01*
X4807500Y-10875548D01*
X4797976Y-10856500D01*
X4778929Y-10827929D01*
X4769405Y-10818405D01*
M02*
