G04 #@! TF.GenerationSoftware,KiCad,Pcbnew,(5.1.6)-1*
G04 #@! TF.CreationDate,2021-11-24T18:58:49-05:00*
G04 #@! TF.ProjectId,payload2020_papa_board,7061796c-6f61-4643-9230-32305f706170,rev?*
G04 #@! TF.SameCoordinates,Original*
G04 #@! TF.FileFunction,Legend,Top*
G04 #@! TF.FilePolarity,Positive*
%FSLAX46Y46*%
G04 Gerber Fmt 4.6, Leading zero omitted, Abs format (unit mm)*
G04 Created by KiCad (PCBNEW (5.1.6)-1) date 2021-11-24 18:58:49*
%MOMM*%
%LPD*%
G01*
G04 APERTURE LIST*
%ADD10C,0.120000*%
%ADD11C,0.150000*%
%ADD12C,0.125000*%
%ADD13C,0.010000*%
%ADD14C,0.100000*%
G04 APERTURE END LIST*
D10*
X114957000Y-149780500D02*
X114957000Y-142351000D01*
D11*
X170713523Y-101175380D02*
X170380190Y-100699190D01*
X170142095Y-101175380D02*
X170142095Y-100175380D01*
X170523047Y-100175380D01*
X170618285Y-100223000D01*
X170665904Y-100270619D01*
X170713523Y-100365857D01*
X170713523Y-100508714D01*
X170665904Y-100603952D01*
X170618285Y-100651571D01*
X170523047Y-100699190D01*
X170142095Y-100699190D01*
X173025428Y-100125380D02*
X173263523Y-101125380D01*
X173454000Y-100411095D01*
X173644476Y-101125380D01*
X173882571Y-100125380D01*
X166750428Y-100651571D02*
X166893285Y-100699190D01*
X166940904Y-100746809D01*
X166988523Y-100842047D01*
X166988523Y-100984904D01*
X166940904Y-101080142D01*
X166893285Y-101127761D01*
X166798047Y-101175380D01*
X166417095Y-101175380D01*
X166417095Y-100175380D01*
X166750428Y-100175380D01*
X166845666Y-100223000D01*
X166893285Y-100270619D01*
X166940904Y-100365857D01*
X166940904Y-100461095D01*
X166893285Y-100556333D01*
X166845666Y-100603952D01*
X166750428Y-100651571D01*
X166417095Y-100651571D01*
D10*
X126806960Y-111734600D02*
X126806960Y-112125760D01*
X126806960Y-110591600D02*
X126806960Y-111119920D01*
X126405640Y-111130080D02*
X127198120Y-111130080D01*
X126806960Y-111719360D02*
X126405640Y-111130080D01*
X127208280Y-111125000D02*
X126806960Y-111719360D01*
X126263400Y-111724440D02*
X126817120Y-111719360D01*
X127355600Y-111724440D02*
X126263400Y-111724440D01*
D12*
X182779000Y-114537952D02*
X182755190Y-114585571D01*
X182755190Y-114657000D01*
X182779000Y-114728428D01*
X182826619Y-114776047D01*
X182874238Y-114799857D01*
X182969476Y-114823666D01*
X183040904Y-114823666D01*
X183136142Y-114799857D01*
X183183761Y-114776047D01*
X183231380Y-114728428D01*
X183255190Y-114657000D01*
X183255190Y-114609380D01*
X183231380Y-114537952D01*
X183207571Y-114514142D01*
X183040904Y-114514142D01*
X183040904Y-114609380D01*
X183255190Y-114299857D02*
X182755190Y-114299857D01*
X183255190Y-114014142D01*
X182755190Y-114014142D01*
X183255190Y-113776047D02*
X182755190Y-113776047D01*
X182755190Y-113657000D01*
X182779000Y-113585571D01*
X182826619Y-113537952D01*
X182874238Y-113514142D01*
X182969476Y-113490333D01*
X183040904Y-113490333D01*
X183136142Y-113514142D01*
X183183761Y-113537952D01*
X183231380Y-113585571D01*
X183255190Y-113657000D01*
X183255190Y-113776047D01*
X176205190Y-112276571D02*
X176181380Y-112300380D01*
X176109952Y-112324190D01*
X176062333Y-112324190D01*
X175990904Y-112300380D01*
X175943285Y-112252761D01*
X175919476Y-112205142D01*
X175895666Y-112109904D01*
X175895666Y-112038476D01*
X175919476Y-111943238D01*
X175943285Y-111895619D01*
X175990904Y-111848000D01*
X176062333Y-111824190D01*
X176109952Y-111824190D01*
X176181380Y-111848000D01*
X176205190Y-111871809D01*
X176395666Y-112181333D02*
X176633761Y-112181333D01*
X176348047Y-112324190D02*
X176514714Y-111824190D01*
X176681380Y-112324190D01*
X176848047Y-112324190D02*
X176848047Y-111824190D01*
X177133761Y-112324190D01*
X177133761Y-111824190D01*
X177609952Y-112324190D02*
X177371857Y-112324190D01*
X177371857Y-111824190D01*
X176095666Y-110176571D02*
X176071857Y-110200380D01*
X176000428Y-110224190D01*
X175952809Y-110224190D01*
X175881380Y-110200380D01*
X175833761Y-110152761D01*
X175809952Y-110105142D01*
X175786142Y-110009904D01*
X175786142Y-109938476D01*
X175809952Y-109843238D01*
X175833761Y-109795619D01*
X175881380Y-109748000D01*
X175952809Y-109724190D01*
X176000428Y-109724190D01*
X176071857Y-109748000D01*
X176095666Y-109771809D01*
X176286142Y-110081333D02*
X176524238Y-110081333D01*
X176238523Y-110224190D02*
X176405190Y-109724190D01*
X176571857Y-110224190D01*
X176738523Y-110224190D02*
X176738523Y-109724190D01*
X177024238Y-110224190D01*
X177024238Y-109724190D01*
X177262333Y-110224190D02*
X177262333Y-109724190D01*
X177262333Y-109962285D02*
X177548047Y-109962285D01*
X177548047Y-110224190D02*
X177548047Y-109724190D01*
X183255190Y-110402523D02*
X183255190Y-110688238D01*
X183255190Y-110545380D02*
X182755190Y-110545380D01*
X182826619Y-110593000D01*
X182874238Y-110640619D01*
X182898047Y-110688238D01*
X182802809Y-110212047D02*
X182779000Y-110188238D01*
X182755190Y-110140619D01*
X182755190Y-110021571D01*
X182779000Y-109973952D01*
X182802809Y-109950142D01*
X182850428Y-109926333D01*
X182898047Y-109926333D01*
X182969476Y-109950142D01*
X183255190Y-110235857D01*
X183255190Y-109926333D01*
X182755190Y-109783476D02*
X183255190Y-109616809D01*
X182755190Y-109450142D01*
X182755190Y-112577380D02*
X182755190Y-112815476D01*
X182993285Y-112839285D01*
X182969476Y-112815476D01*
X182945666Y-112767857D01*
X182945666Y-112648809D01*
X182969476Y-112601190D01*
X182993285Y-112577380D01*
X183040904Y-112553571D01*
X183159952Y-112553571D01*
X183207571Y-112577380D01*
X183231380Y-112601190D01*
X183255190Y-112648809D01*
X183255190Y-112767857D01*
X183231380Y-112815476D01*
X183207571Y-112839285D01*
X183207571Y-112339285D02*
X183231380Y-112315476D01*
X183255190Y-112339285D01*
X183231380Y-112363095D01*
X183207571Y-112339285D01*
X183255190Y-112339285D01*
X182755190Y-112148809D02*
X182755190Y-111839285D01*
X182945666Y-112005952D01*
X182945666Y-111934523D01*
X182969476Y-111886904D01*
X182993285Y-111863095D01*
X183040904Y-111839285D01*
X183159952Y-111839285D01*
X183207571Y-111863095D01*
X183231380Y-111886904D01*
X183255190Y-111934523D01*
X183255190Y-112077380D01*
X183231380Y-112125000D01*
X183207571Y-112148809D01*
X182755190Y-111696428D02*
X183255190Y-111529761D01*
X182755190Y-111363095D01*
X147006380Y-108451571D02*
X146982571Y-108475380D01*
X146911142Y-108499190D01*
X146863523Y-108499190D01*
X146792095Y-108475380D01*
X146744476Y-108427761D01*
X146720666Y-108380142D01*
X146696857Y-108284904D01*
X146696857Y-108213476D01*
X146720666Y-108118238D01*
X146744476Y-108070619D01*
X146792095Y-108023000D01*
X146863523Y-107999190D01*
X146911142Y-107999190D01*
X146982571Y-108023000D01*
X147006380Y-108046809D01*
X147458761Y-108499190D02*
X147220666Y-108499190D01*
X147220666Y-107999190D01*
X147625428Y-108499190D02*
X147625428Y-107999190D01*
X147911142Y-108499190D02*
X147696857Y-108213476D01*
X147911142Y-107999190D02*
X147625428Y-108284904D01*
X144208725Y-108524190D02*
X144208725Y-108024190D01*
X144327773Y-108024190D01*
X144399201Y-108048000D01*
X144446820Y-108095619D01*
X144470630Y-108143238D01*
X144494440Y-108238476D01*
X144494440Y-108309904D01*
X144470630Y-108405142D01*
X144446820Y-108452761D01*
X144399201Y-108500380D01*
X144327773Y-108524190D01*
X144208725Y-108524190D01*
X144684916Y-108381333D02*
X144923011Y-108381333D01*
X144637297Y-108524190D02*
X144803963Y-108024190D01*
X144970630Y-108524190D01*
X145065868Y-108024190D02*
X145351582Y-108024190D01*
X145208725Y-108524190D02*
X145208725Y-108024190D01*
X141884447Y-108073000D02*
X141836828Y-108049190D01*
X141765400Y-108049190D01*
X141693971Y-108073000D01*
X141646352Y-108120619D01*
X141622542Y-108168238D01*
X141598733Y-108263476D01*
X141598733Y-108334904D01*
X141622542Y-108430142D01*
X141646352Y-108477761D01*
X141693971Y-108525380D01*
X141765400Y-108549190D01*
X141813019Y-108549190D01*
X141884447Y-108525380D01*
X141908257Y-108501571D01*
X141908257Y-108334904D01*
X141813019Y-108334904D01*
X142122542Y-108549190D02*
X142122542Y-108049190D01*
X142408257Y-108549190D01*
X142408257Y-108049190D01*
X142646352Y-108549190D02*
X142646352Y-108049190D01*
X142765400Y-108049190D01*
X142836828Y-108073000D01*
X142884447Y-108120619D01*
X142908257Y-108168238D01*
X142932066Y-108263476D01*
X142932066Y-108334904D01*
X142908257Y-108430142D01*
X142884447Y-108477761D01*
X142836828Y-108525380D01*
X142765400Y-108549190D01*
X142646352Y-108549190D01*
X139176619Y-108024190D02*
X138938523Y-108024190D01*
X138914714Y-108262285D01*
X138938523Y-108238476D01*
X138986142Y-108214666D01*
X139105190Y-108214666D01*
X139152809Y-108238476D01*
X139176619Y-108262285D01*
X139200428Y-108309904D01*
X139200428Y-108428952D01*
X139176619Y-108476571D01*
X139152809Y-108500380D01*
X139105190Y-108524190D01*
X138986142Y-108524190D01*
X138938523Y-108500380D01*
X138914714Y-108476571D01*
X139414714Y-108476571D02*
X139438523Y-108500380D01*
X139414714Y-108524190D01*
X139390904Y-108500380D01*
X139414714Y-108476571D01*
X139414714Y-108524190D01*
X139605190Y-108024190D02*
X139914714Y-108024190D01*
X139748047Y-108214666D01*
X139819476Y-108214666D01*
X139867095Y-108238476D01*
X139890904Y-108262285D01*
X139914714Y-108309904D01*
X139914714Y-108428952D01*
X139890904Y-108476571D01*
X139867095Y-108500380D01*
X139819476Y-108524190D01*
X139676619Y-108524190D01*
X139629000Y-108500380D01*
X139605190Y-108476571D01*
X140057571Y-108024190D02*
X140224238Y-108524190D01*
X140390904Y-108024190D01*
X136015904Y-107775500D02*
X136587333Y-107775500D01*
X136134952Y-108524190D02*
X136134952Y-108024190D01*
X136301619Y-108381333D01*
X136468285Y-108024190D01*
X136468285Y-108524190D01*
X136587333Y-107775500D02*
X137087333Y-107775500D01*
X136992095Y-108476571D02*
X136968285Y-108500380D01*
X136896857Y-108524190D01*
X136849238Y-108524190D01*
X136777809Y-108500380D01*
X136730190Y-108452761D01*
X136706380Y-108405142D01*
X136682571Y-108309904D01*
X136682571Y-108238476D01*
X136706380Y-108143238D01*
X136730190Y-108095619D01*
X136777809Y-108048000D01*
X136849238Y-108024190D01*
X136896857Y-108024190D01*
X136968285Y-108048000D01*
X136992095Y-108071809D01*
X137087333Y-107775500D02*
X137492095Y-107775500D01*
X137444476Y-108524190D02*
X137206380Y-108524190D01*
X137206380Y-108024190D01*
X137492095Y-107775500D02*
X137992095Y-107775500D01*
X137896857Y-108524190D02*
X137730190Y-108286095D01*
X137611142Y-108524190D02*
X137611142Y-108024190D01*
X137801619Y-108024190D01*
X137849238Y-108048000D01*
X137873047Y-108071809D01*
X137896857Y-108119428D01*
X137896857Y-108190857D01*
X137873047Y-108238476D01*
X137849238Y-108262285D01*
X137801619Y-108286095D01*
X137611142Y-108286095D01*
X141391070Y-101712531D02*
X141367260Y-101736340D01*
X141295832Y-101760150D01*
X141248213Y-101760150D01*
X141176784Y-101736340D01*
X141129165Y-101688721D01*
X141105356Y-101641102D01*
X141081546Y-101545864D01*
X141081546Y-101474436D01*
X141105356Y-101379198D01*
X141129165Y-101331579D01*
X141176784Y-101283960D01*
X141248213Y-101260150D01*
X141295832Y-101260150D01*
X141367260Y-101283960D01*
X141391070Y-101307769D01*
X141581546Y-101617293D02*
X141819641Y-101617293D01*
X141533927Y-101760150D02*
X141700594Y-101260150D01*
X141867260Y-101760150D01*
X142033927Y-101760150D02*
X142033927Y-101260150D01*
X142319641Y-101760150D01*
X142319641Y-101260150D01*
X142795832Y-101760150D02*
X142557737Y-101760150D01*
X142557737Y-101260150D01*
X138943946Y-101727771D02*
X138920137Y-101751580D01*
X138848708Y-101775390D01*
X138801089Y-101775390D01*
X138729660Y-101751580D01*
X138682041Y-101703961D01*
X138658232Y-101656342D01*
X138634422Y-101561104D01*
X138634422Y-101489676D01*
X138658232Y-101394438D01*
X138682041Y-101346819D01*
X138729660Y-101299200D01*
X138801089Y-101275390D01*
X138848708Y-101275390D01*
X138920137Y-101299200D01*
X138943946Y-101323009D01*
X139134422Y-101632533D02*
X139372518Y-101632533D01*
X139086803Y-101775390D02*
X139253470Y-101275390D01*
X139420137Y-101775390D01*
X139586803Y-101775390D02*
X139586803Y-101275390D01*
X139872518Y-101775390D01*
X139872518Y-101275390D01*
X140110613Y-101775390D02*
X140110613Y-101275390D01*
X140110613Y-101513485D02*
X140396327Y-101513485D01*
X140396327Y-101775390D02*
X140396327Y-101275390D01*
D10*
X135534400Y-106248200D02*
X135915400Y-106629200D01*
X135534400Y-107010200D02*
X135534400Y-106248200D01*
X135153400Y-106629200D02*
X135534400Y-106248200D01*
X135534400Y-107010200D02*
X136931400Y-107010200D01*
X147599400Y-106248200D02*
X147980400Y-106629200D01*
X147218400Y-106629200D02*
X147599400Y-106248200D01*
X147599400Y-106248200D02*
X147218400Y-106629200D01*
X147599400Y-107010200D02*
X147599400Y-106248200D01*
X146202400Y-107010200D02*
X147599400Y-107010200D01*
D11*
X108485085Y-96968428D02*
X108449371Y-97011285D01*
X108342228Y-97054142D01*
X108270800Y-97054142D01*
X108163657Y-97011285D01*
X108092228Y-96925571D01*
X108056514Y-96839857D01*
X108020800Y-96668428D01*
X108020800Y-96539857D01*
X108056514Y-96368428D01*
X108092228Y-96282714D01*
X108163657Y-96197000D01*
X108270800Y-96154142D01*
X108342228Y-96154142D01*
X108449371Y-96197000D01*
X108485085Y-96239857D01*
X108770800Y-96797000D02*
X109127942Y-96797000D01*
X108699371Y-97054142D02*
X108949371Y-96154142D01*
X109199371Y-97054142D01*
X109449371Y-97054142D02*
X109449371Y-96154142D01*
X109877942Y-97054142D01*
X109877942Y-96154142D01*
X110592228Y-97054142D02*
X110235085Y-97054142D01*
X110235085Y-96154142D01*
X108421200Y-94961828D02*
X108385485Y-95004685D01*
X108278342Y-95047542D01*
X108206914Y-95047542D01*
X108099771Y-95004685D01*
X108028342Y-94918971D01*
X107992628Y-94833257D01*
X107956914Y-94661828D01*
X107956914Y-94533257D01*
X107992628Y-94361828D01*
X108028342Y-94276114D01*
X108099771Y-94190400D01*
X108206914Y-94147542D01*
X108278342Y-94147542D01*
X108385485Y-94190400D01*
X108421200Y-94233257D01*
X108706914Y-94790400D02*
X109064057Y-94790400D01*
X108635485Y-95047542D02*
X108885485Y-94147542D01*
X109135485Y-95047542D01*
X109385485Y-95047542D02*
X109385485Y-94147542D01*
X109814057Y-95047542D01*
X109814057Y-94147542D01*
X110171200Y-95047542D02*
X110171200Y-94147542D01*
X110171200Y-94576114D02*
X110599771Y-94576114D01*
X110599771Y-95047542D02*
X110599771Y-94147542D01*
X103898771Y-100032400D02*
X103827342Y-99989542D01*
X103720200Y-99989542D01*
X103613057Y-100032400D01*
X103541628Y-100118114D01*
X103505914Y-100203828D01*
X103470200Y-100375257D01*
X103470200Y-100503828D01*
X103505914Y-100675257D01*
X103541628Y-100760971D01*
X103613057Y-100846685D01*
X103720200Y-100889542D01*
X103791628Y-100889542D01*
X103898771Y-100846685D01*
X103934485Y-100803828D01*
X103934485Y-100503828D01*
X103791628Y-100503828D01*
X104255914Y-100889542D02*
X104255914Y-99989542D01*
X104684485Y-100889542D01*
X104684485Y-99989542D01*
X105041628Y-100889542D02*
X105041628Y-99989542D01*
X105220200Y-99989542D01*
X105327342Y-100032400D01*
X105398771Y-100118114D01*
X105434485Y-100203828D01*
X105470200Y-100375257D01*
X105470200Y-100503828D01*
X105434485Y-100675257D01*
X105398771Y-100760971D01*
X105327342Y-100846685D01*
X105220200Y-100889542D01*
X105041628Y-100889542D01*
X103439257Y-92369542D02*
X103903542Y-92369542D01*
X103653542Y-92712400D01*
X103760685Y-92712400D01*
X103832114Y-92755257D01*
X103867828Y-92798114D01*
X103903542Y-92883828D01*
X103903542Y-93098114D01*
X103867828Y-93183828D01*
X103832114Y-93226685D01*
X103760685Y-93269542D01*
X103546400Y-93269542D01*
X103474971Y-93226685D01*
X103439257Y-93183828D01*
X104224971Y-93183828D02*
X104260685Y-93226685D01*
X104224971Y-93269542D01*
X104189257Y-93226685D01*
X104224971Y-93183828D01*
X104224971Y-93269542D01*
X104510685Y-92369542D02*
X104974971Y-92369542D01*
X104724971Y-92712400D01*
X104832114Y-92712400D01*
X104903542Y-92755257D01*
X104939257Y-92798114D01*
X104974971Y-92883828D01*
X104974971Y-93098114D01*
X104939257Y-93183828D01*
X104903542Y-93226685D01*
X104832114Y-93269542D01*
X104617828Y-93269542D01*
X104546400Y-93226685D01*
X104510685Y-93183828D01*
X105189257Y-92369542D02*
X105439257Y-93269542D01*
X105689257Y-92369542D01*
X102453342Y-97325571D02*
X102453342Y-97682714D01*
X102881914Y-97718428D01*
X102839057Y-97682714D01*
X102796200Y-97611285D01*
X102796200Y-97432714D01*
X102839057Y-97361285D01*
X102881914Y-97325571D01*
X102967628Y-97289857D01*
X103181914Y-97289857D01*
X103267628Y-97325571D01*
X103310485Y-97361285D01*
X103353342Y-97432714D01*
X103353342Y-97611285D01*
X103310485Y-97682714D01*
X103267628Y-97718428D01*
X103267628Y-96968428D02*
X103310485Y-96932714D01*
X103353342Y-96968428D01*
X103310485Y-97004142D01*
X103267628Y-96968428D01*
X103353342Y-96968428D01*
X102453342Y-96682714D02*
X102453342Y-96218428D01*
X102796200Y-96468428D01*
X102796200Y-96361285D01*
X102839057Y-96289857D01*
X102881914Y-96254142D01*
X102967628Y-96218428D01*
X103181914Y-96218428D01*
X103267628Y-96254142D01*
X103310485Y-96289857D01*
X103353342Y-96361285D01*
X103353342Y-96575571D01*
X103310485Y-96647000D01*
X103267628Y-96682714D01*
X102453342Y-96004142D02*
X103353342Y-95754142D01*
X102453342Y-95504142D01*
D12*
X141127219Y-124186190D02*
X140889123Y-124186190D01*
X140865314Y-124424285D01*
X140889123Y-124400476D01*
X140936742Y-124376666D01*
X141055790Y-124376666D01*
X141103409Y-124400476D01*
X141127219Y-124424285D01*
X141151028Y-124471904D01*
X141151028Y-124590952D01*
X141127219Y-124638571D01*
X141103409Y-124662380D01*
X141055790Y-124686190D01*
X140936742Y-124686190D01*
X140889123Y-124662380D01*
X140865314Y-124638571D01*
X141365314Y-124638571D02*
X141389123Y-124662380D01*
X141365314Y-124686190D01*
X141341504Y-124662380D01*
X141365314Y-124638571D01*
X141365314Y-124686190D01*
X141555790Y-124186190D02*
X141865314Y-124186190D01*
X141698647Y-124376666D01*
X141770076Y-124376666D01*
X141817695Y-124400476D01*
X141841504Y-124424285D01*
X141865314Y-124471904D01*
X141865314Y-124590952D01*
X141841504Y-124638571D01*
X141817695Y-124662380D01*
X141770076Y-124686190D01*
X141627219Y-124686190D01*
X141579600Y-124662380D01*
X141555790Y-124638571D01*
X142008171Y-124186190D02*
X142174838Y-124686190D01*
X142341504Y-124186190D01*
X140808152Y-122154190D02*
X141117676Y-122154190D01*
X140951009Y-122344666D01*
X141022438Y-122344666D01*
X141070057Y-122368476D01*
X141093866Y-122392285D01*
X141117676Y-122439904D01*
X141117676Y-122558952D01*
X141093866Y-122606571D01*
X141070057Y-122630380D01*
X141022438Y-122654190D01*
X140879580Y-122654190D01*
X140831961Y-122630380D01*
X140808152Y-122606571D01*
X141284342Y-122154190D02*
X141617676Y-122154190D01*
X141403390Y-122654190D01*
X141736723Y-122154190D02*
X141903390Y-122654190D01*
X142070057Y-122154190D01*
X148631352Y-122103390D02*
X148940876Y-122103390D01*
X148774209Y-122293866D01*
X148845638Y-122293866D01*
X148893257Y-122317676D01*
X148917066Y-122341485D01*
X148940876Y-122389104D01*
X148940876Y-122508152D01*
X148917066Y-122555771D01*
X148893257Y-122579580D01*
X148845638Y-122603390D01*
X148702780Y-122603390D01*
X148655161Y-122579580D01*
X148631352Y-122555771D01*
X149107542Y-122103390D02*
X149440876Y-122103390D01*
X149226590Y-122603390D01*
X149559923Y-122103390D02*
X149726590Y-122603390D01*
X149893257Y-122103390D01*
X148848819Y-124084590D02*
X148610723Y-124084590D01*
X148586914Y-124322685D01*
X148610723Y-124298876D01*
X148658342Y-124275066D01*
X148777390Y-124275066D01*
X148825009Y-124298876D01*
X148848819Y-124322685D01*
X148872628Y-124370304D01*
X148872628Y-124489352D01*
X148848819Y-124536971D01*
X148825009Y-124560780D01*
X148777390Y-124584590D01*
X148658342Y-124584590D01*
X148610723Y-124560780D01*
X148586914Y-124536971D01*
X149086914Y-124536971D02*
X149110723Y-124560780D01*
X149086914Y-124584590D01*
X149063104Y-124560780D01*
X149086914Y-124536971D01*
X149086914Y-124584590D01*
X149277390Y-124084590D02*
X149586914Y-124084590D01*
X149420247Y-124275066D01*
X149491676Y-124275066D01*
X149539295Y-124298876D01*
X149563104Y-124322685D01*
X149586914Y-124370304D01*
X149586914Y-124489352D01*
X149563104Y-124536971D01*
X149539295Y-124560780D01*
X149491676Y-124584590D01*
X149348819Y-124584590D01*
X149301200Y-124560780D01*
X149277390Y-124536971D01*
X149729771Y-124084590D02*
X149896438Y-124584590D01*
X150063104Y-124084590D01*
D10*
X149987000Y-110261400D02*
X150596600Y-110769400D01*
X149987000Y-110261400D02*
X150622000Y-109829600D01*
X154178000Y-110261400D02*
X149987000Y-110261400D01*
X154172138Y-111680500D02*
X154178000Y-110261400D01*
X112633760Y-97561400D02*
X130146200Y-97570800D01*
X112633760Y-114538000D02*
X112633760Y-97561400D01*
X131391660Y-122537220D02*
X114652200Y-122513600D01*
X131390800Y-101076000D02*
X131391660Y-122537220D01*
X114957000Y-141119100D02*
X114957000Y-134602220D01*
X125775720Y-134627620D02*
X114957000Y-134602220D01*
X125775720Y-149804120D02*
X125775720Y-134627620D01*
D11*
X163144409Y-75094933D02*
X164096790Y-75094933D01*
X162953933Y-75666361D02*
X163620600Y-73666361D01*
X164287266Y-75666361D01*
X164953933Y-75666361D02*
X164953933Y-73666361D01*
X165430123Y-73666361D01*
X165715838Y-73761600D01*
X165906314Y-73952076D01*
X166001552Y-74142552D01*
X166096790Y-74523504D01*
X166096790Y-74809219D01*
X166001552Y-75190171D01*
X165906314Y-75380647D01*
X165715838Y-75571123D01*
X165430123Y-75666361D01*
X164953933Y-75666361D01*
X166858695Y-75094933D02*
X167811076Y-75094933D01*
X166668219Y-75666361D02*
X167334885Y-73666361D01*
X168001552Y-75666361D01*
X168668219Y-75666361D02*
X168668219Y-73666361D01*
X169334885Y-75094933D01*
X170001552Y-73666361D01*
X170001552Y-75666361D01*
X163058857Y-77408019D02*
X163106476Y-77360400D01*
X163201714Y-77312780D01*
X163439809Y-77312780D01*
X163535047Y-77360400D01*
X163582666Y-77408019D01*
X163630285Y-77503257D01*
X163630285Y-77598495D01*
X163582666Y-77741352D01*
X163011238Y-78312780D01*
X163630285Y-78312780D01*
X164249333Y-77312780D02*
X164344571Y-77312780D01*
X164439809Y-77360400D01*
X164487428Y-77408019D01*
X164535047Y-77503257D01*
X164582666Y-77693733D01*
X164582666Y-77931828D01*
X164535047Y-78122304D01*
X164487428Y-78217542D01*
X164439809Y-78265161D01*
X164344571Y-78312780D01*
X164249333Y-78312780D01*
X164154095Y-78265161D01*
X164106476Y-78217542D01*
X164058857Y-78122304D01*
X164011238Y-77931828D01*
X164011238Y-77693733D01*
X164058857Y-77503257D01*
X164106476Y-77408019D01*
X164154095Y-77360400D01*
X164249333Y-77312780D01*
X164963619Y-77408019D02*
X165011238Y-77360400D01*
X165106476Y-77312780D01*
X165344571Y-77312780D01*
X165439809Y-77360400D01*
X165487428Y-77408019D01*
X165535047Y-77503257D01*
X165535047Y-77598495D01*
X165487428Y-77741352D01*
X164916000Y-78312780D01*
X165535047Y-78312780D01*
X166487428Y-78312780D02*
X165916000Y-78312780D01*
X166201714Y-78312780D02*
X166201714Y-77312780D01*
X166106476Y-77455638D01*
X166011238Y-77550876D01*
X165916000Y-77598495D01*
X166916000Y-77931828D02*
X167677904Y-77931828D01*
X168344571Y-77312780D02*
X168439809Y-77312780D01*
X168535047Y-77360400D01*
X168582666Y-77408019D01*
X168630285Y-77503257D01*
X168677904Y-77693733D01*
X168677904Y-77931828D01*
X168630285Y-78122304D01*
X168582666Y-78217542D01*
X168535047Y-78265161D01*
X168439809Y-78312780D01*
X168344571Y-78312780D01*
X168249333Y-78265161D01*
X168201714Y-78217542D01*
X168154095Y-78122304D01*
X168106476Y-77931828D01*
X168106476Y-77693733D01*
X168154095Y-77503257D01*
X168201714Y-77408019D01*
X168249333Y-77360400D01*
X168344571Y-77312780D01*
X169011238Y-77312780D02*
X169677904Y-77312780D01*
X169249333Y-78312780D01*
X170058857Y-77931828D02*
X170820761Y-77931828D01*
X171820761Y-78312780D02*
X171249333Y-78312780D01*
X171535047Y-78312780D02*
X171535047Y-77312780D01*
X171439809Y-77455638D01*
X171344571Y-77550876D01*
X171249333Y-77598495D01*
X172725523Y-77312780D02*
X172249333Y-77312780D01*
X172201714Y-77788971D01*
X172249333Y-77741352D01*
X172344571Y-77693733D01*
X172582666Y-77693733D01*
X172677904Y-77741352D01*
X172725523Y-77788971D01*
X172773142Y-77884209D01*
X172773142Y-78122304D01*
X172725523Y-78217542D01*
X172677904Y-78265161D01*
X172582666Y-78312780D01*
X172344571Y-78312780D01*
X172249333Y-78265161D01*
X172201714Y-78217542D01*
X163569752Y-76941180D02*
X163236419Y-76464990D01*
X162998323Y-76941180D02*
X162998323Y-75941180D01*
X163379276Y-75941180D01*
X163474514Y-75988800D01*
X163522133Y-76036419D01*
X163569752Y-76131657D01*
X163569752Y-76274514D01*
X163522133Y-76369752D01*
X163474514Y-76417371D01*
X163379276Y-76464990D01*
X162998323Y-76464990D01*
X163998323Y-76845942D02*
X164045942Y-76893561D01*
X163998323Y-76941180D01*
X163950704Y-76893561D01*
X163998323Y-76845942D01*
X163998323Y-76941180D01*
X165236419Y-76941180D02*
X165236419Y-75941180D01*
X165474514Y-75941180D01*
X165617371Y-75988800D01*
X165712609Y-76084038D01*
X165760228Y-76179276D01*
X165807847Y-76369752D01*
X165807847Y-76512609D01*
X165760228Y-76703085D01*
X165712609Y-76798323D01*
X165617371Y-76893561D01*
X165474514Y-76941180D01*
X165236419Y-76941180D01*
X166664990Y-76941180D02*
X166664990Y-76417371D01*
X166617371Y-76322133D01*
X166522133Y-76274514D01*
X166331657Y-76274514D01*
X166236419Y-76322133D01*
X166664990Y-76893561D02*
X166569752Y-76941180D01*
X166331657Y-76941180D01*
X166236419Y-76893561D01*
X166188800Y-76798323D01*
X166188800Y-76703085D01*
X166236419Y-76607847D01*
X166331657Y-76560228D01*
X166569752Y-76560228D01*
X166664990Y-76512609D01*
X167141180Y-76941180D02*
X167141180Y-75941180D01*
X167236419Y-76560228D02*
X167522133Y-76941180D01*
X167522133Y-76274514D02*
X167141180Y-76655466D01*
X167950704Y-76941180D02*
X167950704Y-75941180D01*
X168379276Y-76941180D02*
X168379276Y-76417371D01*
X168331657Y-76322133D01*
X168236419Y-76274514D01*
X168093561Y-76274514D01*
X167998323Y-76322133D01*
X167950704Y-76369752D01*
X168855466Y-76941180D02*
X168855466Y-76274514D01*
X168855466Y-75941180D02*
X168807847Y-75988800D01*
X168855466Y-76036419D01*
X168903085Y-75988800D01*
X168855466Y-75941180D01*
X168855466Y-76036419D01*
X169474514Y-76941180D02*
X169379276Y-76893561D01*
X169331657Y-76798323D01*
X169331657Y-75941180D01*
X119889211Y-144978811D02*
X120032068Y-145026430D01*
X120079687Y-145074049D01*
X120127306Y-145169287D01*
X120127306Y-145312144D01*
X120079687Y-145407382D01*
X120032068Y-145455001D01*
X119936830Y-145502620D01*
X119555878Y-145502620D01*
X119555878Y-144502620D01*
X119889211Y-144502620D01*
X119984449Y-144550240D01*
X120032068Y-144597859D01*
X120079687Y-144693097D01*
X120079687Y-144788335D01*
X120032068Y-144883573D01*
X119984449Y-144931192D01*
X119889211Y-144978811D01*
X119555878Y-144978811D01*
X120984449Y-145502620D02*
X120984449Y-144978811D01*
X120936830Y-144883573D01*
X120841592Y-144835954D01*
X120651116Y-144835954D01*
X120555878Y-144883573D01*
X120984449Y-145455001D02*
X120889211Y-145502620D01*
X120651116Y-145502620D01*
X120555878Y-145455001D01*
X120508259Y-145359763D01*
X120508259Y-145264525D01*
X120555878Y-145169287D01*
X120651116Y-145121668D01*
X120889211Y-145121668D01*
X120984449Y-145074049D01*
X121317782Y-144835954D02*
X121698735Y-144835954D01*
X121460640Y-144502620D02*
X121460640Y-145359763D01*
X121508259Y-145455001D01*
X121603497Y-145502620D01*
X121698735Y-145502620D01*
X121889211Y-144835954D02*
X122270163Y-144835954D01*
X122032068Y-144502620D02*
X122032068Y-145359763D01*
X122079687Y-145455001D01*
X122174925Y-145502620D01*
X122270163Y-145502620D01*
X122984449Y-145455001D02*
X122889211Y-145502620D01*
X122698735Y-145502620D01*
X122603497Y-145455001D01*
X122555878Y-145359763D01*
X122555878Y-144978811D01*
X122603497Y-144883573D01*
X122698735Y-144835954D01*
X122889211Y-144835954D01*
X122984449Y-144883573D01*
X123032068Y-144978811D01*
X123032068Y-145074049D01*
X122555878Y-145169287D01*
X123460640Y-145502620D02*
X123460640Y-144835954D01*
X123460640Y-145026430D02*
X123508259Y-144931192D01*
X123555878Y-144883573D01*
X123651116Y-144835954D01*
X123746354Y-144835954D01*
X123984449Y-144835954D02*
X124222544Y-145502620D01*
X124460640Y-144835954D02*
X124222544Y-145502620D01*
X124127306Y-145740716D01*
X124079687Y-145788335D01*
X123984449Y-145835954D01*
X120032068Y-147057382D02*
X119984449Y-147105001D01*
X119841592Y-147152620D01*
X119746354Y-147152620D01*
X119603497Y-147105001D01*
X119508259Y-147009763D01*
X119460640Y-146914525D01*
X119413020Y-146724049D01*
X119413020Y-146581192D01*
X119460640Y-146390716D01*
X119508259Y-146295478D01*
X119603497Y-146200240D01*
X119746354Y-146152620D01*
X119841592Y-146152620D01*
X119984449Y-146200240D01*
X120032068Y-146247859D01*
X120889211Y-146485954D02*
X120889211Y-147152620D01*
X120460640Y-146485954D02*
X120460640Y-147009763D01*
X120508259Y-147105001D01*
X120603497Y-147152620D01*
X120746354Y-147152620D01*
X120841592Y-147105001D01*
X120889211Y-147057382D01*
X121365401Y-147152620D02*
X121365401Y-146485954D01*
X121365401Y-146676430D02*
X121413020Y-146581192D01*
X121460640Y-146533573D01*
X121555878Y-146485954D01*
X121651116Y-146485954D01*
X121984449Y-147152620D02*
X121984449Y-146485954D01*
X121984449Y-146676430D02*
X122032068Y-146581192D01*
X122079687Y-146533573D01*
X122174925Y-146485954D01*
X122270163Y-146485954D01*
X122984449Y-147105001D02*
X122889211Y-147152620D01*
X122698735Y-147152620D01*
X122603497Y-147105001D01*
X122555878Y-147009763D01*
X122555878Y-146628811D01*
X122603497Y-146533573D01*
X122698735Y-146485954D01*
X122889211Y-146485954D01*
X122984449Y-146533573D01*
X123032068Y-146628811D01*
X123032068Y-146724049D01*
X122555878Y-146819287D01*
X123460640Y-146485954D02*
X123460640Y-147152620D01*
X123460640Y-146581192D02*
X123508259Y-146533573D01*
X123603497Y-146485954D01*
X123746354Y-146485954D01*
X123841592Y-146533573D01*
X123889211Y-146628811D01*
X123889211Y-147152620D01*
X124222544Y-146485954D02*
X124603497Y-146485954D01*
X124365401Y-146152620D02*
X124365401Y-147009763D01*
X124413020Y-147105001D01*
X124508259Y-147152620D01*
X124603497Y-147152620D01*
X119246354Y-148755001D02*
X119389211Y-148802620D01*
X119627306Y-148802620D01*
X119722544Y-148755001D01*
X119770163Y-148707382D01*
X119817782Y-148612144D01*
X119817782Y-148516906D01*
X119770163Y-148421668D01*
X119722544Y-148374049D01*
X119627306Y-148326430D01*
X119436830Y-148278811D01*
X119341592Y-148231192D01*
X119293973Y-148183573D01*
X119246354Y-148088335D01*
X119246354Y-147993097D01*
X119293973Y-147897859D01*
X119341592Y-147850240D01*
X119436830Y-147802620D01*
X119674925Y-147802620D01*
X119817782Y-147850240D01*
X120627306Y-148755001D02*
X120532068Y-148802620D01*
X120341592Y-148802620D01*
X120246354Y-148755001D01*
X120198735Y-148659763D01*
X120198735Y-148278811D01*
X120246354Y-148183573D01*
X120341592Y-148135954D01*
X120532068Y-148135954D01*
X120627306Y-148183573D01*
X120674925Y-148278811D01*
X120674925Y-148374049D01*
X120198735Y-148469287D01*
X121103497Y-148135954D02*
X121103497Y-148802620D01*
X121103497Y-148231192D02*
X121151116Y-148183573D01*
X121246354Y-148135954D01*
X121389211Y-148135954D01*
X121484449Y-148183573D01*
X121532068Y-148278811D01*
X121532068Y-148802620D01*
X121960640Y-148755001D02*
X122055878Y-148802620D01*
X122246354Y-148802620D01*
X122341592Y-148755001D01*
X122389211Y-148659763D01*
X122389211Y-148612144D01*
X122341592Y-148516906D01*
X122246354Y-148469287D01*
X122103497Y-148469287D01*
X122008259Y-148421668D01*
X121960640Y-148326430D01*
X121960640Y-148278811D01*
X122008259Y-148183573D01*
X122103497Y-148135954D01*
X122246354Y-148135954D01*
X122341592Y-148183573D01*
X122817782Y-148802620D02*
X122817782Y-148135954D01*
X122817782Y-147802620D02*
X122770163Y-147850240D01*
X122817782Y-147897859D01*
X122865401Y-147850240D01*
X122817782Y-147802620D01*
X122817782Y-147897859D01*
X123293973Y-148135954D02*
X123293973Y-148802620D01*
X123293973Y-148231192D02*
X123341592Y-148183573D01*
X123436830Y-148135954D01*
X123579687Y-148135954D01*
X123674925Y-148183573D01*
X123722544Y-148278811D01*
X123722544Y-148802620D01*
X124627306Y-148135954D02*
X124627306Y-148945478D01*
X124579687Y-149040716D01*
X124532068Y-149088335D01*
X124436830Y-149135954D01*
X124293973Y-149135954D01*
X124198735Y-149088335D01*
X124627306Y-148755001D02*
X124532068Y-148802620D01*
X124341592Y-148802620D01*
X124246354Y-148755001D01*
X124198735Y-148707382D01*
X124151116Y-148612144D01*
X124151116Y-148326430D01*
X124198735Y-148231192D01*
X124246354Y-148183573D01*
X124341592Y-148135954D01*
X124532068Y-148135954D01*
X124627306Y-148183573D01*
X138106590Y-107462580D02*
X137773257Y-106986390D01*
X137535161Y-107462580D02*
X137535161Y-106462580D01*
X137916114Y-106462580D01*
X138011352Y-106510200D01*
X138058971Y-106557819D01*
X138106590Y-106653057D01*
X138106590Y-106795914D01*
X138058971Y-106891152D01*
X138011352Y-106938771D01*
X137916114Y-106986390D01*
X137535161Y-106986390D01*
X138678019Y-107462580D02*
X138582780Y-107414961D01*
X138535161Y-107367342D01*
X138487542Y-107272104D01*
X138487542Y-106986390D01*
X138535161Y-106891152D01*
X138582780Y-106843533D01*
X138678019Y-106795914D01*
X138820876Y-106795914D01*
X138916114Y-106843533D01*
X138963733Y-106891152D01*
X139011352Y-106986390D01*
X139011352Y-107272104D01*
X138963733Y-107367342D01*
X138916114Y-107414961D01*
X138820876Y-107462580D01*
X138678019Y-107462580D01*
X139868495Y-107414961D02*
X139773257Y-107462580D01*
X139582780Y-107462580D01*
X139487542Y-107414961D01*
X139439923Y-107367342D01*
X139392304Y-107272104D01*
X139392304Y-106986390D01*
X139439923Y-106891152D01*
X139487542Y-106843533D01*
X139582780Y-106795914D01*
X139773257Y-106795914D01*
X139868495Y-106843533D01*
X140297066Y-107462580D02*
X140297066Y-106462580D01*
X140392304Y-107081628D02*
X140678019Y-107462580D01*
X140678019Y-106795914D02*
X140297066Y-107176866D01*
X141487542Y-107414961D02*
X141392304Y-107462580D01*
X141201828Y-107462580D01*
X141106590Y-107414961D01*
X141058971Y-107319723D01*
X141058971Y-106938771D01*
X141106590Y-106843533D01*
X141201828Y-106795914D01*
X141392304Y-106795914D01*
X141487542Y-106843533D01*
X141535161Y-106938771D01*
X141535161Y-107034009D01*
X141058971Y-107129247D01*
X141820876Y-106795914D02*
X142201828Y-106795914D01*
X141963733Y-106462580D02*
X141963733Y-107319723D01*
X142011352Y-107414961D01*
X142106590Y-107462580D01*
X142201828Y-107462580D01*
X143868495Y-107367342D02*
X143820876Y-107414961D01*
X143678019Y-107462580D01*
X143582780Y-107462580D01*
X143439923Y-107414961D01*
X143344685Y-107319723D01*
X143297066Y-107224485D01*
X143249447Y-107034009D01*
X143249447Y-106891152D01*
X143297066Y-106700676D01*
X143344685Y-106605438D01*
X143439923Y-106510200D01*
X143582780Y-106462580D01*
X143678019Y-106462580D01*
X143820876Y-106510200D01*
X143868495Y-106557819D01*
X144249447Y-107176866D02*
X144725638Y-107176866D01*
X144154209Y-107462580D02*
X144487542Y-106462580D01*
X144820876Y-107462580D01*
X145154209Y-107462580D02*
X145154209Y-106462580D01*
X145725638Y-107462580D01*
X145725638Y-106462580D01*
D10*
X144614900Y-68328540D02*
X130939540Y-68318380D01*
X144589500Y-86451440D02*
X130949700Y-86461600D01*
X144589500Y-86443820D02*
X144604740Y-68338700D01*
X130939540Y-68318380D02*
X130962400Y-86461600D01*
D11*
X131158409Y-84942988D02*
X131920314Y-84942988D01*
X131539361Y-85323940D02*
X131539361Y-84562036D01*
X132301266Y-84323940D02*
X132920314Y-84323940D01*
X132586980Y-84704893D01*
X132729838Y-84704893D01*
X132825076Y-84752512D01*
X132872695Y-84800131D01*
X132920314Y-84895369D01*
X132920314Y-85133464D01*
X132872695Y-85228702D01*
X132825076Y-85276321D01*
X132729838Y-85323940D01*
X132444123Y-85323940D01*
X132348885Y-85276321D01*
X132301266Y-85228702D01*
X133348885Y-85228702D02*
X133396504Y-85276321D01*
X133348885Y-85323940D01*
X133301266Y-85276321D01*
X133348885Y-85228702D01*
X133348885Y-85323940D01*
X133729838Y-84323940D02*
X134348885Y-84323940D01*
X134015552Y-84704893D01*
X134158409Y-84704893D01*
X134253647Y-84752512D01*
X134301266Y-84800131D01*
X134348885Y-84895369D01*
X134348885Y-85133464D01*
X134301266Y-85228702D01*
X134253647Y-85276321D01*
X134158409Y-85323940D01*
X133872695Y-85323940D01*
X133777457Y-85276321D01*
X133729838Y-85228702D01*
X134634600Y-84323940D02*
X134967933Y-85323940D01*
X135301266Y-84323940D01*
X136967933Y-85323940D02*
X136634600Y-84847750D01*
X136396504Y-85323940D02*
X136396504Y-84323940D01*
X136777457Y-84323940D01*
X136872695Y-84371560D01*
X136920314Y-84419179D01*
X136967933Y-84514417D01*
X136967933Y-84657274D01*
X136920314Y-84752512D01*
X136872695Y-84800131D01*
X136777457Y-84847750D01*
X136396504Y-84847750D01*
X137777457Y-85276321D02*
X137682219Y-85323940D01*
X137491742Y-85323940D01*
X137396504Y-85276321D01*
X137348885Y-85181083D01*
X137348885Y-84800131D01*
X137396504Y-84704893D01*
X137491742Y-84657274D01*
X137682219Y-84657274D01*
X137777457Y-84704893D01*
X137825076Y-84800131D01*
X137825076Y-84895369D01*
X137348885Y-84990607D01*
X138682219Y-84657274D02*
X138682219Y-85466798D01*
X138634600Y-85562036D01*
X138586980Y-85609655D01*
X138491742Y-85657274D01*
X138348885Y-85657274D01*
X138253647Y-85609655D01*
X138682219Y-85276321D02*
X138586980Y-85323940D01*
X138396504Y-85323940D01*
X138301266Y-85276321D01*
X138253647Y-85228702D01*
X138206028Y-85133464D01*
X138206028Y-84847750D01*
X138253647Y-84752512D01*
X138301266Y-84704893D01*
X138396504Y-84657274D01*
X138586980Y-84657274D01*
X138682219Y-84704893D01*
X139586980Y-84657274D02*
X139586980Y-85323940D01*
X139158409Y-84657274D02*
X139158409Y-85181083D01*
X139206028Y-85276321D01*
X139301266Y-85323940D01*
X139444123Y-85323940D01*
X139539361Y-85276321D01*
X139586980Y-85228702D01*
X140206028Y-85323940D02*
X140110790Y-85276321D01*
X140063171Y-85181083D01*
X140063171Y-84323940D01*
X141015552Y-85323940D02*
X141015552Y-84800131D01*
X140967933Y-84704893D01*
X140872695Y-84657274D01*
X140682219Y-84657274D01*
X140586980Y-84704893D01*
X141015552Y-85276321D02*
X140920314Y-85323940D01*
X140682219Y-85323940D01*
X140586980Y-85276321D01*
X140539361Y-85181083D01*
X140539361Y-85085845D01*
X140586980Y-84990607D01*
X140682219Y-84942988D01*
X140920314Y-84942988D01*
X141015552Y-84895369D01*
X141348885Y-84657274D02*
X141729838Y-84657274D01*
X141491742Y-84323940D02*
X141491742Y-85181083D01*
X141539361Y-85276321D01*
X141634600Y-85323940D01*
X141729838Y-85323940D01*
X142206028Y-85323940D02*
X142110790Y-85276321D01*
X142063171Y-85228702D01*
X142015552Y-85133464D01*
X142015552Y-84847750D01*
X142063171Y-84752512D01*
X142110790Y-84704893D01*
X142206028Y-84657274D01*
X142348885Y-84657274D01*
X142444123Y-84704893D01*
X142491742Y-84752512D01*
X142539361Y-84847750D01*
X142539361Y-85133464D01*
X142491742Y-85228702D01*
X142444123Y-85276321D01*
X142348885Y-85323940D01*
X142206028Y-85323940D01*
X142967933Y-85323940D02*
X142967933Y-84657274D01*
X142967933Y-84847750D02*
X143015552Y-84752512D01*
X143063171Y-84704893D01*
X143158409Y-84657274D01*
X143253647Y-84657274D01*
X175864714Y-117000380D02*
X175864714Y-116000380D01*
X176198047Y-116714666D01*
X176531380Y-116000380D01*
X176531380Y-117000380D01*
X177007571Y-117000380D02*
X177007571Y-116333714D01*
X177007571Y-116000380D02*
X176959952Y-116048000D01*
X177007571Y-116095619D01*
X177055190Y-116048000D01*
X177007571Y-116000380D01*
X177007571Y-116095619D01*
X177483761Y-116333714D02*
X177483761Y-117000380D01*
X177483761Y-116428952D02*
X177531380Y-116381333D01*
X177626619Y-116333714D01*
X177769476Y-116333714D01*
X177864714Y-116381333D01*
X177912333Y-116476571D01*
X177912333Y-117000380D01*
X178388523Y-117000380D02*
X178388523Y-116333714D01*
X178388523Y-116000380D02*
X178340904Y-116048000D01*
X178388523Y-116095619D01*
X178436142Y-116048000D01*
X178388523Y-116000380D01*
X178388523Y-116095619D01*
X178817095Y-116952761D02*
X178912333Y-117000380D01*
X179102809Y-117000380D01*
X179198047Y-116952761D01*
X179245666Y-116857523D01*
X179245666Y-116809904D01*
X179198047Y-116714666D01*
X179102809Y-116667047D01*
X178959952Y-116667047D01*
X178864714Y-116619428D01*
X178817095Y-116524190D01*
X178817095Y-116476571D01*
X178864714Y-116381333D01*
X178959952Y-116333714D01*
X179102809Y-116333714D01*
X179198047Y-116381333D01*
X180055190Y-116952761D02*
X179959952Y-117000380D01*
X179769476Y-117000380D01*
X179674238Y-116952761D01*
X179626619Y-116857523D01*
X179626619Y-116476571D01*
X179674238Y-116381333D01*
X179769476Y-116333714D01*
X179959952Y-116333714D01*
X180055190Y-116381333D01*
X180102809Y-116476571D01*
X180102809Y-116571809D01*
X179626619Y-116667047D01*
X180531380Y-116333714D02*
X180531380Y-117000380D01*
X180531380Y-116428952D02*
X180579000Y-116381333D01*
X180674238Y-116333714D01*
X180817095Y-116333714D01*
X180912333Y-116381333D01*
X180959952Y-116476571D01*
X180959952Y-117000380D01*
X181388523Y-116952761D02*
X181483761Y-117000380D01*
X181674238Y-117000380D01*
X181769476Y-116952761D01*
X181817095Y-116857523D01*
X181817095Y-116809904D01*
X181769476Y-116714666D01*
X181674238Y-116667047D01*
X181531380Y-116667047D01*
X181436142Y-116619428D01*
X181388523Y-116524190D01*
X181388523Y-116476571D01*
X181436142Y-116381333D01*
X181531380Y-116333714D01*
X181674238Y-116333714D01*
X181769476Y-116381333D01*
X182388523Y-117000380D02*
X182293285Y-116952761D01*
X182245666Y-116905142D01*
X182198047Y-116809904D01*
X182198047Y-116524190D01*
X182245666Y-116428952D01*
X182293285Y-116381333D01*
X182388523Y-116333714D01*
X182531380Y-116333714D01*
X182626619Y-116381333D01*
X182674238Y-116428952D01*
X182721857Y-116524190D01*
X182721857Y-116809904D01*
X182674238Y-116905142D01*
X182626619Y-116952761D01*
X182531380Y-117000380D01*
X182388523Y-117000380D01*
X183150428Y-117000380D02*
X183150428Y-116333714D01*
X183150428Y-116524190D02*
X183198047Y-116428952D01*
X183245666Y-116381333D01*
X183340904Y-116333714D01*
X183436142Y-116333714D01*
X158088414Y-93457412D02*
X158088414Y-90957412D01*
X158683652Y-90957412D01*
X159040795Y-91076460D01*
X159278890Y-91314555D01*
X159397938Y-91552650D01*
X159516985Y-92028840D01*
X159516985Y-92385983D01*
X159397938Y-92862174D01*
X159278890Y-93100269D01*
X159040795Y-93338364D01*
X158683652Y-93457412D01*
X158088414Y-93457412D01*
X160588414Y-93457412D02*
X160588414Y-90957412D01*
X162016985Y-93457412D01*
X162016985Y-90957412D01*
X163207461Y-93457412D02*
X163207461Y-90957412D01*
X164159842Y-90957412D01*
X164397938Y-91076460D01*
X164516985Y-91195507D01*
X164636033Y-91433602D01*
X164636033Y-91790745D01*
X164516985Y-92028840D01*
X164397938Y-92147888D01*
X164159842Y-92266936D01*
X163207461Y-92266936D01*
D10*
X157705200Y-80959200D02*
X157704000Y-93873000D01*
X173729000Y-80959200D02*
X157705200Y-80959200D01*
X173729000Y-93873000D02*
X173728140Y-80959200D01*
X157704000Y-93873000D02*
X173729000Y-93873000D01*
D11*
X160222104Y-81894228D02*
X160984009Y-81894228D01*
X160603057Y-82275180D02*
X160603057Y-81513276D01*
X161984009Y-82275180D02*
X161412580Y-82275180D01*
X161698295Y-82275180D02*
X161698295Y-81275180D01*
X161603057Y-81418038D01*
X161507819Y-81513276D01*
X161412580Y-81560895D01*
X162364961Y-81370419D02*
X162412580Y-81322800D01*
X162507819Y-81275180D01*
X162745914Y-81275180D01*
X162841152Y-81322800D01*
X162888771Y-81370419D01*
X162936390Y-81465657D01*
X162936390Y-81560895D01*
X162888771Y-81703752D01*
X162317342Y-82275180D01*
X162936390Y-82275180D01*
X163222104Y-81275180D02*
X163555438Y-82275180D01*
X163888771Y-81275180D01*
X165555438Y-82275180D02*
X165222104Y-81798990D01*
X164984009Y-82275180D02*
X164984009Y-81275180D01*
X165364961Y-81275180D01*
X165460200Y-81322800D01*
X165507819Y-81370419D01*
X165555438Y-81465657D01*
X165555438Y-81608514D01*
X165507819Y-81703752D01*
X165460200Y-81751371D01*
X165364961Y-81798990D01*
X164984009Y-81798990D01*
X166364961Y-82227561D02*
X166269723Y-82275180D01*
X166079247Y-82275180D01*
X165984009Y-82227561D01*
X165936390Y-82132323D01*
X165936390Y-81751371D01*
X165984009Y-81656133D01*
X166079247Y-81608514D01*
X166269723Y-81608514D01*
X166364961Y-81656133D01*
X166412580Y-81751371D01*
X166412580Y-81846609D01*
X165936390Y-81941847D01*
X167269723Y-81608514D02*
X167269723Y-82418038D01*
X167222104Y-82513276D01*
X167174485Y-82560895D01*
X167079247Y-82608514D01*
X166936390Y-82608514D01*
X166841152Y-82560895D01*
X167269723Y-82227561D02*
X167174485Y-82275180D01*
X166984009Y-82275180D01*
X166888771Y-82227561D01*
X166841152Y-82179942D01*
X166793533Y-82084704D01*
X166793533Y-81798990D01*
X166841152Y-81703752D01*
X166888771Y-81656133D01*
X166984009Y-81608514D01*
X167174485Y-81608514D01*
X167269723Y-81656133D01*
X168174485Y-81608514D02*
X168174485Y-82275180D01*
X167745914Y-81608514D02*
X167745914Y-82132323D01*
X167793533Y-82227561D01*
X167888771Y-82275180D01*
X168031628Y-82275180D01*
X168126866Y-82227561D01*
X168174485Y-82179942D01*
X168793533Y-82275180D02*
X168698295Y-82227561D01*
X168650676Y-82132323D01*
X168650676Y-81275180D01*
X169603057Y-82275180D02*
X169603057Y-81751371D01*
X169555438Y-81656133D01*
X169460200Y-81608514D01*
X169269723Y-81608514D01*
X169174485Y-81656133D01*
X169603057Y-82227561D02*
X169507819Y-82275180D01*
X169269723Y-82275180D01*
X169174485Y-82227561D01*
X169126866Y-82132323D01*
X169126866Y-82037085D01*
X169174485Y-81941847D01*
X169269723Y-81894228D01*
X169507819Y-81894228D01*
X169603057Y-81846609D01*
X169936390Y-81608514D02*
X170317342Y-81608514D01*
X170079247Y-81275180D02*
X170079247Y-82132323D01*
X170126866Y-82227561D01*
X170222104Y-82275180D01*
X170317342Y-82275180D01*
X170793533Y-82275180D02*
X170698295Y-82227561D01*
X170650676Y-82179942D01*
X170603057Y-82084704D01*
X170603057Y-81798990D01*
X170650676Y-81703752D01*
X170698295Y-81656133D01*
X170793533Y-81608514D01*
X170936390Y-81608514D01*
X171031628Y-81656133D01*
X171079247Y-81703752D01*
X171126866Y-81798990D01*
X171126866Y-82084704D01*
X171079247Y-82179942D01*
X171031628Y-82227561D01*
X170936390Y-82275180D01*
X170793533Y-82275180D01*
X171555438Y-82275180D02*
X171555438Y-81608514D01*
X171555438Y-81798990D02*
X171603057Y-81703752D01*
X171650676Y-81656133D01*
X171745914Y-81608514D01*
X171841152Y-81608514D01*
D10*
X130108100Y-87982300D02*
X130126740Y-101083620D01*
X143012160Y-87627460D02*
X130438300Y-87614000D01*
X143014700Y-101076000D02*
X143012160Y-87627460D01*
X130126740Y-101083620D02*
X143014700Y-101076000D01*
D11*
X161761604Y-133138680D02*
X161761604Y-132138680D01*
X162094938Y-132852966D01*
X162428271Y-132138680D01*
X162428271Y-133138680D01*
X162904461Y-133138680D02*
X162904461Y-132472014D01*
X162904461Y-132138680D02*
X162856842Y-132186300D01*
X162904461Y-132233919D01*
X162952080Y-132186300D01*
X162904461Y-132138680D01*
X162904461Y-132233919D01*
X163809223Y-133091061D02*
X163713985Y-133138680D01*
X163523509Y-133138680D01*
X163428271Y-133091061D01*
X163380652Y-133043442D01*
X163333033Y-132948204D01*
X163333033Y-132662490D01*
X163380652Y-132567252D01*
X163428271Y-132519633D01*
X163523509Y-132472014D01*
X163713985Y-132472014D01*
X163809223Y-132519633D01*
X164237795Y-133138680D02*
X164237795Y-132472014D01*
X164237795Y-132662490D02*
X164285414Y-132567252D01*
X164333033Y-132519633D01*
X164428271Y-132472014D01*
X164523509Y-132472014D01*
X164999700Y-133138680D02*
X164904461Y-133091061D01*
X164856842Y-133043442D01*
X164809223Y-132948204D01*
X164809223Y-132662490D01*
X164856842Y-132567252D01*
X164904461Y-132519633D01*
X164999700Y-132472014D01*
X165142557Y-132472014D01*
X165237795Y-132519633D01*
X165285414Y-132567252D01*
X165333033Y-132662490D01*
X165333033Y-132948204D01*
X165285414Y-133043442D01*
X165237795Y-133091061D01*
X165142557Y-133138680D01*
X164999700Y-133138680D01*
X165713985Y-133091061D02*
X165856842Y-133138680D01*
X166094938Y-133138680D01*
X166190176Y-133091061D01*
X166237795Y-133043442D01*
X166285414Y-132948204D01*
X166285414Y-132852966D01*
X166237795Y-132757728D01*
X166190176Y-132710109D01*
X166094938Y-132662490D01*
X165904461Y-132614871D01*
X165809223Y-132567252D01*
X165761604Y-132519633D01*
X165713985Y-132424395D01*
X165713985Y-132329157D01*
X165761604Y-132233919D01*
X165809223Y-132186300D01*
X165904461Y-132138680D01*
X166142557Y-132138680D01*
X166285414Y-132186300D01*
X166713985Y-133138680D02*
X166713985Y-132138680D01*
X166952080Y-132138680D01*
X167094938Y-132186300D01*
X167190176Y-132281538D01*
X167237795Y-132376776D01*
X167285414Y-132567252D01*
X167285414Y-132710109D01*
X167237795Y-132900585D01*
X167190176Y-132995823D01*
X167094938Y-133091061D01*
X166952080Y-133138680D01*
X166713985Y-133138680D01*
X132704266Y-98874580D02*
X132228076Y-98874580D01*
X132228076Y-97874580D01*
X133180457Y-98874580D02*
X133085219Y-98826961D01*
X133037600Y-98779342D01*
X132989980Y-98684104D01*
X132989980Y-98398390D01*
X133037600Y-98303152D01*
X133085219Y-98255533D01*
X133180457Y-98207914D01*
X133323314Y-98207914D01*
X133418552Y-98255533D01*
X133466171Y-98303152D01*
X133513790Y-98398390D01*
X133513790Y-98684104D01*
X133466171Y-98779342D01*
X133418552Y-98826961D01*
X133323314Y-98874580D01*
X133180457Y-98874580D01*
X134370933Y-98207914D02*
X134370933Y-99017438D01*
X134323314Y-99112676D01*
X134275695Y-99160295D01*
X134180457Y-99207914D01*
X134037600Y-99207914D01*
X133942361Y-99160295D01*
X134370933Y-98826961D02*
X134275695Y-98874580D01*
X134085219Y-98874580D01*
X133989980Y-98826961D01*
X133942361Y-98779342D01*
X133894742Y-98684104D01*
X133894742Y-98398390D01*
X133942361Y-98303152D01*
X133989980Y-98255533D01*
X134085219Y-98207914D01*
X134275695Y-98207914D01*
X134370933Y-98255533D01*
X135275695Y-98207914D02*
X135275695Y-99017438D01*
X135228076Y-99112676D01*
X135180457Y-99160295D01*
X135085219Y-99207914D01*
X134942361Y-99207914D01*
X134847123Y-99160295D01*
X135275695Y-98826961D02*
X135180457Y-98874580D01*
X134989980Y-98874580D01*
X134894742Y-98826961D01*
X134847123Y-98779342D01*
X134799504Y-98684104D01*
X134799504Y-98398390D01*
X134847123Y-98303152D01*
X134894742Y-98255533D01*
X134989980Y-98207914D01*
X135180457Y-98207914D01*
X135275695Y-98255533D01*
X136132838Y-98826961D02*
X136037600Y-98874580D01*
X135847123Y-98874580D01*
X135751885Y-98826961D01*
X135704266Y-98731723D01*
X135704266Y-98350771D01*
X135751885Y-98255533D01*
X135847123Y-98207914D01*
X136037600Y-98207914D01*
X136132838Y-98255533D01*
X136180457Y-98350771D01*
X136180457Y-98446009D01*
X135704266Y-98541247D01*
X136609028Y-98874580D02*
X136609028Y-98207914D01*
X136609028Y-98398390D02*
X136656647Y-98303152D01*
X136704266Y-98255533D01*
X136799504Y-98207914D01*
X136894742Y-98207914D01*
X138418552Y-98826961D02*
X138323314Y-98874580D01*
X138132838Y-98874580D01*
X138037600Y-98826961D01*
X137989980Y-98779342D01*
X137942361Y-98684104D01*
X137942361Y-98398390D01*
X137989980Y-98303152D01*
X138037600Y-98255533D01*
X138132838Y-98207914D01*
X138323314Y-98207914D01*
X138418552Y-98255533D01*
X139275695Y-98207914D02*
X139275695Y-98874580D01*
X138847123Y-98207914D02*
X138847123Y-98731723D01*
X138894742Y-98826961D01*
X138989980Y-98874580D01*
X139132838Y-98874580D01*
X139228076Y-98826961D01*
X139275695Y-98779342D01*
X139751885Y-98874580D02*
X139751885Y-98207914D01*
X139751885Y-98398390D02*
X139799504Y-98303152D01*
X139847123Y-98255533D01*
X139942361Y-98207914D01*
X140037600Y-98207914D01*
X140370933Y-98874580D02*
X140370933Y-98207914D01*
X140370933Y-98398390D02*
X140418552Y-98303152D01*
X140466171Y-98255533D01*
X140561409Y-98207914D01*
X140656647Y-98207914D01*
X141370933Y-98826961D02*
X141275695Y-98874580D01*
X141085219Y-98874580D01*
X140989980Y-98826961D01*
X140942361Y-98731723D01*
X140942361Y-98350771D01*
X140989980Y-98255533D01*
X141085219Y-98207914D01*
X141275695Y-98207914D01*
X141370933Y-98255533D01*
X141418552Y-98350771D01*
X141418552Y-98446009D01*
X140942361Y-98541247D01*
X141847123Y-98207914D02*
X141847123Y-98874580D01*
X141847123Y-98303152D02*
X141894742Y-98255533D01*
X141989980Y-98207914D01*
X142132838Y-98207914D01*
X142228076Y-98255533D01*
X142275695Y-98350771D01*
X142275695Y-98874580D01*
X142609028Y-98207914D02*
X142989980Y-98207914D01*
X142751885Y-97874580D02*
X142751885Y-98731723D01*
X142799504Y-98826961D01*
X142894742Y-98874580D01*
X142989980Y-98874580D01*
X134894742Y-100476961D02*
X134989980Y-100524580D01*
X135180457Y-100524580D01*
X135275695Y-100476961D01*
X135323314Y-100381723D01*
X135323314Y-100334104D01*
X135275695Y-100238866D01*
X135180457Y-100191247D01*
X135037600Y-100191247D01*
X134942361Y-100143628D01*
X134894742Y-100048390D01*
X134894742Y-100000771D01*
X134942361Y-99905533D01*
X135037600Y-99857914D01*
X135180457Y-99857914D01*
X135275695Y-99905533D01*
X136132838Y-100476961D02*
X136037600Y-100524580D01*
X135847123Y-100524580D01*
X135751885Y-100476961D01*
X135704266Y-100381723D01*
X135704266Y-100000771D01*
X135751885Y-99905533D01*
X135847123Y-99857914D01*
X136037600Y-99857914D01*
X136132838Y-99905533D01*
X136180457Y-100000771D01*
X136180457Y-100096009D01*
X135704266Y-100191247D01*
X136609028Y-99857914D02*
X136609028Y-100524580D01*
X136609028Y-99953152D02*
X136656647Y-99905533D01*
X136751885Y-99857914D01*
X136894742Y-99857914D01*
X136989980Y-99905533D01*
X137037600Y-100000771D01*
X137037600Y-100524580D01*
X137466171Y-100476961D02*
X137561409Y-100524580D01*
X137751885Y-100524580D01*
X137847123Y-100476961D01*
X137894742Y-100381723D01*
X137894742Y-100334104D01*
X137847123Y-100238866D01*
X137751885Y-100191247D01*
X137609028Y-100191247D01*
X137513790Y-100143628D01*
X137466171Y-100048390D01*
X137466171Y-100000771D01*
X137513790Y-99905533D01*
X137609028Y-99857914D01*
X137751885Y-99857914D01*
X137847123Y-99905533D01*
X138323314Y-100524580D02*
X138323314Y-99857914D01*
X138323314Y-99524580D02*
X138275695Y-99572200D01*
X138323314Y-99619819D01*
X138370933Y-99572200D01*
X138323314Y-99524580D01*
X138323314Y-99619819D01*
X138799504Y-99857914D02*
X138799504Y-100524580D01*
X138799504Y-99953152D02*
X138847123Y-99905533D01*
X138942361Y-99857914D01*
X139085219Y-99857914D01*
X139180457Y-99905533D01*
X139228076Y-100000771D01*
X139228076Y-100524580D01*
X140132838Y-99857914D02*
X140132838Y-100667438D01*
X140085219Y-100762676D01*
X140037600Y-100810295D01*
X139942361Y-100857914D01*
X139799504Y-100857914D01*
X139704266Y-100810295D01*
X140132838Y-100476961D02*
X140037600Y-100524580D01*
X139847123Y-100524580D01*
X139751885Y-100476961D01*
X139704266Y-100429342D01*
X139656647Y-100334104D01*
X139656647Y-100048390D01*
X139704266Y-99953152D01*
X139751885Y-99905533D01*
X139847123Y-99857914D01*
X140037600Y-99857914D01*
X140132838Y-99905533D01*
X115165904Y-99080628D02*
X115927809Y-99080628D01*
X115546857Y-99461580D02*
X115546857Y-98699676D01*
X116308761Y-98461580D02*
X116927809Y-98461580D01*
X116594476Y-98842533D01*
X116737333Y-98842533D01*
X116832571Y-98890152D01*
X116880190Y-98937771D01*
X116927809Y-99033009D01*
X116927809Y-99271104D01*
X116880190Y-99366342D01*
X116832571Y-99413961D01*
X116737333Y-99461580D01*
X116451619Y-99461580D01*
X116356380Y-99413961D01*
X116308761Y-99366342D01*
X117261142Y-98461580D02*
X117927809Y-98461580D01*
X117499238Y-99461580D01*
X118165904Y-98461580D02*
X118499238Y-99461580D01*
X118832571Y-98461580D01*
X120499238Y-99461580D02*
X120165904Y-98985390D01*
X119927809Y-99461580D02*
X119927809Y-98461580D01*
X120308761Y-98461580D01*
X120404000Y-98509200D01*
X120451619Y-98556819D01*
X120499238Y-98652057D01*
X120499238Y-98794914D01*
X120451619Y-98890152D01*
X120404000Y-98937771D01*
X120308761Y-98985390D01*
X119927809Y-98985390D01*
X121308761Y-99413961D02*
X121213523Y-99461580D01*
X121023047Y-99461580D01*
X120927809Y-99413961D01*
X120880190Y-99318723D01*
X120880190Y-98937771D01*
X120927809Y-98842533D01*
X121023047Y-98794914D01*
X121213523Y-98794914D01*
X121308761Y-98842533D01*
X121356380Y-98937771D01*
X121356380Y-99033009D01*
X120880190Y-99128247D01*
X122213523Y-98794914D02*
X122213523Y-99604438D01*
X122165904Y-99699676D01*
X122118285Y-99747295D01*
X122023047Y-99794914D01*
X121880190Y-99794914D01*
X121784952Y-99747295D01*
X122213523Y-99413961D02*
X122118285Y-99461580D01*
X121927809Y-99461580D01*
X121832571Y-99413961D01*
X121784952Y-99366342D01*
X121737333Y-99271104D01*
X121737333Y-98985390D01*
X121784952Y-98890152D01*
X121832571Y-98842533D01*
X121927809Y-98794914D01*
X122118285Y-98794914D01*
X122213523Y-98842533D01*
X123118285Y-98794914D02*
X123118285Y-99461580D01*
X122689714Y-98794914D02*
X122689714Y-99318723D01*
X122737333Y-99413961D01*
X122832571Y-99461580D01*
X122975428Y-99461580D01*
X123070666Y-99413961D01*
X123118285Y-99366342D01*
X123737333Y-99461580D02*
X123642095Y-99413961D01*
X123594476Y-99318723D01*
X123594476Y-98461580D01*
X124546857Y-99461580D02*
X124546857Y-98937771D01*
X124499238Y-98842533D01*
X124404000Y-98794914D01*
X124213523Y-98794914D01*
X124118285Y-98842533D01*
X124546857Y-99413961D02*
X124451619Y-99461580D01*
X124213523Y-99461580D01*
X124118285Y-99413961D01*
X124070666Y-99318723D01*
X124070666Y-99223485D01*
X124118285Y-99128247D01*
X124213523Y-99080628D01*
X124451619Y-99080628D01*
X124546857Y-99033009D01*
X124880190Y-98794914D02*
X125261142Y-98794914D01*
X125023047Y-98461580D02*
X125023047Y-99318723D01*
X125070666Y-99413961D01*
X125165904Y-99461580D01*
X125261142Y-99461580D01*
X125737333Y-99461580D02*
X125642095Y-99413961D01*
X125594476Y-99366342D01*
X125546857Y-99271104D01*
X125546857Y-98985390D01*
X125594476Y-98890152D01*
X125642095Y-98842533D01*
X125737333Y-98794914D01*
X125880190Y-98794914D01*
X125975428Y-98842533D01*
X126023047Y-98890152D01*
X126070666Y-98985390D01*
X126070666Y-99271104D01*
X126023047Y-99366342D01*
X125975428Y-99413961D01*
X125880190Y-99461580D01*
X125737333Y-99461580D01*
X126499238Y-99461580D02*
X126499238Y-98794914D01*
X126499238Y-98985390D02*
X126546857Y-98890152D01*
X126594476Y-98842533D01*
X126689714Y-98794914D01*
X126784952Y-98794914D01*
X143656395Y-131968500D02*
X143656395Y-130968500D01*
X143989728Y-131682786D01*
X144323061Y-130968500D01*
X144323061Y-131968500D01*
X145227823Y-131968500D02*
X145227823Y-131444691D01*
X145180204Y-131349453D01*
X145084966Y-131301834D01*
X144894490Y-131301834D01*
X144799252Y-131349453D01*
X145227823Y-131920881D02*
X145132585Y-131968500D01*
X144894490Y-131968500D01*
X144799252Y-131920881D01*
X144751633Y-131825643D01*
X144751633Y-131730405D01*
X144799252Y-131635167D01*
X144894490Y-131587548D01*
X145132585Y-131587548D01*
X145227823Y-131539929D01*
X145704014Y-131968500D02*
X145704014Y-131301834D01*
X145704014Y-131397072D02*
X145751633Y-131349453D01*
X145846871Y-131301834D01*
X145989728Y-131301834D01*
X146084966Y-131349453D01*
X146132585Y-131444691D01*
X146132585Y-131968500D01*
X146132585Y-131444691D02*
X146180204Y-131349453D01*
X146275442Y-131301834D01*
X146418300Y-131301834D01*
X146513538Y-131349453D01*
X146561157Y-131444691D01*
X146561157Y-131968500D01*
X147465919Y-131968500D02*
X147465919Y-131444691D01*
X147418300Y-131349453D01*
X147323061Y-131301834D01*
X147132585Y-131301834D01*
X147037347Y-131349453D01*
X147465919Y-131920881D02*
X147370680Y-131968500D01*
X147132585Y-131968500D01*
X147037347Y-131920881D01*
X146989728Y-131825643D01*
X146989728Y-131730405D01*
X147037347Y-131635167D01*
X147132585Y-131587548D01*
X147370680Y-131587548D01*
X147465919Y-131539929D01*
X148656395Y-131063739D02*
X148704014Y-131016120D01*
X148799252Y-130968500D01*
X149037347Y-130968500D01*
X149132585Y-131016120D01*
X149180204Y-131063739D01*
X149227823Y-131158977D01*
X149227823Y-131254215D01*
X149180204Y-131397072D01*
X148608776Y-131968500D01*
X149227823Y-131968500D01*
X135906855Y-131917700D02*
X135906855Y-130917700D01*
X136240188Y-131631986D01*
X136573521Y-130917700D01*
X136573521Y-131917700D01*
X137478283Y-131917700D02*
X137478283Y-131393891D01*
X137430664Y-131298653D01*
X137335426Y-131251034D01*
X137144950Y-131251034D01*
X137049712Y-131298653D01*
X137478283Y-131870081D02*
X137383045Y-131917700D01*
X137144950Y-131917700D01*
X137049712Y-131870081D01*
X137002093Y-131774843D01*
X137002093Y-131679605D01*
X137049712Y-131584367D01*
X137144950Y-131536748D01*
X137383045Y-131536748D01*
X137478283Y-131489129D01*
X137954474Y-131917700D02*
X137954474Y-131251034D01*
X137954474Y-131346272D02*
X138002093Y-131298653D01*
X138097331Y-131251034D01*
X138240188Y-131251034D01*
X138335426Y-131298653D01*
X138383045Y-131393891D01*
X138383045Y-131917700D01*
X138383045Y-131393891D02*
X138430664Y-131298653D01*
X138525902Y-131251034D01*
X138668760Y-131251034D01*
X138763998Y-131298653D01*
X138811617Y-131393891D01*
X138811617Y-131917700D01*
X139716379Y-131917700D02*
X139716379Y-131393891D01*
X139668760Y-131298653D01*
X139573521Y-131251034D01*
X139383045Y-131251034D01*
X139287807Y-131298653D01*
X139716379Y-131870081D02*
X139621140Y-131917700D01*
X139383045Y-131917700D01*
X139287807Y-131870081D01*
X139240188Y-131774843D01*
X139240188Y-131679605D01*
X139287807Y-131584367D01*
X139383045Y-131536748D01*
X139621140Y-131536748D01*
X139716379Y-131489129D01*
X141478283Y-131917700D02*
X140906855Y-131917700D01*
X141192569Y-131917700D02*
X141192569Y-130917700D01*
X141097331Y-131060558D01*
X141002093Y-131155796D01*
X140906855Y-131203415D01*
X102712571Y-91714580D02*
X102284000Y-91714580D01*
X102284000Y-90714580D01*
X103012571Y-91714580D02*
X103012571Y-91047914D01*
X103012571Y-90714580D02*
X102969714Y-90762200D01*
X103012571Y-90809819D01*
X103055428Y-90762200D01*
X103012571Y-90714580D01*
X103012571Y-90809819D01*
X103355428Y-91047914D02*
X103569714Y-91714580D01*
X103784000Y-91047914D01*
X104469714Y-91666961D02*
X104384000Y-91714580D01*
X104212571Y-91714580D01*
X104126857Y-91666961D01*
X104084000Y-91571723D01*
X104084000Y-91190771D01*
X104126857Y-91095533D01*
X104212571Y-91047914D01*
X104384000Y-91047914D01*
X104469714Y-91095533D01*
X104512571Y-91190771D01*
X104512571Y-91286009D01*
X104084000Y-91381247D01*
X105455428Y-90714580D02*
X105969714Y-90714580D01*
X105712571Y-91714580D02*
X105712571Y-90714580D01*
X106612571Y-91666961D02*
X106526857Y-91714580D01*
X106355428Y-91714580D01*
X106269714Y-91666961D01*
X106226857Y-91571723D01*
X106226857Y-91190771D01*
X106269714Y-91095533D01*
X106355428Y-91047914D01*
X106526857Y-91047914D01*
X106612571Y-91095533D01*
X106655428Y-91190771D01*
X106655428Y-91286009D01*
X106226857Y-91381247D01*
X107169714Y-91714580D02*
X107084000Y-91666961D01*
X107041142Y-91571723D01*
X107041142Y-90714580D01*
X107855428Y-91666961D02*
X107769714Y-91714580D01*
X107598285Y-91714580D01*
X107512571Y-91666961D01*
X107469714Y-91571723D01*
X107469714Y-91190771D01*
X107512571Y-91095533D01*
X107598285Y-91047914D01*
X107769714Y-91047914D01*
X107855428Y-91095533D01*
X107898285Y-91190771D01*
X107898285Y-91286009D01*
X107469714Y-91381247D01*
X108284000Y-91714580D02*
X108284000Y-91047914D01*
X108284000Y-91143152D02*
X108326857Y-91095533D01*
X108412571Y-91047914D01*
X108541142Y-91047914D01*
X108626857Y-91095533D01*
X108669714Y-91190771D01*
X108669714Y-91714580D01*
X108669714Y-91190771D02*
X108712571Y-91095533D01*
X108798285Y-91047914D01*
X108926857Y-91047914D01*
X109012571Y-91095533D01*
X109055428Y-91190771D01*
X109055428Y-91714580D01*
X109826857Y-91666961D02*
X109741142Y-91714580D01*
X109569714Y-91714580D01*
X109484000Y-91666961D01*
X109441142Y-91571723D01*
X109441142Y-91190771D01*
X109484000Y-91095533D01*
X109569714Y-91047914D01*
X109741142Y-91047914D01*
X109826857Y-91095533D01*
X109869714Y-91190771D01*
X109869714Y-91286009D01*
X109441142Y-91381247D01*
X110126857Y-91047914D02*
X110469714Y-91047914D01*
X110255428Y-90714580D02*
X110255428Y-91571723D01*
X110298285Y-91666961D01*
X110384000Y-91714580D01*
X110469714Y-91714580D01*
X110769714Y-91714580D02*
X110769714Y-91047914D01*
X110769714Y-91238390D02*
X110812571Y-91143152D01*
X110855428Y-91095533D01*
X110941142Y-91047914D01*
X111026857Y-91047914D01*
X111241142Y-91047914D02*
X111455428Y-91714580D01*
X111669714Y-91047914D02*
X111455428Y-91714580D01*
X111369714Y-91952676D01*
X111326857Y-92000295D01*
X111241142Y-92047914D01*
X150179823Y-112628180D02*
X150179823Y-111628180D01*
X150560776Y-111628180D01*
X150656014Y-111675800D01*
X150703633Y-111723419D01*
X150751252Y-111818657D01*
X150751252Y-111961514D01*
X150703633Y-112056752D01*
X150656014Y-112104371D01*
X150560776Y-112151990D01*
X150179823Y-112151990D01*
X151179823Y-112628180D02*
X151179823Y-111961514D01*
X151179823Y-112151990D02*
X151227442Y-112056752D01*
X151275061Y-112009133D01*
X151370300Y-111961514D01*
X151465538Y-111961514D01*
X151941728Y-112628180D02*
X151846490Y-112580561D01*
X151798871Y-112532942D01*
X151751252Y-112437704D01*
X151751252Y-112151990D01*
X151798871Y-112056752D01*
X151846490Y-112009133D01*
X151941728Y-111961514D01*
X152084585Y-111961514D01*
X152179823Y-112009133D01*
X152227442Y-112056752D01*
X152275061Y-112151990D01*
X152275061Y-112437704D01*
X152227442Y-112532942D01*
X152179823Y-112580561D01*
X152084585Y-112628180D01*
X151941728Y-112628180D01*
X153132204Y-111961514D02*
X153132204Y-112771038D01*
X153084585Y-112866276D01*
X153036966Y-112913895D01*
X152941728Y-112961514D01*
X152798871Y-112961514D01*
X152703633Y-112913895D01*
X153132204Y-112580561D02*
X153036966Y-112628180D01*
X152846490Y-112628180D01*
X152751252Y-112580561D01*
X152703633Y-112532942D01*
X152656014Y-112437704D01*
X152656014Y-112151990D01*
X152703633Y-112056752D01*
X152751252Y-112009133D01*
X152846490Y-111961514D01*
X153036966Y-111961514D01*
X153132204Y-112009133D01*
X153608395Y-112628180D02*
X153608395Y-111961514D01*
X153608395Y-112151990D02*
X153656014Y-112056752D01*
X153703633Y-112009133D01*
X153798871Y-111961514D01*
X153894109Y-111961514D01*
X154656014Y-112628180D02*
X154656014Y-112104371D01*
X154608395Y-112009133D01*
X154513157Y-111961514D01*
X154322680Y-111961514D01*
X154227442Y-112009133D01*
X154656014Y-112580561D02*
X154560776Y-112628180D01*
X154322680Y-112628180D01*
X154227442Y-112580561D01*
X154179823Y-112485323D01*
X154179823Y-112390085D01*
X154227442Y-112294847D01*
X154322680Y-112247228D01*
X154560776Y-112247228D01*
X154656014Y-112199609D01*
X155132204Y-112628180D02*
X155132204Y-111961514D01*
X155132204Y-112056752D02*
X155179823Y-112009133D01*
X155275061Y-111961514D01*
X155417919Y-111961514D01*
X155513157Y-112009133D01*
X155560776Y-112104371D01*
X155560776Y-112628180D01*
X155560776Y-112104371D02*
X155608395Y-112009133D01*
X155703633Y-111961514D01*
X155846490Y-111961514D01*
X155941728Y-112009133D01*
X155989347Y-112104371D01*
X155989347Y-112628180D01*
X156465538Y-112628180D02*
X156465538Y-111961514D01*
X156465538Y-112056752D02*
X156513157Y-112009133D01*
X156608395Y-111961514D01*
X156751252Y-111961514D01*
X156846490Y-112009133D01*
X156894109Y-112104371D01*
X156894109Y-112628180D01*
X156894109Y-112104371D02*
X156941728Y-112009133D01*
X157036966Y-111961514D01*
X157179823Y-111961514D01*
X157275061Y-112009133D01*
X157322680Y-112104371D01*
X157322680Y-112628180D01*
X157798871Y-112628180D02*
X157798871Y-111961514D01*
X157798871Y-111628180D02*
X157751252Y-111675800D01*
X157798871Y-111723419D01*
X157846490Y-111675800D01*
X157798871Y-111628180D01*
X157798871Y-111723419D01*
X158275061Y-111961514D02*
X158275061Y-112628180D01*
X158275061Y-112056752D02*
X158322680Y-112009133D01*
X158417919Y-111961514D01*
X158560776Y-111961514D01*
X158656014Y-112009133D01*
X158703633Y-112104371D01*
X158703633Y-112628180D01*
X159608395Y-111961514D02*
X159608395Y-112771038D01*
X159560776Y-112866276D01*
X159513157Y-112913895D01*
X159417919Y-112961514D01*
X159275061Y-112961514D01*
X159179823Y-112913895D01*
X159608395Y-112580561D02*
X159513157Y-112628180D01*
X159322680Y-112628180D01*
X159227442Y-112580561D01*
X159179823Y-112532942D01*
X159132204Y-112437704D01*
X159132204Y-112151990D01*
X159179823Y-112056752D01*
X159227442Y-112009133D01*
X159322680Y-111961514D01*
X159513157Y-111961514D01*
X159608395Y-112009133D01*
X160846490Y-112628180D02*
X160846490Y-111628180D01*
X160846490Y-112104371D02*
X161417919Y-112104371D01*
X161417919Y-112628180D02*
X161417919Y-111628180D01*
X162275061Y-112580561D02*
X162179823Y-112628180D01*
X161989347Y-112628180D01*
X161894109Y-112580561D01*
X161846490Y-112485323D01*
X161846490Y-112104371D01*
X161894109Y-112009133D01*
X161989347Y-111961514D01*
X162179823Y-111961514D01*
X162275061Y-112009133D01*
X162322680Y-112104371D01*
X162322680Y-112199609D01*
X161846490Y-112294847D01*
X163179823Y-112628180D02*
X163179823Y-112104371D01*
X163132204Y-112009133D01*
X163036966Y-111961514D01*
X162846490Y-111961514D01*
X162751252Y-112009133D01*
X163179823Y-112580561D02*
X163084585Y-112628180D01*
X162846490Y-112628180D01*
X162751252Y-112580561D01*
X162703633Y-112485323D01*
X162703633Y-112390085D01*
X162751252Y-112294847D01*
X162846490Y-112247228D01*
X163084585Y-112247228D01*
X163179823Y-112199609D01*
X164084585Y-112628180D02*
X164084585Y-111628180D01*
X164084585Y-112580561D02*
X163989347Y-112628180D01*
X163798871Y-112628180D01*
X163703633Y-112580561D01*
X163656014Y-112532942D01*
X163608395Y-112437704D01*
X163608395Y-112151990D01*
X163656014Y-112056752D01*
X163703633Y-112009133D01*
X163798871Y-111961514D01*
X163989347Y-111961514D01*
X164084585Y-112009133D01*
X164941728Y-112580561D02*
X164846490Y-112628180D01*
X164656014Y-112628180D01*
X164560776Y-112580561D01*
X164513157Y-112485323D01*
X164513157Y-112104371D01*
X164560776Y-112009133D01*
X164656014Y-111961514D01*
X164846490Y-111961514D01*
X164941728Y-112009133D01*
X164989347Y-112104371D01*
X164989347Y-112199609D01*
X164513157Y-112294847D01*
X165417919Y-112628180D02*
X165417919Y-111961514D01*
X165417919Y-112151990D02*
X165465538Y-112056752D01*
X165513157Y-112009133D01*
X165608395Y-111961514D01*
X165703633Y-111961514D01*
D10*
X170423348Y-141410000D02*
X170945852Y-141410000D01*
X170423348Y-139990000D02*
X170945852Y-139990000D01*
X170448748Y-137930200D02*
X170971252Y-137930200D01*
X170448748Y-136510200D02*
X170971252Y-136510200D01*
X166596400Y-147780000D02*
X166596400Y-147380000D01*
X166596400Y-144860000D02*
X166596400Y-139080000D01*
X166596400Y-136560000D02*
X166596400Y-133860000D01*
X152776400Y-144860000D02*
X152776400Y-139080000D01*
X152776400Y-147780000D02*
X152776400Y-147380000D01*
X152776400Y-136560000D02*
X152776400Y-133860000D01*
X152776400Y-133860000D02*
X166596400Y-133860000D01*
X166596400Y-147780000D02*
X152776400Y-147780000D01*
X154186400Y-147780000D02*
X154186400Y-148780000D01*
X165186400Y-147780000D02*
X165186400Y-148780000D01*
X164686400Y-149280000D02*
X154686400Y-149280000D01*
X165186400Y-148680000D02*
X164386400Y-148480000D01*
X164386400Y-148480000D02*
X162686400Y-148180000D01*
X162686400Y-148180000D02*
X161886400Y-148080000D01*
X161886400Y-148080000D02*
X160586400Y-147980000D01*
X160586400Y-147980000D02*
X158786400Y-147980000D01*
X158786400Y-147980000D02*
X157486400Y-148080000D01*
X157486400Y-148080000D02*
X155986400Y-148280000D01*
X155986400Y-148280000D02*
X154686400Y-148580000D01*
X154686400Y-148580000D02*
X154186400Y-148680000D01*
X164686400Y-149280000D02*
G75*
G03*
X165186400Y-148780000I0J500000D01*
G01*
X154186400Y-148780000D02*
G75*
G03*
X154686400Y-149280000I500000J0D01*
G01*
X126567424Y-115868280D02*
X125363296Y-115868280D01*
X126567424Y-117688280D02*
X125363296Y-117688280D01*
X130589360Y-95084508D02*
X130589360Y-95607012D01*
X132009360Y-95084508D02*
X132009360Y-95607012D01*
X177564120Y-126509388D02*
X177564120Y-127031892D01*
X178984120Y-126509388D02*
X178984120Y-127031892D01*
X182565000Y-108906000D02*
X182565000Y-109966000D01*
X181505000Y-108906000D02*
X182565000Y-108906000D01*
X178413000Y-108906000D02*
X180473000Y-108906000D01*
X180473000Y-110966000D02*
X180473000Y-108906000D01*
X180473000Y-110966000D02*
X182533000Y-110966000D01*
X182533000Y-110966000D02*
X182533000Y-115026000D01*
X178413000Y-108906000D02*
X178413000Y-115026000D01*
X178413000Y-115026000D02*
X182533000Y-115026000D01*
X103594600Y-93568200D02*
X104654600Y-93568200D01*
X103594600Y-94628200D02*
X103594600Y-93568200D01*
X105654600Y-93568200D02*
X107714600Y-93568200D01*
X105654600Y-95628200D02*
X105654600Y-93568200D01*
X103594600Y-95628200D02*
X105654600Y-95628200D01*
X107714600Y-93568200D02*
X107714600Y-99688200D01*
X103594600Y-95628200D02*
X103594600Y-99688200D01*
X103594600Y-99688200D02*
X107714600Y-99688200D01*
X128934800Y-107822948D02*
X128934800Y-109245452D01*
X130754800Y-107822948D02*
X130754800Y-109245452D01*
X126657552Y-118597000D02*
X125235048Y-118597000D01*
X126657552Y-120417000D02*
X125235048Y-120417000D01*
X134634616Y-91636260D02*
X136088744Y-91636260D01*
X134634616Y-89816260D02*
X136088744Y-89816260D01*
X119498756Y-138705000D02*
X120952884Y-138705000D01*
X119498756Y-136885000D02*
X120952884Y-136885000D01*
X167397100Y-97578936D02*
X167397100Y-98033064D01*
X165927100Y-97578936D02*
X165927100Y-98033064D01*
X137554692Y-71402880D02*
X137032188Y-71402880D01*
X137554692Y-69932880D02*
X137032188Y-69932880D01*
X143559200Y-74727168D02*
X143559200Y-75249672D01*
X142089200Y-74727168D02*
X142089200Y-75249672D01*
X133879540Y-79014240D02*
X135139540Y-79014240D01*
X140699540Y-79014240D02*
X139439540Y-79014240D01*
X133879540Y-75254240D02*
X133879540Y-79014240D01*
X140699540Y-73004240D02*
X140699540Y-79014240D01*
D13*
G36*
X152931993Y-74482939D02*
G01*
X152970666Y-74489799D01*
X153031304Y-74501060D01*
X153111238Y-74516210D01*
X153207798Y-74534742D01*
X153318317Y-74556144D01*
X153440124Y-74579909D01*
X153570551Y-74605526D01*
X153572788Y-74605967D01*
X153733954Y-74637947D01*
X153869550Y-74665363D01*
X153981392Y-74688630D01*
X154071295Y-74708159D01*
X154141078Y-74724365D01*
X154192556Y-74737660D01*
X154227547Y-74748457D01*
X154247865Y-74757169D01*
X154252804Y-74760608D01*
X154277747Y-74787453D01*
X154316052Y-74834311D01*
X154365493Y-74898132D01*
X154423847Y-74975866D01*
X154488888Y-75064463D01*
X154558392Y-75160874D01*
X154630133Y-75262048D01*
X154701888Y-75364937D01*
X154771430Y-75466490D01*
X154815146Y-75531467D01*
X155021683Y-75849668D01*
X155224037Y-76178552D01*
X155419908Y-76513858D01*
X155606997Y-76851325D01*
X155783003Y-77186694D01*
X155945626Y-77515703D01*
X156092568Y-77834092D01*
X156220163Y-78134233D01*
X156252332Y-78216260D01*
X156287299Y-78309875D01*
X156323421Y-78410236D01*
X156359060Y-78512498D01*
X156392573Y-78611817D01*
X156422320Y-78703352D01*
X156446660Y-78782258D01*
X156463952Y-78843691D01*
X156471377Y-78875744D01*
X156479893Y-78909030D01*
X156488840Y-78926689D01*
X156490753Y-78927548D01*
X156504108Y-78917468D01*
X156532744Y-78889284D01*
X156573891Y-78846081D01*
X156624776Y-78790946D01*
X156682631Y-78726962D01*
X156744684Y-78657216D01*
X156808164Y-78584793D01*
X156870302Y-78512778D01*
X156928327Y-78444256D01*
X156970698Y-78393079D01*
X157100462Y-78229280D01*
X157219959Y-78067245D01*
X157333434Y-77900624D01*
X157445135Y-77723069D01*
X157559307Y-77528229D01*
X157612223Y-77433942D01*
X157651626Y-77364513D01*
X157686931Y-77305332D01*
X157715840Y-77260010D01*
X157736055Y-77232158D01*
X157745118Y-77225175D01*
X157755652Y-77241292D01*
X157776285Y-77276695D01*
X157804010Y-77326112D01*
X157834956Y-77382672D01*
X157988777Y-77654432D01*
X158145093Y-77904619D01*
X158308020Y-78139450D01*
X158481674Y-78365139D01*
X158503274Y-78391713D01*
X158556161Y-78455421D01*
X158615368Y-78525080D01*
X158678133Y-78597611D01*
X158741690Y-78669936D01*
X158803278Y-78738977D01*
X158860132Y-78801657D01*
X158909489Y-78854896D01*
X158948584Y-78895618D01*
X158974655Y-78920743D01*
X158984365Y-78927548D01*
X158992857Y-78915361D01*
X159001819Y-78885137D01*
X159003741Y-78875744D01*
X159014571Y-78830851D01*
X159033697Y-78764800D01*
X159059479Y-78682434D01*
X159090276Y-78588597D01*
X159124447Y-78488133D01*
X159160351Y-78385886D01*
X159196346Y-78286697D01*
X159230793Y-78195412D01*
X159254955Y-78134233D01*
X159381584Y-77836402D01*
X159525917Y-77523521D01*
X159685635Y-77199883D01*
X159858423Y-76869779D01*
X160041965Y-76537501D01*
X160233944Y-76207342D01*
X160432044Y-75883592D01*
X160633949Y-75570543D01*
X160658590Y-75533501D01*
X160725355Y-75434644D01*
X160795822Y-75332388D01*
X160867769Y-75229778D01*
X160938976Y-75129859D01*
X161007224Y-75035678D01*
X161070290Y-74950278D01*
X161125956Y-74876707D01*
X161172000Y-74818008D01*
X161206203Y-74777228D01*
X161221706Y-74761158D01*
X161236412Y-74753221D01*
X161266181Y-74743132D01*
X161312713Y-74730504D01*
X161377703Y-74714953D01*
X161462848Y-74696094D01*
X161569847Y-74673541D01*
X161700395Y-74646909D01*
X161856190Y-74615813D01*
X161901722Y-74606816D01*
X162032332Y-74581127D01*
X162154367Y-74557273D01*
X162265162Y-74535763D01*
X162362047Y-74517110D01*
X162442355Y-74501824D01*
X162503418Y-74490415D01*
X162542570Y-74483395D01*
X162557141Y-74481274D01*
X162557163Y-74481286D01*
X162554341Y-74494686D01*
X162545314Y-74532291D01*
X162530783Y-74591342D01*
X162511447Y-74669077D01*
X162488007Y-74762738D01*
X162461164Y-74869563D01*
X162431617Y-74986794D01*
X162400066Y-75111668D01*
X162367213Y-75241427D01*
X162333757Y-75373310D01*
X162300398Y-75504557D01*
X162267837Y-75632407D01*
X162236774Y-75754102D01*
X162207910Y-75866880D01*
X162181944Y-75967981D01*
X162159576Y-76054645D01*
X162141508Y-76124113D01*
X162128439Y-76173623D01*
X162121069Y-76200416D01*
X162120751Y-76201481D01*
X162124130Y-76212082D01*
X162140735Y-76228195D01*
X162172717Y-76251232D01*
X162222230Y-76282607D01*
X162291426Y-76323732D01*
X162382458Y-76376021D01*
X162413530Y-76393633D01*
X162495989Y-76440680D01*
X162569768Y-76483570D01*
X162631588Y-76520331D01*
X162678172Y-76548994D01*
X162706241Y-76567588D01*
X162713175Y-76573799D01*
X162701749Y-76582622D01*
X162668418Y-76605694D01*
X162614605Y-76642075D01*
X162541733Y-76690826D01*
X162451223Y-76751007D01*
X162344499Y-76821680D01*
X162222983Y-76901904D01*
X162088097Y-76990740D01*
X161941263Y-77087249D01*
X161783905Y-77190492D01*
X161617445Y-77299528D01*
X161443304Y-77413419D01*
X161307638Y-77502030D01*
X161128618Y-77619004D01*
X160956200Y-77731882D01*
X160791810Y-77839720D01*
X160636871Y-77941575D01*
X160492805Y-78036504D01*
X160361036Y-78123564D01*
X160242987Y-78201813D01*
X160140081Y-78270307D01*
X160053743Y-78328102D01*
X159985395Y-78374257D01*
X159936460Y-78407828D01*
X159908362Y-78427872D01*
X159901818Y-78433466D01*
X159905833Y-78449370D01*
X159917410Y-78488896D01*
X159935654Y-78549145D01*
X159959673Y-78627218D01*
X159988573Y-78720218D01*
X160021460Y-78825245D01*
X160057441Y-78939400D01*
X160070397Y-78980334D01*
X160106973Y-79096683D01*
X160140381Y-79204715D01*
X160169776Y-79301568D01*
X160194316Y-79384382D01*
X160213157Y-79450297D01*
X160225456Y-79496452D01*
X160230370Y-79519987D01*
X160230179Y-79522362D01*
X160215331Y-79522074D01*
X160174822Y-79518633D01*
X160110623Y-79512262D01*
X160024704Y-79503180D01*
X159919033Y-79491609D01*
X159795582Y-79477769D01*
X159656321Y-79461882D01*
X159503218Y-79444167D01*
X159338245Y-79424847D01*
X159163371Y-79404142D01*
X158980566Y-79382273D01*
X158979329Y-79382124D01*
X157737559Y-79232808D01*
X156521236Y-79379411D01*
X156339641Y-79401254D01*
X156165517Y-79422114D01*
X156000908Y-79441748D01*
X155847855Y-79459919D01*
X155708403Y-79476387D01*
X155584594Y-79490911D01*
X155478470Y-79503251D01*
X155392076Y-79513169D01*
X155327454Y-79520423D01*
X155286647Y-79524775D01*
X155272112Y-79526014D01*
X155246914Y-79521837D01*
X155239312Y-79514463D01*
X155243388Y-79499076D01*
X155255016Y-79460068D01*
X155273296Y-79400338D01*
X155297327Y-79322788D01*
X155326211Y-79230316D01*
X155359046Y-79125824D01*
X155394934Y-79012210D01*
X155406326Y-78976261D01*
X155442985Y-78860287D01*
X155476857Y-78752408D01*
X155507041Y-78655546D01*
X155532635Y-78572627D01*
X155552739Y-78506575D01*
X155566451Y-78460316D01*
X155572870Y-78436773D01*
X155573239Y-78434579D01*
X155561797Y-78425202D01*
X155528446Y-78401590D01*
X155474607Y-78364688D01*
X155401706Y-78315439D01*
X155311165Y-78254787D01*
X155204406Y-78183679D01*
X155082853Y-78103056D01*
X154947929Y-78013865D01*
X154801057Y-77917049D01*
X154643660Y-77813552D01*
X154477162Y-77704319D01*
X154302984Y-77590295D01*
X154167541Y-77501790D01*
X153988549Y-77384835D01*
X153816162Y-77272031D01*
X153651803Y-77164315D01*
X153496895Y-77062627D01*
X153352859Y-76967907D01*
X153221117Y-76881094D01*
X153103092Y-76803127D01*
X153000206Y-76734944D01*
X152913882Y-76677487D01*
X152845541Y-76631692D01*
X152796606Y-76598501D01*
X152768499Y-76578852D01*
X152761943Y-76573559D01*
X152773551Y-76564112D01*
X152806193Y-76543074D01*
X152856589Y-76512414D01*
X152921463Y-76474099D01*
X152997536Y-76430097D01*
X153061588Y-76393633D01*
X153159415Y-76337812D01*
X153234777Y-76293567D01*
X153289826Y-76259486D01*
X153326714Y-76234155D01*
X153347594Y-76216163D01*
X153354620Y-76204095D01*
X153354367Y-76201481D01*
X153347432Y-76176447D01*
X153334747Y-76128491D01*
X153317013Y-76060374D01*
X153294930Y-75974855D01*
X153269198Y-75874697D01*
X153240518Y-75762658D01*
X153209589Y-75641500D01*
X153177112Y-75513983D01*
X153143786Y-75382868D01*
X153110313Y-75250914D01*
X153077392Y-75120882D01*
X153045724Y-74995534D01*
X153016009Y-74877628D01*
X152988946Y-74769926D01*
X152965237Y-74675188D01*
X152945581Y-74596175D01*
X152930679Y-74535647D01*
X152921230Y-74496364D01*
X152917935Y-74481087D01*
X152917954Y-74480987D01*
X152931993Y-74482939D01*
G37*
X152931993Y-74482939D02*
X152970666Y-74489799D01*
X153031304Y-74501060D01*
X153111238Y-74516210D01*
X153207798Y-74534742D01*
X153318317Y-74556144D01*
X153440124Y-74579909D01*
X153570551Y-74605526D01*
X153572788Y-74605967D01*
X153733954Y-74637947D01*
X153869550Y-74665363D01*
X153981392Y-74688630D01*
X154071295Y-74708159D01*
X154141078Y-74724365D01*
X154192556Y-74737660D01*
X154227547Y-74748457D01*
X154247865Y-74757169D01*
X154252804Y-74760608D01*
X154277747Y-74787453D01*
X154316052Y-74834311D01*
X154365493Y-74898132D01*
X154423847Y-74975866D01*
X154488888Y-75064463D01*
X154558392Y-75160874D01*
X154630133Y-75262048D01*
X154701888Y-75364937D01*
X154771430Y-75466490D01*
X154815146Y-75531467D01*
X155021683Y-75849668D01*
X155224037Y-76178552D01*
X155419908Y-76513858D01*
X155606997Y-76851325D01*
X155783003Y-77186694D01*
X155945626Y-77515703D01*
X156092568Y-77834092D01*
X156220163Y-78134233D01*
X156252332Y-78216260D01*
X156287299Y-78309875D01*
X156323421Y-78410236D01*
X156359060Y-78512498D01*
X156392573Y-78611817D01*
X156422320Y-78703352D01*
X156446660Y-78782258D01*
X156463952Y-78843691D01*
X156471377Y-78875744D01*
X156479893Y-78909030D01*
X156488840Y-78926689D01*
X156490753Y-78927548D01*
X156504108Y-78917468D01*
X156532744Y-78889284D01*
X156573891Y-78846081D01*
X156624776Y-78790946D01*
X156682631Y-78726962D01*
X156744684Y-78657216D01*
X156808164Y-78584793D01*
X156870302Y-78512778D01*
X156928327Y-78444256D01*
X156970698Y-78393079D01*
X157100462Y-78229280D01*
X157219959Y-78067245D01*
X157333434Y-77900624D01*
X157445135Y-77723069D01*
X157559307Y-77528229D01*
X157612223Y-77433942D01*
X157651626Y-77364513D01*
X157686931Y-77305332D01*
X157715840Y-77260010D01*
X157736055Y-77232158D01*
X157745118Y-77225175D01*
X157755652Y-77241292D01*
X157776285Y-77276695D01*
X157804010Y-77326112D01*
X157834956Y-77382672D01*
X157988777Y-77654432D01*
X158145093Y-77904619D01*
X158308020Y-78139450D01*
X158481674Y-78365139D01*
X158503274Y-78391713D01*
X158556161Y-78455421D01*
X158615368Y-78525080D01*
X158678133Y-78597611D01*
X158741690Y-78669936D01*
X158803278Y-78738977D01*
X158860132Y-78801657D01*
X158909489Y-78854896D01*
X158948584Y-78895618D01*
X158974655Y-78920743D01*
X158984365Y-78927548D01*
X158992857Y-78915361D01*
X159001819Y-78885137D01*
X159003741Y-78875744D01*
X159014571Y-78830851D01*
X159033697Y-78764800D01*
X159059479Y-78682434D01*
X159090276Y-78588597D01*
X159124447Y-78488133D01*
X159160351Y-78385886D01*
X159196346Y-78286697D01*
X159230793Y-78195412D01*
X159254955Y-78134233D01*
X159381584Y-77836402D01*
X159525917Y-77523521D01*
X159685635Y-77199883D01*
X159858423Y-76869779D01*
X160041965Y-76537501D01*
X160233944Y-76207342D01*
X160432044Y-75883592D01*
X160633949Y-75570543D01*
X160658590Y-75533501D01*
X160725355Y-75434644D01*
X160795822Y-75332388D01*
X160867769Y-75229778D01*
X160938976Y-75129859D01*
X161007224Y-75035678D01*
X161070290Y-74950278D01*
X161125956Y-74876707D01*
X161172000Y-74818008D01*
X161206203Y-74777228D01*
X161221706Y-74761158D01*
X161236412Y-74753221D01*
X161266181Y-74743132D01*
X161312713Y-74730504D01*
X161377703Y-74714953D01*
X161462848Y-74696094D01*
X161569847Y-74673541D01*
X161700395Y-74646909D01*
X161856190Y-74615813D01*
X161901722Y-74606816D01*
X162032332Y-74581127D01*
X162154367Y-74557273D01*
X162265162Y-74535763D01*
X162362047Y-74517110D01*
X162442355Y-74501824D01*
X162503418Y-74490415D01*
X162542570Y-74483395D01*
X162557141Y-74481274D01*
X162557163Y-74481286D01*
X162554341Y-74494686D01*
X162545314Y-74532291D01*
X162530783Y-74591342D01*
X162511447Y-74669077D01*
X162488007Y-74762738D01*
X162461164Y-74869563D01*
X162431617Y-74986794D01*
X162400066Y-75111668D01*
X162367213Y-75241427D01*
X162333757Y-75373310D01*
X162300398Y-75504557D01*
X162267837Y-75632407D01*
X162236774Y-75754102D01*
X162207910Y-75866880D01*
X162181944Y-75967981D01*
X162159576Y-76054645D01*
X162141508Y-76124113D01*
X162128439Y-76173623D01*
X162121069Y-76200416D01*
X162120751Y-76201481D01*
X162124130Y-76212082D01*
X162140735Y-76228195D01*
X162172717Y-76251232D01*
X162222230Y-76282607D01*
X162291426Y-76323732D01*
X162382458Y-76376021D01*
X162413530Y-76393633D01*
X162495989Y-76440680D01*
X162569768Y-76483570D01*
X162631588Y-76520331D01*
X162678172Y-76548994D01*
X162706241Y-76567588D01*
X162713175Y-76573799D01*
X162701749Y-76582622D01*
X162668418Y-76605694D01*
X162614605Y-76642075D01*
X162541733Y-76690826D01*
X162451223Y-76751007D01*
X162344499Y-76821680D01*
X162222983Y-76901904D01*
X162088097Y-76990740D01*
X161941263Y-77087249D01*
X161783905Y-77190492D01*
X161617445Y-77299528D01*
X161443304Y-77413419D01*
X161307638Y-77502030D01*
X161128618Y-77619004D01*
X160956200Y-77731882D01*
X160791810Y-77839720D01*
X160636871Y-77941575D01*
X160492805Y-78036504D01*
X160361036Y-78123564D01*
X160242987Y-78201813D01*
X160140081Y-78270307D01*
X160053743Y-78328102D01*
X159985395Y-78374257D01*
X159936460Y-78407828D01*
X159908362Y-78427872D01*
X159901818Y-78433466D01*
X159905833Y-78449370D01*
X159917410Y-78488896D01*
X159935654Y-78549145D01*
X159959673Y-78627218D01*
X159988573Y-78720218D01*
X160021460Y-78825245D01*
X160057441Y-78939400D01*
X160070397Y-78980334D01*
X160106973Y-79096683D01*
X160140381Y-79204715D01*
X160169776Y-79301568D01*
X160194316Y-79384382D01*
X160213157Y-79450297D01*
X160225456Y-79496452D01*
X160230370Y-79519987D01*
X160230179Y-79522362D01*
X160215331Y-79522074D01*
X160174822Y-79518633D01*
X160110623Y-79512262D01*
X160024704Y-79503180D01*
X159919033Y-79491609D01*
X159795582Y-79477769D01*
X159656321Y-79461882D01*
X159503218Y-79444167D01*
X159338245Y-79424847D01*
X159163371Y-79404142D01*
X158980566Y-79382273D01*
X158979329Y-79382124D01*
X157737559Y-79232808D01*
X156521236Y-79379411D01*
X156339641Y-79401254D01*
X156165517Y-79422114D01*
X156000908Y-79441748D01*
X155847855Y-79459919D01*
X155708403Y-79476387D01*
X155584594Y-79490911D01*
X155478470Y-79503251D01*
X155392076Y-79513169D01*
X155327454Y-79520423D01*
X155286647Y-79524775D01*
X155272112Y-79526014D01*
X155246914Y-79521837D01*
X155239312Y-79514463D01*
X155243388Y-79499076D01*
X155255016Y-79460068D01*
X155273296Y-79400338D01*
X155297327Y-79322788D01*
X155326211Y-79230316D01*
X155359046Y-79125824D01*
X155394934Y-79012210D01*
X155406326Y-78976261D01*
X155442985Y-78860287D01*
X155476857Y-78752408D01*
X155507041Y-78655546D01*
X155532635Y-78572627D01*
X155552739Y-78506575D01*
X155566451Y-78460316D01*
X155572870Y-78436773D01*
X155573239Y-78434579D01*
X155561797Y-78425202D01*
X155528446Y-78401590D01*
X155474607Y-78364688D01*
X155401706Y-78315439D01*
X155311165Y-78254787D01*
X155204406Y-78183679D01*
X155082853Y-78103056D01*
X154947929Y-78013865D01*
X154801057Y-77917049D01*
X154643660Y-77813552D01*
X154477162Y-77704319D01*
X154302984Y-77590295D01*
X154167541Y-77501790D01*
X153988549Y-77384835D01*
X153816162Y-77272031D01*
X153651803Y-77164315D01*
X153496895Y-77062627D01*
X153352859Y-76967907D01*
X153221117Y-76881094D01*
X153103092Y-76803127D01*
X153000206Y-76734944D01*
X152913882Y-76677487D01*
X152845541Y-76631692D01*
X152796606Y-76598501D01*
X152768499Y-76578852D01*
X152761943Y-76573559D01*
X152773551Y-76564112D01*
X152806193Y-76543074D01*
X152856589Y-76512414D01*
X152921463Y-76474099D01*
X152997536Y-76430097D01*
X153061588Y-76393633D01*
X153159415Y-76337812D01*
X153234777Y-76293567D01*
X153289826Y-76259486D01*
X153326714Y-76234155D01*
X153347594Y-76216163D01*
X153354620Y-76204095D01*
X153354367Y-76201481D01*
X153347432Y-76176447D01*
X153334747Y-76128491D01*
X153317013Y-76060374D01*
X153294930Y-75974855D01*
X153269198Y-75874697D01*
X153240518Y-75762658D01*
X153209589Y-75641500D01*
X153177112Y-75513983D01*
X153143786Y-75382868D01*
X153110313Y-75250914D01*
X153077392Y-75120882D01*
X153045724Y-74995534D01*
X153016009Y-74877628D01*
X152988946Y-74769926D01*
X152965237Y-74675188D01*
X152945581Y-74596175D01*
X152930679Y-74535647D01*
X152921230Y-74496364D01*
X152917935Y-74481087D01*
X152917954Y-74480987D01*
X152931993Y-74482939D01*
G36*
X157746428Y-71090810D02*
G01*
X157767631Y-71125138D01*
X157800066Y-71179988D01*
X157842634Y-71253430D01*
X157894234Y-71343537D01*
X157953766Y-71448380D01*
X158020130Y-71566029D01*
X158092226Y-71694556D01*
X158168952Y-71832033D01*
X158235494Y-71951787D01*
X158315338Y-72095733D01*
X158391395Y-72232789D01*
X158462565Y-72360976D01*
X158527747Y-72478311D01*
X158585838Y-72582816D01*
X158635738Y-72672509D01*
X158676345Y-72745410D01*
X158706559Y-72799539D01*
X158725278Y-72832916D01*
X158731267Y-72843394D01*
X158739714Y-72846201D01*
X158759419Y-72842900D01*
X158792426Y-72832702D01*
X158840780Y-72814817D01*
X158906523Y-72788456D01*
X158991702Y-72752831D01*
X159098360Y-72707152D01*
X159212165Y-72657770D01*
X159319058Y-72611519D01*
X159417865Y-72569396D01*
X159505709Y-72532580D01*
X159579713Y-72502250D01*
X159636998Y-72479585D01*
X159674686Y-72465763D01*
X159689901Y-72461964D01*
X159689999Y-72462034D01*
X159689960Y-72476846D01*
X159687390Y-72517416D01*
X159682459Y-72581798D01*
X159675342Y-72668044D01*
X159666210Y-72774209D01*
X159655235Y-72898346D01*
X159642590Y-73038509D01*
X159628448Y-73192751D01*
X159612980Y-73359127D01*
X159596360Y-73535690D01*
X159578759Y-73720493D01*
X159575812Y-73751226D01*
X159558041Y-73937115D01*
X159541164Y-74115027D01*
X159525358Y-74283020D01*
X159510798Y-74439154D01*
X159497663Y-74581488D01*
X159486128Y-74708082D01*
X159476369Y-74816995D01*
X159468565Y-74906285D01*
X159462891Y-74974013D01*
X159459523Y-75018238D01*
X159458640Y-75037019D01*
X159458745Y-75037538D01*
X159469903Y-75029621D01*
X159499975Y-75004773D01*
X159547113Y-74964605D01*
X159609467Y-74910726D01*
X159685191Y-74844745D01*
X159772435Y-74768272D01*
X159869351Y-74682918D01*
X159974090Y-74590291D01*
X160066722Y-74508079D01*
X160176816Y-74410387D01*
X160280799Y-74318446D01*
X160376800Y-74233890D01*
X160462948Y-74158352D01*
X160537369Y-74093465D01*
X160598194Y-74040861D01*
X160643549Y-74002174D01*
X160671564Y-73979035D01*
X160680306Y-73972809D01*
X160684555Y-73975925D01*
X160691084Y-73986816D01*
X160700798Y-74007795D01*
X160714602Y-74041177D01*
X160733401Y-74089276D01*
X160758101Y-74154404D01*
X160789606Y-74238877D01*
X160828822Y-74345007D01*
X160874106Y-74468166D01*
X160915453Y-74580784D01*
X160796852Y-74717604D01*
X160643832Y-74898611D01*
X160483333Y-75096790D01*
X160317607Y-75308920D01*
X160148906Y-75531782D01*
X159979479Y-75762156D01*
X159811579Y-75996821D01*
X159647457Y-76232558D01*
X159489364Y-76466146D01*
X159339552Y-76694366D01*
X159200272Y-76913997D01*
X159073774Y-77121819D01*
X158962311Y-77314613D01*
X158894984Y-77437873D01*
X158819401Y-77580245D01*
X158773489Y-77513515D01*
X158685967Y-77376790D01*
X158595277Y-77217444D01*
X158503599Y-77040174D01*
X158413114Y-76849674D01*
X158326004Y-76650642D01*
X158244449Y-76447774D01*
X158170631Y-76245765D01*
X158134215Y-76137028D01*
X158068549Y-75922960D01*
X158002822Y-75687794D01*
X157938689Y-75438211D01*
X157877809Y-75180896D01*
X157821837Y-74922531D01*
X157778292Y-74701394D01*
X157738858Y-74490527D01*
X157667207Y-74847531D01*
X157588026Y-75219304D01*
X157504614Y-75565580D01*
X157416220Y-75888476D01*
X157322094Y-76190112D01*
X157221485Y-76472606D01*
X157113643Y-76738077D01*
X156997818Y-76988644D01*
X156873260Y-77226427D01*
X156751137Y-77434377D01*
X156717887Y-77487208D01*
X156689463Y-77530711D01*
X156669314Y-77559711D01*
X156661492Y-77568978D01*
X156651161Y-77560278D01*
X156631931Y-77531679D01*
X156607073Y-77488318D01*
X156592525Y-77460697D01*
X156511630Y-77309968D01*
X156414382Y-77141122D01*
X156302758Y-76956990D01*
X156178732Y-76760403D01*
X156044281Y-76554194D01*
X155901381Y-76341193D01*
X155752008Y-76124232D01*
X155598138Y-75906144D01*
X155441747Y-75689758D01*
X155284811Y-75477908D01*
X155129306Y-75273425D01*
X154977208Y-75079139D01*
X154830493Y-74897884D01*
X154691137Y-74732489D01*
X154678266Y-74717604D01*
X154559665Y-74580784D01*
X154601012Y-74468166D01*
X154648408Y-74339271D01*
X154687231Y-74234236D01*
X154718383Y-74150748D01*
X154742769Y-74086495D01*
X154761293Y-74039164D01*
X154774859Y-74006443D01*
X154784371Y-73986020D01*
X154790733Y-73975582D01*
X154794664Y-73972809D01*
X154806844Y-73981801D01*
X154837927Y-74007689D01*
X154886039Y-74048841D01*
X154949310Y-74103626D01*
X155025867Y-74170411D01*
X155113839Y-74247565D01*
X155211355Y-74333455D01*
X155316542Y-74426451D01*
X155408402Y-74507924D01*
X155518327Y-74605381D01*
X155621973Y-74696924D01*
X155717492Y-74780945D01*
X155803036Y-74855835D01*
X155876756Y-74919983D01*
X155936804Y-74971780D01*
X155981332Y-75009618D01*
X156008490Y-75031887D01*
X156016528Y-75037383D01*
X156016049Y-75023018D01*
X156013059Y-74982887D01*
X156007733Y-74918932D01*
X156000250Y-74833093D01*
X155990786Y-74727309D01*
X155979517Y-74603522D01*
X155966621Y-74463672D01*
X155952275Y-74309699D01*
X155936654Y-74143543D01*
X155919937Y-73967146D01*
X155917777Y-73944517D01*
X157231839Y-73944517D01*
X157236925Y-73946002D01*
X157257376Y-73930940D01*
X157288935Y-73902527D01*
X157293019Y-73898611D01*
X157342255Y-73857626D01*
X157403436Y-73815615D01*
X157459203Y-73783857D01*
X157583424Y-73736687D01*
X157709522Y-73716548D01*
X157834746Y-73723020D01*
X157956343Y-73755685D01*
X158071561Y-73814125D01*
X158171504Y-73892106D01*
X158207123Y-73923838D01*
X158232407Y-73943248D01*
X158243183Y-73947247D01*
X158242961Y-73944973D01*
X158237593Y-73928234D01*
X158224693Y-73887302D01*
X158205007Y-73824562D01*
X158179281Y-73742396D01*
X158148259Y-73643191D01*
X158112688Y-73529328D01*
X158073313Y-73403193D01*
X158030880Y-73267169D01*
X157988359Y-73130781D01*
X157943894Y-72988200D01*
X157901915Y-72853742D01*
X157863146Y-72729722D01*
X157828313Y-72618456D01*
X157798142Y-72522256D01*
X157773360Y-72443438D01*
X157754691Y-72384316D01*
X157742862Y-72347205D01*
X157738608Y-72334424D01*
X157734139Y-72346775D01*
X157722130Y-72383420D01*
X157703303Y-72442072D01*
X157678382Y-72520444D01*
X157648089Y-72616248D01*
X157613148Y-72727199D01*
X157574282Y-72851009D01*
X157532214Y-72985391D01*
X157487766Y-73127739D01*
X157443002Y-73271217D01*
X157400581Y-73407064D01*
X157361247Y-73532901D01*
X157325746Y-73646353D01*
X157294823Y-73745042D01*
X157269222Y-73826590D01*
X157249687Y-73888621D01*
X157236965Y-73928757D01*
X157231839Y-73944517D01*
X155917777Y-73944517D01*
X155902300Y-73782447D01*
X155899306Y-73751226D01*
X155881563Y-73565262D01*
X155864775Y-73387220D01*
X155849114Y-73219045D01*
X155834752Y-73062685D01*
X155821862Y-72920086D01*
X155810616Y-72793195D01*
X155801186Y-72683958D01*
X155793744Y-72594322D01*
X155788462Y-72526233D01*
X155785513Y-72481639D01*
X155785069Y-72462484D01*
X155785246Y-72461907D01*
X155799571Y-72465256D01*
X155836475Y-72478663D01*
X155893072Y-72500948D01*
X155966475Y-72530932D01*
X156053797Y-72567435D01*
X156152150Y-72609277D01*
X156258648Y-72655278D01*
X156260849Y-72656236D01*
X156367371Y-72702540D01*
X156465611Y-72745138D01*
X156552705Y-72782797D01*
X156625792Y-72814284D01*
X156682010Y-72838366D01*
X156718497Y-72853809D01*
X156732390Y-72859382D01*
X156732418Y-72859384D01*
X156739769Y-72847521D01*
X156759519Y-72813206D01*
X156790604Y-72758344D01*
X156831954Y-72684843D01*
X156882504Y-72594612D01*
X156941186Y-72489557D01*
X157006933Y-72371586D01*
X157078679Y-72242607D01*
X157155355Y-72104526D01*
X157230422Y-71969132D01*
X157310897Y-71824212D01*
X157387663Y-71686622D01*
X157459632Y-71558271D01*
X157525716Y-71441072D01*
X157584826Y-71336933D01*
X157635875Y-71247764D01*
X157677774Y-71175476D01*
X157709435Y-71121978D01*
X157729769Y-71089182D01*
X157737559Y-71078933D01*
X157746428Y-71090810D01*
G37*
X157746428Y-71090810D02*
X157767631Y-71125138D01*
X157800066Y-71179988D01*
X157842634Y-71253430D01*
X157894234Y-71343537D01*
X157953766Y-71448380D01*
X158020130Y-71566029D01*
X158092226Y-71694556D01*
X158168952Y-71832033D01*
X158235494Y-71951787D01*
X158315338Y-72095733D01*
X158391395Y-72232789D01*
X158462565Y-72360976D01*
X158527747Y-72478311D01*
X158585838Y-72582816D01*
X158635738Y-72672509D01*
X158676345Y-72745410D01*
X158706559Y-72799539D01*
X158725278Y-72832916D01*
X158731267Y-72843394D01*
X158739714Y-72846201D01*
X158759419Y-72842900D01*
X158792426Y-72832702D01*
X158840780Y-72814817D01*
X158906523Y-72788456D01*
X158991702Y-72752831D01*
X159098360Y-72707152D01*
X159212165Y-72657770D01*
X159319058Y-72611519D01*
X159417865Y-72569396D01*
X159505709Y-72532580D01*
X159579713Y-72502250D01*
X159636998Y-72479585D01*
X159674686Y-72465763D01*
X159689901Y-72461964D01*
X159689999Y-72462034D01*
X159689960Y-72476846D01*
X159687390Y-72517416D01*
X159682459Y-72581798D01*
X159675342Y-72668044D01*
X159666210Y-72774209D01*
X159655235Y-72898346D01*
X159642590Y-73038509D01*
X159628448Y-73192751D01*
X159612980Y-73359127D01*
X159596360Y-73535690D01*
X159578759Y-73720493D01*
X159575812Y-73751226D01*
X159558041Y-73937115D01*
X159541164Y-74115027D01*
X159525358Y-74283020D01*
X159510798Y-74439154D01*
X159497663Y-74581488D01*
X159486128Y-74708082D01*
X159476369Y-74816995D01*
X159468565Y-74906285D01*
X159462891Y-74974013D01*
X159459523Y-75018238D01*
X159458640Y-75037019D01*
X159458745Y-75037538D01*
X159469903Y-75029621D01*
X159499975Y-75004773D01*
X159547113Y-74964605D01*
X159609467Y-74910726D01*
X159685191Y-74844745D01*
X159772435Y-74768272D01*
X159869351Y-74682918D01*
X159974090Y-74590291D01*
X160066722Y-74508079D01*
X160176816Y-74410387D01*
X160280799Y-74318446D01*
X160376800Y-74233890D01*
X160462948Y-74158352D01*
X160537369Y-74093465D01*
X160598194Y-74040861D01*
X160643549Y-74002174D01*
X160671564Y-73979035D01*
X160680306Y-73972809D01*
X160684555Y-73975925D01*
X160691084Y-73986816D01*
X160700798Y-74007795D01*
X160714602Y-74041177D01*
X160733401Y-74089276D01*
X160758101Y-74154404D01*
X160789606Y-74238877D01*
X160828822Y-74345007D01*
X160874106Y-74468166D01*
X160915453Y-74580784D01*
X160796852Y-74717604D01*
X160643832Y-74898611D01*
X160483333Y-75096790D01*
X160317607Y-75308920D01*
X160148906Y-75531782D01*
X159979479Y-75762156D01*
X159811579Y-75996821D01*
X159647457Y-76232558D01*
X159489364Y-76466146D01*
X159339552Y-76694366D01*
X159200272Y-76913997D01*
X159073774Y-77121819D01*
X158962311Y-77314613D01*
X158894984Y-77437873D01*
X158819401Y-77580245D01*
X158773489Y-77513515D01*
X158685967Y-77376790D01*
X158595277Y-77217444D01*
X158503599Y-77040174D01*
X158413114Y-76849674D01*
X158326004Y-76650642D01*
X158244449Y-76447774D01*
X158170631Y-76245765D01*
X158134215Y-76137028D01*
X158068549Y-75922960D01*
X158002822Y-75687794D01*
X157938689Y-75438211D01*
X157877809Y-75180896D01*
X157821837Y-74922531D01*
X157778292Y-74701394D01*
X157738858Y-74490527D01*
X157667207Y-74847531D01*
X157588026Y-75219304D01*
X157504614Y-75565580D01*
X157416220Y-75888476D01*
X157322094Y-76190112D01*
X157221485Y-76472606D01*
X157113643Y-76738077D01*
X156997818Y-76988644D01*
X156873260Y-77226427D01*
X156751137Y-77434377D01*
X156717887Y-77487208D01*
X156689463Y-77530711D01*
X156669314Y-77559711D01*
X156661492Y-77568978D01*
X156651161Y-77560278D01*
X156631931Y-77531679D01*
X156607073Y-77488318D01*
X156592525Y-77460697D01*
X156511630Y-77309968D01*
X156414382Y-77141122D01*
X156302758Y-76956990D01*
X156178732Y-76760403D01*
X156044281Y-76554194D01*
X155901381Y-76341193D01*
X155752008Y-76124232D01*
X155598138Y-75906144D01*
X155441747Y-75689758D01*
X155284811Y-75477908D01*
X155129306Y-75273425D01*
X154977208Y-75079139D01*
X154830493Y-74897884D01*
X154691137Y-74732489D01*
X154678266Y-74717604D01*
X154559665Y-74580784D01*
X154601012Y-74468166D01*
X154648408Y-74339271D01*
X154687231Y-74234236D01*
X154718383Y-74150748D01*
X154742769Y-74086495D01*
X154761293Y-74039164D01*
X154774859Y-74006443D01*
X154784371Y-73986020D01*
X154790733Y-73975582D01*
X154794664Y-73972809D01*
X154806844Y-73981801D01*
X154837927Y-74007689D01*
X154886039Y-74048841D01*
X154949310Y-74103626D01*
X155025867Y-74170411D01*
X155113839Y-74247565D01*
X155211355Y-74333455D01*
X155316542Y-74426451D01*
X155408402Y-74507924D01*
X155518327Y-74605381D01*
X155621973Y-74696924D01*
X155717492Y-74780945D01*
X155803036Y-74855835D01*
X155876756Y-74919983D01*
X155936804Y-74971780D01*
X155981332Y-75009618D01*
X156008490Y-75031887D01*
X156016528Y-75037383D01*
X156016049Y-75023018D01*
X156013059Y-74982887D01*
X156007733Y-74918932D01*
X156000250Y-74833093D01*
X155990786Y-74727309D01*
X155979517Y-74603522D01*
X155966621Y-74463672D01*
X155952275Y-74309699D01*
X155936654Y-74143543D01*
X155919937Y-73967146D01*
X155917777Y-73944517D01*
X157231839Y-73944517D01*
X157236925Y-73946002D01*
X157257376Y-73930940D01*
X157288935Y-73902527D01*
X157293019Y-73898611D01*
X157342255Y-73857626D01*
X157403436Y-73815615D01*
X157459203Y-73783857D01*
X157583424Y-73736687D01*
X157709522Y-73716548D01*
X157834746Y-73723020D01*
X157956343Y-73755685D01*
X158071561Y-73814125D01*
X158171504Y-73892106D01*
X158207123Y-73923838D01*
X158232407Y-73943248D01*
X158243183Y-73947247D01*
X158242961Y-73944973D01*
X158237593Y-73928234D01*
X158224693Y-73887302D01*
X158205007Y-73824562D01*
X158179281Y-73742396D01*
X158148259Y-73643191D01*
X158112688Y-73529328D01*
X158073313Y-73403193D01*
X158030880Y-73267169D01*
X157988359Y-73130781D01*
X157943894Y-72988200D01*
X157901915Y-72853742D01*
X157863146Y-72729722D01*
X157828313Y-72618456D01*
X157798142Y-72522256D01*
X157773360Y-72443438D01*
X157754691Y-72384316D01*
X157742862Y-72347205D01*
X157738608Y-72334424D01*
X157734139Y-72346775D01*
X157722130Y-72383420D01*
X157703303Y-72442072D01*
X157678382Y-72520444D01*
X157648089Y-72616248D01*
X157613148Y-72727199D01*
X157574282Y-72851009D01*
X157532214Y-72985391D01*
X157487766Y-73127739D01*
X157443002Y-73271217D01*
X157400581Y-73407064D01*
X157361247Y-73532901D01*
X157325746Y-73646353D01*
X157294823Y-73745042D01*
X157269222Y-73826590D01*
X157249687Y-73888621D01*
X157236965Y-73928757D01*
X157231839Y-73944517D01*
X155917777Y-73944517D01*
X155902300Y-73782447D01*
X155899306Y-73751226D01*
X155881563Y-73565262D01*
X155864775Y-73387220D01*
X155849114Y-73219045D01*
X155834752Y-73062685D01*
X155821862Y-72920086D01*
X155810616Y-72793195D01*
X155801186Y-72683958D01*
X155793744Y-72594322D01*
X155788462Y-72526233D01*
X155785513Y-72481639D01*
X155785069Y-72462484D01*
X155785246Y-72461907D01*
X155799571Y-72465256D01*
X155836475Y-72478663D01*
X155893072Y-72500948D01*
X155966475Y-72530932D01*
X156053797Y-72567435D01*
X156152150Y-72609277D01*
X156258648Y-72655278D01*
X156260849Y-72656236D01*
X156367371Y-72702540D01*
X156465611Y-72745138D01*
X156552705Y-72782797D01*
X156625792Y-72814284D01*
X156682010Y-72838366D01*
X156718497Y-72853809D01*
X156732390Y-72859382D01*
X156732418Y-72859384D01*
X156739769Y-72847521D01*
X156759519Y-72813206D01*
X156790604Y-72758344D01*
X156831954Y-72684843D01*
X156882504Y-72594612D01*
X156941186Y-72489557D01*
X157006933Y-72371586D01*
X157078679Y-72242607D01*
X157155355Y-72104526D01*
X157230422Y-71969132D01*
X157310897Y-71824212D01*
X157387663Y-71686622D01*
X157459632Y-71558271D01*
X157525716Y-71441072D01*
X157584826Y-71336933D01*
X157635875Y-71247764D01*
X157677774Y-71175476D01*
X157709435Y-71121978D01*
X157729769Y-71089182D01*
X157737559Y-71078933D01*
X157746428Y-71090810D01*
D14*
G36*
X121010909Y-115214400D02*
G01*
X120629909Y-115214400D01*
X120629909Y-114960400D01*
X121010909Y-114960400D01*
X121010909Y-115214400D01*
G37*
X121010909Y-115214400D02*
X120629909Y-115214400D01*
X120629909Y-114960400D01*
X121010909Y-114960400D01*
X121010909Y-115214400D01*
D10*
X124150120Y-113423700D02*
X124150120Y-108673900D01*
X118790720Y-108673900D02*
X118790720Y-113423700D01*
X166770340Y-91621740D02*
X165460340Y-91621740D01*
X165460340Y-91621740D02*
X165460340Y-88901740D01*
X169950340Y-87761740D02*
X169950340Y-88901740D01*
X170180340Y-91621740D02*
X168870340Y-91621740D01*
X170180340Y-88901740D02*
X170180340Y-91621740D01*
X170180340Y-88901740D02*
X169950340Y-88901740D01*
X165460340Y-88901740D02*
X165690340Y-88901740D01*
X134470580Y-95887220D02*
X136920580Y-95887220D01*
X136270580Y-92667220D02*
X134470580Y-92667220D01*
X119332180Y-143344540D02*
X121782180Y-143344540D01*
X121132180Y-140124540D02*
X119332180Y-140124540D01*
X181864940Y-127011164D02*
X181864940Y-126557036D01*
X180394940Y-127011164D02*
X180394940Y-126557036D01*
X170490656Y-134511720D02*
X170944784Y-134511720D01*
X170490656Y-133041720D02*
X170944784Y-133041720D01*
X170526216Y-148105800D02*
X170980344Y-148105800D01*
X170526216Y-146635800D02*
X170980344Y-146635800D01*
X170526216Y-144753000D02*
X170980344Y-144753000D01*
X170526216Y-143283000D02*
X170980344Y-143283000D01*
X170508336Y-129500200D02*
X170962464Y-129500200D01*
X170508336Y-130970200D02*
X170962464Y-130970200D01*
X117493720Y-118092996D02*
X117493720Y-118547124D01*
X116023720Y-118092996D02*
X116023720Y-118547124D01*
X118556100Y-118625864D02*
X118556100Y-118171736D01*
X120026100Y-118625864D02*
X120026100Y-118171736D01*
X117557220Y-113198416D02*
X117557220Y-113652544D01*
X116087220Y-113198416D02*
X116087220Y-113652544D01*
X180037984Y-139180900D02*
X179583856Y-139180900D01*
X180037984Y-140650900D02*
X179583856Y-140650900D01*
X174204300Y-97604336D02*
X174204300Y-98058464D01*
X172734300Y-97604336D02*
X172734300Y-98058464D01*
X122685480Y-118162336D02*
X122685480Y-118616464D01*
X121215480Y-118162336D02*
X121215480Y-118616464D01*
X171080100Y-97705936D02*
X171080100Y-98160064D01*
X169610100Y-97705936D02*
X169610100Y-98160064D01*
X175916920Y-131868936D02*
X175916920Y-132323064D01*
X177386920Y-131868936D02*
X177386920Y-132323064D01*
X180029876Y-130504260D02*
X180484004Y-130504260D01*
X180029876Y-131974260D02*
X180484004Y-131974260D01*
X179189600Y-133766400D02*
X179189600Y-134696400D01*
X179189600Y-136926400D02*
X179189600Y-135996400D01*
X179189600Y-136926400D02*
X181349600Y-136926400D01*
X179189600Y-133766400D02*
X180649600Y-133766400D01*
X127427820Y-104443116D02*
X127427820Y-105647244D01*
X124707820Y-104443116D02*
X124707820Y-105647244D01*
D11*
X148329400Y-130340000D02*
X148329400Y-123340000D01*
X148329400Y-123340000D02*
X148029400Y-123340000D01*
X148029400Y-123340000D02*
X148029400Y-121340000D01*
X148029400Y-121340000D02*
X148329400Y-121340000D01*
X148329400Y-121340000D02*
X148329400Y-114340000D01*
X148329400Y-114340000D02*
X144329400Y-114340000D01*
X144329400Y-114340000D02*
X144329400Y-130340000D01*
X144329400Y-130340000D02*
X148329400Y-130340000D01*
X140582400Y-130390800D02*
X140582400Y-123390800D01*
X140582400Y-123390800D02*
X140282400Y-123390800D01*
X140282400Y-123390800D02*
X140282400Y-121390800D01*
X140282400Y-121390800D02*
X140582400Y-121390800D01*
X140582400Y-121390800D02*
X140582400Y-114390800D01*
X140582400Y-114390800D02*
X136582400Y-114390800D01*
X136582400Y-114390800D02*
X136582400Y-130390800D01*
X136582400Y-130390800D02*
X140582400Y-130390800D01*
D10*
X148675400Y-109185400D02*
X148675400Y-110515400D01*
X147345400Y-109185400D02*
X148675400Y-109185400D01*
X146075400Y-109185400D02*
X146075400Y-111845400D01*
X146075400Y-111845400D02*
X135855400Y-111845400D01*
X146075400Y-109185400D02*
X135855400Y-109185400D01*
X135855400Y-109185400D02*
X135855400Y-111845400D01*
D11*
X133732000Y-106089200D02*
X140732000Y-106089200D01*
X140732000Y-106089200D02*
X140732000Y-105789200D01*
X140732000Y-105789200D02*
X142732000Y-105789200D01*
X142732000Y-105789200D02*
X142732000Y-106089200D01*
X142732000Y-106089200D02*
X149732000Y-106089200D01*
X149732000Y-106089200D02*
X149732000Y-102089200D01*
X149732000Y-102089200D02*
X133732000Y-102089200D01*
X133732000Y-102089200D02*
X133732000Y-106089200D01*
D10*
X165527100Y-102322500D02*
X165527100Y-106382500D01*
X165527100Y-106382500D02*
X167797100Y-106382500D01*
X167797100Y-106382500D02*
X167797100Y-102322500D01*
X172435900Y-102325700D02*
X172435900Y-106385700D01*
X172435900Y-106385700D02*
X174705900Y-106385700D01*
X174705900Y-106385700D02*
X174705900Y-102325700D01*
X169210100Y-102449500D02*
X169210100Y-106509500D01*
X169210100Y-106509500D02*
X171480100Y-106509500D01*
X171480100Y-106509500D02*
X171480100Y-102449500D01*
X125804420Y-113581080D02*
X127804420Y-113581080D01*
X127804420Y-113581080D02*
X127804420Y-109731080D01*
X125804420Y-113581080D02*
X125804420Y-109731080D01*
X172774280Y-90130908D02*
X172774280Y-90653412D01*
X171304280Y-90130908D02*
X171304280Y-90653412D01*
X167096808Y-83996860D02*
X167619312Y-83996860D01*
X167096808Y-85466860D02*
X167619312Y-85466860D01*
X116138020Y-109203032D02*
X116138020Y-108680528D01*
X117608020Y-109203032D02*
X117608020Y-108680528D01*
X119525772Y-105591280D02*
X119003268Y-105591280D01*
X119525772Y-104121280D02*
X119003268Y-104121280D01*
X115586840Y-142515868D02*
X115586840Y-143038372D01*
X117056840Y-142515868D02*
X117056840Y-143038372D01*
X158830052Y-132697400D02*
X158307548Y-132697400D01*
X158830052Y-131227400D02*
X158307548Y-131227400D01*
D11*
X168483342Y-139526780D02*
X168150009Y-139050590D01*
X167911914Y-139526780D02*
X167911914Y-138526780D01*
X168292866Y-138526780D01*
X168388104Y-138574400D01*
X168435723Y-138622019D01*
X168483342Y-138717257D01*
X168483342Y-138860114D01*
X168435723Y-138955352D01*
X168388104Y-139002971D01*
X168292866Y-139050590D01*
X167911914Y-139050590D01*
X168864295Y-138622019D02*
X168911914Y-138574400D01*
X169007152Y-138526780D01*
X169245247Y-138526780D01*
X169340485Y-138574400D01*
X169388104Y-138622019D01*
X169435723Y-138717257D01*
X169435723Y-138812495D01*
X169388104Y-138955352D01*
X168816676Y-139526780D01*
X169435723Y-139526780D01*
X169816676Y-138622019D02*
X169864295Y-138574400D01*
X169959533Y-138526780D01*
X170197628Y-138526780D01*
X170292866Y-138574400D01*
X170340485Y-138622019D01*
X170388104Y-138717257D01*
X170388104Y-138812495D01*
X170340485Y-138955352D01*
X169769057Y-139526780D01*
X170388104Y-139526780D01*
X168492342Y-136046980D02*
X168159009Y-135570790D01*
X167920914Y-136046980D02*
X167920914Y-135046980D01*
X168301866Y-135046980D01*
X168397104Y-135094600D01*
X168444723Y-135142219D01*
X168492342Y-135237457D01*
X168492342Y-135380314D01*
X168444723Y-135475552D01*
X168397104Y-135523171D01*
X168301866Y-135570790D01*
X167920914Y-135570790D01*
X169444723Y-136046980D02*
X168873295Y-136046980D01*
X169159009Y-136046980D02*
X169159009Y-135046980D01*
X169063771Y-135189838D01*
X168968533Y-135285076D01*
X168873295Y-135332695D01*
X170016152Y-135475552D02*
X169920914Y-135427933D01*
X169873295Y-135380314D01*
X169825676Y-135285076D01*
X169825676Y-135237457D01*
X169873295Y-135142219D01*
X169920914Y-135094600D01*
X170016152Y-135046980D01*
X170206628Y-135046980D01*
X170301866Y-135094600D01*
X170349485Y-135142219D01*
X170397104Y-135237457D01*
X170397104Y-135285076D01*
X170349485Y-135380314D01*
X170301866Y-135427933D01*
X170206628Y-135475552D01*
X170016152Y-135475552D01*
X169920914Y-135523171D01*
X169873295Y-135570790D01*
X169825676Y-135666028D01*
X169825676Y-135856504D01*
X169873295Y-135951742D01*
X169920914Y-135999361D01*
X170016152Y-136046980D01*
X170206628Y-136046980D01*
X170301866Y-135999361D01*
X170349485Y-135951742D01*
X170397104Y-135856504D01*
X170397104Y-135666028D01*
X170349485Y-135570790D01*
X170301866Y-135523171D01*
X170206628Y-135475552D01*
X164013966Y-130919480D02*
X164013966Y-131633766D01*
X163966347Y-131776623D01*
X163871109Y-131871861D01*
X163728252Y-131919480D01*
X163633014Y-131919480D01*
X164633014Y-131348052D02*
X164537776Y-131300433D01*
X164490157Y-131252814D01*
X164442538Y-131157576D01*
X164442538Y-131109957D01*
X164490157Y-131014719D01*
X164537776Y-130967100D01*
X164633014Y-130919480D01*
X164823490Y-130919480D01*
X164918728Y-130967100D01*
X164966347Y-131014719D01*
X165013966Y-131109957D01*
X165013966Y-131157576D01*
X164966347Y-131252814D01*
X164918728Y-131300433D01*
X164823490Y-131348052D01*
X164633014Y-131348052D01*
X164537776Y-131395671D01*
X164490157Y-131443290D01*
X164442538Y-131538528D01*
X164442538Y-131729004D01*
X164490157Y-131824242D01*
X164537776Y-131871861D01*
X164633014Y-131919480D01*
X164823490Y-131919480D01*
X164918728Y-131871861D01*
X164966347Y-131824242D01*
X165013966Y-131729004D01*
X165013966Y-131538528D01*
X164966347Y-131443290D01*
X164918728Y-131395671D01*
X164823490Y-131348052D01*
X125416942Y-115374942D02*
X125369323Y-115422561D01*
X125226466Y-115470180D01*
X125131228Y-115470180D01*
X124988371Y-115422561D01*
X124893133Y-115327323D01*
X124845514Y-115232085D01*
X124797895Y-115041609D01*
X124797895Y-114898752D01*
X124845514Y-114708276D01*
X124893133Y-114613038D01*
X124988371Y-114517800D01*
X125131228Y-114470180D01*
X125226466Y-114470180D01*
X125369323Y-114517800D01*
X125416942Y-114565419D01*
X125797895Y-114565419D02*
X125845514Y-114517800D01*
X125940752Y-114470180D01*
X126178847Y-114470180D01*
X126274085Y-114517800D01*
X126321704Y-114565419D01*
X126369323Y-114660657D01*
X126369323Y-114755895D01*
X126321704Y-114898752D01*
X125750276Y-115470180D01*
X126369323Y-115470180D01*
X127274085Y-114470180D02*
X126797895Y-114470180D01*
X126750276Y-114946371D01*
X126797895Y-114898752D01*
X126893133Y-114851133D01*
X127131228Y-114851133D01*
X127226466Y-114898752D01*
X127274085Y-114946371D01*
X127321704Y-115041609D01*
X127321704Y-115279704D01*
X127274085Y-115374942D01*
X127226466Y-115422561D01*
X127131228Y-115470180D01*
X126893133Y-115470180D01*
X126797895Y-115422561D01*
X126750276Y-115374942D01*
X127903142Y-95870542D02*
X127855523Y-95918161D01*
X127712666Y-95965780D01*
X127617428Y-95965780D01*
X127474571Y-95918161D01*
X127379333Y-95822923D01*
X127331714Y-95727685D01*
X127284095Y-95537209D01*
X127284095Y-95394352D01*
X127331714Y-95203876D01*
X127379333Y-95108638D01*
X127474571Y-95013400D01*
X127617428Y-94965780D01*
X127712666Y-94965780D01*
X127855523Y-95013400D01*
X127903142Y-95061019D01*
X128855523Y-95965780D02*
X128284095Y-95965780D01*
X128569809Y-95965780D02*
X128569809Y-94965780D01*
X128474571Y-95108638D01*
X128379333Y-95203876D01*
X128284095Y-95251495D01*
X129188857Y-94965780D02*
X129855523Y-94965780D01*
X129426952Y-95965780D01*
X177641422Y-124545860D02*
X177308089Y-124069670D01*
X177069994Y-124545860D02*
X177069994Y-123545860D01*
X177450946Y-123545860D01*
X177546184Y-123593480D01*
X177593803Y-123641099D01*
X177641422Y-123736337D01*
X177641422Y-123879194D01*
X177593803Y-123974432D01*
X177546184Y-124022051D01*
X177450946Y-124069670D01*
X177069994Y-124069670D01*
X178022375Y-123641099D02*
X178069994Y-123593480D01*
X178165232Y-123545860D01*
X178403327Y-123545860D01*
X178498565Y-123593480D01*
X178546184Y-123641099D01*
X178593803Y-123736337D01*
X178593803Y-123831575D01*
X178546184Y-123974432D01*
X177974756Y-124545860D01*
X178593803Y-124545860D01*
X179498565Y-123545860D02*
X179022375Y-123545860D01*
X178974756Y-124022051D01*
X179022375Y-123974432D01*
X179117613Y-123926813D01*
X179355708Y-123926813D01*
X179450946Y-123974432D01*
X179498565Y-124022051D01*
X179546184Y-124117289D01*
X179546184Y-124355384D01*
X179498565Y-124450622D01*
X179450946Y-124498241D01*
X179355708Y-124545860D01*
X179117613Y-124545860D01*
X179022375Y-124498241D01*
X178974756Y-124450622D01*
X180139666Y-107358380D02*
X180139666Y-108072666D01*
X180092047Y-108215523D01*
X179996809Y-108310761D01*
X179853952Y-108358380D01*
X179758714Y-108358380D01*
X181044428Y-107691714D02*
X181044428Y-108358380D01*
X180806333Y-107310761D02*
X180568238Y-108025047D01*
X181187285Y-108025047D01*
X107165876Y-99985580D02*
X107165876Y-100699866D01*
X107118257Y-100842723D01*
X107023019Y-100937961D01*
X106880161Y-100985580D01*
X106784923Y-100985580D01*
X108165876Y-100985580D02*
X107594447Y-100985580D01*
X107880161Y-100985580D02*
X107880161Y-99985580D01*
X107784923Y-100128438D01*
X107689685Y-100223676D01*
X107594447Y-100271295D01*
X109118257Y-100985580D02*
X108546828Y-100985580D01*
X108832542Y-100985580D02*
X108832542Y-99985580D01*
X108737304Y-100128438D01*
X108642066Y-100223676D01*
X108546828Y-100271295D01*
X132266942Y-108899942D02*
X132219323Y-108947561D01*
X132076466Y-108995180D01*
X131981228Y-108995180D01*
X131838371Y-108947561D01*
X131743133Y-108852323D01*
X131695514Y-108757085D01*
X131647895Y-108566609D01*
X131647895Y-108423752D01*
X131695514Y-108233276D01*
X131743133Y-108138038D01*
X131838371Y-108042800D01*
X131981228Y-107995180D01*
X132076466Y-107995180D01*
X132219323Y-108042800D01*
X132266942Y-108090419D01*
X132647895Y-108090419D02*
X132695514Y-108042800D01*
X132790752Y-107995180D01*
X133028847Y-107995180D01*
X133124085Y-108042800D01*
X133171704Y-108090419D01*
X133219323Y-108185657D01*
X133219323Y-108280895D01*
X133171704Y-108423752D01*
X132600276Y-108995180D01*
X133219323Y-108995180D01*
X133600276Y-108090419D02*
X133647895Y-108042800D01*
X133743133Y-107995180D01*
X133981228Y-107995180D01*
X134076466Y-108042800D01*
X134124085Y-108090419D01*
X134171704Y-108185657D01*
X134171704Y-108280895D01*
X134124085Y-108423752D01*
X133552657Y-108995180D01*
X134171704Y-108995180D01*
X125303442Y-121896142D02*
X125255823Y-121943761D01*
X125112966Y-121991380D01*
X125017728Y-121991380D01*
X124874871Y-121943761D01*
X124779633Y-121848523D01*
X124732014Y-121753285D01*
X124684395Y-121562809D01*
X124684395Y-121419952D01*
X124732014Y-121229476D01*
X124779633Y-121134238D01*
X124874871Y-121039000D01*
X125017728Y-120991380D01*
X125112966Y-120991380D01*
X125255823Y-121039000D01*
X125303442Y-121086619D01*
X125684395Y-121086619D02*
X125732014Y-121039000D01*
X125827252Y-120991380D01*
X126065347Y-120991380D01*
X126160585Y-121039000D01*
X126208204Y-121086619D01*
X126255823Y-121181857D01*
X126255823Y-121277095D01*
X126208204Y-121419952D01*
X125636776Y-121991380D01*
X126255823Y-121991380D01*
X127112966Y-120991380D02*
X126922490Y-120991380D01*
X126827252Y-121039000D01*
X126779633Y-121086619D01*
X126684395Y-121229476D01*
X126636776Y-121419952D01*
X126636776Y-121800904D01*
X126684395Y-121896142D01*
X126732014Y-121943761D01*
X126827252Y-121991380D01*
X127017728Y-121991380D01*
X127112966Y-121943761D01*
X127160585Y-121896142D01*
X127208204Y-121800904D01*
X127208204Y-121562809D01*
X127160585Y-121467571D01*
X127112966Y-121419952D01*
X127017728Y-121372333D01*
X126827252Y-121372333D01*
X126732014Y-121419952D01*
X126684395Y-121467571D01*
X126636776Y-121562809D01*
X134718822Y-89358640D02*
X134385489Y-88882450D01*
X134147394Y-89358640D02*
X134147394Y-88358640D01*
X134528346Y-88358640D01*
X134623584Y-88406260D01*
X134671203Y-88453879D01*
X134718822Y-88549117D01*
X134718822Y-88691974D01*
X134671203Y-88787212D01*
X134623584Y-88834831D01*
X134528346Y-88882450D01*
X134147394Y-88882450D01*
X135671203Y-89358640D02*
X135099775Y-89358640D01*
X135385489Y-89358640D02*
X135385489Y-88358640D01*
X135290251Y-88501498D01*
X135195013Y-88596736D01*
X135099775Y-88644355D01*
X136623584Y-89358640D02*
X136052156Y-89358640D01*
X136337870Y-89358640D02*
X136337870Y-88358640D01*
X136242632Y-88501498D01*
X136147394Y-88596736D01*
X136052156Y-88644355D01*
X120059153Y-136427380D02*
X119725820Y-135951190D01*
X119487724Y-136427380D02*
X119487724Y-135427380D01*
X119868677Y-135427380D01*
X119963915Y-135475000D01*
X120011534Y-135522619D01*
X120059153Y-135617857D01*
X120059153Y-135760714D01*
X120011534Y-135855952D01*
X119963915Y-135903571D01*
X119868677Y-135951190D01*
X119487724Y-135951190D01*
X120392486Y-135427380D02*
X121059153Y-135427380D01*
X120630581Y-136427380D01*
X164574333Y-97362780D02*
X164241000Y-96886590D01*
X164002904Y-97362780D02*
X164002904Y-96362780D01*
X164383857Y-96362780D01*
X164479095Y-96410400D01*
X164526714Y-96458019D01*
X164574333Y-96553257D01*
X164574333Y-96696114D01*
X164526714Y-96791352D01*
X164479095Y-96838971D01*
X164383857Y-96886590D01*
X164002904Y-96886590D01*
X165479095Y-96362780D02*
X165002904Y-96362780D01*
X164955285Y-96838971D01*
X165002904Y-96791352D01*
X165098142Y-96743733D01*
X165336238Y-96743733D01*
X165431476Y-96791352D01*
X165479095Y-96838971D01*
X165526714Y-96934209D01*
X165526714Y-97172304D01*
X165479095Y-97267542D01*
X165431476Y-97315161D01*
X165336238Y-97362780D01*
X165098142Y-97362780D01*
X165002904Y-97315161D01*
X164955285Y-97267542D01*
X132696982Y-71002162D02*
X132649363Y-71049781D01*
X132506506Y-71097400D01*
X132411268Y-71097400D01*
X132268411Y-71049781D01*
X132173173Y-70954543D01*
X132125554Y-70859305D01*
X132077935Y-70668829D01*
X132077935Y-70525972D01*
X132125554Y-70335496D01*
X132173173Y-70240258D01*
X132268411Y-70145020D01*
X132411268Y-70097400D01*
X132506506Y-70097400D01*
X132649363Y-70145020D01*
X132696982Y-70192639D01*
X133649363Y-71097400D02*
X133077935Y-71097400D01*
X133363649Y-71097400D02*
X133363649Y-70097400D01*
X133268411Y-70240258D01*
X133173173Y-70335496D01*
X133077935Y-70383115D01*
X134220792Y-70525972D02*
X134125554Y-70478353D01*
X134077935Y-70430734D01*
X134030316Y-70335496D01*
X134030316Y-70287877D01*
X134077935Y-70192639D01*
X134125554Y-70145020D01*
X134220792Y-70097400D01*
X134411268Y-70097400D01*
X134506506Y-70145020D01*
X134554125Y-70192639D01*
X134601744Y-70287877D01*
X134601744Y-70335496D01*
X134554125Y-70430734D01*
X134506506Y-70478353D01*
X134411268Y-70525972D01*
X134220792Y-70525972D01*
X134125554Y-70573591D01*
X134077935Y-70621210D01*
X134030316Y-70716448D01*
X134030316Y-70906924D01*
X134077935Y-71002162D01*
X134125554Y-71049781D01*
X134220792Y-71097400D01*
X134411268Y-71097400D01*
X134506506Y-71049781D01*
X134554125Y-71002162D01*
X134601744Y-70906924D01*
X134601744Y-70716448D01*
X134554125Y-70621210D01*
X134506506Y-70573591D01*
X134411268Y-70525972D01*
X142232142Y-72870842D02*
X142184523Y-72918461D01*
X142041666Y-72966080D01*
X141946428Y-72966080D01*
X141803571Y-72918461D01*
X141708333Y-72823223D01*
X141660714Y-72727985D01*
X141613095Y-72537509D01*
X141613095Y-72394652D01*
X141660714Y-72204176D01*
X141708333Y-72108938D01*
X141803571Y-72013700D01*
X141946428Y-71966080D01*
X142041666Y-71966080D01*
X142184523Y-72013700D01*
X142232142Y-72061319D01*
X143184523Y-72966080D02*
X142613095Y-72966080D01*
X142898809Y-72966080D02*
X142898809Y-71966080D01*
X142803571Y-72108938D01*
X142708333Y-72204176D01*
X142613095Y-72251795D01*
X143660714Y-72966080D02*
X143851190Y-72966080D01*
X143946428Y-72918461D01*
X143994047Y-72870842D01*
X144089285Y-72727985D01*
X144136904Y-72537509D01*
X144136904Y-72156557D01*
X144089285Y-72061319D01*
X144041666Y-72013700D01*
X143946428Y-71966080D01*
X143755952Y-71966080D01*
X143660714Y-72013700D01*
X143613095Y-72061319D01*
X143565476Y-72156557D01*
X143565476Y-72394652D01*
X143613095Y-72489890D01*
X143660714Y-72537509D01*
X143755952Y-72585128D01*
X143946428Y-72585128D01*
X144041666Y-72537509D01*
X144089285Y-72489890D01*
X144136904Y-72394652D01*
X131638135Y-76518520D02*
X131638135Y-77328044D01*
X131685754Y-77423282D01*
X131733373Y-77470901D01*
X131828611Y-77518520D01*
X132019087Y-77518520D01*
X132114325Y-77470901D01*
X132161944Y-77423282D01*
X132209563Y-77328044D01*
X132209563Y-76518520D01*
X132733373Y-77518520D02*
X132923849Y-77518520D01*
X133019087Y-77470901D01*
X133066706Y-77423282D01*
X133161944Y-77280425D01*
X133209563Y-77089949D01*
X133209563Y-76708997D01*
X133161944Y-76613759D01*
X133114325Y-76566140D01*
X133019087Y-76518520D01*
X132828611Y-76518520D01*
X132733373Y-76566140D01*
X132685754Y-76613759D01*
X132638135Y-76708997D01*
X132638135Y-76947092D01*
X132685754Y-77042330D01*
X132733373Y-77089949D01*
X132828611Y-77137568D01*
X133019087Y-77137568D01*
X133114325Y-77089949D01*
X133161944Y-77042330D01*
X133209563Y-76947092D01*
X122156315Y-105898700D02*
X122156315Y-106708224D01*
X122203934Y-106803462D01*
X122251553Y-106851081D01*
X122346791Y-106898700D01*
X122537267Y-106898700D01*
X122632505Y-106851081D01*
X122680124Y-106803462D01*
X122727743Y-106708224D01*
X122727743Y-105898700D01*
X123632505Y-105898700D02*
X123442029Y-105898700D01*
X123346791Y-105946320D01*
X123299172Y-105993939D01*
X123203934Y-106136796D01*
X123156315Y-106327272D01*
X123156315Y-106708224D01*
X123203934Y-106803462D01*
X123251553Y-106851081D01*
X123346791Y-106898700D01*
X123537267Y-106898700D01*
X123632505Y-106851081D01*
X123680124Y-106803462D01*
X123727743Y-106708224D01*
X123727743Y-106470129D01*
X123680124Y-106374891D01*
X123632505Y-106327272D01*
X123537267Y-106279653D01*
X123346791Y-106279653D01*
X123251553Y-106327272D01*
X123203934Y-106374891D01*
X123156315Y-106470129D01*
X123820940Y-108231940D02*
X124059036Y-108231940D01*
X123963798Y-108470035D02*
X124059036Y-108231940D01*
X123963798Y-107993844D01*
X124249512Y-108374797D02*
X124059036Y-108231940D01*
X124249512Y-108089082D01*
X123826020Y-108226860D02*
X124064116Y-108226860D01*
X123968878Y-108464955D02*
X124064116Y-108226860D01*
X123968878Y-107988764D01*
X124254592Y-108369717D02*
X124064116Y-108226860D01*
X124254592Y-108084002D01*
X163466875Y-87143340D02*
X163466875Y-87952864D01*
X163514494Y-88048102D01*
X163562113Y-88095721D01*
X163657351Y-88143340D01*
X163847827Y-88143340D01*
X163943065Y-88095721D01*
X163990684Y-88048102D01*
X164038303Y-87952864D01*
X164038303Y-87143340D01*
X164943065Y-87476674D02*
X164943065Y-88143340D01*
X164704970Y-87095721D02*
X164466875Y-87810007D01*
X165085922Y-87810007D01*
X134757255Y-96642940D02*
X134757255Y-97452464D01*
X134804874Y-97547702D01*
X134852493Y-97595321D01*
X134947731Y-97642940D01*
X135138207Y-97642940D01*
X135233445Y-97595321D01*
X135281064Y-97547702D01*
X135328683Y-97452464D01*
X135328683Y-96642940D01*
X135757255Y-96738179D02*
X135804874Y-96690560D01*
X135900112Y-96642940D01*
X136138207Y-96642940D01*
X136233445Y-96690560D01*
X136281064Y-96738179D01*
X136328683Y-96833417D01*
X136328683Y-96928655D01*
X136281064Y-97071512D01*
X135709636Y-97642940D01*
X136328683Y-97642940D01*
X123891135Y-141202160D02*
X123891135Y-142011684D01*
X123938754Y-142106922D01*
X123986373Y-142154541D01*
X124081611Y-142202160D01*
X124272087Y-142202160D01*
X124367325Y-142154541D01*
X124414944Y-142106922D01*
X124462563Y-142011684D01*
X124462563Y-141202160D01*
X125462563Y-142202160D02*
X124891135Y-142202160D01*
X125176849Y-142202160D02*
X125176849Y-141202160D01*
X125081611Y-141345018D01*
X124986373Y-141440256D01*
X124891135Y-141487875D01*
X180811342Y-124515380D02*
X180478009Y-124039190D01*
X180239914Y-124515380D02*
X180239914Y-123515380D01*
X180620866Y-123515380D01*
X180716104Y-123563000D01*
X180763723Y-123610619D01*
X180811342Y-123705857D01*
X180811342Y-123848714D01*
X180763723Y-123943952D01*
X180716104Y-123991571D01*
X180620866Y-124039190D01*
X180239914Y-124039190D01*
X181192295Y-123610619D02*
X181239914Y-123563000D01*
X181335152Y-123515380D01*
X181573247Y-123515380D01*
X181668485Y-123563000D01*
X181716104Y-123610619D01*
X181763723Y-123705857D01*
X181763723Y-123801095D01*
X181716104Y-123943952D01*
X181144676Y-124515380D01*
X181763723Y-124515380D01*
X182620866Y-123515380D02*
X182430390Y-123515380D01*
X182335152Y-123563000D01*
X182287533Y-123610619D01*
X182192295Y-123753476D01*
X182144676Y-123943952D01*
X182144676Y-124324904D01*
X182192295Y-124420142D01*
X182239914Y-124467761D01*
X182335152Y-124515380D01*
X182525628Y-124515380D01*
X182620866Y-124467761D01*
X182668485Y-124420142D01*
X182716104Y-124324904D01*
X182716104Y-124086809D01*
X182668485Y-123991571D01*
X182620866Y-123943952D01*
X182525628Y-123896333D01*
X182335152Y-123896333D01*
X182239914Y-123943952D01*
X182192295Y-123991571D01*
X182144676Y-124086809D01*
X168460342Y-132519780D02*
X168127009Y-132043590D01*
X167888914Y-132519780D02*
X167888914Y-131519780D01*
X168269866Y-131519780D01*
X168365104Y-131567400D01*
X168412723Y-131615019D01*
X168460342Y-131710257D01*
X168460342Y-131853114D01*
X168412723Y-131948352D01*
X168365104Y-131995971D01*
X168269866Y-132043590D01*
X167888914Y-132043590D01*
X168841295Y-131615019D02*
X168888914Y-131567400D01*
X168984152Y-131519780D01*
X169222247Y-131519780D01*
X169317485Y-131567400D01*
X169365104Y-131615019D01*
X169412723Y-131710257D01*
X169412723Y-131805495D01*
X169365104Y-131948352D01*
X168793676Y-132519780D01*
X169412723Y-132519780D01*
X169746057Y-131519780D02*
X170365104Y-131519780D01*
X170031771Y-131900733D01*
X170174628Y-131900733D01*
X170269866Y-131948352D01*
X170317485Y-131995971D01*
X170365104Y-132091209D01*
X170365104Y-132329304D01*
X170317485Y-132424542D01*
X170269866Y-132472161D01*
X170174628Y-132519780D01*
X169888914Y-132519780D01*
X169793676Y-132472161D01*
X169746057Y-132424542D01*
X169355942Y-146156180D02*
X169022609Y-145679990D01*
X168784514Y-146156180D02*
X168784514Y-145156180D01*
X169165466Y-145156180D01*
X169260704Y-145203800D01*
X169308323Y-145251419D01*
X169355942Y-145346657D01*
X169355942Y-145489514D01*
X169308323Y-145584752D01*
X169260704Y-145632371D01*
X169165466Y-145679990D01*
X168784514Y-145679990D01*
X169736895Y-145251419D02*
X169784514Y-145203800D01*
X169879752Y-145156180D01*
X170117847Y-145156180D01*
X170213085Y-145203800D01*
X170260704Y-145251419D01*
X170308323Y-145346657D01*
X170308323Y-145441895D01*
X170260704Y-145584752D01*
X169689276Y-146156180D01*
X170308323Y-146156180D01*
X171260704Y-146156180D02*
X170689276Y-146156180D01*
X170974990Y-146156180D02*
X170974990Y-145156180D01*
X170879752Y-145299038D01*
X170784514Y-145394276D01*
X170689276Y-145441895D01*
X168390742Y-142828780D02*
X168057409Y-142352590D01*
X167819314Y-142828780D02*
X167819314Y-141828780D01*
X168200266Y-141828780D01*
X168295504Y-141876400D01*
X168343123Y-141924019D01*
X168390742Y-142019257D01*
X168390742Y-142162114D01*
X168343123Y-142257352D01*
X168295504Y-142304971D01*
X168200266Y-142352590D01*
X167819314Y-142352590D01*
X168771695Y-141924019D02*
X168819314Y-141876400D01*
X168914552Y-141828780D01*
X169152647Y-141828780D01*
X169247885Y-141876400D01*
X169295504Y-141924019D01*
X169343123Y-142019257D01*
X169343123Y-142114495D01*
X169295504Y-142257352D01*
X168724076Y-142828780D01*
X169343123Y-142828780D01*
X169962171Y-141828780D02*
X170057409Y-141828780D01*
X170152647Y-141876400D01*
X170200266Y-141924019D01*
X170247885Y-142019257D01*
X170295504Y-142209733D01*
X170295504Y-142447828D01*
X170247885Y-142638304D01*
X170200266Y-142733542D01*
X170152647Y-142781161D01*
X170057409Y-142828780D01*
X169962171Y-142828780D01*
X169866933Y-142781161D01*
X169819314Y-142733542D01*
X169771695Y-142638304D01*
X169724076Y-142447828D01*
X169724076Y-142209733D01*
X169771695Y-142019257D01*
X169819314Y-141924019D01*
X169866933Y-141876400D01*
X169962171Y-141828780D01*
X168365342Y-129036580D02*
X168032009Y-128560390D01*
X167793914Y-129036580D02*
X167793914Y-128036580D01*
X168174866Y-128036580D01*
X168270104Y-128084200D01*
X168317723Y-128131819D01*
X168365342Y-128227057D01*
X168365342Y-128369914D01*
X168317723Y-128465152D01*
X168270104Y-128512771D01*
X168174866Y-128560390D01*
X167793914Y-128560390D01*
X169317723Y-129036580D02*
X168746295Y-129036580D01*
X169032009Y-129036580D02*
X169032009Y-128036580D01*
X168936771Y-128179438D01*
X168841533Y-128274676D01*
X168746295Y-128322295D01*
X169793914Y-129036580D02*
X169984390Y-129036580D01*
X170079628Y-128988961D01*
X170127247Y-128941342D01*
X170222485Y-128798485D01*
X170270104Y-128608009D01*
X170270104Y-128227057D01*
X170222485Y-128131819D01*
X170174866Y-128084200D01*
X170079628Y-128036580D01*
X169889152Y-128036580D01*
X169793914Y-128084200D01*
X169746295Y-128131819D01*
X169698676Y-128227057D01*
X169698676Y-128465152D01*
X169746295Y-128560390D01*
X169793914Y-128608009D01*
X169889152Y-128655628D01*
X170079628Y-128655628D01*
X170174866Y-128608009D01*
X170222485Y-128560390D01*
X170270104Y-128465152D01*
X115749242Y-121378480D02*
X115415909Y-120902290D01*
X115177814Y-121378480D02*
X115177814Y-120378480D01*
X115558766Y-120378480D01*
X115654004Y-120426100D01*
X115701623Y-120473719D01*
X115749242Y-120568957D01*
X115749242Y-120711814D01*
X115701623Y-120807052D01*
X115654004Y-120854671D01*
X115558766Y-120902290D01*
X115177814Y-120902290D01*
X116701623Y-121378480D02*
X116130195Y-121378480D01*
X116415909Y-121378480D02*
X116415909Y-120378480D01*
X116320671Y-120521338D01*
X116225433Y-120616576D01*
X116130195Y-120664195D01*
X117606385Y-120378480D02*
X117130195Y-120378480D01*
X117082576Y-120854671D01*
X117130195Y-120807052D01*
X117225433Y-120759433D01*
X117463528Y-120759433D01*
X117558766Y-120807052D01*
X117606385Y-120854671D01*
X117654004Y-120949909D01*
X117654004Y-121188004D01*
X117606385Y-121283242D01*
X117558766Y-121330861D01*
X117463528Y-121378480D01*
X117225433Y-121378480D01*
X117130195Y-121330861D01*
X117082576Y-121283242D01*
X118860742Y-121391180D02*
X118527409Y-120914990D01*
X118289314Y-121391180D02*
X118289314Y-120391180D01*
X118670266Y-120391180D01*
X118765504Y-120438800D01*
X118813123Y-120486419D01*
X118860742Y-120581657D01*
X118860742Y-120724514D01*
X118813123Y-120819752D01*
X118765504Y-120867371D01*
X118670266Y-120914990D01*
X118289314Y-120914990D01*
X119813123Y-121391180D02*
X119241695Y-121391180D01*
X119527409Y-121391180D02*
X119527409Y-120391180D01*
X119432171Y-120534038D01*
X119336933Y-120629276D01*
X119241695Y-120676895D01*
X120670266Y-120724514D02*
X120670266Y-121391180D01*
X120432171Y-120343561D02*
X120194076Y-121057847D01*
X120813123Y-121057847D01*
X113831542Y-113872780D02*
X113498209Y-113396590D01*
X113260114Y-113872780D02*
X113260114Y-112872780D01*
X113641066Y-112872780D01*
X113736304Y-112920400D01*
X113783923Y-112968019D01*
X113831542Y-113063257D01*
X113831542Y-113206114D01*
X113783923Y-113301352D01*
X113736304Y-113348971D01*
X113641066Y-113396590D01*
X113260114Y-113396590D01*
X114783923Y-113872780D02*
X114212495Y-113872780D01*
X114498209Y-113872780D02*
X114498209Y-112872780D01*
X114402971Y-113015638D01*
X114307733Y-113110876D01*
X114212495Y-113158495D01*
X115117257Y-112872780D02*
X115736304Y-112872780D01*
X115402971Y-113253733D01*
X115545828Y-113253733D01*
X115641066Y-113301352D01*
X115688685Y-113348971D01*
X115736304Y-113444209D01*
X115736304Y-113682304D01*
X115688685Y-113777542D01*
X115641066Y-113825161D01*
X115545828Y-113872780D01*
X115260114Y-113872780D01*
X115164876Y-113825161D01*
X115117257Y-113777542D01*
X175786142Y-140425380D02*
X175452809Y-139949190D01*
X175214714Y-140425380D02*
X175214714Y-139425380D01*
X175595666Y-139425380D01*
X175690904Y-139473000D01*
X175738523Y-139520619D01*
X175786142Y-139615857D01*
X175786142Y-139758714D01*
X175738523Y-139853952D01*
X175690904Y-139901571D01*
X175595666Y-139949190D01*
X175214714Y-139949190D01*
X176738523Y-140425380D02*
X176167095Y-140425380D01*
X176452809Y-140425380D02*
X176452809Y-139425380D01*
X176357571Y-139568238D01*
X176262333Y-139663476D01*
X176167095Y-139711095D01*
X177119476Y-139520619D02*
X177167095Y-139473000D01*
X177262333Y-139425380D01*
X177500428Y-139425380D01*
X177595666Y-139473000D01*
X177643285Y-139520619D01*
X177690904Y-139615857D01*
X177690904Y-139711095D01*
X177643285Y-139853952D01*
X177071857Y-140425380D01*
X177690904Y-140425380D01*
X173337333Y-95838780D02*
X173004000Y-95362590D01*
X172765904Y-95838780D02*
X172765904Y-94838780D01*
X173146857Y-94838780D01*
X173242095Y-94886400D01*
X173289714Y-94934019D01*
X173337333Y-95029257D01*
X173337333Y-95172114D01*
X173289714Y-95267352D01*
X173242095Y-95314971D01*
X173146857Y-95362590D01*
X172765904Y-95362590D01*
X173813523Y-95838780D02*
X174004000Y-95838780D01*
X174099238Y-95791161D01*
X174146857Y-95743542D01*
X174242095Y-95600685D01*
X174289714Y-95410209D01*
X174289714Y-95029257D01*
X174242095Y-94934019D01*
X174194476Y-94886400D01*
X174099238Y-94838780D01*
X173908761Y-94838780D01*
X173813523Y-94886400D01*
X173765904Y-94934019D01*
X173718285Y-95029257D01*
X173718285Y-95267352D01*
X173765904Y-95362590D01*
X173813523Y-95410209D01*
X173908761Y-95457828D01*
X174099238Y-95457828D01*
X174194476Y-95410209D01*
X174242095Y-95362590D01*
X174289714Y-95267352D01*
X121749933Y-116387380D02*
X121416600Y-115911190D01*
X121178504Y-116387380D02*
X121178504Y-115387380D01*
X121559457Y-115387380D01*
X121654695Y-115435000D01*
X121702314Y-115482619D01*
X121749933Y-115577857D01*
X121749933Y-115720714D01*
X121702314Y-115815952D01*
X121654695Y-115863571D01*
X121559457Y-115911190D01*
X121178504Y-115911190D01*
X122321361Y-115815952D02*
X122226123Y-115768333D01*
X122178504Y-115720714D01*
X122130885Y-115625476D01*
X122130885Y-115577857D01*
X122178504Y-115482619D01*
X122226123Y-115435000D01*
X122321361Y-115387380D01*
X122511838Y-115387380D01*
X122607076Y-115435000D01*
X122654695Y-115482619D01*
X122702314Y-115577857D01*
X122702314Y-115625476D01*
X122654695Y-115720714D01*
X122607076Y-115768333D01*
X122511838Y-115815952D01*
X122321361Y-115815952D01*
X122226123Y-115863571D01*
X122178504Y-115911190D01*
X122130885Y-116006428D01*
X122130885Y-116196904D01*
X122178504Y-116292142D01*
X122226123Y-116339761D01*
X122321361Y-116387380D01*
X122511838Y-116387380D01*
X122607076Y-116339761D01*
X122654695Y-116292142D01*
X122702314Y-116196904D01*
X122702314Y-116006428D01*
X122654695Y-115911190D01*
X122607076Y-115863571D01*
X122511838Y-115815952D01*
X170213133Y-95889580D02*
X169879800Y-95413390D01*
X169641704Y-95889580D02*
X169641704Y-94889580D01*
X170022657Y-94889580D01*
X170117895Y-94937200D01*
X170165514Y-94984819D01*
X170213133Y-95080057D01*
X170213133Y-95222914D01*
X170165514Y-95318152D01*
X170117895Y-95365771D01*
X170022657Y-95413390D01*
X169641704Y-95413390D01*
X171070276Y-95222914D02*
X171070276Y-95889580D01*
X170832180Y-94841961D02*
X170594085Y-95556247D01*
X171213133Y-95556247D01*
X176340473Y-130006600D02*
X176007140Y-129530410D01*
X175769044Y-130006600D02*
X175769044Y-129006600D01*
X176149997Y-129006600D01*
X176245235Y-129054220D01*
X176292854Y-129101839D01*
X176340473Y-129197077D01*
X176340473Y-129339934D01*
X176292854Y-129435172D01*
X176245235Y-129482791D01*
X176149997Y-129530410D01*
X175769044Y-129530410D01*
X176673806Y-129006600D02*
X177292854Y-129006600D01*
X176959520Y-129387553D01*
X177102378Y-129387553D01*
X177197616Y-129435172D01*
X177245235Y-129482791D01*
X177292854Y-129578029D01*
X177292854Y-129816124D01*
X177245235Y-129911362D01*
X177197616Y-129958981D01*
X177102378Y-130006600D01*
X176816663Y-130006600D01*
X176721425Y-129958981D01*
X176673806Y-129911362D01*
X180041253Y-129888240D02*
X179707920Y-129412050D01*
X179469824Y-129888240D02*
X179469824Y-128888240D01*
X179850777Y-128888240D01*
X179946015Y-128935860D01*
X179993634Y-128983479D01*
X180041253Y-129078717D01*
X180041253Y-129221574D01*
X179993634Y-129316812D01*
X179946015Y-129364431D01*
X179850777Y-129412050D01*
X179469824Y-129412050D01*
X180422205Y-128983479D02*
X180469824Y-128935860D01*
X180565062Y-128888240D01*
X180803158Y-128888240D01*
X180898396Y-128935860D01*
X180946015Y-128983479D01*
X180993634Y-129078717D01*
X180993634Y-129173955D01*
X180946015Y-129316812D01*
X180374586Y-129888240D01*
X180993634Y-129888240D01*
X179854361Y-138394019D02*
X179759123Y-138346400D01*
X179663885Y-138251161D01*
X179521028Y-138108304D01*
X179425790Y-138060685D01*
X179330552Y-138060685D01*
X179378171Y-138298780D02*
X179282933Y-138251161D01*
X179187695Y-138155923D01*
X179140076Y-137965447D01*
X179140076Y-137632114D01*
X179187695Y-137441638D01*
X179282933Y-137346400D01*
X179378171Y-137298780D01*
X179568647Y-137298780D01*
X179663885Y-137346400D01*
X179759123Y-137441638D01*
X179806742Y-137632114D01*
X179806742Y-137965447D01*
X179759123Y-138155923D01*
X179663885Y-138251161D01*
X179568647Y-138298780D01*
X179378171Y-138298780D01*
X180759123Y-138298780D02*
X180187695Y-138298780D01*
X180473409Y-138298780D02*
X180473409Y-137298780D01*
X180378171Y-137441638D01*
X180282933Y-137536876D01*
X180187695Y-137584495D01*
X125957033Y-102052380D02*
X125480842Y-102052380D01*
X125480842Y-101052380D01*
X126814176Y-102052380D02*
X126242747Y-102052380D01*
X126528461Y-102052380D02*
X126528461Y-101052380D01*
X126433223Y-101195238D01*
X126337985Y-101290476D01*
X126242747Y-101338095D01*
X149045666Y-128950380D02*
X149045666Y-129664666D01*
X148998047Y-129807523D01*
X148902809Y-129902761D01*
X148759952Y-129950380D01*
X148664714Y-129950380D01*
X149950428Y-128950380D02*
X149759952Y-128950380D01*
X149664714Y-128998000D01*
X149617095Y-129045619D01*
X149521857Y-129188476D01*
X149474238Y-129378952D01*
X149474238Y-129759904D01*
X149521857Y-129855142D01*
X149569476Y-129902761D01*
X149664714Y-129950380D01*
X149855190Y-129950380D01*
X149950428Y-129902761D01*
X149998047Y-129855142D01*
X150045666Y-129759904D01*
X150045666Y-129521809D01*
X149998047Y-129426571D01*
X149950428Y-129378952D01*
X149855190Y-129331333D01*
X149664714Y-129331333D01*
X149569476Y-129378952D01*
X149521857Y-129426571D01*
X149474238Y-129521809D01*
X135251866Y-128941580D02*
X135251866Y-129655866D01*
X135204247Y-129798723D01*
X135109009Y-129893961D01*
X134966152Y-129941580D01*
X134870914Y-129941580D01*
X136204247Y-128941580D02*
X135728057Y-128941580D01*
X135680438Y-129417771D01*
X135728057Y-129370152D01*
X135823295Y-129322533D01*
X136061390Y-129322533D01*
X136156628Y-129370152D01*
X136204247Y-129417771D01*
X136251866Y-129513009D01*
X136251866Y-129751104D01*
X136204247Y-129846342D01*
X136156628Y-129893961D01*
X136061390Y-129941580D01*
X135823295Y-129941580D01*
X135728057Y-129893961D01*
X135680438Y-129846342D01*
X133845666Y-109970320D02*
X133845666Y-110684606D01*
X133798047Y-110827463D01*
X133702809Y-110922701D01*
X133559952Y-110970320D01*
X133464714Y-110970320D01*
X134226619Y-109970320D02*
X134845666Y-109970320D01*
X134512333Y-110351273D01*
X134655190Y-110351273D01*
X134750428Y-110398892D01*
X134798047Y-110446511D01*
X134845666Y-110541749D01*
X134845666Y-110779844D01*
X134798047Y-110875082D01*
X134750428Y-110922701D01*
X134655190Y-110970320D01*
X134369476Y-110970320D01*
X134274238Y-110922701D01*
X134226619Y-110875082D01*
X150695066Y-103617780D02*
X150695066Y-104332066D01*
X150647447Y-104474923D01*
X150552209Y-104570161D01*
X150409352Y-104617780D01*
X150314114Y-104617780D01*
X151123638Y-103713019D02*
X151171257Y-103665400D01*
X151266495Y-103617780D01*
X151504590Y-103617780D01*
X151599828Y-103665400D01*
X151647447Y-103713019D01*
X151695066Y-103808257D01*
X151695066Y-103903495D01*
X151647447Y-104046352D01*
X151076019Y-104617780D01*
X151695066Y-104617780D01*
X165915904Y-107750380D02*
X165915904Y-106750380D01*
X166154000Y-106750380D01*
X166296857Y-106798000D01*
X166392095Y-106893238D01*
X166439714Y-106988476D01*
X166487333Y-107178952D01*
X166487333Y-107321809D01*
X166439714Y-107512285D01*
X166392095Y-107607523D01*
X166296857Y-107702761D01*
X166154000Y-107750380D01*
X165915904Y-107750380D01*
X167392095Y-106750380D02*
X166915904Y-106750380D01*
X166868285Y-107226571D01*
X166915904Y-107178952D01*
X167011142Y-107131333D01*
X167249238Y-107131333D01*
X167344476Y-107178952D01*
X167392095Y-107226571D01*
X167439714Y-107321809D01*
X167439714Y-107559904D01*
X167392095Y-107655142D01*
X167344476Y-107702761D01*
X167249238Y-107750380D01*
X167011142Y-107750380D01*
X166915904Y-107702761D01*
X166868285Y-107655142D01*
X172890904Y-107775380D02*
X172890904Y-106775380D01*
X173129000Y-106775380D01*
X173271857Y-106823000D01*
X173367095Y-106918238D01*
X173414714Y-107013476D01*
X173462333Y-107203952D01*
X173462333Y-107346809D01*
X173414714Y-107537285D01*
X173367095Y-107632523D01*
X173271857Y-107727761D01*
X173129000Y-107775380D01*
X172890904Y-107775380D01*
X173795666Y-106775380D02*
X174414714Y-106775380D01*
X174081380Y-107156333D01*
X174224238Y-107156333D01*
X174319476Y-107203952D01*
X174367095Y-107251571D01*
X174414714Y-107346809D01*
X174414714Y-107584904D01*
X174367095Y-107680142D01*
X174319476Y-107727761D01*
X174224238Y-107775380D01*
X173938523Y-107775380D01*
X173843285Y-107727761D01*
X173795666Y-107680142D01*
X169715904Y-107775380D02*
X169715904Y-106775380D01*
X169954000Y-106775380D01*
X170096857Y-106823000D01*
X170192095Y-106918238D01*
X170239714Y-107013476D01*
X170287333Y-107203952D01*
X170287333Y-107346809D01*
X170239714Y-107537285D01*
X170192095Y-107632523D01*
X170096857Y-107727761D01*
X169954000Y-107775380D01*
X169715904Y-107775380D01*
X171144476Y-107108714D02*
X171144476Y-107775380D01*
X170906380Y-106727761D02*
X170668285Y-107442047D01*
X171287333Y-107442047D01*
X128154204Y-112440980D02*
X128154204Y-111440980D01*
X128392300Y-111440980D01*
X128535157Y-111488600D01*
X128630395Y-111583838D01*
X128678014Y-111679076D01*
X128725633Y-111869552D01*
X128725633Y-112012409D01*
X128678014Y-112202885D01*
X128630395Y-112298123D01*
X128535157Y-112393361D01*
X128392300Y-112440980D01*
X128154204Y-112440980D01*
X129678014Y-112440980D02*
X129106585Y-112440980D01*
X129392300Y-112440980D02*
X129392300Y-111440980D01*
X129297061Y-111583838D01*
X129201823Y-111679076D01*
X129106585Y-111726695D01*
X171040822Y-87914662D02*
X170993203Y-87962281D01*
X170850346Y-88009900D01*
X170755108Y-88009900D01*
X170612251Y-87962281D01*
X170517013Y-87867043D01*
X170469394Y-87771805D01*
X170421775Y-87581329D01*
X170421775Y-87438472D01*
X170469394Y-87247996D01*
X170517013Y-87152758D01*
X170612251Y-87057520D01*
X170755108Y-87009900D01*
X170850346Y-87009900D01*
X170993203Y-87057520D01*
X171040822Y-87105139D01*
X171421775Y-87105139D02*
X171469394Y-87057520D01*
X171564632Y-87009900D01*
X171802727Y-87009900D01*
X171897965Y-87057520D01*
X171945584Y-87105139D01*
X171993203Y-87200377D01*
X171993203Y-87295615D01*
X171945584Y-87438472D01*
X171374156Y-88009900D01*
X171993203Y-88009900D01*
X172564632Y-87438472D02*
X172469394Y-87390853D01*
X172421775Y-87343234D01*
X172374156Y-87247996D01*
X172374156Y-87200377D01*
X172421775Y-87105139D01*
X172469394Y-87057520D01*
X172564632Y-87009900D01*
X172755108Y-87009900D01*
X172850346Y-87057520D01*
X172897965Y-87105139D01*
X172945584Y-87200377D01*
X172945584Y-87247996D01*
X172897965Y-87343234D01*
X172850346Y-87390853D01*
X172755108Y-87438472D01*
X172564632Y-87438472D01*
X172469394Y-87486091D01*
X172421775Y-87533710D01*
X172374156Y-87628948D01*
X172374156Y-87819424D01*
X172421775Y-87914662D01*
X172469394Y-87962281D01*
X172564632Y-88009900D01*
X172755108Y-88009900D01*
X172850346Y-87962281D01*
X172897965Y-87914662D01*
X172945584Y-87819424D01*
X172945584Y-87628948D01*
X172897965Y-87533710D01*
X172850346Y-87486091D01*
X172755108Y-87438472D01*
X162897582Y-85089002D02*
X162849963Y-85136621D01*
X162707106Y-85184240D01*
X162611868Y-85184240D01*
X162469011Y-85136621D01*
X162373773Y-85041383D01*
X162326154Y-84946145D01*
X162278535Y-84755669D01*
X162278535Y-84612812D01*
X162326154Y-84422336D01*
X162373773Y-84327098D01*
X162469011Y-84231860D01*
X162611868Y-84184240D01*
X162707106Y-84184240D01*
X162849963Y-84231860D01*
X162897582Y-84279479D01*
X163278535Y-84279479D02*
X163326154Y-84231860D01*
X163421392Y-84184240D01*
X163659487Y-84184240D01*
X163754725Y-84231860D01*
X163802344Y-84279479D01*
X163849963Y-84374717D01*
X163849963Y-84469955D01*
X163802344Y-84612812D01*
X163230916Y-85184240D01*
X163849963Y-85184240D01*
X164183297Y-84184240D02*
X164849963Y-84184240D01*
X164421392Y-85184240D01*
X113602942Y-109230942D02*
X113555323Y-109278561D01*
X113412466Y-109326180D01*
X113317228Y-109326180D01*
X113174371Y-109278561D01*
X113079133Y-109183323D01*
X113031514Y-109088085D01*
X112983895Y-108897609D01*
X112983895Y-108754752D01*
X113031514Y-108564276D01*
X113079133Y-108469038D01*
X113174371Y-108373800D01*
X113317228Y-108326180D01*
X113412466Y-108326180D01*
X113555323Y-108373800D01*
X113602942Y-108421419D01*
X113983895Y-108421419D02*
X114031514Y-108373800D01*
X114126752Y-108326180D01*
X114364847Y-108326180D01*
X114460085Y-108373800D01*
X114507704Y-108421419D01*
X114555323Y-108516657D01*
X114555323Y-108611895D01*
X114507704Y-108754752D01*
X113936276Y-109326180D01*
X114555323Y-109326180D01*
X115412466Y-108659514D02*
X115412466Y-109326180D01*
X115174371Y-108278561D02*
X114936276Y-108992847D01*
X115555323Y-108992847D01*
X118379002Y-103105222D02*
X118331383Y-103152841D01*
X118188526Y-103200460D01*
X118093288Y-103200460D01*
X117950431Y-103152841D01*
X117855193Y-103057603D01*
X117807574Y-102962365D01*
X117759955Y-102771889D01*
X117759955Y-102629032D01*
X117807574Y-102438556D01*
X117855193Y-102343318D01*
X117950431Y-102248080D01*
X118093288Y-102200460D01*
X118188526Y-102200460D01*
X118331383Y-102248080D01*
X118379002Y-102295699D01*
X118759955Y-102295699D02*
X118807574Y-102248080D01*
X118902812Y-102200460D01*
X119140907Y-102200460D01*
X119236145Y-102248080D01*
X119283764Y-102295699D01*
X119331383Y-102390937D01*
X119331383Y-102486175D01*
X119283764Y-102629032D01*
X118712336Y-103200460D01*
X119331383Y-103200460D01*
X119664717Y-102200460D02*
X120283764Y-102200460D01*
X119950431Y-102581413D01*
X120093288Y-102581413D01*
X120188526Y-102629032D01*
X120236145Y-102676651D01*
X120283764Y-102771889D01*
X120283764Y-103009984D01*
X120236145Y-103105222D01*
X120188526Y-103152841D01*
X120093288Y-103200460D01*
X119807574Y-103200460D01*
X119712336Y-103152841D01*
X119664717Y-103105222D01*
X115711142Y-146173462D02*
X115663523Y-146221081D01*
X115520666Y-146268700D01*
X115425428Y-146268700D01*
X115282571Y-146221081D01*
X115187333Y-146125843D01*
X115139714Y-146030605D01*
X115092095Y-145840129D01*
X115092095Y-145697272D01*
X115139714Y-145506796D01*
X115187333Y-145411558D01*
X115282571Y-145316320D01*
X115425428Y-145268700D01*
X115520666Y-145268700D01*
X115663523Y-145316320D01*
X115711142Y-145363939D01*
X116092095Y-145363939D02*
X116139714Y-145316320D01*
X116234952Y-145268700D01*
X116473047Y-145268700D01*
X116568285Y-145316320D01*
X116615904Y-145363939D01*
X116663523Y-145459177D01*
X116663523Y-145554415D01*
X116615904Y-145697272D01*
X116044476Y-146268700D01*
X116663523Y-146268700D01*
X117615904Y-146268700D02*
X117044476Y-146268700D01*
X117330190Y-146268700D02*
X117330190Y-145268700D01*
X117234952Y-145411558D01*
X117139714Y-145506796D01*
X117044476Y-145554415D01*
X158002142Y-130693942D02*
X157954523Y-130741561D01*
X157811666Y-130789180D01*
X157716428Y-130789180D01*
X157573571Y-130741561D01*
X157478333Y-130646323D01*
X157430714Y-130551085D01*
X157383095Y-130360609D01*
X157383095Y-130217752D01*
X157430714Y-130027276D01*
X157478333Y-129932038D01*
X157573571Y-129836800D01*
X157716428Y-129789180D01*
X157811666Y-129789180D01*
X157954523Y-129836800D01*
X158002142Y-129884419D01*
X158383095Y-129884419D02*
X158430714Y-129836800D01*
X158525952Y-129789180D01*
X158764047Y-129789180D01*
X158859285Y-129836800D01*
X158906904Y-129884419D01*
X158954523Y-129979657D01*
X158954523Y-130074895D01*
X158906904Y-130217752D01*
X158335476Y-130789180D01*
X158954523Y-130789180D01*
X159573571Y-129789180D02*
X159668809Y-129789180D01*
X159764047Y-129836800D01*
X159811666Y-129884419D01*
X159859285Y-129979657D01*
X159906904Y-130170133D01*
X159906904Y-130408228D01*
X159859285Y-130598704D01*
X159811666Y-130693942D01*
X159764047Y-130741561D01*
X159668809Y-130789180D01*
X159573571Y-130789180D01*
X159478333Y-130741561D01*
X159430714Y-130693942D01*
X159383095Y-130598704D01*
X159335476Y-130408228D01*
X159335476Y-130170133D01*
X159383095Y-129979657D01*
X159430714Y-129884419D01*
X159478333Y-129836800D01*
X159573571Y-129789180D01*
M02*
