%TF.GenerationSoftware,KiCad,Pcbnew,(5.1.9)-1*%
%TF.CreationDate,2021-07-15T19:39:04-04:00*%
%TF.ProjectId,detector_circuit_LTC6269,64657465-6374-46f7-925f-636972637569,rev?*%
%TF.SameCoordinates,Original*%
%TF.FileFunction,Soldermask,Bot*%
%TF.FilePolarity,Negative*%
%FSLAX46Y46*%
G04 Gerber Fmt 4.6, Leading zero omitted, Abs format (unit mm)*
G04 Created by KiCad (PCBNEW (5.1.9)-1) date 2021-07-15 19:39:04*
%MOMM*%
%LPD*%
G01*
G04 APERTURE LIST*
%ADD10C,7.101600*%
%ADD11O,1.801600X1.801600*%
G04 APERTURE END LIST*
D10*
%TO.C,REF\u002A\u002A*%
X146621500Y-100457000D03*
%TD*%
%TO.C,REF\u002A\u002A*%
X146621500Y-140970000D03*
%TD*%
D11*
%TO.C,J3*%
X104203500Y-98679000D03*
X106743500Y-98679000D03*
X109283500Y-98679000D03*
G36*
G01*
X110973500Y-97778200D02*
X112673500Y-97778200D01*
G75*
G02*
X112724300Y-97829000I0J-50800D01*
G01*
X112724300Y-99529000D01*
G75*
G02*
X112673500Y-99579800I-50800J0D01*
G01*
X110973500Y-99579800D01*
G75*
G02*
X110922700Y-99529000I0J50800D01*
G01*
X110922700Y-97829000D01*
G75*
G02*
X110973500Y-97778200I50800J0D01*
G01*
G37*
%TD*%
%TO.C,J2*%
X144653000Y-117475000D03*
G36*
G01*
X145553800Y-119165000D02*
X145553800Y-120865000D01*
G75*
G02*
X145503000Y-120915800I-50800J0D01*
G01*
X143803000Y-120915800D01*
G75*
G02*
X143752200Y-120865000I0J50800D01*
G01*
X143752200Y-119165000D01*
G75*
G02*
X143803000Y-119114200I50800J0D01*
G01*
X145503000Y-119114200D01*
G75*
G02*
X145553800Y-119165000I0J-50800D01*
G01*
G37*
%TD*%
%TO.C,J1*%
X144653000Y-110363000D03*
G36*
G01*
X143752200Y-108673000D02*
X143752200Y-106973000D01*
G75*
G02*
X143803000Y-106922200I50800J0D01*
G01*
X145503000Y-106922200D01*
G75*
G02*
X145553800Y-106973000I0J-50800D01*
G01*
X145553800Y-108673000D01*
G75*
G02*
X145503000Y-108723800I-50800J0D01*
G01*
X143803000Y-108723800D01*
G75*
G02*
X143752200Y-108673000I0J50800D01*
G01*
G37*
%TD*%
D10*
%TO.C,REF\u002A\u002A*%
X90170000Y-140970000D03*
%TD*%
%TO.C,TP15*%
G36*
G01*
X112764200Y-139915000D02*
X112764200Y-138215000D01*
G75*
G02*
X112815000Y-138164200I50800J0D01*
G01*
X114515000Y-138164200D01*
G75*
G02*
X114565800Y-138215000I0J-50800D01*
G01*
X114565800Y-139915000D01*
G75*
G02*
X114515000Y-139965800I-50800J0D01*
G01*
X112815000Y-139965800D01*
G75*
G02*
X112764200Y-139915000I0J50800D01*
G01*
G37*
%TD*%
D11*
%TO.C,JP1*%
X119507000Y-119761000D03*
G36*
G01*
X120407800Y-121451000D02*
X120407800Y-123151000D01*
G75*
G02*
X120357000Y-123201800I-50800J0D01*
G01*
X118657000Y-123201800D01*
G75*
G02*
X118606200Y-123151000I0J50800D01*
G01*
X118606200Y-121451000D01*
G75*
G02*
X118657000Y-121400200I50800J0D01*
G01*
X120357000Y-121400200D01*
G75*
G02*
X120407800Y-121451000I0J-50800D01*
G01*
G37*
%TD*%
%TO.C,TP1*%
G36*
G01*
X124245000Y-105398200D02*
X125945000Y-105398200D01*
G75*
G02*
X125995800Y-105449000I0J-50800D01*
G01*
X125995800Y-107149000D01*
G75*
G02*
X125945000Y-107199800I-50800J0D01*
G01*
X124245000Y-107199800D01*
G75*
G02*
X124194200Y-107149000I0J50800D01*
G01*
X124194200Y-105449000D01*
G75*
G02*
X124245000Y-105398200I50800J0D01*
G01*
G37*
%TD*%
%TO.C,JP5*%
X91313000Y-134874000D03*
G36*
G01*
X89623000Y-135774800D02*
X87923000Y-135774800D01*
G75*
G02*
X87872200Y-135724000I0J50800D01*
G01*
X87872200Y-134024000D01*
G75*
G02*
X87923000Y-133973200I50800J0D01*
G01*
X89623000Y-133973200D01*
G75*
G02*
X89673800Y-134024000I0J-50800D01*
G01*
X89673800Y-135724000D01*
G75*
G02*
X89623000Y-135774800I-50800J0D01*
G01*
G37*
%TD*%
M02*
