M48
; DRILL file {KiCad (5.1.9)-1} date 07/15/21 19:39:09
; FORMAT={-:-/ absolute / inch / decimal}
; #@! TF.CreationDate,2021-07-15T19:39:09-04:00
; #@! TF.GenerationSoftware,Kicad,Pcbnew,(5.1.9)-1
; #@! TF.FileFunction,Plated,1,4,PTH
FMAT,2
INCH
T1C0.0157
T2C0.0394
T3C0.1378
%
G90
G05
T1
X3.975Y-5.535
X4.19Y-5.15
X4.32Y-4.82
X4.33Y-5.22
X4.33Y-5.535
X4.335Y-4.55
X4.445Y-4.815
X4.46Y-4.545
X4.495Y-3.9575
X4.5425Y-4.5075
X4.5454Y-5.2896
X4.61Y-4.345
X4.67Y-5.285
X4.7041Y-4.5334
X4.835Y-4.345
X4.9Y-4.85
X5.025Y-4.85
T2
X3.495Y-5.31
X3.595Y-5.31
X4.1025Y-3.885
X4.2025Y-3.885
X4.3025Y-3.885
X4.4025Y-3.885
X4.475Y-5.475
X4.705Y-4.715
X4.705Y-4.815
X4.925Y-4.185
X5.695Y-4.245
X5.695Y-4.345
X5.695Y-4.625
X5.695Y-4.725
T3
X3.55Y-5.55
X5.7725Y-3.955
X5.7725Y-5.55
T0
M30
