%TF.GenerationSoftware,KiCad,Pcbnew,(5.1.9)-1*%
%TF.CreationDate,2021-07-10T10:06:25-04:00*%
%TF.ProjectId,detector_circuit_LTC6269,64657465-6374-46f7-925f-636972637569,rev?*%
%TF.SameCoordinates,Original*%
%TF.FileFunction,Copper,L4,Bot*%
%TF.FilePolarity,Positive*%
%FSLAX46Y46*%
G04 Gerber Fmt 4.6, Leading zero omitted, Abs format (unit mm)*
G04 Created by KiCad (PCBNEW (5.1.9)-1) date 2021-07-10 10:06:25*
%MOMM*%
%LPD*%
G01*
G04 APERTURE LIST*
%TA.AperFunction,ComponentPad*%
%ADD10C,7.000000*%
%TD*%
%TA.AperFunction,ComponentPad*%
%ADD11O,1.700000X1.700000*%
%TD*%
%TA.AperFunction,ComponentPad*%
%ADD12R,1.700000X1.700000*%
%TD*%
%TA.AperFunction,ViaPad*%
%ADD13C,0.800000*%
%TD*%
%TA.AperFunction,Conductor*%
%ADD14C,0.420000*%
%TD*%
%TA.AperFunction,Conductor*%
%ADD15C,1.000000*%
%TD*%
%TA.AperFunction,Conductor*%
%ADD16C,0.254000*%
%TD*%
%TA.AperFunction,Conductor*%
%ADD17C,0.100000*%
%TD*%
G04 APERTURE END LIST*
D10*
%TO.P,REF\u002A\u002A,1*%
%TO.N,N/C*%
X146621500Y-100457000D03*
%TD*%
%TO.P,REF\u002A\u002A,1*%
%TO.N,N/C*%
X146621500Y-140970000D03*
%TD*%
D11*
%TO.P,J3,4*%
%TO.N,/SIPM_OUT*%
X104203500Y-98679000D03*
%TO.P,J3,3*%
%TO.N,/DET_ADC*%
X106743500Y-98679000D03*
%TO.P,J3,2*%
%TO.N,/AMP_OUT*%
X109283500Y-98679000D03*
D12*
%TO.P,J3,1*%
%TO.N,GND*%
X111823500Y-98679000D03*
%TD*%
D11*
%TO.P,J2,2*%
%TO.N,N/C*%
X144653000Y-117475000D03*
D12*
%TO.P,J2,1*%
%TO.N,/SIPM_OUT*%
X144653000Y-120015000D03*
%TD*%
D11*
%TO.P,J1,2*%
%TO.N,+4.7V*%
X144653000Y-110363000D03*
D12*
%TO.P,J1,1*%
%TO.N,GND*%
X144653000Y-107823000D03*
%TD*%
D10*
%TO.P,REF\u002A\u002A,1*%
%TO.N,N/C*%
X90170000Y-140970000D03*
%TD*%
D12*
%TO.P,TP15,1*%
%TO.N,Net-(C18-Pad2)*%
X113665000Y-139065000D03*
%TD*%
D11*
%TO.P,JP1,2*%
%TO.N,/AMP_OUT*%
X119507000Y-119761000D03*
D12*
%TO.P,JP1,1*%
%TO.N,Net-(C36-Pad1)*%
X119507000Y-122301000D03*
%TD*%
%TO.P,TP1,1*%
%TO.N,/DET_ADC*%
X125095000Y-106299000D03*
%TD*%
D11*
%TO.P,JP5,2*%
%TO.N,/Filter_IN*%
X91313000Y-134874000D03*
D12*
%TO.P,JP5,1*%
%TO.N,Net-(C31-Pad1)*%
X88773000Y-134874000D03*
%TD*%
D13*
%TO.N,GND*%
X124460000Y-123190000D03*
X109982000Y-140589000D03*
X100965000Y-140589000D03*
X106426000Y-130810000D03*
X117094000Y-110363000D03*
X127635000Y-123190000D03*
X118618000Y-134239000D03*
X109728000Y-122428000D03*
X112903000Y-122301000D03*
X110109000Y-115570000D03*
X113284000Y-115443000D03*
X119484500Y-115148000D03*
X115452000Y-134357000D03*
X114173000Y-100520500D03*
%TO.N,/AMP_OUT*%
X115379500Y-114490500D03*
%TO.N,+4.7V*%
X109982000Y-132588000D03*
X122809000Y-110363000D03*
%TD*%
D14*
%TO.N,/AMP_OUT*%
X119507000Y-119761000D02*
X115379500Y-115633500D01*
X115379500Y-115633500D02*
X115379500Y-114490500D01*
X115379500Y-114490500D02*
X115379500Y-114490500D01*
D15*
X108585000Y-107696000D02*
X115379500Y-114490500D01*
X108585000Y-99187000D02*
X108585000Y-107696000D01*
%TD*%
D16*
%TO.N,GND*%
X147650585Y-94360540D02*
X148592388Y-94586647D01*
X149487239Y-94957307D01*
X150313075Y-95463379D01*
X151049583Y-96092417D01*
X151678620Y-96828925D01*
X152184694Y-97654764D01*
X152555353Y-98549612D01*
X152781460Y-99491420D01*
X152858001Y-100463963D01*
X152858000Y-140963050D01*
X152781460Y-141935580D01*
X152555353Y-142877388D01*
X152184694Y-143772236D01*
X151678620Y-144598075D01*
X151049583Y-145334583D01*
X150313075Y-145963621D01*
X149487239Y-146469693D01*
X148592388Y-146840353D01*
X147833104Y-147022641D01*
X89021900Y-147022641D01*
X88262612Y-146840353D01*
X87367764Y-146469694D01*
X86541925Y-145963620D01*
X85805417Y-145334583D01*
X85176379Y-144598075D01*
X84670307Y-143772239D01*
X84299647Y-142877388D01*
X84073540Y-141935585D01*
X84010500Y-141134585D01*
X84010500Y-140593073D01*
X86343000Y-140593073D01*
X86343000Y-141346927D01*
X86490070Y-142086295D01*
X86778557Y-142782764D01*
X87197375Y-143409570D01*
X87730430Y-143942625D01*
X88357236Y-144361443D01*
X89053705Y-144649930D01*
X89793073Y-144797000D01*
X90546927Y-144797000D01*
X91286295Y-144649930D01*
X91982764Y-144361443D01*
X92609570Y-143942625D01*
X93142625Y-143409570D01*
X93561443Y-142782764D01*
X93849930Y-142086295D01*
X93997000Y-141346927D01*
X93997000Y-140593073D01*
X142794500Y-140593073D01*
X142794500Y-141346927D01*
X142941570Y-142086295D01*
X143230057Y-142782764D01*
X143648875Y-143409570D01*
X144181930Y-143942625D01*
X144808736Y-144361443D01*
X145505205Y-144649930D01*
X146244573Y-144797000D01*
X146998427Y-144797000D01*
X147737795Y-144649930D01*
X148434264Y-144361443D01*
X149061070Y-143942625D01*
X149594125Y-143409570D01*
X150012943Y-142782764D01*
X150301430Y-142086295D01*
X150448500Y-141346927D01*
X150448500Y-140593073D01*
X150301430Y-139853705D01*
X150012943Y-139157236D01*
X149594125Y-138530430D01*
X149061070Y-137997375D01*
X148434264Y-137578557D01*
X147737795Y-137290070D01*
X146998427Y-137143000D01*
X146244573Y-137143000D01*
X145505205Y-137290070D01*
X144808736Y-137578557D01*
X144181930Y-137997375D01*
X143648875Y-138530430D01*
X143230057Y-139157236D01*
X142941570Y-139853705D01*
X142794500Y-140593073D01*
X93997000Y-140593073D01*
X93849930Y-139853705D01*
X93561443Y-139157236D01*
X93142625Y-138530430D01*
X92827195Y-138215000D01*
X112486418Y-138215000D01*
X112486418Y-139915000D01*
X112492732Y-139979103D01*
X112511430Y-140040743D01*
X112541794Y-140097550D01*
X112582657Y-140147343D01*
X112632450Y-140188206D01*
X112689257Y-140218570D01*
X112750897Y-140237268D01*
X112815000Y-140243582D01*
X114515000Y-140243582D01*
X114579103Y-140237268D01*
X114640743Y-140218570D01*
X114697550Y-140188206D01*
X114747343Y-140147343D01*
X114788206Y-140097550D01*
X114818570Y-140040743D01*
X114837268Y-139979103D01*
X114843582Y-139915000D01*
X114843582Y-138215000D01*
X114837268Y-138150897D01*
X114818570Y-138089257D01*
X114788206Y-138032450D01*
X114747343Y-137982657D01*
X114697550Y-137941794D01*
X114640743Y-137911430D01*
X114579103Y-137892732D01*
X114515000Y-137886418D01*
X112815000Y-137886418D01*
X112750897Y-137892732D01*
X112689257Y-137911430D01*
X112632450Y-137941794D01*
X112582657Y-137982657D01*
X112541794Y-138032450D01*
X112511430Y-138089257D01*
X112492732Y-138150897D01*
X112486418Y-138215000D01*
X92827195Y-138215000D01*
X92609570Y-137997375D01*
X91982764Y-137578557D01*
X91286295Y-137290070D01*
X90546927Y-137143000D01*
X89793073Y-137143000D01*
X89053705Y-137290070D01*
X88357236Y-137578557D01*
X87730430Y-137997375D01*
X87197375Y-138530430D01*
X86778557Y-139157236D01*
X86490070Y-139853705D01*
X86343000Y-140593073D01*
X84010500Y-140593073D01*
X84010500Y-134024000D01*
X87594418Y-134024000D01*
X87594418Y-135724000D01*
X87600732Y-135788103D01*
X87619430Y-135849743D01*
X87649794Y-135906550D01*
X87690657Y-135956343D01*
X87740450Y-135997206D01*
X87797257Y-136027570D01*
X87858897Y-136046268D01*
X87923000Y-136052582D01*
X89623000Y-136052582D01*
X89687103Y-136046268D01*
X89748743Y-136027570D01*
X89805550Y-135997206D01*
X89855343Y-135956343D01*
X89896206Y-135906550D01*
X89926570Y-135849743D01*
X89945268Y-135788103D01*
X89951582Y-135724000D01*
X89951582Y-134758076D01*
X90136000Y-134758076D01*
X90136000Y-134989924D01*
X90181231Y-135217318D01*
X90269956Y-135431519D01*
X90398764Y-135624294D01*
X90562706Y-135788236D01*
X90755481Y-135917044D01*
X90969682Y-136005769D01*
X91197076Y-136051000D01*
X91428924Y-136051000D01*
X91656318Y-136005769D01*
X91870519Y-135917044D01*
X92063294Y-135788236D01*
X92227236Y-135624294D01*
X92356044Y-135431519D01*
X92444769Y-135217318D01*
X92490000Y-134989924D01*
X92490000Y-134758076D01*
X92444769Y-134530682D01*
X92356044Y-134316481D01*
X92227236Y-134123706D01*
X92063294Y-133959764D01*
X91870519Y-133830956D01*
X91656318Y-133742231D01*
X91428924Y-133697000D01*
X91197076Y-133697000D01*
X90969682Y-133742231D01*
X90755481Y-133830956D01*
X90562706Y-133959764D01*
X90398764Y-134123706D01*
X90269956Y-134316481D01*
X90181231Y-134530682D01*
X90136000Y-134758076D01*
X89951582Y-134758076D01*
X89951582Y-134024000D01*
X89945268Y-133959897D01*
X89926570Y-133898257D01*
X89896206Y-133841450D01*
X89855343Y-133791657D01*
X89805550Y-133750794D01*
X89748743Y-133720430D01*
X89687103Y-133701732D01*
X89623000Y-133695418D01*
X87923000Y-133695418D01*
X87858897Y-133701732D01*
X87797257Y-133720430D01*
X87740450Y-133750794D01*
X87690657Y-133791657D01*
X87649794Y-133841450D01*
X87619430Y-133898257D01*
X87600732Y-133959897D01*
X87594418Y-134024000D01*
X84010500Y-134024000D01*
X84010500Y-132516397D01*
X109255000Y-132516397D01*
X109255000Y-132659603D01*
X109282938Y-132800058D01*
X109337741Y-132932364D01*
X109417302Y-133051436D01*
X109518564Y-133152698D01*
X109637636Y-133232259D01*
X109769942Y-133287062D01*
X109910397Y-133315000D01*
X110053603Y-133315000D01*
X110194058Y-133287062D01*
X110326364Y-133232259D01*
X110445436Y-133152698D01*
X110546698Y-133051436D01*
X110626259Y-132932364D01*
X110681062Y-132800058D01*
X110709000Y-132659603D01*
X110709000Y-132516397D01*
X110681062Y-132375942D01*
X110626259Y-132243636D01*
X110546698Y-132124564D01*
X110445436Y-132023302D01*
X110326364Y-131943741D01*
X110194058Y-131888938D01*
X110053603Y-131861000D01*
X109910397Y-131861000D01*
X109769942Y-131888938D01*
X109637636Y-131943741D01*
X109518564Y-132023302D01*
X109417302Y-132124564D01*
X109337741Y-132243636D01*
X109282938Y-132375942D01*
X109255000Y-132516397D01*
X84010500Y-132516397D01*
X84010500Y-121451000D01*
X118328418Y-121451000D01*
X118328418Y-123151000D01*
X118334732Y-123215103D01*
X118353430Y-123276743D01*
X118383794Y-123333550D01*
X118424657Y-123383343D01*
X118474450Y-123424206D01*
X118531257Y-123454570D01*
X118592897Y-123473268D01*
X118657000Y-123479582D01*
X120357000Y-123479582D01*
X120421103Y-123473268D01*
X120482743Y-123454570D01*
X120539550Y-123424206D01*
X120589343Y-123383343D01*
X120630206Y-123333550D01*
X120660570Y-123276743D01*
X120679268Y-123215103D01*
X120685582Y-123151000D01*
X120685582Y-121451000D01*
X120679268Y-121386897D01*
X120660570Y-121325257D01*
X120630206Y-121268450D01*
X120589343Y-121218657D01*
X120539550Y-121177794D01*
X120482743Y-121147430D01*
X120421103Y-121128732D01*
X120357000Y-121122418D01*
X118657000Y-121122418D01*
X118592897Y-121128732D01*
X118531257Y-121147430D01*
X118474450Y-121177794D01*
X118424657Y-121218657D01*
X118383794Y-121268450D01*
X118353430Y-121325257D01*
X118334732Y-121386897D01*
X118328418Y-121451000D01*
X84010500Y-121451000D01*
X84010500Y-100292415D01*
X84073540Y-99491415D01*
X84296414Y-98563076D01*
X103026500Y-98563076D01*
X103026500Y-98794924D01*
X103071731Y-99022318D01*
X103160456Y-99236519D01*
X103289264Y-99429294D01*
X103453206Y-99593236D01*
X103645981Y-99722044D01*
X103860182Y-99810769D01*
X104087576Y-99856000D01*
X104319424Y-99856000D01*
X104546818Y-99810769D01*
X104761019Y-99722044D01*
X104953794Y-99593236D01*
X105117736Y-99429294D01*
X105246544Y-99236519D01*
X105335269Y-99022318D01*
X105380500Y-98794924D01*
X105380500Y-98563076D01*
X105566500Y-98563076D01*
X105566500Y-98794924D01*
X105611731Y-99022318D01*
X105700456Y-99236519D01*
X105829264Y-99429294D01*
X105993206Y-99593236D01*
X106185981Y-99722044D01*
X106400182Y-99810769D01*
X106627576Y-99856000D01*
X106859424Y-99856000D01*
X107086818Y-99810769D01*
X107301019Y-99722044D01*
X107493794Y-99593236D01*
X107657736Y-99429294D01*
X107758000Y-99279238D01*
X107758001Y-107655376D01*
X107754000Y-107696000D01*
X107769967Y-107858120D01*
X107817256Y-108014010D01*
X107894048Y-108157679D01*
X107971498Y-108252051D01*
X107997395Y-108283606D01*
X108028948Y-108309501D01*
X114823448Y-115104002D01*
X114842500Y-115119638D01*
X114842500Y-115607132D01*
X114839903Y-115633500D01*
X114842500Y-115659868D01*
X114842500Y-115659877D01*
X114850270Y-115738769D01*
X114880976Y-115839994D01*
X114930841Y-115933285D01*
X114997947Y-116015053D01*
X115018436Y-116031868D01*
X118383730Y-119397163D01*
X118375231Y-119417682D01*
X118330000Y-119645076D01*
X118330000Y-119876924D01*
X118375231Y-120104318D01*
X118463956Y-120318519D01*
X118592764Y-120511294D01*
X118756706Y-120675236D01*
X118949481Y-120804044D01*
X119163682Y-120892769D01*
X119391076Y-120938000D01*
X119622924Y-120938000D01*
X119850318Y-120892769D01*
X120064519Y-120804044D01*
X120257294Y-120675236D01*
X120421236Y-120511294D01*
X120550044Y-120318519D01*
X120638769Y-120104318D01*
X120684000Y-119876924D01*
X120684000Y-119645076D01*
X120638769Y-119417682D01*
X120550044Y-119203481D01*
X120524332Y-119165000D01*
X143474418Y-119165000D01*
X143474418Y-120865000D01*
X143480732Y-120929103D01*
X143499430Y-120990743D01*
X143529794Y-121047550D01*
X143570657Y-121097343D01*
X143620450Y-121138206D01*
X143677257Y-121168570D01*
X143738897Y-121187268D01*
X143803000Y-121193582D01*
X145503000Y-121193582D01*
X145567103Y-121187268D01*
X145628743Y-121168570D01*
X145685550Y-121138206D01*
X145735343Y-121097343D01*
X145776206Y-121047550D01*
X145806570Y-120990743D01*
X145825268Y-120929103D01*
X145831582Y-120865000D01*
X145831582Y-119165000D01*
X145825268Y-119100897D01*
X145806570Y-119039257D01*
X145776206Y-118982450D01*
X145735343Y-118932657D01*
X145685550Y-118891794D01*
X145628743Y-118861430D01*
X145567103Y-118842732D01*
X145503000Y-118836418D01*
X143803000Y-118836418D01*
X143738897Y-118842732D01*
X143677257Y-118861430D01*
X143620450Y-118891794D01*
X143570657Y-118932657D01*
X143529794Y-118982450D01*
X143499430Y-119039257D01*
X143480732Y-119100897D01*
X143474418Y-119165000D01*
X120524332Y-119165000D01*
X120421236Y-119010706D01*
X120257294Y-118846764D01*
X120064519Y-118717956D01*
X119850318Y-118629231D01*
X119622924Y-118584000D01*
X119391076Y-118584000D01*
X119163682Y-118629231D01*
X119143163Y-118637730D01*
X117864509Y-117359076D01*
X143476000Y-117359076D01*
X143476000Y-117590924D01*
X143521231Y-117818318D01*
X143609956Y-118032519D01*
X143738764Y-118225294D01*
X143902706Y-118389236D01*
X144095481Y-118518044D01*
X144309682Y-118606769D01*
X144537076Y-118652000D01*
X144768924Y-118652000D01*
X144996318Y-118606769D01*
X145210519Y-118518044D01*
X145403294Y-118389236D01*
X145567236Y-118225294D01*
X145696044Y-118032519D01*
X145784769Y-117818318D01*
X145830000Y-117590924D01*
X145830000Y-117359076D01*
X145784769Y-117131682D01*
X145696044Y-116917481D01*
X145567236Y-116724706D01*
X145403294Y-116560764D01*
X145210519Y-116431956D01*
X144996318Y-116343231D01*
X144768924Y-116298000D01*
X144537076Y-116298000D01*
X144309682Y-116343231D01*
X144095481Y-116431956D01*
X143902706Y-116560764D01*
X143738764Y-116724706D01*
X143609956Y-116917481D01*
X143521231Y-117131682D01*
X143476000Y-117359076D01*
X117864509Y-117359076D01*
X115916500Y-115411068D01*
X115916500Y-115119637D01*
X115967106Y-115078106D01*
X116070452Y-114952179D01*
X116147244Y-114808510D01*
X116194533Y-114652620D01*
X116210500Y-114490499D01*
X116194533Y-114328379D01*
X116147244Y-114172489D01*
X116070452Y-114028820D01*
X115993002Y-113934448D01*
X112349951Y-110291397D01*
X122082000Y-110291397D01*
X122082000Y-110434603D01*
X122109938Y-110575058D01*
X122164741Y-110707364D01*
X122244302Y-110826436D01*
X122345564Y-110927698D01*
X122464636Y-111007259D01*
X122596942Y-111062062D01*
X122737397Y-111090000D01*
X122880603Y-111090000D01*
X123021058Y-111062062D01*
X123153364Y-111007259D01*
X123272436Y-110927698D01*
X123373698Y-110826436D01*
X123453259Y-110707364D01*
X123508062Y-110575058D01*
X123536000Y-110434603D01*
X123536000Y-110291397D01*
X123527185Y-110247076D01*
X143476000Y-110247076D01*
X143476000Y-110478924D01*
X143521231Y-110706318D01*
X143609956Y-110920519D01*
X143738764Y-111113294D01*
X143902706Y-111277236D01*
X144095481Y-111406044D01*
X144309682Y-111494769D01*
X144537076Y-111540000D01*
X144768924Y-111540000D01*
X144996318Y-111494769D01*
X145210519Y-111406044D01*
X145403294Y-111277236D01*
X145567236Y-111113294D01*
X145696044Y-110920519D01*
X145784769Y-110706318D01*
X145830000Y-110478924D01*
X145830000Y-110247076D01*
X145784769Y-110019682D01*
X145696044Y-109805481D01*
X145567236Y-109612706D01*
X145403294Y-109448764D01*
X145210519Y-109319956D01*
X144996318Y-109231231D01*
X144768924Y-109186000D01*
X144537076Y-109186000D01*
X144309682Y-109231231D01*
X144095481Y-109319956D01*
X143902706Y-109448764D01*
X143738764Y-109612706D01*
X143609956Y-109805481D01*
X143521231Y-110019682D01*
X143476000Y-110247076D01*
X123527185Y-110247076D01*
X123508062Y-110150942D01*
X123453259Y-110018636D01*
X123373698Y-109899564D01*
X123272436Y-109798302D01*
X123153364Y-109718741D01*
X123021058Y-109663938D01*
X122880603Y-109636000D01*
X122737397Y-109636000D01*
X122596942Y-109663938D01*
X122464636Y-109718741D01*
X122345564Y-109798302D01*
X122244302Y-109899564D01*
X122164741Y-110018636D01*
X122109938Y-110150942D01*
X122082000Y-110291397D01*
X112349951Y-110291397D01*
X110731554Y-108673000D01*
X143420157Y-108673000D01*
X143427513Y-108747689D01*
X143449299Y-108819508D01*
X143484678Y-108885696D01*
X143532289Y-108943711D01*
X143590304Y-108991322D01*
X143656492Y-109026701D01*
X143728311Y-109048487D01*
X143803000Y-109055843D01*
X144557250Y-109054000D01*
X144652500Y-108958750D01*
X144652500Y-107823500D01*
X144653500Y-107823500D01*
X144653500Y-108958750D01*
X144748750Y-109054000D01*
X145503000Y-109055843D01*
X145577689Y-109048487D01*
X145649508Y-109026701D01*
X145715696Y-108991322D01*
X145773711Y-108943711D01*
X145821322Y-108885696D01*
X145856701Y-108819508D01*
X145878487Y-108747689D01*
X145885843Y-108673000D01*
X145884000Y-107918750D01*
X145788750Y-107823500D01*
X144653500Y-107823500D01*
X144652500Y-107823500D01*
X143517250Y-107823500D01*
X143422000Y-107918750D01*
X143420157Y-108673000D01*
X110731554Y-108673000D01*
X109412000Y-107353447D01*
X109412000Y-105449000D01*
X123916418Y-105449000D01*
X123916418Y-107149000D01*
X123922732Y-107213103D01*
X123941430Y-107274743D01*
X123971794Y-107331550D01*
X124012657Y-107381343D01*
X124062450Y-107422206D01*
X124119257Y-107452570D01*
X124180897Y-107471268D01*
X124245000Y-107477582D01*
X125945000Y-107477582D01*
X126009103Y-107471268D01*
X126070743Y-107452570D01*
X126127550Y-107422206D01*
X126177343Y-107381343D01*
X126218206Y-107331550D01*
X126248570Y-107274743D01*
X126267268Y-107213103D01*
X126273582Y-107149000D01*
X126273582Y-106973000D01*
X143420157Y-106973000D01*
X143422000Y-107727250D01*
X143517250Y-107822500D01*
X144652500Y-107822500D01*
X144652500Y-106687250D01*
X144653500Y-106687250D01*
X144653500Y-107822500D01*
X145788750Y-107822500D01*
X145884000Y-107727250D01*
X145885843Y-106973000D01*
X145878487Y-106898311D01*
X145856701Y-106826492D01*
X145821322Y-106760304D01*
X145773711Y-106702289D01*
X145715696Y-106654678D01*
X145649508Y-106619299D01*
X145577689Y-106597513D01*
X145503000Y-106590157D01*
X144748750Y-106592000D01*
X144653500Y-106687250D01*
X144652500Y-106687250D01*
X144557250Y-106592000D01*
X143803000Y-106590157D01*
X143728311Y-106597513D01*
X143656492Y-106619299D01*
X143590304Y-106654678D01*
X143532289Y-106702289D01*
X143484678Y-106760304D01*
X143449299Y-106826492D01*
X143427513Y-106898311D01*
X143420157Y-106973000D01*
X126273582Y-106973000D01*
X126273582Y-105449000D01*
X126267268Y-105384897D01*
X126248570Y-105323257D01*
X126218206Y-105266450D01*
X126177343Y-105216657D01*
X126127550Y-105175794D01*
X126070743Y-105145430D01*
X126009103Y-105126732D01*
X125945000Y-105120418D01*
X124245000Y-105120418D01*
X124180897Y-105126732D01*
X124119257Y-105145430D01*
X124062450Y-105175794D01*
X124012657Y-105216657D01*
X123971794Y-105266450D01*
X123941430Y-105323257D01*
X123922732Y-105384897D01*
X123916418Y-105449000D01*
X109412000Y-105449000D01*
X109412000Y-100080073D01*
X142794500Y-100080073D01*
X142794500Y-100833927D01*
X142941570Y-101573295D01*
X143230057Y-102269764D01*
X143648875Y-102896570D01*
X144181930Y-103429625D01*
X144808736Y-103848443D01*
X145505205Y-104136930D01*
X146244573Y-104284000D01*
X146998427Y-104284000D01*
X147737795Y-104136930D01*
X148434264Y-103848443D01*
X149061070Y-103429625D01*
X149594125Y-102896570D01*
X150012943Y-102269764D01*
X150301430Y-101573295D01*
X150448500Y-100833927D01*
X150448500Y-100080073D01*
X150301430Y-99340705D01*
X150012943Y-98644236D01*
X149594125Y-98017430D01*
X149061070Y-97484375D01*
X148434264Y-97065557D01*
X147737795Y-96777070D01*
X146998427Y-96630000D01*
X146244573Y-96630000D01*
X145505205Y-96777070D01*
X144808736Y-97065557D01*
X144181930Y-97484375D01*
X143648875Y-98017430D01*
X143230057Y-98644236D01*
X142941570Y-99340705D01*
X142794500Y-100080073D01*
X109412000Y-100080073D01*
X109412000Y-99853499D01*
X109626818Y-99810769D01*
X109841019Y-99722044D01*
X110033794Y-99593236D01*
X110098030Y-99529000D01*
X110590657Y-99529000D01*
X110598013Y-99603689D01*
X110619799Y-99675508D01*
X110655178Y-99741696D01*
X110702789Y-99799711D01*
X110760804Y-99847322D01*
X110826992Y-99882701D01*
X110898811Y-99904487D01*
X110973500Y-99911843D01*
X111727750Y-99910000D01*
X111823000Y-99814750D01*
X111823000Y-98679500D01*
X111824000Y-98679500D01*
X111824000Y-99814750D01*
X111919250Y-99910000D01*
X112673500Y-99911843D01*
X112748189Y-99904487D01*
X112820008Y-99882701D01*
X112886196Y-99847322D01*
X112944211Y-99799711D01*
X112991822Y-99741696D01*
X113027201Y-99675508D01*
X113048987Y-99603689D01*
X113056343Y-99529000D01*
X113054500Y-98774750D01*
X112959250Y-98679500D01*
X111824000Y-98679500D01*
X111823000Y-98679500D01*
X110687750Y-98679500D01*
X110592500Y-98774750D01*
X110590657Y-99529000D01*
X110098030Y-99529000D01*
X110197736Y-99429294D01*
X110326544Y-99236519D01*
X110415269Y-99022318D01*
X110460500Y-98794924D01*
X110460500Y-98563076D01*
X110415269Y-98335682D01*
X110326544Y-98121481D01*
X110197736Y-97928706D01*
X110098030Y-97829000D01*
X110590657Y-97829000D01*
X110592500Y-98583250D01*
X110687750Y-98678500D01*
X111823000Y-98678500D01*
X111823000Y-97543250D01*
X111824000Y-97543250D01*
X111824000Y-98678500D01*
X112959250Y-98678500D01*
X113054500Y-98583250D01*
X113056343Y-97829000D01*
X113048987Y-97754311D01*
X113027201Y-97682492D01*
X112991822Y-97616304D01*
X112944211Y-97558289D01*
X112886196Y-97510678D01*
X112820008Y-97475299D01*
X112748189Y-97453513D01*
X112673500Y-97446157D01*
X111919250Y-97448000D01*
X111824000Y-97543250D01*
X111823000Y-97543250D01*
X111727750Y-97448000D01*
X110973500Y-97446157D01*
X110898811Y-97453513D01*
X110826992Y-97475299D01*
X110760804Y-97510678D01*
X110702789Y-97558289D01*
X110655178Y-97616304D01*
X110619799Y-97682492D01*
X110598013Y-97754311D01*
X110590657Y-97829000D01*
X110098030Y-97829000D01*
X110033794Y-97764764D01*
X109841019Y-97635956D01*
X109626818Y-97547231D01*
X109399424Y-97502000D01*
X109167576Y-97502000D01*
X108940182Y-97547231D01*
X108725981Y-97635956D01*
X108533206Y-97764764D01*
X108369264Y-97928706D01*
X108240456Y-98121481D01*
X108151731Y-98335682D01*
X108119152Y-98499469D01*
X107997394Y-98599394D01*
X107920500Y-98693090D01*
X107920500Y-98563076D01*
X107875269Y-98335682D01*
X107786544Y-98121481D01*
X107657736Y-97928706D01*
X107493794Y-97764764D01*
X107301019Y-97635956D01*
X107086818Y-97547231D01*
X106859424Y-97502000D01*
X106627576Y-97502000D01*
X106400182Y-97547231D01*
X106185981Y-97635956D01*
X105993206Y-97764764D01*
X105829264Y-97928706D01*
X105700456Y-98121481D01*
X105611731Y-98335682D01*
X105566500Y-98563076D01*
X105380500Y-98563076D01*
X105335269Y-98335682D01*
X105246544Y-98121481D01*
X105117736Y-97928706D01*
X104953794Y-97764764D01*
X104761019Y-97635956D01*
X104546818Y-97547231D01*
X104319424Y-97502000D01*
X104087576Y-97502000D01*
X103860182Y-97547231D01*
X103645981Y-97635956D01*
X103453206Y-97764764D01*
X103289264Y-97928706D01*
X103160456Y-98121481D01*
X103071731Y-98335682D01*
X103026500Y-98563076D01*
X84296414Y-98563076D01*
X84299647Y-98549612D01*
X84670307Y-97654761D01*
X85176379Y-96828925D01*
X85805417Y-96092417D01*
X86541925Y-95463380D01*
X87367764Y-94957306D01*
X88262612Y-94586647D01*
X89204420Y-94360540D01*
X90176950Y-94284000D01*
X146678051Y-94284000D01*
X147650585Y-94360540D01*
%TA.AperFunction,Conductor*%
D17*
G36*
X147650585Y-94360540D02*
G01*
X148592388Y-94586647D01*
X149487239Y-94957307D01*
X150313075Y-95463379D01*
X151049583Y-96092417D01*
X151678620Y-96828925D01*
X152184694Y-97654764D01*
X152555353Y-98549612D01*
X152781460Y-99491420D01*
X152858001Y-100463963D01*
X152858000Y-140963050D01*
X152781460Y-141935580D01*
X152555353Y-142877388D01*
X152184694Y-143772236D01*
X151678620Y-144598075D01*
X151049583Y-145334583D01*
X150313075Y-145963621D01*
X149487239Y-146469693D01*
X148592388Y-146840353D01*
X147833104Y-147022641D01*
X89021900Y-147022641D01*
X88262612Y-146840353D01*
X87367764Y-146469694D01*
X86541925Y-145963620D01*
X85805417Y-145334583D01*
X85176379Y-144598075D01*
X84670307Y-143772239D01*
X84299647Y-142877388D01*
X84073540Y-141935585D01*
X84010500Y-141134585D01*
X84010500Y-140593073D01*
X86343000Y-140593073D01*
X86343000Y-141346927D01*
X86490070Y-142086295D01*
X86778557Y-142782764D01*
X87197375Y-143409570D01*
X87730430Y-143942625D01*
X88357236Y-144361443D01*
X89053705Y-144649930D01*
X89793073Y-144797000D01*
X90546927Y-144797000D01*
X91286295Y-144649930D01*
X91982764Y-144361443D01*
X92609570Y-143942625D01*
X93142625Y-143409570D01*
X93561443Y-142782764D01*
X93849930Y-142086295D01*
X93997000Y-141346927D01*
X93997000Y-140593073D01*
X142794500Y-140593073D01*
X142794500Y-141346927D01*
X142941570Y-142086295D01*
X143230057Y-142782764D01*
X143648875Y-143409570D01*
X144181930Y-143942625D01*
X144808736Y-144361443D01*
X145505205Y-144649930D01*
X146244573Y-144797000D01*
X146998427Y-144797000D01*
X147737795Y-144649930D01*
X148434264Y-144361443D01*
X149061070Y-143942625D01*
X149594125Y-143409570D01*
X150012943Y-142782764D01*
X150301430Y-142086295D01*
X150448500Y-141346927D01*
X150448500Y-140593073D01*
X150301430Y-139853705D01*
X150012943Y-139157236D01*
X149594125Y-138530430D01*
X149061070Y-137997375D01*
X148434264Y-137578557D01*
X147737795Y-137290070D01*
X146998427Y-137143000D01*
X146244573Y-137143000D01*
X145505205Y-137290070D01*
X144808736Y-137578557D01*
X144181930Y-137997375D01*
X143648875Y-138530430D01*
X143230057Y-139157236D01*
X142941570Y-139853705D01*
X142794500Y-140593073D01*
X93997000Y-140593073D01*
X93849930Y-139853705D01*
X93561443Y-139157236D01*
X93142625Y-138530430D01*
X92827195Y-138215000D01*
X112486418Y-138215000D01*
X112486418Y-139915000D01*
X112492732Y-139979103D01*
X112511430Y-140040743D01*
X112541794Y-140097550D01*
X112582657Y-140147343D01*
X112632450Y-140188206D01*
X112689257Y-140218570D01*
X112750897Y-140237268D01*
X112815000Y-140243582D01*
X114515000Y-140243582D01*
X114579103Y-140237268D01*
X114640743Y-140218570D01*
X114697550Y-140188206D01*
X114747343Y-140147343D01*
X114788206Y-140097550D01*
X114818570Y-140040743D01*
X114837268Y-139979103D01*
X114843582Y-139915000D01*
X114843582Y-138215000D01*
X114837268Y-138150897D01*
X114818570Y-138089257D01*
X114788206Y-138032450D01*
X114747343Y-137982657D01*
X114697550Y-137941794D01*
X114640743Y-137911430D01*
X114579103Y-137892732D01*
X114515000Y-137886418D01*
X112815000Y-137886418D01*
X112750897Y-137892732D01*
X112689257Y-137911430D01*
X112632450Y-137941794D01*
X112582657Y-137982657D01*
X112541794Y-138032450D01*
X112511430Y-138089257D01*
X112492732Y-138150897D01*
X112486418Y-138215000D01*
X92827195Y-138215000D01*
X92609570Y-137997375D01*
X91982764Y-137578557D01*
X91286295Y-137290070D01*
X90546927Y-137143000D01*
X89793073Y-137143000D01*
X89053705Y-137290070D01*
X88357236Y-137578557D01*
X87730430Y-137997375D01*
X87197375Y-138530430D01*
X86778557Y-139157236D01*
X86490070Y-139853705D01*
X86343000Y-140593073D01*
X84010500Y-140593073D01*
X84010500Y-134024000D01*
X87594418Y-134024000D01*
X87594418Y-135724000D01*
X87600732Y-135788103D01*
X87619430Y-135849743D01*
X87649794Y-135906550D01*
X87690657Y-135956343D01*
X87740450Y-135997206D01*
X87797257Y-136027570D01*
X87858897Y-136046268D01*
X87923000Y-136052582D01*
X89623000Y-136052582D01*
X89687103Y-136046268D01*
X89748743Y-136027570D01*
X89805550Y-135997206D01*
X89855343Y-135956343D01*
X89896206Y-135906550D01*
X89926570Y-135849743D01*
X89945268Y-135788103D01*
X89951582Y-135724000D01*
X89951582Y-134758076D01*
X90136000Y-134758076D01*
X90136000Y-134989924D01*
X90181231Y-135217318D01*
X90269956Y-135431519D01*
X90398764Y-135624294D01*
X90562706Y-135788236D01*
X90755481Y-135917044D01*
X90969682Y-136005769D01*
X91197076Y-136051000D01*
X91428924Y-136051000D01*
X91656318Y-136005769D01*
X91870519Y-135917044D01*
X92063294Y-135788236D01*
X92227236Y-135624294D01*
X92356044Y-135431519D01*
X92444769Y-135217318D01*
X92490000Y-134989924D01*
X92490000Y-134758076D01*
X92444769Y-134530682D01*
X92356044Y-134316481D01*
X92227236Y-134123706D01*
X92063294Y-133959764D01*
X91870519Y-133830956D01*
X91656318Y-133742231D01*
X91428924Y-133697000D01*
X91197076Y-133697000D01*
X90969682Y-133742231D01*
X90755481Y-133830956D01*
X90562706Y-133959764D01*
X90398764Y-134123706D01*
X90269956Y-134316481D01*
X90181231Y-134530682D01*
X90136000Y-134758076D01*
X89951582Y-134758076D01*
X89951582Y-134024000D01*
X89945268Y-133959897D01*
X89926570Y-133898257D01*
X89896206Y-133841450D01*
X89855343Y-133791657D01*
X89805550Y-133750794D01*
X89748743Y-133720430D01*
X89687103Y-133701732D01*
X89623000Y-133695418D01*
X87923000Y-133695418D01*
X87858897Y-133701732D01*
X87797257Y-133720430D01*
X87740450Y-133750794D01*
X87690657Y-133791657D01*
X87649794Y-133841450D01*
X87619430Y-133898257D01*
X87600732Y-133959897D01*
X87594418Y-134024000D01*
X84010500Y-134024000D01*
X84010500Y-132516397D01*
X109255000Y-132516397D01*
X109255000Y-132659603D01*
X109282938Y-132800058D01*
X109337741Y-132932364D01*
X109417302Y-133051436D01*
X109518564Y-133152698D01*
X109637636Y-133232259D01*
X109769942Y-133287062D01*
X109910397Y-133315000D01*
X110053603Y-133315000D01*
X110194058Y-133287062D01*
X110326364Y-133232259D01*
X110445436Y-133152698D01*
X110546698Y-133051436D01*
X110626259Y-132932364D01*
X110681062Y-132800058D01*
X110709000Y-132659603D01*
X110709000Y-132516397D01*
X110681062Y-132375942D01*
X110626259Y-132243636D01*
X110546698Y-132124564D01*
X110445436Y-132023302D01*
X110326364Y-131943741D01*
X110194058Y-131888938D01*
X110053603Y-131861000D01*
X109910397Y-131861000D01*
X109769942Y-131888938D01*
X109637636Y-131943741D01*
X109518564Y-132023302D01*
X109417302Y-132124564D01*
X109337741Y-132243636D01*
X109282938Y-132375942D01*
X109255000Y-132516397D01*
X84010500Y-132516397D01*
X84010500Y-121451000D01*
X118328418Y-121451000D01*
X118328418Y-123151000D01*
X118334732Y-123215103D01*
X118353430Y-123276743D01*
X118383794Y-123333550D01*
X118424657Y-123383343D01*
X118474450Y-123424206D01*
X118531257Y-123454570D01*
X118592897Y-123473268D01*
X118657000Y-123479582D01*
X120357000Y-123479582D01*
X120421103Y-123473268D01*
X120482743Y-123454570D01*
X120539550Y-123424206D01*
X120589343Y-123383343D01*
X120630206Y-123333550D01*
X120660570Y-123276743D01*
X120679268Y-123215103D01*
X120685582Y-123151000D01*
X120685582Y-121451000D01*
X120679268Y-121386897D01*
X120660570Y-121325257D01*
X120630206Y-121268450D01*
X120589343Y-121218657D01*
X120539550Y-121177794D01*
X120482743Y-121147430D01*
X120421103Y-121128732D01*
X120357000Y-121122418D01*
X118657000Y-121122418D01*
X118592897Y-121128732D01*
X118531257Y-121147430D01*
X118474450Y-121177794D01*
X118424657Y-121218657D01*
X118383794Y-121268450D01*
X118353430Y-121325257D01*
X118334732Y-121386897D01*
X118328418Y-121451000D01*
X84010500Y-121451000D01*
X84010500Y-100292415D01*
X84073540Y-99491415D01*
X84296414Y-98563076D01*
X103026500Y-98563076D01*
X103026500Y-98794924D01*
X103071731Y-99022318D01*
X103160456Y-99236519D01*
X103289264Y-99429294D01*
X103453206Y-99593236D01*
X103645981Y-99722044D01*
X103860182Y-99810769D01*
X104087576Y-99856000D01*
X104319424Y-99856000D01*
X104546818Y-99810769D01*
X104761019Y-99722044D01*
X104953794Y-99593236D01*
X105117736Y-99429294D01*
X105246544Y-99236519D01*
X105335269Y-99022318D01*
X105380500Y-98794924D01*
X105380500Y-98563076D01*
X105566500Y-98563076D01*
X105566500Y-98794924D01*
X105611731Y-99022318D01*
X105700456Y-99236519D01*
X105829264Y-99429294D01*
X105993206Y-99593236D01*
X106185981Y-99722044D01*
X106400182Y-99810769D01*
X106627576Y-99856000D01*
X106859424Y-99856000D01*
X107086818Y-99810769D01*
X107301019Y-99722044D01*
X107493794Y-99593236D01*
X107657736Y-99429294D01*
X107758000Y-99279238D01*
X107758001Y-107655376D01*
X107754000Y-107696000D01*
X107769967Y-107858120D01*
X107817256Y-108014010D01*
X107894048Y-108157679D01*
X107971498Y-108252051D01*
X107997395Y-108283606D01*
X108028948Y-108309501D01*
X114823448Y-115104002D01*
X114842500Y-115119638D01*
X114842500Y-115607132D01*
X114839903Y-115633500D01*
X114842500Y-115659868D01*
X114842500Y-115659877D01*
X114850270Y-115738769D01*
X114880976Y-115839994D01*
X114930841Y-115933285D01*
X114997947Y-116015053D01*
X115018436Y-116031868D01*
X118383730Y-119397163D01*
X118375231Y-119417682D01*
X118330000Y-119645076D01*
X118330000Y-119876924D01*
X118375231Y-120104318D01*
X118463956Y-120318519D01*
X118592764Y-120511294D01*
X118756706Y-120675236D01*
X118949481Y-120804044D01*
X119163682Y-120892769D01*
X119391076Y-120938000D01*
X119622924Y-120938000D01*
X119850318Y-120892769D01*
X120064519Y-120804044D01*
X120257294Y-120675236D01*
X120421236Y-120511294D01*
X120550044Y-120318519D01*
X120638769Y-120104318D01*
X120684000Y-119876924D01*
X120684000Y-119645076D01*
X120638769Y-119417682D01*
X120550044Y-119203481D01*
X120524332Y-119165000D01*
X143474418Y-119165000D01*
X143474418Y-120865000D01*
X143480732Y-120929103D01*
X143499430Y-120990743D01*
X143529794Y-121047550D01*
X143570657Y-121097343D01*
X143620450Y-121138206D01*
X143677257Y-121168570D01*
X143738897Y-121187268D01*
X143803000Y-121193582D01*
X145503000Y-121193582D01*
X145567103Y-121187268D01*
X145628743Y-121168570D01*
X145685550Y-121138206D01*
X145735343Y-121097343D01*
X145776206Y-121047550D01*
X145806570Y-120990743D01*
X145825268Y-120929103D01*
X145831582Y-120865000D01*
X145831582Y-119165000D01*
X145825268Y-119100897D01*
X145806570Y-119039257D01*
X145776206Y-118982450D01*
X145735343Y-118932657D01*
X145685550Y-118891794D01*
X145628743Y-118861430D01*
X145567103Y-118842732D01*
X145503000Y-118836418D01*
X143803000Y-118836418D01*
X143738897Y-118842732D01*
X143677257Y-118861430D01*
X143620450Y-118891794D01*
X143570657Y-118932657D01*
X143529794Y-118982450D01*
X143499430Y-119039257D01*
X143480732Y-119100897D01*
X143474418Y-119165000D01*
X120524332Y-119165000D01*
X120421236Y-119010706D01*
X120257294Y-118846764D01*
X120064519Y-118717956D01*
X119850318Y-118629231D01*
X119622924Y-118584000D01*
X119391076Y-118584000D01*
X119163682Y-118629231D01*
X119143163Y-118637730D01*
X117864509Y-117359076D01*
X143476000Y-117359076D01*
X143476000Y-117590924D01*
X143521231Y-117818318D01*
X143609956Y-118032519D01*
X143738764Y-118225294D01*
X143902706Y-118389236D01*
X144095481Y-118518044D01*
X144309682Y-118606769D01*
X144537076Y-118652000D01*
X144768924Y-118652000D01*
X144996318Y-118606769D01*
X145210519Y-118518044D01*
X145403294Y-118389236D01*
X145567236Y-118225294D01*
X145696044Y-118032519D01*
X145784769Y-117818318D01*
X145830000Y-117590924D01*
X145830000Y-117359076D01*
X145784769Y-117131682D01*
X145696044Y-116917481D01*
X145567236Y-116724706D01*
X145403294Y-116560764D01*
X145210519Y-116431956D01*
X144996318Y-116343231D01*
X144768924Y-116298000D01*
X144537076Y-116298000D01*
X144309682Y-116343231D01*
X144095481Y-116431956D01*
X143902706Y-116560764D01*
X143738764Y-116724706D01*
X143609956Y-116917481D01*
X143521231Y-117131682D01*
X143476000Y-117359076D01*
X117864509Y-117359076D01*
X115916500Y-115411068D01*
X115916500Y-115119637D01*
X115967106Y-115078106D01*
X116070452Y-114952179D01*
X116147244Y-114808510D01*
X116194533Y-114652620D01*
X116210500Y-114490499D01*
X116194533Y-114328379D01*
X116147244Y-114172489D01*
X116070452Y-114028820D01*
X115993002Y-113934448D01*
X112349951Y-110291397D01*
X122082000Y-110291397D01*
X122082000Y-110434603D01*
X122109938Y-110575058D01*
X122164741Y-110707364D01*
X122244302Y-110826436D01*
X122345564Y-110927698D01*
X122464636Y-111007259D01*
X122596942Y-111062062D01*
X122737397Y-111090000D01*
X122880603Y-111090000D01*
X123021058Y-111062062D01*
X123153364Y-111007259D01*
X123272436Y-110927698D01*
X123373698Y-110826436D01*
X123453259Y-110707364D01*
X123508062Y-110575058D01*
X123536000Y-110434603D01*
X123536000Y-110291397D01*
X123527185Y-110247076D01*
X143476000Y-110247076D01*
X143476000Y-110478924D01*
X143521231Y-110706318D01*
X143609956Y-110920519D01*
X143738764Y-111113294D01*
X143902706Y-111277236D01*
X144095481Y-111406044D01*
X144309682Y-111494769D01*
X144537076Y-111540000D01*
X144768924Y-111540000D01*
X144996318Y-111494769D01*
X145210519Y-111406044D01*
X145403294Y-111277236D01*
X145567236Y-111113294D01*
X145696044Y-110920519D01*
X145784769Y-110706318D01*
X145830000Y-110478924D01*
X145830000Y-110247076D01*
X145784769Y-110019682D01*
X145696044Y-109805481D01*
X145567236Y-109612706D01*
X145403294Y-109448764D01*
X145210519Y-109319956D01*
X144996318Y-109231231D01*
X144768924Y-109186000D01*
X144537076Y-109186000D01*
X144309682Y-109231231D01*
X144095481Y-109319956D01*
X143902706Y-109448764D01*
X143738764Y-109612706D01*
X143609956Y-109805481D01*
X143521231Y-110019682D01*
X143476000Y-110247076D01*
X123527185Y-110247076D01*
X123508062Y-110150942D01*
X123453259Y-110018636D01*
X123373698Y-109899564D01*
X123272436Y-109798302D01*
X123153364Y-109718741D01*
X123021058Y-109663938D01*
X122880603Y-109636000D01*
X122737397Y-109636000D01*
X122596942Y-109663938D01*
X122464636Y-109718741D01*
X122345564Y-109798302D01*
X122244302Y-109899564D01*
X122164741Y-110018636D01*
X122109938Y-110150942D01*
X122082000Y-110291397D01*
X112349951Y-110291397D01*
X110731554Y-108673000D01*
X143420157Y-108673000D01*
X143427513Y-108747689D01*
X143449299Y-108819508D01*
X143484678Y-108885696D01*
X143532289Y-108943711D01*
X143590304Y-108991322D01*
X143656492Y-109026701D01*
X143728311Y-109048487D01*
X143803000Y-109055843D01*
X144557250Y-109054000D01*
X144652500Y-108958750D01*
X144652500Y-107823500D01*
X144653500Y-107823500D01*
X144653500Y-108958750D01*
X144748750Y-109054000D01*
X145503000Y-109055843D01*
X145577689Y-109048487D01*
X145649508Y-109026701D01*
X145715696Y-108991322D01*
X145773711Y-108943711D01*
X145821322Y-108885696D01*
X145856701Y-108819508D01*
X145878487Y-108747689D01*
X145885843Y-108673000D01*
X145884000Y-107918750D01*
X145788750Y-107823500D01*
X144653500Y-107823500D01*
X144652500Y-107823500D01*
X143517250Y-107823500D01*
X143422000Y-107918750D01*
X143420157Y-108673000D01*
X110731554Y-108673000D01*
X109412000Y-107353447D01*
X109412000Y-105449000D01*
X123916418Y-105449000D01*
X123916418Y-107149000D01*
X123922732Y-107213103D01*
X123941430Y-107274743D01*
X123971794Y-107331550D01*
X124012657Y-107381343D01*
X124062450Y-107422206D01*
X124119257Y-107452570D01*
X124180897Y-107471268D01*
X124245000Y-107477582D01*
X125945000Y-107477582D01*
X126009103Y-107471268D01*
X126070743Y-107452570D01*
X126127550Y-107422206D01*
X126177343Y-107381343D01*
X126218206Y-107331550D01*
X126248570Y-107274743D01*
X126267268Y-107213103D01*
X126273582Y-107149000D01*
X126273582Y-106973000D01*
X143420157Y-106973000D01*
X143422000Y-107727250D01*
X143517250Y-107822500D01*
X144652500Y-107822500D01*
X144652500Y-106687250D01*
X144653500Y-106687250D01*
X144653500Y-107822500D01*
X145788750Y-107822500D01*
X145884000Y-107727250D01*
X145885843Y-106973000D01*
X145878487Y-106898311D01*
X145856701Y-106826492D01*
X145821322Y-106760304D01*
X145773711Y-106702289D01*
X145715696Y-106654678D01*
X145649508Y-106619299D01*
X145577689Y-106597513D01*
X145503000Y-106590157D01*
X144748750Y-106592000D01*
X144653500Y-106687250D01*
X144652500Y-106687250D01*
X144557250Y-106592000D01*
X143803000Y-106590157D01*
X143728311Y-106597513D01*
X143656492Y-106619299D01*
X143590304Y-106654678D01*
X143532289Y-106702289D01*
X143484678Y-106760304D01*
X143449299Y-106826492D01*
X143427513Y-106898311D01*
X143420157Y-106973000D01*
X126273582Y-106973000D01*
X126273582Y-105449000D01*
X126267268Y-105384897D01*
X126248570Y-105323257D01*
X126218206Y-105266450D01*
X126177343Y-105216657D01*
X126127550Y-105175794D01*
X126070743Y-105145430D01*
X126009103Y-105126732D01*
X125945000Y-105120418D01*
X124245000Y-105120418D01*
X124180897Y-105126732D01*
X124119257Y-105145430D01*
X124062450Y-105175794D01*
X124012657Y-105216657D01*
X123971794Y-105266450D01*
X123941430Y-105323257D01*
X123922732Y-105384897D01*
X123916418Y-105449000D01*
X109412000Y-105449000D01*
X109412000Y-100080073D01*
X142794500Y-100080073D01*
X142794500Y-100833927D01*
X142941570Y-101573295D01*
X143230057Y-102269764D01*
X143648875Y-102896570D01*
X144181930Y-103429625D01*
X144808736Y-103848443D01*
X145505205Y-104136930D01*
X146244573Y-104284000D01*
X146998427Y-104284000D01*
X147737795Y-104136930D01*
X148434264Y-103848443D01*
X149061070Y-103429625D01*
X149594125Y-102896570D01*
X150012943Y-102269764D01*
X150301430Y-101573295D01*
X150448500Y-100833927D01*
X150448500Y-100080073D01*
X150301430Y-99340705D01*
X150012943Y-98644236D01*
X149594125Y-98017430D01*
X149061070Y-97484375D01*
X148434264Y-97065557D01*
X147737795Y-96777070D01*
X146998427Y-96630000D01*
X146244573Y-96630000D01*
X145505205Y-96777070D01*
X144808736Y-97065557D01*
X144181930Y-97484375D01*
X143648875Y-98017430D01*
X143230057Y-98644236D01*
X142941570Y-99340705D01*
X142794500Y-100080073D01*
X109412000Y-100080073D01*
X109412000Y-99853499D01*
X109626818Y-99810769D01*
X109841019Y-99722044D01*
X110033794Y-99593236D01*
X110098030Y-99529000D01*
X110590657Y-99529000D01*
X110598013Y-99603689D01*
X110619799Y-99675508D01*
X110655178Y-99741696D01*
X110702789Y-99799711D01*
X110760804Y-99847322D01*
X110826992Y-99882701D01*
X110898811Y-99904487D01*
X110973500Y-99911843D01*
X111727750Y-99910000D01*
X111823000Y-99814750D01*
X111823000Y-98679500D01*
X111824000Y-98679500D01*
X111824000Y-99814750D01*
X111919250Y-99910000D01*
X112673500Y-99911843D01*
X112748189Y-99904487D01*
X112820008Y-99882701D01*
X112886196Y-99847322D01*
X112944211Y-99799711D01*
X112991822Y-99741696D01*
X113027201Y-99675508D01*
X113048987Y-99603689D01*
X113056343Y-99529000D01*
X113054500Y-98774750D01*
X112959250Y-98679500D01*
X111824000Y-98679500D01*
X111823000Y-98679500D01*
X110687750Y-98679500D01*
X110592500Y-98774750D01*
X110590657Y-99529000D01*
X110098030Y-99529000D01*
X110197736Y-99429294D01*
X110326544Y-99236519D01*
X110415269Y-99022318D01*
X110460500Y-98794924D01*
X110460500Y-98563076D01*
X110415269Y-98335682D01*
X110326544Y-98121481D01*
X110197736Y-97928706D01*
X110098030Y-97829000D01*
X110590657Y-97829000D01*
X110592500Y-98583250D01*
X110687750Y-98678500D01*
X111823000Y-98678500D01*
X111823000Y-97543250D01*
X111824000Y-97543250D01*
X111824000Y-98678500D01*
X112959250Y-98678500D01*
X113054500Y-98583250D01*
X113056343Y-97829000D01*
X113048987Y-97754311D01*
X113027201Y-97682492D01*
X112991822Y-97616304D01*
X112944211Y-97558289D01*
X112886196Y-97510678D01*
X112820008Y-97475299D01*
X112748189Y-97453513D01*
X112673500Y-97446157D01*
X111919250Y-97448000D01*
X111824000Y-97543250D01*
X111823000Y-97543250D01*
X111727750Y-97448000D01*
X110973500Y-97446157D01*
X110898811Y-97453513D01*
X110826992Y-97475299D01*
X110760804Y-97510678D01*
X110702789Y-97558289D01*
X110655178Y-97616304D01*
X110619799Y-97682492D01*
X110598013Y-97754311D01*
X110590657Y-97829000D01*
X110098030Y-97829000D01*
X110033794Y-97764764D01*
X109841019Y-97635956D01*
X109626818Y-97547231D01*
X109399424Y-97502000D01*
X109167576Y-97502000D01*
X108940182Y-97547231D01*
X108725981Y-97635956D01*
X108533206Y-97764764D01*
X108369264Y-97928706D01*
X108240456Y-98121481D01*
X108151731Y-98335682D01*
X108119152Y-98499469D01*
X107997394Y-98599394D01*
X107920500Y-98693090D01*
X107920500Y-98563076D01*
X107875269Y-98335682D01*
X107786544Y-98121481D01*
X107657736Y-97928706D01*
X107493794Y-97764764D01*
X107301019Y-97635956D01*
X107086818Y-97547231D01*
X106859424Y-97502000D01*
X106627576Y-97502000D01*
X106400182Y-97547231D01*
X106185981Y-97635956D01*
X105993206Y-97764764D01*
X105829264Y-97928706D01*
X105700456Y-98121481D01*
X105611731Y-98335682D01*
X105566500Y-98563076D01*
X105380500Y-98563076D01*
X105335269Y-98335682D01*
X105246544Y-98121481D01*
X105117736Y-97928706D01*
X104953794Y-97764764D01*
X104761019Y-97635956D01*
X104546818Y-97547231D01*
X104319424Y-97502000D01*
X104087576Y-97502000D01*
X103860182Y-97547231D01*
X103645981Y-97635956D01*
X103453206Y-97764764D01*
X103289264Y-97928706D01*
X103160456Y-98121481D01*
X103071731Y-98335682D01*
X103026500Y-98563076D01*
X84296414Y-98563076D01*
X84299647Y-98549612D01*
X84670307Y-97654761D01*
X85176379Y-96828925D01*
X85805417Y-96092417D01*
X86541925Y-95463380D01*
X87367764Y-94957306D01*
X88262612Y-94586647D01*
X89204420Y-94360540D01*
X90176950Y-94284000D01*
X146678051Y-94284000D01*
X147650585Y-94360540D01*
G37*
%TD.AperFunction*%
%TD*%
M02*
