G04 #@! TF.GenerationSoftware,KiCad,Pcbnew,(5.1.6)-1*
G04 #@! TF.CreationDate,2021-11-02T10:07:08-04:00*
G04 #@! TF.ProjectId,payload2020_papa_board,7061796c-6f61-4643-9230-32305f706170,rev?*
G04 #@! TF.SameCoordinates,Original*
G04 #@! TF.FileFunction,Legend,Top*
G04 #@! TF.FilePolarity,Positive*
%FSLAX46Y46*%
G04 Gerber Fmt 4.6, Leading zero omitted, Abs format (unit mm)*
G04 Created by KiCad (PCBNEW (5.1.6)-1) date 2021-11-02 10:07:08*
%MOMM*%
%LPD*%
G01*
G04 APERTURE LIST*
%ADD10C,0.150000*%
%ADD11C,0.120000*%
%ADD12C,0.125000*%
%ADD13C,0.010000*%
%ADD14C,0.100000*%
G04 APERTURE END LIST*
D10*
X170713523Y-101175380D02*
X170380190Y-100699190D01*
X170142095Y-101175380D02*
X170142095Y-100175380D01*
X170523047Y-100175380D01*
X170618285Y-100223000D01*
X170665904Y-100270619D01*
X170713523Y-100365857D01*
X170713523Y-100508714D01*
X170665904Y-100603952D01*
X170618285Y-100651571D01*
X170523047Y-100699190D01*
X170142095Y-100699190D01*
X173025428Y-100125380D02*
X173263523Y-101125380D01*
X173454000Y-100411095D01*
X173644476Y-101125380D01*
X173882571Y-100125380D01*
X166750428Y-100651571D02*
X166893285Y-100699190D01*
X166940904Y-100746809D01*
X166988523Y-100842047D01*
X166988523Y-100984904D01*
X166940904Y-101080142D01*
X166893285Y-101127761D01*
X166798047Y-101175380D01*
X166417095Y-101175380D01*
X166417095Y-100175380D01*
X166750428Y-100175380D01*
X166845666Y-100223000D01*
X166893285Y-100270619D01*
X166940904Y-100365857D01*
X166940904Y-100461095D01*
X166893285Y-100556333D01*
X166845666Y-100603952D01*
X166750428Y-100651571D01*
X166417095Y-100651571D01*
D11*
X110639000Y-114792000D02*
X110639000Y-119618000D01*
X124851160Y-112064800D02*
X124851160Y-112455960D01*
X124851160Y-110921800D02*
X124851160Y-111450120D01*
X124449840Y-111460280D02*
X125242320Y-111460280D01*
X124851160Y-112049560D02*
X124449840Y-111460280D01*
X125252480Y-111455200D02*
X124851160Y-112049560D01*
X124307600Y-112054640D02*
X124861320Y-112049560D01*
X125399800Y-112054640D02*
X124307600Y-112054640D01*
D12*
X182779000Y-114537952D02*
X182755190Y-114585571D01*
X182755190Y-114657000D01*
X182779000Y-114728428D01*
X182826619Y-114776047D01*
X182874238Y-114799857D01*
X182969476Y-114823666D01*
X183040904Y-114823666D01*
X183136142Y-114799857D01*
X183183761Y-114776047D01*
X183231380Y-114728428D01*
X183255190Y-114657000D01*
X183255190Y-114609380D01*
X183231380Y-114537952D01*
X183207571Y-114514142D01*
X183040904Y-114514142D01*
X183040904Y-114609380D01*
X183255190Y-114299857D02*
X182755190Y-114299857D01*
X183255190Y-114014142D01*
X182755190Y-114014142D01*
X183255190Y-113776047D02*
X182755190Y-113776047D01*
X182755190Y-113657000D01*
X182779000Y-113585571D01*
X182826619Y-113537952D01*
X182874238Y-113514142D01*
X182969476Y-113490333D01*
X183040904Y-113490333D01*
X183136142Y-113514142D01*
X183183761Y-113537952D01*
X183231380Y-113585571D01*
X183255190Y-113657000D01*
X183255190Y-113776047D01*
X176205190Y-112276571D02*
X176181380Y-112300380D01*
X176109952Y-112324190D01*
X176062333Y-112324190D01*
X175990904Y-112300380D01*
X175943285Y-112252761D01*
X175919476Y-112205142D01*
X175895666Y-112109904D01*
X175895666Y-112038476D01*
X175919476Y-111943238D01*
X175943285Y-111895619D01*
X175990904Y-111848000D01*
X176062333Y-111824190D01*
X176109952Y-111824190D01*
X176181380Y-111848000D01*
X176205190Y-111871809D01*
X176395666Y-112181333D02*
X176633761Y-112181333D01*
X176348047Y-112324190D02*
X176514714Y-111824190D01*
X176681380Y-112324190D01*
X176848047Y-112324190D02*
X176848047Y-111824190D01*
X177133761Y-112324190D01*
X177133761Y-111824190D01*
X177609952Y-112324190D02*
X177371857Y-112324190D01*
X177371857Y-111824190D01*
X176095666Y-110176571D02*
X176071857Y-110200380D01*
X176000428Y-110224190D01*
X175952809Y-110224190D01*
X175881380Y-110200380D01*
X175833761Y-110152761D01*
X175809952Y-110105142D01*
X175786142Y-110009904D01*
X175786142Y-109938476D01*
X175809952Y-109843238D01*
X175833761Y-109795619D01*
X175881380Y-109748000D01*
X175952809Y-109724190D01*
X176000428Y-109724190D01*
X176071857Y-109748000D01*
X176095666Y-109771809D01*
X176286142Y-110081333D02*
X176524238Y-110081333D01*
X176238523Y-110224190D02*
X176405190Y-109724190D01*
X176571857Y-110224190D01*
X176738523Y-110224190D02*
X176738523Y-109724190D01*
X177024238Y-110224190D01*
X177024238Y-109724190D01*
X177262333Y-110224190D02*
X177262333Y-109724190D01*
X177262333Y-109962285D02*
X177548047Y-109962285D01*
X177548047Y-110224190D02*
X177548047Y-109724190D01*
X183255190Y-110402523D02*
X183255190Y-110688238D01*
X183255190Y-110545380D02*
X182755190Y-110545380D01*
X182826619Y-110593000D01*
X182874238Y-110640619D01*
X182898047Y-110688238D01*
X182802809Y-110212047D02*
X182779000Y-110188238D01*
X182755190Y-110140619D01*
X182755190Y-110021571D01*
X182779000Y-109973952D01*
X182802809Y-109950142D01*
X182850428Y-109926333D01*
X182898047Y-109926333D01*
X182969476Y-109950142D01*
X183255190Y-110235857D01*
X183255190Y-109926333D01*
X182755190Y-109783476D02*
X183255190Y-109616809D01*
X182755190Y-109450142D01*
X182755190Y-112577380D02*
X182755190Y-112815476D01*
X182993285Y-112839285D01*
X182969476Y-112815476D01*
X182945666Y-112767857D01*
X182945666Y-112648809D01*
X182969476Y-112601190D01*
X182993285Y-112577380D01*
X183040904Y-112553571D01*
X183159952Y-112553571D01*
X183207571Y-112577380D01*
X183231380Y-112601190D01*
X183255190Y-112648809D01*
X183255190Y-112767857D01*
X183231380Y-112815476D01*
X183207571Y-112839285D01*
X183207571Y-112339285D02*
X183231380Y-112315476D01*
X183255190Y-112339285D01*
X183231380Y-112363095D01*
X183207571Y-112339285D01*
X183255190Y-112339285D01*
X182755190Y-112148809D02*
X182755190Y-111839285D01*
X182945666Y-112005952D01*
X182945666Y-111934523D01*
X182969476Y-111886904D01*
X182993285Y-111863095D01*
X183040904Y-111839285D01*
X183159952Y-111839285D01*
X183207571Y-111863095D01*
X183231380Y-111886904D01*
X183255190Y-111934523D01*
X183255190Y-112077380D01*
X183231380Y-112125000D01*
X183207571Y-112148809D01*
X182755190Y-111696428D02*
X183255190Y-111529761D01*
X182755190Y-111363095D01*
X147006380Y-108451571D02*
X146982571Y-108475380D01*
X146911142Y-108499190D01*
X146863523Y-108499190D01*
X146792095Y-108475380D01*
X146744476Y-108427761D01*
X146720666Y-108380142D01*
X146696857Y-108284904D01*
X146696857Y-108213476D01*
X146720666Y-108118238D01*
X146744476Y-108070619D01*
X146792095Y-108023000D01*
X146863523Y-107999190D01*
X146911142Y-107999190D01*
X146982571Y-108023000D01*
X147006380Y-108046809D01*
X147458761Y-108499190D02*
X147220666Y-108499190D01*
X147220666Y-107999190D01*
X147625428Y-108499190D02*
X147625428Y-107999190D01*
X147911142Y-108499190D02*
X147696857Y-108213476D01*
X147911142Y-107999190D02*
X147625428Y-108284904D01*
X144208725Y-108524190D02*
X144208725Y-108024190D01*
X144327773Y-108024190D01*
X144399201Y-108048000D01*
X144446820Y-108095619D01*
X144470630Y-108143238D01*
X144494440Y-108238476D01*
X144494440Y-108309904D01*
X144470630Y-108405142D01*
X144446820Y-108452761D01*
X144399201Y-108500380D01*
X144327773Y-108524190D01*
X144208725Y-108524190D01*
X144684916Y-108381333D02*
X144923011Y-108381333D01*
X144637297Y-108524190D02*
X144803963Y-108024190D01*
X144970630Y-108524190D01*
X145065868Y-108024190D02*
X145351582Y-108024190D01*
X145208725Y-108524190D02*
X145208725Y-108024190D01*
X141884447Y-108073000D02*
X141836828Y-108049190D01*
X141765400Y-108049190D01*
X141693971Y-108073000D01*
X141646352Y-108120619D01*
X141622542Y-108168238D01*
X141598733Y-108263476D01*
X141598733Y-108334904D01*
X141622542Y-108430142D01*
X141646352Y-108477761D01*
X141693971Y-108525380D01*
X141765400Y-108549190D01*
X141813019Y-108549190D01*
X141884447Y-108525380D01*
X141908257Y-108501571D01*
X141908257Y-108334904D01*
X141813019Y-108334904D01*
X142122542Y-108549190D02*
X142122542Y-108049190D01*
X142408257Y-108549190D01*
X142408257Y-108049190D01*
X142646352Y-108549190D02*
X142646352Y-108049190D01*
X142765400Y-108049190D01*
X142836828Y-108073000D01*
X142884447Y-108120619D01*
X142908257Y-108168238D01*
X142932066Y-108263476D01*
X142932066Y-108334904D01*
X142908257Y-108430142D01*
X142884447Y-108477761D01*
X142836828Y-108525380D01*
X142765400Y-108549190D01*
X142646352Y-108549190D01*
X139176619Y-108024190D02*
X138938523Y-108024190D01*
X138914714Y-108262285D01*
X138938523Y-108238476D01*
X138986142Y-108214666D01*
X139105190Y-108214666D01*
X139152809Y-108238476D01*
X139176619Y-108262285D01*
X139200428Y-108309904D01*
X139200428Y-108428952D01*
X139176619Y-108476571D01*
X139152809Y-108500380D01*
X139105190Y-108524190D01*
X138986142Y-108524190D01*
X138938523Y-108500380D01*
X138914714Y-108476571D01*
X139414714Y-108476571D02*
X139438523Y-108500380D01*
X139414714Y-108524190D01*
X139390904Y-108500380D01*
X139414714Y-108476571D01*
X139414714Y-108524190D01*
X139605190Y-108024190D02*
X139914714Y-108024190D01*
X139748047Y-108214666D01*
X139819476Y-108214666D01*
X139867095Y-108238476D01*
X139890904Y-108262285D01*
X139914714Y-108309904D01*
X139914714Y-108428952D01*
X139890904Y-108476571D01*
X139867095Y-108500380D01*
X139819476Y-108524190D01*
X139676619Y-108524190D01*
X139629000Y-108500380D01*
X139605190Y-108476571D01*
X140057571Y-108024190D02*
X140224238Y-108524190D01*
X140390904Y-108024190D01*
X136015904Y-107775500D02*
X136587333Y-107775500D01*
X136134952Y-108524190D02*
X136134952Y-108024190D01*
X136301619Y-108381333D01*
X136468285Y-108024190D01*
X136468285Y-108524190D01*
X136587333Y-107775500D02*
X137087333Y-107775500D01*
X136992095Y-108476571D02*
X136968285Y-108500380D01*
X136896857Y-108524190D01*
X136849238Y-108524190D01*
X136777809Y-108500380D01*
X136730190Y-108452761D01*
X136706380Y-108405142D01*
X136682571Y-108309904D01*
X136682571Y-108238476D01*
X136706380Y-108143238D01*
X136730190Y-108095619D01*
X136777809Y-108048000D01*
X136849238Y-108024190D01*
X136896857Y-108024190D01*
X136968285Y-108048000D01*
X136992095Y-108071809D01*
X137087333Y-107775500D02*
X137492095Y-107775500D01*
X137444476Y-108524190D02*
X137206380Y-108524190D01*
X137206380Y-108024190D01*
X137492095Y-107775500D02*
X137992095Y-107775500D01*
X137896857Y-108524190D02*
X137730190Y-108286095D01*
X137611142Y-108524190D02*
X137611142Y-108024190D01*
X137801619Y-108024190D01*
X137849238Y-108048000D01*
X137873047Y-108071809D01*
X137896857Y-108119428D01*
X137896857Y-108190857D01*
X137873047Y-108238476D01*
X137849238Y-108262285D01*
X137801619Y-108286095D01*
X137611142Y-108286095D01*
X141391070Y-101712531D02*
X141367260Y-101736340D01*
X141295832Y-101760150D01*
X141248213Y-101760150D01*
X141176784Y-101736340D01*
X141129165Y-101688721D01*
X141105356Y-101641102D01*
X141081546Y-101545864D01*
X141081546Y-101474436D01*
X141105356Y-101379198D01*
X141129165Y-101331579D01*
X141176784Y-101283960D01*
X141248213Y-101260150D01*
X141295832Y-101260150D01*
X141367260Y-101283960D01*
X141391070Y-101307769D01*
X141581546Y-101617293D02*
X141819641Y-101617293D01*
X141533927Y-101760150D02*
X141700594Y-101260150D01*
X141867260Y-101760150D01*
X142033927Y-101760150D02*
X142033927Y-101260150D01*
X142319641Y-101760150D01*
X142319641Y-101260150D01*
X142795832Y-101760150D02*
X142557737Y-101760150D01*
X142557737Y-101260150D01*
X138943946Y-101727771D02*
X138920137Y-101751580D01*
X138848708Y-101775390D01*
X138801089Y-101775390D01*
X138729660Y-101751580D01*
X138682041Y-101703961D01*
X138658232Y-101656342D01*
X138634422Y-101561104D01*
X138634422Y-101489676D01*
X138658232Y-101394438D01*
X138682041Y-101346819D01*
X138729660Y-101299200D01*
X138801089Y-101275390D01*
X138848708Y-101275390D01*
X138920137Y-101299200D01*
X138943946Y-101323009D01*
X139134422Y-101632533D02*
X139372518Y-101632533D01*
X139086803Y-101775390D02*
X139253470Y-101275390D01*
X139420137Y-101775390D01*
X139586803Y-101775390D02*
X139586803Y-101275390D01*
X139872518Y-101775390D01*
X139872518Y-101275390D01*
X140110613Y-101775390D02*
X140110613Y-101275390D01*
X140110613Y-101513485D02*
X140396327Y-101513485D01*
X140396327Y-101775390D02*
X140396327Y-101275390D01*
D11*
X135534400Y-106248200D02*
X135915400Y-106629200D01*
X135534400Y-107010200D02*
X135534400Y-106248200D01*
X135153400Y-106629200D02*
X135534400Y-106248200D01*
X135534400Y-107010200D02*
X136931400Y-107010200D01*
X147599400Y-106248200D02*
X147980400Y-106629200D01*
X147218400Y-106629200D02*
X147599400Y-106248200D01*
X147599400Y-106248200D02*
X147218400Y-106629200D01*
X147599400Y-107010200D02*
X147599400Y-106248200D01*
X146202400Y-107010200D02*
X147599400Y-107010200D01*
D10*
X108485085Y-96968428D02*
X108449371Y-97011285D01*
X108342228Y-97054142D01*
X108270800Y-97054142D01*
X108163657Y-97011285D01*
X108092228Y-96925571D01*
X108056514Y-96839857D01*
X108020800Y-96668428D01*
X108020800Y-96539857D01*
X108056514Y-96368428D01*
X108092228Y-96282714D01*
X108163657Y-96197000D01*
X108270800Y-96154142D01*
X108342228Y-96154142D01*
X108449371Y-96197000D01*
X108485085Y-96239857D01*
X108770800Y-96797000D02*
X109127942Y-96797000D01*
X108699371Y-97054142D02*
X108949371Y-96154142D01*
X109199371Y-97054142D01*
X109449371Y-97054142D02*
X109449371Y-96154142D01*
X109877942Y-97054142D01*
X109877942Y-96154142D01*
X110592228Y-97054142D02*
X110235085Y-97054142D01*
X110235085Y-96154142D01*
X108421200Y-94961828D02*
X108385485Y-95004685D01*
X108278342Y-95047542D01*
X108206914Y-95047542D01*
X108099771Y-95004685D01*
X108028342Y-94918971D01*
X107992628Y-94833257D01*
X107956914Y-94661828D01*
X107956914Y-94533257D01*
X107992628Y-94361828D01*
X108028342Y-94276114D01*
X108099771Y-94190400D01*
X108206914Y-94147542D01*
X108278342Y-94147542D01*
X108385485Y-94190400D01*
X108421200Y-94233257D01*
X108706914Y-94790400D02*
X109064057Y-94790400D01*
X108635485Y-95047542D02*
X108885485Y-94147542D01*
X109135485Y-95047542D01*
X109385485Y-95047542D02*
X109385485Y-94147542D01*
X109814057Y-95047542D01*
X109814057Y-94147542D01*
X110171200Y-95047542D02*
X110171200Y-94147542D01*
X110171200Y-94576114D02*
X110599771Y-94576114D01*
X110599771Y-95047542D02*
X110599771Y-94147542D01*
X103898771Y-100032400D02*
X103827342Y-99989542D01*
X103720200Y-99989542D01*
X103613057Y-100032400D01*
X103541628Y-100118114D01*
X103505914Y-100203828D01*
X103470200Y-100375257D01*
X103470200Y-100503828D01*
X103505914Y-100675257D01*
X103541628Y-100760971D01*
X103613057Y-100846685D01*
X103720200Y-100889542D01*
X103791628Y-100889542D01*
X103898771Y-100846685D01*
X103934485Y-100803828D01*
X103934485Y-100503828D01*
X103791628Y-100503828D01*
X104255914Y-100889542D02*
X104255914Y-99989542D01*
X104684485Y-100889542D01*
X104684485Y-99989542D01*
X105041628Y-100889542D02*
X105041628Y-99989542D01*
X105220200Y-99989542D01*
X105327342Y-100032400D01*
X105398771Y-100118114D01*
X105434485Y-100203828D01*
X105470200Y-100375257D01*
X105470200Y-100503828D01*
X105434485Y-100675257D01*
X105398771Y-100760971D01*
X105327342Y-100846685D01*
X105220200Y-100889542D01*
X105041628Y-100889542D01*
X103439257Y-92369542D02*
X103903542Y-92369542D01*
X103653542Y-92712400D01*
X103760685Y-92712400D01*
X103832114Y-92755257D01*
X103867828Y-92798114D01*
X103903542Y-92883828D01*
X103903542Y-93098114D01*
X103867828Y-93183828D01*
X103832114Y-93226685D01*
X103760685Y-93269542D01*
X103546400Y-93269542D01*
X103474971Y-93226685D01*
X103439257Y-93183828D01*
X104224971Y-93183828D02*
X104260685Y-93226685D01*
X104224971Y-93269542D01*
X104189257Y-93226685D01*
X104224971Y-93183828D01*
X104224971Y-93269542D01*
X104510685Y-92369542D02*
X104974971Y-92369542D01*
X104724971Y-92712400D01*
X104832114Y-92712400D01*
X104903542Y-92755257D01*
X104939257Y-92798114D01*
X104974971Y-92883828D01*
X104974971Y-93098114D01*
X104939257Y-93183828D01*
X104903542Y-93226685D01*
X104832114Y-93269542D01*
X104617828Y-93269542D01*
X104546400Y-93226685D01*
X104510685Y-93183828D01*
X105189257Y-92369542D02*
X105439257Y-93269542D01*
X105689257Y-92369542D01*
X102453342Y-97325571D02*
X102453342Y-97682714D01*
X102881914Y-97718428D01*
X102839057Y-97682714D01*
X102796200Y-97611285D01*
X102796200Y-97432714D01*
X102839057Y-97361285D01*
X102881914Y-97325571D01*
X102967628Y-97289857D01*
X103181914Y-97289857D01*
X103267628Y-97325571D01*
X103310485Y-97361285D01*
X103353342Y-97432714D01*
X103353342Y-97611285D01*
X103310485Y-97682714D01*
X103267628Y-97718428D01*
X103267628Y-96968428D02*
X103310485Y-96932714D01*
X103353342Y-96968428D01*
X103310485Y-97004142D01*
X103267628Y-96968428D01*
X103353342Y-96968428D01*
X102453342Y-96682714D02*
X102453342Y-96218428D01*
X102796200Y-96468428D01*
X102796200Y-96361285D01*
X102839057Y-96289857D01*
X102881914Y-96254142D01*
X102967628Y-96218428D01*
X103181914Y-96218428D01*
X103267628Y-96254142D01*
X103310485Y-96289857D01*
X103353342Y-96361285D01*
X103353342Y-96575571D01*
X103310485Y-96647000D01*
X103267628Y-96682714D01*
X102453342Y-96004142D02*
X103353342Y-95754142D01*
X102453342Y-95504142D01*
D12*
X141127219Y-124186190D02*
X140889123Y-124186190D01*
X140865314Y-124424285D01*
X140889123Y-124400476D01*
X140936742Y-124376666D01*
X141055790Y-124376666D01*
X141103409Y-124400476D01*
X141127219Y-124424285D01*
X141151028Y-124471904D01*
X141151028Y-124590952D01*
X141127219Y-124638571D01*
X141103409Y-124662380D01*
X141055790Y-124686190D01*
X140936742Y-124686190D01*
X140889123Y-124662380D01*
X140865314Y-124638571D01*
X141365314Y-124638571D02*
X141389123Y-124662380D01*
X141365314Y-124686190D01*
X141341504Y-124662380D01*
X141365314Y-124638571D01*
X141365314Y-124686190D01*
X141555790Y-124186190D02*
X141865314Y-124186190D01*
X141698647Y-124376666D01*
X141770076Y-124376666D01*
X141817695Y-124400476D01*
X141841504Y-124424285D01*
X141865314Y-124471904D01*
X141865314Y-124590952D01*
X141841504Y-124638571D01*
X141817695Y-124662380D01*
X141770076Y-124686190D01*
X141627219Y-124686190D01*
X141579600Y-124662380D01*
X141555790Y-124638571D01*
X142008171Y-124186190D02*
X142174838Y-124686190D01*
X142341504Y-124186190D01*
X140808152Y-122154190D02*
X141117676Y-122154190D01*
X140951009Y-122344666D01*
X141022438Y-122344666D01*
X141070057Y-122368476D01*
X141093866Y-122392285D01*
X141117676Y-122439904D01*
X141117676Y-122558952D01*
X141093866Y-122606571D01*
X141070057Y-122630380D01*
X141022438Y-122654190D01*
X140879580Y-122654190D01*
X140831961Y-122630380D01*
X140808152Y-122606571D01*
X141284342Y-122154190D02*
X141617676Y-122154190D01*
X141403390Y-122654190D01*
X141736723Y-122154190D02*
X141903390Y-122654190D01*
X142070057Y-122154190D01*
X148631352Y-122103390D02*
X148940876Y-122103390D01*
X148774209Y-122293866D01*
X148845638Y-122293866D01*
X148893257Y-122317676D01*
X148917066Y-122341485D01*
X148940876Y-122389104D01*
X148940876Y-122508152D01*
X148917066Y-122555771D01*
X148893257Y-122579580D01*
X148845638Y-122603390D01*
X148702780Y-122603390D01*
X148655161Y-122579580D01*
X148631352Y-122555771D01*
X149107542Y-122103390D02*
X149440876Y-122103390D01*
X149226590Y-122603390D01*
X149559923Y-122103390D02*
X149726590Y-122603390D01*
X149893257Y-122103390D01*
X148848819Y-124084590D02*
X148610723Y-124084590D01*
X148586914Y-124322685D01*
X148610723Y-124298876D01*
X148658342Y-124275066D01*
X148777390Y-124275066D01*
X148825009Y-124298876D01*
X148848819Y-124322685D01*
X148872628Y-124370304D01*
X148872628Y-124489352D01*
X148848819Y-124536971D01*
X148825009Y-124560780D01*
X148777390Y-124584590D01*
X148658342Y-124584590D01*
X148610723Y-124560780D01*
X148586914Y-124536971D01*
X149086914Y-124536971D02*
X149110723Y-124560780D01*
X149086914Y-124584590D01*
X149063104Y-124560780D01*
X149086914Y-124536971D01*
X149086914Y-124584590D01*
X149277390Y-124084590D02*
X149586914Y-124084590D01*
X149420247Y-124275066D01*
X149491676Y-124275066D01*
X149539295Y-124298876D01*
X149563104Y-124322685D01*
X149586914Y-124370304D01*
X149586914Y-124489352D01*
X149563104Y-124536971D01*
X149539295Y-124560780D01*
X149491676Y-124584590D01*
X149348819Y-124584590D01*
X149301200Y-124560780D01*
X149277390Y-124536971D01*
X149729771Y-124084590D02*
X149896438Y-124584590D01*
X150063104Y-124084590D01*
D11*
X149987000Y-110261400D02*
X150596600Y-110769400D01*
X149987000Y-110261400D02*
X150622000Y-109829600D01*
X154178000Y-110261400D02*
X149987000Y-110261400D01*
X154172138Y-110959230D02*
X154178000Y-110261400D01*
X110677960Y-97891600D02*
X129423160Y-97899220D01*
X110677960Y-110982000D02*
X110677960Y-97891600D01*
X129435860Y-122867420D02*
X111635540Y-122872500D01*
X129423160Y-97899220D02*
X129435860Y-122867420D01*
X112173160Y-149793960D02*
X112163000Y-134627620D01*
X125775720Y-134627620D02*
X112163000Y-134627620D01*
X125775720Y-149804120D02*
X125775720Y-134627620D01*
D10*
X164312809Y-74612333D02*
X165265190Y-74612333D01*
X164122333Y-75183761D02*
X164789000Y-73183761D01*
X165455666Y-75183761D01*
X166122333Y-75183761D02*
X166122333Y-73183761D01*
X166598523Y-73183761D01*
X166884238Y-73279000D01*
X167074714Y-73469476D01*
X167169952Y-73659952D01*
X167265190Y-74040904D01*
X167265190Y-74326619D01*
X167169952Y-74707571D01*
X167074714Y-74898047D01*
X166884238Y-75088523D01*
X166598523Y-75183761D01*
X166122333Y-75183761D01*
X168027095Y-74612333D02*
X168979476Y-74612333D01*
X167836619Y-75183761D02*
X168503285Y-73183761D01*
X169169952Y-75183761D01*
X169836619Y-75183761D02*
X169836619Y-73183761D01*
X170503285Y-74612333D01*
X171169952Y-73183761D01*
X171169952Y-75183761D01*
X162931857Y-77636619D02*
X162979476Y-77589000D01*
X163074714Y-77541380D01*
X163312809Y-77541380D01*
X163408047Y-77589000D01*
X163455666Y-77636619D01*
X163503285Y-77731857D01*
X163503285Y-77827095D01*
X163455666Y-77969952D01*
X162884238Y-78541380D01*
X163503285Y-78541380D01*
X164122333Y-77541380D02*
X164217571Y-77541380D01*
X164312809Y-77589000D01*
X164360428Y-77636619D01*
X164408047Y-77731857D01*
X164455666Y-77922333D01*
X164455666Y-78160428D01*
X164408047Y-78350904D01*
X164360428Y-78446142D01*
X164312809Y-78493761D01*
X164217571Y-78541380D01*
X164122333Y-78541380D01*
X164027095Y-78493761D01*
X163979476Y-78446142D01*
X163931857Y-78350904D01*
X163884238Y-78160428D01*
X163884238Y-77922333D01*
X163931857Y-77731857D01*
X163979476Y-77636619D01*
X164027095Y-77589000D01*
X164122333Y-77541380D01*
X164836619Y-77636619D02*
X164884238Y-77589000D01*
X164979476Y-77541380D01*
X165217571Y-77541380D01*
X165312809Y-77589000D01*
X165360428Y-77636619D01*
X165408047Y-77731857D01*
X165408047Y-77827095D01*
X165360428Y-77969952D01*
X164789000Y-78541380D01*
X165408047Y-78541380D01*
X166360428Y-78541380D02*
X165789000Y-78541380D01*
X166074714Y-78541380D02*
X166074714Y-77541380D01*
X165979476Y-77684238D01*
X165884238Y-77779476D01*
X165789000Y-77827095D01*
X166789000Y-78160428D02*
X167550904Y-78160428D01*
X168217571Y-77541380D02*
X168312809Y-77541380D01*
X168408047Y-77589000D01*
X168455666Y-77636619D01*
X168503285Y-77731857D01*
X168550904Y-77922333D01*
X168550904Y-78160428D01*
X168503285Y-78350904D01*
X168455666Y-78446142D01*
X168408047Y-78493761D01*
X168312809Y-78541380D01*
X168217571Y-78541380D01*
X168122333Y-78493761D01*
X168074714Y-78446142D01*
X168027095Y-78350904D01*
X167979476Y-78160428D01*
X167979476Y-77922333D01*
X168027095Y-77731857D01*
X168074714Y-77636619D01*
X168122333Y-77589000D01*
X168217571Y-77541380D01*
X168884238Y-77541380D02*
X169550904Y-77541380D01*
X169122333Y-78541380D01*
X169931857Y-78160428D02*
X170693761Y-78160428D01*
X171693761Y-78541380D02*
X171122333Y-78541380D01*
X171408047Y-78541380D02*
X171408047Y-77541380D01*
X171312809Y-77684238D01*
X171217571Y-77779476D01*
X171122333Y-77827095D01*
X172598523Y-77541380D02*
X172122333Y-77541380D01*
X172074714Y-78017571D01*
X172122333Y-77969952D01*
X172217571Y-77922333D01*
X172455666Y-77922333D01*
X172550904Y-77969952D01*
X172598523Y-78017571D01*
X172646142Y-78112809D01*
X172646142Y-78350904D01*
X172598523Y-78446142D01*
X172550904Y-78493761D01*
X172455666Y-78541380D01*
X172217571Y-78541380D01*
X172122333Y-78493761D01*
X172074714Y-78446142D01*
X164915952Y-76890380D02*
X164582619Y-76414190D01*
X164344523Y-76890380D02*
X164344523Y-75890380D01*
X164725476Y-75890380D01*
X164820714Y-75938000D01*
X164868333Y-75985619D01*
X164915952Y-76080857D01*
X164915952Y-76223714D01*
X164868333Y-76318952D01*
X164820714Y-76366571D01*
X164725476Y-76414190D01*
X164344523Y-76414190D01*
X165344523Y-76795142D02*
X165392142Y-76842761D01*
X165344523Y-76890380D01*
X165296904Y-76842761D01*
X165344523Y-76795142D01*
X165344523Y-76890380D01*
X166582619Y-76890380D02*
X166582619Y-75890380D01*
X166820714Y-75890380D01*
X166963571Y-75938000D01*
X167058809Y-76033238D01*
X167106428Y-76128476D01*
X167154047Y-76318952D01*
X167154047Y-76461809D01*
X167106428Y-76652285D01*
X167058809Y-76747523D01*
X166963571Y-76842761D01*
X166820714Y-76890380D01*
X166582619Y-76890380D01*
X168011190Y-76890380D02*
X168011190Y-76366571D01*
X167963571Y-76271333D01*
X167868333Y-76223714D01*
X167677857Y-76223714D01*
X167582619Y-76271333D01*
X168011190Y-76842761D02*
X167915952Y-76890380D01*
X167677857Y-76890380D01*
X167582619Y-76842761D01*
X167535000Y-76747523D01*
X167535000Y-76652285D01*
X167582619Y-76557047D01*
X167677857Y-76509428D01*
X167915952Y-76509428D01*
X168011190Y-76461809D01*
X168487380Y-76890380D02*
X168487380Y-75890380D01*
X168582619Y-76509428D02*
X168868333Y-76890380D01*
X168868333Y-76223714D02*
X168487380Y-76604666D01*
X169296904Y-76890380D02*
X169296904Y-75890380D01*
X169725476Y-76890380D02*
X169725476Y-76366571D01*
X169677857Y-76271333D01*
X169582619Y-76223714D01*
X169439761Y-76223714D01*
X169344523Y-76271333D01*
X169296904Y-76318952D01*
X170201666Y-76890380D02*
X170201666Y-76223714D01*
X170201666Y-75890380D02*
X170154047Y-75938000D01*
X170201666Y-75985619D01*
X170249285Y-75938000D01*
X170201666Y-75890380D01*
X170201666Y-75985619D01*
X170820714Y-76890380D02*
X170725476Y-76842761D01*
X170677857Y-76747523D01*
X170677857Y-75890380D01*
X117095211Y-145004211D02*
X117238068Y-145051830D01*
X117285687Y-145099449D01*
X117333306Y-145194687D01*
X117333306Y-145337544D01*
X117285687Y-145432782D01*
X117238068Y-145480401D01*
X117142830Y-145528020D01*
X116761878Y-145528020D01*
X116761878Y-144528020D01*
X117095211Y-144528020D01*
X117190449Y-144575640D01*
X117238068Y-144623259D01*
X117285687Y-144718497D01*
X117285687Y-144813735D01*
X117238068Y-144908973D01*
X117190449Y-144956592D01*
X117095211Y-145004211D01*
X116761878Y-145004211D01*
X118190449Y-145528020D02*
X118190449Y-145004211D01*
X118142830Y-144908973D01*
X118047592Y-144861354D01*
X117857116Y-144861354D01*
X117761878Y-144908973D01*
X118190449Y-145480401D02*
X118095211Y-145528020D01*
X117857116Y-145528020D01*
X117761878Y-145480401D01*
X117714259Y-145385163D01*
X117714259Y-145289925D01*
X117761878Y-145194687D01*
X117857116Y-145147068D01*
X118095211Y-145147068D01*
X118190449Y-145099449D01*
X118523782Y-144861354D02*
X118904735Y-144861354D01*
X118666640Y-144528020D02*
X118666640Y-145385163D01*
X118714259Y-145480401D01*
X118809497Y-145528020D01*
X118904735Y-145528020D01*
X119095211Y-144861354D02*
X119476163Y-144861354D01*
X119238068Y-144528020D02*
X119238068Y-145385163D01*
X119285687Y-145480401D01*
X119380925Y-145528020D01*
X119476163Y-145528020D01*
X120190449Y-145480401D02*
X120095211Y-145528020D01*
X119904735Y-145528020D01*
X119809497Y-145480401D01*
X119761878Y-145385163D01*
X119761878Y-145004211D01*
X119809497Y-144908973D01*
X119904735Y-144861354D01*
X120095211Y-144861354D01*
X120190449Y-144908973D01*
X120238068Y-145004211D01*
X120238068Y-145099449D01*
X119761878Y-145194687D01*
X120666640Y-145528020D02*
X120666640Y-144861354D01*
X120666640Y-145051830D02*
X120714259Y-144956592D01*
X120761878Y-144908973D01*
X120857116Y-144861354D01*
X120952354Y-144861354D01*
X121190449Y-144861354D02*
X121428544Y-145528020D01*
X121666640Y-144861354D02*
X121428544Y-145528020D01*
X121333306Y-145766116D01*
X121285687Y-145813735D01*
X121190449Y-145861354D01*
X117238068Y-147082782D02*
X117190449Y-147130401D01*
X117047592Y-147178020D01*
X116952354Y-147178020D01*
X116809497Y-147130401D01*
X116714259Y-147035163D01*
X116666640Y-146939925D01*
X116619020Y-146749449D01*
X116619020Y-146606592D01*
X116666640Y-146416116D01*
X116714259Y-146320878D01*
X116809497Y-146225640D01*
X116952354Y-146178020D01*
X117047592Y-146178020D01*
X117190449Y-146225640D01*
X117238068Y-146273259D01*
X118095211Y-146511354D02*
X118095211Y-147178020D01*
X117666640Y-146511354D02*
X117666640Y-147035163D01*
X117714259Y-147130401D01*
X117809497Y-147178020D01*
X117952354Y-147178020D01*
X118047592Y-147130401D01*
X118095211Y-147082782D01*
X118571401Y-147178020D02*
X118571401Y-146511354D01*
X118571401Y-146701830D02*
X118619020Y-146606592D01*
X118666640Y-146558973D01*
X118761878Y-146511354D01*
X118857116Y-146511354D01*
X119190449Y-147178020D02*
X119190449Y-146511354D01*
X119190449Y-146701830D02*
X119238068Y-146606592D01*
X119285687Y-146558973D01*
X119380925Y-146511354D01*
X119476163Y-146511354D01*
X120190449Y-147130401D02*
X120095211Y-147178020D01*
X119904735Y-147178020D01*
X119809497Y-147130401D01*
X119761878Y-147035163D01*
X119761878Y-146654211D01*
X119809497Y-146558973D01*
X119904735Y-146511354D01*
X120095211Y-146511354D01*
X120190449Y-146558973D01*
X120238068Y-146654211D01*
X120238068Y-146749449D01*
X119761878Y-146844687D01*
X120666640Y-146511354D02*
X120666640Y-147178020D01*
X120666640Y-146606592D02*
X120714259Y-146558973D01*
X120809497Y-146511354D01*
X120952354Y-146511354D01*
X121047592Y-146558973D01*
X121095211Y-146654211D01*
X121095211Y-147178020D01*
X121428544Y-146511354D02*
X121809497Y-146511354D01*
X121571401Y-146178020D02*
X121571401Y-147035163D01*
X121619020Y-147130401D01*
X121714259Y-147178020D01*
X121809497Y-147178020D01*
X116452354Y-148780401D02*
X116595211Y-148828020D01*
X116833306Y-148828020D01*
X116928544Y-148780401D01*
X116976163Y-148732782D01*
X117023782Y-148637544D01*
X117023782Y-148542306D01*
X116976163Y-148447068D01*
X116928544Y-148399449D01*
X116833306Y-148351830D01*
X116642830Y-148304211D01*
X116547592Y-148256592D01*
X116499973Y-148208973D01*
X116452354Y-148113735D01*
X116452354Y-148018497D01*
X116499973Y-147923259D01*
X116547592Y-147875640D01*
X116642830Y-147828020D01*
X116880925Y-147828020D01*
X117023782Y-147875640D01*
X117833306Y-148780401D02*
X117738068Y-148828020D01*
X117547592Y-148828020D01*
X117452354Y-148780401D01*
X117404735Y-148685163D01*
X117404735Y-148304211D01*
X117452354Y-148208973D01*
X117547592Y-148161354D01*
X117738068Y-148161354D01*
X117833306Y-148208973D01*
X117880925Y-148304211D01*
X117880925Y-148399449D01*
X117404735Y-148494687D01*
X118309497Y-148161354D02*
X118309497Y-148828020D01*
X118309497Y-148256592D02*
X118357116Y-148208973D01*
X118452354Y-148161354D01*
X118595211Y-148161354D01*
X118690449Y-148208973D01*
X118738068Y-148304211D01*
X118738068Y-148828020D01*
X119166640Y-148780401D02*
X119261878Y-148828020D01*
X119452354Y-148828020D01*
X119547592Y-148780401D01*
X119595211Y-148685163D01*
X119595211Y-148637544D01*
X119547592Y-148542306D01*
X119452354Y-148494687D01*
X119309497Y-148494687D01*
X119214259Y-148447068D01*
X119166640Y-148351830D01*
X119166640Y-148304211D01*
X119214259Y-148208973D01*
X119309497Y-148161354D01*
X119452354Y-148161354D01*
X119547592Y-148208973D01*
X120023782Y-148828020D02*
X120023782Y-148161354D01*
X120023782Y-147828020D02*
X119976163Y-147875640D01*
X120023782Y-147923259D01*
X120071401Y-147875640D01*
X120023782Y-147828020D01*
X120023782Y-147923259D01*
X120499973Y-148161354D02*
X120499973Y-148828020D01*
X120499973Y-148256592D02*
X120547592Y-148208973D01*
X120642830Y-148161354D01*
X120785687Y-148161354D01*
X120880925Y-148208973D01*
X120928544Y-148304211D01*
X120928544Y-148828020D01*
X121833306Y-148161354D02*
X121833306Y-148970878D01*
X121785687Y-149066116D01*
X121738068Y-149113735D01*
X121642830Y-149161354D01*
X121499973Y-149161354D01*
X121404735Y-149113735D01*
X121833306Y-148780401D02*
X121738068Y-148828020D01*
X121547592Y-148828020D01*
X121452354Y-148780401D01*
X121404735Y-148732782D01*
X121357116Y-148637544D01*
X121357116Y-148351830D01*
X121404735Y-148256592D01*
X121452354Y-148208973D01*
X121547592Y-148161354D01*
X121738068Y-148161354D01*
X121833306Y-148208973D01*
X138106590Y-107462580D02*
X137773257Y-106986390D01*
X137535161Y-107462580D02*
X137535161Y-106462580D01*
X137916114Y-106462580D01*
X138011352Y-106510200D01*
X138058971Y-106557819D01*
X138106590Y-106653057D01*
X138106590Y-106795914D01*
X138058971Y-106891152D01*
X138011352Y-106938771D01*
X137916114Y-106986390D01*
X137535161Y-106986390D01*
X138678019Y-107462580D02*
X138582780Y-107414961D01*
X138535161Y-107367342D01*
X138487542Y-107272104D01*
X138487542Y-106986390D01*
X138535161Y-106891152D01*
X138582780Y-106843533D01*
X138678019Y-106795914D01*
X138820876Y-106795914D01*
X138916114Y-106843533D01*
X138963733Y-106891152D01*
X139011352Y-106986390D01*
X139011352Y-107272104D01*
X138963733Y-107367342D01*
X138916114Y-107414961D01*
X138820876Y-107462580D01*
X138678019Y-107462580D01*
X139868495Y-107414961D02*
X139773257Y-107462580D01*
X139582780Y-107462580D01*
X139487542Y-107414961D01*
X139439923Y-107367342D01*
X139392304Y-107272104D01*
X139392304Y-106986390D01*
X139439923Y-106891152D01*
X139487542Y-106843533D01*
X139582780Y-106795914D01*
X139773257Y-106795914D01*
X139868495Y-106843533D01*
X140297066Y-107462580D02*
X140297066Y-106462580D01*
X140392304Y-107081628D02*
X140678019Y-107462580D01*
X140678019Y-106795914D02*
X140297066Y-107176866D01*
X141487542Y-107414961D02*
X141392304Y-107462580D01*
X141201828Y-107462580D01*
X141106590Y-107414961D01*
X141058971Y-107319723D01*
X141058971Y-106938771D01*
X141106590Y-106843533D01*
X141201828Y-106795914D01*
X141392304Y-106795914D01*
X141487542Y-106843533D01*
X141535161Y-106938771D01*
X141535161Y-107034009D01*
X141058971Y-107129247D01*
X141820876Y-106795914D02*
X142201828Y-106795914D01*
X141963733Y-106462580D02*
X141963733Y-107319723D01*
X142011352Y-107414961D01*
X142106590Y-107462580D01*
X142201828Y-107462580D01*
X143868495Y-107367342D02*
X143820876Y-107414961D01*
X143678019Y-107462580D01*
X143582780Y-107462580D01*
X143439923Y-107414961D01*
X143344685Y-107319723D01*
X143297066Y-107224485D01*
X143249447Y-107034009D01*
X143249447Y-106891152D01*
X143297066Y-106700676D01*
X143344685Y-106605438D01*
X143439923Y-106510200D01*
X143582780Y-106462580D01*
X143678019Y-106462580D01*
X143820876Y-106510200D01*
X143868495Y-106557819D01*
X144249447Y-107176866D02*
X144725638Y-107176866D01*
X144154209Y-107462580D02*
X144487542Y-106462580D01*
X144820876Y-107462580D01*
X145154209Y-107462580D02*
X145154209Y-106462580D01*
X145725638Y-107462580D01*
X145725638Y-106462580D01*
D11*
X144614900Y-68328540D02*
X130939540Y-68318380D01*
X144589500Y-86451440D02*
X130949700Y-86461600D01*
X144589500Y-86443820D02*
X144604740Y-68338700D01*
X130939540Y-68318380D02*
X130962400Y-86461600D01*
D10*
X131158409Y-84942988D02*
X131920314Y-84942988D01*
X131539361Y-85323940D02*
X131539361Y-84562036D01*
X132301266Y-84323940D02*
X132920314Y-84323940D01*
X132586980Y-84704893D01*
X132729838Y-84704893D01*
X132825076Y-84752512D01*
X132872695Y-84800131D01*
X132920314Y-84895369D01*
X132920314Y-85133464D01*
X132872695Y-85228702D01*
X132825076Y-85276321D01*
X132729838Y-85323940D01*
X132444123Y-85323940D01*
X132348885Y-85276321D01*
X132301266Y-85228702D01*
X133348885Y-85228702D02*
X133396504Y-85276321D01*
X133348885Y-85323940D01*
X133301266Y-85276321D01*
X133348885Y-85228702D01*
X133348885Y-85323940D01*
X133729838Y-84323940D02*
X134348885Y-84323940D01*
X134015552Y-84704893D01*
X134158409Y-84704893D01*
X134253647Y-84752512D01*
X134301266Y-84800131D01*
X134348885Y-84895369D01*
X134348885Y-85133464D01*
X134301266Y-85228702D01*
X134253647Y-85276321D01*
X134158409Y-85323940D01*
X133872695Y-85323940D01*
X133777457Y-85276321D01*
X133729838Y-85228702D01*
X134634600Y-84323940D02*
X134967933Y-85323940D01*
X135301266Y-84323940D01*
X136967933Y-85323940D02*
X136634600Y-84847750D01*
X136396504Y-85323940D02*
X136396504Y-84323940D01*
X136777457Y-84323940D01*
X136872695Y-84371560D01*
X136920314Y-84419179D01*
X136967933Y-84514417D01*
X136967933Y-84657274D01*
X136920314Y-84752512D01*
X136872695Y-84800131D01*
X136777457Y-84847750D01*
X136396504Y-84847750D01*
X137777457Y-85276321D02*
X137682219Y-85323940D01*
X137491742Y-85323940D01*
X137396504Y-85276321D01*
X137348885Y-85181083D01*
X137348885Y-84800131D01*
X137396504Y-84704893D01*
X137491742Y-84657274D01*
X137682219Y-84657274D01*
X137777457Y-84704893D01*
X137825076Y-84800131D01*
X137825076Y-84895369D01*
X137348885Y-84990607D01*
X138682219Y-84657274D02*
X138682219Y-85466798D01*
X138634600Y-85562036D01*
X138586980Y-85609655D01*
X138491742Y-85657274D01*
X138348885Y-85657274D01*
X138253647Y-85609655D01*
X138682219Y-85276321D02*
X138586980Y-85323940D01*
X138396504Y-85323940D01*
X138301266Y-85276321D01*
X138253647Y-85228702D01*
X138206028Y-85133464D01*
X138206028Y-84847750D01*
X138253647Y-84752512D01*
X138301266Y-84704893D01*
X138396504Y-84657274D01*
X138586980Y-84657274D01*
X138682219Y-84704893D01*
X139586980Y-84657274D02*
X139586980Y-85323940D01*
X139158409Y-84657274D02*
X139158409Y-85181083D01*
X139206028Y-85276321D01*
X139301266Y-85323940D01*
X139444123Y-85323940D01*
X139539361Y-85276321D01*
X139586980Y-85228702D01*
X140206028Y-85323940D02*
X140110790Y-85276321D01*
X140063171Y-85181083D01*
X140063171Y-84323940D01*
X141015552Y-85323940D02*
X141015552Y-84800131D01*
X140967933Y-84704893D01*
X140872695Y-84657274D01*
X140682219Y-84657274D01*
X140586980Y-84704893D01*
X141015552Y-85276321D02*
X140920314Y-85323940D01*
X140682219Y-85323940D01*
X140586980Y-85276321D01*
X140539361Y-85181083D01*
X140539361Y-85085845D01*
X140586980Y-84990607D01*
X140682219Y-84942988D01*
X140920314Y-84942988D01*
X141015552Y-84895369D01*
X141348885Y-84657274D02*
X141729838Y-84657274D01*
X141491742Y-84323940D02*
X141491742Y-85181083D01*
X141539361Y-85276321D01*
X141634600Y-85323940D01*
X141729838Y-85323940D01*
X142206028Y-85323940D02*
X142110790Y-85276321D01*
X142063171Y-85228702D01*
X142015552Y-85133464D01*
X142015552Y-84847750D01*
X142063171Y-84752512D01*
X142110790Y-84704893D01*
X142206028Y-84657274D01*
X142348885Y-84657274D01*
X142444123Y-84704893D01*
X142491742Y-84752512D01*
X142539361Y-84847750D01*
X142539361Y-85133464D01*
X142491742Y-85228702D01*
X142444123Y-85276321D01*
X142348885Y-85323940D01*
X142206028Y-85323940D01*
X142967933Y-85323940D02*
X142967933Y-84657274D01*
X142967933Y-84847750D02*
X143015552Y-84752512D01*
X143063171Y-84704893D01*
X143158409Y-84657274D01*
X143253647Y-84657274D01*
X175864714Y-117000380D02*
X175864714Y-116000380D01*
X176198047Y-116714666D01*
X176531380Y-116000380D01*
X176531380Y-117000380D01*
X177007571Y-117000380D02*
X177007571Y-116333714D01*
X177007571Y-116000380D02*
X176959952Y-116048000D01*
X177007571Y-116095619D01*
X177055190Y-116048000D01*
X177007571Y-116000380D01*
X177007571Y-116095619D01*
X177483761Y-116333714D02*
X177483761Y-117000380D01*
X177483761Y-116428952D02*
X177531380Y-116381333D01*
X177626619Y-116333714D01*
X177769476Y-116333714D01*
X177864714Y-116381333D01*
X177912333Y-116476571D01*
X177912333Y-117000380D01*
X178388523Y-117000380D02*
X178388523Y-116333714D01*
X178388523Y-116000380D02*
X178340904Y-116048000D01*
X178388523Y-116095619D01*
X178436142Y-116048000D01*
X178388523Y-116000380D01*
X178388523Y-116095619D01*
X178817095Y-116952761D02*
X178912333Y-117000380D01*
X179102809Y-117000380D01*
X179198047Y-116952761D01*
X179245666Y-116857523D01*
X179245666Y-116809904D01*
X179198047Y-116714666D01*
X179102809Y-116667047D01*
X178959952Y-116667047D01*
X178864714Y-116619428D01*
X178817095Y-116524190D01*
X178817095Y-116476571D01*
X178864714Y-116381333D01*
X178959952Y-116333714D01*
X179102809Y-116333714D01*
X179198047Y-116381333D01*
X180055190Y-116952761D02*
X179959952Y-117000380D01*
X179769476Y-117000380D01*
X179674238Y-116952761D01*
X179626619Y-116857523D01*
X179626619Y-116476571D01*
X179674238Y-116381333D01*
X179769476Y-116333714D01*
X179959952Y-116333714D01*
X180055190Y-116381333D01*
X180102809Y-116476571D01*
X180102809Y-116571809D01*
X179626619Y-116667047D01*
X180531380Y-116333714D02*
X180531380Y-117000380D01*
X180531380Y-116428952D02*
X180579000Y-116381333D01*
X180674238Y-116333714D01*
X180817095Y-116333714D01*
X180912333Y-116381333D01*
X180959952Y-116476571D01*
X180959952Y-117000380D01*
X181388523Y-116952761D02*
X181483761Y-117000380D01*
X181674238Y-117000380D01*
X181769476Y-116952761D01*
X181817095Y-116857523D01*
X181817095Y-116809904D01*
X181769476Y-116714666D01*
X181674238Y-116667047D01*
X181531380Y-116667047D01*
X181436142Y-116619428D01*
X181388523Y-116524190D01*
X181388523Y-116476571D01*
X181436142Y-116381333D01*
X181531380Y-116333714D01*
X181674238Y-116333714D01*
X181769476Y-116381333D01*
X182388523Y-117000380D02*
X182293285Y-116952761D01*
X182245666Y-116905142D01*
X182198047Y-116809904D01*
X182198047Y-116524190D01*
X182245666Y-116428952D01*
X182293285Y-116381333D01*
X182388523Y-116333714D01*
X182531380Y-116333714D01*
X182626619Y-116381333D01*
X182674238Y-116428952D01*
X182721857Y-116524190D01*
X182721857Y-116809904D01*
X182674238Y-116905142D01*
X182626619Y-116952761D01*
X182531380Y-117000380D01*
X182388523Y-117000380D01*
X183150428Y-117000380D02*
X183150428Y-116333714D01*
X183150428Y-116524190D02*
X183198047Y-116428952D01*
X183245666Y-116381333D01*
X183340904Y-116333714D01*
X183436142Y-116333714D01*
X158088414Y-93457412D02*
X158088414Y-90957412D01*
X158683652Y-90957412D01*
X159040795Y-91076460D01*
X159278890Y-91314555D01*
X159397938Y-91552650D01*
X159516985Y-92028840D01*
X159516985Y-92385983D01*
X159397938Y-92862174D01*
X159278890Y-93100269D01*
X159040795Y-93338364D01*
X158683652Y-93457412D01*
X158088414Y-93457412D01*
X160588414Y-93457412D02*
X160588414Y-90957412D01*
X162016985Y-93457412D01*
X162016985Y-90957412D01*
X163207461Y-93457412D02*
X163207461Y-90957412D01*
X164159842Y-90957412D01*
X164397938Y-91076460D01*
X164516985Y-91195507D01*
X164636033Y-91433602D01*
X164636033Y-91790745D01*
X164516985Y-92028840D01*
X164397938Y-92147888D01*
X164159842Y-92266936D01*
X163207461Y-92266936D01*
D11*
X157705200Y-80959200D02*
X157704000Y-93873000D01*
X173729000Y-80959200D02*
X157705200Y-80959200D01*
X173729000Y-93873000D02*
X173728140Y-80959200D01*
X157704000Y-93873000D02*
X173729000Y-93873000D01*
D10*
X160222104Y-81894228D02*
X160984009Y-81894228D01*
X160603057Y-82275180D02*
X160603057Y-81513276D01*
X161984009Y-82275180D02*
X161412580Y-82275180D01*
X161698295Y-82275180D02*
X161698295Y-81275180D01*
X161603057Y-81418038D01*
X161507819Y-81513276D01*
X161412580Y-81560895D01*
X162364961Y-81370419D02*
X162412580Y-81322800D01*
X162507819Y-81275180D01*
X162745914Y-81275180D01*
X162841152Y-81322800D01*
X162888771Y-81370419D01*
X162936390Y-81465657D01*
X162936390Y-81560895D01*
X162888771Y-81703752D01*
X162317342Y-82275180D01*
X162936390Y-82275180D01*
X163222104Y-81275180D02*
X163555438Y-82275180D01*
X163888771Y-81275180D01*
X165555438Y-82275180D02*
X165222104Y-81798990D01*
X164984009Y-82275180D02*
X164984009Y-81275180D01*
X165364961Y-81275180D01*
X165460200Y-81322800D01*
X165507819Y-81370419D01*
X165555438Y-81465657D01*
X165555438Y-81608514D01*
X165507819Y-81703752D01*
X165460200Y-81751371D01*
X165364961Y-81798990D01*
X164984009Y-81798990D01*
X166364961Y-82227561D02*
X166269723Y-82275180D01*
X166079247Y-82275180D01*
X165984009Y-82227561D01*
X165936390Y-82132323D01*
X165936390Y-81751371D01*
X165984009Y-81656133D01*
X166079247Y-81608514D01*
X166269723Y-81608514D01*
X166364961Y-81656133D01*
X166412580Y-81751371D01*
X166412580Y-81846609D01*
X165936390Y-81941847D01*
X167269723Y-81608514D02*
X167269723Y-82418038D01*
X167222104Y-82513276D01*
X167174485Y-82560895D01*
X167079247Y-82608514D01*
X166936390Y-82608514D01*
X166841152Y-82560895D01*
X167269723Y-82227561D02*
X167174485Y-82275180D01*
X166984009Y-82275180D01*
X166888771Y-82227561D01*
X166841152Y-82179942D01*
X166793533Y-82084704D01*
X166793533Y-81798990D01*
X166841152Y-81703752D01*
X166888771Y-81656133D01*
X166984009Y-81608514D01*
X167174485Y-81608514D01*
X167269723Y-81656133D01*
X168174485Y-81608514D02*
X168174485Y-82275180D01*
X167745914Y-81608514D02*
X167745914Y-82132323D01*
X167793533Y-82227561D01*
X167888771Y-82275180D01*
X168031628Y-82275180D01*
X168126866Y-82227561D01*
X168174485Y-82179942D01*
X168793533Y-82275180D02*
X168698295Y-82227561D01*
X168650676Y-82132323D01*
X168650676Y-81275180D01*
X169603057Y-82275180D02*
X169603057Y-81751371D01*
X169555438Y-81656133D01*
X169460200Y-81608514D01*
X169269723Y-81608514D01*
X169174485Y-81656133D01*
X169603057Y-82227561D02*
X169507819Y-82275180D01*
X169269723Y-82275180D01*
X169174485Y-82227561D01*
X169126866Y-82132323D01*
X169126866Y-82037085D01*
X169174485Y-81941847D01*
X169269723Y-81894228D01*
X169507819Y-81894228D01*
X169603057Y-81846609D01*
X169936390Y-81608514D02*
X170317342Y-81608514D01*
X170079247Y-81275180D02*
X170079247Y-82132323D01*
X170126866Y-82227561D01*
X170222104Y-82275180D01*
X170317342Y-82275180D01*
X170793533Y-82275180D02*
X170698295Y-82227561D01*
X170650676Y-82179942D01*
X170603057Y-82084704D01*
X170603057Y-81798990D01*
X170650676Y-81703752D01*
X170698295Y-81656133D01*
X170793533Y-81608514D01*
X170936390Y-81608514D01*
X171031628Y-81656133D01*
X171079247Y-81703752D01*
X171126866Y-81798990D01*
X171126866Y-82084704D01*
X171079247Y-82179942D01*
X171031628Y-82227561D01*
X170936390Y-82275180D01*
X170793533Y-82275180D01*
X171555438Y-82275180D02*
X171555438Y-81608514D01*
X171555438Y-81798990D02*
X171603057Y-81703752D01*
X171650676Y-81656133D01*
X171745914Y-81608514D01*
X171841152Y-81608514D01*
D11*
X130121660Y-87574120D02*
X130126740Y-101083620D01*
X143012160Y-87627460D02*
X130121660Y-87617300D01*
X143014700Y-101076000D02*
X143012160Y-87627460D01*
X130126740Y-101083620D02*
X143014700Y-101076000D01*
D10*
X150187684Y-133083560D02*
X150187684Y-132083560D01*
X150521018Y-132797846D01*
X150854351Y-132083560D01*
X150854351Y-133083560D01*
X151330541Y-133083560D02*
X151330541Y-132416894D01*
X151330541Y-132083560D02*
X151282922Y-132131180D01*
X151330541Y-132178799D01*
X151378160Y-132131180D01*
X151330541Y-132083560D01*
X151330541Y-132178799D01*
X152235303Y-133035941D02*
X152140065Y-133083560D01*
X151949589Y-133083560D01*
X151854351Y-133035941D01*
X151806732Y-132988322D01*
X151759113Y-132893084D01*
X151759113Y-132607370D01*
X151806732Y-132512132D01*
X151854351Y-132464513D01*
X151949589Y-132416894D01*
X152140065Y-132416894D01*
X152235303Y-132464513D01*
X152663875Y-133083560D02*
X152663875Y-132416894D01*
X152663875Y-132607370D02*
X152711494Y-132512132D01*
X152759113Y-132464513D01*
X152854351Y-132416894D01*
X152949589Y-132416894D01*
X153425780Y-133083560D02*
X153330541Y-133035941D01*
X153282922Y-132988322D01*
X153235303Y-132893084D01*
X153235303Y-132607370D01*
X153282922Y-132512132D01*
X153330541Y-132464513D01*
X153425780Y-132416894D01*
X153568637Y-132416894D01*
X153663875Y-132464513D01*
X153711494Y-132512132D01*
X153759113Y-132607370D01*
X153759113Y-132893084D01*
X153711494Y-132988322D01*
X153663875Y-133035941D01*
X153568637Y-133083560D01*
X153425780Y-133083560D01*
X154140065Y-133035941D02*
X154282922Y-133083560D01*
X154521018Y-133083560D01*
X154616256Y-133035941D01*
X154663875Y-132988322D01*
X154711494Y-132893084D01*
X154711494Y-132797846D01*
X154663875Y-132702608D01*
X154616256Y-132654989D01*
X154521018Y-132607370D01*
X154330541Y-132559751D01*
X154235303Y-132512132D01*
X154187684Y-132464513D01*
X154140065Y-132369275D01*
X154140065Y-132274037D01*
X154187684Y-132178799D01*
X154235303Y-132131180D01*
X154330541Y-132083560D01*
X154568637Y-132083560D01*
X154711494Y-132131180D01*
X155140065Y-133083560D02*
X155140065Y-132083560D01*
X155378160Y-132083560D01*
X155521018Y-132131180D01*
X155616256Y-132226418D01*
X155663875Y-132321656D01*
X155711494Y-132512132D01*
X155711494Y-132654989D01*
X155663875Y-132845465D01*
X155616256Y-132940703D01*
X155521018Y-133035941D01*
X155378160Y-133083560D01*
X155140065Y-133083560D01*
X132704266Y-98874580D02*
X132228076Y-98874580D01*
X132228076Y-97874580D01*
X133180457Y-98874580D02*
X133085219Y-98826961D01*
X133037600Y-98779342D01*
X132989980Y-98684104D01*
X132989980Y-98398390D01*
X133037600Y-98303152D01*
X133085219Y-98255533D01*
X133180457Y-98207914D01*
X133323314Y-98207914D01*
X133418552Y-98255533D01*
X133466171Y-98303152D01*
X133513790Y-98398390D01*
X133513790Y-98684104D01*
X133466171Y-98779342D01*
X133418552Y-98826961D01*
X133323314Y-98874580D01*
X133180457Y-98874580D01*
X134370933Y-98207914D02*
X134370933Y-99017438D01*
X134323314Y-99112676D01*
X134275695Y-99160295D01*
X134180457Y-99207914D01*
X134037600Y-99207914D01*
X133942361Y-99160295D01*
X134370933Y-98826961D02*
X134275695Y-98874580D01*
X134085219Y-98874580D01*
X133989980Y-98826961D01*
X133942361Y-98779342D01*
X133894742Y-98684104D01*
X133894742Y-98398390D01*
X133942361Y-98303152D01*
X133989980Y-98255533D01*
X134085219Y-98207914D01*
X134275695Y-98207914D01*
X134370933Y-98255533D01*
X135275695Y-98207914D02*
X135275695Y-99017438D01*
X135228076Y-99112676D01*
X135180457Y-99160295D01*
X135085219Y-99207914D01*
X134942361Y-99207914D01*
X134847123Y-99160295D01*
X135275695Y-98826961D02*
X135180457Y-98874580D01*
X134989980Y-98874580D01*
X134894742Y-98826961D01*
X134847123Y-98779342D01*
X134799504Y-98684104D01*
X134799504Y-98398390D01*
X134847123Y-98303152D01*
X134894742Y-98255533D01*
X134989980Y-98207914D01*
X135180457Y-98207914D01*
X135275695Y-98255533D01*
X136132838Y-98826961D02*
X136037600Y-98874580D01*
X135847123Y-98874580D01*
X135751885Y-98826961D01*
X135704266Y-98731723D01*
X135704266Y-98350771D01*
X135751885Y-98255533D01*
X135847123Y-98207914D01*
X136037600Y-98207914D01*
X136132838Y-98255533D01*
X136180457Y-98350771D01*
X136180457Y-98446009D01*
X135704266Y-98541247D01*
X136609028Y-98874580D02*
X136609028Y-98207914D01*
X136609028Y-98398390D02*
X136656647Y-98303152D01*
X136704266Y-98255533D01*
X136799504Y-98207914D01*
X136894742Y-98207914D01*
X138418552Y-98826961D02*
X138323314Y-98874580D01*
X138132838Y-98874580D01*
X138037600Y-98826961D01*
X137989980Y-98779342D01*
X137942361Y-98684104D01*
X137942361Y-98398390D01*
X137989980Y-98303152D01*
X138037600Y-98255533D01*
X138132838Y-98207914D01*
X138323314Y-98207914D01*
X138418552Y-98255533D01*
X139275695Y-98207914D02*
X139275695Y-98874580D01*
X138847123Y-98207914D02*
X138847123Y-98731723D01*
X138894742Y-98826961D01*
X138989980Y-98874580D01*
X139132838Y-98874580D01*
X139228076Y-98826961D01*
X139275695Y-98779342D01*
X139751885Y-98874580D02*
X139751885Y-98207914D01*
X139751885Y-98398390D02*
X139799504Y-98303152D01*
X139847123Y-98255533D01*
X139942361Y-98207914D01*
X140037600Y-98207914D01*
X140370933Y-98874580D02*
X140370933Y-98207914D01*
X140370933Y-98398390D02*
X140418552Y-98303152D01*
X140466171Y-98255533D01*
X140561409Y-98207914D01*
X140656647Y-98207914D01*
X141370933Y-98826961D02*
X141275695Y-98874580D01*
X141085219Y-98874580D01*
X140989980Y-98826961D01*
X140942361Y-98731723D01*
X140942361Y-98350771D01*
X140989980Y-98255533D01*
X141085219Y-98207914D01*
X141275695Y-98207914D01*
X141370933Y-98255533D01*
X141418552Y-98350771D01*
X141418552Y-98446009D01*
X140942361Y-98541247D01*
X141847123Y-98207914D02*
X141847123Y-98874580D01*
X141847123Y-98303152D02*
X141894742Y-98255533D01*
X141989980Y-98207914D01*
X142132838Y-98207914D01*
X142228076Y-98255533D01*
X142275695Y-98350771D01*
X142275695Y-98874580D01*
X142609028Y-98207914D02*
X142989980Y-98207914D01*
X142751885Y-97874580D02*
X142751885Y-98731723D01*
X142799504Y-98826961D01*
X142894742Y-98874580D01*
X142989980Y-98874580D01*
X134894742Y-100476961D02*
X134989980Y-100524580D01*
X135180457Y-100524580D01*
X135275695Y-100476961D01*
X135323314Y-100381723D01*
X135323314Y-100334104D01*
X135275695Y-100238866D01*
X135180457Y-100191247D01*
X135037600Y-100191247D01*
X134942361Y-100143628D01*
X134894742Y-100048390D01*
X134894742Y-100000771D01*
X134942361Y-99905533D01*
X135037600Y-99857914D01*
X135180457Y-99857914D01*
X135275695Y-99905533D01*
X136132838Y-100476961D02*
X136037600Y-100524580D01*
X135847123Y-100524580D01*
X135751885Y-100476961D01*
X135704266Y-100381723D01*
X135704266Y-100000771D01*
X135751885Y-99905533D01*
X135847123Y-99857914D01*
X136037600Y-99857914D01*
X136132838Y-99905533D01*
X136180457Y-100000771D01*
X136180457Y-100096009D01*
X135704266Y-100191247D01*
X136609028Y-99857914D02*
X136609028Y-100524580D01*
X136609028Y-99953152D02*
X136656647Y-99905533D01*
X136751885Y-99857914D01*
X136894742Y-99857914D01*
X136989980Y-99905533D01*
X137037600Y-100000771D01*
X137037600Y-100524580D01*
X137466171Y-100476961D02*
X137561409Y-100524580D01*
X137751885Y-100524580D01*
X137847123Y-100476961D01*
X137894742Y-100381723D01*
X137894742Y-100334104D01*
X137847123Y-100238866D01*
X137751885Y-100191247D01*
X137609028Y-100191247D01*
X137513790Y-100143628D01*
X137466171Y-100048390D01*
X137466171Y-100000771D01*
X137513790Y-99905533D01*
X137609028Y-99857914D01*
X137751885Y-99857914D01*
X137847123Y-99905533D01*
X138323314Y-100524580D02*
X138323314Y-99857914D01*
X138323314Y-99524580D02*
X138275695Y-99572200D01*
X138323314Y-99619819D01*
X138370933Y-99572200D01*
X138323314Y-99524580D01*
X138323314Y-99619819D01*
X138799504Y-99857914D02*
X138799504Y-100524580D01*
X138799504Y-99953152D02*
X138847123Y-99905533D01*
X138942361Y-99857914D01*
X139085219Y-99857914D01*
X139180457Y-99905533D01*
X139228076Y-100000771D01*
X139228076Y-100524580D01*
X140132838Y-99857914D02*
X140132838Y-100667438D01*
X140085219Y-100762676D01*
X140037600Y-100810295D01*
X139942361Y-100857914D01*
X139799504Y-100857914D01*
X139704266Y-100810295D01*
X140132838Y-100476961D02*
X140037600Y-100524580D01*
X139847123Y-100524580D01*
X139751885Y-100476961D01*
X139704266Y-100429342D01*
X139656647Y-100334104D01*
X139656647Y-100048390D01*
X139704266Y-99953152D01*
X139751885Y-99905533D01*
X139847123Y-99857914D01*
X140037600Y-99857914D01*
X140132838Y-99905533D01*
X113210104Y-99410828D02*
X113972009Y-99410828D01*
X113591057Y-99791780D02*
X113591057Y-99029876D01*
X114352961Y-98791780D02*
X114972009Y-98791780D01*
X114638676Y-99172733D01*
X114781533Y-99172733D01*
X114876771Y-99220352D01*
X114924390Y-99267971D01*
X114972009Y-99363209D01*
X114972009Y-99601304D01*
X114924390Y-99696542D01*
X114876771Y-99744161D01*
X114781533Y-99791780D01*
X114495819Y-99791780D01*
X114400580Y-99744161D01*
X114352961Y-99696542D01*
X115305342Y-98791780D02*
X115972009Y-98791780D01*
X115543438Y-99791780D01*
X116210104Y-98791780D02*
X116543438Y-99791780D01*
X116876771Y-98791780D01*
X118543438Y-99791780D02*
X118210104Y-99315590D01*
X117972009Y-99791780D02*
X117972009Y-98791780D01*
X118352961Y-98791780D01*
X118448200Y-98839400D01*
X118495819Y-98887019D01*
X118543438Y-98982257D01*
X118543438Y-99125114D01*
X118495819Y-99220352D01*
X118448200Y-99267971D01*
X118352961Y-99315590D01*
X117972009Y-99315590D01*
X119352961Y-99744161D02*
X119257723Y-99791780D01*
X119067247Y-99791780D01*
X118972009Y-99744161D01*
X118924390Y-99648923D01*
X118924390Y-99267971D01*
X118972009Y-99172733D01*
X119067247Y-99125114D01*
X119257723Y-99125114D01*
X119352961Y-99172733D01*
X119400580Y-99267971D01*
X119400580Y-99363209D01*
X118924390Y-99458447D01*
X120257723Y-99125114D02*
X120257723Y-99934638D01*
X120210104Y-100029876D01*
X120162485Y-100077495D01*
X120067247Y-100125114D01*
X119924390Y-100125114D01*
X119829152Y-100077495D01*
X120257723Y-99744161D02*
X120162485Y-99791780D01*
X119972009Y-99791780D01*
X119876771Y-99744161D01*
X119829152Y-99696542D01*
X119781533Y-99601304D01*
X119781533Y-99315590D01*
X119829152Y-99220352D01*
X119876771Y-99172733D01*
X119972009Y-99125114D01*
X120162485Y-99125114D01*
X120257723Y-99172733D01*
X121162485Y-99125114D02*
X121162485Y-99791780D01*
X120733914Y-99125114D02*
X120733914Y-99648923D01*
X120781533Y-99744161D01*
X120876771Y-99791780D01*
X121019628Y-99791780D01*
X121114866Y-99744161D01*
X121162485Y-99696542D01*
X121781533Y-99791780D02*
X121686295Y-99744161D01*
X121638676Y-99648923D01*
X121638676Y-98791780D01*
X122591057Y-99791780D02*
X122591057Y-99267971D01*
X122543438Y-99172733D01*
X122448200Y-99125114D01*
X122257723Y-99125114D01*
X122162485Y-99172733D01*
X122591057Y-99744161D02*
X122495819Y-99791780D01*
X122257723Y-99791780D01*
X122162485Y-99744161D01*
X122114866Y-99648923D01*
X122114866Y-99553685D01*
X122162485Y-99458447D01*
X122257723Y-99410828D01*
X122495819Y-99410828D01*
X122591057Y-99363209D01*
X122924390Y-99125114D02*
X123305342Y-99125114D01*
X123067247Y-98791780D02*
X123067247Y-99648923D01*
X123114866Y-99744161D01*
X123210104Y-99791780D01*
X123305342Y-99791780D01*
X123781533Y-99791780D02*
X123686295Y-99744161D01*
X123638676Y-99696542D01*
X123591057Y-99601304D01*
X123591057Y-99315590D01*
X123638676Y-99220352D01*
X123686295Y-99172733D01*
X123781533Y-99125114D01*
X123924390Y-99125114D01*
X124019628Y-99172733D01*
X124067247Y-99220352D01*
X124114866Y-99315590D01*
X124114866Y-99601304D01*
X124067247Y-99696542D01*
X124019628Y-99744161D01*
X123924390Y-99791780D01*
X123781533Y-99791780D01*
X124543438Y-99791780D02*
X124543438Y-99125114D01*
X124543438Y-99315590D02*
X124591057Y-99220352D01*
X124638676Y-99172733D01*
X124733914Y-99125114D01*
X124829152Y-99125114D01*
X143656395Y-131968500D02*
X143656395Y-130968500D01*
X143989728Y-131682786D01*
X144323061Y-130968500D01*
X144323061Y-131968500D01*
X145227823Y-131968500D02*
X145227823Y-131444691D01*
X145180204Y-131349453D01*
X145084966Y-131301834D01*
X144894490Y-131301834D01*
X144799252Y-131349453D01*
X145227823Y-131920881D02*
X145132585Y-131968500D01*
X144894490Y-131968500D01*
X144799252Y-131920881D01*
X144751633Y-131825643D01*
X144751633Y-131730405D01*
X144799252Y-131635167D01*
X144894490Y-131587548D01*
X145132585Y-131587548D01*
X145227823Y-131539929D01*
X145704014Y-131968500D02*
X145704014Y-131301834D01*
X145704014Y-131397072D02*
X145751633Y-131349453D01*
X145846871Y-131301834D01*
X145989728Y-131301834D01*
X146084966Y-131349453D01*
X146132585Y-131444691D01*
X146132585Y-131968500D01*
X146132585Y-131444691D02*
X146180204Y-131349453D01*
X146275442Y-131301834D01*
X146418300Y-131301834D01*
X146513538Y-131349453D01*
X146561157Y-131444691D01*
X146561157Y-131968500D01*
X147465919Y-131968500D02*
X147465919Y-131444691D01*
X147418300Y-131349453D01*
X147323061Y-131301834D01*
X147132585Y-131301834D01*
X147037347Y-131349453D01*
X147465919Y-131920881D02*
X147370680Y-131968500D01*
X147132585Y-131968500D01*
X147037347Y-131920881D01*
X146989728Y-131825643D01*
X146989728Y-131730405D01*
X147037347Y-131635167D01*
X147132585Y-131587548D01*
X147370680Y-131587548D01*
X147465919Y-131539929D01*
X148656395Y-131063739D02*
X148704014Y-131016120D01*
X148799252Y-130968500D01*
X149037347Y-130968500D01*
X149132585Y-131016120D01*
X149180204Y-131063739D01*
X149227823Y-131158977D01*
X149227823Y-131254215D01*
X149180204Y-131397072D01*
X148608776Y-131968500D01*
X149227823Y-131968500D01*
X135906855Y-131917700D02*
X135906855Y-130917700D01*
X136240188Y-131631986D01*
X136573521Y-130917700D01*
X136573521Y-131917700D01*
X137478283Y-131917700D02*
X137478283Y-131393891D01*
X137430664Y-131298653D01*
X137335426Y-131251034D01*
X137144950Y-131251034D01*
X137049712Y-131298653D01*
X137478283Y-131870081D02*
X137383045Y-131917700D01*
X137144950Y-131917700D01*
X137049712Y-131870081D01*
X137002093Y-131774843D01*
X137002093Y-131679605D01*
X137049712Y-131584367D01*
X137144950Y-131536748D01*
X137383045Y-131536748D01*
X137478283Y-131489129D01*
X137954474Y-131917700D02*
X137954474Y-131251034D01*
X137954474Y-131346272D02*
X138002093Y-131298653D01*
X138097331Y-131251034D01*
X138240188Y-131251034D01*
X138335426Y-131298653D01*
X138383045Y-131393891D01*
X138383045Y-131917700D01*
X138383045Y-131393891D02*
X138430664Y-131298653D01*
X138525902Y-131251034D01*
X138668760Y-131251034D01*
X138763998Y-131298653D01*
X138811617Y-131393891D01*
X138811617Y-131917700D01*
X139716379Y-131917700D02*
X139716379Y-131393891D01*
X139668760Y-131298653D01*
X139573521Y-131251034D01*
X139383045Y-131251034D01*
X139287807Y-131298653D01*
X139716379Y-131870081D02*
X139621140Y-131917700D01*
X139383045Y-131917700D01*
X139287807Y-131870081D01*
X139240188Y-131774843D01*
X139240188Y-131679605D01*
X139287807Y-131584367D01*
X139383045Y-131536748D01*
X139621140Y-131536748D01*
X139716379Y-131489129D01*
X141478283Y-131917700D02*
X140906855Y-131917700D01*
X141192569Y-131917700D02*
X141192569Y-130917700D01*
X141097331Y-131060558D01*
X141002093Y-131155796D01*
X140906855Y-131203415D01*
X102712571Y-91714580D02*
X102284000Y-91714580D01*
X102284000Y-90714580D01*
X103012571Y-91714580D02*
X103012571Y-91047914D01*
X103012571Y-90714580D02*
X102969714Y-90762200D01*
X103012571Y-90809819D01*
X103055428Y-90762200D01*
X103012571Y-90714580D01*
X103012571Y-90809819D01*
X103355428Y-91047914D02*
X103569714Y-91714580D01*
X103784000Y-91047914D01*
X104469714Y-91666961D02*
X104384000Y-91714580D01*
X104212571Y-91714580D01*
X104126857Y-91666961D01*
X104084000Y-91571723D01*
X104084000Y-91190771D01*
X104126857Y-91095533D01*
X104212571Y-91047914D01*
X104384000Y-91047914D01*
X104469714Y-91095533D01*
X104512571Y-91190771D01*
X104512571Y-91286009D01*
X104084000Y-91381247D01*
X105455428Y-90714580D02*
X105969714Y-90714580D01*
X105712571Y-91714580D02*
X105712571Y-90714580D01*
X106612571Y-91666961D02*
X106526857Y-91714580D01*
X106355428Y-91714580D01*
X106269714Y-91666961D01*
X106226857Y-91571723D01*
X106226857Y-91190771D01*
X106269714Y-91095533D01*
X106355428Y-91047914D01*
X106526857Y-91047914D01*
X106612571Y-91095533D01*
X106655428Y-91190771D01*
X106655428Y-91286009D01*
X106226857Y-91381247D01*
X107169714Y-91714580D02*
X107084000Y-91666961D01*
X107041142Y-91571723D01*
X107041142Y-90714580D01*
X107855428Y-91666961D02*
X107769714Y-91714580D01*
X107598285Y-91714580D01*
X107512571Y-91666961D01*
X107469714Y-91571723D01*
X107469714Y-91190771D01*
X107512571Y-91095533D01*
X107598285Y-91047914D01*
X107769714Y-91047914D01*
X107855428Y-91095533D01*
X107898285Y-91190771D01*
X107898285Y-91286009D01*
X107469714Y-91381247D01*
X108284000Y-91714580D02*
X108284000Y-91047914D01*
X108284000Y-91143152D02*
X108326857Y-91095533D01*
X108412571Y-91047914D01*
X108541142Y-91047914D01*
X108626857Y-91095533D01*
X108669714Y-91190771D01*
X108669714Y-91714580D01*
X108669714Y-91190771D02*
X108712571Y-91095533D01*
X108798285Y-91047914D01*
X108926857Y-91047914D01*
X109012571Y-91095533D01*
X109055428Y-91190771D01*
X109055428Y-91714580D01*
X109826857Y-91666961D02*
X109741142Y-91714580D01*
X109569714Y-91714580D01*
X109484000Y-91666961D01*
X109441142Y-91571723D01*
X109441142Y-91190771D01*
X109484000Y-91095533D01*
X109569714Y-91047914D01*
X109741142Y-91047914D01*
X109826857Y-91095533D01*
X109869714Y-91190771D01*
X109869714Y-91286009D01*
X109441142Y-91381247D01*
X110126857Y-91047914D02*
X110469714Y-91047914D01*
X110255428Y-90714580D02*
X110255428Y-91571723D01*
X110298285Y-91666961D01*
X110384000Y-91714580D01*
X110469714Y-91714580D01*
X110769714Y-91714580D02*
X110769714Y-91047914D01*
X110769714Y-91238390D02*
X110812571Y-91143152D01*
X110855428Y-91095533D01*
X110941142Y-91047914D01*
X111026857Y-91047914D01*
X111241142Y-91047914D02*
X111455428Y-91714580D01*
X111669714Y-91047914D02*
X111455428Y-91714580D01*
X111369714Y-91952676D01*
X111326857Y-92000295D01*
X111241142Y-92047914D01*
X149738723Y-112085380D02*
X149738723Y-111085380D01*
X150119676Y-111085380D01*
X150214914Y-111133000D01*
X150262533Y-111180619D01*
X150310152Y-111275857D01*
X150310152Y-111418714D01*
X150262533Y-111513952D01*
X150214914Y-111561571D01*
X150119676Y-111609190D01*
X149738723Y-111609190D01*
X150738723Y-112085380D02*
X150738723Y-111418714D01*
X150738723Y-111609190D02*
X150786342Y-111513952D01*
X150833961Y-111466333D01*
X150929200Y-111418714D01*
X151024438Y-111418714D01*
X151500628Y-112085380D02*
X151405390Y-112037761D01*
X151357771Y-111990142D01*
X151310152Y-111894904D01*
X151310152Y-111609190D01*
X151357771Y-111513952D01*
X151405390Y-111466333D01*
X151500628Y-111418714D01*
X151643485Y-111418714D01*
X151738723Y-111466333D01*
X151786342Y-111513952D01*
X151833961Y-111609190D01*
X151833961Y-111894904D01*
X151786342Y-111990142D01*
X151738723Y-112037761D01*
X151643485Y-112085380D01*
X151500628Y-112085380D01*
X152691104Y-111418714D02*
X152691104Y-112228238D01*
X152643485Y-112323476D01*
X152595866Y-112371095D01*
X152500628Y-112418714D01*
X152357771Y-112418714D01*
X152262533Y-112371095D01*
X152691104Y-112037761D02*
X152595866Y-112085380D01*
X152405390Y-112085380D01*
X152310152Y-112037761D01*
X152262533Y-111990142D01*
X152214914Y-111894904D01*
X152214914Y-111609190D01*
X152262533Y-111513952D01*
X152310152Y-111466333D01*
X152405390Y-111418714D01*
X152595866Y-111418714D01*
X152691104Y-111466333D01*
X153167295Y-112085380D02*
X153167295Y-111418714D01*
X153167295Y-111609190D02*
X153214914Y-111513952D01*
X153262533Y-111466333D01*
X153357771Y-111418714D01*
X153453009Y-111418714D01*
X154214914Y-112085380D02*
X154214914Y-111561571D01*
X154167295Y-111466333D01*
X154072057Y-111418714D01*
X153881580Y-111418714D01*
X153786342Y-111466333D01*
X154214914Y-112037761D02*
X154119676Y-112085380D01*
X153881580Y-112085380D01*
X153786342Y-112037761D01*
X153738723Y-111942523D01*
X153738723Y-111847285D01*
X153786342Y-111752047D01*
X153881580Y-111704428D01*
X154119676Y-111704428D01*
X154214914Y-111656809D01*
X154691104Y-112085380D02*
X154691104Y-111418714D01*
X154691104Y-111513952D02*
X154738723Y-111466333D01*
X154833961Y-111418714D01*
X154976819Y-111418714D01*
X155072057Y-111466333D01*
X155119676Y-111561571D01*
X155119676Y-112085380D01*
X155119676Y-111561571D02*
X155167295Y-111466333D01*
X155262533Y-111418714D01*
X155405390Y-111418714D01*
X155500628Y-111466333D01*
X155548247Y-111561571D01*
X155548247Y-112085380D01*
X156024438Y-112085380D02*
X156024438Y-111418714D01*
X156024438Y-111513952D02*
X156072057Y-111466333D01*
X156167295Y-111418714D01*
X156310152Y-111418714D01*
X156405390Y-111466333D01*
X156453009Y-111561571D01*
X156453009Y-112085380D01*
X156453009Y-111561571D02*
X156500628Y-111466333D01*
X156595866Y-111418714D01*
X156738723Y-111418714D01*
X156833961Y-111466333D01*
X156881580Y-111561571D01*
X156881580Y-112085380D01*
X157357771Y-112085380D02*
X157357771Y-111418714D01*
X157357771Y-111085380D02*
X157310152Y-111133000D01*
X157357771Y-111180619D01*
X157405390Y-111133000D01*
X157357771Y-111085380D01*
X157357771Y-111180619D01*
X157833961Y-111418714D02*
X157833961Y-112085380D01*
X157833961Y-111513952D02*
X157881580Y-111466333D01*
X157976819Y-111418714D01*
X158119676Y-111418714D01*
X158214914Y-111466333D01*
X158262533Y-111561571D01*
X158262533Y-112085380D01*
X159167295Y-111418714D02*
X159167295Y-112228238D01*
X159119676Y-112323476D01*
X159072057Y-112371095D01*
X158976819Y-112418714D01*
X158833961Y-112418714D01*
X158738723Y-112371095D01*
X159167295Y-112037761D02*
X159072057Y-112085380D01*
X158881580Y-112085380D01*
X158786342Y-112037761D01*
X158738723Y-111990142D01*
X158691104Y-111894904D01*
X158691104Y-111609190D01*
X158738723Y-111513952D01*
X158786342Y-111466333D01*
X158881580Y-111418714D01*
X159072057Y-111418714D01*
X159167295Y-111466333D01*
X160405390Y-112085380D02*
X160405390Y-111085380D01*
X160405390Y-111561571D02*
X160976819Y-111561571D01*
X160976819Y-112085380D02*
X160976819Y-111085380D01*
X161833961Y-112037761D02*
X161738723Y-112085380D01*
X161548247Y-112085380D01*
X161453009Y-112037761D01*
X161405390Y-111942523D01*
X161405390Y-111561571D01*
X161453009Y-111466333D01*
X161548247Y-111418714D01*
X161738723Y-111418714D01*
X161833961Y-111466333D01*
X161881580Y-111561571D01*
X161881580Y-111656809D01*
X161405390Y-111752047D01*
X162738723Y-112085380D02*
X162738723Y-111561571D01*
X162691104Y-111466333D01*
X162595866Y-111418714D01*
X162405390Y-111418714D01*
X162310152Y-111466333D01*
X162738723Y-112037761D02*
X162643485Y-112085380D01*
X162405390Y-112085380D01*
X162310152Y-112037761D01*
X162262533Y-111942523D01*
X162262533Y-111847285D01*
X162310152Y-111752047D01*
X162405390Y-111704428D01*
X162643485Y-111704428D01*
X162738723Y-111656809D01*
X163643485Y-112085380D02*
X163643485Y-111085380D01*
X163643485Y-112037761D02*
X163548247Y-112085380D01*
X163357771Y-112085380D01*
X163262533Y-112037761D01*
X163214914Y-111990142D01*
X163167295Y-111894904D01*
X163167295Y-111609190D01*
X163214914Y-111513952D01*
X163262533Y-111466333D01*
X163357771Y-111418714D01*
X163548247Y-111418714D01*
X163643485Y-111466333D01*
X164500628Y-112037761D02*
X164405390Y-112085380D01*
X164214914Y-112085380D01*
X164119676Y-112037761D01*
X164072057Y-111942523D01*
X164072057Y-111561571D01*
X164119676Y-111466333D01*
X164214914Y-111418714D01*
X164405390Y-111418714D01*
X164500628Y-111466333D01*
X164548247Y-111561571D01*
X164548247Y-111656809D01*
X164072057Y-111752047D01*
X164976819Y-112085380D02*
X164976819Y-111418714D01*
X164976819Y-111609190D02*
X165024438Y-111513952D01*
X165072057Y-111466333D01*
X165167295Y-111418714D01*
X165262533Y-111418714D01*
D11*
X124611624Y-116198480D02*
X123407496Y-116198480D01*
X124611624Y-118018480D02*
X123407496Y-118018480D01*
X130589360Y-95084508D02*
X130589360Y-95607012D01*
X132009360Y-95084508D02*
X132009360Y-95607012D01*
X177564120Y-126509388D02*
X177564120Y-127031892D01*
X178984120Y-126509388D02*
X178984120Y-127031892D01*
X166236400Y-134542600D02*
X165836400Y-134542600D01*
X163316400Y-134542600D02*
X157536400Y-134542600D01*
X155016400Y-134542600D02*
X152316400Y-134542600D01*
X163316400Y-148362600D02*
X157536400Y-148362600D01*
X166236400Y-148362600D02*
X165836400Y-148362600D01*
X155016400Y-148362600D02*
X152316400Y-148362600D01*
X152316400Y-148362600D02*
X152316400Y-134542600D01*
X166236400Y-134542600D02*
X166236400Y-148362600D01*
X166236400Y-146952600D02*
X167236400Y-146952600D01*
X166236400Y-135952600D02*
X167236400Y-135952600D01*
X167736400Y-136452600D02*
X167736400Y-146452600D01*
X167136400Y-135952600D02*
X166936400Y-136752600D01*
X166936400Y-136752600D02*
X166636400Y-138452600D01*
X166636400Y-138452600D02*
X166536400Y-139252600D01*
X166536400Y-139252600D02*
X166436400Y-140552600D01*
X166436400Y-140552600D02*
X166436400Y-142352600D01*
X166436400Y-142352600D02*
X166536400Y-143652600D01*
X166536400Y-143652600D02*
X166736400Y-145152600D01*
X166736400Y-145152600D02*
X167036400Y-146452600D01*
X167036400Y-146452600D02*
X167136400Y-146952600D01*
X167736400Y-136452600D02*
G75*
G03*
X167236400Y-135952600I-500000J0D01*
G01*
X167236400Y-146952600D02*
G75*
G03*
X167736400Y-146452600I0J500000D01*
G01*
X178413000Y-115026000D02*
X182533000Y-115026000D01*
X178413000Y-108906000D02*
X178413000Y-115026000D01*
X182533000Y-110966000D02*
X182533000Y-115026000D01*
X180473000Y-110966000D02*
X182533000Y-110966000D01*
X180473000Y-110966000D02*
X180473000Y-108906000D01*
X178413000Y-108906000D02*
X180473000Y-108906000D01*
X181505000Y-108906000D02*
X182565000Y-108906000D01*
X182565000Y-108906000D02*
X182565000Y-109966000D01*
X103594600Y-99688200D02*
X107714600Y-99688200D01*
X103594600Y-95628200D02*
X103594600Y-99688200D01*
X107714600Y-93568200D02*
X107714600Y-99688200D01*
X103594600Y-95628200D02*
X105654600Y-95628200D01*
X105654600Y-95628200D02*
X105654600Y-93568200D01*
X105654600Y-93568200D02*
X107714600Y-93568200D01*
X103594600Y-94628200D02*
X103594600Y-93568200D01*
X103594600Y-93568200D02*
X104654600Y-93568200D01*
X126979000Y-108153148D02*
X126979000Y-109575652D01*
X128799000Y-108153148D02*
X128799000Y-109575652D01*
X124701752Y-118927200D02*
X123279248Y-118927200D01*
X124701752Y-120747200D02*
X123279248Y-120747200D01*
X134634616Y-91636260D02*
X136088744Y-91636260D01*
X134634616Y-89816260D02*
X136088744Y-89816260D01*
X116704756Y-138730400D02*
X118158884Y-138730400D01*
X116704756Y-136910400D02*
X118158884Y-136910400D01*
X167397100Y-97578936D02*
X167397100Y-98033064D01*
X165927100Y-97578936D02*
X165927100Y-98033064D01*
X137554692Y-71402880D02*
X137032188Y-71402880D01*
X137554692Y-69932880D02*
X137032188Y-69932880D01*
X143559200Y-74727168D02*
X143559200Y-75249672D01*
X142089200Y-74727168D02*
X142089200Y-75249672D01*
X133879540Y-79014240D02*
X135139540Y-79014240D01*
X140699540Y-79014240D02*
X139439540Y-79014240D01*
X133879540Y-75254240D02*
X133879540Y-79014240D01*
X140699540Y-73004240D02*
X140699540Y-79014240D01*
D13*
G36*
X153692313Y-73782659D02*
G01*
X153730986Y-73789519D01*
X153791624Y-73800780D01*
X153871558Y-73815930D01*
X153968118Y-73834462D01*
X154078637Y-73855864D01*
X154200444Y-73879629D01*
X154330871Y-73905246D01*
X154333108Y-73905687D01*
X154494274Y-73937667D01*
X154629870Y-73965083D01*
X154741712Y-73988350D01*
X154831615Y-74007879D01*
X154901398Y-74024085D01*
X154952876Y-74037380D01*
X154987867Y-74048177D01*
X155008185Y-74056889D01*
X155013124Y-74060328D01*
X155038067Y-74087173D01*
X155076372Y-74134031D01*
X155125813Y-74197852D01*
X155184167Y-74275586D01*
X155249208Y-74364183D01*
X155318712Y-74460594D01*
X155390453Y-74561768D01*
X155462208Y-74664657D01*
X155531750Y-74766210D01*
X155575466Y-74831187D01*
X155782003Y-75149388D01*
X155984357Y-75478272D01*
X156180228Y-75813578D01*
X156367317Y-76151045D01*
X156543323Y-76486414D01*
X156705946Y-76815423D01*
X156852888Y-77133812D01*
X156980483Y-77433953D01*
X157012652Y-77515980D01*
X157047619Y-77609595D01*
X157083741Y-77709956D01*
X157119380Y-77812218D01*
X157152893Y-77911537D01*
X157182640Y-78003072D01*
X157206980Y-78081978D01*
X157224272Y-78143411D01*
X157231697Y-78175464D01*
X157240213Y-78208750D01*
X157249160Y-78226409D01*
X157251073Y-78227268D01*
X157264428Y-78217188D01*
X157293064Y-78189004D01*
X157334211Y-78145801D01*
X157385096Y-78090666D01*
X157442951Y-78026682D01*
X157505004Y-77956936D01*
X157568484Y-77884513D01*
X157630622Y-77812498D01*
X157688647Y-77743976D01*
X157731018Y-77692799D01*
X157860782Y-77529000D01*
X157980279Y-77366965D01*
X158093754Y-77200344D01*
X158205455Y-77022789D01*
X158319627Y-76827949D01*
X158372543Y-76733662D01*
X158411946Y-76664233D01*
X158447251Y-76605052D01*
X158476160Y-76559730D01*
X158496375Y-76531878D01*
X158505438Y-76524895D01*
X158515972Y-76541012D01*
X158536605Y-76576415D01*
X158564330Y-76625832D01*
X158595276Y-76682392D01*
X158749097Y-76954152D01*
X158905413Y-77204339D01*
X159068340Y-77439170D01*
X159241994Y-77664859D01*
X159263594Y-77691433D01*
X159316481Y-77755141D01*
X159375688Y-77824800D01*
X159438453Y-77897331D01*
X159502010Y-77969656D01*
X159563598Y-78038697D01*
X159620452Y-78101377D01*
X159669809Y-78154616D01*
X159708904Y-78195338D01*
X159734975Y-78220463D01*
X159744685Y-78227268D01*
X159753177Y-78215081D01*
X159762139Y-78184857D01*
X159764061Y-78175464D01*
X159774891Y-78130571D01*
X159794017Y-78064520D01*
X159819799Y-77982154D01*
X159850596Y-77888317D01*
X159884767Y-77787853D01*
X159920671Y-77685606D01*
X159956666Y-77586417D01*
X159991113Y-77495132D01*
X160015275Y-77433953D01*
X160141904Y-77136122D01*
X160286237Y-76823241D01*
X160445955Y-76499603D01*
X160618743Y-76169499D01*
X160802285Y-75837221D01*
X160994264Y-75507062D01*
X161192364Y-75183312D01*
X161394269Y-74870263D01*
X161418910Y-74833221D01*
X161485675Y-74734364D01*
X161556142Y-74632108D01*
X161628089Y-74529498D01*
X161699296Y-74429579D01*
X161767544Y-74335398D01*
X161830610Y-74249998D01*
X161886276Y-74176427D01*
X161932320Y-74117728D01*
X161966523Y-74076948D01*
X161982026Y-74060878D01*
X161996732Y-74052941D01*
X162026501Y-74042852D01*
X162073033Y-74030224D01*
X162138023Y-74014673D01*
X162223168Y-73995814D01*
X162330167Y-73973261D01*
X162460715Y-73946629D01*
X162616510Y-73915533D01*
X162662042Y-73906536D01*
X162792652Y-73880847D01*
X162914687Y-73856993D01*
X163025482Y-73835483D01*
X163122367Y-73816830D01*
X163202675Y-73801544D01*
X163263738Y-73790135D01*
X163302890Y-73783115D01*
X163317461Y-73780994D01*
X163317483Y-73781006D01*
X163314661Y-73794406D01*
X163305634Y-73832011D01*
X163291103Y-73891062D01*
X163271767Y-73968797D01*
X163248327Y-74062458D01*
X163221484Y-74169283D01*
X163191937Y-74286514D01*
X163160386Y-74411388D01*
X163127533Y-74541147D01*
X163094077Y-74673030D01*
X163060718Y-74804277D01*
X163028157Y-74932127D01*
X162997094Y-75053822D01*
X162968230Y-75166600D01*
X162942264Y-75267701D01*
X162919896Y-75354365D01*
X162901828Y-75423833D01*
X162888759Y-75473343D01*
X162881389Y-75500136D01*
X162881071Y-75501201D01*
X162884450Y-75511802D01*
X162901055Y-75527915D01*
X162933037Y-75550952D01*
X162982550Y-75582327D01*
X163051746Y-75623452D01*
X163142778Y-75675741D01*
X163173850Y-75693353D01*
X163256309Y-75740400D01*
X163330088Y-75783290D01*
X163391908Y-75820051D01*
X163438492Y-75848714D01*
X163466561Y-75867308D01*
X163473495Y-75873519D01*
X163462069Y-75882342D01*
X163428738Y-75905414D01*
X163374925Y-75941795D01*
X163302053Y-75990546D01*
X163211543Y-76050727D01*
X163104819Y-76121400D01*
X162983303Y-76201624D01*
X162848417Y-76290460D01*
X162701583Y-76386969D01*
X162544225Y-76490212D01*
X162377765Y-76599248D01*
X162203624Y-76713139D01*
X162067958Y-76801750D01*
X161888938Y-76918724D01*
X161716520Y-77031602D01*
X161552130Y-77139440D01*
X161397191Y-77241295D01*
X161253125Y-77336224D01*
X161121356Y-77423284D01*
X161003307Y-77501533D01*
X160900401Y-77570027D01*
X160814063Y-77627822D01*
X160745715Y-77673977D01*
X160696780Y-77707548D01*
X160668682Y-77727592D01*
X160662138Y-77733186D01*
X160666153Y-77749090D01*
X160677730Y-77788616D01*
X160695974Y-77848865D01*
X160719993Y-77926938D01*
X160748893Y-78019938D01*
X160781780Y-78124965D01*
X160817761Y-78239120D01*
X160830717Y-78280054D01*
X160867293Y-78396403D01*
X160900701Y-78504435D01*
X160930096Y-78601288D01*
X160954636Y-78684102D01*
X160973477Y-78750017D01*
X160985776Y-78796172D01*
X160990690Y-78819707D01*
X160990499Y-78822082D01*
X160975651Y-78821794D01*
X160935142Y-78818353D01*
X160870943Y-78811982D01*
X160785024Y-78802900D01*
X160679353Y-78791329D01*
X160555902Y-78777489D01*
X160416641Y-78761602D01*
X160263538Y-78743887D01*
X160098565Y-78724567D01*
X159923691Y-78703862D01*
X159740886Y-78681993D01*
X159739649Y-78681844D01*
X158497879Y-78532528D01*
X157281556Y-78679131D01*
X157099961Y-78700974D01*
X156925837Y-78721834D01*
X156761228Y-78741468D01*
X156608175Y-78759639D01*
X156468723Y-78776107D01*
X156344914Y-78790631D01*
X156238790Y-78802971D01*
X156152396Y-78812889D01*
X156087774Y-78820143D01*
X156046967Y-78824495D01*
X156032432Y-78825734D01*
X156007234Y-78821557D01*
X155999632Y-78814183D01*
X156003708Y-78798796D01*
X156015336Y-78759788D01*
X156033616Y-78700058D01*
X156057647Y-78622508D01*
X156086531Y-78530036D01*
X156119366Y-78425544D01*
X156155254Y-78311930D01*
X156166646Y-78275981D01*
X156203305Y-78160007D01*
X156237177Y-78052128D01*
X156267361Y-77955266D01*
X156292955Y-77872347D01*
X156313059Y-77806295D01*
X156326771Y-77760036D01*
X156333190Y-77736493D01*
X156333559Y-77734299D01*
X156322117Y-77724922D01*
X156288766Y-77701310D01*
X156234927Y-77664408D01*
X156162026Y-77615159D01*
X156071485Y-77554507D01*
X155964726Y-77483399D01*
X155843173Y-77402776D01*
X155708249Y-77313585D01*
X155561377Y-77216769D01*
X155403980Y-77113272D01*
X155237482Y-77004039D01*
X155063304Y-76890015D01*
X154927861Y-76801510D01*
X154748869Y-76684555D01*
X154576482Y-76571751D01*
X154412123Y-76464035D01*
X154257215Y-76362347D01*
X154113179Y-76267627D01*
X153981437Y-76180814D01*
X153863412Y-76102847D01*
X153760526Y-76034664D01*
X153674202Y-75977207D01*
X153605861Y-75931412D01*
X153556926Y-75898221D01*
X153528819Y-75878572D01*
X153522263Y-75873279D01*
X153533871Y-75863832D01*
X153566513Y-75842794D01*
X153616909Y-75812134D01*
X153681783Y-75773819D01*
X153757856Y-75729817D01*
X153821908Y-75693353D01*
X153919735Y-75637532D01*
X153995097Y-75593287D01*
X154050146Y-75559206D01*
X154087034Y-75533875D01*
X154107914Y-75515883D01*
X154114940Y-75503815D01*
X154114687Y-75501201D01*
X154107752Y-75476167D01*
X154095067Y-75428211D01*
X154077333Y-75360094D01*
X154055250Y-75274575D01*
X154029518Y-75174417D01*
X154000838Y-75062378D01*
X153969909Y-74941220D01*
X153937432Y-74813703D01*
X153904106Y-74682588D01*
X153870633Y-74550634D01*
X153837712Y-74420602D01*
X153806044Y-74295254D01*
X153776329Y-74177348D01*
X153749266Y-74069646D01*
X153725557Y-73974908D01*
X153705901Y-73895895D01*
X153690999Y-73835367D01*
X153681550Y-73796084D01*
X153678255Y-73780807D01*
X153678274Y-73780707D01*
X153692313Y-73782659D01*
G37*
X153692313Y-73782659D02*
X153730986Y-73789519D01*
X153791624Y-73800780D01*
X153871558Y-73815930D01*
X153968118Y-73834462D01*
X154078637Y-73855864D01*
X154200444Y-73879629D01*
X154330871Y-73905246D01*
X154333108Y-73905687D01*
X154494274Y-73937667D01*
X154629870Y-73965083D01*
X154741712Y-73988350D01*
X154831615Y-74007879D01*
X154901398Y-74024085D01*
X154952876Y-74037380D01*
X154987867Y-74048177D01*
X155008185Y-74056889D01*
X155013124Y-74060328D01*
X155038067Y-74087173D01*
X155076372Y-74134031D01*
X155125813Y-74197852D01*
X155184167Y-74275586D01*
X155249208Y-74364183D01*
X155318712Y-74460594D01*
X155390453Y-74561768D01*
X155462208Y-74664657D01*
X155531750Y-74766210D01*
X155575466Y-74831187D01*
X155782003Y-75149388D01*
X155984357Y-75478272D01*
X156180228Y-75813578D01*
X156367317Y-76151045D01*
X156543323Y-76486414D01*
X156705946Y-76815423D01*
X156852888Y-77133812D01*
X156980483Y-77433953D01*
X157012652Y-77515980D01*
X157047619Y-77609595D01*
X157083741Y-77709956D01*
X157119380Y-77812218D01*
X157152893Y-77911537D01*
X157182640Y-78003072D01*
X157206980Y-78081978D01*
X157224272Y-78143411D01*
X157231697Y-78175464D01*
X157240213Y-78208750D01*
X157249160Y-78226409D01*
X157251073Y-78227268D01*
X157264428Y-78217188D01*
X157293064Y-78189004D01*
X157334211Y-78145801D01*
X157385096Y-78090666D01*
X157442951Y-78026682D01*
X157505004Y-77956936D01*
X157568484Y-77884513D01*
X157630622Y-77812498D01*
X157688647Y-77743976D01*
X157731018Y-77692799D01*
X157860782Y-77529000D01*
X157980279Y-77366965D01*
X158093754Y-77200344D01*
X158205455Y-77022789D01*
X158319627Y-76827949D01*
X158372543Y-76733662D01*
X158411946Y-76664233D01*
X158447251Y-76605052D01*
X158476160Y-76559730D01*
X158496375Y-76531878D01*
X158505438Y-76524895D01*
X158515972Y-76541012D01*
X158536605Y-76576415D01*
X158564330Y-76625832D01*
X158595276Y-76682392D01*
X158749097Y-76954152D01*
X158905413Y-77204339D01*
X159068340Y-77439170D01*
X159241994Y-77664859D01*
X159263594Y-77691433D01*
X159316481Y-77755141D01*
X159375688Y-77824800D01*
X159438453Y-77897331D01*
X159502010Y-77969656D01*
X159563598Y-78038697D01*
X159620452Y-78101377D01*
X159669809Y-78154616D01*
X159708904Y-78195338D01*
X159734975Y-78220463D01*
X159744685Y-78227268D01*
X159753177Y-78215081D01*
X159762139Y-78184857D01*
X159764061Y-78175464D01*
X159774891Y-78130571D01*
X159794017Y-78064520D01*
X159819799Y-77982154D01*
X159850596Y-77888317D01*
X159884767Y-77787853D01*
X159920671Y-77685606D01*
X159956666Y-77586417D01*
X159991113Y-77495132D01*
X160015275Y-77433953D01*
X160141904Y-77136122D01*
X160286237Y-76823241D01*
X160445955Y-76499603D01*
X160618743Y-76169499D01*
X160802285Y-75837221D01*
X160994264Y-75507062D01*
X161192364Y-75183312D01*
X161394269Y-74870263D01*
X161418910Y-74833221D01*
X161485675Y-74734364D01*
X161556142Y-74632108D01*
X161628089Y-74529498D01*
X161699296Y-74429579D01*
X161767544Y-74335398D01*
X161830610Y-74249998D01*
X161886276Y-74176427D01*
X161932320Y-74117728D01*
X161966523Y-74076948D01*
X161982026Y-74060878D01*
X161996732Y-74052941D01*
X162026501Y-74042852D01*
X162073033Y-74030224D01*
X162138023Y-74014673D01*
X162223168Y-73995814D01*
X162330167Y-73973261D01*
X162460715Y-73946629D01*
X162616510Y-73915533D01*
X162662042Y-73906536D01*
X162792652Y-73880847D01*
X162914687Y-73856993D01*
X163025482Y-73835483D01*
X163122367Y-73816830D01*
X163202675Y-73801544D01*
X163263738Y-73790135D01*
X163302890Y-73783115D01*
X163317461Y-73780994D01*
X163317483Y-73781006D01*
X163314661Y-73794406D01*
X163305634Y-73832011D01*
X163291103Y-73891062D01*
X163271767Y-73968797D01*
X163248327Y-74062458D01*
X163221484Y-74169283D01*
X163191937Y-74286514D01*
X163160386Y-74411388D01*
X163127533Y-74541147D01*
X163094077Y-74673030D01*
X163060718Y-74804277D01*
X163028157Y-74932127D01*
X162997094Y-75053822D01*
X162968230Y-75166600D01*
X162942264Y-75267701D01*
X162919896Y-75354365D01*
X162901828Y-75423833D01*
X162888759Y-75473343D01*
X162881389Y-75500136D01*
X162881071Y-75501201D01*
X162884450Y-75511802D01*
X162901055Y-75527915D01*
X162933037Y-75550952D01*
X162982550Y-75582327D01*
X163051746Y-75623452D01*
X163142778Y-75675741D01*
X163173850Y-75693353D01*
X163256309Y-75740400D01*
X163330088Y-75783290D01*
X163391908Y-75820051D01*
X163438492Y-75848714D01*
X163466561Y-75867308D01*
X163473495Y-75873519D01*
X163462069Y-75882342D01*
X163428738Y-75905414D01*
X163374925Y-75941795D01*
X163302053Y-75990546D01*
X163211543Y-76050727D01*
X163104819Y-76121400D01*
X162983303Y-76201624D01*
X162848417Y-76290460D01*
X162701583Y-76386969D01*
X162544225Y-76490212D01*
X162377765Y-76599248D01*
X162203624Y-76713139D01*
X162067958Y-76801750D01*
X161888938Y-76918724D01*
X161716520Y-77031602D01*
X161552130Y-77139440D01*
X161397191Y-77241295D01*
X161253125Y-77336224D01*
X161121356Y-77423284D01*
X161003307Y-77501533D01*
X160900401Y-77570027D01*
X160814063Y-77627822D01*
X160745715Y-77673977D01*
X160696780Y-77707548D01*
X160668682Y-77727592D01*
X160662138Y-77733186D01*
X160666153Y-77749090D01*
X160677730Y-77788616D01*
X160695974Y-77848865D01*
X160719993Y-77926938D01*
X160748893Y-78019938D01*
X160781780Y-78124965D01*
X160817761Y-78239120D01*
X160830717Y-78280054D01*
X160867293Y-78396403D01*
X160900701Y-78504435D01*
X160930096Y-78601288D01*
X160954636Y-78684102D01*
X160973477Y-78750017D01*
X160985776Y-78796172D01*
X160990690Y-78819707D01*
X160990499Y-78822082D01*
X160975651Y-78821794D01*
X160935142Y-78818353D01*
X160870943Y-78811982D01*
X160785024Y-78802900D01*
X160679353Y-78791329D01*
X160555902Y-78777489D01*
X160416641Y-78761602D01*
X160263538Y-78743887D01*
X160098565Y-78724567D01*
X159923691Y-78703862D01*
X159740886Y-78681993D01*
X159739649Y-78681844D01*
X158497879Y-78532528D01*
X157281556Y-78679131D01*
X157099961Y-78700974D01*
X156925837Y-78721834D01*
X156761228Y-78741468D01*
X156608175Y-78759639D01*
X156468723Y-78776107D01*
X156344914Y-78790631D01*
X156238790Y-78802971D01*
X156152396Y-78812889D01*
X156087774Y-78820143D01*
X156046967Y-78824495D01*
X156032432Y-78825734D01*
X156007234Y-78821557D01*
X155999632Y-78814183D01*
X156003708Y-78798796D01*
X156015336Y-78759788D01*
X156033616Y-78700058D01*
X156057647Y-78622508D01*
X156086531Y-78530036D01*
X156119366Y-78425544D01*
X156155254Y-78311930D01*
X156166646Y-78275981D01*
X156203305Y-78160007D01*
X156237177Y-78052128D01*
X156267361Y-77955266D01*
X156292955Y-77872347D01*
X156313059Y-77806295D01*
X156326771Y-77760036D01*
X156333190Y-77736493D01*
X156333559Y-77734299D01*
X156322117Y-77724922D01*
X156288766Y-77701310D01*
X156234927Y-77664408D01*
X156162026Y-77615159D01*
X156071485Y-77554507D01*
X155964726Y-77483399D01*
X155843173Y-77402776D01*
X155708249Y-77313585D01*
X155561377Y-77216769D01*
X155403980Y-77113272D01*
X155237482Y-77004039D01*
X155063304Y-76890015D01*
X154927861Y-76801510D01*
X154748869Y-76684555D01*
X154576482Y-76571751D01*
X154412123Y-76464035D01*
X154257215Y-76362347D01*
X154113179Y-76267627D01*
X153981437Y-76180814D01*
X153863412Y-76102847D01*
X153760526Y-76034664D01*
X153674202Y-75977207D01*
X153605861Y-75931412D01*
X153556926Y-75898221D01*
X153528819Y-75878572D01*
X153522263Y-75873279D01*
X153533871Y-75863832D01*
X153566513Y-75842794D01*
X153616909Y-75812134D01*
X153681783Y-75773819D01*
X153757856Y-75729817D01*
X153821908Y-75693353D01*
X153919735Y-75637532D01*
X153995097Y-75593287D01*
X154050146Y-75559206D01*
X154087034Y-75533875D01*
X154107914Y-75515883D01*
X154114940Y-75503815D01*
X154114687Y-75501201D01*
X154107752Y-75476167D01*
X154095067Y-75428211D01*
X154077333Y-75360094D01*
X154055250Y-75274575D01*
X154029518Y-75174417D01*
X154000838Y-75062378D01*
X153969909Y-74941220D01*
X153937432Y-74813703D01*
X153904106Y-74682588D01*
X153870633Y-74550634D01*
X153837712Y-74420602D01*
X153806044Y-74295254D01*
X153776329Y-74177348D01*
X153749266Y-74069646D01*
X153725557Y-73974908D01*
X153705901Y-73895895D01*
X153690999Y-73835367D01*
X153681550Y-73796084D01*
X153678255Y-73780807D01*
X153678274Y-73780707D01*
X153692313Y-73782659D01*
G36*
X158506748Y-70390530D02*
G01*
X158527951Y-70424858D01*
X158560386Y-70479708D01*
X158602954Y-70553150D01*
X158654554Y-70643257D01*
X158714086Y-70748100D01*
X158780450Y-70865749D01*
X158852546Y-70994276D01*
X158929272Y-71131753D01*
X158995814Y-71251507D01*
X159075658Y-71395453D01*
X159151715Y-71532509D01*
X159222885Y-71660696D01*
X159288067Y-71778031D01*
X159346158Y-71882536D01*
X159396058Y-71972229D01*
X159436665Y-72045130D01*
X159466879Y-72099259D01*
X159485598Y-72132636D01*
X159491587Y-72143114D01*
X159500034Y-72145921D01*
X159519739Y-72142620D01*
X159552746Y-72132422D01*
X159601100Y-72114537D01*
X159666843Y-72088176D01*
X159752022Y-72052551D01*
X159858680Y-72006872D01*
X159972485Y-71957490D01*
X160079378Y-71911239D01*
X160178185Y-71869116D01*
X160266029Y-71832300D01*
X160340033Y-71801970D01*
X160397318Y-71779305D01*
X160435006Y-71765483D01*
X160450221Y-71761684D01*
X160450319Y-71761754D01*
X160450280Y-71776566D01*
X160447710Y-71817136D01*
X160442779Y-71881518D01*
X160435662Y-71967764D01*
X160426530Y-72073929D01*
X160415555Y-72198066D01*
X160402910Y-72338229D01*
X160388768Y-72492471D01*
X160373300Y-72658847D01*
X160356680Y-72835410D01*
X160339079Y-73020213D01*
X160336132Y-73050946D01*
X160318361Y-73236835D01*
X160301484Y-73414747D01*
X160285678Y-73582740D01*
X160271118Y-73738874D01*
X160257983Y-73881208D01*
X160246448Y-74007802D01*
X160236689Y-74116715D01*
X160228885Y-74206005D01*
X160223211Y-74273733D01*
X160219843Y-74317958D01*
X160218960Y-74336739D01*
X160219065Y-74337258D01*
X160230223Y-74329341D01*
X160260295Y-74304493D01*
X160307433Y-74264325D01*
X160369787Y-74210446D01*
X160445511Y-74144465D01*
X160532755Y-74067992D01*
X160629671Y-73982638D01*
X160734410Y-73890011D01*
X160827042Y-73807799D01*
X160937136Y-73710107D01*
X161041119Y-73618166D01*
X161137120Y-73533610D01*
X161223268Y-73458072D01*
X161297689Y-73393185D01*
X161358514Y-73340581D01*
X161403869Y-73301894D01*
X161431884Y-73278755D01*
X161440626Y-73272529D01*
X161444875Y-73275645D01*
X161451404Y-73286536D01*
X161461118Y-73307515D01*
X161474922Y-73340897D01*
X161493721Y-73388996D01*
X161518421Y-73454124D01*
X161549926Y-73538597D01*
X161589142Y-73644727D01*
X161634426Y-73767886D01*
X161675773Y-73880504D01*
X161557172Y-74017324D01*
X161404152Y-74198331D01*
X161243653Y-74396510D01*
X161077927Y-74608640D01*
X160909226Y-74831502D01*
X160739799Y-75061876D01*
X160571899Y-75296541D01*
X160407777Y-75532278D01*
X160249684Y-75765866D01*
X160099872Y-75994086D01*
X159960592Y-76213717D01*
X159834094Y-76421539D01*
X159722631Y-76614333D01*
X159655304Y-76737593D01*
X159579721Y-76879965D01*
X159533809Y-76813235D01*
X159446287Y-76676510D01*
X159355597Y-76517164D01*
X159263919Y-76339894D01*
X159173434Y-76149394D01*
X159086324Y-75950362D01*
X159004769Y-75747494D01*
X158930951Y-75545485D01*
X158894535Y-75436748D01*
X158828869Y-75222680D01*
X158763142Y-74987514D01*
X158699009Y-74737931D01*
X158638129Y-74480616D01*
X158582157Y-74222251D01*
X158538612Y-74001114D01*
X158499178Y-73790247D01*
X158427527Y-74147251D01*
X158348346Y-74519024D01*
X158264934Y-74865300D01*
X158176540Y-75188196D01*
X158082414Y-75489832D01*
X157981805Y-75772326D01*
X157873963Y-76037797D01*
X157758138Y-76288364D01*
X157633580Y-76526147D01*
X157511457Y-76734097D01*
X157478207Y-76786928D01*
X157449783Y-76830431D01*
X157429634Y-76859431D01*
X157421812Y-76868698D01*
X157411481Y-76859998D01*
X157392251Y-76831399D01*
X157367393Y-76788038D01*
X157352845Y-76760417D01*
X157271950Y-76609688D01*
X157174702Y-76440842D01*
X157063078Y-76256710D01*
X156939052Y-76060123D01*
X156804601Y-75853914D01*
X156661701Y-75640913D01*
X156512328Y-75423952D01*
X156358458Y-75205864D01*
X156202067Y-74989478D01*
X156045131Y-74777628D01*
X155889626Y-74573145D01*
X155737528Y-74378859D01*
X155590813Y-74197604D01*
X155451457Y-74032209D01*
X155438586Y-74017324D01*
X155319985Y-73880504D01*
X155361332Y-73767886D01*
X155408728Y-73638991D01*
X155447551Y-73533956D01*
X155478703Y-73450468D01*
X155503089Y-73386215D01*
X155521613Y-73338884D01*
X155535179Y-73306163D01*
X155544691Y-73285740D01*
X155551053Y-73275302D01*
X155554984Y-73272529D01*
X155567164Y-73281521D01*
X155598247Y-73307409D01*
X155646359Y-73348561D01*
X155709630Y-73403346D01*
X155786187Y-73470131D01*
X155874159Y-73547285D01*
X155971675Y-73633175D01*
X156076862Y-73726171D01*
X156168722Y-73807644D01*
X156278647Y-73905101D01*
X156382293Y-73996644D01*
X156477812Y-74080665D01*
X156563356Y-74155555D01*
X156637076Y-74219703D01*
X156697124Y-74271500D01*
X156741652Y-74309338D01*
X156768810Y-74331607D01*
X156776848Y-74337103D01*
X156776369Y-74322738D01*
X156773379Y-74282607D01*
X156768053Y-74218652D01*
X156760570Y-74132813D01*
X156751106Y-74027029D01*
X156739837Y-73903242D01*
X156726941Y-73763392D01*
X156712595Y-73609419D01*
X156696974Y-73443263D01*
X156680257Y-73266866D01*
X156678097Y-73244237D01*
X157992159Y-73244237D01*
X157997245Y-73245722D01*
X158017696Y-73230660D01*
X158049255Y-73202247D01*
X158053339Y-73198331D01*
X158102575Y-73157346D01*
X158163756Y-73115335D01*
X158219523Y-73083577D01*
X158343744Y-73036407D01*
X158469842Y-73016268D01*
X158595066Y-73022740D01*
X158716663Y-73055405D01*
X158831881Y-73113845D01*
X158931824Y-73191826D01*
X158967443Y-73223558D01*
X158992727Y-73242968D01*
X159003503Y-73246967D01*
X159003281Y-73244693D01*
X158997913Y-73227954D01*
X158985013Y-73187022D01*
X158965327Y-73124282D01*
X158939601Y-73042116D01*
X158908579Y-72942911D01*
X158873008Y-72829048D01*
X158833633Y-72702913D01*
X158791200Y-72566889D01*
X158748679Y-72430501D01*
X158704214Y-72287920D01*
X158662235Y-72153462D01*
X158623466Y-72029442D01*
X158588633Y-71918176D01*
X158558462Y-71821976D01*
X158533680Y-71743158D01*
X158515011Y-71684036D01*
X158503182Y-71646925D01*
X158498928Y-71634144D01*
X158494459Y-71646495D01*
X158482450Y-71683140D01*
X158463623Y-71741792D01*
X158438702Y-71820164D01*
X158408409Y-71915968D01*
X158373468Y-72026919D01*
X158334602Y-72150729D01*
X158292534Y-72285111D01*
X158248086Y-72427459D01*
X158203322Y-72570937D01*
X158160901Y-72706784D01*
X158121567Y-72832621D01*
X158086066Y-72946073D01*
X158055143Y-73044762D01*
X158029542Y-73126310D01*
X158010007Y-73188341D01*
X157997285Y-73228477D01*
X157992159Y-73244237D01*
X156678097Y-73244237D01*
X156662620Y-73082167D01*
X156659626Y-73050946D01*
X156641883Y-72864982D01*
X156625095Y-72686940D01*
X156609434Y-72518765D01*
X156595072Y-72362405D01*
X156582182Y-72219806D01*
X156570936Y-72092915D01*
X156561506Y-71983678D01*
X156554064Y-71894042D01*
X156548782Y-71825953D01*
X156545833Y-71781359D01*
X156545389Y-71762204D01*
X156545566Y-71761627D01*
X156559891Y-71764976D01*
X156596795Y-71778383D01*
X156653392Y-71800668D01*
X156726795Y-71830652D01*
X156814117Y-71867155D01*
X156912470Y-71908997D01*
X157018968Y-71954998D01*
X157021169Y-71955956D01*
X157127691Y-72002260D01*
X157225931Y-72044858D01*
X157313025Y-72082517D01*
X157386112Y-72114004D01*
X157442330Y-72138086D01*
X157478817Y-72153529D01*
X157492710Y-72159102D01*
X157492738Y-72159104D01*
X157500089Y-72147241D01*
X157519839Y-72112926D01*
X157550924Y-72058064D01*
X157592274Y-71984563D01*
X157642824Y-71894332D01*
X157701506Y-71789277D01*
X157767253Y-71671306D01*
X157838999Y-71542327D01*
X157915675Y-71404246D01*
X157990742Y-71268852D01*
X158071217Y-71123932D01*
X158147983Y-70986342D01*
X158219952Y-70857991D01*
X158286036Y-70740792D01*
X158345146Y-70636653D01*
X158396195Y-70547484D01*
X158438094Y-70475196D01*
X158469755Y-70421698D01*
X158490089Y-70388902D01*
X158497879Y-70378653D01*
X158506748Y-70390530D01*
G37*
X158506748Y-70390530D02*
X158527951Y-70424858D01*
X158560386Y-70479708D01*
X158602954Y-70553150D01*
X158654554Y-70643257D01*
X158714086Y-70748100D01*
X158780450Y-70865749D01*
X158852546Y-70994276D01*
X158929272Y-71131753D01*
X158995814Y-71251507D01*
X159075658Y-71395453D01*
X159151715Y-71532509D01*
X159222885Y-71660696D01*
X159288067Y-71778031D01*
X159346158Y-71882536D01*
X159396058Y-71972229D01*
X159436665Y-72045130D01*
X159466879Y-72099259D01*
X159485598Y-72132636D01*
X159491587Y-72143114D01*
X159500034Y-72145921D01*
X159519739Y-72142620D01*
X159552746Y-72132422D01*
X159601100Y-72114537D01*
X159666843Y-72088176D01*
X159752022Y-72052551D01*
X159858680Y-72006872D01*
X159972485Y-71957490D01*
X160079378Y-71911239D01*
X160178185Y-71869116D01*
X160266029Y-71832300D01*
X160340033Y-71801970D01*
X160397318Y-71779305D01*
X160435006Y-71765483D01*
X160450221Y-71761684D01*
X160450319Y-71761754D01*
X160450280Y-71776566D01*
X160447710Y-71817136D01*
X160442779Y-71881518D01*
X160435662Y-71967764D01*
X160426530Y-72073929D01*
X160415555Y-72198066D01*
X160402910Y-72338229D01*
X160388768Y-72492471D01*
X160373300Y-72658847D01*
X160356680Y-72835410D01*
X160339079Y-73020213D01*
X160336132Y-73050946D01*
X160318361Y-73236835D01*
X160301484Y-73414747D01*
X160285678Y-73582740D01*
X160271118Y-73738874D01*
X160257983Y-73881208D01*
X160246448Y-74007802D01*
X160236689Y-74116715D01*
X160228885Y-74206005D01*
X160223211Y-74273733D01*
X160219843Y-74317958D01*
X160218960Y-74336739D01*
X160219065Y-74337258D01*
X160230223Y-74329341D01*
X160260295Y-74304493D01*
X160307433Y-74264325D01*
X160369787Y-74210446D01*
X160445511Y-74144465D01*
X160532755Y-74067992D01*
X160629671Y-73982638D01*
X160734410Y-73890011D01*
X160827042Y-73807799D01*
X160937136Y-73710107D01*
X161041119Y-73618166D01*
X161137120Y-73533610D01*
X161223268Y-73458072D01*
X161297689Y-73393185D01*
X161358514Y-73340581D01*
X161403869Y-73301894D01*
X161431884Y-73278755D01*
X161440626Y-73272529D01*
X161444875Y-73275645D01*
X161451404Y-73286536D01*
X161461118Y-73307515D01*
X161474922Y-73340897D01*
X161493721Y-73388996D01*
X161518421Y-73454124D01*
X161549926Y-73538597D01*
X161589142Y-73644727D01*
X161634426Y-73767886D01*
X161675773Y-73880504D01*
X161557172Y-74017324D01*
X161404152Y-74198331D01*
X161243653Y-74396510D01*
X161077927Y-74608640D01*
X160909226Y-74831502D01*
X160739799Y-75061876D01*
X160571899Y-75296541D01*
X160407777Y-75532278D01*
X160249684Y-75765866D01*
X160099872Y-75994086D01*
X159960592Y-76213717D01*
X159834094Y-76421539D01*
X159722631Y-76614333D01*
X159655304Y-76737593D01*
X159579721Y-76879965D01*
X159533809Y-76813235D01*
X159446287Y-76676510D01*
X159355597Y-76517164D01*
X159263919Y-76339894D01*
X159173434Y-76149394D01*
X159086324Y-75950362D01*
X159004769Y-75747494D01*
X158930951Y-75545485D01*
X158894535Y-75436748D01*
X158828869Y-75222680D01*
X158763142Y-74987514D01*
X158699009Y-74737931D01*
X158638129Y-74480616D01*
X158582157Y-74222251D01*
X158538612Y-74001114D01*
X158499178Y-73790247D01*
X158427527Y-74147251D01*
X158348346Y-74519024D01*
X158264934Y-74865300D01*
X158176540Y-75188196D01*
X158082414Y-75489832D01*
X157981805Y-75772326D01*
X157873963Y-76037797D01*
X157758138Y-76288364D01*
X157633580Y-76526147D01*
X157511457Y-76734097D01*
X157478207Y-76786928D01*
X157449783Y-76830431D01*
X157429634Y-76859431D01*
X157421812Y-76868698D01*
X157411481Y-76859998D01*
X157392251Y-76831399D01*
X157367393Y-76788038D01*
X157352845Y-76760417D01*
X157271950Y-76609688D01*
X157174702Y-76440842D01*
X157063078Y-76256710D01*
X156939052Y-76060123D01*
X156804601Y-75853914D01*
X156661701Y-75640913D01*
X156512328Y-75423952D01*
X156358458Y-75205864D01*
X156202067Y-74989478D01*
X156045131Y-74777628D01*
X155889626Y-74573145D01*
X155737528Y-74378859D01*
X155590813Y-74197604D01*
X155451457Y-74032209D01*
X155438586Y-74017324D01*
X155319985Y-73880504D01*
X155361332Y-73767886D01*
X155408728Y-73638991D01*
X155447551Y-73533956D01*
X155478703Y-73450468D01*
X155503089Y-73386215D01*
X155521613Y-73338884D01*
X155535179Y-73306163D01*
X155544691Y-73285740D01*
X155551053Y-73275302D01*
X155554984Y-73272529D01*
X155567164Y-73281521D01*
X155598247Y-73307409D01*
X155646359Y-73348561D01*
X155709630Y-73403346D01*
X155786187Y-73470131D01*
X155874159Y-73547285D01*
X155971675Y-73633175D01*
X156076862Y-73726171D01*
X156168722Y-73807644D01*
X156278647Y-73905101D01*
X156382293Y-73996644D01*
X156477812Y-74080665D01*
X156563356Y-74155555D01*
X156637076Y-74219703D01*
X156697124Y-74271500D01*
X156741652Y-74309338D01*
X156768810Y-74331607D01*
X156776848Y-74337103D01*
X156776369Y-74322738D01*
X156773379Y-74282607D01*
X156768053Y-74218652D01*
X156760570Y-74132813D01*
X156751106Y-74027029D01*
X156739837Y-73903242D01*
X156726941Y-73763392D01*
X156712595Y-73609419D01*
X156696974Y-73443263D01*
X156680257Y-73266866D01*
X156678097Y-73244237D01*
X157992159Y-73244237D01*
X157997245Y-73245722D01*
X158017696Y-73230660D01*
X158049255Y-73202247D01*
X158053339Y-73198331D01*
X158102575Y-73157346D01*
X158163756Y-73115335D01*
X158219523Y-73083577D01*
X158343744Y-73036407D01*
X158469842Y-73016268D01*
X158595066Y-73022740D01*
X158716663Y-73055405D01*
X158831881Y-73113845D01*
X158931824Y-73191826D01*
X158967443Y-73223558D01*
X158992727Y-73242968D01*
X159003503Y-73246967D01*
X159003281Y-73244693D01*
X158997913Y-73227954D01*
X158985013Y-73187022D01*
X158965327Y-73124282D01*
X158939601Y-73042116D01*
X158908579Y-72942911D01*
X158873008Y-72829048D01*
X158833633Y-72702913D01*
X158791200Y-72566889D01*
X158748679Y-72430501D01*
X158704214Y-72287920D01*
X158662235Y-72153462D01*
X158623466Y-72029442D01*
X158588633Y-71918176D01*
X158558462Y-71821976D01*
X158533680Y-71743158D01*
X158515011Y-71684036D01*
X158503182Y-71646925D01*
X158498928Y-71634144D01*
X158494459Y-71646495D01*
X158482450Y-71683140D01*
X158463623Y-71741792D01*
X158438702Y-71820164D01*
X158408409Y-71915968D01*
X158373468Y-72026919D01*
X158334602Y-72150729D01*
X158292534Y-72285111D01*
X158248086Y-72427459D01*
X158203322Y-72570937D01*
X158160901Y-72706784D01*
X158121567Y-72832621D01*
X158086066Y-72946073D01*
X158055143Y-73044762D01*
X158029542Y-73126310D01*
X158010007Y-73188341D01*
X157997285Y-73228477D01*
X157992159Y-73244237D01*
X156678097Y-73244237D01*
X156662620Y-73082167D01*
X156659626Y-73050946D01*
X156641883Y-72864982D01*
X156625095Y-72686940D01*
X156609434Y-72518765D01*
X156595072Y-72362405D01*
X156582182Y-72219806D01*
X156570936Y-72092915D01*
X156561506Y-71983678D01*
X156554064Y-71894042D01*
X156548782Y-71825953D01*
X156545833Y-71781359D01*
X156545389Y-71762204D01*
X156545566Y-71761627D01*
X156559891Y-71764976D01*
X156596795Y-71778383D01*
X156653392Y-71800668D01*
X156726795Y-71830652D01*
X156814117Y-71867155D01*
X156912470Y-71908997D01*
X157018968Y-71954998D01*
X157021169Y-71955956D01*
X157127691Y-72002260D01*
X157225931Y-72044858D01*
X157313025Y-72082517D01*
X157386112Y-72114004D01*
X157442330Y-72138086D01*
X157478817Y-72153529D01*
X157492710Y-72159102D01*
X157492738Y-72159104D01*
X157500089Y-72147241D01*
X157519839Y-72112926D01*
X157550924Y-72058064D01*
X157592274Y-71984563D01*
X157642824Y-71894332D01*
X157701506Y-71789277D01*
X157767253Y-71671306D01*
X157838999Y-71542327D01*
X157915675Y-71404246D01*
X157990742Y-71268852D01*
X158071217Y-71123932D01*
X158147983Y-70986342D01*
X158219952Y-70857991D01*
X158286036Y-70740792D01*
X158345146Y-70636653D01*
X158396195Y-70547484D01*
X158438094Y-70475196D01*
X158469755Y-70421698D01*
X158490089Y-70388902D01*
X158497879Y-70378653D01*
X158506748Y-70390530D01*
D14*
G36*
X119055109Y-115544600D02*
G01*
X118674109Y-115544600D01*
X118674109Y-115290600D01*
X119055109Y-115290600D01*
X119055109Y-115544600D01*
G37*
X119055109Y-115544600D02*
X118674109Y-115544600D01*
X118674109Y-115290600D01*
X119055109Y-115290600D01*
X119055109Y-115544600D01*
D11*
X122194320Y-113753900D02*
X122194320Y-109004100D01*
X116834920Y-109004100D02*
X116834920Y-113753900D01*
X166770340Y-91621740D02*
X165460340Y-91621740D01*
X165460340Y-91621740D02*
X165460340Y-88901740D01*
X169950340Y-87761740D02*
X169950340Y-88901740D01*
X170180340Y-91621740D02*
X168870340Y-91621740D01*
X170180340Y-88901740D02*
X170180340Y-91621740D01*
X170180340Y-88901740D02*
X169950340Y-88901740D01*
X165460340Y-88901740D02*
X165690340Y-88901740D01*
X134470580Y-95887220D02*
X136920580Y-95887220D01*
X136270580Y-92667220D02*
X134470580Y-92667220D01*
X116538180Y-143369940D02*
X118988180Y-143369940D01*
X118338180Y-140149940D02*
X116538180Y-140149940D01*
X181864940Y-127011164D02*
X181864940Y-126557036D01*
X180394940Y-127011164D02*
X180394940Y-126557036D01*
X170541456Y-141217320D02*
X170995584Y-141217320D01*
X170541456Y-139747320D02*
X170995584Y-139747320D01*
X170535356Y-130153740D02*
X170989484Y-130153740D01*
X170535356Y-131623740D02*
X170989484Y-131623740D01*
X170526216Y-148182000D02*
X170980344Y-148182000D01*
X170526216Y-146712000D02*
X170980344Y-146712000D01*
X170526216Y-144753000D02*
X170980344Y-144753000D01*
X170526216Y-143283000D02*
X170980344Y-143283000D01*
X170503356Y-136285300D02*
X170957484Y-136285300D01*
X170503356Y-137755300D02*
X170957484Y-137755300D01*
X170535356Y-133468440D02*
X170989484Y-133468440D01*
X170535356Y-134938440D02*
X170989484Y-134938440D01*
X115537920Y-118423196D02*
X115537920Y-118877324D01*
X114067920Y-118423196D02*
X114067920Y-118877324D01*
X116600300Y-118956064D02*
X116600300Y-118501936D01*
X118070300Y-118956064D02*
X118070300Y-118501936D01*
X115601420Y-113528616D02*
X115601420Y-113982744D01*
X114131420Y-113528616D02*
X114131420Y-113982744D01*
X180037984Y-139180900D02*
X179583856Y-139180900D01*
X180037984Y-140650900D02*
X179583856Y-140650900D01*
X174204300Y-97604336D02*
X174204300Y-98058464D01*
X172734300Y-97604336D02*
X172734300Y-98058464D01*
X120729680Y-118492536D02*
X120729680Y-118946664D01*
X119259680Y-118492536D02*
X119259680Y-118946664D01*
X171080100Y-97705936D02*
X171080100Y-98160064D01*
X169610100Y-97705936D02*
X169610100Y-98160064D01*
X175916920Y-131868936D02*
X175916920Y-132323064D01*
X177386920Y-131868936D02*
X177386920Y-132323064D01*
X180029876Y-130504260D02*
X180484004Y-130504260D01*
X180029876Y-131974260D02*
X180484004Y-131974260D01*
X179189600Y-133766400D02*
X179189600Y-134696400D01*
X179189600Y-136926400D02*
X179189600Y-135996400D01*
X179189600Y-136926400D02*
X181349600Y-136926400D01*
X179189600Y-133766400D02*
X180649600Y-133766400D01*
X125472020Y-104773316D02*
X125472020Y-105977444D01*
X122752020Y-104773316D02*
X122752020Y-105977444D01*
D10*
X144329400Y-130340000D02*
X148329400Y-130340000D01*
X144329400Y-114340000D02*
X144329400Y-130340000D01*
X148329400Y-114340000D02*
X144329400Y-114340000D01*
X148329400Y-121340000D02*
X148329400Y-114340000D01*
X148029400Y-121340000D02*
X148329400Y-121340000D01*
X148029400Y-123340000D02*
X148029400Y-121340000D01*
X148329400Y-123340000D02*
X148029400Y-123340000D01*
X148329400Y-130340000D02*
X148329400Y-123340000D01*
X136582400Y-130390800D02*
X140582400Y-130390800D01*
X136582400Y-114390800D02*
X136582400Y-130390800D01*
X140582400Y-114390800D02*
X136582400Y-114390800D01*
X140582400Y-121390800D02*
X140582400Y-114390800D01*
X140282400Y-121390800D02*
X140582400Y-121390800D01*
X140282400Y-123390800D02*
X140282400Y-121390800D01*
X140582400Y-123390800D02*
X140282400Y-123390800D01*
X140582400Y-130390800D02*
X140582400Y-123390800D01*
D11*
X148675400Y-109185400D02*
X148675400Y-110515400D01*
X147345400Y-109185400D02*
X148675400Y-109185400D01*
X146075400Y-109185400D02*
X146075400Y-111845400D01*
X146075400Y-111845400D02*
X135855400Y-111845400D01*
X146075400Y-109185400D02*
X135855400Y-109185400D01*
X135855400Y-109185400D02*
X135855400Y-111845400D01*
D10*
X133732000Y-102089200D02*
X133732000Y-106089200D01*
X149732000Y-102089200D02*
X133732000Y-102089200D01*
X149732000Y-106089200D02*
X149732000Y-102089200D01*
X142732000Y-106089200D02*
X149732000Y-106089200D01*
X142732000Y-105789200D02*
X142732000Y-106089200D01*
X140732000Y-105789200D02*
X142732000Y-105789200D01*
X140732000Y-106089200D02*
X140732000Y-105789200D01*
X133732000Y-106089200D02*
X140732000Y-106089200D01*
D11*
X165527100Y-102322500D02*
X165527100Y-106382500D01*
X165527100Y-106382500D02*
X167797100Y-106382500D01*
X167797100Y-106382500D02*
X167797100Y-102322500D01*
X172435900Y-102325700D02*
X172435900Y-106385700D01*
X172435900Y-106385700D02*
X174705900Y-106385700D01*
X174705900Y-106385700D02*
X174705900Y-102325700D01*
X169210100Y-102449500D02*
X169210100Y-106509500D01*
X169210100Y-106509500D02*
X171480100Y-106509500D01*
X171480100Y-106509500D02*
X171480100Y-102449500D01*
X123848620Y-113911280D02*
X125848620Y-113911280D01*
X125848620Y-113911280D02*
X125848620Y-110061280D01*
X123848620Y-113911280D02*
X123848620Y-110061280D01*
X172774280Y-90130908D02*
X172774280Y-90653412D01*
X171304280Y-90130908D02*
X171304280Y-90653412D01*
X167096808Y-83996860D02*
X167619312Y-83996860D01*
X167096808Y-85466860D02*
X167619312Y-85466860D01*
X114182220Y-109533232D02*
X114182220Y-109010728D01*
X115652220Y-109533232D02*
X115652220Y-109010728D01*
X117569972Y-105921480D02*
X117047468Y-105921480D01*
X117569972Y-104451480D02*
X117047468Y-104451480D01*
X112792840Y-142541268D02*
X112792840Y-143063772D01*
X114262840Y-142541268D02*
X114262840Y-143063772D01*
X159489952Y-132688000D02*
X158967448Y-132688000D01*
X159489952Y-131218000D02*
X158967448Y-131218000D01*
D10*
X123461142Y-115705142D02*
X123413523Y-115752761D01*
X123270666Y-115800380D01*
X123175428Y-115800380D01*
X123032571Y-115752761D01*
X122937333Y-115657523D01*
X122889714Y-115562285D01*
X122842095Y-115371809D01*
X122842095Y-115228952D01*
X122889714Y-115038476D01*
X122937333Y-114943238D01*
X123032571Y-114848000D01*
X123175428Y-114800380D01*
X123270666Y-114800380D01*
X123413523Y-114848000D01*
X123461142Y-114895619D01*
X123842095Y-114895619D02*
X123889714Y-114848000D01*
X123984952Y-114800380D01*
X124223047Y-114800380D01*
X124318285Y-114848000D01*
X124365904Y-114895619D01*
X124413523Y-114990857D01*
X124413523Y-115086095D01*
X124365904Y-115228952D01*
X123794476Y-115800380D01*
X124413523Y-115800380D01*
X125318285Y-114800380D02*
X124842095Y-114800380D01*
X124794476Y-115276571D01*
X124842095Y-115228952D01*
X124937333Y-115181333D01*
X125175428Y-115181333D01*
X125270666Y-115228952D01*
X125318285Y-115276571D01*
X125365904Y-115371809D01*
X125365904Y-115609904D01*
X125318285Y-115705142D01*
X125270666Y-115752761D01*
X125175428Y-115800380D01*
X124937333Y-115800380D01*
X124842095Y-115752761D01*
X124794476Y-115705142D01*
X131108622Y-93081622D02*
X131061003Y-93129241D01*
X130918146Y-93176860D01*
X130822908Y-93176860D01*
X130680051Y-93129241D01*
X130584813Y-93034003D01*
X130537194Y-92938765D01*
X130489575Y-92748289D01*
X130489575Y-92605432D01*
X130537194Y-92414956D01*
X130584813Y-92319718D01*
X130680051Y-92224480D01*
X130822908Y-92176860D01*
X130918146Y-92176860D01*
X131061003Y-92224480D01*
X131108622Y-92272099D01*
X132061003Y-93176860D02*
X131489575Y-93176860D01*
X131775289Y-93176860D02*
X131775289Y-92176860D01*
X131680051Y-92319718D01*
X131584813Y-92414956D01*
X131489575Y-92462575D01*
X132394337Y-92176860D02*
X133061003Y-92176860D01*
X132632432Y-93176860D01*
X177641422Y-124545860D02*
X177308089Y-124069670D01*
X177069994Y-124545860D02*
X177069994Y-123545860D01*
X177450946Y-123545860D01*
X177546184Y-123593480D01*
X177593803Y-123641099D01*
X177641422Y-123736337D01*
X177641422Y-123879194D01*
X177593803Y-123974432D01*
X177546184Y-124022051D01*
X177450946Y-124069670D01*
X177069994Y-124069670D01*
X178022375Y-123641099D02*
X178069994Y-123593480D01*
X178165232Y-123545860D01*
X178403327Y-123545860D01*
X178498565Y-123593480D01*
X178546184Y-123641099D01*
X178593803Y-123736337D01*
X178593803Y-123831575D01*
X178546184Y-123974432D01*
X177974756Y-124545860D01*
X178593803Y-124545860D01*
X179498565Y-123545860D02*
X179022375Y-123545860D01*
X178974756Y-124022051D01*
X179022375Y-123974432D01*
X179117613Y-123926813D01*
X179355708Y-123926813D01*
X179450946Y-123974432D01*
X179498565Y-124022051D01*
X179546184Y-124117289D01*
X179546184Y-124355384D01*
X179498565Y-124450622D01*
X179450946Y-124498241D01*
X179355708Y-124545860D01*
X179117613Y-124545860D01*
X179022375Y-124498241D01*
X178974756Y-124450622D01*
X152147946Y-130750060D02*
X152147946Y-131464346D01*
X152100327Y-131607203D01*
X152005089Y-131702441D01*
X151862232Y-131750060D01*
X151766994Y-131750060D01*
X152766994Y-131178632D02*
X152671756Y-131131013D01*
X152624137Y-131083394D01*
X152576518Y-130988156D01*
X152576518Y-130940537D01*
X152624137Y-130845299D01*
X152671756Y-130797680D01*
X152766994Y-130750060D01*
X152957470Y-130750060D01*
X153052708Y-130797680D01*
X153100327Y-130845299D01*
X153147946Y-130940537D01*
X153147946Y-130988156D01*
X153100327Y-131083394D01*
X153052708Y-131131013D01*
X152957470Y-131178632D01*
X152766994Y-131178632D01*
X152671756Y-131226251D01*
X152624137Y-131273870D01*
X152576518Y-131369108D01*
X152576518Y-131559584D01*
X152624137Y-131654822D01*
X152671756Y-131702441D01*
X152766994Y-131750060D01*
X152957470Y-131750060D01*
X153052708Y-131702441D01*
X153100327Y-131654822D01*
X153147946Y-131559584D01*
X153147946Y-131369108D01*
X153100327Y-131273870D01*
X153052708Y-131226251D01*
X152957470Y-131178632D01*
X180139666Y-107358380D02*
X180139666Y-108072666D01*
X180092047Y-108215523D01*
X179996809Y-108310761D01*
X179853952Y-108358380D01*
X179758714Y-108358380D01*
X181044428Y-107691714D02*
X181044428Y-108358380D01*
X180806333Y-107310761D02*
X180568238Y-108025047D01*
X181187285Y-108025047D01*
X107165876Y-99985580D02*
X107165876Y-100699866D01*
X107118257Y-100842723D01*
X107023019Y-100937961D01*
X106880161Y-100985580D01*
X106784923Y-100985580D01*
X108165876Y-100985580D02*
X107594447Y-100985580D01*
X107880161Y-100985580D02*
X107880161Y-99985580D01*
X107784923Y-100128438D01*
X107689685Y-100223676D01*
X107594447Y-100271295D01*
X109118257Y-100985580D02*
X108546828Y-100985580D01*
X108832542Y-100985580D02*
X108832542Y-99985580D01*
X108737304Y-100128438D01*
X108642066Y-100223676D01*
X108546828Y-100271295D01*
X130311142Y-109230142D02*
X130263523Y-109277761D01*
X130120666Y-109325380D01*
X130025428Y-109325380D01*
X129882571Y-109277761D01*
X129787333Y-109182523D01*
X129739714Y-109087285D01*
X129692095Y-108896809D01*
X129692095Y-108753952D01*
X129739714Y-108563476D01*
X129787333Y-108468238D01*
X129882571Y-108373000D01*
X130025428Y-108325380D01*
X130120666Y-108325380D01*
X130263523Y-108373000D01*
X130311142Y-108420619D01*
X130692095Y-108420619D02*
X130739714Y-108373000D01*
X130834952Y-108325380D01*
X131073047Y-108325380D01*
X131168285Y-108373000D01*
X131215904Y-108420619D01*
X131263523Y-108515857D01*
X131263523Y-108611095D01*
X131215904Y-108753952D01*
X130644476Y-109325380D01*
X131263523Y-109325380D01*
X131644476Y-108420619D02*
X131692095Y-108373000D01*
X131787333Y-108325380D01*
X132025428Y-108325380D01*
X132120666Y-108373000D01*
X132168285Y-108420619D01*
X132215904Y-108515857D01*
X132215904Y-108611095D01*
X132168285Y-108753952D01*
X131596857Y-109325380D01*
X132215904Y-109325380D01*
X123347642Y-122226342D02*
X123300023Y-122273961D01*
X123157166Y-122321580D01*
X123061928Y-122321580D01*
X122919071Y-122273961D01*
X122823833Y-122178723D01*
X122776214Y-122083485D01*
X122728595Y-121893009D01*
X122728595Y-121750152D01*
X122776214Y-121559676D01*
X122823833Y-121464438D01*
X122919071Y-121369200D01*
X123061928Y-121321580D01*
X123157166Y-121321580D01*
X123300023Y-121369200D01*
X123347642Y-121416819D01*
X123728595Y-121416819D02*
X123776214Y-121369200D01*
X123871452Y-121321580D01*
X124109547Y-121321580D01*
X124204785Y-121369200D01*
X124252404Y-121416819D01*
X124300023Y-121512057D01*
X124300023Y-121607295D01*
X124252404Y-121750152D01*
X123680976Y-122321580D01*
X124300023Y-122321580D01*
X125157166Y-121321580D02*
X124966690Y-121321580D01*
X124871452Y-121369200D01*
X124823833Y-121416819D01*
X124728595Y-121559676D01*
X124680976Y-121750152D01*
X124680976Y-122131104D01*
X124728595Y-122226342D01*
X124776214Y-122273961D01*
X124871452Y-122321580D01*
X125061928Y-122321580D01*
X125157166Y-122273961D01*
X125204785Y-122226342D01*
X125252404Y-122131104D01*
X125252404Y-121893009D01*
X125204785Y-121797771D01*
X125157166Y-121750152D01*
X125061928Y-121702533D01*
X124871452Y-121702533D01*
X124776214Y-121750152D01*
X124728595Y-121797771D01*
X124680976Y-121893009D01*
X134718822Y-89358640D02*
X134385489Y-88882450D01*
X134147394Y-89358640D02*
X134147394Y-88358640D01*
X134528346Y-88358640D01*
X134623584Y-88406260D01*
X134671203Y-88453879D01*
X134718822Y-88549117D01*
X134718822Y-88691974D01*
X134671203Y-88787212D01*
X134623584Y-88834831D01*
X134528346Y-88882450D01*
X134147394Y-88882450D01*
X135671203Y-89358640D02*
X135099775Y-89358640D01*
X135385489Y-89358640D02*
X135385489Y-88358640D01*
X135290251Y-88501498D01*
X135195013Y-88596736D01*
X135099775Y-88644355D01*
X136623584Y-89358640D02*
X136052156Y-89358640D01*
X136337870Y-89358640D02*
X136337870Y-88358640D01*
X136242632Y-88501498D01*
X136147394Y-88596736D01*
X136052156Y-88644355D01*
X117265153Y-136452780D02*
X116931820Y-135976590D01*
X116693724Y-136452780D02*
X116693724Y-135452780D01*
X117074677Y-135452780D01*
X117169915Y-135500400D01*
X117217534Y-135548019D01*
X117265153Y-135643257D01*
X117265153Y-135786114D01*
X117217534Y-135881352D01*
X117169915Y-135928971D01*
X117074677Y-135976590D01*
X116693724Y-135976590D01*
X117598486Y-135452780D02*
X118265153Y-135452780D01*
X117836581Y-136452780D01*
X164574333Y-97362780D02*
X164241000Y-96886590D01*
X164002904Y-97362780D02*
X164002904Y-96362780D01*
X164383857Y-96362780D01*
X164479095Y-96410400D01*
X164526714Y-96458019D01*
X164574333Y-96553257D01*
X164574333Y-96696114D01*
X164526714Y-96791352D01*
X164479095Y-96838971D01*
X164383857Y-96886590D01*
X164002904Y-96886590D01*
X165479095Y-96362780D02*
X165002904Y-96362780D01*
X164955285Y-96838971D01*
X165002904Y-96791352D01*
X165098142Y-96743733D01*
X165336238Y-96743733D01*
X165431476Y-96791352D01*
X165479095Y-96838971D01*
X165526714Y-96934209D01*
X165526714Y-97172304D01*
X165479095Y-97267542D01*
X165431476Y-97315161D01*
X165336238Y-97362780D01*
X165098142Y-97362780D01*
X165002904Y-97315161D01*
X164955285Y-97267542D01*
X132696982Y-71002162D02*
X132649363Y-71049781D01*
X132506506Y-71097400D01*
X132411268Y-71097400D01*
X132268411Y-71049781D01*
X132173173Y-70954543D01*
X132125554Y-70859305D01*
X132077935Y-70668829D01*
X132077935Y-70525972D01*
X132125554Y-70335496D01*
X132173173Y-70240258D01*
X132268411Y-70145020D01*
X132411268Y-70097400D01*
X132506506Y-70097400D01*
X132649363Y-70145020D01*
X132696982Y-70192639D01*
X133649363Y-71097400D02*
X133077935Y-71097400D01*
X133363649Y-71097400D02*
X133363649Y-70097400D01*
X133268411Y-70240258D01*
X133173173Y-70335496D01*
X133077935Y-70383115D01*
X134220792Y-70525972D02*
X134125554Y-70478353D01*
X134077935Y-70430734D01*
X134030316Y-70335496D01*
X134030316Y-70287877D01*
X134077935Y-70192639D01*
X134125554Y-70145020D01*
X134220792Y-70097400D01*
X134411268Y-70097400D01*
X134506506Y-70145020D01*
X134554125Y-70192639D01*
X134601744Y-70287877D01*
X134601744Y-70335496D01*
X134554125Y-70430734D01*
X134506506Y-70478353D01*
X134411268Y-70525972D01*
X134220792Y-70525972D01*
X134125554Y-70573591D01*
X134077935Y-70621210D01*
X134030316Y-70716448D01*
X134030316Y-70906924D01*
X134077935Y-71002162D01*
X134125554Y-71049781D01*
X134220792Y-71097400D01*
X134411268Y-71097400D01*
X134506506Y-71049781D01*
X134554125Y-71002162D01*
X134601744Y-70906924D01*
X134601744Y-70716448D01*
X134554125Y-70621210D01*
X134506506Y-70573591D01*
X134411268Y-70525972D01*
X142232142Y-72608802D02*
X142184523Y-72656421D01*
X142041666Y-72704040D01*
X141946428Y-72704040D01*
X141803571Y-72656421D01*
X141708333Y-72561183D01*
X141660714Y-72465945D01*
X141613095Y-72275469D01*
X141613095Y-72132612D01*
X141660714Y-71942136D01*
X141708333Y-71846898D01*
X141803571Y-71751660D01*
X141946428Y-71704040D01*
X142041666Y-71704040D01*
X142184523Y-71751660D01*
X142232142Y-71799279D01*
X143184523Y-72704040D02*
X142613095Y-72704040D01*
X142898809Y-72704040D02*
X142898809Y-71704040D01*
X142803571Y-71846898D01*
X142708333Y-71942136D01*
X142613095Y-71989755D01*
X143660714Y-72704040D02*
X143851190Y-72704040D01*
X143946428Y-72656421D01*
X143994047Y-72608802D01*
X144089285Y-72465945D01*
X144136904Y-72275469D01*
X144136904Y-71894517D01*
X144089285Y-71799279D01*
X144041666Y-71751660D01*
X143946428Y-71704040D01*
X143755952Y-71704040D01*
X143660714Y-71751660D01*
X143613095Y-71799279D01*
X143565476Y-71894517D01*
X143565476Y-72132612D01*
X143613095Y-72227850D01*
X143660714Y-72275469D01*
X143755952Y-72323088D01*
X143946428Y-72323088D01*
X144041666Y-72275469D01*
X144089285Y-72227850D01*
X144136904Y-72132612D01*
X131638135Y-76518520D02*
X131638135Y-77328044D01*
X131685754Y-77423282D01*
X131733373Y-77470901D01*
X131828611Y-77518520D01*
X132019087Y-77518520D01*
X132114325Y-77470901D01*
X132161944Y-77423282D01*
X132209563Y-77328044D01*
X132209563Y-76518520D01*
X132733373Y-77518520D02*
X132923849Y-77518520D01*
X133019087Y-77470901D01*
X133066706Y-77423282D01*
X133161944Y-77280425D01*
X133209563Y-77089949D01*
X133209563Y-76708997D01*
X133161944Y-76613759D01*
X133114325Y-76566140D01*
X133019087Y-76518520D01*
X132828611Y-76518520D01*
X132733373Y-76566140D01*
X132685754Y-76613759D01*
X132638135Y-76708997D01*
X132638135Y-76947092D01*
X132685754Y-77042330D01*
X132733373Y-77089949D01*
X132828611Y-77137568D01*
X133019087Y-77137568D01*
X133114325Y-77089949D01*
X133161944Y-77042330D01*
X133209563Y-76947092D01*
X120200515Y-106228900D02*
X120200515Y-107038424D01*
X120248134Y-107133662D01*
X120295753Y-107181281D01*
X120390991Y-107228900D01*
X120581467Y-107228900D01*
X120676705Y-107181281D01*
X120724324Y-107133662D01*
X120771943Y-107038424D01*
X120771943Y-106228900D01*
X121676705Y-106228900D02*
X121486229Y-106228900D01*
X121390991Y-106276520D01*
X121343372Y-106324139D01*
X121248134Y-106466996D01*
X121200515Y-106657472D01*
X121200515Y-107038424D01*
X121248134Y-107133662D01*
X121295753Y-107181281D01*
X121390991Y-107228900D01*
X121581467Y-107228900D01*
X121676705Y-107181281D01*
X121724324Y-107133662D01*
X121771943Y-107038424D01*
X121771943Y-106800329D01*
X121724324Y-106705091D01*
X121676705Y-106657472D01*
X121581467Y-106609853D01*
X121390991Y-106609853D01*
X121295753Y-106657472D01*
X121248134Y-106705091D01*
X121200515Y-106800329D01*
X121865140Y-108562140D02*
X122103236Y-108562140D01*
X122007998Y-108800235D02*
X122103236Y-108562140D01*
X122007998Y-108324044D01*
X122293712Y-108704997D02*
X122103236Y-108562140D01*
X122293712Y-108419282D01*
X121870220Y-108557060D02*
X122108316Y-108557060D01*
X122013078Y-108795155D02*
X122108316Y-108557060D01*
X122013078Y-108318964D01*
X122298792Y-108699917D02*
X122108316Y-108557060D01*
X122298792Y-108414202D01*
X163466875Y-87143340D02*
X163466875Y-87952864D01*
X163514494Y-88048102D01*
X163562113Y-88095721D01*
X163657351Y-88143340D01*
X163847827Y-88143340D01*
X163943065Y-88095721D01*
X163990684Y-88048102D01*
X164038303Y-87952864D01*
X164038303Y-87143340D01*
X164943065Y-87476674D02*
X164943065Y-88143340D01*
X164704970Y-87095721D02*
X164466875Y-87810007D01*
X165085922Y-87810007D01*
X134757255Y-96642940D02*
X134757255Y-97452464D01*
X134804874Y-97547702D01*
X134852493Y-97595321D01*
X134947731Y-97642940D01*
X135138207Y-97642940D01*
X135233445Y-97595321D01*
X135281064Y-97547702D01*
X135328683Y-97452464D01*
X135328683Y-96642940D01*
X135757255Y-96738179D02*
X135804874Y-96690560D01*
X135900112Y-96642940D01*
X136138207Y-96642940D01*
X136233445Y-96690560D01*
X136281064Y-96738179D01*
X136328683Y-96833417D01*
X136328683Y-96928655D01*
X136281064Y-97071512D01*
X135709636Y-97642940D01*
X136328683Y-97642940D01*
X121097135Y-141227560D02*
X121097135Y-142037084D01*
X121144754Y-142132322D01*
X121192373Y-142179941D01*
X121287611Y-142227560D01*
X121478087Y-142227560D01*
X121573325Y-142179941D01*
X121620944Y-142132322D01*
X121668563Y-142037084D01*
X121668563Y-141227560D01*
X122668563Y-142227560D02*
X122097135Y-142227560D01*
X122382849Y-142227560D02*
X122382849Y-141227560D01*
X122287611Y-141370418D01*
X122192373Y-141465656D01*
X122097135Y-141513275D01*
X180814742Y-124528840D02*
X180481409Y-124052650D01*
X180243314Y-124528840D02*
X180243314Y-123528840D01*
X180624266Y-123528840D01*
X180719504Y-123576460D01*
X180767123Y-123624079D01*
X180814742Y-123719317D01*
X180814742Y-123862174D01*
X180767123Y-123957412D01*
X180719504Y-124005031D01*
X180624266Y-124052650D01*
X180243314Y-124052650D01*
X181195695Y-123624079D02*
X181243314Y-123576460D01*
X181338552Y-123528840D01*
X181576647Y-123528840D01*
X181671885Y-123576460D01*
X181719504Y-123624079D01*
X181767123Y-123719317D01*
X181767123Y-123814555D01*
X181719504Y-123957412D01*
X181148076Y-124528840D01*
X181767123Y-124528840D01*
X182624266Y-123528840D02*
X182433790Y-123528840D01*
X182338552Y-123576460D01*
X182290933Y-123624079D01*
X182195695Y-123766936D01*
X182148076Y-123957412D01*
X182148076Y-124338364D01*
X182195695Y-124433602D01*
X182243314Y-124481221D01*
X182338552Y-124528840D01*
X182529028Y-124528840D01*
X182624266Y-124481221D01*
X182671885Y-124433602D01*
X182719504Y-124338364D01*
X182719504Y-124100269D01*
X182671885Y-124005031D01*
X182624266Y-123957412D01*
X182529028Y-123909793D01*
X182338552Y-123909793D01*
X182243314Y-123957412D01*
X182195695Y-124005031D01*
X182148076Y-124100269D01*
X168511142Y-139225380D02*
X168177809Y-138749190D01*
X167939714Y-139225380D02*
X167939714Y-138225380D01*
X168320666Y-138225380D01*
X168415904Y-138273000D01*
X168463523Y-138320619D01*
X168511142Y-138415857D01*
X168511142Y-138558714D01*
X168463523Y-138653952D01*
X168415904Y-138701571D01*
X168320666Y-138749190D01*
X167939714Y-138749190D01*
X168892095Y-138320619D02*
X168939714Y-138273000D01*
X169034952Y-138225380D01*
X169273047Y-138225380D01*
X169368285Y-138273000D01*
X169415904Y-138320619D01*
X169463523Y-138415857D01*
X169463523Y-138511095D01*
X169415904Y-138653952D01*
X168844476Y-139225380D01*
X169463523Y-139225380D01*
X169796857Y-138225380D02*
X170415904Y-138225380D01*
X170082571Y-138606333D01*
X170225428Y-138606333D01*
X170320666Y-138653952D01*
X170368285Y-138701571D01*
X170415904Y-138796809D01*
X170415904Y-139034904D01*
X170368285Y-139130142D01*
X170320666Y-139177761D01*
X170225428Y-139225380D01*
X169939714Y-139225380D01*
X169844476Y-139177761D01*
X169796857Y-139130142D01*
X168711142Y-129625380D02*
X168377809Y-129149190D01*
X168139714Y-129625380D02*
X168139714Y-128625380D01*
X168520666Y-128625380D01*
X168615904Y-128673000D01*
X168663523Y-128720619D01*
X168711142Y-128815857D01*
X168711142Y-128958714D01*
X168663523Y-129053952D01*
X168615904Y-129101571D01*
X168520666Y-129149190D01*
X168139714Y-129149190D01*
X169092095Y-128720619D02*
X169139714Y-128673000D01*
X169234952Y-128625380D01*
X169473047Y-128625380D01*
X169568285Y-128673000D01*
X169615904Y-128720619D01*
X169663523Y-128815857D01*
X169663523Y-128911095D01*
X169615904Y-129053952D01*
X169044476Y-129625380D01*
X169663523Y-129625380D01*
X170044476Y-128720619D02*
X170092095Y-128673000D01*
X170187333Y-128625380D01*
X170425428Y-128625380D01*
X170520666Y-128673000D01*
X170568285Y-128720619D01*
X170615904Y-128815857D01*
X170615904Y-128911095D01*
X170568285Y-129053952D01*
X169996857Y-129625380D01*
X170615904Y-129625380D01*
X168511142Y-146075380D02*
X168177809Y-145599190D01*
X167939714Y-146075380D02*
X167939714Y-145075380D01*
X168320666Y-145075380D01*
X168415904Y-145123000D01*
X168463523Y-145170619D01*
X168511142Y-145265857D01*
X168511142Y-145408714D01*
X168463523Y-145503952D01*
X168415904Y-145551571D01*
X168320666Y-145599190D01*
X167939714Y-145599190D01*
X168892095Y-145170619D02*
X168939714Y-145123000D01*
X169034952Y-145075380D01*
X169273047Y-145075380D01*
X169368285Y-145123000D01*
X169415904Y-145170619D01*
X169463523Y-145265857D01*
X169463523Y-145361095D01*
X169415904Y-145503952D01*
X168844476Y-146075380D01*
X169463523Y-146075380D01*
X170415904Y-146075380D02*
X169844476Y-146075380D01*
X170130190Y-146075380D02*
X170130190Y-145075380D01*
X170034952Y-145218238D01*
X169939714Y-145313476D01*
X169844476Y-145361095D01*
X168386142Y-142775380D02*
X168052809Y-142299190D01*
X167814714Y-142775380D02*
X167814714Y-141775380D01*
X168195666Y-141775380D01*
X168290904Y-141823000D01*
X168338523Y-141870619D01*
X168386142Y-141965857D01*
X168386142Y-142108714D01*
X168338523Y-142203952D01*
X168290904Y-142251571D01*
X168195666Y-142299190D01*
X167814714Y-142299190D01*
X168767095Y-141870619D02*
X168814714Y-141823000D01*
X168909952Y-141775380D01*
X169148047Y-141775380D01*
X169243285Y-141823000D01*
X169290904Y-141870619D01*
X169338523Y-141965857D01*
X169338523Y-142061095D01*
X169290904Y-142203952D01*
X168719476Y-142775380D01*
X169338523Y-142775380D01*
X169957571Y-141775380D02*
X170052809Y-141775380D01*
X170148047Y-141823000D01*
X170195666Y-141870619D01*
X170243285Y-141965857D01*
X170290904Y-142156333D01*
X170290904Y-142394428D01*
X170243285Y-142584904D01*
X170195666Y-142680142D01*
X170148047Y-142727761D01*
X170052809Y-142775380D01*
X169957571Y-142775380D01*
X169862333Y-142727761D01*
X169814714Y-142680142D01*
X169767095Y-142584904D01*
X169719476Y-142394428D01*
X169719476Y-142156333D01*
X169767095Y-141965857D01*
X169814714Y-141870619D01*
X169862333Y-141823000D01*
X169957571Y-141775380D01*
X173411142Y-137444740D02*
X173077809Y-136968550D01*
X172839714Y-137444740D02*
X172839714Y-136444740D01*
X173220666Y-136444740D01*
X173315904Y-136492360D01*
X173363523Y-136539979D01*
X173411142Y-136635217D01*
X173411142Y-136778074D01*
X173363523Y-136873312D01*
X173315904Y-136920931D01*
X173220666Y-136968550D01*
X172839714Y-136968550D01*
X174363523Y-137444740D02*
X173792095Y-137444740D01*
X174077809Y-137444740D02*
X174077809Y-136444740D01*
X173982571Y-136587598D01*
X173887333Y-136682836D01*
X173792095Y-136730455D01*
X174839714Y-137444740D02*
X175030190Y-137444740D01*
X175125428Y-137397121D01*
X175173047Y-137349502D01*
X175268285Y-137206645D01*
X175315904Y-137016169D01*
X175315904Y-136635217D01*
X175268285Y-136539979D01*
X175220666Y-136492360D01*
X175125428Y-136444740D01*
X174934952Y-136444740D01*
X174839714Y-136492360D01*
X174792095Y-136539979D01*
X174744476Y-136635217D01*
X174744476Y-136873312D01*
X174792095Y-136968550D01*
X174839714Y-137016169D01*
X174934952Y-137063788D01*
X175125428Y-137063788D01*
X175220666Y-137016169D01*
X175268285Y-136968550D01*
X175315904Y-136873312D01*
X168711142Y-133025380D02*
X168377809Y-132549190D01*
X168139714Y-133025380D02*
X168139714Y-132025380D01*
X168520666Y-132025380D01*
X168615904Y-132073000D01*
X168663523Y-132120619D01*
X168711142Y-132215857D01*
X168711142Y-132358714D01*
X168663523Y-132453952D01*
X168615904Y-132501571D01*
X168520666Y-132549190D01*
X168139714Y-132549190D01*
X169663523Y-133025380D02*
X169092095Y-133025380D01*
X169377809Y-133025380D02*
X169377809Y-132025380D01*
X169282571Y-132168238D01*
X169187333Y-132263476D01*
X169092095Y-132311095D01*
X170234952Y-132453952D02*
X170139714Y-132406333D01*
X170092095Y-132358714D01*
X170044476Y-132263476D01*
X170044476Y-132215857D01*
X170092095Y-132120619D01*
X170139714Y-132073000D01*
X170234952Y-132025380D01*
X170425428Y-132025380D01*
X170520666Y-132073000D01*
X170568285Y-132120619D01*
X170615904Y-132215857D01*
X170615904Y-132263476D01*
X170568285Y-132358714D01*
X170520666Y-132406333D01*
X170425428Y-132453952D01*
X170234952Y-132453952D01*
X170139714Y-132501571D01*
X170092095Y-132549190D01*
X170044476Y-132644428D01*
X170044476Y-132834904D01*
X170092095Y-132930142D01*
X170139714Y-132977761D01*
X170234952Y-133025380D01*
X170425428Y-133025380D01*
X170520666Y-132977761D01*
X170568285Y-132930142D01*
X170615904Y-132834904D01*
X170615904Y-132644428D01*
X170568285Y-132549190D01*
X170520666Y-132501571D01*
X170425428Y-132453952D01*
X111594662Y-118971320D02*
X111261329Y-118495130D01*
X111023234Y-118971320D02*
X111023234Y-117971320D01*
X111404186Y-117971320D01*
X111499424Y-118018940D01*
X111547043Y-118066559D01*
X111594662Y-118161797D01*
X111594662Y-118304654D01*
X111547043Y-118399892D01*
X111499424Y-118447511D01*
X111404186Y-118495130D01*
X111023234Y-118495130D01*
X112547043Y-118971320D02*
X111975615Y-118971320D01*
X112261329Y-118971320D02*
X112261329Y-117971320D01*
X112166091Y-118114178D01*
X112070853Y-118209416D01*
X111975615Y-118257035D01*
X113451805Y-117971320D02*
X112975615Y-117971320D01*
X112927996Y-118447511D01*
X112975615Y-118399892D01*
X113070853Y-118352273D01*
X113308948Y-118352273D01*
X113404186Y-118399892D01*
X113451805Y-118447511D01*
X113499424Y-118542749D01*
X113499424Y-118780844D01*
X113451805Y-118876082D01*
X113404186Y-118923701D01*
X113308948Y-118971320D01*
X113070853Y-118971320D01*
X112975615Y-118923701D01*
X112927996Y-118876082D01*
X116702602Y-121846600D02*
X116369269Y-121370410D01*
X116131174Y-121846600D02*
X116131174Y-120846600D01*
X116512126Y-120846600D01*
X116607364Y-120894220D01*
X116654983Y-120941839D01*
X116702602Y-121037077D01*
X116702602Y-121179934D01*
X116654983Y-121275172D01*
X116607364Y-121322791D01*
X116512126Y-121370410D01*
X116131174Y-121370410D01*
X117654983Y-121846600D02*
X117083555Y-121846600D01*
X117369269Y-121846600D02*
X117369269Y-120846600D01*
X117274031Y-120989458D01*
X117178793Y-121084696D01*
X117083555Y-121132315D01*
X118512126Y-121179934D02*
X118512126Y-121846600D01*
X118274031Y-120798981D02*
X118035936Y-121513267D01*
X118654983Y-121513267D01*
X111836142Y-115850380D02*
X111502809Y-115374190D01*
X111264714Y-115850380D02*
X111264714Y-114850380D01*
X111645666Y-114850380D01*
X111740904Y-114898000D01*
X111788523Y-114945619D01*
X111836142Y-115040857D01*
X111836142Y-115183714D01*
X111788523Y-115278952D01*
X111740904Y-115326571D01*
X111645666Y-115374190D01*
X111264714Y-115374190D01*
X112788523Y-115850380D02*
X112217095Y-115850380D01*
X112502809Y-115850380D02*
X112502809Y-114850380D01*
X112407571Y-114993238D01*
X112312333Y-115088476D01*
X112217095Y-115136095D01*
X113121857Y-114850380D02*
X113740904Y-114850380D01*
X113407571Y-115231333D01*
X113550428Y-115231333D01*
X113645666Y-115278952D01*
X113693285Y-115326571D01*
X113740904Y-115421809D01*
X113740904Y-115659904D01*
X113693285Y-115755142D01*
X113645666Y-115802761D01*
X113550428Y-115850380D01*
X113264714Y-115850380D01*
X113169476Y-115802761D01*
X113121857Y-115755142D01*
X175786142Y-140425380D02*
X175452809Y-139949190D01*
X175214714Y-140425380D02*
X175214714Y-139425380D01*
X175595666Y-139425380D01*
X175690904Y-139473000D01*
X175738523Y-139520619D01*
X175786142Y-139615857D01*
X175786142Y-139758714D01*
X175738523Y-139853952D01*
X175690904Y-139901571D01*
X175595666Y-139949190D01*
X175214714Y-139949190D01*
X176738523Y-140425380D02*
X176167095Y-140425380D01*
X176452809Y-140425380D02*
X176452809Y-139425380D01*
X176357571Y-139568238D01*
X176262333Y-139663476D01*
X176167095Y-139711095D01*
X177119476Y-139520619D02*
X177167095Y-139473000D01*
X177262333Y-139425380D01*
X177500428Y-139425380D01*
X177595666Y-139473000D01*
X177643285Y-139520619D01*
X177690904Y-139615857D01*
X177690904Y-139711095D01*
X177643285Y-139853952D01*
X177071857Y-140425380D01*
X177690904Y-140425380D01*
X173337333Y-95838780D02*
X173004000Y-95362590D01*
X172765904Y-95838780D02*
X172765904Y-94838780D01*
X173146857Y-94838780D01*
X173242095Y-94886400D01*
X173289714Y-94934019D01*
X173337333Y-95029257D01*
X173337333Y-95172114D01*
X173289714Y-95267352D01*
X173242095Y-95314971D01*
X173146857Y-95362590D01*
X172765904Y-95362590D01*
X173813523Y-95838780D02*
X174004000Y-95838780D01*
X174099238Y-95791161D01*
X174146857Y-95743542D01*
X174242095Y-95600685D01*
X174289714Y-95410209D01*
X174289714Y-95029257D01*
X174242095Y-94934019D01*
X174194476Y-94886400D01*
X174099238Y-94838780D01*
X173908761Y-94838780D01*
X173813523Y-94886400D01*
X173765904Y-94934019D01*
X173718285Y-95029257D01*
X173718285Y-95267352D01*
X173765904Y-95362590D01*
X173813523Y-95410209D01*
X173908761Y-95457828D01*
X174099238Y-95457828D01*
X174194476Y-95410209D01*
X174242095Y-95362590D01*
X174289714Y-95267352D01*
X119794133Y-116717580D02*
X119460800Y-116241390D01*
X119222704Y-116717580D02*
X119222704Y-115717580D01*
X119603657Y-115717580D01*
X119698895Y-115765200D01*
X119746514Y-115812819D01*
X119794133Y-115908057D01*
X119794133Y-116050914D01*
X119746514Y-116146152D01*
X119698895Y-116193771D01*
X119603657Y-116241390D01*
X119222704Y-116241390D01*
X120365561Y-116146152D02*
X120270323Y-116098533D01*
X120222704Y-116050914D01*
X120175085Y-115955676D01*
X120175085Y-115908057D01*
X120222704Y-115812819D01*
X120270323Y-115765200D01*
X120365561Y-115717580D01*
X120556038Y-115717580D01*
X120651276Y-115765200D01*
X120698895Y-115812819D01*
X120746514Y-115908057D01*
X120746514Y-115955676D01*
X120698895Y-116050914D01*
X120651276Y-116098533D01*
X120556038Y-116146152D01*
X120365561Y-116146152D01*
X120270323Y-116193771D01*
X120222704Y-116241390D01*
X120175085Y-116336628D01*
X120175085Y-116527104D01*
X120222704Y-116622342D01*
X120270323Y-116669961D01*
X120365561Y-116717580D01*
X120556038Y-116717580D01*
X120651276Y-116669961D01*
X120698895Y-116622342D01*
X120746514Y-116527104D01*
X120746514Y-116336628D01*
X120698895Y-116241390D01*
X120651276Y-116193771D01*
X120556038Y-116146152D01*
X170213133Y-95889580D02*
X169879800Y-95413390D01*
X169641704Y-95889580D02*
X169641704Y-94889580D01*
X170022657Y-94889580D01*
X170117895Y-94937200D01*
X170165514Y-94984819D01*
X170213133Y-95080057D01*
X170213133Y-95222914D01*
X170165514Y-95318152D01*
X170117895Y-95365771D01*
X170022657Y-95413390D01*
X169641704Y-95413390D01*
X171070276Y-95222914D02*
X171070276Y-95889580D01*
X170832180Y-94841961D02*
X170594085Y-95556247D01*
X171213133Y-95556247D01*
X176340473Y-130006600D02*
X176007140Y-129530410D01*
X175769044Y-130006600D02*
X175769044Y-129006600D01*
X176149997Y-129006600D01*
X176245235Y-129054220D01*
X176292854Y-129101839D01*
X176340473Y-129197077D01*
X176340473Y-129339934D01*
X176292854Y-129435172D01*
X176245235Y-129482791D01*
X176149997Y-129530410D01*
X175769044Y-129530410D01*
X176673806Y-129006600D02*
X177292854Y-129006600D01*
X176959520Y-129387553D01*
X177102378Y-129387553D01*
X177197616Y-129435172D01*
X177245235Y-129482791D01*
X177292854Y-129578029D01*
X177292854Y-129816124D01*
X177245235Y-129911362D01*
X177197616Y-129958981D01*
X177102378Y-130006600D01*
X176816663Y-130006600D01*
X176721425Y-129958981D01*
X176673806Y-129911362D01*
X180041253Y-129888240D02*
X179707920Y-129412050D01*
X179469824Y-129888240D02*
X179469824Y-128888240D01*
X179850777Y-128888240D01*
X179946015Y-128935860D01*
X179993634Y-128983479D01*
X180041253Y-129078717D01*
X180041253Y-129221574D01*
X179993634Y-129316812D01*
X179946015Y-129364431D01*
X179850777Y-129412050D01*
X179469824Y-129412050D01*
X180422205Y-128983479D02*
X180469824Y-128935860D01*
X180565062Y-128888240D01*
X180803158Y-128888240D01*
X180898396Y-128935860D01*
X180946015Y-128983479D01*
X180993634Y-129078717D01*
X180993634Y-129173955D01*
X180946015Y-129316812D01*
X180374586Y-129888240D01*
X180993634Y-129888240D01*
X179854361Y-138394019D02*
X179759123Y-138346400D01*
X179663885Y-138251161D01*
X179521028Y-138108304D01*
X179425790Y-138060685D01*
X179330552Y-138060685D01*
X179378171Y-138298780D02*
X179282933Y-138251161D01*
X179187695Y-138155923D01*
X179140076Y-137965447D01*
X179140076Y-137632114D01*
X179187695Y-137441638D01*
X179282933Y-137346400D01*
X179378171Y-137298780D01*
X179568647Y-137298780D01*
X179663885Y-137346400D01*
X179759123Y-137441638D01*
X179806742Y-137632114D01*
X179806742Y-137965447D01*
X179759123Y-138155923D01*
X179663885Y-138251161D01*
X179568647Y-138298780D01*
X179378171Y-138298780D01*
X180759123Y-138298780D02*
X180187695Y-138298780D01*
X180473409Y-138298780D02*
X180473409Y-137298780D01*
X180378171Y-137441638D01*
X180282933Y-137536876D01*
X180187695Y-137584495D01*
X124001233Y-102382580D02*
X123525042Y-102382580D01*
X123525042Y-101382580D01*
X124858376Y-102382580D02*
X124286947Y-102382580D01*
X124572661Y-102382580D02*
X124572661Y-101382580D01*
X124477423Y-101525438D01*
X124382185Y-101620676D01*
X124286947Y-101668295D01*
X149045666Y-128950380D02*
X149045666Y-129664666D01*
X148998047Y-129807523D01*
X148902809Y-129902761D01*
X148759952Y-129950380D01*
X148664714Y-129950380D01*
X149950428Y-128950380D02*
X149759952Y-128950380D01*
X149664714Y-128998000D01*
X149617095Y-129045619D01*
X149521857Y-129188476D01*
X149474238Y-129378952D01*
X149474238Y-129759904D01*
X149521857Y-129855142D01*
X149569476Y-129902761D01*
X149664714Y-129950380D01*
X149855190Y-129950380D01*
X149950428Y-129902761D01*
X149998047Y-129855142D01*
X150045666Y-129759904D01*
X150045666Y-129521809D01*
X149998047Y-129426571D01*
X149950428Y-129378952D01*
X149855190Y-129331333D01*
X149664714Y-129331333D01*
X149569476Y-129378952D01*
X149521857Y-129426571D01*
X149474238Y-129521809D01*
X135251866Y-128941580D02*
X135251866Y-129655866D01*
X135204247Y-129798723D01*
X135109009Y-129893961D01*
X134966152Y-129941580D01*
X134870914Y-129941580D01*
X136204247Y-128941580D02*
X135728057Y-128941580D01*
X135680438Y-129417771D01*
X135728057Y-129370152D01*
X135823295Y-129322533D01*
X136061390Y-129322533D01*
X136156628Y-129370152D01*
X136204247Y-129417771D01*
X136251866Y-129513009D01*
X136251866Y-129751104D01*
X136204247Y-129846342D01*
X136156628Y-129893961D01*
X136061390Y-129941580D01*
X135823295Y-129941580D01*
X135728057Y-129893961D01*
X135680438Y-129846342D01*
X133845666Y-109970320D02*
X133845666Y-110684606D01*
X133798047Y-110827463D01*
X133702809Y-110922701D01*
X133559952Y-110970320D01*
X133464714Y-110970320D01*
X134226619Y-109970320D02*
X134845666Y-109970320D01*
X134512333Y-110351273D01*
X134655190Y-110351273D01*
X134750428Y-110398892D01*
X134798047Y-110446511D01*
X134845666Y-110541749D01*
X134845666Y-110779844D01*
X134798047Y-110875082D01*
X134750428Y-110922701D01*
X134655190Y-110970320D01*
X134369476Y-110970320D01*
X134274238Y-110922701D01*
X134226619Y-110875082D01*
X150695066Y-103617780D02*
X150695066Y-104332066D01*
X150647447Y-104474923D01*
X150552209Y-104570161D01*
X150409352Y-104617780D01*
X150314114Y-104617780D01*
X151123638Y-103713019D02*
X151171257Y-103665400D01*
X151266495Y-103617780D01*
X151504590Y-103617780D01*
X151599828Y-103665400D01*
X151647447Y-103713019D01*
X151695066Y-103808257D01*
X151695066Y-103903495D01*
X151647447Y-104046352D01*
X151076019Y-104617780D01*
X151695066Y-104617780D01*
X165915904Y-107750380D02*
X165915904Y-106750380D01*
X166154000Y-106750380D01*
X166296857Y-106798000D01*
X166392095Y-106893238D01*
X166439714Y-106988476D01*
X166487333Y-107178952D01*
X166487333Y-107321809D01*
X166439714Y-107512285D01*
X166392095Y-107607523D01*
X166296857Y-107702761D01*
X166154000Y-107750380D01*
X165915904Y-107750380D01*
X167392095Y-106750380D02*
X166915904Y-106750380D01*
X166868285Y-107226571D01*
X166915904Y-107178952D01*
X167011142Y-107131333D01*
X167249238Y-107131333D01*
X167344476Y-107178952D01*
X167392095Y-107226571D01*
X167439714Y-107321809D01*
X167439714Y-107559904D01*
X167392095Y-107655142D01*
X167344476Y-107702761D01*
X167249238Y-107750380D01*
X167011142Y-107750380D01*
X166915904Y-107702761D01*
X166868285Y-107655142D01*
X172890904Y-107775380D02*
X172890904Y-106775380D01*
X173129000Y-106775380D01*
X173271857Y-106823000D01*
X173367095Y-106918238D01*
X173414714Y-107013476D01*
X173462333Y-107203952D01*
X173462333Y-107346809D01*
X173414714Y-107537285D01*
X173367095Y-107632523D01*
X173271857Y-107727761D01*
X173129000Y-107775380D01*
X172890904Y-107775380D01*
X173795666Y-106775380D02*
X174414714Y-106775380D01*
X174081380Y-107156333D01*
X174224238Y-107156333D01*
X174319476Y-107203952D01*
X174367095Y-107251571D01*
X174414714Y-107346809D01*
X174414714Y-107584904D01*
X174367095Y-107680142D01*
X174319476Y-107727761D01*
X174224238Y-107775380D01*
X173938523Y-107775380D01*
X173843285Y-107727761D01*
X173795666Y-107680142D01*
X169715904Y-107775380D02*
X169715904Y-106775380D01*
X169954000Y-106775380D01*
X170096857Y-106823000D01*
X170192095Y-106918238D01*
X170239714Y-107013476D01*
X170287333Y-107203952D01*
X170287333Y-107346809D01*
X170239714Y-107537285D01*
X170192095Y-107632523D01*
X170096857Y-107727761D01*
X169954000Y-107775380D01*
X169715904Y-107775380D01*
X171144476Y-107108714D02*
X171144476Y-107775380D01*
X170906380Y-106727761D02*
X170668285Y-107442047D01*
X171287333Y-107442047D01*
X126198404Y-112771180D02*
X126198404Y-111771180D01*
X126436500Y-111771180D01*
X126579357Y-111818800D01*
X126674595Y-111914038D01*
X126722214Y-112009276D01*
X126769833Y-112199752D01*
X126769833Y-112342609D01*
X126722214Y-112533085D01*
X126674595Y-112628323D01*
X126579357Y-112723561D01*
X126436500Y-112771180D01*
X126198404Y-112771180D01*
X127722214Y-112771180D02*
X127150785Y-112771180D01*
X127436500Y-112771180D02*
X127436500Y-111771180D01*
X127341261Y-111914038D01*
X127246023Y-112009276D01*
X127150785Y-112056895D01*
X171040822Y-87914662D02*
X170993203Y-87962281D01*
X170850346Y-88009900D01*
X170755108Y-88009900D01*
X170612251Y-87962281D01*
X170517013Y-87867043D01*
X170469394Y-87771805D01*
X170421775Y-87581329D01*
X170421775Y-87438472D01*
X170469394Y-87247996D01*
X170517013Y-87152758D01*
X170612251Y-87057520D01*
X170755108Y-87009900D01*
X170850346Y-87009900D01*
X170993203Y-87057520D01*
X171040822Y-87105139D01*
X171421775Y-87105139D02*
X171469394Y-87057520D01*
X171564632Y-87009900D01*
X171802727Y-87009900D01*
X171897965Y-87057520D01*
X171945584Y-87105139D01*
X171993203Y-87200377D01*
X171993203Y-87295615D01*
X171945584Y-87438472D01*
X171374156Y-88009900D01*
X171993203Y-88009900D01*
X172564632Y-87438472D02*
X172469394Y-87390853D01*
X172421775Y-87343234D01*
X172374156Y-87247996D01*
X172374156Y-87200377D01*
X172421775Y-87105139D01*
X172469394Y-87057520D01*
X172564632Y-87009900D01*
X172755108Y-87009900D01*
X172850346Y-87057520D01*
X172897965Y-87105139D01*
X172945584Y-87200377D01*
X172945584Y-87247996D01*
X172897965Y-87343234D01*
X172850346Y-87390853D01*
X172755108Y-87438472D01*
X172564632Y-87438472D01*
X172469394Y-87486091D01*
X172421775Y-87533710D01*
X172374156Y-87628948D01*
X172374156Y-87819424D01*
X172421775Y-87914662D01*
X172469394Y-87962281D01*
X172564632Y-88009900D01*
X172755108Y-88009900D01*
X172850346Y-87962281D01*
X172897965Y-87914662D01*
X172945584Y-87819424D01*
X172945584Y-87628948D01*
X172897965Y-87533710D01*
X172850346Y-87486091D01*
X172755108Y-87438472D01*
X162897582Y-85089002D02*
X162849963Y-85136621D01*
X162707106Y-85184240D01*
X162611868Y-85184240D01*
X162469011Y-85136621D01*
X162373773Y-85041383D01*
X162326154Y-84946145D01*
X162278535Y-84755669D01*
X162278535Y-84612812D01*
X162326154Y-84422336D01*
X162373773Y-84327098D01*
X162469011Y-84231860D01*
X162611868Y-84184240D01*
X162707106Y-84184240D01*
X162849963Y-84231860D01*
X162897582Y-84279479D01*
X163278535Y-84279479D02*
X163326154Y-84231860D01*
X163421392Y-84184240D01*
X163659487Y-84184240D01*
X163754725Y-84231860D01*
X163802344Y-84279479D01*
X163849963Y-84374717D01*
X163849963Y-84469955D01*
X163802344Y-84612812D01*
X163230916Y-85184240D01*
X163849963Y-85184240D01*
X164183297Y-84184240D02*
X164849963Y-84184240D01*
X164421392Y-85184240D01*
X111811142Y-108305142D02*
X111763523Y-108352761D01*
X111620666Y-108400380D01*
X111525428Y-108400380D01*
X111382571Y-108352761D01*
X111287333Y-108257523D01*
X111239714Y-108162285D01*
X111192095Y-107971809D01*
X111192095Y-107828952D01*
X111239714Y-107638476D01*
X111287333Y-107543238D01*
X111382571Y-107448000D01*
X111525428Y-107400380D01*
X111620666Y-107400380D01*
X111763523Y-107448000D01*
X111811142Y-107495619D01*
X112192095Y-107495619D02*
X112239714Y-107448000D01*
X112334952Y-107400380D01*
X112573047Y-107400380D01*
X112668285Y-107448000D01*
X112715904Y-107495619D01*
X112763523Y-107590857D01*
X112763523Y-107686095D01*
X112715904Y-107828952D01*
X112144476Y-108400380D01*
X112763523Y-108400380D01*
X113620666Y-107733714D02*
X113620666Y-108400380D01*
X113382571Y-107352761D02*
X113144476Y-108067047D01*
X113763523Y-108067047D01*
X116423202Y-103435422D02*
X116375583Y-103483041D01*
X116232726Y-103530660D01*
X116137488Y-103530660D01*
X115994631Y-103483041D01*
X115899393Y-103387803D01*
X115851774Y-103292565D01*
X115804155Y-103102089D01*
X115804155Y-102959232D01*
X115851774Y-102768756D01*
X115899393Y-102673518D01*
X115994631Y-102578280D01*
X116137488Y-102530660D01*
X116232726Y-102530660D01*
X116375583Y-102578280D01*
X116423202Y-102625899D01*
X116804155Y-102625899D02*
X116851774Y-102578280D01*
X116947012Y-102530660D01*
X117185107Y-102530660D01*
X117280345Y-102578280D01*
X117327964Y-102625899D01*
X117375583Y-102721137D01*
X117375583Y-102816375D01*
X117327964Y-102959232D01*
X116756536Y-103530660D01*
X117375583Y-103530660D01*
X117708917Y-102530660D02*
X118327964Y-102530660D01*
X117994631Y-102911613D01*
X118137488Y-102911613D01*
X118232726Y-102959232D01*
X118280345Y-103006851D01*
X118327964Y-103102089D01*
X118327964Y-103340184D01*
X118280345Y-103435422D01*
X118232726Y-103483041D01*
X118137488Y-103530660D01*
X117851774Y-103530660D01*
X117756536Y-103483041D01*
X117708917Y-103435422D01*
X112917142Y-146198862D02*
X112869523Y-146246481D01*
X112726666Y-146294100D01*
X112631428Y-146294100D01*
X112488571Y-146246481D01*
X112393333Y-146151243D01*
X112345714Y-146056005D01*
X112298095Y-145865529D01*
X112298095Y-145722672D01*
X112345714Y-145532196D01*
X112393333Y-145436958D01*
X112488571Y-145341720D01*
X112631428Y-145294100D01*
X112726666Y-145294100D01*
X112869523Y-145341720D01*
X112917142Y-145389339D01*
X113298095Y-145389339D02*
X113345714Y-145341720D01*
X113440952Y-145294100D01*
X113679047Y-145294100D01*
X113774285Y-145341720D01*
X113821904Y-145389339D01*
X113869523Y-145484577D01*
X113869523Y-145579815D01*
X113821904Y-145722672D01*
X113250476Y-146294100D01*
X113869523Y-146294100D01*
X114821904Y-146294100D02*
X114250476Y-146294100D01*
X114536190Y-146294100D02*
X114536190Y-145294100D01*
X114440952Y-145436958D01*
X114345714Y-145532196D01*
X114250476Y-145579815D01*
X161786142Y-132380142D02*
X161738523Y-132427761D01*
X161595666Y-132475380D01*
X161500428Y-132475380D01*
X161357571Y-132427761D01*
X161262333Y-132332523D01*
X161214714Y-132237285D01*
X161167095Y-132046809D01*
X161167095Y-131903952D01*
X161214714Y-131713476D01*
X161262333Y-131618238D01*
X161357571Y-131523000D01*
X161500428Y-131475380D01*
X161595666Y-131475380D01*
X161738523Y-131523000D01*
X161786142Y-131570619D01*
X162167095Y-131570619D02*
X162214714Y-131523000D01*
X162309952Y-131475380D01*
X162548047Y-131475380D01*
X162643285Y-131523000D01*
X162690904Y-131570619D01*
X162738523Y-131665857D01*
X162738523Y-131761095D01*
X162690904Y-131903952D01*
X162119476Y-132475380D01*
X162738523Y-132475380D01*
X163357571Y-131475380D02*
X163452809Y-131475380D01*
X163548047Y-131523000D01*
X163595666Y-131570619D01*
X163643285Y-131665857D01*
X163690904Y-131856333D01*
X163690904Y-132094428D01*
X163643285Y-132284904D01*
X163595666Y-132380142D01*
X163548047Y-132427761D01*
X163452809Y-132475380D01*
X163357571Y-132475380D01*
X163262333Y-132427761D01*
X163214714Y-132380142D01*
X163167095Y-132284904D01*
X163119476Y-132094428D01*
X163119476Y-131856333D01*
X163167095Y-131665857D01*
X163214714Y-131570619D01*
X163262333Y-131523000D01*
X163357571Y-131475380D01*
M02*
