M48
; DRILL file {KiCad (5.1.9)-1} date 07/13/21 21:35:06
; FORMAT={-:-/ absolute / inch / decimal}
; #@! TF.CreationDate,2021-07-13T21:35:06-04:00
; #@! TF.GenerationSoftware,Kicad,Pcbnew,(5.1.9)-1
; #@! TF.FileFunction,Plated,1,4,PTH
FMAT,2
INCH
T1C0.0150
T2C0.0157
T3C0.0268
T4C0.0295
T5C0.0315
T6C0.0394
T7C0.1378
%
G90
G05
T1
X4.3236Y-4.2894
X4.35Y-3.816
X4.3552Y-5.4513
X4.3798Y-4.2894
X4.41Y-5.5812
X4.4528Y-4.3398
X4.4528Y-4.386
X4.4832Y-5.4258
X4.5203Y-4.7654
X4.724Y-4.7683
X4.831Y-4.525
X4.8422Y-3.058
X4.8888Y-3.0585
X4.9262Y-5.4253
X4.978Y-3.864
X4.979Y-4.132
X4.98Y-4.172
X5.0Y-4.717
X5.1047Y-3.7129
X5.12Y-3.18
X5.152Y-3.598
X5.222Y-3.866
X5.223Y-3.639
X5.249Y-3.435
X5.271Y-2.751
X5.449Y-2.714
X5.498Y-2.781
X5.5584Y-5.2511
X5.6853Y-2.8169
X5.7494Y-2.9519
X5.75Y-3.4616
X5.7502Y-2.909
X5.7865Y-2.9517
X5.7865Y-2.9978
X5.8224Y-5.239
X5.9477Y-5.3201
X5.9557Y-3.7135
X6.0212Y-4.397
X6.2709Y-4.6504
X6.3134Y-4.6507
X6.3529Y-4.6501
X6.4287Y-3.719
X6.4508Y-5.5658
X6.5475Y-4.5409
X6.548Y-3.167
X6.5948Y-3.0487
X6.5954Y-2.8281
X6.6296Y-3.255
X6.6692Y-2.8974
X6.7147Y-3.6003
X6.7596Y-2.8974
X6.7628Y-5.2176
X6.8016Y-3.9961
X6.8065Y-3.8112
X6.8636Y-3.6566
X6.8925Y-5.2708
X6.9489Y-3.0499
X6.9709Y-4.2894
X7.0109Y-4.2894
X7.0428Y-4.1511
X7.1316Y-4.8801
T2
X4.434Y-3.248
X4.434Y-3.358
X4.434Y-3.478
X4.434Y-3.598
X4.4699Y-5.5195
X4.477Y-2.85
X4.477Y-2.895
X4.477Y-2.94
X4.477Y-2.985
X4.477Y-3.03
X4.477Y-3.075
X4.5189Y-3.4176
X4.5189Y-3.536
X4.5189Y-3.6503
X4.5198Y-3.3029
X4.5223Y-4.1412
X4.537Y-2.85
X4.537Y-2.895
X4.537Y-2.94
X4.537Y-2.985
X4.537Y-3.03
X4.537Y-3.075
X4.6Y-2.849
X4.6Y-2.894
X4.6Y-2.939
X4.6Y-2.984
X4.6Y-3.029
X4.6Y-3.074
X4.614Y-3.248
X4.614Y-3.358
X4.614Y-3.478
X4.614Y-3.598
X4.6287Y-4.413
X4.6299Y-4.3502
X4.661Y-2.849
X4.661Y-2.894
X4.661Y-3.029
X4.661Y-3.074
X4.7123Y-3.4173
X4.7128Y-3.536
X4.7133Y-3.3029
X4.7133Y-3.6492
X4.715Y-4.1639
X4.72Y-2.848
X4.72Y-2.893
X4.72Y-3.028
X4.72Y-3.073
X4.779Y-2.848
X4.779Y-2.893
X4.779Y-2.938
X4.779Y-2.983
X4.779Y-3.028
X4.779Y-3.073
X4.782Y-4.4124
X4.7831Y-4.3529
X4.794Y-3.248
X4.794Y-3.358
X4.794Y-3.478
X4.794Y-3.598
X4.8197Y-4.3529
X4.8198Y-4.4119
X4.858Y-4.3524
X4.858Y-4.4124
X4.9793Y-4.088
X5.0Y-4.669
X5.0Y-4.763
X5.118Y-3.448
X5.4462Y-3.7513
X5.5794Y-3.428
X5.6236Y-5.2509
X5.666Y-3.324
X5.748Y-2.9978
X5.75Y-3.3244
X5.8237Y-5.6351
X5.9576Y-5.5456
X5.9576Y-5.5918
X5.959Y-5.47
X5.962Y-5.421
X6.0423Y-3.9955
X6.045Y-5.135
X6.1244Y-4.0712
X6.139Y-4.369
X6.225Y-5.86
X6.239Y-5.09
X6.2399Y-2.8064
X6.248Y-4.37
X6.2902Y-2.8058
X6.34Y-2.8055
X6.3736Y-5.1602
X6.378Y-5.233
X6.39Y-2.8052
X6.394Y-3.864
X6.405Y-5.859
X6.4794Y-5.227
X6.533Y-3.931
X6.5877Y-3.7449
X6.6172Y-4.5841
X6.6982Y-4.5194
X6.6996Y-4.672
X6.7288Y-3.7451
X6.7472Y-4.5186
X6.7617Y-5.7383
X6.7628Y-5.5998
X6.8181Y-3.656
X6.9451Y-4.7612
X6.9637Y-4.1495
X6.981Y-3.522
X6.987Y-3.33
X7.062Y-3.326
X7.118Y-4.736
X7.1858Y-5.431
T3
X5.4166Y-4.7398
X5.4166Y-4.8185
X5.4166Y-4.8973
X5.4954Y-4.7398
X5.4954Y-4.8185
X5.4954Y-4.8973
X5.5053Y-4.1406
X5.5053Y-4.2194
X5.584Y-4.1406
X5.584Y-4.2194
X5.6627Y-4.1406
X5.6627Y-4.2194
X5.7216Y-4.7378
X5.7216Y-4.8165
X5.7216Y-4.8953
X5.8004Y-4.7378
X5.8004Y-4.8165
X5.8004Y-4.8953
T4
X4.3505Y-4.4058
X4.3505Y-4.4845
X4.3552Y-5.0607
X4.3552Y-5.1394
X4.3552Y-5.3726
X4.3552Y-5.4513
X4.3569Y-4.7461
X4.3569Y-4.8248
T5
X4.1203Y-3.7255
X4.1203Y-3.8043
X4.1203Y-3.883
X4.199Y-3.7255
X4.199Y-3.8043
X4.199Y-3.883
X6.0979Y-3.518
X6.29Y-3.518
X6.4059Y-4.784
X6.598Y-4.784
X7.0659Y-4.3294
X7.0659Y-4.4081
X7.0659Y-4.4869
X7.1446Y-4.3294
X7.1446Y-4.4081
X7.1446Y-4.4869
T6
X5.427Y-4.417
X5.527Y-4.417
X5.627Y-4.417
X5.727Y-4.417
X5.827Y-4.417
T7
X4.1675Y-2.8275
X4.1675Y-3.3267
X4.1675Y-5.7409
X5.0982Y-5.2417
X6.0809Y-4.9094
X7.0809Y-2.8275
X7.0809Y-3.6594
X7.0809Y-5.7409
T0
M30
