G04 #@! TF.GenerationSoftware,KiCad,Pcbnew,(5.1.9)-1*
G04 #@! TF.CreationDate,2021-07-04T21:49:17-04:00*
G04 #@! TF.ProjectId,payload2020_base_board,7061796c-6f61-4643-9230-32305f626173,rev?*
G04 #@! TF.SameCoordinates,Original*
G04 #@! TF.FileFunction,Soldermask,Top*
G04 #@! TF.FilePolarity,Negative*
%FSLAX46Y46*%
G04 Gerber Fmt 4.6, Leading zero omitted, Abs format (unit mm)*
G04 Created by KiCad (PCBNEW (5.1.9)-1) date 2021-07-04 21:49:17*
%MOMM*%
%LPD*%
G01*
G04 APERTURE LIST*
%ADD10C,0.100000*%
%ADD11C,7.102000*%
%ADD12O,1.802000X1.802000*%
%ADD13C,1.602000*%
%ADD14O,1.852000X1.302000*%
%ADD15C,2.302000*%
%ADD16C,1.302000*%
G04 APERTURE END LIST*
D10*
G36*
X54450620Y-111421000D02*
G01*
X54550620Y-111421000D01*
X54550620Y-111771000D01*
X54450620Y-111771000D01*
X54450620Y-111421000D01*
G37*
X54450620Y-111421000D02*
X54550620Y-111421000D01*
X54550620Y-111771000D01*
X54450620Y-111771000D01*
X54450620Y-111421000D01*
G36*
X54450620Y-110321000D02*
G01*
X54550620Y-110321000D01*
X54550620Y-109971000D01*
X54450620Y-109971000D01*
X54450620Y-110321000D01*
G37*
X54450620Y-110321000D02*
X54550620Y-110321000D01*
X54550620Y-109971000D01*
X54450620Y-109971000D01*
X54450620Y-110321000D01*
G36*
X51990620Y-110321000D02*
G01*
X51890620Y-110321000D01*
X51890620Y-109971000D01*
X51990620Y-109971000D01*
X51990620Y-110321000D01*
G37*
X51990620Y-110321000D02*
X51890620Y-110321000D01*
X51890620Y-109971000D01*
X51990620Y-109971000D01*
X51990620Y-110321000D01*
G36*
X51990620Y-111421000D02*
G01*
X51890620Y-111421000D01*
X51890620Y-111771000D01*
X51990620Y-111771000D01*
X51990620Y-111421000D01*
G37*
X51990620Y-111421000D02*
X51890620Y-111421000D01*
X51890620Y-111771000D01*
X51990620Y-111771000D01*
X51990620Y-111421000D01*
G36*
X54450620Y-111421000D02*
G01*
X54550620Y-111421000D01*
X54550620Y-111771000D01*
X54450620Y-111771000D01*
X54450620Y-111421000D01*
G37*
X54450620Y-111421000D02*
X54550620Y-111421000D01*
X54550620Y-111771000D01*
X54450620Y-111771000D01*
X54450620Y-111421000D01*
G36*
X54450620Y-110321000D02*
G01*
X54550620Y-110321000D01*
X54550620Y-109971000D01*
X54450620Y-109971000D01*
X54450620Y-110321000D01*
G37*
X54450620Y-110321000D02*
X54550620Y-110321000D01*
X54550620Y-109971000D01*
X54450620Y-109971000D01*
X54450620Y-110321000D01*
G36*
X51990620Y-110321000D02*
G01*
X51890620Y-110321000D01*
X51890620Y-109971000D01*
X51990620Y-109971000D01*
X51990620Y-110321000D01*
G37*
X51990620Y-110321000D02*
X51890620Y-110321000D01*
X51890620Y-109971000D01*
X51990620Y-109971000D01*
X51990620Y-110321000D01*
G36*
X51990620Y-111421000D02*
G01*
X51890620Y-111421000D01*
X51890620Y-111771000D01*
X51990620Y-111771000D01*
X51990620Y-111421000D01*
G37*
X51990620Y-111421000D02*
X51890620Y-111421000D01*
X51890620Y-111771000D01*
X51990620Y-111771000D01*
X51990620Y-111421000D01*
G36*
G01*
X60913243Y-109205400D02*
X62276757Y-109205400D01*
G75*
G02*
X62546000Y-109474643I0J-269243D01*
G01*
X62546000Y-110363157D01*
G75*
G02*
X62276757Y-110632400I-269243J0D01*
G01*
X60913243Y-110632400D01*
G75*
G02*
X60644000Y-110363157I0J269243D01*
G01*
X60644000Y-109474643D01*
G75*
G02*
X60913243Y-109205400I269243J0D01*
G01*
G37*
G36*
G01*
X60913243Y-106080400D02*
X62276757Y-106080400D01*
G75*
G02*
X62546000Y-106349643I0J-269243D01*
G01*
X62546000Y-107238157D01*
G75*
G02*
X62276757Y-107507400I-269243J0D01*
G01*
X60913243Y-107507400D01*
G75*
G02*
X60644000Y-107238157I0J269243D01*
G01*
X60644000Y-106349643D01*
G75*
G02*
X60913243Y-106080400I269243J0D01*
G01*
G37*
G36*
G01*
X56847500Y-118647443D02*
X56847500Y-120010957D01*
G75*
G02*
X56578257Y-120280200I-269243J0D01*
G01*
X55689743Y-120280200D01*
G75*
G02*
X55420500Y-120010957I0J269243D01*
G01*
X55420500Y-118647443D01*
G75*
G02*
X55689743Y-118378200I269243J0D01*
G01*
X56578257Y-118378200D01*
G75*
G02*
X56847500Y-118647443I0J-269243D01*
G01*
G37*
G36*
G01*
X59972500Y-118647443D02*
X59972500Y-120010957D01*
G75*
G02*
X59703257Y-120280200I-269243J0D01*
G01*
X58814743Y-120280200D01*
G75*
G02*
X58545500Y-120010957I0J269243D01*
G01*
X58545500Y-118647443D01*
G75*
G02*
X58814743Y-118378200I269243J0D01*
G01*
X59703257Y-118378200D01*
G75*
G02*
X59972500Y-118647443I0J-269243D01*
G01*
G37*
G36*
G01*
X56949100Y-115980443D02*
X56949100Y-117343957D01*
G75*
G02*
X56679857Y-117613200I-269243J0D01*
G01*
X55791343Y-117613200D01*
G75*
G02*
X55522100Y-117343957I0J269243D01*
G01*
X55522100Y-115980443D01*
G75*
G02*
X55791343Y-115711200I269243J0D01*
G01*
X56679857Y-115711200D01*
G75*
G02*
X56949100Y-115980443I0J-269243D01*
G01*
G37*
G36*
G01*
X60074100Y-115980443D02*
X60074100Y-117343957D01*
G75*
G02*
X59804857Y-117613200I-269243J0D01*
G01*
X58916343Y-117613200D01*
G75*
G02*
X58647100Y-117343957I0J269243D01*
G01*
X58647100Y-115980443D01*
G75*
G02*
X58916343Y-115711200I269243J0D01*
G01*
X59804857Y-115711200D01*
G75*
G02*
X60074100Y-115980443I0J-269243D01*
G01*
G37*
G36*
G01*
X69916680Y-90874646D02*
X69916680Y-89561874D01*
G75*
G02*
X70186294Y-89292260I269614J0D01*
G01*
X71049066Y-89292260D01*
G75*
G02*
X71318680Y-89561874I0J-269614D01*
G01*
X71318680Y-90874646D01*
G75*
G02*
X71049066Y-91144260I-269614J0D01*
G01*
X70186294Y-91144260D01*
G75*
G02*
X69916680Y-90874646I0J269614D01*
G01*
G37*
G36*
G01*
X66816680Y-90874646D02*
X66816680Y-89561874D01*
G75*
G02*
X67086294Y-89292260I269614J0D01*
G01*
X67949066Y-89292260D01*
G75*
G02*
X68218680Y-89561874I0J-269614D01*
G01*
X68218680Y-90874646D01*
G75*
G02*
X67949066Y-91144260I-269614J0D01*
G01*
X67086294Y-91144260D01*
G75*
G02*
X66816680Y-90874646I0J269614D01*
G01*
G37*
G36*
G01*
X51986820Y-137968786D02*
X51986820Y-136656014D01*
G75*
G02*
X52256434Y-136386400I269614J0D01*
G01*
X53119206Y-136386400D01*
G75*
G02*
X53388820Y-136656014I0J-269614D01*
G01*
X53388820Y-137968786D01*
G75*
G02*
X53119206Y-138238400I-269614J0D01*
G01*
X52256434Y-138238400D01*
G75*
G02*
X51986820Y-137968786I0J269614D01*
G01*
G37*
G36*
G01*
X48886820Y-137968786D02*
X48886820Y-136656014D01*
G75*
G02*
X49156434Y-136386400I269614J0D01*
G01*
X50019206Y-136386400D01*
G75*
G02*
X50288820Y-136656014I0J-269614D01*
G01*
X50288820Y-137968786D01*
G75*
G02*
X50019206Y-138238400I-269614J0D01*
G01*
X49156434Y-138238400D01*
G75*
G02*
X48886820Y-137968786I0J269614D01*
G01*
G37*
D11*
X113560000Y-145310000D03*
X113560000Y-71310000D03*
X113560000Y-92440000D03*
X39560000Y-71310000D03*
X63200000Y-132630000D03*
G36*
G01*
X107914748Y-95647000D02*
X108874252Y-95647000D01*
G75*
G02*
X109145500Y-95918248I0J-271248D01*
G01*
X109145500Y-96677752D01*
G75*
G02*
X108874252Y-96949000I-271248J0D01*
G01*
X107914748Y-96949000D01*
G75*
G02*
X107643500Y-96677752I0J271248D01*
G01*
X107643500Y-95918248D01*
G75*
G02*
X107914748Y-95647000I271248J0D01*
G01*
G37*
G36*
G01*
X107914748Y-97647000D02*
X108874252Y-97647000D01*
G75*
G02*
X109145500Y-97918248I0J-271248D01*
G01*
X109145500Y-98677752D01*
G75*
G02*
X108874252Y-98949000I-271248J0D01*
G01*
X107914748Y-98949000D01*
G75*
G02*
X107643500Y-98677752I0J271248D01*
G01*
X107643500Y-97918248D01*
G75*
G02*
X107914748Y-97647000I271248J0D01*
G01*
G37*
G36*
G01*
X94948000Y-137297000D02*
X96448000Y-137297000D01*
G75*
G02*
X96499000Y-137348000I0J-51000D01*
G01*
X96499000Y-138148000D01*
G75*
G02*
X96448000Y-138199000I-51000J0D01*
G01*
X94948000Y-138199000D01*
G75*
G02*
X94897000Y-138148000I0J51000D01*
G01*
X94897000Y-137348000D01*
G75*
G02*
X94948000Y-137297000I51000J0D01*
G01*
G37*
G36*
G01*
X94948000Y-138397000D02*
X96448000Y-138397000D01*
G75*
G02*
X96499000Y-138448000I0J-51000D01*
G01*
X96499000Y-139248000D01*
G75*
G02*
X96448000Y-139299000I-51000J0D01*
G01*
X94948000Y-139299000D01*
G75*
G02*
X94897000Y-139248000I0J51000D01*
G01*
X94897000Y-138448000D01*
G75*
G02*
X94948000Y-138397000I51000J0D01*
G01*
G37*
G36*
G01*
X94948000Y-139507000D02*
X96448000Y-139507000D01*
G75*
G02*
X96499000Y-139558000I0J-51000D01*
G01*
X96499000Y-140358000D01*
G75*
G02*
X96448000Y-140409000I-51000J0D01*
G01*
X94948000Y-140409000D01*
G75*
G02*
X94897000Y-140358000I0J51000D01*
G01*
X94897000Y-139558000D01*
G75*
G02*
X94948000Y-139507000I51000J0D01*
G01*
G37*
G36*
G01*
X94948000Y-140597000D02*
X96448000Y-140597000D01*
G75*
G02*
X96499000Y-140648000I0J-51000D01*
G01*
X96499000Y-141448000D01*
G75*
G02*
X96448000Y-141499000I-51000J0D01*
G01*
X94948000Y-141499000D01*
G75*
G02*
X94897000Y-141448000I0J51000D01*
G01*
X94897000Y-140648000D01*
G75*
G02*
X94948000Y-140597000I51000J0D01*
G01*
G37*
G36*
G01*
X94938000Y-141697000D02*
X96438000Y-141697000D01*
G75*
G02*
X96489000Y-141748000I0J-51000D01*
G01*
X96489000Y-142548000D01*
G75*
G02*
X96438000Y-142599000I-51000J0D01*
G01*
X94938000Y-142599000D01*
G75*
G02*
X94887000Y-142548000I0J51000D01*
G01*
X94887000Y-141748000D01*
G75*
G02*
X94938000Y-141697000I51000J0D01*
G01*
G37*
G36*
G01*
X94948000Y-142797000D02*
X96448000Y-142797000D01*
G75*
G02*
X96499000Y-142848000I0J-51000D01*
G01*
X96499000Y-143648000D01*
G75*
G02*
X96448000Y-143699000I-51000J0D01*
G01*
X94948000Y-143699000D01*
G75*
G02*
X94897000Y-143648000I0J51000D01*
G01*
X94897000Y-142848000D01*
G75*
G02*
X94948000Y-142797000I51000J0D01*
G01*
G37*
G36*
G01*
X94948000Y-143897000D02*
X96448000Y-143897000D01*
G75*
G02*
X96499000Y-143948000I0J-51000D01*
G01*
X96499000Y-144748000D01*
G75*
G02*
X96448000Y-144799000I-51000J0D01*
G01*
X94948000Y-144799000D01*
G75*
G02*
X94897000Y-144748000I0J51000D01*
G01*
X94897000Y-143948000D01*
G75*
G02*
X94948000Y-143897000I51000J0D01*
G01*
G37*
G36*
G01*
X94948000Y-144997000D02*
X96448000Y-144997000D01*
G75*
G02*
X96499000Y-145048000I0J-51000D01*
G01*
X96499000Y-145848000D01*
G75*
G02*
X96448000Y-145899000I-51000J0D01*
G01*
X94948000Y-145899000D01*
G75*
G02*
X94897000Y-145848000I0J51000D01*
G01*
X94897000Y-145048000D01*
G75*
G02*
X94948000Y-144997000I51000J0D01*
G01*
G37*
G36*
G01*
X88998000Y-147052000D02*
X90998000Y-147052000D01*
G75*
G02*
X91049000Y-147103000I0J-51000D01*
G01*
X91049000Y-148553000D01*
G75*
G02*
X90998000Y-148604000I-51000J0D01*
G01*
X88998000Y-148604000D01*
G75*
G02*
X88947000Y-148553000I0J51000D01*
G01*
X88947000Y-147103000D01*
G75*
G02*
X88998000Y-147052000I51000J0D01*
G01*
G37*
G36*
G01*
X88998000Y-133302000D02*
X90998000Y-133302000D01*
G75*
G02*
X91049000Y-133353000I0J-51000D01*
G01*
X91049000Y-134803000D01*
G75*
G02*
X90998000Y-134854000I-51000J0D01*
G01*
X88998000Y-134854000D01*
G75*
G02*
X88947000Y-134803000I0J51000D01*
G01*
X88947000Y-133353000D01*
G75*
G02*
X88998000Y-133302000I51000J0D01*
G01*
G37*
G36*
G01*
X97298000Y-133302000D02*
X99298000Y-133302000D01*
G75*
G02*
X99349000Y-133353000I0J-51000D01*
G01*
X99349000Y-134803000D01*
G75*
G02*
X99298000Y-134854000I-51000J0D01*
G01*
X97298000Y-134854000D01*
G75*
G02*
X97247000Y-134803000I0J51000D01*
G01*
X97247000Y-133353000D01*
G75*
G02*
X97298000Y-133302000I51000J0D01*
G01*
G37*
G36*
G01*
X97298000Y-147052000D02*
X99298000Y-147052000D01*
G75*
G02*
X99349000Y-147103000I0J-51000D01*
G01*
X99349000Y-148553000D01*
G75*
G02*
X99298000Y-148604000I-51000J0D01*
G01*
X97298000Y-148604000D01*
G75*
G02*
X97247000Y-148553000I0J51000D01*
G01*
X97247000Y-147103000D01*
G75*
G02*
X97298000Y-147052000I51000J0D01*
G01*
G37*
X88160000Y-124190000D03*
X39560000Y-145310000D03*
X39560000Y-83990000D03*
G36*
G01*
X113269000Y-109805000D02*
X113269000Y-108105000D01*
G75*
G02*
X113320000Y-108054000I51000J0D01*
G01*
X115020000Y-108054000D01*
G75*
G02*
X115071000Y-108105000I0J-51000D01*
G01*
X115071000Y-109805000D01*
G75*
G02*
X115020000Y-109856000I-51000J0D01*
G01*
X113320000Y-109856000D01*
G75*
G02*
X113269000Y-109805000I0J51000D01*
G01*
G37*
D12*
X111630000Y-108955000D03*
X114170000Y-111495000D03*
X111630000Y-111495000D03*
X114170000Y-114035000D03*
X111630000Y-114035000D03*
G36*
G01*
X72675440Y-69655582D02*
X72675440Y-70664178D01*
G75*
G02*
X72403738Y-70935880I-271702J0D01*
G01*
X71670142Y-70935880D01*
G75*
G02*
X71398440Y-70664178I0J271702D01*
G01*
X71398440Y-69655582D01*
G75*
G02*
X71670142Y-69383880I271702J0D01*
G01*
X72403738Y-69383880D01*
G75*
G02*
X72675440Y-69655582I0J-271702D01*
G01*
G37*
G36*
G01*
X70600440Y-69655582D02*
X70600440Y-70664178D01*
G75*
G02*
X70328738Y-70935880I-271702J0D01*
G01*
X69595142Y-70935880D01*
G75*
G02*
X69323440Y-70664178I0J271702D01*
G01*
X69323440Y-69655582D01*
G75*
G02*
X69595142Y-69383880I271702J0D01*
G01*
X70328738Y-69383880D01*
G75*
G02*
X70600440Y-69655582I0J-271702D01*
G01*
G37*
G36*
G01*
X76025902Y-72804420D02*
X77034498Y-72804420D01*
G75*
G02*
X77306200Y-73076122I0J-271702D01*
G01*
X77306200Y-73809718D01*
G75*
G02*
X77034498Y-74081420I-271702J0D01*
G01*
X76025902Y-74081420D01*
G75*
G02*
X75754200Y-73809718I0J271702D01*
G01*
X75754200Y-73076122D01*
G75*
G02*
X76025902Y-72804420I271702J0D01*
G01*
G37*
G36*
G01*
X76025902Y-74879420D02*
X77034498Y-74879420D01*
G75*
G02*
X77306200Y-75151122I0J-271702D01*
G01*
X77306200Y-75884718D01*
G75*
G02*
X77034498Y-76156420I-271702J0D01*
G01*
X76025902Y-76156420D01*
G75*
G02*
X75754200Y-75884718I0J271702D01*
G01*
X75754200Y-75151122D01*
G75*
G02*
X76025902Y-74879420I271702J0D01*
G01*
G37*
G36*
G01*
X69095540Y-78695240D02*
X72895540Y-78695240D01*
G75*
G02*
X72946540Y-78746240I0J-51000D01*
G01*
X72946540Y-80746240D01*
G75*
G02*
X72895540Y-80797240I-51000J0D01*
G01*
X69095540Y-80797240D01*
G75*
G02*
X69044540Y-80746240I0J51000D01*
G01*
X69044540Y-78746240D01*
G75*
G02*
X69095540Y-78695240I51000J0D01*
G01*
G37*
G36*
G01*
X70245540Y-72395240D02*
X71745540Y-72395240D01*
G75*
G02*
X71796540Y-72446240I0J-51000D01*
G01*
X71796540Y-74446240D01*
G75*
G02*
X71745540Y-74497240I-51000J0D01*
G01*
X70245540Y-74497240D01*
G75*
G02*
X70194540Y-74446240I0J51000D01*
G01*
X70194540Y-72446240D01*
G75*
G02*
X70245540Y-72395240I51000J0D01*
G01*
G37*
G36*
G01*
X67945540Y-72395240D02*
X69445540Y-72395240D01*
G75*
G02*
X69496540Y-72446240I0J-51000D01*
G01*
X69496540Y-74446240D01*
G75*
G02*
X69445540Y-74497240I-51000J0D01*
G01*
X67945540Y-74497240D01*
G75*
G02*
X67894540Y-74446240I0J51000D01*
G01*
X67894540Y-72446240D01*
G75*
G02*
X67945540Y-72395240I51000J0D01*
G01*
G37*
G36*
G01*
X72545540Y-72395240D02*
X74045540Y-72395240D01*
G75*
G02*
X74096540Y-72446240I0J-51000D01*
G01*
X74096540Y-74446240D01*
G75*
G02*
X74045540Y-74497240I-51000J0D01*
G01*
X72545540Y-74497240D01*
G75*
G02*
X72494540Y-74446240I0J51000D01*
G01*
X72494540Y-72446240D01*
G75*
G02*
X72545540Y-72395240I51000J0D01*
G01*
G37*
D13*
X88592000Y-88849200D03*
X93472000Y-88849200D03*
X96415200Y-121005600D03*
X101295200Y-121005600D03*
G36*
G01*
X51990620Y-109665000D02*
X54450620Y-109665000D01*
G75*
G02*
X54501620Y-109716000I0J-51000D01*
G01*
X54501620Y-112026000D01*
G75*
G02*
X54450620Y-112077000I-51000J0D01*
G01*
X51990620Y-112077000D01*
G75*
G02*
X51939620Y-112026000I0J51000D01*
G01*
X51939620Y-109716000D01*
G75*
G02*
X51990620Y-109665000I51000J0D01*
G01*
G37*
G36*
G01*
X54992854Y-113004400D02*
X55348454Y-113004400D01*
G75*
G02*
X55399454Y-113055400I0J-51000D01*
G01*
X55399454Y-114528600D01*
G75*
G02*
X55348454Y-114579600I-51000J0D01*
G01*
X54992854Y-114579600D01*
G75*
G02*
X54941854Y-114528600I0J51000D01*
G01*
X54941854Y-113055400D01*
G75*
G02*
X54992854Y-113004400I51000J0D01*
G01*
G37*
G36*
G01*
X54342843Y-113004400D02*
X54698443Y-113004400D01*
G75*
G02*
X54749443Y-113055400I0J-51000D01*
G01*
X54749443Y-114528600D01*
G75*
G02*
X54698443Y-114579600I-51000J0D01*
G01*
X54342843Y-114579600D01*
G75*
G02*
X54291843Y-114528600I0J51000D01*
G01*
X54291843Y-113055400D01*
G75*
G02*
X54342843Y-113004400I51000J0D01*
G01*
G37*
G36*
G01*
X53692831Y-113004400D02*
X54048431Y-113004400D01*
G75*
G02*
X54099431Y-113055400I0J-51000D01*
G01*
X54099431Y-114528600D01*
G75*
G02*
X54048431Y-114579600I-51000J0D01*
G01*
X53692831Y-114579600D01*
G75*
G02*
X53641831Y-114528600I0J51000D01*
G01*
X53641831Y-113055400D01*
G75*
G02*
X53692831Y-113004400I51000J0D01*
G01*
G37*
G36*
G01*
X53042820Y-113004400D02*
X53398420Y-113004400D01*
G75*
G02*
X53449420Y-113055400I0J-51000D01*
G01*
X53449420Y-114528600D01*
G75*
G02*
X53398420Y-114579600I-51000J0D01*
G01*
X53042820Y-114579600D01*
G75*
G02*
X52991820Y-114528600I0J51000D01*
G01*
X52991820Y-113055400D01*
G75*
G02*
X53042820Y-113004400I51000J0D01*
G01*
G37*
G36*
G01*
X52392809Y-113004400D02*
X52748409Y-113004400D01*
G75*
G02*
X52799409Y-113055400I0J-51000D01*
G01*
X52799409Y-114528600D01*
G75*
G02*
X52748409Y-114579600I-51000J0D01*
G01*
X52392809Y-114579600D01*
G75*
G02*
X52341809Y-114528600I0J51000D01*
G01*
X52341809Y-113055400D01*
G75*
G02*
X52392809Y-113004400I51000J0D01*
G01*
G37*
G36*
G01*
X51742797Y-113004400D02*
X52098397Y-113004400D01*
G75*
G02*
X52149397Y-113055400I0J-51000D01*
G01*
X52149397Y-114528600D01*
G75*
G02*
X52098397Y-114579600I-51000J0D01*
G01*
X51742797Y-114579600D01*
G75*
G02*
X51691797Y-114528600I0J51000D01*
G01*
X51691797Y-113055400D01*
G75*
G02*
X51742797Y-113004400I51000J0D01*
G01*
G37*
G36*
G01*
X51092786Y-113004400D02*
X51448386Y-113004400D01*
G75*
G02*
X51499386Y-113055400I0J-51000D01*
G01*
X51499386Y-114528600D01*
G75*
G02*
X51448386Y-114579600I-51000J0D01*
G01*
X51092786Y-114579600D01*
G75*
G02*
X51041786Y-114528600I0J51000D01*
G01*
X51041786Y-113055400D01*
G75*
G02*
X51092786Y-113004400I51000J0D01*
G01*
G37*
G36*
G01*
X51092786Y-107162400D02*
X51448386Y-107162400D01*
G75*
G02*
X51499386Y-107213400I0J-51000D01*
G01*
X51499386Y-108686600D01*
G75*
G02*
X51448386Y-108737600I-51000J0D01*
G01*
X51092786Y-108737600D01*
G75*
G02*
X51041786Y-108686600I0J51000D01*
G01*
X51041786Y-107213400D01*
G75*
G02*
X51092786Y-107162400I51000J0D01*
G01*
G37*
G36*
G01*
X51742797Y-107162400D02*
X52098397Y-107162400D01*
G75*
G02*
X52149397Y-107213400I0J-51000D01*
G01*
X52149397Y-108686600D01*
G75*
G02*
X52098397Y-108737600I-51000J0D01*
G01*
X51742797Y-108737600D01*
G75*
G02*
X51691797Y-108686600I0J51000D01*
G01*
X51691797Y-107213400D01*
G75*
G02*
X51742797Y-107162400I51000J0D01*
G01*
G37*
G36*
G01*
X52392809Y-107162400D02*
X52748409Y-107162400D01*
G75*
G02*
X52799409Y-107213400I0J-51000D01*
G01*
X52799409Y-108686600D01*
G75*
G02*
X52748409Y-108737600I-51000J0D01*
G01*
X52392809Y-108737600D01*
G75*
G02*
X52341809Y-108686600I0J51000D01*
G01*
X52341809Y-107213400D01*
G75*
G02*
X52392809Y-107162400I51000J0D01*
G01*
G37*
G36*
G01*
X53042820Y-107162400D02*
X53398420Y-107162400D01*
G75*
G02*
X53449420Y-107213400I0J-51000D01*
G01*
X53449420Y-108686600D01*
G75*
G02*
X53398420Y-108737600I-51000J0D01*
G01*
X53042820Y-108737600D01*
G75*
G02*
X52991820Y-108686600I0J51000D01*
G01*
X52991820Y-107213400D01*
G75*
G02*
X53042820Y-107162400I51000J0D01*
G01*
G37*
G36*
G01*
X53692831Y-107162400D02*
X54048431Y-107162400D01*
G75*
G02*
X54099431Y-107213400I0J-51000D01*
G01*
X54099431Y-108686600D01*
G75*
G02*
X54048431Y-108737600I-51000J0D01*
G01*
X53692831Y-108737600D01*
G75*
G02*
X53641831Y-108686600I0J51000D01*
G01*
X53641831Y-107213400D01*
G75*
G02*
X53692831Y-107162400I51000J0D01*
G01*
G37*
G36*
G01*
X54342843Y-107162400D02*
X54698443Y-107162400D01*
G75*
G02*
X54749443Y-107213400I0J-51000D01*
G01*
X54749443Y-108686600D01*
G75*
G02*
X54698443Y-108737600I-51000J0D01*
G01*
X54342843Y-108737600D01*
G75*
G02*
X54291843Y-108686600I0J51000D01*
G01*
X54291843Y-107213400D01*
G75*
G02*
X54342843Y-107162400I51000J0D01*
G01*
G37*
G36*
G01*
X54992854Y-107162400D02*
X55348454Y-107162400D01*
G75*
G02*
X55399454Y-107213400I0J-51000D01*
G01*
X55399454Y-108686600D01*
G75*
G02*
X55348454Y-108737600I-51000J0D01*
G01*
X54992854Y-108737600D01*
G75*
G02*
X54941854Y-108686600I0J51000D01*
G01*
X54941854Y-107213400D01*
G75*
G02*
X54992854Y-107162400I51000J0D01*
G01*
G37*
G36*
G01*
X102576340Y-86102740D02*
X103476340Y-86102740D01*
G75*
G02*
X103527340Y-86153740I0J-51000D01*
G01*
X103527340Y-88453740D01*
G75*
G02*
X103476340Y-88504740I-51000J0D01*
G01*
X102576340Y-88504740D01*
G75*
G02*
X102525340Y-88453740I0J51000D01*
G01*
X102525340Y-86153740D01*
G75*
G02*
X102576340Y-86102740I51000J0D01*
G01*
G37*
G36*
G01*
X99576340Y-86102740D02*
X100476340Y-86102740D01*
G75*
G02*
X100527340Y-86153740I0J-51000D01*
G01*
X100527340Y-88453740D01*
G75*
G02*
X100476340Y-88504740I-51000J0D01*
G01*
X99576340Y-88504740D01*
G75*
G02*
X99525340Y-88453740I0J51000D01*
G01*
X99525340Y-86153740D01*
G75*
G02*
X99576340Y-86102740I51000J0D01*
G01*
G37*
D10*
G36*
X102442860Y-92763690D02*
G01*
X102439958Y-92773257D01*
X102435245Y-92782074D01*
X102428902Y-92789802D01*
X102421174Y-92796145D01*
X102412357Y-92800858D01*
X102402790Y-92803760D01*
X102392840Y-92804740D01*
X100659840Y-92804740D01*
X100649890Y-92803760D01*
X100640323Y-92800858D01*
X100631506Y-92796145D01*
X100623778Y-92789802D01*
X100617435Y-92782074D01*
X100612722Y-92773257D01*
X100609820Y-92763690D01*
X100608840Y-92753740D01*
X100608840Y-88628740D01*
X100609820Y-88618790D01*
X100612722Y-88609223D01*
X100617435Y-88600406D01*
X100623778Y-88592678D01*
X100631506Y-88586335D01*
X100640323Y-88581622D01*
X100649890Y-88578720D01*
X100659840Y-88577740D01*
X101025340Y-88577740D01*
X101025340Y-86153740D01*
X101026320Y-86143790D01*
X101029222Y-86134223D01*
X101033935Y-86125406D01*
X101040278Y-86117678D01*
X101048006Y-86111335D01*
X101056823Y-86106622D01*
X101066390Y-86103720D01*
X101076340Y-86102740D01*
X101976340Y-86102740D01*
X101986290Y-86103720D01*
X101995857Y-86106622D01*
X102004674Y-86111335D01*
X102012402Y-86117678D01*
X102018745Y-86125406D01*
X102023458Y-86134223D01*
X102026360Y-86143790D01*
X102027340Y-86153740D01*
X102027340Y-88577740D01*
X102392840Y-88577740D01*
X102402790Y-88578720D01*
X102412357Y-88581622D01*
X102421174Y-88586335D01*
X102428902Y-88592678D01*
X102435245Y-88600406D01*
X102439958Y-88609223D01*
X102442860Y-88618790D01*
X102443840Y-88628740D01*
X102443840Y-92753740D01*
X102442860Y-92763690D01*
G37*
G36*
G01*
X68557580Y-94394219D02*
X68557580Y-95044221D01*
G75*
G02*
X68506581Y-95095220I-50999J0D01*
G01*
X66946579Y-95095220D01*
G75*
G02*
X66895580Y-95044221I0J50999D01*
G01*
X66895580Y-94394219D01*
G75*
G02*
X66946579Y-94343220I50999J0D01*
G01*
X68506581Y-94343220D01*
G75*
G02*
X68557580Y-94394219I0J-50999D01*
G01*
G37*
G36*
G01*
X68557580Y-92494219D02*
X68557580Y-93144221D01*
G75*
G02*
X68506581Y-93195220I-50999J0D01*
G01*
X66946579Y-93195220D01*
G75*
G02*
X66895580Y-93144221I0J50999D01*
G01*
X66895580Y-92494219D01*
G75*
G02*
X66946579Y-92443220I50999J0D01*
G01*
X68506581Y-92443220D01*
G75*
G02*
X68557580Y-92494219I0J-50999D01*
G01*
G37*
G36*
G01*
X71257580Y-92494219D02*
X71257580Y-93144221D01*
G75*
G02*
X71206581Y-93195220I-50999J0D01*
G01*
X69646579Y-93195220D01*
G75*
G02*
X69595580Y-93144221I0J50999D01*
G01*
X69595580Y-92494219D01*
G75*
G02*
X69646579Y-92443220I50999J0D01*
G01*
X71206581Y-92443220D01*
G75*
G02*
X71257580Y-92494219I0J-50999D01*
G01*
G37*
G36*
G01*
X71257580Y-93444219D02*
X71257580Y-94094221D01*
G75*
G02*
X71206581Y-94145220I-50999J0D01*
G01*
X69646579Y-94145220D01*
G75*
G02*
X69595580Y-94094221I0J50999D01*
G01*
X69595580Y-93444219D01*
G75*
G02*
X69646579Y-93393220I50999J0D01*
G01*
X71206581Y-93393220D01*
G75*
G02*
X71257580Y-93444219I0J-50999D01*
G01*
G37*
G36*
G01*
X71257580Y-94394219D02*
X71257580Y-95044221D01*
G75*
G02*
X71206581Y-95095220I-50999J0D01*
G01*
X69646579Y-95095220D01*
G75*
G02*
X69595580Y-95044221I0J50999D01*
G01*
X69595580Y-94394219D01*
G75*
G02*
X69646579Y-94343220I50999J0D01*
G01*
X71206581Y-94343220D01*
G75*
G02*
X71257580Y-94394219I0J-50999D01*
G01*
G37*
G36*
G01*
X50625180Y-141876939D02*
X50625180Y-142526941D01*
G75*
G02*
X50574181Y-142577940I-50999J0D01*
G01*
X49014179Y-142577940D01*
G75*
G02*
X48963180Y-142526941I0J50999D01*
G01*
X48963180Y-141876939D01*
G75*
G02*
X49014179Y-141825940I50999J0D01*
G01*
X50574181Y-141825940D01*
G75*
G02*
X50625180Y-141876939I0J-50999D01*
G01*
G37*
G36*
G01*
X50625180Y-139976939D02*
X50625180Y-140626941D01*
G75*
G02*
X50574181Y-140677940I-50999J0D01*
G01*
X49014179Y-140677940D01*
G75*
G02*
X48963180Y-140626941I0J50999D01*
G01*
X48963180Y-139976939D01*
G75*
G02*
X49014179Y-139925940I50999J0D01*
G01*
X50574181Y-139925940D01*
G75*
G02*
X50625180Y-139976939I0J-50999D01*
G01*
G37*
G36*
G01*
X53325180Y-139976939D02*
X53325180Y-140626941D01*
G75*
G02*
X53274181Y-140677940I-50999J0D01*
G01*
X51714179Y-140677940D01*
G75*
G02*
X51663180Y-140626941I0J50999D01*
G01*
X51663180Y-139976939D01*
G75*
G02*
X51714179Y-139925940I50999J0D01*
G01*
X53274181Y-139925940D01*
G75*
G02*
X53325180Y-139976939I0J-50999D01*
G01*
G37*
G36*
G01*
X53325180Y-140926939D02*
X53325180Y-141576941D01*
G75*
G02*
X53274181Y-141627940I-50999J0D01*
G01*
X51714179Y-141627940D01*
G75*
G02*
X51663180Y-141576941I0J50999D01*
G01*
X51663180Y-140926939D01*
G75*
G02*
X51714179Y-140875940I50999J0D01*
G01*
X53274181Y-140875940D01*
G75*
G02*
X53325180Y-140926939I0J-50999D01*
G01*
G37*
G36*
G01*
X53325180Y-141876939D02*
X53325180Y-142526941D01*
G75*
G02*
X53274181Y-142577940I-50999J0D01*
G01*
X51714179Y-142577940D01*
G75*
G02*
X51663180Y-142526941I0J50999D01*
G01*
X51663180Y-141876939D01*
G75*
G02*
X51714179Y-141825940I50999J0D01*
G01*
X53274181Y-141825940D01*
G75*
G02*
X53325180Y-141876939I0J-50999D01*
G01*
G37*
G36*
G01*
X115315692Y-125927100D02*
X114356188Y-125927100D01*
G75*
G02*
X114084940Y-125655852I0J271248D01*
G01*
X114084940Y-124896348D01*
G75*
G02*
X114356188Y-124625100I271248J0D01*
G01*
X115315692Y-124625100D01*
G75*
G02*
X115586940Y-124896348I0J-271248D01*
G01*
X115586940Y-125655852D01*
G75*
G02*
X115315692Y-125927100I-271248J0D01*
G01*
G37*
G36*
G01*
X115315692Y-127927100D02*
X114356188Y-127927100D01*
G75*
G02*
X114084940Y-127655852I0J271248D01*
G01*
X114084940Y-126896348D01*
G75*
G02*
X114356188Y-126625100I271248J0D01*
G01*
X115315692Y-126625100D01*
G75*
G02*
X115586940Y-126896348I0J-271248D01*
G01*
X115586940Y-127655852D01*
G75*
G02*
X115315692Y-127927100I-271248J0D01*
G01*
G37*
G36*
G01*
X111646008Y-126612400D02*
X112605512Y-126612400D01*
G75*
G02*
X112876760Y-126883648I0J-271248D01*
G01*
X112876760Y-127643152D01*
G75*
G02*
X112605512Y-127914400I-271248J0D01*
G01*
X111646008Y-127914400D01*
G75*
G02*
X111374760Y-127643152I0J271248D01*
G01*
X111374760Y-126883648D01*
G75*
G02*
X111646008Y-126612400I271248J0D01*
G01*
G37*
G36*
G01*
X111646008Y-124612400D02*
X112605512Y-124612400D01*
G75*
G02*
X112876760Y-124883648I0J-271248D01*
G01*
X112876760Y-125643152D01*
G75*
G02*
X112605512Y-125914400I-271248J0D01*
G01*
X111646008Y-125914400D01*
G75*
G02*
X111374760Y-125643152I0J271248D01*
G01*
X111374760Y-124883648D01*
G75*
G02*
X111646008Y-124612400I271248J0D01*
G01*
G37*
G36*
G01*
X104823520Y-140454072D02*
X104823520Y-139494568D01*
G75*
G02*
X105094768Y-139223320I271248J0D01*
G01*
X105854272Y-139223320D01*
G75*
G02*
X106125520Y-139494568I0J-271248D01*
G01*
X106125520Y-140454072D01*
G75*
G02*
X105854272Y-140725320I-271248J0D01*
G01*
X105094768Y-140725320D01*
G75*
G02*
X104823520Y-140454072I0J271248D01*
G01*
G37*
G36*
G01*
X102823520Y-140454072D02*
X102823520Y-139494568D01*
G75*
G02*
X103094768Y-139223320I271248J0D01*
G01*
X103854272Y-139223320D01*
G75*
G02*
X104125520Y-139494568I0J-271248D01*
G01*
X104125520Y-140454072D01*
G75*
G02*
X103854272Y-140725320I-271248J0D01*
G01*
X103094768Y-140725320D01*
G75*
G02*
X102823520Y-140454072I0J271248D01*
G01*
G37*
G36*
G01*
X102817420Y-130860492D02*
X102817420Y-129900988D01*
G75*
G02*
X103088668Y-129629740I271248J0D01*
G01*
X103848172Y-129629740D01*
G75*
G02*
X104119420Y-129900988I0J-271248D01*
G01*
X104119420Y-130860492D01*
G75*
G02*
X103848172Y-131131740I-271248J0D01*
G01*
X103088668Y-131131740D01*
G75*
G02*
X102817420Y-130860492I0J271248D01*
G01*
G37*
G36*
G01*
X104817420Y-130860492D02*
X104817420Y-129900988D01*
G75*
G02*
X105088668Y-129629740I271248J0D01*
G01*
X105848172Y-129629740D01*
G75*
G02*
X106119420Y-129900988I0J-271248D01*
G01*
X106119420Y-130860492D01*
G75*
G02*
X105848172Y-131131740I-271248J0D01*
G01*
X105088668Y-131131740D01*
G75*
G02*
X104817420Y-130860492I0J271248D01*
G01*
G37*
G36*
G01*
X104808280Y-147418752D02*
X104808280Y-146459248D01*
G75*
G02*
X105079528Y-146188000I271248J0D01*
G01*
X105839032Y-146188000D01*
G75*
G02*
X106110280Y-146459248I0J-271248D01*
G01*
X106110280Y-147418752D01*
G75*
G02*
X105839032Y-147690000I-271248J0D01*
G01*
X105079528Y-147690000D01*
G75*
G02*
X104808280Y-147418752I0J271248D01*
G01*
G37*
G36*
G01*
X102808280Y-147418752D02*
X102808280Y-146459248D01*
G75*
G02*
X103079528Y-146188000I271248J0D01*
G01*
X103839032Y-146188000D01*
G75*
G02*
X104110280Y-146459248I0J-271248D01*
G01*
X104110280Y-147418752D01*
G75*
G02*
X103839032Y-147690000I-271248J0D01*
G01*
X103079528Y-147690000D01*
G75*
G02*
X102808280Y-147418752I0J271248D01*
G01*
G37*
G36*
G01*
X104808280Y-143989752D02*
X104808280Y-143030248D01*
G75*
G02*
X105079528Y-142759000I271248J0D01*
G01*
X105839032Y-142759000D01*
G75*
G02*
X106110280Y-143030248I0J-271248D01*
G01*
X106110280Y-143989752D01*
G75*
G02*
X105839032Y-144261000I-271248J0D01*
G01*
X105079528Y-144261000D01*
G75*
G02*
X104808280Y-143989752I0J271248D01*
G01*
G37*
G36*
G01*
X102808280Y-143989752D02*
X102808280Y-143030248D01*
G75*
G02*
X103079528Y-142759000I271248J0D01*
G01*
X103839032Y-142759000D01*
G75*
G02*
X104110280Y-143030248I0J-271248D01*
G01*
X104110280Y-143989752D01*
G75*
G02*
X103839032Y-144261000I-271248J0D01*
G01*
X103079528Y-144261000D01*
G75*
G02*
X102808280Y-143989752I0J271248D01*
G01*
G37*
G36*
G01*
X102785420Y-136992052D02*
X102785420Y-136032548D01*
G75*
G02*
X103056668Y-135761300I271248J0D01*
G01*
X103816172Y-135761300D01*
G75*
G02*
X104087420Y-136032548I0J-271248D01*
G01*
X104087420Y-136992052D01*
G75*
G02*
X103816172Y-137263300I-271248J0D01*
G01*
X103056668Y-137263300D01*
G75*
G02*
X102785420Y-136992052I0J271248D01*
G01*
G37*
G36*
G01*
X104785420Y-136992052D02*
X104785420Y-136032548D01*
G75*
G02*
X105056668Y-135761300I271248J0D01*
G01*
X105816172Y-135761300D01*
G75*
G02*
X106087420Y-136032548I0J-271248D01*
G01*
X106087420Y-136992052D01*
G75*
G02*
X105816172Y-137263300I-271248J0D01*
G01*
X105056668Y-137263300D01*
G75*
G02*
X104785420Y-136992052I0J271248D01*
G01*
G37*
G36*
G01*
X102817420Y-134175192D02*
X102817420Y-133215688D01*
G75*
G02*
X103088668Y-132944440I271248J0D01*
G01*
X103848172Y-132944440D01*
G75*
G02*
X104119420Y-133215688I0J-271248D01*
G01*
X104119420Y-134175192D01*
G75*
G02*
X103848172Y-134446440I-271248J0D01*
G01*
X103088668Y-134446440D01*
G75*
G02*
X102817420Y-134175192I0J271248D01*
G01*
G37*
G36*
G01*
X104817420Y-134175192D02*
X104817420Y-133215688D01*
G75*
G02*
X105088668Y-132944440I271248J0D01*
G01*
X105848172Y-132944440D01*
G75*
G02*
X106119420Y-133215688I0J-271248D01*
G01*
X106119420Y-134175192D01*
G75*
G02*
X105848172Y-134446440I-271248J0D01*
G01*
X105088668Y-134446440D01*
G75*
G02*
X104817420Y-134175192I0J271248D01*
G01*
G37*
G36*
G01*
X48029168Y-116491260D02*
X48988672Y-116491260D01*
G75*
G02*
X49259920Y-116762508I0J-271248D01*
G01*
X49259920Y-117522012D01*
G75*
G02*
X48988672Y-117793260I-271248J0D01*
G01*
X48029168Y-117793260D01*
G75*
G02*
X47757920Y-117522012I0J271248D01*
G01*
X47757920Y-116762508D01*
G75*
G02*
X48029168Y-116491260I271248J0D01*
G01*
G37*
G36*
G01*
X48029168Y-118491260D02*
X48988672Y-118491260D01*
G75*
G02*
X49259920Y-118762508I0J-271248D01*
G01*
X49259920Y-119522012D01*
G75*
G02*
X48988672Y-119793260I-271248J0D01*
G01*
X48029168Y-119793260D01*
G75*
G02*
X47757920Y-119522012I0J271248D01*
G01*
X47757920Y-118762508D01*
G75*
G02*
X48029168Y-118491260I271248J0D01*
G01*
G37*
G36*
G01*
X51521052Y-119872000D02*
X50561548Y-119872000D01*
G75*
G02*
X50290300Y-119600752I0J271248D01*
G01*
X50290300Y-118841248D01*
G75*
G02*
X50561548Y-118570000I271248J0D01*
G01*
X51521052Y-118570000D01*
G75*
G02*
X51792300Y-118841248I0J-271248D01*
G01*
X51792300Y-119600752D01*
G75*
G02*
X51521052Y-119872000I-271248J0D01*
G01*
G37*
G36*
G01*
X51521052Y-117872000D02*
X50561548Y-117872000D01*
G75*
G02*
X50290300Y-117600752I0J271248D01*
G01*
X50290300Y-116841248D01*
G75*
G02*
X50561548Y-116570000I271248J0D01*
G01*
X51521052Y-116570000D01*
G75*
G02*
X51792300Y-116841248I0J-271248D01*
G01*
X51792300Y-117600752D01*
G75*
G02*
X51521052Y-117872000I-271248J0D01*
G01*
G37*
G36*
G01*
X48092668Y-111596680D02*
X49052172Y-111596680D01*
G75*
G02*
X49323420Y-111867928I0J-271248D01*
G01*
X49323420Y-112627432D01*
G75*
G02*
X49052172Y-112898680I-271248J0D01*
G01*
X48092668Y-112898680D01*
G75*
G02*
X47821420Y-112627432I0J271248D01*
G01*
X47821420Y-111867928D01*
G75*
G02*
X48092668Y-111596680I271248J0D01*
G01*
G37*
G36*
G01*
X48092668Y-113596680D02*
X49052172Y-113596680D01*
G75*
G02*
X49323420Y-113867928I0J-271248D01*
G01*
X49323420Y-114627432D01*
G75*
G02*
X49052172Y-114898680I-271248J0D01*
G01*
X48092668Y-114898680D01*
G75*
G02*
X47821420Y-114627432I0J271248D01*
G01*
X47821420Y-113867928D01*
G75*
G02*
X48092668Y-113596680I271248J0D01*
G01*
G37*
G36*
G01*
X113167920Y-138928148D02*
X113167920Y-139887652D01*
G75*
G02*
X112896672Y-140158900I-271248J0D01*
G01*
X112137168Y-140158900D01*
G75*
G02*
X111865920Y-139887652I0J271248D01*
G01*
X111865920Y-138928148D01*
G75*
G02*
X112137168Y-138656900I271248J0D01*
G01*
X112896672Y-138656900D01*
G75*
G02*
X113167920Y-138928148I0J-271248D01*
G01*
G37*
G36*
G01*
X115167920Y-138928148D02*
X115167920Y-139887652D01*
G75*
G02*
X114896672Y-140158900I-271248J0D01*
G01*
X114137168Y-140158900D01*
G75*
G02*
X113865920Y-139887652I0J271248D01*
G01*
X113865920Y-138928148D01*
G75*
G02*
X114137168Y-138656900I271248J0D01*
G01*
X114896672Y-138656900D01*
G75*
G02*
X115167920Y-138928148I0J-271248D01*
G01*
G37*
G36*
G01*
X100243948Y-95774000D02*
X101203452Y-95774000D01*
G75*
G02*
X101474700Y-96045248I0J-271248D01*
G01*
X101474700Y-96804752D01*
G75*
G02*
X101203452Y-97076000I-271248J0D01*
G01*
X100243948Y-97076000D01*
G75*
G02*
X99972700Y-96804752I0J271248D01*
G01*
X99972700Y-96045248D01*
G75*
G02*
X100243948Y-95774000I271248J0D01*
G01*
G37*
G36*
G01*
X100243948Y-97774000D02*
X101203452Y-97774000D01*
G75*
G02*
X101474700Y-98045248I0J-271248D01*
G01*
X101474700Y-98804752D01*
G75*
G02*
X101203452Y-99076000I-271248J0D01*
G01*
X100243948Y-99076000D01*
G75*
G02*
X99972700Y-98804752I0J271248D01*
G01*
X99972700Y-98045248D01*
G75*
G02*
X100243948Y-97774000I271248J0D01*
G01*
G37*
G36*
G01*
X53220928Y-116560600D02*
X54180432Y-116560600D01*
G75*
G02*
X54451680Y-116831848I0J-271248D01*
G01*
X54451680Y-117591352D01*
G75*
G02*
X54180432Y-117862600I-271248J0D01*
G01*
X53220928Y-117862600D01*
G75*
G02*
X52949680Y-117591352I0J271248D01*
G01*
X52949680Y-116831848D01*
G75*
G02*
X53220928Y-116560600I271248J0D01*
G01*
G37*
G36*
G01*
X53220928Y-118560600D02*
X54180432Y-118560600D01*
G75*
G02*
X54451680Y-118831848I0J-271248D01*
G01*
X54451680Y-119591352D01*
G75*
G02*
X54180432Y-119862600I-271248J0D01*
G01*
X53220928Y-119862600D01*
G75*
G02*
X52949680Y-119591352I0J271248D01*
G01*
X52949680Y-118831848D01*
G75*
G02*
X53220928Y-118560600I271248J0D01*
G01*
G37*
G36*
G01*
X104130148Y-95621600D02*
X105089652Y-95621600D01*
G75*
G02*
X105360900Y-95892848I0J-271248D01*
G01*
X105360900Y-96652352D01*
G75*
G02*
X105089652Y-96923600I-271248J0D01*
G01*
X104130148Y-96923600D01*
G75*
G02*
X103858900Y-96652352I0J271248D01*
G01*
X103858900Y-95892848D01*
G75*
G02*
X104130148Y-95621600I271248J0D01*
G01*
G37*
G36*
G01*
X104130148Y-97621600D02*
X105089652Y-97621600D01*
G75*
G02*
X105360900Y-97892848I0J-271248D01*
G01*
X105360900Y-98652352D01*
G75*
G02*
X105089652Y-98923600I-271248J0D01*
G01*
X104130148Y-98923600D01*
G75*
G02*
X103858900Y-98652352I0J271248D01*
G01*
X103858900Y-97892848D01*
G75*
G02*
X104130148Y-97621600I271248J0D01*
G01*
G37*
G36*
G01*
X109878168Y-131937000D02*
X110837672Y-131937000D01*
G75*
G02*
X111108920Y-132208248I0J-271248D01*
G01*
X111108920Y-132967752D01*
G75*
G02*
X110837672Y-133239000I-271248J0D01*
G01*
X109878168Y-133239000D01*
G75*
G02*
X109606920Y-132967752I0J271248D01*
G01*
X109606920Y-132208248D01*
G75*
G02*
X109878168Y-131937000I271248J0D01*
G01*
G37*
G36*
G01*
X109878168Y-129937000D02*
X110837672Y-129937000D01*
G75*
G02*
X111108920Y-130208248I0J-271248D01*
G01*
X111108920Y-130967752D01*
G75*
G02*
X110837672Y-131239000I-271248J0D01*
G01*
X109878168Y-131239000D01*
G75*
G02*
X109606920Y-130967752I0J271248D01*
G01*
X109606920Y-130208248D01*
G75*
G02*
X109878168Y-129937000I271248J0D01*
G01*
G37*
G36*
G01*
X112311940Y-131211012D02*
X112311940Y-130251508D01*
G75*
G02*
X112583188Y-129980260I271248J0D01*
G01*
X113342692Y-129980260D01*
G75*
G02*
X113613940Y-130251508I0J-271248D01*
G01*
X113613940Y-131211012D01*
G75*
G02*
X113342692Y-131482260I-271248J0D01*
G01*
X112583188Y-131482260D01*
G75*
G02*
X112311940Y-131211012I0J271248D01*
G01*
G37*
G36*
G01*
X114311940Y-131211012D02*
X114311940Y-130251508D01*
G75*
G02*
X114583188Y-129980260I271248J0D01*
G01*
X115342692Y-129980260D01*
G75*
G02*
X115613940Y-130251508I0J-271248D01*
G01*
X115613940Y-131211012D01*
G75*
G02*
X115342692Y-131482260I-271248J0D01*
G01*
X114583188Y-131482260D01*
G75*
G02*
X114311940Y-131211012I0J271248D01*
G01*
G37*
G36*
G01*
X115156600Y-135388400D02*
X115156600Y-136188400D01*
G75*
G02*
X115105600Y-136239400I-51000J0D01*
G01*
X114205600Y-136239400D01*
G75*
G02*
X114154600Y-136188400I0J51000D01*
G01*
X114154600Y-135388400D01*
G75*
G02*
X114205600Y-135337400I51000J0D01*
G01*
X115105600Y-135337400D01*
G75*
G02*
X115156600Y-135388400I0J-51000D01*
G01*
G37*
G36*
G01*
X115156600Y-133488400D02*
X115156600Y-134288400D01*
G75*
G02*
X115105600Y-134339400I-51000J0D01*
G01*
X114205600Y-134339400D01*
G75*
G02*
X114154600Y-134288400I0J51000D01*
G01*
X114154600Y-133488400D01*
G75*
G02*
X114205600Y-133437400I51000J0D01*
G01*
X115105600Y-133437400D01*
G75*
G02*
X115156600Y-133488400I0J-51000D01*
G01*
G37*
G36*
G01*
X113156600Y-134438400D02*
X113156600Y-135238400D01*
G75*
G02*
X113105600Y-135289400I-51000J0D01*
G01*
X112205600Y-135289400D01*
G75*
G02*
X112154600Y-135238400I0J51000D01*
G01*
X112154600Y-134438400D01*
G75*
G02*
X112205600Y-134387400I51000J0D01*
G01*
X113105600Y-134387400D01*
G75*
G02*
X113156600Y-134438400I0J-51000D01*
G01*
G37*
G36*
G01*
X56709914Y-102616380D02*
X58926126Y-102616380D01*
G75*
G02*
X59194020Y-102884274I0J-267894D01*
G01*
X59194020Y-103875486D01*
G75*
G02*
X58926126Y-104143380I-267894J0D01*
G01*
X56709914Y-104143380D01*
G75*
G02*
X56442020Y-103875486I0J267894D01*
G01*
X56442020Y-102884274D01*
G75*
G02*
X56709914Y-102616380I267894J0D01*
G01*
G37*
G36*
G01*
X56709914Y-105591380D02*
X58926126Y-105591380D01*
G75*
G02*
X59194020Y-105859274I0J-267894D01*
G01*
X59194020Y-106850486D01*
G75*
G02*
X58926126Y-107118380I-267894J0D01*
G01*
X56709914Y-107118380D01*
G75*
G02*
X56442020Y-106850486I0J267894D01*
G01*
X56442020Y-105859274D01*
G75*
G02*
X56709914Y-105591380I267894J0D01*
G01*
G37*
D12*
X39243000Y-101879400D03*
X39243000Y-99339400D03*
X39243000Y-96799400D03*
X39243000Y-94259400D03*
G36*
G01*
X38342000Y-92569400D02*
X38342000Y-90869400D01*
G75*
G02*
X38393000Y-90818400I51000J0D01*
G01*
X40093000Y-90818400D01*
G75*
G02*
X40144000Y-90869400I0J-51000D01*
G01*
X40144000Y-92569400D01*
G75*
G02*
X40093000Y-92620400I-51000J0D01*
G01*
X38393000Y-92620400D01*
G75*
G02*
X38342000Y-92569400I0J51000D01*
G01*
G37*
D14*
X44328080Y-135955020D03*
G36*
G01*
X44982832Y-138606020D02*
X43673328Y-138606020D01*
G75*
G02*
X43402080Y-138334772I0J271248D01*
G01*
X43402080Y-137575268D01*
G75*
G02*
X43673328Y-137304020I271248J0D01*
G01*
X44982832Y-137304020D01*
G75*
G02*
X45254080Y-137575268I0J-271248D01*
G01*
X45254080Y-138334772D01*
G75*
G02*
X44982832Y-138606020I-271248J0D01*
G01*
G37*
X44328080Y-128032760D03*
G36*
G01*
X44982832Y-130683760D02*
X43673328Y-130683760D01*
G75*
G02*
X43402080Y-130412512I0J271248D01*
G01*
X43402080Y-129653008D01*
G75*
G02*
X43673328Y-129381760I271248J0D01*
G01*
X44982832Y-129381760D01*
G75*
G02*
X45254080Y-129653008I0J-271248D01*
G01*
X45254080Y-130412512D01*
G75*
G02*
X44982832Y-130683760I-271248J0D01*
G01*
G37*
X44371260Y-120041920D03*
G36*
G01*
X45026012Y-122692920D02*
X43716508Y-122692920D01*
G75*
G02*
X43445260Y-122421672I0J271248D01*
G01*
X43445260Y-121662168D01*
G75*
G02*
X43716508Y-121390920I271248J0D01*
G01*
X45026012Y-121390920D01*
G75*
G02*
X45297260Y-121662168I0J-271248D01*
G01*
X45297260Y-122421672D01*
G75*
G02*
X45026012Y-122692920I-271248J0D01*
G01*
G37*
D15*
X80035400Y-127332000D03*
X80035400Y-116332000D03*
D16*
X79035400Y-123832000D03*
X79035400Y-121832000D03*
X79035400Y-119832000D03*
X81035400Y-119832000D03*
G36*
G01*
X81635401Y-124483000D02*
X80435399Y-124483000D01*
G75*
G02*
X80384400Y-124432001I0J50999D01*
G01*
X80384400Y-123231999D01*
G75*
G02*
X80435399Y-123181000I50999J0D01*
G01*
X81635401Y-123181000D01*
G75*
G02*
X81686400Y-123231999I0J-50999D01*
G01*
X81686400Y-124432001D01*
G75*
G02*
X81635401Y-124483000I-50999J0D01*
G01*
G37*
X81035400Y-121832000D03*
D15*
X72288400Y-127382800D03*
X72288400Y-116382800D03*
D16*
X71288400Y-123882800D03*
X71288400Y-121882800D03*
X71288400Y-119882800D03*
X73288400Y-119882800D03*
G36*
G01*
X73888401Y-124533800D02*
X72688399Y-124533800D01*
G75*
G02*
X72637400Y-124482801I0J50999D01*
G01*
X72637400Y-123282799D01*
G75*
G02*
X72688399Y-123231800I50999J0D01*
G01*
X73888401Y-123231800D01*
G75*
G02*
X73939400Y-123282799I0J-50999D01*
G01*
X73939400Y-124482801D01*
G75*
G02*
X73888401Y-124533800I-50999J0D01*
G01*
G37*
X73288400Y-121882800D03*
D12*
X71551800Y-111683800D03*
X74091800Y-111683800D03*
X76631800Y-111683800D03*
X79171800Y-111683800D03*
G36*
G01*
X80861800Y-110782800D02*
X82561800Y-110782800D01*
G75*
G02*
X82612800Y-110833800I0J-51000D01*
G01*
X82612800Y-112533800D01*
G75*
G02*
X82561800Y-112584800I-51000J0D01*
G01*
X80861800Y-112584800D01*
G75*
G02*
X80810800Y-112533800I0J51000D01*
G01*
X80810800Y-110833800D01*
G75*
G02*
X80861800Y-110782800I51000J0D01*
G01*
G37*
D15*
X70039600Y-105664000D03*
X81039600Y-105664000D03*
D16*
X73539600Y-104664000D03*
X75539600Y-104664000D03*
X77539600Y-104664000D03*
X77539600Y-106664000D03*
G36*
G01*
X72888600Y-107264001D02*
X72888600Y-106063999D01*
G75*
G02*
X72939599Y-106013000I50999J0D01*
G01*
X74139601Y-106013000D01*
G75*
G02*
X74190600Y-106063999I0J-50999D01*
G01*
X74190600Y-107264001D01*
G75*
G02*
X74139601Y-107315000I-50999J0D01*
G01*
X72939599Y-107315000D01*
G75*
G02*
X72888600Y-107264001I0J50999D01*
G01*
G37*
X75539600Y-106664000D03*
D14*
X44208700Y-111398300D03*
G36*
G01*
X44863452Y-114049300D02*
X43553948Y-114049300D01*
G75*
G02*
X43282700Y-113778052I0J271248D01*
G01*
X43282700Y-113018548D01*
G75*
G02*
X43553948Y-112747300I271248J0D01*
G01*
X44863452Y-112747300D01*
G75*
G02*
X45134700Y-113018548I0J-271248D01*
G01*
X45134700Y-113778052D01*
G75*
G02*
X44863452Y-114049300I-271248J0D01*
G01*
G37*
G36*
G01*
X73770380Y-89686092D02*
X73770380Y-90643748D01*
G75*
G02*
X73498208Y-90915920I-272172J0D01*
G01*
X72790552Y-90915920D01*
G75*
G02*
X72518380Y-90643748I0J272172D01*
G01*
X72518380Y-89686092D01*
G75*
G02*
X72790552Y-89413920I272172J0D01*
G01*
X73498208Y-89413920D01*
G75*
G02*
X73770380Y-89686092I0J-272172D01*
G01*
G37*
G36*
G01*
X75820380Y-89686092D02*
X75820380Y-90643748D01*
G75*
G02*
X75548208Y-90915920I-272172J0D01*
G01*
X74840552Y-90915920D01*
G75*
G02*
X74568380Y-90643748I0J272172D01*
G01*
X74568380Y-89686092D01*
G75*
G02*
X74840552Y-89413920I272172J0D01*
G01*
X75548208Y-89413920D01*
G75*
G02*
X75820380Y-89686092I0J-272172D01*
G01*
G37*
G36*
G01*
X55967520Y-136818332D02*
X55967520Y-137775988D01*
G75*
G02*
X55695348Y-138048160I-272172J0D01*
G01*
X54987692Y-138048160D01*
G75*
G02*
X54715520Y-137775988I0J272172D01*
G01*
X54715520Y-136818332D01*
G75*
G02*
X54987692Y-136546160I272172J0D01*
G01*
X55695348Y-136546160D01*
G75*
G02*
X55967520Y-136818332I0J-272172D01*
G01*
G37*
G36*
G01*
X58017520Y-136818332D02*
X58017520Y-137775988D01*
G75*
G02*
X57745348Y-138048160I-272172J0D01*
G01*
X57037692Y-138048160D01*
G75*
G02*
X56765520Y-137775988I0J272172D01*
G01*
X56765520Y-136818332D01*
G75*
G02*
X57037692Y-136546160I272172J0D01*
G01*
X57745348Y-136546160D01*
G75*
G02*
X58017520Y-136818332I0J-272172D01*
G01*
G37*
G36*
G01*
X109052606Y-105665500D02*
X107736394Y-105665500D01*
G75*
G02*
X107468500Y-105397606I0J267894D01*
G01*
X107468500Y-104406394D01*
G75*
G02*
X107736394Y-104138500I267894J0D01*
G01*
X109052606Y-104138500D01*
G75*
G02*
X109320500Y-104406394I0J-267894D01*
G01*
X109320500Y-105397606D01*
G75*
G02*
X109052606Y-105665500I-267894J0D01*
G01*
G37*
G36*
G01*
X109052606Y-102690500D02*
X107736394Y-102690500D01*
G75*
G02*
X107468500Y-102422606I0J267894D01*
G01*
X107468500Y-101431394D01*
G75*
G02*
X107736394Y-101163500I267894J0D01*
G01*
X109052606Y-101163500D01*
G75*
G02*
X109320500Y-101431394I0J-267894D01*
G01*
X109320500Y-102422606D01*
G75*
G02*
X109052606Y-102690500I-267894J0D01*
G01*
G37*
G36*
G01*
X101483406Y-105770300D02*
X100167194Y-105770300D01*
G75*
G02*
X99899300Y-105502406I0J267894D01*
G01*
X99899300Y-104511194D01*
G75*
G02*
X100167194Y-104243300I267894J0D01*
G01*
X101483406Y-104243300D01*
G75*
G02*
X101751300Y-104511194I0J-267894D01*
G01*
X101751300Y-105502406D01*
G75*
G02*
X101483406Y-105770300I-267894J0D01*
G01*
G37*
G36*
G01*
X101483406Y-102795300D02*
X100167194Y-102795300D01*
G75*
G02*
X99899300Y-102527406I0J267894D01*
G01*
X99899300Y-101536194D01*
G75*
G02*
X100167194Y-101268300I267894J0D01*
G01*
X101483406Y-101268300D01*
G75*
G02*
X101751300Y-101536194I0J-267894D01*
G01*
X101751300Y-102527406D01*
G75*
G02*
X101483406Y-102795300I-267894J0D01*
G01*
G37*
G36*
G01*
X105268006Y-105640100D02*
X103951794Y-105640100D01*
G75*
G02*
X103683900Y-105372206I0J267894D01*
G01*
X103683900Y-104380994D01*
G75*
G02*
X103951794Y-104113100I267894J0D01*
G01*
X105268006Y-104113100D01*
G75*
G02*
X105535900Y-104380994I0J-267894D01*
G01*
X105535900Y-105372206D01*
G75*
G02*
X105268006Y-105640100I-267894J0D01*
G01*
G37*
G36*
G01*
X105268006Y-102665100D02*
X103951794Y-102665100D01*
G75*
G02*
X103683900Y-102397206I0J267894D01*
G01*
X103683900Y-101405994D01*
G75*
G02*
X103951794Y-101138100I267894J0D01*
G01*
X105268006Y-101138100D01*
G75*
G02*
X105535900Y-101405994I0J-267894D01*
G01*
X105535900Y-102397206D01*
G75*
G02*
X105268006Y-102665100I-267894J0D01*
G01*
G37*
G36*
G01*
X59104620Y-113204280D02*
X58004620Y-113204280D01*
G75*
G02*
X57953620Y-113153280I0J51000D01*
G01*
X57953620Y-112053280D01*
G75*
G02*
X58004620Y-112002280I51000J0D01*
G01*
X59104620Y-112002280D01*
G75*
G02*
X59155620Y-112053280I0J-51000D01*
G01*
X59155620Y-113153280D01*
G75*
G02*
X59104620Y-113204280I-51000J0D01*
G01*
G37*
G36*
G01*
X59104620Y-110404280D02*
X58004620Y-110404280D01*
G75*
G02*
X57953620Y-110353280I0J51000D01*
G01*
X57953620Y-109253280D01*
G75*
G02*
X58004620Y-109202280I51000J0D01*
G01*
X59104620Y-109202280D01*
G75*
G02*
X59155620Y-109253280I0J-51000D01*
G01*
X59155620Y-110353280D01*
G75*
G02*
X59104620Y-110404280I-51000J0D01*
G01*
G37*
G36*
G01*
X105240982Y-88208160D02*
X106249578Y-88208160D01*
G75*
G02*
X106521280Y-88479862I0J-271702D01*
G01*
X106521280Y-89213458D01*
G75*
G02*
X106249578Y-89485160I-271702J0D01*
G01*
X105240982Y-89485160D01*
G75*
G02*
X104969280Y-89213458I0J271702D01*
G01*
X104969280Y-88479862D01*
G75*
G02*
X105240982Y-88208160I271702J0D01*
G01*
G37*
G36*
G01*
X105240982Y-90283160D02*
X106249578Y-90283160D01*
G75*
G02*
X106521280Y-90554862I0J-271702D01*
G01*
X106521280Y-91288458D01*
G75*
G02*
X106249578Y-91560160I-271702J0D01*
G01*
X105240982Y-91560160D01*
G75*
G02*
X104969280Y-91288458I0J271702D01*
G01*
X104969280Y-90554862D01*
G75*
G02*
X105240982Y-90283160I271702J0D01*
G01*
G37*
G36*
G01*
X99388060Y-84728158D02*
X99388060Y-83719562D01*
G75*
G02*
X99659762Y-83447860I271702J0D01*
G01*
X100393358Y-83447860D01*
G75*
G02*
X100665060Y-83719562I0J-271702D01*
G01*
X100665060Y-84728158D01*
G75*
G02*
X100393358Y-84999860I-271702J0D01*
G01*
X99659762Y-84999860D01*
G75*
G02*
X99388060Y-84728158I0J271702D01*
G01*
G37*
G36*
G01*
X101463060Y-84728158D02*
X101463060Y-83719562D01*
G75*
G02*
X101734762Y-83447860I271702J0D01*
G01*
X102468358Y-83447860D01*
G75*
G02*
X102740060Y-83719562I0J-271702D01*
G01*
X102740060Y-84728158D01*
G75*
G02*
X102468358Y-84999860I-271702J0D01*
G01*
X101734762Y-84999860D01*
G75*
G02*
X101463060Y-84728158I0J271702D01*
G01*
G37*
G36*
G01*
X49127518Y-110439980D02*
X48118922Y-110439980D01*
G75*
G02*
X47847220Y-110168278I0J271702D01*
G01*
X47847220Y-109434682D01*
G75*
G02*
X48118922Y-109162980I271702J0D01*
G01*
X49127518Y-109162980D01*
G75*
G02*
X49399220Y-109434682I0J-271702D01*
G01*
X49399220Y-110168278D01*
G75*
G02*
X49127518Y-110439980I-271702J0D01*
G01*
G37*
G36*
G01*
X49127518Y-108364980D02*
X48118922Y-108364980D01*
G75*
G02*
X47847220Y-108093278I0J271702D01*
G01*
X47847220Y-107359682D01*
G75*
G02*
X48118922Y-107087980I271702J0D01*
G01*
X49127518Y-107087980D01*
G75*
G02*
X49399220Y-107359682I0J-271702D01*
G01*
X49399220Y-108093278D01*
G75*
G02*
X49127518Y-108364980I-271702J0D01*
G01*
G37*
G36*
G01*
X52690720Y-104809182D02*
X52690720Y-105817778D01*
G75*
G02*
X52419018Y-106089480I-271702J0D01*
G01*
X51685422Y-106089480D01*
G75*
G02*
X51413720Y-105817778I0J271702D01*
G01*
X51413720Y-104809182D01*
G75*
G02*
X51685422Y-104537480I271702J0D01*
G01*
X52419018Y-104537480D01*
G75*
G02*
X52690720Y-104809182I0J-271702D01*
G01*
G37*
G36*
G01*
X50615720Y-104809182D02*
X50615720Y-105817778D01*
G75*
G02*
X50344018Y-106089480I-271702J0D01*
G01*
X49610422Y-106089480D01*
G75*
G02*
X49338720Y-105817778I0J271702D01*
G01*
X49338720Y-104809182D01*
G75*
G02*
X49610422Y-104537480I271702J0D01*
G01*
X50344018Y-104537480D01*
G75*
G02*
X50615720Y-104809182I0J-271702D01*
G01*
G37*
G36*
G01*
X46729542Y-142693520D02*
X47738138Y-142693520D01*
G75*
G02*
X48009840Y-142965222I0J-271702D01*
G01*
X48009840Y-143698818D01*
G75*
G02*
X47738138Y-143970520I-271702J0D01*
G01*
X46729542Y-143970520D01*
G75*
G02*
X46457840Y-143698818I0J271702D01*
G01*
X46457840Y-142965222D01*
G75*
G02*
X46729542Y-142693520I271702J0D01*
G01*
G37*
G36*
G01*
X46729542Y-140618520D02*
X47738138Y-140618520D01*
G75*
G02*
X48009840Y-140890222I0J-271702D01*
G01*
X48009840Y-141623818D01*
G75*
G02*
X47738138Y-141895520I-271702J0D01*
G01*
X46729542Y-141895520D01*
G75*
G02*
X46457840Y-141623818I0J271702D01*
G01*
X46457840Y-140890222D01*
G75*
G02*
X46729542Y-140618520I271702J0D01*
G01*
G37*
G36*
G01*
X92535700Y-130940702D02*
X92535700Y-131949298D01*
G75*
G02*
X92263998Y-132221000I-271702J0D01*
G01*
X91530402Y-132221000D01*
G75*
G02*
X91258700Y-131949298I0J271702D01*
G01*
X91258700Y-130940702D01*
G75*
G02*
X91530402Y-130669000I271702J0D01*
G01*
X92263998Y-130669000D01*
G75*
G02*
X92535700Y-130940702I0J-271702D01*
G01*
G37*
G36*
G01*
X94610700Y-130940702D02*
X94610700Y-131949298D01*
G75*
G02*
X94338998Y-132221000I-271702J0D01*
G01*
X93605402Y-132221000D01*
G75*
G02*
X93333700Y-131949298I0J271702D01*
G01*
X93333700Y-130940702D01*
G75*
G02*
X93605402Y-130669000I271702J0D01*
G01*
X94338998Y-130669000D01*
G75*
G02*
X94610700Y-130940702I0J-271702D01*
G01*
G37*
G36*
G01*
X64527322Y-95232440D02*
X65535918Y-95232440D01*
G75*
G02*
X65807620Y-95504142I0J-271702D01*
G01*
X65807620Y-96237738D01*
G75*
G02*
X65535918Y-96509440I-271702J0D01*
G01*
X64527322Y-96509440D01*
G75*
G02*
X64255620Y-96237738I0J271702D01*
G01*
X64255620Y-95504142D01*
G75*
G02*
X64527322Y-95232440I271702J0D01*
G01*
G37*
G36*
G01*
X64527322Y-93157440D02*
X65535918Y-93157440D01*
G75*
G02*
X65807620Y-93429142I0J-271702D01*
G01*
X65807620Y-94162738D01*
G75*
G02*
X65535918Y-94434440I-271702J0D01*
G01*
X64527322Y-94434440D01*
G75*
G02*
X64255620Y-94162738I0J271702D01*
G01*
X64255620Y-93429142D01*
G75*
G02*
X64527322Y-93157440I271702J0D01*
G01*
G37*
D10*
G36*
X96500732Y-144798000D02*
G01*
X96501000Y-144799000D01*
X96501000Y-144997000D01*
X96500000Y-144998732D01*
X96499000Y-144999000D01*
X94897000Y-144999000D01*
X94895268Y-144998000D01*
X94895000Y-144997000D01*
X94895000Y-144799000D01*
X94896000Y-144797268D01*
X94897000Y-144797000D01*
X96499000Y-144797000D01*
X96500732Y-144798000D01*
G37*
G36*
X96500732Y-143698000D02*
G01*
X96501000Y-143699000D01*
X96501000Y-143897000D01*
X96500000Y-143898732D01*
X96499000Y-143899000D01*
X94897000Y-143899000D01*
X94895268Y-143898000D01*
X94895000Y-143897000D01*
X94895000Y-143699000D01*
X94896000Y-143697268D01*
X94897000Y-143697000D01*
X96499000Y-143697000D01*
X96500732Y-143698000D01*
G37*
G36*
X96490732Y-142598000D02*
G01*
X96491000Y-142599000D01*
X96491000Y-142671907D01*
X96493372Y-142695992D01*
X96500372Y-142719067D01*
X96500764Y-142719800D01*
X96501000Y-142720743D01*
X96501000Y-142797000D01*
X96500000Y-142798732D01*
X96499000Y-142799000D01*
X94897000Y-142799000D01*
X94895268Y-142798000D01*
X94895000Y-142797000D01*
X94895000Y-142724093D01*
X94892628Y-142700008D01*
X94885628Y-142676933D01*
X94885236Y-142676200D01*
X94885000Y-142675257D01*
X94885000Y-142599000D01*
X94886000Y-142597268D01*
X94887000Y-142597000D01*
X96489000Y-142597000D01*
X96490732Y-142598000D01*
G37*
G36*
X53326912Y-141626940D02*
G01*
X53327180Y-141627940D01*
X53327180Y-141825940D01*
X53326180Y-141827672D01*
X53325180Y-141827940D01*
X51663180Y-141827940D01*
X51661448Y-141826940D01*
X51661180Y-141825940D01*
X51661180Y-141627940D01*
X51662180Y-141626208D01*
X51663180Y-141625940D01*
X53325180Y-141625940D01*
X53326912Y-141626940D01*
G37*
G36*
X96500732Y-141498000D02*
G01*
X96501000Y-141499000D01*
X96501000Y-141575257D01*
X96500764Y-141576200D01*
X96500372Y-141576933D01*
X96493372Y-141600008D01*
X96491000Y-141624093D01*
X96491000Y-141697000D01*
X96490000Y-141698732D01*
X96489000Y-141699000D01*
X94887000Y-141699000D01*
X94885268Y-141698000D01*
X94885000Y-141697000D01*
X94885000Y-141620743D01*
X94885236Y-141619800D01*
X94885628Y-141619067D01*
X94892628Y-141595992D01*
X94895000Y-141571907D01*
X94895000Y-141499000D01*
X94896000Y-141497268D01*
X94897000Y-141497000D01*
X96499000Y-141497000D01*
X96500732Y-141498000D01*
G37*
G36*
X53326912Y-140676940D02*
G01*
X53327180Y-140677940D01*
X53327180Y-140875940D01*
X53326180Y-140877672D01*
X53325180Y-140877940D01*
X51663180Y-140877940D01*
X51661448Y-140876940D01*
X51661180Y-140875940D01*
X51661180Y-140677940D01*
X51662180Y-140676208D01*
X51663180Y-140675940D01*
X53325180Y-140675940D01*
X53326912Y-140676940D01*
G37*
G36*
X96500732Y-140408000D02*
G01*
X96501000Y-140409000D01*
X96501000Y-140597000D01*
X96500000Y-140598732D01*
X96499000Y-140599000D01*
X94897000Y-140599000D01*
X94895268Y-140598000D01*
X94895000Y-140597000D01*
X94895000Y-140409000D01*
X94896000Y-140407268D01*
X94897000Y-140407000D01*
X96499000Y-140407000D01*
X96500732Y-140408000D01*
G37*
G36*
X96500732Y-139298000D02*
G01*
X96501000Y-139299000D01*
X96501000Y-139507000D01*
X96500000Y-139508732D01*
X96499000Y-139509000D01*
X94897000Y-139509000D01*
X94895268Y-139508000D01*
X94895000Y-139507000D01*
X94895000Y-139299000D01*
X94896000Y-139297268D01*
X94897000Y-139297000D01*
X96499000Y-139297000D01*
X96500732Y-139298000D01*
G37*
G36*
X96500732Y-138198000D02*
G01*
X96501000Y-138199000D01*
X96501000Y-138397000D01*
X96500000Y-138398732D01*
X96499000Y-138399000D01*
X94897000Y-138399000D01*
X94895268Y-138398000D01*
X94895000Y-138397000D01*
X94895000Y-138199000D01*
X94896000Y-138197268D01*
X94897000Y-138197000D01*
X96499000Y-138197000D01*
X96500732Y-138198000D01*
G37*
G36*
X54293575Y-113003400D02*
G01*
X54293843Y-113004400D01*
X54293843Y-114579600D01*
X54292843Y-114581332D01*
X54291843Y-114581600D01*
X54099431Y-114581600D01*
X54097699Y-114580600D01*
X54097431Y-114579600D01*
X54097431Y-113004400D01*
X54098431Y-113002668D01*
X54099431Y-113002400D01*
X54291843Y-113002400D01*
X54293575Y-113003400D01*
G37*
G36*
X53643563Y-113003400D02*
G01*
X53643831Y-113004400D01*
X53643831Y-114579600D01*
X53642831Y-114581332D01*
X53641831Y-114581600D01*
X53449420Y-114581600D01*
X53447688Y-114580600D01*
X53447420Y-114579600D01*
X53447420Y-113004400D01*
X53448420Y-113002668D01*
X53449420Y-113002400D01*
X53641831Y-113002400D01*
X53643563Y-113003400D01*
G37*
G36*
X52993552Y-113003400D02*
G01*
X52993820Y-113004400D01*
X52993820Y-114579600D01*
X52992820Y-114581332D01*
X52991820Y-114581600D01*
X52799409Y-114581600D01*
X52797677Y-114580600D01*
X52797409Y-114579600D01*
X52797409Y-113004400D01*
X52798409Y-113002668D01*
X52799409Y-113002400D01*
X52991820Y-113002400D01*
X52993552Y-113003400D01*
G37*
G36*
X52343541Y-113003400D02*
G01*
X52343809Y-113004400D01*
X52343809Y-114579600D01*
X52342809Y-114581332D01*
X52341809Y-114581600D01*
X52149397Y-114581600D01*
X52147665Y-114580600D01*
X52147397Y-114579600D01*
X52147397Y-113004400D01*
X52148397Y-113002668D01*
X52149397Y-113002400D01*
X52341809Y-113002400D01*
X52343541Y-113003400D01*
G37*
G36*
X51693529Y-113003400D02*
G01*
X51693797Y-113004400D01*
X51693797Y-114579600D01*
X51692797Y-114581332D01*
X51691797Y-114581600D01*
X51499386Y-114581600D01*
X51497654Y-114580600D01*
X51497386Y-114579600D01*
X51497386Y-113004400D01*
X51498386Y-113002668D01*
X51499386Y-113002400D01*
X51691797Y-113002400D01*
X51693529Y-113003400D01*
G37*
G36*
X54943586Y-113003400D02*
G01*
X54943854Y-113004400D01*
X54943854Y-114579600D01*
X54942854Y-114581332D01*
X54941854Y-114581600D01*
X54749443Y-114581600D01*
X54747711Y-114580600D01*
X54747443Y-114579600D01*
X54747443Y-113004400D01*
X54748443Y-113002668D01*
X54749443Y-113002400D01*
X54941854Y-113002400D01*
X54943586Y-113003400D01*
G37*
G36*
X52993552Y-107161400D02*
G01*
X52993820Y-107162400D01*
X52993820Y-108737600D01*
X52992820Y-108739332D01*
X52991820Y-108739600D01*
X52799409Y-108739600D01*
X52797677Y-108738600D01*
X52797409Y-108737600D01*
X52797409Y-107162400D01*
X52798409Y-107160668D01*
X52799409Y-107160400D01*
X52991820Y-107160400D01*
X52993552Y-107161400D01*
G37*
G36*
X54943586Y-107161400D02*
G01*
X54943854Y-107162400D01*
X54943854Y-108737600D01*
X54942854Y-108739332D01*
X54941854Y-108739600D01*
X54749443Y-108739600D01*
X54747711Y-108738600D01*
X54747443Y-108737600D01*
X54747443Y-107162400D01*
X54748443Y-107160668D01*
X54749443Y-107160400D01*
X54941854Y-107160400D01*
X54943586Y-107161400D01*
G37*
G36*
X53643563Y-107161400D02*
G01*
X53643831Y-107162400D01*
X53643831Y-108737600D01*
X53642831Y-108739332D01*
X53641831Y-108739600D01*
X53449420Y-108739600D01*
X53447688Y-108738600D01*
X53447420Y-108737600D01*
X53447420Y-107162400D01*
X53448420Y-107160668D01*
X53449420Y-107160400D01*
X53641831Y-107160400D01*
X53643563Y-107161400D01*
G37*
G36*
X52343541Y-107161400D02*
G01*
X52343809Y-107162400D01*
X52343809Y-108737600D01*
X52342809Y-108739332D01*
X52341809Y-108739600D01*
X52149397Y-108739600D01*
X52147665Y-108738600D01*
X52147397Y-108737600D01*
X52147397Y-107162400D01*
X52148397Y-107160668D01*
X52149397Y-107160400D01*
X52341809Y-107160400D01*
X52343541Y-107161400D01*
G37*
G36*
X51693529Y-107161400D02*
G01*
X51693797Y-107162400D01*
X51693797Y-108737600D01*
X51692797Y-108739332D01*
X51691797Y-108739600D01*
X51499386Y-108739600D01*
X51497654Y-108738600D01*
X51497386Y-108737600D01*
X51497386Y-107162400D01*
X51498386Y-107160668D01*
X51499386Y-107160400D01*
X51691797Y-107160400D01*
X51693529Y-107161400D01*
G37*
G36*
X54293575Y-107161400D02*
G01*
X54293843Y-107162400D01*
X54293843Y-108737600D01*
X54292843Y-108739332D01*
X54291843Y-108739600D01*
X54099431Y-108739600D01*
X54097699Y-108738600D01*
X54097431Y-108737600D01*
X54097431Y-107162400D01*
X54098431Y-107160668D01*
X54099431Y-107160400D01*
X54291843Y-107160400D01*
X54293575Y-107161400D01*
G37*
G36*
X71259312Y-94144220D02*
G01*
X71259580Y-94145220D01*
X71259580Y-94343220D01*
X71258580Y-94344952D01*
X71257580Y-94345220D01*
X69595580Y-94345220D01*
X69593848Y-94344220D01*
X69593580Y-94343220D01*
X69593580Y-94145220D01*
X69594580Y-94143488D01*
X69595580Y-94143220D01*
X71257580Y-94143220D01*
X71259312Y-94144220D01*
G37*
G36*
X71259312Y-93194220D02*
G01*
X71259580Y-93195220D01*
X71259580Y-93393220D01*
X71258580Y-93394952D01*
X71257580Y-93395220D01*
X69595580Y-93395220D01*
X69593848Y-93394220D01*
X69593580Y-93393220D01*
X69593580Y-93195220D01*
X69594580Y-93193488D01*
X69595580Y-93193220D01*
X71257580Y-93193220D01*
X71259312Y-93194220D01*
G37*
M02*
