G04 #@! TF.GenerationSoftware,KiCad,Pcbnew,(5.1.9)-1*
G04 #@! TF.CreationDate,2021-07-15T19:39:11-04:00*
G04 #@! TF.ProjectId,payload2020_base_board,7061796c-6f61-4643-9230-32305f626173,rev?*
G04 #@! TF.SameCoordinates,Original*
G04 #@! TF.FileFunction,Legend,Bot*
G04 #@! TF.FilePolarity,Positive*
%FSLAX46Y46*%
G04 Gerber Fmt 4.6, Leading zero omitted, Abs format (unit mm)*
G04 Created by KiCad (PCBNEW (5.1.9)-1) date 2021-07-15 19:39:11*
%MOMM*%
%LPD*%
G01*
G04 APERTURE LIST*
%ADD10C,0.150000*%
%ADD11C,0.120000*%
%ADD12C,0.300000*%
G04 APERTURE END LIST*
D10*
X113029952Y-136469428D02*
X112268047Y-136469428D01*
X112649000Y-136850380D02*
X112649000Y-136088476D01*
X113004552Y-138450628D02*
X112242647Y-138450628D01*
X112801352Y-130500428D02*
X112039447Y-130500428D01*
X112826752Y-128519228D02*
X112064847Y-128519228D01*
X112445800Y-128900180D02*
X112445800Y-128138276D01*
X112699752Y-122601028D02*
X111937847Y-122601028D01*
X112725152Y-120619828D02*
X111963247Y-120619828D01*
X112344200Y-121000780D02*
X112344200Y-120238876D01*
X112623552Y-113888828D02*
X111861647Y-113888828D01*
X112648952Y-111907628D02*
X111887047Y-111907628D01*
X112268000Y-112288580D02*
X112268000Y-111526676D01*
D11*
X149539960Y-132031740D02*
X149857460Y-131681220D01*
X149539960Y-132021580D02*
X149212300Y-131660900D01*
X149534880Y-130738880D02*
X149539960Y-132021580D01*
D10*
X152826219Y-130129588D02*
X152064314Y-130129588D01*
X152445266Y-130510540D02*
X152445266Y-129748636D01*
X151111933Y-129510540D02*
X151588123Y-129510540D01*
X151635742Y-129986731D01*
X151588123Y-129939112D01*
X151492885Y-129891493D01*
X151254790Y-129891493D01*
X151159552Y-129939112D01*
X151111933Y-129986731D01*
X151064314Y-130081969D01*
X151064314Y-130320064D01*
X151111933Y-130415302D01*
X151159552Y-130462921D01*
X151254790Y-130510540D01*
X151492885Y-130510540D01*
X151588123Y-130462921D01*
X151635742Y-130415302D01*
X150635742Y-130415302D02*
X150588123Y-130462921D01*
X150635742Y-130510540D01*
X150683361Y-130462921D01*
X150635742Y-130415302D01*
X150635742Y-130510540D01*
X150254790Y-129510540D02*
X149635742Y-129510540D01*
X149969076Y-129891493D01*
X149826219Y-129891493D01*
X149730980Y-129939112D01*
X149683361Y-129986731D01*
X149635742Y-130081969D01*
X149635742Y-130320064D01*
X149683361Y-130415302D01*
X149730980Y-130462921D01*
X149826219Y-130510540D01*
X150111933Y-130510540D01*
X150207171Y-130462921D01*
X150254790Y-130415302D01*
X149350028Y-129510540D02*
X149016695Y-130510540D01*
X148683361Y-129510540D01*
X147635742Y-130224826D02*
X147159552Y-130224826D01*
X147730980Y-130510540D02*
X147397647Y-129510540D01*
X147064314Y-130510540D01*
X146254790Y-130510540D02*
X146730980Y-130510540D01*
X146730980Y-129510540D01*
X146016695Y-129510540D02*
X145778600Y-130510540D01*
X145588123Y-129796255D01*
X145397647Y-130510540D01*
X145159552Y-129510540D01*
X144826219Y-130224826D02*
X144350028Y-130224826D01*
X144921457Y-130510540D02*
X144588123Y-129510540D01*
X144254790Y-130510540D01*
X143730980Y-130034350D02*
X143730980Y-130510540D01*
X144064314Y-129510540D02*
X143730980Y-130034350D01*
X143397647Y-129510540D01*
X143111933Y-130462921D02*
X142969076Y-130510540D01*
X142730980Y-130510540D01*
X142635742Y-130462921D01*
X142588123Y-130415302D01*
X142540504Y-130320064D01*
X142540504Y-130224826D01*
X142588123Y-130129588D01*
X142635742Y-130081969D01*
X142730980Y-130034350D01*
X142921457Y-129986731D01*
X143016695Y-129939112D01*
X143064314Y-129891493D01*
X143111933Y-129796255D01*
X143111933Y-129701017D01*
X143064314Y-129605779D01*
X143016695Y-129558160D01*
X142921457Y-129510540D01*
X142683361Y-129510540D01*
X142540504Y-129558160D01*
X141159552Y-129510540D02*
X140969076Y-129510540D01*
X140873838Y-129558160D01*
X140778600Y-129653398D01*
X140730980Y-129843874D01*
X140730980Y-130177207D01*
X140778600Y-130367683D01*
X140873838Y-130462921D01*
X140969076Y-130510540D01*
X141159552Y-130510540D01*
X141254790Y-130462921D01*
X141350028Y-130367683D01*
X141397647Y-130177207D01*
X141397647Y-129843874D01*
X141350028Y-129653398D01*
X141254790Y-129558160D01*
X141159552Y-129510540D01*
X140302409Y-130510540D02*
X140302409Y-129510540D01*
X139730980Y-130510540D01*
X139730980Y-129510540D01*
D11*
X123301760Y-75133200D02*
X122382280Y-75133200D01*
X122377200Y-74325480D02*
X122377200Y-75920600D01*
X121224040Y-75128120D02*
X120228360Y-75128120D01*
X122372120Y-75123040D02*
X121229120Y-74340720D01*
X121229120Y-75885040D02*
X122372120Y-75123040D01*
X121229120Y-74340720D02*
X121229120Y-75885040D01*
X148427440Y-133949440D02*
X148102320Y-134406640D01*
X148046440Y-133568440D02*
X148427440Y-133949440D01*
X148427440Y-133949440D02*
X148046440Y-133568440D01*
X146743420Y-133954520D02*
X148427440Y-133949440D01*
X140693140Y-133934200D02*
X141033500Y-134315200D01*
X140713460Y-133934200D02*
X140992860Y-133573520D01*
X142184120Y-133936740D02*
X140713460Y-133934200D01*
D12*
X146276771Y-134508631D02*
X146276771Y-133008631D01*
X145919628Y-133008631D01*
X145705342Y-133080060D01*
X145562485Y-133222917D01*
X145491057Y-133365774D01*
X145419628Y-133651488D01*
X145419628Y-133865774D01*
X145491057Y-134151488D01*
X145562485Y-134294345D01*
X145705342Y-134437202D01*
X145919628Y-134508631D01*
X146276771Y-134508631D01*
X144776771Y-134508631D02*
X144776771Y-133008631D01*
X143919628Y-134508631D01*
X143919628Y-133008631D01*
X143205342Y-134508631D02*
X143205342Y-133008631D01*
X142633914Y-133008631D01*
X142491057Y-133080060D01*
X142419628Y-133151488D01*
X142348200Y-133294345D01*
X142348200Y-133508631D01*
X142419628Y-133651488D01*
X142491057Y-133722917D01*
X142633914Y-133794345D01*
X143205342Y-133794345D01*
D11*
X148336000Y-69296280D02*
X148315680Y-96860360D01*
D10*
X147547980Y-144143361D02*
X147405123Y-144190980D01*
X147167028Y-144190980D01*
X147071790Y-144143361D01*
X147024171Y-144095742D01*
X146976552Y-144000504D01*
X146976552Y-143905266D01*
X147024171Y-143810028D01*
X147071790Y-143762409D01*
X147167028Y-143714790D01*
X147357504Y-143667171D01*
X147452742Y-143619552D01*
X147500361Y-143571933D01*
X147547980Y-143476695D01*
X147547980Y-143381457D01*
X147500361Y-143286219D01*
X147452742Y-143238600D01*
X147357504Y-143190980D01*
X147119409Y-143190980D01*
X146976552Y-143238600D01*
X146405123Y-144190980D02*
X146500361Y-144143361D01*
X146547980Y-144048123D01*
X146547980Y-143190980D01*
X145643219Y-144143361D02*
X145738457Y-144190980D01*
X145928933Y-144190980D01*
X146024171Y-144143361D01*
X146071790Y-144048123D01*
X146071790Y-143667171D01*
X146024171Y-143571933D01*
X145928933Y-143524314D01*
X145738457Y-143524314D01*
X145643219Y-143571933D01*
X145595600Y-143667171D01*
X145595600Y-143762409D01*
X146071790Y-143857647D01*
X144786076Y-144143361D02*
X144881314Y-144190980D01*
X145071790Y-144190980D01*
X145167028Y-144143361D01*
X145214647Y-144048123D01*
X145214647Y-143667171D01*
X145167028Y-143571933D01*
X145071790Y-143524314D01*
X144881314Y-143524314D01*
X144786076Y-143571933D01*
X144738457Y-143667171D01*
X144738457Y-143762409D01*
X145214647Y-143857647D01*
X144309885Y-143524314D02*
X144309885Y-144524314D01*
X144309885Y-143571933D02*
X144214647Y-143524314D01*
X144024171Y-143524314D01*
X143928933Y-143571933D01*
X143881314Y-143619552D01*
X143833695Y-143714790D01*
X143833695Y-144000504D01*
X143881314Y-144095742D01*
X143928933Y-144143361D01*
X144024171Y-144190980D01*
X144214647Y-144190980D01*
X144309885Y-144143361D01*
X142071790Y-144095742D02*
X142119409Y-144143361D01*
X142262266Y-144190980D01*
X142357504Y-144190980D01*
X142500361Y-144143361D01*
X142595600Y-144048123D01*
X142643219Y-143952885D01*
X142690838Y-143762409D01*
X142690838Y-143619552D01*
X142643219Y-143429076D01*
X142595600Y-143333838D01*
X142500361Y-143238600D01*
X142357504Y-143190980D01*
X142262266Y-143190980D01*
X142119409Y-143238600D01*
X142071790Y-143286219D01*
X141500361Y-144190980D02*
X141595600Y-144143361D01*
X141643219Y-144095742D01*
X141690838Y-144000504D01*
X141690838Y-143714790D01*
X141643219Y-143619552D01*
X141595600Y-143571933D01*
X141500361Y-143524314D01*
X141357504Y-143524314D01*
X141262266Y-143571933D01*
X141214647Y-143619552D01*
X141167028Y-143714790D01*
X141167028Y-144000504D01*
X141214647Y-144095742D01*
X141262266Y-144143361D01*
X141357504Y-144190980D01*
X141500361Y-144190980D01*
X140738457Y-143524314D02*
X140738457Y-144190980D01*
X140738457Y-143619552D02*
X140690838Y-143571933D01*
X140595600Y-143524314D01*
X140452742Y-143524314D01*
X140357504Y-143571933D01*
X140309885Y-143667171D01*
X140309885Y-144190980D01*
X139976552Y-143524314D02*
X139595600Y-143524314D01*
X139833695Y-143190980D02*
X139833695Y-144048123D01*
X139786076Y-144143361D01*
X139690838Y-144190980D01*
X139595600Y-144190980D01*
X139262266Y-144190980D02*
X139262266Y-143524314D01*
X139262266Y-143714790D02*
X139214647Y-143619552D01*
X139167028Y-143571933D01*
X139071790Y-143524314D01*
X138976552Y-143524314D01*
X138500361Y-144190980D02*
X138595600Y-144143361D01*
X138643219Y-144095742D01*
X138690838Y-144000504D01*
X138690838Y-143714790D01*
X138643219Y-143619552D01*
X138595600Y-143571933D01*
X138500361Y-143524314D01*
X138357504Y-143524314D01*
X138262266Y-143571933D01*
X138214647Y-143619552D01*
X138167028Y-143714790D01*
X138167028Y-144000504D01*
X138214647Y-144095742D01*
X138262266Y-144143361D01*
X138357504Y-144190980D01*
X138500361Y-144190980D01*
X137595600Y-144190980D02*
X137690838Y-144143361D01*
X137738457Y-144048123D01*
X137738457Y-143190980D01*
D11*
X148336000Y-69296280D02*
X111861600Y-69291200D01*
X111861600Y-96850200D02*
X148310600Y-96865440D01*
X111861600Y-69291200D02*
X111861600Y-96850200D01*
D10*
X102633471Y-134431969D02*
X102681090Y-134574826D01*
X102728709Y-134622445D01*
X102823947Y-134670064D01*
X102966804Y-134670064D01*
X103062042Y-134622445D01*
X103109661Y-134574826D01*
X103157280Y-134479588D01*
X103157280Y-134098636D01*
X102157280Y-134098636D01*
X102157280Y-134431969D01*
X102204900Y-134527207D01*
X102252519Y-134574826D01*
X102347757Y-134622445D01*
X102442995Y-134622445D01*
X102538233Y-134574826D01*
X102585852Y-134527207D01*
X102633471Y-134431969D01*
X102633471Y-134098636D01*
X102871566Y-135051017D02*
X102871566Y-135527207D01*
X103157280Y-134955779D02*
X102157280Y-135289112D01*
X103157280Y-135622445D01*
X102157280Y-135812921D02*
X102157280Y-136384350D01*
X103157280Y-136098636D02*
X102157280Y-136098636D01*
X102157280Y-136574826D02*
X102157280Y-137146255D01*
X103157280Y-136860540D02*
X102157280Y-136860540D01*
X103252519Y-137241493D02*
X103252519Y-138003398D01*
X102490614Y-138670064D02*
X103157280Y-138670064D01*
X102109661Y-138431969D02*
X102823947Y-138193874D01*
X102823947Y-138812921D01*
X102562351Y-126547809D02*
X102609970Y-126690666D01*
X102657589Y-126738285D01*
X102752827Y-126785904D01*
X102895684Y-126785904D01*
X102990922Y-126738285D01*
X103038541Y-126690666D01*
X103086160Y-126595428D01*
X103086160Y-126214476D01*
X102086160Y-126214476D01*
X102086160Y-126547809D01*
X102133780Y-126643047D01*
X102181399Y-126690666D01*
X102276637Y-126738285D01*
X102371875Y-126738285D01*
X102467113Y-126690666D01*
X102514732Y-126643047D01*
X102562351Y-126547809D01*
X102562351Y-126214476D01*
X102800446Y-127166857D02*
X102800446Y-127643047D01*
X103086160Y-127071619D02*
X102086160Y-127404952D01*
X103086160Y-127738285D01*
X102086160Y-127928761D02*
X102086160Y-128500190D01*
X103086160Y-128214476D02*
X102086160Y-128214476D01*
X102086160Y-128690666D02*
X102086160Y-129262095D01*
X103086160Y-128976380D02*
X102086160Y-128976380D01*
X103181399Y-129357333D02*
X103181399Y-130119238D01*
X102086160Y-130262095D02*
X102086160Y-130881142D01*
X102467113Y-130547809D01*
X102467113Y-130690666D01*
X102514732Y-130785904D01*
X102562351Y-130833523D01*
X102657589Y-130881142D01*
X102895684Y-130881142D01*
X102990922Y-130833523D01*
X103038541Y-130785904D01*
X103086160Y-130690666D01*
X103086160Y-130404952D01*
X103038541Y-130309714D01*
X102990922Y-130262095D01*
X102577591Y-118595069D02*
X102625210Y-118737926D01*
X102672829Y-118785545D01*
X102768067Y-118833164D01*
X102910924Y-118833164D01*
X103006162Y-118785545D01*
X103053781Y-118737926D01*
X103101400Y-118642688D01*
X103101400Y-118261736D01*
X102101400Y-118261736D01*
X102101400Y-118595069D01*
X102149020Y-118690307D01*
X102196639Y-118737926D01*
X102291877Y-118785545D01*
X102387115Y-118785545D01*
X102482353Y-118737926D01*
X102529972Y-118690307D01*
X102577591Y-118595069D01*
X102577591Y-118261736D01*
X102815686Y-119214117D02*
X102815686Y-119690307D01*
X103101400Y-119118879D02*
X102101400Y-119452212D01*
X103101400Y-119785545D01*
X102101400Y-119976021D02*
X102101400Y-120547450D01*
X103101400Y-120261736D02*
X102101400Y-120261736D01*
X102101400Y-120737926D02*
X102101400Y-121309355D01*
X103101400Y-121023640D02*
X102101400Y-121023640D01*
X103196639Y-121404593D02*
X103196639Y-122166498D01*
X102196639Y-122356974D02*
X102149020Y-122404593D01*
X102101400Y-122499831D01*
X102101400Y-122737926D01*
X102149020Y-122833164D01*
X102196639Y-122880783D01*
X102291877Y-122928402D01*
X102387115Y-122928402D01*
X102529972Y-122880783D01*
X103101400Y-122309355D01*
X103101400Y-122928402D01*
X102747771Y-110809969D02*
X102795390Y-110952826D01*
X102843009Y-111000445D01*
X102938247Y-111048064D01*
X103081104Y-111048064D01*
X103176342Y-111000445D01*
X103223961Y-110952826D01*
X103271580Y-110857588D01*
X103271580Y-110476636D01*
X102271580Y-110476636D01*
X102271580Y-110809969D01*
X102319200Y-110905207D01*
X102366819Y-110952826D01*
X102462057Y-111000445D01*
X102557295Y-111000445D01*
X102652533Y-110952826D01*
X102700152Y-110905207D01*
X102747771Y-110809969D01*
X102747771Y-110476636D01*
X102985866Y-111429017D02*
X102985866Y-111905207D01*
X103271580Y-111333779D02*
X102271580Y-111667112D01*
X103271580Y-112000445D01*
X102271580Y-112190921D02*
X102271580Y-112762350D01*
X103271580Y-112476636D02*
X102271580Y-112476636D01*
X102271580Y-112952826D02*
X102271580Y-113524255D01*
X103271580Y-113238540D02*
X102271580Y-113238540D01*
X103366819Y-113619493D02*
X103366819Y-114381398D01*
X103271580Y-115143302D02*
X103271580Y-114571874D01*
X103271580Y-114857588D02*
X102271580Y-114857588D01*
X102414438Y-114762350D01*
X102509676Y-114667112D01*
X102557295Y-114571874D01*
X147217970Y-95288408D02*
X146456065Y-95288408D01*
X146837018Y-95669360D02*
X146837018Y-94907456D01*
X145503684Y-94669360D02*
X145979875Y-94669360D01*
X146027494Y-95145551D01*
X145979875Y-95097932D01*
X145884637Y-95050313D01*
X145646541Y-95050313D01*
X145551303Y-95097932D01*
X145503684Y-95145551D01*
X145456065Y-95240789D01*
X145456065Y-95478884D01*
X145503684Y-95574122D01*
X145551303Y-95621741D01*
X145646541Y-95669360D01*
X145884637Y-95669360D01*
X145979875Y-95621741D01*
X146027494Y-95574122D01*
X145027494Y-95574122D02*
X144979875Y-95621741D01*
X145027494Y-95669360D01*
X145075113Y-95621741D01*
X145027494Y-95574122D01*
X145027494Y-95669360D01*
X144646541Y-94669360D02*
X144027494Y-94669360D01*
X144360827Y-95050313D01*
X144217970Y-95050313D01*
X144122732Y-95097932D01*
X144075113Y-95145551D01*
X144027494Y-95240789D01*
X144027494Y-95478884D01*
X144075113Y-95574122D01*
X144122732Y-95621741D01*
X144217970Y-95669360D01*
X144503684Y-95669360D01*
X144598922Y-95621741D01*
X144646541Y-95574122D01*
X143741780Y-94669360D02*
X143408446Y-95669360D01*
X143075113Y-94669360D01*
X141408446Y-95669360D02*
X141741780Y-95193170D01*
X141979875Y-95669360D02*
X141979875Y-94669360D01*
X141598922Y-94669360D01*
X141503684Y-94716980D01*
X141456065Y-94764599D01*
X141408446Y-94859837D01*
X141408446Y-95002694D01*
X141456065Y-95097932D01*
X141503684Y-95145551D01*
X141598922Y-95193170D01*
X141979875Y-95193170D01*
X140598922Y-95621741D02*
X140694160Y-95669360D01*
X140884637Y-95669360D01*
X140979875Y-95621741D01*
X141027494Y-95526503D01*
X141027494Y-95145551D01*
X140979875Y-95050313D01*
X140884637Y-95002694D01*
X140694160Y-95002694D01*
X140598922Y-95050313D01*
X140551303Y-95145551D01*
X140551303Y-95240789D01*
X141027494Y-95336027D01*
X139694160Y-95002694D02*
X139694160Y-95812218D01*
X139741780Y-95907456D01*
X139789399Y-95955075D01*
X139884637Y-96002694D01*
X140027494Y-96002694D01*
X140122732Y-95955075D01*
X139694160Y-95621741D02*
X139789399Y-95669360D01*
X139979875Y-95669360D01*
X140075113Y-95621741D01*
X140122732Y-95574122D01*
X140170351Y-95478884D01*
X140170351Y-95193170D01*
X140122732Y-95097932D01*
X140075113Y-95050313D01*
X139979875Y-95002694D01*
X139789399Y-95002694D01*
X139694160Y-95050313D01*
X138789399Y-95002694D02*
X138789399Y-95669360D01*
X139217970Y-95002694D02*
X139217970Y-95526503D01*
X139170351Y-95621741D01*
X139075113Y-95669360D01*
X138932256Y-95669360D01*
X138837018Y-95621741D01*
X138789399Y-95574122D01*
X138170351Y-95669360D02*
X138265589Y-95621741D01*
X138313208Y-95526503D01*
X138313208Y-94669360D01*
X137360827Y-95669360D02*
X137360827Y-95145551D01*
X137408446Y-95050313D01*
X137503684Y-95002694D01*
X137694160Y-95002694D01*
X137789399Y-95050313D01*
X137360827Y-95621741D02*
X137456065Y-95669360D01*
X137694160Y-95669360D01*
X137789399Y-95621741D01*
X137837018Y-95526503D01*
X137837018Y-95431265D01*
X137789399Y-95336027D01*
X137694160Y-95288408D01*
X137456065Y-95288408D01*
X137360827Y-95240789D01*
X137027494Y-95002694D02*
X136646541Y-95002694D01*
X136884637Y-94669360D02*
X136884637Y-95526503D01*
X136837018Y-95621741D01*
X136741780Y-95669360D01*
X136646541Y-95669360D01*
X136170351Y-95669360D02*
X136265589Y-95621741D01*
X136313208Y-95574122D01*
X136360827Y-95478884D01*
X136360827Y-95193170D01*
X136313208Y-95097932D01*
X136265589Y-95050313D01*
X136170351Y-95002694D01*
X136027494Y-95002694D01*
X135932256Y-95050313D01*
X135884637Y-95097932D01*
X135837018Y-95193170D01*
X135837018Y-95478884D01*
X135884637Y-95574122D01*
X135932256Y-95621741D01*
X136027494Y-95669360D01*
X136170351Y-95669360D01*
X135408446Y-95669360D02*
X135408446Y-95002694D01*
X135408446Y-95193170D02*
X135360827Y-95097932D01*
X135313208Y-95050313D01*
X135217970Y-95002694D01*
X135122732Y-95002694D01*
D11*
X111225000Y-99811064D02*
X111225000Y-99356936D01*
X109755000Y-99811064D02*
X109755000Y-99356936D01*
X111225000Y-104814864D02*
X111225000Y-104360736D01*
X109755000Y-104814864D02*
X109755000Y-104360736D01*
X138815304Y-132663260D02*
X138361176Y-132663260D01*
X138815304Y-134133260D02*
X138361176Y-134133260D01*
X150241940Y-134373864D02*
X150241940Y-133919736D01*
X148771940Y-134373864D02*
X148771940Y-133919736D01*
X147115000Y-140673064D02*
X147115000Y-140218936D01*
X148585000Y-140673064D02*
X148585000Y-140218936D01*
X156224200Y-108191300D02*
X156224200Y-104331300D01*
X156224200Y-104331300D02*
X156869200Y-104331300D01*
X156224200Y-108191300D02*
X156224200Y-112051300D01*
X156224200Y-112051300D02*
X156869200Y-112051300D01*
X175144200Y-108191300D02*
X175144200Y-104331300D01*
X175144200Y-104331300D02*
X174499200Y-104331300D01*
X175144200Y-108191300D02*
X175144200Y-112051300D01*
X175144200Y-112051300D02*
X174499200Y-112051300D01*
X174499200Y-112051300D02*
X174499200Y-113891300D01*
X159112900Y-136982200D02*
X159112900Y-138932200D01*
X159112900Y-136982200D02*
X159112900Y-135032200D01*
X153992900Y-136982200D02*
X153992900Y-138932200D01*
X153992900Y-136982200D02*
X153992900Y-133532200D01*
X122350800Y-82379200D02*
X123850800Y-82379200D01*
X123850800Y-82379200D02*
X123850800Y-83069200D01*
X123850800Y-83069200D02*
X128975800Y-83069200D01*
X122350800Y-92779200D02*
X123850800Y-92779200D01*
X123850800Y-92779200D02*
X123850800Y-92089200D01*
X123850800Y-92089200D02*
X124950800Y-92089200D01*
X160526000Y-86832200D02*
X154126000Y-86832200D01*
X160526000Y-91882200D02*
X154126000Y-91882200D01*
X154126000Y-91882200D02*
G75*
G02*
X154126000Y-86832200I0J2525000D01*
G01*
X160526000Y-91882200D02*
G75*
G03*
X160526000Y-86832200I0J2525000D01*
G01*
X168349200Y-118988600D02*
X161949200Y-118988600D01*
X168349200Y-124038600D02*
X161949200Y-124038600D01*
X161949200Y-124038600D02*
G75*
G02*
X161949200Y-118988600I0J2525000D01*
G01*
X168349200Y-124038600D02*
G75*
G03*
X168349200Y-118988600I0J2525000D01*
G01*
X171557000Y-83134200D02*
X171557000Y-81184200D01*
X171557000Y-83134200D02*
X171557000Y-85084200D01*
X176677000Y-83134200D02*
X176677000Y-81184200D01*
X176677000Y-83134200D02*
X176677000Y-86584200D01*
X153881000Y-78435200D02*
X153881000Y-74575200D01*
X153881000Y-74575200D02*
X154126000Y-74575200D01*
X153881000Y-78435200D02*
X153881000Y-82295200D01*
X153881000Y-82295200D02*
X154126000Y-82295200D01*
X165651000Y-78435200D02*
X165651000Y-74575200D01*
X165651000Y-74575200D02*
X165406000Y-74575200D01*
X165651000Y-78435200D02*
X165651000Y-82295200D01*
X165651000Y-82295200D02*
X165406000Y-82295200D01*
X165406000Y-82295200D02*
X165406000Y-84110200D01*
X164067224Y-68916880D02*
X163613096Y-68916880D01*
X164067224Y-70386880D02*
X163613096Y-70386880D01*
X133409360Y-90055944D02*
X133409360Y-89601816D01*
X131939360Y-90055944D02*
X131939360Y-89601816D01*
X135946820Y-90016824D02*
X135946820Y-89562696D01*
X134476820Y-90016824D02*
X134476820Y-89562696D01*
X180017664Y-121540600D02*
X179563536Y-121540600D01*
X180017664Y-123010600D02*
X179563536Y-123010600D01*
X176960000Y-118019336D02*
X176960000Y-118473464D01*
X178430000Y-118019336D02*
X178430000Y-118473464D01*
X141813000Y-135615000D02*
X143313000Y-135615000D01*
X143313000Y-135615000D02*
X143313000Y-135885000D01*
X143313000Y-135885000D02*
X146143000Y-135885000D01*
X141813000Y-142515000D02*
X143313000Y-142515000D01*
X143313000Y-142515000D02*
X143313000Y-142245000D01*
X143313000Y-142245000D02*
X144413000Y-142245000D01*
X130677600Y-73249200D02*
X130677600Y-69649200D01*
X130677600Y-69649200D02*
X143677600Y-69649200D01*
X143677600Y-69649200D02*
X143677600Y-73249200D01*
X130677600Y-79049200D02*
X130677600Y-82649200D01*
X130677600Y-82649200D02*
X143677600Y-82649200D01*
X143677600Y-82649200D02*
X143677600Y-79049200D01*
X110482080Y-139323020D02*
X110482080Y-139603020D01*
X110482080Y-139603020D02*
X112082080Y-139603020D01*
X112082080Y-139603020D02*
X112082080Y-140523020D01*
X112082080Y-140523020D02*
X104262080Y-140523020D01*
X104262080Y-140523020D02*
X104262080Y-134403020D01*
X104262080Y-134403020D02*
X112082080Y-134403020D01*
X112082080Y-134403020D02*
X112082080Y-135323020D01*
X112082080Y-135323020D02*
X110482080Y-135323020D01*
X110482080Y-135323020D02*
X110482080Y-135603020D01*
X104262080Y-137963020D02*
X108622080Y-137963020D01*
X108622080Y-137963020D02*
X108622080Y-136963020D01*
X108622080Y-136963020D02*
X104262080Y-136963020D01*
X110482080Y-140523020D02*
X110482080Y-139603020D01*
X110482080Y-134403020D02*
X110482080Y-135323020D01*
X108122080Y-139763020D02*
X106522080Y-139763020D01*
X106522080Y-139763020D02*
X106522080Y-138763020D01*
X106522080Y-138763020D02*
X108122080Y-138763020D01*
X108122080Y-138763020D02*
X108122080Y-139763020D01*
X108122080Y-135163020D02*
X106522080Y-135163020D01*
X106522080Y-135163020D02*
X106522080Y-136163020D01*
X106522080Y-136163020D02*
X108122080Y-136163020D01*
X108122080Y-136163020D02*
X108122080Y-135163020D01*
X106522080Y-138763020D02*
X104262080Y-138763020D01*
X106522080Y-139263020D02*
X104262080Y-139263020D01*
X110482080Y-139323020D02*
X111697080Y-139323020D01*
X110482080Y-131400760D02*
X110482080Y-131680760D01*
X110482080Y-131680760D02*
X112082080Y-131680760D01*
X112082080Y-131680760D02*
X112082080Y-132600760D01*
X112082080Y-132600760D02*
X104262080Y-132600760D01*
X104262080Y-132600760D02*
X104262080Y-126480760D01*
X104262080Y-126480760D02*
X112082080Y-126480760D01*
X112082080Y-126480760D02*
X112082080Y-127400760D01*
X112082080Y-127400760D02*
X110482080Y-127400760D01*
X110482080Y-127400760D02*
X110482080Y-127680760D01*
X104262080Y-130040760D02*
X108622080Y-130040760D01*
X108622080Y-130040760D02*
X108622080Y-129040760D01*
X108622080Y-129040760D02*
X104262080Y-129040760D01*
X110482080Y-132600760D02*
X110482080Y-131680760D01*
X110482080Y-126480760D02*
X110482080Y-127400760D01*
X108122080Y-131840760D02*
X106522080Y-131840760D01*
X106522080Y-131840760D02*
X106522080Y-130840760D01*
X106522080Y-130840760D02*
X108122080Y-130840760D01*
X108122080Y-130840760D02*
X108122080Y-131840760D01*
X108122080Y-127240760D02*
X106522080Y-127240760D01*
X106522080Y-127240760D02*
X106522080Y-128240760D01*
X106522080Y-128240760D02*
X108122080Y-128240760D01*
X108122080Y-128240760D02*
X108122080Y-127240760D01*
X106522080Y-130840760D02*
X104262080Y-130840760D01*
X106522080Y-131340760D02*
X104262080Y-131340760D01*
X110482080Y-131400760D02*
X111697080Y-131400760D01*
X110525260Y-123409920D02*
X110525260Y-123689920D01*
X110525260Y-123689920D02*
X112125260Y-123689920D01*
X112125260Y-123689920D02*
X112125260Y-124609920D01*
X112125260Y-124609920D02*
X104305260Y-124609920D01*
X104305260Y-124609920D02*
X104305260Y-118489920D01*
X104305260Y-118489920D02*
X112125260Y-118489920D01*
X112125260Y-118489920D02*
X112125260Y-119409920D01*
X112125260Y-119409920D02*
X110525260Y-119409920D01*
X110525260Y-119409920D02*
X110525260Y-119689920D01*
X104305260Y-122049920D02*
X108665260Y-122049920D01*
X108665260Y-122049920D02*
X108665260Y-121049920D01*
X108665260Y-121049920D02*
X104305260Y-121049920D01*
X110525260Y-124609920D02*
X110525260Y-123689920D01*
X110525260Y-118489920D02*
X110525260Y-119409920D01*
X108165260Y-123849920D02*
X106565260Y-123849920D01*
X106565260Y-123849920D02*
X106565260Y-122849920D01*
X106565260Y-122849920D02*
X108165260Y-122849920D01*
X108165260Y-122849920D02*
X108165260Y-123849920D01*
X108165260Y-119249920D02*
X106565260Y-119249920D01*
X106565260Y-119249920D02*
X106565260Y-120249920D01*
X106565260Y-120249920D02*
X108165260Y-120249920D01*
X108165260Y-120249920D02*
X108165260Y-119249920D01*
X106565260Y-122849920D02*
X104305260Y-122849920D01*
X106565260Y-123349920D02*
X104305260Y-123349920D01*
X110525260Y-123409920D02*
X111740260Y-123409920D01*
X110362700Y-114766300D02*
X110362700Y-115046300D01*
X110362700Y-115046300D02*
X111962700Y-115046300D01*
X111962700Y-115046300D02*
X111962700Y-115966300D01*
X111962700Y-115966300D02*
X104142700Y-115966300D01*
X104142700Y-115966300D02*
X104142700Y-109846300D01*
X104142700Y-109846300D02*
X111962700Y-109846300D01*
X111962700Y-109846300D02*
X111962700Y-110766300D01*
X111962700Y-110766300D02*
X110362700Y-110766300D01*
X110362700Y-110766300D02*
X110362700Y-111046300D01*
X104142700Y-113406300D02*
X108502700Y-113406300D01*
X108502700Y-113406300D02*
X108502700Y-112406300D01*
X108502700Y-112406300D02*
X104142700Y-112406300D01*
X110362700Y-115966300D02*
X110362700Y-115046300D01*
X110362700Y-109846300D02*
X110362700Y-110766300D01*
X108002700Y-115206300D02*
X106402700Y-115206300D01*
X106402700Y-115206300D02*
X106402700Y-114206300D01*
X106402700Y-114206300D02*
X108002700Y-114206300D01*
X108002700Y-114206300D02*
X108002700Y-115206300D01*
X108002700Y-110606300D02*
X106402700Y-110606300D01*
X106402700Y-110606300D02*
X106402700Y-111606300D01*
X106402700Y-111606300D02*
X108002700Y-111606300D01*
X108002700Y-111606300D02*
X108002700Y-110606300D01*
X106402700Y-114206300D02*
X104142700Y-114206300D01*
X106402700Y-114706300D02*
X104142700Y-114706300D01*
X110362700Y-114766300D02*
X111577700Y-114766300D01*
X113859240Y-133274168D02*
X113859240Y-133796672D01*
X115279240Y-133274168D02*
X115279240Y-133796672D01*
X113859240Y-125365768D02*
X113859240Y-125888272D01*
X115279240Y-125365768D02*
X115279240Y-125888272D01*
X113783040Y-117235228D02*
X113783040Y-117757732D01*
X115203040Y-117235228D02*
X115203040Y-117757732D01*
X126127600Y-73483200D02*
X126127600Y-76783200D01*
X126127600Y-76783200D02*
X119227600Y-76783200D01*
X126127600Y-73483200D02*
X119227600Y-73483200D01*
X173872348Y-78222780D02*
X174394852Y-78222780D01*
X173872348Y-76752780D02*
X174394852Y-76752780D01*
X174088248Y-90727200D02*
X174610752Y-90727200D01*
X174088248Y-89257200D02*
X174610752Y-89257200D01*
X162014840Y-138941352D02*
X162014840Y-138418848D01*
X160544840Y-138941352D02*
X160544840Y-138418848D01*
X156576752Y-130506800D02*
X156054248Y-130506800D01*
X156576752Y-131976800D02*
X156054248Y-131976800D01*
X166775460Y-74433708D02*
X166775460Y-74956212D01*
X168245460Y-74433708D02*
X168245460Y-74956212D01*
X163162348Y-100582400D02*
X163684852Y-100582400D01*
X163162348Y-99112400D02*
X163684852Y-99112400D01*
X161809152Y-125299800D02*
X161286648Y-125299800D01*
X161809152Y-126769800D02*
X161286648Y-126769800D01*
X168543248Y-126846000D02*
X169065752Y-126846000D01*
X168543248Y-125376000D02*
X169065752Y-125376000D01*
X144692648Y-87018800D02*
X145215152Y-87018800D01*
X144692648Y-85548800D02*
X145215152Y-85548800D01*
X130430600Y-84725788D02*
X130430600Y-85248292D01*
X131900600Y-84725788D02*
X131900600Y-85248292D01*
X122812352Y-78970200D02*
X122289848Y-78970200D01*
X122812352Y-80440200D02*
X122289848Y-80440200D01*
X122177352Y-94464200D02*
X121654848Y-94464200D01*
X122177352Y-95934200D02*
X121654848Y-95934200D01*
X173485352Y-116587600D02*
X172962848Y-116587600D01*
X173485352Y-118057600D02*
X172962848Y-118057600D01*
X154925752Y-93702200D02*
X154403248Y-93702200D01*
X154925752Y-95172200D02*
X154403248Y-95172200D01*
X160288248Y-95172200D02*
X160810752Y-95172200D01*
X160288248Y-93702200D02*
X160810752Y-93702200D01*
D10*
X113545857Y-100096580D02*
X113879190Y-99620390D01*
X114117285Y-100096580D02*
X114117285Y-99096580D01*
X113736333Y-99096580D01*
X113641095Y-99144200D01*
X113593476Y-99191819D01*
X113545857Y-99287057D01*
X113545857Y-99429914D01*
X113593476Y-99525152D01*
X113641095Y-99572771D01*
X113736333Y-99620390D01*
X114117285Y-99620390D01*
X113212523Y-99096580D02*
X112593476Y-99096580D01*
X112926809Y-99477533D01*
X112783952Y-99477533D01*
X112688714Y-99525152D01*
X112641095Y-99572771D01*
X112593476Y-99668009D01*
X112593476Y-99906104D01*
X112641095Y-100001342D01*
X112688714Y-100048961D01*
X112783952Y-100096580D01*
X113069666Y-100096580D01*
X113164904Y-100048961D01*
X113212523Y-100001342D01*
X111974428Y-99096580D02*
X111879190Y-99096580D01*
X111783952Y-99144200D01*
X111736333Y-99191819D01*
X111688714Y-99287057D01*
X111641095Y-99477533D01*
X111641095Y-99715628D01*
X111688714Y-99906104D01*
X111736333Y-100001342D01*
X111783952Y-100048961D01*
X111879190Y-100096580D01*
X111974428Y-100096580D01*
X112069666Y-100048961D01*
X112117285Y-100001342D01*
X112164904Y-99906104D01*
X112212523Y-99715628D01*
X112212523Y-99477533D01*
X112164904Y-99287057D01*
X112117285Y-99191819D01*
X112069666Y-99144200D01*
X111974428Y-99096580D01*
X113596657Y-105074980D02*
X113929990Y-104598790D01*
X114168085Y-105074980D02*
X114168085Y-104074980D01*
X113787133Y-104074980D01*
X113691895Y-104122600D01*
X113644276Y-104170219D01*
X113596657Y-104265457D01*
X113596657Y-104408314D01*
X113644276Y-104503552D01*
X113691895Y-104551171D01*
X113787133Y-104598790D01*
X114168085Y-104598790D01*
X113215704Y-104170219D02*
X113168085Y-104122600D01*
X113072847Y-104074980D01*
X112834752Y-104074980D01*
X112739514Y-104122600D01*
X112691895Y-104170219D01*
X112644276Y-104265457D01*
X112644276Y-104360695D01*
X112691895Y-104503552D01*
X113263323Y-105074980D01*
X112644276Y-105074980D01*
X112168085Y-105074980D02*
X111977609Y-105074980D01*
X111882371Y-105027361D01*
X111834752Y-104979742D01*
X111739514Y-104836885D01*
X111691895Y-104646409D01*
X111691895Y-104265457D01*
X111739514Y-104170219D01*
X111787133Y-104122600D01*
X111882371Y-104074980D01*
X112072847Y-104074980D01*
X112168085Y-104122600D01*
X112215704Y-104170219D01*
X112263323Y-104265457D01*
X112263323Y-104503552D01*
X112215704Y-104598790D01*
X112168085Y-104646409D01*
X112072847Y-104694028D01*
X111882371Y-104694028D01*
X111787133Y-104646409D01*
X111739514Y-104598790D01*
X111691895Y-104503552D01*
X135836897Y-133848100D02*
X136170230Y-133371910D01*
X136408325Y-133848100D02*
X136408325Y-132848100D01*
X136027373Y-132848100D01*
X135932135Y-132895720D01*
X135884516Y-132943339D01*
X135836897Y-133038577D01*
X135836897Y-133181434D01*
X135884516Y-133276672D01*
X135932135Y-133324291D01*
X136027373Y-133371910D01*
X136408325Y-133371910D01*
X135455944Y-132943339D02*
X135408325Y-132895720D01*
X135313087Y-132848100D01*
X135074992Y-132848100D01*
X134979754Y-132895720D01*
X134932135Y-132943339D01*
X134884516Y-133038577D01*
X134884516Y-133133815D01*
X134932135Y-133276672D01*
X135503563Y-133848100D01*
X134884516Y-133848100D01*
X134313087Y-133276672D02*
X134408325Y-133229053D01*
X134455944Y-133181434D01*
X134503563Y-133086196D01*
X134503563Y-133038577D01*
X134455944Y-132943339D01*
X134408325Y-132895720D01*
X134313087Y-132848100D01*
X134122611Y-132848100D01*
X134027373Y-132895720D01*
X133979754Y-132943339D01*
X133932135Y-133038577D01*
X133932135Y-133086196D01*
X133979754Y-133181434D01*
X134027373Y-133229053D01*
X134122611Y-133276672D01*
X134313087Y-133276672D01*
X134408325Y-133324291D01*
X134455944Y-133371910D01*
X134503563Y-133467148D01*
X134503563Y-133657624D01*
X134455944Y-133752862D01*
X134408325Y-133800481D01*
X134313087Y-133848100D01*
X134122611Y-133848100D01*
X134027373Y-133800481D01*
X133979754Y-133752862D01*
X133932135Y-133657624D01*
X133932135Y-133467148D01*
X133979754Y-133371910D01*
X134027373Y-133324291D01*
X134122611Y-133276672D01*
X150060897Y-137272020D02*
X150394230Y-136795830D01*
X150632325Y-137272020D02*
X150632325Y-136272020D01*
X150251373Y-136272020D01*
X150156135Y-136319640D01*
X150108516Y-136367259D01*
X150060897Y-136462497D01*
X150060897Y-136605354D01*
X150108516Y-136700592D01*
X150156135Y-136748211D01*
X150251373Y-136795830D01*
X150632325Y-136795830D01*
X149679944Y-136367259D02*
X149632325Y-136319640D01*
X149537087Y-136272020D01*
X149298992Y-136272020D01*
X149203754Y-136319640D01*
X149156135Y-136367259D01*
X149108516Y-136462497D01*
X149108516Y-136557735D01*
X149156135Y-136700592D01*
X149727563Y-137272020D01*
X149108516Y-137272020D01*
X148775182Y-136272020D02*
X148108516Y-136272020D01*
X148537087Y-137272020D01*
X148226180Y-137196533D02*
X147749990Y-136863200D01*
X148226180Y-136625104D02*
X147226180Y-136625104D01*
X147226180Y-137006057D01*
X147273800Y-137101295D01*
X147321419Y-137148914D01*
X147416657Y-137196533D01*
X147559514Y-137196533D01*
X147654752Y-137148914D01*
X147702371Y-137101295D01*
X147749990Y-137006057D01*
X147749990Y-136625104D01*
X148226180Y-138148914D02*
X148226180Y-137577485D01*
X148226180Y-137863200D02*
X147226180Y-137863200D01*
X147369038Y-137767961D01*
X147464276Y-137672723D01*
X147511895Y-137577485D01*
X177093784Y-107813860D02*
X177093784Y-108623384D01*
X177046165Y-108718622D01*
X176998546Y-108766241D01*
X176903308Y-108813860D01*
X176712832Y-108813860D01*
X176617594Y-108766241D01*
X176569975Y-108718622D01*
X176522356Y-108623384D01*
X176522356Y-107813860D01*
X175903308Y-108242432D02*
X175998546Y-108194813D01*
X176046165Y-108147194D01*
X176093784Y-108051956D01*
X176093784Y-108004337D01*
X176046165Y-107909099D01*
X175998546Y-107861480D01*
X175903308Y-107813860D01*
X175712832Y-107813860D01*
X175617594Y-107861480D01*
X175569975Y-107909099D01*
X175522356Y-108004337D01*
X175522356Y-108051956D01*
X175569975Y-108147194D01*
X175617594Y-108194813D01*
X175712832Y-108242432D01*
X175903308Y-108242432D01*
X175998546Y-108290051D01*
X176046165Y-108337670D01*
X176093784Y-108432908D01*
X176093784Y-108623384D01*
X176046165Y-108718622D01*
X175998546Y-108766241D01*
X175903308Y-108813860D01*
X175712832Y-108813860D01*
X175617594Y-108766241D01*
X175569975Y-108718622D01*
X175522356Y-108623384D01*
X175522356Y-108432908D01*
X175569975Y-108337670D01*
X175617594Y-108290051D01*
X175712832Y-108242432D01*
X162114075Y-133765040D02*
X162114075Y-134574564D01*
X162066456Y-134669802D01*
X162018837Y-134717421D01*
X161923599Y-134765040D01*
X161733122Y-134765040D01*
X161637884Y-134717421D01*
X161590265Y-134669802D01*
X161542646Y-134574564D01*
X161542646Y-133765040D01*
X160542646Y-134765040D02*
X161114075Y-134765040D01*
X160828360Y-134765040D02*
X160828360Y-133765040D01*
X160923599Y-133907898D01*
X161018837Y-134003136D01*
X161114075Y-134050755D01*
X159923599Y-133765040D02*
X159828360Y-133765040D01*
X159733122Y-133812660D01*
X159685503Y-133860279D01*
X159637884Y-133955517D01*
X159590265Y-134145993D01*
X159590265Y-134384088D01*
X159637884Y-134574564D01*
X159685503Y-134669802D01*
X159733122Y-134717421D01*
X159828360Y-134765040D01*
X159923599Y-134765040D01*
X160018837Y-134717421D01*
X160066456Y-134669802D01*
X160114075Y-134574564D01*
X160161694Y-134384088D01*
X160161694Y-134145993D01*
X160114075Y-133955517D01*
X160066456Y-133860279D01*
X160018837Y-133812660D01*
X159923599Y-133765040D01*
X115600384Y-93948000D02*
X115600384Y-94757524D01*
X115552765Y-94852762D01*
X115505146Y-94900381D01*
X115409908Y-94948000D01*
X115219432Y-94948000D01*
X115124194Y-94900381D01*
X115076575Y-94852762D01*
X115028956Y-94757524D01*
X115028956Y-93948000D01*
X114648003Y-93948000D02*
X114028956Y-93948000D01*
X114362289Y-94328953D01*
X114219432Y-94328953D01*
X114124194Y-94376572D01*
X114076575Y-94424191D01*
X114028956Y-94519429D01*
X114028956Y-94757524D01*
X114076575Y-94852762D01*
X114124194Y-94900381D01*
X114219432Y-94948000D01*
X114505146Y-94948000D01*
X114600384Y-94900381D01*
X114648003Y-94852762D01*
X158057790Y-85472590D02*
X158057790Y-85948780D01*
X158391123Y-84948780D02*
X158057790Y-85472590D01*
X157724457Y-84948780D01*
X157438742Y-85044019D02*
X157391123Y-84996400D01*
X157295885Y-84948780D01*
X157057790Y-84948780D01*
X156962552Y-84996400D01*
X156914933Y-85044019D01*
X156867314Y-85139257D01*
X156867314Y-85234495D01*
X156914933Y-85377352D01*
X157486361Y-85948780D01*
X156867314Y-85948780D01*
X158413390Y-121489790D02*
X158413390Y-121965980D01*
X158746723Y-120965980D02*
X158413390Y-121489790D01*
X158080057Y-120965980D01*
X157222914Y-121965980D02*
X157794342Y-121965980D01*
X157508628Y-121965980D02*
X157508628Y-120965980D01*
X157603866Y-121108838D01*
X157699104Y-121204076D01*
X157794342Y-121251695D01*
X171124784Y-82627220D02*
X171124784Y-83436744D01*
X171077165Y-83531982D01*
X171029546Y-83579601D01*
X170934308Y-83627220D01*
X170743832Y-83627220D01*
X170648594Y-83579601D01*
X170600975Y-83531982D01*
X170553356Y-83436744D01*
X170553356Y-82627220D01*
X170172403Y-82627220D02*
X169505737Y-82627220D01*
X169934308Y-83627220D01*
X167655144Y-77979020D02*
X167655144Y-78788544D01*
X167607525Y-78883782D01*
X167559906Y-78931401D01*
X167464668Y-78979020D01*
X167274192Y-78979020D01*
X167178954Y-78931401D01*
X167131335Y-78883782D01*
X167083716Y-78788544D01*
X167083716Y-77979020D01*
X166131335Y-77979020D02*
X166607525Y-77979020D01*
X166655144Y-78455211D01*
X166607525Y-78407592D01*
X166512287Y-78359973D01*
X166274192Y-78359973D01*
X166178954Y-78407592D01*
X166131335Y-78455211D01*
X166083716Y-78550449D01*
X166083716Y-78788544D01*
X166131335Y-78883782D01*
X166178954Y-78931401D01*
X166274192Y-78979020D01*
X166512287Y-78979020D01*
X166607525Y-78931401D01*
X166655144Y-78883782D01*
X160956737Y-70180460D02*
X161290070Y-69704270D01*
X161528165Y-70180460D02*
X161528165Y-69180460D01*
X161147213Y-69180460D01*
X161051975Y-69228080D01*
X161004356Y-69275699D01*
X160956737Y-69370937D01*
X160956737Y-69513794D01*
X161004356Y-69609032D01*
X161051975Y-69656651D01*
X161147213Y-69704270D01*
X161528165Y-69704270D01*
X160575784Y-69275699D02*
X160528165Y-69228080D01*
X160432927Y-69180460D01*
X160194832Y-69180460D01*
X160099594Y-69228080D01*
X160051975Y-69275699D01*
X160004356Y-69370937D01*
X160004356Y-69466175D01*
X160051975Y-69609032D01*
X160623403Y-70180460D01*
X160004356Y-70180460D01*
X159147213Y-69513794D02*
X159147213Y-70180460D01*
X159385308Y-69132841D02*
X159623403Y-69847127D01*
X159004356Y-69847127D01*
X133268957Y-93037920D02*
X133602290Y-92561730D01*
X133840385Y-93037920D02*
X133840385Y-92037920D01*
X133459433Y-92037920D01*
X133364195Y-92085540D01*
X133316576Y-92133159D01*
X133268957Y-92228397D01*
X133268957Y-92371254D01*
X133316576Y-92466492D01*
X133364195Y-92514111D01*
X133459433Y-92561730D01*
X133840385Y-92561730D01*
X132316576Y-93037920D02*
X132888004Y-93037920D01*
X132602290Y-93037920D02*
X132602290Y-92037920D01*
X132697528Y-92180778D01*
X132792766Y-92276016D01*
X132888004Y-92323635D01*
X131983242Y-92037920D02*
X131316576Y-92037920D01*
X131745147Y-93037920D01*
X135857217Y-87469220D02*
X136190550Y-86993030D01*
X136428645Y-87469220D02*
X136428645Y-86469220D01*
X136047693Y-86469220D01*
X135952455Y-86516840D01*
X135904836Y-86564459D01*
X135857217Y-86659697D01*
X135857217Y-86802554D01*
X135904836Y-86897792D01*
X135952455Y-86945411D01*
X136047693Y-86993030D01*
X136428645Y-86993030D01*
X134904836Y-87469220D02*
X135476264Y-87469220D01*
X135190550Y-87469220D02*
X135190550Y-86469220D01*
X135285788Y-86612078D01*
X135381026Y-86707316D01*
X135476264Y-86754935D01*
X134047693Y-86469220D02*
X134238169Y-86469220D01*
X134333407Y-86516840D01*
X134381026Y-86564459D01*
X134476264Y-86707316D01*
X134523883Y-86897792D01*
X134523883Y-87278744D01*
X134476264Y-87373982D01*
X134428645Y-87421601D01*
X134333407Y-87469220D01*
X134142931Y-87469220D01*
X134047693Y-87421601D01*
X134000074Y-87373982D01*
X133952455Y-87278744D01*
X133952455Y-87040649D01*
X134000074Y-86945411D01*
X134047693Y-86897792D01*
X134142931Y-86850173D01*
X134333407Y-86850173D01*
X134428645Y-86897792D01*
X134476264Y-86945411D01*
X134523883Y-87040649D01*
X180507877Y-124498360D02*
X180841210Y-124022170D01*
X181079305Y-124498360D02*
X181079305Y-123498360D01*
X180698353Y-123498360D01*
X180603115Y-123545980D01*
X180555496Y-123593599D01*
X180507877Y-123688837D01*
X180507877Y-123831694D01*
X180555496Y-123926932D01*
X180603115Y-123974551D01*
X180698353Y-124022170D01*
X181079305Y-124022170D01*
X179555496Y-124498360D02*
X180126924Y-124498360D01*
X179841210Y-124498360D02*
X179841210Y-123498360D01*
X179936448Y-123641218D01*
X180031686Y-123736456D01*
X180126924Y-123784075D01*
X178936448Y-123498360D02*
X178841210Y-123498360D01*
X178745972Y-123545980D01*
X178698353Y-123593599D01*
X178650734Y-123688837D01*
X178603115Y-123879313D01*
X178603115Y-124117408D01*
X178650734Y-124307884D01*
X178698353Y-124403122D01*
X178745972Y-124450741D01*
X178841210Y-124498360D01*
X178936448Y-124498360D01*
X179031686Y-124450741D01*
X179079305Y-124403122D01*
X179126924Y-124307884D01*
X179174543Y-124117408D01*
X179174543Y-123879313D01*
X179126924Y-123688837D01*
X179079305Y-123593599D01*
X179031686Y-123545980D01*
X178936448Y-123498360D01*
X180122266Y-118625880D02*
X180455600Y-118149690D01*
X180693695Y-118625880D02*
X180693695Y-117625880D01*
X180312742Y-117625880D01*
X180217504Y-117673500D01*
X180169885Y-117721119D01*
X180122266Y-117816357D01*
X180122266Y-117959214D01*
X180169885Y-118054452D01*
X180217504Y-118102071D01*
X180312742Y-118149690D01*
X180693695Y-118149690D01*
X179265123Y-117625880D02*
X179455600Y-117625880D01*
X179550838Y-117673500D01*
X179598457Y-117721119D01*
X179693695Y-117863976D01*
X179741314Y-118054452D01*
X179741314Y-118435404D01*
X179693695Y-118530642D01*
X179646076Y-118578261D01*
X179550838Y-118625880D01*
X179360361Y-118625880D01*
X179265123Y-118578261D01*
X179217504Y-118530642D01*
X179169885Y-118435404D01*
X179169885Y-118197309D01*
X179217504Y-118102071D01*
X179265123Y-118054452D01*
X179360361Y-118006833D01*
X179550838Y-118006833D01*
X179646076Y-118054452D01*
X179693695Y-118102071D01*
X179741314Y-118197309D01*
X133758238Y-139231619D02*
X133853476Y-139184000D01*
X133948714Y-139088761D01*
X134091571Y-138945904D01*
X134186809Y-138898285D01*
X134282047Y-138898285D01*
X134234428Y-139136380D02*
X134329666Y-139088761D01*
X134424904Y-138993523D01*
X134472523Y-138803047D01*
X134472523Y-138469714D01*
X134424904Y-138279238D01*
X134329666Y-138184000D01*
X134234428Y-138136380D01*
X134043952Y-138136380D01*
X133948714Y-138184000D01*
X133853476Y-138279238D01*
X133805857Y-138469714D01*
X133805857Y-138803047D01*
X133853476Y-138993523D01*
X133948714Y-139088761D01*
X134043952Y-139136380D01*
X134234428Y-139136380D01*
X133472523Y-138136380D02*
X132853476Y-138136380D01*
X133186809Y-138517333D01*
X133043952Y-138517333D01*
X132948714Y-138564952D01*
X132901095Y-138612571D01*
X132853476Y-138707809D01*
X132853476Y-138945904D01*
X132901095Y-139041142D01*
X132948714Y-139088761D01*
X133043952Y-139136380D01*
X133329666Y-139136380D01*
X133424904Y-139088761D01*
X133472523Y-139041142D01*
X128233466Y-76807320D02*
X128709657Y-76807320D01*
X128709657Y-75807320D01*
X127947752Y-75902559D02*
X127900133Y-75854940D01*
X127804895Y-75807320D01*
X127566800Y-75807320D01*
X127471561Y-75854940D01*
X127423942Y-75902559D01*
X127376323Y-75997797D01*
X127376323Y-76093035D01*
X127423942Y-76235892D01*
X127995371Y-76807320D01*
X127376323Y-76807320D01*
X109496123Y-133208780D02*
X109496123Y-133923066D01*
X109543742Y-134065923D01*
X109638980Y-134161161D01*
X109781838Y-134208780D01*
X109877076Y-134208780D01*
X108496123Y-134208780D02*
X109067552Y-134208780D01*
X108781838Y-134208780D02*
X108781838Y-133208780D01*
X108877076Y-133351638D01*
X108972314Y-133446876D01*
X109067552Y-133494495D01*
X107877076Y-133208780D02*
X107781838Y-133208780D01*
X107686600Y-133256400D01*
X107638980Y-133304019D01*
X107591361Y-133399257D01*
X107543742Y-133589733D01*
X107543742Y-133827828D01*
X107591361Y-134018304D01*
X107638980Y-134113542D01*
X107686600Y-134161161D01*
X107781838Y-134208780D01*
X107877076Y-134208780D01*
X107972314Y-134161161D01*
X108019933Y-134113542D01*
X108067552Y-134018304D01*
X108115171Y-133827828D01*
X108115171Y-133589733D01*
X108067552Y-133399257D01*
X108019933Y-133304019D01*
X107972314Y-133256400D01*
X107877076Y-133208780D01*
X108562733Y-125233180D02*
X108562733Y-125947466D01*
X108610352Y-126090323D01*
X108705590Y-126185561D01*
X108848447Y-126233180D01*
X108943685Y-126233180D01*
X108038923Y-126233180D02*
X107848447Y-126233180D01*
X107753209Y-126185561D01*
X107705590Y-126137942D01*
X107610352Y-125995085D01*
X107562733Y-125804609D01*
X107562733Y-125423657D01*
X107610352Y-125328419D01*
X107657971Y-125280800D01*
X107753209Y-125233180D01*
X107943685Y-125233180D01*
X108038923Y-125280800D01*
X108086542Y-125328419D01*
X108134161Y-125423657D01*
X108134161Y-125661752D01*
X108086542Y-125756990D01*
X108038923Y-125804609D01*
X107943685Y-125852228D01*
X107753209Y-125852228D01*
X107657971Y-125804609D01*
X107610352Y-125756990D01*
X107562733Y-125661752D01*
X108410333Y-117054380D02*
X108410333Y-117768666D01*
X108457952Y-117911523D01*
X108553190Y-118006761D01*
X108696047Y-118054380D01*
X108791285Y-118054380D01*
X108029380Y-117054380D02*
X107362714Y-117054380D01*
X107791285Y-118054380D01*
X108181733Y-108545380D02*
X108181733Y-109259666D01*
X108229352Y-109402523D01*
X108324590Y-109497761D01*
X108467447Y-109545380D01*
X108562685Y-109545380D01*
X107181733Y-109545380D02*
X107753161Y-109545380D01*
X107467447Y-109545380D02*
X107467447Y-108545380D01*
X107562685Y-108688238D01*
X107657923Y-108783476D01*
X107753161Y-108831095D01*
X115027033Y-136440871D02*
X115360366Y-136440871D01*
X115360366Y-136964680D02*
X115360366Y-135964680D01*
X114884176Y-135964680D01*
X114598461Y-135964680D02*
X113979414Y-135964680D01*
X114312747Y-136345633D01*
X114169890Y-136345633D01*
X114074652Y-136393252D01*
X114027033Y-136440871D01*
X113979414Y-136536109D01*
X113979414Y-136774204D01*
X114027033Y-136869442D01*
X114074652Y-136917061D01*
X114169890Y-136964680D01*
X114455604Y-136964680D01*
X114550842Y-136917061D01*
X114598461Y-136869442D01*
X114900033Y-128439871D02*
X115233366Y-128439871D01*
X115233366Y-128963680D02*
X115233366Y-127963680D01*
X114757176Y-127963680D01*
X114423842Y-128058919D02*
X114376223Y-128011300D01*
X114280985Y-127963680D01*
X114042890Y-127963680D01*
X113947652Y-128011300D01*
X113900033Y-128058919D01*
X113852414Y-128154157D01*
X113852414Y-128249395D01*
X113900033Y-128392252D01*
X114471461Y-128963680D01*
X113852414Y-128963680D01*
X114900033Y-120184871D02*
X115233366Y-120184871D01*
X115233366Y-120708680D02*
X115233366Y-119708680D01*
X114757176Y-119708680D01*
X113852414Y-120708680D02*
X114423842Y-120708680D01*
X114138128Y-120708680D02*
X114138128Y-119708680D01*
X114233366Y-119851538D01*
X114328604Y-119946776D01*
X114423842Y-119994395D01*
X116870075Y-75489060D02*
X116870075Y-74489060D01*
X116631980Y-74489060D01*
X116489122Y-74536680D01*
X116393884Y-74631918D01*
X116346265Y-74727156D01*
X116298646Y-74917632D01*
X116298646Y-75060489D01*
X116346265Y-75250965D01*
X116393884Y-75346203D01*
X116489122Y-75441441D01*
X116631980Y-75489060D01*
X116870075Y-75489060D01*
X115917694Y-74584299D02*
X115870075Y-74536680D01*
X115774837Y-74489060D01*
X115536741Y-74489060D01*
X115441503Y-74536680D01*
X115393884Y-74584299D01*
X115346265Y-74679537D01*
X115346265Y-74774775D01*
X115393884Y-74917632D01*
X115965313Y-75489060D01*
X115346265Y-75489060D01*
X174828437Y-76188842D02*
X174876056Y-76236461D01*
X175018913Y-76284080D01*
X175114151Y-76284080D01*
X175257008Y-76236461D01*
X175352246Y-76141223D01*
X175399865Y-76045985D01*
X175447484Y-75855509D01*
X175447484Y-75712652D01*
X175399865Y-75522176D01*
X175352246Y-75426938D01*
X175257008Y-75331700D01*
X175114151Y-75284080D01*
X175018913Y-75284080D01*
X174876056Y-75331700D01*
X174828437Y-75379319D01*
X173876056Y-76284080D02*
X174447484Y-76284080D01*
X174161770Y-76284080D02*
X174161770Y-75284080D01*
X174257008Y-75426938D01*
X174352246Y-75522176D01*
X174447484Y-75569795D01*
X173018913Y-75284080D02*
X173209389Y-75284080D01*
X173304627Y-75331700D01*
X173352246Y-75379319D01*
X173447484Y-75522176D01*
X173495103Y-75712652D01*
X173495103Y-76093604D01*
X173447484Y-76188842D01*
X173399865Y-76236461D01*
X173304627Y-76284080D01*
X173114151Y-76284080D01*
X173018913Y-76236461D01*
X172971294Y-76188842D01*
X172923675Y-76093604D01*
X172923675Y-75855509D01*
X172971294Y-75760271D01*
X173018913Y-75712652D01*
X173114151Y-75665033D01*
X173304627Y-75665033D01*
X173399865Y-75712652D01*
X173447484Y-75760271D01*
X173495103Y-75855509D01*
X171127657Y-90303622D02*
X171175276Y-90351241D01*
X171318133Y-90398860D01*
X171413371Y-90398860D01*
X171556228Y-90351241D01*
X171651466Y-90256003D01*
X171699085Y-90160765D01*
X171746704Y-89970289D01*
X171746704Y-89827432D01*
X171699085Y-89636956D01*
X171651466Y-89541718D01*
X171556228Y-89446480D01*
X171413371Y-89398860D01*
X171318133Y-89398860D01*
X171175276Y-89446480D01*
X171127657Y-89494099D01*
X170175276Y-90398860D02*
X170746704Y-90398860D01*
X170460990Y-90398860D02*
X170460990Y-89398860D01*
X170556228Y-89541718D01*
X170651466Y-89636956D01*
X170746704Y-89684575D01*
X169270514Y-89398860D02*
X169746704Y-89398860D01*
X169794323Y-89875051D01*
X169746704Y-89827432D01*
X169651466Y-89779813D01*
X169413371Y-89779813D01*
X169318133Y-89827432D01*
X169270514Y-89875051D01*
X169222895Y-89970289D01*
X169222895Y-90208384D01*
X169270514Y-90303622D01*
X169318133Y-90351241D01*
X169413371Y-90398860D01*
X169651466Y-90398860D01*
X169746704Y-90351241D01*
X169794323Y-90303622D01*
X161932857Y-142216142D02*
X161980476Y-142263761D01*
X162123333Y-142311380D01*
X162218571Y-142311380D01*
X162361428Y-142263761D01*
X162456666Y-142168523D01*
X162504285Y-142073285D01*
X162551904Y-141882809D01*
X162551904Y-141739952D01*
X162504285Y-141549476D01*
X162456666Y-141454238D01*
X162361428Y-141359000D01*
X162218571Y-141311380D01*
X162123333Y-141311380D01*
X161980476Y-141359000D01*
X161932857Y-141406619D01*
X160980476Y-142311380D02*
X161551904Y-142311380D01*
X161266190Y-142311380D02*
X161266190Y-141311380D01*
X161361428Y-141454238D01*
X161456666Y-141549476D01*
X161551904Y-141597095D01*
X160123333Y-141644714D02*
X160123333Y-142311380D01*
X160361428Y-141263761D02*
X160599523Y-141978047D01*
X159980476Y-141978047D01*
X156923977Y-129754902D02*
X156971596Y-129802521D01*
X157114453Y-129850140D01*
X157209691Y-129850140D01*
X157352548Y-129802521D01*
X157447786Y-129707283D01*
X157495405Y-129612045D01*
X157543024Y-129421569D01*
X157543024Y-129278712D01*
X157495405Y-129088236D01*
X157447786Y-128992998D01*
X157352548Y-128897760D01*
X157209691Y-128850140D01*
X157114453Y-128850140D01*
X156971596Y-128897760D01*
X156923977Y-128945379D01*
X155971596Y-129850140D02*
X156543024Y-129850140D01*
X156257310Y-129850140D02*
X156257310Y-128850140D01*
X156352548Y-128992998D01*
X156447786Y-129088236D01*
X156543024Y-129135855D01*
X155638262Y-128850140D02*
X155019215Y-128850140D01*
X155352548Y-129231093D01*
X155209691Y-129231093D01*
X155114453Y-129278712D01*
X155066834Y-129326331D01*
X155019215Y-129421569D01*
X155019215Y-129659664D01*
X155066834Y-129754902D01*
X155114453Y-129802521D01*
X155209691Y-129850140D01*
X155495405Y-129850140D01*
X155590643Y-129802521D01*
X155638262Y-129754902D01*
X168051717Y-72211202D02*
X168099336Y-72258821D01*
X168242193Y-72306440D01*
X168337431Y-72306440D01*
X168480288Y-72258821D01*
X168575526Y-72163583D01*
X168623145Y-72068345D01*
X168670764Y-71877869D01*
X168670764Y-71735012D01*
X168623145Y-71544536D01*
X168575526Y-71449298D01*
X168480288Y-71354060D01*
X168337431Y-71306440D01*
X168242193Y-71306440D01*
X168099336Y-71354060D01*
X168051717Y-71401679D01*
X167099336Y-72306440D02*
X167670764Y-72306440D01*
X167385050Y-72306440D02*
X167385050Y-71306440D01*
X167480288Y-71449298D01*
X167575526Y-71544536D01*
X167670764Y-71592155D01*
X166718383Y-71401679D02*
X166670764Y-71354060D01*
X166575526Y-71306440D01*
X166337431Y-71306440D01*
X166242193Y-71354060D01*
X166194574Y-71401679D01*
X166146955Y-71496917D01*
X166146955Y-71592155D01*
X166194574Y-71735012D01*
X166766002Y-72306440D01*
X166146955Y-72306440D01*
X164214957Y-98248742D02*
X164262576Y-98296361D01*
X164405433Y-98343980D01*
X164500671Y-98343980D01*
X164643528Y-98296361D01*
X164738766Y-98201123D01*
X164786385Y-98105885D01*
X164834004Y-97915409D01*
X164834004Y-97772552D01*
X164786385Y-97582076D01*
X164738766Y-97486838D01*
X164643528Y-97391600D01*
X164500671Y-97343980D01*
X164405433Y-97343980D01*
X164262576Y-97391600D01*
X164214957Y-97439219D01*
X163262576Y-98343980D02*
X163834004Y-98343980D01*
X163548290Y-98343980D02*
X163548290Y-97343980D01*
X163643528Y-97486838D01*
X163738766Y-97582076D01*
X163834004Y-97629695D01*
X162310195Y-98343980D02*
X162881623Y-98343980D01*
X162595909Y-98343980D02*
X162595909Y-97343980D01*
X162691147Y-97486838D01*
X162786385Y-97582076D01*
X162881623Y-97629695D01*
X162059857Y-128535702D02*
X162107476Y-128583321D01*
X162250333Y-128630940D01*
X162345571Y-128630940D01*
X162488428Y-128583321D01*
X162583666Y-128488083D01*
X162631285Y-128392845D01*
X162678904Y-128202369D01*
X162678904Y-128059512D01*
X162631285Y-127869036D01*
X162583666Y-127773798D01*
X162488428Y-127678560D01*
X162345571Y-127630940D01*
X162250333Y-127630940D01*
X162107476Y-127678560D01*
X162059857Y-127726179D01*
X161107476Y-128630940D02*
X161678904Y-128630940D01*
X161393190Y-128630940D02*
X161393190Y-127630940D01*
X161488428Y-127773798D01*
X161583666Y-127869036D01*
X161678904Y-127916655D01*
X160488428Y-127630940D02*
X160393190Y-127630940D01*
X160297952Y-127678560D01*
X160250333Y-127726179D01*
X160202714Y-127821417D01*
X160155095Y-128011893D01*
X160155095Y-128249988D01*
X160202714Y-128440464D01*
X160250333Y-128535702D01*
X160297952Y-128583321D01*
X160393190Y-128630940D01*
X160488428Y-128630940D01*
X160583666Y-128583321D01*
X160631285Y-128535702D01*
X160678904Y-128440464D01*
X160726523Y-128249988D01*
X160726523Y-128011893D01*
X160678904Y-127821417D01*
X160631285Y-127726179D01*
X160583666Y-127678560D01*
X160488428Y-127630940D01*
X169015706Y-128820182D02*
X169063325Y-128867801D01*
X169206182Y-128915420D01*
X169301420Y-128915420D01*
X169444278Y-128867801D01*
X169539516Y-128772563D01*
X169587135Y-128677325D01*
X169634754Y-128486849D01*
X169634754Y-128343992D01*
X169587135Y-128153516D01*
X169539516Y-128058278D01*
X169444278Y-127963040D01*
X169301420Y-127915420D01*
X169206182Y-127915420D01*
X169063325Y-127963040D01*
X169015706Y-128010659D01*
X168539516Y-128915420D02*
X168349040Y-128915420D01*
X168253801Y-128867801D01*
X168206182Y-128820182D01*
X168110944Y-128677325D01*
X168063325Y-128486849D01*
X168063325Y-128105897D01*
X168110944Y-128010659D01*
X168158563Y-127963040D01*
X168253801Y-127915420D01*
X168444278Y-127915420D01*
X168539516Y-127963040D01*
X168587135Y-128010659D01*
X168634754Y-128105897D01*
X168634754Y-128343992D01*
X168587135Y-128439230D01*
X168539516Y-128486849D01*
X168444278Y-128534468D01*
X168253801Y-128534468D01*
X168158563Y-128486849D01*
X168110944Y-128439230D01*
X168063325Y-128343992D01*
X142174166Y-86640942D02*
X142221785Y-86688561D01*
X142364642Y-86736180D01*
X142459880Y-86736180D01*
X142602738Y-86688561D01*
X142697976Y-86593323D01*
X142745595Y-86498085D01*
X142793214Y-86307609D01*
X142793214Y-86164752D01*
X142745595Y-85974276D01*
X142697976Y-85879038D01*
X142602738Y-85783800D01*
X142459880Y-85736180D01*
X142364642Y-85736180D01*
X142221785Y-85783800D01*
X142174166Y-85831419D01*
X141840833Y-85736180D02*
X141174166Y-85736180D01*
X141602738Y-86736180D01*
X133364266Y-85322682D02*
X133411885Y-85370301D01*
X133554742Y-85417920D01*
X133649980Y-85417920D01*
X133792838Y-85370301D01*
X133888076Y-85275063D01*
X133935695Y-85179825D01*
X133983314Y-84989349D01*
X133983314Y-84846492D01*
X133935695Y-84656016D01*
X133888076Y-84560778D01*
X133792838Y-84465540D01*
X133649980Y-84417920D01*
X133554742Y-84417920D01*
X133411885Y-84465540D01*
X133364266Y-84513159D01*
X132507123Y-84417920D02*
X132697600Y-84417920D01*
X132792838Y-84465540D01*
X132840457Y-84513159D01*
X132935695Y-84656016D01*
X132983314Y-84846492D01*
X132983314Y-85227444D01*
X132935695Y-85322682D01*
X132888076Y-85370301D01*
X132792838Y-85417920D01*
X132602361Y-85417920D01*
X132507123Y-85370301D01*
X132459504Y-85322682D01*
X132411885Y-85227444D01*
X132411885Y-84989349D01*
X132459504Y-84894111D01*
X132507123Y-84846492D01*
X132602361Y-84798873D01*
X132792838Y-84798873D01*
X132888076Y-84846492D01*
X132935695Y-84894111D01*
X132983314Y-84989349D01*
X119742246Y-79897242D02*
X119789865Y-79944861D01*
X119932722Y-79992480D01*
X120027960Y-79992480D01*
X120170818Y-79944861D01*
X120266056Y-79849623D01*
X120313675Y-79754385D01*
X120361294Y-79563909D01*
X120361294Y-79421052D01*
X120313675Y-79230576D01*
X120266056Y-79135338D01*
X120170818Y-79040100D01*
X120027960Y-78992480D01*
X119932722Y-78992480D01*
X119789865Y-79040100D01*
X119742246Y-79087719D01*
X118837484Y-78992480D02*
X119313675Y-78992480D01*
X119361294Y-79468671D01*
X119313675Y-79421052D01*
X119218437Y-79373433D01*
X118980341Y-79373433D01*
X118885103Y-79421052D01*
X118837484Y-79468671D01*
X118789865Y-79563909D01*
X118789865Y-79802004D01*
X118837484Y-79897242D01*
X118885103Y-79944861D01*
X118980341Y-79992480D01*
X119218437Y-79992480D01*
X119313675Y-79944861D01*
X119361294Y-79897242D01*
X125229826Y-95515702D02*
X125277445Y-95563321D01*
X125420302Y-95610940D01*
X125515540Y-95610940D01*
X125658398Y-95563321D01*
X125753636Y-95468083D01*
X125801255Y-95372845D01*
X125848874Y-95182369D01*
X125848874Y-95039512D01*
X125801255Y-94849036D01*
X125753636Y-94753798D01*
X125658398Y-94658560D01*
X125515540Y-94610940D01*
X125420302Y-94610940D01*
X125277445Y-94658560D01*
X125229826Y-94706179D01*
X124372683Y-94944274D02*
X124372683Y-95610940D01*
X124610779Y-94563321D02*
X124848874Y-95277607D01*
X124229826Y-95277607D01*
X173310666Y-119889542D02*
X173358285Y-119937161D01*
X173501142Y-119984780D01*
X173596380Y-119984780D01*
X173739238Y-119937161D01*
X173834476Y-119841923D01*
X173882095Y-119746685D01*
X173929714Y-119556209D01*
X173929714Y-119413352D01*
X173882095Y-119222876D01*
X173834476Y-119127638D01*
X173739238Y-119032400D01*
X173596380Y-118984780D01*
X173501142Y-118984780D01*
X173358285Y-119032400D01*
X173310666Y-119080019D01*
X172977333Y-118984780D02*
X172358285Y-118984780D01*
X172691619Y-119365733D01*
X172548761Y-119365733D01*
X172453523Y-119413352D01*
X172405904Y-119460971D01*
X172358285Y-119556209D01*
X172358285Y-119794304D01*
X172405904Y-119889542D01*
X172453523Y-119937161D01*
X172548761Y-119984780D01*
X172834476Y-119984780D01*
X172929714Y-119937161D01*
X172977333Y-119889542D01*
X152010406Y-94870542D02*
X152058025Y-94918161D01*
X152200882Y-94965780D01*
X152296120Y-94965780D01*
X152438978Y-94918161D01*
X152534216Y-94822923D01*
X152581835Y-94727685D01*
X152629454Y-94537209D01*
X152629454Y-94394352D01*
X152581835Y-94203876D01*
X152534216Y-94108638D01*
X152438978Y-94013400D01*
X152296120Y-93965780D01*
X152200882Y-93965780D01*
X152058025Y-94013400D01*
X152010406Y-94061019D01*
X151629454Y-94061019D02*
X151581835Y-94013400D01*
X151486597Y-93965780D01*
X151248501Y-93965780D01*
X151153263Y-94013400D01*
X151105644Y-94061019D01*
X151058025Y-94156257D01*
X151058025Y-94251495D01*
X151105644Y-94394352D01*
X151677073Y-94965780D01*
X151058025Y-94965780D01*
X163742666Y-94794342D02*
X163790285Y-94841961D01*
X163933142Y-94889580D01*
X164028380Y-94889580D01*
X164171238Y-94841961D01*
X164266476Y-94746723D01*
X164314095Y-94651485D01*
X164361714Y-94461009D01*
X164361714Y-94318152D01*
X164314095Y-94127676D01*
X164266476Y-94032438D01*
X164171238Y-93937200D01*
X164028380Y-93889580D01*
X163933142Y-93889580D01*
X163790285Y-93937200D01*
X163742666Y-93984819D01*
X162790285Y-94889580D02*
X163361714Y-94889580D01*
X163076000Y-94889580D02*
X163076000Y-93889580D01*
X163171238Y-94032438D01*
X163266476Y-94127676D01*
X163361714Y-94175295D01*
M02*
