G04 #@! TF.GenerationSoftware,KiCad,Pcbnew,(5.1.9)-1*
G04 #@! TF.CreationDate,2021-07-15T19:39:11-04:00*
G04 #@! TF.ProjectId,payload2020_base_board,7061796c-6f61-4643-9230-32305f626173,rev?*
G04 #@! TF.SameCoordinates,Original*
G04 #@! TF.FileFunction,Legend,Top*
G04 #@! TF.FilePolarity,Positive*
%FSLAX46Y46*%
G04 Gerber Fmt 4.6, Leading zero omitted, Abs format (unit mm)*
G04 Created by KiCad (PCBNEW (5.1.9)-1) date 2021-07-15 19:39:11*
%MOMM*%
%LPD*%
G01*
G04 APERTURE LIST*
%ADD10C,0.120000*%
%ADD11C,0.125000*%
%ADD12C,0.150000*%
%ADD13C,0.010000*%
%ADD14C,0.100000*%
G04 APERTURE END LIST*
D10*
X110639000Y-114792000D02*
X110639000Y-119618000D01*
X124851160Y-112064800D02*
X124851160Y-112455960D01*
X124851160Y-110921800D02*
X124851160Y-111450120D01*
X124449840Y-111460280D02*
X125242320Y-111460280D01*
X124851160Y-112049560D02*
X124449840Y-111460280D01*
X125252480Y-111455200D02*
X124851160Y-112049560D01*
X124307600Y-112054640D02*
X124861320Y-112049560D01*
X125399800Y-112054640D02*
X124307600Y-112054640D01*
D11*
X182779000Y-114537952D02*
X182755190Y-114585571D01*
X182755190Y-114657000D01*
X182779000Y-114728428D01*
X182826619Y-114776047D01*
X182874238Y-114799857D01*
X182969476Y-114823666D01*
X183040904Y-114823666D01*
X183136142Y-114799857D01*
X183183761Y-114776047D01*
X183231380Y-114728428D01*
X183255190Y-114657000D01*
X183255190Y-114609380D01*
X183231380Y-114537952D01*
X183207571Y-114514142D01*
X183040904Y-114514142D01*
X183040904Y-114609380D01*
X183255190Y-114299857D02*
X182755190Y-114299857D01*
X183255190Y-114014142D01*
X182755190Y-114014142D01*
X183255190Y-113776047D02*
X182755190Y-113776047D01*
X182755190Y-113657000D01*
X182779000Y-113585571D01*
X182826619Y-113537952D01*
X182874238Y-113514142D01*
X182969476Y-113490333D01*
X183040904Y-113490333D01*
X183136142Y-113514142D01*
X183183761Y-113537952D01*
X183231380Y-113585571D01*
X183255190Y-113657000D01*
X183255190Y-113776047D01*
X178127571Y-112775809D02*
X178151380Y-112799619D01*
X178175190Y-112871047D01*
X178175190Y-112918666D01*
X178151380Y-112990095D01*
X178103761Y-113037714D01*
X178056142Y-113061523D01*
X177960904Y-113085333D01*
X177889476Y-113085333D01*
X177794238Y-113061523D01*
X177746619Y-113037714D01*
X177699000Y-112990095D01*
X177675190Y-112918666D01*
X177675190Y-112871047D01*
X177699000Y-112799619D01*
X177722809Y-112775809D01*
X178032333Y-112585333D02*
X178032333Y-112347238D01*
X178175190Y-112632952D02*
X177675190Y-112466285D01*
X178175190Y-112299619D01*
X178175190Y-112132952D02*
X177675190Y-112132952D01*
X178175190Y-111847238D01*
X177675190Y-111847238D01*
X178175190Y-111371047D02*
X178175190Y-111609142D01*
X177675190Y-111609142D01*
X178127571Y-110676333D02*
X178151380Y-110700142D01*
X178175190Y-110771571D01*
X178175190Y-110819190D01*
X178151380Y-110890619D01*
X178103761Y-110938238D01*
X178056142Y-110962047D01*
X177960904Y-110985857D01*
X177889476Y-110985857D01*
X177794238Y-110962047D01*
X177746619Y-110938238D01*
X177699000Y-110890619D01*
X177675190Y-110819190D01*
X177675190Y-110771571D01*
X177699000Y-110700142D01*
X177722809Y-110676333D01*
X178032333Y-110485857D02*
X178032333Y-110247761D01*
X178175190Y-110533476D02*
X177675190Y-110366809D01*
X178175190Y-110200142D01*
X178175190Y-110033476D02*
X177675190Y-110033476D01*
X178175190Y-109747761D01*
X177675190Y-109747761D01*
X178175190Y-109509666D02*
X177675190Y-109509666D01*
X177913285Y-109509666D02*
X177913285Y-109223952D01*
X178175190Y-109223952D02*
X177675190Y-109223952D01*
X183255190Y-110402523D02*
X183255190Y-110688238D01*
X183255190Y-110545380D02*
X182755190Y-110545380D01*
X182826619Y-110593000D01*
X182874238Y-110640619D01*
X182898047Y-110688238D01*
X182802809Y-110212047D02*
X182779000Y-110188238D01*
X182755190Y-110140619D01*
X182755190Y-110021571D01*
X182779000Y-109973952D01*
X182802809Y-109950142D01*
X182850428Y-109926333D01*
X182898047Y-109926333D01*
X182969476Y-109950142D01*
X183255190Y-110235857D01*
X183255190Y-109926333D01*
X182755190Y-109783476D02*
X183255190Y-109616809D01*
X182755190Y-109450142D01*
X182755190Y-112577380D02*
X182755190Y-112815476D01*
X182993285Y-112839285D01*
X182969476Y-112815476D01*
X182945666Y-112767857D01*
X182945666Y-112648809D01*
X182969476Y-112601190D01*
X182993285Y-112577380D01*
X183040904Y-112553571D01*
X183159952Y-112553571D01*
X183207571Y-112577380D01*
X183231380Y-112601190D01*
X183255190Y-112648809D01*
X183255190Y-112767857D01*
X183231380Y-112815476D01*
X183207571Y-112839285D01*
X183207571Y-112339285D02*
X183231380Y-112315476D01*
X183255190Y-112339285D01*
X183231380Y-112363095D01*
X183207571Y-112339285D01*
X183255190Y-112339285D01*
X182755190Y-112148809D02*
X182755190Y-111839285D01*
X182945666Y-112005952D01*
X182945666Y-111934523D01*
X182969476Y-111886904D01*
X182993285Y-111863095D01*
X183040904Y-111839285D01*
X183159952Y-111839285D01*
X183207571Y-111863095D01*
X183231380Y-111886904D01*
X183255190Y-111934523D01*
X183255190Y-112077380D01*
X183231380Y-112125000D01*
X183207571Y-112148809D01*
X182755190Y-111696428D02*
X183255190Y-111529761D01*
X182755190Y-111363095D01*
X147672620Y-110500931D02*
X147648811Y-110524740D01*
X147577382Y-110548550D01*
X147529763Y-110548550D01*
X147458335Y-110524740D01*
X147410716Y-110477121D01*
X147386906Y-110429502D01*
X147363097Y-110334264D01*
X147363097Y-110262836D01*
X147386906Y-110167598D01*
X147410716Y-110119979D01*
X147458335Y-110072360D01*
X147529763Y-110048550D01*
X147577382Y-110048550D01*
X147648811Y-110072360D01*
X147672620Y-110096169D01*
X148125001Y-110548550D02*
X147886906Y-110548550D01*
X147886906Y-110048550D01*
X148291668Y-110548550D02*
X148291668Y-110048550D01*
X148577382Y-110548550D02*
X148363097Y-110262836D01*
X148577382Y-110048550D02*
X148291668Y-110334264D01*
X144869125Y-110548550D02*
X144869125Y-110048550D01*
X144988173Y-110048550D01*
X145059601Y-110072360D01*
X145107220Y-110119979D01*
X145131030Y-110167598D01*
X145154840Y-110262836D01*
X145154840Y-110334264D01*
X145131030Y-110429502D01*
X145107220Y-110477121D01*
X145059601Y-110524740D01*
X144988173Y-110548550D01*
X144869125Y-110548550D01*
X145345316Y-110405693D02*
X145583411Y-110405693D01*
X145297697Y-110548550D02*
X145464363Y-110048550D01*
X145631030Y-110548550D01*
X145726268Y-110048550D02*
X146011982Y-110048550D01*
X145869125Y-110548550D02*
X145869125Y-110048550D01*
X142544847Y-110077440D02*
X142497228Y-110053630D01*
X142425800Y-110053630D01*
X142354371Y-110077440D01*
X142306752Y-110125059D01*
X142282942Y-110172678D01*
X142259133Y-110267916D01*
X142259133Y-110339344D01*
X142282942Y-110434582D01*
X142306752Y-110482201D01*
X142354371Y-110529820D01*
X142425800Y-110553630D01*
X142473419Y-110553630D01*
X142544847Y-110529820D01*
X142568657Y-110506011D01*
X142568657Y-110339344D01*
X142473419Y-110339344D01*
X142782942Y-110553630D02*
X142782942Y-110053630D01*
X143068657Y-110553630D01*
X143068657Y-110053630D01*
X143306752Y-110553630D02*
X143306752Y-110053630D01*
X143425800Y-110053630D01*
X143497228Y-110077440D01*
X143544847Y-110125059D01*
X143568657Y-110172678D01*
X143592466Y-110267916D01*
X143592466Y-110339344D01*
X143568657Y-110434582D01*
X143544847Y-110482201D01*
X143497228Y-110529820D01*
X143425800Y-110553630D01*
X143306752Y-110553630D01*
X139841979Y-110094270D02*
X139603883Y-110094270D01*
X139580074Y-110332365D01*
X139603883Y-110308556D01*
X139651502Y-110284746D01*
X139770550Y-110284746D01*
X139818169Y-110308556D01*
X139841979Y-110332365D01*
X139865788Y-110379984D01*
X139865788Y-110499032D01*
X139841979Y-110546651D01*
X139818169Y-110570460D01*
X139770550Y-110594270D01*
X139651502Y-110594270D01*
X139603883Y-110570460D01*
X139580074Y-110546651D01*
X140080074Y-110546651D02*
X140103883Y-110570460D01*
X140080074Y-110594270D01*
X140056264Y-110570460D01*
X140080074Y-110546651D01*
X140080074Y-110594270D01*
X140270550Y-110094270D02*
X140580074Y-110094270D01*
X140413407Y-110284746D01*
X140484836Y-110284746D01*
X140532455Y-110308556D01*
X140556264Y-110332365D01*
X140580074Y-110379984D01*
X140580074Y-110499032D01*
X140556264Y-110546651D01*
X140532455Y-110570460D01*
X140484836Y-110594270D01*
X140341979Y-110594270D01*
X140294360Y-110570460D01*
X140270550Y-110546651D01*
X140722931Y-110094270D02*
X140889598Y-110594270D01*
X141056264Y-110094270D01*
X136669744Y-109886220D02*
X137241173Y-109886220D01*
X136788792Y-110634910D02*
X136788792Y-110134910D01*
X136955459Y-110492053D01*
X137122125Y-110134910D01*
X137122125Y-110634910D01*
X137241173Y-109886220D02*
X137741173Y-109886220D01*
X137645935Y-110587291D02*
X137622125Y-110611100D01*
X137550697Y-110634910D01*
X137503078Y-110634910D01*
X137431649Y-110611100D01*
X137384030Y-110563481D01*
X137360220Y-110515862D01*
X137336411Y-110420624D01*
X137336411Y-110349196D01*
X137360220Y-110253958D01*
X137384030Y-110206339D01*
X137431649Y-110158720D01*
X137503078Y-110134910D01*
X137550697Y-110134910D01*
X137622125Y-110158720D01*
X137645935Y-110182529D01*
X137741173Y-109886220D02*
X138145935Y-109886220D01*
X138098316Y-110634910D02*
X137860220Y-110634910D01*
X137860220Y-110134910D01*
X138145935Y-109886220D02*
X138645935Y-109886220D01*
X138550697Y-110634910D02*
X138384030Y-110396815D01*
X138264982Y-110634910D02*
X138264982Y-110134910D01*
X138455459Y-110134910D01*
X138503078Y-110158720D01*
X138526887Y-110182529D01*
X138550697Y-110230148D01*
X138550697Y-110301577D01*
X138526887Y-110349196D01*
X138503078Y-110373005D01*
X138455459Y-110396815D01*
X138264982Y-110396815D01*
X141492670Y-103795331D02*
X141468860Y-103819140D01*
X141397432Y-103842950D01*
X141349813Y-103842950D01*
X141278384Y-103819140D01*
X141230765Y-103771521D01*
X141206956Y-103723902D01*
X141183146Y-103628664D01*
X141183146Y-103557236D01*
X141206956Y-103461998D01*
X141230765Y-103414379D01*
X141278384Y-103366760D01*
X141349813Y-103342950D01*
X141397432Y-103342950D01*
X141468860Y-103366760D01*
X141492670Y-103390569D01*
X141683146Y-103700093D02*
X141921241Y-103700093D01*
X141635527Y-103842950D02*
X141802194Y-103342950D01*
X141968860Y-103842950D01*
X142135527Y-103842950D02*
X142135527Y-103342950D01*
X142421241Y-103842950D01*
X142421241Y-103342950D01*
X142897432Y-103842950D02*
X142659337Y-103842950D01*
X142659337Y-103342950D01*
X139045546Y-103810571D02*
X139021737Y-103834380D01*
X138950308Y-103858190D01*
X138902689Y-103858190D01*
X138831260Y-103834380D01*
X138783641Y-103786761D01*
X138759832Y-103739142D01*
X138736022Y-103643904D01*
X138736022Y-103572476D01*
X138759832Y-103477238D01*
X138783641Y-103429619D01*
X138831260Y-103382000D01*
X138902689Y-103358190D01*
X138950308Y-103358190D01*
X139021737Y-103382000D01*
X139045546Y-103405809D01*
X139236022Y-103715333D02*
X139474118Y-103715333D01*
X139188403Y-103858190D02*
X139355070Y-103358190D01*
X139521737Y-103858190D01*
X139688403Y-103858190D02*
X139688403Y-103358190D01*
X139974118Y-103858190D01*
X139974118Y-103358190D01*
X140212213Y-103858190D02*
X140212213Y-103358190D01*
X140212213Y-103596285D02*
X140497927Y-103596285D01*
X140497927Y-103858190D02*
X140497927Y-103358190D01*
D10*
X135636000Y-108331000D02*
X136017000Y-108712000D01*
X135636000Y-109093000D02*
X135636000Y-108331000D01*
X135255000Y-108712000D02*
X135636000Y-108331000D01*
X135636000Y-109093000D02*
X137033000Y-109093000D01*
X147701000Y-108331000D02*
X148082000Y-108712000D01*
X147320000Y-108712000D02*
X147701000Y-108331000D01*
X147701000Y-108331000D02*
X147320000Y-108712000D01*
X147701000Y-109093000D02*
X147701000Y-108331000D01*
X146304000Y-109093000D02*
X147701000Y-109093000D01*
D12*
X108485085Y-96968428D02*
X108449371Y-97011285D01*
X108342228Y-97054142D01*
X108270800Y-97054142D01*
X108163657Y-97011285D01*
X108092228Y-96925571D01*
X108056514Y-96839857D01*
X108020800Y-96668428D01*
X108020800Y-96539857D01*
X108056514Y-96368428D01*
X108092228Y-96282714D01*
X108163657Y-96197000D01*
X108270800Y-96154142D01*
X108342228Y-96154142D01*
X108449371Y-96197000D01*
X108485085Y-96239857D01*
X108770800Y-96797000D02*
X109127942Y-96797000D01*
X108699371Y-97054142D02*
X108949371Y-96154142D01*
X109199371Y-97054142D01*
X109449371Y-97054142D02*
X109449371Y-96154142D01*
X109877942Y-97054142D01*
X109877942Y-96154142D01*
X110592228Y-97054142D02*
X110235085Y-97054142D01*
X110235085Y-96154142D01*
X108421200Y-94961828D02*
X108385485Y-95004685D01*
X108278342Y-95047542D01*
X108206914Y-95047542D01*
X108099771Y-95004685D01*
X108028342Y-94918971D01*
X107992628Y-94833257D01*
X107956914Y-94661828D01*
X107956914Y-94533257D01*
X107992628Y-94361828D01*
X108028342Y-94276114D01*
X108099771Y-94190400D01*
X108206914Y-94147542D01*
X108278342Y-94147542D01*
X108385485Y-94190400D01*
X108421200Y-94233257D01*
X108706914Y-94790400D02*
X109064057Y-94790400D01*
X108635485Y-95047542D02*
X108885485Y-94147542D01*
X109135485Y-95047542D01*
X109385485Y-95047542D02*
X109385485Y-94147542D01*
X109814057Y-95047542D01*
X109814057Y-94147542D01*
X110171200Y-95047542D02*
X110171200Y-94147542D01*
X110171200Y-94576114D02*
X110599771Y-94576114D01*
X110599771Y-95047542D02*
X110599771Y-94147542D01*
X103898771Y-100032400D02*
X103827342Y-99989542D01*
X103720200Y-99989542D01*
X103613057Y-100032400D01*
X103541628Y-100118114D01*
X103505914Y-100203828D01*
X103470200Y-100375257D01*
X103470200Y-100503828D01*
X103505914Y-100675257D01*
X103541628Y-100760971D01*
X103613057Y-100846685D01*
X103720200Y-100889542D01*
X103791628Y-100889542D01*
X103898771Y-100846685D01*
X103934485Y-100803828D01*
X103934485Y-100503828D01*
X103791628Y-100503828D01*
X104255914Y-100889542D02*
X104255914Y-99989542D01*
X104684485Y-100889542D01*
X104684485Y-99989542D01*
X105041628Y-100889542D02*
X105041628Y-99989542D01*
X105220200Y-99989542D01*
X105327342Y-100032400D01*
X105398771Y-100118114D01*
X105434485Y-100203828D01*
X105470200Y-100375257D01*
X105470200Y-100503828D01*
X105434485Y-100675257D01*
X105398771Y-100760971D01*
X105327342Y-100846685D01*
X105220200Y-100889542D01*
X105041628Y-100889542D01*
X103439257Y-92369542D02*
X103903542Y-92369542D01*
X103653542Y-92712400D01*
X103760685Y-92712400D01*
X103832114Y-92755257D01*
X103867828Y-92798114D01*
X103903542Y-92883828D01*
X103903542Y-93098114D01*
X103867828Y-93183828D01*
X103832114Y-93226685D01*
X103760685Y-93269542D01*
X103546400Y-93269542D01*
X103474971Y-93226685D01*
X103439257Y-93183828D01*
X104224971Y-93183828D02*
X104260685Y-93226685D01*
X104224971Y-93269542D01*
X104189257Y-93226685D01*
X104224971Y-93183828D01*
X104224971Y-93269542D01*
X104510685Y-92369542D02*
X104974971Y-92369542D01*
X104724971Y-92712400D01*
X104832114Y-92712400D01*
X104903542Y-92755257D01*
X104939257Y-92798114D01*
X104974971Y-92883828D01*
X104974971Y-93098114D01*
X104939257Y-93183828D01*
X104903542Y-93226685D01*
X104832114Y-93269542D01*
X104617828Y-93269542D01*
X104546400Y-93226685D01*
X104510685Y-93183828D01*
X105189257Y-92369542D02*
X105439257Y-93269542D01*
X105689257Y-92369542D01*
X102453342Y-97325571D02*
X102453342Y-97682714D01*
X102881914Y-97718428D01*
X102839057Y-97682714D01*
X102796200Y-97611285D01*
X102796200Y-97432714D01*
X102839057Y-97361285D01*
X102881914Y-97325571D01*
X102967628Y-97289857D01*
X103181914Y-97289857D01*
X103267628Y-97325571D01*
X103310485Y-97361285D01*
X103353342Y-97432714D01*
X103353342Y-97611285D01*
X103310485Y-97682714D01*
X103267628Y-97718428D01*
X103267628Y-96968428D02*
X103310485Y-96932714D01*
X103353342Y-96968428D01*
X103310485Y-97004142D01*
X103267628Y-96968428D01*
X103353342Y-96968428D01*
X102453342Y-96682714D02*
X102453342Y-96218428D01*
X102796200Y-96468428D01*
X102796200Y-96361285D01*
X102839057Y-96289857D01*
X102881914Y-96254142D01*
X102967628Y-96218428D01*
X103181914Y-96218428D01*
X103267628Y-96254142D01*
X103310485Y-96289857D01*
X103353342Y-96361285D01*
X103353342Y-96575571D01*
X103310485Y-96647000D01*
X103267628Y-96682714D01*
X102453342Y-96004142D02*
X103353342Y-95754142D01*
X102453342Y-95504142D01*
D11*
X141127219Y-124186190D02*
X140889123Y-124186190D01*
X140865314Y-124424285D01*
X140889123Y-124400476D01*
X140936742Y-124376666D01*
X141055790Y-124376666D01*
X141103409Y-124400476D01*
X141127219Y-124424285D01*
X141151028Y-124471904D01*
X141151028Y-124590952D01*
X141127219Y-124638571D01*
X141103409Y-124662380D01*
X141055790Y-124686190D01*
X140936742Y-124686190D01*
X140889123Y-124662380D01*
X140865314Y-124638571D01*
X141365314Y-124638571D02*
X141389123Y-124662380D01*
X141365314Y-124686190D01*
X141341504Y-124662380D01*
X141365314Y-124638571D01*
X141365314Y-124686190D01*
X141555790Y-124186190D02*
X141865314Y-124186190D01*
X141698647Y-124376666D01*
X141770076Y-124376666D01*
X141817695Y-124400476D01*
X141841504Y-124424285D01*
X141865314Y-124471904D01*
X141865314Y-124590952D01*
X141841504Y-124638571D01*
X141817695Y-124662380D01*
X141770076Y-124686190D01*
X141627219Y-124686190D01*
X141579600Y-124662380D01*
X141555790Y-124638571D01*
X142008171Y-124186190D02*
X142174838Y-124686190D01*
X142341504Y-124186190D01*
X140808152Y-122154190D02*
X141117676Y-122154190D01*
X140951009Y-122344666D01*
X141022438Y-122344666D01*
X141070057Y-122368476D01*
X141093866Y-122392285D01*
X141117676Y-122439904D01*
X141117676Y-122558952D01*
X141093866Y-122606571D01*
X141070057Y-122630380D01*
X141022438Y-122654190D01*
X140879580Y-122654190D01*
X140831961Y-122630380D01*
X140808152Y-122606571D01*
X141284342Y-122154190D02*
X141617676Y-122154190D01*
X141403390Y-122654190D01*
X141736723Y-122154190D02*
X141903390Y-122654190D01*
X142070057Y-122154190D01*
X148631352Y-122103390D02*
X148940876Y-122103390D01*
X148774209Y-122293866D01*
X148845638Y-122293866D01*
X148893257Y-122317676D01*
X148917066Y-122341485D01*
X148940876Y-122389104D01*
X148940876Y-122508152D01*
X148917066Y-122555771D01*
X148893257Y-122579580D01*
X148845638Y-122603390D01*
X148702780Y-122603390D01*
X148655161Y-122579580D01*
X148631352Y-122555771D01*
X149107542Y-122103390D02*
X149440876Y-122103390D01*
X149226590Y-122603390D01*
X149559923Y-122103390D02*
X149726590Y-122603390D01*
X149893257Y-122103390D01*
X148848819Y-124084590D02*
X148610723Y-124084590D01*
X148586914Y-124322685D01*
X148610723Y-124298876D01*
X148658342Y-124275066D01*
X148777390Y-124275066D01*
X148825009Y-124298876D01*
X148848819Y-124322685D01*
X148872628Y-124370304D01*
X148872628Y-124489352D01*
X148848819Y-124536971D01*
X148825009Y-124560780D01*
X148777390Y-124584590D01*
X148658342Y-124584590D01*
X148610723Y-124560780D01*
X148586914Y-124536971D01*
X149086914Y-124536971D02*
X149110723Y-124560780D01*
X149086914Y-124584590D01*
X149063104Y-124560780D01*
X149086914Y-124536971D01*
X149086914Y-124584590D01*
X149277390Y-124084590D02*
X149586914Y-124084590D01*
X149420247Y-124275066D01*
X149491676Y-124275066D01*
X149539295Y-124298876D01*
X149563104Y-124322685D01*
X149586914Y-124370304D01*
X149586914Y-124489352D01*
X149563104Y-124536971D01*
X149539295Y-124560780D01*
X149491676Y-124584590D01*
X149348819Y-124584590D01*
X149301200Y-124560780D01*
X149277390Y-124536971D01*
X149729771Y-124084590D02*
X149896438Y-124584590D01*
X150063104Y-124084590D01*
D10*
X150495000Y-111734600D02*
X151104600Y-112242600D01*
X150495000Y-111734600D02*
X151130000Y-111302800D01*
X154686000Y-111734600D02*
X150495000Y-111734600D01*
X154711400Y-112471200D02*
X154686000Y-111734600D01*
X110677960Y-97891600D02*
X129423160Y-97899220D01*
X110677960Y-110982000D02*
X110677960Y-97891600D01*
X129435860Y-122867420D02*
X111635540Y-122872500D01*
X129423160Y-97899220D02*
X129435860Y-122867420D01*
X112173160Y-149793960D02*
X112163000Y-134627620D01*
X125775720Y-134627620D02*
X112163000Y-134627620D01*
X125775720Y-149804120D02*
X125775720Y-134627620D01*
D12*
X164312809Y-74612333D02*
X165265190Y-74612333D01*
X164122333Y-75183761D02*
X164789000Y-73183761D01*
X165455666Y-75183761D01*
X166122333Y-75183761D02*
X166122333Y-73183761D01*
X166598523Y-73183761D01*
X166884238Y-73279000D01*
X167074714Y-73469476D01*
X167169952Y-73659952D01*
X167265190Y-74040904D01*
X167265190Y-74326619D01*
X167169952Y-74707571D01*
X167074714Y-74898047D01*
X166884238Y-75088523D01*
X166598523Y-75183761D01*
X166122333Y-75183761D01*
X168027095Y-74612333D02*
X168979476Y-74612333D01*
X167836619Y-75183761D02*
X168503285Y-73183761D01*
X169169952Y-75183761D01*
X169836619Y-75183761D02*
X169836619Y-73183761D01*
X170503285Y-74612333D01*
X171169952Y-73183761D01*
X171169952Y-75183761D01*
X162931857Y-77636619D02*
X162979476Y-77589000D01*
X163074714Y-77541380D01*
X163312809Y-77541380D01*
X163408047Y-77589000D01*
X163455666Y-77636619D01*
X163503285Y-77731857D01*
X163503285Y-77827095D01*
X163455666Y-77969952D01*
X162884238Y-78541380D01*
X163503285Y-78541380D01*
X164122333Y-77541380D02*
X164217571Y-77541380D01*
X164312809Y-77589000D01*
X164360428Y-77636619D01*
X164408047Y-77731857D01*
X164455666Y-77922333D01*
X164455666Y-78160428D01*
X164408047Y-78350904D01*
X164360428Y-78446142D01*
X164312809Y-78493761D01*
X164217571Y-78541380D01*
X164122333Y-78541380D01*
X164027095Y-78493761D01*
X163979476Y-78446142D01*
X163931857Y-78350904D01*
X163884238Y-78160428D01*
X163884238Y-77922333D01*
X163931857Y-77731857D01*
X163979476Y-77636619D01*
X164027095Y-77589000D01*
X164122333Y-77541380D01*
X164836619Y-77636619D02*
X164884238Y-77589000D01*
X164979476Y-77541380D01*
X165217571Y-77541380D01*
X165312809Y-77589000D01*
X165360428Y-77636619D01*
X165408047Y-77731857D01*
X165408047Y-77827095D01*
X165360428Y-77969952D01*
X164789000Y-78541380D01*
X165408047Y-78541380D01*
X166360428Y-78541380D02*
X165789000Y-78541380D01*
X166074714Y-78541380D02*
X166074714Y-77541380D01*
X165979476Y-77684238D01*
X165884238Y-77779476D01*
X165789000Y-77827095D01*
X166789000Y-78160428D02*
X167550904Y-78160428D01*
X168217571Y-77541380D02*
X168312809Y-77541380D01*
X168408047Y-77589000D01*
X168455666Y-77636619D01*
X168503285Y-77731857D01*
X168550904Y-77922333D01*
X168550904Y-78160428D01*
X168503285Y-78350904D01*
X168455666Y-78446142D01*
X168408047Y-78493761D01*
X168312809Y-78541380D01*
X168217571Y-78541380D01*
X168122333Y-78493761D01*
X168074714Y-78446142D01*
X168027095Y-78350904D01*
X167979476Y-78160428D01*
X167979476Y-77922333D01*
X168027095Y-77731857D01*
X168074714Y-77636619D01*
X168122333Y-77589000D01*
X168217571Y-77541380D01*
X168884238Y-77541380D02*
X169550904Y-77541380D01*
X169122333Y-78541380D01*
X169931857Y-78160428D02*
X170693761Y-78160428D01*
X171693761Y-78541380D02*
X171122333Y-78541380D01*
X171408047Y-78541380D02*
X171408047Y-77541380D01*
X171312809Y-77684238D01*
X171217571Y-77779476D01*
X171122333Y-77827095D01*
X172598523Y-77541380D02*
X172122333Y-77541380D01*
X172074714Y-78017571D01*
X172122333Y-77969952D01*
X172217571Y-77922333D01*
X172455666Y-77922333D01*
X172550904Y-77969952D01*
X172598523Y-78017571D01*
X172646142Y-78112809D01*
X172646142Y-78350904D01*
X172598523Y-78446142D01*
X172550904Y-78493761D01*
X172455666Y-78541380D01*
X172217571Y-78541380D01*
X172122333Y-78493761D01*
X172074714Y-78446142D01*
X164915952Y-76890380D02*
X164582619Y-76414190D01*
X164344523Y-76890380D02*
X164344523Y-75890380D01*
X164725476Y-75890380D01*
X164820714Y-75938000D01*
X164868333Y-75985619D01*
X164915952Y-76080857D01*
X164915952Y-76223714D01*
X164868333Y-76318952D01*
X164820714Y-76366571D01*
X164725476Y-76414190D01*
X164344523Y-76414190D01*
X165344523Y-76795142D02*
X165392142Y-76842761D01*
X165344523Y-76890380D01*
X165296904Y-76842761D01*
X165344523Y-76795142D01*
X165344523Y-76890380D01*
X166582619Y-76890380D02*
X166582619Y-75890380D01*
X166820714Y-75890380D01*
X166963571Y-75938000D01*
X167058809Y-76033238D01*
X167106428Y-76128476D01*
X167154047Y-76318952D01*
X167154047Y-76461809D01*
X167106428Y-76652285D01*
X167058809Y-76747523D01*
X166963571Y-76842761D01*
X166820714Y-76890380D01*
X166582619Y-76890380D01*
X168011190Y-76890380D02*
X168011190Y-76366571D01*
X167963571Y-76271333D01*
X167868333Y-76223714D01*
X167677857Y-76223714D01*
X167582619Y-76271333D01*
X168011190Y-76842761D02*
X167915952Y-76890380D01*
X167677857Y-76890380D01*
X167582619Y-76842761D01*
X167535000Y-76747523D01*
X167535000Y-76652285D01*
X167582619Y-76557047D01*
X167677857Y-76509428D01*
X167915952Y-76509428D01*
X168011190Y-76461809D01*
X168487380Y-76890380D02*
X168487380Y-75890380D01*
X168582619Y-76509428D02*
X168868333Y-76890380D01*
X168868333Y-76223714D02*
X168487380Y-76604666D01*
X169296904Y-76890380D02*
X169296904Y-75890380D01*
X169725476Y-76890380D02*
X169725476Y-76366571D01*
X169677857Y-76271333D01*
X169582619Y-76223714D01*
X169439761Y-76223714D01*
X169344523Y-76271333D01*
X169296904Y-76318952D01*
X170201666Y-76890380D02*
X170201666Y-76223714D01*
X170201666Y-75890380D02*
X170154047Y-75938000D01*
X170201666Y-75985619D01*
X170249285Y-75938000D01*
X170201666Y-75890380D01*
X170201666Y-75985619D01*
X170820714Y-76890380D02*
X170725476Y-76842761D01*
X170677857Y-76747523D01*
X170677857Y-75890380D01*
X117095211Y-145004211D02*
X117238068Y-145051830D01*
X117285687Y-145099449D01*
X117333306Y-145194687D01*
X117333306Y-145337544D01*
X117285687Y-145432782D01*
X117238068Y-145480401D01*
X117142830Y-145528020D01*
X116761878Y-145528020D01*
X116761878Y-144528020D01*
X117095211Y-144528020D01*
X117190449Y-144575640D01*
X117238068Y-144623259D01*
X117285687Y-144718497D01*
X117285687Y-144813735D01*
X117238068Y-144908973D01*
X117190449Y-144956592D01*
X117095211Y-145004211D01*
X116761878Y-145004211D01*
X118190449Y-145528020D02*
X118190449Y-145004211D01*
X118142830Y-144908973D01*
X118047592Y-144861354D01*
X117857116Y-144861354D01*
X117761878Y-144908973D01*
X118190449Y-145480401D02*
X118095211Y-145528020D01*
X117857116Y-145528020D01*
X117761878Y-145480401D01*
X117714259Y-145385163D01*
X117714259Y-145289925D01*
X117761878Y-145194687D01*
X117857116Y-145147068D01*
X118095211Y-145147068D01*
X118190449Y-145099449D01*
X118523782Y-144861354D02*
X118904735Y-144861354D01*
X118666640Y-144528020D02*
X118666640Y-145385163D01*
X118714259Y-145480401D01*
X118809497Y-145528020D01*
X118904735Y-145528020D01*
X119095211Y-144861354D02*
X119476163Y-144861354D01*
X119238068Y-144528020D02*
X119238068Y-145385163D01*
X119285687Y-145480401D01*
X119380925Y-145528020D01*
X119476163Y-145528020D01*
X120190449Y-145480401D02*
X120095211Y-145528020D01*
X119904735Y-145528020D01*
X119809497Y-145480401D01*
X119761878Y-145385163D01*
X119761878Y-145004211D01*
X119809497Y-144908973D01*
X119904735Y-144861354D01*
X120095211Y-144861354D01*
X120190449Y-144908973D01*
X120238068Y-145004211D01*
X120238068Y-145099449D01*
X119761878Y-145194687D01*
X120666640Y-145528020D02*
X120666640Y-144861354D01*
X120666640Y-145051830D02*
X120714259Y-144956592D01*
X120761878Y-144908973D01*
X120857116Y-144861354D01*
X120952354Y-144861354D01*
X121190449Y-144861354D02*
X121428544Y-145528020D01*
X121666640Y-144861354D02*
X121428544Y-145528020D01*
X121333306Y-145766116D01*
X121285687Y-145813735D01*
X121190449Y-145861354D01*
X117238068Y-147082782D02*
X117190449Y-147130401D01*
X117047592Y-147178020D01*
X116952354Y-147178020D01*
X116809497Y-147130401D01*
X116714259Y-147035163D01*
X116666640Y-146939925D01*
X116619020Y-146749449D01*
X116619020Y-146606592D01*
X116666640Y-146416116D01*
X116714259Y-146320878D01*
X116809497Y-146225640D01*
X116952354Y-146178020D01*
X117047592Y-146178020D01*
X117190449Y-146225640D01*
X117238068Y-146273259D01*
X118095211Y-146511354D02*
X118095211Y-147178020D01*
X117666640Y-146511354D02*
X117666640Y-147035163D01*
X117714259Y-147130401D01*
X117809497Y-147178020D01*
X117952354Y-147178020D01*
X118047592Y-147130401D01*
X118095211Y-147082782D01*
X118571401Y-147178020D02*
X118571401Y-146511354D01*
X118571401Y-146701830D02*
X118619020Y-146606592D01*
X118666640Y-146558973D01*
X118761878Y-146511354D01*
X118857116Y-146511354D01*
X119190449Y-147178020D02*
X119190449Y-146511354D01*
X119190449Y-146701830D02*
X119238068Y-146606592D01*
X119285687Y-146558973D01*
X119380925Y-146511354D01*
X119476163Y-146511354D01*
X120190449Y-147130401D02*
X120095211Y-147178020D01*
X119904735Y-147178020D01*
X119809497Y-147130401D01*
X119761878Y-147035163D01*
X119761878Y-146654211D01*
X119809497Y-146558973D01*
X119904735Y-146511354D01*
X120095211Y-146511354D01*
X120190449Y-146558973D01*
X120238068Y-146654211D01*
X120238068Y-146749449D01*
X119761878Y-146844687D01*
X120666640Y-146511354D02*
X120666640Y-147178020D01*
X120666640Y-146606592D02*
X120714259Y-146558973D01*
X120809497Y-146511354D01*
X120952354Y-146511354D01*
X121047592Y-146558973D01*
X121095211Y-146654211D01*
X121095211Y-147178020D01*
X121428544Y-146511354D02*
X121809497Y-146511354D01*
X121571401Y-146178020D02*
X121571401Y-147035163D01*
X121619020Y-147130401D01*
X121714259Y-147178020D01*
X121809497Y-147178020D01*
X116452354Y-148780401D02*
X116595211Y-148828020D01*
X116833306Y-148828020D01*
X116928544Y-148780401D01*
X116976163Y-148732782D01*
X117023782Y-148637544D01*
X117023782Y-148542306D01*
X116976163Y-148447068D01*
X116928544Y-148399449D01*
X116833306Y-148351830D01*
X116642830Y-148304211D01*
X116547592Y-148256592D01*
X116499973Y-148208973D01*
X116452354Y-148113735D01*
X116452354Y-148018497D01*
X116499973Y-147923259D01*
X116547592Y-147875640D01*
X116642830Y-147828020D01*
X116880925Y-147828020D01*
X117023782Y-147875640D01*
X117833306Y-148780401D02*
X117738068Y-148828020D01*
X117547592Y-148828020D01*
X117452354Y-148780401D01*
X117404735Y-148685163D01*
X117404735Y-148304211D01*
X117452354Y-148208973D01*
X117547592Y-148161354D01*
X117738068Y-148161354D01*
X117833306Y-148208973D01*
X117880925Y-148304211D01*
X117880925Y-148399449D01*
X117404735Y-148494687D01*
X118309497Y-148161354D02*
X118309497Y-148828020D01*
X118309497Y-148256592D02*
X118357116Y-148208973D01*
X118452354Y-148161354D01*
X118595211Y-148161354D01*
X118690449Y-148208973D01*
X118738068Y-148304211D01*
X118738068Y-148828020D01*
X119166640Y-148780401D02*
X119261878Y-148828020D01*
X119452354Y-148828020D01*
X119547592Y-148780401D01*
X119595211Y-148685163D01*
X119595211Y-148637544D01*
X119547592Y-148542306D01*
X119452354Y-148494687D01*
X119309497Y-148494687D01*
X119214259Y-148447068D01*
X119166640Y-148351830D01*
X119166640Y-148304211D01*
X119214259Y-148208973D01*
X119309497Y-148161354D01*
X119452354Y-148161354D01*
X119547592Y-148208973D01*
X120023782Y-148828020D02*
X120023782Y-148161354D01*
X120023782Y-147828020D02*
X119976163Y-147875640D01*
X120023782Y-147923259D01*
X120071401Y-147875640D01*
X120023782Y-147828020D01*
X120023782Y-147923259D01*
X120499973Y-148161354D02*
X120499973Y-148828020D01*
X120499973Y-148256592D02*
X120547592Y-148208973D01*
X120642830Y-148161354D01*
X120785687Y-148161354D01*
X120880925Y-148208973D01*
X120928544Y-148304211D01*
X120928544Y-148828020D01*
X121833306Y-148161354D02*
X121833306Y-148970878D01*
X121785687Y-149066116D01*
X121738068Y-149113735D01*
X121642830Y-149161354D01*
X121499973Y-149161354D01*
X121404735Y-149113735D01*
X121833306Y-148780401D02*
X121738068Y-148828020D01*
X121547592Y-148828020D01*
X121452354Y-148780401D01*
X121404735Y-148732782D01*
X121357116Y-148637544D01*
X121357116Y-148351830D01*
X121404735Y-148256592D01*
X121452354Y-148208973D01*
X121547592Y-148161354D01*
X121738068Y-148161354D01*
X121833306Y-148208973D01*
X138208190Y-109545380D02*
X137874857Y-109069190D01*
X137636761Y-109545380D02*
X137636761Y-108545380D01*
X138017714Y-108545380D01*
X138112952Y-108593000D01*
X138160571Y-108640619D01*
X138208190Y-108735857D01*
X138208190Y-108878714D01*
X138160571Y-108973952D01*
X138112952Y-109021571D01*
X138017714Y-109069190D01*
X137636761Y-109069190D01*
X138779619Y-109545380D02*
X138684380Y-109497761D01*
X138636761Y-109450142D01*
X138589142Y-109354904D01*
X138589142Y-109069190D01*
X138636761Y-108973952D01*
X138684380Y-108926333D01*
X138779619Y-108878714D01*
X138922476Y-108878714D01*
X139017714Y-108926333D01*
X139065333Y-108973952D01*
X139112952Y-109069190D01*
X139112952Y-109354904D01*
X139065333Y-109450142D01*
X139017714Y-109497761D01*
X138922476Y-109545380D01*
X138779619Y-109545380D01*
X139970095Y-109497761D02*
X139874857Y-109545380D01*
X139684380Y-109545380D01*
X139589142Y-109497761D01*
X139541523Y-109450142D01*
X139493904Y-109354904D01*
X139493904Y-109069190D01*
X139541523Y-108973952D01*
X139589142Y-108926333D01*
X139684380Y-108878714D01*
X139874857Y-108878714D01*
X139970095Y-108926333D01*
X140398666Y-109545380D02*
X140398666Y-108545380D01*
X140493904Y-109164428D02*
X140779619Y-109545380D01*
X140779619Y-108878714D02*
X140398666Y-109259666D01*
X141589142Y-109497761D02*
X141493904Y-109545380D01*
X141303428Y-109545380D01*
X141208190Y-109497761D01*
X141160571Y-109402523D01*
X141160571Y-109021571D01*
X141208190Y-108926333D01*
X141303428Y-108878714D01*
X141493904Y-108878714D01*
X141589142Y-108926333D01*
X141636761Y-109021571D01*
X141636761Y-109116809D01*
X141160571Y-109212047D01*
X141922476Y-108878714D02*
X142303428Y-108878714D01*
X142065333Y-108545380D02*
X142065333Y-109402523D01*
X142112952Y-109497761D01*
X142208190Y-109545380D01*
X142303428Y-109545380D01*
X143970095Y-109450142D02*
X143922476Y-109497761D01*
X143779619Y-109545380D01*
X143684380Y-109545380D01*
X143541523Y-109497761D01*
X143446285Y-109402523D01*
X143398666Y-109307285D01*
X143351047Y-109116809D01*
X143351047Y-108973952D01*
X143398666Y-108783476D01*
X143446285Y-108688238D01*
X143541523Y-108593000D01*
X143684380Y-108545380D01*
X143779619Y-108545380D01*
X143922476Y-108593000D01*
X143970095Y-108640619D01*
X144351047Y-109259666D02*
X144827238Y-109259666D01*
X144255809Y-109545380D02*
X144589142Y-108545380D01*
X144922476Y-109545380D01*
X145255809Y-109545380D02*
X145255809Y-108545380D01*
X145827238Y-109545380D01*
X145827238Y-108545380D01*
D10*
X144614900Y-68328540D02*
X130939540Y-68318380D01*
X144589500Y-86451440D02*
X130949700Y-86461600D01*
X144589500Y-86443820D02*
X144604740Y-68338700D01*
X130939540Y-68318380D02*
X130962400Y-86461600D01*
D12*
X131158409Y-84942988D02*
X131920314Y-84942988D01*
X131539361Y-85323940D02*
X131539361Y-84562036D01*
X132301266Y-84323940D02*
X132920314Y-84323940D01*
X132586980Y-84704893D01*
X132729838Y-84704893D01*
X132825076Y-84752512D01*
X132872695Y-84800131D01*
X132920314Y-84895369D01*
X132920314Y-85133464D01*
X132872695Y-85228702D01*
X132825076Y-85276321D01*
X132729838Y-85323940D01*
X132444123Y-85323940D01*
X132348885Y-85276321D01*
X132301266Y-85228702D01*
X133348885Y-85228702D02*
X133396504Y-85276321D01*
X133348885Y-85323940D01*
X133301266Y-85276321D01*
X133348885Y-85228702D01*
X133348885Y-85323940D01*
X133729838Y-84323940D02*
X134348885Y-84323940D01*
X134015552Y-84704893D01*
X134158409Y-84704893D01*
X134253647Y-84752512D01*
X134301266Y-84800131D01*
X134348885Y-84895369D01*
X134348885Y-85133464D01*
X134301266Y-85228702D01*
X134253647Y-85276321D01*
X134158409Y-85323940D01*
X133872695Y-85323940D01*
X133777457Y-85276321D01*
X133729838Y-85228702D01*
X134634600Y-84323940D02*
X134967933Y-85323940D01*
X135301266Y-84323940D01*
X136967933Y-85323940D02*
X136634600Y-84847750D01*
X136396504Y-85323940D02*
X136396504Y-84323940D01*
X136777457Y-84323940D01*
X136872695Y-84371560D01*
X136920314Y-84419179D01*
X136967933Y-84514417D01*
X136967933Y-84657274D01*
X136920314Y-84752512D01*
X136872695Y-84800131D01*
X136777457Y-84847750D01*
X136396504Y-84847750D01*
X137777457Y-85276321D02*
X137682219Y-85323940D01*
X137491742Y-85323940D01*
X137396504Y-85276321D01*
X137348885Y-85181083D01*
X137348885Y-84800131D01*
X137396504Y-84704893D01*
X137491742Y-84657274D01*
X137682219Y-84657274D01*
X137777457Y-84704893D01*
X137825076Y-84800131D01*
X137825076Y-84895369D01*
X137348885Y-84990607D01*
X138682219Y-84657274D02*
X138682219Y-85466798D01*
X138634600Y-85562036D01*
X138586980Y-85609655D01*
X138491742Y-85657274D01*
X138348885Y-85657274D01*
X138253647Y-85609655D01*
X138682219Y-85276321D02*
X138586980Y-85323940D01*
X138396504Y-85323940D01*
X138301266Y-85276321D01*
X138253647Y-85228702D01*
X138206028Y-85133464D01*
X138206028Y-84847750D01*
X138253647Y-84752512D01*
X138301266Y-84704893D01*
X138396504Y-84657274D01*
X138586980Y-84657274D01*
X138682219Y-84704893D01*
X139586980Y-84657274D02*
X139586980Y-85323940D01*
X139158409Y-84657274D02*
X139158409Y-85181083D01*
X139206028Y-85276321D01*
X139301266Y-85323940D01*
X139444123Y-85323940D01*
X139539361Y-85276321D01*
X139586980Y-85228702D01*
X140206028Y-85323940D02*
X140110790Y-85276321D01*
X140063171Y-85181083D01*
X140063171Y-84323940D01*
X141015552Y-85323940D02*
X141015552Y-84800131D01*
X140967933Y-84704893D01*
X140872695Y-84657274D01*
X140682219Y-84657274D01*
X140586980Y-84704893D01*
X141015552Y-85276321D02*
X140920314Y-85323940D01*
X140682219Y-85323940D01*
X140586980Y-85276321D01*
X140539361Y-85181083D01*
X140539361Y-85085845D01*
X140586980Y-84990607D01*
X140682219Y-84942988D01*
X140920314Y-84942988D01*
X141015552Y-84895369D01*
X141348885Y-84657274D02*
X141729838Y-84657274D01*
X141491742Y-84323940D02*
X141491742Y-85181083D01*
X141539361Y-85276321D01*
X141634600Y-85323940D01*
X141729838Y-85323940D01*
X142206028Y-85323940D02*
X142110790Y-85276321D01*
X142063171Y-85228702D01*
X142015552Y-85133464D01*
X142015552Y-84847750D01*
X142063171Y-84752512D01*
X142110790Y-84704893D01*
X142206028Y-84657274D01*
X142348885Y-84657274D01*
X142444123Y-84704893D01*
X142491742Y-84752512D01*
X142539361Y-84847750D01*
X142539361Y-85133464D01*
X142491742Y-85228702D01*
X142444123Y-85276321D01*
X142348885Y-85323940D01*
X142206028Y-85323940D01*
X142967933Y-85323940D02*
X142967933Y-84657274D01*
X142967933Y-84847750D02*
X143015552Y-84752512D01*
X143063171Y-84704893D01*
X143158409Y-84657274D01*
X143253647Y-84657274D01*
X175885714Y-116006380D02*
X175885714Y-115006380D01*
X176219047Y-115720666D01*
X176552380Y-115006380D01*
X176552380Y-116006380D01*
X177028571Y-116006380D02*
X177028571Y-115339714D01*
X177028571Y-115006380D02*
X176980952Y-115054000D01*
X177028571Y-115101619D01*
X177076190Y-115054000D01*
X177028571Y-115006380D01*
X177028571Y-115101619D01*
X177504761Y-115339714D02*
X177504761Y-116006380D01*
X177504761Y-115434952D02*
X177552380Y-115387333D01*
X177647619Y-115339714D01*
X177790476Y-115339714D01*
X177885714Y-115387333D01*
X177933333Y-115482571D01*
X177933333Y-116006380D01*
X178409523Y-116006380D02*
X178409523Y-115339714D01*
X178409523Y-115006380D02*
X178361904Y-115054000D01*
X178409523Y-115101619D01*
X178457142Y-115054000D01*
X178409523Y-115006380D01*
X178409523Y-115101619D01*
X178838095Y-115958761D02*
X178933333Y-116006380D01*
X179123809Y-116006380D01*
X179219047Y-115958761D01*
X179266666Y-115863523D01*
X179266666Y-115815904D01*
X179219047Y-115720666D01*
X179123809Y-115673047D01*
X178980952Y-115673047D01*
X178885714Y-115625428D01*
X178838095Y-115530190D01*
X178838095Y-115482571D01*
X178885714Y-115387333D01*
X178980952Y-115339714D01*
X179123809Y-115339714D01*
X179219047Y-115387333D01*
X180076190Y-115958761D02*
X179980952Y-116006380D01*
X179790476Y-116006380D01*
X179695238Y-115958761D01*
X179647619Y-115863523D01*
X179647619Y-115482571D01*
X179695238Y-115387333D01*
X179790476Y-115339714D01*
X179980952Y-115339714D01*
X180076190Y-115387333D01*
X180123809Y-115482571D01*
X180123809Y-115577809D01*
X179647619Y-115673047D01*
X180552380Y-115339714D02*
X180552380Y-116006380D01*
X180552380Y-115434952D02*
X180600000Y-115387333D01*
X180695238Y-115339714D01*
X180838095Y-115339714D01*
X180933333Y-115387333D01*
X180980952Y-115482571D01*
X180980952Y-116006380D01*
X181409523Y-115958761D02*
X181504761Y-116006380D01*
X181695238Y-116006380D01*
X181790476Y-115958761D01*
X181838095Y-115863523D01*
X181838095Y-115815904D01*
X181790476Y-115720666D01*
X181695238Y-115673047D01*
X181552380Y-115673047D01*
X181457142Y-115625428D01*
X181409523Y-115530190D01*
X181409523Y-115482571D01*
X181457142Y-115387333D01*
X181552380Y-115339714D01*
X181695238Y-115339714D01*
X181790476Y-115387333D01*
X182409523Y-116006380D02*
X182314285Y-115958761D01*
X182266666Y-115911142D01*
X182219047Y-115815904D01*
X182219047Y-115530190D01*
X182266666Y-115434952D01*
X182314285Y-115387333D01*
X182409523Y-115339714D01*
X182552380Y-115339714D01*
X182647619Y-115387333D01*
X182695238Y-115434952D01*
X182742857Y-115530190D01*
X182742857Y-115815904D01*
X182695238Y-115911142D01*
X182647619Y-115958761D01*
X182552380Y-116006380D01*
X182409523Y-116006380D01*
X183171428Y-116006380D02*
X183171428Y-115339714D01*
X183171428Y-115530190D02*
X183219047Y-115434952D01*
X183266666Y-115387333D01*
X183361904Y-115339714D01*
X183457142Y-115339714D01*
X158088414Y-93457412D02*
X158088414Y-90957412D01*
X158683652Y-90957412D01*
X159040795Y-91076460D01*
X159278890Y-91314555D01*
X159397938Y-91552650D01*
X159516985Y-92028840D01*
X159516985Y-92385983D01*
X159397938Y-92862174D01*
X159278890Y-93100269D01*
X159040795Y-93338364D01*
X158683652Y-93457412D01*
X158088414Y-93457412D01*
X160588414Y-93457412D02*
X160588414Y-90957412D01*
X162016985Y-93457412D01*
X162016985Y-90957412D01*
X163207461Y-93457412D02*
X163207461Y-90957412D01*
X164159842Y-90957412D01*
X164397938Y-91076460D01*
X164516985Y-91195507D01*
X164636033Y-91433602D01*
X164636033Y-91790745D01*
X164516985Y-92028840D01*
X164397938Y-92147888D01*
X164159842Y-92266936D01*
X163207461Y-92266936D01*
D10*
X157705200Y-80959200D02*
X157700980Y-94599760D01*
X173401540Y-80959200D02*
X157705200Y-80959200D01*
X173428660Y-94655640D02*
X173427800Y-80959200D01*
X157756860Y-94655640D02*
X173428660Y-94655640D01*
D12*
X160222104Y-81894228D02*
X160984009Y-81894228D01*
X160603057Y-82275180D02*
X160603057Y-81513276D01*
X161984009Y-82275180D02*
X161412580Y-82275180D01*
X161698295Y-82275180D02*
X161698295Y-81275180D01*
X161603057Y-81418038D01*
X161507819Y-81513276D01*
X161412580Y-81560895D01*
X162364961Y-81370419D02*
X162412580Y-81322800D01*
X162507819Y-81275180D01*
X162745914Y-81275180D01*
X162841152Y-81322800D01*
X162888771Y-81370419D01*
X162936390Y-81465657D01*
X162936390Y-81560895D01*
X162888771Y-81703752D01*
X162317342Y-82275180D01*
X162936390Y-82275180D01*
X163222104Y-81275180D02*
X163555438Y-82275180D01*
X163888771Y-81275180D01*
X165555438Y-82275180D02*
X165222104Y-81798990D01*
X164984009Y-82275180D02*
X164984009Y-81275180D01*
X165364961Y-81275180D01*
X165460200Y-81322800D01*
X165507819Y-81370419D01*
X165555438Y-81465657D01*
X165555438Y-81608514D01*
X165507819Y-81703752D01*
X165460200Y-81751371D01*
X165364961Y-81798990D01*
X164984009Y-81798990D01*
X166364961Y-82227561D02*
X166269723Y-82275180D01*
X166079247Y-82275180D01*
X165984009Y-82227561D01*
X165936390Y-82132323D01*
X165936390Y-81751371D01*
X165984009Y-81656133D01*
X166079247Y-81608514D01*
X166269723Y-81608514D01*
X166364961Y-81656133D01*
X166412580Y-81751371D01*
X166412580Y-81846609D01*
X165936390Y-81941847D01*
X167269723Y-81608514D02*
X167269723Y-82418038D01*
X167222104Y-82513276D01*
X167174485Y-82560895D01*
X167079247Y-82608514D01*
X166936390Y-82608514D01*
X166841152Y-82560895D01*
X167269723Y-82227561D02*
X167174485Y-82275180D01*
X166984009Y-82275180D01*
X166888771Y-82227561D01*
X166841152Y-82179942D01*
X166793533Y-82084704D01*
X166793533Y-81798990D01*
X166841152Y-81703752D01*
X166888771Y-81656133D01*
X166984009Y-81608514D01*
X167174485Y-81608514D01*
X167269723Y-81656133D01*
X168174485Y-81608514D02*
X168174485Y-82275180D01*
X167745914Y-81608514D02*
X167745914Y-82132323D01*
X167793533Y-82227561D01*
X167888771Y-82275180D01*
X168031628Y-82275180D01*
X168126866Y-82227561D01*
X168174485Y-82179942D01*
X168793533Y-82275180D02*
X168698295Y-82227561D01*
X168650676Y-82132323D01*
X168650676Y-81275180D01*
X169603057Y-82275180D02*
X169603057Y-81751371D01*
X169555438Y-81656133D01*
X169460200Y-81608514D01*
X169269723Y-81608514D01*
X169174485Y-81656133D01*
X169603057Y-82227561D02*
X169507819Y-82275180D01*
X169269723Y-82275180D01*
X169174485Y-82227561D01*
X169126866Y-82132323D01*
X169126866Y-82037085D01*
X169174485Y-81941847D01*
X169269723Y-81894228D01*
X169507819Y-81894228D01*
X169603057Y-81846609D01*
X169936390Y-81608514D02*
X170317342Y-81608514D01*
X170079247Y-81275180D02*
X170079247Y-82132323D01*
X170126866Y-82227561D01*
X170222104Y-82275180D01*
X170317342Y-82275180D01*
X170793533Y-82275180D02*
X170698295Y-82227561D01*
X170650676Y-82179942D01*
X170603057Y-82084704D01*
X170603057Y-81798990D01*
X170650676Y-81703752D01*
X170698295Y-81656133D01*
X170793533Y-81608514D01*
X170936390Y-81608514D01*
X171031628Y-81656133D01*
X171079247Y-81703752D01*
X171126866Y-81798990D01*
X171126866Y-82084704D01*
X171079247Y-82179942D01*
X171031628Y-82227561D01*
X170936390Y-82275180D01*
X170793533Y-82275180D01*
X171555438Y-82275180D02*
X171555438Y-81608514D01*
X171555438Y-81798990D02*
X171603057Y-81703752D01*
X171650676Y-81656133D01*
X171745914Y-81608514D01*
X171841152Y-81608514D01*
D10*
X130121660Y-87574120D02*
X130121660Y-102130860D01*
X143012160Y-87627460D02*
X130121660Y-87617300D01*
X143014700Y-102133400D02*
X143012160Y-87627460D01*
X130126740Y-102141020D02*
X143014700Y-102133400D01*
D12*
X150187684Y-133083560D02*
X150187684Y-132083560D01*
X150521018Y-132797846D01*
X150854351Y-132083560D01*
X150854351Y-133083560D01*
X151330541Y-133083560D02*
X151330541Y-132416894D01*
X151330541Y-132083560D02*
X151282922Y-132131180D01*
X151330541Y-132178799D01*
X151378160Y-132131180D01*
X151330541Y-132083560D01*
X151330541Y-132178799D01*
X152235303Y-133035941D02*
X152140065Y-133083560D01*
X151949589Y-133083560D01*
X151854351Y-133035941D01*
X151806732Y-132988322D01*
X151759113Y-132893084D01*
X151759113Y-132607370D01*
X151806732Y-132512132D01*
X151854351Y-132464513D01*
X151949589Y-132416894D01*
X152140065Y-132416894D01*
X152235303Y-132464513D01*
X152663875Y-133083560D02*
X152663875Y-132416894D01*
X152663875Y-132607370D02*
X152711494Y-132512132D01*
X152759113Y-132464513D01*
X152854351Y-132416894D01*
X152949589Y-132416894D01*
X153425780Y-133083560D02*
X153330541Y-133035941D01*
X153282922Y-132988322D01*
X153235303Y-132893084D01*
X153235303Y-132607370D01*
X153282922Y-132512132D01*
X153330541Y-132464513D01*
X153425780Y-132416894D01*
X153568637Y-132416894D01*
X153663875Y-132464513D01*
X153711494Y-132512132D01*
X153759113Y-132607370D01*
X153759113Y-132893084D01*
X153711494Y-132988322D01*
X153663875Y-133035941D01*
X153568637Y-133083560D01*
X153425780Y-133083560D01*
X154140065Y-133035941D02*
X154282922Y-133083560D01*
X154521018Y-133083560D01*
X154616256Y-133035941D01*
X154663875Y-132988322D01*
X154711494Y-132893084D01*
X154711494Y-132797846D01*
X154663875Y-132702608D01*
X154616256Y-132654989D01*
X154521018Y-132607370D01*
X154330541Y-132559751D01*
X154235303Y-132512132D01*
X154187684Y-132464513D01*
X154140065Y-132369275D01*
X154140065Y-132274037D01*
X154187684Y-132178799D01*
X154235303Y-132131180D01*
X154330541Y-132083560D01*
X154568637Y-132083560D01*
X154711494Y-132131180D01*
X155140065Y-133083560D02*
X155140065Y-132083560D01*
X155378160Y-132083560D01*
X155521018Y-132131180D01*
X155616256Y-132226418D01*
X155663875Y-132321656D01*
X155711494Y-132512132D01*
X155711494Y-132654989D01*
X155663875Y-132845465D01*
X155616256Y-132940703D01*
X155521018Y-133035941D01*
X155378160Y-133083560D01*
X155140065Y-133083560D01*
X132529866Y-99779580D02*
X132053676Y-99779580D01*
X132053676Y-98779580D01*
X133006057Y-99779580D02*
X132910819Y-99731961D01*
X132863200Y-99684342D01*
X132815580Y-99589104D01*
X132815580Y-99303390D01*
X132863200Y-99208152D01*
X132910819Y-99160533D01*
X133006057Y-99112914D01*
X133148914Y-99112914D01*
X133244152Y-99160533D01*
X133291771Y-99208152D01*
X133339390Y-99303390D01*
X133339390Y-99589104D01*
X133291771Y-99684342D01*
X133244152Y-99731961D01*
X133148914Y-99779580D01*
X133006057Y-99779580D01*
X134196533Y-99112914D02*
X134196533Y-99922438D01*
X134148914Y-100017676D01*
X134101295Y-100065295D01*
X134006057Y-100112914D01*
X133863200Y-100112914D01*
X133767961Y-100065295D01*
X134196533Y-99731961D02*
X134101295Y-99779580D01*
X133910819Y-99779580D01*
X133815580Y-99731961D01*
X133767961Y-99684342D01*
X133720342Y-99589104D01*
X133720342Y-99303390D01*
X133767961Y-99208152D01*
X133815580Y-99160533D01*
X133910819Y-99112914D01*
X134101295Y-99112914D01*
X134196533Y-99160533D01*
X135101295Y-99112914D02*
X135101295Y-99922438D01*
X135053676Y-100017676D01*
X135006057Y-100065295D01*
X134910819Y-100112914D01*
X134767961Y-100112914D01*
X134672723Y-100065295D01*
X135101295Y-99731961D02*
X135006057Y-99779580D01*
X134815580Y-99779580D01*
X134720342Y-99731961D01*
X134672723Y-99684342D01*
X134625104Y-99589104D01*
X134625104Y-99303390D01*
X134672723Y-99208152D01*
X134720342Y-99160533D01*
X134815580Y-99112914D01*
X135006057Y-99112914D01*
X135101295Y-99160533D01*
X135958438Y-99731961D02*
X135863200Y-99779580D01*
X135672723Y-99779580D01*
X135577485Y-99731961D01*
X135529866Y-99636723D01*
X135529866Y-99255771D01*
X135577485Y-99160533D01*
X135672723Y-99112914D01*
X135863200Y-99112914D01*
X135958438Y-99160533D01*
X136006057Y-99255771D01*
X136006057Y-99351009D01*
X135529866Y-99446247D01*
X136434628Y-99779580D02*
X136434628Y-99112914D01*
X136434628Y-99303390D02*
X136482247Y-99208152D01*
X136529866Y-99160533D01*
X136625104Y-99112914D01*
X136720342Y-99112914D01*
X138244152Y-99731961D02*
X138148914Y-99779580D01*
X137958438Y-99779580D01*
X137863200Y-99731961D01*
X137815580Y-99684342D01*
X137767961Y-99589104D01*
X137767961Y-99303390D01*
X137815580Y-99208152D01*
X137863200Y-99160533D01*
X137958438Y-99112914D01*
X138148914Y-99112914D01*
X138244152Y-99160533D01*
X139101295Y-99112914D02*
X139101295Y-99779580D01*
X138672723Y-99112914D02*
X138672723Y-99636723D01*
X138720342Y-99731961D01*
X138815580Y-99779580D01*
X138958438Y-99779580D01*
X139053676Y-99731961D01*
X139101295Y-99684342D01*
X139577485Y-99779580D02*
X139577485Y-99112914D01*
X139577485Y-99303390D02*
X139625104Y-99208152D01*
X139672723Y-99160533D01*
X139767961Y-99112914D01*
X139863200Y-99112914D01*
X140196533Y-99779580D02*
X140196533Y-99112914D01*
X140196533Y-99303390D02*
X140244152Y-99208152D01*
X140291771Y-99160533D01*
X140387009Y-99112914D01*
X140482247Y-99112914D01*
X141196533Y-99731961D02*
X141101295Y-99779580D01*
X140910819Y-99779580D01*
X140815580Y-99731961D01*
X140767961Y-99636723D01*
X140767961Y-99255771D01*
X140815580Y-99160533D01*
X140910819Y-99112914D01*
X141101295Y-99112914D01*
X141196533Y-99160533D01*
X141244152Y-99255771D01*
X141244152Y-99351009D01*
X140767961Y-99446247D01*
X141672723Y-99112914D02*
X141672723Y-99779580D01*
X141672723Y-99208152D02*
X141720342Y-99160533D01*
X141815580Y-99112914D01*
X141958438Y-99112914D01*
X142053676Y-99160533D01*
X142101295Y-99255771D01*
X142101295Y-99779580D01*
X142434628Y-99112914D02*
X142815580Y-99112914D01*
X142577485Y-98779580D02*
X142577485Y-99636723D01*
X142625104Y-99731961D01*
X142720342Y-99779580D01*
X142815580Y-99779580D01*
X134720342Y-101381961D02*
X134815580Y-101429580D01*
X135006057Y-101429580D01*
X135101295Y-101381961D01*
X135148914Y-101286723D01*
X135148914Y-101239104D01*
X135101295Y-101143866D01*
X135006057Y-101096247D01*
X134863200Y-101096247D01*
X134767961Y-101048628D01*
X134720342Y-100953390D01*
X134720342Y-100905771D01*
X134767961Y-100810533D01*
X134863200Y-100762914D01*
X135006057Y-100762914D01*
X135101295Y-100810533D01*
X135958438Y-101381961D02*
X135863200Y-101429580D01*
X135672723Y-101429580D01*
X135577485Y-101381961D01*
X135529866Y-101286723D01*
X135529866Y-100905771D01*
X135577485Y-100810533D01*
X135672723Y-100762914D01*
X135863200Y-100762914D01*
X135958438Y-100810533D01*
X136006057Y-100905771D01*
X136006057Y-101001009D01*
X135529866Y-101096247D01*
X136434628Y-100762914D02*
X136434628Y-101429580D01*
X136434628Y-100858152D02*
X136482247Y-100810533D01*
X136577485Y-100762914D01*
X136720342Y-100762914D01*
X136815580Y-100810533D01*
X136863200Y-100905771D01*
X136863200Y-101429580D01*
X137291771Y-101381961D02*
X137387009Y-101429580D01*
X137577485Y-101429580D01*
X137672723Y-101381961D01*
X137720342Y-101286723D01*
X137720342Y-101239104D01*
X137672723Y-101143866D01*
X137577485Y-101096247D01*
X137434628Y-101096247D01*
X137339390Y-101048628D01*
X137291771Y-100953390D01*
X137291771Y-100905771D01*
X137339390Y-100810533D01*
X137434628Y-100762914D01*
X137577485Y-100762914D01*
X137672723Y-100810533D01*
X138148914Y-101429580D02*
X138148914Y-100762914D01*
X138148914Y-100429580D02*
X138101295Y-100477200D01*
X138148914Y-100524819D01*
X138196533Y-100477200D01*
X138148914Y-100429580D01*
X138148914Y-100524819D01*
X138625104Y-100762914D02*
X138625104Y-101429580D01*
X138625104Y-100858152D02*
X138672723Y-100810533D01*
X138767961Y-100762914D01*
X138910819Y-100762914D01*
X139006057Y-100810533D01*
X139053676Y-100905771D01*
X139053676Y-101429580D01*
X139958438Y-100762914D02*
X139958438Y-101572438D01*
X139910819Y-101667676D01*
X139863200Y-101715295D01*
X139767961Y-101762914D01*
X139625104Y-101762914D01*
X139529866Y-101715295D01*
X139958438Y-101381961D02*
X139863200Y-101429580D01*
X139672723Y-101429580D01*
X139577485Y-101381961D01*
X139529866Y-101334342D01*
X139482247Y-101239104D01*
X139482247Y-100953390D01*
X139529866Y-100858152D01*
X139577485Y-100810533D01*
X139672723Y-100762914D01*
X139863200Y-100762914D01*
X139958438Y-100810533D01*
X113210104Y-99410828D02*
X113972009Y-99410828D01*
X113591057Y-99791780D02*
X113591057Y-99029876D01*
X114352961Y-98791780D02*
X114972009Y-98791780D01*
X114638676Y-99172733D01*
X114781533Y-99172733D01*
X114876771Y-99220352D01*
X114924390Y-99267971D01*
X114972009Y-99363209D01*
X114972009Y-99601304D01*
X114924390Y-99696542D01*
X114876771Y-99744161D01*
X114781533Y-99791780D01*
X114495819Y-99791780D01*
X114400580Y-99744161D01*
X114352961Y-99696542D01*
X115305342Y-98791780D02*
X115972009Y-98791780D01*
X115543438Y-99791780D01*
X116210104Y-98791780D02*
X116543438Y-99791780D01*
X116876771Y-98791780D01*
X118543438Y-99791780D02*
X118210104Y-99315590D01*
X117972009Y-99791780D02*
X117972009Y-98791780D01*
X118352961Y-98791780D01*
X118448200Y-98839400D01*
X118495819Y-98887019D01*
X118543438Y-98982257D01*
X118543438Y-99125114D01*
X118495819Y-99220352D01*
X118448200Y-99267971D01*
X118352961Y-99315590D01*
X117972009Y-99315590D01*
X119352961Y-99744161D02*
X119257723Y-99791780D01*
X119067247Y-99791780D01*
X118972009Y-99744161D01*
X118924390Y-99648923D01*
X118924390Y-99267971D01*
X118972009Y-99172733D01*
X119067247Y-99125114D01*
X119257723Y-99125114D01*
X119352961Y-99172733D01*
X119400580Y-99267971D01*
X119400580Y-99363209D01*
X118924390Y-99458447D01*
X120257723Y-99125114D02*
X120257723Y-99934638D01*
X120210104Y-100029876D01*
X120162485Y-100077495D01*
X120067247Y-100125114D01*
X119924390Y-100125114D01*
X119829152Y-100077495D01*
X120257723Y-99744161D02*
X120162485Y-99791780D01*
X119972009Y-99791780D01*
X119876771Y-99744161D01*
X119829152Y-99696542D01*
X119781533Y-99601304D01*
X119781533Y-99315590D01*
X119829152Y-99220352D01*
X119876771Y-99172733D01*
X119972009Y-99125114D01*
X120162485Y-99125114D01*
X120257723Y-99172733D01*
X121162485Y-99125114D02*
X121162485Y-99791780D01*
X120733914Y-99125114D02*
X120733914Y-99648923D01*
X120781533Y-99744161D01*
X120876771Y-99791780D01*
X121019628Y-99791780D01*
X121114866Y-99744161D01*
X121162485Y-99696542D01*
X121781533Y-99791780D02*
X121686295Y-99744161D01*
X121638676Y-99648923D01*
X121638676Y-98791780D01*
X122591057Y-99791780D02*
X122591057Y-99267971D01*
X122543438Y-99172733D01*
X122448200Y-99125114D01*
X122257723Y-99125114D01*
X122162485Y-99172733D01*
X122591057Y-99744161D02*
X122495819Y-99791780D01*
X122257723Y-99791780D01*
X122162485Y-99744161D01*
X122114866Y-99648923D01*
X122114866Y-99553685D01*
X122162485Y-99458447D01*
X122257723Y-99410828D01*
X122495819Y-99410828D01*
X122591057Y-99363209D01*
X122924390Y-99125114D02*
X123305342Y-99125114D01*
X123067247Y-98791780D02*
X123067247Y-99648923D01*
X123114866Y-99744161D01*
X123210104Y-99791780D01*
X123305342Y-99791780D01*
X123781533Y-99791780D02*
X123686295Y-99744161D01*
X123638676Y-99696542D01*
X123591057Y-99601304D01*
X123591057Y-99315590D01*
X123638676Y-99220352D01*
X123686295Y-99172733D01*
X123781533Y-99125114D01*
X123924390Y-99125114D01*
X124019628Y-99172733D01*
X124067247Y-99220352D01*
X124114866Y-99315590D01*
X124114866Y-99601304D01*
X124067247Y-99696542D01*
X124019628Y-99744161D01*
X123924390Y-99791780D01*
X123781533Y-99791780D01*
X124543438Y-99791780D02*
X124543438Y-99125114D01*
X124543438Y-99315590D02*
X124591057Y-99220352D01*
X124638676Y-99172733D01*
X124733914Y-99125114D01*
X124829152Y-99125114D01*
X143656395Y-131968500D02*
X143656395Y-130968500D01*
X143989728Y-131682786D01*
X144323061Y-130968500D01*
X144323061Y-131968500D01*
X145227823Y-131968500D02*
X145227823Y-131444691D01*
X145180204Y-131349453D01*
X145084966Y-131301834D01*
X144894490Y-131301834D01*
X144799252Y-131349453D01*
X145227823Y-131920881D02*
X145132585Y-131968500D01*
X144894490Y-131968500D01*
X144799252Y-131920881D01*
X144751633Y-131825643D01*
X144751633Y-131730405D01*
X144799252Y-131635167D01*
X144894490Y-131587548D01*
X145132585Y-131587548D01*
X145227823Y-131539929D01*
X145704014Y-131968500D02*
X145704014Y-131301834D01*
X145704014Y-131397072D02*
X145751633Y-131349453D01*
X145846871Y-131301834D01*
X145989728Y-131301834D01*
X146084966Y-131349453D01*
X146132585Y-131444691D01*
X146132585Y-131968500D01*
X146132585Y-131444691D02*
X146180204Y-131349453D01*
X146275442Y-131301834D01*
X146418300Y-131301834D01*
X146513538Y-131349453D01*
X146561157Y-131444691D01*
X146561157Y-131968500D01*
X147465919Y-131968500D02*
X147465919Y-131444691D01*
X147418300Y-131349453D01*
X147323061Y-131301834D01*
X147132585Y-131301834D01*
X147037347Y-131349453D01*
X147465919Y-131920881D02*
X147370680Y-131968500D01*
X147132585Y-131968500D01*
X147037347Y-131920881D01*
X146989728Y-131825643D01*
X146989728Y-131730405D01*
X147037347Y-131635167D01*
X147132585Y-131587548D01*
X147370680Y-131587548D01*
X147465919Y-131539929D01*
X148656395Y-131063739D02*
X148704014Y-131016120D01*
X148799252Y-130968500D01*
X149037347Y-130968500D01*
X149132585Y-131016120D01*
X149180204Y-131063739D01*
X149227823Y-131158977D01*
X149227823Y-131254215D01*
X149180204Y-131397072D01*
X148608776Y-131968500D01*
X149227823Y-131968500D01*
X135906855Y-131917700D02*
X135906855Y-130917700D01*
X136240188Y-131631986D01*
X136573521Y-130917700D01*
X136573521Y-131917700D01*
X137478283Y-131917700D02*
X137478283Y-131393891D01*
X137430664Y-131298653D01*
X137335426Y-131251034D01*
X137144950Y-131251034D01*
X137049712Y-131298653D01*
X137478283Y-131870081D02*
X137383045Y-131917700D01*
X137144950Y-131917700D01*
X137049712Y-131870081D01*
X137002093Y-131774843D01*
X137002093Y-131679605D01*
X137049712Y-131584367D01*
X137144950Y-131536748D01*
X137383045Y-131536748D01*
X137478283Y-131489129D01*
X137954474Y-131917700D02*
X137954474Y-131251034D01*
X137954474Y-131346272D02*
X138002093Y-131298653D01*
X138097331Y-131251034D01*
X138240188Y-131251034D01*
X138335426Y-131298653D01*
X138383045Y-131393891D01*
X138383045Y-131917700D01*
X138383045Y-131393891D02*
X138430664Y-131298653D01*
X138525902Y-131251034D01*
X138668760Y-131251034D01*
X138763998Y-131298653D01*
X138811617Y-131393891D01*
X138811617Y-131917700D01*
X139716379Y-131917700D02*
X139716379Y-131393891D01*
X139668760Y-131298653D01*
X139573521Y-131251034D01*
X139383045Y-131251034D01*
X139287807Y-131298653D01*
X139716379Y-131870081D02*
X139621140Y-131917700D01*
X139383045Y-131917700D01*
X139287807Y-131870081D01*
X139240188Y-131774843D01*
X139240188Y-131679605D01*
X139287807Y-131584367D01*
X139383045Y-131536748D01*
X139621140Y-131536748D01*
X139716379Y-131489129D01*
X141478283Y-131917700D02*
X140906855Y-131917700D01*
X141192569Y-131917700D02*
X141192569Y-130917700D01*
X141097331Y-131060558D01*
X141002093Y-131155796D01*
X140906855Y-131203415D01*
X102712571Y-91714580D02*
X102284000Y-91714580D01*
X102284000Y-90714580D01*
X103012571Y-91714580D02*
X103012571Y-91047914D01*
X103012571Y-90714580D02*
X102969714Y-90762200D01*
X103012571Y-90809819D01*
X103055428Y-90762200D01*
X103012571Y-90714580D01*
X103012571Y-90809819D01*
X103355428Y-91047914D02*
X103569714Y-91714580D01*
X103784000Y-91047914D01*
X104469714Y-91666961D02*
X104384000Y-91714580D01*
X104212571Y-91714580D01*
X104126857Y-91666961D01*
X104084000Y-91571723D01*
X104084000Y-91190771D01*
X104126857Y-91095533D01*
X104212571Y-91047914D01*
X104384000Y-91047914D01*
X104469714Y-91095533D01*
X104512571Y-91190771D01*
X104512571Y-91286009D01*
X104084000Y-91381247D01*
X105455428Y-90714580D02*
X105969714Y-90714580D01*
X105712571Y-91714580D02*
X105712571Y-90714580D01*
X106612571Y-91666961D02*
X106526857Y-91714580D01*
X106355428Y-91714580D01*
X106269714Y-91666961D01*
X106226857Y-91571723D01*
X106226857Y-91190771D01*
X106269714Y-91095533D01*
X106355428Y-91047914D01*
X106526857Y-91047914D01*
X106612571Y-91095533D01*
X106655428Y-91190771D01*
X106655428Y-91286009D01*
X106226857Y-91381247D01*
X107169714Y-91714580D02*
X107084000Y-91666961D01*
X107041142Y-91571723D01*
X107041142Y-90714580D01*
X107855428Y-91666961D02*
X107769714Y-91714580D01*
X107598285Y-91714580D01*
X107512571Y-91666961D01*
X107469714Y-91571723D01*
X107469714Y-91190771D01*
X107512571Y-91095533D01*
X107598285Y-91047914D01*
X107769714Y-91047914D01*
X107855428Y-91095533D01*
X107898285Y-91190771D01*
X107898285Y-91286009D01*
X107469714Y-91381247D01*
X108284000Y-91714580D02*
X108284000Y-91047914D01*
X108284000Y-91143152D02*
X108326857Y-91095533D01*
X108412571Y-91047914D01*
X108541142Y-91047914D01*
X108626857Y-91095533D01*
X108669714Y-91190771D01*
X108669714Y-91714580D01*
X108669714Y-91190771D02*
X108712571Y-91095533D01*
X108798285Y-91047914D01*
X108926857Y-91047914D01*
X109012571Y-91095533D01*
X109055428Y-91190771D01*
X109055428Y-91714580D01*
X109826857Y-91666961D02*
X109741142Y-91714580D01*
X109569714Y-91714580D01*
X109484000Y-91666961D01*
X109441142Y-91571723D01*
X109441142Y-91190771D01*
X109484000Y-91095533D01*
X109569714Y-91047914D01*
X109741142Y-91047914D01*
X109826857Y-91095533D01*
X109869714Y-91190771D01*
X109869714Y-91286009D01*
X109441142Y-91381247D01*
X110126857Y-91047914D02*
X110469714Y-91047914D01*
X110255428Y-90714580D02*
X110255428Y-91571723D01*
X110298285Y-91666961D01*
X110384000Y-91714580D01*
X110469714Y-91714580D01*
X110769714Y-91714580D02*
X110769714Y-91047914D01*
X110769714Y-91238390D02*
X110812571Y-91143152D01*
X110855428Y-91095533D01*
X110941142Y-91047914D01*
X111026857Y-91047914D01*
X111241142Y-91047914D02*
X111455428Y-91714580D01*
X111669714Y-91047914D02*
X111455428Y-91714580D01*
X111369714Y-91952676D01*
X111326857Y-92000295D01*
X111241142Y-92047914D01*
X150246723Y-113558580D02*
X150246723Y-112558580D01*
X150627676Y-112558580D01*
X150722914Y-112606200D01*
X150770533Y-112653819D01*
X150818152Y-112749057D01*
X150818152Y-112891914D01*
X150770533Y-112987152D01*
X150722914Y-113034771D01*
X150627676Y-113082390D01*
X150246723Y-113082390D01*
X151246723Y-113558580D02*
X151246723Y-112891914D01*
X151246723Y-113082390D02*
X151294342Y-112987152D01*
X151341961Y-112939533D01*
X151437200Y-112891914D01*
X151532438Y-112891914D01*
X152008628Y-113558580D02*
X151913390Y-113510961D01*
X151865771Y-113463342D01*
X151818152Y-113368104D01*
X151818152Y-113082390D01*
X151865771Y-112987152D01*
X151913390Y-112939533D01*
X152008628Y-112891914D01*
X152151485Y-112891914D01*
X152246723Y-112939533D01*
X152294342Y-112987152D01*
X152341961Y-113082390D01*
X152341961Y-113368104D01*
X152294342Y-113463342D01*
X152246723Y-113510961D01*
X152151485Y-113558580D01*
X152008628Y-113558580D01*
X153199104Y-112891914D02*
X153199104Y-113701438D01*
X153151485Y-113796676D01*
X153103866Y-113844295D01*
X153008628Y-113891914D01*
X152865771Y-113891914D01*
X152770533Y-113844295D01*
X153199104Y-113510961D02*
X153103866Y-113558580D01*
X152913390Y-113558580D01*
X152818152Y-113510961D01*
X152770533Y-113463342D01*
X152722914Y-113368104D01*
X152722914Y-113082390D01*
X152770533Y-112987152D01*
X152818152Y-112939533D01*
X152913390Y-112891914D01*
X153103866Y-112891914D01*
X153199104Y-112939533D01*
X153675295Y-113558580D02*
X153675295Y-112891914D01*
X153675295Y-113082390D02*
X153722914Y-112987152D01*
X153770533Y-112939533D01*
X153865771Y-112891914D01*
X153961009Y-112891914D01*
X154722914Y-113558580D02*
X154722914Y-113034771D01*
X154675295Y-112939533D01*
X154580057Y-112891914D01*
X154389580Y-112891914D01*
X154294342Y-112939533D01*
X154722914Y-113510961D02*
X154627676Y-113558580D01*
X154389580Y-113558580D01*
X154294342Y-113510961D01*
X154246723Y-113415723D01*
X154246723Y-113320485D01*
X154294342Y-113225247D01*
X154389580Y-113177628D01*
X154627676Y-113177628D01*
X154722914Y-113130009D01*
X155199104Y-113558580D02*
X155199104Y-112891914D01*
X155199104Y-112987152D02*
X155246723Y-112939533D01*
X155341961Y-112891914D01*
X155484819Y-112891914D01*
X155580057Y-112939533D01*
X155627676Y-113034771D01*
X155627676Y-113558580D01*
X155627676Y-113034771D02*
X155675295Y-112939533D01*
X155770533Y-112891914D01*
X155913390Y-112891914D01*
X156008628Y-112939533D01*
X156056247Y-113034771D01*
X156056247Y-113558580D01*
X156532438Y-113558580D02*
X156532438Y-112891914D01*
X156532438Y-112987152D02*
X156580057Y-112939533D01*
X156675295Y-112891914D01*
X156818152Y-112891914D01*
X156913390Y-112939533D01*
X156961009Y-113034771D01*
X156961009Y-113558580D01*
X156961009Y-113034771D02*
X157008628Y-112939533D01*
X157103866Y-112891914D01*
X157246723Y-112891914D01*
X157341961Y-112939533D01*
X157389580Y-113034771D01*
X157389580Y-113558580D01*
X157865771Y-113558580D02*
X157865771Y-112891914D01*
X157865771Y-112558580D02*
X157818152Y-112606200D01*
X157865771Y-112653819D01*
X157913390Y-112606200D01*
X157865771Y-112558580D01*
X157865771Y-112653819D01*
X158341961Y-112891914D02*
X158341961Y-113558580D01*
X158341961Y-112987152D02*
X158389580Y-112939533D01*
X158484819Y-112891914D01*
X158627676Y-112891914D01*
X158722914Y-112939533D01*
X158770533Y-113034771D01*
X158770533Y-113558580D01*
X159675295Y-112891914D02*
X159675295Y-113701438D01*
X159627676Y-113796676D01*
X159580057Y-113844295D01*
X159484819Y-113891914D01*
X159341961Y-113891914D01*
X159246723Y-113844295D01*
X159675295Y-113510961D02*
X159580057Y-113558580D01*
X159389580Y-113558580D01*
X159294342Y-113510961D01*
X159246723Y-113463342D01*
X159199104Y-113368104D01*
X159199104Y-113082390D01*
X159246723Y-112987152D01*
X159294342Y-112939533D01*
X159389580Y-112891914D01*
X159580057Y-112891914D01*
X159675295Y-112939533D01*
X160913390Y-113558580D02*
X160913390Y-112558580D01*
X160913390Y-113034771D02*
X161484819Y-113034771D01*
X161484819Y-113558580D02*
X161484819Y-112558580D01*
X162341961Y-113510961D02*
X162246723Y-113558580D01*
X162056247Y-113558580D01*
X161961009Y-113510961D01*
X161913390Y-113415723D01*
X161913390Y-113034771D01*
X161961009Y-112939533D01*
X162056247Y-112891914D01*
X162246723Y-112891914D01*
X162341961Y-112939533D01*
X162389580Y-113034771D01*
X162389580Y-113130009D01*
X161913390Y-113225247D01*
X163246723Y-113558580D02*
X163246723Y-113034771D01*
X163199104Y-112939533D01*
X163103866Y-112891914D01*
X162913390Y-112891914D01*
X162818152Y-112939533D01*
X163246723Y-113510961D02*
X163151485Y-113558580D01*
X162913390Y-113558580D01*
X162818152Y-113510961D01*
X162770533Y-113415723D01*
X162770533Y-113320485D01*
X162818152Y-113225247D01*
X162913390Y-113177628D01*
X163151485Y-113177628D01*
X163246723Y-113130009D01*
X164151485Y-113558580D02*
X164151485Y-112558580D01*
X164151485Y-113510961D02*
X164056247Y-113558580D01*
X163865771Y-113558580D01*
X163770533Y-113510961D01*
X163722914Y-113463342D01*
X163675295Y-113368104D01*
X163675295Y-113082390D01*
X163722914Y-112987152D01*
X163770533Y-112939533D01*
X163865771Y-112891914D01*
X164056247Y-112891914D01*
X164151485Y-112939533D01*
X165008628Y-113510961D02*
X164913390Y-113558580D01*
X164722914Y-113558580D01*
X164627676Y-113510961D01*
X164580057Y-113415723D01*
X164580057Y-113034771D01*
X164627676Y-112939533D01*
X164722914Y-112891914D01*
X164913390Y-112891914D01*
X165008628Y-112939533D01*
X165056247Y-113034771D01*
X165056247Y-113130009D01*
X164580057Y-113225247D01*
X165484819Y-113558580D02*
X165484819Y-112891914D01*
X165484819Y-113082390D02*
X165532438Y-112987152D01*
X165580057Y-112939533D01*
X165675295Y-112891914D01*
X165770533Y-112891914D01*
D10*
X182565000Y-108906000D02*
X182565000Y-109966000D01*
X181505000Y-108906000D02*
X182565000Y-108906000D01*
X178413000Y-108906000D02*
X180473000Y-108906000D01*
X180473000Y-110966000D02*
X180473000Y-108906000D01*
X180473000Y-110966000D02*
X182533000Y-110966000D01*
X182533000Y-110966000D02*
X182533000Y-115026000D01*
X178413000Y-108906000D02*
X178413000Y-115026000D01*
X178413000Y-115026000D02*
X182533000Y-115026000D01*
X103594600Y-93568200D02*
X104654600Y-93568200D01*
X103594600Y-94628200D02*
X103594600Y-93568200D01*
X105654600Y-93568200D02*
X107714600Y-93568200D01*
X105654600Y-95628200D02*
X105654600Y-93568200D01*
X103594600Y-95628200D02*
X105654600Y-95628200D01*
X107714600Y-93568200D02*
X107714600Y-99688200D01*
X103594600Y-95628200D02*
X103594600Y-99688200D01*
X103594600Y-99688200D02*
X107714600Y-99688200D01*
X128799000Y-108153148D02*
X128799000Y-109575652D01*
X126979000Y-108153148D02*
X126979000Y-109575652D01*
X124701752Y-120747200D02*
X123279248Y-120747200D01*
X124701752Y-118927200D02*
X123279248Y-118927200D01*
X124803352Y-118080200D02*
X123380848Y-118080200D01*
X124803352Y-116260200D02*
X123380848Y-116260200D01*
X134634616Y-89816260D02*
X136088744Y-89816260D01*
X134634616Y-91636260D02*
X136088744Y-91636260D01*
X116704756Y-136910400D02*
X118158884Y-136910400D01*
X116704756Y-138730400D02*
X118158884Y-138730400D01*
X173953500Y-97578936D02*
X173953500Y-98033064D01*
X175423500Y-97578936D02*
X175423500Y-98033064D01*
X167036400Y-146452600D02*
X167136400Y-146952600D01*
X166736400Y-145152600D02*
X167036400Y-146452600D01*
X166536400Y-143652600D02*
X166736400Y-145152600D01*
X166436400Y-142352600D02*
X166536400Y-143652600D01*
X166436400Y-140552600D02*
X166436400Y-142352600D01*
X166536400Y-139252600D02*
X166436400Y-140552600D01*
X166636400Y-138452600D02*
X166536400Y-139252600D01*
X166936400Y-136752600D02*
X166636400Y-138452600D01*
X167136400Y-135952600D02*
X166936400Y-136752600D01*
X167736400Y-136452600D02*
X167736400Y-146452600D01*
X166236400Y-135952600D02*
X167236400Y-135952600D01*
X166236400Y-146952600D02*
X167236400Y-146952600D01*
X166236400Y-134542600D02*
X166236400Y-148362600D01*
X152316400Y-148362600D02*
X152316400Y-134542600D01*
X155016400Y-148362600D02*
X152316400Y-148362600D01*
X166236400Y-148362600D02*
X165836400Y-148362600D01*
X163316400Y-148362600D02*
X157536400Y-148362600D01*
X155016400Y-134542600D02*
X152316400Y-134542600D01*
X163316400Y-134542600D02*
X157536400Y-134542600D01*
X166236400Y-134542600D02*
X165836400Y-134542600D01*
X167736400Y-136452600D02*
G75*
G03*
X167236400Y-135952600I-500000J0D01*
G01*
X167236400Y-146952600D02*
G75*
G03*
X167736400Y-146452600I0J500000D01*
G01*
X137554692Y-69932880D02*
X137032188Y-69932880D01*
X137554692Y-71402880D02*
X137032188Y-71402880D01*
X142089200Y-74727168D02*
X142089200Y-75249672D01*
X143559200Y-74727168D02*
X143559200Y-75249672D01*
X140699540Y-73004240D02*
X140699540Y-79014240D01*
X133879540Y-75254240D02*
X133879540Y-79014240D01*
X140699540Y-79014240D02*
X139439540Y-79014240D01*
X133879540Y-79014240D02*
X135139540Y-79014240D01*
D13*
G36*
X158506748Y-70390530D02*
G01*
X158527951Y-70424858D01*
X158560386Y-70479708D01*
X158602954Y-70553150D01*
X158654554Y-70643257D01*
X158714086Y-70748100D01*
X158780450Y-70865749D01*
X158852546Y-70994276D01*
X158929272Y-71131753D01*
X158995814Y-71251507D01*
X159075658Y-71395453D01*
X159151715Y-71532509D01*
X159222885Y-71660696D01*
X159288067Y-71778031D01*
X159346158Y-71882536D01*
X159396058Y-71972229D01*
X159436665Y-72045130D01*
X159466879Y-72099259D01*
X159485598Y-72132636D01*
X159491587Y-72143114D01*
X159500034Y-72145921D01*
X159519739Y-72142620D01*
X159552746Y-72132422D01*
X159601100Y-72114537D01*
X159666843Y-72088176D01*
X159752022Y-72052551D01*
X159858680Y-72006872D01*
X159972485Y-71957490D01*
X160079378Y-71911239D01*
X160178185Y-71869116D01*
X160266029Y-71832300D01*
X160340033Y-71801970D01*
X160397318Y-71779305D01*
X160435006Y-71765483D01*
X160450221Y-71761684D01*
X160450319Y-71761754D01*
X160450280Y-71776566D01*
X160447710Y-71817136D01*
X160442779Y-71881518D01*
X160435662Y-71967764D01*
X160426530Y-72073929D01*
X160415555Y-72198066D01*
X160402910Y-72338229D01*
X160388768Y-72492471D01*
X160373300Y-72658847D01*
X160356680Y-72835410D01*
X160339079Y-73020213D01*
X160336132Y-73050946D01*
X160318361Y-73236835D01*
X160301484Y-73414747D01*
X160285678Y-73582740D01*
X160271118Y-73738874D01*
X160257983Y-73881208D01*
X160246448Y-74007802D01*
X160236689Y-74116715D01*
X160228885Y-74206005D01*
X160223211Y-74273733D01*
X160219843Y-74317958D01*
X160218960Y-74336739D01*
X160219065Y-74337258D01*
X160230223Y-74329341D01*
X160260295Y-74304493D01*
X160307433Y-74264325D01*
X160369787Y-74210446D01*
X160445511Y-74144465D01*
X160532755Y-74067992D01*
X160629671Y-73982638D01*
X160734410Y-73890011D01*
X160827042Y-73807799D01*
X160937136Y-73710107D01*
X161041119Y-73618166D01*
X161137120Y-73533610D01*
X161223268Y-73458072D01*
X161297689Y-73393185D01*
X161358514Y-73340581D01*
X161403869Y-73301894D01*
X161431884Y-73278755D01*
X161440626Y-73272529D01*
X161444875Y-73275645D01*
X161451404Y-73286536D01*
X161461118Y-73307515D01*
X161474922Y-73340897D01*
X161493721Y-73388996D01*
X161518421Y-73454124D01*
X161549926Y-73538597D01*
X161589142Y-73644727D01*
X161634426Y-73767886D01*
X161675773Y-73880504D01*
X161557172Y-74017324D01*
X161404152Y-74198331D01*
X161243653Y-74396510D01*
X161077927Y-74608640D01*
X160909226Y-74831502D01*
X160739799Y-75061876D01*
X160571899Y-75296541D01*
X160407777Y-75532278D01*
X160249684Y-75765866D01*
X160099872Y-75994086D01*
X159960592Y-76213717D01*
X159834094Y-76421539D01*
X159722631Y-76614333D01*
X159655304Y-76737593D01*
X159579721Y-76879965D01*
X159533809Y-76813235D01*
X159446287Y-76676510D01*
X159355597Y-76517164D01*
X159263919Y-76339894D01*
X159173434Y-76149394D01*
X159086324Y-75950362D01*
X159004769Y-75747494D01*
X158930951Y-75545485D01*
X158894535Y-75436748D01*
X158828869Y-75222680D01*
X158763142Y-74987514D01*
X158699009Y-74737931D01*
X158638129Y-74480616D01*
X158582157Y-74222251D01*
X158538612Y-74001114D01*
X158499178Y-73790247D01*
X158427527Y-74147251D01*
X158348346Y-74519024D01*
X158264934Y-74865300D01*
X158176540Y-75188196D01*
X158082414Y-75489832D01*
X157981805Y-75772326D01*
X157873963Y-76037797D01*
X157758138Y-76288364D01*
X157633580Y-76526147D01*
X157511457Y-76734097D01*
X157478207Y-76786928D01*
X157449783Y-76830431D01*
X157429634Y-76859431D01*
X157421812Y-76868698D01*
X157411481Y-76859998D01*
X157392251Y-76831399D01*
X157367393Y-76788038D01*
X157352845Y-76760417D01*
X157271950Y-76609688D01*
X157174702Y-76440842D01*
X157063078Y-76256710D01*
X156939052Y-76060123D01*
X156804601Y-75853914D01*
X156661701Y-75640913D01*
X156512328Y-75423952D01*
X156358458Y-75205864D01*
X156202067Y-74989478D01*
X156045131Y-74777628D01*
X155889626Y-74573145D01*
X155737528Y-74378859D01*
X155590813Y-74197604D01*
X155451457Y-74032209D01*
X155438586Y-74017324D01*
X155319985Y-73880504D01*
X155361332Y-73767886D01*
X155408728Y-73638991D01*
X155447551Y-73533956D01*
X155478703Y-73450468D01*
X155503089Y-73386215D01*
X155521613Y-73338884D01*
X155535179Y-73306163D01*
X155544691Y-73285740D01*
X155551053Y-73275302D01*
X155554984Y-73272529D01*
X155567164Y-73281521D01*
X155598247Y-73307409D01*
X155646359Y-73348561D01*
X155709630Y-73403346D01*
X155786187Y-73470131D01*
X155874159Y-73547285D01*
X155971675Y-73633175D01*
X156076862Y-73726171D01*
X156168722Y-73807644D01*
X156278647Y-73905101D01*
X156382293Y-73996644D01*
X156477812Y-74080665D01*
X156563356Y-74155555D01*
X156637076Y-74219703D01*
X156697124Y-74271500D01*
X156741652Y-74309338D01*
X156768810Y-74331607D01*
X156776848Y-74337103D01*
X156776369Y-74322738D01*
X156773379Y-74282607D01*
X156768053Y-74218652D01*
X156760570Y-74132813D01*
X156751106Y-74027029D01*
X156739837Y-73903242D01*
X156726941Y-73763392D01*
X156712595Y-73609419D01*
X156696974Y-73443263D01*
X156680257Y-73266866D01*
X156678097Y-73244237D01*
X157992159Y-73244237D01*
X157997245Y-73245722D01*
X158017696Y-73230660D01*
X158049255Y-73202247D01*
X158053339Y-73198331D01*
X158102575Y-73157346D01*
X158163756Y-73115335D01*
X158219523Y-73083577D01*
X158343744Y-73036407D01*
X158469842Y-73016268D01*
X158595066Y-73022740D01*
X158716663Y-73055405D01*
X158831881Y-73113845D01*
X158931824Y-73191826D01*
X158967443Y-73223558D01*
X158992727Y-73242968D01*
X159003503Y-73246967D01*
X159003281Y-73244693D01*
X158997913Y-73227954D01*
X158985013Y-73187022D01*
X158965327Y-73124282D01*
X158939601Y-73042116D01*
X158908579Y-72942911D01*
X158873008Y-72829048D01*
X158833633Y-72702913D01*
X158791200Y-72566889D01*
X158748679Y-72430501D01*
X158704214Y-72287920D01*
X158662235Y-72153462D01*
X158623466Y-72029442D01*
X158588633Y-71918176D01*
X158558462Y-71821976D01*
X158533680Y-71743158D01*
X158515011Y-71684036D01*
X158503182Y-71646925D01*
X158498928Y-71634144D01*
X158494459Y-71646495D01*
X158482450Y-71683140D01*
X158463623Y-71741792D01*
X158438702Y-71820164D01*
X158408409Y-71915968D01*
X158373468Y-72026919D01*
X158334602Y-72150729D01*
X158292534Y-72285111D01*
X158248086Y-72427459D01*
X158203322Y-72570937D01*
X158160901Y-72706784D01*
X158121567Y-72832621D01*
X158086066Y-72946073D01*
X158055143Y-73044762D01*
X158029542Y-73126310D01*
X158010007Y-73188341D01*
X157997285Y-73228477D01*
X157992159Y-73244237D01*
X156678097Y-73244237D01*
X156662620Y-73082167D01*
X156659626Y-73050946D01*
X156641883Y-72864982D01*
X156625095Y-72686940D01*
X156609434Y-72518765D01*
X156595072Y-72362405D01*
X156582182Y-72219806D01*
X156570936Y-72092915D01*
X156561506Y-71983678D01*
X156554064Y-71894042D01*
X156548782Y-71825953D01*
X156545833Y-71781359D01*
X156545389Y-71762204D01*
X156545566Y-71761627D01*
X156559891Y-71764976D01*
X156596795Y-71778383D01*
X156653392Y-71800668D01*
X156726795Y-71830652D01*
X156814117Y-71867155D01*
X156912470Y-71908997D01*
X157018968Y-71954998D01*
X157021169Y-71955956D01*
X157127691Y-72002260D01*
X157225931Y-72044858D01*
X157313025Y-72082517D01*
X157386112Y-72114004D01*
X157442330Y-72138086D01*
X157478817Y-72153529D01*
X157492710Y-72159102D01*
X157492738Y-72159104D01*
X157500089Y-72147241D01*
X157519839Y-72112926D01*
X157550924Y-72058064D01*
X157592274Y-71984563D01*
X157642824Y-71894332D01*
X157701506Y-71789277D01*
X157767253Y-71671306D01*
X157838999Y-71542327D01*
X157915675Y-71404246D01*
X157990742Y-71268852D01*
X158071217Y-71123932D01*
X158147983Y-70986342D01*
X158219952Y-70857991D01*
X158286036Y-70740792D01*
X158345146Y-70636653D01*
X158396195Y-70547484D01*
X158438094Y-70475196D01*
X158469755Y-70421698D01*
X158490089Y-70388902D01*
X158497879Y-70378653D01*
X158506748Y-70390530D01*
G37*
X158506748Y-70390530D02*
X158527951Y-70424858D01*
X158560386Y-70479708D01*
X158602954Y-70553150D01*
X158654554Y-70643257D01*
X158714086Y-70748100D01*
X158780450Y-70865749D01*
X158852546Y-70994276D01*
X158929272Y-71131753D01*
X158995814Y-71251507D01*
X159075658Y-71395453D01*
X159151715Y-71532509D01*
X159222885Y-71660696D01*
X159288067Y-71778031D01*
X159346158Y-71882536D01*
X159396058Y-71972229D01*
X159436665Y-72045130D01*
X159466879Y-72099259D01*
X159485598Y-72132636D01*
X159491587Y-72143114D01*
X159500034Y-72145921D01*
X159519739Y-72142620D01*
X159552746Y-72132422D01*
X159601100Y-72114537D01*
X159666843Y-72088176D01*
X159752022Y-72052551D01*
X159858680Y-72006872D01*
X159972485Y-71957490D01*
X160079378Y-71911239D01*
X160178185Y-71869116D01*
X160266029Y-71832300D01*
X160340033Y-71801970D01*
X160397318Y-71779305D01*
X160435006Y-71765483D01*
X160450221Y-71761684D01*
X160450319Y-71761754D01*
X160450280Y-71776566D01*
X160447710Y-71817136D01*
X160442779Y-71881518D01*
X160435662Y-71967764D01*
X160426530Y-72073929D01*
X160415555Y-72198066D01*
X160402910Y-72338229D01*
X160388768Y-72492471D01*
X160373300Y-72658847D01*
X160356680Y-72835410D01*
X160339079Y-73020213D01*
X160336132Y-73050946D01*
X160318361Y-73236835D01*
X160301484Y-73414747D01*
X160285678Y-73582740D01*
X160271118Y-73738874D01*
X160257983Y-73881208D01*
X160246448Y-74007802D01*
X160236689Y-74116715D01*
X160228885Y-74206005D01*
X160223211Y-74273733D01*
X160219843Y-74317958D01*
X160218960Y-74336739D01*
X160219065Y-74337258D01*
X160230223Y-74329341D01*
X160260295Y-74304493D01*
X160307433Y-74264325D01*
X160369787Y-74210446D01*
X160445511Y-74144465D01*
X160532755Y-74067992D01*
X160629671Y-73982638D01*
X160734410Y-73890011D01*
X160827042Y-73807799D01*
X160937136Y-73710107D01*
X161041119Y-73618166D01*
X161137120Y-73533610D01*
X161223268Y-73458072D01*
X161297689Y-73393185D01*
X161358514Y-73340581D01*
X161403869Y-73301894D01*
X161431884Y-73278755D01*
X161440626Y-73272529D01*
X161444875Y-73275645D01*
X161451404Y-73286536D01*
X161461118Y-73307515D01*
X161474922Y-73340897D01*
X161493721Y-73388996D01*
X161518421Y-73454124D01*
X161549926Y-73538597D01*
X161589142Y-73644727D01*
X161634426Y-73767886D01*
X161675773Y-73880504D01*
X161557172Y-74017324D01*
X161404152Y-74198331D01*
X161243653Y-74396510D01*
X161077927Y-74608640D01*
X160909226Y-74831502D01*
X160739799Y-75061876D01*
X160571899Y-75296541D01*
X160407777Y-75532278D01*
X160249684Y-75765866D01*
X160099872Y-75994086D01*
X159960592Y-76213717D01*
X159834094Y-76421539D01*
X159722631Y-76614333D01*
X159655304Y-76737593D01*
X159579721Y-76879965D01*
X159533809Y-76813235D01*
X159446287Y-76676510D01*
X159355597Y-76517164D01*
X159263919Y-76339894D01*
X159173434Y-76149394D01*
X159086324Y-75950362D01*
X159004769Y-75747494D01*
X158930951Y-75545485D01*
X158894535Y-75436748D01*
X158828869Y-75222680D01*
X158763142Y-74987514D01*
X158699009Y-74737931D01*
X158638129Y-74480616D01*
X158582157Y-74222251D01*
X158538612Y-74001114D01*
X158499178Y-73790247D01*
X158427527Y-74147251D01*
X158348346Y-74519024D01*
X158264934Y-74865300D01*
X158176540Y-75188196D01*
X158082414Y-75489832D01*
X157981805Y-75772326D01*
X157873963Y-76037797D01*
X157758138Y-76288364D01*
X157633580Y-76526147D01*
X157511457Y-76734097D01*
X157478207Y-76786928D01*
X157449783Y-76830431D01*
X157429634Y-76859431D01*
X157421812Y-76868698D01*
X157411481Y-76859998D01*
X157392251Y-76831399D01*
X157367393Y-76788038D01*
X157352845Y-76760417D01*
X157271950Y-76609688D01*
X157174702Y-76440842D01*
X157063078Y-76256710D01*
X156939052Y-76060123D01*
X156804601Y-75853914D01*
X156661701Y-75640913D01*
X156512328Y-75423952D01*
X156358458Y-75205864D01*
X156202067Y-74989478D01*
X156045131Y-74777628D01*
X155889626Y-74573145D01*
X155737528Y-74378859D01*
X155590813Y-74197604D01*
X155451457Y-74032209D01*
X155438586Y-74017324D01*
X155319985Y-73880504D01*
X155361332Y-73767886D01*
X155408728Y-73638991D01*
X155447551Y-73533956D01*
X155478703Y-73450468D01*
X155503089Y-73386215D01*
X155521613Y-73338884D01*
X155535179Y-73306163D01*
X155544691Y-73285740D01*
X155551053Y-73275302D01*
X155554984Y-73272529D01*
X155567164Y-73281521D01*
X155598247Y-73307409D01*
X155646359Y-73348561D01*
X155709630Y-73403346D01*
X155786187Y-73470131D01*
X155874159Y-73547285D01*
X155971675Y-73633175D01*
X156076862Y-73726171D01*
X156168722Y-73807644D01*
X156278647Y-73905101D01*
X156382293Y-73996644D01*
X156477812Y-74080665D01*
X156563356Y-74155555D01*
X156637076Y-74219703D01*
X156697124Y-74271500D01*
X156741652Y-74309338D01*
X156768810Y-74331607D01*
X156776848Y-74337103D01*
X156776369Y-74322738D01*
X156773379Y-74282607D01*
X156768053Y-74218652D01*
X156760570Y-74132813D01*
X156751106Y-74027029D01*
X156739837Y-73903242D01*
X156726941Y-73763392D01*
X156712595Y-73609419D01*
X156696974Y-73443263D01*
X156680257Y-73266866D01*
X156678097Y-73244237D01*
X157992159Y-73244237D01*
X157997245Y-73245722D01*
X158017696Y-73230660D01*
X158049255Y-73202247D01*
X158053339Y-73198331D01*
X158102575Y-73157346D01*
X158163756Y-73115335D01*
X158219523Y-73083577D01*
X158343744Y-73036407D01*
X158469842Y-73016268D01*
X158595066Y-73022740D01*
X158716663Y-73055405D01*
X158831881Y-73113845D01*
X158931824Y-73191826D01*
X158967443Y-73223558D01*
X158992727Y-73242968D01*
X159003503Y-73246967D01*
X159003281Y-73244693D01*
X158997913Y-73227954D01*
X158985013Y-73187022D01*
X158965327Y-73124282D01*
X158939601Y-73042116D01*
X158908579Y-72942911D01*
X158873008Y-72829048D01*
X158833633Y-72702913D01*
X158791200Y-72566889D01*
X158748679Y-72430501D01*
X158704214Y-72287920D01*
X158662235Y-72153462D01*
X158623466Y-72029442D01*
X158588633Y-71918176D01*
X158558462Y-71821976D01*
X158533680Y-71743158D01*
X158515011Y-71684036D01*
X158503182Y-71646925D01*
X158498928Y-71634144D01*
X158494459Y-71646495D01*
X158482450Y-71683140D01*
X158463623Y-71741792D01*
X158438702Y-71820164D01*
X158408409Y-71915968D01*
X158373468Y-72026919D01*
X158334602Y-72150729D01*
X158292534Y-72285111D01*
X158248086Y-72427459D01*
X158203322Y-72570937D01*
X158160901Y-72706784D01*
X158121567Y-72832621D01*
X158086066Y-72946073D01*
X158055143Y-73044762D01*
X158029542Y-73126310D01*
X158010007Y-73188341D01*
X157997285Y-73228477D01*
X157992159Y-73244237D01*
X156678097Y-73244237D01*
X156662620Y-73082167D01*
X156659626Y-73050946D01*
X156641883Y-72864982D01*
X156625095Y-72686940D01*
X156609434Y-72518765D01*
X156595072Y-72362405D01*
X156582182Y-72219806D01*
X156570936Y-72092915D01*
X156561506Y-71983678D01*
X156554064Y-71894042D01*
X156548782Y-71825953D01*
X156545833Y-71781359D01*
X156545389Y-71762204D01*
X156545566Y-71761627D01*
X156559891Y-71764976D01*
X156596795Y-71778383D01*
X156653392Y-71800668D01*
X156726795Y-71830652D01*
X156814117Y-71867155D01*
X156912470Y-71908997D01*
X157018968Y-71954998D01*
X157021169Y-71955956D01*
X157127691Y-72002260D01*
X157225931Y-72044858D01*
X157313025Y-72082517D01*
X157386112Y-72114004D01*
X157442330Y-72138086D01*
X157478817Y-72153529D01*
X157492710Y-72159102D01*
X157492738Y-72159104D01*
X157500089Y-72147241D01*
X157519839Y-72112926D01*
X157550924Y-72058064D01*
X157592274Y-71984563D01*
X157642824Y-71894332D01*
X157701506Y-71789277D01*
X157767253Y-71671306D01*
X157838999Y-71542327D01*
X157915675Y-71404246D01*
X157990742Y-71268852D01*
X158071217Y-71123932D01*
X158147983Y-70986342D01*
X158219952Y-70857991D01*
X158286036Y-70740792D01*
X158345146Y-70636653D01*
X158396195Y-70547484D01*
X158438094Y-70475196D01*
X158469755Y-70421698D01*
X158490089Y-70388902D01*
X158497879Y-70378653D01*
X158506748Y-70390530D01*
G36*
X153692313Y-73782659D02*
G01*
X153730986Y-73789519D01*
X153791624Y-73800780D01*
X153871558Y-73815930D01*
X153968118Y-73834462D01*
X154078637Y-73855864D01*
X154200444Y-73879629D01*
X154330871Y-73905246D01*
X154333108Y-73905687D01*
X154494274Y-73937667D01*
X154629870Y-73965083D01*
X154741712Y-73988350D01*
X154831615Y-74007879D01*
X154901398Y-74024085D01*
X154952876Y-74037380D01*
X154987867Y-74048177D01*
X155008185Y-74056889D01*
X155013124Y-74060328D01*
X155038067Y-74087173D01*
X155076372Y-74134031D01*
X155125813Y-74197852D01*
X155184167Y-74275586D01*
X155249208Y-74364183D01*
X155318712Y-74460594D01*
X155390453Y-74561768D01*
X155462208Y-74664657D01*
X155531750Y-74766210D01*
X155575466Y-74831187D01*
X155782003Y-75149388D01*
X155984357Y-75478272D01*
X156180228Y-75813578D01*
X156367317Y-76151045D01*
X156543323Y-76486414D01*
X156705946Y-76815423D01*
X156852888Y-77133812D01*
X156980483Y-77433953D01*
X157012652Y-77515980D01*
X157047619Y-77609595D01*
X157083741Y-77709956D01*
X157119380Y-77812218D01*
X157152893Y-77911537D01*
X157182640Y-78003072D01*
X157206980Y-78081978D01*
X157224272Y-78143411D01*
X157231697Y-78175464D01*
X157240213Y-78208750D01*
X157249160Y-78226409D01*
X157251073Y-78227268D01*
X157264428Y-78217188D01*
X157293064Y-78189004D01*
X157334211Y-78145801D01*
X157385096Y-78090666D01*
X157442951Y-78026682D01*
X157505004Y-77956936D01*
X157568484Y-77884513D01*
X157630622Y-77812498D01*
X157688647Y-77743976D01*
X157731018Y-77692799D01*
X157860782Y-77529000D01*
X157980279Y-77366965D01*
X158093754Y-77200344D01*
X158205455Y-77022789D01*
X158319627Y-76827949D01*
X158372543Y-76733662D01*
X158411946Y-76664233D01*
X158447251Y-76605052D01*
X158476160Y-76559730D01*
X158496375Y-76531878D01*
X158505438Y-76524895D01*
X158515972Y-76541012D01*
X158536605Y-76576415D01*
X158564330Y-76625832D01*
X158595276Y-76682392D01*
X158749097Y-76954152D01*
X158905413Y-77204339D01*
X159068340Y-77439170D01*
X159241994Y-77664859D01*
X159263594Y-77691433D01*
X159316481Y-77755141D01*
X159375688Y-77824800D01*
X159438453Y-77897331D01*
X159502010Y-77969656D01*
X159563598Y-78038697D01*
X159620452Y-78101377D01*
X159669809Y-78154616D01*
X159708904Y-78195338D01*
X159734975Y-78220463D01*
X159744685Y-78227268D01*
X159753177Y-78215081D01*
X159762139Y-78184857D01*
X159764061Y-78175464D01*
X159774891Y-78130571D01*
X159794017Y-78064520D01*
X159819799Y-77982154D01*
X159850596Y-77888317D01*
X159884767Y-77787853D01*
X159920671Y-77685606D01*
X159956666Y-77586417D01*
X159991113Y-77495132D01*
X160015275Y-77433953D01*
X160141904Y-77136122D01*
X160286237Y-76823241D01*
X160445955Y-76499603D01*
X160618743Y-76169499D01*
X160802285Y-75837221D01*
X160994264Y-75507062D01*
X161192364Y-75183312D01*
X161394269Y-74870263D01*
X161418910Y-74833221D01*
X161485675Y-74734364D01*
X161556142Y-74632108D01*
X161628089Y-74529498D01*
X161699296Y-74429579D01*
X161767544Y-74335398D01*
X161830610Y-74249998D01*
X161886276Y-74176427D01*
X161932320Y-74117728D01*
X161966523Y-74076948D01*
X161982026Y-74060878D01*
X161996732Y-74052941D01*
X162026501Y-74042852D01*
X162073033Y-74030224D01*
X162138023Y-74014673D01*
X162223168Y-73995814D01*
X162330167Y-73973261D01*
X162460715Y-73946629D01*
X162616510Y-73915533D01*
X162662042Y-73906536D01*
X162792652Y-73880847D01*
X162914687Y-73856993D01*
X163025482Y-73835483D01*
X163122367Y-73816830D01*
X163202675Y-73801544D01*
X163263738Y-73790135D01*
X163302890Y-73783115D01*
X163317461Y-73780994D01*
X163317483Y-73781006D01*
X163314661Y-73794406D01*
X163305634Y-73832011D01*
X163291103Y-73891062D01*
X163271767Y-73968797D01*
X163248327Y-74062458D01*
X163221484Y-74169283D01*
X163191937Y-74286514D01*
X163160386Y-74411388D01*
X163127533Y-74541147D01*
X163094077Y-74673030D01*
X163060718Y-74804277D01*
X163028157Y-74932127D01*
X162997094Y-75053822D01*
X162968230Y-75166600D01*
X162942264Y-75267701D01*
X162919896Y-75354365D01*
X162901828Y-75423833D01*
X162888759Y-75473343D01*
X162881389Y-75500136D01*
X162881071Y-75501201D01*
X162884450Y-75511802D01*
X162901055Y-75527915D01*
X162933037Y-75550952D01*
X162982550Y-75582327D01*
X163051746Y-75623452D01*
X163142778Y-75675741D01*
X163173850Y-75693353D01*
X163256309Y-75740400D01*
X163330088Y-75783290D01*
X163391908Y-75820051D01*
X163438492Y-75848714D01*
X163466561Y-75867308D01*
X163473495Y-75873519D01*
X163462069Y-75882342D01*
X163428738Y-75905414D01*
X163374925Y-75941795D01*
X163302053Y-75990546D01*
X163211543Y-76050727D01*
X163104819Y-76121400D01*
X162983303Y-76201624D01*
X162848417Y-76290460D01*
X162701583Y-76386969D01*
X162544225Y-76490212D01*
X162377765Y-76599248D01*
X162203624Y-76713139D01*
X162067958Y-76801750D01*
X161888938Y-76918724D01*
X161716520Y-77031602D01*
X161552130Y-77139440D01*
X161397191Y-77241295D01*
X161253125Y-77336224D01*
X161121356Y-77423284D01*
X161003307Y-77501533D01*
X160900401Y-77570027D01*
X160814063Y-77627822D01*
X160745715Y-77673977D01*
X160696780Y-77707548D01*
X160668682Y-77727592D01*
X160662138Y-77733186D01*
X160666153Y-77749090D01*
X160677730Y-77788616D01*
X160695974Y-77848865D01*
X160719993Y-77926938D01*
X160748893Y-78019938D01*
X160781780Y-78124965D01*
X160817761Y-78239120D01*
X160830717Y-78280054D01*
X160867293Y-78396403D01*
X160900701Y-78504435D01*
X160930096Y-78601288D01*
X160954636Y-78684102D01*
X160973477Y-78750017D01*
X160985776Y-78796172D01*
X160990690Y-78819707D01*
X160990499Y-78822082D01*
X160975651Y-78821794D01*
X160935142Y-78818353D01*
X160870943Y-78811982D01*
X160785024Y-78802900D01*
X160679353Y-78791329D01*
X160555902Y-78777489D01*
X160416641Y-78761602D01*
X160263538Y-78743887D01*
X160098565Y-78724567D01*
X159923691Y-78703862D01*
X159740886Y-78681993D01*
X159739649Y-78681844D01*
X158497879Y-78532528D01*
X157281556Y-78679131D01*
X157099961Y-78700974D01*
X156925837Y-78721834D01*
X156761228Y-78741468D01*
X156608175Y-78759639D01*
X156468723Y-78776107D01*
X156344914Y-78790631D01*
X156238790Y-78802971D01*
X156152396Y-78812889D01*
X156087774Y-78820143D01*
X156046967Y-78824495D01*
X156032432Y-78825734D01*
X156007234Y-78821557D01*
X155999632Y-78814183D01*
X156003708Y-78798796D01*
X156015336Y-78759788D01*
X156033616Y-78700058D01*
X156057647Y-78622508D01*
X156086531Y-78530036D01*
X156119366Y-78425544D01*
X156155254Y-78311930D01*
X156166646Y-78275981D01*
X156203305Y-78160007D01*
X156237177Y-78052128D01*
X156267361Y-77955266D01*
X156292955Y-77872347D01*
X156313059Y-77806295D01*
X156326771Y-77760036D01*
X156333190Y-77736493D01*
X156333559Y-77734299D01*
X156322117Y-77724922D01*
X156288766Y-77701310D01*
X156234927Y-77664408D01*
X156162026Y-77615159D01*
X156071485Y-77554507D01*
X155964726Y-77483399D01*
X155843173Y-77402776D01*
X155708249Y-77313585D01*
X155561377Y-77216769D01*
X155403980Y-77113272D01*
X155237482Y-77004039D01*
X155063304Y-76890015D01*
X154927861Y-76801510D01*
X154748869Y-76684555D01*
X154576482Y-76571751D01*
X154412123Y-76464035D01*
X154257215Y-76362347D01*
X154113179Y-76267627D01*
X153981437Y-76180814D01*
X153863412Y-76102847D01*
X153760526Y-76034664D01*
X153674202Y-75977207D01*
X153605861Y-75931412D01*
X153556926Y-75898221D01*
X153528819Y-75878572D01*
X153522263Y-75873279D01*
X153533871Y-75863832D01*
X153566513Y-75842794D01*
X153616909Y-75812134D01*
X153681783Y-75773819D01*
X153757856Y-75729817D01*
X153821908Y-75693353D01*
X153919735Y-75637532D01*
X153995097Y-75593287D01*
X154050146Y-75559206D01*
X154087034Y-75533875D01*
X154107914Y-75515883D01*
X154114940Y-75503815D01*
X154114687Y-75501201D01*
X154107752Y-75476167D01*
X154095067Y-75428211D01*
X154077333Y-75360094D01*
X154055250Y-75274575D01*
X154029518Y-75174417D01*
X154000838Y-75062378D01*
X153969909Y-74941220D01*
X153937432Y-74813703D01*
X153904106Y-74682588D01*
X153870633Y-74550634D01*
X153837712Y-74420602D01*
X153806044Y-74295254D01*
X153776329Y-74177348D01*
X153749266Y-74069646D01*
X153725557Y-73974908D01*
X153705901Y-73895895D01*
X153690999Y-73835367D01*
X153681550Y-73796084D01*
X153678255Y-73780807D01*
X153678274Y-73780707D01*
X153692313Y-73782659D01*
G37*
X153692313Y-73782659D02*
X153730986Y-73789519D01*
X153791624Y-73800780D01*
X153871558Y-73815930D01*
X153968118Y-73834462D01*
X154078637Y-73855864D01*
X154200444Y-73879629D01*
X154330871Y-73905246D01*
X154333108Y-73905687D01*
X154494274Y-73937667D01*
X154629870Y-73965083D01*
X154741712Y-73988350D01*
X154831615Y-74007879D01*
X154901398Y-74024085D01*
X154952876Y-74037380D01*
X154987867Y-74048177D01*
X155008185Y-74056889D01*
X155013124Y-74060328D01*
X155038067Y-74087173D01*
X155076372Y-74134031D01*
X155125813Y-74197852D01*
X155184167Y-74275586D01*
X155249208Y-74364183D01*
X155318712Y-74460594D01*
X155390453Y-74561768D01*
X155462208Y-74664657D01*
X155531750Y-74766210D01*
X155575466Y-74831187D01*
X155782003Y-75149388D01*
X155984357Y-75478272D01*
X156180228Y-75813578D01*
X156367317Y-76151045D01*
X156543323Y-76486414D01*
X156705946Y-76815423D01*
X156852888Y-77133812D01*
X156980483Y-77433953D01*
X157012652Y-77515980D01*
X157047619Y-77609595D01*
X157083741Y-77709956D01*
X157119380Y-77812218D01*
X157152893Y-77911537D01*
X157182640Y-78003072D01*
X157206980Y-78081978D01*
X157224272Y-78143411D01*
X157231697Y-78175464D01*
X157240213Y-78208750D01*
X157249160Y-78226409D01*
X157251073Y-78227268D01*
X157264428Y-78217188D01*
X157293064Y-78189004D01*
X157334211Y-78145801D01*
X157385096Y-78090666D01*
X157442951Y-78026682D01*
X157505004Y-77956936D01*
X157568484Y-77884513D01*
X157630622Y-77812498D01*
X157688647Y-77743976D01*
X157731018Y-77692799D01*
X157860782Y-77529000D01*
X157980279Y-77366965D01*
X158093754Y-77200344D01*
X158205455Y-77022789D01*
X158319627Y-76827949D01*
X158372543Y-76733662D01*
X158411946Y-76664233D01*
X158447251Y-76605052D01*
X158476160Y-76559730D01*
X158496375Y-76531878D01*
X158505438Y-76524895D01*
X158515972Y-76541012D01*
X158536605Y-76576415D01*
X158564330Y-76625832D01*
X158595276Y-76682392D01*
X158749097Y-76954152D01*
X158905413Y-77204339D01*
X159068340Y-77439170D01*
X159241994Y-77664859D01*
X159263594Y-77691433D01*
X159316481Y-77755141D01*
X159375688Y-77824800D01*
X159438453Y-77897331D01*
X159502010Y-77969656D01*
X159563598Y-78038697D01*
X159620452Y-78101377D01*
X159669809Y-78154616D01*
X159708904Y-78195338D01*
X159734975Y-78220463D01*
X159744685Y-78227268D01*
X159753177Y-78215081D01*
X159762139Y-78184857D01*
X159764061Y-78175464D01*
X159774891Y-78130571D01*
X159794017Y-78064520D01*
X159819799Y-77982154D01*
X159850596Y-77888317D01*
X159884767Y-77787853D01*
X159920671Y-77685606D01*
X159956666Y-77586417D01*
X159991113Y-77495132D01*
X160015275Y-77433953D01*
X160141904Y-77136122D01*
X160286237Y-76823241D01*
X160445955Y-76499603D01*
X160618743Y-76169499D01*
X160802285Y-75837221D01*
X160994264Y-75507062D01*
X161192364Y-75183312D01*
X161394269Y-74870263D01*
X161418910Y-74833221D01*
X161485675Y-74734364D01*
X161556142Y-74632108D01*
X161628089Y-74529498D01*
X161699296Y-74429579D01*
X161767544Y-74335398D01*
X161830610Y-74249998D01*
X161886276Y-74176427D01*
X161932320Y-74117728D01*
X161966523Y-74076948D01*
X161982026Y-74060878D01*
X161996732Y-74052941D01*
X162026501Y-74042852D01*
X162073033Y-74030224D01*
X162138023Y-74014673D01*
X162223168Y-73995814D01*
X162330167Y-73973261D01*
X162460715Y-73946629D01*
X162616510Y-73915533D01*
X162662042Y-73906536D01*
X162792652Y-73880847D01*
X162914687Y-73856993D01*
X163025482Y-73835483D01*
X163122367Y-73816830D01*
X163202675Y-73801544D01*
X163263738Y-73790135D01*
X163302890Y-73783115D01*
X163317461Y-73780994D01*
X163317483Y-73781006D01*
X163314661Y-73794406D01*
X163305634Y-73832011D01*
X163291103Y-73891062D01*
X163271767Y-73968797D01*
X163248327Y-74062458D01*
X163221484Y-74169283D01*
X163191937Y-74286514D01*
X163160386Y-74411388D01*
X163127533Y-74541147D01*
X163094077Y-74673030D01*
X163060718Y-74804277D01*
X163028157Y-74932127D01*
X162997094Y-75053822D01*
X162968230Y-75166600D01*
X162942264Y-75267701D01*
X162919896Y-75354365D01*
X162901828Y-75423833D01*
X162888759Y-75473343D01*
X162881389Y-75500136D01*
X162881071Y-75501201D01*
X162884450Y-75511802D01*
X162901055Y-75527915D01*
X162933037Y-75550952D01*
X162982550Y-75582327D01*
X163051746Y-75623452D01*
X163142778Y-75675741D01*
X163173850Y-75693353D01*
X163256309Y-75740400D01*
X163330088Y-75783290D01*
X163391908Y-75820051D01*
X163438492Y-75848714D01*
X163466561Y-75867308D01*
X163473495Y-75873519D01*
X163462069Y-75882342D01*
X163428738Y-75905414D01*
X163374925Y-75941795D01*
X163302053Y-75990546D01*
X163211543Y-76050727D01*
X163104819Y-76121400D01*
X162983303Y-76201624D01*
X162848417Y-76290460D01*
X162701583Y-76386969D01*
X162544225Y-76490212D01*
X162377765Y-76599248D01*
X162203624Y-76713139D01*
X162067958Y-76801750D01*
X161888938Y-76918724D01*
X161716520Y-77031602D01*
X161552130Y-77139440D01*
X161397191Y-77241295D01*
X161253125Y-77336224D01*
X161121356Y-77423284D01*
X161003307Y-77501533D01*
X160900401Y-77570027D01*
X160814063Y-77627822D01*
X160745715Y-77673977D01*
X160696780Y-77707548D01*
X160668682Y-77727592D01*
X160662138Y-77733186D01*
X160666153Y-77749090D01*
X160677730Y-77788616D01*
X160695974Y-77848865D01*
X160719993Y-77926938D01*
X160748893Y-78019938D01*
X160781780Y-78124965D01*
X160817761Y-78239120D01*
X160830717Y-78280054D01*
X160867293Y-78396403D01*
X160900701Y-78504435D01*
X160930096Y-78601288D01*
X160954636Y-78684102D01*
X160973477Y-78750017D01*
X160985776Y-78796172D01*
X160990690Y-78819707D01*
X160990499Y-78822082D01*
X160975651Y-78821794D01*
X160935142Y-78818353D01*
X160870943Y-78811982D01*
X160785024Y-78802900D01*
X160679353Y-78791329D01*
X160555902Y-78777489D01*
X160416641Y-78761602D01*
X160263538Y-78743887D01*
X160098565Y-78724567D01*
X159923691Y-78703862D01*
X159740886Y-78681993D01*
X159739649Y-78681844D01*
X158497879Y-78532528D01*
X157281556Y-78679131D01*
X157099961Y-78700974D01*
X156925837Y-78721834D01*
X156761228Y-78741468D01*
X156608175Y-78759639D01*
X156468723Y-78776107D01*
X156344914Y-78790631D01*
X156238790Y-78802971D01*
X156152396Y-78812889D01*
X156087774Y-78820143D01*
X156046967Y-78824495D01*
X156032432Y-78825734D01*
X156007234Y-78821557D01*
X155999632Y-78814183D01*
X156003708Y-78798796D01*
X156015336Y-78759788D01*
X156033616Y-78700058D01*
X156057647Y-78622508D01*
X156086531Y-78530036D01*
X156119366Y-78425544D01*
X156155254Y-78311930D01*
X156166646Y-78275981D01*
X156203305Y-78160007D01*
X156237177Y-78052128D01*
X156267361Y-77955266D01*
X156292955Y-77872347D01*
X156313059Y-77806295D01*
X156326771Y-77760036D01*
X156333190Y-77736493D01*
X156333559Y-77734299D01*
X156322117Y-77724922D01*
X156288766Y-77701310D01*
X156234927Y-77664408D01*
X156162026Y-77615159D01*
X156071485Y-77554507D01*
X155964726Y-77483399D01*
X155843173Y-77402776D01*
X155708249Y-77313585D01*
X155561377Y-77216769D01*
X155403980Y-77113272D01*
X155237482Y-77004039D01*
X155063304Y-76890015D01*
X154927861Y-76801510D01*
X154748869Y-76684555D01*
X154576482Y-76571751D01*
X154412123Y-76464035D01*
X154257215Y-76362347D01*
X154113179Y-76267627D01*
X153981437Y-76180814D01*
X153863412Y-76102847D01*
X153760526Y-76034664D01*
X153674202Y-75977207D01*
X153605861Y-75931412D01*
X153556926Y-75898221D01*
X153528819Y-75878572D01*
X153522263Y-75873279D01*
X153533871Y-75863832D01*
X153566513Y-75842794D01*
X153616909Y-75812134D01*
X153681783Y-75773819D01*
X153757856Y-75729817D01*
X153821908Y-75693353D01*
X153919735Y-75637532D01*
X153995097Y-75593287D01*
X154050146Y-75559206D01*
X154087034Y-75533875D01*
X154107914Y-75515883D01*
X154114940Y-75503815D01*
X154114687Y-75501201D01*
X154107752Y-75476167D01*
X154095067Y-75428211D01*
X154077333Y-75360094D01*
X154055250Y-75274575D01*
X154029518Y-75174417D01*
X154000838Y-75062378D01*
X153969909Y-74941220D01*
X153937432Y-74813703D01*
X153904106Y-74682588D01*
X153870633Y-74550634D01*
X153837712Y-74420602D01*
X153806044Y-74295254D01*
X153776329Y-74177348D01*
X153749266Y-74069646D01*
X153725557Y-73974908D01*
X153705901Y-73895895D01*
X153690999Y-73835367D01*
X153681550Y-73796084D01*
X153678255Y-73780807D01*
X153678274Y-73780707D01*
X153692313Y-73782659D01*
D10*
X116834920Y-109004100D02*
X116834920Y-113753900D01*
X122194320Y-113753900D02*
X122194320Y-109004100D01*
D14*
G36*
X119055109Y-115544600D02*
G01*
X118674109Y-115544600D01*
X118674109Y-115290600D01*
X119055109Y-115290600D01*
X119055109Y-115544600D01*
G37*
X119055109Y-115544600D02*
X118674109Y-115544600D01*
X118674109Y-115290600D01*
X119055109Y-115290600D01*
X119055109Y-115544600D01*
D10*
X165460340Y-88901740D02*
X165690340Y-88901740D01*
X170180340Y-88901740D02*
X169950340Y-88901740D01*
X170180340Y-88901740D02*
X170180340Y-91621740D01*
X170180340Y-91621740D02*
X168870340Y-91621740D01*
X169950340Y-87761740D02*
X169950340Y-88901740D01*
X165460340Y-91621740D02*
X165460340Y-88901740D01*
X166770340Y-91621740D02*
X165460340Y-91621740D01*
X136270580Y-92667220D02*
X134470580Y-92667220D01*
X134470580Y-95887220D02*
X136920580Y-95887220D01*
X118338180Y-140149940D02*
X116538180Y-140149940D01*
X116538180Y-143369940D02*
X118988180Y-143369940D01*
X180394940Y-127011164D02*
X180394940Y-126557036D01*
X181864940Y-127011164D02*
X181864940Y-126557036D01*
X179154760Y-126544336D02*
X179154760Y-126998464D01*
X177684760Y-126544336D02*
X177684760Y-126998464D01*
X170541456Y-139747320D02*
X170995584Y-139747320D01*
X170541456Y-141217320D02*
X170995584Y-141217320D01*
X170535356Y-131623740D02*
X170989484Y-131623740D01*
X170535356Y-130153740D02*
X170989484Y-130153740D01*
X170526216Y-146712000D02*
X170980344Y-146712000D01*
X170526216Y-148182000D02*
X170980344Y-148182000D01*
X170526216Y-143283000D02*
X170980344Y-143283000D01*
X170526216Y-144753000D02*
X170980344Y-144753000D01*
X170503356Y-137755300D02*
X170957484Y-137755300D01*
X170503356Y-136285300D02*
X170957484Y-136285300D01*
X170535356Y-134938440D02*
X170989484Y-134938440D01*
X170535356Y-133468440D02*
X170989484Y-133468440D01*
X114067920Y-118423196D02*
X114067920Y-118877324D01*
X115537920Y-118423196D02*
X115537920Y-118877324D01*
X118070300Y-118956064D02*
X118070300Y-118501936D01*
X116600300Y-118956064D02*
X116600300Y-118501936D01*
X114131420Y-113528616D02*
X114131420Y-113982744D01*
X115601420Y-113528616D02*
X115601420Y-113982744D01*
X180037984Y-140650900D02*
X179583856Y-140650900D01*
X180037984Y-139180900D02*
X179583856Y-139180900D01*
X166587500Y-97705936D02*
X166587500Y-98160064D01*
X168057500Y-97705936D02*
X168057500Y-98160064D01*
X119259680Y-118492536D02*
X119259680Y-118946664D01*
X120729680Y-118492536D02*
X120729680Y-118946664D01*
X170168900Y-97553536D02*
X170168900Y-98007664D01*
X171638900Y-97553536D02*
X171638900Y-98007664D01*
X177386920Y-131868936D02*
X177386920Y-132323064D01*
X175916920Y-131868936D02*
X175916920Y-132323064D01*
X180029876Y-131974260D02*
X180484004Y-131974260D01*
X180029876Y-130504260D02*
X180484004Y-130504260D01*
X179189600Y-133766400D02*
X180649600Y-133766400D01*
X179189600Y-136926400D02*
X181349600Y-136926400D01*
X179189600Y-136926400D02*
X179189600Y-135996400D01*
X179189600Y-133766400D02*
X179189600Y-134696400D01*
X122752020Y-104773316D02*
X122752020Y-105977444D01*
X125472020Y-104773316D02*
X125472020Y-105977444D01*
D12*
X148329400Y-130340000D02*
X148329400Y-123340000D01*
X148329400Y-123340000D02*
X148029400Y-123340000D01*
X148029400Y-123340000D02*
X148029400Y-121340000D01*
X148029400Y-121340000D02*
X148329400Y-121340000D01*
X148329400Y-121340000D02*
X148329400Y-114340000D01*
X148329400Y-114340000D02*
X144329400Y-114340000D01*
X144329400Y-114340000D02*
X144329400Y-130340000D01*
X144329400Y-130340000D02*
X148329400Y-130340000D01*
X140582400Y-130390800D02*
X140582400Y-123390800D01*
X140582400Y-123390800D02*
X140282400Y-123390800D01*
X140282400Y-123390800D02*
X140282400Y-121390800D01*
X140282400Y-121390800D02*
X140582400Y-121390800D01*
X140582400Y-121390800D02*
X140582400Y-114390800D01*
X140582400Y-114390800D02*
X136582400Y-114390800D01*
X136582400Y-114390800D02*
X136582400Y-130390800D01*
X136582400Y-130390800D02*
X140582400Y-130390800D01*
D10*
X136515800Y-110861800D02*
X136515800Y-113521800D01*
X146735800Y-110861800D02*
X136515800Y-110861800D01*
X146735800Y-113521800D02*
X136515800Y-113521800D01*
X146735800Y-110861800D02*
X146735800Y-113521800D01*
X148005800Y-110861800D02*
X149335800Y-110861800D01*
X149335800Y-110861800D02*
X149335800Y-112191800D01*
D12*
X133833600Y-108172000D02*
X140833600Y-108172000D01*
X140833600Y-108172000D02*
X140833600Y-107872000D01*
X140833600Y-107872000D02*
X142833600Y-107872000D01*
X142833600Y-107872000D02*
X142833600Y-108172000D01*
X142833600Y-108172000D02*
X149833600Y-108172000D01*
X149833600Y-108172000D02*
X149833600Y-104172000D01*
X149833600Y-104172000D02*
X133833600Y-104172000D01*
X133833600Y-104172000D02*
X133833600Y-108172000D01*
D10*
X140724632Y-91382920D02*
X140202128Y-91382920D01*
X140724632Y-89962920D02*
X140202128Y-89962920D01*
X122921772Y-138515160D02*
X122399268Y-138515160D01*
X122921772Y-137095160D02*
X122399268Y-137095160D01*
X175823500Y-106382500D02*
X175823500Y-102322500D01*
X173553500Y-106382500D02*
X175823500Y-106382500D01*
X173553500Y-102322500D02*
X173553500Y-106382500D01*
X168559100Y-106487300D02*
X168559100Y-102427300D01*
X166289100Y-106487300D02*
X168559100Y-106487300D01*
X166289100Y-102427300D02*
X166289100Y-106487300D01*
X172038900Y-106357100D02*
X172038900Y-102297100D01*
X169768900Y-106357100D02*
X172038900Y-106357100D01*
X169768900Y-102297100D02*
X169768900Y-106357100D01*
X123848620Y-113911280D02*
X123848620Y-110061280D01*
X125848620Y-113911280D02*
X125848620Y-110061280D01*
X123848620Y-113911280D02*
X125848620Y-113911280D01*
X171304280Y-90130908D02*
X171304280Y-90653412D01*
X172774280Y-90130908D02*
X172774280Y-90653412D01*
X167096808Y-85466860D02*
X167619312Y-85466860D01*
X167096808Y-83996860D02*
X167619312Y-83996860D01*
X115652220Y-109533232D02*
X115652220Y-109010728D01*
X114182220Y-109533232D02*
X114182220Y-109010728D01*
X117569972Y-104451480D02*
X117047468Y-104451480D01*
X117569972Y-105921480D02*
X117047468Y-105921480D01*
X114262840Y-142541268D02*
X114262840Y-143063772D01*
X112792840Y-142541268D02*
X112792840Y-143063772D01*
X159489952Y-132688000D02*
X158967448Y-132688000D01*
X159489952Y-131218000D02*
X158967448Y-131218000D01*
X132060620Y-95080188D02*
X132060620Y-95602692D01*
X130590620Y-95080188D02*
X130590620Y-95602692D01*
D12*
X180139666Y-107358380D02*
X180139666Y-108072666D01*
X180092047Y-108215523D01*
X179996809Y-108310761D01*
X179853952Y-108358380D01*
X179758714Y-108358380D01*
X181044428Y-107691714D02*
X181044428Y-108358380D01*
X180806333Y-107310761D02*
X180568238Y-108025047D01*
X181187285Y-108025047D01*
X107165876Y-99985580D02*
X107165876Y-100699866D01*
X107118257Y-100842723D01*
X107023019Y-100937961D01*
X106880161Y-100985580D01*
X106784923Y-100985580D01*
X108165876Y-100985580D02*
X107594447Y-100985580D01*
X107880161Y-100985580D02*
X107880161Y-99985580D01*
X107784923Y-100128438D01*
X107689685Y-100223676D01*
X107594447Y-100271295D01*
X109118257Y-100985580D02*
X108546828Y-100985580D01*
X108832542Y-100985580D02*
X108832542Y-99985580D01*
X108737304Y-100128438D01*
X108642066Y-100223676D01*
X108546828Y-100271295D01*
X127220742Y-106224342D02*
X127173123Y-106271961D01*
X127030266Y-106319580D01*
X126935028Y-106319580D01*
X126792171Y-106271961D01*
X126696933Y-106176723D01*
X126649314Y-106081485D01*
X126601695Y-105891009D01*
X126601695Y-105748152D01*
X126649314Y-105557676D01*
X126696933Y-105462438D01*
X126792171Y-105367200D01*
X126935028Y-105319580D01*
X127030266Y-105319580D01*
X127173123Y-105367200D01*
X127220742Y-105414819D01*
X127601695Y-105414819D02*
X127649314Y-105367200D01*
X127744552Y-105319580D01*
X127982647Y-105319580D01*
X128077885Y-105367200D01*
X128125504Y-105414819D01*
X128173123Y-105510057D01*
X128173123Y-105605295D01*
X128125504Y-105748152D01*
X127554076Y-106319580D01*
X128173123Y-106319580D01*
X128554076Y-105414819D02*
X128601695Y-105367200D01*
X128696933Y-105319580D01*
X128935028Y-105319580D01*
X129030266Y-105367200D01*
X129077885Y-105414819D01*
X129125504Y-105510057D01*
X129125504Y-105605295D01*
X129077885Y-105748152D01*
X128506457Y-106319580D01*
X129125504Y-106319580D01*
X123347642Y-122226342D02*
X123300023Y-122273961D01*
X123157166Y-122321580D01*
X123061928Y-122321580D01*
X122919071Y-122273961D01*
X122823833Y-122178723D01*
X122776214Y-122083485D01*
X122728595Y-121893009D01*
X122728595Y-121750152D01*
X122776214Y-121559676D01*
X122823833Y-121464438D01*
X122919071Y-121369200D01*
X123061928Y-121321580D01*
X123157166Y-121321580D01*
X123300023Y-121369200D01*
X123347642Y-121416819D01*
X123728595Y-121416819D02*
X123776214Y-121369200D01*
X123871452Y-121321580D01*
X124109547Y-121321580D01*
X124204785Y-121369200D01*
X124252404Y-121416819D01*
X124300023Y-121512057D01*
X124300023Y-121607295D01*
X124252404Y-121750152D01*
X123680976Y-122321580D01*
X124300023Y-122321580D01*
X125157166Y-121321580D02*
X124966690Y-121321580D01*
X124871452Y-121369200D01*
X124823833Y-121416819D01*
X124728595Y-121559676D01*
X124680976Y-121750152D01*
X124680976Y-122131104D01*
X124728595Y-122226342D01*
X124776214Y-122273961D01*
X124871452Y-122321580D01*
X125061928Y-122321580D01*
X125157166Y-122273961D01*
X125204785Y-122226342D01*
X125252404Y-122131104D01*
X125252404Y-121893009D01*
X125204785Y-121797771D01*
X125157166Y-121750152D01*
X125061928Y-121702533D01*
X124871452Y-121702533D01*
X124776214Y-121750152D01*
X124728595Y-121797771D01*
X124680976Y-121893009D01*
X123461542Y-115723942D02*
X123413923Y-115771561D01*
X123271066Y-115819180D01*
X123175828Y-115819180D01*
X123032971Y-115771561D01*
X122937733Y-115676323D01*
X122890114Y-115581085D01*
X122842495Y-115390609D01*
X122842495Y-115247752D01*
X122890114Y-115057276D01*
X122937733Y-114962038D01*
X123032971Y-114866800D01*
X123175828Y-114819180D01*
X123271066Y-114819180D01*
X123413923Y-114866800D01*
X123461542Y-114914419D01*
X123842495Y-114914419D02*
X123890114Y-114866800D01*
X123985352Y-114819180D01*
X124223447Y-114819180D01*
X124318685Y-114866800D01*
X124366304Y-114914419D01*
X124413923Y-115009657D01*
X124413923Y-115104895D01*
X124366304Y-115247752D01*
X123794876Y-115819180D01*
X124413923Y-115819180D01*
X125318685Y-114819180D02*
X124842495Y-114819180D01*
X124794876Y-115295371D01*
X124842495Y-115247752D01*
X124937733Y-115200133D01*
X125175828Y-115200133D01*
X125271066Y-115247752D01*
X125318685Y-115295371D01*
X125366304Y-115390609D01*
X125366304Y-115628704D01*
X125318685Y-115723942D01*
X125271066Y-115771561D01*
X125175828Y-115819180D01*
X124937733Y-115819180D01*
X124842495Y-115771561D01*
X124794876Y-115723942D01*
X134718822Y-89358640D02*
X134385489Y-88882450D01*
X134147394Y-89358640D02*
X134147394Y-88358640D01*
X134528346Y-88358640D01*
X134623584Y-88406260D01*
X134671203Y-88453879D01*
X134718822Y-88549117D01*
X134718822Y-88691974D01*
X134671203Y-88787212D01*
X134623584Y-88834831D01*
X134528346Y-88882450D01*
X134147394Y-88882450D01*
X135671203Y-89358640D02*
X135099775Y-89358640D01*
X135385489Y-89358640D02*
X135385489Y-88358640D01*
X135290251Y-88501498D01*
X135195013Y-88596736D01*
X135099775Y-88644355D01*
X136623584Y-89358640D02*
X136052156Y-89358640D01*
X136337870Y-89358640D02*
X136337870Y-88358640D01*
X136242632Y-88501498D01*
X136147394Y-88596736D01*
X136052156Y-88644355D01*
X117265153Y-136452780D02*
X116931820Y-135976590D01*
X116693724Y-136452780D02*
X116693724Y-135452780D01*
X117074677Y-135452780D01*
X117169915Y-135500400D01*
X117217534Y-135548019D01*
X117265153Y-135643257D01*
X117265153Y-135786114D01*
X117217534Y-135881352D01*
X117169915Y-135928971D01*
X117074677Y-135976590D01*
X116693724Y-135976590D01*
X117598486Y-135452780D02*
X118265153Y-135452780D01*
X117836581Y-136452780D01*
X172624453Y-97241620D02*
X172291120Y-96765430D01*
X172053024Y-97241620D02*
X172053024Y-96241620D01*
X172433977Y-96241620D01*
X172529215Y-96289240D01*
X172576834Y-96336859D01*
X172624453Y-96432097D01*
X172624453Y-96574954D01*
X172576834Y-96670192D01*
X172529215Y-96717811D01*
X172433977Y-96765430D01*
X172053024Y-96765430D01*
X173529215Y-96241620D02*
X173053024Y-96241620D01*
X173005405Y-96717811D01*
X173053024Y-96670192D01*
X173148262Y-96622573D01*
X173386358Y-96622573D01*
X173481596Y-96670192D01*
X173529215Y-96717811D01*
X173576834Y-96813049D01*
X173576834Y-97051144D01*
X173529215Y-97146382D01*
X173481596Y-97194001D01*
X173386358Y-97241620D01*
X173148262Y-97241620D01*
X173053024Y-97194001D01*
X173005405Y-97146382D01*
X152147946Y-130750060D02*
X152147946Y-131464346D01*
X152100327Y-131607203D01*
X152005089Y-131702441D01*
X151862232Y-131750060D01*
X151766994Y-131750060D01*
X152766994Y-131178632D02*
X152671756Y-131131013D01*
X152624137Y-131083394D01*
X152576518Y-130988156D01*
X152576518Y-130940537D01*
X152624137Y-130845299D01*
X152671756Y-130797680D01*
X152766994Y-130750060D01*
X152957470Y-130750060D01*
X153052708Y-130797680D01*
X153100327Y-130845299D01*
X153147946Y-130940537D01*
X153147946Y-130988156D01*
X153100327Y-131083394D01*
X153052708Y-131131013D01*
X152957470Y-131178632D01*
X152766994Y-131178632D01*
X152671756Y-131226251D01*
X152624137Y-131273870D01*
X152576518Y-131369108D01*
X152576518Y-131559584D01*
X152624137Y-131654822D01*
X152671756Y-131702441D01*
X152766994Y-131750060D01*
X152957470Y-131750060D01*
X153052708Y-131702441D01*
X153100327Y-131654822D01*
X153147946Y-131559584D01*
X153147946Y-131369108D01*
X153100327Y-131273870D01*
X153052708Y-131226251D01*
X152957470Y-131178632D01*
X132696982Y-71002162D02*
X132649363Y-71049781D01*
X132506506Y-71097400D01*
X132411268Y-71097400D01*
X132268411Y-71049781D01*
X132173173Y-70954543D01*
X132125554Y-70859305D01*
X132077935Y-70668829D01*
X132077935Y-70525972D01*
X132125554Y-70335496D01*
X132173173Y-70240258D01*
X132268411Y-70145020D01*
X132411268Y-70097400D01*
X132506506Y-70097400D01*
X132649363Y-70145020D01*
X132696982Y-70192639D01*
X133649363Y-71097400D02*
X133077935Y-71097400D01*
X133363649Y-71097400D02*
X133363649Y-70097400D01*
X133268411Y-70240258D01*
X133173173Y-70335496D01*
X133077935Y-70383115D01*
X134220792Y-70525972D02*
X134125554Y-70478353D01*
X134077935Y-70430734D01*
X134030316Y-70335496D01*
X134030316Y-70287877D01*
X134077935Y-70192639D01*
X134125554Y-70145020D01*
X134220792Y-70097400D01*
X134411268Y-70097400D01*
X134506506Y-70145020D01*
X134554125Y-70192639D01*
X134601744Y-70287877D01*
X134601744Y-70335496D01*
X134554125Y-70430734D01*
X134506506Y-70478353D01*
X134411268Y-70525972D01*
X134220792Y-70525972D01*
X134125554Y-70573591D01*
X134077935Y-70621210D01*
X134030316Y-70716448D01*
X134030316Y-70906924D01*
X134077935Y-71002162D01*
X134125554Y-71049781D01*
X134220792Y-71097400D01*
X134411268Y-71097400D01*
X134506506Y-71049781D01*
X134554125Y-71002162D01*
X134601744Y-70906924D01*
X134601744Y-70716448D01*
X134554125Y-70621210D01*
X134506506Y-70573591D01*
X134411268Y-70525972D01*
X142232142Y-72608802D02*
X142184523Y-72656421D01*
X142041666Y-72704040D01*
X141946428Y-72704040D01*
X141803571Y-72656421D01*
X141708333Y-72561183D01*
X141660714Y-72465945D01*
X141613095Y-72275469D01*
X141613095Y-72132612D01*
X141660714Y-71942136D01*
X141708333Y-71846898D01*
X141803571Y-71751660D01*
X141946428Y-71704040D01*
X142041666Y-71704040D01*
X142184523Y-71751660D01*
X142232142Y-71799279D01*
X143184523Y-72704040D02*
X142613095Y-72704040D01*
X142898809Y-72704040D02*
X142898809Y-71704040D01*
X142803571Y-71846898D01*
X142708333Y-71942136D01*
X142613095Y-71989755D01*
X143660714Y-72704040D02*
X143851190Y-72704040D01*
X143946428Y-72656421D01*
X143994047Y-72608802D01*
X144089285Y-72465945D01*
X144136904Y-72275469D01*
X144136904Y-71894517D01*
X144089285Y-71799279D01*
X144041666Y-71751660D01*
X143946428Y-71704040D01*
X143755952Y-71704040D01*
X143660714Y-71751660D01*
X143613095Y-71799279D01*
X143565476Y-71894517D01*
X143565476Y-72132612D01*
X143613095Y-72227850D01*
X143660714Y-72275469D01*
X143755952Y-72323088D01*
X143946428Y-72323088D01*
X144041666Y-72275469D01*
X144089285Y-72227850D01*
X144136904Y-72132612D01*
X131638135Y-76518520D02*
X131638135Y-77328044D01*
X131685754Y-77423282D01*
X131733373Y-77470901D01*
X131828611Y-77518520D01*
X132019087Y-77518520D01*
X132114325Y-77470901D01*
X132161944Y-77423282D01*
X132209563Y-77328044D01*
X132209563Y-76518520D01*
X132733373Y-77518520D02*
X132923849Y-77518520D01*
X133019087Y-77470901D01*
X133066706Y-77423282D01*
X133161944Y-77280425D01*
X133209563Y-77089949D01*
X133209563Y-76708997D01*
X133161944Y-76613759D01*
X133114325Y-76566140D01*
X133019087Y-76518520D01*
X132828611Y-76518520D01*
X132733373Y-76566140D01*
X132685754Y-76613759D01*
X132638135Y-76708997D01*
X132638135Y-76947092D01*
X132685754Y-77042330D01*
X132733373Y-77089949D01*
X132828611Y-77137568D01*
X133019087Y-77137568D01*
X133114325Y-77089949D01*
X133161944Y-77042330D01*
X133209563Y-76947092D01*
X120200515Y-106228900D02*
X120200515Y-107038424D01*
X120248134Y-107133662D01*
X120295753Y-107181281D01*
X120390991Y-107228900D01*
X120581467Y-107228900D01*
X120676705Y-107181281D01*
X120724324Y-107133662D01*
X120771943Y-107038424D01*
X120771943Y-106228900D01*
X121676705Y-106228900D02*
X121486229Y-106228900D01*
X121390991Y-106276520D01*
X121343372Y-106324139D01*
X121248134Y-106466996D01*
X121200515Y-106657472D01*
X121200515Y-107038424D01*
X121248134Y-107133662D01*
X121295753Y-107181281D01*
X121390991Y-107228900D01*
X121581467Y-107228900D01*
X121676705Y-107181281D01*
X121724324Y-107133662D01*
X121771943Y-107038424D01*
X121771943Y-106800329D01*
X121724324Y-106705091D01*
X121676705Y-106657472D01*
X121581467Y-106609853D01*
X121390991Y-106609853D01*
X121295753Y-106657472D01*
X121248134Y-106705091D01*
X121200515Y-106800329D01*
X121865140Y-108562140D02*
X122103236Y-108562140D01*
X122007998Y-108800235D02*
X122103236Y-108562140D01*
X122007998Y-108324044D01*
X122293712Y-108704997D02*
X122103236Y-108562140D01*
X122293712Y-108419282D01*
X121870220Y-108557060D02*
X122108316Y-108557060D01*
X122013078Y-108795155D02*
X122108316Y-108557060D01*
X122013078Y-108318964D01*
X122298792Y-108699917D02*
X122108316Y-108557060D01*
X122298792Y-108414202D01*
X163466875Y-87143340D02*
X163466875Y-87952864D01*
X163514494Y-88048102D01*
X163562113Y-88095721D01*
X163657351Y-88143340D01*
X163847827Y-88143340D01*
X163943065Y-88095721D01*
X163990684Y-88048102D01*
X164038303Y-87952864D01*
X164038303Y-87143340D01*
X164943065Y-87476674D02*
X164943065Y-88143340D01*
X164704970Y-87095721D02*
X164466875Y-87810007D01*
X165085922Y-87810007D01*
X134757255Y-96642940D02*
X134757255Y-97452464D01*
X134804874Y-97547702D01*
X134852493Y-97595321D01*
X134947731Y-97642940D01*
X135138207Y-97642940D01*
X135233445Y-97595321D01*
X135281064Y-97547702D01*
X135328683Y-97452464D01*
X135328683Y-96642940D01*
X135757255Y-96738179D02*
X135804874Y-96690560D01*
X135900112Y-96642940D01*
X136138207Y-96642940D01*
X136233445Y-96690560D01*
X136281064Y-96738179D01*
X136328683Y-96833417D01*
X136328683Y-96928655D01*
X136281064Y-97071512D01*
X135709636Y-97642940D01*
X136328683Y-97642940D01*
X121097135Y-141227560D02*
X121097135Y-142037084D01*
X121144754Y-142132322D01*
X121192373Y-142179941D01*
X121287611Y-142227560D01*
X121478087Y-142227560D01*
X121573325Y-142179941D01*
X121620944Y-142132322D01*
X121668563Y-142037084D01*
X121668563Y-141227560D01*
X122668563Y-142227560D02*
X122097135Y-142227560D01*
X122382849Y-142227560D02*
X122382849Y-141227560D01*
X122287611Y-141370418D01*
X122192373Y-141465656D01*
X122097135Y-141513275D01*
X180814742Y-124528840D02*
X180481409Y-124052650D01*
X180243314Y-124528840D02*
X180243314Y-123528840D01*
X180624266Y-123528840D01*
X180719504Y-123576460D01*
X180767123Y-123624079D01*
X180814742Y-123719317D01*
X180814742Y-123862174D01*
X180767123Y-123957412D01*
X180719504Y-124005031D01*
X180624266Y-124052650D01*
X180243314Y-124052650D01*
X181195695Y-123624079D02*
X181243314Y-123576460D01*
X181338552Y-123528840D01*
X181576647Y-123528840D01*
X181671885Y-123576460D01*
X181719504Y-123624079D01*
X181767123Y-123719317D01*
X181767123Y-123814555D01*
X181719504Y-123957412D01*
X181148076Y-124528840D01*
X181767123Y-124528840D01*
X182624266Y-123528840D02*
X182433790Y-123528840D01*
X182338552Y-123576460D01*
X182290933Y-123624079D01*
X182195695Y-123766936D01*
X182148076Y-123957412D01*
X182148076Y-124338364D01*
X182195695Y-124433602D01*
X182243314Y-124481221D01*
X182338552Y-124528840D01*
X182529028Y-124528840D01*
X182624266Y-124481221D01*
X182671885Y-124433602D01*
X182719504Y-124338364D01*
X182719504Y-124100269D01*
X182671885Y-124005031D01*
X182624266Y-123957412D01*
X182529028Y-123909793D01*
X182338552Y-123909793D01*
X182243314Y-123957412D01*
X182195695Y-124005031D01*
X182148076Y-124100269D01*
X177413682Y-124566940D02*
X177080349Y-124090750D01*
X176842254Y-124566940D02*
X176842254Y-123566940D01*
X177223206Y-123566940D01*
X177318444Y-123614560D01*
X177366063Y-123662179D01*
X177413682Y-123757417D01*
X177413682Y-123900274D01*
X177366063Y-123995512D01*
X177318444Y-124043131D01*
X177223206Y-124090750D01*
X176842254Y-124090750D01*
X177794635Y-123662179D02*
X177842254Y-123614560D01*
X177937492Y-123566940D01*
X178175587Y-123566940D01*
X178270825Y-123614560D01*
X178318444Y-123662179D01*
X178366063Y-123757417D01*
X178366063Y-123852655D01*
X178318444Y-123995512D01*
X177747016Y-124566940D01*
X178366063Y-124566940D01*
X179270825Y-123566940D02*
X178794635Y-123566940D01*
X178747016Y-124043131D01*
X178794635Y-123995512D01*
X178889873Y-123947893D01*
X179127968Y-123947893D01*
X179223206Y-123995512D01*
X179270825Y-124043131D01*
X179318444Y-124138369D01*
X179318444Y-124376464D01*
X179270825Y-124471702D01*
X179223206Y-124519321D01*
X179127968Y-124566940D01*
X178889873Y-124566940D01*
X178794635Y-124519321D01*
X178747016Y-124471702D01*
X173377622Y-141003280D02*
X173044289Y-140527090D01*
X172806194Y-141003280D02*
X172806194Y-140003280D01*
X173187146Y-140003280D01*
X173282384Y-140050900D01*
X173330003Y-140098519D01*
X173377622Y-140193757D01*
X173377622Y-140336614D01*
X173330003Y-140431852D01*
X173282384Y-140479471D01*
X173187146Y-140527090D01*
X172806194Y-140527090D01*
X173758575Y-140098519D02*
X173806194Y-140050900D01*
X173901432Y-140003280D01*
X174139527Y-140003280D01*
X174234765Y-140050900D01*
X174282384Y-140098519D01*
X174330003Y-140193757D01*
X174330003Y-140288995D01*
X174282384Y-140431852D01*
X173710956Y-141003280D01*
X174330003Y-141003280D01*
X174663337Y-140003280D02*
X175282384Y-140003280D01*
X174949051Y-140384233D01*
X175091908Y-140384233D01*
X175187146Y-140431852D01*
X175234765Y-140479471D01*
X175282384Y-140574709D01*
X175282384Y-140812804D01*
X175234765Y-140908042D01*
X175187146Y-140955661D01*
X175091908Y-141003280D01*
X174806194Y-141003280D01*
X174710956Y-140955661D01*
X174663337Y-140908042D01*
X170126422Y-129568200D02*
X169793089Y-129092010D01*
X169554994Y-129568200D02*
X169554994Y-128568200D01*
X169935946Y-128568200D01*
X170031184Y-128615820D01*
X170078803Y-128663439D01*
X170126422Y-128758677D01*
X170126422Y-128901534D01*
X170078803Y-128996772D01*
X170031184Y-129044391D01*
X169935946Y-129092010D01*
X169554994Y-129092010D01*
X170507375Y-128663439D02*
X170554994Y-128615820D01*
X170650232Y-128568200D01*
X170888327Y-128568200D01*
X170983565Y-128615820D01*
X171031184Y-128663439D01*
X171078803Y-128758677D01*
X171078803Y-128853915D01*
X171031184Y-128996772D01*
X170459756Y-129568200D01*
X171078803Y-129568200D01*
X171459756Y-128663439D02*
X171507375Y-128615820D01*
X171602613Y-128568200D01*
X171840708Y-128568200D01*
X171935946Y-128615820D01*
X171983565Y-128663439D01*
X172031184Y-128758677D01*
X172031184Y-128853915D01*
X171983565Y-128996772D01*
X171412137Y-129568200D01*
X172031184Y-129568200D01*
X173387782Y-147947640D02*
X173054449Y-147471450D01*
X172816354Y-147947640D02*
X172816354Y-146947640D01*
X173197306Y-146947640D01*
X173292544Y-146995260D01*
X173340163Y-147042879D01*
X173387782Y-147138117D01*
X173387782Y-147280974D01*
X173340163Y-147376212D01*
X173292544Y-147423831D01*
X173197306Y-147471450D01*
X172816354Y-147471450D01*
X173768735Y-147042879D02*
X173816354Y-146995260D01*
X173911592Y-146947640D01*
X174149687Y-146947640D01*
X174244925Y-146995260D01*
X174292544Y-147042879D01*
X174340163Y-147138117D01*
X174340163Y-147233355D01*
X174292544Y-147376212D01*
X173721116Y-147947640D01*
X174340163Y-147947640D01*
X175292544Y-147947640D02*
X174721116Y-147947640D01*
X175006830Y-147947640D02*
X175006830Y-146947640D01*
X174911592Y-147090498D01*
X174816354Y-147185736D01*
X174721116Y-147233355D01*
X173387782Y-144549120D02*
X173054449Y-144072930D01*
X172816354Y-144549120D02*
X172816354Y-143549120D01*
X173197306Y-143549120D01*
X173292544Y-143596740D01*
X173340163Y-143644359D01*
X173387782Y-143739597D01*
X173387782Y-143882454D01*
X173340163Y-143977692D01*
X173292544Y-144025311D01*
X173197306Y-144072930D01*
X172816354Y-144072930D01*
X173768735Y-143644359D02*
X173816354Y-143596740D01*
X173911592Y-143549120D01*
X174149687Y-143549120D01*
X174244925Y-143596740D01*
X174292544Y-143644359D01*
X174340163Y-143739597D01*
X174340163Y-143834835D01*
X174292544Y-143977692D01*
X173721116Y-144549120D01*
X174340163Y-144549120D01*
X174959211Y-143549120D02*
X175054449Y-143549120D01*
X175149687Y-143596740D01*
X175197306Y-143644359D01*
X175244925Y-143739597D01*
X175292544Y-143930073D01*
X175292544Y-144168168D01*
X175244925Y-144358644D01*
X175197306Y-144453882D01*
X175149687Y-144501501D01*
X175054449Y-144549120D01*
X174959211Y-144549120D01*
X174863973Y-144501501D01*
X174816354Y-144453882D01*
X174768735Y-144358644D01*
X174721116Y-144168168D01*
X174721116Y-143930073D01*
X174768735Y-143739597D01*
X174816354Y-143644359D01*
X174863973Y-143596740D01*
X174959211Y-143549120D01*
X173326822Y-137444740D02*
X172993489Y-136968550D01*
X172755394Y-137444740D02*
X172755394Y-136444740D01*
X173136346Y-136444740D01*
X173231584Y-136492360D01*
X173279203Y-136539979D01*
X173326822Y-136635217D01*
X173326822Y-136778074D01*
X173279203Y-136873312D01*
X173231584Y-136920931D01*
X173136346Y-136968550D01*
X172755394Y-136968550D01*
X174279203Y-137444740D02*
X173707775Y-137444740D01*
X173993489Y-137444740D02*
X173993489Y-136444740D01*
X173898251Y-136587598D01*
X173803013Y-136682836D01*
X173707775Y-136730455D01*
X174755394Y-137444740D02*
X174945870Y-137444740D01*
X175041108Y-137397121D01*
X175088727Y-137349502D01*
X175183965Y-137206645D01*
X175231584Y-137016169D01*
X175231584Y-136635217D01*
X175183965Y-136539979D01*
X175136346Y-136492360D01*
X175041108Y-136444740D01*
X174850632Y-136444740D01*
X174755394Y-136492360D01*
X174707775Y-136539979D01*
X174660156Y-136635217D01*
X174660156Y-136873312D01*
X174707775Y-136968550D01*
X174755394Y-137016169D01*
X174850632Y-137063788D01*
X175041108Y-137063788D01*
X175136346Y-137016169D01*
X175183965Y-136968550D01*
X175231584Y-136873312D01*
X173385242Y-134678680D02*
X173051909Y-134202490D01*
X172813814Y-134678680D02*
X172813814Y-133678680D01*
X173194766Y-133678680D01*
X173290004Y-133726300D01*
X173337623Y-133773919D01*
X173385242Y-133869157D01*
X173385242Y-134012014D01*
X173337623Y-134107252D01*
X173290004Y-134154871D01*
X173194766Y-134202490D01*
X172813814Y-134202490D01*
X174337623Y-134678680D02*
X173766195Y-134678680D01*
X174051909Y-134678680D02*
X174051909Y-133678680D01*
X173956671Y-133821538D01*
X173861433Y-133916776D01*
X173766195Y-133964395D01*
X174909052Y-134107252D02*
X174813814Y-134059633D01*
X174766195Y-134012014D01*
X174718576Y-133916776D01*
X174718576Y-133869157D01*
X174766195Y-133773919D01*
X174813814Y-133726300D01*
X174909052Y-133678680D01*
X175099528Y-133678680D01*
X175194766Y-133726300D01*
X175242385Y-133773919D01*
X175290004Y-133869157D01*
X175290004Y-133916776D01*
X175242385Y-134012014D01*
X175194766Y-134059633D01*
X175099528Y-134107252D01*
X174909052Y-134107252D01*
X174813814Y-134154871D01*
X174766195Y-134202490D01*
X174718576Y-134297728D01*
X174718576Y-134488204D01*
X174766195Y-134583442D01*
X174813814Y-134631061D01*
X174909052Y-134678680D01*
X175099528Y-134678680D01*
X175194766Y-134631061D01*
X175242385Y-134583442D01*
X175290004Y-134488204D01*
X175290004Y-134297728D01*
X175242385Y-134202490D01*
X175194766Y-134154871D01*
X175099528Y-134107252D01*
X111594662Y-118971320D02*
X111261329Y-118495130D01*
X111023234Y-118971320D02*
X111023234Y-117971320D01*
X111404186Y-117971320D01*
X111499424Y-118018940D01*
X111547043Y-118066559D01*
X111594662Y-118161797D01*
X111594662Y-118304654D01*
X111547043Y-118399892D01*
X111499424Y-118447511D01*
X111404186Y-118495130D01*
X111023234Y-118495130D01*
X112547043Y-118971320D02*
X111975615Y-118971320D01*
X112261329Y-118971320D02*
X112261329Y-117971320D01*
X112166091Y-118114178D01*
X112070853Y-118209416D01*
X111975615Y-118257035D01*
X113451805Y-117971320D02*
X112975615Y-117971320D01*
X112927996Y-118447511D01*
X112975615Y-118399892D01*
X113070853Y-118352273D01*
X113308948Y-118352273D01*
X113404186Y-118399892D01*
X113451805Y-118447511D01*
X113499424Y-118542749D01*
X113499424Y-118780844D01*
X113451805Y-118876082D01*
X113404186Y-118923701D01*
X113308948Y-118971320D01*
X113070853Y-118971320D01*
X112975615Y-118923701D01*
X112927996Y-118876082D01*
X116702602Y-121846600D02*
X116369269Y-121370410D01*
X116131174Y-121846600D02*
X116131174Y-120846600D01*
X116512126Y-120846600D01*
X116607364Y-120894220D01*
X116654983Y-120941839D01*
X116702602Y-121037077D01*
X116702602Y-121179934D01*
X116654983Y-121275172D01*
X116607364Y-121322791D01*
X116512126Y-121370410D01*
X116131174Y-121370410D01*
X117654983Y-121846600D02*
X117083555Y-121846600D01*
X117369269Y-121846600D02*
X117369269Y-120846600D01*
X117274031Y-120989458D01*
X117178793Y-121084696D01*
X117083555Y-121132315D01*
X118512126Y-121179934D02*
X118512126Y-121846600D01*
X118274031Y-120798981D02*
X118035936Y-121513267D01*
X118654983Y-121513267D01*
X112056942Y-113332520D02*
X111723609Y-112856330D01*
X111485514Y-113332520D02*
X111485514Y-112332520D01*
X111866466Y-112332520D01*
X111961704Y-112380140D01*
X112009323Y-112427759D01*
X112056942Y-112522997D01*
X112056942Y-112665854D01*
X112009323Y-112761092D01*
X111961704Y-112808711D01*
X111866466Y-112856330D01*
X111485514Y-112856330D01*
X113009323Y-113332520D02*
X112437895Y-113332520D01*
X112723609Y-113332520D02*
X112723609Y-112332520D01*
X112628371Y-112475378D01*
X112533133Y-112570616D01*
X112437895Y-112618235D01*
X113342657Y-112332520D02*
X113961704Y-112332520D01*
X113628371Y-112713473D01*
X113771228Y-112713473D01*
X113866466Y-112761092D01*
X113914085Y-112808711D01*
X113961704Y-112903949D01*
X113961704Y-113142044D01*
X113914085Y-113237282D01*
X113866466Y-113284901D01*
X113771228Y-113332520D01*
X113485514Y-113332520D01*
X113390276Y-113284901D01*
X113342657Y-113237282D01*
X179168062Y-142018280D02*
X178834729Y-141542090D01*
X178596634Y-142018280D02*
X178596634Y-141018280D01*
X178977586Y-141018280D01*
X179072824Y-141065900D01*
X179120443Y-141113519D01*
X179168062Y-141208757D01*
X179168062Y-141351614D01*
X179120443Y-141446852D01*
X179072824Y-141494471D01*
X178977586Y-141542090D01*
X178596634Y-141542090D01*
X180120443Y-142018280D02*
X179549015Y-142018280D01*
X179834729Y-142018280D02*
X179834729Y-141018280D01*
X179739491Y-141161138D01*
X179644253Y-141256376D01*
X179549015Y-141303995D01*
X180501396Y-141113519D02*
X180549015Y-141065900D01*
X180644253Y-141018280D01*
X180882348Y-141018280D01*
X180977586Y-141065900D01*
X181025205Y-141113519D01*
X181072824Y-141208757D01*
X181072824Y-141303995D01*
X181025205Y-141446852D01*
X180453777Y-142018280D01*
X181072824Y-142018280D01*
X165019693Y-97414340D02*
X164686360Y-96938150D01*
X164448264Y-97414340D02*
X164448264Y-96414340D01*
X164829217Y-96414340D01*
X164924455Y-96461960D01*
X164972074Y-96509579D01*
X165019693Y-96604817D01*
X165019693Y-96747674D01*
X164972074Y-96842912D01*
X164924455Y-96890531D01*
X164829217Y-96938150D01*
X164448264Y-96938150D01*
X165495883Y-97414340D02*
X165686360Y-97414340D01*
X165781598Y-97366721D01*
X165829217Y-97319102D01*
X165924455Y-97176245D01*
X165972074Y-96985769D01*
X165972074Y-96604817D01*
X165924455Y-96509579D01*
X165876836Y-96461960D01*
X165781598Y-96414340D01*
X165591121Y-96414340D01*
X165495883Y-96461960D01*
X165448264Y-96509579D01*
X165400645Y-96604817D01*
X165400645Y-96842912D01*
X165448264Y-96938150D01*
X165495883Y-96985769D01*
X165591121Y-97033388D01*
X165781598Y-97033388D01*
X165876836Y-96985769D01*
X165924455Y-96938150D01*
X165972074Y-96842912D01*
X120092173Y-121808500D02*
X119758840Y-121332310D01*
X119520744Y-121808500D02*
X119520744Y-120808500D01*
X119901697Y-120808500D01*
X119996935Y-120856120D01*
X120044554Y-120903739D01*
X120092173Y-120998977D01*
X120092173Y-121141834D01*
X120044554Y-121237072D01*
X119996935Y-121284691D01*
X119901697Y-121332310D01*
X119520744Y-121332310D01*
X120663601Y-121237072D02*
X120568363Y-121189453D01*
X120520744Y-121141834D01*
X120473125Y-121046596D01*
X120473125Y-120998977D01*
X120520744Y-120903739D01*
X120568363Y-120856120D01*
X120663601Y-120808500D01*
X120854078Y-120808500D01*
X120949316Y-120856120D01*
X120996935Y-120903739D01*
X121044554Y-120998977D01*
X121044554Y-121046596D01*
X120996935Y-121141834D01*
X120949316Y-121189453D01*
X120854078Y-121237072D01*
X120663601Y-121237072D01*
X120568363Y-121284691D01*
X120520744Y-121332310D01*
X120473125Y-121427548D01*
X120473125Y-121618024D01*
X120520744Y-121713262D01*
X120568363Y-121760881D01*
X120663601Y-121808500D01*
X120854078Y-121808500D01*
X120949316Y-121760881D01*
X120996935Y-121713262D01*
X121044554Y-121618024D01*
X121044554Y-121427548D01*
X120996935Y-121332310D01*
X120949316Y-121284691D01*
X120854078Y-121237072D01*
X168880493Y-97325440D02*
X168547160Y-96849250D01*
X168309064Y-97325440D02*
X168309064Y-96325440D01*
X168690017Y-96325440D01*
X168785255Y-96373060D01*
X168832874Y-96420679D01*
X168880493Y-96515917D01*
X168880493Y-96658774D01*
X168832874Y-96754012D01*
X168785255Y-96801631D01*
X168690017Y-96849250D01*
X168309064Y-96849250D01*
X169737636Y-96658774D02*
X169737636Y-97325440D01*
X169499540Y-96277821D02*
X169261445Y-96992107D01*
X169880493Y-96992107D01*
X176340473Y-130006600D02*
X176007140Y-129530410D01*
X175769044Y-130006600D02*
X175769044Y-129006600D01*
X176149997Y-129006600D01*
X176245235Y-129054220D01*
X176292854Y-129101839D01*
X176340473Y-129197077D01*
X176340473Y-129339934D01*
X176292854Y-129435172D01*
X176245235Y-129482791D01*
X176149997Y-129530410D01*
X175769044Y-129530410D01*
X176673806Y-129006600D02*
X177292854Y-129006600D01*
X176959520Y-129387553D01*
X177102378Y-129387553D01*
X177197616Y-129435172D01*
X177245235Y-129482791D01*
X177292854Y-129578029D01*
X177292854Y-129816124D01*
X177245235Y-129911362D01*
X177197616Y-129958981D01*
X177102378Y-130006600D01*
X176816663Y-130006600D01*
X176721425Y-129958981D01*
X176673806Y-129911362D01*
X180041253Y-129888240D02*
X179707920Y-129412050D01*
X179469824Y-129888240D02*
X179469824Y-128888240D01*
X179850777Y-128888240D01*
X179946015Y-128935860D01*
X179993634Y-128983479D01*
X180041253Y-129078717D01*
X180041253Y-129221574D01*
X179993634Y-129316812D01*
X179946015Y-129364431D01*
X179850777Y-129412050D01*
X179469824Y-129412050D01*
X180422205Y-128983479D02*
X180469824Y-128935860D01*
X180565062Y-128888240D01*
X180803158Y-128888240D01*
X180898396Y-128935860D01*
X180946015Y-128983479D01*
X180993634Y-129078717D01*
X180993634Y-129173955D01*
X180946015Y-129316812D01*
X180374586Y-129888240D01*
X180993634Y-129888240D01*
X179854361Y-138394019D02*
X179759123Y-138346400D01*
X179663885Y-138251161D01*
X179521028Y-138108304D01*
X179425790Y-138060685D01*
X179330552Y-138060685D01*
X179378171Y-138298780D02*
X179282933Y-138251161D01*
X179187695Y-138155923D01*
X179140076Y-137965447D01*
X179140076Y-137632114D01*
X179187695Y-137441638D01*
X179282933Y-137346400D01*
X179378171Y-137298780D01*
X179568647Y-137298780D01*
X179663885Y-137346400D01*
X179759123Y-137441638D01*
X179806742Y-137632114D01*
X179806742Y-137965447D01*
X179759123Y-138155923D01*
X179663885Y-138251161D01*
X179568647Y-138298780D01*
X179378171Y-138298780D01*
X180759123Y-138298780D02*
X180187695Y-138298780D01*
X180473409Y-138298780D02*
X180473409Y-137298780D01*
X180378171Y-137441638D01*
X180282933Y-137536876D01*
X180187695Y-137584495D01*
X124001233Y-102382580D02*
X123525042Y-102382580D01*
X123525042Y-101382580D01*
X124858376Y-102382580D02*
X124286947Y-102382580D01*
X124572661Y-102382580D02*
X124572661Y-101382580D01*
X124477423Y-101525438D01*
X124382185Y-101620676D01*
X124286947Y-101668295D01*
X148913666Y-128976380D02*
X148913666Y-129690666D01*
X148866047Y-129833523D01*
X148770809Y-129928761D01*
X148627952Y-129976380D01*
X148532714Y-129976380D01*
X149818428Y-128976380D02*
X149627952Y-128976380D01*
X149532714Y-129024000D01*
X149485095Y-129071619D01*
X149389857Y-129214476D01*
X149342238Y-129404952D01*
X149342238Y-129785904D01*
X149389857Y-129881142D01*
X149437476Y-129928761D01*
X149532714Y-129976380D01*
X149723190Y-129976380D01*
X149818428Y-129928761D01*
X149866047Y-129881142D01*
X149913666Y-129785904D01*
X149913666Y-129547809D01*
X149866047Y-129452571D01*
X149818428Y-129404952D01*
X149723190Y-129357333D01*
X149532714Y-129357333D01*
X149437476Y-129404952D01*
X149389857Y-129452571D01*
X149342238Y-129547809D01*
X135251866Y-128941580D02*
X135251866Y-129655866D01*
X135204247Y-129798723D01*
X135109009Y-129893961D01*
X134966152Y-129941580D01*
X134870914Y-129941580D01*
X136204247Y-128941580D02*
X135728057Y-128941580D01*
X135680438Y-129417771D01*
X135728057Y-129370152D01*
X135823295Y-129322533D01*
X136061390Y-129322533D01*
X136156628Y-129370152D01*
X136204247Y-129417771D01*
X136251866Y-129513009D01*
X136251866Y-129751104D01*
X136204247Y-129846342D01*
X136156628Y-129893961D01*
X136061390Y-129941580D01*
X135823295Y-129941580D01*
X135728057Y-129893961D01*
X135680438Y-129846342D01*
X135104546Y-111646720D02*
X135104546Y-112361006D01*
X135056927Y-112503863D01*
X134961689Y-112599101D01*
X134818832Y-112646720D01*
X134723594Y-112646720D01*
X135485499Y-111646720D02*
X136104546Y-111646720D01*
X135771213Y-112027673D01*
X135914070Y-112027673D01*
X136009308Y-112075292D01*
X136056927Y-112122911D01*
X136104546Y-112218149D01*
X136104546Y-112456244D01*
X136056927Y-112551482D01*
X136009308Y-112599101D01*
X135914070Y-112646720D01*
X135628356Y-112646720D01*
X135533118Y-112599101D01*
X135485499Y-112551482D01*
X150796666Y-105700580D02*
X150796666Y-106414866D01*
X150749047Y-106557723D01*
X150653809Y-106652961D01*
X150510952Y-106700580D01*
X150415714Y-106700580D01*
X151225238Y-105795819D02*
X151272857Y-105748200D01*
X151368095Y-105700580D01*
X151606190Y-105700580D01*
X151701428Y-105748200D01*
X151749047Y-105795819D01*
X151796666Y-105891057D01*
X151796666Y-105986295D01*
X151749047Y-106129152D01*
X151177619Y-106700580D01*
X151796666Y-106700580D01*
X140139046Y-92379491D02*
X139805713Y-92379491D01*
X139805713Y-92903300D02*
X139805713Y-91903300D01*
X140281903Y-91903300D01*
X141139046Y-91903300D02*
X140662856Y-91903300D01*
X140615237Y-92379491D01*
X140662856Y-92331872D01*
X140758094Y-92284253D01*
X140996189Y-92284253D01*
X141091427Y-92331872D01*
X141139046Y-92379491D01*
X141186665Y-92474729D01*
X141186665Y-92712824D01*
X141139046Y-92808062D01*
X141091427Y-92855681D01*
X140996189Y-92903300D01*
X140758094Y-92903300D01*
X140662856Y-92855681D01*
X140615237Y-92808062D01*
X122336186Y-135701731D02*
X122002853Y-135701731D01*
X122002853Y-136225540D02*
X122002853Y-135225540D01*
X122479043Y-135225540D01*
X123288567Y-135558874D02*
X123288567Y-136225540D01*
X123050472Y-135177921D02*
X122812377Y-135892207D01*
X123431424Y-135892207D01*
X173425004Y-101074480D02*
X173425004Y-100074480D01*
X173663100Y-100074480D01*
X173805957Y-100122100D01*
X173901195Y-100217338D01*
X173948814Y-100312576D01*
X173996433Y-100503052D01*
X173996433Y-100645909D01*
X173948814Y-100836385D01*
X173901195Y-100931623D01*
X173805957Y-101026861D01*
X173663100Y-101074480D01*
X173425004Y-101074480D01*
X174758338Y-100550671D02*
X174901195Y-100598290D01*
X174948814Y-100645909D01*
X174996433Y-100741147D01*
X174996433Y-100884004D01*
X174948814Y-100979242D01*
X174901195Y-101026861D01*
X174805957Y-101074480D01*
X174425004Y-101074480D01*
X174425004Y-100074480D01*
X174758338Y-100074480D01*
X174853576Y-100122100D01*
X174901195Y-100169719D01*
X174948814Y-100264957D01*
X174948814Y-100360195D01*
X174901195Y-100455433D01*
X174853576Y-100503052D01*
X174758338Y-100550671D01*
X174425004Y-100550671D01*
X175948814Y-101074480D02*
X175377385Y-101074480D01*
X175663100Y-101074480D02*
X175663100Y-100074480D01*
X175567861Y-100217338D01*
X175472623Y-100312576D01*
X175377385Y-100360195D01*
X166063776Y-101201480D02*
X166063776Y-100201480D01*
X166301871Y-100201480D01*
X166444728Y-100249100D01*
X166539966Y-100344338D01*
X166587585Y-100439576D01*
X166635204Y-100630052D01*
X166635204Y-100772909D01*
X166587585Y-100963385D01*
X166539966Y-101058623D01*
X166444728Y-101153861D01*
X166301871Y-101201480D01*
X166063776Y-101201480D01*
X166968538Y-100201480D02*
X167206633Y-101201480D01*
X167397109Y-100487195D01*
X167587585Y-101201480D01*
X167825680Y-100201480D01*
X168730442Y-101201480D02*
X168159014Y-101201480D01*
X168444728Y-101201480D02*
X168444728Y-100201480D01*
X168349490Y-100344338D01*
X168254252Y-100439576D01*
X168159014Y-100487195D01*
X169691204Y-101049080D02*
X169691204Y-100049080D01*
X169929300Y-100049080D01*
X170072157Y-100096700D01*
X170167395Y-100191938D01*
X170215014Y-100287176D01*
X170262633Y-100477652D01*
X170262633Y-100620509D01*
X170215014Y-100810985D01*
X170167395Y-100906223D01*
X170072157Y-101001461D01*
X169929300Y-101049080D01*
X169691204Y-101049080D01*
X171262633Y-101049080D02*
X170929300Y-100572890D01*
X170691204Y-101049080D02*
X170691204Y-100049080D01*
X171072157Y-100049080D01*
X171167395Y-100096700D01*
X171215014Y-100144319D01*
X171262633Y-100239557D01*
X171262633Y-100382414D01*
X171215014Y-100477652D01*
X171167395Y-100525271D01*
X171072157Y-100572890D01*
X170691204Y-100572890D01*
X172215014Y-101049080D02*
X171643585Y-101049080D01*
X171929300Y-101049080D02*
X171929300Y-100049080D01*
X171834061Y-100191938D01*
X171738823Y-100287176D01*
X171643585Y-100334795D01*
X126198404Y-112771180D02*
X126198404Y-111771180D01*
X126436500Y-111771180D01*
X126579357Y-111818800D01*
X126674595Y-111914038D01*
X126722214Y-112009276D01*
X126769833Y-112199752D01*
X126769833Y-112342609D01*
X126722214Y-112533085D01*
X126674595Y-112628323D01*
X126579357Y-112723561D01*
X126436500Y-112771180D01*
X126198404Y-112771180D01*
X127722214Y-112771180D02*
X127150785Y-112771180D01*
X127436500Y-112771180D02*
X127436500Y-111771180D01*
X127341261Y-111914038D01*
X127246023Y-112009276D01*
X127150785Y-112056895D01*
X171040822Y-87914662D02*
X170993203Y-87962281D01*
X170850346Y-88009900D01*
X170755108Y-88009900D01*
X170612251Y-87962281D01*
X170517013Y-87867043D01*
X170469394Y-87771805D01*
X170421775Y-87581329D01*
X170421775Y-87438472D01*
X170469394Y-87247996D01*
X170517013Y-87152758D01*
X170612251Y-87057520D01*
X170755108Y-87009900D01*
X170850346Y-87009900D01*
X170993203Y-87057520D01*
X171040822Y-87105139D01*
X171421775Y-87105139D02*
X171469394Y-87057520D01*
X171564632Y-87009900D01*
X171802727Y-87009900D01*
X171897965Y-87057520D01*
X171945584Y-87105139D01*
X171993203Y-87200377D01*
X171993203Y-87295615D01*
X171945584Y-87438472D01*
X171374156Y-88009900D01*
X171993203Y-88009900D01*
X172564632Y-87438472D02*
X172469394Y-87390853D01*
X172421775Y-87343234D01*
X172374156Y-87247996D01*
X172374156Y-87200377D01*
X172421775Y-87105139D01*
X172469394Y-87057520D01*
X172564632Y-87009900D01*
X172755108Y-87009900D01*
X172850346Y-87057520D01*
X172897965Y-87105139D01*
X172945584Y-87200377D01*
X172945584Y-87247996D01*
X172897965Y-87343234D01*
X172850346Y-87390853D01*
X172755108Y-87438472D01*
X172564632Y-87438472D01*
X172469394Y-87486091D01*
X172421775Y-87533710D01*
X172374156Y-87628948D01*
X172374156Y-87819424D01*
X172421775Y-87914662D01*
X172469394Y-87962281D01*
X172564632Y-88009900D01*
X172755108Y-88009900D01*
X172850346Y-87962281D01*
X172897965Y-87914662D01*
X172945584Y-87819424D01*
X172945584Y-87628948D01*
X172897965Y-87533710D01*
X172850346Y-87486091D01*
X172755108Y-87438472D01*
X162897582Y-85089002D02*
X162849963Y-85136621D01*
X162707106Y-85184240D01*
X162611868Y-85184240D01*
X162469011Y-85136621D01*
X162373773Y-85041383D01*
X162326154Y-84946145D01*
X162278535Y-84755669D01*
X162278535Y-84612812D01*
X162326154Y-84422336D01*
X162373773Y-84327098D01*
X162469011Y-84231860D01*
X162611868Y-84184240D01*
X162707106Y-84184240D01*
X162849963Y-84231860D01*
X162897582Y-84279479D01*
X163278535Y-84279479D02*
X163326154Y-84231860D01*
X163421392Y-84184240D01*
X163659487Y-84184240D01*
X163754725Y-84231860D01*
X163802344Y-84279479D01*
X163849963Y-84374717D01*
X163849963Y-84469955D01*
X163802344Y-84612812D01*
X163230916Y-85184240D01*
X163849963Y-85184240D01*
X164183297Y-84184240D02*
X164849963Y-84184240D01*
X164421392Y-85184240D01*
X111729282Y-109617782D02*
X111681663Y-109665401D01*
X111538806Y-109713020D01*
X111443568Y-109713020D01*
X111300711Y-109665401D01*
X111205473Y-109570163D01*
X111157854Y-109474925D01*
X111110235Y-109284449D01*
X111110235Y-109141592D01*
X111157854Y-108951116D01*
X111205473Y-108855878D01*
X111300711Y-108760640D01*
X111443568Y-108713020D01*
X111538806Y-108713020D01*
X111681663Y-108760640D01*
X111729282Y-108808259D01*
X112110235Y-108808259D02*
X112157854Y-108760640D01*
X112253092Y-108713020D01*
X112491187Y-108713020D01*
X112586425Y-108760640D01*
X112634044Y-108808259D01*
X112681663Y-108903497D01*
X112681663Y-108998735D01*
X112634044Y-109141592D01*
X112062616Y-109713020D01*
X112681663Y-109713020D01*
X113538806Y-109046354D02*
X113538806Y-109713020D01*
X113300711Y-108665401D02*
X113062616Y-109379687D01*
X113681663Y-109379687D01*
X116423202Y-103435422D02*
X116375583Y-103483041D01*
X116232726Y-103530660D01*
X116137488Y-103530660D01*
X115994631Y-103483041D01*
X115899393Y-103387803D01*
X115851774Y-103292565D01*
X115804155Y-103102089D01*
X115804155Y-102959232D01*
X115851774Y-102768756D01*
X115899393Y-102673518D01*
X115994631Y-102578280D01*
X116137488Y-102530660D01*
X116232726Y-102530660D01*
X116375583Y-102578280D01*
X116423202Y-102625899D01*
X116804155Y-102625899D02*
X116851774Y-102578280D01*
X116947012Y-102530660D01*
X117185107Y-102530660D01*
X117280345Y-102578280D01*
X117327964Y-102625899D01*
X117375583Y-102721137D01*
X117375583Y-102816375D01*
X117327964Y-102959232D01*
X116756536Y-103530660D01*
X117375583Y-103530660D01*
X117708917Y-102530660D02*
X118327964Y-102530660D01*
X117994631Y-102911613D01*
X118137488Y-102911613D01*
X118232726Y-102959232D01*
X118280345Y-103006851D01*
X118327964Y-103102089D01*
X118327964Y-103340184D01*
X118280345Y-103435422D01*
X118232726Y-103483041D01*
X118137488Y-103530660D01*
X117851774Y-103530660D01*
X117756536Y-103483041D01*
X117708917Y-103435422D01*
X112917142Y-146198862D02*
X112869523Y-146246481D01*
X112726666Y-146294100D01*
X112631428Y-146294100D01*
X112488571Y-146246481D01*
X112393333Y-146151243D01*
X112345714Y-146056005D01*
X112298095Y-145865529D01*
X112298095Y-145722672D01*
X112345714Y-145532196D01*
X112393333Y-145436958D01*
X112488571Y-145341720D01*
X112631428Y-145294100D01*
X112726666Y-145294100D01*
X112869523Y-145341720D01*
X112917142Y-145389339D01*
X113298095Y-145389339D02*
X113345714Y-145341720D01*
X113440952Y-145294100D01*
X113679047Y-145294100D01*
X113774285Y-145341720D01*
X113821904Y-145389339D01*
X113869523Y-145484577D01*
X113869523Y-145579815D01*
X113821904Y-145722672D01*
X113250476Y-146294100D01*
X113869523Y-146294100D01*
X114821904Y-146294100D02*
X114250476Y-146294100D01*
X114536190Y-146294100D02*
X114536190Y-145294100D01*
X114440952Y-145436958D01*
X114345714Y-145532196D01*
X114250476Y-145579815D01*
X162120342Y-132259342D02*
X162072723Y-132306961D01*
X161929866Y-132354580D01*
X161834628Y-132354580D01*
X161691771Y-132306961D01*
X161596533Y-132211723D01*
X161548914Y-132116485D01*
X161501295Y-131926009D01*
X161501295Y-131783152D01*
X161548914Y-131592676D01*
X161596533Y-131497438D01*
X161691771Y-131402200D01*
X161834628Y-131354580D01*
X161929866Y-131354580D01*
X162072723Y-131402200D01*
X162120342Y-131449819D01*
X162501295Y-131449819D02*
X162548914Y-131402200D01*
X162644152Y-131354580D01*
X162882247Y-131354580D01*
X162977485Y-131402200D01*
X163025104Y-131449819D01*
X163072723Y-131545057D01*
X163072723Y-131640295D01*
X163025104Y-131783152D01*
X162453676Y-132354580D01*
X163072723Y-132354580D01*
X163691771Y-131354580D02*
X163787009Y-131354580D01*
X163882247Y-131402200D01*
X163929866Y-131449819D01*
X163977485Y-131545057D01*
X164025104Y-131735533D01*
X164025104Y-131973628D01*
X163977485Y-132164104D01*
X163929866Y-132259342D01*
X163882247Y-132306961D01*
X163787009Y-132354580D01*
X163691771Y-132354580D01*
X163596533Y-132306961D01*
X163548914Y-132259342D01*
X163501295Y-132164104D01*
X163453676Y-131973628D01*
X163453676Y-131735533D01*
X163501295Y-131545057D01*
X163548914Y-131449819D01*
X163596533Y-131402200D01*
X163691771Y-131354580D01*
X130819922Y-92954202D02*
X130772303Y-93001821D01*
X130629446Y-93049440D01*
X130534208Y-93049440D01*
X130391351Y-93001821D01*
X130296113Y-92906583D01*
X130248494Y-92811345D01*
X130200875Y-92620869D01*
X130200875Y-92478012D01*
X130248494Y-92287536D01*
X130296113Y-92192298D01*
X130391351Y-92097060D01*
X130534208Y-92049440D01*
X130629446Y-92049440D01*
X130772303Y-92097060D01*
X130819922Y-92144679D01*
X131772303Y-93049440D02*
X131200875Y-93049440D01*
X131486589Y-93049440D02*
X131486589Y-92049440D01*
X131391351Y-92192298D01*
X131296113Y-92287536D01*
X131200875Y-92335155D01*
X132105637Y-92049440D02*
X132772303Y-92049440D01*
X132343732Y-93049440D01*
M02*
