M48
; DRILL file {KiCad (5.1.6)-1} date 11/02/21 10:07:16
; FORMAT={-:-/ absolute / inch / decimal}
; #@! TF.CreationDate,2021-11-02T10:07:16-04:00
; #@! TF.GenerationSoftware,Kicad,Pcbnew,(5.1.6)-1
; #@! TF.FileFunction,Plated,1,4,PTH
FMAT,2
INCH
T1C0.0150
T2C0.0157
T3C0.0268
T4C0.0295
T5C0.0315
T6C0.0394
T7C0.1378
%
G90
G05
T1
X4.3236Y-4.2894
X4.35Y-3.816
X4.3552Y-5.4513
X4.3798Y-4.2894
X4.41Y-5.5812
X4.4528Y-4.3398
X4.4528Y-4.386
X4.4832Y-5.4258
X4.5203Y-4.7654
X4.724Y-4.7683
X4.7889Y-5.4242
X4.822Y-4.5265
X4.8422Y-3.058
X4.8888Y-3.0585
X4.978Y-3.864
X4.979Y-4.132
X4.98Y-4.172
X5.0005Y-4.6608
X5.0005Y-4.7008
X5.0007Y-4.7442
X5.1047Y-3.7129
X5.12Y-3.18
X5.152Y-3.598
X5.222Y-3.866
X5.223Y-3.639
X5.249Y-3.435
X5.271Y-2.751
X5.449Y-2.714
X5.498Y-2.781
X5.5584Y-5.2511
X5.6853Y-2.8169
X5.7494Y-2.9519
X5.75Y-3.4616
X5.7502Y-2.909
X5.7865Y-2.9517
X5.7865Y-2.9978
X5.8224Y-5.239
X5.9477Y-5.3201
X5.9557Y-3.7135
X6.0109Y-3.3634
X6.0389Y-4.2794
X6.0459Y-3.3634
X6.0529Y-4.5674
X6.0898Y-3.3645
X6.2049Y-3.9314
X6.2069Y-3.7874
X6.2289Y-4.3714
X6.2589Y-3.7914
X6.2619Y-4.6154
X6.2629Y-4.8574
X6.2629Y-4.8994
X6.2629Y-4.9394
X6.2629Y-4.9814
X6.2649Y-3.3674
X6.3109Y-3.3664
X6.3489Y-3.9974
X6.3569Y-3.3654
X6.4287Y-3.719
X6.4508Y-5.5658
X6.4989Y-4.1412
X6.5009Y-4.3614
X6.548Y-3.167
X6.5609Y-3.7554
X6.5948Y-3.0487
X6.5954Y-2.8281
X6.6296Y-3.255
X6.6489Y-4.3614
X6.6692Y-2.8974
X6.7147Y-3.6003
X6.7489Y-4.8404
X6.7489Y-4.8824
X6.7489Y-4.9224
X6.7489Y-4.9644
X6.7589Y-3.9654
X6.7596Y-2.8974
X6.7628Y-5.2176
X6.7989Y-4.9134
X6.8512Y-4.3011
X6.8829Y-3.6566
X6.8849Y-4.5214
X6.8925Y-5.2708
X6.9369Y-4.5454
X6.9489Y-3.0499
X6.9589Y-3.9634
X6.9709Y-4.2894
X7.0109Y-4.2894
X7.1316Y-4.8801
T2
X4.434Y-3.248
X4.434Y-3.358
X4.434Y-3.478
X4.434Y-3.598
X4.4699Y-5.5195
X4.48Y-2.846
X4.48Y-2.891
X4.48Y-2.936
X4.48Y-2.981
X4.48Y-3.026
X4.48Y-3.071
X4.5189Y-3.4176
X4.5189Y-3.536
X4.5189Y-3.6503
X4.5198Y-3.3029
X4.5223Y-4.1412
X4.54Y-2.846
X4.54Y-2.891
X4.54Y-2.936
X4.54Y-2.981
X4.54Y-3.026
X4.54Y-3.071
X4.603Y-2.845
X4.603Y-2.89
X4.603Y-2.935
X4.603Y-2.98
X4.603Y-3.025
X4.603Y-3.07
X4.614Y-3.248
X4.614Y-3.358
X4.614Y-3.478
X4.614Y-3.598
X4.6287Y-4.413
X4.6299Y-4.3502
X4.664Y-2.845
X4.664Y-2.89
X4.664Y-3.025
X4.664Y-3.07
X4.7123Y-3.4173
X4.7128Y-3.536
X4.7133Y-3.3029
X4.7133Y-3.6492
X4.715Y-4.1639
X4.723Y-2.844
X4.723Y-3.069
X4.782Y-2.844
X4.782Y-3.069
X4.7841Y-4.4122
X4.7845Y-4.3532
X4.7929Y-2.931
X4.7929Y-2.9824
X4.794Y-3.248
X4.794Y-3.358
X4.794Y-3.478
X4.794Y-3.598
X4.8219Y-4.3532
X4.8233Y-4.4122
X4.858Y-4.3524
X4.858Y-4.4124
X4.9793Y-4.088
X5.118Y-3.448
X5.4462Y-3.7513
X5.5794Y-3.428
X5.6236Y-5.2509
X5.638Y-3.314
X5.748Y-2.9978
X5.75Y-3.3244
X5.8237Y-5.6351
X5.9576Y-5.5456
X5.9576Y-5.5918
X5.959Y-5.47
X5.962Y-5.421
X6.045Y-5.135
X6.1249Y-4.1634
X6.1369Y-4.2994
X6.225Y-5.86
X6.239Y-5.09
X6.2399Y-2.8064
X6.2902Y-2.8058
X6.34Y-2.8055
X6.3736Y-5.1602
X6.378Y-5.233
X6.39Y-2.8052
X6.394Y-3.864
X6.405Y-5.859
X6.4794Y-5.227
X6.5589Y-4.6474
X6.6469Y-3.7594
X6.6709Y-4.6394
X6.6982Y-4.5194
X6.7472Y-4.5186
X6.7617Y-5.7383
X6.7628Y-5.5998
X6.7689Y-3.8574
X6.8209Y-3.656
X6.9417Y-4.1555
X6.9451Y-4.7612
X6.9789Y-3.5014
X6.987Y-3.33
X7.062Y-3.326
X7.118Y-4.736
X7.1858Y-5.431
T3
X5.4166Y-4.7398
X5.4166Y-4.8185
X5.4166Y-4.8973
X5.4954Y-4.7398
X5.4954Y-4.8185
X5.4954Y-4.8973
X5.7216Y-4.7378
X5.7216Y-4.8165
X5.7216Y-4.8953
X5.8004Y-4.7378
X5.8004Y-4.8165
X5.8004Y-4.8953
X5.5013Y-4.0586
X5.5013Y-4.1374
X5.58Y-4.0586
X5.58Y-4.1374
X5.6587Y-4.0586
X5.6587Y-4.1374
T4
X4.3569Y-4.7461
X4.3569Y-4.8248
X4.3552Y-5.0607
X4.3552Y-5.1394
X4.3505Y-4.4058
X4.3505Y-4.4845
X4.3552Y-5.3726
X4.3552Y-5.4513
T5
X4.1203Y-3.7255
X4.1203Y-3.8043
X4.1203Y-3.883
X4.199Y-3.7255
X4.199Y-3.8043
X4.199Y-3.883
X6.0979Y-3.518
X6.29Y-3.518
X7.0659Y-4.3294
X7.0659Y-4.4081
X7.0659Y-4.4869
X7.1446Y-4.3294
X7.1446Y-4.4081
X7.1446Y-4.4869
X6.4059Y-4.784
X6.598Y-4.784
T6
X5.401Y-4.351
X5.501Y-4.351
X5.601Y-4.351
X5.701Y-4.351
X5.801Y-4.351
T7
X4.1675Y-5.7409
X6.0809Y-4.9094
X7.0809Y-2.8275
X5.0982Y-5.2417
X4.1675Y-3.3267
X7.0809Y-5.7409
X4.1675Y-2.8275
X7.0809Y-3.6594
T0
M30
