G04 #@! TF.GenerationSoftware,KiCad,Pcbnew,(5.1.9)-1*
G04 #@! TF.CreationDate,2021-07-04T21:49:17-04:00*
G04 #@! TF.ProjectId,payload2020_base_board,7061796c-6f61-4643-9230-32305f626173,rev?*
G04 #@! TF.SameCoordinates,Original*
G04 #@! TF.FileFunction,Soldermask,Bot*
G04 #@! TF.FilePolarity,Negative*
%FSLAX46Y46*%
G04 Gerber Fmt 4.6, Leading zero omitted, Abs format (unit mm)*
G04 Created by KiCad (PCBNEW (5.1.9)-1) date 2021-07-04 21:49:17*
%MOMM*%
%LPD*%
G01*
G04 APERTURE LIST*
%ADD10C,7.102000*%
%ADD11O,1.802000X1.802000*%
%ADD12C,1.602000*%
%ADD13O,1.852000X1.302000*%
%ADD14C,2.302000*%
%ADD15C,1.302000*%
G04 APERTURE END LIST*
G36*
G01*
X71945240Y-132410508D02*
X71945240Y-133370012D01*
G75*
G02*
X71673992Y-133641260I-271248J0D01*
G01*
X70914488Y-133641260D01*
G75*
G02*
X70643240Y-133370012I0J271248D01*
G01*
X70643240Y-132410508D01*
G75*
G02*
X70914488Y-132139260I271248J0D01*
G01*
X71673992Y-132139260D01*
G75*
G02*
X71945240Y-132410508I0J-271248D01*
G01*
G37*
G36*
G01*
X73945240Y-132410508D02*
X73945240Y-133370012D01*
G75*
G02*
X73673992Y-133641260I-271248J0D01*
G01*
X72914488Y-133641260D01*
G75*
G02*
X72643240Y-133370012I0J271248D01*
G01*
X72643240Y-132410508D01*
G75*
G02*
X72914488Y-132139260I271248J0D01*
G01*
X73673992Y-132139260D01*
G75*
G02*
X73945240Y-132410508I0J-271248D01*
G01*
G37*
G36*
G01*
X83692692Y-133289800D02*
X82733188Y-133289800D01*
G75*
G02*
X82461940Y-133018552I0J271248D01*
G01*
X82461940Y-132259048D01*
G75*
G02*
X82733188Y-131987800I271248J0D01*
G01*
X83692692Y-131987800D01*
G75*
G02*
X83963940Y-132259048I0J-271248D01*
G01*
X83963940Y-133018552D01*
G75*
G02*
X83692692Y-133289800I-271248J0D01*
G01*
G37*
G36*
G01*
X83692692Y-135289800D02*
X82733188Y-135289800D01*
G75*
G02*
X82461940Y-135018552I0J271248D01*
G01*
X82461940Y-134259048D01*
G75*
G02*
X82733188Y-133987800I271248J0D01*
G01*
X83692692Y-133987800D01*
G75*
G02*
X83963940Y-134259048I0J-271248D01*
G01*
X83963940Y-135018552D01*
G75*
G02*
X83692692Y-135289800I-271248J0D01*
G01*
G37*
D10*
X113560000Y-145310000D03*
X113560000Y-71310000D03*
X113560000Y-92440000D03*
X39560000Y-71310000D03*
X63200000Y-132630000D03*
G36*
G01*
X83002380Y-141312592D02*
X83002380Y-140353088D01*
G75*
G02*
X83273628Y-140081840I271248J0D01*
G01*
X84033132Y-140081840D01*
G75*
G02*
X84304380Y-140353088I0J-271248D01*
G01*
X84304380Y-141312592D01*
G75*
G02*
X84033132Y-141583840I-271248J0D01*
G01*
X83273628Y-141583840D01*
G75*
G02*
X83002380Y-141312592I0J271248D01*
G01*
G37*
G36*
G01*
X81002380Y-141312592D02*
X81002380Y-140353088D01*
G75*
G02*
X81273628Y-140081840I271248J0D01*
G01*
X82033132Y-140081840D01*
G75*
G02*
X82304380Y-140353088I0J-271248D01*
G01*
X82304380Y-141312592D01*
G75*
G02*
X82033132Y-141583840I-271248J0D01*
G01*
X81273628Y-141583840D01*
G75*
G02*
X81002380Y-141312592I0J271248D01*
G01*
G37*
G36*
G01*
X107820700Y-103834300D02*
X107469700Y-103834300D01*
G75*
G02*
X107294200Y-103658800I0J175500D01*
G01*
X107294200Y-102107800D01*
G75*
G02*
X107469700Y-101932300I175500J0D01*
G01*
X107820700Y-101932300D01*
G75*
G02*
X107996200Y-102107800I0J-175500D01*
G01*
X107996200Y-103658800D01*
G75*
G02*
X107820700Y-103834300I-175500J0D01*
G01*
G37*
G36*
G01*
X106550700Y-103834300D02*
X106199700Y-103834300D01*
G75*
G02*
X106024200Y-103658800I0J175500D01*
G01*
X106024200Y-102107800D01*
G75*
G02*
X106199700Y-101932300I175500J0D01*
G01*
X106550700Y-101932300D01*
G75*
G02*
X106726200Y-102107800I0J-175500D01*
G01*
X106726200Y-103658800D01*
G75*
G02*
X106550700Y-103834300I-175500J0D01*
G01*
G37*
G36*
G01*
X105280700Y-103834300D02*
X104929700Y-103834300D01*
G75*
G02*
X104754200Y-103658800I0J175500D01*
G01*
X104754200Y-102107800D01*
G75*
G02*
X104929700Y-101932300I175500J0D01*
G01*
X105280700Y-101932300D01*
G75*
G02*
X105456200Y-102107800I0J-175500D01*
G01*
X105456200Y-103658800D01*
G75*
G02*
X105280700Y-103834300I-175500J0D01*
G01*
G37*
G36*
G01*
X104010700Y-103834300D02*
X103659700Y-103834300D01*
G75*
G02*
X103484200Y-103658800I0J175500D01*
G01*
X103484200Y-102107800D01*
G75*
G02*
X103659700Y-101932300I175500J0D01*
G01*
X104010700Y-101932300D01*
G75*
G02*
X104186200Y-102107800I0J-175500D01*
G01*
X104186200Y-103658800D01*
G75*
G02*
X104010700Y-103834300I-175500J0D01*
G01*
G37*
G36*
G01*
X102740700Y-103834300D02*
X102389700Y-103834300D01*
G75*
G02*
X102214200Y-103658800I0J175500D01*
G01*
X102214200Y-102107800D01*
G75*
G02*
X102389700Y-101932300I175500J0D01*
G01*
X102740700Y-101932300D01*
G75*
G02*
X102916200Y-102107800I0J-175500D01*
G01*
X102916200Y-103658800D01*
G75*
G02*
X102740700Y-103834300I-175500J0D01*
G01*
G37*
G36*
G01*
X101470700Y-103834300D02*
X101119700Y-103834300D01*
G75*
G02*
X100944200Y-103658800I0J175500D01*
G01*
X100944200Y-102107800D01*
G75*
G02*
X101119700Y-101932300I175500J0D01*
G01*
X101470700Y-101932300D01*
G75*
G02*
X101646200Y-102107800I0J-175500D01*
G01*
X101646200Y-103658800D01*
G75*
G02*
X101470700Y-103834300I-175500J0D01*
G01*
G37*
G36*
G01*
X100200700Y-103834300D02*
X99849700Y-103834300D01*
G75*
G02*
X99674200Y-103658800I0J175500D01*
G01*
X99674200Y-102107800D01*
G75*
G02*
X99849700Y-101932300I175500J0D01*
G01*
X100200700Y-101932300D01*
G75*
G02*
X100376200Y-102107800I0J-175500D01*
G01*
X100376200Y-103658800D01*
G75*
G02*
X100200700Y-103834300I-175500J0D01*
G01*
G37*
G36*
G01*
X98930700Y-103834300D02*
X98579700Y-103834300D01*
G75*
G02*
X98404200Y-103658800I0J175500D01*
G01*
X98404200Y-102107800D01*
G75*
G02*
X98579700Y-101932300I175500J0D01*
G01*
X98930700Y-101932300D01*
G75*
G02*
X99106200Y-102107800I0J-175500D01*
G01*
X99106200Y-103658800D01*
G75*
G02*
X98930700Y-103834300I-175500J0D01*
G01*
G37*
G36*
G01*
X97660700Y-103834300D02*
X97309700Y-103834300D01*
G75*
G02*
X97134200Y-103658800I0J175500D01*
G01*
X97134200Y-102107800D01*
G75*
G02*
X97309700Y-101932300I175500J0D01*
G01*
X97660700Y-101932300D01*
G75*
G02*
X97836200Y-102107800I0J-175500D01*
G01*
X97836200Y-103658800D01*
G75*
G02*
X97660700Y-103834300I-175500J0D01*
G01*
G37*
G36*
G01*
X96390700Y-103834300D02*
X96039700Y-103834300D01*
G75*
G02*
X95864200Y-103658800I0J175500D01*
G01*
X95864200Y-102107800D01*
G75*
G02*
X96039700Y-101932300I175500J0D01*
G01*
X96390700Y-101932300D01*
G75*
G02*
X96566200Y-102107800I0J-175500D01*
G01*
X96566200Y-103658800D01*
G75*
G02*
X96390700Y-103834300I-175500J0D01*
G01*
G37*
G36*
G01*
X95120700Y-103834300D02*
X94769700Y-103834300D01*
G75*
G02*
X94594200Y-103658800I0J175500D01*
G01*
X94594200Y-102107800D01*
G75*
G02*
X94769700Y-101932300I175500J0D01*
G01*
X95120700Y-101932300D01*
G75*
G02*
X95296200Y-102107800I0J-175500D01*
G01*
X95296200Y-103658800D01*
G75*
G02*
X95120700Y-103834300I-175500J0D01*
G01*
G37*
G36*
G01*
X93850700Y-103834300D02*
X93499700Y-103834300D01*
G75*
G02*
X93324200Y-103658800I0J175500D01*
G01*
X93324200Y-102107800D01*
G75*
G02*
X93499700Y-101932300I175500J0D01*
G01*
X93850700Y-101932300D01*
G75*
G02*
X94026200Y-102107800I0J-175500D01*
G01*
X94026200Y-103658800D01*
G75*
G02*
X93850700Y-103834300I-175500J0D01*
G01*
G37*
G36*
G01*
X92580700Y-103834300D02*
X92229700Y-103834300D01*
G75*
G02*
X92054200Y-103658800I0J175500D01*
G01*
X92054200Y-102107800D01*
G75*
G02*
X92229700Y-101932300I175500J0D01*
G01*
X92580700Y-101932300D01*
G75*
G02*
X92756200Y-102107800I0J-175500D01*
G01*
X92756200Y-103658800D01*
G75*
G02*
X92580700Y-103834300I-175500J0D01*
G01*
G37*
G36*
G01*
X91310700Y-103834300D02*
X90959700Y-103834300D01*
G75*
G02*
X90784200Y-103658800I0J175500D01*
G01*
X90784200Y-102107800D01*
G75*
G02*
X90959700Y-101932300I175500J0D01*
G01*
X91310700Y-101932300D01*
G75*
G02*
X91486200Y-102107800I0J-175500D01*
G01*
X91486200Y-103658800D01*
G75*
G02*
X91310700Y-103834300I-175500J0D01*
G01*
G37*
G36*
G01*
X91310700Y-113434300D02*
X90959700Y-113434300D01*
G75*
G02*
X90784200Y-113258800I0J175500D01*
G01*
X90784200Y-111707800D01*
G75*
G02*
X90959700Y-111532300I175500J0D01*
G01*
X91310700Y-111532300D01*
G75*
G02*
X91486200Y-111707800I0J-175500D01*
G01*
X91486200Y-113258800D01*
G75*
G02*
X91310700Y-113434300I-175500J0D01*
G01*
G37*
G36*
G01*
X92580700Y-113434300D02*
X92229700Y-113434300D01*
G75*
G02*
X92054200Y-113258800I0J175500D01*
G01*
X92054200Y-111707800D01*
G75*
G02*
X92229700Y-111532300I175500J0D01*
G01*
X92580700Y-111532300D01*
G75*
G02*
X92756200Y-111707800I0J-175500D01*
G01*
X92756200Y-113258800D01*
G75*
G02*
X92580700Y-113434300I-175500J0D01*
G01*
G37*
G36*
G01*
X93850700Y-113434300D02*
X93499700Y-113434300D01*
G75*
G02*
X93324200Y-113258800I0J175500D01*
G01*
X93324200Y-111707800D01*
G75*
G02*
X93499700Y-111532300I175500J0D01*
G01*
X93850700Y-111532300D01*
G75*
G02*
X94026200Y-111707800I0J-175500D01*
G01*
X94026200Y-113258800D01*
G75*
G02*
X93850700Y-113434300I-175500J0D01*
G01*
G37*
G36*
G01*
X95120700Y-113434300D02*
X94769700Y-113434300D01*
G75*
G02*
X94594200Y-113258800I0J175500D01*
G01*
X94594200Y-111707800D01*
G75*
G02*
X94769700Y-111532300I175500J0D01*
G01*
X95120700Y-111532300D01*
G75*
G02*
X95296200Y-111707800I0J-175500D01*
G01*
X95296200Y-113258800D01*
G75*
G02*
X95120700Y-113434300I-175500J0D01*
G01*
G37*
G36*
G01*
X96390700Y-113434300D02*
X96039700Y-113434300D01*
G75*
G02*
X95864200Y-113258800I0J175500D01*
G01*
X95864200Y-111707800D01*
G75*
G02*
X96039700Y-111532300I175500J0D01*
G01*
X96390700Y-111532300D01*
G75*
G02*
X96566200Y-111707800I0J-175500D01*
G01*
X96566200Y-113258800D01*
G75*
G02*
X96390700Y-113434300I-175500J0D01*
G01*
G37*
G36*
G01*
X97660700Y-113434300D02*
X97309700Y-113434300D01*
G75*
G02*
X97134200Y-113258800I0J175500D01*
G01*
X97134200Y-111707800D01*
G75*
G02*
X97309700Y-111532300I175500J0D01*
G01*
X97660700Y-111532300D01*
G75*
G02*
X97836200Y-111707800I0J-175500D01*
G01*
X97836200Y-113258800D01*
G75*
G02*
X97660700Y-113434300I-175500J0D01*
G01*
G37*
G36*
G01*
X98930700Y-113434300D02*
X98579700Y-113434300D01*
G75*
G02*
X98404200Y-113258800I0J175500D01*
G01*
X98404200Y-111707800D01*
G75*
G02*
X98579700Y-111532300I175500J0D01*
G01*
X98930700Y-111532300D01*
G75*
G02*
X99106200Y-111707800I0J-175500D01*
G01*
X99106200Y-113258800D01*
G75*
G02*
X98930700Y-113434300I-175500J0D01*
G01*
G37*
G36*
G01*
X100200700Y-113434300D02*
X99849700Y-113434300D01*
G75*
G02*
X99674200Y-113258800I0J175500D01*
G01*
X99674200Y-111707800D01*
G75*
G02*
X99849700Y-111532300I175500J0D01*
G01*
X100200700Y-111532300D01*
G75*
G02*
X100376200Y-111707800I0J-175500D01*
G01*
X100376200Y-113258800D01*
G75*
G02*
X100200700Y-113434300I-175500J0D01*
G01*
G37*
G36*
G01*
X101470700Y-113434300D02*
X101119700Y-113434300D01*
G75*
G02*
X100944200Y-113258800I0J175500D01*
G01*
X100944200Y-111707800D01*
G75*
G02*
X101119700Y-111532300I175500J0D01*
G01*
X101470700Y-111532300D01*
G75*
G02*
X101646200Y-111707800I0J-175500D01*
G01*
X101646200Y-113258800D01*
G75*
G02*
X101470700Y-113434300I-175500J0D01*
G01*
G37*
G36*
G01*
X102740700Y-113434300D02*
X102389700Y-113434300D01*
G75*
G02*
X102214200Y-113258800I0J175500D01*
G01*
X102214200Y-111707800D01*
G75*
G02*
X102389700Y-111532300I175500J0D01*
G01*
X102740700Y-111532300D01*
G75*
G02*
X102916200Y-111707800I0J-175500D01*
G01*
X102916200Y-113258800D01*
G75*
G02*
X102740700Y-113434300I-175500J0D01*
G01*
G37*
G36*
G01*
X104010700Y-113434300D02*
X103659700Y-113434300D01*
G75*
G02*
X103484200Y-113258800I0J175500D01*
G01*
X103484200Y-111707800D01*
G75*
G02*
X103659700Y-111532300I175500J0D01*
G01*
X104010700Y-111532300D01*
G75*
G02*
X104186200Y-111707800I0J-175500D01*
G01*
X104186200Y-113258800D01*
G75*
G02*
X104010700Y-113434300I-175500J0D01*
G01*
G37*
G36*
G01*
X105280700Y-113434300D02*
X104929700Y-113434300D01*
G75*
G02*
X104754200Y-113258800I0J175500D01*
G01*
X104754200Y-111707800D01*
G75*
G02*
X104929700Y-111532300I175500J0D01*
G01*
X105280700Y-111532300D01*
G75*
G02*
X105456200Y-111707800I0J-175500D01*
G01*
X105456200Y-113258800D01*
G75*
G02*
X105280700Y-113434300I-175500J0D01*
G01*
G37*
G36*
G01*
X106550700Y-113434300D02*
X106199700Y-113434300D01*
G75*
G02*
X106024200Y-113258800I0J175500D01*
G01*
X106024200Y-111707800D01*
G75*
G02*
X106199700Y-111532300I175500J0D01*
G01*
X106550700Y-111532300D01*
G75*
G02*
X106726200Y-111707800I0J-175500D01*
G01*
X106726200Y-113258800D01*
G75*
G02*
X106550700Y-113434300I-175500J0D01*
G01*
G37*
G36*
G01*
X107820700Y-113434300D02*
X107469700Y-113434300D01*
G75*
G02*
X107294200Y-113258800I0J175500D01*
G01*
X107294200Y-111707800D01*
G75*
G02*
X107469700Y-111532300I175500J0D01*
G01*
X107820700Y-111532300D01*
G75*
G02*
X107996200Y-111707800I0J-175500D01*
G01*
X107996200Y-113258800D01*
G75*
G02*
X107820700Y-113434300I-175500J0D01*
G01*
G37*
X88160000Y-124190000D03*
X39560000Y-145310000D03*
X39560000Y-83990000D03*
G36*
G01*
X113269000Y-109805000D02*
X113269000Y-108105000D01*
G75*
G02*
X113320000Y-108054000I51000J0D01*
G01*
X115020000Y-108054000D01*
G75*
G02*
X115071000Y-108105000I0J-51000D01*
G01*
X115071000Y-109805000D01*
G75*
G02*
X115020000Y-109856000I-51000J0D01*
G01*
X113320000Y-109856000D01*
G75*
G02*
X113269000Y-109805000I0J51000D01*
G01*
G37*
D11*
X111630000Y-108955000D03*
X114170000Y-111495000D03*
X111630000Y-111495000D03*
X114170000Y-114035000D03*
X111630000Y-114035000D03*
G36*
G01*
X88178400Y-137923200D02*
X88529400Y-137923200D01*
G75*
G02*
X88704900Y-138098700I0J-175500D01*
G01*
X88704900Y-139799700D01*
G75*
G02*
X88529400Y-139975200I-175500J0D01*
G01*
X88178400Y-139975200D01*
G75*
G02*
X88002900Y-139799700I0J175500D01*
G01*
X88002900Y-138098700D01*
G75*
G02*
X88178400Y-137923200I175500J0D01*
G01*
G37*
G36*
G01*
X89448400Y-137923200D02*
X89799400Y-137923200D01*
G75*
G02*
X89974900Y-138098700I0J-175500D01*
G01*
X89974900Y-139799700D01*
G75*
G02*
X89799400Y-139975200I-175500J0D01*
G01*
X89448400Y-139975200D01*
G75*
G02*
X89272900Y-139799700I0J175500D01*
G01*
X89272900Y-138098700D01*
G75*
G02*
X89448400Y-137923200I175500J0D01*
G01*
G37*
G36*
G01*
X90718400Y-137923200D02*
X91069400Y-137923200D01*
G75*
G02*
X91244900Y-138098700I0J-175500D01*
G01*
X91244900Y-139799700D01*
G75*
G02*
X91069400Y-139975200I-175500J0D01*
G01*
X90718400Y-139975200D01*
G75*
G02*
X90542900Y-139799700I0J175500D01*
G01*
X90542900Y-138098700D01*
G75*
G02*
X90718400Y-137923200I175500J0D01*
G01*
G37*
G36*
G01*
X91988400Y-137923200D02*
X92339400Y-137923200D01*
G75*
G02*
X92514900Y-138098700I0J-175500D01*
G01*
X92514900Y-139799700D01*
G75*
G02*
X92339400Y-139975200I-175500J0D01*
G01*
X91988400Y-139975200D01*
G75*
G02*
X91812900Y-139799700I0J175500D01*
G01*
X91812900Y-138098700D01*
G75*
G02*
X91988400Y-137923200I175500J0D01*
G01*
G37*
G36*
G01*
X91988400Y-132973200D02*
X92339400Y-132973200D01*
G75*
G02*
X92514900Y-133148700I0J-175500D01*
G01*
X92514900Y-134849700D01*
G75*
G02*
X92339400Y-135025200I-175500J0D01*
G01*
X91988400Y-135025200D01*
G75*
G02*
X91812900Y-134849700I0J175500D01*
G01*
X91812900Y-133148700D01*
G75*
G02*
X91988400Y-132973200I175500J0D01*
G01*
G37*
G36*
G01*
X90718400Y-132973200D02*
X91069400Y-132973200D01*
G75*
G02*
X91244900Y-133148700I0J-175500D01*
G01*
X91244900Y-134849700D01*
G75*
G02*
X91069400Y-135025200I-175500J0D01*
G01*
X90718400Y-135025200D01*
G75*
G02*
X90542900Y-134849700I0J175500D01*
G01*
X90542900Y-133148700D01*
G75*
G02*
X90718400Y-132973200I175500J0D01*
G01*
G37*
G36*
G01*
X89448400Y-132973200D02*
X89799400Y-132973200D01*
G75*
G02*
X89974900Y-133148700I0J-175500D01*
G01*
X89974900Y-134849700D01*
G75*
G02*
X89799400Y-135025200I-175500J0D01*
G01*
X89448400Y-135025200D01*
G75*
G02*
X89272900Y-134849700I0J175500D01*
G01*
X89272900Y-133148700D01*
G75*
G02*
X89448400Y-132973200I175500J0D01*
G01*
G37*
G36*
G01*
X88178400Y-132973200D02*
X88529400Y-132973200D01*
G75*
G02*
X88704900Y-133148700I0J-175500D01*
G01*
X88704900Y-134849700D01*
G75*
G02*
X88529400Y-135025200I-175500J0D01*
G01*
X88178400Y-135025200D01*
G75*
G02*
X88002900Y-134849700I0J175500D01*
G01*
X88002900Y-133148700D01*
G75*
G02*
X88178400Y-132973200I175500J0D01*
G01*
G37*
G36*
G01*
X55982800Y-81671200D02*
X55982800Y-92471200D01*
G75*
G02*
X55931800Y-92522200I-51000J0D01*
G01*
X46531800Y-92522200D01*
G75*
G02*
X46480800Y-92471200I0J51000D01*
G01*
X46480800Y-81671200D01*
G75*
G02*
X46531800Y-81620200I51000J0D01*
G01*
X55931800Y-81620200D01*
G75*
G02*
X55982800Y-81671200I0J-51000D01*
G01*
G37*
G36*
G01*
X62732800Y-90481200D02*
X62732800Y-91281200D01*
G75*
G02*
X62681800Y-91332200I-51000J0D01*
G01*
X58081800Y-91332200D01*
G75*
G02*
X58030800Y-91281200I0J51000D01*
G01*
X58030800Y-90481200D01*
G75*
G02*
X58081800Y-90430200I51000J0D01*
G01*
X62681800Y-90430200D01*
G75*
G02*
X62732800Y-90481200I0J-51000D01*
G01*
G37*
G36*
G01*
X62732800Y-89211200D02*
X62732800Y-90011200D01*
G75*
G02*
X62681800Y-90062200I-51000J0D01*
G01*
X58081800Y-90062200D01*
G75*
G02*
X58030800Y-90011200I0J51000D01*
G01*
X58030800Y-89211200D01*
G75*
G02*
X58081800Y-89160200I51000J0D01*
G01*
X62681800Y-89160200D01*
G75*
G02*
X62732800Y-89211200I0J-51000D01*
G01*
G37*
G36*
G01*
X62732800Y-87941200D02*
X62732800Y-88741200D01*
G75*
G02*
X62681800Y-88792200I-51000J0D01*
G01*
X58081800Y-88792200D01*
G75*
G02*
X58030800Y-88741200I0J51000D01*
G01*
X58030800Y-87941200D01*
G75*
G02*
X58081800Y-87890200I51000J0D01*
G01*
X62681800Y-87890200D01*
G75*
G02*
X62732800Y-87941200I0J-51000D01*
G01*
G37*
G36*
G01*
X62732800Y-86671200D02*
X62732800Y-87471200D01*
G75*
G02*
X62681800Y-87522200I-51000J0D01*
G01*
X58081800Y-87522200D01*
G75*
G02*
X58030800Y-87471200I0J51000D01*
G01*
X58030800Y-86671200D01*
G75*
G02*
X58081800Y-86620200I51000J0D01*
G01*
X62681800Y-86620200D01*
G75*
G02*
X62732800Y-86671200I0J-51000D01*
G01*
G37*
G36*
G01*
X62732800Y-85401200D02*
X62732800Y-86201200D01*
G75*
G02*
X62681800Y-86252200I-51000J0D01*
G01*
X58081800Y-86252200D01*
G75*
G02*
X58030800Y-86201200I0J51000D01*
G01*
X58030800Y-85401200D01*
G75*
G02*
X58081800Y-85350200I51000J0D01*
G01*
X62681800Y-85350200D01*
G75*
G02*
X62732800Y-85401200I0J-51000D01*
G01*
G37*
G36*
G01*
X62732800Y-84131200D02*
X62732800Y-84931200D01*
G75*
G02*
X62681800Y-84982200I-51000J0D01*
G01*
X58081800Y-84982200D01*
G75*
G02*
X58030800Y-84931200I0J51000D01*
G01*
X58030800Y-84131200D01*
G75*
G02*
X58081800Y-84080200I51000J0D01*
G01*
X62681800Y-84080200D01*
G75*
G02*
X62732800Y-84131200I0J-51000D01*
G01*
G37*
G36*
G01*
X62732800Y-82861200D02*
X62732800Y-83661200D01*
G75*
G02*
X62681800Y-83712200I-51000J0D01*
G01*
X58081800Y-83712200D01*
G75*
G02*
X58030800Y-83661200I0J51000D01*
G01*
X58030800Y-82861200D01*
G75*
G02*
X58081800Y-82810200I51000J0D01*
G01*
X62681800Y-82810200D01*
G75*
G02*
X62732800Y-82861200I0J-51000D01*
G01*
G37*
D12*
X88592000Y-88849200D03*
X93472000Y-88849200D03*
X96415200Y-121005600D03*
X101295200Y-121005600D03*
G36*
G01*
X109903500Y-81177200D02*
X109552500Y-81177200D01*
G75*
G02*
X109377000Y-81001700I0J175500D01*
G01*
X109377000Y-79300700D01*
G75*
G02*
X109552500Y-79125200I175500J0D01*
G01*
X109903500Y-79125200D01*
G75*
G02*
X110079000Y-79300700I0J-175500D01*
G01*
X110079000Y-81001700D01*
G75*
G02*
X109903500Y-81177200I-175500J0D01*
G01*
G37*
G36*
G01*
X108633500Y-81177200D02*
X108282500Y-81177200D01*
G75*
G02*
X108107000Y-81001700I0J175500D01*
G01*
X108107000Y-79300700D01*
G75*
G02*
X108282500Y-79125200I175500J0D01*
G01*
X108633500Y-79125200D01*
G75*
G02*
X108809000Y-79300700I0J-175500D01*
G01*
X108809000Y-81001700D01*
G75*
G02*
X108633500Y-81177200I-175500J0D01*
G01*
G37*
G36*
G01*
X107363500Y-81177200D02*
X107012500Y-81177200D01*
G75*
G02*
X106837000Y-81001700I0J175500D01*
G01*
X106837000Y-79300700D01*
G75*
G02*
X107012500Y-79125200I175500J0D01*
G01*
X107363500Y-79125200D01*
G75*
G02*
X107539000Y-79300700I0J-175500D01*
G01*
X107539000Y-81001700D01*
G75*
G02*
X107363500Y-81177200I-175500J0D01*
G01*
G37*
G36*
G01*
X106093500Y-81177200D02*
X105742500Y-81177200D01*
G75*
G02*
X105567000Y-81001700I0J175500D01*
G01*
X105567000Y-79300700D01*
G75*
G02*
X105742500Y-79125200I175500J0D01*
G01*
X106093500Y-79125200D01*
G75*
G02*
X106269000Y-79300700I0J-175500D01*
G01*
X106269000Y-81001700D01*
G75*
G02*
X106093500Y-81177200I-175500J0D01*
G01*
G37*
G36*
G01*
X106093500Y-86127200D02*
X105742500Y-86127200D01*
G75*
G02*
X105567000Y-85951700I0J175500D01*
G01*
X105567000Y-84250700D01*
G75*
G02*
X105742500Y-84075200I175500J0D01*
G01*
X106093500Y-84075200D01*
G75*
G02*
X106269000Y-84250700I0J-175500D01*
G01*
X106269000Y-85951700D01*
G75*
G02*
X106093500Y-86127200I-175500J0D01*
G01*
G37*
G36*
G01*
X107363500Y-86127200D02*
X107012500Y-86127200D01*
G75*
G02*
X106837000Y-85951700I0J175500D01*
G01*
X106837000Y-84250700D01*
G75*
G02*
X107012500Y-84075200I175500J0D01*
G01*
X107363500Y-84075200D01*
G75*
G02*
X107539000Y-84250700I0J-175500D01*
G01*
X107539000Y-85951700D01*
G75*
G02*
X107363500Y-86127200I-175500J0D01*
G01*
G37*
G36*
G01*
X108633500Y-86127200D02*
X108282500Y-86127200D01*
G75*
G02*
X108107000Y-85951700I0J175500D01*
G01*
X108107000Y-84250700D01*
G75*
G02*
X108282500Y-84075200I175500J0D01*
G01*
X108633500Y-84075200D01*
G75*
G02*
X108809000Y-84250700I0J-175500D01*
G01*
X108809000Y-85951700D01*
G75*
G02*
X108633500Y-86127200I-175500J0D01*
G01*
G37*
G36*
G01*
X109903500Y-86127200D02*
X109552500Y-86127200D01*
G75*
G02*
X109377000Y-85951700I0J175500D01*
G01*
X109377000Y-84250700D01*
G75*
G02*
X109552500Y-84075200I175500J0D01*
G01*
X109903500Y-84075200D01*
G75*
G02*
X110079000Y-84250700I0J-175500D01*
G01*
X110079000Y-85951700D01*
G75*
G02*
X109903500Y-86127200I-175500J0D01*
G01*
G37*
G36*
G01*
X98727500Y-74353200D02*
X98376500Y-74353200D01*
G75*
G02*
X98201000Y-74177700I0J175500D01*
G01*
X98201000Y-72376700D01*
G75*
G02*
X98376500Y-72201200I175500J0D01*
G01*
X98727500Y-72201200D01*
G75*
G02*
X98903000Y-72376700I0J-175500D01*
G01*
X98903000Y-74177700D01*
G75*
G02*
X98727500Y-74353200I-175500J0D01*
G01*
G37*
G36*
G01*
X97457500Y-74353200D02*
X97106500Y-74353200D01*
G75*
G02*
X96931000Y-74177700I0J175500D01*
G01*
X96931000Y-72376700D01*
G75*
G02*
X97106500Y-72201200I175500J0D01*
G01*
X97457500Y-72201200D01*
G75*
G02*
X97633000Y-72376700I0J-175500D01*
G01*
X97633000Y-74177700D01*
G75*
G02*
X97457500Y-74353200I-175500J0D01*
G01*
G37*
G36*
G01*
X96187500Y-74353200D02*
X95836500Y-74353200D01*
G75*
G02*
X95661000Y-74177700I0J175500D01*
G01*
X95661000Y-72376700D01*
G75*
G02*
X95836500Y-72201200I175500J0D01*
G01*
X96187500Y-72201200D01*
G75*
G02*
X96363000Y-72376700I0J-175500D01*
G01*
X96363000Y-74177700D01*
G75*
G02*
X96187500Y-74353200I-175500J0D01*
G01*
G37*
G36*
G01*
X94917500Y-74353200D02*
X94566500Y-74353200D01*
G75*
G02*
X94391000Y-74177700I0J175500D01*
G01*
X94391000Y-72376700D01*
G75*
G02*
X94566500Y-72201200I175500J0D01*
G01*
X94917500Y-72201200D01*
G75*
G02*
X95093000Y-72376700I0J-175500D01*
G01*
X95093000Y-74177700D01*
G75*
G02*
X94917500Y-74353200I-175500J0D01*
G01*
G37*
G36*
G01*
X93647500Y-74353200D02*
X93296500Y-74353200D01*
G75*
G02*
X93121000Y-74177700I0J175500D01*
G01*
X93121000Y-72376700D01*
G75*
G02*
X93296500Y-72201200I175500J0D01*
G01*
X93647500Y-72201200D01*
G75*
G02*
X93823000Y-72376700I0J-175500D01*
G01*
X93823000Y-74177700D01*
G75*
G02*
X93647500Y-74353200I-175500J0D01*
G01*
G37*
G36*
G01*
X92377500Y-74353200D02*
X92026500Y-74353200D01*
G75*
G02*
X91851000Y-74177700I0J175500D01*
G01*
X91851000Y-72376700D01*
G75*
G02*
X92026500Y-72201200I175500J0D01*
G01*
X92377500Y-72201200D01*
G75*
G02*
X92553000Y-72376700I0J-175500D01*
G01*
X92553000Y-74177700D01*
G75*
G02*
X92377500Y-74353200I-175500J0D01*
G01*
G37*
G36*
G01*
X91107500Y-74353200D02*
X90756500Y-74353200D01*
G75*
G02*
X90581000Y-74177700I0J175500D01*
G01*
X90581000Y-72376700D01*
G75*
G02*
X90756500Y-72201200I175500J0D01*
G01*
X91107500Y-72201200D01*
G75*
G02*
X91283000Y-72376700I0J-175500D01*
G01*
X91283000Y-74177700D01*
G75*
G02*
X91107500Y-74353200I-175500J0D01*
G01*
G37*
G36*
G01*
X89837500Y-74353200D02*
X89486500Y-74353200D01*
G75*
G02*
X89311000Y-74177700I0J175500D01*
G01*
X89311000Y-72376700D01*
G75*
G02*
X89486500Y-72201200I175500J0D01*
G01*
X89837500Y-72201200D01*
G75*
G02*
X90013000Y-72376700I0J-175500D01*
G01*
X90013000Y-74177700D01*
G75*
G02*
X89837500Y-74353200I-175500J0D01*
G01*
G37*
G36*
G01*
X88567500Y-74353200D02*
X88216500Y-74353200D01*
G75*
G02*
X88041000Y-74177700I0J175500D01*
G01*
X88041000Y-72376700D01*
G75*
G02*
X88216500Y-72201200I175500J0D01*
G01*
X88567500Y-72201200D01*
G75*
G02*
X88743000Y-72376700I0J-175500D01*
G01*
X88743000Y-74177700D01*
G75*
G02*
X88567500Y-74353200I-175500J0D01*
G01*
G37*
G36*
G01*
X88567500Y-83653200D02*
X88216500Y-83653200D01*
G75*
G02*
X88041000Y-83477700I0J175500D01*
G01*
X88041000Y-81676700D01*
G75*
G02*
X88216500Y-81501200I175500J0D01*
G01*
X88567500Y-81501200D01*
G75*
G02*
X88743000Y-81676700I0J-175500D01*
G01*
X88743000Y-83477700D01*
G75*
G02*
X88567500Y-83653200I-175500J0D01*
G01*
G37*
G36*
G01*
X89837500Y-83653200D02*
X89486500Y-83653200D01*
G75*
G02*
X89311000Y-83477700I0J175500D01*
G01*
X89311000Y-81676700D01*
G75*
G02*
X89486500Y-81501200I175500J0D01*
G01*
X89837500Y-81501200D01*
G75*
G02*
X90013000Y-81676700I0J-175500D01*
G01*
X90013000Y-83477700D01*
G75*
G02*
X89837500Y-83653200I-175500J0D01*
G01*
G37*
G36*
G01*
X91107500Y-83653200D02*
X90756500Y-83653200D01*
G75*
G02*
X90581000Y-83477700I0J175500D01*
G01*
X90581000Y-81676700D01*
G75*
G02*
X90756500Y-81501200I175500J0D01*
G01*
X91107500Y-81501200D01*
G75*
G02*
X91283000Y-81676700I0J-175500D01*
G01*
X91283000Y-83477700D01*
G75*
G02*
X91107500Y-83653200I-175500J0D01*
G01*
G37*
G36*
G01*
X92377500Y-83653200D02*
X92026500Y-83653200D01*
G75*
G02*
X91851000Y-83477700I0J175500D01*
G01*
X91851000Y-81676700D01*
G75*
G02*
X92026500Y-81501200I175500J0D01*
G01*
X92377500Y-81501200D01*
G75*
G02*
X92553000Y-81676700I0J-175500D01*
G01*
X92553000Y-83477700D01*
G75*
G02*
X92377500Y-83653200I-175500J0D01*
G01*
G37*
G36*
G01*
X93647500Y-83653200D02*
X93296500Y-83653200D01*
G75*
G02*
X93121000Y-83477700I0J175500D01*
G01*
X93121000Y-81676700D01*
G75*
G02*
X93296500Y-81501200I175500J0D01*
G01*
X93647500Y-81501200D01*
G75*
G02*
X93823000Y-81676700I0J-175500D01*
G01*
X93823000Y-83477700D01*
G75*
G02*
X93647500Y-83653200I-175500J0D01*
G01*
G37*
G36*
G01*
X94917500Y-83653200D02*
X94566500Y-83653200D01*
G75*
G02*
X94391000Y-83477700I0J175500D01*
G01*
X94391000Y-81676700D01*
G75*
G02*
X94566500Y-81501200I175500J0D01*
G01*
X94917500Y-81501200D01*
G75*
G02*
X95093000Y-81676700I0J-175500D01*
G01*
X95093000Y-83477700D01*
G75*
G02*
X94917500Y-83653200I-175500J0D01*
G01*
G37*
G36*
G01*
X96187500Y-83653200D02*
X95836500Y-83653200D01*
G75*
G02*
X95661000Y-83477700I0J175500D01*
G01*
X95661000Y-81676700D01*
G75*
G02*
X95836500Y-81501200I175500J0D01*
G01*
X96187500Y-81501200D01*
G75*
G02*
X96363000Y-81676700I0J-175500D01*
G01*
X96363000Y-83477700D01*
G75*
G02*
X96187500Y-83653200I-175500J0D01*
G01*
G37*
G36*
G01*
X97457500Y-83653200D02*
X97106500Y-83653200D01*
G75*
G02*
X96931000Y-83477700I0J175500D01*
G01*
X96931000Y-81676700D01*
G75*
G02*
X97106500Y-81501200I175500J0D01*
G01*
X97457500Y-81501200D01*
G75*
G02*
X97633000Y-81676700I0J-175500D01*
G01*
X97633000Y-83477700D01*
G75*
G02*
X97457500Y-83653200I-175500J0D01*
G01*
G37*
G36*
G01*
X98727500Y-83653200D02*
X98376500Y-83653200D01*
G75*
G02*
X98201000Y-83477700I0J175500D01*
G01*
X98201000Y-81676700D01*
G75*
G02*
X98376500Y-81501200I175500J0D01*
G01*
X98727500Y-81501200D01*
G75*
G02*
X98903000Y-81676700I0J-175500D01*
G01*
X98903000Y-83477700D01*
G75*
G02*
X98727500Y-83653200I-175500J0D01*
G01*
G37*
G36*
G01*
X97197160Y-68664128D02*
X97197160Y-69623632D01*
G75*
G02*
X96925912Y-69894880I-271248J0D01*
G01*
X96166408Y-69894880D01*
G75*
G02*
X95895160Y-69623632I0J271248D01*
G01*
X95895160Y-68664128D01*
G75*
G02*
X96166408Y-68392880I271248J0D01*
G01*
X96925912Y-68392880D01*
G75*
G02*
X97197160Y-68664128I0J-271248D01*
G01*
G37*
G36*
G01*
X99197160Y-68664128D02*
X99197160Y-69623632D01*
G75*
G02*
X98925912Y-69894880I-271248J0D01*
G01*
X98166408Y-69894880D01*
G75*
G02*
X97895160Y-69623632I0J271248D01*
G01*
X97895160Y-68664128D01*
G75*
G02*
X98166408Y-68392880I271248J0D01*
G01*
X98925912Y-68392880D01*
G75*
G02*
X99197160Y-68664128I0J-271248D01*
G01*
G37*
G36*
G01*
X66860112Y-88971880D02*
X65900608Y-88971880D01*
G75*
G02*
X65629360Y-88700632I0J271248D01*
G01*
X65629360Y-87941128D01*
G75*
G02*
X65900608Y-87669880I271248J0D01*
G01*
X66860112Y-87669880D01*
G75*
G02*
X67131360Y-87941128I0J-271248D01*
G01*
X67131360Y-88700632D01*
G75*
G02*
X66860112Y-88971880I-271248J0D01*
G01*
G37*
G36*
G01*
X66860112Y-90971880D02*
X65900608Y-90971880D01*
G75*
G02*
X65629360Y-90700632I0J271248D01*
G01*
X65629360Y-89941128D01*
G75*
G02*
X65900608Y-89669880I271248J0D01*
G01*
X66860112Y-89669880D01*
G75*
G02*
X67131360Y-89941128I0J-271248D01*
G01*
X67131360Y-90700632D01*
G75*
G02*
X66860112Y-90971880I-271248J0D01*
G01*
G37*
G36*
G01*
X69397572Y-88932760D02*
X68438068Y-88932760D01*
G75*
G02*
X68166820Y-88661512I0J271248D01*
G01*
X68166820Y-87902008D01*
G75*
G02*
X68438068Y-87630760I271248J0D01*
G01*
X69397572Y-87630760D01*
G75*
G02*
X69668820Y-87902008I0J-271248D01*
G01*
X69668820Y-88661512D01*
G75*
G02*
X69397572Y-88932760I-271248J0D01*
G01*
G37*
G36*
G01*
X69397572Y-90932760D02*
X68438068Y-90932760D01*
G75*
G02*
X68166820Y-90661512I0J271248D01*
G01*
X68166820Y-89902008D01*
G75*
G02*
X68438068Y-89630760I271248J0D01*
G01*
X69397572Y-89630760D01*
G75*
G02*
X69668820Y-89902008I0J-271248D01*
G01*
X69668820Y-90661512D01*
G75*
G02*
X69397572Y-90932760I-271248J0D01*
G01*
G37*
G36*
G01*
X113147600Y-121287848D02*
X113147600Y-122247352D01*
G75*
G02*
X112876352Y-122518600I-271248J0D01*
G01*
X112116848Y-122518600D01*
G75*
G02*
X111845600Y-122247352I0J271248D01*
G01*
X111845600Y-121287848D01*
G75*
G02*
X112116848Y-121016600I271248J0D01*
G01*
X112876352Y-121016600D01*
G75*
G02*
X113147600Y-121287848I0J-271248D01*
G01*
G37*
G36*
G01*
X115147600Y-121287848D02*
X115147600Y-122247352D01*
G75*
G02*
X114876352Y-122518600I-271248J0D01*
G01*
X114116848Y-122518600D01*
G75*
G02*
X113845600Y-122247352I0J271248D01*
G01*
X113845600Y-121287848D01*
G75*
G02*
X114116848Y-121016600I271248J0D01*
G01*
X114876352Y-121016600D01*
G75*
G02*
X115147600Y-121287848I0J-271248D01*
G01*
G37*
G36*
G01*
X111610448Y-118087400D02*
X112569952Y-118087400D01*
G75*
G02*
X112841200Y-118358648I0J-271248D01*
G01*
X112841200Y-119118152D01*
G75*
G02*
X112569952Y-119389400I-271248J0D01*
G01*
X111610448Y-119389400D01*
G75*
G02*
X111339200Y-119118152I0J271248D01*
G01*
X111339200Y-118358648D01*
G75*
G02*
X111610448Y-118087400I271248J0D01*
G01*
G37*
G36*
G01*
X111610448Y-116087400D02*
X112569952Y-116087400D01*
G75*
G02*
X112841200Y-116358648I0J-271248D01*
G01*
X112841200Y-117118152D01*
G75*
G02*
X112569952Y-117389400I-271248J0D01*
G01*
X111610448Y-117389400D01*
G75*
G02*
X111339200Y-117118152I0J271248D01*
G01*
X111339200Y-116358648D01*
G75*
G02*
X111610448Y-116087400I271248J0D01*
G01*
G37*
G36*
G01*
X75700000Y-135656999D02*
X75700000Y-141457001D01*
G75*
G02*
X75649001Y-141508000I-50999J0D01*
G01*
X69248999Y-141508000D01*
G75*
G02*
X69198000Y-141457001I0J50999D01*
G01*
X69198000Y-135656999D01*
G75*
G02*
X69248999Y-135606000I50999J0D01*
G01*
X75649001Y-135606000D01*
G75*
G02*
X75700000Y-135656999I0J-50999D01*
G01*
G37*
G36*
G01*
X79900000Y-140236999D02*
X79900000Y-141437001D01*
G75*
G02*
X79849001Y-141488000I-50999J0D01*
G01*
X77648999Y-141488000D01*
G75*
G02*
X77598000Y-141437001I0J50999D01*
G01*
X77598000Y-140236999D01*
G75*
G02*
X77648999Y-140186000I50999J0D01*
G01*
X79849001Y-140186000D01*
G75*
G02*
X79900000Y-140236999I0J-50999D01*
G01*
G37*
G36*
G01*
X79900000Y-137956999D02*
X79900000Y-139157001D01*
G75*
G02*
X79849001Y-139208000I-50999J0D01*
G01*
X77648999Y-139208000D01*
G75*
G02*
X77598000Y-139157001I0J50999D01*
G01*
X77598000Y-137956999D01*
G75*
G02*
X77648999Y-137906000I50999J0D01*
G01*
X79849001Y-137906000D01*
G75*
G02*
X79900000Y-137956999I0J-50999D01*
G01*
G37*
G36*
G01*
X79900000Y-135676999D02*
X79900000Y-136877001D01*
G75*
G02*
X79849001Y-136928000I-50999J0D01*
G01*
X77648999Y-136928000D01*
G75*
G02*
X77598000Y-136877001I0J50999D01*
G01*
X77598000Y-135676999D01*
G75*
G02*
X77648999Y-135626000I50999J0D01*
G01*
X79849001Y-135626000D01*
G75*
G02*
X79900000Y-135676999I0J-50999D01*
G01*
G37*
G36*
G01*
X73832600Y-78141200D02*
X73832600Y-73141200D01*
G75*
G02*
X73883600Y-73090200I51000J0D01*
G01*
X78383600Y-73090200D01*
G75*
G02*
X78434600Y-73141200I0J-51000D01*
G01*
X78434600Y-78141200D01*
G75*
G02*
X78383600Y-78192200I-51000J0D01*
G01*
X73883600Y-78192200D01*
G75*
G02*
X73832600Y-78141200I0J51000D01*
G01*
G37*
G36*
G01*
X63332600Y-78141200D02*
X63332600Y-73141200D01*
G75*
G02*
X63383600Y-73090200I51000J0D01*
G01*
X67883600Y-73090200D01*
G75*
G02*
X67934600Y-73141200I0J-51000D01*
G01*
X67934600Y-78141200D01*
G75*
G02*
X67883600Y-78192200I-51000J0D01*
G01*
X63383600Y-78192200D01*
G75*
G02*
X63332600Y-78141200I0J51000D01*
G01*
G37*
D11*
X39243000Y-101879400D03*
X39243000Y-99339400D03*
X39243000Y-96799400D03*
X39243000Y-94259400D03*
G36*
G01*
X38342000Y-92569400D02*
X38342000Y-90869400D01*
G75*
G02*
X38393000Y-90818400I51000J0D01*
G01*
X40093000Y-90818400D01*
G75*
G02*
X40144000Y-90869400I0J-51000D01*
G01*
X40144000Y-92569400D01*
G75*
G02*
X40093000Y-92620400I-51000J0D01*
G01*
X38393000Y-92620400D01*
G75*
G02*
X38342000Y-92569400I0J51000D01*
G01*
G37*
D13*
X44328080Y-135955020D03*
G36*
G01*
X44982832Y-138606020D02*
X43673328Y-138606020D01*
G75*
G02*
X43402080Y-138334772I0J271248D01*
G01*
X43402080Y-137575268D01*
G75*
G02*
X43673328Y-137304020I271248J0D01*
G01*
X44982832Y-137304020D01*
G75*
G02*
X45254080Y-137575268I0J-271248D01*
G01*
X45254080Y-138334772D01*
G75*
G02*
X44982832Y-138606020I-271248J0D01*
G01*
G37*
X44328080Y-128032760D03*
G36*
G01*
X44982832Y-130683760D02*
X43673328Y-130683760D01*
G75*
G02*
X43402080Y-130412512I0J271248D01*
G01*
X43402080Y-129653008D01*
G75*
G02*
X43673328Y-129381760I271248J0D01*
G01*
X44982832Y-129381760D01*
G75*
G02*
X45254080Y-129653008I0J-271248D01*
G01*
X45254080Y-130412512D01*
G75*
G02*
X44982832Y-130683760I-271248J0D01*
G01*
G37*
X44371260Y-120041920D03*
G36*
G01*
X45026012Y-122692920D02*
X43716508Y-122692920D01*
G75*
G02*
X43445260Y-122421672I0J271248D01*
G01*
X43445260Y-121662168D01*
G75*
G02*
X43716508Y-121390920I271248J0D01*
G01*
X45026012Y-121390920D01*
G75*
G02*
X45297260Y-121662168I0J-271248D01*
G01*
X45297260Y-122421672D01*
G75*
G02*
X45026012Y-122692920I-271248J0D01*
G01*
G37*
D14*
X80035400Y-127332000D03*
X80035400Y-116332000D03*
D15*
X79035400Y-123832000D03*
X79035400Y-121832000D03*
X79035400Y-119832000D03*
X81035400Y-119832000D03*
G36*
G01*
X81635401Y-124483000D02*
X80435399Y-124483000D01*
G75*
G02*
X80384400Y-124432001I0J50999D01*
G01*
X80384400Y-123231999D01*
G75*
G02*
X80435399Y-123181000I50999J0D01*
G01*
X81635401Y-123181000D01*
G75*
G02*
X81686400Y-123231999I0J-50999D01*
G01*
X81686400Y-124432001D01*
G75*
G02*
X81635401Y-124483000I-50999J0D01*
G01*
G37*
X81035400Y-121832000D03*
D14*
X72288400Y-127382800D03*
X72288400Y-116382800D03*
D15*
X71288400Y-123882800D03*
X71288400Y-121882800D03*
X71288400Y-119882800D03*
X73288400Y-119882800D03*
G36*
G01*
X73888401Y-124533800D02*
X72688399Y-124533800D01*
G75*
G02*
X72637400Y-124482801I0J50999D01*
G01*
X72637400Y-123282799D01*
G75*
G02*
X72688399Y-123231800I50999J0D01*
G01*
X73888401Y-123231800D01*
G75*
G02*
X73939400Y-123282799I0J-50999D01*
G01*
X73939400Y-124482801D01*
G75*
G02*
X73888401Y-124533800I-50999J0D01*
G01*
G37*
X73288400Y-121882800D03*
D11*
X71551800Y-111683800D03*
X74091800Y-111683800D03*
X76631800Y-111683800D03*
X79171800Y-111683800D03*
G36*
G01*
X80861800Y-110782800D02*
X82561800Y-110782800D01*
G75*
G02*
X82612800Y-110833800I0J-51000D01*
G01*
X82612800Y-112533800D01*
G75*
G02*
X82561800Y-112584800I-51000J0D01*
G01*
X80861800Y-112584800D01*
G75*
G02*
X80810800Y-112533800I0J51000D01*
G01*
X80810800Y-110833800D01*
G75*
G02*
X80861800Y-110782800I51000J0D01*
G01*
G37*
D14*
X70039600Y-105664000D03*
X81039600Y-105664000D03*
D15*
X73539600Y-104664000D03*
X75539600Y-104664000D03*
X77539600Y-104664000D03*
X77539600Y-106664000D03*
G36*
G01*
X72888600Y-107264001D02*
X72888600Y-106063999D01*
G75*
G02*
X72939599Y-106013000I50999J0D01*
G01*
X74139601Y-106013000D01*
G75*
G02*
X74190600Y-106063999I0J-50999D01*
G01*
X74190600Y-107264001D01*
G75*
G02*
X74139601Y-107315000I-50999J0D01*
G01*
X72939599Y-107315000D01*
G75*
G02*
X72888600Y-107264001I0J50999D01*
G01*
G37*
X75539600Y-106664000D03*
D13*
X44208700Y-111398300D03*
G36*
G01*
X44863452Y-114049300D02*
X43553948Y-114049300D01*
G75*
G02*
X43282700Y-113778052I0J271248D01*
G01*
X43282700Y-113018548D01*
G75*
G02*
X43553948Y-112747300I271248J0D01*
G01*
X44863452Y-112747300D01*
G75*
G02*
X45134700Y-113018548I0J-271248D01*
G01*
X45134700Y-113778052D01*
G75*
G02*
X44863452Y-114049300I-271248J0D01*
G01*
G37*
G36*
G01*
X47796412Y-133426420D02*
X48754068Y-133426420D01*
G75*
G02*
X49026240Y-133698592I0J-272172D01*
G01*
X49026240Y-134406248D01*
G75*
G02*
X48754068Y-134678420I-272172J0D01*
G01*
X47796412Y-134678420D01*
G75*
G02*
X47524240Y-134406248I0J272172D01*
G01*
X47524240Y-133698592D01*
G75*
G02*
X47796412Y-133426420I272172J0D01*
G01*
G37*
G36*
G01*
X47796412Y-131376420D02*
X48754068Y-131376420D01*
G75*
G02*
X49026240Y-131648592I0J-272172D01*
G01*
X49026240Y-132356248D01*
G75*
G02*
X48754068Y-132628420I-272172J0D01*
G01*
X47796412Y-132628420D01*
G75*
G02*
X47524240Y-132356248I0J272172D01*
G01*
X47524240Y-131648592D01*
G75*
G02*
X47796412Y-131376420I272172J0D01*
G01*
G37*
G36*
G01*
X47796412Y-125518020D02*
X48754068Y-125518020D01*
G75*
G02*
X49026240Y-125790192I0J-272172D01*
G01*
X49026240Y-126497848D01*
G75*
G02*
X48754068Y-126770020I-272172J0D01*
G01*
X47796412Y-126770020D01*
G75*
G02*
X47524240Y-126497848I0J272172D01*
G01*
X47524240Y-125790192D01*
G75*
G02*
X47796412Y-125518020I272172J0D01*
G01*
G37*
G36*
G01*
X47796412Y-123468020D02*
X48754068Y-123468020D01*
G75*
G02*
X49026240Y-123740192I0J-272172D01*
G01*
X49026240Y-124447848D01*
G75*
G02*
X48754068Y-124720020I-272172J0D01*
G01*
X47796412Y-124720020D01*
G75*
G02*
X47524240Y-124447848I0J272172D01*
G01*
X47524240Y-123740192D01*
G75*
G02*
X47796412Y-123468020I272172J0D01*
G01*
G37*
G36*
G01*
X47720212Y-117387480D02*
X48677868Y-117387480D01*
G75*
G02*
X48950040Y-117659652I0J-272172D01*
G01*
X48950040Y-118367308D01*
G75*
G02*
X48677868Y-118639480I-272172J0D01*
G01*
X47720212Y-118639480D01*
G75*
G02*
X47448040Y-118367308I0J272172D01*
G01*
X47448040Y-117659652D01*
G75*
G02*
X47720212Y-117387480I272172J0D01*
G01*
G37*
G36*
G01*
X47720212Y-115337480D02*
X48677868Y-115337480D01*
G75*
G02*
X48950040Y-115609652I0J-272172D01*
G01*
X48950040Y-116317308D01*
G75*
G02*
X48677868Y-116589480I-272172J0D01*
G01*
X47720212Y-116589480D01*
G75*
G02*
X47448040Y-116317308I0J272172D01*
G01*
X47448040Y-115609652D01*
G75*
G02*
X47720212Y-115337480I272172J0D01*
G01*
G37*
G36*
G01*
X54734600Y-73725200D02*
X54734600Y-75525200D01*
G75*
G02*
X54683600Y-75576200I-51000J0D01*
G01*
X51183600Y-75576200D01*
G75*
G02*
X51132600Y-75525200I0J51000D01*
G01*
X51132600Y-73725200D01*
G75*
G02*
X51183600Y-73674200I51000J0D01*
G01*
X54683600Y-73674200D01*
G75*
G02*
X54734600Y-73725200I0J-51000D01*
G01*
G37*
G36*
G01*
X59734600Y-73725200D02*
X59734600Y-75525200D01*
G75*
G02*
X59683600Y-75576200I-51000J0D01*
G01*
X56183600Y-75576200D01*
G75*
G02*
X56132600Y-75525200I0J51000D01*
G01*
X56132600Y-73725200D01*
G75*
G02*
X56183600Y-73674200I51000J0D01*
G01*
X59683600Y-73674200D01*
G75*
G02*
X59734600Y-73725200I0J-51000D01*
G01*
G37*
G36*
G01*
X108238600Y-77484078D02*
X108238600Y-76475482D01*
G75*
G02*
X108510302Y-76203780I271702J0D01*
G01*
X109243898Y-76203780D01*
G75*
G02*
X109515600Y-76475482I0J-271702D01*
G01*
X109515600Y-77484078D01*
G75*
G02*
X109243898Y-77755780I-271702J0D01*
G01*
X108510302Y-77755780D01*
G75*
G02*
X108238600Y-77484078I0J271702D01*
G01*
G37*
G36*
G01*
X106163600Y-77484078D02*
X106163600Y-76475482D01*
G75*
G02*
X106435302Y-76203780I271702J0D01*
G01*
X107168898Y-76203780D01*
G75*
G02*
X107440600Y-76475482I0J-271702D01*
G01*
X107440600Y-77484078D01*
G75*
G02*
X107168898Y-77755780I-271702J0D01*
G01*
X106435302Y-77755780D01*
G75*
G02*
X106163600Y-77484078I0J271702D01*
G01*
G37*
G36*
G01*
X108454500Y-89988498D02*
X108454500Y-88979902D01*
G75*
G02*
X108726202Y-88708200I271702J0D01*
G01*
X109459798Y-88708200D01*
G75*
G02*
X109731500Y-88979902I0J-271702D01*
G01*
X109731500Y-89988498D01*
G75*
G02*
X109459798Y-90260200I-271702J0D01*
G01*
X108726202Y-90260200D01*
G75*
G02*
X108454500Y-89988498I0J271702D01*
G01*
G37*
G36*
G01*
X106379500Y-89988498D02*
X106379500Y-88979902D01*
G75*
G02*
X106651202Y-88708200I271702J0D01*
G01*
X107384798Y-88708200D01*
G75*
G02*
X107656500Y-88979902I0J-271702D01*
G01*
X107656500Y-89988498D01*
G75*
G02*
X107384798Y-90260200I-271702J0D01*
G01*
X106651202Y-90260200D01*
G75*
G02*
X106379500Y-89988498I0J271702D01*
G01*
G37*
G36*
G01*
X95490138Y-137773100D02*
X94481542Y-137773100D01*
G75*
G02*
X94209840Y-137501398I0J271702D01*
G01*
X94209840Y-136767802D01*
G75*
G02*
X94481542Y-136496100I271702J0D01*
G01*
X95490138Y-136496100D01*
G75*
G02*
X95761840Y-136767802I0J-271702D01*
G01*
X95761840Y-137501398D01*
G75*
G02*
X95490138Y-137773100I-271702J0D01*
G01*
G37*
G36*
G01*
X95490138Y-139848100D02*
X94481542Y-139848100D01*
G75*
G02*
X94209840Y-139576398I0J271702D01*
G01*
X94209840Y-138842802D01*
G75*
G02*
X94481542Y-138571100I271702J0D01*
G01*
X95490138Y-138571100D01*
G75*
G02*
X95761840Y-138842802I0J-271702D01*
G01*
X95761840Y-139576398D01*
G75*
G02*
X95490138Y-139848100I-271702J0D01*
G01*
G37*
G36*
G01*
X89622500Y-130229502D02*
X89622500Y-131238098D01*
G75*
G02*
X89350798Y-131509800I-271702J0D01*
G01*
X88617202Y-131509800D01*
G75*
G02*
X88345500Y-131238098I0J271702D01*
G01*
X88345500Y-130229502D01*
G75*
G02*
X88617202Y-129957800I271702J0D01*
G01*
X89350798Y-129957800D01*
G75*
G02*
X89622500Y-130229502I0J-271702D01*
G01*
G37*
G36*
G01*
X91697500Y-130229502D02*
X91697500Y-131238098D01*
G75*
G02*
X91425798Y-131509800I-271702J0D01*
G01*
X90692202Y-131509800D01*
G75*
G02*
X90420500Y-131238098I0J271702D01*
G01*
X90420500Y-130229502D01*
G75*
G02*
X90692202Y-129957800I271702J0D01*
G01*
X91425798Y-129957800D01*
G75*
G02*
X91697500Y-130229502I0J-271702D01*
G01*
G37*
G36*
G01*
X100712162Y-74585960D02*
X101720758Y-74585960D01*
G75*
G02*
X101992460Y-74857662I0J-271702D01*
G01*
X101992460Y-75591258D01*
G75*
G02*
X101720758Y-75862960I-271702J0D01*
G01*
X100712162Y-75862960D01*
G75*
G02*
X100440460Y-75591258I0J271702D01*
G01*
X100440460Y-74857662D01*
G75*
G02*
X100712162Y-74585960I271702J0D01*
G01*
G37*
G36*
G01*
X100712162Y-72510960D02*
X101720758Y-72510960D01*
G75*
G02*
X101992460Y-72782662I0J-271702D01*
G01*
X101992460Y-73516258D01*
G75*
G02*
X101720758Y-73787960I-271702J0D01*
G01*
X100712162Y-73787960D01*
G75*
G02*
X100440460Y-73516258I0J271702D01*
G01*
X100440460Y-72782662D01*
G75*
G02*
X100712162Y-72510960I271702J0D01*
G01*
G37*
G36*
G01*
X97702500Y-99869098D02*
X97702500Y-98860502D01*
G75*
G02*
X97974202Y-98588800I271702J0D01*
G01*
X98707798Y-98588800D01*
G75*
G02*
X98979500Y-98860502I0J-271702D01*
G01*
X98979500Y-99869098D01*
G75*
G02*
X98707798Y-100140800I-271702J0D01*
G01*
X97974202Y-100140800D01*
G75*
G02*
X97702500Y-99869098I0J271702D01*
G01*
G37*
G36*
G01*
X95627500Y-99869098D02*
X95627500Y-98860502D01*
G75*
G02*
X95899202Y-98588800I271702J0D01*
G01*
X96632798Y-98588800D01*
G75*
G02*
X96904500Y-98860502I0J-271702D01*
G01*
X96904500Y-99869098D01*
G75*
G02*
X96632798Y-100140800I-271702J0D01*
G01*
X95899202Y-100140800D01*
G75*
G02*
X95627500Y-99869098I0J271702D01*
G01*
G37*
G36*
G01*
X94854900Y-125022502D02*
X94854900Y-126031098D01*
G75*
G02*
X94583198Y-126302800I-271702J0D01*
G01*
X93849602Y-126302800D01*
G75*
G02*
X93577900Y-126031098I0J271702D01*
G01*
X93577900Y-125022502D01*
G75*
G02*
X93849602Y-124750800I271702J0D01*
G01*
X94583198Y-124750800D01*
G75*
G02*
X94854900Y-125022502I0J-271702D01*
G01*
G37*
G36*
G01*
X96929900Y-125022502D02*
X96929900Y-126031098D01*
G75*
G02*
X96658198Y-126302800I-271702J0D01*
G01*
X95924602Y-126302800D01*
G75*
G02*
X95652900Y-126031098I0J271702D01*
G01*
X95652900Y-125022502D01*
G75*
G02*
X95924602Y-124750800I271702J0D01*
G01*
X96658198Y-124750800D01*
G75*
G02*
X96929900Y-125022502I0J-271702D01*
G01*
G37*
G36*
G01*
X102909500Y-126107298D02*
X102909500Y-125098702D01*
G75*
G02*
X103181202Y-124827000I271702J0D01*
G01*
X103914798Y-124827000D01*
G75*
G02*
X104186500Y-125098702I0J-271702D01*
G01*
X104186500Y-126107298D01*
G75*
G02*
X103914798Y-126379000I-271702J0D01*
G01*
X103181202Y-126379000D01*
G75*
G02*
X102909500Y-126107298I0J271702D01*
G01*
G37*
G36*
G01*
X100834500Y-126107298D02*
X100834500Y-125098702D01*
G75*
G02*
X101106202Y-124827000I271702J0D01*
G01*
X101839798Y-124827000D01*
G75*
G02*
X102111500Y-125098702I0J-271702D01*
G01*
X102111500Y-126107298D01*
G75*
G02*
X101839798Y-126379000I-271702J0D01*
G01*
X101106202Y-126379000D01*
G75*
G02*
X100834500Y-126107298I0J271702D01*
G01*
G37*
G36*
G01*
X79058900Y-86280098D02*
X79058900Y-85271502D01*
G75*
G02*
X79330602Y-84999800I271702J0D01*
G01*
X80064198Y-84999800D01*
G75*
G02*
X80335900Y-85271502I0J-271702D01*
G01*
X80335900Y-86280098D01*
G75*
G02*
X80064198Y-86551800I-271702J0D01*
G01*
X79330602Y-86551800D01*
G75*
G02*
X79058900Y-86280098I0J271702D01*
G01*
G37*
G36*
G01*
X76983900Y-86280098D02*
X76983900Y-85271502D01*
G75*
G02*
X77255602Y-84999800I271702J0D01*
G01*
X77989198Y-84999800D01*
G75*
G02*
X78260900Y-85271502I0J-271702D01*
G01*
X78260900Y-86280098D01*
G75*
G02*
X77989198Y-86551800I-271702J0D01*
G01*
X77255602Y-86551800D01*
G75*
G02*
X76983900Y-86280098I0J271702D01*
G01*
G37*
G36*
G01*
X64367302Y-84878040D02*
X65375898Y-84878040D01*
G75*
G02*
X65647600Y-85149742I0J-271702D01*
G01*
X65647600Y-85883338D01*
G75*
G02*
X65375898Y-86155040I-271702J0D01*
G01*
X64367302Y-86155040D01*
G75*
G02*
X64095600Y-85883338I0J271702D01*
G01*
X64095600Y-85149742D01*
G75*
G02*
X64367302Y-84878040I271702J0D01*
G01*
G37*
G36*
G01*
X64367302Y-82803040D02*
X65375898Y-82803040D01*
G75*
G02*
X65647600Y-83074742I0J-271702D01*
G01*
X65647600Y-83808338D01*
G75*
G02*
X65375898Y-84080040I-271702J0D01*
G01*
X64367302Y-84080040D01*
G75*
G02*
X64095600Y-83808338I0J271702D01*
G01*
X64095600Y-83074742D01*
G75*
G02*
X64367302Y-82803040I271702J0D01*
G01*
G37*
G36*
G01*
X55858100Y-78692902D02*
X55858100Y-79701498D01*
G75*
G02*
X55586398Y-79973200I-271702J0D01*
G01*
X54852802Y-79973200D01*
G75*
G02*
X54581100Y-79701498I0J271702D01*
G01*
X54581100Y-78692902D01*
G75*
G02*
X54852802Y-78421200I271702J0D01*
G01*
X55586398Y-78421200D01*
G75*
G02*
X55858100Y-78692902I0J-271702D01*
G01*
G37*
G36*
G01*
X57933100Y-78692902D02*
X57933100Y-79701498D01*
G75*
G02*
X57661398Y-79973200I-271702J0D01*
G01*
X56927802Y-79973200D01*
G75*
G02*
X56656100Y-79701498I0J271702D01*
G01*
X56656100Y-78692902D01*
G75*
G02*
X56927802Y-78421200I271702J0D01*
G01*
X57661398Y-78421200D01*
G75*
G02*
X57933100Y-78692902I0J-271702D01*
G01*
G37*
G36*
G01*
X55223100Y-94186902D02*
X55223100Y-95195498D01*
G75*
G02*
X54951398Y-95467200I-271702J0D01*
G01*
X54217802Y-95467200D01*
G75*
G02*
X53946100Y-95195498I0J271702D01*
G01*
X53946100Y-94186902D01*
G75*
G02*
X54217802Y-93915200I271702J0D01*
G01*
X54951398Y-93915200D01*
G75*
G02*
X55223100Y-94186902I0J-271702D01*
G01*
G37*
G36*
G01*
X57298100Y-94186902D02*
X57298100Y-95195498D01*
G75*
G02*
X57026398Y-95467200I-271702J0D01*
G01*
X56292802Y-95467200D01*
G75*
G02*
X56021100Y-95195498I0J271702D01*
G01*
X56021100Y-94186902D01*
G75*
G02*
X56292802Y-93915200I271702J0D01*
G01*
X57026398Y-93915200D01*
G75*
G02*
X57298100Y-94186902I0J-271702D01*
G01*
G37*
G36*
G01*
X106531100Y-116310302D02*
X106531100Y-117318898D01*
G75*
G02*
X106259398Y-117590600I-271702J0D01*
G01*
X105525802Y-117590600D01*
G75*
G02*
X105254100Y-117318898I0J271702D01*
G01*
X105254100Y-116310302D01*
G75*
G02*
X105525802Y-116038600I271702J0D01*
G01*
X106259398Y-116038600D01*
G75*
G02*
X106531100Y-116310302I0J-271702D01*
G01*
G37*
G36*
G01*
X108606100Y-116310302D02*
X108606100Y-117318898D01*
G75*
G02*
X108334398Y-117590600I-271702J0D01*
G01*
X107600802Y-117590600D01*
G75*
G02*
X107329100Y-117318898I0J271702D01*
G01*
X107329100Y-116310302D01*
G75*
G02*
X107600802Y-116038600I271702J0D01*
G01*
X108334398Y-116038600D01*
G75*
G02*
X108606100Y-116310302I0J-271702D01*
G01*
G37*
G36*
G01*
X87971500Y-93424902D02*
X87971500Y-94433498D01*
G75*
G02*
X87699798Y-94705200I-271702J0D01*
G01*
X86966202Y-94705200D01*
G75*
G02*
X86694500Y-94433498I0J271702D01*
G01*
X86694500Y-93424902D01*
G75*
G02*
X86966202Y-93153200I271702J0D01*
G01*
X87699798Y-93153200D01*
G75*
G02*
X87971500Y-93424902I0J-271702D01*
G01*
G37*
G36*
G01*
X90046500Y-93424902D02*
X90046500Y-94433498D01*
G75*
G02*
X89774798Y-94705200I-271702J0D01*
G01*
X89041202Y-94705200D01*
G75*
G02*
X88769500Y-94433498I0J271702D01*
G01*
X88769500Y-93424902D01*
G75*
G02*
X89041202Y-93153200I271702J0D01*
G01*
X89774798Y-93153200D01*
G75*
G02*
X90046500Y-93424902I0J-271702D01*
G01*
G37*
G36*
G01*
X94654500Y-94433498D02*
X94654500Y-93424902D01*
G75*
G02*
X94926202Y-93153200I271702J0D01*
G01*
X95659798Y-93153200D01*
G75*
G02*
X95931500Y-93424902I0J-271702D01*
G01*
X95931500Y-94433498D01*
G75*
G02*
X95659798Y-94705200I-271702J0D01*
G01*
X94926202Y-94705200D01*
G75*
G02*
X94654500Y-94433498I0J271702D01*
G01*
G37*
G36*
G01*
X92579500Y-94433498D02*
X92579500Y-93424902D01*
G75*
G02*
X92851202Y-93153200I271702J0D01*
G01*
X93584798Y-93153200D01*
G75*
G02*
X93856500Y-93424902I0J-271702D01*
G01*
X93856500Y-94433498D01*
G75*
G02*
X93584798Y-94705200I-271702J0D01*
G01*
X92851202Y-94705200D01*
G75*
G02*
X92579500Y-94433498I0J271702D01*
G01*
G37*
M02*
